<?xml version="1.0" encoding="UTF-8" standalone="no"?>
<svg
   width="640"
   height="650"
   version="1.1"
   viewBox="0 0 169.33 171.98235"
   id="svg204"
   sodipodi:docname="1.svg"
   inkscape:version="1.2.2 (732a01da63, 2022-12-09)"
   xmlns:inkscape="http://www.inkscape.org/namespaces/inkscape"
   xmlns:sodipodi="http://sodipodi.sourceforge.net/DTD/sodipodi-0.dtd"
   xmlns="http://www.w3.org/2000/svg"
   xmlns:svg="http://www.w3.org/2000/svg">
  <defs
     id="defs208" />
  <sodipodi:namedview
     id="namedview206"
     pagecolor="#505050"
     bordercolor="#ffffff"
     borderopacity="1"
     inkscape:showpageshadow="0"
     inkscape:pageopacity="0"
     inkscape:pagecheckerboard="1"
     inkscape:deskcolor="#505050"
     showgrid="false"
     inkscape:zoom="1.9632612"
     inkscape:cx="262.82799"
     inkscape:cy="616.32146"
     inkscape:window-width="1920"
     inkscape:window-height="1009"
     inkscape:window-x="-8"
     inkscape:window-y="-8"
     inkscape:window-maximized="1"
     inkscape:current-layer="g46" />
  <g
     fill-rule="evenodd"
     id="g48">
    <g
       transform="matrix(1.0104,0,0,1.0104,29.177,28.017)"
       stroke-width="0.98966"
       id="g10">
      <path
         transform="matrix(0.13942,0,0,0.13955,55.071,-7.1962)"
         d="m 0,836.15 -14.445,-8.572 -14.227,-6.5 -13.919,-8.38 -13.996,-3.456 -13.883,-3.76 -13.869,-3.045 -13.916,-2.206 -13.648,-3.986 -14.199,-0.057 -13.189,-6.218 -14.103,-0.819 -14.771,2.01 -16.083,6.914 -16.149,5.683 -15.385,1.558 -15.757,2.165 -15.059,-0.889 -15.406,-0.218 -14.442,-3.509 -13.875,-5.207 -13.16,-7.055 -11.8,-10.249 -10.304,-13.317 -12.766,-7.082 -11.377,-9.954 -15.153,-1.877 -17.086,1.535 -14.643,-3.738 -12.535,-7.798 -10.118,-11.932 -6.201,-18.095 -4.278,-20.36 -2.135,-22.698 6.326,-34.128 16.74,-47.061 23.708,-53.794 29.829,-58.585 42.327,-70.911 49.953,-75.784 54.141,-75.868 52.615,-69.17 41.013,-51.761 30.514,-37.13 18.111,-21.875 8.3883,-10.755 3.6142,-5.4876 2.6509,-4.2832 0.8698,-2.4513 1.0193,-2.4755 1.3015,-2.6032 1.7732,-2.8652 0.701,-1.8866 -0.8789,-0.6213 -0.7335,-0.7409 -1.1925,-0.4264 -1.5976,-0.1839 0.535,-1.6197 1.3876,-2.0976 1.1714,-1.8746 0.9452,-1.6646 2.6814,-2.5612 2.4363,-2.289 1.1373,-1.5007 1.0045,-1.3702 2.5434,-2.0298 4.0589,-2.5838 3.7645,-2.2783 4.7006,-2.4926 4.7972,-2.3318 0.332,-0.50919 1.0878,-0.75152 1.9374,-0.98082 1.6196,-0.80536 0.8652,-0.52425 4.5569,-1.4782 3.1581,-0.95728 1.6332,-0.48716 1.3357,-0.36324 0.80373,-0.21069 1.0194,-0.21934 1.0471,-0.1869 0.12606,-0.019967 0.35614,0.062798 0.81325,0.16451 0.9114,0.21498 1.1734,0.30901 1.7821,0.50441 2.3403,0.72087 3.7065,1.2015 3.0146,1.1321 1.8244,0.86331 1.4561,0.81037 1.3322,0.82624 1.9238,1.1107 5.0065,2.4388 6.0031,3.0725 4.7747,2.7825 5.7845,3.465 3.1873,2.4588 -1.6632,0.1417 1.032,1.5188 2.7035,2.5101 1.1549,1.7604 2.9125,2.893 2.6088,2.8674 -0.4737,1.0208 0.4593,1.6569 1.8639,2.696 -0.9164,0.8086 -1.4882,0.3662 -0.7799,0.8766 -1.3232,0.4333 -2.0717,-0.2291 -0.137,1.3724 -0.2017,1.3516 0.6838,2.2134 3.5592,5.0875 7.3063,9.1356 15.262,17.958 27.155,31.914999 34.595,42.362 45.209,57.479 59.091,77.99 60.302,84.904 47.569,74.5 39.898,69.423 35.529,68.128 25.386,58.267 13.264,44.184 5.063,34.378 2.341,32.104 -1.829,27.092 -8.08,17.819 -14.255,7.503 -17.711,0.975 -19.539,-3.186 -21.188,-7.501 -20.153,-6.602 -17.786,-2.531 -15.68,1.576 -17.661,-3.76 -15.649,0.495 -16.879,-3.409 -14.77,1.755 -15.861,-1.961 -15.946,-3.046 -14.76,0.134 -15.302,-2.423 -14.546,-0.302 -14.688,-1.506 -14.023,0.821 -14.241,-0.684 -12.637,7.729 -12.951,6.955 -12.462,11.649 -13.028,9.847 -13.578,7.349 -13.628,9.133 -14.368,2.518 -14.271,5.37 -14.478,4.06 -14.695,-1.275 -14.641,-2.659"
         fill="#fcff5c"
         fill-opacity="0.68235"
         id="path4" />
      <path
         transform="matrix(0.13942,0,0,0.13955,55.071,-7.1962)"
         d="m 0,836.15 -14.445,-8.572 -14.227,-6.5 -13.919,-8.38 -13.996,-3.456 -13.883,-3.76 -13.869,-3.045 -13.916,-2.206 -13.648,-3.986 -14.199,-0.057 -13.189,-6.218 -14.103,-0.819 -14.771,2.01 -16.083,6.914 -16.149,5.683 -15.385,1.558 -15.757,2.165 -15.059,-0.889 -15.406,-0.218 -14.442,-3.509 -13.875,-5.207 -13.16,-7.055 -11.8,-10.249 -10.304,-13.317 -12.766,-7.082 -11.377,-9.954 -15.153,-1.877 -17.086,1.535 -14.643,-3.738 -12.535,-7.798 -10.118,-11.932 -6.201,-18.095 -4.278,-20.36 -2.135,-22.698 6.326,-34.128 16.74,-47.061 23.708,-53.794 29.829,-58.585 42.327,-70.911 49.953,-75.784 54.141,-75.868 52.615,-69.17 41.013,-51.761 30.514,-37.13 18.111,-21.875 8.3883,-10.755 3.6142,-5.4876 2.6509,-4.2832 0.8698,-2.4513 1.0193,-2.4755 1.3015,-2.6032 1.7732,-2.8652 0.701,-1.8866 -0.8789,-0.6213 -0.7335,-0.7409 -1.1925,-0.4264 -1.5976,-0.1839 0.535,-1.6197 1.3876,-2.0976 1.1714,-1.8746 0.9452,-1.6646 2.6814,-2.5612 2.4363,-2.289 1.1373,-1.5007 1.0045,-1.3702 2.5434,-2.0298 4.0589,-2.5838 3.7645,-2.2783 4.7006,-2.4926 4.7972,-2.3318 0.332,-0.50919 1.0878,-0.75152 1.9374,-0.98082 1.6196,-0.80536 0.8652,-0.52425 4.5569,-1.4782 3.1581,-0.95728 1.6332,-0.48716 1.3357,-0.36324 0.80373,-0.21069 1.0194,-0.21934 1.0471,-0.1869 0.12606,-0.019967 0.35614,0.062798 0.81325,0.16451 0.9114,0.21498 1.1734,0.30901 1.7821,0.50441 2.3403,0.72087 3.7065,1.2015 3.0146,1.1321 1.8244,0.86331 1.4561,0.81037 1.3322,0.82624 1.9238,1.1107 5.0065,2.4388 6.0031,3.0725 4.7747,2.7825 5.7845,3.465 3.1873,2.4588 -1.6632,0.1417 1.032,1.5188 2.7035,2.5101 1.1549,1.7604 2.9125,2.893 2.6088,2.8674 -0.4737,1.0208 0.4593,1.6569 1.8639,2.696 -0.9164,0.8086 -1.4882,0.3662 -0.7799,0.8766 -1.3232,0.4333 -2.0717,-0.2291 -0.137,1.3724 -0.2017,1.3516 0.6838,2.2134 3.5592,5.0875 7.3063,9.1356 15.262,17.958 27.155,31.914999 34.595,42.362 45.209,57.479 59.091,77.99 60.302,84.904 47.569,74.5 39.898,69.423 35.529,68.128 25.386,58.267 13.264,44.184 5.063,34.378 2.341,32.104 -1.829,27.092 -8.08,17.819 -14.255,7.503 -17.711,0.975 -19.539,-3.186 -21.188,-7.501 -20.153,-6.602 -17.786,-2.531 -15.68,1.576 -17.661,-3.76 -15.649,0.495 -16.879,-3.409 -14.77,1.755 -15.861,-1.961 -15.946,-3.046 -14.76,0.134 -15.302,-2.423 -14.546,-0.302 -14.688,-1.506 -14.023,0.821 -14.241,-0.684 -12.637,7.729 -12.951,6.955 -12.462,11.649 -13.028,9.847 -13.578,7.349 -13.628,9.133 -14.368,2.518 -14.271,5.37 -14.478,4.06 -14.695,-1.275 -14.641,-2.659"
         fill="none"
         stroke="#fcff5c"
         stroke-linecap="round"
         stroke-linejoin="round"
         stroke-width="5.3893"
         id="path8" />
    </g>
    <g
       transform="translate(0,-61.846)"
       fill="#848484"
       font-family="Lato"
       stroke-linejoin="round"
       id="g30">
      <g
         font-size="14.937px"
         stroke-width="1.2448"
         id="g24">
        <text
           transform="matrix(0.28341,0,0,0.28341,23.833,82.59)"
           x="472"
           y="6.5"
           style="font-variant-ligatures:normal;font-variant-caps:normal;font-variant-numeric:normal;font-variant-east-asian:normal"
           xml:space="preserve"
           id="text12">90°</text>
        <text
           transform="matrix(0.28341,0,0,0.28341,145.55,82.59)"
           x="-496"
           y="6.5"
           style="font-variant-ligatures:normal;font-variant-caps:normal;font-variant-numeric:normal;font-variant-east-asian:normal"
           xml:space="preserve"
           id="text14">90°</text>
        <text
           transform="matrix(0.28341,0,0,0.28341,83.593,81.449)"
           x="233.98399"
           y="421.297"
           style="font-variant-ligatures:normal;font-variant-caps:normal;font-variant-numeric:normal;font-variant-east-asian:normal"
           xml:space="preserve"
           id="text16"> 30°</text>
        <text
           transform="matrix(0.28341,0,0,0.28341,41.92,55.913)"
           x="405.297"
           y="250"
           style="font-variant-ligatures:normal;font-variant-caps:normal;font-variant-numeric:normal;font-variant-east-asian:normal"
           xml:space="preserve"
           id="text18"> 60°</text>
        <text
           transform="matrix(0.28341,0,0,0.28341,85.908,81.449)"
           x="-260.98401"
           y="421.297"
           style="font-variant-ligatures:normal;font-variant-caps:normal;font-variant-numeric:normal;font-variant-east-asian:normal"
           xml:space="preserve"
           id="text20">30° </text>
        <text
           transform="matrix(0.28341,0,0,0.28341,127.58,55.913)"
           x="-432.297"
           y="250"
           style="font-variant-ligatures:normal;font-variant-caps:normal;font-variant-numeric:normal;font-variant-east-asian:normal"
           xml:space="preserve"
           id="text22">60° </text>
      </g>
      <text
         transform="matrix(0.28319,0,0,0.28319,-50.867,217.57)"
         x="472"
         y="6.5"
         font-size="14.948px"
         stroke-width="1.6"
         style="font-variant-ligatures:normal;font-variant-caps:normal;font-variant-numeric:normal;font-variant-east-asian:normal"
         xml:space="preserve"
         id="text26">0º</text>
      <text
         transform="matrix(0.28319,0,0,0.28319,-54.958,222.31)"
         x="472"
         y="6.5"
         font-size="14.948px"
         stroke-width="1.6"
         style="font-variant-ligatures:normal;font-variant-caps:normal;font-variant-numeric:normal;font-variant-east-asian:normal"
         xml:space="preserve"
         id="text28">cd.klm</text>
    </g>
    <g
       transform="matrix(0.36334,0,0,0.36334,71.361,-82.29)"
       fill="none"
       font-family="Lato"
       stroke="#000000"
       stroke-linecap="square"
       stroke-linejoin="bevel"
       stroke-width="0.91678"
       id="g46">
      <g
         stroke-linejoin="round"
         id="g42">
        <g
           transform="matrix(0.72337,0,0,0.72337,-166.61,669.22)"
           fill="#fcff5c"
           fill-opacity="0.68235"
           font-size="16px"
           font-weight="400"
           stroke="#fcff5c"
           stroke-linecap="round"
           stroke-width="1.8336"
           id="g34">
          <rect
             y="6.5"
             width="11.2"
             height="15.2"
             stroke-width="1.8336"
             id="rect32"
             x="0" />
        </g>
        <text
           transform="matrix(0.72337,0,0,0.72337,-166.61,667.7)"
           x="16"
           y="22.5"
           fill="#848484"
           font-size="17.569px"
           stroke="none"
           stroke-linecap="butt"
           stroke-width="0.91678"
           style="font-variant-ligatures:normal;font-variant-caps:normal;font-variant-numeric:normal;font-variant-east-asian:normal"
           xml:space="preserve"
           id="text36">C0-C180</text>
      </g>
    </g>
  </g>
  <g
     transform="translate(0.0018705,11.579)"
     fill="none"
     stroke="#858585"
     id="g92">
    <path
       transform="matrix(0.52917,0,0,0.52917,-68.201,-25.683)"
       d="m 320.33,65.864 a 31.291,31.291 0 0 1 -15.646,27.099 31.291,31.291 0 0 1 -31.292,-10e-7 31.291,31.291 0 0 1 -15.646,-27.099"
       stroke-width="0.15"
       id="path50" />
    <path
       transform="matrix(1.0583,0,0,1.0576,-221.15,-60.49)"
       d="m 320.33,65.864 a 31.291,31.291 0 0 1 -15.646,27.099 31.291,31.291 0 0 1 -31.292,-10e-7 31.291,31.291 0 0 1 -15.646,-27.099"
       stroke-width="0.075027"
       id="path52" />
    <path
       transform="matrix(1.5875,0,0,1.5865,-374.1,-95.32)"
       d="m 320.33,65.864 a 31.291,31.291 0 0 1 -15.646,27.099 31.291,31.291 0 0 1 -31.292,-10e-7 31.291,31.291 0 0 1 -15.646,-27.099"
       stroke-width="0.050016"
       id="path54" />
    <path
       transform="matrix(2.1167,0,0,2.1153,-527.05,-130.15)"
       d="m 320.33,65.864 a 31.291,31.291 0 0 1 -15.646,27.099 31.291,31.291 0 0 1 -31.292,-10e-7 31.291,31.291 0 0 1 -15.646,-27.099"
       stroke-width="0.037512"
       id="path56" />
    <path
       transform="matrix(2.6458,0,0,2.6441,-680,-164.98)"
       d="m 316.1,81.579 c -2.6998,4.6487 -6.5966,8.6031 -11.414,11.384 -9.6817,5.59 -21.61,5.59 -31.292,-10e-7 -4.8457,-2.7976 -8.7602,-6.7827 -11.462,-11.467"
       stroke-width="0.03001"
       id="path58" />
    <path
       transform="matrix(3.1749,0,0,3.1729,-832.93,-199.8)"
       d="m 311.59,87.561 c -2.0089,2.088 -4.324,3.9131 -6.9028,5.4019 -9.6817,5.59 -21.61,5.59 -31.292,-1e-6 -2.5964,-1.499 -4.9254,-3.3389 -6.9438,-5.4447"
       stroke-width="0.025009"
       id="path60" />
    <path
       transform="matrix(3.7041,0,0,3.7017,-985.9,-234.64)"
       d="m 308.37,90.473 c -1.1574,0.90884 -2.3869,1.7421 -3.683,2.4903 -9.6817,5.59 -21.61,5.59 -31.292,-10e-7 -1.3089,-0.75568 -2.5499,-1.598 -3.7174,-2.5174"
       stroke-width="0.021436"
       id="path62" />
    <path
       transform="matrix(4.2243,0,0,4.2215,-1136.5,-268.87)"
       d="m 306.04,92.132 c -0.44425,0.28747 -0.89718,0.5646 -1.3586,0.83096 -9.6817,5.59 -21.61,5.59 -31.292,-10e-7 -0.43229,-0.24957 -0.85718,-0.5086 -1.2744,-0.77673"
       stroke-width="0.018796"
       id="path64" />
    <path
       transform="matrix(0.26469,0,0,0.26469,-0.036694,-0.031725)"
       d="m 320.33,34.764 v 499.07"
       stroke-width="0.29988"
       id="path66" />
    <path
       transform="matrix(0,0.29371,-0.29371,0,168.21,-84.937)"
       d="m 320.33,40.455 v 487.98"
       stroke-width="0.27025"
       id="path68" />
    <g
       stroke-width="0.29988"
       id="g90">
      <path
         transform="matrix(0.26469,0,0,0.26469,-0.036694,-0.031725)"
         d="m 320.33,34.764 129.11,481.86"
         id="path70" />
      <path
         transform="matrix(0.26469,0,0,0.26469,-0.036694,-0.031725)"
         d="m 320.33,34.764 249.34,431.88"
         id="path72" />
      <path
         transform="matrix(0.26469,0,0,0.26469,-0.036694,-0.031725)"
         d="m 320.33,34.764 270.38,270.38"
         id="path74" />
      <path
         transform="matrix(0.26469,0,0,0.26469,-0.036694,-0.031725)"
         d="m 320.33,34.764 270.39,156.06"
         id="path76" />
      <path
         transform="matrix(0.26469,0,0,0.26469,-0.036694,-0.031725)"
         d="m 320.33,34.764 270.39,72.405"
         id="path78" />
      <path
         transform="matrix(0.26469,0,0,0.26469,-0.036694,-0.031725)"
         d="M 320.33,34.764 191.1,517.074"
         id="path80" />
      <path
         transform="matrix(0.26469,0,0,0.26469,-0.036694,-0.031725)"
         d="M 320.33,34.764 70.48,467.524"
         id="path82" />
      <path
         transform="matrix(0.26469,0,0,0.26469,-0.036694,-0.031725)"
         d="M 320.33,34.764 49.25,305.844"
         id="path84" />
      <path
         transform="matrix(0.26469,0,0,0.26469,-0.036694,-0.031725)"
         d="M 320.33,34.764 49.25,191.274"
         id="path86" />
      <path
         transform="matrix(0.26469,0,0,0.26469,-0.036694,-0.031725)"
         d="M 320.33,34.764 49.27,107.391"
         id="path88" />
    </g>
  </g>
  <g
     transform="matrix(-1.5382,0,0,-1.5382,1099.6,-590.03)"
     fill="none"
     stroke="#000000"
     stroke-linecap="round"
     id="g202">
    <g
       stroke-width="0.172"
       id="g102">
      <path
         transform="translate(0,-7.5277)"
         d="m 665.12,-384.67 v 1.5499"
         id="path94" />
      <path
         transform="translate(0,-7.5277)"
         d="m 665.12,-383.12 h 0.38365"
         id="path96" />
      <path
         transform="rotate(90,668.38,-386.38)"
         d="m 665.12,-383.12 h 0.74983"
         id="path98" />
      <path
         transform="rotate(90,663.03,-391.73)"
         d="m 665.12,-383.12 h 0.74983"
         id="path100" />
    </g>
    <path
       transform="matrix(1,0,0,0.70599,-0.90453,-119.16)"
       d="m 654.42,-380.62 v -1.4999"
       stroke-width="0.20471"
       id="path104" />
    <path
       transform="matrix(1,0,0,0.70599,11.795,-119.16)"
       d="m 654.42,-380.62 v -1.4999"
       stroke-width="0.20471"
       id="path106" />
    <g
       stroke-width="0.172"
       id="g182">
      <path
         transform="translate(0,-7.5277)"
         d="m 668.02,-379.57 a 0.25,0.25 0 0 0 0.25,-0.25"
         id="path108" />
      <path
         transform="translate(0,-7.5277)"
         d="m 651.27,-379.82 a 0.25,0.25 0 0 0 0.25001,0.25"
         id="path110" />
      <path
         transform="translate(0,-7.5277)"
         d="m 654.42,-383.12 v -1.5499"
         id="path112" />
      <path
         transform="translate(0,-7.5277)"
         d="m 651.27,-381.12 v 1.2967"
         id="path114" />
      <path
         transform="translate(0,-7.5277)"
         d="m 668.27,-384.12 a 1.63,1.63 0 0 0 0,3.0067"
         id="path116" />
      <path
         transform="translate(0,-7.5277)"
         d="m 654.42,-382.12 h -0.38629"
         id="path118" />
      <path
         transform="translate(0,-7.5277)"
         d="m 654.03,-383.12 a 0.65,0.65 0 1 0 0,1"
         id="path120" />
      <path
         transform="translate(0,-7.5277)"
         d="m 651.52,-379.57 h 16.499"
         id="path122" />
      <path
         transform="translate(0,-7.5277)"
         d="m 651.27,-381.12 a 1.63,1.63 0 0 0 0,-3.0067"
         id="path124" />
      <path
         transform="translate(0,-7.5277)"
         d="m 654.03,-383.12 h 0.38629"
         id="path126" />
      <path
         transform="translate(0,-7.5277)"
         d="m 665.5,-382.12 h -0.38365"
         id="path128" />
      <path
         transform="translate(0,-7.5277)"
         d="m 668.27,-379.82 v -1.2967"
         id="path130" />
      <path
         transform="translate(0.04534,-3.2277)"
         d="m 666.07,-385.67 h -4.8895"
         id="path132" />
      <path
         transform="translate(0.14532,-2.1981)"
         d="M 666.07,-385.67 H 653.371"
         id="path134" />
      <path
         transform="translate(0.04534,-3.2277)"
         d="m 658.36,-386.37 v 0.69982"
         id="path136" />
      <path
         transform="translate(0.04534,-3.2277)"
         d="m 658.36,-385.67 h -4.8895"
         id="path138" />
      <path
         transform="translate(0.04534,-3.2277)"
         d="m 661.18,-386.37 h -2.8205"
         id="path140" />
      <path
         transform="translate(0.04534,-3.2277)"
         d="m 661.18,-385.67 v -0.69982"
         id="path142" />
      <path
         transform="translate(0,-7.5277)"
         d="m 665.5,-382.12 a 0.65,0.65 0 1 0 0,-1"
         id="path144" />
      <path
         transform="translate(0,-7.5277)"
         d="m 653.07,-389.17 h -1.2991"
         id="path146" />
      <path
         transform="translate(0,-7.5277)"
         d="m 665.37,-388.17 h 2.1167"
         id="path148" />
      <path
         transform="translate(0,-7.5277)"
         d="m 653.47,-386.17 h 0.94985"
         id="path150" />
      <path
         transform="translate(0,-7.5277)"
         d="m 667.77,-389.17 h -1.2991"
         id="path152" />
      <path
         transform="translate(0,-7.5277)"
         d="m 666.07,-384.67 h -0.94986"
         id="path154" />
      <path
         transform="translate(0,-7.5277)"
         d="m 654.42,-384.67 h -0.94985"
         id="path156" />
      <path
         transform="translate(0,-7.5277)"
         d="m 651.77,-389.17 a 0.5,0.5 0 0 0 -0.50001,0.5"
         id="path158" />
      <path
         transform="translate(0,-7.5277)"
         d="m 668.27,-384.12 9e-4,-4.5466"
         id="path160" />
      <path
         transform="translate(0,-7.5277)"
         d="m 653.47,-384.67 v -1.4999"
         id="path162" />
      <path
         transform="translate(0,-7.5277)"
         d="m 666.47,-388.17 -1.3494,2"
         id="path164" />
      <path
         transform="translate(0,-7.5277)"
         d="m 666.47,-389.17 a 13.701,13.701 0 0 0 -13.4,0"
         id="path166" />
      <path
         transform="translate(0,-7.5277)"
         d="m 652.05,-388.17 h 2.1193"
         id="path168" />
      <path
         transform="translate(0,-7.5277)"
         d="m 654.42,-386.17 -1.352,-2"
         id="path170" />
      <path
         transform="translate(0,-7.5277)"
         d="m 666.07,-386.17 v 1.4999"
         id="path172" />
      <path
         transform="translate(0,-7.5277)"
         d="m 665.37,-388.17 a 12.301,12.301 0 0 0 -11.205,0"
         id="path174" />
      <path
         transform="translate(0,-7.5277)"
         d="m 668.27,-388.67 a 0.5,0.5 0 0 0 -0.50001,-0.5"
         id="path176" />
      <path
         transform="translate(0,-7.5277)"
         d="m 665.12,-386.17 h 0.94986"
         id="path178" />
      <path
         transform="translate(0,-7.5277)"
         d="m 651.27,-388.67 -3.7e-4,4.5466"
         id="path180" />
    </g>
    <g
       stroke-width="0.17194"
       id="g200">
      <path
         transform="matrix(-1.0004,0,0,1.0004,1286.1,-658.1)"
         d="m 618.92,264.96 -1.1943,0.008"
         id="path184" />
      <path
         transform="matrix(-1.0004,0,0,1.0004,1286.1,-658.1)"
         d="m 618.92,263.96 v 1.0001"
         id="path186" />
      <path
         transform="matrix(-1.0004,0,0,1.0004,1286.1,-658.1)"
         d="m 618.42,263.96 h 0.50006"
         id="path188" />
      <path
         transform="matrix(-1.0004,0,0,1.0004,1286.1,-658.1)"
         d="m 618.42,262.31 v 1.6499"
         id="path190" />
      <path
         transform="matrix(1.0004,0,0,1.0004,33.395,-658.1)"
         d="m 618.92,264.96 -1.1943,0.008"
         id="path192" />
      <path
         transform="matrix(1.0004,0,0,1.0004,33.395,-658.1)"
         d="m 618.92,263.96 v 1.0001"
         id="path194" />
      <path
         transform="matrix(1.0004,0,0,1.0004,33.395,-658.1)"
         d="m 618.42,263.96 h 0.50006"
         id="path196" />
      <path
         transform="matrix(1.0004,0,0,1.0004,33.395,-658.1)"
         d="m 618.42,262.31 v 1.6499"
         id="path198" />
    </g>
  </g>
</svg>
