<?xml version="1.0" encoding="UTF-8" standalone="no"?>
<!-- Created with Inkscape (http://www.inkscape.org/) -->

<svg
   width="313mm"
   height="43mm"
   viewBox="0 0 391.25 53.75"
   version="1.1"
   id="svg2854"
   inkscape:version="1.2.2 (732a01da63, 2022-12-09)"
   sodipodi:docname="14_0_1.svg"
   inkscape:export-filename="..\desenhotecnico.png"
   inkscape:export-xdpi="300.067"
   inkscape:export-ydpi="300.067"
   xmlns:inkscape="http://www.inkscape.org/namespaces/inkscape"
   xmlns:sodipodi="http://sodipodi.sourceforge.net/DTD/sodipodi-0.dtd"
   xmlns="http://www.w3.org/2000/svg"
   xmlns:svg="http://www.w3.org/2000/svg">
  <sodipodi:namedview
     id="namedview2856"
     pagecolor="#ffffff"
     bordercolor="#ffffff"
     borderopacity="1"
     inkscape:showpageshadow="0"
     inkscape:pageopacity="1"
     inkscape:pagecheckerboard="1"
     inkscape:deskcolor="#ffffff"
     inkscape:document-units="mm"
     showgrid="false"
     inkscape:zoom="0.7071068"
     inkscape:cx="671.04432"
     inkscape:cy="-60.811182"
     inkscape:window-width="1920"
     inkscape:window-height="1009"
     inkscape:window-x="-8"
     inkscape:window-y="-8"
     inkscape:window-maximized="1"
     inkscape:current-layer="layer1"
     showguides="true"
     inkscape:lockguides="false" />
  <defs
     id="defs2851">
    <rect
       x="46.267506"
       y="219.90515"
       width="19.233295"
       height="20.040285"
       id="rect1874" />
    <rect
       x="100.36702"
       y="-20.214867"
       width="37.272442"
       height="20.214867"
       id="rect7911" />
    <rect
       x="100.36702"
       y="-20.214867"
       width="37.272442"
       height="20.214867"
       id="rect7911-8" />
    <rect
       x="100.36702"
       y="-20.214867"
       width="37.272442"
       height="20.214867"
       id="rect7911-0" />
    <rect
       x="100.36702"
       y="-20.214867"
       width="37.272442"
       height="20.214867"
       id="rect7911-0-7" />
    <rect
       x="100.36702"
       y="-20.214867"
       width="37.272442"
       height="20.214867"
       id="rect7911-0-7-7" />
    <rect
       x="100.36702"
       y="-20.214867"
       width="37.272442"
       height="20.214867"
       id="rect7911-0-7-4" />
    <rect
       x="100.36702"
       y="-20.214867"
       width="37.272442"
       height="20.214867"
       id="rect7911-0-7-4-3" />
    <rect
       x="100.36702"
       y="-20.214867"
       width="37.272442"
       height="20.214867"
       id="rect7911-0-7-4-3-5" />
    <rect
       x="100.36702"
       y="-20.214867"
       width="37.272442"
       height="20.214867"
       id="rect7911-09" />
    <rect
       x="100.36702"
       y="-20.214867"
       width="37.272442"
       height="20.214867"
       id="rect7911-0-7-4-3-0" />
    <rect
       x="100.36702"
       y="-20.214867"
       width="37.272442"
       height="20.214867"
       id="rect7911-0-7-4-3-0-7" />
    <rect
       x="100.36702"
       y="-20.214867"
       width="37.272442"
       height="20.214867"
       id="rect7911-0-7-4-3-0-7-6" />
    <rect
       x="100.36702"
       y="-20.214867"
       width="37.272442"
       height="20.214867"
       id="rect7911-8-2" />
    <rect
       x="100.36702"
       y="-20.214867"
       width="37.272442"
       height="20.214867"
       id="rect7911-8-2-5" />
    <rect
       x="100.36702"
       y="-20.214867"
       width="37.272442"
       height="20.214867"
       id="rect7911-0-7-5" />
    <rect
       x="100.36702"
       y="-20.214867"
       width="37.272442"
       height="20.214867"
       id="rect7911-0-7-5-3" />
    <rect
       x="100.36702"
       y="-20.214867"
       width="37.272442"
       height="20.214867"
       id="rect7911-0-7-4-3-01" />
    <rect
       x="46.267506"
       y="219.90515"
       width="19.233295"
       height="20.040285"
       id="rect1874-9" />
    <rect
       x="46.267506"
       y="219.90515"
       width="19.233295"
       height="20.040285"
       id="rect1874-9-7" />
    <rect
       x="46.267506"
       y="219.90515"
       width="19.233295"
       height="20.040285"
       id="rect1874-9-7-9" />
    <rect
       x="46.267506"
       y="219.90515"
       width="19.233295"
       height="20.040285"
       id="rect1874-9-7-9-3" />
    <rect
       x="46.267506"
       y="219.90515"
       width="19.233295"
       height="20.040285"
       id="rect1874-9-7-9-9" />
    <rect
       x="46.267506"
       y="219.90515"
       width="19.233295"
       height="20.040285"
       id="rect1874-9-7-9-3-8" />
    <rect
       x="46.267506"
       y="219.90515"
       width="19.233295"
       height="20.040285"
       id="rect1874-1" />
    <rect
       x="46.267506"
       y="219.90515"
       width="19.233295"
       height="20.040285"
       id="rect1874-9-7-5" />
    <rect
       x="46.267506"
       y="219.90515"
       width="19.233295"
       height="20.040285"
       id="rect1874-9-7-9-3-88" />
    <rect
       x="46.267506"
       y="219.90515"
       width="19.233295"
       height="20.040285"
       id="rect1874-9-7-9-3-8-2" />
    <rect
       x="46.267506"
       y="219.90515"
       width="19.233295"
       height="20.040285"
       id="rect1874-9-7-9-3-8-2-9" />
    <rect
       x="46.267506"
       y="219.90515"
       width="19.233295"
       height="20.040285"
       id="rect1874-9-7-9-1" />
    <rect
       x="46.267506"
       y="219.90515"
       width="19.233295"
       height="20.040285"
       id="rect1874-9-7-9-9-6" />
    <rect
       x="46.267506"
       y="219.90515"
       width="19.233295"
       height="20.040285"
       id="rect1874-1-2" />
    <rect
       x="46.267506"
       y="219.90515"
       width="19.233295"
       height="20.040285"
       id="rect1874-9-7-5-2" />
    <rect
       x="46.267506"
       y="219.90515"
       width="19.233295"
       height="20.040285"
       id="rect1874-9-7-9-3-88-2" />
    <rect
       x="46.267506"
       y="219.90515"
       width="19.233295"
       height="20.040285"
       id="rect1874-9-7-9-3-8-2-4" />
    <rect
       x="46.267506"
       y="219.90515"
       width="19.233295"
       height="20.040285"
       id="rect1874-9-7-9-3-8-2-9-4" />
    <rect
       x="46.267506"
       y="219.90515"
       width="19.233295"
       height="20.040285"
       id="rect1874-9-7-5-1" />
    <rect
       x="46.267506"
       y="219.90515"
       width="19.233295"
       height="20.040285"
       id="rect1874-9-7-5-1-2" />
    <rect
       x="46.267506"
       y="219.90515"
       width="19.233295"
       height="20.040285"
       id="rect1874-9-7-9-9-6-5" />
    <rect
       x="46.267506"
       y="219.90515"
       width="19.233295"
       height="20.040285"
       id="rect1874-9-7-9-94" />
    <rect
       x="46.267506"
       y="219.90515"
       width="19.233295"
       height="20.040285"
       id="rect1874-9-7-9-9-0" />
    <rect
       x="46.267506"
       y="219.90515"
       width="19.233295"
       height="20.040285"
       id="rect1874-1-0" />
    <rect
       x="46.267506"
       y="219.90515"
       width="19.233295"
       height="20.040285"
       id="rect1874-9-7-5-4" />
    <rect
       x="46.267506"
       y="219.90515"
       width="19.233295"
       height="20.040285"
       id="rect1874-9-7-9-3-88-5" />
    <rect
       x="46.267506"
       y="219.90515"
       width="19.233295"
       height="20.040285"
       id="rect1874-9-7-9-3-8-2-0" />
    <rect
       x="46.267506"
       y="219.90515"
       width="19.233295"
       height="20.040285"
       id="rect1874-9-7-9-8" />
    <rect
       x="46.267506"
       y="219.90515"
       width="19.233295"
       height="20.040285"
       id="rect1874-9-7-9-9-3" />
    <rect
       x="46.267506"
       y="219.90515"
       width="19.233295"
       height="20.040285"
       id="rect1874-9-7-9-7" />
    <rect
       x="46.267506"
       y="219.90515"
       width="19.233295"
       height="20.040285"
       id="rect1874-9-7-9-9-9" />
    <rect
       x="46.267506"
       y="219.90515"
       width="19.233295"
       height="20.040285"
       id="rect1874-9-7-9-9-9-5" />
    <rect
       x="46.267506"
       y="219.90515"
       width="19.233295"
       height="20.040285"
       id="rect1874-9-7-9-7-2" />
    <rect
       x="46.267506"
       y="219.90515"
       width="19.233295"
       height="20.040285"
       id="rect1874-9-7-9-3-88-7" />
    <rect
       x="46.267506"
       y="219.90515"
       width="19.233295"
       height="20.040285"
       id="rect1874-9-7-9-3-8-2-95" />
    <rect
       x="46.267506"
       y="219.90515"
       width="19.233295"
       height="20.040285"
       id="rect1874-9-7-9-3-8-2-95-3" />
    <rect
       x="46.267506"
       y="219.90515"
       width="19.233295"
       height="20.040285"
       id="rect1874-9-7-9-3-88-7-1" />
    <rect
       x="46.267506"
       y="219.90515"
       width="19.233295"
       height="20.040285"
       id="rect1874-9-7-5-1-25" />
    <rect
       x="46.267506"
       y="219.90515"
       width="19.233295"
       height="20.040285"
       id="rect1874-9-7-9-3-8-2-9-4-1" />
    <rect
       x="46.267506"
       y="219.90515"
       width="19.233295"
       height="20.040285"
       id="rect1874-9-7-9-9-6-5-1" />
    <rect
       x="46.267506"
       y="219.90515"
       width="19.233295"
       height="20.040285"
       id="rect1874-9-7-9-9-6-5-8" />
    <rect
       x="46.267506"
       y="219.90515"
       width="19.233295"
       height="20.040285"
       id="rect1874-9-7-9-3-8-2-9-4-0" />
    <rect
       x="46.267506"
       y="219.90515"
       width="19.233295"
       height="20.040285"
       id="rect1874-9-7-5-1-1" />
    <rect
       x="46.267506"
       y="219.90515"
       width="19.233295"
       height="20.040285"
       id="rect1874-9-7-9-3-88-7-0-5-6" />
    <rect
       x="46.267506"
       y="219.90515"
       width="19.233295"
       height="20.040285"
       id="rect1874-9-7-9-3-88-7-0-1-6-2-9" />
    <rect
       x="46.267506"
       y="219.90515"
       width="19.233295"
       height="20.040285"
       id="rect1874-9-7-9-1-7-3" />
    <rect
       x="46.267506"
       y="219.90515"
       width="19.233295"
       height="20.040285"
       id="rect1874-9-7-9-9-65-5-4" />
  </defs>
  <g
     inkscape:label="Layer 1"
     inkscape:groupmode="layer"
     id="layer1"
     transform="translate(33.402947,-184.9495)">
    <text
       xml:space="preserve"
       transform="matrix(0.33072918,0,0,0.33072916,166.15385,116.46109)"
       id="text1872-4-1-5-7-4"
       style="font-style:normal;font-variant:normal;font-weight:normal;font-stretch:normal;font-size:16px;line-height:1.25;font-family:Calibri;-inkscape-font-specification:'Calibri, Normal';font-variant-ligatures:normal;font-variant-caps:normal;font-variant-numeric:normal;font-variant-east-asian:normal;white-space:pre;shape-inside:url(#rect1874-9-7-9-9-6-5-8);display:inline;fill:#666666;fill-opacity:1;stroke:none;stroke-width:0.937173;stroke-opacity:1"
       x="2.65625"
       y="0"><tspan
         x="46.267578"
         y="233.9043"
         id="tspan18198">F</tspan></text>
    <path
       d="m -85.0364,132.21531 -0.0156,-3.09135"
       fill="#4d4d4d"
       stroke-linecap="butt"
       stroke-linejoin="miter"
       id="path132-5-9-1-3-7-5"
       transform="matrix(1.2367,0,0,-1.2315917,81.292985,349.58065)"
       style="fill:#666666;fill-opacity:1;stroke:#666660;stroke-width:0.253212;stroke-linecap:round;stroke-dasharray:none;stroke-opacity:1"
       sodipodi:nodetypes="cc" />
    <path
       d="m -86.011,129.35 h 1.9492 l -0.97051,-2.4793 -0.98682,2.4793"
       fill="#000000"
       stroke-linecap="round"
       stroke-linejoin="round"
       id="path134-1-2-2-1-6-0"
       transform="matrix(1.2367,0,0,-1.2315917,81.292985,349.58065)"
       style="fill:#666666;fill-opacity:1;stroke:#666660;stroke-width:0.253212;stroke-dasharray:none;stroke-opacity:1" />
    <path
       d="m -85.0364,132.21531 -0.0156,-3.09135"
       fill="#4d4d4d"
       stroke-linecap="butt"
       stroke-linejoin="miter"
       id="path132-5-9-1-4-1-3-8"
       transform="matrix(-1.2367,0,0,1.2315917,-129.0461,65.845495)"
       style="fill:#666666;fill-opacity:1;stroke:#666660;stroke-width:0.253212;stroke-linecap:round;stroke-dasharray:none;stroke-opacity:1"
       sodipodi:nodetypes="cc" />
    <path
       d="m -86.011,129.35 h 1.9492 l -0.97051,-2.4793 -0.98682,2.4793"
       fill="#000000"
       stroke-linecap="round"
       stroke-linejoin="round"
       id="path134-1-2-2-9-9-4-8"
       transform="matrix(-1.2367,0,0,1.2315917,-129.0461,65.845495)"
       style="fill:#666666;fill-opacity:1;stroke:#666660;stroke-width:0.253212;stroke-dasharray:none;stroke-opacity:1" />
    <text
       xml:space="preserve"
       transform="matrix(0.33072918,0,0,0.33072916,-37.476987,112.57385)"
       id="text1872-4-1-0-2-3"
       style="font-style:normal;font-variant:normal;font-weight:normal;font-stretch:normal;font-size:16px;line-height:1.25;font-family:Calibri;-inkscape-font-specification:'Calibri, Normal';font-variant-ligatures:normal;font-variant-caps:normal;font-variant-numeric:normal;font-variant-east-asian:normal;white-space:pre;shape-inside:url(#rect1874-9-7-9-3-8-2-9-4-0);display:inline;fill:#666666;fill-opacity:1;stroke:none;stroke-width:0.937173;stroke-opacity:1"
       x="2.65625"
       y="0"><tspan
         x="46.267578"
         y="233.9043"
         id="tspan18200">G</tspan></text>
    <g
       id="g7653-5"
       transform="matrix(1.0670732,0,0,1.0670042,-195.23962,-109.48282)"
       style="fill:#666666;fill-opacity:1;stroke:#666660;stroke-width:0.292867;stroke-dasharray:none;stroke-opacity:1">
      <path
         d="M 88.200019,81.58 H -39.556098"
         fill="#4d4d4d"
         id="path146-8-3"
         transform="matrix(1.312146,0,0,1.1298117,207.42985,227.76563)"
         style="fill:#666666;fill-opacity:1;stroke:#666660;stroke-width:0.240533;stroke-linecap:round;stroke-linejoin:round;stroke-dasharray:none;stroke-opacity:1"
         sodipodi:nodetypes="cc" />
      <path
         d="m 2.2862,80.773 v 1.6382 L 0.2019,81.59554 2.2862,80.76617"
         stroke-linecap="round"
         stroke-linejoin="round"
         id="path148-0-4"
         transform="matrix(1.2845332,0,0,1.3027907,153.18206,213.654)"
         style="fill:#666666;fill-opacity:1;stroke:#666660;stroke-width:0.226391;stroke-linecap:round;stroke-linejoin:round;stroke-dasharray:none;stroke-opacity:1" />
      <path
         d="m 110.02,82.405 v -1.6382 l 2.0843,0.81565 -2.0843,0.82936"
         stroke-linecap="round"
         stroke-linejoin="round"
         id="path150-4-4"
         transform="matrix(1.2845332,0,0,1.3027907,181.83681,213.654)"
         style="fill:#666666;fill-opacity:1;stroke:#666660;stroke-width:0.226391;stroke-linecap:round;stroke-linejoin:round;stroke-dasharray:none;stroke-opacity:1" />
      <path
         d="M 112.27,76.720103 V 82.6165"
         fill="#4d4d4d"
         id="path152-7-5"
         transform="matrix(1.2845332,0,0,1.3027907,181.91474,213.654)"
         style="fill:#666666;fill-opacity:1;stroke:#666660;stroke-width:0.226391;stroke-linecap:round;stroke-linejoin:round;stroke-dasharray:none;stroke-opacity:1"
         sodipodi:nodetypes="cc" />
      <path
         d="M 0.088314,76.720103 V 82.6165"
         fill="#4d4d4d"
         id="path154-8-3"
         transform="matrix(1.2845332,0,0,1.3027907,153.03718,213.654)"
         style="fill:#666666;fill-opacity:1;stroke:#666660;stroke-width:0.226391;stroke-linecap:round;stroke-linejoin:round;stroke-dasharray:none;stroke-opacity:1"
         sodipodi:nodetypes="cc" />
    </g>
    <text
       xml:space="preserve"
       transform="matrix(0.33072918,0,0,0.33072916,60.142195,160.01924)"
       id="text1872-4"
       style="font-style:normal;font-variant:normal;font-weight:normal;font-stretch:normal;font-size:16px;line-height:1.25;font-family:Calibri;-inkscape-font-specification:'Calibri, Normal';font-variant-ligatures:normal;font-variant-caps:normal;font-variant-numeric:normal;font-variant-east-asian:normal;white-space:pre;shape-inside:url(#rect1874-9-7-5-1-1);display:inline;fill:#666666;fill-opacity:1;stroke:none;stroke-width:0.937173;stroke-opacity:1"
       x="2.65625"
       y="0"><tspan
         x="46.267578"
         y="233.9043"
         id="tspan18202">A</tspan></text>
    <g
       id="g10259"
       transform="translate(2.7731314,-68.972229)"
       style="stroke:#666660;stroke-opacity:1">
      <g
         id="g1632-1"
         transform="translate(-23.552243,38.789327)"
         style="stroke:#666660;stroke-opacity:1">
        <path
           style="fill:none;stroke:#666660;stroke-width:1px;stroke-linecap:butt;stroke-linejoin:miter;stroke-opacity:1"
           d="M 85.726397,83.504314 H 557.9503 m 0,-44.801863 H 54.992961"
           id="path955-4"
           transform="matrix(0.33072917,0,0,0.33072917,192.80378,217.66049)"
           sodipodi:nodetypes="cccc" />
        <path
           style="fill:none;stroke:#666660;stroke-width:1px;stroke-linecap:butt;stroke-linejoin:miter;stroke-opacity:1"
           d="m 85.773013,78.014918 459.545947,0.0084"
           id="path1638-7"
           transform="matrix(0.33072917,0,0,0.33072917,192.80378,217.66049)"
           sodipodi:nodetypes="cc" />
        <path
           style="fill:none;stroke:#666660;stroke-width:1px;stroke-linecap:butt;stroke-linejoin:miter;stroke-opacity:1"
           d="M 84.383213,65.791197 545.31896,65.779702"
           id="path1640-3"
           transform="matrix(0.33072917,0,0,0.33072917,192.80378,217.66049)"
           sodipodi:nodetypes="cc" />
        <path
           style="fill:none;stroke:#666660;stroke-width:1px;stroke-linecap:butt;stroke-linejoin:miter;stroke-opacity:1"
           d="m 82.785194,60.609901 462.533766,-5e-6"
           id="path1642-2"
           transform="matrix(0.33072917,0,0,0.33072917,192.80378,217.66049)"
           sodipodi:nodetypes="cc" />
      </g>
      <g
         id="g1796-1"
         transform="matrix(1.25,0,0,-1.25,142.3035,508.41872)"
         style="fill:none;stroke:#666660;stroke-linecap:round;stroke-linejoin:round;stroke-opacity:1">
        <g
           id="g458-9-7"
           style="fill:none;stroke:#666660;stroke-width:0.264583;stroke-linecap:round;stroke-linejoin:round;stroke-miterlimit:4;stroke-dasharray:none;stroke-opacity:1"
           transform="matrix(-1,0,0,1,198.33371,-0.13874804)">
          <!-- Linha -->
          <!-- Linha -->
          <!-- Linha -->
          <!-- Linha -->
          <!-- Linha -->
          <!-- Arco -->
          <!-- Linha -->
          <!-- Arco -->
          <!-- Arco -->
          <!-- Linha -->
          <!-- Spline -->
          <!-- Linha -->
          <!-- Linha -->
          <!-- Linha -->
          <!-- Arco -->
          <!-- Elipse -->
          <!-- Linha -->
          <!-- Linha -->
          <!-- Arco -->
          <!-- Arco -->
          <!-- Linha -->
          <!-- Linha -->
          <!-- Spline -->
          <!-- Linha -->
          <!-- Elipse -->
          <!-- Linha -->
          <!-- Spline -->
          <!-- Spline -->
          <!-- Elipse -->
          <!-- Linha -->
          <!-- Elipse -->
          <!-- Elipse -->
          <!-- Elipse -->
          <path
             style="fill:none;stroke:#666660;stroke-width:1px;stroke-linecap:butt;stroke-linejoin:miter;stroke-miterlimit:4;stroke-dasharray:none;stroke-opacity:1"
             d="m 801.42263,96.065601 c 0,1.395423 -1.10245,1.259691 -1.10245,1.259691 l -82.64938,7e-6 c 0,0 -1.77228,-0.155246 -1.74848,-2.151977 V 75.388347 55.603372 c -0.0238,-1.996731 1.74848,-2.151977 1.74848,-2.151977 l 60.55414,-7e-6 c 0,0 6.82182,0.03158 11.65866,3.158332 5.14038,3.322972 9.37216,10.620994 11.66731,24.349991 z"
             id="path3593-5"
             transform="matrix(-0.26458333,0,0,-0.26458333,366.14612,203.91316)"
             sodipodi:nodetypes="ccccccccsc" />
          <path
             style="fill:none;stroke:#666660;stroke-width:1px;stroke-linecap:butt;stroke-linejoin:miter;stroke-miterlimit:4;stroke-dasharray:none;stroke-opacity:1"
             d="M 801.55094,80.959697 H 715.92235"
             id="path3733-4"
             transform="matrix(-0.26458333,0,0,-0.26458333,366.14612,203.91316)" />
          <path
             d="m 162.22506,189.89475 v 2.34604 l 11.50437,-0.002 c 0.27443,-0.002 0.49563,-0.22517 0.49563,-0.5598 v -1.88932"
             style="fill:none;stroke:#666660;stroke-width:0.264583;stroke-linecap:round;stroke-linejoin:round;stroke-miterlimit:4;stroke-dasharray:none;stroke-opacity:1"
             id="path418-6-4"
             sodipodi:nodetypes="ccccc" />
        </g>
      </g>
    </g>
    <g
       id="g764-5"
       transform="translate(-20.349207,-65.579791)"
       style="stroke:#666660;stroke-opacity:1">
      <path
         style="fill:#ffffff;fill-opacity:1;stroke:none;stroke-width:1.00157;stroke-linecap:butt;stroke-linejoin:miter;stroke-dasharray:none;stroke-opacity:1"
         d="m 377.18611,-36.53778 h 17.61937 L 367.05675,38.855262 H 349.4374 Z"
         id="path19061-3-8-4"
         transform="matrix(0.33072917,0,0,0.33072917,161.3525,272.88282)"
         sodipodi:nodetypes="ccccc" />
      <path
         inkscape:connector-curvature="0"
         sodipodi:nodetypes="cccc"
         d="M 64.432018,3.9691245 57.551655,22.664218 m -4.368762,0 6.88036,-18.6950935"
         style="display:inline;fill:none;fill-opacity:1;stroke:#666660;stroke-width:0.24796;stroke-linecap:round;stroke-linejoin:round;stroke-miterlimit:4;stroke-dasharray:none;stroke-opacity:1"
         id="path1707-6-8-3-7-39"
         transform="matrix(1.3338415,0,0,1.3337552,205.98409,255.50487)" />
    </g>
    <g
       id="g42339-7"
       transform="translate(-226.66104,-108.36968)"
       style="stroke:#666660;stroke-opacity:1">
      <g
         id="g42152-03-0"
         transform="matrix(0.98061779,0,0,0.98060905,3.42818,4.27734)"
         style="stroke:#666666;stroke-width:0.318678;stroke-dasharray:none;stroke-opacity:1">
        <path
           style="fill:none;stroke:#666666;stroke-width:1px;stroke-linecap:butt;stroke-linejoin:miter;stroke-dasharray:none;stroke-opacity:1"
           d="m 85.387973,157.1069 470.497487,0"
           id="path670-6-2"
           transform="matrix(0.33726614,0,0,0.33726914,193.56583,252.8476)"
           sodipodi:nodetypes="cc" />
        <path
           style="fill:none;stroke:#666666;stroke-width:1px;stroke-linecap:butt;stroke-linejoin:miter;stroke-dasharray:none;stroke-opacity:1"
           d="m 39.195192,158.96002 503.642658,0"
           id="path672-4-1"
           transform="matrix(0.32650664,0,0,0.32650954,199.54688,254.55795)"
           sodipodi:nodetypes="cc" />
        <path
           style="fill:none;stroke:#666666;stroke-width:1px;stroke-linecap:butt;stroke-linejoin:miter;stroke-dasharray:none;stroke-opacity:1"
           d="M 542.85485,218.25985 H 39.868572"
           id="path678-2-7"
           transform="matrix(0.32693272,0,0,0.33726914,199.31003,252.8476)"
           sodipodi:nodetypes="cc" />
        <path
           style="fill:none;stroke:#666666;stroke-width:1px;stroke-linecap:butt;stroke-linejoin:miter;stroke-dasharray:none;stroke-opacity:1"
           d="m 85.153783,220.11296 470.731677,0"
           id="path680-14-2"
           transform="matrix(0.33726614,0,0,0.33726914,193.56583,252.8476)"
           sodipodi:nodetypes="cc" />
        <path
           style="fill:none;stroke:#666666;stroke-width:1px;stroke-linecap:butt;stroke-linejoin:miter;stroke-dasharray:none;stroke-opacity:1"
           d="m 171.05774,157.1069 v 63.00607"
           id="path1324-9-9-7"
           transform="matrix(0.33726613,0,0,0.34247444,323.35519,251.87047)" />
        <path
           style="fill:none;stroke:#666666;stroke-width:1px;stroke-linecap:butt;stroke-linejoin:miter;stroke-dasharray:none;stroke-opacity:1"
           d="m 171.05774,157.1069 v 61.71757"
           id="path1324-9-1-4-36-4"
           transform="matrix(0.33726613,0,0,0.34247444,319.09506,252.14312)"
           sodipodi:nodetypes="cc" />
      </g>
      <g
         id="g6693"
         transform="matrix(1.2106729,0,0,-1.2106238,132.69063,486.9402)"
         style="fill:none;stroke:#666660;stroke-width:0.273183;stroke-linecap:round;stroke-linejoin:round;stroke-miterlimit:4;stroke-dasharray:none;stroke-opacity:1">
        <circle
           cx="58.225517"
           cy="142.35364"
           r="1.9872289"
           style="fill:none;stroke:#666660;stroke-width:0.273183;stroke-linecap:round;stroke-linejoin:round;stroke-miterlimit:4;stroke-dasharray:none;stroke-opacity:1"
           id="circle86" />
        <path
           d="m 50.725064,151.82563 c -1e-6,0.16466 0.132724,0.29899 0.297382,0.29999 h 22.044473 c 0.135876,-0.0131 0.247164,-0.11363 0.274064,-0.24746 v -1.13984 l -8.115919,4.4e-4 v -17.1913 l 8.115919,2.2e-4 v -1.13984 c -0.0269,-0.13383 -0.138188,-0.23436 -0.274064,-0.24746 H 51.022446 c -0.164658,0.001 -0.297383,0.13533 -0.297382,0.29999 z"
           style="fill:none;stroke:#666660;stroke-width:0.273183;stroke-linecap:round;stroke-linejoin:round;stroke-miterlimit:4;stroke-dasharray:none;stroke-opacity:1"
           id="path64-1"
           transform="matrix(1,0,0,-1,0,284.47666)"
           sodipodi:nodetypes="cccccccccccc" />
        <path
           d="m 61.324382,152.12562 h 11.742537 c 0.135876,-0.0131 0.247164,-0.11363 0.274064,-0.24746 l -0.0043,-0.77146 -0.01323,-2.36471 h -4.999274 c -2.766964,-0.002 -5.008891,-2.24581 -5.008891,-5.01277 0,-2.76696 2.241927,-5.01063 5.008889,-5.01277 h 4.999272 l 0.01755,-3.13617 c -0.0269,-0.13383 -0.138188,-0.23436 -0.274064,-0.24746 H 61.324378"
           style="fill:none;stroke:#666660;stroke-width:0.273183;stroke-linecap:round;stroke-linejoin:round;stroke-miterlimit:4;stroke-dasharray:none;stroke-opacity:1"
           id="path64-1-4"
           transform="rotate(180,63.274725,143.04143)"
           sodipodi:nodetypes="ccccccsccccc" />
        <path
           style="fill:none;stroke:#666660;stroke-width:1px;stroke-linecap:butt;stroke-linejoin:miter;stroke-miterlimit:4;stroke-dasharray:none;stroke-opacity:1"
           d="M 14.060683,-70.147658 V -58.02737"
           id="path6476"
           transform="matrix(0.27317796,0,0,-0.27318904,49.879632,131.5655)" />
        <path
           style="fill:none;stroke:#666660;stroke-width:1px;stroke-linecap:butt;stroke-linejoin:miter;stroke-miterlimit:4;stroke-dasharray:none;stroke-opacity:1"
           d="M 14.060683,-70.147658 V -58.02737"
           id="path6476-0"
           transform="matrix(0.27317796,0,0,-0.27318904,49.879632,118.12577)" />
        <path
           style="fill:none;stroke:#666660;stroke-width:1px;stroke-linecap:butt;stroke-linejoin:miter;stroke-miterlimit:4;stroke-dasharray:none;stroke-opacity:1"
           d="m 3.0948022,-11.976621 9.1065148,-0.696618 -0.01574,-5.81569 -9.0907748,-6e-6"
           id="path6527"
           transform="matrix(0.27317796,0,0,-0.27318904,49.879632,131.51397)"
           sodipodi:nodetypes="cccc" />
        <path
           style="fill:none;stroke:#666660;stroke-width:1px;stroke-linecap:butt;stroke-linejoin:miter;stroke-miterlimit:4;stroke-dasharray:none;stroke-opacity:1"
           d="m 3.0948022,-11.976621 9.1065148,-0.696618 -0.01574,-5.81569 -9.0907748,-6e-6"
           id="path6527-9-6"
           transform="matrix(0.27317796,0,0,0.27318904,49.879632,153.10042)"
           sodipodi:nodetypes="cccc" />
      </g>
    </g>
    <g
       id="g1372-9"
       transform="translate(35.390934,-65.303849)"
       style="stroke:#666660;stroke-opacity:1">
      <path
         d="m -85.0364,132.21531 -0.0041,-3.08542"
         fill="#4d4d4d"
         stroke-linecap="butt"
         stroke-linejoin="miter"
         id="path132-5-9-1-4-1-1-3-1"
         transform="matrix(1.2367,0,0,-1.2315917,249.49963,418.68098)"
         style="fill:none;stroke:#666666;stroke-width:0.253212;stroke-linecap:round;stroke-dasharray:none;stroke-opacity:1"
         sodipodi:nodetypes="cc" />
      <path
         d="m 110.02,82.405 v -1.6382 l 2.0843,0.81565 -2.0843,0.82936"
         stroke-linecap="round"
         stroke-linejoin="round"
         id="path150-4-4-7-6-1-9-0"
         transform="matrix(0,1.370691,-1.3900832,0,257.74602,108.76008)"
         style="fill:#666666;fill-opacity:1;stroke:#666666;stroke-width:0.226391;stroke-linecap:round;stroke-linejoin:round;stroke-dasharray:none;stroke-opacity:1" />
      <path
         d="m -85.0364,132.21531 -0.0041,-3.08542"
         fill="#4d4d4d"
         stroke-linecap="butt"
         stroke-linejoin="miter"
         id="path132-5-9-1-4-1-8-6"
         transform="matrix(-1.2367,0,0,1.2315917,39.141008,128.29617)"
         style="fill:none;stroke:#666666;stroke-width:0.253212;stroke-linecap:round;stroke-dasharray:none;stroke-opacity:1"
         sodipodi:nodetypes="cc" />
      <path
         d="m 110.02,82.405 v -1.6382 l 2.0843,0.81565 -2.0843,0.82936"
         stroke-linecap="round"
         stroke-linejoin="round"
         id="path150-4-4-7-6-4-9"
         transform="matrix(0,-1.370691,1.3900832,0,30.894624,438.21707)"
         style="fill:#666666;fill-opacity:1;stroke:#666666;stroke-width:0.226391;stroke-linecap:round;stroke-linejoin:round;stroke-dasharray:none;stroke-opacity:1" />
    </g>
    <g
       id="g758-6"
       transform="translate(-38.444649,-67.012228)"
       style="stroke:#666660;stroke-opacity:1">
      <path
         style="fill:#ffffff;fill-opacity:1;stroke:none;stroke-width:1.00157;stroke-linecap:butt;stroke-linejoin:miter;stroke-dasharray:none;stroke-opacity:1"
         d="m 377.18611,-36.53778 h 17.61937 L 367.05675,38.855262 H 349.4374 Z"
         id="path19061-3-5"
         transform="matrix(0.33072917,0,0,0.33072917,-24.900985,272.92412)"
         sodipodi:nodetypes="ccccc" />
      <path
         inkscape:connector-curvature="0"
         sodipodi:nodetypes="cccc"
         d="M 64.432018,3.9691245 57.551655,22.664218 m -4.368762,0 6.88036,-18.6950935"
         style="display:inline;fill:none;fill-opacity:1;stroke:#666660;stroke-width:0.24796;stroke-linecap:round;stroke-linejoin:round;stroke-miterlimit:4;stroke-dasharray:none;stroke-opacity:1"
         id="path1707-6-8-3-2"
         transform="matrix(1.3338415,0,0,1.3337552,19.730627,255.54617)" />
    </g>
    <g
       id="g439"
       transform="translate(-0.08297919,14.837427)">
      <path
         d="m -85.0364,132.21531 -0.0041,-3.08542"
         fill="#4d4d4d"
         stroke-linecap="butt"
         stroke-linejoin="miter"
         id="path132-5-9-1-4-1-34"
         transform="matrix(-1.2367,0,0,1.2315917,10.311715,47.391103)"
         style="fill:none;stroke:#666666;stroke-width:0.253212;stroke-linecap:round;stroke-dasharray:none;stroke-opacity:1"
         sodipodi:nodetypes="cc" />
      <path
         d="m 110.02,82.405 v -1.6382 l 2.0843,0.81565 -2.0843,0.82936"
         stroke-linecap="round"
         stroke-linejoin="round"
         id="path150-4-4-7-6-9"
         transform="matrix(0,-1.370691,1.3900832,0,2.0653305,357.31199)"
         style="fill:#666666;fill-opacity:1;stroke:#666666;stroke-width:0.226391;stroke-linecap:round;stroke-linejoin:round;stroke-dasharray:none;stroke-opacity:1" />
      <path
         d="m -85.0364,132.21531 -0.0041,-3.08542"
         fill="#4d4d4d"
         stroke-linecap="butt"
         stroke-linejoin="miter"
         id="path132-5-9-1-4-1-1-9"
         transform="matrix(1.2367,0,0,-1.2315917,220.65136,334.45809)"
         style="fill:none;stroke:#666666;stroke-width:0.253212;stroke-linecap:round;stroke-dasharray:none;stroke-opacity:1"
         sodipodi:nodetypes="cc" />
      <path
         d="m 110.02,82.405 v -1.6382 l 2.0843,0.81565 -2.0843,0.82936"
         stroke-linecap="round"
         stroke-linejoin="round"
         id="path150-4-4-7-6-1-3"
         transform="matrix(0,1.370691,-1.3900832,0,228.89775,24.537193)"
         style="fill:#666666;fill-opacity:1;stroke:#666666;stroke-width:0.226391;stroke-linecap:round;stroke-linejoin:round;stroke-dasharray:none;stroke-opacity:1" />
    </g>
    <text
       xml:space="preserve"
       transform="matrix(0.33072918,0,0,0.33072916,101.79786,112.28113)"
       id="text1872-4-1-0-6"
       style="font-style:normal;font-variant:normal;font-weight:normal;font-stretch:normal;font-size:16px;line-height:1.25;font-family:Calibri;-inkscape-font-specification:'Calibri, Normal';font-variant-ligatures:normal;font-variant-caps:normal;font-variant-numeric:normal;font-variant-east-asian:normal;white-space:pre;shape-inside:url(#rect1874-9-7-9-3-88-7-0-5-6);display:inline;fill:#666666;fill-opacity:1;stroke-width:0.937173"
       x="2.65625"
       y="0"><tspan
         x="46.267578"
         y="233.9043"
         id="tspan18204">C</tspan></text>
    <g
       id="g439-6"
       transform="translate(32.155849,14.837427)">
      <path
         d="m -85.0364,132.21531 -0.0041,-3.08542"
         fill="#4d4d4d"
         stroke-linecap="butt"
         stroke-linejoin="miter"
         id="path132-5-9-1-4-1-13"
         transform="matrix(-1.2367,0,0,1.2315917,10.311715,47.391103)"
         style="fill:none;stroke:#666666;stroke-width:0.253212;stroke-linecap:round;stroke-dasharray:none;stroke-opacity:1"
         sodipodi:nodetypes="cc" />
      <path
         d="m 110.02,82.405 v -1.6382 l 2.0843,0.81565 -2.0843,0.82936"
         stroke-linecap="round"
         stroke-linejoin="round"
         id="path150-4-4-7-6-39"
         transform="matrix(0,-1.370691,1.3900832,0,2.0653305,357.31199)"
         style="fill:#666666;fill-opacity:1;stroke:#666666;stroke-width:0.226391;stroke-linecap:round;stroke-linejoin:round;stroke-dasharray:none;stroke-opacity:1" />
      <path
         d="m -85.0364,132.21531 -0.0041,-3.08542"
         fill="#4d4d4d"
         stroke-linecap="butt"
         stroke-linejoin="miter"
         id="path132-5-9-1-4-1-1-8"
         transform="matrix(1.2367,0,0,-1.2315917,220.65136,334.45809)"
         style="fill:none;stroke:#666666;stroke-width:0.253212;stroke-linecap:round;stroke-dasharray:none;stroke-opacity:1"
         sodipodi:nodetypes="cc" />
      <path
         d="m 110.02,82.405 v -1.6382 l 2.0843,0.81565 -2.0843,0.82936"
         stroke-linecap="round"
         stroke-linejoin="round"
         id="path150-4-4-7-6-1-6"
         transform="matrix(0,1.370691,-1.3900832,0,228.89775,24.537193)"
         style="fill:#666666;fill-opacity:1;stroke:#666666;stroke-width:0.226391;stroke-linecap:round;stroke-linejoin:round;stroke-dasharray:none;stroke-opacity:1" />
    </g>
    <text
       xml:space="preserve"
       transform="matrix(0.33072918,0,0,0.33072916,134.03669,112.28113)"
       id="text1872-4-1-0-26"
       style="font-style:normal;font-variant:normal;font-weight:normal;font-stretch:normal;font-size:16px;line-height:1.25;font-family:Calibri;-inkscape-font-specification:'Calibri, Normal';font-variant-ligatures:normal;font-variant-caps:normal;font-variant-numeric:normal;font-variant-east-asian:normal;white-space:pre;shape-inside:url(#rect1874-9-7-9-3-88-7-0-1-6-2-9);display:inline;fill:#666666;fill-opacity:1;stroke-width:0.937173"
       x="2.65625"
       y="0"><tspan
         x="46.267578"
         y="233.9043"
         id="tspan18206">E</tspan></text>
    <text
       xml:space="preserve"
       transform="matrix(0.33072918,0,0,0.33072916,306.53276,117.53944)"
       id="text1872-4-1-6"
       style="font-style:normal;font-variant:normal;font-weight:normal;font-stretch:normal;font-size:16px;line-height:1.25;font-family:Calibri;-inkscape-font-specification:'Calibri, Normal';font-variant-ligatures:normal;font-variant-caps:normal;font-variant-numeric:normal;font-variant-east-asian:normal;white-space:pre;shape-inside:url(#rect1874-9-7-9-1-7-3);display:inline;fill:#666666;fill-opacity:1;stroke:none;stroke-width:0.937173;stroke-dasharray:none;stroke-opacity:1"
       x="2.65625"
       y="0"><tspan
         x="46.267578"
         y="233.9043"
         id="tspan18208">B</tspan></text>
    <text
       xml:space="preserve"
       transform="matrix(0.33072918,0,0,0.33072916,338.85108,117.63808)"
       id="text1872-4-1-5-0"
       style="font-style:normal;font-variant:normal;font-weight:normal;font-stretch:normal;font-size:16px;line-height:1.25;font-family:Calibri;-inkscape-font-specification:'Calibri, Normal';font-variant-ligatures:normal;font-variant-caps:normal;font-variant-numeric:normal;font-variant-east-asian:normal;white-space:pre;shape-inside:url(#rect1874-9-7-9-9-65-5-4);display:inline;fill:#666666;fill-opacity:1;stroke:none;stroke-width:0.937173;stroke-dasharray:none;stroke-opacity:1"
       x="2.65625"
       y="0"><tspan
         x="46.267578"
         y="233.9043"
         id="tspan18210">D</tspan></text>
    <g
       id="g1382"
       transform="translate(-0.08296989,17.115051)"
       style="stroke:#666660;stroke-width:0.318678;stroke-dasharray:none;stroke-opacity:1">
      <path
         d="m -85.0364,132.21531 -0.0041,-3.08542"
         fill="#4d4d4d"
         stroke-linecap="butt"
         stroke-linejoin="miter"
         id="path132-5-9-1-4-1-1-0-5"
         transform="matrix(1.2367,0,0,-1.2315917,425.3863,337.43874)"
         style="fill:none;stroke:#666666;stroke-width:0.253212;stroke-linecap:round;stroke-dasharray:none;stroke-opacity:1"
         sodipodi:nodetypes="cc" />
      <path
         d="m 110.02,82.405 v -1.6382 l 2.0843,0.81565 -2.0843,0.82936"
         stroke-linecap="round"
         stroke-linejoin="round"
         id="path150-4-4-7-6-1-4-3"
         transform="matrix(0,1.370691,-1.3900832,0,433.63269,27.517839)"
         style="fill:#666666;fill-opacity:1;stroke:#666666;stroke-width:0.226391;stroke-linecap:round;stroke-linejoin:round;stroke-dasharray:none;stroke-opacity:1" />
      <path
         d="m -85.0364,132.21531 -0.0041,-3.08542"
         fill="#4d4d4d"
         stroke-linecap="butt"
         stroke-linejoin="miter"
         id="path132-5-9-1-4-1-3-88"
         transform="matrix(-1.2367,0,0,1.2315917,215.0461,44.345058)"
         style="fill:none;stroke:#666666;stroke-width:0.253212;stroke-linecap:round;stroke-dasharray:none;stroke-opacity:1"
         sodipodi:nodetypes="cc" />
      <path
         d="m 110.02,82.405 v -1.6382 l 2.0843,0.81565 -2.0843,0.82936"
         stroke-linecap="round"
         stroke-linejoin="round"
         id="path150-4-4-7-6-3-4"
         transform="matrix(0,-1.370691,1.3900832,0,206.79972,354.26595)"
         style="fill:#666666;fill-opacity:1;stroke:#666666;stroke-width:0.226391;stroke-linecap:round;stroke-linejoin:round;stroke-dasharray:none;stroke-opacity:1" />
    </g>
    <g
       id="g1388"
       transform="translate(-0.08296989,17.115051)"
       style="stroke:#666660;stroke-width:0.318678;stroke-dasharray:none;stroke-opacity:1">
      <path
         d="m -85.0364,132.21531 -0.0041,-3.08542"
         fill="#4d4d4d"
         stroke-linecap="butt"
         stroke-linejoin="miter"
         id="path132-5-9-1-4-1-8-1-7"
         transform="matrix(-1.2367,0,0,1.2315917,247.39819,44.345044)"
         style="fill:none;stroke:#666666;stroke-width:0.253212;stroke-linecap:round;stroke-dasharray:none;stroke-opacity:1"
         sodipodi:nodetypes="cc" />
      <path
         d="m 110.02,82.405 v -1.6382 l 2.0843,0.81565 -2.0843,0.82936"
         stroke-linecap="round"
         stroke-linejoin="round"
         id="path150-4-4-7-6-4-1-3"
         transform="matrix(0,-1.370691,1.3900832,0,239.1518,354.26595)"
         style="fill:#666666;fill-opacity:1;stroke:#666666;stroke-width:0.226391;stroke-linecap:round;stroke-linejoin:round;stroke-dasharray:none;stroke-opacity:1" />
      <path
         d="m -85.0364,132.21531 -0.0041,-3.08542"
         fill="#4d4d4d"
         stroke-linecap="butt"
         stroke-linejoin="miter"
         id="path132-5-9-1-4-1-1-0-3-8"
         transform="matrix(1.2367,0,0,-1.2315917,457.73783,337.43912)"
         style="fill:none;stroke:#666666;stroke-width:0.253212;stroke-linecap:round;stroke-dasharray:none;stroke-opacity:1"
         sodipodi:nodetypes="cc" />
      <path
         d="m 110.02,82.405 v -1.6382 l 2.0843,0.81565 -2.0843,0.82936"
         stroke-linecap="round"
         stroke-linejoin="round"
         id="path150-4-4-7-6-1-4-2-3"
         transform="matrix(0,1.370691,-1.3900832,0,465.98422,27.518222)"
         style="fill:#666666;fill-opacity:1;stroke:#666666;stroke-width:0.226391;stroke-linecap:round;stroke-linejoin:round;stroke-dasharray:none;stroke-opacity:1" />
    </g>
    <path
       style="fill:none;stroke:#666666;stroke-width:1px;stroke-linecap:butt;stroke-linejoin:miter;stroke-dasharray:none;stroke-opacity:1"
       d="m 171.05774,175.00729 v 45.10568"
       id="path1324-9-9-5"
       transform="matrix(0.33072917,0,0,0.33583354,299.98133,141.33894)"
       sodipodi:nodetypes="cc" />
    <path
       style="fill:none;stroke:#666666;stroke-width:1px;stroke-linecap:butt;stroke-linejoin:miter;stroke-dasharray:none;stroke-opacity:1"
       d="m 171.05774,174.70358 v 44.12089"
       id="path1324-9-1-4-36-3"
       transform="matrix(0.33072917,0,0,0.33583354,295.80377,141.60631)"
       sodipodi:nodetypes="cc" />
  </g>
</svg>
