<?xml version="1.0" encoding="UTF-8" standalone="no"?>
<svg
   width="640"
   height="605"
   version="1.1"
   viewBox="0 0 169.33 160.07252"
   id="svg315"
   sodipodi:docname="3.svg"
   inkscape:version="1.2.2 (732a01da63, 2022-12-09)"
   xmlns:inkscape="http://www.inkscape.org/namespaces/inkscape"
   xmlns:sodipodi="http://sodipodi.sourceforge.net/DTD/sodipodi-0.dtd"
   xmlns="http://www.w3.org/2000/svg"
   xmlns:svg="http://www.w3.org/2000/svg">
  <defs
     id="defs319" />
  <sodipodi:namedview
     id="namedview317"
     pagecolor="#505050"
     bordercolor="#ffffff"
     borderopacity="1"
     inkscape:showpageshadow="0"
     inkscape:pageopacity="0"
     inkscape:pagecheckerboard="1"
     inkscape:deskcolor="#505050"
     showgrid="false"
     inkscape:zoom="2.1023899"
     inkscape:cx="265.88788"
     inkscape:cy="605.50138"
     inkscape:window-width="1920"
     inkscape:window-height="1009"
     inkscape:window-x="-8"
     inkscape:window-y="-8"
     inkscape:window-maximized="1"
     inkscape:current-layer="g267" />
  <g
     transform="translate(0,0.12196)"
     fill-rule="evenodd"
     id="g231">
    <path
       transform="matrix(0.14115,0,0,0.14113,84.747,9.1445)"
       d="m 0,896.78 -15.684,1.758 -15.565,-3.684 -15.414,-4.468 -15.536,-0.903 -15.463,-1.804 -15.082,-5.284 -15.095,-4.122 -15.038,-3.962 -14.295,-8.241 -14.672,-4.922 -13.617,-9.925 -13.98,-7.023 -13.748,-7.41 -12.876,-10.31 -13.424,-7.339 -12.598,-9.759 -12.435,-9.589 -11.853,-10.754 -10.425,-14.197 -10.841,-12.03 -10.99,-10.904 -10.256,-12.138 -8.87,-14.742 -9.199,-13.134 -8.668,-13.593 -8.229,-13.803 -7.264,-15.021 -7.303,-14.196 -5.405,-16.966 -5.903,-15.249 -5.878,-14.597 -4.314,-16.475 -3.597,-16.83 -4.42,-14.851 -3.548,-15.498 -2.188,-16.737 -3.482,-14.308 -1.633,-16.147 -1.35,-15.844 0.721,-17.691 0.449,-16.633 0.141,-15.621 0.471,-15.375 1.731,-16.099 1.344,-15.081 2.963,-16.081 4.859,-17.214 3.079,-14.892 3.145,-14.384 3.728,-14.335 4.857,-14.707 7.598,-16.271 6.987,-15.111 6.455,-14.092 6.225,-13.355 6.816,-13.216 7.506,-13.122 7.9,-12.815 9.168,-13.028 8.694,-12.166 9.124,-11.861 9.816,-11.687 10.091,-11.273 10.545,-10.945 11.625,-10.901 9.146,-9.217 11.823,-9.8945 11.746,-9.3084 11.977,-8.8594 9.667,-7.4855 13.382,-8.3348 11.407,-7.1292 12.069,-6.8551 11.421,-6.1776 12.853,-6.1028 11.429,-5.2444 11.387,-4.792 12.133,-4.5162 11.106,-3.8611 11.232,-3.4709 10.585,-2.9561 10.616,-2.5758 10.197,-2.142 9.5784,-1.7126 8.7605,-1.301 7.8836,-0.93037 7.6734,-0.6422 6.0289,-0.31596 6.0289,0.31596 7.6734,0.6422 7.8836,0.93037 8.7605,1.301 9.5784,1.7126 10.197,2.142 10.616,2.5758 10.585,2.9561 11.232,3.4709 11.106,3.8611 12.133,4.5162 11.387,4.792 11.429,5.2444 12.853,6.1028 11.421,6.1776 12.069,6.8551 11.407,7.1292 13.382,8.3348 9.667,7.4855 11.977,8.8594 11.746,9.3084 11.823,9.8945 9.146,9.217 11.625,10.901 10.545,10.945 10.091,11.273 9.816,11.687 9.124,11.861 8.694,12.166 9.168,13.028 7.9,12.815 7.506,13.122 6.816,13.216 6.225,13.355 6.455,14.092 6.987,15.111 7.598,16.271 4.857,14.707 3.728,14.335 3.145,14.384 3.079,14.892 4.859,17.214 2.963,16.081 1.344,15.081 1.731,16.099 0.471,15.375 0.141,15.621 0.449,16.633 0.721,17.691 -1.35,15.844 -1.633,16.147 -3.482,14.308 -2.188,16.737 -3.548,15.498 -4.42,14.851 -3.597,16.83 -4.314,16.475 -5.878,14.597 -5.903,15.249 -5.405,16.966 -7.303,14.196 -7.264,15.021 -8.229,13.803 -8.668,13.593 -9.199,13.134 -8.87,14.742 -10.256,12.138 -10.99,10.904 -10.841,12.03 -10.425,14.197 -11.853,10.754 -12.435,9.589 -12.598,9.759 -13.424,7.339 -12.876,10.31 -13.748,7.41 -13.98,7.023 -13.617,9.925 -14.672,4.922 -14.295,8.241 -15.038,3.962 -15.095,4.122 -15.082,5.284 -15.463,1.804 -15.536,0.903 -15.414,4.468 -15.565,3.684 -15.684,-1.758"
       fill="#fcff5c"
       fill-opacity="0.70588"
       id="path223" />
    <path
       transform="matrix(0.14115,0,0,0.14113,84.747,9.1445)"
       d="m 0,896.78 -15.684,1.758 -15.565,-3.684 -15.414,-4.468 -15.536,-0.903 -15.463,-1.804 -15.082,-5.284 -15.095,-4.122 -15.038,-3.962 -14.295,-8.241 -14.672,-4.922 -13.617,-9.925 -13.98,-7.023 -13.748,-7.41 -12.876,-10.31 -13.424,-7.339 -12.598,-9.759 -12.435,-9.589 -11.853,-10.754 -10.425,-14.197 -10.841,-12.03 -10.99,-10.904 -10.256,-12.138 -8.87,-14.742 -9.199,-13.134 -8.668,-13.593 -8.229,-13.803 -7.264,-15.021 -7.303,-14.196 -5.405,-16.966 -5.903,-15.249 -5.878,-14.597 -4.314,-16.475 -3.597,-16.83 -4.42,-14.851 -3.548,-15.498 -2.188,-16.737 -3.482,-14.308 -1.633,-16.147 -1.35,-15.844 0.721,-17.691 0.449,-16.633 0.141,-15.621 0.471,-15.375 1.731,-16.099 1.344,-15.081 2.963,-16.081 4.859,-17.214 3.079,-14.892 3.145,-14.384 3.728,-14.335 4.857,-14.707 7.598,-16.271 6.987,-15.111 6.455,-14.092 6.225,-13.355 6.816,-13.216 7.506,-13.122 7.9,-12.815 9.168,-13.028 8.694,-12.166 9.124,-11.861 9.816,-11.687 10.091,-11.273 10.545,-10.945 11.625,-10.901 9.146,-9.217 11.823,-9.8945 11.746,-9.3084 11.977,-8.8594 9.667,-7.4855 13.382,-8.3348 11.407,-7.1292 12.069,-6.8551 11.421,-6.1776 12.853,-6.1028 11.429,-5.2444 11.387,-4.792 12.133,-4.5162 11.106,-3.8611 11.232,-3.4709 10.585,-2.9561 10.616,-2.5758 10.197,-2.142 9.5784,-1.7126 8.7605,-1.301 7.8836,-0.93037 7.6734,-0.6422 6.0289,-0.31596 6.0289,0.31596 7.6734,0.6422 7.8836,0.93037 8.7605,1.301 9.5784,1.7126 10.197,2.142 10.616,2.5758 10.585,2.9561 11.232,3.4709 11.106,3.8611 12.133,4.5162 11.387,4.792 11.429,5.2444 12.853,6.1028 11.421,6.1776 12.069,6.8551 11.407,7.1292 13.382,8.3348 9.667,7.4855 11.977,8.8594 11.746,9.3084 11.823,9.8945 9.146,9.217 11.625,10.901 10.545,10.945 10.091,11.273 9.816,11.687 9.124,11.861 8.694,12.166 9.168,13.028 7.9,12.815 7.506,13.122 6.816,13.216 6.225,13.355 6.455,14.092 6.987,15.111 7.598,16.271 4.857,14.707 3.728,14.335 3.145,14.384 3.079,14.892 4.859,17.214 2.963,16.081 1.344,15.081 1.731,16.099 0.471,15.375 0.141,15.621 0.449,16.633 0.721,17.691 -1.35,15.844 -1.633,16.147 -3.482,14.308 -2.188,16.737 -3.548,15.498 -4.42,14.851 -3.597,16.83 -4.314,16.475 -5.878,14.597 -5.903,15.249 -5.405,16.966 -7.303,14.196 -7.264,15.021 -8.229,13.803 -8.668,13.593 -9.199,13.134 -8.87,14.742 -10.256,12.138 -10.99,10.904 -10.841,12.03 -10.425,14.197 -11.853,10.754 -12.435,9.589 -12.598,9.759 -13.424,7.339 -12.876,10.31 -13.748,7.41 -13.98,7.023 -13.617,9.925 -14.672,4.922 -14.295,8.241 -15.038,3.962 -15.095,4.122 -15.082,5.284 -15.463,1.804 -15.536,0.903 -15.414,4.468 -15.565,3.684 -15.684,-1.758"
       fill="none"
       stroke="#fcff5c"
       stroke-linecap="round"
       stroke-linejoin="round"
       stroke-width="7.4985"
       id="path227" />
  </g>
  <g
     transform="translate(0,-73.303)"
     fill="#848484"
     fill-rule="evenodd"
     font-family="Lato"
     stroke-linejoin="round"
     id="g251">
    <g
       font-size="14.937px"
       stroke-width="1.2448"
       id="g245">
      <text
         transform="matrix(0.28341,0,0,0.28341,23.833,82.59)"
         x="472"
         y="6.5"
         style="font-variant-ligatures:normal;font-variant-caps:normal;font-variant-numeric:normal;font-variant-east-asian:normal"
         xml:space="preserve"
         id="text233">90°</text>
      <text
         transform="matrix(0.28341,0,0,0.28341,145.55,82.59)"
         x="-496"
         y="6.5"
         style="font-variant-ligatures:normal;font-variant-caps:normal;font-variant-numeric:normal;font-variant-east-asian:normal"
         xml:space="preserve"
         id="text235">90°</text>
      <text
         transform="matrix(0.28341,0,0,0.28341,83.593,81.449)"
         x="233.98399"
         y="421.297"
         style="font-variant-ligatures:normal;font-variant-caps:normal;font-variant-numeric:normal;font-variant-east-asian:normal"
         xml:space="preserve"
         id="text237"> 30°</text>
      <text
         transform="matrix(0.28341,0,0,0.28341,41.92,55.913)"
         x="405.297"
         y="250"
         style="font-variant-ligatures:normal;font-variant-caps:normal;font-variant-numeric:normal;font-variant-east-asian:normal"
         xml:space="preserve"
         id="text239"> 60°</text>
      <text
         transform="matrix(0.28341,0,0,0.28341,85.908,81.449)"
         x="-260.98401"
         y="421.297"
         style="font-variant-ligatures:normal;font-variant-caps:normal;font-variant-numeric:normal;font-variant-east-asian:normal"
         xml:space="preserve"
         id="text241">30° </text>
      <text
         transform="matrix(0.28341,0,0,0.28341,127.58,55.913)"
         x="-432.297"
         y="250"
         style="font-variant-ligatures:normal;font-variant-caps:normal;font-variant-numeric:normal;font-variant-east-asian:normal"
         xml:space="preserve"
         id="text243">60° </text>
    </g>
    <text
       transform="matrix(0.28319,0,0,0.28319,-50.867,217.57)"
       x="472"
       y="6.5"
       font-size="14.948px"
       stroke-width="1.6"
       style="font-variant-ligatures:normal;font-variant-caps:normal;font-variant-numeric:normal;font-variant-east-asian:normal"
       xml:space="preserve"
       id="text247">0º</text>
    <text
       transform="matrix(0.28319,0,0,0.28319,-54.958,222.31)"
       x="472"
       y="6.5"
       font-size="14.948px"
       stroke-width="1.6"
       style="font-variant-ligatures:normal;font-variant-caps:normal;font-variant-numeric:normal;font-variant-east-asian:normal"
       xml:space="preserve"
       id="text249">cd.klm</text>
  </g>
  <g
     transform="matrix(0.36334,0,0,0.36334,71.361,-93.747)"
     fill="none"
     fill-rule="evenodd"
     font-family="Lato"
     stroke="#000000"
     stroke-linecap="square"
     stroke-linejoin="bevel"
     stroke-width="0.91678"
     id="g267">
    <g
       stroke-linejoin="round"
       id="g263">
      <g
         transform="matrix(0.72337,0,0,0.72337,-166.61,669.22)"
         fill="#fcff5c"
         fill-opacity="0.68235"
         font-size="16px"
         font-weight="400"
         stroke="#fcff5c"
         stroke-linecap="round"
         stroke-width="1.8336"
         id="g255">
        <rect
           y="6.5"
           width="11.2"
           height="15.2"
           stroke-width="1.8336"
           id="rect253"
           x="0" />
      </g>
      <text
         transform="matrix(0.72337,0,0,0.72337,-166.61,667.7)"
         x="16"
         y="22.5"
         fill="#848484"
         font-size="17.569px"
         stroke="none"
         stroke-linecap="butt"
         stroke-width="0.91678"
         style="font-variant-ligatures:normal;font-variant-caps:normal;font-variant-numeric:normal;font-variant-east-asian:normal"
         xml:space="preserve"
         id="text257">C0-C180</text>
    </g>
  </g>
  <g
     transform="translate(0,0.12196)"
     fill="none"
     stroke="#858585"
     id="g311">
    <path
       transform="matrix(0.52917,0,0,0.52917,-68.201,-25.683)"
       d="m 320.33,65.864 a 31.291,31.291 0 0 1 -15.646,27.099 31.291,31.291 0 0 1 -31.292,-10e-7 31.291,31.291 0 0 1 -15.646,-27.099"
       stroke-width="0.15"
       id="path269" />
    <path
       transform="matrix(1.0583,0,0,1.0576,-221.15,-60.49)"
       d="m 320.33,65.864 a 31.291,31.291 0 0 1 -15.646,27.099 31.291,31.291 0 0 1 -31.292,-10e-7 31.291,31.291 0 0 1 -15.646,-27.099"
       stroke-width="0.075027"
       id="path271" />
    <path
       transform="matrix(1.5875,0,0,1.5865,-374.1,-95.32)"
       d="m 320.33,65.864 a 31.291,31.291 0 0 1 -15.646,27.099 31.291,31.291 0 0 1 -31.292,-10e-7 31.291,31.291 0 0 1 -15.646,-27.099"
       stroke-width="0.050016"
       id="path273" />
    <path
       transform="matrix(2.1167,0,0,2.1153,-527.05,-130.15)"
       d="m 320.33,65.864 a 31.291,31.291 0 0 1 -15.646,27.099 31.291,31.291 0 0 1 -31.292,-10e-7 31.291,31.291 0 0 1 -15.646,-27.099"
       stroke-width="0.037512"
       id="path275" />
    <path
       transform="matrix(2.6458,0,0,2.6441,-680,-164.98)"
       d="m 316.1,81.579 c -2.6998,4.6487 -6.5966,8.6031 -11.414,11.384 -9.6817,5.59 -21.61,5.59 -31.292,-10e-7 -4.8457,-2.7976 -8.7602,-6.7827 -11.462,-11.467"
       stroke-width="0.03001"
       id="path277" />
    <path
       transform="matrix(3.1749,0,0,3.1729,-832.93,-199.8)"
       d="m 311.59,87.561 c -2.0089,2.088 -4.324,3.9131 -6.9028,5.4019 -9.6817,5.59 -21.61,5.59 -31.292,-1e-6 -2.5964,-1.499 -4.9254,-3.3389 -6.9438,-5.4447"
       stroke-width="0.025009"
       id="path279" />
    <path
       transform="matrix(3.7041,0,0,3.7017,-985.9,-234.64)"
       d="m 308.37,90.473 c -1.1574,0.90884 -2.3869,1.7421 -3.683,2.4903 -9.6817,5.59 -21.61,5.59 -31.292,-10e-7 -1.3089,-0.75568 -2.5499,-1.598 -3.7174,-2.5174"
       stroke-width="0.021436"
       id="path281" />
    <path
       transform="matrix(4.2243,0,0,4.2215,-1136.5,-268.87)"
       d="m 306.04,92.132 c -0.44425,0.28747 -0.89718,0.5646 -1.3586,0.83096 -9.6817,5.59 -21.61,5.59 -31.292,-10e-7 -0.43229,-0.24957 -0.85718,-0.5086 -1.2744,-0.77673"
       stroke-width="0.018796"
       id="path283" />
    <path
       transform="matrix(0.26469,0,0,0.26469,-0.036694,-0.031725)"
       d="m 320.33,34.764 v 499.07"
       stroke-width="0.29988"
       id="path285" />
    <path
       transform="matrix(0,0.29371,-0.29371,0,168.21,-84.937)"
       d="m 320.33,40.455 v 487.98"
       stroke-width="0.27025"
       id="path287" />
    <g
       stroke-width="0.29988"
       id="g309">
      <path
         transform="matrix(0.26469,0,0,0.26469,-0.036694,-0.031725)"
         d="m 320.33,34.764 129.11,481.86"
         id="path289" />
      <path
         transform="matrix(0.26469,0,0,0.26469,-0.036694,-0.031725)"
         d="m 320.33,34.764 249.34,431.88"
         id="path291" />
      <path
         transform="matrix(0.26469,0,0,0.26469,-0.036694,-0.031725)"
         d="m 320.33,34.764 270.38,270.38"
         id="path293" />
      <path
         transform="matrix(0.26469,0,0,0.26469,-0.036694,-0.031725)"
         d="m 320.33,34.764 270.39,156.06"
         id="path295" />
      <path
         transform="matrix(0.26469,0,0,0.26469,-0.036694,-0.031725)"
         d="m 320.33,34.764 270.39,72.405"
         id="path297" />
      <path
         transform="matrix(0.26469,0,0,0.26469,-0.036694,-0.031725)"
         d="M 320.33,34.764 191.1,517.074"
         id="path299" />
      <path
         transform="matrix(0.26469,0,0,0.26469,-0.036694,-0.031725)"
         d="M 320.33,34.764 70.48,467.524"
         id="path301" />
      <path
         transform="matrix(0.26469,0,0,0.26469,-0.036694,-0.031725)"
         d="M 320.33,34.764 49.25,305.844"
         id="path303" />
      <path
         transform="matrix(0.26469,0,0,0.26469,-0.036694,-0.031725)"
         d="M 320.33,34.764 49.25,191.274"
         id="path305" />
      <path
         transform="matrix(0.26469,0,0,0.26469,-0.036694,-0.031725)"
         d="M 320.33,34.764 49.27,107.391"
         id="path307" />
    </g>
  </g>
  <path
     transform="matrix(0.32999,0,0,0.32836,55.653,-68.355)"
     d="m 140.07,224.42 v 1.5002 M 35.77,224.42 v 1.5002 m 90.9,9.9986 H 49.171 m -20.751,0.50006 h 20.251 m 22.625,-9.326 v 1.0001 m 47.776,-1.0001 v 1.0001 m -43.101,-1.0001 v 1.0001 m 21.799,0 v -1.0001 m 17.648,1.0001 h 3.2914 m -61.788,-1.0001 h -0.15081 m 13.906,0 v 1.0001 m 27.093,0 h 0.15081 m -11.3,-1.0001 v 1.0001 m -33.351,-1.0001 h -0.14817 m 21.011,1.0001 h 1.8388 m -22.701,0 v -1.0001 m 8.4534,0 v 1.0001 m 12.409,-1.0001 v 1.0001 m 48.588,-1.0001 h -0.15081 m -44.498,1.0001 v -1.0001 m 19.849,1.0001 v -1.0001 m -3.6512,1.0001 h 3.5004 m 21.151,0 h 0.15081 m -14.526,-1.0001 v 1.0001 m -51.424,-1.0001 v 1.0001 m 41,-1.0001 v 1.0001 m 0,0 h 0.14816 m -12.549,-1.0001 h -0.15082 m -3.6486,0 v 1.0001 m -35.999,-2.0002 v 1.0001 m 28.083,0 v 1.0001 m 35.833,-1.0001 v 1.0001 m -27.916,0 h 0.15081 m -8.0671,0 h 0.67204 m 27.093,-1.0001 v 1.0001 m -19.698,0 h 3.4978 m 12.7,0 v -1.0001 m -0.38364,0 v 1.0001 m 25.186,0 h 3.4978 m -13.062,-1.0001 v 1.0001 m -5.1118,0 h 0.15081 m 18.174,0 v -1.0001 m -17.555,1.0001 h 0.67205 m -14.462,0 h 2.5109 m -4.6646,-1.0001 v 1.0001 m 10.649,-1.0001 v 1.0001 m -29.194,0 h 0.61912 m 10.425,0 h 0.23283 m 22.442,-1.0001 v 1.0001 m -22.826,-1.0001 v 1.0001 m 12.316,0 h 0.23548 m 11.044,-1.0001 v 1.0001 m 17.404,-1.0001 v 1.0001 m -62.145,0 h 1.2991 m 20.23,-1.0001 v 1.0001 m -25.183,0 v -1.0001 m 37.499,0 v 1.0001 m -16.198,-1.0001 v 1.0001 m 23.638,-1.0001 v 1.0001 m 2.8363,0 h 0.61912 m 0.67205,0 h 3.6698 m 13.062,0 h 0.15081 m -7.3025,-1.0001 v 1.0001 m -43.974,-1.0001 v 1.0001 m -14.523,0 v -1.0001 m 24.649,1.0001 h 0.15082 m 37.351,-1.0001 h -0.15081 m -27.546,0 v 1.0001 m -19.931,0 h 2.6882 m -7.7973,-1.0001 v 1.0001 m 33.536,0 h 1.8389 m 32.21,-2.0002 h -91.998 m 11.348,1.0001 v 1.0001 m 48.44,0 h 2.6855 m -38.06,0 h 3.6698 m 1.2912,0 h 0.14817 m 10.276,0 v -1.0001 m -24.95,0 v 1.0001 m 37.499,-1.0001 h -0.14816 m -9.6546,0 v 1.0001 m 34.454,-1.0001 v 1.0001 m -61.788,-1.0001 v 1.0001 m -15.211,-1.0001 h 91.998 m -11.351,0 h -3.4978 m -41,0 h -0.15081 m 55.999,0 v -1.0001 m -77.15,2.0002 h 0.15081 m 29.699,0 h 2.6008 m 29.488,-1.0001 v 1.0001 m -4.5905,0 h 1.2991 m 7.1517,0 v -1.0001 m -65.437,1.0001 h 3.2914 m 21.529,0 h 2.5135 m 13.303,-1.0001 h -3.5004 m -41.148,1.0001 h 0.14817 m 3.5004,-1.0001 h -3.5004 m 28.3,1.0001 v -1.0001 m 16.351,0 h -0.15081 m -37.346,0 v 1.0001 m 58.648,0 v -1.0001 m -4.953,0 v 1.0001 m -32.549,-1.0001 h -3.4978 m -24.802,1.0001 h 3.5004 m 65.8,-1.0013 v 1 h 0.14999 v -1 z m -3.5,1 v -1 h -0.15 v 1 z m -21.3,-1 v 1 h 0.14999 v -1 z m -3.5,1 v -1 h -0.14999 v 1 z m -16.2,0 v -1 h -0.14999 v 1 z m 3.5,-1 v 1 h 0.15002 v -1 z m -28.3,1 v -1 h -0.14999 v 1 z m 3.5,-1 v 1 h 0.15 v -1 z m -8.1,9.328 a 0.5,0.5 0 0 0 0.50001,-0.50001 m -21.25,0 a 0.5,0.5 0 0 0 0.50001,0.50001 m 119,0 a 0.5,0.5 0 0 0 0.50001,-0.50001 m -106.15,-9.9994 h 92.297 m 13.854,8.4984 h -7.702 m 0,0 -0.14817,-8.4984 m -98.15,7.4983 v 1.0001 m -14.002,0 v 1.5002 m 106.15,-9.9986 -0.14817,8.4984 m 6.1362,-9.9985 h -104.25 m 5.9673,1.5001 h -6.0008 m 6.1516,8.4984 -0.15081,-8.4984 m 85.4,10.499 h 20.251 m -105.5,-2.0002 h 91.998 m -91.998,0 h 91.998 m -91.998,-1.0001 v 1.0001 m -6.3024,0 h -7.6994 m 106,-1.0001 h -91.998 m 106,2.5003 v -1.5002 m -98.75,1.5002 v -1.5002 m 0,0 h -7.2496 m 91.998,0 v -1.0001 m -98.15,-7.4983 -0.15081,8.4984 m 98.301,0 v -1.0001 m -7.2496,1.0001 v 1.5002 m 7.2496,-1.5002 h -7.2496 m 13.401,-8.4984 h -6.0034 m -0.14817,7.4983 h -91.998 m 84.749,2.5011 a 0.5,0.5 0 0 0 0.50001,0.50001 m -78.499,-7.2e-4 h 78.499"
     fill="none"
     stroke="#000000"
     stroke-linecap="round"
     stroke-width="0.26748"
     id="path313" />
</svg>
