<?xml version="1.0" encoding="UTF-8" standalone="no"?>
<svg
   width="600.00629"
   height="556.69879"
   version="1.1"
   viewBox="0 0 158.74854 147.29172"
   id="svg1126"
   sodipodi:docname="diagrama arem clear.svg"
   inkscape:version="1.2.2 (732a01da63, 2022-12-09)"
   xmlns:inkscape="http://www.inkscape.org/namespaces/inkscape"
   xmlns:sodipodi="http://sodipodi.sourceforge.net/DTD/sodipodi-0.dtd"
   xmlns="http://www.w3.org/2000/svg"
   xmlns:svg="http://www.w3.org/2000/svg">
  <defs
     id="defs1130" />
  <sodipodi:namedview
     id="namedview1128"
     pagecolor="#505050"
     bordercolor="#ffffff"
     borderopacity="1"
     inkscape:showpageshadow="0"
     inkscape:pageopacity="0"
     inkscape:pagecheckerboard="1"
     inkscape:deskcolor="#505050"
     showgrid="false"
     inkscape:zoom="1.7226034"
     inkscape:cx="-137.58245"
     inkscape:cy="103.33197"
     inkscape:window-width="1680"
     inkscape:window-height="979"
     inkscape:window-x="1912"
     inkscape:window-y="-8"
     inkscape:window-maximized="1"
     inkscape:current-layer="svg1126"
     inkscape:lockguides="true" />
  <g
     transform="matrix(0.39958,0,0,0.40012,45.622887,-2.4520259)"
     fill-rule="evenodd"
     stroke-width="2.501"
     id="g490">
    <path
       transform="matrix(0.35278,0,0,0.35278,84.689,9.1518)"
       d="m 0,916.47 -15.987,-0.582 -15.944,-1.509 -15.83,-3.06 -15.682,-4.058 -15.58,-4.043 -15.466,-4.232 -15.966,0.588 -15.882,-0.648 -15.653,-2.445 -15.385,-3.971 -15.235,-4.516 -15.099,-4.903 -14.792,-5.969 -14.649,-6.19 -15.166,-3.923 -15.089,-4.211 -14.861,-4.972 -13.268,-9.826 -13.082,-9.806 -11.561,-13.471 -10.211,-16.142 -13.558,-6.793 -15.183,-2.856 -10.349,-13.998 -9.448,-15.22 -10.815,-11.639 -12.831,-7.24 -7.602,-17.03 -1.894,-26.501 -6.63,-16.745 -8.081,-13.571 -6.187,-16.11 1.868,-27.848 4.223,-29.818 -3.487,-17.16 -6.513,-12.278 -4.411,-14.714 4.41,-25.488 9.388,-30.371 11.468,-31.248 6.988,-24.428 -8.065,-6.51 -39.11,26.755 -14.925,-0.615 36.242,-52.27 10.047,-23.938 -61.506,43.925 -25.41,7.905 60.515,-67.908 55.406,-59.509 -53.738,32.499 -15.082,-0.459 71.249,-66.021 37.341,-37.216 55.466,-47.688 41.772,-35.387 -72.814,41.292 -13.672,0.895 60.486,-44.154 77.445,-50.939 34.548,-23.468 -47.185,21.634 76.175,-43.25 37.359,-20.92 26.211,-14.075 15.86,-8.332 7.0331,-3.9071 3.5858,-2.2132 1.6601,-1.3187 1.5243,-1.1942 1.4573,-1.1031 1.9063,-1.1852 1.7642,-1.0622 2.0672,-1.0766 1.5942,-0.86732 1.7681,-0.84723 1.3851,-0.69002 1.1229,-0.58057 1.2392,-0.55984 2.3541,-0.70951 1.7824,-0.53269 0.5604,-0.29596 0.8249,-0.30746 2.0471,-0.40588 1.1508,-0.25464 0.56017,-0.17245 1.1349,-0.18262 0.827,-0.13195 0.90754,-0.10434 0.67537,-0.072602 h 6.968 l 0.67537,0.072602 0.90754,0.10434 0.827,0.13195 1.1349,0.18262 0.56017,0.17245 1.1508,0.25464 2.0471,0.40588 0.8249,0.30746 0.5604,0.29596 1.7824,0.53269 2.3541,0.70951 1.2392,0.55984 1.1229,0.58057 1.3851,0.69002 1.7681,0.84723 1.5942,0.86732 2.0672,1.0766 1.7642,1.0622 1.9063,1.1852 1.4573,1.1031 1.5243,1.1942 1.6601,1.3187 3.5858,2.2132 7.0331,3.9071 15.86,8.332 26.211,14.075 37.359,20.92 76.175,43.25 -47.185,-21.634 34.548,23.468 77.445,50.939 60.486,44.154 -13.672,-0.895 -72.814,-41.292 41.772,35.387 55.466,47.688 37.341,37.216 71.249,66.021 -15.082,0.459 -53.738,-32.499 55.406,59.509 60.515,67.908 -25.41,-7.905 -61.506,-43.925 10.047,23.938 36.242,52.27 -14.925,0.615 -39.11,-26.755 -8.065,6.51 6.988,24.428 11.468,31.248 9.388,30.371 4.41,25.488 -4.411,14.714 -6.513,12.278 -3.487,17.16 4.223,29.818 1.868,27.848 -6.187,16.11 -8.081,13.571 -6.63,16.745 -1.894,26.501 -7.602,17.03 -12.831,7.24 -10.815,11.639 -9.448,15.22 -10.349,13.998 -15.183,2.856 -13.558,6.793 -10.211,16.142 -11.561,13.471 -13.082,9.806 -13.268,9.826 -14.861,4.972 -15.089,4.211 -15.166,3.923 -14.649,6.19 -14.792,5.969 -15.099,4.903 -15.235,4.516 -15.385,3.971 -15.653,2.445 -15.882,0.648 -15.966,-0.588 -15.466,4.232 -15.58,4.043 -15.682,4.058 -15.83,3.06 -15.944,1.509 -15.987,0.582"
       fill="#fcff5c"
       fill-opacity="0.70588"
       id="path484"
       style="display:inline" />
    <path
       transform="matrix(0.35278,0,0,0.35278,84.689,9.1518)"
       d="m 0,916.47 -15.987,-0.582 -15.944,-1.509 -15.83,-3.06 -15.682,-4.058 -15.58,-4.043 -15.466,-4.232 -15.966,0.588 -15.882,-0.648 -15.653,-2.445 -15.385,-3.971 -15.235,-4.516 -15.099,-4.903 -14.792,-5.969 -14.649,-6.19 -15.166,-3.923 -15.089,-4.211 -14.861,-4.972 -13.268,-9.826 -13.082,-9.806 -11.561,-13.471 -10.211,-16.142 -13.558,-6.793 -15.183,-2.856 -10.349,-13.998 -9.448,-15.22 -10.815,-11.639 -12.831,-7.24 -7.602,-17.03 -1.894,-26.501 -6.63,-16.745 -8.081,-13.571 -6.187,-16.11 1.868,-27.848 4.223,-29.818 -3.487,-17.16 -6.513,-12.278 -4.411,-14.714 4.41,-25.488 9.388,-30.371 11.468,-31.248 6.988,-24.428 -8.065,-6.51 -39.11,26.755 -14.925,-0.615 36.242,-52.27 10.047,-23.938 -61.506,43.925 -25.41,7.905 60.515,-67.908 55.406,-59.509 -53.738,32.499 -15.082,-0.459 71.249,-66.021 37.341,-37.216 55.466,-47.688 41.772,-35.387 -72.814,41.292 -13.672,0.895 60.486,-44.154 77.445,-50.939 34.548,-23.468 -47.185,21.634 76.175,-43.25 37.359,-20.92 26.211,-14.075 15.86,-8.332 7.0331,-3.9071 3.5858,-2.2132 1.6601,-1.3187 1.5243,-1.1942 1.4573,-1.1031 1.9063,-1.1852 1.7642,-1.0622 2.0672,-1.0766 1.5942,-0.86732 1.7681,-0.84723 1.3851,-0.69002 1.1229,-0.58057 1.2392,-0.55984 2.3541,-0.70951 1.7824,-0.53269 0.5604,-0.29596 0.8249,-0.30746 2.0471,-0.40588 1.1508,-0.25464 0.56017,-0.17245 1.1349,-0.18262 0.827,-0.13195 0.90754,-0.10434 0.67537,-0.072602 h 6.968 l 0.67537,0.072602 0.90754,0.10434 0.827,0.13195 1.1349,0.18262 0.56017,0.17245 1.1508,0.25464 2.0471,0.40588 0.8249,0.30746 0.5604,0.29596 1.7824,0.53269 2.3541,0.70951 1.2392,0.55984 1.1229,0.58057 1.3851,0.69002 1.7681,0.84723 1.5942,0.86732 2.0672,1.0766 1.7642,1.0622 1.9063,1.1852 1.4573,1.1031 1.5243,1.1942 1.6601,1.3187 3.5858,2.2132 7.0331,3.9071 15.86,8.332 26.211,14.075 37.359,20.92 76.175,43.25 -47.185,-21.634 34.548,23.468 77.445,50.939 60.486,44.154 -13.672,-0.895 -72.814,-41.292 41.772,35.387 55.466,47.688 37.341,37.216 71.249,66.021 -15.082,0.459 -53.738,-32.499 55.406,59.509 60.515,67.908 -25.41,-7.905 -61.506,-43.925 10.047,23.938 36.242,52.27 -14.925,0.615 -39.11,-26.755 -8.065,6.51 6.988,24.428 11.468,31.248 9.388,30.371 4.41,25.488 -4.411,14.714 -6.513,12.278 -3.487,17.16 4.223,29.818 1.868,27.848 -6.187,16.11 -8.081,13.571 -6.63,16.745 -1.894,26.501 -7.602,17.03 -12.831,7.24 -10.815,11.639 -9.448,15.22 -10.349,13.998 -15.183,2.856 -13.558,6.793 -10.211,16.142 -11.561,13.471 -13.082,9.806 -13.268,9.826 -14.861,4.972 -15.089,4.211 -15.166,3.923 -14.649,6.19 -14.792,5.969 -15.099,4.903 -15.235,4.516 -15.385,3.971 -15.653,2.445 -15.882,0.648 -15.966,-0.588 -15.466,4.232 -15.58,4.043 -15.682,4.058 -15.83,3.06 -15.944,1.509 -15.987,0.582"
       fill="none"
       stroke="#fcff5c"
       stroke-linecap="round"
       stroke-linejoin="round"
       stroke-width="7.5029"
       id="path488"
       style="display:inline" />
  </g>
  <g
     transform="translate(-5.2921122,-81.363026)"
     fill="#848484"
     fill-rule="evenodd"
     font-family="Lato"
     stroke-linejoin="round"
     id="g510">
    <g
       font-size="14.937px"
       stroke-width="1.2448"
       id="g504">
      <g
         aria-label="90°"
         transform="matrix(0.28341,0,0,0.28341,23.833,82.59)"
         id="text492">
        <path
           d="m 476.10021,2.1085219 q -0.60495,0 -1.15015,-0.2016495 -0.53773,-0.2016495 -0.9485,-0.5900115 -0.41077,-0.3958305 -0.65723,-0.96343651 -0.23899,-0.57507451 -0.23899,-1.31445603 0,-0.70203906 0.2614,-1.31445606 0.26139,-0.612417 0.73191,-1.0679955 0.47051,-0.4555785 1.12027,-0.716976 0.64976,-0.2613975 1.42649,-0.2613975 0.76925,0 1.39661,0.253929 0.62735,0.253929 1.07546,0.7095075 0.44811,0.4555785 0.6871,1.090401 0.24646,0.6348226 0.24646,1.40407806 0,0.46304701 -0.0896,0.88128302 -0.0821,0.41076751 -0.24646,0.80659802 -0.16431,0.3958305 -0.39583,0.791661 -0.22405,0.388362 -0.51533,0.806598 l -2.6065,3.7641241 q -0.0971,0.1419015 -0.27634,0.2315235 Q 475.74172,6.5 475.5102,6.5 h -1.22484 l 3.25627,-4.2645136 q 0.1643,-0.2165865 0.30621,-0.4107675 0.1419,-0.194181 0.26886,-0.388362 -0.41077,0.328614 -0.92609,0.5003895 -0.51533,0.1717755 -1.0904,0.1717755 z m 2.67372,-3.1293015 q 0,-0.5003895 -0.16431,-0.9036886 -0.15684,-0.4107675 -0.44064,-0.6945705 -0.2838,-0.283803 -0.67963,-0.433173 -0.38836,-0.1568385 -0.85888,-0.1568385 -0.49292,0 -0.90369,0.164307 -0.4033,0.1568385 -0.69457,0.4406415 -0.2838,0.283803 -0.44064,0.6796335 -0.15684,0.3958306 -0.15684,0.8663461 0,0.50785797 0.1419,0.91115698 0.14937,0.39583051 0.41824,0.67216501 0.27633,0.27633451 0.6647,0.41823601 0.39583,0.1419015 0.88128,0.1419015 0.53773,0 0.9485,-0.1717755 0.41823,-0.17924401 0.70204,-0.47051551 0.2838,-0.29127151 0.43317,-0.67216501 0.14937,-0.38089351 0.14937,-0.79166098 z"
           id="path2724" />
        <path
           d="m 488.87881,1.1525539 q 0,1.404078 -0.30621,2.434731 -0.29874,1.0231846 -0.82153,1.6953496 -0.5228,0.672165 -1.23978,1.000779 -0.7095,0.328614 -1.52357,0.328614 -0.82153,0 -1.53104,-0.328614 -0.70204,-0.328614 -1.22484,-1.000779 -0.52279,-0.672165 -0.82153,-1.6953496 -0.29874,-1.030653 -0.29874,-2.434731 0,-1.40407802 0.29874,-2.434731 0.29874,-1.0306531 0.82153,-1.7028181 0.5228,-0.6796335 1.22484,-1.0082475 0.70951,-0.328614 1.53104,-0.328614 0.81407,0 1.52357,0.328614 0.71698,0.328614 1.23978,1.0082475 0.52279,0.672165 0.82153,1.7028181 0.30621,1.03065298 0.30621,2.434731 z m -1.38167,0 q 0,-1.22483402 -0.20912,-2.05383754 -0.20165,-0.83647206 -0.55267,-1.34433006 -0.34355,-0.507858 -0.79913,-0.7244445 -0.45558,-0.224055 -0.9485,-0.224055 -0.49292,0 -0.9485,0.224055 -0.45558,0.2165865 -0.79913,0.7244445 -0.34355,0.507858 -0.55267,1.34433006 -0.20165,0.82900352 -0.20165,2.05383754 0,1.224834 0.20165,2.0538375 0.20912,0.8290036 0.55267,1.3368616 0.34355,0.507858 0.79913,0.731913 0.45558,0.2165865 0.9485,0.2165865 0.49292,0 0.9485,-0.2165865 0.45558,-0.224055 0.79913,-0.731913 0.35102,-0.507858 0.55267,-1.3368616 0.20912,-0.8290035 0.20912,-2.0538375 z"
           id="path2726" />
        <path
           d="m 489.84971,-1.9244682 q 0,-0.5003895 0.18672,-0.941031 0.18671,-0.4406415 0.51532,-0.761787 0.32862,-0.328614 0.76926,-0.5153265 0.44811,-0.1867125 0.96343,-0.1867125 0.51533,0 0.95597,0.1867125 0.44811,0.1867125 0.77673,0.5153265 0.32861,0.3211455 0.51532,0.761787 0.18671,0.4406415 0.18671,0.941031 0,0.4929211 -0.18671,0.93356256 -0.18671,0.43317301 -0.51532,0.76178702 -0.32862,0.3211455 -0.77673,0.51532651 -0.44064,0.1867125 -0.95597,0.1867125 -0.51532,0 -0.96343,-0.1867125 -0.44064,-0.19418101 -0.76926,-0.51532651 -0.32861,-0.32861401 -0.51532,-0.76178702 -0.18672,-0.44064146 -0.18672,-0.93356256 z m 0.9485,0.00747 q 0,0.3136771 0.11203,0.5900116 0.11203,0.268866 0.31368,0.47051546 0.20165,0.20164951 0.47051,0.32114551 0.27634,0.1120275 0.59001,0.1120275 0.31368,0 0.58255,-0.1120275 0.26886,-0.119496 0.47051,-0.32114551 0.20165,-0.20164946 0.31368,-0.47051546 0.11203,-0.2763345 0.11203,-0.5900116 0,-0.313677 -0.11203,-0.5900115 -0.11203,-0.2763345 -0.31368,-0.477984 -0.20165,-0.209118 -0.47051,-0.3211455 -0.26887,-0.119496 -0.58255,-0.119496 -0.31367,0 -0.59001,0.119496 -0.26886,0.1120275 -0.47051,0.3211455 -0.20165,0.2016495 -0.31368,0.477984 -0.11203,0.2763345 -0.11203,0.5900115 z"
           id="path2728" />
      </g>
      <g
         aria-label="90°"
         transform="matrix(0.28341,0,0,0.28341,145.55,82.59)"
         id="text494">
        <path
           d="m -491.89979,2.1085219 q -0.60495,0 -1.15015,-0.2016495 -0.53773,-0.2016495 -0.9485,-0.5900115 -0.41077,-0.3958305 -0.65723,-0.96343651 -0.23899,-0.57507451 -0.23899,-1.31445603 0,-0.70203906 0.2614,-1.31445606 0.26139,-0.612417 0.73191,-1.0679955 0.47051,-0.4555785 1.12027,-0.716976 0.64976,-0.2613975 1.42649,-0.2613975 0.76925,0 1.39661,0.253929 0.62735,0.253929 1.07546,0.7095075 0.44811,0.4555785 0.6871,1.090401 0.24646,0.6348226 0.24646,1.40407806 0,0.46304701 -0.0896,0.88128302 -0.0821,0.41076751 -0.24646,0.80659802 -0.16431,0.3958305 -0.39583,0.791661 -0.22405,0.388362 -0.51533,0.806598 l -2.6065,3.7641241 q -0.0971,0.1419015 -0.27634,0.2315235 Q -492.25828,6.5 -492.4898,6.5 h -1.22484 l 3.25627,-4.2645136 q 0.1643,-0.2165865 0.30621,-0.4107675 0.1419,-0.194181 0.26886,-0.388362 -0.41077,0.328614 -0.92609,0.5003895 -0.51533,0.1717755 -1.0904,0.1717755 z m 2.67372,-3.1293015 q 0,-0.5003895 -0.16431,-0.9036886 -0.15684,-0.4107675 -0.44064,-0.6945705 -0.2838,-0.283803 -0.67963,-0.433173 -0.38836,-0.1568385 -0.85888,-0.1568385 -0.49292,0 -0.90369,0.164307 -0.4033,0.1568385 -0.69457,0.4406415 -0.2838,0.283803 -0.44064,0.6796335 -0.15684,0.3958306 -0.15684,0.8663461 0,0.50785797 0.1419,0.91115698 0.14937,0.39583051 0.41824,0.67216501 0.27633,0.27633451 0.6647,0.41823601 0.39583,0.1419015 0.88128,0.1419015 0.53773,0 0.9485,-0.1717755 0.41823,-0.17924401 0.70204,-0.47051551 0.2838,-0.29127151 0.43317,-0.67216501 0.14937,-0.38089351 0.14937,-0.79166098 z"
           id="path2731" />
        <path
           d="m -479.12119,1.1525539 q 0,1.404078 -0.30621,2.434731 -0.29874,1.0231846 -0.82153,1.6953496 -0.5228,0.672165 -1.23978,1.000779 -0.7095,0.328614 -1.52357,0.328614 -0.82153,0 -1.53104,-0.328614 -0.70204,-0.328614 -1.22484,-1.000779 -0.52279,-0.672165 -0.82153,-1.6953496 -0.29874,-1.030653 -0.29874,-2.434731 0,-1.40407802 0.29874,-2.434731 0.29874,-1.0306531 0.82153,-1.7028181 0.5228,-0.6796335 1.22484,-1.0082475 0.70951,-0.328614 1.53104,-0.328614 0.81407,0 1.52357,0.328614 0.71698,0.328614 1.23978,1.0082475 0.52279,0.672165 0.82153,1.7028181 0.30621,1.03065298 0.30621,2.434731 z m -1.38167,0 q 0,-1.22483402 -0.20912,-2.05383754 -0.20165,-0.83647206 -0.55267,-1.34433006 -0.34355,-0.507858 -0.79913,-0.7244445 -0.45558,-0.224055 -0.9485,-0.224055 -0.49292,0 -0.9485,0.224055 -0.45558,0.2165865 -0.79913,0.7244445 -0.34355,0.507858 -0.55267,1.34433006 -0.20165,0.82900352 -0.20165,2.05383754 0,1.224834 0.20165,2.0538375 0.20912,0.8290036 0.55267,1.3368616 0.34355,0.507858 0.79913,0.731913 0.45558,0.2165865 0.9485,0.2165865 0.49292,0 0.9485,-0.2165865 0.45558,-0.224055 0.79913,-0.731913 0.35102,-0.507858 0.55267,-1.3368616 0.20912,-0.8290035 0.20912,-2.0538375 z"
           id="path2733" />
        <path
           d="m -478.15029,-1.9244682 q 0,-0.5003895 0.18672,-0.941031 0.18671,-0.4406415 0.51532,-0.761787 0.32862,-0.328614 0.76926,-0.5153265 0.44811,-0.1867125 0.96343,-0.1867125 0.51533,0 0.95597,0.1867125 0.44811,0.1867125 0.77673,0.5153265 0.32861,0.3211455 0.51532,0.761787 0.18671,0.4406415 0.18671,0.941031 0,0.4929211 -0.18671,0.93356256 -0.18671,0.43317301 -0.51532,0.76178702 -0.32862,0.3211455 -0.77673,0.51532651 -0.44064,0.1867125 -0.95597,0.1867125 -0.51532,0 -0.96343,-0.1867125 -0.44064,-0.19418101 -0.76926,-0.51532651 -0.32861,-0.32861401 -0.51532,-0.76178702 -0.18672,-0.44064146 -0.18672,-0.93356256 z m 0.9485,0.00747 q 0,0.3136771 0.11203,0.5900116 0.11203,0.268866 0.31368,0.47051546 0.20165,0.20164951 0.47051,0.32114551 0.27634,0.1120275 0.59001,0.1120275 0.31368,0 0.58255,-0.1120275 0.26886,-0.119496 0.47051,-0.32114551 0.20165,-0.20164946 0.31368,-0.47051546 0.11203,-0.2763345 0.11203,-0.5900116 0,-0.313677 -0.11203,-0.5900115 -0.11203,-0.2763345 -0.31368,-0.477984 -0.20165,-0.209118 -0.47051,-0.3211455 -0.26887,-0.119496 -0.58255,-0.119496 -0.31367,0 -0.59001,0.119496 -0.26886,0.1120275 -0.47051,0.3211455 -0.20165,0.2016495 -0.31368,0.477984 -0.11203,0.2763345 -0.11203,0.5900115 z"
           id="path2735" />
      </g>
      <g
         aria-label=" 30°"
         transform="matrix(0.28341,0,0,0.28341,83.593,81.449)"
         id="text496">
        <path
           d="m 241.49732,410.47514 q 0.67963,0 1.2547,0.19418 0.57508,0.19418 0.98585,0.55267 0.41823,0.35849 0.64976,0.86635 0.23152,0.50785 0.23152,1.12774 0,0.50786 -0.13443,0.91116 -0.12697,0.39583 -0.37343,0.70204 -0.23899,0.29874 -0.58254,0.50785 -0.34355,0.20912 -0.76926,0.33609 1.04559,0.27633 1.56839,0.92609 0.53026,0.64976 0.53026,1.62813 0,0.73939 -0.2838,1.3294 -0.27634,0.59001 -0.76179,1.00824 -0.48545,0.41077 -1.13521,0.63483 -0.64229,0.21658 -1.38167,0.21658 -0.85141,0 -1.45636,-0.20911 -0.60495,-0.21659 -1.02319,-0.59002 -0.41823,-0.37342 -0.6871,-0.88128 -0.26886,-0.51533 -0.45558,-1.11281 l 0.56761,-0.23899 q 0.15684,-0.0672 0.31368,-0.0672 0.14937,0 0.26139,0.0672 0.1195,0.0598 0.17925,0.19418 0.0149,0.0299 0.0299,0.0672 0.0149,0.0299 0.0299,0.0672 0.10456,0.21658 0.25393,0.49292 0.14937,0.26886 0.40329,0.50786 0.25393,0.23899 0.62736,0.40329 0.38089,0.16431 0.94103,0.16431 0.56014,0 0.97837,-0.17924 0.42571,-0.18672 0.70204,-0.47799 0.28381,-0.29127 0.42571,-0.64976 0.1419,-0.35848 0.1419,-0.7095 0,-0.43318 -0.1195,-0.79167 -0.11203,-0.35848 -0.41823,-0.61988 -0.29874,-0.2614 -0.83648,-0.41077 -0.53026,-0.14937 -1.36673,-0.14937 v -0.96343 q 0.67963,-0.007 1.15762,-0.14937 0.48545,-0.14191 0.79166,-0.38837 0.30621,-0.24646 0.44064,-0.59001 0.1419,-0.34355 0.1419,-0.76179 0,-0.46304 -0.14937,-0.80659 -0.1419,-0.34355 -0.39583,-0.56761 -0.25393,-0.22405 -0.60495,-0.33608 -0.34355,-0.11203 -0.74685,-0.11203 -0.4033,0 -0.74685,0.1195 -0.34355,0.11949 -0.61242,0.33608 -0.26139,0.20912 -0.44064,0.50786 -0.17924,0.29127 -0.26886,0.63482 -0.0598,0.21659 -0.17925,0.31368 -0.11949,0.0971 -0.30621,0.0971 -0.0373,0 -0.0822,0 -0.0373,-0.007 -0.0896,-0.0149 l -0.69457,-0.1195 q 0.10456,-0.73191 0.4033,-1.29205 0.29874,-0.5676 0.75432,-0.9485 0.46304,-0.38089 1.05305,-0.57507 0.59748,-0.20165 1.28459,-0.20165 z"
           id="path2738" />
        <path
           d="m 253.74566,415.94955 q 0,1.40408 -0.30621,2.43473 -0.29874,1.02319 -0.82154,1.69535 -0.52279,0.67217 -1.23977,1.00078 -0.70951,0.32861 -1.52357,0.32861 -0.82154,0 -1.53105,-0.32861 -0.70204,-0.32861 -1.22483,-1.00078 -0.5228,-0.67216 -0.82154,-1.69535 -0.29874,-1.03065 -0.29874,-2.43473 0,-1.40408 0.29874,-2.43473 0.29874,-1.03065 0.82154,-1.70282 0.52279,-0.67963 1.22483,-1.00825 0.70951,-0.32861 1.53105,-0.32861 0.81406,0 1.52357,0.32861 0.71698,0.32862 1.23977,1.00825 0.5228,0.67217 0.82154,1.70282 0.30621,1.03065 0.30621,2.43473 z m -1.38168,0 q 0,-1.22483 -0.20912,-2.05384 -0.20164,-0.83647 -0.55266,-1.34433 -0.34356,-0.50785 -0.79913,-0.72444 -0.45558,-0.22406 -0.9485,-0.22406 -0.49292,0 -0.9485,0.22406 -0.45558,0.21659 -0.79913,0.72444 -0.34355,0.50786 -0.55267,1.34433 -0.20165,0.82901 -0.20165,2.05384 0,1.22483 0.20165,2.05384 0.20912,0.829 0.55267,1.33686 0.34355,0.50786 0.79913,0.73191 0.45558,0.21659 0.9485,0.21659 0.49292,0 0.9485,-0.21659 0.45557,-0.22405 0.79913,-0.73191 0.35102,-0.50786 0.55266,-1.33686 0.20912,-0.82901 0.20912,-2.05384 z"
           id="path2740" />
        <path
           d="m 254.71656,412.87253 q 0,-0.50039 0.18671,-0.94103 0.18671,-0.44064 0.51533,-0.76179 0.32861,-0.32861 0.76925,-0.51533 0.44811,-0.18671 0.96344,-0.18671 0.51533,0 0.95597,0.18671 0.44811,0.18672 0.77672,0.51533 0.32862,0.32115 0.51533,0.76179 0.18671,0.44064 0.18671,0.94103 0,0.49292 -0.18671,0.93356 -0.18671,0.43317 -0.51533,0.76179 -0.32861,0.32114 -0.77672,0.51532 -0.44064,0.18672 -0.95597,0.18672 -0.51533,0 -0.96344,-0.18672 -0.44064,-0.19418 -0.76925,-0.51532 -0.32862,-0.32862 -0.51533,-0.76179 -0.18671,-0.44064 -0.18671,-0.93356 z m 0.9485,0.007 q 0,0.31367 0.11203,0.59001 0.11202,0.26886 0.31367,0.47051 0.20165,0.20165 0.47052,0.32115 0.27633,0.11203 0.59001,0.11203 0.31368,0 0.58254,-0.11203 0.26887,-0.1195 0.47052,-0.32115 0.20165,-0.20165 0.31368,-0.47051 0.11202,-0.27634 0.11202,-0.59001 0,-0.31368 -0.11202,-0.59001 -0.11203,-0.27634 -0.31368,-0.47799 -0.20165,-0.20912 -0.47052,-0.32114 -0.26886,-0.1195 -0.58254,-0.1195 -0.31368,0 -0.59001,0.1195 -0.26887,0.11202 -0.47052,0.32114 -0.20165,0.20165 -0.31367,0.47799 -0.11203,0.27633 -0.11203,0.59001 z"
           id="path2742" />
      </g>
      <g
         aria-label=" 60°"
         transform="matrix(0.28341,0,0,0.28341,41.92,55.913)"
         id="text498">
        <path
           d="m 413.03437,243.44266 q 0.6423,0 1.21737,0.21658 0.57507,0.20912 1.00825,0.61989 0.43317,0.4033 0.6871,1.00078 0.25393,0.59001 0.25393,1.3518 0,0.73938 -0.26887,1.3742 -0.26886,0.63482 -0.75432,1.10534 -0.47798,0.47051 -1.15761,0.73938 -0.67964,0.26887 -1.4937,0.26887 -0.8066,0 -1.46383,-0.25393 -0.64976,-0.2614 -1.11281,-0.73192 -0.46304,-0.47798 -0.71697,-1.15015 -0.24646,-0.67963 -0.24646,-1.5161 0,-0.70204 0.31367,-1.4937 0.31368,-0.79166 0.99332,-1.70282 l 2.71106,-3.6521 q 0.10456,-0.13443 0.29127,-0.22405 0.18671,-0.0971 0.42571,-0.0971 h 1.18002 l -3.71184,4.69769 q 0.38089,-0.2614 0.84394,-0.4033 0.46304,-0.14937 1.00077,-0.14937 z m -2.76334,3.25626 q 0,0.51533 0.14937,0.94103 0.14937,0.42571 0.43317,0.73192 0.29127,0.30621 0.70204,0.47798 0.41824,0.16431 0.9485,0.16431 0.53773,0 0.97091,-0.17178 0.43317,-0.17177 0.73938,-0.47798 0.31367,-0.30621 0.47798,-0.72445 0.17178,-0.41823 0.17178,-0.91115 0,-0.5228 -0.16431,-0.94103 -0.16431,-0.42571 -0.46305,-0.71698 -0.29874,-0.29874 -0.71697,-0.45558 -0.41824,-0.15684 -0.91863,-0.15684 -0.53773,0 -0.9709,0.18672 -0.43318,0.17924 -0.73938,0.49292 -0.29874,0.3062 -0.46305,0.71697 -0.15684,0.4033 -0.15684,0.84394 z"
           id="path2745" />
        <path
           d="m 425.05866,244.65255 q 0,1.40408 -0.30621,2.43473 -0.29874,1.02319 -0.82153,1.69535 -0.5228,0.67217 -1.23978,1.00078 -0.7095,0.32862 -1.52357,0.32862 -0.82153,0 -1.53104,-0.32862 -0.70204,-0.32861 -1.22484,-1.00078 -0.52279,-0.67216 -0.82153,-1.69535 -0.29874,-1.03065 -0.29874,-2.43473 0,-1.40407 0.29874,-2.43473 0.29874,-1.03065 0.82153,-1.70282 0.5228,-0.67963 1.22484,-1.00824 0.70951,-0.32862 1.53104,-0.32862 0.81407,0 1.52357,0.32862 0.71698,0.32861 1.23978,1.00824 0.52279,0.67217 0.82153,1.70282 0.30621,1.03066 0.30621,2.43473 z m -1.38167,0 q 0,-1.22483 -0.20912,-2.05383 -0.20165,-0.83648 -0.55267,-1.34433 -0.34355,-0.50786 -0.79913,-0.72445 -0.45558,-0.22405 -0.9485,-0.22405 -0.49292,0 -0.9485,0.22405 -0.45558,0.21659 -0.79913,0.72445 -0.34355,0.50785 -0.55267,1.34433 -0.20165,0.829 -0.20165,2.05383 0,1.22484 0.20165,2.05384 0.20912,0.829 0.55267,1.33686 0.34355,0.50786 0.79913,0.73192 0.45558,0.21658 0.9485,0.21658 0.49292,0 0.9485,-0.21658 0.45558,-0.22406 0.79913,-0.73192 0.35102,-0.50786 0.55267,-1.33686 0.20912,-0.829 0.20912,-2.05384 z"
           id="path2747" />
        <path
           d="m 426.02956,241.57553 q 0,-0.50039 0.18671,-0.94103 0.18672,-0.44064 0.51533,-0.76179 0.32862,-0.32861 0.76926,-0.51532 0.44811,-0.18672 0.96343,-0.18672 0.51533,0 0.95597,0.18672 0.44811,0.18671 0.77673,0.51532 0.32861,0.32115 0.51532,0.76179 0.18671,0.44064 0.18671,0.94103 0,0.49292 -0.18671,0.93356 -0.18671,0.43318 -0.51532,0.76179 -0.32862,0.32115 -0.77673,0.51533 -0.44064,0.18671 -0.95597,0.18671 -0.51532,0 -0.96343,-0.18671 -0.44064,-0.19418 -0.76926,-0.51533 -0.32861,-0.32861 -0.51533,-0.76179 -0.18671,-0.44064 -0.18671,-0.93356 z m 0.9485,0.007 q 0,0.31368 0.11203,0.59001 0.11203,0.26887 0.31368,0.47052 0.20165,0.20165 0.47051,0.32114 0.27634,0.11203 0.59001,0.11203 0.31368,0 0.58255,-0.11203 0.26886,-0.11949 0.47051,-0.32114 0.20165,-0.20165 0.31368,-0.47052 0.11203,-0.27633 0.11203,-0.59001 0,-0.31368 -0.11203,-0.59001 -0.11203,-0.27634 -0.31368,-0.47799 -0.20165,-0.20911 -0.47051,-0.32114 -0.26887,-0.1195 -0.58255,-0.1195 -0.31367,0 -0.59001,0.1195 -0.26886,0.11203 -0.47051,0.32114 -0.20165,0.20165 -0.31368,0.47799 -0.11203,0.27633 -0.11203,0.59001 z"
           id="path2749" />
      </g>
      <g
         aria-label="30° "
         transform="matrix(0.28341,0,0,0.28341,85.908,81.449)"
         id="text500">
        <path
           d="m -256.35354,410.47514 q 0.67963,0 1.25471,0.19418 0.57507,0.19418 0.98584,0.55267 0.41824,0.35849 0.64976,0.86635 0.23152,0.50785 0.23152,1.12774 0,0.50786 -0.13443,0.91116 -0.12696,0.39583 -0.37342,0.70204 -0.239,0.29874 -0.58255,0.50785 -0.34355,0.20912 -0.76925,0.33609 1.04559,0.27633 1.56838,0.92609 0.53027,0.64976 0.53027,1.62813 0,0.73939 -0.28381,1.3294 -0.27633,0.59001 -0.76178,1.00824 -0.48546,0.41077 -1.13522,0.63483 -0.64229,0.21658 -1.38167,0.21658 -0.85141,0 -1.45636,-0.20911 -0.60494,-0.21659 -1.02318,-0.59002 -0.41824,-0.37342 -0.6871,-0.88128 -0.26887,-0.51533 -0.45558,-1.11281 l 0.56761,-0.23899 q 0.15683,-0.0672 0.31367,-0.0672 0.14937,0 0.2614,0.0672 0.1195,0.0598 0.17924,0.19418 0.0149,0.0299 0.0299,0.0672 0.0149,0.0299 0.0299,0.0672 0.10456,0.21658 0.25393,0.49292 0.14937,0.26886 0.4033,0.50786 0.25393,0.23899 0.62735,0.40329 0.3809,0.16431 0.94103,0.16431 0.56014,0 0.97838,-0.17924 0.4257,-0.18672 0.70204,-0.47799 0.2838,-0.29127 0.4257,-0.64976 0.1419,-0.35848 0.1419,-0.7095 0,-0.43318 -0.11949,-0.79167 -0.11203,-0.35848 -0.41824,-0.61988 -0.29874,-0.2614 -0.83647,-0.41077 -0.53026,-0.14937 -1.36674,-0.14937 v -0.96343 q 0.67964,-0.007 1.15762,-0.14937 0.48545,-0.14191 0.79166,-0.38837 0.30621,-0.24646 0.44064,-0.59001 0.14191,-0.34355 0.14191,-0.76179 0,-0.46304 -0.14937,-0.80659 -0.14191,-0.34355 -0.39584,-0.56761 -0.25392,-0.22405 -0.60494,-0.33608 -0.34355,-0.11203 -0.74685,-0.11203 -0.4033,0 -0.74685,0.1195 -0.34355,0.11949 -0.61242,0.33608 -0.2614,0.20912 -0.44064,0.50786 -0.17925,0.29127 -0.26887,0.63482 -0.0598,0.21659 -0.17924,0.31368 -0.1195,0.0971 -0.30621,0.0971 -0.0373,0 -0.0822,0 -0.0374,-0.007 -0.0896,-0.0149 l -0.69457,-0.1195 q 0.10456,-0.73191 0.4033,-1.29205 0.29874,-0.5676 0.75432,-0.9485 0.46305,-0.38089 1.05306,-0.57507 0.59748,-0.20165 1.28458,-0.20165 z"
           id="path2752" />
        <path
           d="m -244.1052,415.94955 q 0,1.40408 -0.30621,2.43473 -0.29874,1.02319 -0.82153,1.69535 -0.5228,0.67217 -1.23977,1.00078 -0.70951,0.32861 -1.52358,0.32861 -0.82153,0 -1.53104,-0.32861 -0.70204,-0.32861 -1.22483,-1.00078 -0.5228,-0.67216 -0.82154,-1.69535 -0.29874,-1.03065 -0.29874,-2.43473 0,-1.40408 0.29874,-2.43473 0.29874,-1.03065 0.82154,-1.70282 0.52279,-0.67963 1.22483,-1.00825 0.70951,-0.32861 1.53104,-0.32861 0.81407,0 1.52358,0.32861 0.71697,0.32862 1.23977,1.00825 0.52279,0.67217 0.82153,1.70282 0.30621,1.03065 0.30621,2.43473 z m -1.38167,0 q 0,-1.22483 -0.20912,-2.05384 -0.20165,-0.83647 -0.55267,-1.34433 -0.34355,-0.50785 -0.79913,-0.72444 -0.45558,-0.22406 -0.9485,-0.22406 -0.49292,0 -0.9485,0.22406 -0.45558,0.21659 -0.79913,0.72444 -0.34355,0.50786 -0.55267,1.34433 -0.20165,0.82901 -0.20165,2.05384 0,1.22483 0.20165,2.05384 0.20912,0.829 0.55267,1.33686 0.34355,0.50786 0.79913,0.73191 0.45558,0.21659 0.9485,0.21659 0.49292,0 0.9485,-0.21659 0.45558,-0.22405 0.79913,-0.73191 0.35102,-0.50786 0.55267,-1.33686 0.20912,-0.82901 0.20912,-2.05384 z"
           id="path2754" />
        <path
           d="m -243.1343,412.87253 q 0,-0.50039 0.18672,-0.94103 0.18671,-0.44064 0.51532,-0.76179 0.32862,-0.32861 0.76926,-0.51533 0.44811,-0.18671 0.96343,-0.18671 0.51533,0 0.95597,0.18671 0.44811,0.18672 0.77673,0.51533 0.32861,0.32115 0.51532,0.76179 0.18672,0.44064 0.18672,0.94103 0,0.49292 -0.18672,0.93356 -0.18671,0.43317 -0.51532,0.76179 -0.32862,0.32114 -0.77673,0.51532 -0.44064,0.18672 -0.95597,0.18672 -0.51532,0 -0.96343,-0.18672 -0.44064,-0.19418 -0.76926,-0.51532 -0.32861,-0.32862 -0.51532,-0.76179 -0.18672,-0.44064 -0.18672,-0.93356 z m 0.9485,0.007 q 0,0.31367 0.11203,0.59001 0.11203,0.26886 0.31368,0.47051 0.20165,0.20165 0.47051,0.32115 0.27634,0.11203 0.59001,0.11203 0.31368,0 0.58255,-0.11203 0.26886,-0.1195 0.47051,-0.32115 0.20165,-0.20165 0.31368,-0.47051 0.11203,-0.27634 0.11203,-0.59001 0,-0.31368 -0.11203,-0.59001 -0.11203,-0.27634 -0.31368,-0.47799 -0.20165,-0.20912 -0.47051,-0.32114 -0.26887,-0.1195 -0.58255,-0.1195 -0.31367,0 -0.59001,0.1195 -0.26886,0.11202 -0.47051,0.32114 -0.20165,0.20165 -0.31368,0.47799 -0.11203,0.27633 -0.11203,0.59001 z"
           id="path2756" />
      </g>
      <g
         aria-label="60° "
         transform="matrix(0.28341,0,0,0.28341,127.58,55.913)"
         id="text502">
        <path
           d="m -427.44247,243.44266 q 0.64229,0 1.21736,0.21658 0.57508,0.20912 1.00825,0.61989 0.43317,0.4033 0.6871,1.00078 0.25393,0.59001 0.25393,1.3518 0,0.73938 -0.26886,1.3742 -0.26887,0.63482 -0.75432,1.10534 -0.47799,0.47051 -1.15762,0.73938 -0.67963,0.26887 -1.4937,0.26887 -0.8066,0 -1.46383,-0.25393 -0.64976,-0.2614 -1.1128,-0.73192 -0.46305,-0.47798 -0.71698,-1.15015 -0.24646,-0.67963 -0.24646,-1.5161 0,-0.70204 0.31368,-1.4937 0.31367,-0.79166 0.99331,-1.70282 l 2.71106,-3.6521 q 0.10456,-0.13443 0.29128,-0.22405 0.18671,-0.0971 0.4257,-0.0971 h 1.18002 l -3.71184,4.69769 q 0.38089,-0.2614 0.84394,-0.4033 0.46305,-0.14937 1.00078,-0.14937 z m -2.76335,3.25626 q 0,0.51533 0.14937,0.94103 0.14937,0.42571 0.43318,0.73192 0.29127,0.30621 0.70203,0.47798 0.41824,0.16431 0.9485,0.16431 0.53774,0 0.97091,-0.17178 0.43317,-0.17177 0.73938,-0.47798 0.31368,-0.30621 0.47799,-0.72445 0.17177,-0.41823 0.17177,-0.91115 0,-0.5228 -0.16431,-0.94103 -0.1643,-0.42571 -0.46304,-0.71698 -0.29874,-0.29874 -0.71698,-0.45558 -0.41824,-0.15684 -0.91862,-0.15684 -0.53774,0 -0.97091,0.18672 -0.43317,0.17924 -0.73938,0.49292 -0.29874,0.3062 -0.46305,0.71697 -0.15684,0.4033 -0.15684,0.84394 z"
           id="path2759" />
        <path
           d="m -415.41819,244.65255 q 0,1.40408 -0.30621,2.43473 -0.29874,1.02319 -0.82153,1.69535 -0.5228,0.67217 -1.23977,1.00078 -0.70951,0.32862 -1.52358,0.32862 -0.82153,0 -1.53104,-0.32862 -0.70204,-0.32861 -1.22483,-1.00078 -0.5228,-0.67216 -0.82154,-1.69535 -0.29874,-1.03065 -0.29874,-2.43473 0,-1.40407 0.29874,-2.43473 0.29874,-1.03065 0.82154,-1.70282 0.52279,-0.67963 1.22483,-1.00824 0.70951,-0.32862 1.53104,-0.32862 0.81407,0 1.52358,0.32862 0.71697,0.32861 1.23977,1.00824 0.52279,0.67217 0.82153,1.70282 0.30621,1.03066 0.30621,2.43473 z m -1.38167,0 q 0,-1.22483 -0.20912,-2.05383 -0.20165,-0.83648 -0.55267,-1.34433 -0.34355,-0.50786 -0.79913,-0.72445 -0.45558,-0.22405 -0.9485,-0.22405 -0.49292,0 -0.9485,0.22405 -0.45557,0.21659 -0.79913,0.72445 -0.34355,0.50785 -0.55266,1.34433 -0.20165,0.829 -0.20165,2.05383 0,1.22484 0.20165,2.05384 0.20911,0.829 0.55266,1.33686 0.34356,0.50786 0.79913,0.73192 0.45558,0.21658 0.9485,0.21658 0.49292,0 0.9485,-0.21658 0.45558,-0.22406 0.79913,-0.73192 0.35102,-0.50786 0.55267,-1.33686 0.20912,-0.829 0.20912,-2.05384 z"
           id="path2761" />
        <path
           d="m -414.44728,241.57553 q 0,-0.50039 0.18671,-0.94103 0.18671,-0.44064 0.51532,-0.76179 0.32862,-0.32861 0.76926,-0.51532 0.44811,-0.18672 0.96344,-0.18672 0.51532,0 0.95596,0.18672 0.44811,0.18671 0.77673,0.51532 0.32861,0.32115 0.51533,0.76179 0.18671,0.44064 0.18671,0.94103 0,0.49292 -0.18671,0.93356 -0.18672,0.43318 -0.51533,0.76179 -0.32862,0.32115 -0.77673,0.51533 -0.44064,0.18671 -0.95596,0.18671 -0.51533,0 -0.96344,-0.18671 -0.44064,-0.19418 -0.76926,-0.51533 -0.32861,-0.32861 -0.51532,-0.76179 -0.18671,-0.44064 -0.18671,-0.93356 z m 0.9485,0.007 q 0,0.31368 0.11202,0.59001 0.11203,0.26887 0.31368,0.47052 0.20165,0.20165 0.47052,0.32114 0.27633,0.11203 0.59001,0.11203 0.31367,0 0.58254,-0.11203 0.26887,-0.11949 0.47052,-0.32114 0.20164,-0.20165 0.31367,-0.47052 0.11203,-0.27633 0.11203,-0.59001 0,-0.31368 -0.11203,-0.59001 -0.11203,-0.27634 -0.31367,-0.47799 -0.20165,-0.20911 -0.47052,-0.32114 -0.26887,-0.1195 -0.58254,-0.1195 -0.31368,0 -0.59001,0.1195 -0.26887,0.11203 -0.47052,0.32114 -0.20165,0.20165 -0.31368,0.47799 -0.11202,0.27633 -0.11202,0.59001 z"
           id="path2763" />
      </g>
    </g>
    <g
       aria-label="0º"
       transform="matrix(0.28319,0,0,0.28319,-50.867,217.57)"
       id="text506"
       style="font-size:14.948px;stroke-width:1.6">
      <path
         d="m 480.2214,1.148616 q 0,1.405112 -0.30643,2.436524 -0.29896,1.023938 -0.82214,1.696598 -0.52318,0.67266 -1.24069,1.001516 -0.71003,0.328856 -1.52469,0.328856 -0.82214,0 -1.53217,-0.328856 -0.70256,-0.328856 -1.22574,-1.001516 -0.52318,-0.67266 -0.82214,-1.696598 -0.29896,-1.031412 -0.29896,-2.436524 0,-1.40511198 0.29896,-2.436524 0.29896,-1.031412 0.82214,-1.704072 0.52318,-0.680134 1.22574,-1.00899 0.71003,-0.328856 1.53217,-0.328856 0.81466,0 1.52469,0.328856 0.71751,0.328856 1.24069,1.00899 0.52318,0.67266 0.82214,1.704072 0.30643,1.03141202 0.30643,2.436524 z m -1.38269,0 q 0,-1.22573598 -0.20927,-2.05534998 -0.2018,-0.83708802 -0.55308,-1.34532002 -0.3438,-0.508232 -0.79972,-0.724978 -0.45591,-0.22422 -0.94919,-0.22422 -0.49329,0 -0.9492,0.22422 -0.45592,0.216746 -0.79972,0.724978 -0.3438,0.508232 -0.55308,1.34532002 -0.20179,0.829614 -0.20179,2.05534998 0,1.225736 0.20179,2.05535 0.20928,0.829614 0.55308,1.337846 0.3438,0.508232 0.79972,0.732452 0.45591,0.216746 0.9492,0.216746 0.49328,0 0.94919,-0.216746 0.45592,-0.22422 0.79972,-0.732452 0.35128,-0.508232 0.55308,-1.337846 0.20927,-0.829614 0.20927,-2.05535 z"
         id="path2706" />
      <path
         d="m 483.52491,-4.329826 q 0.52318,0 0.94172,0.164428 0.42602,0.156954 0.72498,0.455914 0.29896,0.29896 0.46339,0.732452 0.16442,0.426018 0.16442,0.956672 0,0.538128 -0.16442,0.97162 -0.16443,0.43349202 -0.46339,0.73992602 -0.29896,0.29896 -0.72498,0.463388 -0.41854,0.156954 -0.94172,0.156954 -0.53066,0 -0.95668,-0.156954 -0.42601,-0.164428 -0.73245,-0.463388 -0.29896,-0.306434 -0.46339,-0.73992602 -0.16442,-0.433492 -0.16442,-0.97162 0,-0.530654 0.16442,-0.956672 0.16443,-0.433492 0.46339,-0.732452 0.30644,-0.29896 0.73245,-0.455914 0.42602,-0.164428 0.95668,-0.164428 z m 0,3.84911002 q 0.62781,0 0.93425,-0.388648 0.3139,-0.39612202 0.3139,-1.14352202 0,-0.7474 -0.3139,-1.136048 -0.30644,-0.388648 -0.93425,-0.388648 -0.65024,0 -0.96415,0.388648 -0.30643,0.388648 -0.30643,1.136048 0,0.7474 0.30643,1.14352202 0.31391,0.388648 0.96415,0.388648 z"
         id="path2708" />
    </g>
    <g
       aria-label="cd.klm"
       transform="matrix(0.28319,0,0,0.28319,-54.958,222.31)"
       id="text508"
       style="font-size:14.948px;stroke-width:1.6">
      <path
         d="m 478.25574,0.27415802 q -0.0598,0.082214 -0.11959,0.127058 -0.0598,0.044844 -0.1719,0.044844 -0.11211,0 -0.24664,-0.089688 -0.12706,-0.097162 -0.32886,-0.209272 -0.20179,-0.11211 -0.49328,-0.201798 -0.28401,-0.097162 -0.70256,-0.097162 -0.55307,0 -0.97909,0.201798 -0.42602,0.194324 -0.7175,0.568024 -0.28402,0.3737 -0.4335,0.90435398 -0.142,0.530654 -0.142,1.188366 0,0.687608 0.15695,1.225736 0.15696,0.530654 0.44097,0.89688 0.28401,0.358752 0.68761,0.553076 0.41107,0.18685 0.9193,0.18685 0.48581,0 0.79972,-0.11211 0.3139,-0.119584 0.52318,-0.26159 0.20927,-0.142006 0.3438,-0.254116 0.13453,-0.119584 0.26906,-0.119584 0.17191,0 0.25412,0.127058 l 0.3737,0.48581 q -0.49328,0.605394 -1.23321,0.889406 -0.73993,0.276538 -1.56207,0.276538 -0.71003,0 -1.32289,-0.26159 -0.6054,-0.26159 -1.05384,-0.754874 -0.44844,-0.500758 -0.71003,-1.225736 -0.25411,-0.724978 -0.25411,-1.651754 0,-0.844562 0.23169,-1.562066 0.23917,-0.71750398 0.68761,-1.23320998 0.45591,-0.52318 1.1211,-0.814666 0.66518,-0.29148602 1.52469,-0.29148602 0.79225,0 1.40512,0.26159002 0.61286,0.254116 1.08373,0.724978 z"
         id="path2711" />
      <path
         d="m 485.4009,6.5 q -0.28402,0 -0.35876,-0.276538 L 484.92256,5.30416 q -0.48581,0.590446 -1.11363,0.949198 -0.62034,0.351278 -1.42753,0.351278 -0.65024,0 -1.18089,-0.246642 -0.53066,-0.254116 -0.90436,-0.739926 -0.3737,-0.48581 -0.57549,-1.210788 -0.2018,-0.724978 -0.2018,-1.666702 0,-0.837088 0.22422,-1.554592 0.22422,-0.72497798 0.64276,-1.25563198 0.42602,-0.530654 1.03141,-0.829614 0.6054,-0.30643402 1.37522,-0.30643402 0.69508,0 1.18837,0.23916802 0.49328,0.231694 0.88193,0.657712 V -4.509202 h 1.33037 V 6.5 Z m -2.57853,-0.97162 q 0.65023,0 1.13604,-0.29896 0.49329,-0.29896 0.90436,-0.844562 V 0.72259802 q -0.36623,-0.493284 -0.80719,-0.687608 -0.4335,-0.201798 -0.96415,-0.201798 -1.06131,0 -1.62933,0.754874 -0.56803,0.75487398 -0.56803,2.15251198 0,0.739926 0.12706,1.27058 0.12706,0.52318 0.3737,0.866984 0.24664,0.33633 0.6054,0.493284 0.35875,0.156954 0.82214,0.156954 z"
         id="path2713" />
      <path
         d="m 487.99437,5.67786 q 0,-0.194324 0.0673,-0.366226 0.0747,-0.171902 0.19432,-0.29896 0.12706,-0.127058 0.29896,-0.201798 0.17191,-0.07474 0.36623,-0.07474 0.19432,0 0.36623,0.07474 0.1719,0.07474 0.29896,0.201798 0.12705,0.127058 0.19432,0.29896 0.0747,0.171902 0.0747,0.366226 0,0.201798 -0.0747,0.3737 -0.0673,0.164428 -0.19432,0.291486 -0.12706,0.127058 -0.29896,0.194324 -0.17191,0.07474 -0.36623,0.07474 -0.19432,0 -0.36623,-0.07474 -0.1719,-0.067266 -0.29896,-0.194324 -0.11958,-0.127058 -0.19432,-0.291486 -0.0673,-0.171902 -0.0673,-0.3737 z"
         id="path2715" />
      <path
         d="m 492.97953,-4.509202 v 6.479958 h 0.34381 q 0.14948,0 0.24664,-0.03737 0.0972,-0.044844 0.21674,-0.171902 l 2.39168,-2.56358198 q 0.11211,-0.119584 0.22422,-0.194324 0.11211,-0.07474 0.29896,-0.07474 h 1.21079 l -2.7878,2.967178 q -0.10464,0.127058 -0.20927,0.22422 -0.0972,0.097162 -0.22422,0.171902 0.13453,0.089688 0.23917,0.209272 0.11211,0.11211 0.20927,0.26159 l 2.9597,3.737 h -1.19584 q -0.16443,0 -0.28401,-0.059792 -0.11211,-0.067266 -0.21675,-0.201798 L 493.91378,3.1367 q -0.11211,-0.156954 -0.22422,-0.201798 -0.11211,-0.052318 -0.33633,-0.052318 h -0.3737 V 6.5 h -1.33784 V -4.509202 Z"
         id="path2717" />
      <path
         d="M 500.90945,-4.509202 V 6.5 h -1.33037 V -4.509202 Z"
         id="path2719" />
      <path
         d="m 503.25629,6.5 v -7.571162 h 0.79224 q 0.28402,0 0.35876,0.27653802 l 0.0972,0.777296 q 0.41854,-0.515706 0.93425,-0.844562 0.52318,-0.32885602 1.21079,-0.32885602 0.76982,0 1.24068,0.42601802 0.47834,0.426018 0.68761,1.150996 0.15695,-0.41107 0.41107,-0.71003 0.26159,-0.29896 0.58297,-0.493284 0.32138,-0.19432402 0.68013,-0.28401202 0.36623,-0.089688 0.73993,-0.089688 0.59792,0 1.06131,0.19432402 0.47086,0.18685 0.79224,0.553076 0.32886,0.366226 0.50076,0.904354 0.1719,0.530654 0.1719,1.21826198 V 6.5 h -1.33037 V 1.67927 q 0,-0.88940598 -0.38865,-1.34531998 -0.38865,-0.463388 -1.12857,-0.463388 -0.32886,0 -0.62782,0.119584 -0.29148,0.11211 -0.5157,0.33633 -0.22422,0.22422 -0.35876,0.568024 Q 509.04117,1.23083 509.04117,1.67927 V 6.5 h -1.33038 V 1.67927 q 0,-0.91182798 -0.36622,-1.36026798 -0.36623,-0.44844 -1.06878,-0.44844 -0.49329,0 -0.91931,0.269064 -0.41854,0.26159 -0.76982,0.717504 V 6.5 Z"
         id="path2721" />
    </g>
  </g>
  <g
     transform="matrix(0.36334,0,0,0.36334,66.068887,-101.80703)"
     fill="none"
     fill-rule="evenodd"
     font-family="Lato"
     stroke="#000000"
     stroke-linecap="square"
     stroke-linejoin="bevel"
     stroke-width="0.91678"
     id="g526">
    <g
       stroke-linejoin="round"
       id="g522">
      <g
         transform="matrix(0.72337,0,0,0.72337,-166.61,669.22)"
         fill="#fcff5c"
         fill-opacity="0.68235"
         font-size="16px"
         font-weight="400"
         stroke="#fcff5c"
         stroke-linecap="round"
         stroke-width="1.8336"
         id="g514">
        <rect
           y="6.5"
           width="11.2"
           height="15.2"
           stroke-width="1.8336"
           id="rect512"
           x="0" />
      </g>
      <g
         aria-label="C0-C180"
         transform="matrix(0.72337,0,0,0.72337,-166.61,667.7)"
         id="text516"
         style="font-size:17.569px;fill:#848484;stroke:none;stroke-linecap:butt">
        <path
           d="m 26.400848,19.899788 q 0.140552,0 0.254751,0.114198 l 0.667622,0.729114 q -0.773036,0.896019 -1.879883,1.396735 -1.098063,0.500717 -2.652919,0.500717 -1.361598,0 -2.468445,-0.465579 -1.106847,-0.474363 -1.888667,-1.317675 -0.781821,-0.852096 -1.212261,-2.038004 -0.430441,-1.185907 -0.430441,-2.608996 0,-1.423089 0.456794,-2.608997 0.465579,-1.185907 1.300106,-2.038004 0.834528,-0.852096 1.994082,-1.317675 1.168338,-0.4743627 2.573858,-0.4743627 1.387951,0 2.389384,0.4304407 1.010218,0.43044 1.792038,1.168338 l -0.553423,0.781821 q -0.06149,0.08784 -0.140552,0.149336 -0.07906,0.05271 -0.228397,0.05271 -0.114199,0 -0.245966,-0.07906 -0.122983,-0.08784 -0.298673,-0.210828 -0.17569,-0.122983 -0.412872,-0.263535 -0.237181,-0.140552 -0.562208,-0.263535 -0.325026,-0.122983 -0.755467,-0.202044 -0.43044,-0.08784 -0.992648,-0.08784 -1.010218,0 -1.85353,0.35138 -0.834527,0.342596 -1.440658,0.983864 -0.60613,0.641269 -0.948726,1.563641 -0.333811,0.922373 -0.333811,2.064358 0,1.177123 0.333811,2.099495 0.342596,0.922373 0.922373,1.563641 0.588561,0.632484 1.387951,0.966295 0.799389,0.333811 1.721762,0.333811 0.562208,0 1.010217,-0.06149 0.44801,-0.07028 0.825743,-0.210828 0.386518,-0.140552 0.711545,-0.35138 0.333811,-0.219613 0.667622,-0.518286 0.149336,-0.131767 0.289888,-0.131767 z"
           id="path2691" />
        <path
           d="m 37.697706,16.210298 q 0,1.651486 -0.360165,2.863747 -0.35138,1.203476 -0.966295,1.994081 -0.614915,0.790605 -1.458227,1.177123 -0.834527,0.386519 -1.792038,0.386519 -0.966295,0 -1.800822,-0.386519 -0.825743,-0.386518 -1.440658,-1.177123 -0.614915,-0.790605 -0.966295,-1.994081 -0.35138,-1.212261 -0.35138,-2.863747 0,-1.651486 0.35138,-2.863747 0.35138,-1.212261 0.966295,-2.002866 0.614915,-0.79939 1.440658,-1.185908 0.834527,-0.3865177 1.800822,-0.3865177 0.957511,0 1.792038,0.3865177 0.843312,0.386518 1.458227,1.185908 0.614915,0.790605 0.966295,2.002866 0.360165,1.212261 0.360165,2.863747 z m -1.625133,0 q 0,-1.440658 -0.245966,-2.415738 -0.237181,-0.983864 -0.650053,-1.58121 -0.404087,-0.597346 -0.939941,-0.852096 -0.535855,-0.263535 -1.115632,-0.263535 -0.579777,0 -1.115631,0.263535 -0.535855,0.25475 -0.939942,0.852096 -0.404087,0.597346 -0.650053,1.58121 -0.237181,0.97508 -0.237181,2.415738 0,1.440658 0.237181,2.415737 0.245966,0.97508 0.650053,1.572426 0.404087,0.597346 0.939942,0.860881 0.535854,0.25475 1.115631,0.25475 0.579777,0 1.115632,-0.25475 0.535854,-0.263535 0.939941,-0.860881 0.412872,-0.597346 0.650053,-1.572426 0.245966,-0.975079 0.245966,-2.415737 z"
           id="path2693" />
        <path
           d="m 39.103223,16.570462 h 4.339543 v 1.32646 h -4.339543 z"
           id="path2695" />
        <path
           d="m 54.722069,19.899788 q 0.140552,0 0.25475,0.114198 l 0.667622,0.729114 q -0.773036,0.896019 -1.879883,1.396735 -1.098062,0.500717 -2.652919,0.500717 -1.361598,0 -2.468445,-0.465579 -1.106847,-0.474363 -1.888667,-1.317675 -0.781821,-0.852096 -1.212261,-2.038004 -0.430441,-1.185907 -0.430441,-2.608996 0,-1.423089 0.456794,-2.608997 0.465579,-1.185907 1.300106,-2.038004 0.834528,-0.852096 1.994082,-1.317675 1.168338,-0.4743627 2.573858,-0.4743627 1.387952,0 2.389385,0.4304407 1.010217,0.43044 1.792038,1.168338 l -0.553424,0.781821 q -0.06149,0.08784 -0.140552,0.149336 -0.07906,0.05271 -0.228397,0.05271 -0.114198,0 -0.245966,-0.07906 -0.122983,-0.08784 -0.298673,-0.210828 -0.17569,-0.122983 -0.412871,-0.263535 -0.237182,-0.140552 -0.562208,-0.263535 -0.325027,-0.122983 -0.755467,-0.202044 -0.430441,-0.08784 -0.992649,-0.08784 -1.010218,0 -1.85353,0.35138 -0.834527,0.342596 -1.440658,0.983864 -0.60613,0.641269 -0.948726,1.563641 -0.333811,0.922373 -0.333811,2.064358 0,1.177123 0.333811,2.099495 0.342596,0.922373 0.922373,1.563641 0.588561,0.632484 1.387951,0.966295 0.799389,0.333811 1.721762,0.333811 0.562208,0 1.010218,-0.06149 0.448009,-0.07028 0.825743,-0.210828 0.386518,-0.140552 0.711544,-0.35138 0.333811,-0.219613 0.667622,-0.518286 0.149337,-0.131767 0.289889,-0.131767 z"
           id="path2697" />
        <path
           d="m 58.877128,21.305308 h 2.705626 v -8.582457 q 0,-0.386518 0.02635,-0.78182 l -2.248832,1.923805 q -0.08785,0.07028 -0.17569,0.105414 -0.08785,0.02635 -0.166905,0.02635 -0.131768,0 -0.237182,-0.05271 -0.105414,-0.06149 -0.158121,-0.140552 l -0.491932,-0.676407 3.742197,-3.2414802 h 1.273753 V 21.305308 h 2.477229 V 22.5 h -6.746496 z"
           id="path2699" />
        <path
           d="m 71.632219,22.640552 q -0.939941,0 -1.721762,-0.245966 -0.78182,-0.254751 -1.344028,-0.720329 -0.562208,-0.465579 -0.869666,-1.124416 -0.307457,-0.667622 -0.307457,-1.493365 0,-1.212261 0.632484,-1.994082 0.632484,-0.790605 1.809607,-1.124416 -0.992649,-0.368949 -1.50215,-1.098062 -0.500716,-0.737898 -0.500716,-1.7569 0,-0.693976 0.272319,-1.300106 0.27232,-0.606131 0.773036,-1.05414 0.500717,-0.44801 1.194692,-0.70276 0.70276,-0.2547507 1.563641,-0.2547507 0.852097,0 1.554857,0.2547507 0.70276,0.25475 1.203476,0.70276 0.500717,0.448009 0.773036,1.05414 0.27232,0.60613 0.27232,1.300106 0,1.019002 -0.509501,1.7569 -0.509501,0.729113 -1.493365,1.098062 1.177123,0.333811 1.809607,1.124416 0.632484,0.781821 0.632484,1.994082 0,0.825743 -0.316242,1.493365 -0.307458,0.658837 -0.869666,1.124416 -0.553423,0.465578 -1.335244,0.720329 -0.78182,0.245966 -1.721762,0.245966 z m 0,-1.247399 q 0.614915,0 1.098063,-0.166906 0.491932,-0.17569 0.825743,-0.483147 0.342595,-0.316242 0.518285,-0.746683 0.184475,-0.439225 0.184475,-0.966295 0,-0.650053 -0.219613,-1.106847 Q 73.828344,17.457697 73.459395,17.167808 73.099231,16.87792 72.624868,16.746152 72.150505,16.6056 71.632219,16.6056 q -0.518285,0 -0.992648,0.140552 -0.474363,0.131768 -0.843312,0.421656 -0.360165,0.289889 -0.579777,0.755467 -0.210828,0.456794 -0.210828,1.106847 0,0.52707 0.17569,0.966295 0.184474,0.430441 0.518285,0.746683 0.342596,0.307457 0.825743,0.483147 0.491932,0.166906 1.106847,0.166906 z m 0,-6.043736 q 0.614915,0 1.045356,-0.184475 0.439225,-0.193259 0.711544,-0.500716 0.27232,-0.316242 0.395303,-0.720329 0.122983,-0.404087 0.122983,-0.834528 0,-0.439225 -0.149337,-0.825743 -0.140552,-0.386518 -0.43044,-0.676406 -0.281104,-0.289889 -0.711545,-0.456794 -0.421656,-0.166906 -0.983864,-0.166906 -0.562208,0 -0.992648,0.166906 -0.421656,0.166905 -0.711545,0.456794 -0.281104,0.289888 -0.43044,0.676406 -0.140552,0.386518 -0.140552,0.825743 0,0.430441 0.122983,0.834528 0.122983,0.404087 0.395302,0.720329 0.27232,0.307457 0.70276,0.500716 0.439225,0.184475 1.05414,0.184475 z"
           id="path2701" />
        <path
           d="m 86.398962,16.210298 q 0,1.651486 -0.360165,2.863747 -0.35138,1.203476 -0.966295,1.994081 -0.614915,0.790605 -1.458227,1.177123 -0.834527,0.386519 -1.792038,0.386519 -0.966295,0 -1.800822,-0.386519 -0.825743,-0.386518 -1.440658,-1.177123 -0.614915,-0.790605 -0.966295,-1.994081 -0.35138,-1.212261 -0.35138,-2.863747 0,-1.651486 0.35138,-2.863747 0.35138,-1.212261 0.966295,-2.002866 0.614915,-0.79939 1.440658,-1.185908 0.834527,-0.3865177 1.800822,-0.3865177 0.957511,0 1.792038,0.3865177 0.843312,0.386518 1.458227,1.185908 0.614915,0.790605 0.966295,2.002866 0.360165,1.212261 0.360165,2.863747 z m -1.625133,0 q 0,-1.440658 -0.245966,-2.415738 -0.237181,-0.983864 -0.650053,-1.58121 -0.404087,-0.597346 -0.939941,-0.852096 -0.535855,-0.263535 -1.115632,-0.263535 -0.579777,0 -1.115631,0.263535 -0.535855,0.25475 -0.939942,0.852096 -0.404087,0.597346 -0.650053,1.58121 -0.237181,0.97508 -0.237181,2.415738 0,1.440658 0.237181,2.415737 0.245966,0.97508 0.650053,1.572426 0.404087,0.597346 0.939942,0.860881 0.535854,0.25475 1.115631,0.25475 0.579777,0 1.115632,-0.25475 0.535854,-0.263535 0.939941,-0.860881 0.412872,-0.597346 0.650053,-1.572426 0.245966,-0.975079 0.245966,-2.415737 z"
           id="path2703" />
      </g>
    </g>
  </g>
  <g
     transform="translate(-5.28871,-7.9390259)"
     fill="none"
     stroke="#858585"
     id="g570">
    <path
       transform="matrix(0.52917,0,0,0.52917,-68.201,-25.683)"
       d="m 320.33,65.864 a 31.291,31.291 0 0 1 -15.646,27.099 31.291,31.291 0 0 1 -31.292,-10e-7 31.291,31.291 0 0 1 -15.646,-27.099"
       stroke-width="0.15"
       id="path528" />
    <path
       transform="matrix(1.0583,0,0,1.0576,-221.15,-60.49)"
       d="m 320.33,65.864 a 31.291,31.291 0 0 1 -15.646,27.099 31.291,31.291 0 0 1 -31.292,-10e-7 31.291,31.291 0 0 1 -15.646,-27.099"
       stroke-width="0.075027"
       id="path530" />
    <path
       transform="matrix(1.5875,0,0,1.5865,-374.1,-95.32)"
       d="m 320.33,65.864 a 31.291,31.291 0 0 1 -15.646,27.099 31.291,31.291 0 0 1 -31.292,-10e-7 31.291,31.291 0 0 1 -15.646,-27.099"
       stroke-width="0.050016"
       id="path532" />
    <path
       transform="matrix(2.1167,0,0,2.1153,-527.05,-130.15)"
       d="m 320.33,65.864 a 31.291,31.291 0 0 1 -15.646,27.099 31.291,31.291 0 0 1 -31.292,-10e-7 31.291,31.291 0 0 1 -15.646,-27.099"
       stroke-width="0.037512"
       id="path534" />
    <path
       transform="matrix(2.6458,0,0,2.6441,-680,-164.98)"
       d="m 316.1,81.579 c -2.6998,4.6487 -6.5966,8.6031 -11.414,11.384 -9.6817,5.59 -21.61,5.59 -31.292,-10e-7 -4.8457,-2.7976 -8.7602,-6.7827 -11.462,-11.467"
       stroke-width="0.03001"
       id="path536" />
    <path
       transform="matrix(3.1749,0,0,3.1729,-832.93,-199.8)"
       d="m 311.59,87.561 c -2.0089,2.088 -4.324,3.9131 -6.9028,5.4019 -9.6817,5.59 -21.61,5.59 -31.292,-1e-6 -2.5964,-1.499 -4.9254,-3.3389 -6.9438,-5.4447"
       stroke-width="0.025009"
       id="path538" />
    <path
       transform="matrix(3.7041,0,0,3.7017,-985.9,-234.64)"
       d="m 308.37,90.473 c -1.1574,0.90884 -2.3869,1.7421 -3.683,2.4903 -9.6817,5.59 -21.61,5.59 -31.292,-10e-7 -1.3089,-0.75568 -2.5499,-1.598 -3.7174,-2.5174"
       stroke-width="0.021436"
       id="path540" />
    <path
       transform="matrix(4.2243,0,0,4.2215,-1136.5,-268.87)"
       d="m 306.04,92.132 c -0.44425,0.28747 -0.89718,0.5646 -1.3586,0.83096 -9.6817,5.59 -21.61,5.59 -31.292,-10e-7 -0.43229,-0.24957 -0.85718,-0.5086 -1.2744,-0.77673"
       stroke-width="0.018796"
       id="path542" />
    <path
       transform="matrix(0.26469,0,0,0.26469,-0.036694,-0.031725)"
       d="m 320.33,34.764 v 499.07"
       stroke-width="0.29988"
       id="path544" />
    <path
       transform="matrix(0,0.29371,-0.29371,0,168.21,-84.937)"
       d="m 320.33,40.455 v 487.98"
       stroke-width="0.27025"
       id="path546" />
    <g
       stroke-width="0.29988"
       id="g568">
      <path
         transform="matrix(0.26469,0,0,0.26469,-0.036694,-0.031725)"
         d="m 320.33,34.764 129.11,481.86"
         id="path548" />
      <path
         transform="matrix(0.26469,0,0,0.26469,-0.036694,-0.031725)"
         d="m 320.33,34.764 249.34,431.88"
         id="path550" />
      <path
         transform="matrix(0.26469,0,0,0.26469,-0.036694,-0.031725)"
         d="m 320.33,34.764 270.38,270.38"
         id="path552" />
      <path
         transform="matrix(0.26469,0,0,0.26469,-0.036694,-0.031725)"
         d="m 320.33,34.764 270.39,156.06"
         id="path554" />
      <path
         transform="matrix(0.26469,0,0,0.26469,-0.036694,-0.031725)"
         d="m 320.33,34.764 270.39,72.405"
         id="path556" />
      <path
         transform="matrix(0.26469,0,0,0.26469,-0.036694,-0.031725)"
         d="M 320.33,34.764 191.1,517.074"
         id="path558" />
      <path
         transform="matrix(0.26469,0,0,0.26469,-0.036694,-0.031725)"
         d="M 320.33,34.764 70.48,467.524"
         id="path560" />
      <path
         transform="matrix(0.26469,0,0,0.26469,-0.036694,-0.031725)"
         d="M 320.33,34.764 49.25,305.844"
         id="path562" />
      <path
         transform="matrix(0.26469,0,0,0.26469,-0.036694,-0.031725)"
         d="M 320.33,34.764 49.25,191.274"
         id="path564" />
      <path
         transform="matrix(0.26469,0,0,0.26469,-0.036694,-0.031725)"
         d="M 320.33,34.764 49.27,107.391"
         id="path566" />
    </g>
  </g>
</svg>
