<?xml version="1.0" encoding="UTF-8" standalone="no"?>
<!-- Created with Inkscape (http://www.inkscape.org/) -->

<svg
   version="1.1"
   id="svg2"
   xml:space="preserve"
   width="30.4"
   height="30.264"
   viewBox="0 0 30.4 30.264"
   sodipodi:docname="Seta_baixo (2020_02_18 14_46_28 UTC).svg"
   inkscape:version="1.1 (c68e22c387, 2021-05-23)"
   xmlns:inkscape="http://www.inkscape.org/namespaces/inkscape"
   xmlns:sodipodi="http://sodipodi.sourceforge.net/DTD/sodipodi-0.dtd"
   xmlns="http://www.w3.org/2000/svg"
   xmlns:svg="http://www.w3.org/2000/svg"><defs
     id="defs6" /><sodipodi:namedview
     id="namedview4"
     pagecolor="#505050"
     bordercolor="#ffffff"
     borderopacity="1"
     inkscape:pageshadow="0"
     inkscape:pageopacity="0"
     inkscape:pagecheckerboard="1"
     showgrid="false"
     inkscape:zoom="22.236842"
     inkscape:cx="15.177515"
     inkscape:cy="15.065089"
     inkscape:window-width="1920"
     inkscape:window-height="1017"
     inkscape:window-x="-8"
     inkscape:window-y="-8"
     inkscape:window-maximized="1"
     inkscape:current-layer="g8" /><g
     id="g8"
     inkscape:groupmode="layer"
     inkscape:label="Seta_baixo (2020_02_18 14_46_28 UTC)"
     transform="matrix(1.3333333,0,0,-1.3333333,0.00266667,30.266666)"><g
       id="g10"><path
         d="m 11.398,0.402 c -6.199,0 -11,4.699 -11,10.898 0,6.199 4.801,11 11,11 6.204,0 11,-4.801 11,-11 0,-6.199 -4.796,-10.898 -11,-10.898 z m 11,0 z m -22,22 z"
         style="fill:#000000;fill-opacity:1;fill-rule:evenodd;stroke:none"
         id="path12" /><path
         d="m 11.398,0.402 c -6.199,0 -11,4.699 -11,10.898 0,6.199 4.801,11 11,11 6.204,0 11,-4.801 11,-11 0,-6.199 -4.796,-10.898 -11,-10.898 z"
         style="fill:none;stroke:#000000;stroke-width:0.8;stroke-linecap:butt;stroke-linejoin:round;stroke-miterlimit:10;stroke-dasharray:none;stroke-opacity:1"
         id="path14" /><path
         d="m 14.5,15.8 h 3 L 11.301,3.402 5.102,15.8 Z m 3,-12.398 z M 5.102,15.8 Z"
         style="fill:#ffffff;fill-opacity:1;fill-rule:evenodd;stroke:none"
         id="path16" /><path
         d="m 14.5,15.8 h 3 L 11.301,3.402 5.102,15.8 Z"
         style="fill:none;stroke:#ffffff;stroke-width:0.8;stroke-linecap:butt;stroke-linejoin:round;stroke-miterlimit:10;stroke-dasharray:none;stroke-opacity:1"
         id="path18" /><path
         d="m 11.398,0.402 c -6.199,0 -11,4.699 -11,10.898 0,6.199 4.801,11 11,11 6.204,0 11,-4.801 11,-11 0,-6.199 -4.796,-10.898 -11,-10.898 z m 11,0 z m -22,22 z"
         style="fill:#000000;fill-opacity:1;fill-rule:evenodd;stroke:none"
         id="path20" /><path
         d="m 11.398,0.402 c -6.199,0 -11,4.699 -11,10.898 0,6.199 4.801,11 11,11 6.204,0 11,-4.801 11,-11 0,-6.199 -4.796,-10.898 -11,-10.898 z"
         style="fill:none;stroke:#000000;stroke-width:0.8;stroke-linecap:butt;stroke-linejoin:round;stroke-miterlimit:10;stroke-dasharray:none;stroke-opacity:1"
         id="path22" /><path
         d="m 14.5,15.8 h 3 L 11.301,3.402 5.102,15.8 Z m 3,-12.398 z M 5.102,15.8 Z"
         style="fill:#ffffff;fill-opacity:1;fill-rule:evenodd;stroke:none"
         id="path24" /><path
         d="m 14.5,15.8 h 3 L 11.301,3.402 5.102,15.8 Z"
         style="fill:none;stroke:#ffffff;stroke-width:0.8;stroke-linecap:butt;stroke-linejoin:round;stroke-miterlimit:10;stroke-dasharray:none;stroke-opacity:1"
         id="path26" /></g></g></svg>
