<?xml version="1.0" encoding="UTF-8" standalone="no"?>
<svg
   width="640"
   height="610"
   version="1.1"
   viewBox="0 0 169.33 161.39266"
   id="svg319"
   sodipodi:docname="3.svg"
   inkscape:version="1.2.2 (732a01da63, 2022-12-09)"
   xmlns:inkscape="http://www.inkscape.org/namespaces/inkscape"
   xmlns:sodipodi="http://sodipodi.sourceforge.net/DTD/sodipodi-0.dtd"
   xmlns="http://www.w3.org/2000/svg"
   xmlns:svg="http://www.w3.org/2000/svg">
  <defs
     id="defs323" />
  <sodipodi:namedview
     id="namedview321"
     pagecolor="#505050"
     bordercolor="#ffffff"
     borderopacity="1"
     inkscape:showpageshadow="0"
     inkscape:pageopacity="0"
     inkscape:pagecheckerboard="1"
     inkscape:deskcolor="#505050"
     showgrid="false"
     inkscape:zoom="2.085965"
     inkscape:cx="268.46088"
     inkscape:cy="527.33387"
     inkscape:window-width="1920"
     inkscape:window-height="1009"
     inkscape:window-x="-8"
     inkscape:window-y="-8"
     inkscape:window-maximized="1"
     inkscape:current-layer="g265" />
  <g
     fill-rule="evenodd"
     id="g271">
    <g
       transform="matrix(1.0105,0,0,1.0105,-0.88803,-1.1744)"
       stroke-width="0.98956"
       id="g233">
      <path
         transform="matrix(0.13955,0,0,0.13952,84.791,11.698)"
         d="m 0,900.46 -15.712,-0.31 -15.688,-0.953 -15.643,-1.546 -15.582,-2.063 -15.477,-2.874 -15.378,-3.311 -15.195,-4.31 -15.064,-4.641 -14.892,-5.165 -14.703,-5.682 -14.453,-6.411 -14.184,-7.083 -13.905,-7.674 -13.64,-8.113 -13.275,-8.852 -12.923,-9.437 -12.654,-9.657 -12.298,-10.127 -11.925,-10.587 -11.5,-11.128 -11.063,-11.63 -10.542,-12.28 -10.232,-12.343 -9.585,-13.165 -9.265,-13.182 -8.807,-13.479 -8.272,-13.895 -7.79,-14.162 -7.164,-14.653 -7.01,-14.267 -6.207,-15.004 -5.668,-15.231 -5.253,-15.233 -4.772,-15.328 -4.189,-15.551 -3.536,-15.834 -2.974,-15.958 -2.466,-15.988 -2.034,-15.906 -1.352,-16.117 -0.836,-16.1 -0.221,-16.178 0.148,-15.967 1.005,-16.262 1.288,-15.932 1.839,-15.874 2.5,-15.901 2.909,-15.674 3.516,-15.616 3.953,-15.396 4.576,-15.32 5.124,-15.162 5.529,-14.885 5.949,-14.612 6.742,-14.596 7.196,-14.317 7.146,-13.704 7.949,-13.651 8.505,-13.416 8.906,-13.076 9.364,-12.761 9.923,-12.489 10.257,-12.088 10.538,-11.655 10.982,-11.302 11.061,-10.773 11.642,-10.471 12.516,-10.267 11.919,-9.4599 12.565,-9.1556 13.043,-8.7688 12.786,-8.128 13.239,-7.7309 13.541,-7.2757 13.188,-6.6384 13.437,-6.1805 13.435,-5.6591 13.2,-5.0968 13.214,-4.6028 12.804,-4.0394 12.643,-3.5436 11.883,-2.9771 11.594,-2.5132 10.924,-2.0282 9.7007,-1.5331 8.6337,-1.1157 7.2099,-0.7373 5.5778,-0.42749 4.725,-0.21748 3.0046,-0.052445 0.22165,0.0038689 5.0955,0.18181 4.4728,0.32739 5.9605,0.5883 7.4379,0.92734 8.7063,1.3236 9.5936,1.7418 10.832,2.2591 11.249,2.7153001 12.404,3.3278 12.304,3.7631 12.577,4.2779 13.098,4.8709 13.338,5.429 13.321,5.9398 13.315,6.4608 13.363,7.0078 13.114,7.4712 13.063,7.9992 13.019,8.5389 12.409,8.8709 12.203,9.3437 12.529,10.043996 11.816,10.318 11.438,10.718 11.248,11.203 10.956,11.644 10.042,11.753 9.911,12.254 9.485,12.596 9.072,12.94 8.86,13.402 7.993,13.446 7.642,13.801 7.606,14.374 6.708,14.346 6.394,14.715 5.618,14.728 5.235,15.023 4.822,15.293 4.494,15.634 3.845,15.69 3,15.539 2.805,15.973 2.262,16.076 1.701,16.147 0.906,15.949 0.338,15.96 0.049,16.269 -0.651,16.104 -1.03,16.298 -1.719,16.096 -2.411,15.852 -2.757,16.043 -3.379,15.843 -3.786,15.932 -4.531,15.493 -4.942,15.531 -5.633,15.094 -6.119,14.953 -6.672,14.67 -7.048,14.673 -7.82,13.901 -8.036,14.162 -8.55,13.82 -9.179,13.17 -9.607,12.906 -10.042,12.584 -10.581,11.951 -10.865,11.925 -11.248,11.613 -11.804,10.728 -12.139,10.414 -12.547,9.804 -12.853,9.469 -13.213,8.862 -13.477,8.555 -13.8,7.928 -14.103,7.268 -14.382,6.573 -14.653,5.749 -14.814,5.451 -14.984,5.029 -15.157,4.429 -15.335,3.53 -15.449,2.995 -15.545,2.431 -15.629,1.644 -15.682,0.83 -15.701,0.95"
         fill="#fcff5c"
         fill-opacity="0.68235"
         id="path225" />
      <path
         transform="matrix(0.13955,0,0,0.13952,84.791,11.698)"
         d="m 0,900.46 -15.712,-0.31 -15.688,-0.953 -15.643,-1.546 -15.582,-2.063 -15.477,-2.874 -15.378,-3.311 -15.195,-4.31 -15.064,-4.641 -14.892,-5.165 -14.703,-5.682 -14.453,-6.411 -14.184,-7.083 -13.905,-7.674 -13.64,-8.113 -13.275,-8.852 -12.923,-9.437 -12.654,-9.657 -12.298,-10.127 -11.925,-10.587 -11.5,-11.128 -11.063,-11.63 -10.542,-12.28 -10.232,-12.343 -9.585,-13.165 -9.265,-13.182 -8.807,-13.479 -8.272,-13.895 -7.79,-14.162 -7.164,-14.653 -7.01,-14.267 -6.207,-15.004 -5.668,-15.231 -5.253,-15.233 -4.772,-15.328 -4.189,-15.551 -3.536,-15.834 -2.974,-15.958 -2.466,-15.988 -2.034,-15.906 -1.352,-16.117 -0.836,-16.1 -0.221,-16.178 0.148,-15.967 1.005,-16.262 1.288,-15.932 1.839,-15.874 2.5,-15.901 2.909,-15.674 3.516,-15.616 3.953,-15.396 4.576,-15.32 5.124,-15.162 5.529,-14.885 5.949,-14.612 6.742,-14.596 7.196,-14.317 7.146,-13.704 7.949,-13.651 8.505,-13.416 8.906,-13.076 9.364,-12.761 9.923,-12.489 10.257,-12.088 10.538,-11.655 10.982,-11.302 11.061,-10.773 11.642,-10.471 12.516,-10.267 11.919,-9.4599 12.565,-9.1556 13.043,-8.7688 12.786,-8.128 13.239,-7.7309 13.541,-7.2757 13.188,-6.6384 13.437,-6.1805 13.435,-5.6591 13.2,-5.0968 13.214,-4.6028 12.804,-4.0394 12.643,-3.5436 11.883,-2.9771 11.594,-2.5132 10.924,-2.0282 9.7007,-1.5331 8.6337,-1.1157 7.2099,-0.7373 5.5778,-0.42749 4.725,-0.21748 3.0046,-0.052445 0.22165,0.0038689 5.0955,0.18181 4.4728,0.32739 5.9605,0.5883 7.4379,0.92734 8.7063,1.3236 9.5936,1.7418 10.832,2.2591 11.249,2.7153001 12.404,3.3278 12.304,3.7631 12.577,4.2779 13.098,4.8709 13.338,5.429 13.321,5.9398 13.315,6.4608 13.363,7.0078 13.114,7.4712 13.063,7.9992 13.019,8.5389 12.409,8.8709 12.203,9.3437 12.529,10.043996 11.816,10.318 11.438,10.718 11.248,11.203 10.956,11.644 10.042,11.753 9.911,12.254 9.485,12.596 9.072,12.94 8.86,13.402 7.993,13.446 7.642,13.801 7.606,14.374 6.708,14.346 6.394,14.715 5.618,14.728 5.235,15.023 4.822,15.293 4.494,15.634 3.845,15.69 3,15.539 2.805,15.973 2.262,16.076 1.701,16.147 0.906,15.949 0.338,15.96 0.049,16.269 -0.651,16.104 -1.03,16.298 -1.719,16.096 -2.411,15.852 -2.757,16.043 -3.379,15.843 -3.786,15.932 -4.531,15.493 -4.942,15.531 -5.633,15.094 -6.119,14.953 -6.672,14.67 -7.048,14.673 -7.82,13.901 -8.036,14.162 -8.55,13.82 -9.179,13.17 -9.607,12.906 -10.042,12.584 -10.581,11.951 -10.865,11.925 -11.248,11.613 -11.804,10.728 -12.139,10.414 -12.547,9.804 -12.853,9.469 -13.213,8.862 -13.477,8.555 -13.8,7.928 -14.103,7.268 -14.382,6.573 -14.653,5.749 -14.814,5.451 -14.984,5.029 -15.157,4.429 -15.335,3.53 -15.449,2.995 -15.545,2.431 -15.629,1.644 -15.682,0.83 -15.701,0.95"
         fill="none"
         stroke="#fcff5c"
         stroke-linecap="round"
         stroke-linejoin="round"
         stroke-width="7.5054"
         id="path229" />
    </g>
    <g
       transform="translate(0,-71.947)"
       fill="#848484"
       font-family="Lato"
       stroke-linejoin="round"
       id="g253">
      <g
         font-size="14.937px"
         stroke-width="1.2448"
         id="g247">
        <text
           transform="matrix(0.28341,0,0,0.28341,23.833,82.59)"
           x="472"
           y="6.5"
           style="font-variant-ligatures:normal;font-variant-caps:normal;font-variant-numeric:normal;font-variant-east-asian:normal"
           xml:space="preserve"
           id="text235">90°</text>
        <text
           transform="matrix(0.28341,0,0,0.28341,145.55,82.59)"
           x="-496"
           y="6.5"
           style="font-variant-ligatures:normal;font-variant-caps:normal;font-variant-numeric:normal;font-variant-east-asian:normal"
           xml:space="preserve"
           id="text237">90°</text>
        <text
           transform="matrix(0.28341,0,0,0.28341,83.593,81.449)"
           x="233.98399"
           y="421.297"
           style="font-variant-ligatures:normal;font-variant-caps:normal;font-variant-numeric:normal;font-variant-east-asian:normal"
           xml:space="preserve"
           id="text239"> 30°</text>
        <text
           transform="matrix(0.28341,0,0,0.28341,41.92,55.913)"
           x="405.297"
           y="250"
           style="font-variant-ligatures:normal;font-variant-caps:normal;font-variant-numeric:normal;font-variant-east-asian:normal"
           xml:space="preserve"
           id="text241"> 60°</text>
        <text
           transform="matrix(0.28341,0,0,0.28341,85.908,81.449)"
           x="-260.98401"
           y="421.297"
           style="font-variant-ligatures:normal;font-variant-caps:normal;font-variant-numeric:normal;font-variant-east-asian:normal"
           xml:space="preserve"
           id="text243">30° </text>
        <text
           transform="matrix(0.28341,0,0,0.28341,127.58,55.913)"
           x="-432.297"
           y="250"
           style="font-variant-ligatures:normal;font-variant-caps:normal;font-variant-numeric:normal;font-variant-east-asian:normal"
           xml:space="preserve"
           id="text245">60° </text>
      </g>
      <text
         transform="matrix(0.28319,0,0,0.28319,-50.867,217.57)"
         x="472"
         y="6.5"
         font-size="14.948px"
         stroke-width="1.6"
         style="font-variant-ligatures:normal;font-variant-caps:normal;font-variant-numeric:normal;font-variant-east-asian:normal"
         xml:space="preserve"
         id="text249">0º</text>
      <text
         transform="matrix(0.28319,0,0,0.28319,-54.958,222.31)"
         x="472"
         y="6.5"
         font-size="14.948px"
         stroke-width="1.6"
         style="font-variant-ligatures:normal;font-variant-caps:normal;font-variant-numeric:normal;font-variant-east-asian:normal"
         xml:space="preserve"
         id="text251">cd.klm</text>
    </g>
    <g
       transform="matrix(0.36334,0,0,0.36334,71.361,-92.391)"
       fill="none"
       font-family="Lato"
       stroke="#000000"
       stroke-linecap="square"
       stroke-linejoin="bevel"
       stroke-width="0.91678"
       id="g269">
      <g
         stroke-linejoin="round"
         id="g265">
        <g
           transform="matrix(0.72337,0,0,0.72337,-166.61,669.22)"
           fill="#fcff5c"
           fill-opacity="0.68235"
           font-size="16px"
           font-weight="400"
           stroke="#fcff5c"
           stroke-linecap="round"
           stroke-width="1.8336"
           id="g257">
          <rect
             y="6.5"
             width="11.2"
             height="15.2"
             stroke-width="1.8336"
             id="rect255"
             x="0" />
        </g>
        <text
           transform="matrix(0.72337,0,0,0.72337,-166.61,667.7)"
           x="16"
           y="22.5"
           fill="#848484"
           font-size="17.569px"
           stroke="none"
           stroke-linecap="butt"
           stroke-width="0.91678"
           style="font-variant-ligatures:normal;font-variant-caps:normal;font-variant-numeric:normal;font-variant-east-asian:normal"
           xml:space="preserve"
           id="text259">C0-C180</text>
      </g>
    </g>
  </g>
  <g
     transform="matrix(0.99998,0,0,0.99998,0.0051055,1.4778)"
     fill="none"
     stroke="#858585"
     id="g315">
    <path
       transform="matrix(0.52917,0,0,0.52917,-68.201,-25.683)"
       d="m 320.33,65.864 a 31.291,31.291 0 0 1 -15.646,27.099 31.291,31.291 0 0 1 -31.292,-10e-7 31.291,31.291 0 0 1 -15.646,-27.099"
       stroke-width="0.15"
       id="path273" />
    <path
       transform="matrix(1.0583,0,0,1.0576,-221.15,-60.49)"
       d="m 320.33,65.864 a 31.291,31.291 0 0 1 -15.646,27.099 31.291,31.291 0 0 1 -31.292,-10e-7 31.291,31.291 0 0 1 -15.646,-27.099"
       stroke-width="0.075027"
       id="path275" />
    <path
       transform="matrix(1.5875,0,0,1.5865,-374.1,-95.32)"
       d="m 320.33,65.864 a 31.291,31.291 0 0 1 -15.646,27.099 31.291,31.291 0 0 1 -31.292,-10e-7 31.291,31.291 0 0 1 -15.646,-27.099"
       stroke-width="0.050016"
       id="path277" />
    <path
       transform="matrix(2.1167,0,0,2.1153,-527.05,-130.15)"
       d="m 320.33,65.864 a 31.291,31.291 0 0 1 -15.646,27.099 31.291,31.291 0 0 1 -31.292,-10e-7 31.291,31.291 0 0 1 -15.646,-27.099"
       stroke-width="0.037512"
       id="path279" />
    <path
       transform="matrix(2.6458,0,0,2.6441,-680,-164.98)"
       d="m 316.1,81.579 c -2.6998,4.6487 -6.5966,8.6031 -11.414,11.384 -9.6817,5.59 -21.61,5.59 -31.292,-10e-7 -4.8457,-2.7976 -8.7602,-6.7827 -11.462,-11.467"
       stroke-width="0.03001"
       id="path281" />
    <path
       transform="matrix(3.1749,0,0,3.1729,-832.93,-199.8)"
       d="m 311.59,87.561 c -2.0089,2.088 -4.324,3.9131 -6.9028,5.4019 -9.6817,5.59 -21.61,5.59 -31.292,-1e-6 -2.5964,-1.499 -4.9254,-3.3389 -6.9438,-5.4447"
       stroke-width="0.025009"
       id="path283" />
    <path
       transform="matrix(3.7041,0,0,3.7017,-985.9,-234.64)"
       d="m 308.37,90.473 c -1.1574,0.90884 -2.3869,1.7421 -3.683,2.4903 -9.6817,5.59 -21.61,5.59 -31.292,-10e-7 -1.3089,-0.75568 -2.5499,-1.598 -3.7174,-2.5174"
       stroke-width="0.021436"
       id="path285" />
    <path
       transform="matrix(4.2243,0,0,4.2215,-1136.5,-268.87)"
       d="m 306.04,92.132 c -0.44425,0.28747 -0.89718,0.5646 -1.3586,0.83096 -9.6817,5.59 -21.61,5.59 -31.292,-10e-7 -0.43229,-0.24957 -0.85718,-0.5086 -1.2744,-0.77673"
       stroke-width="0.018796"
       id="path287" />
    <path
       transform="matrix(0.26469,0,0,0.26469,-0.036694,-0.031725)"
       d="m 320.33,34.764 v 499.07"
       stroke-width="0.29988"
       id="path289" />
    <path
       transform="matrix(0,0.29371,-0.29371,0,168.21,-84.937)"
       d="m 320.33,40.455 v 487.98"
       stroke-width="0.27025"
       id="path291" />
    <g
       stroke-width="0.29988"
       id="g313">
      <path
         transform="matrix(0.26469,0,0,0.26469,-0.036694,-0.031725)"
         d="m 320.33,34.764 129.11,481.86"
         id="path293" />
      <path
         transform="matrix(0.26469,0,0,0.26469,-0.036694,-0.031725)"
         d="m 320.33,34.764 249.34,431.88"
         id="path295" />
      <path
         transform="matrix(0.26469,0,0,0.26469,-0.036694,-0.031725)"
         d="m 320.33,34.764 270.38,270.38"
         id="path297" />
      <path
         transform="matrix(0.26469,0,0,0.26469,-0.036694,-0.031725)"
         d="m 320.33,34.764 270.39,156.06"
         id="path299" />
      <path
         transform="matrix(0.26469,0,0,0.26469,-0.036694,-0.031725)"
         d="m 320.33,34.764 270.39,72.405"
         id="path301" />
      <path
         transform="matrix(0.26469,0,0,0.26469,-0.036694,-0.031725)"
         d="M 320.33,34.764 191.1,517.074"
         id="path303" />
      <path
         transform="matrix(0.26469,0,0,0.26469,-0.036694,-0.031725)"
         d="M 320.33,34.764 70.48,467.524"
         id="path305" />
      <path
         transform="matrix(0.26469,0,0,0.26469,-0.036694,-0.031725)"
         d="M 320.33,34.764 49.25,305.844"
         id="path307" />
      <path
         transform="matrix(0.26469,0,0,0.26469,-0.036694,-0.031725)"
         d="M 320.33,34.764 49.25,191.274"
         id="path309" />
      <path
         transform="matrix(0.26469,0,0,0.26469,-0.036694,-0.031725)"
         d="M 320.33,34.764 49.27,107.391"
         id="path311" />
    </g>
  </g>
  <path
     transform="matrix(0.44023,0,0,0.44023,45.96,-93.462)"
     d="m 140.07,224.42 v 1.5002 M 35.77,224.42 v 1.5002 m 90.9,9.9986 H 49.171 m -20.751,0.50006 h 20.251 m 22.625,-9.326 v 1.0001 m 47.776,-1.0001 v 1.0001 m -43.101,-1.0001 v 1.0001 m 21.799,0 v -1.0001 m 17.648,1.0001 h 3.2914 m -61.788,-1.0001 h -0.15081 m 13.906,0 v 1.0001 m 27.093,0 h 0.15081 m -11.3,-1.0001 v 1.0001 m -33.351,-1.0001 h -0.14817 m 21.011,1.0001 h 1.8388 m -22.701,0 v -1.0001 m 8.4534,0 v 1.0001 m 12.409,-1.0001 v 1.0001 m 48.588,-1.0001 h -0.15081 m -44.498,1.0001 v -1.0001 m 19.849,1.0001 v -1.0001 m -3.6512,1.0001 h 3.5004 m 21.151,0 h 0.15081 m -14.526,-1.0001 v 1.0001 m -51.424,-1.0001 v 1.0001 m 41,-1.0001 v 1.0001 m 0,0 h 0.14816 m -12.549,-1.0001 h -0.15082 m -3.6486,0 v 1.0001 m -35.999,-2.0002 v 1.0001 m 28.083,0 v 1.0001 m 35.833,-1.0001 v 1.0001 m -27.916,0 h 0.15081 m -8.0671,0 h 0.67204 m 27.093,-1.0001 v 1.0001 m -19.698,0 h 3.4978 m 12.7,0 v -1.0001 m -0.38364,0 v 1.0001 m 25.186,0 h 3.4978 m -13.062,-1.0001 v 1.0001 m -5.1118,0 h 0.15081 m 18.174,0 v -1.0001 m -17.555,1.0001 h 0.67205 m -14.462,0 h 2.5109 m -4.6646,-1.0001 v 1.0001 m 10.649,-1.0001 v 1.0001 m -29.194,0 h 0.61912 m 10.425,0 h 0.23283 m 22.442,-1.0001 v 1.0001 m -22.826,-1.0001 v 1.0001 m 12.316,0 h 0.23548 m 11.044,-1.0001 v 1.0001 m 17.404,-1.0001 v 1.0001 m -62.145,0 h 1.2991 m 20.23,-1.0001 v 1.0001 m -25.183,0 v -1.0001 m 37.499,0 v 1.0001 m -16.198,-1.0001 v 1.0001 m 23.638,-1.0001 v 1.0001 m 2.8363,0 h 0.61912 m 0.67205,0 h 3.6698 m 13.062,0 h 0.15081 m -7.3025,-1.0001 v 1.0001 m -43.974,-1.0001 v 1.0001 m -14.523,0 v -1.0001 m 24.649,1.0001 h 0.15082 m 37.351,-1.0001 h -0.15081 m -27.546,0 v 1.0001 m -19.931,0 h 2.6882 m -7.7973,-1.0001 v 1.0001 m 33.536,0 h 1.8389 m 32.21,-2.0002 h -91.998 m 11.348,1.0001 v 1.0001 m 48.44,0 h 2.6855 m -38.06,0 h 3.6698 m 1.2912,0 h 0.14817 m 10.276,0 v -1.0001 m -24.95,0 v 1.0001 m 37.499,-1.0001 h -0.14816 m -9.6546,0 v 1.0001 m 34.454,-1.0001 v 1.0001 m -61.788,-1.0001 v 1.0001 m -15.211,-1.0001 h 91.998 m -11.351,0 h -3.4978 m -41,0 h -0.15081 m 55.999,0 v -1.0001 m -77.15,2.0002 h 0.15081 m 29.699,0 h 2.6008 m 29.488,-1.0001 v 1.0001 m -4.5905,0 h 1.2991 m 7.1517,0 v -1.0001 m -65.437,1.0001 h 3.2914 m 21.529,0 h 2.5135 m 13.303,-1.0001 h -3.5004 m -41.148,1.0001 h 0.14817 m 3.5004,-1.0001 h -3.5004 m 28.3,1.0001 v -1.0001 m 16.351,0 h -0.15081 m -37.346,0 v 1.0001 m 58.648,0 v -1.0001 m -4.953,0 v 1.0001 m -32.549,-1.0001 h -3.4978 m -24.802,1.0001 h 3.5004 m 65.8,-1.0013 v 1 h 0.14999 v -1 z m -3.5,1 v -1 h -0.15 v 1 z m -21.3,-1 v 1 h 0.14999 v -1 z m -3.5,1 v -1 h -0.14999 v 1 z m -16.2,0 v -1 h -0.14999 v 1 z m 3.5,-1 v 1 h 0.15002 v -1 z m -28.3,1 v -1 h -0.14999 v 1 z m 3.5,-1 v 1 h 0.15 v -1 z m -8.1,9.328 a 0.5,0.5 0 0 0 0.50001,-0.50001 m -21.25,0 a 0.5,0.5 0 0 0 0.50001,0.50001 m 119,0 a 0.5,0.5 0 0 0 0.50001,-0.50001 m -106.15,-9.9994 h 92.297 m 13.854,8.4984 h -7.702 m 0,0 -0.14817,-8.4984 m -98.15,7.4983 v 1.0001 m -14.002,0 v 1.5002 m 106.15,-9.9986 -0.14817,8.4984 m 6.1362,-9.9985 h -104.25 m 5.9673,1.5001 h -6.0008 m 6.1516,8.4984 -0.15081,-8.4984 m 85.4,10.499 h 20.251 m -105.5,-2.0002 h 91.998 m -91.998,0 h 91.998 m -91.998,-1.0001 v 1.0001 m -6.3024,0 h -7.6994 m 106,-1.0001 h -91.998 m 106,2.5003 v -1.5002 m -98.75,1.5002 v -1.5002 m 0,0 h -7.2496 m 91.998,0 v -1.0001 m -98.15,-7.4983 -0.15081,8.4984 m 98.301,0 v -1.0001 m -7.2496,1.0001 v 1.5002 m 7.2496,-1.5002 h -7.2496 m 13.401,-8.4984 h -6.0034 m -0.14817,7.4983 h -91.998 m 84.749,2.5011 a 0.5,0.5 0 0 0 0.50001,0.50001 m -78.499,-7.2e-4 h 78.499"
     fill="none"
     stroke="#000000"
     stroke-linecap="round"
     stroke-width="0.2"
     id="path317" />
</svg>
