<?xml version="1.0" encoding="UTF-8" standalone="no"?>
<svg
   width="640"
   height="610"
   version="1.1"
   viewBox="0 0 169.33 161.39266"
   id="svg306"
   sodipodi:docname="3.svg"
   inkscape:version="1.2.2 (732a01da63, 2022-12-09)"
   xmlns:inkscape="http://www.inkscape.org/namespaces/inkscape"
   xmlns:sodipodi="http://sodipodi.sourceforge.net/DTD/sodipodi-0.dtd"
   xmlns="http://www.w3.org/2000/svg"
   xmlns:svg="http://www.w3.org/2000/svg">
  <sodipodi:namedview
     id="namedview308"
     pagecolor="#505050"
     bordercolor="#ffffff"
     borderopacity="1"
     inkscape:showpageshadow="0"
     inkscape:pageopacity="0"
     inkscape:pagecheckerboard="1"
     inkscape:deskcolor="#505050"
     showgrid="false"
     inkscape:zoom="1.475"
     inkscape:cx="205.76271"
     inkscape:cy="180.33898"
     inkscape:window-width="1920"
     inkscape:window-height="1009"
     inkscape:window-x="-8"
     inkscape:window-y="-8"
     inkscape:window-maximized="1"
     inkscape:current-layer="g258" />
  <defs
     id="defs222" />
  <g
     fill-rule="evenodd"
     id="g258">
    <path
       transform="matrix(0.14167,0,0,0.14167,84.769,10.034)"
       d="m 0,904.97 -31.565,-1.074 -31.357,-4.069 -30.911,-7.07 -30.23,-10.006 -29.336,-12.784 -28.202,-15.605 -26.916,-18.05 -25.357,-20.701 -23.745,-22.745 -21.827,-25.098 -19.983,-26.659 -17.867,-28.455 -15.82,-29.669 -13.578,-30.953 -11.216,-32.118 -9.06,-32.643 -6.802,-33.135 -4.484,-33.515 -2.228,-33.628 -0.148,-33.378 1.864,-32.955 4.004,-32.585 6.092,-32.056 7.582,-30.896 9.688,-30.266 10.966,-28.884 12.707,-27.868 14.279,-26.684 15.505,-25.248 16.524,-23.698 17.981,-22.406 18.779,-20.744 19.298,-18.991 20.245,-17.465 20.412,-15.645 20.99,-14.033 20.922,-12.249 20.668,-10.496 20.716,-8.894 19.697,-7.1472 L -62.592,8.7934 -44.435,4.667 -27.544,1.9228 -12.27,0.4252 -0.633,-0.0033 H 1.8e-4 l -0.073683,-0.081833 -0.085577,-0.10797 -0.044126,-0.070523 -0.071697,-0.1183 -0.032802,-0.077838 -0.042236,-0.10385 -0.035291,-0.10724 -0.028165,-0.11027 -0.008806,-0.088189 -0.003111,-0.089662 0.002673,-0.090844 0.008534,-0.09172 0.014455,-0.09232 0.028013,-0.06613 0.025501,-0.09232 -0.002827,-0.25359 0.081441,0.12437 0.041654,-0.0902 0.050516,-0.06166 0.056472,-0.03258 0.057573,-0.05814 0.061489,0.02646 0.061489,-0.02646 0.057573,0.05814 0.056472,0.03258 0.050516,0.06166 0.041654,0.0902 0.081441,-0.12437 -0.002827,0.25359 0.025501,0.09232 0.028013,0.06613 0.014455,0.09232 0.008534,0.09172 0.002673,0.090844 -0.003111,0.089662 -0.008806,0.088189 -0.028165,0.11027 -0.035291,0.10724 -0.042236,0.10385 -0.032802,0.077838 -0.071697,0.1183 L 0.15944,-0.193103 0.073863,-0.085133 1.8e-4,-0.0033 h 0.63318 l 11.637,0.4285 15.274,1.4976 16.891,2.7442 18.157,4.1264 19.121,5.6114 19.697,7.1472 20.716,8.894 20.668,10.496 20.922,12.249 20.99,14.033 20.412,15.645 20.245,17.465 19.298,18.991 18.779,20.744 17.981,22.406 16.524,23.698 15.505,25.248 14.279,26.684 12.707,27.868 10.966,28.884 9.688,30.266 7.582,30.896 6.092,32.056 4.004,32.585 1.864,32.955 -0.148,33.378 -2.228,33.628 -4.484,33.515 -6.802,33.135 -9.06,32.643 -11.216,32.118 -13.578,30.953 -15.82,29.669 -17.867,28.455 -19.983,26.659 -21.827,25.098 -23.745,22.745 -25.357,20.701 -26.916,18.05 -28.202,15.605 -29.336,12.784 -30.23,10.006 -30.911,7.07 -31.357,4.069 -31.565,1.074"
       clip-path="none"
       fill="#fcff5c"
       fill-opacity="0.68235"
       id="path499" />
    <path
       transform="matrix(0.14167,0,0,0.14167,84.769,10.034)"
       d="m 0,904.97 -31.565,-1.074 -31.357,-4.069 -30.911,-7.07 -30.23,-10.006 -29.336,-12.784 -28.202,-15.605 -26.916,-18.05 -25.357,-20.701 -23.745,-22.745 -21.827,-25.098 -19.983,-26.659 -17.867,-28.455 -15.82,-29.669 -13.578,-30.953 -11.216,-32.118 -9.06,-32.643 -6.802,-33.135 -4.484,-33.515 -2.228,-33.628 -0.148,-33.378 1.864,-32.955 4.004,-32.585 6.092,-32.056 7.582,-30.896 9.688,-30.266 10.966,-28.884 12.707,-27.868 14.279,-26.684 15.505,-25.248 16.524,-23.698 17.981,-22.406 18.779,-20.744 19.298,-18.991 20.245,-17.465 20.412,-15.645 20.99,-14.033 20.922,-12.249 20.668,-10.496 20.716,-8.894 19.697,-7.1472 L -62.592,8.7934 -44.435,4.667 -27.544,1.9228 -12.27,0.4252 -0.633,-0.0033 H 1.8e-4 l -0.073683,-0.081833 -0.085577,-0.10797 -0.044126,-0.070523 -0.071697,-0.1183 -0.032802,-0.077838 -0.042236,-0.10385 -0.035291,-0.10724 -0.028165,-0.11027 -0.008806,-0.088189 -0.003111,-0.089662 0.002673,-0.090844 0.008534,-0.09172 0.014455,-0.09232 0.028013,-0.06613 0.025501,-0.09232 -0.002827,-0.25359 0.081441,0.12437 0.041654,-0.0902 0.050516,-0.06166 0.056472,-0.03258 0.057573,-0.05814 0.061489,0.02646 0.061489,-0.02646 0.057573,0.05814 0.056472,0.03258 0.050516,0.06166 0.041654,0.0902 0.081441,-0.12437 -0.002827,0.25359 0.025501,0.09232 0.028013,0.06613 0.014455,0.09232 0.008534,0.09172 0.002673,0.090844 -0.003111,0.089662 -0.008806,0.088189 -0.028165,0.11027 -0.035291,0.10724 -0.042236,0.10385 -0.032802,0.077838 -0.071697,0.1183 L 0.15944,-0.193103 0.073863,-0.085133 1.8e-4,-0.0033 h 0.63318 l 11.637,0.4285 15.274,1.4976 16.891,2.7442 18.157,4.1264 19.121,5.6114 19.697,7.1472 20.716,8.894 20.668,10.496 20.922,12.249 20.99,14.033 20.412,15.645 20.245,17.465 19.298,18.991 18.779,20.744 17.981,22.406 16.524,23.698 15.505,25.248 14.279,26.684 12.707,27.868 10.966,28.884 9.688,30.266 7.582,30.896 6.092,32.056 4.004,32.585 1.864,32.955 -0.148,33.378 -2.228,33.628 -4.484,33.515 -6.802,33.135 -9.06,32.643 -11.216,32.118 -13.578,30.953 -15.82,29.669 -17.867,28.455 -19.983,26.659 -21.827,25.098 -23.745,22.745 -25.357,20.701 -26.916,18.05 -28.202,15.605 -29.336,12.784 -30.23,10.006 -30.911,7.07 -31.357,4.069 -31.565,1.074"
       clip-path="none"
       fill="#fcff5c"
       fill-opacity="0.68235"
       id="path224-6"
       style="fill:none;stroke:#fcff5c;stroke-width:5.6027;stroke-dasharray:none;stroke-opacity:1" />
    <g
       fill="#848484"
       font-family="Lato"
       stroke-linejoin="round"
       id="g246">
      <g
         font-size="14.937px"
         stroke-width="1.2448"
         id="g240">
        <text
           transform="matrix(0.28341,0,0,0.28341,23.833,10.481)"
           x="472"
           y="6.5"
           style="font-variant-ligatures:normal;font-variant-caps:normal;font-variant-numeric:normal;font-variant-east-asian:normal"
           xml:space="preserve"
           id="text228">90°</text>
        <text
           transform="matrix(0.28341,0,0,0.28341,145.55,10.481)"
           x="-496"
           y="6.5"
           style="font-variant-ligatures:normal;font-variant-caps:normal;font-variant-numeric:normal;font-variant-east-asian:normal"
           xml:space="preserve"
           id="text230">90°</text>
        <text
           transform="matrix(0.28341,0,0,0.28341,83.593,9.3403)"
           x="233.98399"
           y="421.297"
           style="font-variant-ligatures:normal;font-variant-caps:normal;font-variant-numeric:normal;font-variant-east-asian:normal"
           xml:space="preserve"
           id="text232"> 30°</text>
        <text
           transform="matrix(0.28341,0,0,0.28341,41.92,-16.196)"
           x="405.297"
           y="250"
           style="font-variant-ligatures:normal;font-variant-caps:normal;font-variant-numeric:normal;font-variant-east-asian:normal"
           xml:space="preserve"
           id="text234"> 60°</text>
        <text
           transform="matrix(0.28341,0,0,0.28341,85.908,9.3403)"
           x="-260.98401"
           y="421.297"
           style="font-variant-ligatures:normal;font-variant-caps:normal;font-variant-numeric:normal;font-variant-east-asian:normal"
           xml:space="preserve"
           id="text236">30° </text>
        <text
           transform="matrix(0.28341,0,0,0.28341,127.58,-16.196)"
           x="-432.297"
           y="250"
           style="font-variant-ligatures:normal;font-variant-caps:normal;font-variant-numeric:normal;font-variant-east-asian:normal"
           xml:space="preserve"
           id="text238">60° </text>
      </g>
      <text
         transform="matrix(0.28319,0,0,0.28319,-50.867,145.46)"
         x="472"
         y="6.5"
         font-size="14.948px"
         stroke-width="1.6"
         style="font-variant-ligatures:normal;font-variant-caps:normal;font-variant-numeric:normal;font-variant-east-asian:normal"
         xml:space="preserve"
         id="text242">0º</text>
      <text
         transform="matrix(0.28319,0,0,0.28319,-54.958,150.2)"
         x="472"
         y="6.5"
         font-size="14.948px"
         stroke-width="1.6"
         style="font-variant-ligatures:normal;font-variant-caps:normal;font-variant-numeric:normal;font-variant-east-asian:normal"
         xml:space="preserve"
         id="text244">cd.klm</text>
    </g>
    <g
       stroke-linejoin="round"
       id="g254">
      <rect
         transform="matrix(0.26283,0,0,0.26283,10.824,150.6)"
         y="6.5"
         width="11.2"
         height="15.2"
         fill="#fcff5c"
         fill-opacity="0.68235"
         stroke="#fcff5c"
         stroke-linecap="round"
         stroke-width="1.8336"
         id="rect248"
         x="0" />
      <text
         transform="matrix(0.26283,0,0,0.26283,10.824,150.05)"
         x="16"
         y="22.5"
         fill="#848484"
         font-family="Lato"
         font-size="17.569px"
         stroke-width="0.91678"
         style="font-variant-ligatures:normal;font-variant-caps:normal;font-variant-numeric:normal;font-variant-east-asian:normal"
         xml:space="preserve"
         id="text250">C0-C180</text>
    </g>
  </g>
  <g
     transform="matrix(0.99998,0,0,0.99998,0.04995,1.2891)"
     fill="none"
     stroke="#858585"
     id="g302">
    <path
       transform="matrix(0.52917,0,0,0.52917,-68.201,-25.683)"
       d="m 320.33,65.864 a 31.291,31.291 0 0 1 -15.646,27.099 31.291,31.291 0 0 1 -31.292,-10e-7 31.291,31.291 0 0 1 -15.646,-27.099"
       stroke-width="0.15"
       id="path260" />
    <path
       transform="matrix(1.0583,0,0,1.0576,-221.15,-60.49)"
       d="m 320.33,65.864 a 31.291,31.291 0 0 1 -15.646,27.099 31.291,31.291 0 0 1 -31.292,-10e-7 31.291,31.291 0 0 1 -15.646,-27.099"
       stroke-width="0.075027"
       id="path262" />
    <path
       transform="matrix(1.5875,0,0,1.5865,-374.1,-95.32)"
       d="m 320.33,65.864 a 31.291,31.291 0 0 1 -15.646,27.099 31.291,31.291 0 0 1 -31.292,-10e-7 31.291,31.291 0 0 1 -15.646,-27.099"
       stroke-width="0.050016"
       id="path264" />
    <path
       transform="matrix(2.1167,0,0,2.1153,-527.05,-130.15)"
       d="m 320.33,65.864 a 31.291,31.291 0 0 1 -15.646,27.099 31.291,31.291 0 0 1 -31.292,-10e-7 31.291,31.291 0 0 1 -15.646,-27.099"
       stroke-width="0.037512"
       id="path266" />
    <path
       transform="matrix(2.6458,0,0,2.6441,-680,-164.98)"
       d="m 316.1,81.579 c -2.6998,4.6487 -6.5966,8.6031 -11.414,11.384 -9.6817,5.59 -21.61,5.59 -31.292,-10e-7 -4.8457,-2.7976 -8.7602,-6.7827 -11.462,-11.467"
       stroke-width="0.03001"
       id="path268" />
    <path
       transform="matrix(3.1749,0,0,3.1729,-832.93,-199.8)"
       d="m 311.59,87.561 c -2.0089,2.088 -4.324,3.9131 -6.9028,5.4019 -9.6817,5.59 -21.61,5.59 -31.292,-1e-6 -2.5964,-1.499 -4.9254,-3.3389 -6.9438,-5.4447"
       stroke-width="0.025009"
       id="path270" />
    <path
       transform="matrix(3.7041,0,0,3.7017,-985.9,-234.64)"
       d="m 308.37,90.473 c -1.1574,0.90884 -2.3869,1.7421 -3.683,2.4903 -9.6817,5.59 -21.61,5.59 -31.292,-10e-7 -1.3089,-0.75568 -2.5499,-1.598 -3.7174,-2.5174"
       stroke-width="0.021436"
       id="path272" />
    <path
       transform="matrix(4.2243,0,0,4.2215,-1136.5,-268.87)"
       d="m 306.04,92.132 c -0.44425,0.28747 -0.89718,0.5646 -1.3586,0.83096 -9.6817,5.59 -21.61,5.59 -31.292,-10e-7 -0.43229,-0.24957 -0.85718,-0.5086 -1.2744,-0.77673"
       stroke-width="0.018796"
       id="path274" />
    <path
       transform="matrix(0.26469,0,0,0.26469,-0.036694,-0.031725)"
       d="m 320.33,34.764 v 499.07"
       stroke-width="0.29988"
       id="path276" />
    <path
       transform="matrix(0,0.29371,-0.29371,0,168.21,-84.937)"
       d="m 320.33,40.455 v 487.98"
       stroke-width="0.27025"
       id="path278" />
    <g
       stroke-width="0.29988"
       id="g300">
      <path
         transform="matrix(0.26469,0,0,0.26469,-0.036694,-0.031725)"
         d="m 320.33,34.764 129.11,481.86"
         id="path280" />
      <path
         transform="matrix(0.26469,0,0,0.26469,-0.036694,-0.031725)"
         d="m 320.33,34.764 249.34,431.88"
         id="path282" />
      <path
         transform="matrix(0.26469,0,0,0.26469,-0.036694,-0.031725)"
         d="m 320.33,34.764 270.38,270.38"
         id="path284" />
      <path
         transform="matrix(0.26469,0,0,0.26469,-0.036694,-0.031725)"
         d="m 320.33,34.764 270.39,156.06"
         id="path286" />
      <path
         transform="matrix(0.26469,0,0,0.26469,-0.036694,-0.031725)"
         d="m 320.33,34.764 270.39,72.405"
         id="path288" />
      <path
         transform="matrix(0.26469,0,0,0.26469,-0.036694,-0.031725)"
         d="M 320.33,34.764 191.1,517.074"
         id="path290" />
      <path
         transform="matrix(0.26469,0,0,0.26469,-0.036694,-0.031725)"
         d="M 320.33,34.764 70.48,467.524"
         id="path292" />
      <path
         transform="matrix(0.26469,0,0,0.26469,-0.036694,-0.031725)"
         d="M 320.33,34.764 49.25,305.844"
         id="path294" />
      <path
         transform="matrix(0.26469,0,0,0.26469,-0.036694,-0.031725)"
         d="M 320.33,34.764 49.25,191.274"
         id="path296" />
      <path
         transform="matrix(0.26469,0,0,0.26469,-0.036694,-0.031725)"
         d="M 320.33,34.764 49.27,107.391"
         id="path298" />
    </g>
  </g>
  <path
     transform="matrix(0.44023,0,0,0.44023,45.96,-93.462)"
     d="m 140.07,224.42 v 1.5002 M 35.77,224.42 v 1.5002 m 90.9,9.9986 H 49.171 m -20.751,0.50006 h 20.251 m 22.625,-9.326 v 1.0001 m 47.776,-1.0001 v 1.0001 m -43.101,-1.0001 v 1.0001 m 21.799,0 v -1.0001 m 17.648,1.0001 h 3.2914 m -61.788,-1.0001 h -0.15081 m 13.906,0 v 1.0001 m 27.093,0 h 0.15081 m -11.3,-1.0001 v 1.0001 m -33.351,-1.0001 h -0.14817 m 21.011,1.0001 h 1.8388 m -22.701,0 v -1.0001 m 8.4534,0 v 1.0001 m 12.409,-1.0001 v 1.0001 m 48.588,-1.0001 h -0.15081 m -44.498,1.0001 v -1.0001 m 19.849,1.0001 v -1.0001 m -3.6512,1.0001 h 3.5004 m 21.151,0 h 0.15081 m -14.526,-1.0001 v 1.0001 m -51.424,-1.0001 v 1.0001 m 41,-1.0001 v 1.0001 m 0,0 h 0.14816 m -12.549,-1.0001 h -0.15082 m -3.6486,0 v 1.0001 m -35.999,-2.0002 v 1.0001 m 28.083,0 v 1.0001 m 35.833,-1.0001 v 1.0001 m -27.916,0 h 0.15081 m -8.0671,0 h 0.67204 m 27.093,-1.0001 v 1.0001 m -19.698,0 h 3.4978 m 12.7,0 v -1.0001 m -0.38364,0 v 1.0001 m 25.186,0 h 3.4978 m -13.062,-1.0001 v 1.0001 m -5.1118,0 h 0.15081 m 18.174,0 v -1.0001 m -17.555,1.0001 h 0.67205 m -14.462,0 h 2.5109 m -4.6646,-1.0001 v 1.0001 m 10.649,-1.0001 v 1.0001 m -29.194,0 h 0.61912 m 10.425,0 h 0.23283 m 22.442,-1.0001 v 1.0001 m -22.826,-1.0001 v 1.0001 m 12.316,0 h 0.23548 m 11.044,-1.0001 v 1.0001 m 17.404,-1.0001 v 1.0001 m -62.145,0 h 1.2991 m 20.23,-1.0001 v 1.0001 m -25.183,0 v -1.0001 m 37.499,0 v 1.0001 m -16.198,-1.0001 v 1.0001 m 23.638,-1.0001 v 1.0001 m 2.8363,0 h 0.61912 m 0.67205,0 h 3.6698 m 13.062,0 h 0.15081 m -7.3025,-1.0001 v 1.0001 m -43.974,-1.0001 v 1.0001 m -14.523,0 v -1.0001 m 24.649,1.0001 h 0.15082 m 37.351,-1.0001 h -0.15081 m -27.546,0 v 1.0001 m -19.931,0 h 2.6882 m -7.7973,-1.0001 v 1.0001 m 33.536,0 h 1.8389 m 32.21,-2.0002 h -91.998 m 11.348,1.0001 v 1.0001 m 48.44,0 h 2.6855 m -38.06,0 h 3.6698 m 1.2912,0 h 0.14817 m 10.276,0 v -1.0001 m -24.95,0 v 1.0001 m 37.499,-1.0001 h -0.14816 m -9.6546,0 v 1.0001 m 34.454,-1.0001 v 1.0001 m -61.788,-1.0001 v 1.0001 m -15.211,-1.0001 h 91.998 m -11.351,0 h -3.4978 m -41,0 h -0.15081 m 55.999,0 v -1.0001 m -77.15,2.0002 h 0.15081 m 29.699,0 h 2.6008 m 29.488,-1.0001 v 1.0001 m -4.5905,0 h 1.2991 m 7.1517,0 v -1.0001 m -65.437,1.0001 h 3.2914 m 21.529,0 h 2.5135 m 13.303,-1.0001 h -3.5004 m -41.148,1.0001 h 0.14817 m 3.5004,-1.0001 h -3.5004 m 28.3,1.0001 v -1.0001 m 16.351,0 h -0.15081 m -37.346,0 v 1.0001 m 58.648,0 v -1.0001 m -4.953,0 v 1.0001 m -32.549,-1.0001 h -3.4978 m -24.802,1.0001 h 3.5004 m 65.8,-1.0013 v 1 h 0.14999 v -1 z m -3.5,1 v -1 h -0.15 v 1 z m -21.3,-1 v 1 h 0.14999 v -1 z m -3.5,1 v -1 h -0.14999 v 1 z m -16.2,0 v -1 h -0.14999 v 1 z m 3.5,-1 v 1 h 0.15002 v -1 z m -28.3,1 v -1 h -0.14999 v 1 z m 3.5,-1 v 1 h 0.15 v -1 z m -8.1,9.328 a 0.5,0.5 0 0 0 0.50001,-0.50001 m -21.25,0 a 0.5,0.5 0 0 0 0.50001,0.50001 m 119,0 a 0.5,0.5 0 0 0 0.50001,-0.50001 m -106.15,-9.9994 h 92.297 m 13.854,8.4984 h -7.702 m 0,0 -0.14817,-8.4984 m -98.15,7.4983 v 1.0001 m -14.002,0 v 1.5002 m 106.15,-9.9986 -0.14817,8.4984 m 6.1362,-9.9985 h -104.25 m 5.9673,1.5001 h -6.0008 m 6.1516,8.4984 -0.15081,-8.4984 m 85.4,10.499 h 20.251 m -105.5,-2.0002 h 91.998 m -91.998,0 h 91.998 m -91.998,-1.0001 v 1.0001 m -6.3024,0 h -7.6994 m 106,-1.0001 h -91.998 m 106,2.5003 v -1.5002 m -98.75,1.5002 v -1.5002 m 0,0 h -7.2496 m 91.998,0 v -1.0001 m -98.15,-7.4983 -0.15081,8.4984 m 98.301,0 v -1.0001 m -7.2496,1.0001 v 1.5002 m 7.2496,-1.5002 h -7.2496 m 13.401,-8.4984 h -6.0034 m -0.14817,7.4983 h -91.998 m 84.749,2.5011 a 0.5,0.5 0 0 0 0.50001,0.50001 m -78.499,-7.2e-4 h 78.499"
     fill="none"
     stroke="#000000"
     stroke-linecap="round"
     stroke-width="0.2"
     id="path304" />
</svg>
