<?xml version="1.0" encoding="UTF-8" standalone="no"?>
<svg
   width="640"
   height="610"
   version="1.1"
   viewBox="0 0 169.33 161.39266"
   id="svg96"
   sodipodi:docname="1.svg"
   inkscape:version="1.2.2 (732a01da63, 2022-12-09)"
   xmlns:inkscape="http://www.inkscape.org/namespaces/inkscape"
   xmlns:sodipodi="http://sodipodi.sourceforge.net/DTD/sodipodi-0.dtd"
   xmlns="http://www.w3.org/2000/svg"
   xmlns:svg="http://www.w3.org/2000/svg">
  <defs
     id="defs100" />
  <sodipodi:namedview
     id="namedview98"
     pagecolor="#505050"
     bordercolor="#ffffff"
     borderopacity="1"
     inkscape:showpageshadow="0"
     inkscape:pageopacity="0"
     inkscape:pagecheckerboard="1"
     inkscape:deskcolor="#505050"
     showgrid="false"
     inkscape:zoom="0.52149125"
     inkscape:cx="-162.99411"
     inkscape:cy="285.71908"
     inkscape:window-width="1920"
     inkscape:window-height="1009"
     inkscape:window-x="-8"
     inkscape:window-y="-8"
     inkscape:window-maximized="1"
     inkscape:current-layer="g48" />
  <g
     fill-rule="evenodd"
     id="g48">
    <g
       transform="translate(0,1.256)"
       id="g10">
      <path
         transform="matrix(0.1415,0,0,0.14116,84.756,9.1403)"
         d="m 0,903.57 -15.767,-0.255 -15.769,-0.226 -15.691,-1.926 -15.759,-0.401 -15.607,-2.426 -15.417,-3.882 -15.542,-2.218 -15.31,-3.786 -15.157,-4.394 -14.953,-5.16 -14.721,-5.893 -14.763,-5.201 -14.28,-6.976 -14.099,-7.187 -13.848,-7.642 -13.55,-8.201 -13.462,-7.99 -13.157,-8.516 -12.601,-9.694 -12.545,-9.332 -11.634,-11.27 -11.234,-11.668 -9.786,-14.488 -8.483,-16.6 -6.857,-19.119 -6.436,-18.832 -6.469,-17.684 -5.959,-17.69 -5.95,-16.783 -6.27,-15.403 -5.364,-16.222 -5.321,-15.556 -4.627,-15.96 -4.398,-15.622 -3.744,-15.917 -3.666,-15.377 -2.844,-15.872 -2.715,-15.415 -2.11,-15.581 -1.18,-16.105 -0.759,-15.972 -0.437,-15.727 0.4,-16.042 0.605,-15.651 0.512,-14.981 2.138,-16.02 1.851,-15.147 2.619,-15.291 4.511,-16.372 7.628,-18.343 9.198,-18.822 8.719,-17.606 8.241,-16.473 8.151,-15.696 7.665,-14.68 7.832,-14.175 9.416,-14.603 10.334,-14.525 10.035,-13.674 10.248,-13.168 10.345,-12.603 11.164,-12.44 12.404,-12.457 14.389,-12.777 13.839,-11.805 14.811,-11.569 13.586,-10.358 12.878,-9.4483 14.473,-9.4817 12.915,-8.2864 15.357,-8.5748 14.422,-7.6353 12.98,-6.6082 14.358,-6.482 13.094,-5.5804 11.526,-4.6823 11.588,-4.2554 11.546,-3.8096 10.137,-3.1058 9.7626,-2.6661 7.5949,-1.9666 7.4628,-1.6728 5.5806,-1.1736 4.1918,-0.82822 2.3012,-0.51372 2.103,-0.41807 2.3693,-0.35768 2.9383,-0.29426 5.2137,-0.2311 2.8076,-0.049006 2.8076,0.049006 5.2137,0.2311 2.9383,0.29426 2.3693,0.35768 2.103,0.41807 2.3012,0.51372 4.1918,0.82822 5.5806,1.1736 7.4628,1.6728 7.5949,1.9666 9.7626,2.6661 10.137,3.1058 11.546,3.8096 11.588,4.2554 11.526,4.6823 13.094,5.5804 14.358,6.482 12.98,6.6082 14.422,7.6353 15.357,8.5748 12.915,8.2864 14.473,9.4817 12.878,9.4483 13.586,10.358 14.811,11.569 13.839,11.805 14.389,12.777 12.404,12.457 11.164,12.44 10.345,12.603 10.248,13.168 10.035,13.674 10.334,14.525 9.416,14.603 7.832,14.175 7.665,14.68 8.151,15.696 8.241,16.473 8.719,17.606 9.198,18.822 7.628,18.343 4.511,16.372 2.619,15.291 1.851,15.147 2.138,16.02 0.512,14.981 0.605,15.651 0.4,16.042 -0.437,15.727 -0.759,15.972 -1.18,16.105 -2.11,15.581 -2.715,15.415 -2.844,15.872 -3.666,15.377 -3.744,15.917 -4.398,15.622 -4.627,15.96 -5.321,15.556 -5.364,16.222 -6.27,15.403 -5.95,16.783 -5.959,17.69 -6.469,17.684 -6.436,18.832 -6.857,19.119 -8.483,16.6 -9.786,14.488 -11.234,11.668 -11.634,11.27 -12.545,9.332 -12.601,9.694 -13.157,8.516 -13.462,7.99 -13.55,8.201 -13.848,7.642 -14.099,7.187 -14.28,6.976 -14.763,5.201 -14.721,5.893 -14.953,5.16 -15.157,4.394 -15.31,3.786 -15.542,2.218 -15.417,3.882 -15.607,2.426 -15.759,0.401 -15.691,1.926 -15.769,0.226 -15.767,0.255"
         fill="#fcff5c"
         fill-opacity="0.70588"
         id="path4"
         style="display:inline" />
      <path
         transform="matrix(0.1415,0,0,0.14116,84.756,9.1403)"
         d="m 0,903.57 -15.767,-0.255 -15.769,-0.226 -15.691,-1.926 -15.759,-0.401 -15.607,-2.426 -15.417,-3.882 -15.542,-2.218 -15.31,-3.786 -15.157,-4.394 -14.953,-5.16 -14.721,-5.893 -14.763,-5.201 -14.28,-6.976 -14.099,-7.187 -13.848,-7.642 -13.55,-8.201 -13.462,-7.99 -13.157,-8.516 -12.601,-9.694 -12.545,-9.332 -11.634,-11.27 -11.234,-11.668 -9.786,-14.488 -8.483,-16.6 -6.857,-19.119 -6.436,-18.832 -6.469,-17.684 -5.959,-17.69 -5.95,-16.783 -6.27,-15.403 -5.364,-16.222 -5.321,-15.556 -4.627,-15.96 -4.398,-15.622 -3.744,-15.917 -3.666,-15.377 -2.844,-15.872 -2.715,-15.415 -2.11,-15.581 -1.18,-16.105 -0.759,-15.972 -0.437,-15.727 0.4,-16.042 0.605,-15.651 0.512,-14.981 2.138,-16.02 1.851,-15.147 2.619,-15.291 4.511,-16.372 7.628,-18.343 9.198,-18.822 8.719,-17.606 8.241,-16.473 8.151,-15.696 7.665,-14.68 7.832,-14.175 9.416,-14.603 10.334,-14.525 10.035,-13.674 10.248,-13.168 10.345,-12.603 11.164,-12.44 12.404,-12.457 14.389,-12.777 13.839,-11.805 14.811,-11.569 13.586,-10.358 12.878,-9.4483 14.473,-9.4817 12.915,-8.2864 15.357,-8.5748 14.422,-7.6353 12.98,-6.6082 14.358,-6.482 13.094,-5.5804 11.526,-4.6823 11.588,-4.2554 11.546,-3.8096 10.137,-3.1058 9.7626,-2.6661 7.5949,-1.9666 7.4628,-1.6728 5.5806,-1.1736 4.1918,-0.82822 2.3012,-0.51372 2.103,-0.41807 2.3693,-0.35768 2.9383,-0.29426 5.2137,-0.2311 2.8076,-0.049006 2.8076,0.049006 5.2137,0.2311 2.9383,0.29426 2.3693,0.35768 2.103,0.41807 2.3012,0.51372 4.1918,0.82822 5.5806,1.1736 7.4628,1.6728 7.5949,1.9666 9.7626,2.6661 10.137,3.1058 11.546,3.8096 11.588,4.2554 11.526,4.6823 13.094,5.5804 14.358,6.482 12.98,6.6082 14.422,7.6353 15.357,8.5748 12.915,8.2864 14.473,9.4817 12.878,9.4483 13.586,10.358 14.811,11.569 13.839,11.805 14.389,12.777 12.404,12.457 11.164,12.44 10.345,12.603 10.248,13.168 10.035,13.674 10.334,14.525 9.416,14.603 7.832,14.175 7.665,14.68 8.151,15.696 8.241,16.473 8.719,17.606 9.198,18.822 7.628,18.343 4.511,16.372 2.619,15.291 1.851,15.147 2.138,16.02 0.512,14.981 0.605,15.651 0.4,16.042 -0.437,15.727 -0.759,15.972 -1.18,16.105 -2.11,15.581 -2.715,15.415 -2.844,15.872 -3.666,15.377 -3.744,15.917 -4.398,15.622 -4.627,15.96 -5.321,15.556 -5.364,16.222 -6.27,15.403 -5.95,16.783 -5.959,17.69 -6.469,17.684 -6.436,18.832 -6.857,19.119 -8.483,16.6 -9.786,14.488 -11.234,11.668 -11.634,11.27 -12.545,9.332 -12.601,9.694 -13.157,8.516 -13.462,7.99 -13.55,8.201 -13.848,7.642 -14.099,7.187 -14.28,6.976 -14.763,5.201 -14.721,5.893 -14.953,5.16 -15.157,4.394 -15.31,3.786 -15.542,2.218 -15.417,3.882 -15.607,2.426 -15.759,0.401 -15.691,1.926 -15.769,0.226 -15.767,0.255"
         fill="none"
         stroke="#fcff5c"
         stroke-linecap="round"
         stroke-linejoin="round"
         stroke-width="7.4886"
         id="path8"
         style="display:inline" />
    </g>
    <g
       transform="translate(0,-72.169)"
       fill="#848484"
       font-family="Lato"
       stroke-linejoin="round"
       id="g30">
      <g
         font-size="14.937px"
         stroke-width="1.2448"
         id="g24">
        <text
           transform="matrix(0.28341,0,0,0.28341,23.833,82.59)"
           x="472"
           y="6.5"
           style="font-variant-ligatures:normal;font-variant-caps:normal;font-variant-numeric:normal;font-variant-east-asian:normal"
           xml:space="preserve"
           id="text12">90°</text>
        <text
           transform="matrix(0.28341,0,0,0.28341,145.55,82.59)"
           x="-496"
           y="6.5"
           style="font-variant-ligatures:normal;font-variant-caps:normal;font-variant-numeric:normal;font-variant-east-asian:normal"
           xml:space="preserve"
           id="text14">90°</text>
        <text
           transform="matrix(0.28341,0,0,0.28341,83.593,81.449)"
           x="233.98399"
           y="421.297"
           style="font-variant-ligatures:normal;font-variant-caps:normal;font-variant-numeric:normal;font-variant-east-asian:normal"
           xml:space="preserve"
           id="text16"> 30°</text>
        <text
           transform="matrix(0.28341,0,0,0.28341,41.92,55.913)"
           x="405.297"
           y="250"
           style="font-variant-ligatures:normal;font-variant-caps:normal;font-variant-numeric:normal;font-variant-east-asian:normal"
           xml:space="preserve"
           id="text18"> 60°</text>
        <text
           transform="matrix(0.28341,0,0,0.28341,85.908,81.449)"
           x="-260.98401"
           y="421.297"
           style="font-variant-ligatures:normal;font-variant-caps:normal;font-variant-numeric:normal;font-variant-east-asian:normal"
           xml:space="preserve"
           id="text20">30° </text>
        <text
           transform="matrix(0.28341,0,0,0.28341,127.58,55.913)"
           x="-432.297"
           y="250"
           style="font-variant-ligatures:normal;font-variant-caps:normal;font-variant-numeric:normal;font-variant-east-asian:normal"
           xml:space="preserve"
           id="text22">60° </text>
      </g>
      <text
         transform="matrix(0.28319,0,0,0.28319,-50.867,217.57)"
         x="472"
         y="6.5"
         font-size="14.948px"
         stroke-width="1.6"
         style="font-variant-ligatures:normal;font-variant-caps:normal;font-variant-numeric:normal;font-variant-east-asian:normal"
         xml:space="preserve"
         id="text26">0º</text>
      <text
         transform="matrix(0.28319,0,0,0.28319,-54.958,222.31)"
         x="472"
         y="6.5"
         font-size="14.948px"
         stroke-width="1.6"
         style="font-variant-ligatures:normal;font-variant-caps:normal;font-variant-numeric:normal;font-variant-east-asian:normal"
         xml:space="preserve"
         id="text28">cd.klm</text>
    </g>
    <g
       transform="matrix(0.36334,0,0,0.36334,71.361,-92.613)"
       fill="none"
       font-family="Lato"
       stroke="#000000"
       stroke-linecap="square"
       stroke-linejoin="bevel"
       stroke-width="0.91678"
       id="g46">
      <g
         stroke-linejoin="round"
         id="g42">
        <g
           transform="matrix(0.72337,0,0,0.72337,-166.61,669.22)"
           fill="#fcff5c"
           fill-opacity="0.68235"
           font-size="16px"
           font-weight="400"
           stroke="#fcff5c"
           stroke-linecap="round"
           stroke-width="1.8336"
           id="g34">
          <rect
             y="6.5"
             width="11.2"
             height="15.2"
             stroke-width="1.8336"
             id="rect32"
             x="0" />
        </g>
        <text
           transform="matrix(0.72337,0,0,0.72337,-166.61,667.7)"
           x="16"
           y="22.5"
           fill="#848484"
           font-size="17.569px"
           stroke="none"
           stroke-linecap="butt"
           stroke-width="0.91678"
           style="font-variant-ligatures:normal;font-variant-caps:normal;font-variant-numeric:normal;font-variant-east-asian:normal"
           xml:space="preserve"
           id="text36">C0-C180</text>
      </g>
    </g>
  </g>
  <g
     transform="matrix(0.99998,0,0,0.99998,0.0051055,1.4778)"
     fill="none"
     stroke="#858585"
     id="g92">
    <path
       transform="matrix(0.52917,0,0,0.52917,-68.201,-25.683)"
       d="m 320.33,65.864 a 31.291,31.291 0 0 1 -15.646,27.099 31.291,31.291 0 0 1 -31.292,-10e-7 31.291,31.291 0 0 1 -15.646,-27.099"
       stroke-width="0.15"
       id="path50" />
    <path
       transform="matrix(1.0583,0,0,1.0576,-221.15,-60.49)"
       d="m 320.33,65.864 a 31.291,31.291 0 0 1 -15.646,27.099 31.291,31.291 0 0 1 -31.292,-10e-7 31.291,31.291 0 0 1 -15.646,-27.099"
       stroke-width="0.075027"
       id="path52" />
    <path
       transform="matrix(1.5875,0,0,1.5865,-374.1,-95.32)"
       d="m 320.33,65.864 a 31.291,31.291 0 0 1 -15.646,27.099 31.291,31.291 0 0 1 -31.292,-10e-7 31.291,31.291 0 0 1 -15.646,-27.099"
       stroke-width="0.050016"
       id="path54" />
    <path
       transform="matrix(2.1167,0,0,2.1153,-527.05,-130.15)"
       d="m 320.33,65.864 a 31.291,31.291 0 0 1 -15.646,27.099 31.291,31.291 0 0 1 -31.292,-10e-7 31.291,31.291 0 0 1 -15.646,-27.099"
       stroke-width="0.037512"
       id="path56" />
    <path
       transform="matrix(2.6458,0,0,2.6441,-680,-164.98)"
       d="m 316.1,81.579 c -2.6998,4.6487 -6.5966,8.6031 -11.414,11.384 -9.6817,5.59 -21.61,5.59 -31.292,-10e-7 -4.8457,-2.7976 -8.7602,-6.7827 -11.462,-11.467"
       stroke-width="0.03001"
       id="path58" />
    <path
       transform="matrix(3.1749,0,0,3.1729,-832.93,-199.8)"
       d="m 311.59,87.561 c -2.0089,2.088 -4.324,3.9131 -6.9028,5.4019 -9.6817,5.59 -21.61,5.59 -31.292,-1e-6 -2.5964,-1.499 -4.9254,-3.3389 -6.9438,-5.4447"
       stroke-width="0.025009"
       id="path60" />
    <path
       transform="matrix(3.7041,0,0,3.7017,-985.9,-234.64)"
       d="m 308.37,90.473 c -1.1574,0.90884 -2.3869,1.7421 -3.683,2.4903 -9.6817,5.59 -21.61,5.59 -31.292,-10e-7 -1.3089,-0.75568 -2.5499,-1.598 -3.7174,-2.5174"
       stroke-width="0.021436"
       id="path62" />
    <path
       transform="matrix(4.2243,0,0,4.2215,-1136.5,-268.87)"
       d="m 306.04,92.132 c -0.44425,0.28747 -0.89718,0.5646 -1.3586,0.83096 -9.6817,5.59 -21.61,5.59 -31.292,-10e-7 -0.43229,-0.24957 -0.85718,-0.5086 -1.2744,-0.77673"
       stroke-width="0.018796"
       id="path64" />
    <path
       transform="matrix(0.26469,0,0,0.26469,-0.036694,-0.031725)"
       d="m 320.33,34.764 v 499.07"
       stroke-width="0.29988"
       id="path66" />
    <path
       transform="matrix(0,0.29371,-0.29371,0,168.21,-84.937)"
       d="m 320.33,40.455 v 487.98"
       stroke-width="0.27025"
       id="path68" />
    <g
       stroke-width="0.29988"
       id="g90">
      <path
         transform="matrix(0.26469,0,0,0.26469,-0.036694,-0.031725)"
         d="m 320.33,34.764 129.11,481.86"
         id="path70" />
      <path
         transform="matrix(0.26469,0,0,0.26469,-0.036694,-0.031725)"
         d="m 320.33,34.764 249.34,431.88"
         id="path72" />
      <path
         transform="matrix(0.26469,0,0,0.26469,-0.036694,-0.031725)"
         d="m 320.33,34.764 270.38,270.38"
         id="path74" />
      <path
         transform="matrix(0.26469,0,0,0.26469,-0.036694,-0.031725)"
         d="m 320.33,34.764 270.39,156.06"
         id="path76" />
      <path
         transform="matrix(0.26469,0,0,0.26469,-0.036694,-0.031725)"
         d="m 320.33,34.764 270.39,72.405"
         id="path78" />
      <path
         transform="matrix(0.26469,0,0,0.26469,-0.036694,-0.031725)"
         d="M 320.33,34.764 191.1,517.074"
         id="path80" />
      <path
         transform="matrix(0.26469,0,0,0.26469,-0.036694,-0.031725)"
         d="M 320.33,34.764 70.48,467.524"
         id="path82" />
      <path
         transform="matrix(0.26469,0,0,0.26469,-0.036694,-0.031725)"
         d="M 320.33,34.764 49.25,305.844"
         id="path84" />
      <path
         transform="matrix(0.26469,0,0,0.26469,-0.036694,-0.031725)"
         d="M 320.33,34.764 49.25,191.274"
         id="path86" />
      <path
         transform="matrix(0.26469,0,0,0.26469,-0.036694,-0.031725)"
         d="M 320.33,34.764 49.27,107.391"
         id="path88" />
    </g>
  </g>
  <path
     transform="matrix(0.44023,0,0,0.44023,45.96,-93.462)"
     d="m 140.07,224.42 v 1.5002 M 35.77,224.42 v 1.5002 m 90.9,9.9986 H 49.171 m -20.751,0.50006 h 20.251 m 22.625,-9.326 v 1.0001 m 47.776,-1.0001 v 1.0001 m -43.101,-1.0001 v 1.0001 m 21.799,0 v -1.0001 m 17.648,1.0001 h 3.2914 m -61.788,-1.0001 h -0.15081 m 13.906,0 v 1.0001 m 27.093,0 h 0.15081 m -11.3,-1.0001 v 1.0001 m -33.351,-1.0001 h -0.14817 m 21.011,1.0001 h 1.8388 m -22.701,0 v -1.0001 m 8.4534,0 v 1.0001 m 12.409,-1.0001 v 1.0001 m 48.588,-1.0001 h -0.15081 m -44.498,1.0001 v -1.0001 m 19.849,1.0001 v -1.0001 m -3.6512,1.0001 h 3.5004 m 21.151,0 h 0.15081 m -14.526,-1.0001 v 1.0001 m -51.424,-1.0001 v 1.0001 m 41,-1.0001 v 1.0001 m 0,0 h 0.14816 m -12.549,-1.0001 h -0.15082 m -3.6486,0 v 1.0001 m -35.999,-2.0002 v 1.0001 m 28.083,0 v 1.0001 m 35.833,-1.0001 v 1.0001 m -27.916,0 h 0.15081 m -8.0671,0 h 0.67204 m 27.093,-1.0001 v 1.0001 m -19.698,0 h 3.4978 m 12.7,0 v -1.0001 m -0.38364,0 v 1.0001 m 25.186,0 h 3.4978 m -13.062,-1.0001 v 1.0001 m -5.1118,0 h 0.15081 m 18.174,0 v -1.0001 m -17.555,1.0001 h 0.67205 m -14.462,0 h 2.5109 m -4.6646,-1.0001 v 1.0001 m 10.649,-1.0001 v 1.0001 m -29.194,0 h 0.61912 m 10.425,0 h 0.23283 m 22.442,-1.0001 v 1.0001 m -22.826,-1.0001 v 1.0001 m 12.316,0 h 0.23548 m 11.044,-1.0001 v 1.0001 m 17.404,-1.0001 v 1.0001 m -62.145,0 h 1.2991 m 20.23,-1.0001 v 1.0001 m -25.183,0 v -1.0001 m 37.499,0 v 1.0001 m -16.198,-1.0001 v 1.0001 m 23.638,-1.0001 v 1.0001 m 2.8363,0 h 0.61912 m 0.67205,0 h 3.6698 m 13.062,0 h 0.15081 m -7.3025,-1.0001 v 1.0001 m -43.974,-1.0001 v 1.0001 m -14.523,0 v -1.0001 m 24.649,1.0001 h 0.15082 m 37.351,-1.0001 h -0.15081 m -27.546,0 v 1.0001 m -19.931,0 h 2.6882 m -7.7973,-1.0001 v 1.0001 m 33.536,0 h 1.8389 m 32.21,-2.0002 h -91.998 m 11.348,1.0001 v 1.0001 m 48.44,0 h 2.6855 m -38.06,0 h 3.6698 m 1.2912,0 h 0.14817 m 10.276,0 v -1.0001 m -24.95,0 v 1.0001 m 37.499,-1.0001 h -0.14816 m -9.6546,0 v 1.0001 m 34.454,-1.0001 v 1.0001 m -61.788,-1.0001 v 1.0001 m -15.211,-1.0001 h 91.998 m -11.351,0 h -3.4978 m -41,0 h -0.15081 m 55.999,0 v -1.0001 m -77.15,2.0002 h 0.15081 m 29.699,0 h 2.6008 m 29.488,-1.0001 v 1.0001 m -4.5905,0 h 1.2991 m 7.1517,0 v -1.0001 m -65.437,1.0001 h 3.2914 m 21.529,0 h 2.5135 m 13.303,-1.0001 h -3.5004 m -41.148,1.0001 h 0.14817 m 3.5004,-1.0001 h -3.5004 m 28.3,1.0001 v -1.0001 m 16.351,0 h -0.15081 m -37.346,0 v 1.0001 m 58.648,0 v -1.0001 m -4.953,0 v 1.0001 m -32.549,-1.0001 h -3.4978 m -24.802,1.0001 h 3.5004 m 65.8,-1.0013 v 1 h 0.14999 v -1 z m -3.5,1 v -1 h -0.15 v 1 z m -21.3,-1 v 1 h 0.14999 v -1 z m -3.5,1 v -1 h -0.14999 v 1 z m -16.2,0 v -1 h -0.14999 v 1 z m 3.5,-1 v 1 h 0.15002 v -1 z m -28.3,1 v -1 h -0.14999 v 1 z m 3.5,-1 v 1 h 0.15 v -1 z m -8.1,9.328 a 0.5,0.5 0 0 0 0.50001,-0.50001 m -21.25,0 a 0.5,0.5 0 0 0 0.50001,0.50001 m 119,0 a 0.5,0.5 0 0 0 0.50001,-0.50001 m -106.15,-9.9994 h 92.297 m 13.854,8.4984 h -7.702 m 0,0 -0.14817,-8.4984 m -98.15,7.4983 v 1.0001 m -14.002,0 v 1.5002 m 106.15,-9.9986 -0.14817,8.4984 m 6.1362,-9.9985 h -104.25 m 5.9673,1.5001 h -6.0008 m 6.1516,8.4984 -0.15081,-8.4984 m 85.4,10.499 h 20.251 m -105.5,-2.0002 h 91.998 m -91.998,0 h 91.998 m -91.998,-1.0001 v 1.0001 m -6.3024,0 h -7.6994 m 106,-1.0001 h -91.998 m 106,2.5003 v -1.5002 m -98.75,1.5002 v -1.5002 m 0,0 h -7.2496 m 91.998,0 v -1.0001 m -98.15,-7.4983 -0.15081,8.4984 m 98.301,0 v -1.0001 m -7.2496,1.0001 v 1.5002 m 7.2496,-1.5002 h -7.2496 m 13.401,-8.4984 h -6.0034 m -0.14817,7.4983 h -91.998 m 84.749,2.5011 a 0.5,0.5 0 0 0 0.50001,0.50001 m -78.499,-7.2e-4 h 78.499"
     fill="none"
     stroke="#000000"
     stroke-linecap="round"
     stroke-width="0.2"
     id="path94" />
</svg>
