<?xml version="1.0" encoding="UTF-8" standalone="no"?>
<svg
   width="901.00861"
   height="204"
   version="1.1"
   id="svg3668"
   sodipodi:docname="desenho_interligacao_c1f.svg"
   inkscape:version="1.2.2 (732a01da63, 2022-12-09)"
   xmlns:inkscape="http://www.inkscape.org/namespaces/inkscape"
   xmlns:sodipodi="http://sodipodi.sourceforge.net/DTD/sodipodi-0.dtd"
   xmlns="http://www.w3.org/2000/svg"
   xmlns:svg="http://www.w3.org/2000/svg">
  <defs
     id="defs3672" />
  <sodipodi:namedview
     id="namedview3670"
     pagecolor="#505050"
     bordercolor="#ffffff"
     borderopacity="1"
     inkscape:showpageshadow="0"
     inkscape:pageopacity="0"
     inkscape:pagecheckerboard="1"
     inkscape:deskcolor="#505050"
     showgrid="false"
     inkscape:zoom="12.545542"
     inkscape:cx="834.59928"
     inkscape:cy="181.25961"
     inkscape:window-width="1920"
     inkscape:window-height="1009"
     inkscape:window-x="-8"
     inkscape:window-y="-8"
     inkscape:window-maximized="1"
     inkscape:current-layer="svg3668"
     showguides="true" />
  <g
     transform="matrix(1.6741,0,0,1.6889,-65.141847,-5.7708774)"
     fill="none"
     stroke="#000000"
     stroke-linecap="round"
     stroke-linejoin="round"
     stroke-width="0.15735"
     id="g3398">
    <path
       transform="matrix(3.7795,0,0,3.7795,-789.9,657.68)"
       d="m 226.77,-169.06 h -1.65"
       id="path2986" />
    <path
       transform="matrix(3.7795,0,0,3.7795,-789.9,657.68)"
       d="m 230.15,-171.18 -0.72119,-0.0534"
       id="path2988" />
    <path
       transform="matrix(3.7795,0,0,3.7795,-789.9,657.68)"
       d="m 235.87,-166.76 h -1"
       id="path2990" />
    <path
       transform="matrix(3.7795,0,0,3.7795,-789.9,657.68)"
       d="m 241.87,-170.1 v 6.6569"
       id="path2992" />
    <path
       transform="matrix(3.7795,0,0,3.7795,-789.9,657.68)"
       d="m 230.87,-171.28 -0.72021,-0.0533"
       id="path2994" />
    <path
       transform="matrix(3.7795,0,0,3.7795,-789.9,657.68)"
       d="m 225.12,-169.11 a 0.15,0.15 0 0 0 -0.3,0"
       id="path2996" />
    <path
       transform="matrix(3.7795,0,0,3.7795,-789.9,657.68)"
       d="m 235.87,-170.34 v 3.5731"
       id="path2998" />
    <path
       transform="matrix(3.7795,0,0,3.7795,-789.9,657.68)"
       d="m 241.6,-170.04 v 3.2582 c 0,1.0353 -1e-5,2.0731 -1e-5,2.8814 v 0.36295 c 0,0.11527 -7e-5,0.26437 -7.1e-4,0.31294 -3.1e-4,0.0243 -8.3e-4,0.0264 -3.8e-4,0.0268 4.5e-4,4e-4 7.7e-4,6.8e-4 9.4e-4,8.4e-4 1.1e-4,1.1e-4 1.7e-4,1.6e-4 1.9e-4,1.9e-4"
       id="path3000" />
    <path
       transform="matrix(3.7795,0,0,3.7795,-789.9,657.68)"
       d="m 241.6,-170.34 c 9e-5,-9e-5 -4e-5,3e-5 -4e-5,3e-5 0,0 2.8e-4,-2.4e-4 -2.6e-4,2.5e-4 -2.7e-4,2.5e-4 -7.5e-4,6.8e-4 -0.001,0.001 -6.8e-4,6.2e-4 7.4e-4,0.0174 0.001,0.0633 3.9e-4,0.0507 5.9e-4,0.13085 5.9e-4,0.2328"
       id="path3002" />
    <path
       transform="matrix(3.7795,0,0,3.7795,-789.9,657.68)"
       d="m 231.87,-166.76 h 1"
       id="path3004" />
    <path
       transform="matrix(3.7795,0,0,3.7795,-789.9,657.68)"
       d="m 220.97,-164.46 h -1.3"
       id="path3006" />
    <path
       transform="matrix(3.7795,0,0,3.7795,-789.9,657.68)"
       d="m 228.37,-162.8 v 0.58333"
       id="path3008" />
    <path
       transform="matrix(3.7795,0,0,3.7795,-789.9,657.68)"
       d="m 222.82,-165.05 v 0.6385"
       id="path3010" />
    <path
       transform="matrix(3.7795,0,0,3.7795,-789.9,657.68)"
       d="m 222.82,-164.46 h -1.85"
       id="path3012" />
    <path
       transform="matrix(3.7795,0,0,3.7795,-789.9,657.68)"
       d="m 234.87,-166.76 v -3.6243"
       id="path3014" />
    <path
       transform="matrix(3.7795,0,0,3.7795,-789.9,657.68)"
       d="m 234.87,-170.39 v -0.44423"
       id="path3016" />
    <path
       transform="matrix(3.7795,0,0,3.7795,-789.9,657.68)"
       d="m 223.12,-168.65 v -0.4615"
       id="path3018" />
    <path
       transform="matrix(3.7795,0,0,3.7795,-789.9,657.68)"
       d="m 231.11,-171.11 -1.9092,-0.14142"
       id="path3020" />
    <path
       transform="matrix(3.7795,0,0,3.7795,-789.9,657.68)"
       d="m 235.87,-170.76 v 0.42127"
       id="path3022" />
    <path
       transform="matrix(3.7795,0,0,3.7795,-789.9,657.68)"
       d="m 225.12,-164.41 v -0.6385"
       id="path3024" />
    <path
       transform="matrix(3.7795,0,0,3.7795,-789.9,657.68)"
       d="m 231.14,-171.11 -0.26612,-0.0197"
       id="path3026" />
    <path
       transform="matrix(3.7795,0,0,3.7795,-789.9,657.68)"
       d="m 219.37,-165 v 0.23218"
       id="path3028" />
    <path
       transform="matrix(3.7795,0,0,3.7795,-789.9,657.68)"
       d="m 238.87,-166.76 v 3.7722"
       id="path3030" />
    <path
       transform="matrix(3.7795,0,0,3.7795,-789.9,657.68)"
       d="m 224.82,-165.05 v 0.6385"
       id="path3032" />
    <path
       transform="matrix(3.7795,0,0,3.7795,-789.9,657.68)"
       d="m 224.82,-168.65 v 3.6"
       id="path3034" />
    <path
       transform="matrix(3.7795,0,0,3.7795,-789.9,657.68)"
       d="m 232.87,-166.76 v 4.2167"
       id="path3036" />
    <path
       transform="matrix(3.7795,0,0,3.7795,-789.9,657.68)"
       d="m 237.87,-166.76 h 1"
       id="path3038" />
    <path
       transform="matrix(3.7795,0,0,3.7795,-789.9,657.68)"
       d="m 219.37,-168.6 v 3.6"
       id="path3040" />
    <path
       transform="matrix(3.7795,0,0,3.7795,-789.9,657.68)"
       d="m 226.77,-164.46 h -1.65"
       id="path3042" />
    <path
       transform="matrix(3.7795,0,0,3.7795,-789.9,657.68)"
       d="m 222.82,-169.06 h -1.85"
       id="path3044" />
    <path
       transform="matrix(3.7795,0,0,3.7795,-789.9,657.68)"
       d="m 219.37,-164.76 a 0.3,0.3 0 0 0 0.3,0.3"
       id="path3046" />
    <path
       transform="matrix(3.7795,0,0,3.7795,-789.9,657.68)"
       d="m 224.82,-169.11 v 0.4615"
       id="path3048" />
    <path
       transform="matrix(3.7795,0,0,3.7795,-789.9,657.68)"
       d="m 235.37,-170.8 -0.5,-0.037"
       id="path3050" />
    <path
       transform="matrix(3.7795,0,0,3.7795,-789.9,657.68)"
       d="m 225.12,-165.05 v -3.6"
       id="path3052" />
    <path
       transform="matrix(3.7795,0,0,3.7795,-789.9,657.68)"
       d="m 222.82,-169.11 v 0.4615"
       id="path3054" />
    <path
       transform="matrix(3.7795,0,0,3.7795,-789.9,657.68)"
       d="m 223.12,-169.11 a 0.15,0.15 0 0 0 -0.3,0"
       id="path3056" />
    <path
       transform="matrix(3.7795,0,0,3.7795,-789.9,657.68)"
       d="m 222.82,-164.41 a 0.15,0.15 0 0 0 0.3,0"
       id="path3058" />
    <path
       transform="matrix(3.7795,0,0,3.7795,-789.9,657.68)"
       d="m 237.87,-162.92 v -3.8493"
       id="path3060" />
    <path
       transform="matrix(3.7795,0,0,3.7795,-789.9,657.68)"
       d="m 231.88,-162.51 v -4.236"
       id="path3062" />
    <path
       transform="matrix(3.7795,0,0,3.7795,-789.9,657.68)"
       d="m 229.17,-171.41 v 0.15042"
       id="path3064" />
    <path
       transform="matrix(3.7795,0,0,3.7795,-789.9,657.68)"
       d="m 223.12,-165.05 v -3.6"
       id="path3066" />
    <path
       transform="matrix(3.7795,0,0,3.7795,-789.9,657.68)"
       d="m 231.14,-171.26 -0.26612,-0.0197"
       id="path3068" />
    <path
       transform="matrix(3.7795,0,0,3.7795,-789.9,657.68)"
       d="m 224.82,-164.41 a 0.15,0.15 0 0 0 0.3,0"
       id="path3070" />
    <path
       transform="matrix(3.7795,0,0,3.7795,-789.9,657.68)"
       d="m 229.43,-171.24 -0.26612,-0.0197"
       id="path3072" />
    <path
       transform="matrix(3.7795,0,0,3.7795,-789.9,657.68)"
       d="m 224.82,-164.46 h -1.7"
       id="path3074" />
    <path
       transform="matrix(3.7795,0,0,3.7795,-789.9,657.68)"
       d="m 224.82,-169.06 h -1.7"
       id="path3076" />
    <path
       transform="matrix(3.7795,0,0,3.7795,-789.9,657.68)"
       d="m 231.11,-171.11 -1.502,-0.11125"
       id="path3078" />
    <path
       transform="matrix(3.7795,0,0,3.7795,-789.9,657.68)"
       d="m 219.67,-169.06 a 0.3,0.3 0 0 0 -0.3,0.3"
       id="path3080" />
    <path
       transform="matrix(3.7795,0,0,3.7795,-789.9,657.68)"
       d="m 230.87,-171.13 -0.72021,-0.0533"
       id="path3082" />
    <path
       transform="matrix(3.7795,0,0,3.7795,-789.9,657.68)"
       d="m 231.14,-171.26 v 0.15041"
       id="path3084" />
    <path
       transform="matrix(3.7795,0,0,3.7795,-789.9,657.68)"
       d="m 220.97,-169.06 h -1.3"
       id="path3086" />
    <path
       transform="matrix(3.7795,0,0,3.7795,-789.9,657.68)"
       d="m 223.12,-164.41 v -0.6385"
       id="path3088" />
    <path
       transform="matrix(3.7795,0,0,3.7795,-789.9,657.68)"
       d="m 229.71,-171.22 -0.19336,-0.0143"
       id="path3090" />
    <path
       transform="matrix(3.7795,0,0,3.7795,-789.9,657.68)"
       d="m 219.37,-168.76 v 0.16782"
       id="path3092" />
    <path
       transform="matrix(3.7795,0,0,3.7795,-789.9,657.68)"
       d="m 235.87,-170.76 -0.5,-0.037"
       id="path3094" />
    <path
       transform="matrix(3.7795,0,0,3.7795,-789.9,657.68)"
       d="m 222.82,-168.65 v 3.6"
       id="path3096" />
    <path
       transform="matrix(3.7795,0,0,3.7795,-789.9,657.68)"
       d="m 241.6,-170.04 v 1.5e-4"
       id="path3098" />
    <path
       transform="matrix(3.7795,0,0,3.7795,-789.9,657.68)"
       d="m 230.15,-171.33 -0.72119,-0.0534"
       id="path3100" />
    <path
       transform="matrix(3.7795,0,0,3.7795,-789.9,657.68)"
       d="m 225.12,-168.65 v -0.4615"
       id="path3102" />
    <path
       transform="matrix(3.7795,0,0,3.7795,-789.9,657.68)"
       d="m 229.43,-171.39 -0.26612,-0.0197"
       id="path3104" />
    <path
       transform="matrix(3.7795,0,0,3.7795,-789.9,657.68)"
       d="m 241.59,-163.19 -13.212,0.97918"
       id="path3106" />
    <path
       transform="matrix(3.7795,0,0,3.7795,-789.9,657.68)"
       d="m 228.37,-171.31 0.79183,0.0587"
       id="path3108" />
    <path
       transform="matrix(3.7795,0,0,3.7795,-789.9,657.68)"
       d="m 231.14,-171.11 10.464,0.77509"
       id="path3110" />
    <path
       transform="matrix(3.7795,0,0,3.7795,-789.9,657.68)"
       d="m 231.87,-165.04 h 1"
       id="path3112" />
    <path
       transform="matrix(3.7795,0,0,3.7795,-789.9,657.68)"
       d="m 237.87,-165.04 h 1"
       id="path3114" />
    <path
       transform="matrix(5.0737607,0,0,5.0737607,-1102.4916,871.29061)"
       d="m 241.6,-165.04 72.6,-0.009"
       id="path3116" />
    <path
       transform="matrix(3.7795,0,0,3.7795,-789.9,657.68)"
       d="m 235.87,-166.97 h -1"
       id="path3118" />
    <path
       transform="matrix(5.0736834,0,0,3.7905049,-1102.4729,659.53416)"
       d="m 314.2,-168.48 -72.6,-0.009"
       id="path3120" />
    <path
       transform="matrix(3.7795,0,0,3.7795,-789.9,657.68)"
       d="m 235.87,-168.49 h -1"
       id="path3122" />
    <path
       transform="matrix(3.7795,0,0,3.7795,-789.9,657.68)"
       d="m 228.37,-162.21 v -0.58333"
       id="path3124" />
    <path
       transform="matrix(3.7795,0,0,3.7795,-789.9,657.68)"
       d="m 226.77,-162.8 v 0.58333"
       id="path3126" />
    <path
       transform="matrix(3.7795,0,0,3.7795,-789.9,657.68)"
       d="m 228.37,-162.8 v -7.9333"
       id="path3128" />
    <path
       transform="matrix(3.7795,0,0,3.7795,-789.9,657.68)"
       d="m 226.77,-162.21 h 1.6"
       id="path3130" />
    <path
       transform="matrix(3.7795,0,0,3.7795,-789.9,657.68)"
       d="m 226.77,-171.31 h 1.6"
       id="path3132" />
    <path
       transform="matrix(3.7795,0,0,3.7795,-789.9,657.68)"
       d="m 226.77,-171.31 v 0.58333"
       id="path3134" />
    <path
       transform="matrix(3.7795,0,0,3.7795,-789.9,657.68)"
       d="m 226.77,-170.73 v 7.9333"
       id="path3136" />
    <path
       transform="matrix(3.7795,0,0,3.7795,-789.9,657.68)"
       d="m 228.37,-170.73 v -0.58333"
       id="path3138" />
    <path
       transform="matrix(3.7795,0,0,3.7795,-789.9,657.68)"
       d="m 219.67,-164.46 v -0.58046"
       id="path3140" />
    <path
       transform="matrix(3.7795,0,0,3.7795,-789.9,657.68)"
       d="m 230.15,-171.33 v 0.15041"
       id="path3142" />
    <path
       transform="matrix(3.7795,0,0,3.7795,-789.9,657.68)"
       d="m 223.12,-168.65 -1.9e-4,-0.001 -5.6e-4,-10e-4 -9.4e-4,-0.001 -0.001,-0.001 -0.006,-0.003 -0.009,-0.003 -0.008,-0.002 -0.004,-9.8e-4 -0.005,-9.4e-4 -0.005,-9.1e-4 -0.005,-8.6e-4 -0.006,-8.2e-4 -0.006,-7.7e-4 -0.006,-7.3e-4 -0.006,-6.8e-4 -0.006,-6.2e-4 -0.007,-5.8e-4 -0.007,-5.2e-4 -0.007,-4.6e-4 -0.007,-4.1e-4 -0.007,-3.5e-4 -0.007,-3e-4 -0.007,-2.3e-4 -0.007,-1.8e-4 -0.007,-1.1e-4 -0.007,-6e-5 -0.007,10e-6 -0.007,6e-5 -0.007,1.3e-4 -0.007,1.8e-4 -0.007,2.5e-4 -0.007,3e-4 -0.007,3.6e-4 -0.007,4.2e-4 -0.007,4.8e-4 -0.007,5.3e-4 -0.007,5.8e-4 -0.006,6.3e-4 -0.006,6.9e-4 -0.006,7.3e-4 -0.006,7.9e-4 -0.005,8.2e-4 -0.005,8.7e-4 -0.005,9.1e-4 -0.005,9.5e-4 -0.004,9.8e-4 -0.008,0.002 -0.009,0.003 -0.006,0.003 -0.001,0.001 -8.7e-4,0.001 -5e-4,0.001 -1.3e-4,10e-4"
       id="path3144" />
    <path
       transform="matrix(3.7795,0,0,3.7795,-789.9,657.68)"
       d="m 225.12,-165.05 -1.9e-4,-10e-4 -5.6e-4,-0.001 -9.4e-4,-0.001 -0.001,-0.001 -0.006,-0.003 -0.009,-0.003 -0.008,-0.002 -0.004,-9.8e-4 -0.005,-9.4e-4 -0.005,-9.1e-4 -0.005,-8.6e-4 -0.006,-8.2e-4 -0.006,-7.7e-4 -0.006,-7.3e-4 -0.006,-6.8e-4 -0.006,-6.2e-4 -0.007,-5.8e-4 -0.007,-5.2e-4 -0.007,-4.6e-4 -0.007,-4.1e-4 -0.007,-3.5e-4 -0.007,-3e-4 -0.007,-2.3e-4 -0.007,-1.8e-4 -0.007,-1.1e-4 -0.007,-6e-5 -0.007,1e-5 -0.007,6e-5 -0.007,1.3e-4 -0.007,1.8e-4 -0.007,2.5e-4 -0.007,3e-4 -0.007,3.6e-4 -0.007,4.2e-4 -0.007,4.8e-4 -0.007,5.3e-4 -0.007,5.8e-4 -0.006,6.3e-4 -0.006,6.9e-4 -0.006,7.3e-4 -0.006,7.9e-4 -0.005,8.2e-4 -0.005,8.7e-4 -0.005,9.1e-4 -0.005,9.5e-4 -0.004,9.8e-4 -0.008,0.002 -0.009,0.003 -0.006,0.003 -0.001,0.001 -8.7e-4,0.001 -5e-4,0.001 -1.3e-4,0.001"
       id="path3146" />
    <path
       transform="matrix(3.7795,0,0,3.7795,-789.9,657.68)"
       d="m 224.82,-165.04 h -1.7"
       id="path3148" />
    <path
       transform="matrix(3.7795,0,0,3.7795,-789.9,657.68)"
       d="m 229.43,-171.39 v 0.15041"
       id="path3150" />
    <path
       transform="matrix(3.7795,0,0,3.7795,-789.9,657.68)"
       d="m 223.12,-165.05 -1.9e-4,-10e-4 -5.6e-4,-0.001 -9.4e-4,-0.001 -0.001,-0.001 -0.006,-0.003 -0.009,-0.003 -0.008,-0.002 -0.004,-9.8e-4 -0.005,-9.4e-4 -0.005,-9.1e-4 -0.005,-8.6e-4 -0.006,-8.2e-4 -0.006,-7.7e-4 -0.006,-7.3e-4 -0.006,-6.8e-4 -0.006,-6.2e-4 -0.007,-5.8e-4 -0.007,-5.2e-4 -0.007,-4.6e-4 -0.007,-4.1e-4 -0.007,-3.5e-4 -0.007,-3e-4 -0.007,-2.3e-4 -0.007,-1.8e-4 -0.007,-1.1e-4 -0.007,-6e-5 -0.007,1e-5 -0.007,6e-5 -0.007,1.3e-4 -0.007,1.8e-4 -0.007,2.5e-4 -0.007,3e-4 -0.007,3.6e-4 -0.007,4.2e-4 -0.007,4.8e-4 -0.007,5.3e-4 -0.007,5.8e-4 -0.006,6.3e-4 -0.006,6.9e-4 -0.006,7.3e-4 -0.006,7.9e-4 -0.005,8.2e-4 -0.005,8.7e-4 -0.005,9.1e-4 -0.005,9.5e-4 -0.004,9.8e-4 -0.008,0.002 -0.009,0.003 -0.006,0.003 -0.001,0.001 -8.7e-4,0.001 -5e-4,0.001 -1.3e-4,0.001"
       id="path3152" />
    <path
       transform="matrix(3.7795,0,0,3.7795,-789.9,657.68)"
       d="m 220.97,-168.64 h -1.3"
       id="path3154" />
    <path
       transform="matrix(3.7795,0,0,3.7795,-789.9,657.68)"
       d="m 241.6,-170.04 -5.7222,-0.30024"
       id="path3156" />
    <path
       transform="matrix(3.7795,0,0,3.7795,-789.9,657.68)"
       d="m 224.82,-168.64 h -1.7"
       id="path3158" />
    <path
       transform="matrix(3.7795,0,0,3.7795,-789.9,657.68)"
       d="m 222.82,-165.04 h -1.85"
       id="path3160" />
    <path
       transform="matrix(3.7795,0,0,3.7795,-789.9,657.68)"
       d="m 219.67,-165.04 -0.015,6e-5 -0.0149,1.8e-4 -0.0149,3e-4 -0.0148,4.2e-4 -0.0146,5.4e-4 -0.0144,6.6e-4 -0.0142,7.7e-4 -0.014,8.8e-4 -0.0137,0.001 -0.0133,0.001 -0.013,0.001 -0.0126,10e-4 -0.0122,0.001 -0.0117,0.001 -0.0112,0.002 -0.0107,0.002 -0.0102,0.002 -0.01,0.002 -0.009,0.002 -0.016,0.004 -0.007,0.002 -0.012,0.004 -0.005,0.002 -0.008,0.004 -0.003,0.002 -0.002,0.002 -0.001,0.002 -6.9e-4,0.002 -6e-5,0.001"
       id="path3162" />
    <path
       transform="matrix(3.7795,0,0,3.7795,-789.9,657.68)"
       d="m 226.77,-165.04 h -1.65"
       id="path3164" />
    <path
       transform="matrix(3.7795,0,0,3.7795,-789.9,657.68)"
       d="m 230.87,-171.28 v 0.15041"
       id="path3166" />
    <path
       transform="matrix(3.7795,0,0,3.7795,-789.9,657.68)"
       d="m 241.87,-169.83 -3.8e-4,-0.0106 -0.001,-0.0106 -0.002,-0.0105 -0.003,-0.0105 -0.003,-0.0104 -0.004,-0.0102 -0.005,-0.0101 -0.012,-0.02 -0.007,-0.009 -0.016,-0.018 -0.009,-0.009 -0.009,-0.008 -0.01,-0.008 -0.0105,-0.008 -0.011,-0.007 -0.0115,-0.007 -0.012,-0.006 -0.0124,-0.006 -0.0128,-0.006 -0.0132,-0.005 -0.0135,-0.005 -0.0138,-0.004 -0.0141,-0.004 -0.0143,-0.003 -0.0146,-0.003 -0.0147,-0.002 -0.0148,-0.002 -0.014,-9.7e-4"
       id="path3168" />
    <path
       transform="matrix(3.7795,0,0,3.7795,-789.9,657.68)"
       d="m 241.87,-170.12 -3.8e-4,-0.0106 -0.001,-0.0106 -0.002,-0.0105 -0.003,-0.0105 -0.003,-0.0104 -0.004,-0.0102 -0.005,-0.0101 -0.012,-0.02 -0.007,-0.009 -0.016,-0.018 -0.009,-0.009 -0.009,-0.008 -0.01,-0.008 -0.0105,-0.008 -0.011,-0.007 -0.0115,-0.007 -0.012,-0.006 -0.0124,-0.006 -0.0128,-0.006 -0.0132,-0.005 -0.0135,-0.005 -0.0138,-0.004 -0.0141,-0.004 -0.0143,-0.003 -0.0146,-0.003 -0.0147,-0.002 -0.0148,-0.002 -0.014,-9.7e-4"
       id="path3170" />
    <path
       transform="matrix(3.7795,0,0,3.7795,-789.9,657.68)"
       d="m 220.97,-165.04 h -1.3"
       id="path3172" />
    <path
       transform="matrix(3.7795,0,0,3.7795,-789.9,657.68)"
       d="m 219.67,-168.64 -0.015,6e-5 -0.0149,1.8e-4 -0.0149,3e-4 -0.0148,4.2e-4 -0.0146,5.4e-4 -0.0144,6.6e-4 -0.0142,7.7e-4 -0.014,8.8e-4 -0.0137,0.001 -0.0133,0.001 -0.013,10e-4 -0.0126,0.001 -0.0122,0.001 -0.0117,0.001 -0.0112,0.002 -0.0107,0.002 -0.0102,0.002 -0.01,0.002 -0.009,0.002 -0.016,0.004 -0.007,0.002 -0.012,0.004 -0.005,0.002 -0.008,0.004 -0.003,0.002 -0.002,0.002 -0.001,0.002 -6.9e-4,0.002 -6e-5,0.001"
       id="path3174" />
    <path
       transform="matrix(3.7795,0,0,3.7795,-789.9,657.68)"
       d="m 219.67,-168.64 v -0.41954"
       id="path3176" />
    <path
       transform="matrix(3.7795,0,0,3.7795,-789.9,657.68)"
       d="m 234.87,-170.39 -6.5,-0.34105"
       id="path3178" />
    <path
       transform="matrix(3.7795,0,0,3.7795,-789.9,657.68)"
       d="m 226.77,-168.64 h -1.65"
       id="path3180" />
    <path
       transform="matrix(3.7795,0,0,3.7795,-789.9,657.68)"
       d="m 219.67,-165.04 v -3.6"
       id="path3182" />
    <path
       transform="matrix(3.7795,0,0,3.7795,-789.9,657.68)"
       d="m 222.82,-168.64 h -1.85"
       id="path3184" />
    <path
       transform="matrix(3.7795,0,0,3.7795,-789.9,657.68)"
       d="m 225.12,-168.65 -1.9e-4,-0.001 -5.6e-4,-10e-4 -9.4e-4,-0.001 -0.001,-0.001 -0.006,-0.003 -0.009,-0.003 -0.008,-0.002 -0.004,-9.8e-4 -0.005,-9.4e-4 -0.005,-9.1e-4 -0.005,-8.6e-4 -0.006,-8.2e-4 -0.006,-7.7e-4 -0.006,-7.3e-4 -0.006,-6.8e-4 -0.006,-6.2e-4 -0.007,-5.8e-4 -0.007,-5.2e-4 -0.007,-4.6e-4 -0.007,-4.1e-4 -0.007,-3.5e-4 -0.007,-3e-4 -0.007,-2.3e-4 -0.007,-1.8e-4 -0.007,-1.1e-4 -0.007,-6e-5 -0.007,10e-6 -0.007,6e-5 -0.007,1.3e-4 -0.007,1.8e-4 -0.007,2.5e-4 -0.007,3e-4 -0.007,3.6e-4 -0.007,4.2e-4 -0.007,4.8e-4 -0.007,5.3e-4 -0.007,5.8e-4 -0.006,6.3e-4 -0.006,6.9e-4 -0.006,7.3e-4 -0.006,7.9e-4 -0.005,8.2e-4 -0.005,8.7e-4 -0.005,9.1e-4 -0.005,9.5e-4 -0.004,9.8e-4 -0.008,0.002 -0.009,0.003 -0.006,0.003 -0.001,0.001 -8.7e-4,0.001 -5e-4,0.001 -1.3e-4,10e-4"
       id="path3186" />
    <path
       transform="matrix(3.7795,0,0,3.7795,-789.9,657.68)"
       d="m 226.77,-162.8 h 1.6"
       id="path3188" />
    <path
       transform="matrix(3.7795,0,0,3.7795,-789.9,657.68)"
       d="m 226.77,-170.73 h 1.6"
       id="path3190" />
    <path
       transform="matrix(3.7795,0,0,3.7795,-789.9,657.68)"
       d="m 241.87,-163.41 -3.8e-4,0.0106 -0.001,0.0106 -0.002,0.0105 -0.003,0.0105 -0.003,0.0104 -0.004,0.0102 -0.005,0.0101 -0.012,0.02 -0.007,0.009 -0.016,0.018 -0.009,0.009 -0.009,0.008 -0.01,0.008 -0.0105,0.008 -0.011,0.007 -0.0115,0.007 -0.012,0.006 -0.0124,0.006 -0.0128,0.006 -0.0132,0.005 -0.0135,0.005 -0.0138,0.004 -0.0141,0.004 -0.0143,0.003 -0.0146,0.003 -0.0147,0.002 -0.0148,0.002 -0.014,9.7e-4"
       id="path3192" />
    <path
       transform="matrix(-3.7795,0,0,3.7795,1405.9279,657.68)"
       d="m 226.77,-169.06 h -1.65"
       id="path3194" />
    <path
       transform="matrix(-3.7795,0,0,3.7795,1405.9279,657.68)"
       d="m 230.15,-171.18 -0.72119,-0.0534"
       id="path3196" />
    <path
       transform="matrix(-3.7795,0,0,3.7795,1405.9279,657.68)"
       d="m 235.87,-166.76 h -1"
       id="path3198" />
    <path
       transform="matrix(-3.7795,0,0,3.7795,1405.9279,657.68)"
       d="m 241.87,-170.1 v 6.6569"
       id="path3200" />
    <path
       transform="matrix(-3.7795,0,0,3.7795,1405.9279,657.68)"
       d="m 230.87,-171.28 -0.72021,-0.0533"
       id="path3202" />
    <path
       transform="matrix(-3.7795,0,0,3.7795,1405.9279,657.68)"
       d="m 225.12,-169.11 a 0.15,0.15 0 0 0 -0.3,0"
       id="path3204" />
    <path
       transform="matrix(-3.7795,0,0,3.7795,1405.9279,657.68)"
       d="m 235.87,-170.34 v 3.5731"
       id="path3206" />
    <path
       transform="matrix(-3.7795,0,0,3.7795,1405.9279,657.68)"
       d="m 241.6,-170.04 v 3.2582 c 0,1.0353 -1e-5,2.0731 -1e-5,2.8814 v 0.36295 c 0,0.11527 -7e-5,0.26437 -7.1e-4,0.31294 -3.1e-4,0.0243 -8.3e-4,0.0264 -3.8e-4,0.0268 4.5e-4,4e-4 7.7e-4,6.8e-4 9.4e-4,8.4e-4 1.1e-4,1.1e-4 1.7e-4,1.6e-4 1.9e-4,1.9e-4"
       id="path3208" />
    <path
       transform="matrix(-3.7795,0,0,3.7795,1405.9279,657.68)"
       d="m 241.6,-170.34 c 9e-5,-9e-5 -4e-5,3e-5 -4e-5,3e-5 0,0 2.8e-4,-2.4e-4 -2.6e-4,2.5e-4 -2.7e-4,2.5e-4 -7.5e-4,6.8e-4 -0.001,0.001 -6.8e-4,6.2e-4 7.4e-4,0.0174 0.001,0.0633 3.9e-4,0.0507 5.9e-4,0.13085 5.9e-4,0.2328"
       id="path3210" />
    <path
       transform="matrix(-3.7795,0,0,3.7795,1405.9279,657.68)"
       d="m 231.87,-166.76 h 1"
       id="path3212" />
    <path
       transform="matrix(-3.7795,0,0,3.7795,1405.9279,657.68)"
       d="m 220.97,-164.46 h -1.3"
       id="path3214" />
    <path
       transform="matrix(-3.7795,0,0,3.7795,1405.9279,657.68)"
       d="m 228.37,-162.8 v 0.58333"
       id="path3216" />
    <path
       transform="matrix(-3.7795,0,0,3.7795,1405.9279,657.68)"
       d="m 222.82,-165.05 v 0.6385"
       id="path3218" />
    <path
       transform="matrix(-3.7795,0,0,3.7795,1405.9279,657.68)"
       d="m 222.82,-164.46 h -1.85"
       id="path3220" />
    <path
       transform="matrix(-3.7795,0,0,3.7795,1405.9279,657.68)"
       d="m 234.87,-166.76 v -3.6243"
       id="path3222" />
    <path
       transform="matrix(-3.7795,0,0,3.7795,1405.9279,657.68)"
       d="m 234.87,-170.39 v -0.44423"
       id="path3224" />
    <path
       transform="matrix(-3.7795,0,0,3.7795,1405.9279,657.68)"
       d="m 223.12,-168.65 v -0.4615"
       id="path3226" />
    <path
       transform="matrix(-3.7795,0,0,3.7795,1405.9279,657.68)"
       d="m 231.11,-171.11 -1.9092,-0.14142"
       id="path3228" />
    <path
       transform="matrix(-3.7795,0,0,3.7795,1405.9279,657.68)"
       d="m 235.87,-170.76 v 0.42127"
       id="path3230" />
    <path
       transform="matrix(-3.7795,0,0,3.7795,1405.9279,657.68)"
       d="m 225.12,-164.41 v -0.6385"
       id="path3232" />
    <path
       transform="matrix(-3.7795,0,0,3.7795,1405.9279,657.68)"
       d="m 231.14,-171.11 -0.26612,-0.0197"
       id="path3234" />
    <path
       transform="matrix(-3.7795,0,0,3.7795,1405.9279,657.68)"
       d="m 219.37,-165 v 0.23218"
       id="path3236" />
    <path
       transform="matrix(-3.7795,0,0,3.7795,1405.9279,657.68)"
       d="m 238.87,-166.76 v 3.7722"
       id="path3238" />
    <path
       transform="matrix(-3.7795,0,0,3.7795,1405.9279,657.68)"
       d="m 224.82,-165.05 v 0.6385"
       id="path3240" />
    <path
       transform="matrix(-3.7795,0,0,3.7795,1405.9279,657.68)"
       d="m 224.82,-168.65 v 3.6"
       id="path3242" />
    <path
       transform="matrix(-3.7795,0,0,3.7795,1405.9279,657.68)"
       d="m 232.87,-166.76 v 4.2167"
       id="path3244" />
    <path
       transform="matrix(-3.7795,0,0,3.7795,1405.9279,657.68)"
       d="m 237.87,-166.76 h 1"
       id="path3246" />
    <path
       transform="matrix(-3.7795,0,0,3.7795,1405.9279,657.68)"
       d="m 219.37,-168.6 v 3.6"
       id="path3248" />
    <path
       transform="matrix(-3.7795,0,0,3.7795,1405.9279,657.68)"
       d="m 226.77,-164.46 h -1.65"
       id="path3250" />
    <path
       transform="matrix(-3.7795,0,0,3.7795,1405.9279,657.68)"
       d="m 222.82,-169.06 h -1.85"
       id="path3252" />
    <path
       transform="matrix(-3.7795,0,0,3.7795,1405.9279,657.68)"
       d="m 219.37,-164.76 a 0.3,0.3 0 0 0 0.3,0.3"
       id="path3254" />
    <path
       transform="matrix(-3.7795,0,0,3.7795,1405.9279,657.68)"
       d="m 224.82,-169.11 v 0.4615"
       id="path3256" />
    <path
       transform="matrix(-3.7795,0,0,3.7795,1405.9279,657.68)"
       d="m 235.37,-170.8 -0.5,-0.037"
       id="path3258" />
    <path
       transform="matrix(-3.7795,0,0,3.7795,1405.9279,657.68)"
       d="m 225.12,-165.05 v -3.6"
       id="path3260" />
    <path
       transform="matrix(-3.7795,0,0,3.7795,1405.9279,657.68)"
       d="m 222.82,-169.11 v 0.4615"
       id="path3262" />
    <path
       transform="matrix(-3.7795,0,0,3.7795,1405.9279,657.68)"
       d="m 223.12,-169.11 a 0.15,0.15 0 0 0 -0.3,0"
       id="path3264" />
    <path
       transform="matrix(-3.7795,0,0,3.7795,1405.9279,657.68)"
       d="m 222.82,-164.41 a 0.15,0.15 0 0 0 0.3,0"
       id="path3266" />
    <path
       transform="matrix(-3.7795,0,0,3.7795,1405.9279,657.68)"
       d="m 237.87,-162.92 v -3.8493"
       id="path3268" />
    <path
       transform="matrix(-3.7795,0,0,3.7795,1405.9279,657.68)"
       d="m 231.88,-162.51 v -4.236"
       id="path3270" />
    <path
       transform="matrix(-3.7795,0,0,3.7795,1405.9279,657.68)"
       d="m 229.17,-171.41 v 0.15042"
       id="path3272" />
    <path
       transform="matrix(-3.7795,0,0,3.7795,1405.9279,657.68)"
       d="m 223.12,-165.05 v -3.6"
       id="path3274" />
    <path
       transform="matrix(-3.7795,0,0,3.7795,1405.9279,657.68)"
       d="m 231.14,-171.26 -0.26612,-0.0197"
       id="path3276" />
    <path
       transform="matrix(-3.7795,0,0,3.7795,1405.9279,657.68)"
       d="m 224.82,-164.41 a 0.15,0.15 0 0 0 0.3,0"
       id="path3278" />
    <path
       transform="matrix(-3.7795,0,0,3.7795,1405.9279,657.68)"
       d="m 229.43,-171.24 -0.26612,-0.0197"
       id="path3280" />
    <path
       transform="matrix(-3.7795,0,0,3.7795,1405.9279,657.68)"
       d="m 224.82,-164.46 h -1.7"
       id="path3282" />
    <path
       transform="matrix(-3.7795,0,0,3.7795,1405.9279,657.68)"
       d="m 224.82,-169.06 h -1.7"
       id="path3284" />
    <path
       transform="matrix(-3.7795,0,0,3.7795,1405.9279,657.68)"
       d="m 231.11,-171.11 -1.502,-0.11125"
       id="path3286" />
    <path
       transform="matrix(-3.7795,0,0,3.7795,1405.9279,657.68)"
       d="m 219.67,-169.06 a 0.3,0.3 0 0 0 -0.3,0.3"
       id="path3288" />
    <path
       transform="matrix(-3.7795,0,0,3.7795,1405.9279,657.68)"
       d="m 230.87,-171.13 -0.72021,-0.0533"
       id="path3290" />
    <path
       transform="matrix(-3.7795,0,0,3.7795,1405.9279,657.68)"
       d="m 231.14,-171.26 v 0.15041"
       id="path3292" />
    <path
       transform="matrix(-3.7795,0,0,3.7795,1405.9279,657.68)"
       d="m 220.97,-169.06 h -1.3"
       id="path3294" />
    <path
       transform="matrix(-3.7795,0,0,3.7795,1405.9279,657.68)"
       d="m 223.12,-164.41 v -0.6385"
       id="path3296" />
    <path
       transform="matrix(-3.7795,0,0,3.7795,1405.9279,657.68)"
       d="m 229.71,-171.22 -0.19336,-0.0143"
       id="path3298" />
    <path
       transform="matrix(-3.7795,0,0,3.7795,1405.9279,657.68)"
       d="m 219.37,-168.76 v 0.16782"
       id="path3300" />
    <path
       transform="matrix(-3.7795,0,0,3.7795,1405.9279,657.68)"
       d="m 235.87,-170.76 -0.5,-0.037"
       id="path3302" />
    <path
       transform="matrix(-3.7795,0,0,3.7795,1405.9279,657.68)"
       d="m 222.82,-168.65 v 3.6"
       id="path3304" />
    <path
       transform="matrix(-3.7795,0,0,3.7795,1405.9279,657.68)"
       d="m 241.6,-170.04 v 1.5e-4"
       id="path3306" />
    <path
       transform="matrix(-3.7795,0,0,3.7795,1405.9279,657.68)"
       d="m 230.15,-171.33 -0.72119,-0.0534"
       id="path3308" />
    <path
       transform="matrix(-3.7795,0,0,3.7795,1405.9279,657.68)"
       d="m 225.12,-168.65 v -0.4615"
       id="path3310" />
    <path
       transform="matrix(-3.7795,0,0,3.7795,1405.9279,657.68)"
       d="m 229.43,-171.39 -0.26612,-0.0197"
       id="path3312" />
    <path
       transform="matrix(-3.7795,0,0,3.7795,1405.9279,657.68)"
       d="m 241.59,-163.19 -13.212,0.97918"
       id="path3314" />
    <path
       transform="matrix(-3.7795,0,0,3.7795,1405.9279,657.68)"
       d="m 228.37,-171.31 0.79183,0.0587"
       id="path3316" />
    <path
       transform="matrix(-3.7795,0,0,3.7795,1405.9279,657.68)"
       d="m 231.14,-171.11 10.464,0.77509"
       id="path3318" />
    <path
       transform="matrix(-3.7795,0,0,3.7795,1405.9279,657.68)"
       d="m 231.87,-165.04 h 1"
       id="path3320" />
    <path
       transform="matrix(-3.7795,0,0,3.7795,1405.9279,657.68)"
       d="m 237.87,-165.04 h 1"
       id="path3322" />
    <path
       transform="matrix(-3.7795,0,0,3.7795,1405.9279,657.68)"
       d="m 235.87,-166.97 h -1"
       id="path3324" />
    <path
       transform="matrix(-3.7795,0,0,3.7795,1405.9279,657.68)"
       d="m 235.87,-168.49 h -1"
       id="path3326" />
    <path
       transform="matrix(-3.7795,0,0,3.7795,1405.9279,657.68)"
       d="m 228.37,-162.21 v -0.58333"
       id="path3328" />
    <path
       transform="matrix(-3.7795,0,0,3.7795,1405.9279,657.68)"
       d="m 226.77,-162.8 v 0.58333"
       id="path3330" />
    <path
       transform="matrix(-3.7795,0,0,3.7795,1405.9279,657.68)"
       d="m 228.37,-162.8 v -7.9333"
       id="path3332" />
    <path
       transform="matrix(-3.7795,0,0,3.7795,1405.9279,657.68)"
       d="m 226.77,-162.21 h 1.6"
       id="path3334" />
    <path
       transform="matrix(-3.7795,0,0,3.7795,1405.9279,657.68)"
       d="m 226.77,-171.31 h 1.6"
       id="path3336" />
    <path
       transform="matrix(-3.7795,0,0,3.7795,1405.9279,657.68)"
       d="m 226.77,-171.31 v 0.58333"
       id="path3338" />
    <path
       transform="matrix(-3.7795,0,0,3.7795,1405.9279,657.68)"
       d="m 226.77,-170.73 v 7.9333"
       id="path3340" />
    <path
       transform="matrix(-3.7795,0,0,3.7795,1405.9279,657.68)"
       d="m 228.37,-170.73 v -0.58333"
       id="path3342" />
    <path
       transform="matrix(-3.7795,0,0,3.7795,1405.9279,657.68)"
       d="m 219.67,-164.46 v -0.58046"
       id="path3344" />
    <path
       transform="matrix(-3.7795,0,0,3.7795,1405.9279,657.68)"
       d="m 230.15,-171.33 v 0.15041"
       id="path3346" />
    <path
       transform="matrix(-3.7795,0,0,3.7795,1405.9279,657.68)"
       d="m 223.12,-168.65 -1.9e-4,-0.001 -5.6e-4,-10e-4 -9.4e-4,-0.001 -0.001,-0.001 -0.006,-0.003 -0.009,-0.003 -0.008,-0.002 -0.004,-9.8e-4 -0.005,-9.4e-4 -0.005,-9.1e-4 -0.005,-8.6e-4 -0.006,-8.2e-4 -0.006,-7.7e-4 -0.006,-7.3e-4 -0.006,-6.8e-4 -0.006,-6.2e-4 -0.007,-5.8e-4 -0.007,-5.2e-4 -0.007,-4.6e-4 -0.007,-4.1e-4 -0.007,-3.5e-4 -0.007,-3e-4 -0.007,-2.3e-4 -0.007,-1.8e-4 -0.007,-1.1e-4 -0.007,-6e-5 -0.007,10e-6 -0.007,6e-5 -0.007,1.3e-4 -0.007,1.8e-4 -0.007,2.5e-4 -0.007,3e-4 -0.007,3.6e-4 -0.007,4.2e-4 -0.007,4.8e-4 -0.007,5.3e-4 -0.007,5.8e-4 -0.006,6.3e-4 -0.006,6.9e-4 -0.006,7.3e-4 -0.006,7.9e-4 -0.005,8.2e-4 -0.005,8.7e-4 -0.005,9.1e-4 -0.005,9.5e-4 -0.004,9.8e-4 -0.008,0.002 -0.009,0.003 -0.006,0.003 -0.001,0.001 -8.7e-4,0.001 -5e-4,0.001 -1.3e-4,10e-4"
       id="path3348" />
    <path
       transform="matrix(-3.7795,0,0,3.7795,1405.9279,657.68)"
       d="m 225.12,-165.05 -1.9e-4,-10e-4 -5.6e-4,-0.001 -9.4e-4,-0.001 -0.001,-0.001 -0.006,-0.003 -0.009,-0.003 -0.008,-0.002 -0.004,-9.8e-4 -0.005,-9.4e-4 -0.005,-9.1e-4 -0.005,-8.6e-4 -0.006,-8.2e-4 -0.006,-7.7e-4 -0.006,-7.3e-4 -0.006,-6.8e-4 -0.006,-6.2e-4 -0.007,-5.8e-4 -0.007,-5.2e-4 -0.007,-4.6e-4 -0.007,-4.1e-4 -0.007,-3.5e-4 -0.007,-3e-4 -0.007,-2.3e-4 -0.007,-1.8e-4 -0.007,-1.1e-4 -0.007,-6e-5 -0.007,1e-5 -0.007,6e-5 -0.007,1.3e-4 -0.007,1.8e-4 -0.007,2.5e-4 -0.007,3e-4 -0.007,3.6e-4 -0.007,4.2e-4 -0.007,4.8e-4 -0.007,5.3e-4 -0.007,5.8e-4 -0.006,6.3e-4 -0.006,6.9e-4 -0.006,7.3e-4 -0.006,7.9e-4 -0.005,8.2e-4 -0.005,8.7e-4 -0.005,9.1e-4 -0.005,9.5e-4 -0.004,9.8e-4 -0.008,0.002 -0.009,0.003 -0.006,0.003 -0.001,0.001 -8.7e-4,0.001 -5e-4,0.001 -1.3e-4,0.001"
       id="path3350" />
    <path
       transform="matrix(-3.7795,0,0,3.7795,1405.9279,657.68)"
       d="m 224.82,-165.04 h -1.7"
       id="path3352" />
    <path
       transform="matrix(-3.7795,0,0,3.7795,1405.9279,657.68)"
       d="m 229.43,-171.39 v 0.15041"
       id="path3354" />
    <path
       transform="matrix(-3.7795,0,0,3.7795,1405.9279,657.68)"
       d="m 223.12,-165.05 -1.9e-4,-10e-4 -5.6e-4,-0.001 -9.4e-4,-0.001 -0.001,-0.001 -0.006,-0.003 -0.009,-0.003 -0.008,-0.002 -0.004,-9.8e-4 -0.005,-9.4e-4 -0.005,-9.1e-4 -0.005,-8.6e-4 -0.006,-8.2e-4 -0.006,-7.7e-4 -0.006,-7.3e-4 -0.006,-6.8e-4 -0.006,-6.2e-4 -0.007,-5.8e-4 -0.007,-5.2e-4 -0.007,-4.6e-4 -0.007,-4.1e-4 -0.007,-3.5e-4 -0.007,-3e-4 -0.007,-2.3e-4 -0.007,-1.8e-4 -0.007,-1.1e-4 -0.007,-6e-5 -0.007,1e-5 -0.007,6e-5 -0.007,1.3e-4 -0.007,1.8e-4 -0.007,2.5e-4 -0.007,3e-4 -0.007,3.6e-4 -0.007,4.2e-4 -0.007,4.8e-4 -0.007,5.3e-4 -0.007,5.8e-4 -0.006,6.3e-4 -0.006,6.9e-4 -0.006,7.3e-4 -0.006,7.9e-4 -0.005,8.2e-4 -0.005,8.7e-4 -0.005,9.1e-4 -0.005,9.5e-4 -0.004,9.8e-4 -0.008,0.002 -0.009,0.003 -0.006,0.003 -0.001,0.001 -8.7e-4,0.001 -5e-4,0.001 -1.3e-4,0.001"
       id="path3356" />
    <path
       transform="matrix(-3.7795,0,0,3.7795,1405.9279,657.68)"
       d="m 220.97,-168.64 h -1.3"
       id="path3358" />
    <path
       transform="matrix(-3.7795,0,0,3.7795,1405.9279,657.68)"
       d="m 241.6,-170.04 -5.7222,-0.30024"
       id="path3360" />
    <path
       transform="matrix(-3.7795,0,0,3.7795,1405.9279,657.68)"
       d="m 224.82,-168.64 h -1.7"
       id="path3362" />
    <path
       transform="matrix(-3.7795,0,0,3.7795,1405.9279,657.68)"
       d="m 222.82,-165.04 h -1.85"
       id="path3364" />
    <path
       transform="matrix(-3.7795,0,0,3.7795,1405.9279,657.68)"
       d="m 219.67,-165.04 -0.015,6e-5 -0.0149,1.8e-4 -0.0149,3e-4 -0.0148,4.2e-4 -0.0146,5.4e-4 -0.0144,6.6e-4 -0.0142,7.7e-4 -0.014,8.8e-4 -0.0137,0.001 -0.0133,0.001 -0.013,0.001 -0.0126,10e-4 -0.0122,0.001 -0.0117,0.001 -0.0112,0.002 -0.0107,0.002 -0.0102,0.002 -0.01,0.002 -0.009,0.002 -0.016,0.004 -0.007,0.002 -0.012,0.004 -0.005,0.002 -0.008,0.004 -0.003,0.002 -0.002,0.002 -0.001,0.002 -6.9e-4,0.002 -6e-5,0.001"
       id="path3366" />
    <path
       transform="matrix(-3.7795,0,0,3.7795,1405.9279,657.68)"
       d="m 226.77,-165.04 h -1.65"
       id="path3368" />
    <path
       transform="matrix(-3.7795,0,0,3.7795,1405.9279,657.68)"
       d="m 230.87,-171.28 v 0.15041"
       id="path3370" />
    <path
       transform="matrix(-3.7795,0,0,3.7795,1405.9279,657.68)"
       d="m 241.87,-169.83 -3.8e-4,-0.0106 -0.001,-0.0106 -0.002,-0.0105 -0.003,-0.0105 -0.003,-0.0104 -0.004,-0.0102 -0.005,-0.0101 -0.012,-0.02 -0.007,-0.009 -0.016,-0.018 -0.009,-0.009 -0.009,-0.008 -0.01,-0.008 -0.0105,-0.008 -0.011,-0.007 -0.0115,-0.007 -0.012,-0.006 -0.0124,-0.006 -0.0128,-0.006 -0.0132,-0.005 -0.0135,-0.005 -0.0138,-0.004 -0.0141,-0.004 -0.0143,-0.003 -0.0146,-0.003 -0.0147,-0.002 -0.0148,-0.002 -0.014,-9.7e-4"
       id="path3372" />
    <path
       transform="matrix(-3.7795,0,0,3.7795,1405.9279,657.68)"
       d="m 241.87,-170.12 -3.8e-4,-0.0106 -0.001,-0.0106 -0.002,-0.0105 -0.003,-0.0105 -0.003,-0.0104 -0.004,-0.0102 -0.005,-0.0101 -0.012,-0.02 -0.007,-0.009 -0.016,-0.018 -0.009,-0.009 -0.009,-0.008 -0.01,-0.008 -0.0105,-0.008 -0.011,-0.007 -0.0115,-0.007 -0.012,-0.006 -0.0124,-0.006 -0.0128,-0.006 -0.0132,-0.005 -0.0135,-0.005 -0.0138,-0.004 -0.0141,-0.004 -0.0143,-0.003 -0.0146,-0.003 -0.0147,-0.002 -0.0148,-0.002 -0.014,-9.7e-4"
       id="path3374" />
    <path
       transform="matrix(-3.7795,0,0,3.7795,1405.9279,657.68)"
       d="m 220.97,-165.04 h -1.3"
       id="path3376" />
    <path
       transform="matrix(-3.7795,0,0,3.7795,1405.9279,657.68)"
       d="m 219.67,-168.64 -0.015,6e-5 -0.0149,1.8e-4 -0.0149,3e-4 -0.0148,4.2e-4 -0.0146,5.4e-4 -0.0144,6.6e-4 -0.0142,7.7e-4 -0.014,8.8e-4 -0.0137,0.001 -0.0133,0.001 -0.013,10e-4 -0.0126,0.001 -0.0122,0.001 -0.0117,0.001 -0.0112,0.002 -0.0107,0.002 -0.0102,0.002 -0.01,0.002 -0.009,0.002 -0.016,0.004 -0.007,0.002 -0.012,0.004 -0.005,0.002 -0.008,0.004 -0.003,0.002 -0.002,0.002 -0.001,0.002 -6.9e-4,0.002 -6e-5,0.001"
       id="path3378" />
    <path
       transform="matrix(-3.7795,0,0,3.7795,1405.9279,657.68)"
       d="m 219.67,-168.64 v -0.41954"
       id="path3380" />
    <path
       transform="matrix(-3.7795,0,0,3.7795,1405.9279,657.68)"
       d="m 234.87,-170.39 -6.5,-0.34105"
       id="path3382" />
    <path
       transform="matrix(-3.7795,0,0,3.7795,1405.9279,657.68)"
       d="m 226.77,-168.64 h -1.65"
       id="path3384" />
    <path
       transform="matrix(-3.7795,0,0,3.7795,1405.9279,657.68)"
       d="m 219.67,-165.04 v -3.6"
       id="path3386" />
    <path
       transform="matrix(-3.7795,0,0,3.7795,1405.9279,657.68)"
       d="m 222.82,-168.64 h -1.85"
       id="path3388" />
    <path
       transform="matrix(-3.7795,0,0,3.7795,1405.9279,657.68)"
       d="m 225.12,-168.65 -1.9e-4,-0.001 -5.6e-4,-10e-4 -9.4e-4,-0.001 -0.001,-0.001 -0.006,-0.003 -0.009,-0.003 -0.008,-0.002 -0.004,-9.8e-4 -0.005,-9.4e-4 -0.005,-9.1e-4 -0.005,-8.6e-4 -0.006,-8.2e-4 -0.006,-7.7e-4 -0.006,-7.3e-4 -0.006,-6.8e-4 -0.006,-6.2e-4 -0.007,-5.8e-4 -0.007,-5.2e-4 -0.007,-4.6e-4 -0.007,-4.1e-4 -0.007,-3.5e-4 -0.007,-3e-4 -0.007,-2.3e-4 -0.007,-1.8e-4 -0.007,-1.1e-4 -0.007,-6e-5 -0.007,10e-6 -0.007,6e-5 -0.007,1.3e-4 -0.007,1.8e-4 -0.007,2.5e-4 -0.007,3e-4 -0.007,3.6e-4 -0.007,4.2e-4 -0.007,4.8e-4 -0.007,5.3e-4 -0.007,5.8e-4 -0.006,6.3e-4 -0.006,6.9e-4 -0.006,7.3e-4 -0.006,7.9e-4 -0.005,8.2e-4 -0.005,8.7e-4 -0.005,9.1e-4 -0.005,9.5e-4 -0.004,9.8e-4 -0.008,0.002 -0.009,0.003 -0.006,0.003 -0.001,0.001 -8.7e-4,0.001 -5e-4,0.001 -1.3e-4,10e-4"
       id="path3390" />
    <path
       transform="matrix(-3.7795,0,0,3.7795,1405.9279,657.68)"
       d="m 226.77,-162.8 h 1.6"
       id="path3392" />
    <path
       transform="matrix(-3.7795,0,0,3.7795,1405.9279,657.68)"
       d="m 226.77,-170.73 h 1.6"
       id="path3394" />
    <path
       transform="matrix(-3.7795,0,0,3.7795,1405.9279,657.68)"
       d="m 241.87,-163.41 -3.8e-4,0.0106 -0.001,0.0106 -0.002,0.0105 -0.003,0.0105 -0.003,0.0104 -0.004,0.0102 -0.005,0.0101 -0.012,0.02 -0.007,0.009 -0.016,0.018 -0.009,0.009 -0.009,0.008 -0.01,0.008 -0.0105,0.008 -0.011,0.007 -0.0115,0.007 -0.012,0.006 -0.0124,0.006 -0.0128,0.006 -0.0132,0.005 -0.0135,0.005 -0.0138,0.004 -0.0141,0.004 -0.0143,0.003 -0.0146,0.003 -0.0147,0.002 -0.0148,0.002 -0.014,9.7e-4"
       id="path3396" />
  </g>
  <path
     transform="matrix(0.99997,0,0,0.99997,180.24911,-200.75088)"
     d="m 273.47,198.92 h 24.781 l -32.709,84.795 h -24.781 z"
     fill="#ffffff"
     stroke="#000000"
     stroke-miterlimit="0"
     id="path3400" />
  <rect
     transform="matrix(0.44871,0,0,0.99997,340.37911,-200.75088)"
     x="251.5"
     y="195.92"
     width="60.713001"
     height="4.8369002"
     fill="#ffffff"
     stroke-width="1.4928"
     id="rect3402" />
  <rect
     transform="matrix(0.4736,0,0,0.99997,301.87911,-115.35488)"
     x="251.5"
     y="195.92"
     width="60.713001"
     height="4.8369002"
     fill="#ffffff"
     stroke-width="1.4531"
     id="rect3498" />
  <g
     transform="matrix(6.0516,0,0,-6.0582,-1277.7101,-835.57434)"
     fill="none"
     stroke="#000000"
     stroke-linecap="round"
     stroke-linejoin="round"
     stroke-width="0.093632"
     id="g3666">
    <path
       d="m 353.27,-171.4 v 0.0894"
       id="path3506" />
    <path
       d="m 350.96,-164.46 h 6.8238"
       id="path3508" />
    <path
       d="m 354.15,-171.41 v 0.0918"
       id="path3510" />
    <path
       d="m 357.78,-164.46 a 0.5,0.5 0 0 0 0.49348,-0.58046"
       id="path3512" />
    <path
       d="m 351.05,-168.64 -0.58696,3.6"
       id="path3514" />
    <circle
       transform="scale(1,-1)"
       cx="356.22"
       cy="166.75999"
       r="0.55000001"
       id="circle3516" />
    <path
       d="m 354.67,-171.38 c -0.0703,0 -0.14305,-4.7e-4 -0.21105,-0.002 -0.0515,-0.001 -0.10116,-0.003 -0.14516,-0.005 -0.0395,-0.002 -0.0725,-0.004 -0.0986,-0.007 -0.0311,-0.004 -0.0501,-0.007 -0.0609,-0.0116"
       id="path3518" />
    <path
       d="m 356.77,-171.33 v 0.0186"
       id="path3520" />
    <path
       d="m 358.33,-170.73 c 0.78057,0.77787 1.3238,1.7921 1.5386,2.8718 0.21488,1.0796 0.10143,2.2246 -0.31981,3.2424 -0.28082,0.67855 -0.69844,1.3006 -1.2188,1.8192"
       id="path3522" />
    <path
       d="m 350.42,-162.8 c -0.52038,-0.51858 -0.93727,-1.1408 -1.2189,-1.8192 -0.28167,-0.67839 -0.42812,-1.413 -0.42812,-2.1475 0,-0.73457 0.14646,-1.4691 0.42813,-2.1475 0.28167,-0.67837 0.69855,-1.3006 1.2189,-1.8191 0.37007,-0.36878 0.88932,-0.58333 1.4118,-0.58333"
       id="path3524" />
    <path
       d="m 356.91,-171.31 c 0.52244,0 1.0417,0.21455 1.4118,0.58333"
       id="path3526" />
    <path
       d="m 351.98,-171.4 v 0.0894"
       id="path3528" />
    <path
       d="m 354.67,-171.38 v 0.0661"
       id="path3530" />
    <circle
       transform="scale(1,-1)"
       cx="352.51999"
       cy="166.75999"
       r="0.80000001"
       id="circle3532" />
    <path
       d="m 354.15,-171.41 h -0.18847"
       id="path3534" />
    <path
       d="m 353.27,-171.4 h -1.2881"
       id="path3536" />
    <path
       d="m 357.69,-168.64 a 0.5,0.5 0 0 0 -0.49348,-0.41954"
       id="path3538" />
    <path
       d="m 351.55,-169.06 a 0.5,0.5 0 0 0 -0.49348,0.41954"
       id="path3540" />
    <path
       d="m 355.1,-171.36 v 0.0465"
       id="path3542" />
    <path
       d="m 358.28,-165.04 -0.58696,-3.6"
       id="path3544" />
    <path
       d="m 357.2,-169.06 h -5.6498"
       id="path3546" />
    <path
       d="m 355.88,-171.41 c -0.0981,0 -0.19536,9.3e-4 -0.2888,0.003 -0.0879,0.002 -0.16841,0.005 -0.24147,0.009"
       id="path3548" />
    <circle
       transform="scale(1,-1)"
       cx="352.51999"
       cy="166.75999"
       r="0.55000001"
       id="circle3550" />
    <path
       d="m 353.96,-171.41 v 0.0918"
       id="path3552" />
    <path
       d="m 356.77,-171.33 c 0,-0.011 -0.0193,-0.0221 -0.0712,-0.0325 -0.0391,-0.008 -0.0951,-0.0148 -0.17051,-0.0209"
       id="path3554" />
    <path
       d="m 350.47,-165.04 a 0.5,0.5 0 0 0 0.49348,0.58046"
       id="path3556" />
    <circle
       transform="scale(1,-1)"
       cx="356.22"
       cy="166.75999"
       r="0.80000001"
       id="circle3558" />
    <path
       d="m 356.52,-171.39 c -0.0395,-0.003 -0.083,-0.006 -0.13097,-0.009 -0.0473,-0.002 -0.0978,-0.005 -0.15144,-0.006 -0.11534,-0.004 -0.23884,-0.005 -0.36359,-0.005"
       id="path3560" />
    <path
       d="m 355.35,-171.39 c -0.0363,0.002 -0.0698,0.004 -0.0998,0.007 -0.0287,0.002 -0.0537,0.005 -0.0745,0.008 -0.0407,0.006 -0.0633,0.0116 -0.0718,0.0179"
       id="path3562" />
    <path
       d="m 357.89,-168.68 a 0.7,0.7 0 0 0 -0.69088,-0.58736"
       id="path3564" />
    <path
       d="m 350.27,-165.08 a 0.7,0.7 0 0 0 0.69087,0.81264"
       id="path3566" />
    <path
       d="m 350.27,-165.08 0.58695,-3.6"
       id="path3568" />
    <path
       d="m 351.55,-169.26 a 0.7,0.7 0 0 0 -0.69088,0.58736"
       id="path3570" />
    <path
       d="m 357.89,-168.68 0.58695,3.6"
       id="path3572" />
    <path
       d="m 357.78,-164.26 h -6.8238"
       id="path3574" />
    <path
       d="m 351.55,-169.26 h 5.6498"
       id="path3576" />
    <path
       d="m 357.78,-164.26 a 0.7,0.7 0 0 0 0.69087,-0.81264"
       id="path3578" />
    <path
       d="m 350.42,-162.8 a 2,2 0 0 0 1.4118,0.58333"
       id="path3580" />
    <path
       d="m 356.91,-162.21 a 2,2 0 0 0 1.4118,-0.58333"
       id="path3582" />
    <path
       d="m 351.83,-171.31 a 2,2 0 0 0 -1.4118,0.58333"
       id="path3584" />
    <path
       d="m 356.91,-171.31 h -5.0823"
       id="path3586" />
    <path
       d="m 350.42,-170.73 a 5.6,5.6 0 0 0 0,7.9333"
       id="path3588" />
    <path
       d="m 351.83,-162.21 h 5.0823"
       id="path3590" />
    <path
       d="m 358.33,-170.73 a 2,2 0 0 0 -1.4118,-0.58333"
       id="path3592" />
    <path
       d="m 358.33,-162.8 a 5.6,5.6 0 0 0 0,-7.9333"
       id="path3594" />
    <path
       d="m 355.35,-171.39 v 0.0793"
       id="path3596" />
    <path
       d="m 350.42,-165.05 a 0.55,0.55 0 0 0 0.54283,0.6385"
       id="path3598" />
    <path
       d="m 350.96,-164.46 v -0.3"
       id="path3600" />
    <path
       d="m 357.89,-168.68 -0.14805,0.0241"
       id="path3602" />
    <path
       d="m 351.55,-169.11 h 5.6498"
       id="path3604" />
    <path
       d="m 357.78,-164.41 a 0.55,0.55 0 0 0 0.54283,-0.6385"
       id="path3606" />
    <path
       d="m 356.52,-171.39 v 0.072"
       id="path3608" />
    <path
       d="m 358.33,-165.05 0.14804,-0.0241"
       id="path3610" />
    <path
       d="m 350.96,-164.41 v 0.15"
       id="path3612" />
    <path
       d="m 350.76,-165 0.58696,-3.6"
       id="path3614" />
    <path
       d="m 351.55,-169.11 a 0.55,0.55 0 0 0 -0.54283,0.4615"
       id="path3616" />
    <path
       d="m 357.98,-165 0.29609,-0.0483"
       id="path3618" />
    <path
       d="m 357.78,-164.76 a 0.2,0.2 0 0 0 0.19739,-0.23218"
       id="path3620" />
    <path
       d="m 351.55,-168.76 v -0.3"
       id="path3622" />
    <path
       d="m 357.78,-164.41 h -6.8238"
       id="path3624" />
    <path
       d="m 357.39,-168.6 0.58696,3.6"
       id="path3626" />
    <path
       d="m 351.55,-169.11 v -0.15"
       id="path3628" />
    <path
       d="m 357.78,-164.46 v -0.3"
       id="path3630" />
    <path
       d="m 351.55,-168.76 h 5.6498"
       id="path3632" />
    <path
       d="m 350.76,-165 a 0.2,0.2 0 0 0 0.19739,0.23218"
       id="path3634" />
    <path
       d="m 357.74,-168.65 a 0.55,0.55 0 0 0 -0.54283,-0.4615"
       id="path3636" />
    <path
       d="m 357.2,-169.11 v -0.15"
       id="path3638" />
    <path
       d="m 357.78,-164.41 v 0.15"
       id="path3640" />
    <path
       d="m 357.39,-168.6 0.29609,-0.0483"
       id="path3642" />
    <path
       d="m 351.05,-168.64 0.29609,0.0483"
       id="path3644" />
    <path
       d="m 350.42,-165.05 0.58696,-3.6"
       id="path3646" />
    <path
       d="m 355.88,-171.41 v 0.0918"
       id="path3648" />
    <path
       d="m 357.78,-164.76 h -6.8238"
       id="path3650" />
    <path
       d="m 350.42,-165.05 -0.14804,-0.0241"
       id="path3652" />
    <path
       d="m 357.2,-168.76 v -0.3"
       id="path3654" />
    <path
       d="m 357.39,-168.6 a 0.2,0.2 0 0 0 -0.19739,-0.16782"
       id="path3656" />
    <path
       d="m 357.74,-168.65 0.58696,3.6"
       id="path3658" />
    <path
       d="m 351.55,-168.76 a 0.2,0.2 0 0 0 -0.19739,0.16782"
       id="path3660" />
    <path
       d="m 350.47,-165.04 0.29609,0.0483"
       id="path3662" />
    <path
       d="m 351,-168.65 -0.14805,-0.0241"
       id="path3664" />
  </g>
</svg>
