<?xml version="1.0" encoding="UTF-8" standalone="no"?>
<svg
   width="794.28754"
   height="262.06241"
   fill="none"
   stroke-linecap="round"
   stroke-linejoin="round"
   version="1.1"
   viewBox="15 -292 210.14747 69.336529"
   id="svg22051"
   sodipodi:docname="desenho DL 120 R.svg"
   inkscape:version="1.2.2 (732a01da63, 2022-12-09)"
   xmlns:inkscape="http://www.inkscape.org/namespaces/inkscape"
   xmlns:sodipodi="http://sodipodi.sourceforge.net/DTD/sodipodi-0.dtd"
   xmlns="http://www.w3.org/2000/svg"
   xmlns:svg="http://www.w3.org/2000/svg">
  <sodipodi:namedview
     id="namedview22053"
     pagecolor="#505050"
     bordercolor="#ffffff"
     borderopacity="1"
     inkscape:showpageshadow="0"
     inkscape:pageopacity="0"
     inkscape:pagecheckerboard="1"
     inkscape:deskcolor="#505050"
     showgrid="false"
     inkscape:zoom="1.1631911"
     inkscape:cx="348.60996"
     inkscape:cy="164.20346"
     inkscape:window-width="1920"
     inkscape:window-height="1009"
     inkscape:window-x="-8"
     inkscape:window-y="-8"
     inkscape:window-maximized="1"
     inkscape:current-layer="svg22051" />
  <defs
     id="defs21681">
    <clipPath
       id="d">
      <path
         d="m 67.666,-280.52 v 0.17827 c 0.0068,-0.002 0.01393,-0.003 0.02215,-0.004 0.0095,-3.7e-4 0.01978,5.7e-4 0.03109,0.003 0.02691,0.005 0.05451,0.002 0.08164,9.8e-4 0.0076,5.6e-4 0.01525,1.8e-4 0.02289,0 -2.51e-4,-0.005 0.0041,-0.01 0.0131,-0.01 h 0.1171 c 0.005,-1.3e-4 0.01004,1.3e-4 0.01505,0 0.0038,0 0.005,-2.5e-4 0.0083,-5e-4 0.0067,-6.5e-4 0.01107,0.002 0.01297,0.005 0.0014,-4e-5 0.0037,-3e-5 0.0098,0 0.0027,10e-6 0.0055,1.9e-4 0.0082,2.5e-4 0.0038,-3e-5 0.0076,10e-6 0.01138,-1.2e-4 0.0024,0 0.0047,-3.1e-4 0.0071,-5e-4 0.009,-7e-4 0.01803,-0.002 0.02705,-0.003 0.002,-0.002 0.005,-0.003 0.0092,-0.004 0.0061,-7.1e-4 0.0052,-7.6e-4 0.01163,-0.002 4.39e-4,-7e-5 9.02e-4,-1.9e-4 0.0013,-2.6e-4 5.3e-5,-1.8e-4 2.51e-4,-2.5e-4 5.02e-4,-3.7e-4 v -0.16311 z m 0.41052,0.16739 c -0.001,9.5e-4 -0.0021,0.002 -0.0033,0.003 5.01e-4,0.002 0.0011,0.004 0.0016,0.006 3.76e-4,0.001 8.65e-4,0.002 0.0012,0.003 2.5e-5,-5e-4 2.51e-4,-10e-4 5.02e-4,-0.002 z m -5.01e-4,0.012 c -6e-6,4.4e-4 1.88e-4,7.6e-4 5.01e-4,9.8e-4 v -3.8e-4 c -1.88e-4,-1.2e-4 -3.13e-4,-3.1e-4 -5.01e-4,-6.2e-4 z m 5.01e-4,0.003 c -0.0026,3.7e-4 -0.0054,8e-4 -0.0058,8.5e-4 -0.0018,2.5e-4 -0.0035,5.1e-4 -0.0054,7.4e-4 -0.0012,0.001 -0.0028,0.002 -0.0048,0.003 0.0056,7.4e-4 0.01096,0.002 0.01591,0.003 z m -0.09877,0.009 c -2.5e-4,1.3e-4 -5.64e-4,2.5e-4 -7.33e-4,3.8e-4 l 6.27e-4,5e-4 c 0.0011,-2.5e-4 0.0023,-5.6e-4 0.0034,-8.6e-4 -0.0011,2e-5 -0.0021,-10e-6 -0.0032,0 z"
         fill="#ff0000"
         id="path21666" />
    </clipPath>
    <clipPath
       id="e">
      <path
         d="m 67.666,-280.52 v 0.17828 c 0.0068,-0.002 0.01527,0.006 0.02349,0.005 0.0095,-4e-4 0.01842,-0.008 0.02973,-0.006 0.02691,0.005 0.05452,0.002 0.08165,10e-4 0.01302,0.001 0.02627,-10e-4 0.03927,5.3e-4 0.008,10e-4 0.0163,0.002 0.02429,0.003 0.0041,0 0.0083,0.002 0.01241,0.002 7.94e-4,9e-5 0.0043,5.8e-4 0.0072,5.3e-4 7.94e-4,-1.7e-4 0.0021,-4e-4 0.0026,-5.3e-4 0.0016,-3.5e-4 0.0035,-8e-4 0.0052,-0.001 0.01614,-3.1e-4 0.03241,1e-4 0.04857,0 0.01823,-8.9e-4 0.03577,0.004 0.05375,0.006 h 5.29e-4 c 0.0016,1.5e-4 0.0035,-9e-5 0.0052,0 -0.0016,-6.1e-4 -0.0019,-7.4e-4 -0.0036,-5.3e-4 0.0024,-5e-4 0.0044,-10e-4 0.0067,-0.002 0.0024,-4e-4 0.01516,-3e-5 0.01704,0 0.009,2.6e-4 0.01008,1e-4 0.01498,0 0.0024,-10e-6 0.0052,-10e-6 0.0078,0 0.01241,5e-5 0.02368,0.002 0.03359,0.004 v -0.19017 z m 0.32246,0.18914 c -0.0044,9.5e-4 -0.0097,0.002 -0.01138,0.003 l 5.29e-4,5.3e-4 c 0.0036,-8.5e-4 0.0074,-0.002 0.01085,-0.003 z"
         fill="#ff0000"
         id="path21669" />
    </clipPath>
    <clipPath
       id="c">
      <path
         d="m 67.666,-280.52 v 0.17827 c 0.0068,-0.002 0.01528,0.006 0.0235,0.005 0.0095,-3.7e-4 0.01843,-0.008 0.02974,-0.006 0.02691,0.005 0.05451,0.002 0.08164,9.8e-4 0.01302,10e-4 0.02629,-0.001 0.03929,5e-4 0.008,10e-4 0.01623,0.002 0.02424,0.003 0.0041,0 0.0084,0.002 0.01248,0.002 7.96e-4,6e-5 0.0043,5.7e-4 0.0072,5e-4 7.96e-4,-1.8e-4 0.0021,-3.7e-4 0.0026,-5e-4 0.0016,-3.7e-4 0.0034,-7.7e-4 0.0051,-9.7e-4 0.01614,-3.2e-4 0.03243,1.2e-4 0.04859,0 0.01368,-6.7e-4 0.027,0.002 0.04039,0.004 6.27e-4,-2e-5 0.0012,3e-5 0.0018,0 3.76e-4,-6e-5 6.39e-4,-1.9e-4 9.77e-4,-2.5e-4 h 1.25e-4 c 5.02e-4,-5e-4 0.0012,-8.7e-4 0.0021,-9.8e-4 6.45e-4,-6e-5 0.0015,-6e-5 0.0023,1.2e-4 0.0013,2.6e-4 0.0026,1.9e-4 0.0038,1.3e-4 1.88e-4,-10e-6 3.76e-4,1e-5 6.26e-4,0 2.51e-4,-10e-6 4.39e-4,0 6.27e-4,0 h 0.0015 c 0.0015,-5e-5 8.96e-4,1.3e-4 3.76e-4,0.003 0.0015,7e-5 0.0033,-5e-5 0.0049,0 -0.0014,-5.6e-4 -0.0018,-7e-4 -0.0031,-6.2e-4 0.0022,-4.4e-4 0.0039,-0.001 0.006,-0.002 0.0024,-3.8e-4 0.01526,-3e-5 0.01714,0 0.009,2.5e-4 0.01003,1.3e-4 0.01493,0 0.0024,-10e-6 0.0052,-10e-6 0.0078,0 0.01241,5e-5 0.02363,0.002 0.03354,0.004 v -0.19013 z"
         fill="#ff0000"
         id="path21672" />
    </clipPath>
    <clipPath
       id="b">
      <path
         d="m 67.666,-280.52 v 0.17827 c 0.0068,-0.002 0.01528,0.006 0.0235,0.005 0.0095,-3.7e-4 0.01843,-0.008 0.02974,-0.006 0.02691,0.005 0.05451,0.002 0.08164,9.8e-4 0.01302,10e-4 0.02629,-0.001 0.03929,5e-4 0.008,10e-4 0.01623,0.002 0.02424,0.003 0.0041,0 0.0084,0.002 0.01248,0.002 7.96e-4,6e-5 0.0043,5.7e-4 0.0072,5e-4 7.96e-4,-1.8e-4 0.0021,-3.7e-4 0.0026,-5e-4 0.0016,-3.7e-4 0.0034,-7.7e-4 0.0051,-9.7e-4 0.01614,-3.2e-4 0.03243,1.2e-4 0.04859,0 0.01368,-6.7e-4 0.027,0.002 0.04039,0.004 6.27e-4,-2e-5 0.0012,3e-5 0.0018,0 3.76e-4,-6e-5 6.39e-4,-1.9e-4 9.77e-4,-2.5e-4 h 1.25e-4 c 5.02e-4,-5e-4 0.0012,-8.7e-4 0.0021,-9.8e-4 6.45e-4,-6e-5 0.0015,-6e-5 0.0023,1.2e-4 0.0013,2.6e-4 0.0026,1.9e-4 0.0038,1.3e-4 1.88e-4,-10e-6 3.76e-4,1e-5 6.26e-4,0 2.51e-4,-10e-6 4.39e-4,0 6.27e-4,0 h 0.0015 c 0.0015,-5e-5 8.96e-4,1.3e-4 3.76e-4,0.003 0.0015,7e-5 0.0033,-5e-5 0.0049,0 -0.0014,-5.6e-4 -0.0018,-7e-4 -0.0031,-6.2e-4 0.0022,-4.4e-4 0.0039,-0.001 0.006,-0.002 0.0024,-3.8e-4 0.01526,-3e-5 0.01714,0 0.009,2.5e-4 0.01003,1.3e-4 0.01493,0 0.0024,-10e-6 0.0052,-10e-6 0.0078,0 0.01241,5e-5 0.02363,0.002 0.03354,0.004 v -0.19013 z"
         fill="#ff0000"
         id="path21675" />
    </clipPath>
    <clipPath
       id="a">
      <path
         d="m 67.666,-280.52 v 0.17827 c 0.0068,-0.002 0.01528,0.006 0.0235,0.005 0.0095,-3.7e-4 0.01843,-0.008 0.02974,-0.006 0.02691,0.005 0.05451,0.002 0.08164,9.8e-4 0.01302,10e-4 0.02629,-0.001 0.03929,5e-4 0.008,10e-4 0.01623,0.002 0.02424,0.003 0.0041,0 0.0084,0.002 0.01248,0.002 7.96e-4,6e-5 0.0043,5.7e-4 0.0072,5e-4 7.96e-4,-1.8e-4 0.0021,-3.7e-4 0.0026,-5e-4 0.0016,-3.7e-4 0.0034,-7.7e-4 0.0051,-9.7e-4 0.01614,-3.2e-4 0.03243,1.2e-4 0.04859,0 0.01368,-6.7e-4 0.027,0.002 0.04039,0.004 6.27e-4,-2e-5 0.0012,3e-5 0.0018,0 3.76e-4,-6e-5 6.39e-4,-1.9e-4 9.77e-4,-2.5e-4 h 1.25e-4 c 5.02e-4,-5e-4 0.0012,-8.7e-4 0.0021,-9.8e-4 6.45e-4,-6e-5 0.0015,-6e-5 0.0023,1.2e-4 0.0013,2.6e-4 0.0026,1.9e-4 0.0038,1.3e-4 1.88e-4,-10e-6 3.76e-4,1e-5 6.26e-4,0 2.51e-4,-10e-6 4.39e-4,0 6.27e-4,0 h 0.0015 c 0.0015,-5e-5 8.96e-4,1.3e-4 3.76e-4,0.003 0.0015,7e-5 0.0033,-5e-5 0.0049,0 -0.0014,-5.6e-4 -0.0018,-7e-4 -0.0031,-6.2e-4 0.0022,-4.4e-4 0.0039,-0.001 0.006,-0.002 0.0024,-3.8e-4 0.01526,-3e-5 0.01714,0 0.009,2.5e-4 0.01003,1.3e-4 0.01493,0 0.0024,-10e-6 0.0052,-10e-6 0.0078,0 0.01241,5e-5 0.02363,0.002 0.03354,0.004 v -0.19013 z"
         fill="#ff0000"
         id="path21678" />
    </clipPath>
  </defs>
  <ellipse
     transform="matrix(0.75788202,0,0,-0.75788202,3.4485388,-64.823988)"
     cx="53.160999"
     cy="254.03999"
     rx="27.229"
     ry="27.285999"
     fill="none"
     stroke="#000000"
     stroke-width="0.2651"
     id="ellipse21683" />
  <ellipse
     transform="matrix(0.75788202,0,0,-0.75788202,3.4485388,-64.812624)"
     cx="53.160999"
     cy="254.03999"
     rx="37.791"
     ry="37.869999"
     fill="none"
     stroke="#000000"
     stroke-width="0.2651"
     id="ellipse21685"
     style="stroke-width:0.34910476;stroke-dasharray:none" />
  <g
     stroke="#000000"
     id="g21925"
     transform="matrix(0.75934756,0,0,0.75934756,4.9673388,-61.868411)">
    <g
       stroke-width="0.2651"
       id="g21815"
       style="stroke-width:0.34843098;stroke-dasharray:none">
      <path
         transform="matrix(0.99807,0,0,0.99807,0.21254,-0.50727)"
         d="m 138.26,-261.87 h -0.25746"
         id="path21701"
         style="stroke-width:0.34910476;stroke-dasharray:none" />
      <path
         transform="matrix(0.99807,0,0,0.99807,0.21254,-0.50727)"
         d="m 140.84,-255.08 h -0.46594"
         id="path21703"
         style="stroke-width:0.34910476;stroke-dasharray:none" />
      <path
         transform="matrix(0.99807,0,0,0.99807,0.21254,-0.50727)"
         d="m 196.13,-255.94 c 0.005,1.9572 0.0109,3.9676 0.0159,5.9248"
         id="path21705"
         style="stroke-width:0.34910476;stroke-dasharray:none" />
      <path
         transform="matrix(0.99807,0,0,0.99807,0.21254,-0.50727)"
         d="m 146.75,-255.94 c -0.005,1.9572 -0.0109,3.9676 -0.0159,5.9248"
         id="path21707"
         style="stroke-width:0.34910476;stroke-dasharray:none" />
      <path
         transform="matrix(0.99807,0,0,0.99807,0.21254,-0.50727)"
         d="m 209.18,-255.94 h -1.2179"
         id="path21709"
         style="stroke-width:0.34910476;stroke-dasharray:none" />
      <path
         transform="matrix(0.99807,0,0,0.99807,0.21254,-0.50727)"
         d="m 135.78,-261.87 h -0.0151"
         id="path21711"
         style="stroke-width:0.34910476;stroke-dasharray:none" />
      <path
         transform="matrix(0.99807,0,0,0.99807,0.21254,-0.50727)"
         d="m 139.03,-255.94 c -0.0159,1.9724 -0.0318,3.9473 -0.0478,5.9248"
         id="path21713"
         style="stroke-width:0.34910476;stroke-dasharray:none" />
      <path
         transform="matrix(0.99807,0,0,0.99807,0.21254,-0.50727)"
         d="m 144.27,-255.94 h -3.4171"
         id="path21715"
         style="stroke-width:0.34910476;stroke-dasharray:none" />
      <path
         transform="matrix(0.99807,0,0,0.99807,0.21254,-0.50727)"
         d="m 126.31,-249.23 h 90.263"
         id="path21717"
         style="stroke-width:0.34910476;stroke-dasharray:none" />
      <path
         transform="matrix(0.99807,0,0,0.99807,0.21254,-0.50727)"
         d="m 135.63,-255.94 h -0.70588"
         id="path21719"
         style="stroke-width:0.34910476;stroke-dasharray:none" />
      <path
         transform="matrix(0.99807,0,0,0.99807,0.21254,-0.50727)"
         d="m 207.96,-255.94 0.0999,5.9248"
         id="path21721"
         style="stroke-width:0.34910476;stroke-dasharray:none" />
      <path
         transform="matrix(0.99807,0,0,0.99807,0.21254,-0.50727)"
         d="M 216.77,-250.02 H 126.113"
         id="path21723"
         style="stroke-width:0.34910476;stroke-dasharray:none" />
      <path
         transform="matrix(0.99807,0,0,0.99807,0.21254,-0.50727)"
         d="m 134.93,-255.94 -0.0999,5.9248"
         id="path21725"
         style="stroke-width:0.34910476;stroke-dasharray:none" />
      <path
         transform="matrix(0.99807,0,0,0.99807,0.21254,-0.50727)"
         d="m 134.93,-255.94 h -1.2179"
         id="path21727"
         style="stroke-width:0.34910476;stroke-dasharray:none" />
      <path
         transform="matrix(0.99807,0,0,0.99807,0.21254,-0.50727)"
         d="m 169.84,-255.94 c -0.0262,1.9572 -0.0524,3.9676 -0.0775,5.9248"
         id="path21729"
         style="stroke-width:0.34910476;stroke-dasharray:none" />
      <path
         transform="matrix(0.99807,0,0,0.99807,0.21254,-0.50727)"
         d="m 207.96,-255.94 h -9.3415"
         id="path21731"
         style="stroke-width:0.34910476;stroke-dasharray:none" />
      <path
         transform="matrix(0.99807,0,0,0.99807,0.21254,-0.50727)"
         d="m 173.05,-255.94 h -3.2161"
         id="path21733"
         style="stroke-width:0.34910476;stroke-dasharray:none" />
      <path
         transform="matrix(0.99807,0,0,0.99807,0.21254,-0.50727)"
         d="m 146.75,-255.94 h -2.4873"
         id="path21735"
         style="stroke-width:0.34910476;stroke-dasharray:none" />
      <path
         transform="matrix(0.99807,0,0,0.99807,0.21254,-0.50727)"
         d="m 140.38,-255.94 h -1.3535"
         id="path21737"
         style="stroke-width:0.34910476;stroke-dasharray:none" />
      <path
         transform="matrix(0.99807,0,0,0.99807,0.21254,-0.50727)"
         d="m 140.38,-255.94 h 0.46592"
         id="path21739"
         style="stroke-width:0.34910476;stroke-dasharray:none" />
      <path
         transform="matrix(0.99807,0,0,0.99807,0.21254,-0.50727)"
         d="m 173.13,-250.02 c -0.0251,-1.9539 -0.0514,-3.9709 -0.0775,-5.9248"
         id="path21741"
         style="stroke-width:0.34910476;stroke-dasharray:none" />
      <path
         transform="matrix(0.99807,0,0,0.99807,0.21254,-0.50727)"
         d="M 196.13,-255.94 H 173.048"
         id="path21743"
         style="stroke-width:0.34910476;stroke-dasharray:none" />
      <path
         transform="matrix(0.99807,0,0,0.99807,0.21254,-0.50727)"
         d="M 169.84,-255.94 H 146.758"
         id="path21745"
         style="stroke-width:0.34910476;stroke-dasharray:none" />
      <path
         transform="matrix(0.99807,0,0,0.99807,0.21254,-0.50727)"
         d="m 140.85,-255.94 -0.0122,0.86896"
         id="path21747"
         style="stroke-width:0.34910476;stroke-dasharray:none" />
      <path
         transform="matrix(0.99807,0,0,0.99807,0.21254,-0.50727)"
         d="m 140.37,-255.08 0.0122,-0.86896"
         id="path21749"
         style="stroke-width:0.34910476;stroke-dasharray:none" />
      <path
         transform="matrix(0.99807,0,0,0.99807,0.21254,-0.50727)"
         d="m 198.62,-255.94 h -2.4873"
         id="path21751"
         style="stroke-width:0.34910476;stroke-dasharray:none" />
      <path
         transform="matrix(0.99807,0,0,0.99807,0.21254,-0.50727)"
         d="m 216.58,-249.23 a 0.19708,0.19749 0 0 0 0.19708,-0.19749"
         id="path21753"
         style="stroke-width:0.34910476;stroke-dasharray:none" />
      <path
         transform="matrix(0.99807,0,0,0.99807,0.21254,-0.50727)"
         d="m 133.71,-255.94 -0.10312,5.9248"
         id="path21755"
         style="stroke-width:0.34910476;stroke-dasharray:none" />
      <path
         transform="matrix(0.99807,0,0,0.99807,0.21254,-0.50727)"
         d="m 216.77,-250.02 v 0.59248"
         id="path21757"
         style="stroke-width:0.34910476;stroke-dasharray:none" />
      <path
         transform="matrix(0.99807,0,0,0.99807,0.21254,-0.50727)"
         d="m 209.18,-255.94 0.10326,5.9248"
         id="path21759"
         style="stroke-width:0.34910476;stroke-dasharray:none" />
      <path
         transform="matrix(0.99807,0,0,0.99807,0.21254,-0.50727)"
         d="m 144.27,-255.94 -0.10326,5.9248"
         id="path21761"
         style="stroke-width:0.34910476;stroke-dasharray:none" />
      <path
         transform="matrix(0.99807,0,0,0.99807,0.21254,-0.50727)"
         d="m 198.62,-255.94 0.10326,5.9248"
         id="path21763"
         style="stroke-width:0.34910476;stroke-dasharray:none" />
      <path
         transform="matrix(0.99807,0,0,0.99807,0.21254,-0.50727)"
         d="m 126.12,-250.02 v 0.59248"
         id="path21765"
         style="stroke-width:0.34910476;stroke-dasharray:none" />
      <path
         transform="matrix(0.99807,0,0,0.99807,0.21254,-0.50727)"
         d="m 126.12,-249.43 a 0.19708,0.19749 0 0 0 0.19709,0.19749"
         id="path21767"
         style="stroke-width:0.34910476;stroke-dasharray:none" />
      <path
         transform="matrix(0.99807,0,0,0.99807,0.21254,-0.50727)"
         d="m 135.5,-250.02 0.2697,-11.85"
         id="path21769"
         style="stroke-width:0.34910476;stroke-dasharray:none" />
      <path
         transform="matrix(0.99807,0,0,0.99807,0.21254,-0.50727)"
         d="m 207.12,-261.87 h -0.12171"
         id="path21771"
         style="stroke-width:0.34910476;stroke-dasharray:none" />
      <path
         transform="matrix(0.99807,0,0,0.99807,0.21254,-0.50727)"
         d="m 203.54,-261.87 h 0.73294"
         id="path21773"
         style="stroke-width:0.34910476;stroke-dasharray:none" />
      <path
         transform="matrix(0.99807,0,0,0.99807,0.21254,-0.50727)"
         d="m 204.27,-261.87 v 5.1348"
         id="path21775"
         style="stroke-width:0.34910476;stroke-dasharray:none" />
      <path
         transform="matrix(0.99807,0,0,0.99807,0.21254,-0.50727)"
         d="m 204.27,-261.87 h 0.88897"
         id="path21777"
         style="stroke-width:0.34910476;stroke-dasharray:none" />
      <path
         transform="matrix(0.99807,0,0,0.99807,0.21254,-0.50727)"
         d="m 205.16,-261.87 -0.0828,5.1348"
         id="path21779"
         style="stroke-width:0.34910476;stroke-dasharray:none" />
      <path
         transform="matrix(0.99807,0,0,0.99807,0.21254,-0.50727)"
         d="m 207,-261.87 h -1.5281"
         id="path21781"
         style="stroke-width:0.34910476;stroke-dasharray:none" />
      <path
         transform="matrix(0.99807,0,0,0.99807,0.21254,-0.50727)"
         d="m 205.08,-256.73 h -1.6219"
         id="path21783"
         style="stroke-width:0.34910476;stroke-dasharray:none" />
      <path
         transform="matrix(0.99807,0,0,0.99807,0.21254,-0.50727)"
         d="m 205.41,-255.94 c 0.0216,-1.9718 0.0432,-3.9467 0.0647,-5.9248"
         id="path21785"
         style="stroke-width:0.34910476;stroke-dasharray:none" />
      <path
         transform="matrix(0.99807,0,0,0.99807,0.21254,-0.50727)"
         d="m 203.46,-256.73 0.0828,-5.1348"
         id="path21787"
         style="stroke-width:0.34910476;stroke-dasharray:none" />
      <path
         transform="matrix(0.99807,0,0,0.99807,0.21254,-0.50727)"
         d="m 205.47,-261.87 h -0.31028"
         id="path21789"
         style="stroke-width:0.34910476;stroke-dasharray:none" />
      <path
         transform="matrix(0.99807,0,0,0.99807,0.21254,-0.50727)"
         d="m 202.95,-255.94 c 0.0479,-1.9718 0.0958,-3.9467 0.14368,-5.9248"
         id="path21791"
         style="stroke-width:0.34910476;stroke-dasharray:none" />
      <path
         transform="matrix(0.99807,0,0,0.99807,0.21254,-0.50727)"
         d="m 203.54,-261.87 h -0.44395"
         id="path21793"
         style="stroke-width:0.34910476;stroke-dasharray:none" />
      <path
         transform="matrix(0.99807,0,0,0.99807,0.21254,-0.50727)"
         d="m 207.26,-255.94 -0.13488,-5.9248"
         id="path21795"
         style="stroke-width:0.34910476;stroke-dasharray:none" />
      <path
         transform="matrix(0.99807,0,0,0.99807,0.21254,-0.50727)"
         d="m 207,-261.87 0.13488,5.9248"
         id="path21797"
         style="stroke-width:0.34910476;stroke-dasharray:none" />
      <path
         transform="matrix(0.99807,0,0,0.99807,0.21254,-0.50727)"
         d="M 216.77,-249.43 H 126.113"
         id="path21799"
         style="stroke-width:0.34910476;stroke-dasharray:none" />
      <path
         transform="matrix(0.99807,0,0,0.99807,0.21254,-0.50727)"
         d="m 138.01,-261.87 h -2.2253"
         id="path21801"
         style="stroke-width:0.34910476;stroke-dasharray:none" />
      <path
         transform="matrix(0.99807,0,0,0.99807,0.21254,-0.50727)"
         d="m 139.79,-261.87 h -1.5281"
         id="path21803"
         style="stroke-width:0.34910476;stroke-dasharray:none" />
      <path
         transform="matrix(0.99807,0,0,0.99807,0.21254,-0.50727)"
         d="m 139.94,-255.94 c -0.0479,-1.9718 -0.0958,-3.9467 -0.14369,-5.9248"
         id="path21805"
         style="stroke-width:0.34910476;stroke-dasharray:none" />
      <path
         transform="matrix(0.99807,0,0,0.99807,0.21254,-0.50727)"
         d="m 135.51,-250.02 0.26967,-11.85"
         id="path21807"
         style="stroke-width:0.34910476;stroke-dasharray:none" />
      <path
         transform="matrix(0.99807,0,0,0.99807,0.21254,-0.50727)"
         d="m 138.01,-261.87 -0.11168,11.85"
         id="path21809"
         style="stroke-width:0.34910476;stroke-dasharray:none" />
      <rect
         transform="matrix(0.99807,0,0,0.99807,0.21254,-0.50727)"
         x="139.02"
         y="-256.75"
         width="70.165001"
         height="0.76766998"
         ry="0"
         fill="none"
         stroke-linecap="butt"
         stroke-linejoin="miter"
         id="rect21811"
         style="stroke-width:0.34910476;stroke-dasharray:none" />
      <rect
         transform="matrix(0.99807,0,0,0.99807,0.21254,-0.50727)"
         x="133.7"
         y="-256.94"
         width="1.901"
         height="0.91113001"
         ry="0"
         fill="none"
         stroke-linecap="butt"
         stroke-linejoin="miter"
         id="rect21813"
         style="stroke-width:0.34910476;stroke-dasharray:none" />
    </g>
    <g
       transform="matrix(0.9978,0,0,0.99779,-14.41,-1.1853)"
       fill="#000000"
       fill-rule="evenodd"
       stroke-linecap="butt"
       stroke-linejoin="miter"
       stroke-width="0.26517"
       id="g21825"
       style="stroke-width:0.34920097;stroke-dasharray:none">
      <rect
         x="219.66"
         y="-265.20999"
         width="1.4741"
         height="8.9306002"
         id="rect21817"
         style="stroke-width:0.34920097;stroke-dasharray:none" />
      <path
         d="m 219.82,-266.22 14.547,16.602 v 2.1596 l -14.547,-16.602 z"
         id="path21819"
         style="stroke-width:0.34920097;stroke-dasharray:none" />
      <ellipse
         cx="220"
         cy="-265.04999"
         rx="1.4357001"
         ry="1.4387"
         id="ellipse21821"
         style="stroke-width:0.34920097;stroke-dasharray:none" />
      <path
         d="m 218.59,-265.35 h 1.4816 l -0.0952,3.1692 -1.3864,-0.73964 z"
         id="path21823"
         style="stroke-width:0.34920097;stroke-dasharray:none" />
    </g>
    <g
       stroke-linecap="butt"
       stroke-linejoin="miter"
       id="g21901"
       style="stroke-width:0.34843098;stroke-dasharray:none">
      <rect
         transform="matrix(4.2128,0,0,4.2171,-78.055,925.44)"
         x="67.688004"
         y="-280.5"
         width="0.36594"
         height="0.20959"
         rx="0.082059003"
         ry="0.082059003"
         clip-path="url(#e)"
         fill="#000000"
         fill-rule="evenodd"
         stroke-width="0.062773"
         id="rect21895"
         style="stroke-width:0.08266552;stroke-dasharray:none" />
      <rect
         transform="matrix(4.2128,0,0,4.2171,-151.18,925.31)"
         x="67.688004"
         y="-280.5"
         width="0.366"
         height="0.20959"
         rx="0.082059003"
         ry="0.082059003"
         clip-path="url(#d)"
         fill="#000000"
         fill-rule="evenodd"
         stroke-width="0.062773"
         id="rect21897"
         style="stroke-width:0.08266552;stroke-dasharray:none" />
      <rect
         transform="matrix(0.99807,0,0,0.99807,0.21254,-0.50727)"
         x="133.7"
         y="-256.94"
         width="1.901"
         height="0.91113001"
         ry="0"
         fill="none"
         stroke-width="0.2651"
         id="rect21899"
         style="stroke-width:0.34910476;stroke-dasharray:none" />
    </g>
    <g
       fill="#000000"
       fill-rule="evenodd"
       stroke-linecap="butt"
       stroke-linejoin="miter"
       id="g21923"
       style="stroke-width:0.34843098;stroke-dasharray:none">
      <g
         transform="matrix(0.9978,0,0,0.99779,-14.41,-1.1853)"
         stroke-width="0.26517"
         id="g21913"
         style="stroke-width:0.34920097;stroke-dasharray:none">
        <rect
           x="152"
           y="-263.79999"
           width="1.7028"
           height="8.5644999"
           ry="0"
           id="rect21903"
           style="stroke-width:0.34920097;stroke-dasharray:none" />
        <path
           d="m 153.62,-265.5 v 0.088 l 0.007,3.6268 1.5101,-0.90667 v -2.8081 h -1.517 z"
           color="#000000"
           color-rendering="auto"
           image-rendering="auto"
           shape-rendering="auto"
           solid-color="#000000"
           style="text-indent:0;text-decoration-line:none;text-decoration-style:solid;text-decoration-color:#000000;text-transform:none;white-space:normal;isolation:auto;mix-blend-mode:normal;stroke-width:0.34920097;stroke-dasharray:none"
           id="path21905" />
        <path
           d="m 144.45,-250.1 8.1658,-15.824 0.66768,1.7602 -8.5198,16.86 z"
           id="path21907"
           style="stroke-width:0.34920097;stroke-dasharray:none" />
        <ellipse
           cx="153.66"
           cy="-265.20001"
           rx="1.4357001"
           ry="1.4387"
           id="ellipse21909"
           style="stroke-width:0.34920097;stroke-dasharray:none" />
        <path
           d="m 150.54,-261.47 h 2.0878 v 6.2577 l -2.2056,-0.0759 z"
           id="path21911"
           style="stroke-width:0.34920097;stroke-dasharray:none" />
      </g>
      <g
         stroke-width="0.062773"
         id="g21921"
         style="stroke-width:0.34843098;stroke-dasharray:none">
        <rect
           transform="matrix(4.2128,0,0,4.2171,-88.705,925.44)"
           x="67.688004"
           y="-280.5"
           width="0.36594"
           height="0.20959"
           rx="0.082059003"
           ry="0.082059003"
           clip-path="url(#c)"
           id="rect21915"
           style="stroke-width:0.08266552;stroke-dasharray:none" />
        <rect
           transform="matrix(4.2128,0,0,4.2171,-114.56,925.44)"
           x="67.688004"
           y="-280.5"
           width="0.36594"
           height="0.20959"
           rx="0.082059003"
           ry="0.082059003"
           clip-path="url(#b)"
           id="rect21917"
           style="stroke-width:0.08266552;stroke-dasharray:none" />
        <rect
           transform="matrix(4.2128,0,0,4.2171,-140.39,925.44)"
           x="67.688004"
           y="-280.5"
           width="0.36594"
           height="0.20959"
           rx="0.082059003"
           ry="0.082059003"
           clip-path="url(#a)"
           id="rect21919"
           style="stroke-width:0.08266552;stroke-dasharray:none" />
      </g>
    </g>
  </g>
  <path
     transform="matrix(3.9846,0,0,3.9672,-225.71548,724.45287)"
     d="m 103.82,-250.38 h 9.2886 v -5.8009 H 103.82 Z"
     fill="none"
     stroke="#000000"
     stroke-linecap="butt"
     stroke-linejoin="miter"
     stroke-width="0.066547"
     id="path21931"
     style="stroke-width:0.06654615;stroke-dasharray:none" />
  <path
     transform="matrix(3.9846,0,0,3.9672,-225.71548,724.45287)"
     d="m 108.63,-252.86 0.41937,-0.20177 -0.48446,-0.13624 0.43147,-0.17527 -0.4631,-0.13532 0.39242,-0.15946 -0.41194,-0.10415 0.34034,-0.19108 -0.37148,-0.10229 0.31846,-0.19313 -0.3566,-0.14667 0.26826,-0.1483 -0.29987,-0.11557 0.24641,-0.17966 -0.24641,-0.13112 0.17575,-0.16413 -0.20132,-0.12319 0.13065,-0.18833 -0.13065,-0.1339 0.0953,-0.11948 -0.60305,0.007 -0.37427,2.8416 h 1.1247"
     fill="#000000"
     stroke="#000000"
     stroke-linecap="round"
     stroke-linejoin="round"
     stroke-width="0.066547"
     id="path21933"
     style="stroke-width:0.06654615;stroke-dasharray:none" />
  <g
     fill="none"
     stroke="#000000"
     stroke-linecap="butt"
     stroke-linejoin="miter"
     stroke-width="0.066547"
     id="g21959"
     transform="translate(-54.335453,-6.5771312)"
     style="stroke-width:0.26458022;stroke-dasharray:none">
    <path
       transform="matrix(3.9846,0,0,3.9672,-171.38,731.03)"
       d="m 103.82,-244.57 h 9.2891 v -5.8006 H 103.82 Z"
       id="path21935"
       style="stroke-width:0.06654615;stroke-dasharray:none" />
    <path
       transform="matrix(3.9846,0,0,3.9672,-171.38,731.03)"
       d="m 104.87,-249.41 h 6.4906 v 2.129 H 104.87"
       id="path21937"
       style="stroke-width:0.06654615;stroke-dasharray:none" />
    <path
       transform="matrix(3.9846,0,0,3.9672,-171.38,731.03)"
       d="m 104.66,-247.28 2.8924,-2.129"
       id="path21939"
       style="stroke-width:0.06654615;stroke-dasharray:none" />
    <path
       transform="matrix(3.9846,0,0,3.9672,-171.38,731.03)"
       d="m 105.52,-247.27 2.8924,-2.129"
       id="path21941"
       style="stroke-width:0.06654615;stroke-dasharray:none" />
    <path
       transform="matrix(3.9846,0,0,3.9672,-171.38,731.03)"
       d="m 106.39,-247.28 2.8924,-2.129"
       id="path21943"
       style="stroke-width:0.06654615;stroke-dasharray:none" />
    <path
       transform="matrix(3.9846,0,0,3.9672,-171.38,731.03)"
       d="m 104.8,-248.61 1.0368,-0.79366"
       id="path21945"
       style="stroke-width:0.06654615;stroke-dasharray:none" />
    <path
       transform="matrix(3.9846,0,0,3.9672,-171.38,731.03)"
       d="m 104.77,-247.99 1.923,-1.4106"
       id="path21947"
       style="stroke-width:0.06654615;stroke-dasharray:none" />
    <path
       transform="matrix(3.9846,0,0,3.9672,-171.38,731.03)"
       d="m 108.14,-247.28 2.8929,-2.129"
       id="path21949"
       style="stroke-width:0.06654615;stroke-dasharray:none" />
    <path
       transform="matrix(3.9846,0,0,3.9672,-171.38,731.03)"
       d="m 107.23,-247.25 2.8924,-2.129"
       id="path21951"
       style="stroke-width:0.06654615;stroke-dasharray:none" />
    <path
       transform="matrix(3.9846,0,0,3.9672,-171.38,731.03)"
       d="m 109.01,-247.27 2.3647,-1.7491"
       id="path21953"
       style="stroke-width:0.06654615;stroke-dasharray:none" />
    <path
       transform="matrix(3.9846,0,0,3.9672,-171.38,731.03)"
       d="m 109.86,-247.28 1.4929,-1.1052"
       id="path21955"
       style="stroke-width:0.06654615;stroke-dasharray:none" />
    <path
       transform="matrix(3.9846,0,0,3.9672,-171.38,731.03)"
       d="m 110.73,-247.28 0.63326,-0.46494"
       id="path21957"
       style="stroke-width:0.06654615;stroke-dasharray:none" />
  </g>
  <g
     stroke="#000000"
     stroke-width="0.066547"
     id="g22037"
     transform="translate(-54.335453,-6.5771312)"
     style="stroke-width:0.26458022;stroke-dasharray:none">
    <g
       fill="none"
       stroke-linecap="butt"
       stroke-linejoin="miter"
       id="g21999"
       style="stroke-width:0.26458022;stroke-dasharray:none">
      <path
         transform="matrix(3.9846,0,0,3.9672,-171.38,731.03)"
         d="m 103.83,-238.77 h 9.2886 v -5.8011 H 103.83 Z"
         id="path21977"
         style="stroke-width:0.06654615;stroke-dasharray:none" />
      <path
         transform="matrix(3.9846,0,0,3.9672,-171.38,731.03)"
         d="m 104.71,-240.75 0.89223,-0.0102 v 1.2479 l -0.91222,0.002"
         id="path21979"
         style="stroke-width:0.06654615;stroke-dasharray:none" />
      <path
         transform="matrix(3.9846,0,0,3.9672,-171.38,731.03)"
         d="m 104.69,-240.08 0.65557,-0.67834"
         id="path21981"
         style="stroke-width:0.06654615;stroke-dasharray:none" />
      <path
         transform="matrix(3.9846,0,0,3.9672,-171.38,731.03)"
         d="m 104.72,-239.51 0.88618,-0.86804"
         id="path21983"
         style="stroke-width:0.06654615;stroke-dasharray:none" />
      <path
         transform="matrix(3.9846,0,0,3.9672,-171.38,731.03)"
         d="m 112.24,-240.75 -2.9556,-0.0102 v 1.2479 l 3.0463,-0.0256"
         id="path21985"
         style="stroke-width:0.06654615;stroke-dasharray:none" />
      <path
         transform="matrix(3.9846,0,0,3.9672,-171.38,731.03)"
         d="m 110.84,-239.51 -1.2972,-1.2479"
         id="path21987"
         style="stroke-width:0.06654615;stroke-dasharray:none" />
      <path
         transform="matrix(3.9846,0,0,3.9672,-171.38,731.03)"
         d="m 111.52,-239.52 -1.2679,-1.2037"
         id="path21989"
         style="stroke-width:0.06654615;stroke-dasharray:none" />
      <path
         transform="matrix(3.9846,0,0,3.9672,-171.38,731.03)"
         d="m 110.17,-239.51 -0.88616,-0.86804"
         id="path21991"
         style="stroke-width:0.06654615;stroke-dasharray:none" />
      <path
         transform="matrix(3.9846,0,0,3.9672,-171.38,731.03)"
         d="m 112.17,-239.52 -1.2967,-1.2479"
         id="path21993"
         style="stroke-width:0.06654615;stroke-dasharray:none" />
      <path
         transform="matrix(3.9846,0,0,3.9672,-171.38,731.03)"
         d="m 112.25,-240.13 -0.66162,-0.60164"
         id="path21995"
         style="stroke-width:0.06654615;stroke-dasharray:none" />
      <path
         transform="matrix(3.9846,0,0,3.9672,-171.38,731.03)"
         d="m 105.61,-239.4 3.667,-0.009"
         id="path21997"
         style="stroke-width:0.06654615;stroke-dasharray:none" />
    </g>
    <g
       fill="none"
       stroke-linecap="butt"
       id="g22035"
       style="stroke-width:0.26458022;stroke-dasharray:none">
      <g
         stroke-linejoin="round"
         id="g22031"
         style="stroke-width:0.26458022;stroke-dasharray:none">
        <path
           transform="matrix(3.9846,0,0,3.9672,-171.38,731.03)"
           d="m 108.96,-244.23 -0.37892,0.0632 0.0316,0.22083 c 0,0 0.22084,0.0949 0.3157,0.0949 0.0948,0 0.47377,-0.28408 0.47377,-0.28408 0,0 0,-0.0948 -0.0948,-0.0948 h -0.25248 z"
           id="path22007"
           style="stroke-width:0.06654615;stroke-dasharray:none" />
        <path
           transform="matrix(3.9846,0,0,3.9672,-171.38,731.03)"
           d="m 110.53,-244.24 c -0.01,0.002 -0.0168,0.0177 -0.0218,0.04 -0.0172,0.0758 -0.0107,0.232 -0.0107,0.232 0,0 -0.0763,0.0326 0.15204,0.1088 0.22875,0.0763 0.28317,0.30501 0.41381,0.10926 0.13064,-0.1962 0.21757,-0.42449 0.21757,-0.45749 0,-0.0325 -0.25011,-0.0763 -0.43518,-0.0763 -0.18503,0 -0.3157,0.0437 -0.3157,0.0437 z"
           id="path22009"
           style="stroke-width:0.06654615;stroke-dasharray:none" />
        <path
           transform="matrix(3.9846,0,0,3.9672,-171.38,731.03)"
           d="m 112.4,-243.36 -0.32127,-0.0958 -0.66533,-0.38405 0.21434,-0.39195 c 0,0 0.59513,0.0112 0.77226,0.0781"
           id="path22011"
           style="stroke-width:0.06654615;stroke-dasharray:none" />
        <path
           transform="matrix(3.9846,0,0,3.9672,-171.38,731.03)"
           d="m 107.77,-243.63 0.63605,0.43147 0.25897,-0.36405 c 0,0 -0.18923,-0.44171 -0.32639,-0.5728 -0.13717,-0.13067 -1.0778,-0.24179 -1.0778,-0.24179 0,0 -0.13064,0.13717 0.007,0.26781 0.13716,0.13066 0.36543,0.34872 0.36543,0.34872 z"
           id="path22013"
           style="stroke-width:0.06654615;stroke-dasharray:none" />
        <path
           transform="matrix(3.9846,0,0,3.9672,-171.38,731.03)"
           d="m 106.49,-243.88 c 0,0 0.29384,-0.26129 0.19575,-0.272 -0.0981,-0.0111 -0.18506,-0.17435 -0.38079,-0.16318 -0.19621,0.0107 -0.3701,0.14133 -0.39195,0.17389 -0.0219,0.0325 -0.0326,0.21758 0.0763,0.21758 0.10879,0 0.50074,0.0437 0.50074,0.0437 z"
           id="path22015"
           style="stroke-width:0.06654615;stroke-dasharray:none" />
        <path
           transform="matrix(3.9846,0,0,3.9672,-171.38,731.03)"
           d="m 105.9,-243.71 -0.75785,0.0865 0.0632,0.30315 c 0,0 0.44169,0.1302 0.63139,0.1302 0.18923,0 0.94709,-0.3901 0.94709,-0.3901 0,0 0,-0.12971 -0.18923,-0.12971 h -0.5054 z"
           id="path22017"
           style="stroke-width:0.06654615;stroke-dasharray:none" />
        <path
           transform="matrix(3.9846,0,0,3.9672,-171.38,731.03)"
           d="m 104.29,-243.27 c 0.1962,-0.0111 0.56025,-0.18922 0.5821,-0.22176 0.0219,-0.0326 0.0326,-0.21761 -0.0762,-0.21761 -0.10879,0 -0.50074,-0.0437 -0.50074,-0.0437"
           id="path22019"
           style="stroke-width:0.06654615;stroke-dasharray:none" />
        <path
           transform="matrix(3.9846,0,0,3.9672,-171.38,731.03)"
           d="m 105.39,-243.82 c 0.0102,-0.002 0.0181,-0.0167 0.0246,-0.0386 0.0223,-0.0744 0.0265,-0.2306 0.0265,-0.2306 0,0 0.0786,-0.0274 -0.14413,-0.11903 -0.22318,-0.0916 -0.26177,-0.32361 -0.40543,-0.13716 -0.14367,0.18644 -0.24642,0.40868 -0.24828,0.44122 -0.002,0.033 0.24456,0.0935 0.42914,0.10601 0.18458,0.0125 0.31755,-0.0219 0.31755,-0.0219 z"
           id="path22021"
           style="stroke-width:0.06654615;stroke-dasharray:none" />
        <path
           transform="matrix(3.9846,0,0,3.9672,-171.38,731.03)"
           d="m 106.89,-243.2 c -0.01,-0.002 -0.0168,-0.0177 -0.0219,-0.04 -0.0172,-0.0758 -0.0107,-0.232 -0.0107,-0.232 0,0 -0.0763,-0.0326 0.1525,-0.1088 0.22829,-0.0762 0.28268,-0.30501 0.41334,-0.10926 0.13065,0.1962 0.21806,0.42449 0.21806,0.4575 0,0.0326 -0.25059,0.0763 -0.43566,0.0763 -0.18503,0 -0.3157,-0.0437 -0.3157,-0.0437 z"
           id="path22023"
           style="stroke-width:0.06654615;stroke-dasharray:none" />
        <path
           transform="matrix(3.9846,0,0,3.9672,-171.38,731.03)"
           d="m 109.78,-243.25 0.75785,-0.12648 -0.0633,-0.44215 c 0,0 -0.44215,-0.18923 -0.63138,-0.18923 -0.1897,0 -0.94755,0.56816 -0.94755,0.56816 0,0 0,0.1897 0.1897,0.1897 h 0.50492 z"
           id="path22025"
           style="stroke-width:0.06654615;stroke-dasharray:none" />
        <path
           transform="matrix(3.9846,0,0,3.9672,-171.38,731.03)"
           d="m 111.49,-243.22 c 0,0 0.29385,-0.26129 0.19575,-0.27198 -0.0981,-0.0112 -0.18506,-0.17437 -0.38079,-0.1632 -0.1962,0.0107 -0.37009,0.14135 -0.39195,0.17389 -0.0218,0.0326 -0.0325,0.21758 0.0763,0.21758 0.10879,0 0.50074,0.0437 0.50074,0.0437 z"
           id="path22027"
           style="stroke-width:0.06654615;stroke-dasharray:none" />
        <path
           transform="matrix(3.9846,0,0,3.9672,-171.38,731.03)"
           d="m 104.3,-243.04 8.0812,-0.008"
           id="path22029"
           style="stroke-width:0.06654615;stroke-dasharray:none" />
      </g>
      <path
         transform="matrix(3.9846,0,0,3.9672,-171.38,731.03)"
         d="m 105.61,-239.4 -0.52587,0.004 0.001,0.11019 2.3221,0.13886 2.3794,-0.15606 -9.5e-4,-0.10973 -0.50911,0.004 0.009,-1.6633 -3.6629,0.004 z"
         stroke-linejoin="miter"
         id="path22033"
         style="stroke-width:0.06654615;stroke-dasharray:none" />
    </g>
  </g>
  <g
     stroke-linejoin="round"
     id="g22049"
     transform="translate(-54.335453,-6.5771312)"
     style="stroke-width:0.26458022;stroke-dasharray:none">
    <ellipse
       transform="matrix(3.9846,0,0,3.9672,-171.38,731.03)"
       cx="108.28"
       cy="-254.05"
       rx="1.8162"
       ry="1.2192"
       fill="none"
       opacity="0.896"
       stroke="#000000"
       stroke-linecap="square"
       stroke-width="0.066547"
       id="ellipse22047"
       style="stroke-width:0.06654615;stroke-dasharray:none" />
  </g>
</svg>
