<svg width="1000.1" height="286.93" fill="none" stroke-linecap="round" stroke-linejoin="round" version="1.1" viewBox="15 -292 264.6 75.916" xmlns="http://www.w3.org/2000/svg"><defs><clipPath id="d"><path d="m67.666-280.52v0.17827c0.0068-2e-3 0.01393-3e-3 0.02215-4e-3 0.0095-3.7e-4 0.01978 5.7e-4 0.03109 3e-3 0.02691 5e-3 0.05451 2e-3 0.08164 9.8e-4 0.0076 5.6e-4 0.01525 1.8e-4 0.02289 0-2.51e-4 -5e-3 0.0041-0.01 0.0131-0.01h0.1171c5e-3 -1.3e-4 0.01004 1.3e-4 0.01505 0 0.0038 0 5e-3 -2.5e-4 0.0083-5e-4 0.0067-6.5e-4 0.01107 2e-3 0.01297 5e-3 0.0014-4e-5 0.0037-3e-5 0.0098 0 0.0027 1e-5 0.0055 1.9e-4 0.0082 2.5e-4 0.0038-3e-5 0.0076 1e-5 0.01138-1.2e-4 0.0024 0 0.0047-3.1e-4 0.0071-5e-4 9e-3 -7e-4 0.01803-2e-3 0.02705-3e-3 2e-3 -2e-3 5e-3 -3e-3 0.0092-4e-3 0.0061-7.1e-4 0.0052-7.6e-4 0.01163-2e-3 4.39e-4 -7e-5 9.02e-4 -1.9e-4 0.0013-2.6e-4 5.3e-5 -1.8e-4 2.51e-4 -2.5e-4 5.02e-4 -3.7e-4v-0.16311zm0.41052 0.16739c-1e-3 9.5e-4 -0.0021 2e-3 -0.0033 3e-3 5.01e-4 2e-3 0.0011 4e-3 0.0016 6e-3 3.76e-4 1e-3 8.65e-4 2e-3 0.0012 3e-3 2.5e-5 -5e-4 2.51e-4 -1e-3 5.02e-4 -2e-3zm-5.01e-4 0.012c-6e-6 4.4e-4 1.88e-4 7.6e-4 5.01e-4 9.8e-4v-3.8e-4c-1.88e-4 -1.2e-4 -3.13e-4 -3.1e-4 -5.01e-4 -6.2e-4zm5.01e-4 3e-3c-0.0026 3.7e-4 -0.0054 8e-4 -0.0058 8.5e-4 -0.0018 2.5e-4 -0.0035 5.1e-4 -0.0054 7.4e-4 -0.0012 1e-3 -0.0028 2e-3 -0.0048 3e-3 0.0056 7.4e-4 0.01096 2e-3 0.01591 3e-3zm-0.09877 9e-3c-2.5e-4 1.3e-4 -5.64e-4 2.5e-4 -7.33e-4 3.8e-4l6.27e-4 5e-4c0.0011-2.5e-4 0.0023-5.6e-4 0.0034-8.6e-4 -0.0011 2e-5 -0.0021-1e-5 -0.0032 0z" fill="#f00"/></clipPath><clipPath id="e"><path d="m67.666-280.52v0.17828c0.0068-2e-3 0.01527 6e-3 0.02349 5e-3 0.0095-4e-4 0.01842-8e-3 0.02973-6e-3 0.02691 5e-3 0.05452 2e-3 0.08165 1e-3 0.01302 1e-3 0.02627-1e-3 0.03927 5.3e-4 8e-3 1e-3 0.0163 2e-3 0.02429 3e-3 0.0041 0 0.0083 2e-3 0.01241 2e-3 7.94e-4 9e-5 0.0043 5.8e-4 0.0072 5.3e-4 7.94e-4 -1.7e-4 0.0021-4e-4 0.0026-5.3e-4 0.0016-3.5e-4 0.0035-8e-4 0.0052-1e-3 0.01614-3.1e-4 0.03241 1e-4 0.04857 0 0.01823-8.9e-4 0.03577 4e-3 0.05375 6e-3h5.29e-4c0.0016 1.5e-4 0.0035-9e-5 0.0052 0-0.0016-6.1e-4 -0.0019-7.4e-4 -0.0036-5.3e-4 0.0024-5e-4 0.0044-1e-3 0.0067-2e-3 0.0024-4e-4 0.01516-3e-5 0.01704 0 9e-3 2.6e-4 0.01008 1e-4 0.01498 0 0.0024-1e-5 0.0052-1e-5 0.0078 0 0.01241 5e-5 0.02368 2e-3 0.03359 4e-3v-0.19017zm0.32246 0.18914c-0.0044 9.5e-4 -0.0097 2e-3 -0.01138 3e-3l5.29e-4 5.3e-4c0.0036-8.5e-4 0.0074-2e-3 0.01085-3e-3z" fill="#f00"/></clipPath><clipPath id="c"><path d="m67.666-280.52v0.17827c0.0068-2e-3 0.01528 6e-3 0.0235 5e-3 0.0095-3.7e-4 0.01843-8e-3 0.02974-6e-3 0.02691 5e-3 0.05451 2e-3 0.08164 9.8e-4 0.01302 1e-3 0.02629-1e-3 0.03929 5e-4 8e-3 1e-3 0.01623 2e-3 0.02424 3e-3 0.0041 0 0.0084 2e-3 0.01248 2e-3 7.96e-4 6e-5 0.0043 5.7e-4 0.0072 5e-4 7.96e-4 -1.8e-4 0.0021-3.7e-4 0.0026-5e-4 0.0016-3.7e-4 0.0034-7.7e-4 0.0051-9.7e-4 0.01614-3.2e-4 0.03243 1.2e-4 0.04859 0 0.01368-6.7e-4 0.027 2e-3 0.04039 4e-3 6.27e-4 -2e-5 0.0012 3e-5 0.0018 0 3.76e-4 -6e-5 6.39e-4 -1.9e-4 9.77e-4 -2.5e-4h1.25e-4c5.02e-4 -5e-4 0.0012-8.7e-4 0.0021-9.8e-4 6.45e-4 -6e-5 0.0015-6e-5 0.0023 1.2e-4 0.0013 2.6e-4 0.0026 1.9e-4 0.0038 1.3e-4 1.88e-4 -1e-5 3.76e-4 1e-5 6.26e-4 0 2.51e-4 -1e-5 4.39e-4 0 6.27e-4 0h0.001485c0.0015-5e-5 8.96e-4 1.3e-4 3.76e-4 3e-3 0.0015 7e-5 0.0033-5e-5 0.0049 0-0.0014-5.6e-4 -0.0018-7e-4 -0.0031-6.2e-4 0.0022-4.4e-4 0.0039-1e-3 6e-3 -2e-3 0.0024-3.8e-4 0.01526-3e-5 0.01714 0 9e-3 2.5e-4 0.01003 1.3e-4 0.01493 0 0.0024-1e-5 0.0052-1e-5 0.0078 0 0.01241 5e-5 0.02363 2e-3 0.03354 4e-3v-0.19013z" fill="#f00"/></clipPath><clipPath id="b"><path d="m67.666-280.52v0.17827c0.0068-2e-3 0.01528 6e-3 0.0235 5e-3 0.0095-3.7e-4 0.01843-8e-3 0.02974-6e-3 0.02691 5e-3 0.05451 2e-3 0.08164 9.8e-4 0.01302 1e-3 0.02629-1e-3 0.03929 5e-4 8e-3 1e-3 0.01623 2e-3 0.02424 3e-3 0.0041 0 0.0084 2e-3 0.01248 2e-3 7.96e-4 6e-5 0.0043 5.7e-4 0.0072 5e-4 7.96e-4 -1.8e-4 0.0021-3.7e-4 0.0026-5e-4 0.0016-3.7e-4 0.0034-7.7e-4 0.0051-9.7e-4 0.01614-3.2e-4 0.03243 1.2e-4 0.04859 0 0.01368-6.7e-4 0.027 2e-3 0.04039 4e-3 6.27e-4 -2e-5 0.0012 3e-5 0.0018 0 3.76e-4 -6e-5 6.39e-4 -1.9e-4 9.77e-4 -2.5e-4h1.25e-4c5.02e-4 -5e-4 0.0012-8.7e-4 0.0021-9.8e-4 6.45e-4 -6e-5 0.0015-6e-5 0.0023 1.2e-4 0.0013 2.6e-4 0.0026 1.9e-4 0.0038 1.3e-4 1.88e-4 -1e-5 3.76e-4 1e-5 6.26e-4 0 2.51e-4 -1e-5 4.39e-4 0 6.27e-4 0h0.001485c0.0015-5e-5 8.96e-4 1.3e-4 3.76e-4 3e-3 0.0015 7e-5 0.0033-5e-5 0.0049 0-0.0014-5.6e-4 -0.0018-7e-4 -0.0031-6.2e-4 0.0022-4.4e-4 0.0039-1e-3 6e-3 -2e-3 0.0024-3.8e-4 0.01526-3e-5 0.01714 0 9e-3 2.5e-4 0.01003 1.3e-4 0.01493 0 0.0024-1e-5 0.0052-1e-5 0.0078 0 0.01241 5e-5 0.02363 2e-3 0.03354 4e-3v-0.19013z" fill="#f00"/></clipPath><clipPath id="a"><path d="m67.666-280.52v0.17827c0.0068-2e-3 0.01528 6e-3 0.0235 5e-3 0.0095-3.7e-4 0.01843-8e-3 0.02974-6e-3 0.02691 5e-3 0.05451 2e-3 0.08164 9.8e-4 0.01302 1e-3 0.02629-1e-3 0.03929 5e-4 8e-3 1e-3 0.01623 2e-3 0.02424 3e-3 0.0041 0 0.0084 2e-3 0.01248 2e-3 7.96e-4 6e-5 0.0043 5.7e-4 0.0072 5e-4 7.96e-4 -1.8e-4 0.0021-3.7e-4 0.0026-5e-4 0.0016-3.7e-4 0.0034-7.7e-4 0.0051-9.7e-4 0.01614-3.2e-4 0.03243 1.2e-4 0.04859 0 0.01368-6.7e-4 0.027 2e-3 0.04039 4e-3 6.27e-4 -2e-5 0.0012 3e-5 0.0018 0 3.76e-4 -6e-5 6.39e-4 -1.9e-4 9.77e-4 -2.5e-4h1.25e-4c5.02e-4 -5e-4 0.0012-8.7e-4 0.0021-9.8e-4 6.45e-4 -6e-5 0.0015-6e-5 0.0023 1.2e-4 0.0013 2.6e-4 0.0026 1.9e-4 0.0038 1.3e-4 1.88e-4 -1e-5 3.76e-4 1e-5 6.26e-4 0 2.51e-4 -1e-5 4.39e-4 0 6.27e-4 0h0.001485c0.0015-5e-5 8.96e-4 1.3e-4 3.76e-4 3e-3 0.0015 7e-5 0.0033-5e-5 0.0049 0-0.0014-5.6e-4 -0.0018-7e-4 -0.0031-6.2e-4 0.0022-4.4e-4 0.0039-1e-3 6e-3 -2e-3 0.0024-3.8e-4 0.01526-3e-5 0.01714 0 9e-3 2.5e-4 0.01003 1.3e-4 0.01493 0 0.0024-1e-5 0.0052-1e-5 0.0078 0 0.01241 5e-5 0.02363 2e-3 0.03354 4e-3v-0.19013z" fill="#f00"/></clipPath></defs><ellipse transform="matrix(.99807 0 0 -.99807 .21254 -.50727)" cx="53.161" cy="254.04" rx="27.229" ry="27.286" fill="none" stroke="#000" stroke-width=".2651"/><ellipse transform="matrix(.99807 0 0 -.99807 .21254 -.50727)" cx="53.161" cy="254.04" rx="37.791" ry="37.87" fill="none" stroke="#000" stroke-width=".2651"/><g fill="#000" font-family="Lato" font-size="4.2322px" letter-spacing="0px" stroke-linecap="butt" stroke-linejoin="miter" word-spacing="0px"><text transform="matrix(.99703 0 0 .99911 .21254 -.50727)" x="50.53334" y="-263.40457" stroke-width=".17673" style="font-variant-caps:normal;font-variant-east-asian:normal;font-variant-ligatures:normal;font-variant-numeric:normal;line-height:0%" xml:space="preserve"><tspan x="50.53334" y="-263.40457" fill="#000000" font-family="Lato" font-size="4.2322px" stroke-width=".17673" style="font-variant-caps:normal;font-variant-east-asian:normal;font-variant-ligatures:normal;font-variant-numeric:normal;line-height:1.25">A</tspan></text><text transform="matrix(.99703 0 0 .99911 .21254 -.50727)" x="117.24055" y="-257.57227" stroke-width=".17673" style="font-variant-caps:normal;font-variant-east-asian:normal;font-variant-ligatures:normal;font-variant-numeric:normal;line-height:0%" xml:space="preserve"><tspan x="117.24055" y="-257.57227" fill="#000000" font-family="Lato" font-size="4.2322px" stroke-width=".17673" style="font-variant-caps:normal;font-variant-east-asian:normal;font-variant-ligatures:normal;font-variant-numeric:normal;line-height:1.25">C</tspan></text><text transform="matrix(.99703 0 0 .99911 .21254 -.50727)" x="50.86792" y="-255.21474" stroke-width=".2651" style="font-variant-caps:normal;font-variant-east-asian:normal;font-variant-ligatures:normal;font-variant-numeric:normal;line-height:0%" xml:space="preserve"><tspan x="50.86792" y="-255.21474" fill="#000000" font-family="Lato" font-size="4.2322px" stroke-width=".26509" style="font-variant-caps:normal;font-variant-east-asian:normal;font-variant-ligatures:normal;font-variant-numeric:normal;line-height:1.25">B</tspan></text></g><g stroke="#000"><g stroke-width=".2651"><path transform="matrix(.99807 0 0 .99807 .21254 -.50727)" d="m138.26-261.87h-0.25746"/><path transform="matrix(.99807 0 0 .99807 .21254 -.50727)" d="m140.84-255.08h-0.46594"/><path transform="matrix(.99807 0 0 .99807 .21254 -.50727)" d="m196.13-255.94c5e-3 1.9572 0.0109 3.9676 0.0159 5.9248"/><path transform="matrix(.99807 0 0 .99807 .21254 -.50727)" d="m146.75-255.94c-5e-3 1.9572-0.0109 3.9676-0.0159 5.9248"/><path transform="matrix(.99807 0 0 .99807 .21254 -.50727)" d="m209.18-255.94h-1.2179"/><path transform="matrix(.99807 0 0 .99807 .21254 -.50727)" d="m135.78-261.87h-0.0151"/><path transform="matrix(.99807 0 0 .99807 .21254 -.50727)" d="m139.03-255.94c-0.0159 1.9724-0.0318 3.9473-0.0478 5.9248"/><path transform="matrix(.99807 0 0 .99807 .21254 -.50727)" d="m144.27-255.94h-3.4171"/><path transform="matrix(.99807 0 0 .99807 .21254 -.50727)" d="m126.31-249.23h90.263"/><path transform="matrix(.99807 0 0 .99807 .21254 -.50727)" d="m135.63-255.94h-0.70588"/><path transform="matrix(.99807 0 0 .99807 .21254 -.50727)" d="m207.96-255.94 0.0999 5.9248"/><path transform="matrix(.99807 0 0 .99807 .21254 -.50727)" d="m216.77-250.02h-90.657"/><path transform="matrix(.99807 0 0 .99807 .21254 -.50727)" d="m134.93-255.94-0.0999 5.9248"/><path transform="matrix(.99807 0 0 .99807 .21254 -.50727)" d="m134.93-255.94h-1.2179"/><path transform="matrix(.99807 0 0 .99807 .21254 -.50727)" d="m169.84-255.94c-0.0262 1.9572-0.0524 3.9676-0.0775 5.9248"/><path transform="matrix(.99807 0 0 .99807 .21254 -.50727)" d="m207.96-255.94h-9.3415"/><path transform="matrix(.99807 0 0 .99807 .21254 -.50727)" d="m173.05-255.94h-3.2161"/><path transform="matrix(.99807 0 0 .99807 .21254 -.50727)" d="m146.75-255.94h-2.4873"/><path transform="matrix(.99807 0 0 .99807 .21254 -.50727)" d="m140.38-255.94h-1.3535"/><path transform="matrix(.99807 0 0 .99807 .21254 -.50727)" d="m140.38-255.94h0.46592"/><path transform="matrix(.99807 0 0 .99807 .21254 -.50727)" d="m173.13-250.02c-0.0251-1.9539-0.0514-3.9709-0.0775-5.9248"/><path transform="matrix(.99807 0 0 .99807 .21254 -.50727)" d="m196.13-255.94h-23.082"/><path transform="matrix(.99807 0 0 .99807 .21254 -.50727)" d="m169.84-255.94h-23.082"/><path transform="matrix(.99807 0 0 .99807 .21254 -.50727)" d="m140.85-255.94-0.0122 0.86896"/><path transform="matrix(.99807 0 0 .99807 .21254 -.50727)" d="m140.37-255.08 0.0122-0.86896"/><path transform="matrix(.99807 0 0 .99807 .21254 -.50727)" d="m198.62-255.94h-2.4873"/><path transform="matrix(.99807 0 0 .99807 .21254 -.50727)" d="m216.58-249.23a0.19708 0.19749 0 0 0 0.19708-0.19749"/><path transform="matrix(.99807 0 0 .99807 .21254 -.50727)" d="m133.71-255.94-0.10312 5.9248"/><path transform="matrix(.99807 0 0 .99807 .21254 -.50727)" d="m216.77-250.02v0.59248"/><path transform="matrix(.99807 0 0 .99807 .21254 -.50727)" d="m209.18-255.94 0.10326 5.9248"/><path transform="matrix(.99807 0 0 .99807 .21254 -.50727)" d="m144.27-255.94-0.10326 5.9248"/><path transform="matrix(.99807 0 0 .99807 .21254 -.50727)" d="m198.62-255.94 0.10326 5.9248"/><path transform="matrix(.99807 0 0 .99807 .21254 -.50727)" d="m126.12-250.02v0.59248"/><path transform="matrix(.99807 0 0 .99807 .21254 -.50727)" d="m126.12-249.43a0.19708 0.19749 0 0 0 0.19709 0.19749"/><path transform="matrix(.99807 0 0 .99807 .21254 -.50727)" d="m135.5-250.02 0.2697-11.85"/><path transform="matrix(.99807 0 0 .99807 .21254 -.50727)" d="m207.12-261.87h-0.12171"/><path transform="matrix(.99807 0 0 .99807 .21254 -.50727)" d="m203.54-261.87h0.73294"/><path transform="matrix(.99807 0 0 .99807 .21254 -.50727)" d="m204.27-261.87v5.1348"/><path transform="matrix(.99807 0 0 .99807 .21254 -.50727)" d="m204.27-261.87h0.88897"/><path transform="matrix(.99807 0 0 .99807 .21254 -.50727)" d="m205.16-261.87-0.0828 5.1348"/><path transform="matrix(.99807 0 0 .99807 .21254 -.50727)" d="m207-261.87h-1.5281"/><path transform="matrix(.99807 0 0 .99807 .21254 -.50727)" d="m205.08-256.73h-1.6219"/><path transform="matrix(.99807 0 0 .99807 .21254 -.50727)" d="m205.41-255.94c0.0216-1.9718 0.0432-3.9467 0.0647-5.9248"/><path transform="matrix(.99807 0 0 .99807 .21254 -.50727)" d="m203.46-256.73 0.0828-5.1348"/><path transform="matrix(.99807 0 0 .99807 .21254 -.50727)" d="m205.47-261.87h-0.31028"/><path transform="matrix(.99807 0 0 .99807 .21254 -.50727)" d="m202.95-255.94c0.0479-1.9718 0.0958-3.9467 0.14368-5.9248"/><path transform="matrix(.99807 0 0 .99807 .21254 -.50727)" d="m203.54-261.87h-0.44395"/><path transform="matrix(.99807 0 0 .99807 .21254 -.50727)" d="m207.26-255.94-0.13488-5.9248"/><path transform="matrix(.99807 0 0 .99807 .21254 -.50727)" d="m207-261.87 0.13488 5.9248"/><path transform="matrix(.99807 0 0 .99807 .21254 -.50727)" d="m216.77-249.43h-90.657"/><path transform="matrix(.99807 0 0 .99807 .21254 -.50727)" d="m138.01-261.87h-2.2253"/><path transform="matrix(.99807 0 0 .99807 .21254 -.50727)" d="m139.79-261.87h-1.5281"/><path transform="matrix(.99807 0 0 .99807 .21254 -.50727)" d="m139.94-255.94c-0.0479-1.9718-0.0958-3.9467-0.14369-5.9248"/><path transform="matrix(.99807 0 0 .99807 .21254 -.50727)" d="m135.51-250.02 0.26967-11.85"/><path transform="matrix(.99807 0 0 .99807 .21254 -.50727)" d="m138.01-261.87-0.11168 11.85"/><rect transform="matrix(.99807 0 0 .99807 .21254 -.50727)" x="139.02" y="-256.75" width="70.165" height=".76767" ry="0" fill="none" stroke-linecap="butt" stroke-linejoin="miter"/><rect transform="matrix(.99807 0 0 .99807 .21254 -.50727)" x="133.7" y="-256.94" width="1.901" height=".91113" ry="0" fill="none" stroke-linecap="butt" stroke-linejoin="miter"/></g><g transform="matrix(.9978 0 0 .99779 -14.41 -1.1853)" fill="#000" fill-rule="evenodd" stroke-linecap="butt" stroke-linejoin="miter" stroke-width=".26517"><rect x="219.66" y="-265.21" width="1.4741" height="8.9306"/><path d="m219.82-266.22 14.547 16.602v2.1596l-14.547-16.602z"/><ellipse cx="220" cy="-265.05" rx="1.4357" ry="1.4387"/><path d="m218.59-265.35h1.4816l-0.0952 3.1692-1.3864-0.73964z"/></g><g transform="matrix(1.1416 0 0 1.144 99.89 -30.313)" fill="#666"><path d="m18.953-207.17v14.988h0.16992v-14.988z" color="#000000" color-rendering="auto" dominant-baseline="auto" fill-rule="evenodd" image-rendering="auto" shape-rendering="auto" solid-color="#000000" stroke-linecap="butt" stroke-linejoin="miter" stroke-width=".23153" style="font-feature-settings:normal;font-variant-alternates:normal;font-variant-caps:normal;font-variant-ligatures:normal;font-variant-numeric:normal;font-variant-position:normal;isolation:auto;mix-blend-mode:normal;shape-padding:0;text-decoration-color:#000000;text-decoration-line:none;text-decoration-style:solid;text-indent:0;text-orientation:mixed;text-transform:none;white-space:normal"/><g transform="matrix(0 -.16933 .16933 0 19.039 -192.18)" stroke-width="1.3673"><path d="m0 0h2" stroke-linecap="square"/><path d="m0 0 13 4-4-4 4-4z" fill-rule="evenodd"/><path d="m0-4v44" stroke-linecap="square"/></g><g transform="matrix(0 -.16933 .16933 0 19.039 -207.17)" stroke-width="1.3673"><path d="m0 0h-2" stroke-linecap="square"/><path d="m0 0-13 4 4-4-4-4z" fill-rule="evenodd"/><path d="m0-4v44" stroke-linecap="square"/></g></g><g transform="matrix(1.1419 0 0 1.1443 99.914 -30.24)" fill="#666"><path d="m95.986-187.27v-7.4486" stroke-linecap="square" stroke-width=".23146"/><g transform="matrix(-.16929 0 0 -.16929 29.145 -187.95)" stroke-width="1.3673"><path d="m0 0h-2" stroke-linecap="square"/><path d="m0 0-13 4 4-4-4-4z" fill-rule="evenodd"/><path d="m0-4v44" stroke-linecap="square"/></g></g><path transform="matrix(.99807 0 0 .99807 .21254 -.50727)" d="m15.088-255.51v-7.1507" fill="none" stroke-linecap="square" stroke-linejoin="round" stroke-width=".2651"/><g stroke-width=".2651"><path transform="matrix(.99807 0 0 .99807 .21254 -.50727)" d="m89.729-261.79h-73.132" fill="#4d4d4d" stroke-linecap="butt" stroke-linejoin="miter"/><path transform="matrix(.99807 0 0 .99807 .21254 -.50727)" d="m17.236-262.59v1.6377l-2.0837-0.81542 2.0837-0.82911" fill="#000" stroke-linecap="round" stroke-linejoin="round"/><path transform="matrix(.99807 0 0 .99807 .21254 -.50727)" d="m89.145-260.9v-1.6377l2.0837 0.81538-2.0837 0.82913" fill="#000" stroke-linecap="round" stroke-linejoin="round"/></g><g fill="none" stroke-linejoin="round"><g stroke-linecap="square" stroke-width=".2651"><path transform="matrix(.99807 0 0 .99807 .21254 -.50727)" d="m91.287-262.66v7.1507"/><path transform="matrix(.99807 0 0 .99807 .21254 -.50727)" d="m25.934-258.72v8.4858"/><path transform="matrix(.99807 0 0 .99807 .21254 -.50727)" d="m80.423-258.72v8.4858"/></g><g transform="matrix(.99778 0 0 .99777 -123.36 -15.184)" stroke-width=".17678"><path d="m203.23-239.9h-51.592" fill="#4d4d4d" stroke-linecap="butt" stroke-linejoin="miter"/><path d="m151.94-240.69v1.6382l-2.0843-0.81566 2.0843-0.82936" fill="#000" stroke-linecap="round" stroke-linejoin="round"/><path d="m202.19-240.69v1.6382l2.0843-0.81563-2.0843-0.82937" fill="#000" stroke-linecap="round" stroke-linejoin="round"/></g><g transform="matrix(.99778 0 0 .99777 -16.338 -7.4079)" stroke-width=".26517"><path d="m224.79-239.9h-73.161" fill="#4d4d4d" stroke-linecap="butt" stroke-linejoin="miter"/><path d="m151.94-240.69v1.6382l-2.0843-0.81566 2.0843-0.82936" fill="#000" stroke-linecap="round" stroke-linejoin="round"/><path d="m224.28-240.69v1.6382l2.0843-0.81563-2.0843-0.82937" fill="#000" stroke-linecap="round" stroke-linejoin="round"/></g></g><g stroke-linecap="butt" stroke-linejoin="miter"><rect transform="matrix(4.2128 0 0 4.2171 -78.055 925.44)" x="67.688" y="-280.5" width=".36594" height=".20959" rx=".082059" ry=".082059" clip-path="url(#e)" fill="#000" fill-rule="evenodd" stroke-width=".062773"/><rect transform="matrix(4.2128 0 0 4.2171 -151.18 925.31)" x="67.688" y="-280.5" width=".366" height=".20959" rx=".082059" ry=".082059" clip-path="url(#d)" fill="#000" fill-rule="evenodd" stroke-width=".062773"/><rect transform="matrix(.99807 0 0 .99807 .21254 -.50727)" x="133.7" y="-256.94" width="1.901" height=".91113" ry="0" fill="none" stroke-width=".2651"/></g><g fill="#000" fill-rule="evenodd" stroke-linecap="butt" stroke-linejoin="miter"><g transform="matrix(.9978 0 0 .99779 -14.41 -1.1853)" stroke-width=".26517"><rect x="152" y="-263.8" width="1.7028" height="8.5645" ry="0"/><path d="m153.62-265.5v0.088l7e-3 3.6268 1.5101-0.90667v-2.8081h-1.517z" color="#000000" color-rendering="auto" image-rendering="auto" shape-rendering="auto" solid-color="#000000" style="isolation:auto;mix-blend-mode:normal;text-decoration-color:#000000;text-decoration-line:none;text-decoration-style:solid;text-indent:0;text-transform:none;white-space:normal"/><path d="m144.45-250.1 8.1658-15.824 0.66768 1.7602-8.5198 16.86z"/><ellipse cx="153.66" cy="-265.2" rx="1.4357" ry="1.4387"/><path d="m150.54-261.47h2.0878v6.2577l-2.2056-0.0759z"/></g><g stroke-width=".062773"><rect transform="matrix(4.2128 0 0 4.2171 -88.705 925.44)" x="67.688" y="-280.5" width=".36594" height=".20959" rx=".082059" ry=".082059" clip-path="url(#c)"/><rect transform="matrix(4.2128 0 0 4.2171 -114.56 925.44)" x="67.688" y="-280.5" width=".36594" height=".20959" rx=".082059" ry=".082059" clip-path="url(#b)"/><rect transform="matrix(4.2128 0 0 4.2171 -140.39 925.44)" x="67.688" y="-280.5" width=".36594" height=".20959" rx=".082059" ry=".082059" clip-path="url(#a)"/></g></g></g><text transform="matrix(.99703 0 0 .99911 .21254 -.50727)" x="169.92238" y="-240.18976" fill="#000000" font-family="Lato" font-size="4.2322px" letter-spacing="0px" stroke-linecap="butt" stroke-linejoin="miter" stroke-width=".17673" word-spacing="0px" style="font-variant-caps:normal;font-variant-east-asian:normal;font-variant-ligatures:normal;font-variant-numeric:normal;line-height:0%" xml:space="preserve"><tspan x="169.92238" y="-240.18976" fill="#000000" font-family="Lato" font-size="4.2322px" stroke-width=".17673" style="font-variant-caps:normal;font-variant-east-asian:normal;font-variant-ligatures:normal;font-variant-numeric:normal;line-height:1.25">D</tspan></text><path transform="matrix(3.9846 0 0 3.9672 -171.38 731.03)" d="m103.82-250.38h9.2886v-5.8009h-9.2886z" fill="none" stroke="#000" stroke-linecap="butt" stroke-linejoin="miter" stroke-width=".066547"/><path transform="matrix(3.9846 0 0 3.9672 -171.38 731.03)" d="m108.63-252.86 0.41937-0.20177-0.48446-0.13624 0.43147-0.17527-0.4631-0.13532 0.39242-0.15946-0.41194-0.10415 0.34034-0.19108-0.37148-0.10229 0.31846-0.19313-0.3566-0.14667 0.26826-0.1483-0.29987-0.11557 0.24641-0.17966-0.24641-0.13112 0.17575-0.16413-0.20132-0.12319 0.13065-0.18833-0.13065-0.1339 0.0953-0.11948-0.60305 7e-3 -0.37427 2.8416h1.1247" fill="#000" stroke="#000" stroke-linecap="round" stroke-linejoin="round" stroke-width=".066547"/><g fill="none" stroke="#000" stroke-linecap="butt" stroke-linejoin="miter" stroke-width=".066547"><path transform="matrix(3.9846 0 0 3.9672 -171.38 731.03)" d="m103.82-244.57h9.2891v-5.8006h-9.2891z"/><path transform="matrix(3.9846 0 0 3.9672 -171.38 731.03)" d="m104.87-249.41h6.4906v2.129h-6.4906"/><path transform="matrix(3.9846 0 0 3.9672 -171.38 731.03)" d="m104.66-247.28 2.8924-2.129"/><path transform="matrix(3.9846 0 0 3.9672 -171.38 731.03)" d="m105.52-247.27 2.8924-2.129"/><path transform="matrix(3.9846 0 0 3.9672 -171.38 731.03)" d="m106.39-247.28 2.8924-2.129"/><path transform="matrix(3.9846 0 0 3.9672 -171.38 731.03)" d="m104.8-248.61 1.0368-0.79366"/><path transform="matrix(3.9846 0 0 3.9672 -171.38 731.03)" d="m104.77-247.99 1.923-1.4106"/><path transform="matrix(3.9846 0 0 3.9672 -171.38 731.03)" d="m108.14-247.28 2.8929-2.129"/><path transform="matrix(3.9846 0 0 3.9672 -171.38 731.03)" d="m107.23-247.25 2.8924-2.129"/><path transform="matrix(3.9846 0 0 3.9672 -171.38 731.03)" d="m109.01-247.27 2.3647-1.7491"/><path transform="matrix(3.9846 0 0 3.9672 -171.38 731.03)" d="m109.86-247.28 1.4929-1.1052"/><path transform="matrix(3.9846 0 0 3.9672 -171.38 731.03)" d="m110.73-247.28 0.63326-0.46494"/></g><g stroke="#000" stroke-width=".066547"><path transform="matrix(3.9846 0 0 3.9672 -171.38 731.03)" d="m111.96-247.21 0.19063-0.68532-0.40495-1e-3 0.21432 0.68673v0" fill="#000" stroke-linecap="round" stroke-linejoin="round"/><path transform="matrix(3.9846 0 0 3.9672 -171.38 731.03)" d="m111.96-249.46 0.19063 0.68533-0.40495 1e-3 0.21432-0.68624v0" fill="#000" stroke-linecap="round" stroke-linejoin="round"/><path transform="matrix(3.9846 0 0 3.9672 -171.38 731.03)" d="m111.95-249v1.3804" fill="none" stroke-linecap="butt" stroke-linejoin="miter"/></g><text transform="matrix(3.9846 0 0 3.9672 -171.38 731.03)" x="106.49223" y="-250.93683" fill="#000000" font-family="sans-serif" font-size="6.7462px" letter-spacing="0px" stroke-linecap="round" stroke-linejoin="round" stroke-width=".037412" word-spacing="0px" style="line-height:0%" xml:space="preserve"><tspan x="106.49223" y="-250.93683" font-family="sans-serif" font-size="1.5866px" stroke-width=".037412" style="line-height:1.25">ø200</tspan></text><text transform="matrix(3.9846 0 0 3.9672 -171.38 731.03)" x="106.62003" y="-245.21309" fill="#000000" font-family="sans-serif" font-size="6.7462px" letter-spacing="0px" stroke-linecap="round" stroke-linejoin="round" stroke-width=".037412" word-spacing="0px" style="line-height:0%" xml:space="preserve"><tspan x="106.62003" y="-245.21309" font-family="sans-serif" font-size="1.5866px" stroke-width=".037412" style="line-height:1.25">2-20</tspan></text><g stroke="#000" stroke-width=".066547"><g fill="none" stroke-linecap="butt" stroke-linejoin="miter"><path transform="matrix(3.9846 0 0 3.9672 -171.38 731.03)" d="m103.83-238.77h9.2886v-5.8011h-9.2886z"/><path transform="matrix(3.9846 0 0 3.9672 -171.38 731.03)" d="m104.71-240.75 0.89223-0.0102v1.2479l-0.91222 2e-3"/><path transform="matrix(3.9846 0 0 3.9672 -171.38 731.03)" d="m104.69-240.08 0.65557-0.67834"/><path transform="matrix(3.9846 0 0 3.9672 -171.38 731.03)" d="m104.72-239.51 0.88618-0.86804"/><path transform="matrix(3.9846 0 0 3.9672 -171.38 731.03)" d="m112.24-240.75-2.9556-0.0102v1.2479l3.0463-0.0256"/><path transform="matrix(3.9846 0 0 3.9672 -171.38 731.03)" d="m110.84-239.51-1.2972-1.2479"/><path transform="matrix(3.9846 0 0 3.9672 -171.38 731.03)" d="m111.52-239.52-1.2679-1.2037"/><path transform="matrix(3.9846 0 0 3.9672 -171.38 731.03)" d="m110.17-239.51-0.88616-0.86804"/><path transform="matrix(3.9846 0 0 3.9672 -171.38 731.03)" d="m112.17-239.52-1.2967-1.2479"/><path transform="matrix(3.9846 0 0 3.9672 -171.38 731.03)" d="m112.25-240.13-0.66162-0.60164"/><path transform="matrix(3.9846 0 0 3.9672 -171.38 731.03)" d="m105.61-239.4 3.667-9e-3"/></g><path transform="matrix(3.9846 0 0 3.9672 -171.38 731.03)" d="m111.64-240.83 0.19063-0.68532-0.40497-1e-3 0.21434 0.68671v0" fill="#000" stroke-linecap="round" stroke-linejoin="round"/><path transform="matrix(3.9846 0 0 3.9672 -171.38 731.03)" d="m111.65-242.96 0.19061 0.68532-0.40495 1e-3 0.21434-0.68625v0" fill="#000" stroke-linecap="round" stroke-linejoin="round"/><g fill="none" stroke-linecap="butt"><path transform="matrix(3.9846 0 0 3.9672 -171.38 731.03)" d="m111.65-242.49v1.3804" stroke-linejoin="miter"/><g stroke-linejoin="round"><path transform="matrix(3.9846 0 0 3.9672 -171.38 731.03)" d="m108.96-244.23-0.37892 0.0632 0.0316 0.22083s0.22084 0.0949 0.3157 0.0949c0.0948 0 0.47377-0.28408 0.47377-0.28408s0-0.0948-0.0948-0.0948h-0.25248z"/><path transform="matrix(3.9846 0 0 3.9672 -171.38 731.03)" d="m110.53-244.24c-0.01 2e-3 -0.0168 0.0177-0.0218 0.04-0.0172 0.0758-0.0107 0.232-0.0107 0.232s-0.0763 0.0326 0.15204 0.1088c0.22875 0.0763 0.28317 0.30501 0.41381 0.10926 0.13064-0.1962 0.21757-0.42449 0.21757-0.45749 0-0.0325-0.25011-0.0763-0.43518-0.0763-0.18503 0-0.3157 0.0437-0.3157 0.0437z"/><path transform="matrix(3.9846 0 0 3.9672 -171.38 731.03)" d="m112.4-243.36-0.32127-0.0958-0.66533-0.38405 0.21434-0.39195s0.59513 0.0112 0.77226 0.0781"/><path transform="matrix(3.9846 0 0 3.9672 -171.38 731.03)" d="m107.77-243.63 0.63605 0.43147 0.25897-0.36405s-0.18923-0.44171-0.32639-0.5728c-0.13717-0.13067-1.0778-0.24179-1.0778-0.24179s-0.13064 0.13717 7e-3 0.26781c0.13716 0.13066 0.36543 0.34872 0.36543 0.34872z"/><path transform="matrix(3.9846 0 0 3.9672 -171.38 731.03)" d="m106.49-243.88s0.29384-0.26129 0.19575-0.272c-0.0981-0.0111-0.18506-0.17435-0.38079-0.16318-0.19621 0.0107-0.3701 0.14133-0.39195 0.17389-0.0219 0.0325-0.0326 0.21758 0.0763 0.21758 0.10879 0 0.50074 0.0437 0.50074 0.0437z"/><path transform="matrix(3.9846 0 0 3.9672 -171.38 731.03)" d="m105.9-243.71-0.75785 0.0865 0.0632 0.30315s0.44169 0.1302 0.63139 0.1302c0.18923 0 0.94709-0.3901 0.94709-0.3901s0-0.12971-0.18923-0.12971h-0.5054z"/><path transform="matrix(3.9846 0 0 3.9672 -171.38 731.03)" d="m104.29-243.27c0.1962-0.0111 0.56025-0.18922 0.5821-0.22176 0.0219-0.0326 0.0326-0.21761-0.0762-0.21761-0.10879 0-0.50074-0.0437-0.50074-0.0437"/><path transform="matrix(3.9846 0 0 3.9672 -171.38 731.03)" d="m105.39-243.82c0.0102-2e-3 0.0181-0.0167 0.0246-0.0386 0.0223-0.0744 0.0265-0.2306 0.0265-0.2306s0.0786-0.0274-0.14413-0.11903c-0.22318-0.0916-0.26177-0.32361-0.40543-0.13716-0.14367 0.18644-0.24642 0.40868-0.24828 0.44122-2e-3 0.033 0.24456 0.0935 0.42914 0.10601 0.18458 0.0125 0.31755-0.0219 0.31755-0.0219z"/><path transform="matrix(3.9846 0 0 3.9672 -171.38 731.03)" d="m106.89-243.2c-0.01-2e-3 -0.0168-0.0177-0.0219-0.04-0.0172-0.0758-0.0107-0.232-0.0107-0.232s-0.0763-0.0326 0.1525-0.1088c0.22829-0.0762 0.28268-0.30501 0.41334-0.10926 0.13065 0.1962 0.21806 0.42449 0.21806 0.4575 0 0.0326-0.25059 0.0763-0.43566 0.0763-0.18503 0-0.3157-0.0437-0.3157-0.0437z"/><path transform="matrix(3.9846 0 0 3.9672 -171.38 731.03)" d="m109.78-243.25 0.75785-0.12648-0.0633-0.44215s-0.44215-0.18923-0.63138-0.18923c-0.1897 0-0.94755 0.56816-0.94755 0.56816s0 0.1897 0.1897 0.1897h0.50492z"/><path transform="matrix(3.9846 0 0 3.9672 -171.38 731.03)" d="m111.49-243.22s0.29385-0.26129 0.19575-0.27198c-0.0981-0.0112-0.18506-0.17437-0.38079-0.1632-0.1962 0.0107-0.37009 0.14135-0.39195 0.17389-0.0218 0.0326-0.0325 0.21758 0.0763 0.21758 0.10879 0 0.50074 0.0437 0.50074 0.0437z"/><path transform="matrix(3.9846 0 0 3.9672 -171.38 731.03)" d="m104.3-243.04 8.0812-8e-3"/></g><path transform="matrix(3.9846 0 0 3.9672 -171.38 731.03)" d="m105.61-239.4-0.52587 4e-3 1e-3 0.11019 2.3221 0.13886 2.3794-0.15606-9.5e-4 -0.10973-0.50911 4e-3 9e-3 -1.6633-3.6629 4e-3z" stroke-linejoin="miter"/></g></g><g stroke-linejoin="round"><text transform="matrix(3.9846 0 0 3.9672 -171.38 731.03)" x="109.28777" y="-241.32707" fill="#000000" font-family="sans-serif" font-size="6.7462px" letter-spacing="0px" stroke-linecap="round" stroke-width=".037412" word-spacing="0px" style="line-height:0%" xml:space="preserve"><tspan x="109.28777" y="-241.32707" font-family="sans-serif" font-size="1.5866px" stroke-width=".037412" style="line-height:1.25">50</tspan></text><text transform="matrix(3.9846 0 0 3.9672 -171.38 731.03)" x="104.3707" y="-256.64859" fill="#000000" font-family="sans-serif" font-size="6.7462px" letter-spacing="0px" stroke-linecap="round" stroke-width=".037412" word-spacing="0px" style="line-height:0%" xml:space="preserve"><tspan x="104.3707" y="-256.64859" font-family="sans-serif" font-size="1.5866px" stroke-width=".037412" style="line-height:1.25">Units: mm</tspan></text><ellipse transform="matrix(3.9846 0 0 3.9672 -171.38 731.03)" cx="108.28" cy="-254.05" rx="1.8162" ry="1.2192" fill="none" opacity=".896" stroke="#000" stroke-linecap="square" stroke-width=".066547"/></g></svg>
