<?xml version="1.0" encoding="UTF-8" standalone="no"?>
<!-- 2024-10-25 14:19:52 Generated by QCAD SVG Exporter -->

<svg
   width="148.44336mm"
   height="37.499027mm"
   viewBox="78.038082 -126.04903 148.44336 37.499028"
   version="1.1"
   style="fill:none;stroke-linecap:round;stroke-linejoin:round"
   id="svg398"
   sodipodi:docname="conector_DCJ_macho.svg"
   inkscape:version="1.2.2 (732a01da63, 2022-12-09)"
   xmlns:inkscape="http://www.inkscape.org/namespaces/inkscape"
   xmlns:sodipodi="http://sodipodi.sourceforge.net/DTD/sodipodi-0.dtd"
   xmlns="http://www.w3.org/2000/svg"
   xmlns:svg="http://www.w3.org/2000/svg">
  <defs
     id="defs402" />
  <sodipodi:namedview
     id="namedview400"
     pagecolor="#ffffff"
     bordercolor="#666666"
     borderopacity="1.0"
     inkscape:showpageshadow="2"
     inkscape:pageopacity="0.0"
     inkscape:pagecheckerboard="0"
     inkscape:deskcolor="#d1d1d1"
     inkscape:document-units="mm"
     showgrid="false"
     inkscape:zoom="1.674083"
     inkscape:cx="283.73742"
     inkscape:cy="72.875717"
     inkscape:window-width="1680"
     inkscape:window-height="987"
     inkscape:window-x="-8"
     inkscape:window-y="-7"
     inkscape:window-maximized="1"
     inkscape:current-layer="svg398" />
  <g
     transform="matrix(1,0,0,-1,0.1,0.1)"
     id="g396"
     style="stroke-width:0.2;stroke-dasharray:none">
    <!-- Linha -->
    <path
       d="m 117.77408,114.22825 v -3.17916"
       style="stroke:#000000;stroke-width:0.2;stroke-dasharray:none"
       id="path2" />
    <!-- Linha -->
    <path
       d="m 123.87408,106.87825 1.8,0.15"
       style="stroke:#000000;stroke-width:0.2;stroke-dasharray:none"
       id="path4" />
    <!-- Linha -->
    <path
       d="m 122.62408,111.04909 v 2.775"
       style="stroke:#000000;stroke-width:0.2;stroke-dasharray:none"
       id="path6" />
    <!-- Linha -->
    <path
       d="m 92.674084,108.54909 h 1.7"
       style="stroke:#000000;stroke-width:0.2;stroke-dasharray:none"
       id="path8" />
    <!-- Linha -->
    <path
       d="m 104.62408,116.29909 v -12"
       style="stroke:#000000;stroke-width:0.2;stroke-dasharray:none"
       id="path10" />
    <!-- Linha -->
    <path
       d="m 125.67408,111.04909 v 2.52083"
       style="stroke:#000000;stroke-width:0.2;stroke-dasharray:none"
       id="path12" />
    <!-- Linha -->
    <path
       d="m 106.52408,104.29909 v 12"
       style="stroke:#000000;stroke-width:0.2;stroke-dasharray:none"
       id="path14" />
    <!-- Linha -->
    <path
       d="m 126.92408,109.54909 v -2.41667"
       style="stroke:#000000;stroke-width:0.2;stroke-dasharray:none"
       id="path16" />
    <!-- Linha -->
    <path
       d="m 103.82408,116.29909 v -12"
       style="stroke:#000000;stroke-width:0.2;stroke-dasharray:none"
       id="path18" />
    <!-- Linha -->
    <path
       d="m 109.17408,116.19909 v -11.8"
       style="stroke:#000000;stroke-width:0.2;stroke-dasharray:none"
       id="path20" />
    <!-- Linha -->
    <path
       d="m 104.37408,116.19909 v -11.8"
       style="stroke:#000000;stroke-width:0.2;stroke-dasharray:none"
       id="path22" />
    <!-- Linha -->
    <path
       d="m 116.52408,106.29909 v 3.25"
       style="stroke:#000000;stroke-width:0.2;stroke-dasharray:none"
       id="path24" />
    <!-- Linha -->
    <path
       d="m 126.92408,107.13242 2,0.16667"
       style="stroke:#000000;stroke-width:0.2;stroke-dasharray:none"
       id="path26" />
    <!-- Linha -->
    <path
       d="m 105.97408,116.19909 v -11.8"
       style="stroke:#000000;stroke-width:0.2;stroke-dasharray:none"
       id="path28" />
    <!-- Linha -->
    <path
       d="m 106.22408,116.29909 v -12"
       style="stroke:#000000;stroke-width:0.2;stroke-dasharray:none"
       id="path30" />
    <!-- Linha -->
    <path
       d="m 103.02408,116.29909 v -12"
       style="stroke:#000000;stroke-width:0.2;stroke-dasharray:none"
       id="path32" />
    <!-- Linha -->
    <path
       d="m 119.57408,111.04909 v 3.02916"
       style="stroke:#000000;stroke-width:0.2;stroke-dasharray:none"
       id="path34" />
    <!-- Linha -->
    <path
       d="m 108.37408,116.19909 v -11.8"
       style="stroke:#000000;stroke-width:0.2;stroke-dasharray:none"
       id="path36" />
    <!-- Linha -->
    <path
       d="m 103.57408,116.19909 v -11.8"
       style="stroke:#000000;stroke-width:0.2;stroke-dasharray:none"
       id="path38" />
    <!-- Linha -->
    <path
       d="m 108.62408,116.29909 v -12"
       style="stroke:#000000;stroke-width:0.2;stroke-dasharray:none"
       id="path40" />
    <!-- Linha -->
    <path
       d="m 107.57408,116.19909 v -11.8"
       style="stroke:#000000;stroke-width:0.2;stroke-dasharray:none"
       id="path42" />
    <!-- Linha -->
    <path
       d="m 105.17408,116.19909 v -11.8"
       style="stroke:#000000;stroke-width:0.2;stroke-dasharray:none"
       id="path44" />
    <!-- Linha -->
    <path
       d="m 126.92408,113.46575 v -2.41666"
       style="stroke:#000000;stroke-width:0.2;stroke-dasharray:none"
       id="path46" />
    <!-- Linha -->
    <path
       d="m 123.87408,113.71992 v -2.67083"
       style="stroke:#000000;stroke-width:0.2;stroke-dasharray:none"
       id="path48" />
    <!-- Linha -->
    <path
       d="m 122.62408,109.54909 h 1.25"
       style="stroke:#000000;stroke-width:0.2;stroke-dasharray:none"
       id="path50" />
    <!-- Linha -->
    <path
       d="m 120.82408,109.54909 v -2.925"
       style="stroke:#000000;stroke-width:0.2;stroke-dasharray:none"
       id="path52" />
    <!-- Linha -->
    <path
       d="m 108.92408,104.29909 v 12"
       style="stroke:#000000;stroke-width:0.2;stroke-dasharray:none"
       id="path54" />
    <!-- Linha -->
    <path
       d="m 112.42408,110.29909 v -6"
       style="stroke:#000000;stroke-width:0.2;stroke-dasharray:none"
       id="path56" />
    <!-- Linha -->
    <path
       d="m 112.42408,116.29909 v -6"
       style="stroke:#000000;stroke-width:0.2;stroke-dasharray:none"
       id="path58" />
    <!-- Linha -->
    <path
       d="m 94.374084,108.74617 v -4.24264"
       style="stroke:#000000;stroke-width:0.2;stroke-dasharray:none"
       id="path60" />
    <!-- Linha -->
    <path
       d="m 92.674084,104.50353 v 4.24264"
       style="stroke:#000000;stroke-width:0.2;stroke-dasharray:none"
       id="path62" />
    <!-- Linha -->
    <path
       d="m 122.62408,106.77409 v 2.775"
       style="stroke:#000000;stroke-width:0.2;stroke-dasharray:none"
       id="path64" />
    <!-- Linha -->
    <path
       d="m 104.92408,104.29909 v 12"
       style="stroke:#000000;stroke-width:0.2;stroke-dasharray:none"
       id="path66" />
    <!-- Linha -->
    <path
       d="m 120.82408,106.62409 1.8,0.15"
       style="stroke:#000000;stroke-width:0.2;stroke-dasharray:none"
       id="path68" />
    <!-- Linha -->
    <path
       d="m 125.67408,113.56992 -1.8,0.15"
       style="stroke:#000000;stroke-width:0.2;stroke-dasharray:none"
       id="path70" />
    <!-- Linha -->
    <path
       d="m 123.87408,109.54909 v -2.67084"
       style="stroke:#000000;stroke-width:0.2;stroke-dasharray:none"
       id="path72" />
    <!-- Linha -->
    <path
       d="m 126.92408,111.04909 h -1.25"
       style="stroke:#000000;stroke-width:0.2;stroke-dasharray:none"
       id="path74" />
    <!-- Linha -->
    <path
       d="m 106.77408,116.19909 v -11.8"
       style="stroke:#000000;stroke-width:0.2;stroke-dasharray:none"
       id="path76" />
    <!-- Linha -->
    <path
       d="m 114.42408,110.29909 v 4"
       style="stroke:#000000;stroke-width:0.2;stroke-dasharray:none"
       id="path78" />
    <!-- Linha -->
    <path
       d="m 114.42408,106.29909 v 4"
       style="stroke:#000000;stroke-width:0.2;stroke-dasharray:none"
       id="path80" />
    <!-- Linha -->
    <path
       d="m 120.82408,111.04909 h -1.25"
       style="stroke:#000000;stroke-width:0.2;stroke-dasharray:none"
       id="path82" />
    <!-- Linha -->
    <path
       d="m 92.674084,108.74617 h 1.7"
       style="stroke:#000000;stroke-width:0.2;stroke-dasharray:none"
       id="path84" />
    <!-- Linha -->
    <path
       d="m 105.72408,104.29909 v 12"
       style="stroke:#000000;stroke-width:0.2;stroke-dasharray:none"
       id="path86" />
    <!-- Linha -->
    <path
       d="m 104.12408,104.29909 v 12"
       style="stroke:#000000;stroke-width:0.2;stroke-dasharray:none"
       id="path88" />
    <!-- Linha -->
    <path
       d="m 117.77408,111.04909 h -1.25"
       style="stroke:#000000;stroke-width:0.2;stroke-dasharray:none"
       id="path90" />
    <!-- Linha -->
    <path
       d="m 125.67408,109.54909 h 1.25"
       style="stroke:#000000;stroke-width:0.2;stroke-dasharray:none"
       id="path92" />
    <!-- Linha -->
    <path
       d="m 119.57408,114.07825 -1.8,0.15"
       style="stroke:#000000;stroke-width:0.2;stroke-dasharray:none"
       id="path94" />
    <!-- Linha -->
    <path
       d="m 116.52408,111.04909 v 3.25"
       style="stroke:#000000;stroke-width:0.2;stroke-dasharray:none"
       id="path96" />
    <!-- Linha -->
    <path
       d="m 128.92408,107.29909 v 6"
       style="stroke:#000000;stroke-width:0.2;stroke-dasharray:none"
       id="path98" />
    <!-- Linha -->
    <path
       d="m 117.77408,106.36992 1.8,0.15"
       style="stroke:#000000;stroke-width:0.2;stroke-dasharray:none"
       id="path100" />
    <!-- Linha -->
    <path
       d="m 94.374084,104.50353 h -1.7"
       style="stroke:#000000;stroke-width:0.2;stroke-dasharray:none"
       id="path102" />
    <!-- Linha -->
    <path
       d="m 102.52408,104.29909 v 12"
       style="stroke:#000000;stroke-width:0.2;stroke-dasharray:none"
       id="path104" />
    <!-- Linha -->
    <path
       d="m 117.77408,109.54909 v -3.17917"
       style="stroke:#000000;stroke-width:0.2;stroke-dasharray:none"
       id="path106" />
    <!-- Linha -->
    <path
       d="m 103.32408,104.29909 v 12"
       style="stroke:#000000;stroke-width:0.2;stroke-dasharray:none"
       id="path108" />
    <!-- Linha -->
    <path
       d="m 128.92408,113.29909 -2,0.16666"
       style="stroke:#000000;stroke-width:0.2;stroke-dasharray:none"
       id="path110" />
    <!-- Linha -->
    <path
       d="m 125.67408,107.02825 v 2.52084"
       style="stroke:#000000;stroke-width:0.2;stroke-dasharray:none"
       id="path112" />
    <!-- Linha -->
    <path
       d="m 92.674084,106.30694 h 1.7"
       style="stroke:#000000;stroke-width:0.2;stroke-dasharray:none"
       id="path114" />
    <!-- Linha -->
    <path
       d="m 119.57408,109.54909 h 1.25"
       style="stroke:#000000;stroke-width:0.2;stroke-dasharray:none"
       id="path116" />
    <!-- Linha -->
    <path
       d="m 123.87408,111.04909 h -1.25"
       style="stroke:#000000;stroke-width:0.2;stroke-dasharray:none"
       id="path118" />
    <!-- Linha -->
    <path
       d="m 119.57408,106.51992 v 3.02917"
       style="stroke:#000000;stroke-width:0.2;stroke-dasharray:none"
       id="path120" />
    <!-- Linha -->
    <path
       d="m 120.82408,113.97409 v -2.925"
       style="stroke:#000000;stroke-width:0.2;stroke-dasharray:none"
       id="path122" />
    <!-- Linha -->
    <path
       d="m 90.924084,110.29909 v -6"
       style="stroke:#000000;stroke-width:0.2;stroke-dasharray:none"
       id="path124" />
    <!-- Linha -->
    <path
       d="m 90.924084,116.29909 v -6"
       style="stroke:#000000;stroke-width:0.2;stroke-dasharray:none"
       id="path126" />
    <!-- Linha -->
    <path
       d="m 107.02408,116.29909 v -12"
       style="stroke:#000000;stroke-width:0.2;stroke-dasharray:none"
       id="path128" />
    <!-- Linha -->
    <path
       d="m 102.77408,116.19909 v -11.8"
       style="stroke:#000000;stroke-width:0.2;stroke-dasharray:none"
       id="path130" />
    <!-- Linha -->
    <path
       d="m 108.12408,104.29909 v 12"
       style="stroke:#000000;stroke-width:0.2;stroke-dasharray:none"
       id="path132" />
    <!-- Linha -->
    <path
       d="m 109.42408,116.29909 v -12"
       style="stroke:#000000;stroke-width:0.2;stroke-dasharray:none"
       id="path134" />
    <!-- Linha -->
    <path
       d="m 122.62408,113.82409 -1.8,0.15"
       style="stroke:#000000;stroke-width:0.2;stroke-dasharray:none"
       id="path136" />
    <!-- Linha -->
    <path
       d="m 107.32408,104.29909 v 12"
       style="stroke:#000000;stroke-width:0.2;stroke-dasharray:none"
       id="path138" />
    <!-- Linha -->
    <path
       d="m 116.52408,109.54909 h 1.25"
       style="stroke:#000000;stroke-width:0.2;stroke-dasharray:none"
       id="path140" />
    <!-- Linha -->
    <path
       d="m 105.42408,116.29909 v -12"
       style="stroke:#000000;stroke-width:0.2;stroke-dasharray:none"
       id="path142" />
    <!-- Linha -->
    <path
       d="m 107.82408,116.29909 v -12"
       style="stroke:#000000;stroke-width:0.2;stroke-dasharray:none"
       id="path144" />
    <!-- Linha -->
    <path
       d="m 102.77408,116.19909 -0.25,0.1"
       style="stroke:#000000;stroke-width:0.2;stroke-dasharray:none"
       id="path146" />
    <!-- Linha -->
    <path
       d="m 109.42408,104.29909 h 3"
       style="stroke:#000000;stroke-width:0.2;stroke-dasharray:none"
       id="path148" />
    <!-- Linha -->
    <path
       d="m 109.17408,104.39909 -0.25,-0.1"
       style="stroke:#000000;stroke-width:0.2;stroke-dasharray:none"
       id="path150" />
    <!-- Linha -->
    <path
       d="m 106.77408,104.39909 -0.25,-0.1"
       style="stroke:#000000;stroke-width:0.2;stroke-dasharray:none"
       id="path152" />
    <!-- Linha -->
    <path
       d="m 104.62408,116.29909 h 0.3"
       style="stroke:#000000;stroke-width:0.2;stroke-dasharray:none"
       id="path154" />
    <!-- Linha -->
    <path
       d="m 108.37408,104.39909 -0.25,-0.1"
       style="stroke:#000000;stroke-width:0.2;stroke-dasharray:none"
       id="path156" />
    <!-- Linha -->
    <path
       d="m 102.77408,104.39909 0.25,-0.1"
       style="stroke:#000000;stroke-width:0.2;stroke-dasharray:none"
       id="path158" />
    <!-- Linha -->
    <path
       d="m 105.97408,116.19909 0.25,0.1"
       style="stroke:#000000;stroke-width:0.2;stroke-dasharray:none"
       id="path160" />
    <!-- Linha -->
    <path
       d="m 106.77408,116.19909 0.25,0.1"
       style="stroke:#000000;stroke-width:0.2;stroke-dasharray:none"
       id="path162" />
    <!-- Linha -->
    <path
       d="m 104.37408,116.19909 -0.25,0.1"
       style="stroke:#000000;stroke-width:0.2;stroke-dasharray:none"
       id="path164" />
    <!-- Linha -->
    <path
       d="m 109.17408,116.19909 0.25,0.1"
       style="stroke:#000000;stroke-width:0.2;stroke-dasharray:none"
       id="path166" />
    <!-- Linha -->
    <path
       d="m 108.37408,104.39909 0.25,-0.1"
       style="stroke:#000000;stroke-width:0.2;stroke-dasharray:none"
       id="path168" />
    <!-- Linha -->
    <path
       d="m 104.37408,116.19909 0.25,0.1"
       style="stroke:#000000;stroke-width:0.2;stroke-dasharray:none"
       id="path170" />
    <!-- Linha -->
    <path
       d="m 105.17408,116.19909 0.25,0.1"
       style="stroke:#000000;stroke-width:0.2;stroke-dasharray:none"
       id="path172" />
    <!-- Linha -->
    <path
       d="m 105.42408,104.29909 h 0.3"
       style="stroke:#000000;stroke-width:0.2;stroke-dasharray:none"
       id="path174" />
    <!-- Linha -->
    <path
       d="m 105.42408,116.29909 h 0.3"
       style="stroke:#000000;stroke-width:0.2;stroke-dasharray:none"
       id="path176" />
    <!-- Linha -->
    <path
       d="m 103.57408,116.19909 -0.25,0.1"
       style="stroke:#000000;stroke-width:0.2;stroke-dasharray:none"
       id="path178" />
    <!-- Linha -->
    <path
       d="m 103.57408,116.19909 0.25,0.1"
       style="stroke:#000000;stroke-width:0.2;stroke-dasharray:none"
       id="path180" />
    <!-- Linha -->
    <path
       d="m 114.42408,114.29909 -2,2"
       style="stroke:#000000;stroke-width:0.2;stroke-dasharray:none"
       id="path182" />
    <!-- Linha -->
    <path
       d="m 108.37408,116.19909 -0.25,0.1"
       style="stroke:#000000;stroke-width:0.2;stroke-dasharray:none"
       id="path184" />
    <!-- Linha -->
    <path
       d="m 105.97408,116.19909 -0.25,0.1"
       style="stroke:#000000;stroke-width:0.2;stroke-dasharray:none"
       id="path186" />
    <!-- Linha -->
    <path
       d="m 105.97408,104.39909 0.25,-0.1"
       style="stroke:#000000;stroke-width:0.2;stroke-dasharray:none"
       id="path188" />
    <!-- Linha -->
    <path
       d="m 107.82408,104.29909 h 0.3"
       style="stroke:#000000;stroke-width:0.2;stroke-dasharray:none"
       id="path190" />
    <!-- Linha -->
    <path
       d="m 107.02408,116.29909 h 0.3"
       style="stroke:#000000;stroke-width:0.2;stroke-dasharray:none"
       id="path192" />
    <!-- Linha -->
    <path
       d="m 107.57408,116.19909 0.25,0.1"
       style="stroke:#000000;stroke-width:0.2;stroke-dasharray:none"
       id="path194" />
    <!-- Linha -->
    <path
       d="m 107.57408,104.39909 0.25,-0.1"
       style="stroke:#000000;stroke-width:0.2;stroke-dasharray:none"
       id="path196" />
    <!-- Linha -->
    <path
       d="m 107.57408,116.19909 -0.25,0.1"
       style="stroke:#000000;stroke-width:0.2;stroke-dasharray:none"
       id="path198" />
    <!-- Linha -->
    <path
       d="m 104.37408,104.39909 0.25,-0.1"
       style="stroke:#000000;stroke-width:0.2;stroke-dasharray:none"
       id="path200" />
    <!-- Linha -->
    <path
       d="m 105.97408,104.39909 -0.25,-0.1"
       style="stroke:#000000;stroke-width:0.2;stroke-dasharray:none"
       id="path202" />
    <!-- Linha -->
    <path
       d="m 104.62408,104.29909 h 0.3"
       style="stroke:#000000;stroke-width:0.2;stroke-dasharray:none"
       id="path204" />
    <!-- Linha -->
    <path
       d="m 107.82408,116.29909 h 0.3"
       style="stroke:#000000;stroke-width:0.2;stroke-dasharray:none"
       id="path206" />
    <!-- Linha -->
    <path
       d="m 106.22408,116.29909 h 0.3"
       style="stroke:#000000;stroke-width:0.2;stroke-dasharray:none"
       id="path208" />
    <!-- Linha -->
    <path
       d="M 90.924084,104.29909 H 102.52408"
       style="stroke:#000000;stroke-width:0.2;stroke-dasharray:none"
       id="path210" />
    <!-- Linha -->
    <path
       d="m 104.37408,104.39909 -0.25,-0.1"
       style="stroke:#000000;stroke-width:0.2;stroke-dasharray:none"
       id="path212" />
    <!-- Linha -->
    <path
       d="m 103.82408,116.29909 h 0.3"
       style="stroke:#000000;stroke-width:0.2;stroke-dasharray:none"
       id="path214" />
    <!-- Linha -->
    <path
       d="m 109.17408,104.39909 0.25,-0.1"
       style="stroke:#000000;stroke-width:0.2;stroke-dasharray:none"
       id="path216" />
    <!-- Linha -->
    <path
       d="m 107.02408,104.29909 h 0.3"
       style="stroke:#000000;stroke-width:0.2;stroke-dasharray:none"
       id="path218" />
    <!-- Linha -->
    <path
       d="m 114.42408,106.29909 -2,-2"
       style="stroke:#000000;stroke-width:0.2;stroke-dasharray:none"
       id="path220" />
    <!-- Linha -->
    <path
       d="m 108.37408,116.19909 0.25,0.1"
       style="stroke:#000000;stroke-width:0.2;stroke-dasharray:none"
       id="path222" />
    <!-- Linha -->
    <path
       d="m 114.42408,114.29909 h 2.1"
       style="stroke:#000000;stroke-width:0.2;stroke-dasharray:none"
       id="path224" />
    <!-- Linha -->
    <path
       d="m 106.77408,116.19909 -0.25,0.1"
       style="stroke:#000000;stroke-width:0.2;stroke-dasharray:none"
       id="path226" />
    <!-- Linha -->
    <path
       d="M 90.924084,116.29909 H 102.52408"
       style="stroke:#000000;stroke-width:0.2;stroke-dasharray:none"
       id="path228" />
    <!-- Linha -->
    <path
       d="m 103.02408,104.29909 h 0.3"
       style="stroke:#000000;stroke-width:0.2;stroke-dasharray:none"
       id="path230" />
    <!-- Linha -->
    <path
       d="m 106.22408,104.29909 h 0.3"
       style="stroke:#000000;stroke-width:0.2;stroke-dasharray:none"
       id="path232" />
    <!-- Linha -->
    <path
       d="m 108.62408,104.29909 h 0.3"
       style="stroke:#000000;stroke-width:0.2;stroke-dasharray:none"
       id="path234" />
    <!-- Linha -->
    <path
       d="m 103.57408,104.39909 0.25,-0.1"
       style="stroke:#000000;stroke-width:0.2;stroke-dasharray:none"
       id="path236" />
    <!-- Linha -->
    <path
       d="m 103.82408,104.29909 h 0.3"
       style="stroke:#000000;stroke-width:0.2;stroke-dasharray:none"
       id="path238" />
    <!-- Linha -->
    <path
       d="m 103.02408,116.29909 h 0.3"
       style="stroke:#000000;stroke-width:0.2;stroke-dasharray:none"
       id="path240" />
    <!-- Linha -->
    <path
       d="m 107.57408,104.39909 -0.25,-0.1"
       style="stroke:#000000;stroke-width:0.2;stroke-dasharray:none"
       id="path242" />
    <!-- Linha -->
    <path
       d="m 109.17408,116.19909 -0.25,0.1"
       style="stroke:#000000;stroke-width:0.2;stroke-dasharray:none"
       id="path244" />
    <!-- Linha -->
    <path
       d="m 114.42408,106.29909 h 2.1"
       style="stroke:#000000;stroke-width:0.2;stroke-dasharray:none"
       id="path246" />
    <!-- Linha -->
    <path
       d="m 109.42408,116.29909 h 3"
       style="stroke:#000000;stroke-width:0.2;stroke-dasharray:none"
       id="path248" />
    <!-- Linha -->
    <path
       d="m 102.77408,104.39909 -0.25,-0.1"
       style="stroke:#000000;stroke-width:0.2;stroke-dasharray:none"
       id="path250" />
    <!-- Linha -->
    <path
       d="m 105.17408,104.39909 -0.25,-0.1"
       style="stroke:#000000;stroke-width:0.2;stroke-dasharray:none"
       id="path252" />
    <!-- Linha -->
    <path
       d="m 105.17408,104.39909 0.25,-0.1"
       style="stroke:#000000;stroke-width:0.2;stroke-dasharray:none"
       id="path254" />
    <!-- Linha -->
    <path
       d="m 108.62408,116.29909 h 0.3"
       style="stroke:#000000;stroke-width:0.2;stroke-dasharray:none"
       id="path256" />
    <!-- Linha -->
    <path
       d="m 106.77408,104.39909 0.25,-0.1"
       style="stroke:#000000;stroke-width:0.2;stroke-dasharray:none"
       id="path258" />
    <!-- Linha -->
    <path
       d="m 103.57408,104.39909 -0.25,-0.1"
       style="stroke:#000000;stroke-width:0.2;stroke-dasharray:none"
       id="path260" />
    <!-- Linha -->
    <path
       d="m 105.17408,116.19909 -0.25,0.1"
       style="stroke:#000000;stroke-width:0.2;stroke-dasharray:none"
       id="path262" />
    <!-- Linha -->
    <path
       d="m 102.77408,116.19909 0.25,0.1"
       style="stroke:#000000;stroke-width:0.2;stroke-dasharray:none"
       id="path264" />
    <!-- Linha -->
    <path
       d="m 176.31555,108.65762 v 3.5"
       style="stroke:#000000;stroke-width:0.2;stroke-dasharray:none"
       id="path266" />
    <!-- Linha -->
    <path
       d="m 116.52408,112.04909 h 1.25"
       style="stroke:#000000;stroke-width:0.2;stroke-dasharray:none"
       id="path268" />
    <!-- Linha -->
    <path
       d="m 119.57408,112.04909 h 1.25"
       style="stroke:#000000;stroke-width:0.2;stroke-dasharray:none"
       id="path270" />
    <!-- Linha -->
    <path
       d="m 122.62408,112.04909 h 1.25"
       style="stroke:#000000;stroke-width:0.2;stroke-dasharray:none"
       id="path272" />
    <!-- Linha -->
    <path
       d="m 125.67408,112.04909 h 1.25"
       style="stroke:#000000;stroke-width:0.2;stroke-dasharray:none"
       id="path274" />
    <!-- Linha -->
    <path
       d="m 128.92408,112.04909 h 25.10883"
       style="stroke:#000000;stroke-width:0.2;stroke-dasharray:none"
       id="path276" />
    <!-- Linha -->
    <path
       d="m 155.55566,112.15762 h 20.75989"
       style="stroke:#000000;stroke-width:0.2;stroke-dasharray:none"
       id="path278" />
    <!-- Linha -->
    <path
       d="m 116.52408,108.54909 h 1.25"
       style="stroke:#000000;stroke-width:0.2;stroke-dasharray:none"
       id="path280" />
    <!-- Linha -->
    <path
       d="m 119.57408,108.54909 h 1.25"
       style="stroke:#000000;stroke-width:0.2;stroke-dasharray:none"
       id="path282" />
    <!-- Linha -->
    <path
       d="m 122.62408,108.54909 h 1.25"
       style="stroke:#000000;stroke-width:0.2;stroke-dasharray:none"
       id="path284" />
    <!-- Linha -->
    <path
       d="m 125.67408,108.54909 h 1.25"
       style="stroke:#000000;stroke-width:0.2;stroke-dasharray:none"
       id="path286" />
    <!-- Linha -->
    <path
       d="m 128.92408,108.54909 h 21.60883"
       style="stroke:#000000;stroke-width:0.2;stroke-dasharray:none"
       id="path288" />
    <!-- Linha -->
    <path
       d="m 152.05566,108.65762 h 24.25989"
       style="stroke:#000000;stroke-width:0.2;stroke-dasharray:none"
       id="path290" />
    <!-- Linha -->
    <path
       d="m 183.81555,109.40762 v 2"
       style="stroke:#000000;stroke-width:0.2;stroke-dasharray:none"
       id="path292" />
    <!-- Linha -->
    <path
       d="m 176.31555,111.40762 h 7.5"
       style="stroke:#000000;stroke-width:0.2;stroke-dasharray:none"
       id="path294" />
    <!-- Linha -->
    <path
       d="m 176.31555,109.40762 h 7.5"
       style="stroke:#000000;stroke-width:0.2;stroke-dasharray:none"
       id="path296" />
    <!-- Linha -->
    <path
       d="m 188.81555,109.80762 v 1.2"
       style="stroke:#000000;stroke-width:0.2;stroke-dasharray:none"
       id="path298" />
    <!-- Linha -->
    <path
       d="m 183.81555,111.00762 h 5"
       style="stroke:#000000;stroke-width:0.2;stroke-dasharray:none"
       id="path300" />
    <!-- Linha -->
    <path
       d="m 183.81555,109.80762 h 5"
       style="stroke:#000000;stroke-width:0.2;stroke-dasharray:none"
       id="path302" />
    <!-- Dimensão Rotacionada -->
    <g
       id="g316"
       style="stroke-width:0.2;stroke-dasharray:none">
      <path
         d="m 90.924084,90 3,0.499542 v -0.999084 z"
         style="fill:#000000;fill-rule:evenodd;stroke:#000000;stroke-width:0.2;stroke-dasharray:none"
         id="path304" />
      <path
         d="m 128.92408,90 -3,-0.499542 v 0.999084 z"
         style="fill:#000000;fill-rule:evenodd;stroke:#000000;stroke-width:0.2;stroke-dasharray:none"
         id="path306" />
      <g
         id="g312"
         style="stroke-width:0.2;stroke-dasharray:none">
        <path
           d="m 109.10708,91.961918 h 0.29709 m 0,-0.594186 c 0.16408,0 0.29709,0.133013 0.29709,0.297093 0,0.16408 -0.13301,0.297093 -0.29709,0.297093 m 0,-0.594186 h -0.14855 m 0.44564,-0.297093 c 0,0.16408 -0.13301,0.297093 -0.29709,0.297093 m 0.29709,-0.297093 V 90.922093 M 109.40417,90.625 c 0.16408,0 0.29709,0.133013 0.29709,0.297093 M 109.40417,90.625 h -0.29709"
           style="stroke:#000000;stroke-width:0.2;stroke-dasharray:none"
           id="path308" />
        <path
           d="m 110.1469,91.070639 v -0.148546 c 0,-0.16408 0.13302,-0.297093 0.2971,-0.297093 0.16408,0 0.29709,0.133013 0.29709,0.297093 v 0.148546 c 0,0.16408 -0.13301,0.297093 -0.29709,0.297093 -0.16408,0 -0.2971,-0.133013 -0.2971,-0.297093 m 0.0371,0.631323 v -0.07427 c 0,-0.14357 0.11639,-0.259957 0.25996,-0.259957 0.14357,0 0.25995,0.116387 0.25995,0.259957 v 0.07427 c 0,0.14357 -0.11638,0.259956 -0.25995,0.259956 -0.14357,0 -0.25996,-0.116386 -0.25996,-0.259956"
           style="stroke:#000000;stroke-width:0.2;stroke-dasharray:none"
           id="path310" />
      </g>
      <path
         d="M 90.924084,90 H 128.92408 M 90.924084,115.67409 V 88.75 m 37.999996,23.92409 V 88.75"
         style="stroke:#000000;stroke-width:0.2;stroke-dasharray:none"
         id="path314" />
    </g>
    <!-- Dimensão Rotacionada -->
    <g
       id="g330"
       style="stroke-width:0.2;stroke-dasharray:none">
      <path
         d="m 90.924084,124.08704 3,0.49955 v -0.99909 z"
         style="fill:#000000;fill-rule:evenodd;stroke:#000000;stroke-width:0.2;stroke-dasharray:none"
         id="path318" />
      <path
         d="m 188.92408,124.08704 -3,-0.49954 v 0.99909 z"
         style="fill:#000000;fill-rule:evenodd;stroke:#000000;stroke-width:0.2;stroke-dasharray:none"
         id="path320" />
      <g
         id="g326"
         style="stroke-width:0.2;stroke-dasharray:none">
        <path
           d="m 139.25562,124.71209 1.1e-4,-1.1e-4 c 0.26637,0.15415 0.44553,0.44214 0.44553,0.77198 v 0.26797 c 0,0.16408 -0.13301,0.2971 -0.29709,0.2971 -0.16408,0 -0.29709,-0.13302 -0.29709,-0.2971 v -0.14854 c 0,-0.16408 0.13301,-0.29709 0.29709,-0.29709 h 0.27927"
           style="stroke:#000000;stroke-width:0.2;stroke-dasharray:none"
           id="path322" />
        <path
           d="m 140.1469,125.15775 v -0.14855 c 0,-0.16408 0.13302,-0.29709 0.2971,-0.29709 0.16408,0 0.29709,0.13301 0.29709,0.29709 v 0.14855 c 0,0.16408 -0.13301,0.29709 -0.29709,0.29709 -0.16408,0 -0.2971,-0.13301 -0.2971,-0.29709 m 0.0371,0.63132 v -0.0743 c 0,-0.14357 0.11639,-0.25996 0.25996,-0.25996 0.14357,0 0.25995,0.11639 0.25995,0.25996 v 0.0743 c 0,0.14357 -0.11638,0.25996 -0.25995,0.25996 -0.14357,0 -0.25996,-0.11639 -0.25996,-0.25996"
           style="stroke:#000000;stroke-width:0.2;stroke-dasharray:none"
           id="path324" />
      </g>
      <path
         d="m 90.924084,124.08704 h 97.999996 m -97.999996,-7.16295 v 8.41295 m 97.999996,-13.81295 v 13.81295"
         style="stroke:#000000;stroke-width:0.2;stroke-dasharray:none"
         id="path328" />
    </g>
    <!-- Dimensão Rotacionada -->
    <g
       id="g344"
       style="stroke-width:0.2;stroke-dasharray:none">
      <path
         d="m 80,116.29909 0.499542,-3 h -0.999084 z"
         style="fill:#000000;fill-rule:evenodd;stroke:#000000;stroke-width:0.2;stroke-dasharray:none"
         id="path332" />
      <path
         d="m 80,104.29909 -0.499542,3 h 0.999084 z"
         style="fill:#000000;fill-rule:evenodd;stroke:#000000;stroke-width:0.2;stroke-dasharray:none"
         id="path334" />
      <g
         id="g340"
         style="stroke-width:0.2;stroke-dasharray:none">
        <path
           d="m 78.335175,109.63063 -0.297093,0.29709 H 79.375"
           style="stroke:#000000;stroke-width:0.2;stroke-dasharray:none"
           id="path336" />
        <path
           d="m 79.375,110.96755 v -0.59419 l -0.987388,0.57413 m 1.51e-4,-1e-4 2.6e-5,1e-5 c -0.02196,0.0128 -0.0475,0.0202 -0.07475,0.0202 -0.01835,0 -0.03593,-0.003 -0.05213,-0.009 m -2.4e-5,-3e-5 -6.7e-5,6e-5 c -0.128136,-0.0331 -0.22274,-0.14934 -0.22274,-0.28772 0,-0.13836 0.09459,-0.25464 0.222561,-0.28766"
           style="stroke:#000000;stroke-width:0.2;stroke-dasharray:none"
           id="path338" />
      </g>
      <path
         d="m 80,116.29909 v -12 m 10.299084,12 H 78.75 m 11.549084,-12 H 78.75"
         style="stroke:#000000;stroke-width:0.2;stroke-dasharray:none"
         id="path342" />
    </g>
    <!-- Dimensão Rotacionada -->
    <g
       id="g360"
       style="stroke-width:0.2;stroke-dasharray:none">
      <path
         d="m 166,112.15762 -0.49954,3 h 0.99908 z"
         style="fill:#000000;fill-rule:evenodd;stroke:#000000;stroke-width:0.2;stroke-dasharray:none"
         id="path346" />
      <path
         d="m 166,108.65762 0.49954,-3 h -0.99908 z"
         style="fill:#000000;fill-rule:evenodd;stroke:#000000;stroke-width:0.2;stroke-dasharray:none"
         id="path348" />
      <g
         id="g356"
         style="stroke-width:0.2;stroke-dasharray:none">
        <path
           d="m 163.33154,102.96017 v 0.2971 m 0.59419,0 c 0,0.16408 -0.13302,0.29709 -0.2971,0.29709 -0.16408,0 -0.29709,-0.13301 -0.29709,-0.29709 m 0.59419,0 v -0.14855 m 0.29709,0.44564 c -0.16408,0 -0.29709,-0.13301 -0.29709,-0.29709 m 0.29709,0.29709 h 0.14855 m 0.29709,-0.29709 c 0,0.16408 -0.13301,0.29709 -0.29709,0.29709 m 0.29709,-0.29709 v -0.2971"
           style="stroke:#000000;stroke-width:0.2;stroke-dasharray:none"
           id="path350" />
        <path
           d="m 164.66846,104 h -0.0743"
           style="stroke:#000000;stroke-width:0.2;stroke-dasharray:none"
           id="path352" />
        <path
           d="m 163.33154,105.03983 v -0.59419 h 0.59419 v 0.29709 m 0.29709,0.2971 c -0.16408,0 -0.29709,-0.13302 -0.29709,-0.2971 m 0.29709,0.2971 h 0.14855 m 0.29709,-0.2971 c 0,0.16408 -0.13301,0.2971 -0.29709,0.2971 m 0.29709,-0.2971 v -0.29709"
           style="stroke:#000000;stroke-width:0.2;stroke-dasharray:none"
           id="path354" />
      </g>
      <path
         d="m 166,118.15762 v -15.5 m 9.69055,9.5 H 164.75 m 10.94055,-3.5 H 164.75"
         style="stroke:#000000;stroke-width:0.2;stroke-dasharray:none"
         id="path358" />
    </g>
    <!-- Linha -->
    <path
       d="m 148.73686,106.75304 7.0921,7.0921"
       style="stroke:#000000;stroke-width:0.2;stroke-dasharray:none"
       id="path362" />
    <!-- Linha -->
    <path
       d="m 150.25961,106.86157 7.0921,7.09211"
       style="stroke:#000000;stroke-width:0.2;stroke-dasharray:none"
       id="path364" />
    <!-- Arco -->
    <path
       d="m 216.68458,112.04909 a 4,4 0 0 1 0,-3.5"
       style="stroke:#000000;stroke-width:0.2;stroke-dasharray:none"
       id="path366" />
    <!-- Linha -->
    <path
       d="m 215.4379,112.04909 h 1.24668"
       style="stroke:#000000;stroke-width:0.2;stroke-dasharray:none"
       id="path368" />
    <!-- Arco -->
    <path
       d="m 215.4379,112.04909 a 5.15,5.15 0 0 1 0,-3.5"
       style="stroke:#000000;stroke-width:0.2;stroke-dasharray:none"
       id="path370" />
    <!-- Linha -->
    <path
       d="M 216.68458,108.54909 H 215.4379"
       style="stroke:#000000;stroke-width:0.2;stroke-dasharray:none"
       id="path372" />
    <!-- Linha -->
    <path
       d="m 223.87833,112.04909 h 1.24668"
       style="stroke:#000000;stroke-width:0.2;stroke-dasharray:none"
       id="path374" />
    <!-- Arco -->
    <path
       d="m 223.87833,108.54909 a 4,4 0 0 1 0,3.5"
       style="stroke:#000000;stroke-width:0.2;stroke-dasharray:none"
       id="path376" />
    <!-- Arco -->
    <path
       d="m 216.68458,108.54909 a 4,4 0 0 1 7.19375,0"
       style="stroke:#000000;stroke-width:0.2;stroke-dasharray:none"
       id="path378" />
    <!-- Arco -->
    <path
       d="m 223.87833,112.04909 a 4,4 0 0 1 -7.19375,0"
       style="stroke:#000000;stroke-width:0.2;stroke-dasharray:none"
       id="path380" />
    <!-- Círculo -->
    <circle
       cx="220.28145"
       cy="110.29909"
       r="6"
       style="stroke:#000000;stroke-width:0.2;stroke-dasharray:none"
       id="circle382" />
    <!-- Arco -->
    <path
       d="m 225.12501,108.54909 a 5.15,5.15 0 0 1 0,3.5"
       style="stroke:#000000;stroke-width:0.2;stroke-dasharray:none"
       id="path384" />
    <!-- Linha -->
    <path
       d="m 225.12501,108.54909 h -1.24668"
       style="stroke:#000000;stroke-width:0.2;stroke-dasharray:none"
       id="path386" />
    <!-- Arco -->
    <path
       d="m 216.68458,112.04909 a 4,4 0 0 1 0,-3.5"
       style="stroke:#000000;stroke-width:0.2;stroke-dasharray:none"
       id="path388" />
    <!-- Arco -->
    <path
       d="m 223.87833,108.54909 a 4,4 0 0 1 0,3.5"
       style="stroke:#000000;stroke-width:0.2;stroke-dasharray:none"
       id="path390" />
    <!-- Círculo -->
    <circle
       cx="220.28145"
       cy="110.29909"
       r="2.75"
       style="stroke:#000000;stroke-width:0.2;stroke-dasharray:none"
       id="circle392" />
    <!-- Círculo -->
    <circle
       cx="220.28145"
       cy="110.29909"
       r="1"
       style="stroke:#000000;stroke-width:0.2;stroke-dasharray:none"
       id="circle394" />
  </g>
</svg>
