<?xml version="1.0" encoding="UTF-8" standalone="no"?>
<!-- Created with Inkscape (http://www.inkscape.org/) -->

<svg
   width="30mm"
   height="60.869263mm"
   viewBox="0 0 30 60.869263"
   version="1.1"
   id="svg4426"
   inkscape:version="1.3.2 (091e20e, 2023-11-25, custom)"
   sodipodi:docname="simbolo_encastre_DL300x300.svg"
   inkscape:export-filename="EncastreDL300X300.png"
   inkscape:export-xdpi="2000"
   inkscape:export-ydpi="2000"
   xmlns:inkscape="http://www.inkscape.org/namespaces/inkscape"
   xmlns:sodipodi="http://sodipodi.sourceforge.net/DTD/sodipodi-0.dtd"
   xmlns="http://www.w3.org/2000/svg"
   xmlns:svg="http://www.w3.org/2000/svg"
   xmlns:rdf="http://www.w3.org/1999/02/22-rdf-syntax-ns#"
   xmlns:cc="http://creativecommons.org/ns#"
   xmlns:dc="http://purl.org/dc/elements/1.1/">
  <defs
     id="defs4420" />
  <sodipodi:namedview
     id="base"
     pagecolor="#ffffff"
     bordercolor="#666666"
     borderopacity="1.0"
     inkscape:pageopacity="0.0"
     inkscape:pageshadow="2"
     inkscape:zoom="1.4"
     inkscape:cx="43.928571"
     inkscape:cy="160.35714"
     inkscape:document-units="mm"
     inkscape:current-layer="g4188"
     showgrid="false"
     inkscape:window-width="1280"
     inkscape:window-height="961"
     inkscape:window-x="-8"
     inkscape:window-y="-8"
     inkscape:window-maximized="1"
     fit-margin-top="0"
     fit-margin-left="0"
     fit-margin-right="0"
     fit-margin-bottom="0"
     inkscape:showpageshadow="2"
     inkscape:pagecheckerboard="0"
     inkscape:deskcolor="#d1d1d1" />
  <metadata
     id="metadata4423">
    <rdf:RDF>
      <cc:Work
         rdf:about="">
        <dc:format>image/svg+xml</dc:format>
        <dc:type
           rdf:resource="http://purl.org/dc/dcmitype/StillImage" />
        <dc:title />
      </cc:Work>
    </rdf:RDF>
  </metadata>
  <g
     inkscape:label="Layer 1"
     inkscape:groupmode="layer"
     id="layer1"
     transform="translate(-7.081046,-231.78797)">
    <g
       id="g4241"
       transform="matrix(1.7860809,0,0,1.7860809,-5.5662753,-230.05228)">
      <g
         id="g4188">
        <path
           inkscape:connector-curvature="0"
           id="path2981"
           style="fill:none;stroke:#000000;stroke-width:0.26998526;stroke-linecap:butt;stroke-linejoin:miter;stroke-miterlimit:4;stroke-dasharray:none;stroke-opacity:1"
           d="m 7.2160388,271.87625 16.5224112,0 0,-10.31855 -16.5224112,0 z" />
        <path
           inkscape:connector-curvature="0"
           id="path2995"
           style="fill:#000000;fill-opacity:1;fill-rule:nonzero;stroke:none;stroke-width:0.04234399"
           d="m 15.774985,267.46884 0.745974,-0.35891 -0.861743,-0.24233 0.767485,-0.31178 -0.82376,-0.24069 0.698041,-0.28366 -0.732763,-0.18525 0.605392,-0.3399 -0.660778,-0.18195 0.566478,-0.34354 -0.634313,-0.26088 0.477174,-0.2638 -0.533407,-0.20558 0.438303,-0.31957 -0.438303,-0.23323 0.312626,-0.29196 -0.358103,-0.21913 0.232384,-0.33499 -0.232384,-0.23818 0.169545,-0.21253 -1.0727,0.0132 -0.665732,5.05465 2.000584,0" />
        <path
           inkscape:connector-curvature="0"
           id="path2997"
           style="fill:none;stroke:#000000;stroke-width:0.26998526;stroke-linecap:butt;stroke-linejoin:miter;stroke-miterlimit:4;stroke-dasharray:none;stroke-opacity:1"
           d="m 7.2193468,282.2034 16.5232582,0 0,-10.31804 -16.5232582,0 z" />
        <path
           inkscape:connector-curvature="0"
           id="path3009"
           style="fill:none;stroke:#000000;stroke-width:0.12703195;stroke-linecap:butt;stroke-linejoin:miter;stroke-miterlimit:4;stroke-dasharray:none;stroke-opacity:1"
           d="m 9.0818188,273.59567 11.5453632,0 0,3.78695 -11.5453632,0" />
        <path
           inkscape:connector-curvature="0"
           id="path3013"
           style="fill:none;stroke:#000000;stroke-width:0.12703195;stroke-linecap:butt;stroke-linejoin:miter;stroke-miterlimit:4;stroke-dasharray:none;stroke-opacity:1"
           d="M 8.7096578,277.39008 13.8546,273.60313" />
        <path
           inkscape:connector-curvature="0"
           id="path3017"
           style="fill:none;stroke:#000000;stroke-width:0.12703195;stroke-linecap:butt;stroke-linejoin:miter;stroke-miterlimit:4;stroke-dasharray:none;stroke-opacity:1"
           d="m 10.23222,277.40413 5.144943,-3.78695" />
        <path
           inkscape:connector-curvature="0"
           id="path3021"
           style="fill:none;stroke:#000000;stroke-width:0.12703195;stroke-linecap:butt;stroke-linejoin:miter;stroke-miterlimit:4;stroke-dasharray:none;stroke-opacity:1"
           d="m 11.782074,277.38677 5.144964,-3.78695" />
        <path
           inkscape:connector-curvature="0"
           id="path3025"
           style="fill:none;stroke:#000000;stroke-width:0.12703195;stroke-linecap:butt;stroke-linejoin:miter;stroke-miterlimit:4;stroke-dasharray:none;stroke-opacity:1"
           d="m 8.9519758,275.01487 1.8442792,-1.41174" />
        <path
           inkscape:connector-curvature="0"
           id="path3029"
           style="fill:none;stroke:#000000;stroke-width:0.12703195;stroke-linecap:butt;stroke-linejoin:miter;stroke-miterlimit:4;stroke-dasharray:none;stroke-opacity:1"
           d="m 8.8990458,276.1264 3.4205852,-2.50922" />
        <path
           inkscape:connector-curvature="0"
           id="path3033"
           style="fill:none;stroke:#000000;stroke-width:0.12703195;stroke-linecap:butt;stroke-linejoin:miter;stroke-miterlimit:4;stroke-dasharray:none;stroke-opacity:1"
           d="m 14.894188,277.38262 5.14581,-3.78695" />
        <path
           inkscape:connector-curvature="0"
           id="path3037"
           style="fill:none;stroke:#000000;stroke-width:0.12703195;stroke-linecap:butt;stroke-linejoin:miter;stroke-miterlimit:4;stroke-dasharray:none;stroke-opacity:1"
           d="m 13.268263,277.44466 5.144964,-3.78695" />
        <path
           inkscape:connector-curvature="0"
           id="path3041"
           style="fill:none;stroke:#000000;stroke-width:0.12703195;stroke-linecap:butt;stroke-linejoin:miter;stroke-miterlimit:4;stroke-dasharray:none;stroke-opacity:1"
           d="m 16.434958,277.39588 4.206282,-3.11131" />
        <path
           inkscape:connector-curvature="0"
           id="path3045"
           style="fill:none;stroke:#000000;stroke-width:0.12703195;stroke-linecap:butt;stroke-linejoin:miter;stroke-miterlimit:4;stroke-dasharray:none;stroke-opacity:1"
           d="m 17.960019,277.38842 2.655561,-1.96586" />
        <path
           inkscape:connector-curvature="0"
           id="path3049"
           style="fill:none;stroke:#000000;stroke-width:0.12703195;stroke-linecap:butt;stroke-linejoin:miter;stroke-miterlimit:4;stroke-dasharray:none;stroke-opacity:1"
           d="m 19.495793,277.38842 1.126435,-0.82702" />
        <path
           inkscape:connector-curvature="0"
           id="path3051"
           style="fill:#000000;fill-opacity:1;fill-rule:nonzero;stroke:none;stroke-width:0.04234399"
           d="m 21.689889,277.50339 0.339091,-1.21904 -0.720314,-0.002 0.381223,1.22154 0,0" />
        <path
           inkscape:connector-curvature="0"
           id="path3053"
           style="fill:#000000;fill-opacity:1;fill-rule:nonzero;stroke:none;stroke-width:0.04234399"
           d="m 21.689889,273.50387 0.339091,1.21904 -0.720314,0.002 0.381223,-1.22069 0,0" />
        <path
           inkscape:connector-curvature="0"
           id="path3055"
           style="fill:none;stroke:#000000;stroke-width:0.16937594;stroke-linecap:butt;stroke-linejoin:miter;stroke-miterlimit:4;stroke-dasharray:none;stroke-opacity:1"
           d="m 21.676678,274.33339 0,2.45544" />
        <text
           xml:space="preserve"
           style="font-style:normal;font-variant:normal;font-weight:normal;font-stretch:normal;line-height:0%;font-family:sans-serif;-inkscape-font-specification:'sans-serif, Normal';text-align:start;letter-spacing:0px;word-spacing:0px;writing-mode:lr-tb;text-anchor:start;fill:#000000;fill-opacity:1;stroke:none;stroke-width:0.264583"
           x="9.3649139"
           y="270.88184"
           id="text5015"><tspan
             sodipodi:role="line"
             id="tspan5013"
             x="9.3649139"
             y="270.88184"
             style="font-style:normal;font-variant:normal;font-weight:normal;font-stretch:normal;font-size:2.82222px;line-height:1.25;font-family:sans-serif;-inkscape-font-specification:'sans-serif, Normal';text-align:start;writing-mode:lr-tb;text-anchor:start;stroke-width:0.264583">275x275</tspan></text>
        <text
           xml:space="preserve"
           style="font-style:normal;font-variant:normal;font-weight:normal;font-stretch:normal;line-height:0%;font-family:sans-serif;-inkscape-font-specification:'sans-serif, Normal';text-align:start;letter-spacing:0px;word-spacing:0px;writing-mode:lr-tb;text-anchor:start;fill:#000000;fill-opacity:1;stroke:none;stroke-width:0.264583"
           x="12.191265"
           y="281.06314"
           id="text5015-5"><tspan
             sodipodi:role="line"
             id="tspan5013-2"
             x="12.191265"
             y="281.06314"
             style="font-style:normal;font-variant:normal;font-weight:normal;font-stretch:normal;font-size:2.82222px;line-height:1.25;font-family:sans-serif;-inkscape-font-specification:'sans-serif, Normal';text-align:start;writing-mode:lr-tb;text-anchor:start;stroke-width:0.264583">5-20</tspan></text>
        <path
           style="fill:none;stroke:#000000;stroke-width:0.23849288px;stroke-linecap:butt;stroke-linejoin:miter;stroke-opacity:1"
           d="m 11.379172,263.65399 8.361454,0.005 1.873113,3.69018 -12.2830345,0 z"
           id="path5037"
           inkscape:connector-curvature="0"
           sodipodi:nodetypes="ccccc" />
        <path
           inkscape:connector-curvature="0"
           id="path6707"
           style="fill:none;stroke:#000000;stroke-width:0.26998526;stroke-linecap:butt;stroke-linejoin:miter;stroke-miterlimit:4;stroke-dasharray:none;stroke-opacity:1"
           d="m 7.2201935,292.52225 16.5224115,0 0,-10.31885 -16.5224115,0 z" />
        <path
           inkscape:connector-curvature="0"
           id="path6711"
           style="fill:none;stroke:#000000;stroke-width:0.12703195;stroke-linecap:butt;stroke-linejoin:miter;stroke-miterlimit:4;stroke-dasharray:none;stroke-opacity:1"
           d="m 8.7874164,289.00241 1.5870736,-0.0182 0,2.21975 -1.6226341,0.004" />
        <path
           inkscape:connector-curvature="0"
           id="path6715"
           style="fill:none;stroke:#000000;stroke-width:0.12703195;stroke-linecap:butt;stroke-linejoin:miter;stroke-miterlimit:4;stroke-dasharray:none;stroke-opacity:1"
           d="m 8.7518559,290.19002 1.1661113,-1.20663" />
        <path
           inkscape:connector-curvature="0"
           id="path6719"
           style="fill:none;stroke:#000000;stroke-width:0.12703195;stroke-linecap:butt;stroke-linejoin:miter;stroke-miterlimit:4;stroke-dasharray:none;stroke-opacity:1"
           d="M 8.8089187,291.21637 10.385241,289.6723" />
        <path
           inkscape:connector-curvature="0"
           id="path6723"
           style="fill:none;stroke:#000000;stroke-width:0.12703195;stroke-linecap:butt;stroke-linejoin:miter;stroke-miterlimit:4;stroke-dasharray:none;stroke-opacity:1"
           d="m 22.191947,289.00241 -5.257429,-0.0182 0,2.21975 5.418675,-0.0455" />
        <path
           inkscape:connector-curvature="0"
           id="path6727"
           style="fill:none;stroke:#000000;stroke-width:0.12703195;stroke-linecap:butt;stroke-linejoin:miter;stroke-miterlimit:4;stroke-dasharray:none;stroke-opacity:1"
           d="m 19.698437,291.20314 -2.307409,-2.21975" />
        <path
           inkscape:connector-curvature="0"
           id="path6731"
           style="fill:none;stroke:#000000;stroke-width:0.12703195;stroke-linecap:butt;stroke-linejoin:miter;stroke-miterlimit:4;stroke-dasharray:none;stroke-opacity:1"
           d="m 20.911677,291.18742 -2.255283,-2.14118" />
        <path
           inkscape:connector-curvature="0"
           id="path6735"
           style="fill:none;stroke:#000000;stroke-width:0.12703195;stroke-linecap:butt;stroke-linejoin:miter;stroke-miterlimit:4;stroke-dasharray:none;stroke-opacity:1"
           d="M 18.50006,291.21637 16.923762,289.6723" />
        <path
           inkscape:connector-curvature="0"
           id="path6739"
           style="fill:none;stroke:#000000;stroke-width:0.12703195;stroke-linecap:butt;stroke-linejoin:miter;stroke-miterlimit:4;stroke-dasharray:none;stroke-opacity:1"
           d="m 22.065381,291.18742 -2.306562,-2.21975" />
        <path
           inkscape:connector-curvature="0"
           id="path6743"
           style="fill:none;stroke:#000000;stroke-width:0.12703195;stroke-linecap:butt;stroke-linejoin:miter;stroke-miterlimit:4;stroke-dasharray:none;stroke-opacity:1"
           d="M 22.200204,290.09988 21.023338,289.0297" />
        <path
           inkscape:connector-curvature="0"
           id="path6751"
           style="fill:none;stroke:#000000;stroke-width:0.20363222;stroke-linecap:butt;stroke-linejoin:miter;stroke-miterlimit:4;stroke-dasharray:none;stroke-opacity:1"
           d="m 10.393511,291.41072 6.522799,-0.0157" />
        <path
           inkscape:connector-curvature="0"
           id="path6753"
           style="fill:#000000;fill-opacity:1;fill-rule:nonzero;stroke:none;stroke-width:0.04234399"
           d="m 21.119289,288.86264 0.339091,-1.21903 -0.720356,-0.002 0.381265,1.22152 0,0" />
        <path
           inkscape:connector-curvature="0"
           id="path6755"
           style="fill:#000000;fill-opacity:1;fill-rule:nonzero;stroke:none;stroke-width:0.04234399"
           d="m 21.145754,285.07486 0.339049,1.21904 -0.720314,0.002 0.381265,-1.22069 0,0" />
        <path
           inkscape:connector-curvature="0"
           id="path6757"
           style="fill:none;stroke:#000000;stroke-width:0.16937594;stroke-linecap:butt;stroke-linejoin:miter;stroke-miterlimit:4;stroke-dasharray:none;stroke-opacity:1"
           d="m 21.132501,285.90433 0,2.45549" />
        <path
           inkscape:connector-curvature="0"
           id="path6761"
           style="fill:none;stroke:#000000;stroke-width:0.12703195;stroke-linecap:butt;stroke-linejoin:round;stroke-miterlimit:4;stroke-dasharray:none;stroke-opacity:1"
           d="m 16.346486,282.81953 -0.674031,0.11247 0.05623,0.39282 c 0,0 0.392825,0.16874 0.561566,0.16874 0.168698,0 0.84273,-0.50533 0.84273,-0.50533 0,0 0,-0.1687 -0.168698,-0.1687 -0.168741,0 -0.449101,0 -0.449101,0 z" />
        <path
           inkscape:connector-curvature="0"
           id="path6765"
           style="fill:none;stroke:#000000;stroke-width:0.12703195;stroke-linecap:butt;stroke-linejoin:round;stroke-miterlimit:4;stroke-dasharray:none;stroke-opacity:1"
           d="m 19.154232,282.79387 c -0.01736,0.004 -0.02977,0.0314 -0.03887,0.0711 -0.03057,0.13482 -0.01901,0.41268 -0.01901,0.41268 0,0 -0.135628,0.0579 0.270451,0.19352 0.406884,0.13567 0.503682,0.54255 0.736066,0.19436 0.232384,-0.349 0.387024,-0.75508 0.387024,-0.81377 0,-0.0579 -0.444909,-0.13567 -0.774091,-0.13567 -0.329139,0 -0.561566,0.0777 -0.561566,0.0777 z" />
        <path
           inkscape:connector-curvature="0"
           id="path6769"
           style="fill:none;stroke:#000000;stroke-width:0.12703195;stroke-linecap:butt;stroke-linejoin:round;stroke-miterlimit:4;stroke-dasharray:none;stroke-opacity:1"
           d="m 22.480564,284.36111 -0.571475,-0.17035 -1.183472,-0.68314 0.381266,-0.69719 c 0,0 1.058599,0.0199 1.373681,0.13893" />
        <path
           inkscape:connector-curvature="0"
           id="path6773"
           style="fill:none;stroke:#000000;stroke-width:0.12703195;stroke-linecap:butt;stroke-linejoin:round;stroke-miterlimit:4;stroke-dasharray:none;stroke-opacity:1"
           d="m 14.235893,283.87398 1.131389,0.76749 0.46066,-0.64757 c 0,0 -0.336592,-0.78569 -0.580578,-1.01888 -0.243986,-0.23243 -1.917082,-0.43009 -1.917082,-0.43009 0,0 -0.232384,0.24399 0.0116,0.47637 0.243986,0.23243 0.650023,0.6203 0.650023,0.6203 z" />
        <path
           inkscape:connector-curvature="0"
           id="path6777"
           style="fill:none;stroke:#000000;stroke-width:0.12703195;stroke-linecap:butt;stroke-linejoin:round;stroke-miterlimit:4;stroke-dasharray:none;stroke-opacity:1"
           d="m 11.961555,283.43814 c 0,0 0.522694,-0.46477 0.348195,-0.48383 -0.1745,-0.0198 -0.329182,-0.31012 -0.677335,-0.29026 -0.34902,0.019 -0.65833,0.25139 -0.697197,0.30932 -0.03887,0.0579 -0.05789,0.38702 0.135631,0.38702 0.193525,0 0.890706,0.0777 0.890706,0.0777 z" />
        <path
           inkscape:connector-curvature="0"
           id="path6781"
           style="fill:none;stroke:#000000;stroke-width:0.12703195;stroke-linecap:butt;stroke-linejoin:round;stroke-miterlimit:4;stroke-dasharray:none;stroke-opacity:1"
           d="m 10.910404,283.7301 -1.3480588,0.15379 0.112474,0.53925 c 0,0 0.7856798,0.23158 1.1231108,0.23158 0.336601,0 1.684668,-0.69389 1.684668,-0.69389 0,0 0,-0.23073 -0.336592,-0.23073 -0.33744,0 -0.898997,0 -0.898997,0 z" />
        <path
           inkscape:connector-curvature="0"
           id="path6785"
           style="fill:none;stroke:#000000;stroke-width:0.12703195;stroke-linecap:butt;stroke-linejoin:round;stroke-miterlimit:4;stroke-dasharray:none;stroke-opacity:1"
           d="m 8.0447452,284.52815 c 0.3490034,-0.0198 0.99657,-0.33659 1.0354418,-0.39447 0.038868,-0.0579 0.057893,-0.38707 -0.1356321,-0.38707 -0.1935289,0 -0.8907142,-0.0777 -0.8907142,-0.0777" />
        <path
           inkscape:connector-curvature="0"
           id="path6789"
           style="fill:none;stroke:#000000;stroke-width:0.12703195;stroke-linecap:butt;stroke-linejoin:round;stroke-miterlimit:4;stroke-dasharray:none;stroke-opacity:1"
           d="m 10.001499,283.53819 c 0.01819,-0.003 0.03225,-0.0298 0.04383,-0.0686 0.0397,-0.13233 0.04714,-0.41019 0.04714,-0.41019 0,0 0.139769,-0.0488 -0.2563798,-0.21172 -0.3969751,-0.16294 -0.4656147,-0.57563 -0.7211692,-0.24399 -0.2555544,0.33164 -0.438328,0.72696 -0.441635,0.78485 -0.00414,0.0587 0.4350167,0.16624 0.7633477,0.18856 0.3283355,0.0223 0.5648643,-0.0389 0.5648643,-0.0389 z" />
        <path
           inkscape:connector-curvature="0"
           id="path6793"
           style="fill:none;stroke:#000000;stroke-width:0.12703195;stroke-linecap:butt;stroke-linejoin:round;stroke-miterlimit:4;stroke-dasharray:none;stroke-opacity:1"
           d="m 12.668657,284.64727 c -0.01736,-0.004 -0.02977,-0.0314 -0.03887,-0.0711 -0.03057,-0.13478 -0.01901,-0.41268 -0.01901,-0.41268 0,0 -0.135627,-0.0579 0.271256,-0.19352 0.406079,-0.13562 0.502835,-0.54255 0.735261,-0.19435 0.232384,0.34899 0.387871,0.75507 0.387871,0.8138 0,0.0579 -0.445755,0.13563 -0.774937,0.13563 -0.32914,0 -0.561566,-0.0777 -0.561566,-0.0777 z" />
        <path
           inkscape:connector-curvature="0"
           id="path6797"
           style="fill:none;stroke:#000000;stroke-width:0.12703195;stroke-linecap:butt;stroke-linejoin:round;stroke-miterlimit:4;stroke-dasharray:none;stroke-opacity:1"
           d="m 17.814468,284.56292 1.348063,-0.22497 -0.112508,-0.7865 c 0,0 -0.786497,-0.33659 -1.123089,-0.33659 -0.337439,0 -1.685503,1.01062 -1.685503,1.01062 0,0 0,0.33744 0.337439,0.33744 0.336593,0 0.898159,0 0.898159,0 z" />
        <path
           inkscape:connector-curvature="0"
           id="path6801"
           style="fill:none;stroke:#000000;stroke-width:0.12703195;stroke-linecap:butt;stroke-linejoin:round;stroke-miterlimit:4;stroke-dasharray:none;stroke-opacity:1"
           d="m 20.853792,284.6092 c 0,0 0.522695,-0.46477 0.348195,-0.48378 -0.1745,-0.0199 -0.329182,-0.31017 -0.677334,-0.29031 -0.348999,0.019 -0.658322,0.25144 -0.697194,0.30932 -0.03887,0.0579 -0.05788,0.38703 0.135628,0.38703 0.193512,0 0.890705,0.0777 0.890705,0.0777 z" />
        <path
           inkscape:connector-curvature="0"
           id="path6805"
           style="fill:none;stroke:#000000;stroke-width:0.12703195;stroke-linecap:butt;stroke-linejoin:round;stroke-miterlimit:4;stroke-dasharray:none;stroke-opacity:1"
           d="m 8.0604548,284.92267 14.3746312,-0.014" />
        <path
           style="fill:none;stroke:#000000;stroke-width:0.2;stroke-linecap:butt;stroke-linejoin:miter;stroke-miterlimit:4;stroke-dasharray:none;stroke-opacity:1"
           d="m 10.393511,291.41072 -0.9354114,0.007 0.00249,0.19601 4.1305334,0.247 4.232404,-0.2776 -0.0016,-0.19519 -0.905607,0.007 0.01567,-2.95861 -6.515524,0.008 z"
           id="path895"
           inkscape:connector-curvature="0"
           sodipodi:nodetypes="cccccccccc" />
        <text
           xml:space="preserve"
           style="font-style:normal;font-variant:normal;font-weight:normal;font-stretch:normal;line-height:0%;font-family:sans-serif;-inkscape-font-specification:'sans-serif, Normal';text-align:start;letter-spacing:0px;word-spacing:0px;writing-mode:lr-tb;text-anchor:start;fill:#000000;fill-opacity:1;stroke:none;stroke-width:0.264583"
           x="16.936581"
           y="287.97552"
           id="text5015-5-8"><tspan
             sodipodi:role="line"
             id="tspan5013-2-9"
             x="16.936581"
             y="287.97552"
             style="font-style:normal;font-variant:normal;font-weight:normal;font-stretch:normal;font-size:2.82222px;line-height:1.25;font-family:sans-serif;-inkscape-font-specification:'sans-serif, Normal';text-align:start;writing-mode:lr-tb;text-anchor:start;stroke-width:0.264583">40</tspan></text>
      </g>
      <text
         xml:space="preserve"
         style="font-style:normal;font-variant:normal;font-weight:normal;font-stretch:normal;line-height:0%;font-family:sans-serif;-inkscape-font-specification:'sans-serif, Normal';text-align:start;letter-spacing:0px;word-spacing:0px;writing-mode:lr-tb;text-anchor:start;fill:#000000;fill-opacity:1;stroke:none;stroke-width:0.264583"
         x="8.1901884"
         y="260.72168"
         id="text4184"><tspan
           sodipodi:role="line"
           id="tspan4186"
           x="8.1901884"
           y="260.72168"
           style="font-style:normal;font-variant:normal;font-weight:normal;font-stretch:normal;font-size:2.82222px;line-height:1.25;font-family:sans-serif;-inkscape-font-specification:'sans-serif, Normal';text-align:start;writing-mode:lr-tb;text-anchor:start;stroke-width:0.264583">Units: mm</tspan></text>
    </g>
  </g>
</svg>
