<?xml version="1.0" encoding="UTF-8" standalone="no"?>
<!-- Created with Inkscape (http://www.inkscape.org/) -->

<svg
   width="8.0100002mm"
   height="8.0100002mm"
   viewBox="0 0 8.0100002 8.0100003"
   version="1.1"
   id="svg632"
   inkscape:version="1.2.2 (732a01da63, 2022-12-09)"
   sodipodi:docname="botao_seta.svg"
   xmlns:inkscape="http://www.inkscape.org/namespaces/inkscape"
   xmlns:sodipodi="http://sodipodi.sourceforge.net/DTD/sodipodi-0.dtd"
   xmlns="http://www.w3.org/2000/svg"
   xmlns:svg="http://www.w3.org/2000/svg">
  <sodipodi:namedview
     id="namedview634"
     pagecolor="#505050"
     bordercolor="#ffffff"
     borderopacity="1"
     inkscape:showpageshadow="0"
     inkscape:pageopacity="0"
     inkscape:pagecheckerboard="1"
     inkscape:deskcolor="#505050"
     inkscape:document-units="mm"
     showgrid="false"
     inkscape:zoom="3.0814063"
     inkscape:cx="-2.4339536"
     inkscape:cy="68.150701"
     inkscape:window-width="1920"
     inkscape:window-height="1009"
     inkscape:window-x="-8"
     inkscape:window-y="-8"
     inkscape:window-maximized="1"
     inkscape:current-layer="layer1" />
  <defs
     id="defs629" />
  <g
     inkscape:label="Layer 1"
     inkscape:groupmode="layer"
     id="layer1"
     transform="translate(-85.343308,-186.48521)">
    <g
       id="g963"
       transform="rotate(180,98.299154,203.05937)">
      <path
         fill="#000000"
         stroke="none"
         d="m 2960,5940 c 0,-70 19,-139 54,-200 35,-61 85,-111 146,-146 61,-35 130,-54 201,-54 70,0 139,19 200,54 61,35 111,85 146,146 35,61 54,130 54,201 0,70 -19,139 -54,200 -35,61 -85,111 -146,146 -61,35 -130,54 -200,54 -71,0 -140,-19 -201,-54 -61,-35 -111,-85 -146,-146 -35,-61 -54,-130 -54,-201 z"
         id="path485-0"
         style="stroke-width:2.64583;stroke-miterlimit:4;stroke-dasharray:none"
         transform="matrix(0.01,0,0,0.01,73.645,156.22353)" />
      <path
         fill="#ffffff"
         stroke="none"
         d="m 3477.5,5781 v 0 h 108 l -225,451 -225,-451 h 109 v 0 z"
         id="path494-0"
         style="stroke-width:2.64583;stroke-miterlimit:4;stroke-dasharray:none"
         transform="matrix(0.01,0,0,0.01,73.645,156.22353)" />
    </g>
  </g>
</svg>
