<?xml version="1.0" encoding="UTF-8" standalone="no"?>
<!-- Created with Inkscape (http://www.inkscape.org/) -->

<svg
   version="1.1"
   id="svg2"
   xml:space="preserve"
   width="24.914211"
   height="25.016325"
   viewBox="0 0 24.914211 25.016325"
   sodipodi:docname="sol (2020_02_18 14_46_28 UTC).svg"
   inkscape:version="1.1 (c68e22c387, 2021-05-23)"
   xmlns:inkscape="http://www.inkscape.org/namespaces/inkscape"
   xmlns:sodipodi="http://sodipodi.sourceforge.net/DTD/sodipodi-0.dtd"
   xmlns="http://www.w3.org/2000/svg"
   xmlns:svg="http://www.w3.org/2000/svg"><defs
     id="defs6" /><sodipodi:namedview
     id="namedview4"
     pagecolor="#505050"
     bordercolor="#ffffff"
     borderopacity="1"
     inkscape:pageshadow="0"
     inkscape:pageopacity="0"
     inkscape:pagecheckerboard="1"
     showgrid="false"
     inkscape:zoom="26.269432"
     inkscape:cx="12.466962"
     inkscape:cy="12.524062"
     inkscape:window-width="1920"
     inkscape:window-height="1017"
     inkscape:window-x="-8"
     inkscape:window-y="-8"
     inkscape:window-maximized="1"
     inkscape:current-layer="g8" /><g
     id="g8"
     inkscape:groupmode="layer"
     inkscape:label="sol (2020_02_18 14_46_28 UTC)"
     transform="matrix(1.3333333,0,0,-1.3333333,-0.34233831,25.37941)"><g
       id="g10"><path
         d="M 0.398,9.698 4.102,8.3 v 2.699 z m 0,9.204 z m 18.403,-18.5 z"
         style="fill:#000000;fill-opacity:1;fill-rule:evenodd;stroke:none"
         id="path12" /><path
         d="M 0.398,9.698 4.102,8.3 v 2.699 z"
         style="fill:none;stroke:#000000;stroke-width:0.8;stroke-linecap:butt;stroke-linejoin:round;stroke-miterlimit:10;stroke-dasharray:none;stroke-opacity:1"
         id="path14" /><path
         d="M 3.102,3.198 6.699,4.902 4.801,6.8 Z M 0.398,18.902 Z m 18.403,-18.5 z"
         style="fill:#000000;fill-opacity:1;fill-rule:evenodd;stroke:none"
         id="path16" /><path
         d="M 3.102,3.198 6.699,4.902 4.801,6.8 Z"
         style="fill:none;stroke:#000000;stroke-width:0.8;stroke-linecap:butt;stroke-linejoin:round;stroke-miterlimit:10;stroke-dasharray:none;stroke-opacity:1"
         id="path18" /><path
         d="m 9.602,0.402 1.296,3.796 H 8.301 Z m -9.204,18.5 z m 18.403,-18.5 z"
         style="fill:#000000;fill-opacity:1;fill-rule:evenodd;stroke:none"
         id="path20" /><path
         d="m 9.602,0.402 1.296,3.796 H 8.301 Z"
         style="fill:none;stroke:#000000;stroke-width:0.8;stroke-linecap:butt;stroke-linejoin:round;stroke-miterlimit:10;stroke-dasharray:none;stroke-opacity:1"
         id="path22" /><path
         d="M 16.102,3.198 14.398,6.8 12.5,4.902 Z M 0.398,18.902 Z m 18.403,-18.5 z"
         style="fill:#000000;fill-opacity:1;fill-rule:evenodd;stroke:none"
         id="path24" /><path
         d="M 16.102,3.198 14.398,6.8 12.5,4.902 Z"
         style="fill:none;stroke:#000000;stroke-width:0.8;stroke-linecap:butt;stroke-linejoin:round;stroke-miterlimit:10;stroke-dasharray:none;stroke-opacity:1"
         id="path26" /><path
         d="m 18.801,9.698 -3.699,1.301 V 8.3 Z M 0.398,18.902 Z m 18.403,-18.5 z"
         style="fill:#000000;fill-opacity:1;fill-rule:evenodd;stroke:none"
         id="path28" /><path
         d="m 18.801,9.698 -3.699,1.301 V 8.3 Z"
         style="fill:none;stroke:#000000;stroke-width:0.8;stroke-linecap:butt;stroke-linejoin:round;stroke-miterlimit:10;stroke-dasharray:none;stroke-opacity:1"
         id="path30" /><path
         d="M 16.102,16.198 12.5,14.499 14.398,12.601 Z M 0.398,18.902 Z m 18.403,-18.5 z"
         style="fill:#000000;fill-opacity:1;fill-rule:evenodd;stroke:none"
         id="path32" /><path
         d="M 16.102,16.198 12.5,14.499 14.398,12.601 Z"
         style="fill:none;stroke:#000000;stroke-width:0.8;stroke-linecap:butt;stroke-linejoin:round;stroke-miterlimit:10;stroke-dasharray:none;stroke-opacity:1"
         id="path34" /><path
         d="M 9.602,18.902 8.301,15.198 h 2.597 z m -9.204,0 z m 18.403,-18.5 z"
         style="fill:#000000;fill-opacity:1;fill-rule:evenodd;stroke:none"
         id="path36" /><path
         d="M 9.602,18.902 8.301,15.198 h 2.597 z"
         style="fill:none;stroke:#000000;stroke-width:0.8;stroke-linecap:butt;stroke-linejoin:round;stroke-miterlimit:10;stroke-dasharray:none;stroke-opacity:1"
         id="path38" /><path
         d="m 3.102,16.198 1.699,-3.597 1.898,1.898 z m -2.704,2.704 z m 18.403,-18.5 z"
         style="fill:#000000;fill-opacity:1;fill-rule:evenodd;stroke:none"
         id="path40" /><path
         d="m 3.102,16.198 1.699,-3.597 1.898,1.898 z"
         style="fill:none;stroke:#000000;stroke-width:0.8;stroke-linecap:butt;stroke-linejoin:round;stroke-miterlimit:10;stroke-dasharray:none;stroke-opacity:1"
         id="path42" /><path
         d="m 9.5,14.3 c 2.602,0 4.602,-2 4.602,-4.602 0,-2.597 -2,-4.597 -4.602,-4.597 C 7,5.101 5,7.101 5,9.698 5,12.3 7,14.3 9.5,14.3 Z m -9.102,4.602 z m 18.403,-18.5 z"
         style="fill:#000000;fill-opacity:1;fill-rule:evenodd;stroke:none"
         id="path44" /><path
         d="m 9.5,14.3 c 2.602,0 4.602,-2 4.602,-4.602 0,-2.597 -2,-4.597 -4.602,-4.597 C 7,5.101 5,7.101 5,9.698 5,12.3 7,14.3 9.5,14.3 Z"
         style="fill:none;stroke:#000000;stroke-width:0.8;stroke-linecap:butt;stroke-linejoin:round;stroke-miterlimit:10;stroke-dasharray:none;stroke-opacity:1"
         id="path46" /></g></g></svg>
