<?xml version="1.0" encoding="UTF-8" standalone="no"?>
<svg
   width="500"
   height="396.83"
   version="1.1"
   viewBox="0 0 500 396.83"
   xml:space="preserve"
   id="svg12964"
   sodipodi:docname="desenho_cct.svg"
   inkscape:version="1.2.2 (732a01da63, 2022-12-09)"
   xmlns:inkscape="http://www.inkscape.org/namespaces/inkscape"
   xmlns:sodipodi="http://sodipodi.sourceforge.net/DTD/sodipodi-0.dtd"
   xmlns="http://www.w3.org/2000/svg"
   xmlns:svg="http://www.w3.org/2000/svg"><defs
     id="defs12968"><rect
       x="233.08127"
       y="254.6961"
       width="181.10496"
       height="79.240621"
       id="rect13089" /></defs><sodipodi:namedview
     id="namedview12966"
     pagecolor="#505050"
     bordercolor="#ffffff"
     borderopacity="1"
     inkscape:showpageshadow="0"
     inkscape:pageopacity="0"
     inkscape:pagecheckerboard="1"
     inkscape:deskcolor="#505050"
     showgrid="false"
     inkscape:zoom="1.7421041"
     inkscape:cx="198.32339"
     inkscape:cy="199.75844"
     inkscape:window-width="1920"
     inkscape:window-height="1009"
     inkscape:window-x="-8"
     inkscape:window-y="-8"
     inkscape:window-maximized="1"
     inkscape:current-layer="svg12964" /><path
     transform="matrix(2.3662 0 0 2.3512 -190.14 6.9583)"
     d="m91.414 103.38h29.953c0.56713 0 1.0237 0.45951 1.0237 1.0303v51.367c0 0.57079-0.45658 1.0303-1.0237 1.0303h-29.953c-0.56714 0-1.0237-0.45951-1.0237-1.0303v-51.367c0-0.57078 0.45658-1.0303 1.0237-1.0303z"
     fill="#fff"
     stroke-linecap="round"
     stroke-width=".24117"
     style="paint-order:fill markers stroke"
     id="path12882" /><g
     stroke="#000"
     stroke-linecap="round"
     id="g12888"><path
       transform="matrix(2.3502,0,0,2.3512,-188.17,6.9597)"
       d="m91.276 101.76c-1.3726 0-2.4773 1.1043-2.4773 2.4763v51.738c0 1.372 1.1047 2.4763 2.4773 2.4763h30.01c1.3726 0 2.4774-1.1043 2.4774-2.4763v-51.738c0-1.372-1.1047-2.4763-2.4774-2.4763zm0.1446 1.6198h29.938c0.571 0 1.0305 0.45927 1.0305 1.0301v51.368c0 0.57079-0.45949 1.0301-1.0305 1.0301h-29.938c-0.57101 0-1.0313-0.45927-1.0313-1.0301v-51.368c0-0.57079 0.46032-1.0301 1.0313-1.0301z"
       style="paint-order:fill markers stroke"
       id="path12884" /><path
       transform="matrix(.62183 0 0 .6221 -188.17 6.9597)"
       d="m465.11 515.74v77.014l2.1076 1.5698 6e-3 3e-3a15.118 15.118 0 0 0 24.292-17.415 322.75 322.75 0 0 1-23.673-61.171h-2.7326zm12.623 61.806a6.2362 6.2361 0 0 1 6.5331 6.232 6.2365 6.2365 0 1 1-12.473 0 6.2362 6.2361 0 0 1 5.9395-6.232z"
       id="path12886" /></g><path
     transform="matrix(2.3502,0,0,2.3512,-187.58,6.6887)"
     d="m115.2 153.45v1.4632h-0.3655v-1.4632h-0.56373v-0.28249h1.4942v0.28249zm-1.0444 0.27009q0 0.1685-0.0768 0.30107t-0.22054 0.20567q-0.14248 0.0719-0.33948 0.0719h-0.43363v0.61452h-0.3655v-1.7457h0.78427q0.31345 0 0.48195 0.14496 0.16974 0.14372 0.16974 0.40762zm-0.36797 6e-3q0-0.27505-0.32461-0.27505h-0.37788v0.5662h0.38779q0.15116 0 0.23293-0.0743 0.0818-0.0756 0.0818-0.21682zm-1.7705 1.1871v-0.37788h0.35806v0.37788zm-0.4832-1.4632v1.4632h-0.36549v-1.4632h-0.56373v-0.28249h1.4942v0.28249zm-1.493 1.4632v-1.7457h0.36549v1.7457zm-1.0172-0.26266q0.3308 0 0.45965-0.33204l0.31842 0.12018q-0.10284 0.25275-0.30231 0.37665-0.19823 0.12265-0.47576 0.12265-0.42125 0-0.6517-0.23788-0.22921-0.23912-0.22921-0.6678 0-0.42992 0.22178-0.66037 0.22177-0.23045 0.64302-0.23045 0.30727 0 0.50054 0.1239 0.19328 0.12266 0.27134 0.36178l-0.32213 0.088q-0.0409-0.13133-0.16107-0.20815-0.11894-0.0781-0.28124-0.0781-0.2478 0-0.37665 0.15364-0.12761 0.15363-0.12761 0.44974 0 0.30107 0.13133 0.45966 0.13257 0.15858 0.3816 0.15858zm-2.5077 0.26266v-1.7457h1.3728v0.28249h-1.0073v0.43859h0.9317v0.28248h-0.9317v0.45966h1.0581v0.28248zm-0.76196-1.4632v1.4632h-0.36549v-1.4632h-0.56373v-0.28249h1.4942v0.28249zm-1.4905 1.4632v-0.37788h0.35806v0.37788zm-0.48568 0h-0.43364l-0.23664-1.0098q-0.0434-0.17841-0.0731-0.37293-0.0297 0.1623-0.0483 0.24779-0.0186 0.0842-0.2639 1.1349h-0.43363l-0.44975-1.7457h0.37045l0.25275 1.1275 0.057 0.27257q0.0347-0.17221 0.0669-0.32832 0.0335-0.15735 0.24779-1.0717h0.40886l0.22053 0.92923q0.026 0.10407 0.088 0.4708l0.031-0.14372 0.0657-0.28496 0.21062-0.97135h0.37046zm-2.3949 0h-0.43363l-0.23665-1.0098q-0.0434-0.17841-0.0731-0.37293-0.0297 0.1623-0.0483 0.24779-0.0186 0.0842-0.2639 1.1349h-0.43363l-0.44974-1.7457h0.37045l0.25275 1.1275 0.057 0.27257q0.0347-0.17221 0.0669-0.32832 0.0335-0.15735 0.24779-1.0717h0.40886l0.22054 0.92923q0.026 0.10407 0.088 0.4708l0.031-0.14372 0.0657-0.28496 0.21063-0.97135h0.37045zm-2.3949 0h-0.43364l-0.23664-1.0098q-0.04336-0.17841-0.0731-0.37293-0.02974 0.1623-0.04832 0.24779-0.01858 0.0842-0.2639 1.1349h-0.43364l-0.44974-1.7457h0.37045l0.25275 1.1275 0.05699 0.27257q0.03469-0.17221 0.0669-0.32832 0.03345-0.15735 0.24779-1.0717h0.40886l0.22054 0.92923q0.02602 0.10407 0.08797 0.4708l0.03097-0.14372 0.06566-0.28496 0.21062-0.97135h0.37045z"
     fill="#333"
     id="path12890" /><g
     stroke-width=".043701"
     id="g12908"><path
       transform="matrix(2.3502,0,0,2.3512,-187.58,6.6887)"
       d="m112.38 126.63 1.4177 0.50338v-1.017z"
       id="path12892" /><path
       transform="matrix(2.3502,0,0,2.3512,-187.58,6.6887)"
       d="m113.41 129.11 1.3663-0.6472-0.71911-0.71911z"
       id="path12894" /><path
       transform="matrix(2.3502,0,0,2.3512,-187.58,6.6887)"
       d="m115.89 130.15 0.50338-1.428h-1.017z"
       id="path12896" /><path
       transform="matrix(2.3502,0,0,2.3512,-187.58,6.6887)"
       d="m118.37 129.11-0.6472-1.3663-0.71911 0.71911z"
       id="path12898" /><path
       transform="matrix(2.3502,0,0,2.3512,-187.58,6.6887)"
       d="m119.41 126.63-1.428-0.51365v1.017z"
       id="path12900" /><path
       transform="matrix(2.3502,0,0,2.3512,-187.58,6.6887)"
       d="m118.37 124.15-1.3663 0.6472 0.71911 0.71911z"
       id="path12902" /><path
       transform="matrix(2.3502,0,0,2.3512,-187.58,6.6887)"
       d="m115.89 123.12-0.51365 1.4177h1.017z"
       id="path12904" /><path
       transform="matrix(2.3502,0,0,2.3512,-187.58,6.6887)"
       d="m113.41 124.15 0.6472 1.3663 0.71911-0.71911z"
       id="path12906" /></g><path
     transform="matrix(2.3502,0,0,2.3512,-187.58,6.6887)"
     d="m99.535 125.69v2.2985h-0.57414v-2.2985h-0.88554v-0.44374h2.3472v0.44374zm-2.8357 1.8859q0.51965 0 0.72206-0.52159l0.50018 0.18878q-0.16154 0.39703-0.47488 0.59166-0.3114 0.19268-0.74736 0.19268-0.66172 0-1.0237-0.37368-0.36005-0.37563-0.36005-1.049 0-0.67534 0.34838-1.0373t1.0101-0.362q0.48267 0 0.78628 0.19462 0.30361 0.19268 0.42623 0.5683l-0.50602 0.13819q-0.06423-0.2063-0.25301-0.32697-0.18684-0.12261-0.4418-0.12261-0.38925 0-0.59166 0.24133-0.20046 0.24133-0.20046 0.70648 0 0.47294 0.2063 0.72206 0.20825 0.24912 0.59944 0.24912zm-2.8785 0q0.51965 0 0.72206-0.52159l0.50018 0.18878q-0.16154 0.39703-0.47488 0.59166-0.3114 0.19268-0.74736 0.19268-0.66172 0-1.0237-0.37368-0.36006-0.37563-0.36006-1.049 0-0.67534 0.34838-1.0373t1.0101-0.362q0.48267 0 0.78628 0.19462 0.30361 0.19268 0.42623 0.5683l-0.50602 0.13819q-0.06423-0.2063-0.25301-0.32697-0.18684-0.12261-0.4418-0.12261-0.38925 0-0.59166 0.24133-0.20046 0.24133-0.20046 0.70648 0 0.47294 0.2063 0.72206 0.20825 0.24912 0.59944 0.24912z"
     id="path12910" /><path
     transform="matrix(2.3502,0,0,2.3512,-187.58,6.6887)"
     d="m96.174 119.77h0.39922v0.39922h-0.39922z"
     style="paint-order:fill markers stroke"
     id="path12912" /><path
     transform="matrix(2.3502,0,0,2.3512,-187.58,6.6887)"
     d="m96.174 121.42h0.39922v0.39922h-0.39922z"
     style="paint-order:fill markers stroke"
     id="path12914" /><path
     transform="matrix(2.3502,0,0,2.3512,-187.58,6.6887)"
     d="m96.174 131.53h0.39922v0.39922h-0.39922z"
     style="paint-order:fill markers stroke"
     id="path12916" /><path
     transform="matrix(2.3502,0,0,2.3512,-187.58,6.6887)"
     d="m96.174 133.17h0.39922v0.39922h-0.39922z"
     style="paint-order:fill markers stroke"
     id="path12918" /><path
     transform="matrix(2.3502,0,0,2.3512,-187.58,6.6887)"
     d="m117.08 108.63v-3.1488h0.59623v3.1488zm-1.6911 0v-1.7569q0-0.18884-6e-3 -0.31403-4e-3 -0.12731-0.0106-0.22491h0.56864q6e-3 0.0382 0.017 0.2334 0.0106 0.19308 0.0106 0.25674h8e-3q0.087-0.24189 0.15489-0.33949 0.0679-0.0997 0.16126-0.14641 0.0934-0.0488 0.2334-0.0488 0.11458 0 0.1846 0.0318v0.49863q-0.14429-0.0318-0.25462-0.0318-0.22279 0-0.34798 0.18035-0.12307 0.18036-0.12307 0.5347v1.1267zm-0.85934 0.0382q-0.2631 0-0.40527-0.14217-0.14216-0.14428-0.14216-0.43497v-1.3537h-0.29069v-0.40314h0.3204l0.18672-0.53895h0.37344v0.53895h0.43497v0.40314h-0.43497v1.1925q0 0.16762 0.0636 0.24825 0.0637 0.0785 0.19733 0.0785 0.07 0 0.19945-0.0297v0.36919q-0.22067 0.0721-0.50287 0.0721zm-2.3425-0.48802q0.56653 0 0.7872-0.56865l0.54531 0.20581q-0.17611 0.43286-0.51772 0.64504-0.3395 0.21006-0.81479 0.21006-0.72142 0-1.1161-0.40739-0.39253-0.40951-0.39253-1.1437 0-0.73627 0.3798-1.1309 0.37981-0.39466 1.1012-0.39466 0.52621 0 0.85722 0.21218 0.331 0.21006 0.46468 0.61958l-0.55168 0.15065q-0.07-0.22492-0.27583-0.35647-0.2037-0.13367-0.48166-0.13367-0.42436 0-0.64503 0.2631-0.21855 0.26311-0.21855 0.77022 0 0.51561 0.22491 0.7872 0.22704 0.2716 0.65352 0.2716zm-3.9084-2.056v2.5059h-0.62594v-2.5059h-0.96543v-0.48378h2.5589v0.48378zm-3.0915 2.056q0.56653 0 0.7872-0.56865l0.54531 0.20581q-0.17611 0.43286-0.51773 0.64504-0.33949 0.21006-0.81478 0.21006-0.72142 0-1.1161-0.40739-0.39254-0.40951-0.39254-1.1437 0-0.73627 0.37981-1.1309t1.1012-0.39466q0.52621 0 0.85721 0.21218 0.33101 0.21006 0.46468 0.61958l-0.55167 0.15065q-0.07-0.22492-0.27584-0.35647-0.20369-0.13367-0.48165-0.13367-0.42437 0-0.64504 0.2631-0.21855 0.26311-0.21855 0.77022 0 0.51561 0.22492 0.7872 0.22703 0.2716 0.65352 0.2716zm-3.1382 0q0.56653 0 0.7872-0.56865l0.54531 0.20581q-0.17612 0.43286-0.51773 0.64504-0.33949 0.21006-0.81478 0.21006-0.72142 0-1.1161-0.40739-0.39254-0.40951-0.39254-1.1437 0-0.73627 0.37981-1.1309 0.3798-0.39466 1.1012-0.39466 0.52621 0 0.85721 0.21218 0.33101 0.21006 0.46468 0.61958l-0.55167 0.15065q-0.07-0.22492-0.27584-0.35647-0.20369-0.13367-0.48165-0.13367-0.42437 0-0.64504 0.2631-0.21855 0.26311-0.21855 0.77022 0 0.51561 0.22492 0.7872 0.22703 0.2716 0.65352 0.2716zm-3.6877 0.44982-0.69384-1.1352h-0.73415v1.1352h-0.62594v-2.9896h1.4938q0.5347 0 0.82539 0.23128 0.29069 0.22916 0.29069 0.65989 0 0.31403-0.17823 0.54318-0.17823 0.22704-0.48165 0.29918l0.80842 1.2561zm-0.07426-2.073q0-0.43073-0.55167-0.43073h-0.80205v0.88268h0.81902q0.26311 0 0.3989-0.11882 0.1358-0.11883 0.1358-0.33313zm-3.187 2.073v-2.9896h0.62594v2.9896z"
     id="path12920" /><path
     transform="matrix(2.3502,0,0,2.3512,-187.58,6.6887)"
     d="m115.69 119.77h0.39922v0.39922h-0.39922z"
     style="paint-order:fill markers stroke"
     id="path12922" /><path
     transform="matrix(2.3502,0,0,2.3512,-187.58,6.6887)"
     d="m115.69 121.42h0.39922v0.39922h-0.39922z"
     style="paint-order:fill markers stroke"
     id="path12924" /><path
     transform="matrix(2.3502,0,0,2.3512,-187.58,6.6887)"
     d="m115.69 131.53h0.39922v0.39922h-0.39922z"
     style="paint-order:fill markers stroke"
     id="path12926" /><path
     transform="matrix(2.3502,0,0,2.3512,-187.58,6.6887)"
     d="m115.69 133.17h0.39922v0.39922h-0.39922z"
     style="paint-order:fill markers stroke"
     id="path12928" /><path
     transform="matrix(4.2301,0,0,4.2301,-49.646,-102.17)"
     d="m 13.646,33.321 c 0,0 0.12716,0.27946 0.12707,0.6255 m 19.488,1.4913 C 33.22039,35.29022 33.07911,35.17844 32.8705,35.12471 m -18.374,-2.4465 0.31631,-0.32637 m -0.90546,0.92872 0.31617,-0.32354 m 0.22886,0.81166 -0.12059,-0.43758 m 0.26905,-0.27956 0.12428,0.43747 m -0.39333,-0.15791 -0.32,0.32648 m 0.36018,-1.4177 0.12452,0.43833 m -0.39726,-0.15866 0.27274,-0.27967 m 0.35314,1.2491 -0.27274,0.27967 m 0.61973,-1.4407 c -0.14153,-0.49864 -0.55214,-0.60238 -0.91557,-0.23203 -0.36357,0.37318 -0.542,1.083 -0.40047,1.5816 m 0.91188,0.23214 c 0.36343,-0.37036 0.54556,-1.0802 0.40416,-1.5817 m -1.316,1.3496 c 0.1414,0.50147 0.54856,0.60618 0.91188,0.23214 m -0.44443,-0.95272 -0.12428,-0.43747 m 0.82159,0.20551 -0.32,0.32648 m 0.21197,-0.6997 0.10802,0.37322 m -0.90904,0.93252 -0.10445,-0.37702 m 1.1783,4.8058 -0.62954,-0.16106 m -0.81086,-4.6044 c -0.08478,-0.16212 -0.20604,-0.26559 -0.34389,-0.29927 m 0.25275,0.16406 -0.55595,-0.14089 m 2.0875,5.0415 c 0.05689,0.01372 0.12449,-0.01371 0.18483,-0.07351 m 1.1338,-1.1615 -0.62868,-0.16131 m -1.4506,1.0834 c 0.02284,0.08099 0.0706,0.13822 0.13117,0.15183 0.05676,0.01655 0.1246,-0.01002 0.18459,-0.07437 m 6.7558,-6.1119 -0.62967,-0.15824 m -7.2402,3.3418 c 0.15461,-0.29287 0.2429,-0.6461 0.24564,-0.97615 m 1.4982,4.0664 1.1338,-1.1615 m 5.4634,-9.6662 -0.62978,-0.16192 m -0.85801,-2.7494 c -0.05775,-0.01348 -0.1246,0.01002 -0.1857,0.07375 m -4.4186,12.342 -1.1349,1.1608 m 6.2941,-10.801 c 0.0978,0.02358 0.19928,0.01729 0.30309,-0.02686 m -0.56183,-0.14853 c 0.0742,0.09163 0.16093,0.15181 0.25874,0.17539 m -7.2902,6.2711 c 0,0 0.12716,0.27946 0.12707,0.6255 m 19.805,2.616 c 0.03015,0.10033 0.03999,0.20452 0.03683,0.30214 -0.0031,0.10132 -0.02295,0.19901 -0.05336,0.2792 -0.03379,0.09789 -0.07785,0.17914 -0.12504,0.24268 -0.05994,0.08759 -0.1209,0.1485 -0.18109,0.19895 -0.08447,0.0666 -0.16504,0.11072 -0.24288,0.14475 -0.10123,0.04343 -0.1986,0.07088 -0.3093,0.0807 -0.10799,0.0063 -0.22875,0.0068 -0.3769,-0.03697 C 32.22328,37.74244 32.10577,37.69186 31.98818,37.5948 31.90775,37.52726 31.82345,37.43941 31.7589,37.32925 31.71843,37.2616 31.6855,37.18438 31.66549,37.10352 m 1.5951,-1.6664 0.31619,1.1247 m -2.2312,-0.58657 0.31999,1.1283 m -8.2233,-3.7933 -1.1339,1.1643 m 10.562,0.64956 c -0.70044,-0.17828 -1.6629,0.36006 -1.5245,0.8512 m 1.915,-0.53811 C 33.22019,35.28962 33.07891,35.17784 32.8703,35.12411 m -2.3866,-0.1679 -2.7191,2.7897 m -5.4559,-3.2714 -0.94641,-0.23914 m 8.6811,-0.84418 0.44033,1.565 m -9.1214,-0.7208 1.1348,-1.1645 m 0.77089,-0.38665 0.17466,0.62603 m 0.10083,1.9146 2.7198,-2.7937 m -5.0756,1.1781 1.1339,-1.1643 m 4.3831,1.548 3.7791,0.96307 m -8.1622,-2.5111 0.17552,0.62579 m -1.3094,0.53849 0.17466,0.62603 m 0.95924,-1.7903 0.94641,0.23914 m 0.71681,4.1026 2.7198,-2.7937 m -4.2076,-0.92226 0.94555,0.23939 m 2.8207,-0.87904 3.7801,0.96 m -3.7801,-0.96 0.44133,1.5619 m -3.1612,1.2318 0.44133,1.5619 m 3.7799,0.95914 -3.7799,-0.95914 m -3.9855,-9.744 0.31642,-0.32268 m -0.90829,0.92859 0.31913,-0.32624 m 0.22959,0.81425 -0.12514,-0.43723 m 0.27274,-0.27967 0.12428,0.43747 m -0.39702,-0.1578 -0.31631,0.32637 m 0.36032,-1.4205 0.12428,0.43747 m -0.39702,-0.1578 0.27274,-0.27967 m 0.353,1.252 -0.27188,0.27943 m 0.61518,-1.4403 c -0.33975,-1.2083 -1.6558,0.14132 -1.3124,1.3495 m 0.91188,0.23214 c 0.36357,-0.37318 0.54187,-1.0801 0.40047,-1.5816 m -1.3124,1.3495 c 0.1414,0.50147 0.54856,0.60618 0.91188,0.23214 M 19.72641,27.3225 19.60213,26.88503 m 0.81777,0.20845 -0.31631,0.32637 m 0.21197,-0.6997 0.10434,0.37333 m -0.90535,0.93242 -0.10727,-0.37715 m -4.9107,5.0289 0.31631,-0.32637 M 13.90743,33.28 14.2236,32.95646 m 0.22886,0.81166 -0.12059,-0.43758 m 0.26905,-0.27956 0.12428,0.43747 m -0.39333,-0.15791 -0.32,0.32648 m 0.36018,-1.4177 0.12452,0.43833 m -0.39726,-0.15866 0.27274,-0.27967 m 0.35314,1.2491 -0.27274,0.27967 m 0.61973,-1.4407 c -0.14153,-0.49864 -0.55214,-0.60238 -0.91557,-0.23203 -0.36357,0.37318 -0.542,1.083 -0.40047,1.5816 m 0.91188,0.23214 c 0.36343,-0.37036 0.54556,-1.0802 0.40416,-1.5817 m -1.316,1.3496 c 0.1414,0.50147 0.54856,0.60618 0.91188,0.23214 m -0.44443,-0.95272 -0.12428,-0.43747 m 0.82159,0.20551 -0.32,0.32648 m 0.21197,-0.6997 0.10802,0.37322 m -0.90904,0.93252 -0.10445,-0.37702 m 1.1783,4.8058 -0.62954,-0.16106 m 6.5532,-13.494 -0.62943,-0.15738 m 0.96272,1.0326 -0.62954,-0.16106 m -7.7149,7.8994 -0.20138,-0.72081 m 0.50458,0.69764 c -0.09422,-0.02738 -0.19841,-0.01754 -0.3032,0.02317 m 0.6471,0.2761 c -0.08478,-0.16212 -0.20604,-0.26559 -0.34389,-0.29927 m 1.0236,4.7518 -0.79826,-2.8509 m -0.59238,-3.1433 c -0.12391,0.12795 -0.18477,0.37393 -0.13753,0.54477 m 0.13753,-0.54477 7.2599,-7.4316 m 1.0437,2.6756 0.80109,2.851 m -1.3259,-4.7289 c -0.19235,0.36025 -0.27934,0.80055 -0.23896,1.178 m -6.92,6.8623 -0.55595,-0.14089 m 9.5321,-2.4673 -1.1338,1.1615 m -6.3109,6.3473 c 0.05689,0.01372 0.12449,-0.01371 0.18483,-0.07351 m 1.1338,-1.1615 c 1.9125,0.19184 4.0156,-1.9619 4.9923,-5.1124 m -4.9923,5.1124 -0.62868,-0.16131 m -1.4506,1.0834 c 0.02284,0.08099 0.0706,0.13822 0.13117,0.15183 0.05676,0.01655 0.1246,-0.01002 0.18459,-0.07437 m 6.7558,-6.1119 -0.62967,-0.15824 m -7.2402,3.3418 c 0.15461,-0.29287 0.2429,-0.6461 0.24564,-0.97615 m 8.1283,-3.5271 c 0.12477,-0.12819 0.18588,-0.37331 0.13839,-0.54502 m -0.69638,-4.5678 c -0.31664,0.599 -0.32991,1.3766 -0.03112,1.737 m -6.041,10.969 1.1338,-1.1615 m 4.7364,-12.265 0.202,0.71971 m 0.52508,1.8787 -0.62978,-0.16192 m -0.73066,-2.5946 0.20582,0.71677 m -0.20582,-0.71677 c -0.02012,-0.08455 -0.06702,-0.14202 -0.12735,-0.15477 -0.05775,-0.01348 -0.1246,0.01002 -0.1857,0.07375 m 2.3361,6.2299 c 0.12477,-0.12819 0.18488,-0.37024 0.13839,-0.54502 m -6.8931,6.6575 -1.1349,1.1608 m 7.227,-10.666 0.80098,2.8473 m -0.76806,0.38678 -1.1338,1.1615 m 0.16797,-4.5306 c 0.0978,0.02358 0.19928,0.01729 0.30309,-0.02686 M 20.6762,26.87297 c 0.0742,0.09163 0.16093,0.15181 0.25874,0.17539 m -5.1593,9.6399 c 1.9114,0.19122 4.0154,-1.9628 4.9913,-5.1093 m 36.795,10.131 -1.2791,1.3122 m 50.221,11.121 2.2308,0.56529 m 2.6555,2.3123 -2.228,-0.56516 m -35.855,-10.744 -1.2789,1.3131 m -4.8873,-2.8811 2.2308,0.5653 m 59.043,15.001 -1.2791,1.3122 m -45.525,-11.564 1.2752,-1.313 m 37.656,9.5654 -1.2789,1.3131 m -80.954,-20.565 1.2789,-1.3131 m 45.957,13.312 1.2789,-1.3131 m -42.348,-9.1206 -2.2282,-0.56602 m 77.016,19.566 -2.2281,-0.56885 m -14.467,-5.3116 2.2291,0.56578 m 7.8716,1.9987 -1.2789,1.3131 m -23.617,-5.9981 -2.228,-0.56516 m -42.022,-12.312 2.2317,0.56505 m 47.663,13.746 1.2789,-1.3131 m 6.1663,1.5652 -1.2789,1.3131 m -39.363,-9.9995 -2.2282,-0.56602 m -5.6445,-1.4333 -2.2282,-0.56602 m 78.722,20 1.2789,-1.3131 m -87.874,-20.686 1.2755,-1.3121 m 59.995,16.876 -2.228,-0.56516 m -8.3003,-3.7465 -1.2789,1.3131 m -28.505,-8.8792 2.228,0.56516 m 56.814,14.436 2.2317,0.56505 m -10.104,-2.5672 2.2318,0.56874 m -35.428,-9.0003 -1.2791,1.3122 m -0.94895,-1.8811 2.2281,0.56885 m 20.111,6.7449 1.278,-1.3128 m -56.386,-12.685 1.2789,-1.3131 m 17.973,4.5637 -1.2789,1.3131 m 48.941,12.433 1.2791,-1.3122 m -50.22,-11.121 -2.228,-0.56516 m 62.98,16 1.2792,-1.3122 m -41.069,-10.435 -1.2789,1.3131 m 7.8728,1.9993 -2.2282,-0.56602 m 10.101,2.5653 -2.2291,-0.56578 m -2.6583,-2.3125 2.2282,0.56602 m -1.2791,1.3122 -2.228,-0.56516 m -31.49,-8.0002 1.2789,-1.3131 m 4.8863,2.8776 -2.228,-0.56516 m 65.209,16.566 -2.2317,-0.56505 m -83.088,-22.746 -1.2789,1.3131 m 38.41,8.1214 2.2317,0.56505 m -7.8728,-1.9993 -1.2789,1.3131 m 41.069,10.431 1.2789,-1.3131 m -44.576,-9.6866 1.2761,-1.3132 m -34.476,-7.1182 -2.228,-0.56516 m 3.5071,-0.74704 -1.2791,1.3122 m 13.518,3.4334 1.2789,-1.3131 m -17.233,-6.3473 -4.5575,4.6782 m 75.619,16.981 1.2789,-1.3131 m -48.941,-12.433 -1.2789,1.3131 m -0.95277,-1.8781 2.2317,0.56505 m 22.338,7.314 -2.228,-0.56516 m 7.8725,1.9984 1.2755,-1.3121 m 6.1663,1.5652 -1.2791,1.3122 m -44.25,-12.877 2.2317,0.56505 m 51.17,12.999 -1.2792,1.3122 m 1.7064,0.43411 1.2792,-1.3122 m -40.639,-8.6872 1.2763,-1.3123 m -11.807,-2.9994 2.2282,0.56602 m 60.752,15.432 2.2281,0.56885 m -45.528,-11.569 2.2309,0.56898 m 48.942,12.434 2.228,0.56516 m -7.4453,-0.25581 1.279,-1.3094 m -51.17,-13.002 2.229,0.56861 m 13.516,3.4328 2.2282,0.56602 m 1.7064,0.43411 2.2317,0.56505 m -39.363,-9.9995 -1.2789,1.3131 m 56.386,12.685 -1.2789,1.3131 m 9.1518,0.68992 -1.2791,1.3122 m -26.276,-8.3132 -1.2791,1.3122 m 36.707,7.6872 -1.2789,1.3131 m -45.529,-11.568 1.2791,-1.3122 m 0.94895,1.8811 -2.2281,-0.56885 m -27.552,-6.9974 1.2755,-1.3121 m -2.9856,0.87809 -2.228,-0.56516 m 1.2789,-1.3131 2.2282,0.56602 m 73.512,20.312 -2.2318,-0.56874 m -13.514,-3.4327 -2.2311,-0.56616 m -48.942,-12.433 -2.228,-0.56516 m 56.386,12.685 2.228,0.56516 m -62.98,-15.997 -1.2791,1.3122 m 9.5829,2.4333 1.2755,-1.3121 m 12.76,4.8804 -2.229,-0.56861 m 57.336,14.566 -2.228,-0.56516 m -9.5792,-2.4334 -2.2318,-0.56874 m -43.725,-12.746 -1.2791,1.3122 m 1.7067,0.43497 1.2789,-1.3131 m -31.49,-7.9974 2.2282,0.56602 m 55.538,15.745 1.2763,-1.3123 m -22.665,-4.1198 -2.2281,-0.56885 m 24.894,4.6886 2.2317,0.56505 m 29.074,14.4249 -114.84,-29.049 m 114.84,25.763 -110.93,-28.065 m 110.93,22.223 -107.61,-27.215 m 107.61,23.727 -108.07,-27.325 m 108.07,39.174 -114.16,-28.878 m 114.16,28.294 -113.7,-28.759 m 113.7,20.392 -107.27,-27.119 m 107.27,22.481 -108.6,-27.467 m 108.6,30.024 -107.82,-27.267 m 107.82,23.897 -108.93,-27.536"
     fill="none"
     stroke="#000000"
     stroke-width="0.2364"
     id="path12930"
     sodipodi:nodetypes="cccccccccccccccccccccccccccccccccccccccccccccccccccccccccccccccccccccccccccccccccccccccccccccccccccccccccccccccccccccccccccccccccccccccccccccccccccccccccccccccccccccccccccccccccccccccccccccccccccccccccccccccccccccccccccccccccccccccccccccccccccccccccccccccccccccccccccccccccccccccccccccccccccccccccccccccccccccccccccccccccccccccccccccccccccccccccccccccccccccccccccccccccccccccccccccccccccccccccccccccccccccccccccccccccccccccccccccccccccccccccccccccccccccccccccc" /><g
     stroke-width=".043701"
     id="g12942"><path
       transform="matrix(2.3502,0,0,2.3512,-187.58,6.6887)"
       d="m96.38 110.42c-0.72938 0-1.4385 0.19535-2.0652 0.5549-0.62665 0.35956-1.1404 0.87354-1.5 1.5002s-0.55431 1.3352-0.55431 2.0543v0.0108c0 0.71911 0.19476 1.4277 0.55431 2.0543 0.35956 0.62665 0.87335 1.1399 1.5 1.4994 0.62665 0.35956 1.3358 0.5549 2.0652 0.5549 0.71911 0 1.4276-0.19534 2.0543-0.5549 0.62665-0.35955 1.1404-0.8728 1.5-1.4994 0.35954-0.62666 0.5543-1.3352 0.5543-2.0543 0-0.72938-0.19476-1.4384-0.5543-2.0651-0.35956-0.62665-0.87335-1.1406-1.5-1.5002-0.62665-0.35955-1.3352-0.5549-2.0543-0.5549zm-0.0058 1.4844 2.312 4.6328h-4.6231z"
       id="path12932" /><path
       transform="matrix(2.3502,0,0,-2.3512,-187.58,603.23)"
       d="m96.38 110.42c-0.72938 0-1.4385 0.19535-2.0652 0.5549-0.62665 0.35956-1.1404 0.87354-1.5 1.5002s-0.55431 1.3352-0.55431 2.0543v0.0108c0 0.71911 0.19476 1.4277 0.55431 2.0543 0.35956 0.62665 0.87335 1.1399 1.5 1.4994 0.62665 0.35956 1.3358 0.5549 2.0652 0.5549 0.71911 0 1.4276-0.19534 2.0543-0.5549 0.62665-0.35955 1.1404-0.8728 1.5-1.4994 0.35954-0.62666 0.5543-1.3352 0.5543-2.0543 0-0.72938-0.19476-1.4384-0.5543-2.0651-0.35956-0.62665-0.87335-1.1406-1.5-1.5002-0.62665-0.35955-1.3352-0.5549-2.0543-0.5549zm-0.0058 1.4844 2.312 4.6328h-4.6231z"
       id="path12934" /><path
       transform="matrix(2.3502,0,0,2.3512,-141.7,6.689)"
       d="m96.38 110.42c-0.72938 0-1.4385 0.19535-2.0652 0.5549-0.62665 0.35956-1.1404 0.87354-1.5 1.5002s-0.55431 1.3352-0.55431 2.0543v0.0108c0 0.71911 0.19476 1.4277 0.55431 2.0543 0.35956 0.62665 0.87335 1.1399 1.5 1.4994 0.62665 0.35956 1.3358 0.5549 2.0652 0.5549 0.71911 0 1.4276-0.19534 2.0543-0.5549 0.62665-0.35955 1.1404-0.8728 1.5-1.4994 0.35954-0.62666 0.5543-1.3352 0.5543-2.0543 0-0.72938-0.19476-1.4384-0.5543-2.0651-0.35956-0.62665-0.87335-1.1406-1.5-1.5002-0.62665-0.35955-1.3352-0.5549-2.0543-0.5549zm-0.0058 1.4844 2.312 4.6328h-4.6231z"
       id="path12936" /><path
       transform="matrix(2.3502,0,0,-2.3512,-141.7,603.23)"
       d="m96.38 110.42c-0.72938 0-1.4385 0.19535-2.0652 0.5549-0.62665 0.35956-1.1404 0.87354-1.5 1.5002s-0.55431 1.3352-0.55431 2.0543v0.0108c0 0.71911 0.19476 1.4277 0.55431 2.0543 0.35956 0.62665 0.87335 1.1399 1.5 1.4994 0.62665 0.35956 1.3358 0.5549 2.0652 0.5549 0.71911 0 1.4276-0.19534 2.0543-0.5549 0.62665-0.35955 1.1404-0.8728 1.5-1.4994 0.35954-0.62666 0.5543-1.3352 0.5543-2.0543 0-0.72938-0.19476-1.4384-0.5543-2.0651-0.35956-0.62665-0.87335-1.1406-1.5-1.5002-0.62665-0.35955-1.3352-0.5549-2.0543-0.5549zm-0.0058 1.4844 2.312 4.6328h-4.6231z"
       id="path12938" /><path
       transform="matrix(2.3502,0,0,2.3512,-164.07,35.348)"
       d="m96.38 110.42c-0.72938 0-1.4385 0.19535-2.0652 0.5549-0.62665 0.35956-1.1404 0.87355-1.5 1.5002-0.3596 0.62669-0.55431 1.3352-0.55431 2.0543v0.0108c0 0.71911 0.19476 1.4277 0.55431 2.0543 0.35956 0.62665 0.87335 1.1399 1.5 1.4994 0.62665 0.35956 1.3358 0.5549 2.0652 0.5549 0.71911 0 1.4276-0.19534 2.0543-0.5549 0.62665-0.35955 1.1404-0.8728 1.5-1.4994 0.35955-0.62666 0.55431-1.3352 0.55431-2.0543 0-0.72938-0.19476-1.4384-0.55431-2.0651-0.35956-0.62664-0.87335-1.1406-1.5-1.5002-0.62665-0.35955-1.3352-0.5549-2.0543-0.5549zm2.2082 2.4773 0.3594 0.37879-3.3358 3.8191-1.7153-2.1838 0.76706-0.80334 0.97236 1.1708z"
       fill="#0f0"
       id="path12940" /></g><path
     transform="matrix(2.3502,0,0,2.3512,-187.58,6.6887)"
     d="m98.93 146.21h0.0481c1.414 0 2.5523 1.1378 2.5523 2.5512v0.0524c0 1.4134-1.1383 2.5512-2.5523 2.5512h-0.0481c-1.414 0-2.5523-1.1378-2.5523-2.5512v-0.0524c0-1.4134 1.1383-2.5512 2.5523-2.5512z"
     fill="none"
     stroke="#0f0"
     stroke-linecap="round"
     stroke-width=".66798"
     id="path12944" /><path
     transform="matrix(2.3502,0,0,2.3512,-187.58,6.6887)"
     d="m98.976 147.55 0.38847-0.37812s0.54386-0.51795 1.1395 0.0259c0.59565 0.54385 0.0932 1.1343 0.0932 1.1343l-0.40919 0.4351 0.41437 0.4299s0.49724 0.5335-0.057 1.1395c-0.55422 0.60602-1.1706 0.0622-1.1706 0.0622l-0.41437-0.39881-0.46098 0.42472s-0.55422 0.4558-1.0981-0.0984c-0.54385-0.55422-0.03626-1.1654-0.03626-1.1654l0.37293-0.38329-0.42472-0.46099s-0.47135-0.54903 0.05702-1.0929c0.52832-0.54387 1.155-0.10361 1.155-0.10361z"
     fill="#0f0"
     id="path12946" /><path
     transform="matrix(2.3502,0,0,2.3512,-187.58,6.6887)"
     d="m98.001 147.14c-0.15022-2e-3 -0.32043 0.0485-0.48034 0.21266-0.39362 0.404-0.07729 0.83402-0.07729 0.83402l0.58007 0.60059s-0.38371 0.38352-0.52356 0.5441c-0.13986 0.16057-0.30556 0.51264 0.08809 0.90629 0.39365 0.39362 0.82855 0.0208 0.82855 0.0208l0.55431-0.52333 0.52854 0.5333s0.4971 0.40451 0.91665-0.0565c0.41963-0.46098 0.0208-0.90131 0.0208-0.90131l-0.51774-0.5333 0.53852-0.57567s0.35223-0.41926-0.0673-0.84398c-0.41955-0.42468-0.83354-0.0881-0.83354-0.0881l-0.58589 0.55989s-0.46614-0.47194-0.53353-0.53414c-0.03998-0.0369-0.21674-0.15222-0.4363-0.15534zm-0.0025 0.18276c0.17957-3e-3 0.30499 0.12377 0.30499 0.12377l0.67813 0.65292 0.65819-0.6579s0.27977-0.27959 0.62162 0.0623c0.34186 0.34185 0 0.63132 0 0.63132l-0.62162 0.63216 0.6316 0.64213s0.34446 0.30853-0.0208 0.67369c-0.36516 0.36516-0.67813-0.0257-0.67813-0.0257l-0.60583-0.61139-0.67896 0.65791s-0.29526 0.27978-0.60085-0.0465c-0.3056-0.32631-0.02078-0.63216-0.02078-0.63216l0.63243-0.63714-0.67896-0.68865s-0.26916-0.30604 0.06233-0.62717c0.11395-0.11039 0.22257-0.14777 0.31663-0.14952zm1.9222 0.1869c-0.10484 3e-3 -0.18034 0.0822-0.18034 0.0822l-0.77703 0.77753h-8.31e-4s-0.64166-0.64799-0.75043-0.75676c-0.10878-0.10885-0.25974-0.1342-0.4255 0.0316-0.16574 0.16575 0 0.3464 0 0.3464l0.77703 0.77753s-0.65202 0.65259-0.75044 0.77172c-0.09844 0.11913-0.14561 0.2172 0.01496 0.38295 0.16057 0.16569 0.34738 0.0158 0.34738 0.0158l0.77703-0.7767s0.68616 0.66013 0.78201 0.75593c0.09582 0.0959 0.21502 0.18388 0.3989 0 0.18406-0.18387-5e-3 -0.38295-5e-3 -0.38295l-0.78202-0.76673 0.76124-0.76174c0.10895-0.10877 0.18148-0.22806-5e-3 -0.41452-0.0641-0.0641-0.12707-0.0836-0.18199-0.0822z"
     fill="#fff"
     id="path12948" /><path
     transform="matrix(2.3502 0 0 2.3512 -187.58 6.6885)"
     d="m103.01 146.98c-0.23594 0-0.48584 0.0686-0.67065 0.23758l-2e-3 2e-3h-2e-3c-0.18427 0.17091-0.27342 0.43142-0.27342 0.66788v2.051c0 0.21897 0.073 0.45993 0.24184 0.62883l4e-3 2e-3 2e-3 4e-3c0.17101 0.16531 0.41093 0.23425 0.62911 0.23425 0.21331 0 0.44835-0.0578 0.62328-0.22428 0.11515-0.10909 0.12479-0.26183 0.15956-0.40621l0.059 0.0955c0.0978 0.16116 0.22181 0.30376 0.39059 0.40205l2e-3 2e-3h2e-3c0.17129 0.0972 0.35976 0.13041 0.54849 0.13041 0.23549 0 0.49109-0.0671 0.67398-0.25003 0.1821-0.18208 0.25015-0.43725 0.25015-0.67203v-2.0502c0-0.21622-0.0733-0.46194-0.25015-0.62884-0.17534-0.16702-0.41133-0.22677-0.62661-0.22678-0.21897 0-0.45969 0.0734-0.6291 0.24007h-2e-3v2e-3c-0.11005 0.11007-0.12272 0.26686-0.1579 0.41286l-0.0765-0.12377c-0.0944-0.15322-0.21249-0.2885-0.36898-0.38628-0.15937-0.0996-0.34621-0.14453-0.52689-0.14454zm-0.0299 0.43279c0.01-3.2e-4 0.0199 0 0.0299 0 0.11502 0 0.21387 0.0258 0.29752 0.0781 0.0836 0.0523 0.16009 0.13513 0.22937 0.24754l0.5942 0.97607c0.0379 0.0601 0.0756 0.1308 0.11219 0.21183 0.0366 0.0797 0.0735 0.17277 0.11136 0.27994-8e-3 -0.0471-0.0135-0.098-0.0174-0.15285-4e-3 -0.0549-6e-3 -0.13464-6e-3 -0.23924v-0.96443c0-0.13724 0.0384-0.24436 0.11551-0.32148 0.0784-0.0771 0.1864-0.11547 0.32494-0.11547 0.14508 0 0.25543 0.0361 0.32993 0.10799 0.0758 0.0706 0.11385 0.17463 0.11385 0.31317v2.0526c0 0.16076-0.0415 0.28233-0.12382 0.36467-0.0823 0.0823-0.20442 0.12377-0.3665 0.12377-0.13593 0-0.24817-0.0251-0.33574-0.0748-0.0876-0.051-0.16662-0.13611-0.23851-0.25502l-0.5942-0.97025c-0.0342-0.0762-0.0469-0.10551-0.0823-0.18525-0.01-0.0347-0.12363-0.29687-0.12363-0.29687 4e-3 0.0615 0.0258 0.31179 0.0258 0.3941v0.96692c0 0.13986-0.0377 0.24509-0.11219 0.31567-0.0732 0.0706-0.18117 0.10549-0.32494 0.10549-0.13986 0-0.24902-0.038-0.32744-0.1138-0.0771-0.0771-0.11551-0.1846-0.11551-0.32314v-2.051c0-0.149 0.0444-0.26525 0.13463-0.34889 0.0858-0.0784 0.20238-0.12054 0.34904-0.12544z"
     color="#000000"
     style="-inkscape-stroke:none"
     id="path12950" /><path
     transform="matrix(2.3502 0 0 2.3512 -187.58 6.6885)"
     d="m106.48 148.4c-0.33465 0-0.66399 0.10238-0.90251 0.32813-0.23948 0.22523-0.35735 0.55832-0.35735 0.88884 0 0.32286 0.11738 0.6476 0.35153 0.8689h2e-3v2e-3c0.23492 0.2207 0.5587 0.32231 0.8859 0.32231 0.25343 0 0.49065-0.0411 0.70389-0.15284h2e-3c0.20981-0.11058 0.42799-0.3558 0.42799-0.64213 0-0.0535-0.0525-0.0991-0.0706-0.15617 0.0672-0.1138 0.14876-0.23174 0.14876-0.33477 0-0.14341-0.0328-0.28437-0.0881-0.41368v-2e-3c-0.0542-0.12858-0.1326-0.24754-0.2302-0.34806-0.11329-0.11598-0.2496-0.21072-0.40056-0.27163h-2e-3c-0.1489-0.0609-0.30981-0.0897-0.47037-0.0897zm2e-3 0.43612c0.1103 0 0.21307 0.0194 0.30749 0.0582 0.0944 0.0379 0.17846 0.0952 0.25347 0.17195 0.06 0.0617 0.10769 0.13388 0.14211 0.21598 0.0353 0.0821 0.0524 0.16387 0.0524 0.24505 0 0.0724-0.0193 0.12518-0.059 0.15783-0.0388 0.0318-0.10209 0.0473-0.18948 0.0473l-0.76124 8.4e-4c3e-3 0.0971 0.0294 0.16998 0.0773 0.21764 0.0477 0.0468 0.11908 0.0698 0.21524 0.0698 0.0362 0 0.0713-4e-3 0.10388-0.0133 0.0335-0.01 0.07-0.0245 0.1097-0.0457 0.0123-7e-3 0.0294-0.0182 0.0524-0.0332 0.0759-0.0485 0.13991-0.0731 0.19197-0.0731 0.0529 0 0.0961 0.0156 0.12964 0.0465 0.0344 0.03 0.0524 0.0686 0.0524 0.11629 0 0.10325-0.0655 0.18952-0.19613 0.25835-0.12971 0.0679-0.29718 0.10217-0.50278 0.10217-0.24708 0-0.44361-0.0684-0.58921-0.20518-0.14472-0.13678-0.21691-0.32195-0.21691-0.5549 0-0.24179 0.0737-0.4321 0.22189-0.57152 0.14825-0.1403 0.34998-0.21099 0.605-0.21099zm-5e-3 0.34141c-0.075 0-0.13456 0.0238-0.17868 0.0714-0.0433 0.0468-0.0672 0.11224-0.0706 0.19604h0.51027c-6e-3 -0.0882-0.0314-0.15519-0.0756-0.20019-0.0433-0.045-0.10505-0.0673-0.18532-0.0673zm0.91498 0.39458 0.0108 7e-3c-2e-3 -2e-3 -6e-3 2.6e-4 -8e-3 -2e-3 -2e-3 -1e-3 -9.3e-4 -5e-3 -2e-3 -6e-3z"
     color="#000000"
     style="-inkscape-stroke:none"
     id="path12952" /><path
     transform="matrix(2.3502 0 0 2.3512 -187.58 6.6885)"
     d="m110.19 147.02c-0.22181 0-0.46279 0.0668-0.63825 0.2326-0.17741 0.16595-0.25762 0.4156-0.25762 0.6388v2.0643c0 0.22005 0.0631 0.46734 0.24931 0.64047l2e-3 2e-3v2e-3c0.18843 0.17192 0.42292 0.21515 0.64406 0.21515h1.3164c0.19666 0 0.41385-0.0486 0.58423-0.19937h2e-3c0.17107-0.1517 0.25015-0.38977 0.25015-0.59228 0-0.20542-0.0648-0.44016-0.23602-0.60475-0.17022-0.16364-0.39909-0.2193-0.60334-0.2193h-0.41802v-1.3241c0-0.21994-0.0777-0.46976-0.25762-0.63465-0.18028-0.16526-0.41788-0.22097-0.63741-0.22097zm0 0.43113c0.15031 0 0.2648 0.0361 0.34322 0.10799 0.0784 0.0719 0.11718 0.17677 0.11718 0.314v1.7586h0.85265c0.13332 0 0.23454 0.0327 0.3025 0.098 0.068 0.0653 0.10139 0.16216 0.10139 0.29158 0 0.11632-0.0346 0.20522-0.10388 0.26665-0.068 0.0601-0.16646 0.0905-0.29586 0.0905h-1.3172c-0.15946 0-0.27704-0.0342-0.35154-0.10217-0.0745-0.0693-0.11136-0.17675-0.11136-0.32314v-2.0643c0-0.13855 0.0403-0.24567 0.12134-0.32148 0.081-0.0771 0.19517-0.1163 0.34156-0.1163z"
     color="#000000"
     style="-inkscape-stroke:none"
     id="path12954" /><path
     transform="matrix(2.3502 0 0 2.3512 -187.58 6.6885)"
     d="m115.51 147.91c-0.17528 2.2e-4 -0.38152 0.0741-0.51525 0.21348-0.0785 0.0813-0.084 0.19294-0.11552 0.29822-0.0201-1e-3 -0.0382-0.0133-0.0582-0.0133-0.28401 0-0.57278 0.13708-0.76373 0.35305-1e-3 -1e-3 -5.9e-4 -2e-3 -2e-3 -3e-3 -0.11305-0.11576-0.25109-0.20922-0.40057-0.26997-6e-4 -2.4e-4 -1e-3 2.5e-4 -2e-3 0-0.14943-0.0611-0.30993-0.0914-0.47037-0.0914-0.33344 0-0.66385 0.10332-0.90252 0.32813-0.24023 0.22594-0.35901 0.55807-0.35901 0.88801 0 0.32265 0.11931 0.6487 0.35319 0.86973v2e-3c0.23506 0.22082 0.55952 0.32231 0.88673 0.32231 0.25262 0 0.49159-0.0383 0.70556-0.15035 0.0785-0.0414 0.0906-0.16596 0.15956-0.24007 9e-3 0.011 4e-3 0.0282 0.0141 0.039 0.20084 0.23106 0.51376 0.35138 0.81609 0.35138 0.13675 0 0.27808-0.0373 0.41053-0.0997 0.0935 0.0379 0.184 0.0997 0.27092 0.0997 0.17117 0 0.38654-0.0741 0.51775-0.22678 0.13055-0.15175 0.16787-0.33958 0.16787-0.50007v-1.4371c0-0.17052-0.057-0.36942-0.19281-0.51337-0.13387-0.14319-0.34335-0.21908-0.5194-0.2193zm0 0.43528c0.0847 0 0.15247 0.0268 0.20277 0.0806 0.0512 0.0538 0.0765 0.12672 0.0765 0.21764v1.4371c0 0.0944-0.0216 0.16734-0.0648 0.21764-0.0433 0.0503-0.10578 0.0748-0.18782 0.0748-0.0732 0-0.13205-0.0192-0.17618-0.059-0.0432-0.0397-0.07-0.0978-0.0806-0.17361-0.0477 0.0785-0.10649 0.13728-0.17618 0.1761-0.0697 0.0379-0.15235 0.0565-0.24765 0.0565-0.20826 0-0.37047-0.0677-0.48783-0.20269-0.11736-0.13501-0.17618-0.32236-0.17618-0.56238 0-0.23296 0.0565-0.41885 0.17036-0.55739 0.11384-0.13942 0.26647-0.20851 0.45708-0.20851 0.0794 0 0.15306 0.0163 0.22189 0.049 0.0688 0.0318 0.13212 0.0794 0.18948 0.14288v-0.39873c0-0.0882 0.0254-0.1581 0.0756-0.21016 0.0503-0.0529 0.11805-0.0798 0.20361-0.0798zm-2.3286 0.48595c0.1103 0 0.21306 0.0194 0.30748 0.0582 0.0944 0.0379 0.1793 0.0952 0.2543 0.17196 0.06 0.0618 0.10687 0.13394 0.14128 0.21598 0.0353 0.0821 0.0532 0.16387 0.0532 0.24505 0 0.0724-0.0201 0.12435-0.0598 0.157-0.0388 0.0318-0.10209 0.0482-0.18947 0.0482l-0.76041 8.3e-4c3e-3 0.0971 0.0286 0.16999 0.0764 0.21764 0.0477 0.0467 0.11991 0.0698 0.21608 0.0698 0.0362 0 0.0704-4e-3 0.10305-0.0133 0.0335-0.01 0.07-0.0246 0.10969-0.0457 0.0123-7e-3 0.0303-0.0182 0.0532-0.0332 0.0759-0.0485 0.13991-0.0731 0.19197-0.0731 0.0529 0 0.0961 0.0157 0.12965 0.0465 0.0344 0.03 0.0515 0.0686 0.0515 0.1163 0 0.10325-0.0655 0.18952-0.19613 0.25835-0.12972 0.0679-0.29718 0.10134-0.50278 0.10134-0.24708 0-0.44361-0.0684-0.58921-0.20518-0.14472-0.13678-0.2169-0.32111-0.2169-0.55407 0-0.24178 0.0745-0.43292 0.22272-0.57235 0.14824-0.1403 0.34915-0.21017 0.60417-0.21017zm-5e-3 0.34142c-0.075 0-0.13455 0.0238-0.17867 0.0714-0.0433 0.0468-0.0663 0.11224-0.0698 0.19604h0.50943c-6e-3 -0.0882-0.0313-0.1552-0.0756-0.2002-0.0433-0.045-0.10505-0.0673-0.18532-0.0673zm1.8092 0.11131c-0.0728 3e-3 -0.12649 0.0301-0.16206 0.0806-0.0371 0.0538-0.0557 0.13862-0.0557 0.25336 0 0.10501 0.0201 0.18598 0.0607 0.24422 0.0406 0.0583 0.0979 0.0881 0.17203 0.0881 0.0732 0 0.13055-0.0298 0.17202-0.0881 0.0423-0.0591 0.0632-0.1401 0.0632-0.24422 0-0.11295-0.0194-0.19699-0.0582-0.2517-0.0388-0.0547-0.0976-0.0822-0.17701-0.0822-5e-3 0-0.0101-2.1e-4 -0.015 0z"
     color="#000000"
     style="-inkscape-stroke:none"
     id="path12956" /><path
     transform="matrix(1.3972 0 0 1.3978 -71.029 150.38)"
     d="m98.976 147.55 0.38847-0.37812s0.54386-0.51795 1.1395 0.0259c0.59565 0.54385 0.0932 1.1343 0.0932 1.1343l-0.40919 0.4351 0.41437 0.4299s0.49724 0.5335-0.057 1.1395c-0.55422 0.60602-1.1706 0.0622-1.1706 0.0622l-0.41437-0.39881-0.46098 0.42472s-0.55422 0.4558-1.0981-0.0984c-0.54385-0.55422-0.03626-1.1654-0.03626-1.1654l0.37293-0.38329-0.42472-0.46099s-0.47135-0.54903 0.05702-1.0929c0.52832-0.54387 1.155-0.10361 1.155-0.10361z"
     fill="#0f0"
     id="path12958" /><path
     transform="matrix(1.3972 0 0 1.3978 -71.029 150.38)"
     d="m98.001 147.14c-0.15022-2e-3 -0.32043 0.0485-0.48034 0.21266-0.39362 0.404-0.07729 0.83402-0.07729 0.83402l0.58007 0.60059s-0.38371 0.38352-0.52356 0.5441c-0.13986 0.16057-0.30556 0.51264 0.08809 0.90629 0.39365 0.39362 0.82855 0.0208 0.82855 0.0208l0.55431-0.52333 0.52854 0.5333s0.4971 0.40451 0.91665-0.0565c0.41963-0.46098 0.0208-0.90131 0.0208-0.90131l-0.51774-0.5333 0.53852-0.57567s0.35223-0.41926-0.0673-0.84398c-0.41955-0.42468-0.83354-0.0881-0.83354-0.0881l-0.58589 0.55989s-0.46614-0.47194-0.53353-0.53414c-0.03998-0.0369-0.21674-0.15222-0.4363-0.15534zm-0.0025 0.18276c0.17957-3e-3 0.30499 0.12377 0.30499 0.12377l0.67813 0.65292 0.65819-0.6579s0.27977-0.27959 0.62162 0.0623c0.34186 0.34185 0 0.63132 0 0.63132l-0.62162 0.63216 0.6316 0.64213s0.34446 0.30853-0.0208 0.67369c-0.36516 0.36516-0.67813-0.0257-0.67813-0.0257l-0.60583-0.61139-0.67896 0.65791s-0.29526 0.27978-0.60085-0.0465c-0.3056-0.32631-0.02078-0.63216-0.02078-0.63216l0.63243-0.63714-0.67896-0.68865s-0.26916-0.30604 0.06233-0.62717c0.11395-0.11039 0.22257-0.14777 0.31663-0.14952zm1.9222 0.1869c-0.10484 3e-3 -0.18034 0.0822-0.18034 0.0822l-0.77703 0.77753h-8.31e-4s-0.64166-0.64799-0.75043-0.75676c-0.10878-0.10885-0.25974-0.1342-0.4255 0.0316-0.16574 0.16575 0 0.3464 0 0.3464l0.77703 0.77753s-0.65202 0.65259-0.75044 0.77172c-0.09844 0.11913-0.14561 0.2172 0.01496 0.38295 0.16057 0.16569 0.34738 0.0158 0.34738 0.0158l0.77703-0.7767s0.68616 0.66013 0.78201 0.75593c0.09582 0.0959 0.21502 0.18388 0.3989 0 0.18406-0.18387-5e-3 -0.38295-5e-3 -0.38295l-0.78202-0.76673 0.76124-0.76174c0.10895-0.10877 0.18148-0.22806-5e-3 -0.41452-0.0641-0.0641-0.12707-0.0836-0.18199-0.0822z"
     fill="#fff"
     id="path12960" /><path
     transform="matrix(2.3502,0,0,2.3512,-187.58,6.6887)"
     d="m117.65 126.63c0 0.30819-0.0822 0.61638-0.23628 0.88348-0.1541 0.25683-0.38011 0.48283-0.63693 0.63693-0.2671 0.15409-0.57529 0.23628-0.88348 0.23628s-0.61638-0.0822-0.8732-0.23628c-0.2671-0.1541-0.49311-0.3801-0.6472-0.63693-0.1541-0.2671-0.23628-0.57529-0.23628-0.88348s0.0822-0.61638 0.23628-0.8732c0.15409-0.2671 0.3801-0.49311 0.6472-0.6472 0.25682-0.1541 0.56501-0.23628 0.8732-0.23628s0.61638 0.0822 0.88348 0.23628c0.25682 0.15409 0.48283 0.3801 0.63693 0.6472 0.15409 0.25682 0.23628 0.56501 0.23628 0.8732z"
     stroke-width=".043701"
     id="path12962" /><g
     aria-label="1,5 m"
     transform="translate(-96.609224,-89.019178)"
     id="text13087"
     style="font-size:16px;white-space:pre"><path
       d="m 238.76203,269.25332 h -1.376 v -7.984 q 0,-0.688 0.016,-1.104 0.016,-0.416 0.048,-0.864 -0.256,0.256 -0.48,0.432 -0.208,0.176 -0.512,0.448 l -1.216,0.992 -0.736,-0.944 3.088,-2.4 h 1.168 z"
       style="-inkscape-font-specification:'sans-serif, Normal'"
       id="path13590" /><path
       d="m 245.19404,267.39732 0.112,0.176 q -0.224,0.848 -0.608,1.856 -0.384,1.024 -0.768,1.888 h -1.04 q 0.224,-0.912 0.448,-2 0.24,-1.088 0.352,-1.92 z"
       style="-inkscape-font-specification:'sans-serif, Normal'"
       id="path13592" /><path
       d="m 250.92203,262.24532 q 1.744,0 2.784,0.88 1.056,0.88 1.056,2.48 0,1.776 -1.136,2.8 -1.12,1.008 -3.136,1.008 -0.896,0 -1.664,-0.16 -0.768,-0.16 -1.296,-0.464 v -1.328 q 0.576,0.352 1.392,0.56 0.832,0.192 1.584,0.192 1.264,0 2.032,-0.592 0.784,-0.608 0.784,-1.872 0,-1.12 -0.688,-1.712 -0.688,-0.608 -2.176,-0.608 -0.448,0 -1.024,0.08 -0.576,0.08 -0.928,0.16 l -0.704,-0.448 0.432,-5.392 h 5.728 v 1.28 h -4.528 l -0.272,3.312 q 0.272,-0.048 0.736,-0.112 0.464,-0.064 1.024,-0.064 z"
       style="-inkscape-font-specification:'sans-serif, Normal'"
       id="path13594" /><path
       d="m 270.60205,260.51732 q 1.456,0 2.176,0.752 0.72,0.752 0.72,2.4 v 5.584 h -1.392 v -5.52 q 0,-2.032 -1.744,-2.032 -1.248,0 -1.792,0.72 -0.528,0.72 -0.528,2.096 v 4.736 h -1.392 v -5.52 q 0,-2.032 -1.76,-2.032 -1.296,0 -1.792,0.8 -0.496,0.8 -0.496,2.304 v 4.448 h -1.408 v -8.576 h 1.136 l 0.208,1.168 h 0.08 q 0.4,-0.672 1.072,-0.992 0.688,-0.336 1.456,-0.336 2.016,0 2.624,1.44 h 0.08 q 0.432,-0.736 1.168,-1.088 0.736,-0.352 1.584,-0.352 z"
       style="-inkscape-font-specification:'sans-serif, Normal'"
       id="path13596" /></g><path
     d="M 19.993544,118.41424 M 0.49701319,181.78875 M 11.241467,146.91877 M 28.381832,91.163932 m 73.567828,3.788181 C 84.361326,122.18381 49.339905,132.21253 19.995701,118.41267 m 138.434249,9.63532 C 126.1674,182.37517 59.200268,205.16272 0.49917054,181.78719 M 127.70251,110.04046 C 103.8955,150.14054 53.7942,165.99622 11.243625,146.9172 M 77.127432,80.407337 C 65.520038,95.150928 45.122918,99.653024 28.38399,91.162367"
     style="fill:none;stroke:#000000;stroke-width:1;stroke-dasharray:none"
     id="path13160" /></svg>
