<?xml version="1.0" encoding="UTF-8" standalone="no"?>
<svg
   width="500"
   height="396.83"
   version="1.1"
   viewBox="0 0 500 396.83"
   xml:space="preserve"
   id="svg761"
   sodipodi:docname="Desenho CCT Mao.svg"
   inkscape:version="1.2.2 (732a01da63, 2022-12-09)"
   xmlns:inkscape="http://www.inkscape.org/namespaces/inkscape"
   xmlns:sodipodi="http://sodipodi.sourceforge.net/DTD/sodipodi-0.dtd"
   xmlns="http://www.w3.org/2000/svg"
   xmlns:svg="http://www.w3.org/2000/svg"><defs
     id="defs765" /><sodipodi:namedview
     id="namedview763"
     pagecolor="#505050"
     bordercolor="#ffffff"
     borderopacity="1"
     inkscape:showpageshadow="0"
     inkscape:pageopacity="0"
     inkscape:pagecheckerboard="1"
     inkscape:deskcolor="#505050"
     showgrid="false"
     inkscape:zoom="0.59471312"
     inkscape:cx="197.57425"
     inkscape:cy="198.41499"
     inkscape:window-width="1920"
     inkscape:window-height="1009"
     inkscape:window-x="-8"
     inkscape:window-y="-8"
     inkscape:window-maximized="1"
     inkscape:current-layer="svg761" /><g
     stroke="#000"
     stroke-linecap="round"
     id="g683"><path
       transform="matrix(4.2301,0,0,4.2301,-49.646,-104.71)"
       d="m71.693 96.804s-1.623-1.3808-2.3921-2.8088c-0.76901-1.4262-2.2278-3.5063-3.3637-4.5674-1.134-1.0611-0.98891-2.8964 1.4255-2.4419 2.1875 0.53441 4.2976 4.1551 4.8097 4.9241s1.5054 1.7854 2.2725 2.1901c0.76901 0.40209 2.2572 1.3181 2.9162 2.3422m-19.397-4.2024s-2.1102-3.7511-4.1001-5.8184c-1.6556-1.7228 0.6418-2.8792 2.0328-2.1824 1.391 0.69422 2.5647 1.2734 5.089 5.4809 2.5244 4.2101 5.9354 5.8906 6.7396 6.2205m-15.612-5.4214s-1.7931-1.5431-4.3303-1.4255c-2.4445 0.14191-2.8536 0.97613-3.0633 1.3431 0 0-0.65459 1.1711 1.1308 2.3627 1.7854 1.1909 2.2271 1.8327 2.8242 2.1945 0.5945 0.36245 2.2776 2.3301 5.3038 4.1679 3.0287 1.8353 7.0918 4.3974 8.9021 6.5472 1.8129 2.1472 6.9889 1.965 7.6358 1.965s10.867 0.0275 12.782 0.85403c1.9152 0.8291 3.7006 1.476 6.0057 1.476 2.3019 0 20.88-0.6092 25.42 1.2561 4.5374 1.8672 12.405 7.6479 12.405 7.6479m-45.051-21.936s-5.4534-1.2587-11.509 0.08758c0 0-1.88-1.2363-4.003-1.1641-1.2433-0.10739-1.1986-1.4805-5.3856-2.1722-3.2889-0.54464-4.8174-3.9077-9.8815-3.0665-2.6765 0.44683-4.0624 2.1025-2.1945 3.0192 1.8653 0.91348 10.904 5.4336 14.345 8.1779 3.4411 2.7468 6.5152 3.7703 8.0507 4.0624 1.538 0.29469 12.116-0.0352 12.738 0.25762 0.62135 0.29213 5.4157 2.7814 10.43 1.9746m9.3266-17.864s-5.0814 4.4095-11.032 5.4713c0 0-5.8632-0.67185-10.884 1.2158m43.508-1.9778s-0.0294-3.9352-4.7515-6.5344c-4.7221-2.5973-9.6238-4.5751-11.052-5.4886-1.4287-0.91668-4.7573-2.782-6.8444-4.6844-2.0852-1.903-5.7462-2.4899-6.0754-2.5998-0.32985-0.10995-5.4163-2.4521-5.9654-2.7443-0.54975-0.29214-4.063-1.1884-4.5348 1.703-0.40464 2.4771 0.37204 3.296 2.2348 5.596 2.7769 3.4308 6.1432 4.4121 7.3513 4.9241 1.2063 0.51204 4.7144 2.557 8.0455 5.1191m21.592 4.7093 4.3496 2.8584"
       fill="none"
       stroke-width=".2364"
       id="path677" /></g><path
     transform="matrix(4.2301,0,0,4.2301,-49.646,-102.17)"
     d="m13.646 33.321s0.12716 0.27946 0.12707 0.6255m19.488 1.4913c-0.04068-0.14758-0.18196-0.25936-0.39057-0.31309m-18.374-2.4465 0.31631-0.32637m-0.90546 0.92872 0.31617-0.32354m0.22886 0.81166-0.12059-0.43758m0.26905-0.27956 0.12428 0.43747m-0.39333-0.15791-0.32 0.32648m0.36018-1.4177 0.12452 0.43833m-0.39726-0.15866 0.27274-0.27967m0.35314 1.2491-0.27274 0.27967m0.61973-1.4407c-0.14153-0.49864-0.55214-0.60238-0.91557-0.23203-0.36357 0.37318-0.542 1.083-0.40047 1.5816m0.91188 0.23214c0.36343-0.37036 0.54556-1.0802 0.40416-1.5817m-1.316 1.3496c0.1414 0.50147 0.54856 0.60618 0.91188 0.23214m-0.44443-0.95272-0.12428-0.43747m0.82159 0.20551-0.32 0.32648m0.21197-0.6997 0.10802 0.37322m-0.90904 0.93252-0.10445-0.37702m1.1783 4.8058-0.62954-0.16106m-0.81086-4.6044c-0.08478-0.16212-0.20604-0.26559-0.34389-0.29927m0.25275 0.16406-0.55595-0.14089m2.0875 5.0415c0.05689 0.01372 0.12449-0.01371 0.18483-0.07351m1.1338-1.1615-0.62868-0.16131m-1.4506 1.0834c0.02284 0.08099 0.0706 0.13822 0.13117 0.15183 0.05676 0.01655 0.1246-0.01002 0.18459-0.07437m6.7558-6.1119-0.62967-0.15824m-7.2402 3.3418c0.15461-0.29287 0.2429-0.6461 0.24564-0.97615m1.4982 4.0664 1.1338-1.1615m5.4634-9.6662-0.62978-0.16192m-0.85801-2.7494c-0.05775-0.01348-0.1246 0.01002-0.1857 0.07375m-4.4186 12.342-1.1349 1.1608m6.2941-10.801c0.0978 0.02358 0.19928 0.01729 0.30309-0.02686m-0.56183-0.14853c0.0742 0.09163 0.16093 0.15181 0.25874 0.17539m14.902 19.551c-4.1579 6.4376-12.437 8.8084-19.374 5.5461m32.726 2.2778c-7.6269 12.843-23.458 18.23-37.335 12.704m30.071-16.961c-5.628 9.4797-17.472 13.228-27.531 8.7177m15.575-15.723c-2.744 3.4854-7.5659 4.5497-11.523 2.5425m-4.8012-12.384s0.12716 0.27946 0.12707 0.6255m19.805 2.616c0.03015 0.10033 0.03999 0.20452 0.03683 0.30214-0.0031 0.10132-0.02295 0.19901-0.05336 0.2792-0.03379 0.09789-0.07785 0.17914-0.12504 0.24268-0.05994 0.08759-0.1209 0.1485-0.18109 0.19895-0.08447 0.0666-0.16504 0.11072-0.24288 0.14475-0.10123 0.04343-0.1986 0.07088-0.3093 0.0807-0.10799 0.0063-0.22875 0.0068-0.3769-0.03697-0.10171-0.03085-0.21922-0.08143-0.33681-0.17849-0.08043-0.06754-0.16473-0.15539-0.22928-0.26555-0.04047-0.06765-0.0734-0.14487-0.09341-0.22573m1.5951-1.6664 0.31619 1.1247m-2.2312-0.58657 0.31999 1.1283m-8.2233-3.7933-1.1339 1.1643m10.562 0.64956c-0.70044-0.17828-1.6629 0.36006-1.5245 0.8512m1.915-0.53811c-0.04068-0.14758-0.18196-0.25936-0.39057-0.31309m-2.3866-0.1679-2.7191 2.7897m-5.4559-3.2714-0.94641-0.23914m8.6811-0.84418 0.44033 1.565m-9.1214-0.7208 1.1348-1.1645m0.77089-0.38665 0.17466 0.62603m0.10083 1.9146 2.7198-2.7937m-5.0756 1.1781 1.1339-1.1643m4.3831 1.548 3.7791 0.96307m-8.1622-2.5111 0.17552 0.62579m-1.3094 0.53849 0.17466 0.62603m0.95924-1.7903 0.94641 0.23914m0.71681 4.1026 2.7198-2.7937m-4.2076-0.92226 0.94555 0.23939m2.8207-0.87904 3.7801 0.96m-3.7801-0.96 0.44133 1.5619m-3.1612 1.2318 0.44133 1.5619m3.7799 0.95914-3.7799-0.95914m-3.9855-9.744 0.31642-0.32268m-0.90829 0.92859 0.31913-0.32624m0.22959 0.81425-0.12514-0.43723m0.27274-0.27967 0.12428 0.43747m-0.39702-0.1578-0.31631 0.32637m0.36032-1.4205 0.12428 0.43747m-0.39702-0.1578 0.27274-0.27967m0.353 1.252-0.27188 0.27943m0.61518-1.4403c-0.33975-1.2083-1.6558 0.14132-1.3124 1.3495m0.91188 0.23214c0.36357-0.37318 0.54187-1.0801 0.40047-1.5816m-1.3124 1.3495c0.1414 0.50147 0.54856 0.60618 0.91188 0.23214m-0.44429-0.95555-0.12428-0.43747m0.81777 0.20845-0.31631 0.32637m0.21197-0.6997 0.10434 0.37333m-0.90535 0.93242-0.10727-0.37715m-4.9107 5.0289 0.31631-0.32637m-0.90546 0.92872 0.31617-0.32354m0.22886 0.81166-0.12059-0.43758m0.26905-0.27956 0.12428 0.43747m-0.39333-0.15791-0.32 0.32648m0.36018-1.4177 0.12452 0.43833m-0.39726-0.15866 0.27274-0.27967m0.35314 1.2491-0.27274 0.27967m0.61973-1.4407c-0.14153-0.49864-0.55214-0.60238-0.91557-0.23203-0.36357 0.37318-0.542 1.083-0.40047 1.5816m0.91188 0.23214c0.36343-0.37036 0.54556-1.0802 0.40416-1.5817m-1.316 1.3496c0.1414 0.50147 0.54856 0.60618 0.91188 0.23214m-0.44443-0.95272-0.12428-0.43747m0.82159 0.20551-0.32 0.32648m0.21197-0.6997 0.10802 0.37322m-0.90904 0.93252-0.10445-0.37702m1.1783 4.8058-0.62954-0.16106m6.5532-13.494-0.62943-0.15738m0.96272 1.0326-0.62954-0.16106m-7.7149 7.8994-0.20138-0.72081m0.50458 0.69764c-0.09422-0.02738-0.19841-0.01754-0.3032 0.02317m0.6471 0.2761c-0.08478-0.16212-0.20604-0.26559-0.34389-0.29927m1.0236 4.7518-0.79826-2.8509m-0.59238-3.1433c-0.12391 0.12795-0.18477 0.37393-0.13753 0.54477m0.13753-0.54477 7.2599-7.4316m1.0437 2.6756 0.80109 2.851m-1.3259-4.7289c-0.19235 0.36025-0.27934 0.80055-0.23896 1.178m-6.92 6.8623-0.55595-0.14089m9.5321-2.4673-1.1338 1.1615m-6.3109 6.3473c0.05689 0.01372 0.12449-0.01371 0.18483-0.07351m1.1338-1.1615c1.9125 0.19184 4.0156-1.9619 4.9923-5.1124m-4.9923 5.1124-0.62868-0.16131m-1.4506 1.0834c0.02284 0.08099 0.0706 0.13822 0.13117 0.15183 0.05676 0.01655 0.1246-0.01002 0.18459-0.07437m6.7558-6.1119-0.62967-0.15824m-7.2402 3.3418c0.15461-0.29287 0.2429-0.6461 0.24564-0.97615m8.1283-3.5271c0.12477-0.12819 0.18588-0.37331 0.13839-0.54502m-0.69638-4.5678c-0.31664 0.599-0.32991 1.3766-0.03112 1.737m-6.041 10.969 1.1338-1.1615m4.7364-12.265 0.202 0.71971m0.52508 1.8787-0.62978-0.16192m-0.73066-2.5946 0.20582 0.71677m-0.20582-0.71677c-0.02012-0.08455-0.06702-0.14202-0.12735-0.15477-0.05775-0.01348-0.1246 0.01002-0.1857 0.07375m2.3361 6.2299c0.12477-0.12819 0.18488-0.37024 0.13839-0.54502m-6.8931 6.6575-1.1349 1.1608m7.227-10.666 0.80098 2.8473m-0.76806 0.38678-1.1338 1.1615m0.16797-4.5306c0.0978 0.02358 0.19928 0.01729 0.30309-0.02686m-0.56183-0.14853c0.0742 0.09163 0.16093 0.15181 0.25874 0.17539m-5.1593 9.6399c1.9114 0.19122 4.0154-1.9628 4.9913-5.1093m36.795 10.131-1.2791 1.3122m50.221 11.121 2.2308 0.56529m2.6555 2.3123-2.228-0.56516m-35.855-10.744-1.2789 1.3131m-4.8873-2.8811 2.2308 0.5653m59.043 15.001-1.2791 1.3122m-45.525-11.564 1.2752-1.313m37.656 9.5654-1.2789 1.3131m-80.954-20.565 1.2789-1.3131m45.957 13.312 1.2789-1.3131m-42.348-9.1206-2.2282-0.56602m77.016 19.566-2.2281-0.56885m-14.467-5.3116 2.2291 0.56578m7.8716 1.9987-1.2789 1.3131m-23.617-5.9981-2.228-0.56516m-42.022-12.312 2.2317 0.56505m47.663 13.746 1.2789-1.3131m6.1663 1.5652-1.2789 1.3131m-39.363-9.9995-2.2282-0.56602m-5.6445-1.4333-2.2282-0.56602m78.722 20 1.2789-1.3131m-87.874-20.686 1.2755-1.3121m59.995 16.876-2.228-0.56516m-8.3003-3.7465-1.2789 1.3131m-28.505-8.8792 2.228 0.56516m56.814 14.436 2.2317 0.56505m-10.104-2.5672 2.2318 0.56874m-35.428-9.0003-1.2791 1.3122m-0.94895-1.8811 2.2281 0.56885m20.111 6.7449 1.278-1.3128m-56.386-12.685 1.2789-1.3131m17.973 4.5637-1.2789 1.3131m48.941 12.433 1.2791-1.3122m-50.22-11.121-2.228-0.56516m62.98 16 1.2792-1.3122m-41.069-10.435-1.2789 1.3131m7.8728 1.9993-2.2282-0.56602m10.101 2.5653-2.2291-0.56578m-2.6583-2.3125 2.2282 0.56602m-1.2791 1.3122-2.228-0.56516m-31.49-8.0002 1.2789-1.3131m4.8863 2.8776-2.228-0.56516m65.209 16.566-2.2317-0.56505m-83.088-22.746-1.2789 1.3131m38.41 8.1214 2.2317 0.56505m-7.8728-1.9993-1.2789 1.3131m41.069 10.431 1.2789-1.3131m-44.576-9.6866 1.2761-1.3132m-34.476-7.1182-2.228-0.56516m3.5071-0.74704-1.2791 1.3122m13.518 3.4334 1.2789-1.3131m-17.233-6.3473-4.5575 4.6782m75.619 16.981 1.2789-1.3131m-48.941-12.433-1.2789 1.3131m-0.95277-1.8781 2.2317 0.56505m22.338 7.314-2.228-0.56516m7.8725 1.9984 1.2755-1.3121m6.1663 1.5652-1.2791 1.3122m-44.25-12.877 2.2317 0.56505m51.17 12.999-1.2792 1.3122m1.7064 0.43411 1.2792-1.3122m-40.639-8.6872 1.2763-1.3123m-11.807-2.9994 2.2282 0.56602m60.752 15.432 2.2281 0.56885m-45.528-11.569 2.2309 0.56898m48.942 12.434 2.228 0.56516m-7.4453-0.25581 1.279-1.3094m-51.17-13.002 2.229 0.56861m13.516 3.4328 2.2282 0.56602m1.7064 0.43411 2.2317 0.56505m-39.363-9.9995-1.2789 1.3131m56.386 12.685-1.2789 1.3131m9.1518 0.68992-1.2791 1.3122m-26.276-8.3132-1.2791 1.3122m36.707 7.6872-1.2789 1.3131m-45.529-11.568 1.2791-1.3122m0.94895 1.8811-2.2281-0.56885m-27.552-6.9974 1.2755-1.3121m-2.9856 0.87809-2.228-0.56516m1.2789-1.3131 2.2282 0.56602m73.512 20.312-2.2318-0.56874m-13.514-3.4327-2.2311-0.56616m-48.942-12.433-2.228-0.56516m56.386 12.685 2.228 0.56516m-62.98-15.997-1.2791 1.3122m9.5829 2.4333 1.2755-1.3121m12.76 4.8804-2.229-0.56861m57.336 14.566-2.228-0.56516m-9.5792-2.4334-2.2318-0.56874m-43.725-12.746-1.2791 1.3122m1.7067 0.43497 1.2789-1.3131m-31.49-7.9974 2.2282 0.56602m55.538 15.745 1.2763-1.3123m-22.665-4.1198-2.2281-0.56885m24.894 4.6886 2.2317 0.56505m-65.025-6.1092c-4.1579 6.4376-12.437 8.8084-19.374 5.5461m32.726 2.2778c-7.6269 12.843-23.458 18.23-37.335 12.704m30.071-16.961c-5.628 9.4797-17.472 13.228-27.531 8.7177m15.575-15.723c-2.744 3.4854-7.5659 4.5497-11.523 2.5425m111.49 21.43-114.84-29.049m114.84 25.763-110.93-28.065m110.93 22.223-107.61-27.215m107.61 23.727-108.07-27.325m108.07 39.174-114.16-28.878m114.16 28.294-113.7-28.759m113.7 20.392-107.27-27.119m107.27 22.481-108.6-27.467m108.6 30.024-107.82-27.267m107.82 23.897-108.93-27.536"
     fill="none"
     stroke="#000"
     stroke-width=".2364"
     id="path725" /></svg>
