<?xml version="1.0" encoding="UTF-8" standalone="no"?>
<!-- Created with Inkscape (http://www.inkscape.org/) -->

<svg
   width="40.993279mm"
   height="20.509869mm"
   viewBox="0 0 40.993279 20.509868"
   version="1.1"
   id="svg627"
   inkscape:export-filename="bitmap.png"
   inkscape:export-xdpi="300.067"
   inkscape:export-ydpi="300.067"
   inkscape:version="1.2.2 (732a01da63, 2022-12-09)"
   sodipodi:docname="etiqueta_comando_cct_alterada.svg"
   xmlns:inkscape="http://www.inkscape.org/namespaces/inkscape"
   xmlns:sodipodi="http://sodipodi.sourceforge.net/DTD/sodipodi-0.dtd"
   xmlns="http://www.w3.org/2000/svg"
   xmlns:svg="http://www.w3.org/2000/svg">
  <sodipodi:namedview
     id="namedview629"
     pagecolor="#505050"
     bordercolor="#ffffff"
     borderopacity="1"
     inkscape:showpageshadow="0"
     inkscape:pageopacity="0"
     inkscape:pagecheckerboard="1"
     inkscape:deskcolor="#505050"
     inkscape:document-units="mm"
     showgrid="false"
     inkscape:zoom="4.7572176"
     inkscape:cx="65.479452"
     inkscape:cy="9.038897"
     inkscape:window-width="1920"
     inkscape:window-height="1009"
     inkscape:window-x="-8"
     inkscape:window-y="-8"
     inkscape:window-maximized="1"
     inkscape:current-layer="layer1" />
  <defs
     id="defs624">
    <rect
       x="80.509246"
       y="-48.347589"
       width="133.9018"
       height="28.798346"
       id="rect2187" />
    <rect
       x="2.5422941"
       y="-54.233382"
       width="105.15612"
       height="27.537105"
       id="rect1299" />
  </defs>
  <g
     inkscape:label="Layer 1"
     inkscape:groupmode="layer"
     id="layer1"
     transform="translate(-174.69623,-178.83845)">
    <path
       fill="none"
       stroke="#000000"
       d="m 8316.5475,5068.1034 h -1000 v -1000 h 2000 v 1000 z"
       id="path145"
       style="fill:#000000;stroke:#ffffff;stroke-width:1.29169;stroke-miterlimit:4;stroke-dasharray:none"
       inkscape:export-filename="C:\Users\RicardoG\Documents\Z_Documentos\2D\Projectos_activos\Comando_IR_CCT\IR_CCT_Ctrl_Final3_back.png"
       inkscape:export-xdpi="599.88629"
       inkscape:export-ydpi="599.88629"
       transform="matrix(0.02048341,0,0,0.02048341,24.841614,95.523048)"
       inkscape:label="bg"
       sodipodi:insensitive="true" />
    <g
       id="g15083"
       inkscape:label="desenho">
      <path
         fill="none"
         stroke="#ffffff"
         stroke-width="6"
         stroke-linejoin="miter"
         d="m 9103.6624,4210.2388 -238.8359,227.8382 c -3.3182,3.2342 -5.5303,7.5465 -5.5303,14.0149 v 26.9518 c 1.1061,8.6246 2.2121,15.093 9.9545,16.1711 l 268.7692,114.2757 c 19.9088,10.7807 36.4995,2.1561 49.7721,-16.1711 l 61.9386,-87.3239"
         id="path154"
         style="stroke-width:1.38606;stroke-miterlimit:4;stroke-dasharray:none"
         sodipodi:nodetypes="ccsccccc"
         transform="matrix(0.02048341,0,0,0.02048341,24.841614,95.523048)" />
      <path
         fill="none"
         stroke="#ffffff"
         stroke-width="6"
         stroke-linejoin="miter"
         d="m 8872.5688,4452.0919 28.0163,11.5266"
         id="path156"
         style="stroke-width:1.41049;stroke-miterlimit:4;stroke-dasharray:none"
         sodipodi:nodetypes="cc"
         transform="matrix(0.02048341,0,0,0.02048341,24.841614,95.523048)" />
      <path
         fill="none"
         stroke="#ffffff"
         stroke-width="6"
         stroke-linejoin="miter"
         d="m 9110.3687,4551.2746 37.6056,19.4053 c 12.1665,6.4684 22.1209,4.3123 29.8633,-8.6246 l 70.7869,-93.7923"
         id="path158"
         style="stroke-width:1.41049;stroke-miterlimit:4;stroke-dasharray:none"
         transform="matrix(0.02048341,0,0,0.02048341,24.841614,95.523048)" />
      <path
         fill="none"
         stroke="#ffffff"
         stroke-width="6"
         stroke-linejoin="miter"
         d="m 8926.3299,4450.1013 180.7207,75.2995 -11.0605,14.015 c -4.4241,4.3123 -6.6362,10.7807 -7.7423,18.3272 v 19.4053 l -184.0132,-79.952 0.3234,-20.9232 c 0.1166,-7.5457 4.4753,-14.2053 11.1115,-18.385 z"
         id="path160"
         style="stroke-width:1.41049;stroke-miterlimit:4;stroke-dasharray:none"
         sodipodi:nodetypes="ccccccscc"
         transform="matrix(0.02048341,0,0,0.02048341,24.841614,95.523048)" />
      <path
         fill="none"
         stroke="#ffffff"
         stroke-width="6"
         stroke-linejoin="miter"
         d="m 8953.3102,4552.3526 53.0902,-59.2939"
         id="path162"
         style="stroke-width:1.41049;stroke-miterlimit:4;stroke-dasharray:none"
         transform="matrix(0.02048341,0,0,0.02048341,24.841614,95.523048)" />
      <path
         fill="none"
         stroke="#ffffff"
         stroke-width="6"
         stroke-linejoin="miter"
         d="m 8983.1734,4473.6534 -2.2121,7.5465 55.3023,24.7956 5.5303,-8.6245"
         id="path164"
         style="stroke-width:1.41049;stroke-miterlimit:4;stroke-dasharray:none"
         transform="matrix(0.02048341,0,0,0.02048341,24.841614,95.523048)" />
      <path
         fill="none"
         stroke="#ffffff"
         stroke-width="6"
         stroke-linejoin="miter"
         d="m 8953.8702,4460.8111 c -10.2337,9.785 -16.0861,17.9627 -17.2378,21.8867 -1.1515,3.9239 -0.8083,28.3513 -0.8083,28.3513"
         id="path166"
         style="stroke-width:1.3722;stroke-miterlimit:4;stroke-dasharray:none"
         sodipodi:nodetypes="czc"
         transform="matrix(0.02048341,0,0,0.02048341,24.841614,95.523048)" />
      <path
         fill="none"
         stroke="#ffffff"
         stroke-width="6"
         stroke-linejoin="miter"
         d="m 8961.341,4463.9833 c -12.8724,9.5368 -16.2306,19.6229 -16.4294,24.0928 -0.1988,4.47 -0.6467,26.4605 -0.6467,26.4605"
         id="path168"
         style="stroke-width:1.3722;stroke-miterlimit:4;stroke-dasharray:none"
         sodipodi:nodetypes="czc"
         transform="matrix(0.02048341,0,0,0.02048341,24.841614,95.523048)" />
      <path
         fill="#ffffff"
         stroke="none"
         d="m 8907.9217,4619.7208 42.295,-47.2155 -24.5559,-11.8845 -47.3042,46.5981 -18.1246,-8.2481 -4.5176,46.4696 69.9332,-16.6273 z"
         id="path172"
         style="stroke-width:1.49752;stroke-miterlimit:4;stroke-dasharray:none"
         sodipodi:nodetypes="cccccccc"
         transform="matrix(0.02048341,0,0,0.02048341,24.841614,95.523048)" />
      <path
         fill="#ffffff"
         stroke="none"
         d="m 8778.6064,4450.5108 -3.8572,27.1864 66.0225,7.9697 -1.4527,15.9859 43.9868,-25.5932 -37.0462,-33.0529 -2.8514,16.3563 z"
         id="path174"
         style="stroke-width:1.41049;stroke-miterlimit:4;stroke-dasharray:none"
         sodipodi:nodetypes="cccccccc"
         transform="matrix(0.02048341,0,0,0.02048341,24.841614,95.523048)" />
      <path
         fill="none"
         stroke="#ffffff"
         stroke-width="6"
         stroke-linejoin="miter"
         d="m 8707.9858,4561.3063 -52.0556,46.281 c -6.0065,4.8822 -8.7085,10.0561 -11.9094,20.5983 l -1.8956,20.3998 c 0,9.4553 0,9.4553 8.3173,18.0541 l 261.3038,139.9785 c 13.7213,7.7064 26.9397,8.8734 39.755,2.4274 l 86.6862,-96.2653"
         id="path176"
         style="stroke-width:1.41049;stroke-miterlimit:4;stroke-dasharray:none"
         sodipodi:nodetypes="cccccccc"
         transform="matrix(0.02048341,0,0,0.02048341,24.841614,95.523048)" />
      <path
         fill="none"
         stroke="#ffffff"
         stroke-width="6"
         stroke-linejoin="miter"
         d="m 9040.1789,4679.3989 -82.9823,92.2623 c -9.4109,5.6641 -17.1217,4.9833 -27.738,-0.284 l -37.7595,-23.9009"
         id="path178"
         style="stroke-width:1.41049;stroke-miterlimit:4;stroke-dasharray:none"
         transform="matrix(0.02048341,0,0,0.02048341,24.841614,95.523048)" />
      <path
         fill="none"
         stroke="#ffffff"
         stroke-width="6"
         stroke-linejoin="miter"
         d="m 8659.8415,4625.2524 40.262,20.8744"
         id="path180"
         style="stroke-width:1.41049;stroke-miterlimit:4;stroke-dasharray:none"
         transform="matrix(0.02048341,0,0,0.02048341,24.841614,95.523048)" />
      <path
         fill="#ffffff"
         stroke="none"
         d="m 8802.8577,4687.6733 8.8244,36.5012 -22.3342,-10.6318 -38.841,35.5403 -22.9368,-16.0973 35.2372,-32.611 -13.6216,-8.78 z"
         id="path190"
         style="stroke-width:1.41049;stroke-miterlimit:4;stroke-dasharray:none"
         transform="matrix(0.02048341,0,0,0.02048341,24.841614,95.523048)" />
      <path
         fill="none"
         stroke="#ffffff"
         stroke-width="6"
         stroke-linejoin="miter"
         d="m 8868.6666,4744.3603 -2.3946,25.7683 -159.7468,-85.5478 1.6921,-30.1602 20.8214,-20.8939 161.8502,86.816 z"
         id="path192"
         style="stroke-width:1.41049;stroke-miterlimit:4;stroke-dasharray:none"
         transform="matrix(0.02048341,0,0,0.02048341,24.841614,95.523048)" />
      <path
         fill="none"
         stroke="#ffffff"
         stroke-width="6"
         stroke-linejoin="miter"
         d="m 8706.5252,4684.5808 41.4432,-39.6405"
         id="path194"
         style="stroke-width:1.41049;stroke-miterlimit:4;stroke-dasharray:none"
         transform="matrix(0.02048341,0,0,0.02048341,24.841614,95.523048)" />
      <ellipse
         style="fill:#ffffff;stroke:none;stroke-width:13.3275;stroke-linecap:round;stroke-miterlimit:10"
         id="path4483"
         cx="8730.918"
         cy="4432.2686"
         rx="32.922157"
         ry="32.089489"
         transform="matrix(0.02048341,0,0,0.02048341,24.841614,95.523048)" />
      <path
         d="m 8625.6169,4511.9458 h -5.5125 v -35.1269 q -1.9906,1.8987 -5.2369,3.7975 -3.2156,1.8987 -5.7881,2.8481 v -5.3288 q 4.6244,-2.1743 8.085,-5.2675 3.4606,-3.0931 4.9,-6.0025 h 3.5525 z"
         style="font-size:62.7201px;-inkscape-font-specification:Arial;stroke-width:21.6041"
         id="path14619"
         transform="matrix(0.02074746,0,0,0.02022272,24.841614,95.523048)" />
      <ellipse
         style="fill:#ffffff;stroke:none;stroke-width:13.3275;stroke-linecap:round;stroke-miterlimit:10"
         id="path4483-6"
         cx="8975.0479"
         cy="4641.4312"
         rx="32.922157"
         ry="32.089489"
         transform="matrix(0.02048341,0,0,0.02048341,24.841614,95.523048)" />
      <path
         d="m 8873.4248,4715.9102 v 4.5004 h -25.2074 q -0.052,-1.6909 0.5462,-3.2517 0.9626,-2.5754 3.0697,-5.0727 2.1331,-2.4973 6.1393,-5.7751 6.2173,-5.0987 8.4024,-8.0643 2.1852,-2.9916 2.1852,-5.645 0,-2.7835 -2.0031,-4.6825 -1.977,-1.925 -5.1767,-1.925 -3.3818,0 -5.4109,2.0291 -2.0291,2.0291 -2.0551,5.619 l -4.8126,-0.4943 q 0.4943,-5.3849 3.72,-8.1944 3.2257,-2.8355 8.6626,-2.8355 5.489,0 8.6887,3.0437 3.1997,3.0436 3.1997,7.544 0,2.2892 -0.9365,4.5004 -0.9365,2.2112 -3.1217,4.6565 -2.1592,2.4453 -7.2058,6.7115 -4.2143,3.5379 -5.4109,4.8126 -1.1967,1.2487 -1.9771,2.5233 z"
         style="font-size:53.2764px;-inkscape-font-specification:Arial;stroke-width:18.3512"
         id="path14624"
         transform="matrix(0.02074746,0,0,0.02022272,24.841614,95.523048)" />
      <ellipse
         style="fill:#ffffff;stroke:none;stroke-width:13.3275;stroke-linecap:round;stroke-miterlimit:10"
         id="path4483-6-6"
         cx="8522.4824"
         cy="4679.5854"
         rx="32.922157"
         ry="32.089489"
         transform="matrix(0.02048341,0,0,0.02048341,24.841614,95.523048)" />
      <path
         d="m 8402.036,4748.9903 4.6825,-0.6244 q 0.8064,3.9801 2.7315,5.7491 1.951,1.7429 4.7345,1.7429 3.3038,0 5.567,-2.2892 2.2892,-2.2892 2.2892,-5.671 0,-3.2258 -2.1071,-5.3069 -2.1072,-2.1071 -5.3589,-2.1071 -1.3267,0 -3.3038,0.5203 l 0.5203,-4.1102 q 0.4683,0.052 0.7544,0.052 2.9916,0 5.3849,-1.5608 2.3933,-1.5608 2.3933,-4.8126 0,-2.5753 -1.743,-4.2662 -1.7429,-1.6909 -4.5004,-1.6909 -2.7314,0 -4.5524,1.7169 -1.821,1.7169 -2.3412,5.1507 l -4.6825,-0.8324 q 0.8584,-4.7085 3.9021,-7.2839 3.0436,-2.6014 7.57,-2.6014 3.1217,0 5.7491,1.3527 2.6274,1.3267 4.0061,3.642 1.4047,2.3152 1.4047,4.9166 0,2.4713 -1.3267,4.5004 -1.3267,2.0291 -3.9281,3.2257 3.3818,0.7804 5.2548,3.2517 1.873,2.4453 1.873,6.1393 0,4.9947 -3.6419,8.4805 -3.6419,3.4599 -9.2089,3.4599 -5.0207,0 -8.3505,-2.9916 -3.3037,-2.9916 -3.772,-7.7521 z"
         style="font-size:53.2764px;-inkscape-font-specification:Arial;stroke-width:18.3512"
         id="path14629"
         transform="matrix(0.02074746,0,0,0.02022272,24.841614,95.523048)" />
      <rect
         style="fill:#ffffff;stroke:none;stroke-width:23.3605;stroke-linecap:round;stroke-miterlimit:10"
         id="rect6447-3"
         width="403.51099"
         height="95.011978"
         x="8804.2861"
         y="4890.3901"
         transform="matrix(0.02048341,0,0,0.02048341,24.841614,95.523048)" />
      <path
         style="fill:none;stroke:#ffffff;stroke-width:1.38606;stroke-linecap:butt;stroke-linejoin:miter;stroke-miterlimit:4;stroke-dasharray:none;stroke-opacity:1"
         d="m 8859.2961,4479.0437 c 0,0 -34.1599,-8.9643 -36.047,-39.243 -1.8873,-30.2786 9.9552,-58.5582 91.7373,-97.9189 81.7822,-39.3607 166.3099,-110.9816 166.3099,-110.9816"
         id="path1237"
         sodipodi:nodetypes="czzc"
         transform="matrix(0.02048341,0,0,0.02048341,24.841614,95.523048)" />
      <path
         style="fill:none;stroke:#ffffff;stroke-width:1.38606;stroke-linecap:butt;stroke-linejoin:miter;stroke-miterlimit:4;stroke-dasharray:none;stroke-opacity:1"
         d="m 8859.3355,4468.0409 c 0,0 -9.1098,-0.6663 -22.3095,-15.4421 -13.1997,-14.7757 -11.6398,-37.1876 -11.6398,-37.1876"
         id="path2396"
         sodipodi:nodetypes="czc"
         transform="matrix(0.02048341,0,0,0.02048341,24.841614,95.523048)" />
      <ellipse
         style="fill:#000000;stroke:#ffffff;stroke-width:1.38606;stroke-linecap:round;stroke-miterlimit:4;stroke-dasharray:none;paint-order:fill markers stroke"
         id="path12251"
         cx="8871.9463"
         cy="4405.7983"
         rx="13.903022"
         ry="10.242327"
         transform="matrix(0.02048341,0,0,0.02048341,24.841614,95.523048)" />
      <path
         style="fill:none;stroke:#ffffff;stroke-width:1.38606;stroke-linecap:butt;stroke-linejoin:miter;stroke-miterlimit:4;stroke-dasharray:none;stroke-opacity:1"
         d="m 8642.1252,4658.0407 c 0,0 -34.1598,-8.9644 -36.0471,-39.243 -1.773,-28.446 8.572,-55.1278 77.6443,-90.8911"
         id="path1237-4"
         sodipodi:nodetypes="csc"
         transform="matrix(0.02048341,0,0,0.02048341,24.841614,95.523048)" />
      <path
         style="fill:none;stroke:#ffffff;stroke-width:1.38606;stroke-linecap:butt;stroke-linejoin:miter;stroke-miterlimit:4;stroke-dasharray:none;stroke-opacity:1"
         d="m 8642.1646,4647.0379 c 0,0 -9.1099,-0.6664 -22.3096,-15.4421 -13.1996,-14.7757 -11.6398,-37.1877 -11.6398,-37.1877"
         id="path2396-4"
         sodipodi:nodetypes="czc"
         transform="matrix(0.02048341,0,0,0.02048341,24.841614,95.523048)" />
      <ellipse
         style="fill:#000000;stroke:#ffffff;stroke-width:1.38606;stroke-linecap:round;stroke-miterlimit:4;stroke-dasharray:none;paint-order:fill markers stroke"
         id="path12251-8"
         cx="8654.7744"
         cy="4584.7915"
         rx="13.903022"
         ry="10.242327"
         transform="matrix(0.02048341,0,0,0.02048341,24.841614,95.523048)" />
      <path
         style="stroke:#ffffff;stroke-width:1.29169;stroke-miterlimit:4;stroke-dasharray:none"
         d="m 8720.5528,4782.5503 c -3.2041,-0.053 -6.7403,0.5583 -10.4902,1.8098 v 11.989 c -14.0002,4 -25.9821,10.0016 -37.9823,17.0016 l -48.5759,47.8007 -44.3383,22.841 -13.6425,19.6887 -0.2116,33.4346 c 7.5731,4.1484 16.1753,8.8802 23.7712,13.0741 l 0.3334,-11.1797 11.8104,-0.291 v 18.1901 c 41.5023,23.0026 83.3623,46.6002 125.8322,70.4349 l 42.9947,-59.0145 47.0255,-62.0117 1.9632,-43.9766 0.1058,-0.3096 c 3.5179,2.6678 8.0174,3.5573 13.901,-1.7039 v -17.9835 c -3.0001,-11 -11.9809,-14.9889 -20.9807,-11.9891 l -11.0072,11.9891 -5.0125,-5.0128 c -11.0001,-19.9996 -29.9784,-29.9847 -60.9783,-34.9848 1.5002,-13.5001 -4.9085,-19.6561 -14.5211,-19.7921 z"
         id="path182"
         sodipodi:nodetypes="ccccccccccccccccccccccccc"
         transform="matrix(0.02256323,0.00199206,-0.00204375,0.02199254,15.316161,69.408587)" />
      <path
         style="stroke:#ffffff;stroke-width:1.29169;stroke-miterlimit:4;stroke-dasharray:none"
         d="m 8638.0743,4874.7949 c 1.0689,-0.3043 2.1299,-0.1587 3.0488,0.6191 3.6745,3.1655 -0.053,6.8731 -0.053,6.8731 l -39.2743,43.6147 -0.5688,31.006 -12.1439,-6.718 0.7223,-30.2824 41.7545,-39.6875 c 0,0 3.3051,-4.5132 6.5114,-5.426 z"
         id="path12951"
         transform="matrix(0.02256323,0.00199206,-0.00204375,0.02199254,15.316161,69.408587)" />
      <path
         fill="none"
         stroke="#ffffff"
         stroke-width="6"
         stroke-linejoin="miter"
         d="m 8582.3973,4915.6172 13.9464,-14.246 -8.6078,-4.1462 -12.4848,12.8538 0.1462,19.5384 7,4 z"
         id="path198"
         style="stroke-width:1.29169;stroke-miterlimit:4;stroke-dasharray:none"
         sodipodi:nodetypes="ccccccc"
         transform="matrix(0.02256323,0.00199206,-0.00204375,0.02199254,15.316161,69.408587)" />
      <path
         fill="none"
         stroke="#ffffff"
         stroke-width="6"
         stroke-linejoin="miter"
         d="m 8739.2755,5009.1654 -0.6201,-31.2067 -46.8324,-28.4859 -4.8658,5.6926 -60.028,-34.3073 5.3463,-5.553 -13.5596,-8.3796"
         id="path202"
         style="stroke-width:1.29169;stroke-miterlimit:4;stroke-dasharray:none"
         sodipodi:nodetypes="ccccccc"
         transform="matrix(0.02256323,0.00199206,-0.00204375,0.02199254,15.316161,69.408587)" />
      <path
         style="fill:none;stroke:#ffffff;stroke-width:6.2225;stroke-linecap:round;stroke-linejoin:miter;stroke-miterlimit:4;stroke-dasharray:none;stroke-opacity:1"
         d="m 8701.6857,4844.0803 53.3712,36.0934"
         id="path1305"
         transform="matrix(0.02136611,0.00188637,-0.00193532,0.0208257,25.326541,75.908542)" />
      <path
         style="fill:none;stroke:#ffffff;stroke-width:6.2225;stroke-linecap:round;stroke-linejoin:miter;stroke-miterlimit:4;stroke-dasharray:none;stroke-opacity:1"
         d="m 8705.8204,4885.1327 45.1018,-46.0114"
         id="path1305-2"
         transform="matrix(0.02136611,0.00188637,-0.00193532,0.0208257,25.326541,75.908542)" />
      <path
         style="fill:none;stroke:#ffffff;stroke-width:1.26932;stroke-linecap:butt;stroke-linejoin:miter;stroke-miterlimit:4;stroke-dasharray:none;stroke-opacity:1"
         d="m 8735.0631,4802.3385 -76.1604,86.6652 56.6375,29.7656 85.5229,-76.4308"
         id="path3578"
         sodipodi:nodetypes="cccc"
         transform="matrix(0.02256323,0.00199206,-0.00204375,0.02199254,15.316161,69.408587)" />
      <path
         style="fill:none;stroke:#ffffff;stroke-width:1.26932;stroke-linecap:butt;stroke-linejoin:miter;stroke-miterlimit:4;stroke-dasharray:none;stroke-opacity:1"
         d="m 8601.7958,4925.9018 123.6661,71.0025 93.0175,-112.8614"
         id="path5683"
         sodipodi:nodetypes="ccc"
         transform="matrix(0.02256323,0.00199206,-0.00204375,0.02199254,15.316161,69.408587)" />
      <path
         style="fill:none;stroke:#ffffff;stroke-width:1.26932;stroke-linecap:butt;stroke-linejoin:miter;stroke-miterlimit:4;stroke-dasharray:none;stroke-opacity:1"
         d="m 8725.4619,4996.9043 1.6014,30.4343"
         id="path5718"
         sodipodi:nodetypes="cc"
         transform="matrix(0.02256323,0.00199206,-0.00204375,0.02199254,15.316161,69.408587)" />
      <path
         style="fill:none;stroke:#ffffff;stroke-width:1.26932;stroke-linecap:butt;stroke-linejoin:miter;stroke-miterlimit:4;stroke-dasharray:none;stroke-opacity:1"
         d="m 8608.809,4901.6025 -29.6241,-17.6109"
         id="path7979"
         sodipodi:nodetypes="cc"
         transform="matrix(0.02256323,0.00199206,-0.00204375,0.02199254,15.316161,69.408587)" />
      <rect
         style="fill:#000000;stroke:#ffffff;stroke-width:1.26932;stroke-linecap:round;stroke-miterlimit:4;stroke-dasharray:none;paint-order:fill markers stroke"
         id="rect12355"
         width="34.477505"
         height="14.608747"
         x="2248.145"
         y="9669.1318"
         transform="matrix(0.01668157,-0.01494202,0.01532975,0.01625965,15.316161,69.408587)" />
      <rect
         style="fill:#000000;stroke:#ffffff;stroke-width:1.26932;stroke-linecap:round;stroke-miterlimit:4;stroke-dasharray:none;paint-order:fill markers stroke"
         id="rect12355-4"
         width="34.477505"
         height="14.608747"
         x="2267.8379"
         y="9782.6484"
         transform="matrix(0.01668157,-0.01494202,0.01532975,0.01625965,15.316161,69.408587)" />
      <path
         style="fill:none;stroke:#000000;stroke-width:1.7087;stroke-linecap:round;stroke-linejoin:miter;stroke-miterlimit:4;stroke-dasharray:none;stroke-opacity:1"
         d="m 8590.2201,4950.3965 8.2162,4.961"
         id="path14226"
         sodipodi:nodetypes="cc"
         transform="matrix(0.02256323,0.00199206,-0.00204375,0.02199254,15.316161,69.408587)" />
      <path
         style="fill:none;stroke:#ffffff;stroke-width:1.39676;stroke-linecap:round;stroke-linejoin:miter;stroke-miterlimit:4;stroke-dasharray:none;stroke-opacity:1"
         d="m 8589.0832,4950.1898 12.355,-12.4372"
         id="path10153"
         sodipodi:nodetypes="cc"
         transform="matrix(0.02256323,0.00199206,-0.00204375,0.02199254,15.316161,69.408587)" />
      <path
         style="fill:none;stroke:#000000;stroke-width:1.26932;stroke-linecap:butt;stroke-linejoin:miter;stroke-miterlimit:4;stroke-dasharray:none;stroke-opacity:1"
         d="m 8598.7519,4947.2947 v 17.1567"
         id="path14946"
         transform="matrix(0.02256323,0.00199206,-0.00204375,0.02199254,15.316161,69.408587)" />
      <path
         d="m 8893.0516,5010.8669 7.8873,1.9921 q -2.48,9.7169 -8.9443,14.8395 -6.4237,5.0821 -15.734,5.0821 -9.6355,0 -15.6933,-3.903 -6.0171,-3.9437 -9.1883,-11.3838 -3.1305,-7.4401 -3.1305,-15.9779 0,-9.3102 3.5371,-16.2218 3.5777,-6.9522 10.1234,-10.5299 6.5863,-3.6184 14.4736,-3.6184 8.9444,0 15.0428,4.5535 6.0984,4.5535 8.4971,12.8067 l -7.7653,1.8295 q -2.0735,-6.505 -6.0171,-9.4729 -3.9437,-2.9679 -9.9201,-2.9679 -6.8709,0 -11.5057,3.2931 -4.5942,3.2932 -6.4644,8.8631 -1.8702,5.5292 -1.8702,11.4244 0,7.6027 2.1955,13.2946 2.2361,5.6512 6.9115,8.4565 4.6755,2.8052 10.1234,2.8052 6.627,0 11.2211,-3.8216 4.5942,-3.8217 6.2204,-11.3431 z"
         style="font-size:83.2639px;-inkscape-font-specification:Arial;stroke-width:28.6804"
         id="path14594"
         transform="matrix(0.02265559,0,0,0.02208259,5.2158029,86.211721)" />
      <path
         d="m 8910.7777,5031.7642 v -59.602 h 26.4266 q 7.9686,0 12.1155,1.6262 4.1469,1.5856 6.627,5.6512 2.48,4.0656 2.48,8.985 0,6.3424 -4.1063,10.6926 -4.1062,4.3502 -12.6847,5.5293 3.1305,1.5043 4.7568,2.9679 3.4557,3.1712 6.5456,7.9279 l 10.3673,16.2219 h -9.9201 l -7.8873,-12.4002 q -3.4557,-5.3666 -5.6918,-8.2125 -2.2361,-2.846 -4.025,-3.9843 -1.7482,-1.1384 -3.5777,-1.5856 -1.3417,-0.2846 -4.3909,-0.2846 h -9.1477 v 26.4672 z m 7.8873,-33.2975 h 16.9537 q 5.4072,0 8.4565,-1.0977 3.0492,-1.1384 4.6348,-3.5777 1.5856,-2.4801 1.5856,-5.3667 0,-4.2282 -3.0899,-6.9522 -3.0492,-2.7239 -9.6762,-2.7239 h -18.8645 z"
         style="font-size:83.2639px;-inkscape-font-specification:Arial;stroke-width:28.6804"
         id="path14596"
         transform="matrix(0.02265559,0,0,0.02208259,5.2158029,86.211721)" />
      <path
         d="m 9029.4125,5024.7306 v 7.0336 h -39.3958 q -0.081,-2.6427 0.8538,-5.0821 1.5042,-4.0249 4.7974,-7.9279 3.3338,-3.903 9.5948,-9.0257 9.7169,-7.9686 13.132,-12.6034 3.4151,-4.6755 3.4151,-8.8224 0,-4.3502 -3.1305,-7.3181 -3.0899,-3.0086 -8.0906,-3.0086 -5.2853,0 -8.4565,3.1712 -3.1712,3.1712 -3.2118,8.7817 l -7.5214,-0.7724 q 0.7725,-8.4159 5.8138,-12.8067 5.0414,-4.4316 13.5385,-4.4316 8.5785,0 13.5792,4.7568 5.0007,4.7568 5.0007,11.7903 0,3.5778 -1.4636,7.0335 -1.4636,3.4558 -4.8787,7.2775 -3.3745,3.8217 -11.2618,10.4893 -6.5863,5.5292 -8.4565,7.5214 -1.8702,1.9515 -3.0899,3.9436 z"
         style="font-size:83.2639px;-inkscape-font-specification:Arial;stroke-width:28.6804"
         id="path14598"
         transform="matrix(0.02265559,0,0,0.02208259,5.2158029,86.211721)" />
      <path
         d="m 9037.2592,5002.3697 q 0,-10.5706 2.1548,-16.9943 2.1954,-6.4643 6.4643,-9.9607 4.3096,-3.4965 10.8145,-3.4965 4.7975,0 8.4159,1.9515 3.6184,1.9109 5.9764,5.5699 2.3581,3.6184 3.6998,8.8631 1.3416,5.204 1.3416,14.067 0,10.4893 -2.1548,16.9537 -2.1547,6.4236 -6.4643,9.9607 -4.2689,3.4965 -10.8146,3.4965 -8.6191,0 -13.5385,-6.1798 -5.8951,-7.4401 -5.8951,-24.2311 z m 7.5214,0 q 0,14.6769 3.4151,19.5557 3.4558,4.838 8.4971,4.838 5.0414,0 8.4565,-4.8787 3.4558,-4.8787 3.4558,-19.515 0,-14.7175 -3.4558,-19.5556 -3.4151,-4.8381 -8.5378,-4.8381 -5.0413,0 -8.0499,4.2689 -3.781,5.4479 -3.781,20.1248 z"
         style="font-size:83.2639px;-inkscape-font-specification:Arial;stroke-width:28.6804"
         id="path14600"
         transform="matrix(0.02265559,0,0,0.02208259,5.2158029,86.211721)" />
      <path
         d="m 9122.0274,5024.7306 v 7.0336 h -39.3959 q -0.081,-2.6427 0.8538,-5.0821 1.5043,-4.0249 4.7974,-7.9279 3.3338,-3.903 9.5949,-9.0257 9.7168,-7.9686 13.1319,-12.6034 3.4152,-4.6755 3.4152,-8.8224 0,-4.3502 -3.1306,-7.3181 -3.0898,-3.0086 -8.0906,-3.0086 -5.2853,0 -8.4564,3.1712 -3.1712,3.1712 -3.2119,8.7817 l -7.5214,-0.7724 q 0.7725,-8.4159 5.8139,-12.8067 5.0413,-4.4316 13.5385,-4.4316 8.5784,0 13.5791,4.7568 5.0008,4.7568 5.0008,11.7903 0,3.5778 -1.4637,7.0335 -1.4636,3.4558 -4.8787,7.2775 -3.3745,3.8217 -11.2618,10.4893 -6.5863,5.5292 -8.4565,7.5214 -1.8702,1.9515 -3.0898,3.9436 z"
         style="font-size:83.2639px;-inkscape-font-specification:Arial;stroke-width:28.6804"
         id="path14602"
         transform="matrix(0.02265559,0,0,0.02208259,5.2158029,86.211721)" />
      <path
         d="m 9129.874,5016.1522 7.684,-0.6505 q 0.8538,5.6105 3.9437,8.4565 3.1305,2.8052 7.5214,2.8052 5.2853,0 8.9444,-3.9843 3.659,-3.9843 3.659,-10.5706 0,-6.261 -3.5371,-9.8794 -3.4964,-3.6184 -9.1883,-3.6184 -3.5371,0 -6.383,1.6262 -2.8459,1.5856 -4.4722,4.1469 l -6.8709,-0.8944 5.7732,-30.6141 h 29.6384 v 6.9929 h -23.7839 l -3.2118,16.0185 q 5.3666,-3.7404 11.2617,-3.7404 7.806,0 13.1726,5.4073 5.3666,5.4073 5.3666,13.9044 0,8.0906 -4.7161,13.9858 -5.7325,7.2368 -15.6526,7.2368 -8.1312,0 -13.2946,-4.5535 -5.1227,-4.5535 -5.8545,-12.0749 z"
         style="font-size:83.2639px;-inkscape-font-specification:Arial;stroke-width:28.6804"
         id="path14604"
         transform="matrix(0.02265559,0,0,0.02208259,5.2158029,86.211721)" />
      <path
         fill="none"
         stroke="#ffffff"
         stroke-width="6"
         stroke-linejoin="miter"
         d="m 8827.9563,4965.2169 -88.5151,-105.5802"
         id="path188"
         style="stroke-width:1.45099;stroke-miterlimit:4;stroke-dasharray:none"
         sodipodi:nodetypes="cc"
         transform="matrix(0.02265559,0,0,0.02208259,5.2158029,86.211721)" />
      <path
         style="fill:none;stroke:#ffffff;stroke-width:1.38606;stroke-linecap:butt;stroke-linejoin:miter;stroke-miterlimit:4;stroke-dasharray:none;stroke-opacity:1"
         d="m 8914.6244,4493.8833 10.9931,4.2544 c 0,0 -0.5335,-13.6841 2.1018,-19.8541 2.6353,-6.17 12.4481,-15.2849 12.4481,-15.2849 l -10.1848,-4.7273 c 0,0 -10.7736,8.1034 -13.58,14.3395 -2.8062,6.236 -1.7782,21.2724 -1.7782,21.2724 z"
         id="path15892"
         sodipodi:nodetypes="cczcczc"
         transform="matrix(0.02048341,0,0,0.02048341,24.841614,95.523048)" />
    </g>
    <g
       id="g14953"
       inkscape:label="sol"
       transform="translate(-1.125e-6)">
      <path
         fill="#ffffff"
         stroke="none"
         d="m 7618.3861,4671 -31,-64 -33,33 z"
         id="path258"
         style="stroke-width:1.29169;stroke-miterlimit:4;stroke-dasharray:none"
         transform="matrix(0.02048341,0,0,0.02048341,25.033224,99.022823)" />
      <path
         fill="#ffffff"
         stroke="none"
         d="m 7502.3861,4392 -24,66 h 48 z"
         id="path270"
         style="stroke-width:1.29169;stroke-miterlimit:4;stroke-dasharray:none"
         transform="matrix(0.02048341,0,0,0.02048341,25.033224,99.022823)" />
      <path
         fill="#ffffff"
         stroke="none"
         d="m 7386.3861,4439 31,64 33,-33 z"
         id="path274"
         style="stroke-width:1.29169;stroke-miterlimit:4;stroke-dasharray:none"
         transform="matrix(0.02048341,0,0,0.02048341,25.033224,99.022823)" />
      <path
         fill="#ffffff"
         stroke="none"
         d="m 7339.3861,4555 66,24 v -48 z"
         id="path246"
         style="stroke-width:1.29169;stroke-miterlimit:4;stroke-dasharray:none"
         transform="matrix(0.02048341,0,0,0.02048341,25.033224,99.022823)" />
      <path
         fill="#ffffff"
         stroke="none"
         d="m 7386.3861,4671 64,-31 -33,-33 z"
         id="path250"
         style="stroke-width:1.29169;stroke-miterlimit:4;stroke-dasharray:none"
         transform="matrix(0.02048341,0,0,0.02048341,25.033224,99.022823)" />
      <path
         fill="#ffffff"
         stroke="none"
         d="m 7502.3861,4719 24,-67 h -48 z"
         id="path254"
         style="stroke-width:1.29169;stroke-miterlimit:4;stroke-dasharray:none"
         transform="matrix(0.02048341,0,0,0.02048341,25.033224,99.022823)" />
      <path
         fill="#ffffff"
         stroke="none"
         d="m 7666.3861,4555 -67,-24 v 48 z"
         id="path262"
         style="stroke-width:1.29169;stroke-miterlimit:4;stroke-dasharray:none"
         transform="matrix(0.02048341,0,0,0.02048341,25.033224,99.022823)" />
      <path
         fill="#ffffff"
         stroke="none"
         d="m 7618.3861,4439 -64,31 33,33 z"
         id="path266"
         style="stroke-width:1.29169;stroke-miterlimit:4;stroke-dasharray:none"
         transform="matrix(0.02048341,0,0,0.02048341,25.033224,99.022823)" />
      <path
         fill="#ffffff"
         stroke="none"
         d="m 7584.3861,4556 c 0,14 -4,28 -11,40 -7,13 -17,23 -30,30 -12,7 -26,11 -40,11 -15,0 -29,-4 -41,-11 -13,-7 -23,-17 -30,-30 -7,-12 -11,-26 -11,-40 0,-15 4,-29 11,-41 7,-13 17,-23 30,-30 12,-7 26,-11 41,-11 14,0 28,4 40,11 13,7 23,17 30,30 7,12 11,26 11,41 z"
         id="path278"
         style="stroke-width:1.29169;stroke-miterlimit:4;stroke-dasharray:none"
         transform="matrix(0.02048341,0,0,0.02048341,25.033224,99.022823)" />
    </g>
    <g
       id="g15029"
       inkscape:label="Intensidade">
      <path
         d="m 7790.9221,4545.895 v -78.6142 h 15.873 v 78.6142 z"
         style="font-size:109.824px;-inkscape-font-specification:'Arial Bold';fill:#ffffff;stroke-width:56.7435"
         id="path14447"
         transform="matrix(0.02048341,0,0,0.02048341,24.841614,95.523048)" />
      <path
         d="m 7873.6118,4545.895 h -15.0686 v -29.0647 q 0,-9.2235 -0.9653,-11.9048 -0.9652,-2.7349 -3.1639,-4.2364 -2.145,-1.5015 -5.2016,-1.5015 -3.9146,0 -7.0249,2.145 -3.1102,2.145 -4.29,5.6843 -1.1261,3.5392 -1.1261,13.0845 v 25.7936 h -15.0686 v -56.9497 h 13.9961 v 8.3655 q 7.4539,-9.6525 18.7688,-9.6525 4.9871,0 9.1162,1.8232 4.1291,1.7696 6.2205,4.5581 2.145,2.7885 2.9494,6.3278 0.858,3.5392 0.858,10.1351 z"
         style="font-size:109.824px;-inkscape-font-specification:'Arial Bold';fill:#ffffff;stroke-width:56.7435"
         id="path14449"
         transform="matrix(0.02048341,0,0,0.02048341,24.841614,95.523048)" />
      <path
         d="m 7915.0103,4488.9453 v 12.012 h -10.296 v 22.9515 q 0,6.9712 0.2681,8.151 0.3218,1.1261 1.3407,1.8768 1.0725,0.7508 2.574,0.7508 2.0913,0 6.0596,-1.4479 l 1.287,11.6903 q -5.2553,2.2522 -11.9048,2.2522 -4.0755,0 -7.3466,-1.3406 -3.2711,-1.3943 -4.8262,-3.5393 -1.5015,-2.1986 -2.0914,-5.8987 -0.4826,-2.6276 -0.4826,-10.6178 v -24.8283 h -6.9177 v -12.012 h 6.9177 v -11.3149 l 15.1222,-8.7945 v 20.1094 z"
         style="font-size:109.824px;-inkscape-font-specification:'Arial Bold';fill:#ffffff;stroke-width:56.7435"
         id="path14451"
         transform="matrix(0.02048341,0,0,0.02048341,24.841614,95.523048)" />
      <path
         d="m 7958.4466,4527.7698 15.015,2.5203 q -2.8958,8.2583 -9.1699,12.6019 -6.2205,4.29 -15.6049,4.29 -14.8541,0 -21.9862,-9.7061 -5.6307,-7.7756 -5.6307,-19.6268 0,-14.157 7.4003,-22.1471 7.4002,-8.0437 18.7151,-8.0437 12.7091,0 20.0558,8.4191 7.3466,8.3655 7.0248,25.6864 h -37.752 q 0.1609,6.7031 3.6465,10.4568 3.4857,3.7002 8.6873,3.7002 3.5392,0 5.9524,-1.9305 2.4131,-1.9305 3.6465,-6.2205 z m 0.858,-15.2295 q -0.1609,-6.5423 -3.3784,-9.9207 -3.2175,-3.432 -7.8293,-3.432 -4.9335,0 -8.151,3.5929 -3.2175,3.5929 -3.1638,9.7598 z"
         style="font-size:109.824px;-inkscape-font-specification:'Arial Bold';fill:#ffffff;stroke-width:56.7435"
         id="path14453"
         transform="matrix(0.02048341,0,0,0.02048341,24.841614,95.523048)" />
      <path
         d="m 8038.3478,4545.895 h -15.0686 v -29.0647 q 0,-9.2235 -0.9653,-11.9048 -0.9652,-2.7349 -3.1638,-4.2364 -2.145,-1.5015 -5.2017,-1.5015 -3.9146,0 -7.0248,2.145 -3.1103,2.145 -4.29,5.6843 -1.1262,3.5392 -1.1262,13.0845 v 25.7936 h -15.0686 v -56.9497 h 13.9961 v 8.3655 q 7.4539,-9.6525 18.7688,-9.6525 4.9871,0 9.1162,1.8232 4.1292,1.7696 6.2205,4.5581 2.145,2.7885 2.9494,6.3278 0.858,3.5392 0.858,10.1351 z"
         style="font-size:109.824px;-inkscape-font-specification:'Arial Bold';fill:#ffffff;stroke-width:56.7435"
         id="path14455"
         transform="matrix(0.02048341,0,0,0.02048341,24.841614,95.523048)" />
      <path
         d="m 8048.322,4529.6466 15.1223,-2.3058 q 0.9652,4.3972 3.9146,6.7031 2.9494,2.2522 8.2583,2.2522 5.8451,0 8.7945,-2.145 1.9841,-1.5015 1.9841,-4.0218 0,-1.716 -1.0725,-2.8422 -1.1261,-1.0725 -5.0408,-1.9841 -18.2325,-4.0219 -23.1123,-7.3466 -6.7568,-4.6118 -6.7568,-12.8164 0,-7.4002 5.8451,-12.441 5.8452,-5.0407 18.1253,-5.0407 11.6902,0 17.3745,3.8073 5.6842,3.8074 7.8292,11.2613 l -14.2106,2.6276 q -0.9116,-3.3247 -3.4856,-5.0944 -2.5204,-1.7696 -7.2394,-1.7696 -5.9524,0 -8.5264,1.6624 -1.716,1.1797 -1.716,3.0566 0,1.6088 1.5015,2.7349 2.0378,1.5015 14.0498,4.2364 12.0656,2.7348 16.8382,6.7031 4.719,4.0219 4.719,11.2076 0,7.8293 -6.5422,13.4599 -6.5423,5.6306 -19.3586,5.6306 -11.6367,0 -18.447,-4.719 -6.7568,-4.719 -8.8482,-12.8164 z"
         style="font-size:109.824px;-inkscape-font-specification:'Arial Bold';fill:#ffffff;stroke-width:56.7435"
         id="path14457"
         transform="matrix(0.02048341,0,0,0.02048341,24.841614,95.523048)" />
      <path
         d="m 8114.7098,4481.2233 v -13.9425 h 15.0686 v 13.9425 z m 0,64.6717 v -56.9497 h 15.0686 v 56.9497 z"
         style="font-size:109.824px;-inkscape-font-specification:'Arial Bold';fill:#ffffff;stroke-width:56.7435"
         id="path14459"
         transform="matrix(0.02048341,0,0,0.02048341,24.841614,95.523048)" />
      <path
         d="m 8197.4532,4545.895 h -13.9962 v -8.3655 q -3.4856,4.8799 -8.2582,7.293 -4.719,2.3595 -9.5453,2.3595 -9.8133,0 -16.8382,-7.8829 -6.9713,-7.9365 -6.9713,-22.0935 0,-14.4787 6.8104,-21.9862 6.8104,-7.5611 17.2136,-7.5611 9.5453,0 16.5165,7.9365 v -28.314 h 15.0687 z m -40.2188,-29.7082 q 0,9.1162 2.5204,13.1917 3.6465,5.8988 10.1887,5.8988 5.2017,0 8.8482,-4.3973 3.6465,-4.4509 3.6465,-13.2454 0,-9.8133 -3.5393,-14.1033 -3.5392,-4.3437 -9.0626,-4.3437 -5.3625,0 -9.009,4.29 -3.5929,4.2364 -3.5929,12.7092 z"
         style="font-size:109.824px;-inkscape-font-specification:'Arial Bold';fill:#ffffff;stroke-width:56.7435"
         id="path14461"
         transform="matrix(0.02048341,0,0,0.02048341,24.841614,95.523048)" />
      <path
         d="m 8223.5686,4506.3198 -13.6744,-2.4668 q 2.3059,-8.2582 7.9365,-12.2265 5.6306,-3.9682 16.731,-3.9682 10.0815,0 15.015,2.4131 4.9335,2.3595 6.9176,6.0596 2.0378,3.6465 2.0378,13.4599 l -0.1609,17.589 q 0,7.5075 0.6971,11.1004 0.7508,3.5392 2.7349,7.6147 h -14.9078 q -0.5898,-1.5015 -1.4478,-4.4509 -0.3754,-1.3406 -0.5363,-1.7696 -3.861,3.7538 -8.2582,5.6306 -4.3973,1.8769 -9.3844,1.8769 -8.7945,0 -13.8889,-4.7726 -5.0407,-4.7726 -5.0407,-12.0656 0,-4.8263 2.3058,-8.58 2.3059,-3.8074 6.435,-5.7915 4.1828,-2.0378 12.012,-3.5393 10.5642,-1.9841 14.6397,-3.7001 v -1.5015 q 0,-4.3436 -2.145,-6.1669 -2.145,-1.8769 -8.0974,-1.8769 -4.0219,0 -6.2741,1.6088 -2.2523,1.5551 -3.6465,5.5234 z m 20.163,12.2265 q -2.8958,0.9652 -9.1699,2.3058 -6.2741,1.3407 -8.2046,2.6277 -2.9494,2.0913 -2.9494,5.3088 0,3.1639 2.3595,5.4698 2.3595,2.3059 6.006,2.3059 4.0755,0 7.7756,-2.6813 2.7349,-2.0377 3.5929,-4.9871 0.5899,-1.9305 0.5899,-7.3466 z"
         style="font-size:109.824px;-inkscape-font-specification:'Arial Bold';fill:#ffffff;stroke-width:56.7435"
         id="path14463"
         transform="matrix(0.02048341,0,0,0.02048341,24.841614,95.523048)" />
      <path
         d="m 8325.6169,4545.895 h -13.9961 v -8.3655 q -3.4856,4.8799 -8.2583,7.293 -4.719,2.3595 -9.5452,2.3595 -9.8134,0 -16.8383,-7.8829 -6.9712,-7.9365 -6.9712,-22.0935 0,-14.4787 6.8104,-21.9862 6.8103,-7.5611 17.2136,-7.5611 9.5452,0 16.5165,7.9365 v -28.314 h 15.0686 z m -40.2187,-29.7082 q 0,9.1162 2.5203,13.1917 3.6465,5.8988 10.1888,5.8988 5.2016,0 8.8481,-4.3973 3.6465,-4.4509 3.6465,-13.2454 0,-9.8133 -3.5392,-14.1033 -3.5393,-4.3437 -9.0627,-4.3437 -5.3625,0 -9.009,4.29 -3.5928,4.2364 -3.5928,12.7092 z"
         style="font-size:109.824px;-inkscape-font-specification:'Arial Bold';fill:#ffffff;stroke-width:56.7435"
         id="path14465"
         transform="matrix(0.02048341,0,0,0.02048341,24.841614,95.523048)" />
      <path
         d="m 8373.4504,4527.7698 15.015,2.5203 q -2.8957,8.2583 -9.1698,12.6019 -6.2205,4.29 -15.6049,4.29 -14.8541,0 -21.9863,-9.7061 -5.6306,-7.7756 -5.6306,-19.6268 0,-14.157 7.4003,-22.1471 7.4002,-8.0437 18.7151,-8.0437 12.7091,0 20.0557,8.4191 7.3467,8.3655 7.0249,25.6864 h -37.752 q 0.1609,6.7031 3.6465,10.4568 3.4856,3.7002 8.6873,3.7002 3.5392,0 5.9523,-1.9305 2.4132,-1.9305 3.6465,-6.2205 z m 0.858,-15.2295 q -0.1608,-6.5423 -3.3783,-9.9207 -3.2175,-3.432 -7.8293,-3.432 -4.9335,0 -8.151,3.5929 -3.2175,3.5929 -3.1639,9.7598 z"
         style="font-size:109.824px;-inkscape-font-specification:'Arial Bold';fill:#ffffff;stroke-width:56.7435"
         id="path14467"
         transform="matrix(0.02048341,0,0,0.02048341,24.841614,95.523048)" />
      <path
         d="m 7791.2974,4684.1767 v -78.6143 h 15.0687 v 78.6143 z"
         style="font-size:109.824px;-inkscape-font-specification:'Arial Bold';fill:#ffffff;stroke-width:56.7435"
         id="path14469"
         transform="matrix(0.02048341,0,0,0.02048341,24.841614,95.523048)" />
      <path
         d="m 7859.2939,4684.1767 v -8.5264 q -3.1102,4.5581 -8.2046,7.1858 -5.0408,2.6276 -10.6714,2.6276 -5.7378,0 -10.296,-2.5204 -4.5581,-2.5204 -6.5958,-7.0785 -2.0378,-4.5581 -2.0378,-12.6019 v -36.036 h 15.0686 v 26.169 q 0,12.012 0.8044,14.7469 0.858,2.6813 3.0566,4.29 2.1986,1.5551 5.577,1.5551 3.861,0 6.9176,-2.0913 3.0567,-2.145 4.1828,-5.2553 1.1261,-3.1639 1.1261,-15.3904 v -24.024 h 15.0686 v 56.9498 z"
         style="font-size:109.824px;-inkscape-font-specification:'Arial Bold';fill:#ffffff;stroke-width:56.7435"
         id="path14471"
         transform="matrix(0.02048341,0,0,0.02048341,24.841614,95.523048)" />
      <path
         d="m 7887.7688,4627.2269 h 13.8889 v 7.7757 q 7.4539,-9.0627 17.7499,-9.0627 5.4697,0 9.4916,2.2523 4.0219,2.2522 6.5959,6.8104 3.7537,-4.5582 8.0973,-6.8104 4.3437,-2.2523 9.2772,-2.2523 6.2741,0 10.6177,2.574 4.3436,2.5204 6.4886,7.4539 1.5552,3.6465 1.5552,11.7975 v 36.4114 h -15.0687 v -32.5504 q 0,-8.4727 -1.5551,-10.9395 -2.0914,-3.2175 -6.435,-3.2175 -3.1639,0 -5.9524,1.9305 -2.7885,1.9305 -4.0218,5.6843 -1.2334,3.7001 -1.2334,11.7438 v 27.3488 h -15.0686 v -31.2098 q 0,-8.3118 -0.8044,-10.725 -0.8044,-2.4131 -2.5204,-3.5928 -1.6624,-1.1798 -4.5581,-1.1798 -3.4856,0 -6.2741,1.8769 -2.7885,1.8769 -4.0219,5.4161 -1.1798,3.5393 -1.1798,11.7439 v 27.6705 h -15.0686 z"
         style="font-size:109.824px;-inkscape-font-specification:'Arial Bold';fill:#ffffff;stroke-width:56.7435"
         id="path14473"
         transform="matrix(0.02048341,0,0,0.02048341,24.841614,95.523048)" />
      <path
         d="m 7986.5461,4619.5049 v -13.9425 h 15.0686 v 13.9425 z m 0,64.6718 v -56.9498 h 15.0686 v 56.9498 z"
         style="font-size:109.824px;-inkscape-font-specification:'Arial Bold';fill:#ffffff;stroke-width:56.7435"
         id="path14475"
         transform="matrix(0.02048341,0,0,0.02048341,24.841614,95.523048)" />
      <path
         d="m 8068.8604,4684.1767 h -15.0686 v -29.0648 q 0,-9.2235 -0.9653,-11.9047 -0.9652,-2.7349 -3.1638,-4.2364 -2.145,-1.5015 -5.2017,-1.5015 -3.9146,0 -7.0248,2.145 -3.1103,2.145 -4.29,5.6843 -1.1262,3.5392 -1.1262,13.0845 v 25.7936 h -15.0686 v -56.9498 h 13.9961 v 8.3655 q 7.4539,-9.6525 18.7688,-9.6525 4.9871,0 9.1162,1.8233 4.1292,1.7696 6.2205,4.5581 2.145,2.7885 2.9494,6.3278 0.858,3.5392 0.858,10.1351 z"
         style="font-size:109.824px;-inkscape-font-specification:'Arial Bold';fill:#ffffff;stroke-width:56.7435"
         id="path14477"
         transform="matrix(0.02048341,0,0,0.02048341,24.841614,95.523048)" />
      <path
         d="m 8080.6579,4654.8974 q 0,-7.5075 3.7002,-14.5323 3.7001,-7.0249 10.4568,-10.725 6.8104,-3.7002 15.1759,-3.7002 12.9236,0 21.1819,8.4192 8.2582,8.3655 8.2582,21.1818 0,12.9237 -8.3655,21.45 -8.3118,8.4728 -20.9673,8.4728 -7.8293,0 -14.9614,-3.5393 -7.0785,-3.5392 -10.7786,-10.3496 -3.7002,-6.864 -3.7002,-16.6774 z m 15.444,0.8044 q 0,8.4728 4.0219,12.9773 4.0219,4.5045 9.9206,4.5045 5.8988,0 9.867,-4.5045 4.0219,-4.5045 4.0219,-13.0845 0,-8.3655 -4.0219,-12.87 -3.9682,-4.5045 -9.867,-4.5045 -5.8987,0 -9.9206,4.5045 -4.0219,4.5045 -4.0219,12.9772 z"
         style="font-size:109.824px;-inkscape-font-specification:'Arial Bold';fill:#ffffff;stroke-width:56.7435"
         id="path14479"
         transform="matrix(0.02048341,0,0,0.02048341,24.841614,95.523048)" />
      <path
         d="m 8145.9196,4667.9283 15.1222,-2.3059 q 0.9653,4.3973 3.9146,6.7032 2.9494,2.2522 8.2583,2.2522 5.8451,0 8.7945,-2.145 1.9841,-1.5015 1.9841,-4.0219 0,-1.716 -1.0725,-2.8421 -1.1261,-1.0725 -5.0408,-1.9841 -18.2324,-4.0219 -23.1123,-7.3466 -6.7568,-4.6118 -6.7568,-12.8164 0,-7.4003 5.8452,-12.441 5.8451,-5.0408 18.1252,-5.0408 11.6902,0 17.3745,3.8074 5.6842,3.8074 7.8292,11.2613 l -14.2106,2.6276 q -0.9116,-3.3248 -3.4856,-5.0944 -2.5204,-1.7696 -7.2394,-1.7696 -5.9523,0 -8.5263,1.6624 -1.716,1.1797 -1.716,3.0566 0,1.6087 1.5015,2.7349 2.0377,1.5015 14.0497,4.2363 12.0656,2.7349 16.8382,6.7032 4.719,4.0218 4.719,11.2076 0,7.8292 -6.5422,13.4599 -6.5423,5.6306 -19.3586,5.6306 -11.6366,0 -18.447,-4.719 -6.7568,-4.719 -8.8481,-12.8164 z"
         style="font-size:109.824px;-inkscape-font-specification:'Arial Bold';fill:#ffffff;stroke-width:56.7435"
         id="path14481"
         transform="matrix(0.02048341,0,0,0.02048341,24.841614,95.523048)" />
      <path
         d="m 8223.5686,4644.6014 -13.6744,-2.4667 q 2.3059,-8.2583 7.9365,-12.2265 5.6306,-3.9683 16.731,-3.9683 10.0815,0 15.015,2.4132 4.9335,2.3595 6.9176,6.0596 2.0378,3.6465 2.0378,13.4599 l -0.1609,17.589 q 0,7.5075 0.6971,11.1003 0.7508,3.5393 2.7349,7.6148 h -14.9078 q -0.5898,-1.5015 -1.4478,-4.4509 -0.3754,-1.3406 -0.5363,-1.7696 -3.861,3.7537 -8.2582,5.6306 -4.3973,1.8769 -9.3844,1.8769 -8.7945,0 -13.8889,-4.7726 -5.0407,-4.7727 -5.0407,-12.0657 0,-4.8262 2.3058,-8.58 2.3059,-3.8073 6.435,-5.7915 4.1828,-2.0377 12.012,-3.5392 10.5642,-1.9841 14.6397,-3.7001 v -1.5015 q 0,-4.3437 -2.145,-6.1669 -2.145,-1.8769 -8.0974,-1.8769 -4.0219,0 -6.2741,1.6088 -2.2523,1.5551 -3.6465,5.5233 z m 20.163,12.2265 q -2.8958,0.9653 -9.1699,2.3059 -6.2741,1.3406 -8.2046,2.6276 -2.9494,2.0914 -2.9494,5.3089 0,3.1639 2.3595,5.4698 2.3595,2.3058 6.006,2.3058 4.0755,0 7.7756,-2.6812 2.7349,-2.0378 3.5929,-4.9871 0.5899,-1.9305 0.5899,-7.3467 z"
         style="font-size:109.824px;-inkscape-font-specification:'Arial Bold';fill:#ffffff;stroke-width:56.7435"
         id="path14483"
         transform="matrix(0.02048341,0,0,0.02048341,24.841614,95.523048)" />
      <path
         d="m 7791.8337,4822.4584 v -77.9708 h 15.873 v 64.7254 h 39.468 v 13.2454 z"
         style="font-size:109.824px;-inkscape-font-specification:'Arial Bold';fill:#ffffff;stroke-width:56.7435"
         id="path14485"
         transform="matrix(0.02048341,0,0,0.02048341,24.841614,95.523048)" />
      <path
         d="m 7858.3823,4757.7866 v -13.9425 h 15.0686 v 13.9425 z m 0,64.6718 v -56.9498 h 15.0686 v 56.9498 z"
         style="font-size:109.824px;-inkscape-font-specification:'Arial Bold';fill:#ffffff;stroke-width:56.7435"
         id="path14487"
         transform="matrix(0.02048341,0,0,0.02048341,24.841614,95.523048)" />
      <path
         d="m 7887.5007,4826.2121 17.2136,2.0914 q 0.429,3.003 1.9841,4.1291 2.145,1.6088 6.7568,1.6088 5.8987,0 8.8481,-1.7697 1.9841,-1.1797 3.003,-3.8073 0.6971,-1.8769 0.6971,-6.9177 v -8.3118 q -6.7567,9.2235 -17.0527,9.2235 -11.4758,0 -18.1789,-9.7062 -5.2552,-7.6683 -5.2552,-19.0905 0,-14.3178 6.864,-21.879 6.9176,-7.5611 17.16,-7.5611 10.5641,0 17.4281,9.2771 v -7.9901 h 14.1034 v 51.1046 q 0,10.0815 -1.6624,15.0687 -1.6624,4.9871 -4.6654,7.8292 -3.003,2.8421 -8.0437,4.4509 -4.9872,1.6087 -12.6555,1.6087 -14.4788,0 -20.5384,-4.9871 -6.0596,-4.9335 -6.0596,-12.5482 0,-0.7508 0.054,-1.8233 z m 13.4599,-33.4084 q 0,9.0627 3.4856,13.299 3.5392,4.1828 8.6872,4.1828 5.5234,0 9.3308,-4.29 3.8074,-4.3436 3.8074,-12.8164 0,-8.8481 -3.6465,-13.1381 -3.6465,-4.29 -9.2235,-4.29 -5.4162,0 -8.9554,4.2364 -3.4856,4.1827 -3.4856,12.8163 z"
         style="font-size:109.824px;-inkscape-font-specification:'Arial Bold';fill:#ffffff;stroke-width:56.7435"
         id="path14489"
         transform="matrix(0.02048341,0,0,0.02048341,24.841614,95.523048)" />
      <path
         d="m 7970.9948,4743.8441 v 28.9039 q 7.293,-8.5264 17.4281,-8.5264 5.2016,0 9.3844,1.9305 4.1827,1.9305 6.2741,4.9335 2.145,3.003 2.8958,6.6495 0.8043,3.6465 0.8043,11.3149 v 33.4084 h -15.0686 v -30.0837 q 0,-8.9553 -0.858,-11.3685 -0.858,-2.4131 -3.0566,-3.8073 -2.145,-1.4479 -5.4161,-1.4479 -3.7538,0 -6.7032,1.8232 -2.9493,1.8233 -4.3436,5.5234 -1.3406,3.6465 -1.3406,10.8323 v 28.5285 h -15.0686 v -78.6143 z"
         style="font-size:109.824px;-inkscape-font-specification:'Arial Bold';fill:#ffffff;stroke-width:56.7435"
         id="path14491"
         transform="matrix(0.02048341,0,0,0.02048341,24.841614,95.523048)" />
      <path
         d="m 8049.1801,4765.5086 v 12.012 h -10.296 v 22.9515 q 0,6.9713 0.2681,8.151 0.3217,1.1261 1.3406,1.8769 1.0725,0.7507 2.574,0.7507 2.0914,0 6.0596,-1.4478 l 1.287,11.6902 q -5.2552,2.2523 -11.9047,2.2523 -4.0755,0 -7.3466,-1.3407 -3.2712,-1.3942 -4.8263,-3.5392 -1.5015,-2.1986 -2.0914,-5.8988 -0.4826,-2.6276 -0.4826,-10.6177 v -24.8284 h -6.9176 v -12.012 h 6.9176 v -11.3149 l 15.1223,-8.7945 v 20.1094 z"
         style="font-size:109.824px;-inkscape-font-specification:'Arial Bold';fill:#ffffff;stroke-width:56.7435"
         id="path14493"
         transform="matrix(0.02048341,0,0,0.02048341,24.841614,95.523048)" />
      <path
         d="m 8059.6369,4757.7866 v -13.9425 h 15.0687 v 13.9425 z m 0,64.6718 v -56.9498 h 15.0687 v 56.9498 z"
         style="font-size:109.824px;-inkscape-font-specification:'Arial Bold';fill:#ffffff;stroke-width:56.7435"
         id="path14495"
         transform="matrix(0.02048341,0,0,0.02048341,24.841614,95.523048)" />
      <path
         d="m 8141.9513,4822.4584 h -15.0686 v -29.0648 q 0,-9.2235 -0.9653,-11.9047 -0.9652,-2.7349 -3.1638,-4.2364 -2.145,-1.5015 -5.2017,-1.5015 -3.9146,0 -7.0248,2.145 -3.1103,2.145 -4.29,5.6842 -1.1262,3.5393 -1.1262,13.0845 v 25.7937 h -15.0686 v -56.9498 h 13.9961 v 8.3655 q 7.4539,-9.6525 18.7688,-9.6525 4.9871,0 9.1162,1.8233 4.1292,1.7696 6.2205,4.5581 2.145,2.7885 2.9494,6.3277 0.858,3.5393 0.858,10.1352 z"
         style="font-size:109.824px;-inkscape-font-specification:'Arial Bold';fill:#ffffff;stroke-width:56.7435"
         id="path14497"
         transform="matrix(0.02048341,0,0,0.02048341,24.841614,95.523048)" />
      <path
         d="m 8155.8402,4826.2121 17.2136,2.0914 q 0.429,3.003 1.9841,4.1291 2.145,1.6088 6.7568,1.6088 5.8987,0 8.8481,-1.7697 1.9841,-1.1797 3.003,-3.8073 0.6971,-1.8769 0.6971,-6.9177 v -8.3118 q -6.7567,9.2235 -17.0527,9.2235 -11.4758,0 -18.1789,-9.7062 -5.2552,-7.6683 -5.2552,-19.0905 0,-14.3178 6.864,-21.879 6.9176,-7.5611 17.16,-7.5611 10.5641,0 17.4281,9.2771 v -7.9901 h 14.1034 v 51.1046 q 0,10.0815 -1.6624,15.0687 -1.6624,4.9871 -4.6654,7.8292 -3.003,2.8421 -8.0437,4.4509 -4.9872,1.6087 -12.6555,1.6087 -14.4788,0 -20.5384,-4.9871 -6.0596,-4.9335 -6.0596,-12.5482 0,-0.7508 0.054,-1.8233 z m 13.4599,-33.4084 q 0,9.0627 3.4856,13.299 3.5392,4.1828 8.6872,4.1828 5.5234,0 9.3308,-4.29 3.8074,-4.3436 3.8074,-12.8164 0,-8.8481 -3.6465,-13.1381 -3.6465,-4.29 -9.2235,-4.29 -5.4162,0 -8.9554,4.2364 -3.4856,4.1827 -3.4856,12.8163 z"
         style="font-size:109.824px;-inkscape-font-specification:'Arial Bold';fill:#ffffff;stroke-width:56.7435"
         id="path14499"
         transform="matrix(0.02048341,0,0,0.02048341,24.841614,95.523048)" />
      <path
         d="m 7791.2974,4896.0683 v -13.9425 h 15.0687 v 13.9425 z m 0,64.6717 v -56.9497 h 15.0687 v 56.9497 z"
         style="font-size:109.824px;-inkscape-font-specification:'Arial Bold';fill:#ffffff;stroke-width:56.7435"
         id="path14501"
         transform="matrix(0.02048341,0,0,0.02048341,24.841614,95.523048)" />
      <path
         d="m 7873.6118,4960.74 h -15.0686 v -29.0647 q 0,-9.2235 -0.9653,-11.9048 -0.9652,-2.7348 -3.1639,-4.2363 -2.145,-1.5015 -5.2016,-1.5015 -3.9146,0 -7.0249,2.145 -3.1102,2.145 -4.29,5.6842 -1.1261,3.5393 -1.1261,13.0845 v 25.7936 h -15.0686 v -56.9497 h 13.9961 v 8.3655 q 7.4539,-9.6525 18.7688,-9.6525 4.9871,0 9.1162,1.8232 4.1291,1.7697 6.2205,4.5582 2.145,2.7885 2.9494,6.3277 0.858,3.5393 0.858,10.1351 z"
         style="font-size:109.824px;-inkscape-font-specification:'Arial Bold';fill:#ffffff;stroke-width:56.7435"
         id="path14503"
         transform="matrix(0.02048341,0,0,0.02048341,24.841614,95.523048)" />
      <path
         d="m 7915.0103,4903.7903 v 12.012 h -10.296 v 22.9515 q 0,6.9712 0.2681,8.151 0.3218,1.1261 1.3407,1.8769 1.0725,0.7507 2.574,0.7507 2.0913,0 6.0596,-1.4479 l 1.287,11.6903 q -5.2553,2.2522 -11.9048,2.2522 -4.0755,0 -7.3466,-1.3406 -3.2711,-1.3942 -4.8262,-3.5392 -1.5015,-2.1987 -2.0914,-5.8988 -0.4826,-2.6276 -0.4826,-10.6177 v -24.8284 h -6.9177 v -12.012 h 6.9177 v -11.3149 l 15.1222,-8.7945 v 20.1094 z"
         style="font-size:109.824px;-inkscape-font-specification:'Arial Bold';fill:#ffffff;stroke-width:56.7435"
         id="path14505"
         transform="matrix(0.02048341,0,0,0.02048341,24.841614,95.523048)" />
      <path
         d="m 7958.4466,4942.6148 15.015,2.5204 q -2.8958,8.2582 -9.1699,12.6018 -6.2205,4.29 -15.6049,4.29 -14.8541,0 -21.9862,-9.7061 -5.6307,-7.7756 -5.6307,-19.6267 0,-14.157 7.4003,-22.1472 7.4002,-8.0437 18.7151,-8.0437 12.7091,0 20.0558,8.4191 7.3466,8.3655 7.0248,25.6864 h -37.752 q 0.1609,6.7031 3.6465,10.4569 3.4857,3.7001 8.6873,3.7001 3.5392,0 5.9524,-1.9305 2.4131,-1.9305 3.6465,-6.2205 z m 0.858,-15.2295 q -0.1609,-6.5423 -3.3784,-9.9206 -3.2175,-3.432 -7.8293,-3.432 -4.9335,0 -8.151,3.5928 -3.2175,3.5929 -3.1638,9.7598 z"
         style="font-size:109.824px;-inkscape-font-specification:'Arial Bold';fill:#ffffff;stroke-width:56.7435"
         id="path14507"
         transform="matrix(0.02048341,0,0,0.02048341,24.841614,95.523048)" />
      <path
         d="m 8038.3478,4960.74 h -15.0686 v -29.0647 q 0,-9.2235 -0.9653,-11.9048 -0.9652,-2.7348 -3.1638,-4.2363 -2.145,-1.5015 -5.2017,-1.5015 -3.9146,0 -7.0248,2.145 -3.1103,2.145 -4.29,5.6842 -1.1262,3.5393 -1.1262,13.0845 v 25.7936 h -15.0686 v -56.9497 h 13.9961 v 8.3655 q 7.4539,-9.6525 18.7688,-9.6525 4.9871,0 9.1162,1.8232 4.1292,1.7697 6.2205,4.5582 2.145,2.7885 2.9494,6.3277 0.858,3.5393 0.858,10.1351 z"
         style="font-size:109.824px;-inkscape-font-specification:'Arial Bold';fill:#ffffff;stroke-width:56.7435"
         id="path14509"
         transform="matrix(0.02048341,0,0,0.02048341,24.841614,95.523048)" />
      <path
         d="m 8048.322,4944.4917 15.1223,-2.3059 q 0.9652,4.3972 3.9146,6.7031 2.9494,2.2523 8.2583,2.2523 5.8451,0 8.7945,-2.145 1.9841,-1.5015 1.9841,-4.0219 0,-1.716 -1.0725,-2.8421 -1.1261,-1.0725 -5.0408,-1.9842 -18.2325,-4.0218 -23.1123,-7.3466 -6.7568,-4.6117 -6.7568,-12.8164 0,-7.4002 5.8451,-12.441 5.8452,-5.0407 18.1253,-5.0407 11.6902,0 17.3745,3.8074 5.6842,3.8073 7.8292,11.2612 l -14.2106,2.6276 q -0.9116,-3.3247 -3.4856,-5.0943 -2.5204,-1.7697 -7.2394,-1.7697 -5.9524,0 -8.5264,1.6624 -1.716,1.1798 -1.716,3.0566 0,1.6088 1.5015,2.7349 2.0378,1.5015 14.0498,4.2364 12.0656,2.7349 16.8382,6.7031 4.719,4.0219 4.719,11.2076 0,7.8293 -6.5422,13.4599 -6.5423,5.6306 -19.3586,5.6306 -11.6367,0 -18.447,-4.719 -6.7568,-4.719 -8.8482,-12.8163 z"
         style="font-size:109.824px;-inkscape-font-specification:'Arial Bold';fill:#ffffff;stroke-width:56.7435"
         id="path14511"
         transform="matrix(0.02048341,0,0,0.02048341,24.841614,95.523048)" />
      <path
         d="m 8114.7098,4896.0683 v -13.9425 h 15.0686 v 13.9425 z m 0,64.6717 v -56.9497 h 15.0686 v 56.9497 z"
         style="font-size:109.824px;-inkscape-font-specification:'Arial Bold';fill:#ffffff;stroke-width:56.7435"
         id="path14513"
         transform="matrix(0.02048341,0,0,0.02048341,24.841614,95.523048)" />
      <path
         d="m 8171.3378,4903.7903 v 12.012 h -10.296 v 22.9515 q 0,6.9712 0.2681,8.151 0.3218,1.1261 1.3406,1.8769 1.0725,0.7507 2.574,0.7507 2.0914,0 6.0597,-1.4479 l 1.287,11.6903 q -5.2553,2.2522 -11.9048,2.2522 -4.0755,0 -7.3466,-1.3406 -3.2711,-1.3942 -4.8263,-3.5392 -1.5015,-2.1987 -2.0913,-5.8988 -0.4827,-2.6276 -0.4827,-10.6177 v -24.8284 h -6.9176 v -12.012 h 6.9176 v -11.3149 l 15.1223,-8.7945 v 20.1094 z"
         style="font-size:109.824px;-inkscape-font-specification:'Arial Bold';fill:#ffffff;stroke-width:56.7435"
         id="path14515"
         transform="matrix(0.02048341,0,0,0.02048341,24.841614,95.523048)" />
      <path
         d="m 8174.6626,4903.7903 h 16.0338 l 13.6208,40.4332 13.299,-40.4332 h 15.6049 l -20.1094,54.8047 -3.5929,9.9207 q -1.9841,4.9871 -3.8074,7.6147 -1.7696,2.6276 -4.1291,4.2364 -2.3059,1.6624 -5.7379,2.574 -3.3783,0.9116 -7.6683,0.9116 -4.3437,0 -8.5264,-0.9116 l -1.3406,-11.7975 q 3.5392,0.6971 6.3813,0.6971 5.2553,0 7.7757,-3.1102 2.5203,-3.0567 3.861,-7.8293 z"
         style="font-size:109.824px;-inkscape-font-specification:'Arial Bold';fill:#ffffff;stroke-width:56.7435"
         id="path14517"
         transform="matrix(0.02048341,0,0,0.02048341,24.841614,95.523048)" />
    </g>
    <g
       id="g14991"
       inkscape:label="CCT">
      <path
         d="m 49.221011,-33.06723 q 1.140511,0 1.584755,-1.144782 l 1.097796,0.414343 q -0.354541,0.871401 -1.042265,1.298559 -0.683452,0.422886 -1.640286,0.422886 -1.452336,0 -2.246849,-0.820143 -0.790242,-0.824414 -0.790242,-2.30238 0,-1.482237 0.764612,-2.27675 0.764613,-0.794514 2.216949,-0.794514 1.059351,0 1.725717,0.427158 0.666366,0.422886 0.935475,1.247301 l -1.11061,0.303282 q -0.140962,-0.452788 -0.555305,-0.717625 -0.410071,-0.26911 -0.969648,-0.26911 -0.854315,0 -1.298559,0.529676 -0.439973,0.529675 -0.439973,1.550582 0,1.037993 0.452788,1.584755 0.457058,0.546762 1.315645,0.546762 z"
         style="font-size:16px;-inkscape-font-specification:'Liberation Sans, sans-serif, Bold';fill:#ffffff"
         id="path14430"
         transform="matrix(0.26458333,0,0,0.26458333,163.75573,190.69779)" />
      <path
         d="m 55.538674,-33.06723 q 1.140511,0 1.584755,-1.144782 l 1.097796,0.414343 q -0.354541,0.871401 -1.042265,1.298559 -0.683453,0.422886 -1.640286,0.422886 -1.452336,0 -2.246849,-0.820143 -0.790242,-0.824414 -0.790242,-2.30238 0,-1.482237 0.764612,-2.27675 0.764612,-0.794514 2.216949,-0.794514 1.059351,0 1.725717,0.427158 0.666366,0.422886 0.935475,1.247301 l -1.11061,0.303282 q -0.140962,-0.452788 -0.555305,-0.717625 -0.410071,-0.26911 -0.969648,-0.26911 -0.854315,0 -1.298559,0.529676 -0.439973,0.529675 -0.439973,1.550582 0,1.037993 0.452787,1.584755 0.457059,0.546762 1.315646,0.546762 z"
         style="font-size:16px;-inkscape-font-specification:'Liberation Sans, sans-serif, Bold';fill:#ffffff"
         id="path14432"
         transform="matrix(0.26458333,0,0,0.26458333,163.75573,190.69779)" />
      <path
         d="m 61.762362,-37.206388 v 5.044733 h -1.260115 v -5.044733 h -1.943568 v -0.97392 h 5.151522 v 0.97392 z"
         style="font-size:16px;-inkscape-font-specification:'Liberation Sans, sans-serif, Bold';fill:#ffffff"
         id="path14434"
         transform="matrix(0.26458333,0,0,0.26458333,163.75573,190.69779)" />
      <path
         d="m 63.676029,-35.373881 v -1.204585 h 1.230214 v 1.204585 z m 0,3.212226 v -1.200314 h 1.230214 v 1.200314 z"
         style="font-size:16px;-inkscape-font-specification:'Liberation Sans, sans-serif, Bold';fill:#ffffff"
         id="path14436"
         transform="matrix(0.26458333,0,0,0.26458333,163.75573,190.69779)" />
      <path
         d="m 49.127037,-37.206388 v 5.044733 h -1.260116 v -5.044733 h -1.943567 v -0.97392 h 5.151522 v 0.97392 z"
         style="font-size:16px;-inkscape-font-specification:'Liberation Sans, sans-serif, Bold';fill:#ffffff"
         id="path14365"
         transform="matrix(0.26458333,0,0,0.26458333,169.70488,190.69779)" />
      <path
         d="m 53.022715,-32.076224 q -1.042265,0 -1.601841,-0.615107 -0.559577,-0.619379 -0.559577,-1.802606 0,-1.144782 0.56812,-1.759889 0.56812,-0.615107 1.610384,-0.615107 0.995278,0 1.520682,0.662094 0.525404,0.657823 0.525404,1.930753 v 0.03417 h -2.964475 q 0,0.674909 0.247752,1.020906 0.252023,0.341727 0.713353,0.341727 0.636465,0 0.803057,-0.551034 l 1.131968,0.09825 q -0.491232,1.255844 -1.994827,1.255844 z m 0,-4.03664 q -0.422886,0 -0.653551,0.294739 -0.226394,0.294738 -0.239209,0.824414 h 1.794063 q -0.03417,-0.559577 -0.26911,-0.837229 -0.234936,-0.281924 -0.632193,-0.281924 z"
         style="font-size:16px;-inkscape-font-specification:'Liberation Sans, sans-serif, Bold';fill:#ffffff"
         id="path14367"
         transform="matrix(0.26458333,0,0,0.26458333,169.70488,190.69779)" />
      <path
         d="m 58.716727,-32.161655 v -2.592848 q 0,-1.217399 -0.700538,-1.217399 -0.363084,0 -0.593749,0.371627 -0.226394,0.371627 -0.226394,0.961105 v 2.477515 h -1.200313 v -3.588125 q 0,-0.371627 -0.01282,-0.606564 -0.0085,-0.239208 -0.02136,-0.427158 h 1.144783 q 0.01281,0.08116 0.03417,0.435701 0.02136,0.350269 0.02136,0.482688 h 0.01709 q 0.222122,-0.529675 0.551033,-0.768884 0.333183,-0.239208 0.794513,-0.239208 1.059352,0 1.285745,1.008092 h 0.02563 q 0.234936,-0.538218 0.563848,-0.773155 0.328911,-0.234937 0.837229,-0.234937 0.674909,0 1.02945,0.46133 0.354541,0.457059 0.354541,1.315646 v 2.934574 h -1.19177 v -2.592848 q 0,-1.217399 -0.700539,-1.217399 -0.350269,0 -0.576663,0.341726 -0.222122,0.337455 -0.24348,0.935475 v 2.533046 z"
         style="font-size:16px;-inkscape-font-specification:'Liberation Sans, sans-serif, Bold';fill:#ffffff"
         id="path14369"
         transform="matrix(0.26458333,0,0,0.26458333,169.70488,190.69779)" />
      <path
         d="m 68.148369,-34.493937 q 0,1.157598 -0.465602,1.789791 -0.46133,0.627922 -1.307102,0.627922 -0.48696,0 -0.850044,-0.209307 -0.358813,-0.213579 -0.551034,-0.610836 h -0.02563 q 0.02563,0.128148 0.02563,0.777427 v 1.772705 h -1.200313 v -5.373644 q 0,-0.653551 -0.03417,-1.063623 h 1.16614 q 0.02136,0.07689 0.03417,0.303282 0.01709,0.226394 0.01709,0.448516 h 0.01709 q 0.4058,-0.850044 1.477966,-0.850044 0.807328,0 1.251572,0.62365 0.444244,0.619379 0.444244,1.764161 z m -1.251572,0 q 0,-1.554854 -0.952562,-1.554854 -0.478416,0 -0.734711,0.418615 -0.252023,0.418615 -0.252023,1.170412 0,0.747526 0.252023,1.157597 0.256295,0.4058 0.726168,0.4058 0.961105,0 0.961105,-1.59757 z"
         style="font-size:16px;-inkscape-font-specification:'Liberation Sans, sans-serif, Bold';fill:#ffffff"
         id="path14371"
         transform="matrix(0.26458333,0,0,0.26458333,169.70488,190.69779)" />
      <path
         d="m 71.010327,-32.076224 q -1.042265,0 -1.601841,-0.615107 -0.559577,-0.619379 -0.559577,-1.802606 0,-1.144782 0.56812,-1.759889 0.56812,-0.615107 1.610385,-0.615107 0.995277,0 1.520681,0.662094 0.525404,0.657823 0.525404,1.930753 v 0.03417 h -2.964475 q 0,0.674909 0.247752,1.020906 0.252023,0.341727 0.713353,0.341727 0.636465,0 0.803057,-0.551034 l 1.131968,0.09825 q -0.491232,1.255844 -1.994827,1.255844 z m 0,-4.03664 q -0.422886,0 -0.653551,0.294739 -0.226394,0.294738 -0.239208,0.824414 h 1.794062 q -0.03417,-0.559577 -0.269109,-0.837229 -0.234937,-0.281924 -0.632194,-0.281924 z"
         style="font-size:16px;-inkscape-font-specification:'Liberation Sans, sans-serif, Bold';fill:#ffffff"
         id="path14373"
         transform="matrix(0.26458333,0,0,0.26458333,169.70488,190.69779)" />
      <path
         d="m 73.983345,-32.161655 v -3.536866 q 0,-0.380171 -0.01282,-0.632194 -0.0085,-0.256294 -0.02136,-0.452787 h 1.144783 q 0.01281,0.07689 0.03417,0.469874 0.02136,0.388713 0.02136,0.51686 h 0.01709 q 0.175135,-0.486959 0.311826,-0.683452 0.13669,-0.200764 0.324639,-0.294739 0.18795,-0.09825 0.469874,-0.09825 0.230665,0 0.371627,0.06407 v 1.00382 q -0.290467,-0.06407 -0.512589,-0.06407 -0.448516,0 -0.700539,0.363084 -0.247751,0.363084 -0.247751,1.076437 v 2.268208 z"
         style="font-size:16px;-inkscape-font-specification:'Liberation Sans, sans-serif, Bold';fill:#ffffff"
         id="path14375"
         transform="matrix(0.26458333,0,0,0.26458333,169.70488,190.69779)" />
      <path
         d="m 78.455684,-32.076224 q -0.670637,0 -1.046536,-0.363084 -0.375899,-0.367356 -0.375899,-1.02945 0,-0.717625 0.465602,-1.093524 0.469874,-0.375899 1.358362,-0.384442 l 0.995277,-0.01709 v -0.234937 q 0,-0.452787 -0.158048,-0.670637 -0.158049,-0.222122 -0.516861,-0.222122 -0.333183,0 -0.491231,0.153776 -0.153777,0.149506 -0.192221,0.499775 l -1.251572,-0.0598 q 0.115332,-0.674909 0.615107,-1.020907 0.504046,-0.350269 1.371176,-0.350269 0.875673,0 1.349818,0.431429 0.474145,0.431429 0.474145,1.225943 v 1.683001 q 0,0.388713 0.08543,0.538219 0.0897,0.145233 0.294739,0.145233 0.13669,0 0.264837,-0.02563 v 0.649279 q -0.106789,0.02563 -0.19222,0.04699 -0.08543,0.02136 -0.170864,0.03417 -0.08543,0.01282 -0.183677,0.02136 -0.09398,0.0085 -0.222122,0.0085 -0.452788,0 -0.670638,-0.222122 -0.213579,-0.222122 -0.256295,-0.653551 h -0.02563 q -0.504046,0.909846 -1.520682,0.909846 z m 1.396806,-2.225492 -0.615107,0.0085 q -0.418614,0.01709 -0.593749,0.09397 -0.175135,0.07262 -0.26911,0.226394 -0.0897,0.153777 -0.0897,0.410071 0,0.328912 0.149506,0.491232 0.153776,0.158048 0.405799,0.158048 0.281924,0 0.51259,-0.153777 0.234936,-0.153777 0.367355,-0.422886 0.132419,-0.273381 0.132419,-0.576663 z"
         style="font-size:16px;-inkscape-font-specification:'Liberation Sans, sans-serif, Bold';fill:#ffffff"
         id="path14377"
         transform="matrix(0.26458333,0,0,0.26458333,169.70488,190.69779)" />
      <path
         d="m 83.436343,-32.084767 q -0.529676,0 -0.815871,-0.286196 -0.286196,-0.290467 -0.286196,-0.875673 v -2.725266 H 81.74907 v -0.8116 h 0.645008 l 0.375899,-1.08498 h 0.751798 v 1.08498 h 0.875673 v 0.8116 h -0.875673 v 2.400626 q 0,0.337455 0.128147,0.499775 0.128147,0.158048 0.397256,0.158048 0.140963,0 0.401529,-0.0598 v 0.743254 q -0.444244,0.145234 -1.012364,0.145234 z"
         style="font-size:16px;-inkscape-font-specification:'Liberation Sans, sans-serif, Bold';fill:#ffffff"
         id="path14379"
         transform="matrix(0.26458333,0,0,0.26458333,169.70488,190.69779)" />
      <path
         d="m 86.2983,-36.783502 v 2.592847 q 0,1.2174 0.820142,1.2174 0.435701,0 0.700539,-0.371627 0.269109,-0.375899 0.269109,-0.961105 v -2.477515 h 1.200314 v 3.588125 q 0,0.589478 0.03417,1.033722 h -1.144782 q -0.05126,-0.615108 -0.05126,-0.91839 h -0.02136 q -0.239209,0.525404 -0.610836,0.764613 -0.367355,0.239208 -0.875673,0.239208 -0.734711,0 -1.127696,-0.448515 -0.392985,-0.452788 -0.392985,-1.324189 v -2.934574 z"
         style="font-size:16px;-inkscape-font-specification:'Liberation Sans, sans-serif, Bold';fill:#ffffff"
         id="path14381"
         transform="matrix(0.26458333,0,0,0.26458333,169.70488,190.69779)" />
      <path
         d="m 90.510074,-32.161655 v -3.536866 q 0,-0.380171 -0.01282,-0.632194 -0.0085,-0.256294 -0.02136,-0.452787 h 1.144783 q 0.01282,0.07689 0.03417,0.469874 0.02136,0.388713 0.02136,0.51686 h 0.01709 q 0.175135,-0.486959 0.311825,-0.683452 0.136691,-0.200764 0.32464,-0.294739 0.187949,-0.09825 0.469873,-0.09825 0.230666,0 0.371628,0.06407 v 1.00382 q -0.290468,-0.06407 -0.51259,-0.06407 -0.448515,0 -0.700538,0.363084 -0.247752,0.363084 -0.247752,1.076437 v 2.268208 z"
         style="font-size:16px;-inkscape-font-specification:'Liberation Sans, sans-serif, Bold';fill:#ffffff"
         id="path14383"
         transform="matrix(0.26458333,0,0,0.26458333,169.70488,190.69779)" />
      <path
         d="m 94.982418,-32.076224 q -0.670638,0 -1.046537,-0.363084 -0.375898,-0.367356 -0.375898,-1.02945 0,-0.717625 0.465602,-1.093524 0.469873,-0.375899 1.358361,-0.384442 l 0.995278,-0.01709 v -0.234937 q 0,-0.452787 -0.158049,-0.670637 -0.158048,-0.222122 -0.516861,-0.222122 -0.333183,0 -0.491231,0.153776 -0.153777,0.149506 -0.192221,0.499775 l -1.251572,-0.0598 q 0.115333,-0.674909 0.615107,-1.020907 0.504046,-0.350269 1.371176,-0.350269 0.875674,0 1.349819,0.431429 0.474145,0.431429 0.474145,1.225943 v 1.683001 q 0,0.388713 0.08543,0.538219 0.0897,0.145233 0.294739,0.145233 0.136691,0 0.264838,-0.02563 v 0.649279 q -0.10679,0.02563 -0.192221,0.04699 -0.08543,0.02136 -0.170863,0.03417 -0.08543,0.01282 -0.183678,0.02136 -0.09398,0.0085 -0.222122,0.0085 -0.452787,0 -0.670638,-0.222122 -0.213578,-0.222122 -0.256294,-0.653551 h -0.02563 q -0.504046,0.909846 -1.520681,0.909846 z m 1.396806,-2.225492 -0.615108,0.0085 q -0.418614,0.01709 -0.593749,0.09397 -0.175134,0.07262 -0.269109,0.226394 -0.0897,0.153777 -0.0897,0.410071 0,0.328912 0.149505,0.491232 0.153777,0.158048 0.4058,0.158048 0.281924,0 0.512589,-0.153777 0.234937,-0.153777 0.367356,-0.422886 0.132419,-0.273381 0.132419,-0.576663 z"
         style="font-size:16px;-inkscape-font-specification:'Liberation Sans, sans-serif, Bold';fill:#ffffff"
         id="path14385"
         transform="matrix(0.26458333,0,0,0.26458333,169.70488,190.69779)" />
      <path
         d="m 104.20475,-32.161655 q -0.0171,-0.06407 -0.0427,-0.320369 -0.0214,-0.260566 -0.0214,-0.431429 h -0.0171 q -0.38871,0.837229 -1.47796,0.837229 -0.80733,0 -1.2473,-0.627922 -0.43998,-0.632193 -0.43998,-1.764161 0,-1.149054 0.46133,-1.772705 0.46561,-0.627921 1.31565,-0.627921 0.49123,0 0.84577,0.205035 0.35881,0.205036 0.55103,0.610836 h 0.009 l -0.009,-0.760341 v -1.687273 h 1.20032 v 5.330928 q 0,0.427158 0.0342,1.008093 z m -0.0555,-2.336553 q 0,-0.747526 -0.25202,-1.149054 -0.24775,-0.4058 -0.73471,-0.4058 -0.48269,0 -0.71763,0.392985 -0.23493,0.388713 -0.23493,1.19177 0,1.57194 0.94401,1.57194 0.47415,0 0.73472,-0.414343 0.26056,-0.418614 0.26056,-1.187498 z"
         style="font-size:16px;-inkscape-font-specification:'Liberation Sans, sans-serif, Bold';fill:#ffffff"
         id="path14387"
         transform="matrix(0.26458333,0,0,0.26458333,169.70488,190.69779)" />
      <path
         d="m 108.44643,-32.076224 q -1.04227,0 -1.60184,-0.615107 -0.55958,-0.619379 -0.55958,-1.802606 0,-1.144782 0.56812,-1.759889 0.56812,-0.615107 1.61038,-0.615107 0.99528,0 1.52069,0.662094 0.5254,0.657823 0.5254,1.930753 v 0.03417 h -2.96448 q 0,0.674909 0.24776,1.020906 0.25202,0.341727 0.71335,0.341727 0.63646,0 0.80306,-0.551034 l 1.13196,0.09825 q -0.49123,1.255844 -1.99482,1.255844 z m 0,-4.03664 q -0.42289,0 -0.65355,0.294739 -0.2264,0.294738 -0.23921,0.824414 h 1.79406 q -0.0342,-0.559577 -0.26911,-0.837229 -0.23494,-0.281924 -0.63219,-0.281924 z"
         style="font-size:16px;-inkscape-font-specification:'Liberation Sans, sans-serif, Bold';fill:#ffffff"
         id="path14389"
         transform="matrix(0.26458333,0,0,0.26458333,169.70488,190.69779)" />
      <path
         d="m 115.77646,-32.076224 q -1.05081,0 -1.6232,-0.62365 -0.57239,-0.627922 -0.57239,-1.747075 0,-1.144783 0.57666,-1.781248 0.57666,-0.640736 1.63601,-0.640736 0.81587,0 1.34982,0.410071 0.53395,0.410071 0.67064,1.131968 l -1.20886,0.0598 q -0.0513,-0.354541 -0.25629,-0.563848 -0.20504,-0.213579 -0.58094,-0.213579 -0.92693,0 -0.92693,1.550582 0,1.59757 0.94402,1.59757 0.34173,0 0.57239,-0.213579 0.23067,-0.21785 0.2862,-0.645008 l 1.20458,0.05553 q -0.0641,0.474145 -0.34172,0.845772 -0.27339,0.371627 -0.7219,0.576663 -0.44852,0.200764 -1.00809,0.200764 z"
         style="font-size:16px;-inkscape-font-specification:'Liberation Sans, sans-serif, Bold';fill:#ffffff"
         id="path14391"
         transform="matrix(0.26458333,0,0,0.26458333,169.70488,190.69779)" />
      <path
         d="m 123.10648,-34.47685 q 0,1.123425 -0.62365,1.764161 -0.62365,0.636465 -1.72572,0.636465 -1.0807,0 -1.69581,-0.640736 -0.61511,-0.640737 -0.61511,-1.75989 0,-1.114882 0.61511,-1.751347 0.61511,-0.640736 1.72144,-0.640736 1.13197,0 1.72572,0.619378 0.59802,0.615107 0.59802,1.772705 z m -1.25584,0 q 0,-0.824415 -0.26911,-1.196042 -0.26911,-0.371627 -0.7817,-0.371627 -1.09352,0 -1.09352,1.567669 0,0.773155 0.26483,1.178955 0.26911,0.401528 0.77316,0.401528 1.10634,0 1.10634,-1.580483 z"
         style="font-size:16px;-inkscape-font-specification:'Liberation Sans, sans-serif, Bold';fill:#ffffff"
         id="path14393"
         transform="matrix(0.26458333,0,0,0.26458333,169.70488,190.69779)" />
      <path
         d="m 124.05904,-32.161655 v -3.536866 q 0,-0.380171 -0.0128,-0.632194 -0.009,-0.256294 -0.0214,-0.452787 h 1.14478 q 0.0128,0.07689 0.0342,0.469874 0.0213,0.388713 0.0213,0.51686 h 0.0171 q 0.17513,-0.486959 0.31183,-0.683452 0.13669,-0.200764 0.32464,-0.294739 0.18794,-0.09825 0.46987,-0.09825 0.23066,0 0.37163,0.06407 v 1.00382 q -0.29047,-0.06407 -0.51259,-0.06407 -0.44852,0 -0.70054,0.363084 -0.24775,0.363084 -0.24775,1.076437 v 2.268208 z"
         style="font-size:16px;-inkscape-font-specification:'Liberation Sans, sans-serif, Bold';fill:#ffffff"
         id="path14395"
         transform="matrix(0.26458333,0,0,0.26458333,169.70488,190.69779)" />
      <path
         d="m 49.221011,-33.06723 q 1.140511,0 1.584755,-1.144782 l 1.097796,0.414343 q -0.354541,0.871401 -1.042265,1.298559 -0.683452,0.422886 -1.640286,0.422886 -1.452336,0 -2.246849,-0.820143 -0.790242,-0.824414 -0.790242,-2.30238 0,-1.482237 0.764612,-2.27675 0.764613,-0.794514 2.216949,-0.794514 1.059351,0 1.725717,0.427158 0.666366,0.422886 0.935475,1.247301 l -1.11061,0.303282 q -0.140962,-0.452788 -0.555305,-0.717625 -0.410071,-0.26911 -0.969648,-0.26911 -0.854315,0 -1.298559,0.529676 -0.439973,0.529675 -0.439973,1.550582 0,1.037993 0.452788,1.584755 0.457058,0.546762 1.315645,0.546762 z"
         style="font-size:16px;-inkscape-font-specification:'Liberation Sans, sans-serif, Bold';fill:#ffffff"
         id="path14300"
         transform="matrix(0.26458333,0,0,0.26458333,169.70488,193.30606)" />
      <path
         d="m 57.144787,-34.47685 q 0,1.123425 -0.62365,1.764161 -0.62365,0.636465 -1.725717,0.636465 -1.080709,0 -1.695816,-0.640736 -0.615108,-0.640737 -0.615108,-1.75989 0,-1.114882 0.615108,-1.751347 0.615107,-0.640736 1.721445,-0.640736 1.131968,0 1.725717,0.619378 0.598021,0.615107 0.598021,1.772705 z m -1.255844,0 q 0,-0.824415 -0.269109,-1.196042 -0.269109,-0.371627 -0.781699,-0.371627 -1.093523,0 -1.093523,1.567669 0,0.773155 0.264837,1.178955 0.26911,0.401528 0.773156,0.401528 1.106338,0 1.106338,-1.580483 z"
         style="font-size:16px;-inkscape-font-specification:'Liberation Sans, sans-serif, Bold';fill:#ffffff"
         id="path14302"
         transform="matrix(0.26458333,0,0,0.26458333,169.70488,193.30606)" />
      <path
         d="m 58.097349,-32.161655 v -6.339021 h 1.200313 v 6.339021 z"
         style="font-size:16px;-inkscape-font-specification:'Liberation Sans, sans-serif, Bold';fill:#ffffff"
         id="path14304"
         transform="matrix(0.26458333,0,0,0.26458333,169.70488,193.30606)" />
      <path
         d="m 64.919058,-34.47685 q 0,1.123425 -0.623651,1.764161 -0.62365,0.636465 -1.725717,0.636465 -1.080709,0 -1.695816,-0.640736 -0.615107,-0.640737 -0.615107,-1.75989 0,-1.114882 0.615107,-1.751347 0.615107,-0.640736 1.721446,-0.640736 1.131968,0 1.725717,0.619378 0.598021,0.615107 0.598021,1.772705 z m -1.255844,0 q 0,-0.824415 -0.269109,-1.196042 -0.26911,-0.371627 -0.781699,-0.371627 -1.093524,0 -1.093524,1.567669 0,0.773155 0.264838,1.178955 0.269109,0.401528 0.773155,0.401528 1.106339,0 1.106339,-1.580483 z"
         style="font-size:16px;-inkscape-font-specification:'Liberation Sans, sans-serif, Bold';fill:#ffffff"
         id="path14306"
         transform="matrix(0.26458333,0,0,0.26458333,169.70488,193.30606)" />
      <path
         d="m 65.87162,-32.161655 v -3.536866 q 0,-0.380171 -0.01281,-0.632194 -0.0085,-0.256294 -0.02136,-0.452787 h 1.144783 q 0.01281,0.07689 0.03417,0.469874 0.02136,0.388713 0.02136,0.51686 h 0.01709 q 0.175134,-0.486959 0.311825,-0.683452 0.13669,-0.200764 0.32464,-0.294739 0.187949,-0.09825 0.469873,-0.09825 0.230665,0 0.371627,0.06407 v 1.00382 q -0.290467,-0.06407 -0.512589,-0.06407 -0.448516,0 -0.700539,0.363084 -0.247751,0.363084 -0.247751,1.076437 v 2.268208 z"
         style="font-size:16px;-inkscape-font-specification:'Liberation Sans, sans-serif, Bold';fill:#ffffff"
         id="path14308"
         transform="matrix(0.26458333,0,0,0.26458333,169.70488,193.30606)" />
      <path
         d="m 72.889821,-32.084767 q -0.529676,0 -0.815871,-0.286196 -0.286196,-0.290467 -0.286196,-0.875673 v -2.725266 h -0.585206 v -0.8116 h 0.645008 l 0.375899,-1.08498 h 0.751797 v 1.08498 h 0.875674 v 0.8116 h -0.875674 v 2.400626 q 0,0.337455 0.128148,0.499775 0.128147,0.158048 0.397256,0.158048 0.140962,0 0.401529,-0.0598 v 0.743254 q -0.444244,0.145234 -1.012364,0.145234 z"
         style="font-size:16px;-inkscape-font-specification:'Liberation Sans, sans-serif, Bold';fill:#ffffff"
         id="path14310"
         transform="matrix(0.26458333,0,0,0.26458333,169.70488,193.30606)" />
      <path
         d="m 76.512118,-32.076224 q -1.042265,0 -1.601841,-0.615107 -0.559577,-0.619379 -0.559577,-1.802606 0,-1.144782 0.56812,-1.759889 0.56812,-0.615107 1.610385,-0.615107 0.995277,0 1.520681,0.662094 0.525404,0.657823 0.525404,1.930753 v 0.03417 h -2.964475 q 0,0.674909 0.247752,1.020906 0.252023,0.341727 0.713353,0.341727 0.636465,0 0.803057,-0.551034 l 1.131968,0.09825 q -0.491232,1.255844 -1.994827,1.255844 z m 0,-4.03664 q -0.422886,0 -0.653551,0.294739 -0.226394,0.294738 -0.239208,0.824414 h 1.794062 q -0.03417,-0.559577 -0.269109,-0.837229 -0.234937,-0.281924 -0.632194,-0.281924 z"
         style="font-size:16px;-inkscape-font-specification:'Liberation Sans, sans-serif, Bold';fill:#ffffff"
         id="path14312"
         transform="matrix(0.26458333,0,0,0.26458333,169.70488,193.30606)" />
      <path
         d="m 82.206128,-32.161655 v -2.592848 q 0,-1.217399 -0.700538,-1.217399 -0.363084,0 -0.59375,0.371627 -0.226393,0.371627 -0.226393,0.961105 v 2.477515 h -1.200313 v -3.588125 q 0,-0.371627 -0.01282,-0.606564 -0.0085,-0.239208 -0.02136,-0.427158 h 1.144783 q 0.01281,0.08116 0.03417,0.435701 0.02136,0.350269 0.02136,0.482688 h 0.01709 q 0.222122,-0.529675 0.551034,-0.768884 0.333183,-0.239208 0.794513,-0.239208 1.059351,0 1.285745,1.008092 h 0.02563 q 0.234937,-0.538218 0.563849,-0.773155 0.328911,-0.234937 0.837229,-0.234937 0.674909,0 1.02945,0.46133 0.354541,0.457059 0.354541,1.315646 v 2.934574 h -1.19177 v -2.592848 q 0,-1.217399 -0.700539,-1.217399 -0.350269,0 -0.576663,0.341726 -0.222122,0.337455 -0.24348,0.935475 v 2.533046 z"
         style="font-size:16px;-inkscape-font-specification:'Liberation Sans, sans-serif, Bold';fill:#ffffff"
         id="path14314"
         transform="matrix(0.26458333,0,0,0.26458333,169.70488,193.30606)" />
      <path
         d="m 91.637774,-34.493937 q 0,1.157598 -0.465602,1.789791 -0.46133,0.627922 -1.307103,0.627922 -0.486959,0 -0.850043,-0.209307 -0.358813,-0.213579 -0.551034,-0.610836 h -0.02563 q 0.02563,0.128148 0.02563,0.777427 v 1.772705 h -1.200313 v -5.373644 q 0,-0.653551 -0.03417,-1.063623 h 1.166141 q 0.02136,0.07689 0.03417,0.303282 0.01709,0.226394 0.01709,0.448516 H 88.464 q 0.4058,-0.850044 1.477966,-0.850044 0.807328,0 1.251572,0.62365 0.444244,0.619379 0.444244,1.764161 z m -1.251572,0 q 0,-1.554854 -0.952562,-1.554854 -0.478416,0 -0.734711,0.418615 -0.252023,0.418615 -0.252023,1.170412 0,0.747526 0.252023,1.157597 0.256295,0.4058 0.726168,0.4058 0.961105,0 0.961105,-1.59757 z"
         style="font-size:16px;-inkscape-font-specification:'Liberation Sans, sans-serif, Bold';fill:#ffffff"
         id="path14316"
         transform="matrix(0.26458333,0,0,0.26458333,169.70488,193.30606)" />
      <path
         d="m 94.49973,-32.076224 q -1.042265,0 -1.601841,-0.615107 -0.559577,-0.619379 -0.559577,-1.802606 0,-1.144782 0.56812,-1.759889 0.56812,-0.615107 1.610384,-0.615107 0.995278,0 1.520682,0.662094 0.525404,0.657823 0.525404,1.930753 v 0.03417 h -2.964475 q 0,0.674909 0.247752,1.020906 0.252023,0.341727 0.713353,0.341727 0.636465,0 0.803057,-0.551034 l 1.131968,0.09825 q -0.491232,1.255844 -1.994827,1.255844 z m 0,-4.03664 q -0.422886,0 -0.653551,0.294739 -0.226394,0.294738 -0.239209,0.824414 h 1.794063 q -0.03417,-0.559577 -0.26911,-0.837229 -0.234936,-0.281924 -0.632193,-0.281924 z"
         style="font-size:16px;-inkscape-font-specification:'Liberation Sans, sans-serif, Bold';fill:#ffffff"
         id="path14318"
         transform="matrix(0.26458333,0,0,0.26458333,169.70488,193.30606)" />
      <path
         d="m 97.472747,-32.161655 v -3.536866 q 0,-0.380171 -0.01281,-0.632194 -0.0085,-0.256294 -0.02136,-0.452787 h 1.144782 q 0.01281,0.07689 0.03417,0.469874 0.02136,0.388713 0.02136,0.51686 h 0.01709 q 0.175135,-0.486959 0.311825,-0.683452 0.136691,-0.200764 0.32464,-0.294739 0.18795,-0.09825 0.469874,-0.09825 0.230665,0 0.371632,0.06407 v 1.00382 q -0.290472,-0.06407 -0.512594,-0.06407 -0.448516,0 -0.700539,0.363084 -0.247752,0.363084 -0.247752,1.076437 v 2.268208 z"
         style="font-size:16px;-inkscape-font-specification:'Liberation Sans, sans-serif, Bold';fill:#ffffff"
         id="path14320"
         transform="matrix(0.26458333,0,0,0.26458333,169.70488,193.30606)" />
      <path
         d="m 101.94509,-32.076224 q -0.67064,0 -1.04654,-0.363084 -0.3759,-0.367356 -0.3759,-1.02945 0,-0.717625 0.4656,-1.093524 0.46988,-0.375899 1.35837,-0.384442 l 0.99527,-0.01709 v -0.234937 q 0,-0.452787 -0.15805,-0.670637 -0.15804,-0.222122 -0.51686,-0.222122 -0.33318,0 -0.49123,0.153776 -0.15377,0.149506 -0.19222,0.499775 l -1.25157,-0.0598 q 0.11533,-0.674909 0.61511,-1.020907 0.50404,-0.350269 1.37117,-0.350269 0.87568,0 1.34982,0.431429 0.47415,0.431429 0.47415,1.225943 v 1.683001 q 0,0.388713 0.0854,0.538219 0.0897,0.145233 0.29474,0.145233 0.13669,0 0.26483,-0.02563 v 0.649279 q -0.10679,0.02563 -0.19222,0.04699 -0.0854,0.02136 -0.17086,0.03417 -0.0854,0.01282 -0.18368,0.02136 -0.094,0.0085 -0.22212,0.0085 -0.45279,0 -0.67064,-0.222122 -0.21358,-0.222122 -0.25629,-0.653551 h -0.0256 q -0.50405,0.909846 -1.52068,0.909846 z m 1.3968,-2.225492 -0.6151,0.0085 q -0.41862,0.01709 -0.59375,0.09397 -0.17514,0.07262 -0.26911,0.226394 -0.0897,0.153777 -0.0897,0.410071 0,0.328912 0.14951,0.491232 0.15378,0.158048 0.4058,0.158048 0.28192,0 0.51259,-0.153777 0.23494,-0.153777 0.36735,-0.422886 0.13242,-0.273381 0.13242,-0.576663 z"
         style="font-size:16px;-inkscape-font-specification:'Liberation Sans, sans-serif, Bold';fill:#ffffff"
         id="path14322"
         transform="matrix(0.26458333,0,0,0.26458333,169.70488,193.30606)" />
      <path
         d="m 106.92575,-32.084767 q -0.52968,0 -0.81588,-0.286196 -0.28619,-0.290467 -0.28619,-0.875673 v -2.725266 h -0.58521 v -0.8116 h 0.64501 l 0.3759,-1.08498 h 0.7518 v 1.08498 h 0.87567 v 0.8116 h -0.87567 v 2.400626 q 0,0.337455 0.12814,0.499775 0.12815,0.158048 0.39726,0.158048 0.14096,0 0.40153,-0.0598 v 0.743254 q -0.44424,0.145234 -1.01236,0.145234 z"
         style="font-size:16px;-inkscape-font-specification:'Liberation Sans, sans-serif, Bold';fill:#ffffff"
         id="path14324"
         transform="matrix(0.26458333,0,0,0.26458333,169.70488,193.30606)" />
      <path
         d="m 109.7877,-36.783502 v 2.592847 q 0,1.2174 0.82015,1.2174 0.4357,0 0.70053,-0.371627 0.26911,-0.375899 0.26911,-0.961105 v -2.477515 h 1.20032 v 3.588125 q 0,0.589478 0.0342,1.033722 h -1.14478 q -0.0513,-0.615108 -0.0513,-0.91839 h -0.0214 q -0.23921,0.525404 -0.61084,0.764613 -0.36735,0.239208 -0.87567,0.239208 -0.73471,0 -1.1277,-0.448515 -0.39298,-0.452788 -0.39298,-1.324189 v -2.934574 z"
         style="font-size:16px;-inkscape-font-specification:'Liberation Sans, sans-serif, Bold';fill:#ffffff"
         id="path14326"
         transform="matrix(0.26458333,0,0,0.26458333,169.70488,193.30606)" />
      <path
         d="m 113.99948,-32.161655 v -3.536866 q 0,-0.380171 -0.0128,-0.632194 -0.009,-0.256294 -0.0214,-0.452787 h 1.14478 q 0.0128,0.07689 0.0342,0.469874 0.0214,0.388713 0.0214,0.51686 h 0.0171 q 0.17513,-0.486959 0.31182,-0.683452 0.13669,-0.200764 0.32464,-0.294739 0.18795,-0.09825 0.46988,-0.09825 0.23066,0 0.37162,0.06407 v 1.00382 q -0.29046,-0.06407 -0.51259,-0.06407 -0.44851,0 -0.70053,0.363084 -0.24776,0.363084 -0.24776,1.076437 v 2.268208 z"
         style="font-size:16px;-inkscape-font-specification:'Liberation Sans, sans-serif, Bold';fill:#ffffff"
         id="path14328"
         transform="matrix(0.26458333,0,0,0.26458333,169.70488,193.30606)" />
      <path
         d="m 119.29623,-32.076224 q -1.04226,0 -1.60184,-0.615107 -0.55958,-0.619379 -0.55958,-1.802606 0,-1.144782 0.56812,-1.759889 0.56812,-0.615107 1.61039,-0.615107 0.99527,0 1.52068,0.662094 0.5254,0.657823 0.5254,1.930753 v 0.03417 h -2.96447 q 0,0.674909 0.24775,1.020906 0.25202,0.341727 0.71335,0.341727 0.63647,0 0.80306,-0.551034 l 1.13197,0.09825 q -0.49123,1.255844 -1.99483,1.255844 z m 0,-4.03664 q -0.42288,0 -0.65355,0.294739 -0.22639,0.294738 -0.23921,0.824414 h 1.79406 q -0.0342,-0.559577 -0.26911,-0.837229 -0.23493,-0.281924 -0.63219,-0.281924 z"
         style="font-size:16px;-inkscape-font-specification:'Liberation Sans, sans-serif, Bold';fill:#ffffff"
         id="path14330"
         transform="matrix(0.26458333,0,0,0.26458333,169.70488,193.30606)" />
    </g>
  </g>
</svg>
