<?xml version="1.0" encoding="UTF-8"?>
<svg width="1e3" height="304.78" fill="none" stroke-linecap="round" stroke-linejoin="round" version="1.1" viewBox="15 -292 264.58 80.638" xmlns="http://www.w3.org/2000/svg" xmlns:cc="http://creativecommons.org/ns#" xmlns:dc="http://purl.org/dc/elements/1.1/" xmlns:rdf="http://www.w3.org/1999/02/22-rdf-syntax-ns#">
	<metadata>
		<rdf:RDF>
			<cc:Work rdf:about="">
				<dc:format>image/svg+xml</dc:format>
				<dc:type rdf:resource="http://purl.org/dc/dcmitype/StillImage"/>
			</cc:Work>
		</rdf:RDF>
	</metadata>
	<defs>
		<clipPath id="clipPath3297">
			<path d="m67.666-280.52v0.17828c0.0068-2e-3 0.014-3e-3 0.02222-4e-3 0.0095-4e-4 0.01969 5e-4 0.031 3e-3 0.02691 5e-3 0.05452 2e-3 0.08165 1e-3 0.01302 1e-3 0.02627-1e-3 0.03927 5.3e-4 8e-3 1e-3 0.0163 2e-3 0.02429 3e-3 0.0041 0 0.0083 2e-3 0.01241 2e-3 7.94e-4 9e-5 0.0043 5.8e-4 0.0072 5.3e-4 7.94e-4 -1.7e-4 0.0021-4e-4 0.0026-5.3e-4 0.0016-3.5e-4 0.0035-8e-4 0.0052-1e-3 0.01614-3.1e-4 0.03241 1e-4 0.04857 0 0.01823-8.9e-4 0.03577 4e-3 0.05375 6e-3h5.29e-4c0.0016 1.5e-4 0.0035-9e-5 0.0052 0-0.0016-6.1e-4 -0.0019-7.4e-4 -0.0036-5.3e-4 0.0024-5e-4 0.0044-1e-3 0.0067-2e-3 0.0024-4e-4 0.01516-3e-5 0.01704 0 9e-3 2.6e-4 0.01008 1e-4 0.01498 0 0.0024-1e-5 0.0052-1e-5 0.0078 0 0.01241 5e-5 0.02368 2e-3 0.03359 4e-3v-0.19017zm0.32246 0.18914c-0.0044 9.5e-4 -0.0097 2e-3 -0.01138 3e-3l5.29e-4 5.3e-4c0.0036-8.5e-4 0.0074-2e-3 0.01085-3e-3z" fill="#f00"/>
		</clipPath>
		<clipPath id="clipPath3297-7-5">
			<path d="m67.666-280.52v0.17828c0.0068-2e-3 0.014-3e-3 0.02222-4e-3 0.0095-4e-4 0.01969 5e-4 0.031 3e-3 0.02691 5e-3 0.05452 2e-3 0.08165 1e-3 0.01302 1e-3 0.02627-1e-3 0.03927 5.3e-4 8e-3 1e-3 0.0163 2e-3 0.02429 3e-3 0.0041 0 0.0083 2e-3 0.01241 2e-3 7.94e-4 9e-5 0.0043 5.8e-4 0.0072 5.3e-4 7.94e-4 -1.7e-4 0.0021-4e-4 0.0026-5.3e-4 0.0016-3.5e-4 0.0035-8e-4 0.0052-1e-3 0.01614-3.1e-4 0.03241 1e-4 0.04857 0 0.01823-8.9e-4 0.03577 4e-3 0.05375 6e-3h5.29e-4c0.0016 1.5e-4 0.0035-9e-5 0.0052 0-0.0016-6.1e-4 -0.0019-7.4e-4 -0.0036-5.3e-4 0.0024-5e-4 0.0044-1e-3 0.0067-2e-3 0.0024-4e-4 0.01516-3e-5 0.01704 0 9e-3 2.6e-4 0.01008 1e-4 0.01498 0 0.0024-1e-5 0.0052-1e-5 0.0078 0 0.01241 5e-5 0.02368 2e-3 0.03359 4e-3v-0.19017zm0.32246 0.18914c-0.0044 9.5e-4 -0.0097 2e-3 -0.01138 3e-3l5.29e-4 5.3e-4c0.0036-8.5e-4 0.0074-2e-3 0.01085-3e-3z" fill="#f00"/>
		</clipPath>
		<clipPath id="clipPath3297-7-5-9">
			<path d="m67.666-280.52v0.17828c0.0068-2e-3 0.014-3e-3 0.02222-4e-3 0.0095-4e-4 0.01969 5e-4 0.031 3e-3 0.02691 5e-3 0.05452 2e-3 0.08165 1e-3 0.01302 1e-3 0.02627-1e-3 0.03927 5.3e-4 8e-3 1e-3 0.0163 2e-3 0.02429 3e-3 0.0041 0 0.0083 2e-3 0.01241 2e-3 7.94e-4 9e-5 0.0043 5.8e-4 0.0072 5.3e-4 7.94e-4 -1.7e-4 0.0021-4e-4 0.0026-5.3e-4 0.0016-3.5e-4 0.0035-8e-4 0.0052-1e-3 0.01614-3.1e-4 0.03241 1e-4 0.04857 0 0.01823-8.9e-4 0.03577 4e-3 0.05375 6e-3h5.29e-4c0.0016 1.5e-4 0.0035-9e-5 0.0052 0-0.0016-6.1e-4 -0.0019-7.4e-4 -0.0036-5.3e-4 0.0024-5e-4 0.0044-1e-3 0.0067-2e-3 0.0024-4e-4 0.01516-3e-5 0.01704 0 9e-3 2.6e-4 0.01008 1e-4 0.01498 0 0.0024-1e-5 0.0052-1e-5 0.0078 0 0.01241 5e-5 0.02368 2e-3 0.03359 4e-3v-0.19017zm0.32246 0.18914c-0.0044 9.5e-4 -0.0097 2e-3 -0.01138 3e-3l5.29e-4 5.3e-4c0.0036-8.5e-4 0.0074-2e-3 0.01085-3e-3z" fill="#f00"/>
		</clipPath>
		<clipPath id="clipPath3297-7-5-9-8-6">
			<path d="m67.666-280.52v0.17828c0.0068-2e-3 0.014-3e-3 0.02222-4e-3 0.0095-4e-4 0.01969 5e-4 0.031 3e-3 0.02691 5e-3 0.05452 2e-3 0.08165 1e-3 0.01302 1e-3 0.02627-1e-3 0.03927 5.3e-4 8e-3 1e-3 0.0163 2e-3 0.02429 3e-3 0.0041 0 0.0083 2e-3 0.01241 2e-3 7.94e-4 9e-5 0.0043 5.8e-4 0.0072 5.3e-4 7.94e-4 -1.7e-4 0.0021-4e-4 0.0026-5.3e-4 0.0016-3.5e-4 0.0035-8e-4 0.0052-1e-3 0.01614-3.1e-4 0.03241 1e-4 0.04857 0 0.01823-8.9e-4 0.03577 4e-3 0.05375 6e-3h5.29e-4c0.0016 1.5e-4 0.0035-9e-5 0.0052 0-0.0016-6.1e-4 -0.0019-7.4e-4 -0.0036-5.3e-4 0.0024-5e-4 0.0044-1e-3 0.0067-2e-3 0.0024-4e-4 0.01516-3e-5 0.01704 0 9e-3 2.6e-4 0.01008 1e-4 0.01498 0 0.0024-1e-5 0.0052-1e-5 0.0078 0 0.01241 5e-5 0.02368 2e-3 0.03359 4e-3v-0.19017zm0.32246 0.18914c-0.0044 9.5e-4 -0.0097 2e-3 -0.01138 3e-3l5.29e-4 5.3e-4c0.0036-8.5e-4 0.0074-2e-3 0.01085-3e-3z" fill="#f00"/>
		</clipPath>
	</defs>
	<g transform="translate(-8.4343 -2.8581)">
		<g fill="none" stroke="#000" stroke-linecap="round" stroke-linejoin="round">
			<g transform="matrix(1.3341 0 0 1.3282 154.89 77.501)" stroke-width=".19876">
				<path d="m70.072-252.31h29.51v-18.43h-29.51z" fill="none" stroke="#000" stroke-linecap="butt" stroke-linejoin="miter"/>
				<path d="m85.359-260.18 1.3324-0.64104-1.5392-0.43282 1.3708-0.55687-1.4713-0.42989 1.2468-0.50664-1.3088-0.33087 1.0813-0.60709-1.1802-0.32497 1.0118-0.6136-1.1329-0.46595 0.85227-0.47117-0.9527-0.36718 0.78284-0.57078-0.78284-0.41656 0.55837-0.52147-0.6396-0.39138 0.41506-0.59832-0.41506-0.42541 0.30282-0.3796-1.9159 0.0236-1.189 9.028h3.5732" fill="#000" stroke="#000"/>
				<g fill="none" stroke="#000" stroke-linecap="butt" stroke-linejoin="miter">
					<path d="m70.078-233.86h29.512v-18.429h-29.512z"/>
					<path d="m73.404-249.23h20.621v6.7638h-20.621"/>
					<path d="m72.74-242.46 9.1893-6.7638"/>
					<path d="m75.459-242.43 9.1893-6.7638"/>
					<path d="m78.227-242.46 9.1893-6.7638"/>
					<path d="m73.172-246.7 3.294-2.5215"/>
					<path d="m73.078-244.71 6.1094-4.4817"/>
					<path d="m83.786-242.47 9.1908-6.7638"/>
					<path d="m80.882-242.36 9.1893-6.7638"/>
					<path d="m86.538-242.45 7.5128-5.557"/>
					<path d="m89.262-242.46 4.743-3.5112"/>
					<path d="m92.005-242.46 2.0119-1.4771"/>
				</g>
				<g stroke="#000">
					<path d="m95.923-242.25 0.60564-2.1773-1.2865-4e-3 0.6809 2.1818" fill="#000"/>
					<path d="m95.923-249.4 0.60564 2.1773-1.2865 4e-3 0.6809-2.1802" fill="#000"/>
					<path d="m95.9-247.92v4.3856" fill="none" stroke-linecap="butt" stroke-linejoin="miter"/>
				</g>
				<text x="73.910011" y="-254.08136" fill="#000000" font-family="sans-serif" font-size="21.433px" letter-spacing="0px" stroke="none" word-spacing="0px" style="line-height:0%" xml:space="preserve"><tspan x="73.910011" y="-254.08136" font-family="sans-serif" font-size="5.0407px" stroke="none" stroke-width=".19876" style="line-height:1.25">220x220</tspan></text>
				<text x="78.958107" y="-235.89671" fill="#000000" font-family="sans-serif" font-size="21.433px" letter-spacing="0px" stroke="none" word-spacing="0px" style="line-height:0%" xml:space="preserve"><tspan x="78.958107" y="-235.89671" font-family="sans-serif" font-size="5.0407px" stroke="none" stroke-width=".19876" style="line-height:1.25">2-20</tspan></text>
				<g fill="none" stroke="#000" stroke-linecap="butt" stroke-linejoin="miter">
					<path d="m77.508-266.99 14.934 9e-3 3.3455 6.591h-21.938z"/>
					<g>
						<path d="m70.079-215.43h29.51v-18.43h-29.51z"/>
						<path d="m72.879-221.72 2.8346-0.0325v3.9646l-2.8982 7e-3"/>
						<path d="m72.815-219.6 2.0828-2.1551"/>
						<path d="m72.917-217.76 2.8154-2.7578"/>
						<path d="m96.82-221.72-9.3902-0.0325v3.9646l9.6782-0.0813"/>
						<path d="m92.367-217.79-4.1212-3.9647"/>
						<path d="m94.533-217.81-4.0281-3.8243"/>
						<path d="m90.226-217.76-2.8154-2.7578"/>
						<path d="m96.594-217.81-4.1197-3.9646"/>
						<path d="m96.835-219.76-2.102-1.9114"/>
						<path d="m75.747-217.42 11.65-0.028"/>
					</g>
				</g>
				<path d="m94.904-221.97 0.60564-2.1773-1.2866-4e-3 0.68097 2.1817" fill="#000" stroke="#000"/>
				<path d="m94.952-228.73 0.60556 2.1773-1.2865 4e-3 0.68097-2.1802" fill="#000" stroke="#000"/>
				<g fill="none" stroke="#000" stroke-linecap="butt">
					<path d="m94.928-227.25v4.3857" stroke-linejoin="miter"/>
					<g stroke-linejoin="round">
						<path d="m86.38-232.76-1.2039 0.20088 0.10043 0.70161s0.70162 0.30138 1.003 0.30138c0.30131 0 1.5052-0.90256 1.5052-0.90256s0-0.30131-0.30131-0.30131h-0.80213z"/>
						<path d="m91.395-232.81c-0.031 7e-3 -0.0532 0.0561-0.0694 0.12699-0.0546 0.2408-0.034 0.73708-0.034 0.73708s-0.24225 0.10341 0.48304 0.34564c0.72673 0.24232 0.89962 0.96904 1.3147 0.34714 0.41505-0.62334 0.69125-1.3486 0.69125-1.4534 0-0.10342-0.79464-0.24232-1.3826-0.24232-0.58786 0-1.003 0.13878-1.003 0.13878z"/>
						<path d="m97.336-230.01-1.0207-0.30426-2.1138-1.2202 0.68097-1.2452s1.8907 0.0355 2.4535 0.24814"/>
						<path d="m82.61-230.88 2.0208 1.3708 0.82277-1.1566s-0.60118-1.4033-1.037-1.8198c-0.43578-0.41514-3.4241-0.76818-3.4241-0.76818s-0.41506 0.43579 0.0207 0.85084c0.43578 0.41513 1.161 1.1079 1.161 1.1079z"/>
						<path d="m78.548-231.65s0.93358-0.83012 0.62191-0.86416c-0.31167-0.0354-0.58795-0.5539-1.2098-0.51843-0.62338 0.0339-1.1758 0.449-1.2453 0.55247-0.06943 0.10341-0.1034 0.69125 0.24225 0.69125 0.34565 0 1.5909 0.13878 1.5909 0.13878z"/>
						<path d="m76.67-231.13-2.4077 0.27468 0.20089 0.96315s1.4033 0.41362 2.006 0.41362c0.6012 0 3.009-1.2394 3.009-1.2394s0-0.4121-0.60118-0.4121h-1.6057z"/>
						<path d="m71.552-229.71c0.62335-0.0354 1.78-0.60118 1.8494-0.70455 0.06942-0.10342 0.1034-0.69134-0.24225-0.69134-0.34566 0-1.5909-0.13878-1.5909-0.13878"/>
						<path d="m75.047-231.48c0.03249-5e-3 0.0576-0.0532 0.07829-0.12252 0.07091-0.23635 0.08419-0.73263 0.08419-0.73263s0.24964-0.0872-0.45792-0.37815c-0.70903-0.29103-0.83162-1.0281-1.2881-0.43579-0.45644 0.59234-0.78289 1.2984-0.7888 1.4018-0.0074 0.10484 0.77698 0.29691 1.3634 0.33678 0.58643 0.0398 1.0089-0.0695 1.0089-0.0695z"/>
						<path d="m79.811-229.5c-0.031-7e-3 -0.0532-0.0561-0.0694-0.12699-0.0546-0.24073-0.034-0.73708-0.034-0.73708s-0.24224-0.10341 0.48449-0.34564c0.72529-0.24223 0.8981-0.96904 1.3132-0.34713 0.41506 0.62333 0.69277 1.3486 0.69277 1.4535 0 0.10342-0.79615 0.24225-1.3841 0.24225-0.58787 0-1.003-0.13878-1.003-0.13878z"/>
						<path d="m89.002-229.65 2.4078-0.40182-0.20095-1.4048s-1.4048-0.60118-2.0059-0.60118c-0.60269 0-3.0104 1.805-3.0104 1.805s0 0.6027 0.60269 0.6027h1.6042z"/>
						<path d="m94.43-229.56s0.93357-0.83011 0.6219-0.86407c-0.31167-0.0355-0.58794-0.55398-1.2098-0.51851-0.62334 0.0339-1.1758 0.44909-1.2452 0.55247-0.0694 0.10341-0.10337 0.69126 0.24225 0.69126 0.34563 0 1.5909 0.13878 1.5909 0.13878z"/>
						<path d="m71.58-229 25.674-0.025"/>
					</g>
					<path d="m75.747-217.42-1.6707 0.0125 0.0044 0.35009 7.3775 0.44116 7.5594-0.49581-3e-3 -0.34863-1.6175 0.0125 0.028-5.2843-11.637 0.0143z" stroke-linejoin="miter"/>
				</g>
				<text x="87.433624" y="-223.55063" fill="#000000" font-family="sans-serif" font-size="21.433px" letter-spacing="0px" stroke="none" word-spacing="0px" style="line-height:0%" xml:space="preserve"><tspan x="87.433624" y="-223.55063" font-family="sans-serif" font-size="5.0407px" stroke="none" stroke-width=".19876" style="line-height:1.25">40</tspan></text>
				<text x="71.811859" y="-272.22787" fill="#000000" font-family="sans-serif" font-size="21.433px" letter-spacing="0px" stroke="none" word-spacing="0px" style="line-height:0%" xml:space="preserve"><tspan x="71.811859" y="-272.22787" font-family="sans-serif" font-size="5.0407px" stroke="none" stroke-width=".19876" style="line-height:1.25">Units: mm</tspan></text>
			</g>
			<g stroke-width=".26496">
				<path transform="matrix(.99858 0 0 .99858 .16582 -.41152)" d="m143.86-256.84h-0.24611"/>
				<path transform="matrix(.99858 0 0 .99858 .16582 -.41152)" d="m146.32-250.2h-0.44536"/>
				<path transform="matrix(.99858 0 0 .99858 .16582 -.41152)" d="m211.65-251.05h-1.1641"/>
				<path transform="matrix(.99858 0 0 .99858 .16582 -.41152)" d="m141.49-256.84h-0.0144"/>
				<path transform="matrix(.99858 0 0 .99858 .16582 -.41152)" d="m149.6-251.05h-3.2663"/>
				<path transform="matrix(.99858 0 0 .99858 .16582 -.41152)" d="m132.43-244.49h86.281"/>
				<path transform="matrix(.99858 0 0 .99858 .16582 -.41152)" d="m141.34-251.05h-0.67474"/>
				<path transform="matrix(.99858 0 0 .99858 .16582 -.41152)" d="m210.48-251.05 0.0954 5.79"/>
				<path transform="matrix(.99858 0 0 .99858 .16582 -.41152)" d="m218.9-245.26h-86.657"/>
				<path transform="matrix(.99858 0 0 .99858 .16582 -.41152)" d="m140.67-251.05-0.0954 5.79"/>
				<path transform="matrix(.99858 0 0 .99858 .16582 -.41152)" d="m140.67-251.05h-1.1642"/>
				<path transform="matrix(.99858 0 0 .99858 .16582 -.41152)" d="m210.48-251.05h-8.9293"/>
				<path transform="matrix(.99858 0 0 .99858 .16582 -.41152)" d="m177.11-251.05h-3.0742"/>
				<path transform="matrix(.99858 0 0 .99858 .16582 -.41152)" d="m151.97-251.05h-2.3775"/>
				<path transform="matrix(.99858 0 0 .99858 .16582 -.41152)" d="m145.88-251.05h-1.2938"/>
				<path transform="matrix(.99858 0 0 .99858 .16582 -.41152)" d="m145.88-251.05h0.44537"/>
				<path transform="matrix(.99858 0 0 .99858 .16582 -.41152)" d="m199.17-251.05h-22.063"/>
				<path transform="matrix(.99858 0 0 .99858 .16582 -.41152)" d="m174.04-251.05h-22.063"/>
				<path transform="matrix(.99858 0 0 .99858 .16582 -.41152)" d="m146.33-251.05-0.0122 0.84918"/>
				<path transform="matrix(.99858 0 0 .99858 .16582 -.41152)" d="m145.87-250.2 0.0122-0.84918"/>
				<path transform="matrix(.99858 0 0 .99858 .16582 -.41152)" d="m201.55-251.05h-2.3775"/>
				<path transform="matrix(.99858 0 0 .99858 .16582 -.41152)" d="m218.71-244.49a0.18839 0.193 0 0 0 0.18839-0.19315"/>
				<path transform="matrix(.99858 0 0 .99858 .16582 -.41152)" d="m139.5-251.05-0.0986 5.79"/>
				<path transform="matrix(.99858 0 0 .99858 .16582 -.41152)" d="m218.9-245.26v0.57901"/>
				<path transform="matrix(.99858 0 0 .99858 .16582 -.41152)" d="m211.65-251.05 0.0987 5.79"/>
				<path transform="matrix(.99858 0 0 .99858 .16582 -.41152)" d="m132.25-245.26v0.57901"/>
				<path transform="matrix(.99858 0 0 .99858 .16582 -.41152)" d="m132.25-244.68a0.18839 0.193 0 0 0 0.18839 0.19315"/>
				<path transform="matrix(.99858 0 0 .99858 .16582 -.41152)" d="m141.21-245.26 0.25779-11.58"/>
				<path transform="matrix(.99858 0 0 .99858 .16582 -.41152)" d="m209.68-256.84h-0.11628"/>
				<path transform="matrix(.99858 0 0 .99858 .16582 -.41152)" d="m206.25-256.84h0.70062"/>
				<path transform="matrix(.99858 0 0 .99858 .16582 -.41152)" d="m206.95-256.84v5.018"/>
				<path transform="matrix(.99858 0 0 .99858 .16582 -.41152)" d="m206.95-256.84h0.84974"/>
				<path transform="matrix(.99858 0 0 .99858 .16582 -.41152)" d="m207.8-256.84-0.0791 5.018"/>
				<path transform="matrix(.99858 0 0 .99858 .16582 -.41152)" d="m209.56-256.84h-1.4607"/>
				<path transform="matrix(.99858 0 0 .99858 .16582 -.41152)" d="m207.73-251.82h-1.5504"/>
				<path transform="matrix(.99858 0 0 .99858 .16582 -.41152)" d="m208.04-251.84c0.0207-1.6639 0.0414-3.3304 0.0618-4.9995"/>
				<path transform="matrix(.99858 0 0 .99858 .16582 -.41152)" d="m206.17-251.82 0.0791-5.018"/>
				<path transform="matrix(.99858 0 0 .99858 .16582 -.41152)" d="m208.1-256.84h-0.2966"/>
				<path transform="matrix(.99858 0 0 .99858 .16582 -.41152)" d="m205.69-251.82c0.0458-1.6701 0.0916-3.3429 0.13735-5.0183"/>
				<path transform="matrix(.99858 0 0 .99858 .16582 -.41152)" d="m206.25-256.84h-0.42434"/>
				<path transform="matrix(.99858 0 0 .99858 .16582 -.41152)" d="m209.81-251.94-0.1289-4.9007"/>
				<path transform="matrix(.99858 0 0 .99858 .16582 -.41152)" d="m209.56-256.84 0.1289 4.9054"/>
				<path transform="matrix(.99858 0 0 .99858 .16582 -.41152)" d="m218.9-244.68h-86.657"/>
				<path transform="matrix(.99858 0 0 .99858 .16582 -.41152)" d="m143.61-256.84h-2.1271"/>
				<path transform="matrix(.99858 0 0 .99858 .16582 -.41152)" d="m145.32-256.84h-1.4607"/>
				<path transform="matrix(.99858 0 0 .99858 .16582 -.41152)" d="m145.46-251.86c-0.0458-1.6576-0.0916-3.3178-0.13734-4.9807"/>
				<path transform="matrix(.99858 0 0 .99858 .16582 -.41152)" d="m141.23-245.26 0.25779-11.58"/>
			</g>
		</g>
		<g fill-rule="evenodd" stroke="#000" stroke-linecap="butt" stroke-linejoin="miter">
			<rect transform="matrix(4.2161 0 0 4.2204 -75.675 931.25)" x="67.688" y="-280.5" width=".366" height=".20959" rx=".082017" ry=".082018" clip-path="url(#clipPath3297)" fill="#000" stroke-width=".062724"/>
			<rect transform="matrix(.99858 0 0 .99858 .16582 -.41152)" x="139.73" y="-252.63" width="1.5472" height=".88581" rx=".34664" ry=".34664" fill="#000" stroke-width=".26496"/>
			<rect transform="matrix(.99858 0 0 .99858 .16582 -.41152)" x="139.5" y="-252.02" width="1.8171" height=".8904" ry="0" fill="#fff" stroke-width=".26496"/>
			<g transform="matrix(4.2161 0 0 4.2204 -75.675 931.25)" fill="#000" stroke-width=".062724">
				<rect x="67.159" y="-282.43" width=".33365" height="2.0644"/>
				<path d="m67.195-282.67 3.2925 3.8376v0.49921l-3.2925-3.8376z"/>
				<ellipse cx="67.236" cy="-282.4" rx=".32495" ry=".33257"/>
				<path d="m66.917-282.47h0.33534l-0.02155 0.73259-0.31379-0.17098z"/>
			</g>
			<g transform="matrix(4.2161 0 0 4.2204 -76.351 931.46)" fill="#000" stroke-width=".062724">
				<rect x="51.846" y="-282.11" width=".38541" height="1.9798" ry="0"/>
				<path d="m52.211-282.5v0.0203l0.0016 0.83837 0.34179-0.20959v-0.64912h-0.34336z" color="#000000" color-rendering="auto" image-rendering="auto" shape-rendering="auto" solid-color="#000000" style="isolation:auto;mix-blend-mode:normal;text-decoration-color:#000000;text-decoration-line:none;text-decoration-style:solid;text-indent:0;text-transform:none;white-space:normal"/>
				<path d="m50.137-278.94 1.8482-3.6579 0.15112 0.4069-1.9284 3.8973z"/>
				<ellipse cx="52.221" cy="-282.43" rx=".32495" ry=".33257"/>
				<path d="m51.514-281.57h0.47255v1.4465l-0.49921-0.0176z"/>
			</g>
		</g>
		<g stroke="#000" stroke-linejoin="miter">
			<rect transform="matrix(.99858 0 0 .99858 .16582 -.41152)" x="23.572" y="-284.48" width="73.203" height="71.587" fill="none" stroke-linecap="round" stroke-width=".26496" style="paint-order:markers stroke fill"/>
			<rect transform="matrix(.99858 0 0 .99858 .16582 -.41152)" x="36.4" y="-271.43" width="47.593" height="46.542" fill="none" stroke-linecap="round" stroke-width=".26496" style="paint-order:markers stroke fill"/>
			<g stroke-linecap="butt">
				<rect transform="matrix(4.2161 0 0 4.2204 -85.932 931.24)" x="67.688" y="-280.5" width=".366" height=".20959" rx=".082017" ry=".082018" clip-path="url(#clipPath3297-7-5)" fill="#000" fill-rule="evenodd" stroke-width=".062724"/>
				<rect transform="matrix(4.2161 0 0 4.2204 -110.6 931.2)" x="67.688" y="-280.5" width=".366" height=".20959" rx=".082017" ry=".082018" clip-path="url(#clipPath3297-7-5-9)" fill="#000" fill-rule="evenodd" stroke-width=".062724"/>
				<rect transform="matrix(.99858 0 0 .99858 .16582 -.41152)" x="143.91" y="-251.82" width="67.681" height=".7502" ry="0" fill="none" stroke-width=".26496"/>
				<rect transform="matrix(4.2161 0 0 4.2204 -135.32 931.29)" x="67.688" y="-280.5" width=".366" height=".20959" rx=".082017" ry=".082018" clip-path="url(#clipPath3297-7-5-9-8-6)" fill="#000" fill-rule="evenodd" stroke-width=".062724"/>
			</g>
		</g>
		<g fill="#666" stroke="#000" stroke-linecap="square" stroke-linejoin="round" stroke-width=".26496">
			<path transform="matrix(.99858 0 0 .99858 .16582 -.41152)" d="m127.23-245.38h8.1459"/>
			<path transform="matrix(.99858 0 0 .99858 .16582 -.41152)" d="m127.23-262.16h8.1459"/>
			<path transform="matrix(.99858 0 0 .99858 .16582 -.41152)" d="m212.15-239.87v-8.3455"/>
			<path transform="matrix(.99858 0 0 .99858 .16582 -.41152)" d="m139.05-239.87v-8.3455"/>
		</g>
		<g fill="none" stroke="#000" stroke-linecap="round" stroke-linejoin="round" stroke-width=".26496">
			<g transform="matrix(.99856 0 0 .99856 .16626 -2.0021)">
				<path d="m210.17-239.88h-69.668" fill="#4d4d4d" stroke-linecap="butt" stroke-linejoin="miter"/>
				<path d="m141.14-240.69v1.6382l-2.0843-0.81566 2.0843-0.82936" fill="#000" stroke-linecap="round" stroke-linejoin="round"/>
				<path d="m210-239.06v-1.6382l2.0843 0.81563-2.0843 0.82937" fill="#000" stroke-linecap="round" stroke-linejoin="round"/>
			</g>
			<g transform="matrix(0 .99856 -.99856 0 -110.72 -401.06)">
				<path d="m154.28-239.88h-13.775" fill="#4d4d4d" stroke-linecap="butt" stroke-linejoin="miter"/>
				<path d="m141.14-240.69v1.6382l-2.0843-0.81566 2.0843-0.82936" fill="#000" stroke-linecap="round" stroke-linejoin="round"/>
				<path d="m153.76-239.06v-1.6382l2.0843 0.81563-2.0843 0.82937" fill="#000" stroke-linecap="round" stroke-linejoin="round"/>
			</g>
			<g transform="matrix(.99856 0 0 .99856 -115.16 -14.43)">
				<path d="m210.17-239.88h-69.668" fill="#4d4d4d" stroke-linecap="butt" stroke-linejoin="miter"/>
				<path d="m141.14-240.69v1.6382l-2.0843-0.81566 2.0843-0.82936" fill="#000" stroke-linecap="round" stroke-linejoin="round"/>
				<path d="m210.17-239.06v-1.6382l2.0843 0.81563-2.0843 0.82937" fill="#000" stroke-linecap="round" stroke-linejoin="round"/>
			</g>
			<g transform="matrix(.99856 0 0 .99856 -115.16 -4.3906)">
				<path d="m198.01-239.88h-44.543" fill="#4d4d4d" stroke-linecap="butt" stroke-linejoin="miter"/>
				<path d="m153.97-240.69v1.6382l-2.0843-0.81566 2.0843-0.82936" fill="#000" stroke-linecap="round" stroke-linejoin="round"/>
				<path d="m197.41-239.09v-1.6382l2.0843 0.81563-2.0843 0.82937" fill="#000" stroke-linecap="round" stroke-linejoin="round"/>
			</g>
		</g>
		<g fill="#000000" font-family="Lato" font-size="4.2332px" letter-spacing="0px" stroke-linecap="butt" stroke-linejoin="miter" stroke-width=".26496" word-spacing="0px">
			<text transform="matrix(.98708 0 0 1.0102 .16582 -.41152)" x="60.367184" y="-236.36334" style="font-variant-caps:normal;font-variant-east-asian:normal;font-variant-ligatures:normal;font-variant-numeric:normal;line-height:0%" xml:space="preserve"><tspan x="60.367184" y="-236.36334" fill="#000000" font-family="Lato" font-size="4.2332px" stroke-width=".26496" style="font-variant-caps:normal;font-variant-east-asian:normal;font-variant-ligatures:normal;font-variant-numeric:normal;line-height:1.25">B</tspan></text>
			<text transform="matrix(.98708 0 0 1.0102 .16582 -.41152)" x="176.74362" y="-233.89841" style="font-variant-caps:normal;font-variant-east-asian:normal;font-variant-ligatures:normal;font-variant-numeric:normal;line-height:0%" xml:space="preserve"><tspan x="176.74362" y="-233.89841" fill="#000000" font-family="Lato" font-size="4.2332px" stroke-width=".26496" style="font-variant-caps:normal;font-variant-east-asian:normal;font-variant-ligatures:normal;font-variant-numeric:normal;line-height:1.25">D</tspan></text>
			<text transform="matrix(.98708 0 0 1.0102 .16582 -.41152)" x="125.87662" y="-249.59029" style="font-variant-caps:normal;font-variant-east-asian:normal;font-variant-ligatures:normal;font-variant-numeric:normal;line-height:0%" xml:space="preserve"><tspan x="125.87662" y="-249.59029" fill="#000000" font-family="Lato" font-size="4.2332px" stroke-width=".26496" style="font-variant-caps:normal;font-variant-east-asian:normal;font-variant-ligatures:normal;font-variant-numeric:normal;line-height:1.25">C</tspan></text>
			<text transform="matrix(.98708 0 0 1.0102 .16582 -.41152)" x="60.367184" y="-246.3669" style="font-variant-caps:normal;font-variant-east-asian:normal;font-variant-ligatures:normal;font-variant-numeric:normal;line-height:0%" xml:space="preserve"><tspan x="60.367184" y="-246.3669" fill="#000000" font-family="Lato" font-size="4.2332px" stroke-width=".26496" style="font-variant-caps:normal;font-variant-east-asian:normal;font-variant-ligatures:normal;font-variant-numeric:normal;line-height:1.25">A</tspan></text>
		</g>
	</g>
</svg>
