<svg width="640" height="655" version="1.1" viewBox="0 0 169.33 173.3" xmlns="http://www.w3.org/2000/svg"><g fill-rule="evenodd"><g transform="translate(0 -7.3188)"><path transform="matrix(.28326 0 0 .28324 84.955 28.924)" d="m0 161.56-2.7702-2.851-2.6707-2.898-2.5602-3.138-2.4592-3.08-2.3457-3.217-2.2367-3.251-2.1153-3.381-2.002-3.411-1.8578-3.629-1.7709-3.46-1.601-3.767-1.4969-3.687-1.3758-3.701-1.2076-3.899-1.1053-3.811-0.9812-3.813-0.8289-3.906-0.7323-3.8089-0.5775-3.8944-0.385-4.0666-0.3233-3.8681-0.2352-3.7602-0.0765-3.8307 0.0466-3.8071 0.1275-3.6919 0.2885-3.7511 0.4087-3.7181 0.4363-3.51 0.5483-3.4743 0.6593-3.4356 0.769-3.3943 0.8257-3.2674 0.877-3.1405 0.977-3.0947 1.0198-2.9665 1.057-2.8387 1.1475-2.7895 1.1165-2.5843 1.1986-2.5347 1.1542-2.3338 1.2283-2.2845 1.2359-2.161 1.2383-2.039 1.2357-1.9188 1.2968-1.8696 1.2164-1.6832 1.1989-1.5694 1.2491-1.5231 1.2244-1.4116 1.1205-1.2401 1.1604-1.198 1.1223-1.0949 1.08-0.9949 1.1123-0.95539 0.98392-0.8032 0.76783-0.60412 0.62411-0.47022 0.47417-0.34445 0.48543-0.32741 0.32739-0.2126 0.24912-0.15366-0.00406-0.007478-0.003929-0.007547-0.003796-0.007614-0.003663-0.00768-0.003528-0.007742-0.003393-0.007803-0.003256-0.00786-0.003118-0.007917-0.00298-0.007969-0.00284-0.008021-0.095428 0.022061-0.00307-0.009738-0.0029-0.009789-0.002729-0.009839-0.002556-0.009885-0.002383-0.009928-0.09758 0.010304-0.002375-0.011673-0.00217-0.011712-0.001966-0.011748-0.001761-0.011781-0.001555-0.01181-0.098314-0.0016436-0.001305-0.013551-0.001068-0.013572-8.31e-4 -0.013588-5.94e-4 -0.0136-0.097841-0.011907-1.34e-4 -0.015314 1.34e-4 -0.015314 4.01e-4 -0.01531 6.68e-4 -0.0153 9.35e-4 -0.015286 0.001201-0.015268-0.095498-0.025436 0.001927-0.016908 0.002221-0.016871 0.002515-0.01683 0.002808-0.016783 0.003101-0.016732 0.003393-0.016675 0.003683-0.016613 0.003973-0.016547 0.00426-0.016475 0.004548-0.016397 0.004833-0.016316 0.005117-0.01623-0.08679-0.04788 0.00625-0.017645 0.00655-0.017533 0.006865-0.017416 0.007164-0.017293 0.007463-0.017166 0.007763-0.017033 0.008058-0.016895 0.008353-0.016752 0.008643-0.016603 0.008931-0.01645 0.009218-0.016292 0.0095-0.016128-0.072904-0.067628 0.010971-0.017222 0.011271-0.017028 0.011566-0.016828 0.011858-0.016625 0.012146-0.016415 0.012431-0.0162 0.012712-0.015981 0.012989-0.015757 0.013262-0.015527 0.013531-0.015294 0.013795-0.015055 0.014056-0.014812 0.014313-0.014565 0.014565-0.014313 0.014812-0.014056 0.015055-0.013795 0.015294-0.013531 0.015527-0.013262 0.015757-0.012989 0.015981-0.012712 0.0162-0.012431 0.016415-0.012146 0.016625-0.011858 0.016828-0.011566 0.017028-0.011271 0.017222-0.010971 0.017411-0.010674 0.017595-0.01036 0.017773-0.01006 0.063719 0.076349 0.016603-0.008643 0.016752-0.008353 0.016895-0.008058 0.017033-0.007763 0.017166-0.007463 0.017293-0.007164 0.017416-0.006865 0.017533-0.00655 0.017645-0.00625 0.017751-0.00594 0.017852-0.00563 0.017948-0.00531 0.043272 0.089172 0.016475-0.00426 0.016547-0.003973 0.016613-0.003683 0.016675-0.003393 0.016732-0.003101 0.016783-0.002808 0.01683-0.002515 0.016871-0.002221 0.016908-0.001927 0.016938-0.001631 0.016964-0.001335 0.016985-0.001039 0.020403 0.096699 0.01531-4.01e-4 0.015314-1.34e-4 0.015314 1.34e-4 0.01531 4.01e-4 0.0153 6.68e-4 0.0084852 0.098197 0.013572 0.001068 0.013551 0.001305 0.013526 0.001541 0.013497 0.001777-0.001788 0.098312 0.011748 0.001966 0.011712 0.00217 0.011673 0.002375 0.011629 0.002578-0.012005 0.097385 0.009885 0.002556 0.009839 0.002729 0.009789 0.0029 0.009738 0.00307 0.009682 0.00324-0.023722 0.095028 0.007969 0.00298 0.007917 0.003118 0.00786 0.003256 0.007803 0.003393 0.007742 0.003528 0.00768 0.003663 0.007614 0.003796-0.038226 0.090016 0.005982 0.003248 0.005924 0.003352 0.005865 0.003455 0.005804 0.003556 0.00574 0.003657 0.060198-0.077074 0.007012 0.004819 0.29347-0.38946 0.65913-0.84642 0.92875-1.1307 1.1524-1.3258 1.3243-1.4353 1.3111-1.3163 1.3581-1.2718 1.4704-1.2974 1.4498-1.178 1.5621-1.1987 1.6768-1.2148 1.7224-1.1594 1.8389-1.1681 2.1046-1.2996 2.0799-1.1677 2.2017-1.1611 2.3249-1.1491 2.5273-1.1907 2.4972-1.0508 2.7015-1.0815 2.748-0.9935 2.9556-1.0105 3.0012-0.9142 3.0442-0.8168 3.1693-0.7667 3.3795-0.7585 3.3337-0.6028 3.5435-0.5832 3.5796-0.468 3.7013-0.3929 3.6439-0.2329 3.6712-0.1146 3.8762-0.0685 3.8088 0.0927 3.9197 0.1831 3.937 0.3109 3.9509 0.4392 3.8683 0.5967 3.9687 0.696 3.784 0.8763 3.972 0.9526 3.875 1.105 3.773 1.2526 3.763 1.3765 3.652 1.5176 3.731 1.6228 3.615 1.7602 3.398 1.9041 3.564 1.9968 3.339 2.1334 3.307 2.2455 3.269 2.3573 3.036 2.4752 3.091 2.5771 2.948 2.6834 2.901 2.7855 2.753 2.8834 2.603 2.9752 2.547 3.0677 2.393 3.1507 2.235 3.2275 2.271 3.3218 2.014 3.3795 1.948 3.4561 1.784 3.5146 1.715 3.5854 1.549 3.6345 1.382 3.6773 1.309 3.7372 1.139 3.7705 0.971 3.7974 0.894 3.8464 0.817 3.8938 0.554 3.8763 0.475 3.9143 0.397 3.9506 0.135 3.9124 0.057 3.9394-0.112 3.925-0.279 3.9045-0.358 3.9206-0.437 3.935-0.688 3.8564-0.766 3.862-0.927 3.816-1.003 3.817-1.163 3.762-1.318 3.703-1.472 3.637-1.543 3.623-1.693 3.548-1.84 3.47-1.906 3.445-2.048 3.358-2.187 3.265-2.321 3.168-2.379 3.131-2.508 3.026-2.564 2.984-2.686 2.873-2.805 2.756-2.919 2.636-2.963 2.583-3.071 2.457-3.111 2.4-3.21 2.268-3.306 2.131-3.396 1.991-3.423 1.927-3.505 1.781-3.582 1.634-3.6 1.564-3.668 1.412-3.681 1.341-3.79 1.101-3.793 1.026-3.841 0.865-3.8394 0.79-3.8785 0.626-3.9116 0.462-3.8989 0.384-3.9228 0.217-3.9406 0.049-3.952-0.12-3.8904-0.106-3.9592-0.46-3.8913-0.446-3.8839-0.615-3.8433-0.692-3.8262-0.862-3.803-1.03-3.7732-1.2-3.7168-1.273-3.6776-1.441-3.6151-1.511-3.5817-1.773-3.5099-1.841-3.4367-1.908-3.3725-2.069-3.2936-2.132-3.227-2.386-3.1339-2.348-3.0517-2.502-2.9633-2.653-2.8689-2.803" fill="#fcff5c" fill-opacity=".70588"/><path transform="matrix(.28326 0 0 .28324 84.955 28.924)" d="m0 161.56-2.7702-2.851-2.6707-2.898-2.5602-3.138-2.4592-3.08-2.3457-3.217-2.2367-3.251-2.1153-3.381-2.002-3.411-1.8578-3.629-1.7709-3.46-1.601-3.767-1.4969-3.687-1.3758-3.701-1.2076-3.899-1.1053-3.811-0.9812-3.813-0.8289-3.906-0.7323-3.8089-0.5775-3.8944-0.385-4.0666-0.3233-3.8681-0.2352-3.7602-0.0765-3.8307 0.0466-3.8071 0.1275-3.6919 0.2885-3.7511 0.4087-3.7181 0.4363-3.51 0.5483-3.4743 0.6593-3.4356 0.769-3.3943 0.8257-3.2674 0.877-3.1405 0.977-3.0947 1.0198-2.9665 1.057-2.8387 1.1475-2.7895 1.1165-2.5843 1.1986-2.5347 1.1542-2.3338 1.2283-2.2845 1.2359-2.161 1.2383-2.039 1.2357-1.9188 1.2968-1.8696 1.2164-1.6832 1.1989-1.5694 1.2491-1.5231 1.2244-1.4116 1.1205-1.2401 1.1604-1.198 1.1223-1.0949 1.08-0.9949 1.1123-0.95539 0.98392-0.8032 0.76783-0.60412 0.62411-0.47022 0.47417-0.34445 0.48543-0.32741 0.32739-0.2126 0.24912-0.15366-0.00406-0.007478-0.003929-0.007547-0.003796-0.007614-0.003663-0.00768-0.003528-0.007742-0.003393-0.007803-0.003256-0.00786-0.003118-0.007917-0.00298-0.007969-0.00284-0.008021-0.095428 0.022061-0.00307-0.009738-0.0029-0.009789-0.002729-0.009839-0.002556-0.009885-0.002383-0.009928-0.09758 0.010304-0.002375-0.011673-0.00217-0.011712-0.001966-0.011748-0.001761-0.011781-0.001555-0.01181-0.098314-0.0016436-0.001305-0.013551-0.001068-0.013572-8.31e-4 -0.013588-5.94e-4 -0.0136-0.097841-0.011907-1.34e-4 -0.015314 1.34e-4 -0.015314 4.01e-4 -0.01531 6.68e-4 -0.0153 9.35e-4 -0.015286 0.001201-0.015268-0.095498-0.025436 0.001927-0.016908 0.002221-0.016871 0.002515-0.01683 0.002808-0.016783 0.003101-0.016732 0.003393-0.016675 0.003683-0.016613 0.003973-0.016547 0.00426-0.016475 0.004548-0.016397 0.004833-0.016316 0.005117-0.01623-0.08679-0.04788 0.00625-0.017645 0.00655-0.017533 0.006865-0.017416 0.007164-0.017293 0.007463-0.017166 0.007763-0.017033 0.008058-0.016895 0.008353-0.016752 0.008643-0.016603 0.008931-0.01645 0.009218-0.016292 0.0095-0.016128-0.072904-0.067628 0.010971-0.017222 0.011271-0.017028 0.011566-0.016828 0.011858-0.016625 0.012146-0.016415 0.012431-0.0162 0.012712-0.015981 0.012989-0.015757 0.013262-0.015527 0.013531-0.015294 0.013795-0.015055 0.014056-0.014812 0.014313-0.014565 0.014565-0.014313 0.014812-0.014056 0.015055-0.013795 0.015294-0.013531 0.015527-0.013262 0.015757-0.012989 0.015981-0.012712 0.0162-0.012431 0.016415-0.012146 0.016625-0.011858 0.016828-0.011566 0.017028-0.011271 0.017222-0.010971 0.017411-0.010674 0.017595-0.01036 0.017773-0.01006 0.063719 0.076349 0.016603-0.008643 0.016752-0.008353 0.016895-0.008058 0.017033-0.007763 0.017166-0.007463 0.017293-0.007164 0.017416-0.006865 0.017533-0.00655 0.017645-0.00625 0.017751-0.00594 0.017852-0.00563 0.017948-0.00531 0.043272 0.089172 0.016475-0.00426 0.016547-0.003973 0.016613-0.003683 0.016675-0.003393 0.016732-0.003101 0.016783-0.002808 0.01683-0.002515 0.016871-0.002221 0.016908-0.001927 0.016938-0.001631 0.016964-0.001335 0.016985-0.001039 0.020403 0.096699 0.01531-4.01e-4 0.015314-1.34e-4v0l0.015314 1.34e-4 0.01531 4.01e-4 0.0153 6.68e-4 0.0084852 0.098197 0.013572 0.001068 0.013551 0.001305 0.013526 0.001541 0.013497 0.001777-0.001788 0.098312 0.011748 0.001966 0.011712 0.00217 0.011673 0.002375 0.011629 0.002578-0.012005 0.097385 0.009885 0.002556 0.009839 0.002729 0.009789 0.0029 0.009738 0.00307 0.009682 0.00324-0.023722 0.095028 0.007969 0.00298 0.007917 0.003118 0.00786 0.003256 0.007803 0.003393 0.007742 0.003528 0.00768 0.003663 0.007614 0.003796-0.038226 0.090016 0.005982 0.003248 0.005924 0.003352 0.005865 0.003455 0.005804 0.003556 0.00574 0.003657 0.060198-0.077074 0.007012 0.004819 0.29347-0.38946 0.65913-0.84642 0.92875-1.1307 1.1524-1.3258 1.3243-1.4353 1.3111-1.3163 1.3581-1.2718 1.4704-1.2974 1.4498-1.178 1.5621-1.1987 1.6768-1.2148 1.7224-1.1594 1.8389-1.1681 2.1046-1.2996 2.0799-1.1677 2.2017-1.1611 2.3249-1.1491 2.5273-1.1907 2.4972-1.0508 2.7015-1.0815 2.748-0.9935 2.9556-1.0105 3.0012-0.9142 3.0442-0.8168 3.1693-0.7667 3.3795-0.7585 3.3337-0.6028 3.5435-0.5832 3.5796-0.468 3.7013-0.3929 3.6439-0.2329 3.6712-0.1146 3.8762-0.0685 3.8088 0.0927 3.9197 0.1831 3.937 0.3109 3.9509 0.4392 3.8683 0.5967 3.9687 0.696 3.784 0.8763 3.972 0.9526 3.875 1.105 3.773 1.2526 3.763 1.3765 3.652 1.5176 3.731 1.6228 3.615 1.7602 3.398 1.9041 3.564 1.9968 3.339 2.1334 3.307 2.2455 3.269 2.3573 3.036 2.4752 3.091 2.5771 2.948 2.6834 2.901 2.7855 2.753 2.8834 2.603 2.9752 2.547 3.0677 2.393 3.1507 2.235 3.2275 2.271 3.3218 2.014 3.3795 1.948 3.4561 1.784 3.5146 1.715 3.5854 1.549 3.6345 1.382 3.6773 1.309 3.7372 1.139 3.7705 0.971 3.7974 0.894 3.8464 0.817 3.8938 0.554 3.8763 0.475 3.9143 0.397 3.9506 0.135 3.9124 0.057 3.9394-0.112 3.925-0.279 3.9045-0.358 3.9206-0.437 3.935-0.688 3.8564-0.766 3.862-0.927 3.816-1.003 3.817-1.163 3.762-1.318 3.703-1.472 3.637-1.543 3.623-1.693 3.548-1.84 3.47-1.906 3.445-2.048 3.358-2.187 3.265-2.321 3.168-2.379 3.131-2.508 3.026-2.564 2.984-2.686 2.873-2.805 2.756-2.919 2.636-2.963 2.583-3.071 2.457-3.111 2.4-3.21 2.268-3.306 2.131-3.396 1.991-3.423 1.927-3.505 1.781-3.582 1.634-3.6 1.564-3.668 1.412-3.681 1.341-3.79 1.101-3.793 1.026-3.841 0.865-3.8394 0.79-3.8785 0.626-3.9116 0.462-3.8989 0.384-3.9228 0.217-3.9406 0.049-3.952-0.12-3.8904-0.106-3.9592-0.46-3.8913-0.446-3.8839-0.615-3.8433-0.692-3.8262-0.862-3.803-1.03-3.7732-1.2-3.7168-1.273-3.6776-1.441-3.6151-1.511-3.5817-1.773-3.5099-1.841-3.4367-1.908-3.3725-2.069-3.2936-2.132-3.227-2.386-3.1339-2.348-3.0517-2.502-2.9633-2.653-2.8689-2.803" fill="none" stroke="#fcff5c" stroke-linecap="round" stroke-linejoin="round" stroke-width="3.7364"/></g><g stroke-linejoin="round"><g fill="#848484" font-family="Lato"><g font-size="14.937px" stroke-width="1.2448"><text transform="matrix(.28341 0 0 .28341 23.833 21.685)" x="472" y="6.5" style="font-variant-caps:normal;font-variant-east-asian:normal;font-variant-ligatures:normal;font-variant-numeric:normal" xml:space="preserve">90°</text><text transform="matrix(.28341 0 0 .28341 145.55 21.685)" x="-496" y="6.5" style="font-variant-caps:normal;font-variant-east-asian:normal;font-variant-ligatures:normal;font-variant-numeric:normal" xml:space="preserve">90°</text><text transform="matrix(.28341 0 0 .28341 83.593 20.544)" x="233.98399" y="421.297" style="font-variant-caps:normal;font-variant-east-asian:normal;font-variant-ligatures:normal;font-variant-numeric:normal" xml:space="preserve"> 30°</text><text transform="matrix(.28341 0 0 .28341 41.92 -4.9927)" x="405.297" y="250" style="font-variant-caps:normal;font-variant-east-asian:normal;font-variant-ligatures:normal;font-variant-numeric:normal" xml:space="preserve"> 60°</text><text transform="matrix(.28341 0 0 .28341 85.908 20.544)" x="-260.98401" y="421.297" style="font-variant-caps:normal;font-variant-east-asian:normal;font-variant-ligatures:normal;font-variant-numeric:normal" xml:space="preserve">30° </text><text transform="matrix(.28341 0 0 .28341 127.58 -4.9927)" x="-432.297" y="250" style="font-variant-caps:normal;font-variant-east-asian:normal;font-variant-ligatures:normal;font-variant-numeric:normal" xml:space="preserve">60° </text></g><text transform="matrix(.28319 0 0 .28319 -50.867 156.66)" x="472" y="6.5" font-size="14.948px" stroke-width="1.6" style="font-variant-caps:normal;font-variant-east-asian:normal;font-variant-ligatures:normal;font-variant-numeric:normal" xml:space="preserve">0º</text><text transform="matrix(.28319 0 0 .28319 -54.958 161.4)" x="472" y="6.5" font-size="14.948px" stroke-width="1.6" style="font-variant-caps:normal;font-variant-east-asian:normal;font-variant-ligatures:normal;font-variant-numeric:normal" xml:space="preserve">cd.klm</text></g><rect transform="matrix(.26283 0 0 .26283 10.824 161.8)" y="6.5" width="11.2" height="15.2" fill="#fcff5c" fill-opacity=".68235" stroke="#fcff5c" stroke-linecap="round" stroke-width="1.8336"/><text transform="matrix(.26283 0 0 .26283 10.824 161.24)" x="16" y="22.5" fill="#848484" font-family="Lato" font-size="17.569px" stroke-width=".91678" style="font-variant-caps:normal;font-variant-east-asian:normal;font-variant-ligatures:normal;font-variant-numeric:normal" xml:space="preserve">C0-C180</text></g></g><g transform="translate(.00382 12.519)" fill="none" stroke="#858585"><path transform="matrix(.52917 0 0 .52917 -68.201 -25.683)" d="m320.33 65.864a31.291 31.291 0 0 1-15.646 27.099 31.291 31.291 0 0 1-31.292-1e-6 31.291 31.291 0 0 1-15.646-27.099" stroke-width=".15"/><path transform="matrix(1.0583 0 0 1.0576 -221.15 -60.49)" d="m320.33 65.864a31.291 31.291 0 0 1-15.646 27.099 31.291 31.291 0 0 1-31.292-1e-6 31.291 31.291 0 0 1-15.646-27.099" stroke-width=".075027"/><path transform="matrix(1.5875 0 0 1.5865 -374.1 -95.32)" d="m320.33 65.864a31.291 31.291 0 0 1-15.646 27.099 31.291 31.291 0 0 1-31.292-1e-6 31.291 31.291 0 0 1-15.646-27.099" stroke-width=".050016"/><path transform="matrix(2.1167 0 0 2.1153 -527.05 -130.15)" d="m320.33 65.864a31.291 31.291 0 0 1-15.646 27.099 31.291 31.291 0 0 1-31.292-1e-6 31.291 31.291 0 0 1-15.646-27.099" stroke-width=".037512"/><path transform="matrix(2.6458 0 0 2.6441 -680 -164.98)" d="m316.1 81.579c-2.6998 4.6487-6.5966 8.6031-11.414 11.384-9.6817 5.59-21.61 5.59-31.292-1e-6 -4.8457-2.7976-8.7602-6.7827-11.462-11.467" stroke-width=".03001"/><path transform="matrix(3.1749 0 0 3.1729 -832.93 -199.8)" d="m311.59 87.561c-2.0089 2.088-4.324 3.9131-6.9028 5.4019-9.6817 5.59-21.61 5.59-31.292-1e-6 -2.5964-1.499-4.9254-3.3389-6.9438-5.4447" stroke-width=".025009"/><path transform="matrix(3.7041 0 0 3.7017 -985.9 -234.64)" d="m308.37 90.473c-1.1574 0.90884-2.3869 1.7421-3.683 2.4903-9.6817 5.59-21.61 5.59-31.292-1e-6 -1.3089-0.75568-2.5499-1.598-3.7174-2.5174" stroke-width=".021436"/><path transform="matrix(4.2243 0 0 4.2215 -1136.5 -268.87)" d="m306.04 92.132c-0.44425 0.28747-0.89718 0.5646-1.3586 0.83096-9.6817 5.59-21.61 5.59-31.292-1e-6 -0.43229-0.24957-0.85718-0.5086-1.2744-0.77673" stroke-width=".018796"/><path transform="matrix(.26469 0 0 .26469 -.036694 -.031725)" d="m320.33 34.764v499.07" stroke-width=".29988"/><path transform="matrix(0 .29371 -.29371 0 168.21 -84.937)" d="m320.33 40.455v487.98" stroke-width=".27025"/><g stroke-width=".29988"><path transform="matrix(.26469 0 0 .26469 -.036694 -.031725)" d="m320.33 34.764 129.11 481.86"/><path transform="matrix(.26469 0 0 .26469 -.036694 -.031725)" d="m320.33 34.764 249.34 431.88"/><path transform="matrix(.26469 0 0 .26469 -.036694 -.031725)" d="m320.33 34.764 270.38 270.38"/><path transform="matrix(.26469 0 0 .26469 -.036694 -.031725)" d="m320.33 34.764 270.39 156.06"/><path transform="matrix(.26469 0 0 .26469 -.036694 -.031725)" d="m320.33 34.764 270.39 72.405"/><path transform="matrix(.26469 0 0 .26469 -.036694 -.031725)" d="m320.33 34.764-129.23 482.31"/><path transform="matrix(.26469 0 0 .26469 -.036694 -.031725)" d="m320.33 34.764-249.85 432.76"/><path transform="matrix(.26469 0 0 .26469 -.036694 -.031725)" d="m320.33 34.764-271.08 271.08"/><path transform="matrix(.26469 0 0 .26469 -.036694 -.031725)" d="m320.33 34.764-271.08 156.51"/><path transform="matrix(.26469 0 0 .26469 -.036694 -.031725)" d="m320.33 34.764-271.06 72.627"/></g></g><g transform="matrix(1.4303 0 0 -1.4313 -146.21 193.09)" fill="none" stroke="#000" stroke-linecap="round" stroke-width=".18492"><path d="m155.17 118.27a0.35 0.35 0 0 0 0.47795-0.51143"/><path d="m164.12 125.68a0.35 0.35 0 1 0-0.47795 0.51143"/><path d="m152.81 114.82a1.3 1.3 0 0 0-0.39946 0.26225"/><path d="m163.94 125.19a1 1 0 0 0 0.30898 0.60266"/><path d="m154.97 117.13a0.5 0.5 0 0 0-0.54206-0.0927"/><path d="m154.05 119.97 0.136-0.14658"/><path d="m151.55 121.48a1.7017 1.7017 0 0 0 1.1868 0.13234"/><path d="m154.05 119.97a0.2 0.2 0 0 0 5.3e-4 -5.3e-4"/><path d="m165.4 127.18-0.95991 0.99245"/><path d="m166.78 129.45 1.0197-1.488"/><path d="m153.13 117.6a0.1 0.1 0 0 0-0.0282 0.16466"/><path d="m159.12 129.61h-8.1746"/><path d="m160.2 128.49-0.68394 0.91864"/><path d="m152.18 117.58a0.3 0.3 0 0 0 0.0368 0.39697"/><path d="m155.57 116.32a0.5 0.5 0 0 0 0.21775 0.11917"/><path d="m153.74 119.13 1.0954-1.1724"/><path d="m152.14 116.45a1.8931 1.8931 0 0 0-0.13402 2.4817"/><path d="m166.56 127.31a0.2 0.2 0 0 0-0.0539 0.13655"/><path d="m162.02 127.41a0.78925 0.78925 0 0 0-0.86152 0.12262"/><path d="m164.44 128.17 0.47969-1.3332"/><path d="m167.65 130.51a0.2 0.2 0 0 0 0.2-0.20001"/><path d="m155.52 117.64a1 1 0 0 0 0.62217 0.26755"/><path d="m162.15 127.27-0.13679 0.14605"/><path d="m165.4 127.18a0.2 0.2 0 0 0 7e-3 -0.29884"/><path d="m153.54 118.18-0.76121 0.81439"/><path d="m153.1 117.77 0.43709 0.40852"/><path d="m166.39 128.21-0.70618 0.84163"/><path d="m152.16 116.43a0.5 0.5 0 0 0-0.0194 0.0198"/><path d="m153.73 120.66a0.71062 0.71062 0 0 0 0.32792-0.68985"/><path d="m166.41 126.45-0.8554-0.79931"/><path d="m150.94 121.48a0.5 0.5 0 0 0-0.5 0.5"/><path d="m164.92 126.84a0.5 0.5 0 0 0-0.12909-0.53456"/><path d="m166.39 127.19a0.5 0.5 0 0 0 0.0186-0.7471"/><path d="m163.64 126.19 0.32888 0.30718"/><path d="m149.54 130.31a0.2 0.2 0 0 0 0.2 0.20001"/><path d="m164.45 129.18 1.9377-1.9882"/><path d="m151.6 115.86-0.0392 0.0394"/><path d="m154.35 116.55a0.2 0.2 0 0 0-0.29766 0.0276"/><path d="m151.56 115.9a2.6931 2.6931 0 0 0-0.75968 1.8748"/><path d="m155.57 116.32-0.8554-0.79931"/><path d="m167.85 130.31v-0.35004"/><path d="m152 118.93a0.5 0.5 0 0 0 0.77592 0.0561"/><path d="m163.08 128.62 0.76094-0.81439"/><path d="m150.94 121.48h0.60696"/><path d="m154.84 117.96 0.32888 0.30718"/><path d="m154.19 119.82a0.2 0.2 0 0 0-0.01-0.28217"/><path d="m154.13 114.92a2.5468 2.5468 0 0 0-1.3271-0.0992"/><path d="m152.22 117.98 0.78753 0.72292"/><path d="m167.65 129.76h-0.7075"/><path d="m166.78 129.45a0.2 0.2 0 0 0 0.16497 0.31307"/><path d="m153.85 115.43 0.32306-0.34555"/><path d="m159.12 129.61a0.5 0.5 0 0 0 0.40103-0.20137"/><path d="m164.05 129.17a0.3 0.3 0 0 0 0.39855 0.01"/><path d="m150.6 120.48a0.2 0.2 0 0 0 0.2-0.2"/><path d="m166.51 127.44v0.4445"/><path d="m163.08 128.62a0.5 0.5 0 0 0 0.10841 0.77035"/><path d="m152.73 121.61a0.25 0.25 0 1 0-0.1245-0.48424"/><path d="m150.6 120.48h-0.86148"/><path d="m163.97 126.49-1.0956 1.1724"/><path d="m163.94 125.19a8.3749 8.3749 0 0 0-7.7983-7.2879"/><path d="m166.92 126.93-0.35586 0.38073"/><path d="m153.28 115.52a0.5 0.5 0 0 0-0.31275 0.13843"/><path d="m152.16 116.43 0.80645-0.77549"/><path d="m164.25 125.8 1.1623 1.0864"/><path d="m150.44 129.11a0.5 0.5 0 0 0 0.5 0.49999"/><path d="m164.28 128.21a0.1 0.1 0 0 0 0.16238-0.0392"/><path d="m153.13 117.6 0.92525-1.0247"/><path d="m155.64 117.76-0.67258-0.62865"/><path d="m154.72 115.52a0.5 0.5 0 0 0-0.74414 0.069"/><path d="m160.64 128.71a0.25 0.25 0 0 0-0.44238-0.21258"/><path d="m162.87 127.67-0.43842-0.40984"/><path d="m149.54 120.68v9.6337"/><path d="m167.76 127.57-0.69771-0.6522"/><path d="m165.42 125.44a13.701 13.701 0 0 0-9.6278-8.9977"/><path d="m154.43 117.03-1.2978 0.56859"/><path d="m163.19 129.39a1.8931 1.8931 0 0 0 2.4854-0.32218"/><path d="m150.8 117.77v2.5085"/><path d="m152.41 115.08-0.80645 0.77549"/><path d="m163.27 128.43 0.78137 0.74141"/><path d="m165.42 125.44a0.5 0.5 0 0 0 0.13361 0.20921"/><path d="m167.8 127.96a0.3 0.3 0 0 0-0.0426-0.3888"/><path d="m154.17 115.08a0.1 0.1 0 0 0-0.0398-0.16259"/><path d="m165.67 129.07a0.5 0.5 0 0 0 0.0135-0.0154"/><path d="m162.44 127.26a0.2 0.2 0 0 0-0.28268 0.01"/><path d="m165.67 129.07h5.3e-4"/><path d="m161.15 127.54a0.25 0.25 0 0 0 0.2291 0.42894"/><path d="m150.44 129.11v-7.134"/><path d="m153.35 120.39a0.25 0.25 0 0 0 0.37459 0.27513"/><path d="m149.74 120.48a0.2 0.2 0 0 0-0.2 0.2"/><g transform="translate(.17256 -.049303)"><path d="m153.74 119.13 9.0607 8.4598"/><path d="m160.7 122.9-2.0603-1.9256"/><path d="m158.16 121.49 0.47811-0.51144"/><path d="m158.16 121.49-3.5334-3.2865"/><path d="m163.69 126.64-3.4648-3.2277"/><path d="m160.23 123.41 0.47784-0.51144"/></g><path d="m149.74 130.51h17.913"/><path d="m166.39 128.21a0.5 0.5 0 0 0 0.11698-0.3214"/><path d="m163.84 127.8 0.43709 0.40826"/><path d="m154.35 116.55 1.1626 1.0864"/><path d="m153.97 115.59-1.7912 1.9924"/><path d="m167.06 126.92a0.1 0.1 0 0 0-0.14134 5e-3"/><path d="m167.85 129.96a0.2 0.2 0 0 0-0.2-0.20001"/><path d="m153.28 115.52 0.44371-0.0302"/><path d="m153.72 115.49a0.2 0.2 0 0 0 0.13261-0.063"/><path d="m154.18 119.54-0.43868-0.41011"/><path d="m164.79 126.3-0.67283-0.62865"/><path d="m161.38 127.96s0.46855-0.10406 0.61278 0.15426 0.21679 0.68054-0.20917 1.0284-0.92914 0.33414-1.1069 0.14817-0.0374-0.59026-0.0374-0.59026"/><path d="m152.61 121.13s-0.46951 0.0996-0.61128-0.16008-0.21031-0.68257 0.21894-1.0264c0.42924-0.34382 0.93227-0.32529 1.1082-0.13764 0.17596 0.18765 0.0318 0.59059 0.0318 0.59059"/></g></svg>
