<svg width="640" height="655" version="1.1" viewBox="0 0 169.33 173.3" xmlns="http://www.w3.org/2000/svg"><g fill-rule="evenodd"><path transform="matrix(.4573 0 0 .45855 86.328 24.71)" d="m0 46.224-0.78255-1.3921-0.73642-1.3348-0.69375-1.2763-0.65458-1.2169-0.6124-1.2311-0.57082-1.2351-0.53736-1.1728-0.50682-1.1146-0.46936-1.1206-0.43184-1.1256-0.39431-1.1297-0.37135-1.0641-0.32148-1.1307-0.3-1.0682-0.26494-1.0692-0.22995-1.069-0.19504-1.0681-0.18049-1.004-0.12666-1.0639-0.11615-0.9943-0.08409-0.9907-0.07674-0.9255-0.02154-0.9815-0.04713-0.8472 0.01135-0.9103 0.00753-0.8363 0.06796-0.8969 0.03059-0.765 0.05455-0.7585 0.07597-0.7474 0.10176-0.7439 0.08783-0.6762 0.14701-0.7275 0.09387-0.6057 0.15003-0.6522 0.12896-0.5863 0.18917-0.6343 0.16562-0.56896 0.186-0.56364 0.24543-0.60431 0.21815-0.5399 0.28172-0.5818 0.34772-0.62079 0.41279-0.65344 0.3409-0.5442 0.30416-0.47835 0.26776-0.4181 0.232-0.36331 0.19015-0.30772 0.14563-0.25462 0.20768-0.29251 0.21651-0.28411 0.11299-0.19099 0.17524-0.22737 0.23948-0.26062 0.1349-0.17552 0.13605-0.16753 0.20042-0.19929 0.15021-0.15792 0.21156-0.18486 0.21713-0.17695 0.1605-0.13594 0.16867-0.13205 0.16839-0.12375 0.23569-0.14722 0.17609-0.11014 0.18373-0.10558 0.2477-0.12351 0.18605-0.089527 0.12727-0.06049 0.1247-0.054426 0.064069-0.029749-0.002186-0.006933-0.002065-0.006971-0.001942-0.007005-0.001821-0.007038-0.070097 0.008723-0.001839-0.008293-0.001694-0.0083244-0.001548-0.0083526-0.001402-0.0083782-0.001255-0.0084015-0.001109-0.0084221-9.62e-4 -0.0084401-0.066085-0.0027452-7.56e-4 -0.0096086-5.88e-4 -0.0096203-4.21e-4 -0.0096291-2.52e-4 -0.009635-0.070284-0.0096379 9.5e-5 -0.010863 2.84e-4 -0.01086 4.74e-4 -0.010853 6.63e-4 -0.010843 8.53e-4 -0.01083 0.001041-0.010814 0.00123-0.010794 0.001418-0.01077 0.001605-0.010744 0.001793-0.010715-0.06693-0.024076 0.00241-0.011846 0.002616-0.011802 0.002822-0.011755 0.003027-0.011703 0.003231-0.011649 0.003433-0.011591 0.003635-0.01153 0.003836-0.011464 0.004035-0.011395 0.004234-0.011323 0.00443-0.011248 0.004627-0.011168 0.00482-0.011086 0.005013-0.011 0.005204-0.010911 0.005394-0.010819 0.005582-0.010723 0.005768-0.010624 0.005953-0.010521 0.006136-0.010416 0.006316-0.010307 0.006495-0.010196 0.006672-0.01008 0.006848-0.009963 0.007019-0.009842 0.007191-0.009717 0.007359-0.009591 0.007526-0.00946 0.007689-0.009328 0.007851-0.009193 0.00801-0.009054 0.008167-0.008912 0.008321-0.008769 0.008474-0.008622 0.057387 0.042024 0.00788-0.007478 0.008009-0.007339 0.008137-0.007198 0.00826-0.007056 0.008383-0.00691 0.008502-0.006762 0.008618-0.006614 0.008733-0.006462 0.008844-0.006308 0.008953-0.006153 0.009059-0.005996 0.009162-0.005837 0.045418 0.054497-0.026795-0.065687 0.043489 0.056049 0.00847-0.004599 0.008549-0.00445 0.037348 0.054588-0.020023-0.063038 0.03542 0.055858 0.00779-0.003387 0.007848-0.003251 0.007904-0.003113 0.007957-0.002975 0.008007-0.002836 0.008056-0.002695 0.008102-0.002555 0.027495 0.065068 0.007005-0.001942 0.007038-0.001821 0.0070684-0.001697 0.0070972-0.001573 0.020518 0.067461 0.0059432-0.001102 0.0059614-9.97e-4 0.005978-8.94e-4 0.0059926-7.89e-4 0.0060055-6.84e-4 0.0362 0.34442 0.24822-0.64664 0.29701-0.70286 0.37456-0.81741 0.48691-0.99261 0.55334-1.0438 0.61878-1.084 0.62518-1.0008 0.69369-1.0423 0.73087-1.0197 0.66451-0.81771 0.73046-0.85692 0.6874-0.7149 0.71404-0.6938 0.70088-0.6136 0.76467-0.6499 0.7484-0.5698 0.77087-0.5474 0.6659-0.3621 0.6374-0.2882 0.6087-0.22 0.6627-0.2525 0.6283-0.1815 0.6384-0.164 0.6514-0.1496 0.6575-0.128 0.717-0.1585 0.6244-0.0423 0.7385-0.1222 0.7443-0.0981 0.7529-0.0768 0.8156-0.0995 0.8211-0.0728 0.8893-0.0941 0.8988-0.0678 0.9612-0.0789 1.0288-0.0894 1.0428-0.0609 1.1633-0.0989 1.2385-0.1017 1.2498-0.0634 1.3177-0.0565 1.4521-0.0814 1.5266-0.0676 1.5971-0.048 1.7359-0.0566 1.7481-1e-3 1.9528-0.0273 2.0258 0.0113 2.1682 0.0266 2.2414 0.0749 2.3225 0.1237 2.5234 0.1376 2.6716 0.1783 2.9414 0.1919 2.9504 0.2896 3.0933 0.3539 3.2353 0.4255 3.3717 0.5057 3.5801 0.5786 3.5756 0.7001 3.7807 0.7878 3.7061 0.9255 3.9064 1.0254 4.0955 1.1373 4.0163 1.2827 4.2086 1.4054 4.183 1.55 4.299 1.6891 4.271 1.8375 4.239 1.9854 4.203 2.1328 4.022 2.2745 3.914 2.4121 3.657 2.5353 3.331 2.6409 2.935 2.7237 2.676 2.8047 2.347 2.8639 2.012 2.9072 1.686 2.9364 1.215 2.9218 1.025 2.9439 0.566 2.8959 0.306 2.8743 0.048 2.8411-0.198 2.7988-0.451 2.7426-0.702 2.675-0.876 2.6205-1.05 2.5583-1.164 2.5106-1.266 2.4619-1.437 2.3801-1.535 2.3214-1.576 2.2846-1.608 2.2511-1.768 2.1515-1.742 2.1414-1.89 2.0385-1.862 2.0276-1.952 1.9493-1.98 1.9046-2.065 1.8214-2.03 1.8131-2.109 1.73-2.135 1.6793-2.208 1.5917-2.231 1.5385-2.244 1.491-2.265 1.4373-2.329 1.3437-2.394 1.244-2.353 1.2375-2.464 1.0873-2.42 1.0809-2.4756 0.976-2.5716 0.821-2.5704 0.762-2.5711 0.7-2.6093 0.592-2.6467 0.477-2.6799 0.362-2.706 0.248-2.6923 0.181-2.7523 9e-3 -2.7683-0.113-2.7392-0.174-2.8255-0.419-2.7875-0.482-2.8207-0.669-2.8099-0.792-2.799-0.924-2.8087-1.107-2.7862-1.2417-2.7567-1.3709-2.7775-1.6245-2.7049-1.6867-2.687-1.8857-2.6071-1.9457-2.5755-2.1397-2.4899-2.2013-2.4248-2.3272-2.3342-2.3848-2.2424-2.44-2.1664-2.5559-2.0372-2.4749-1.9139-2.3897-1.8383-2.4973-1.6932-2.2678-1.6339-2.4434-1.5005-2.202-1.4012-2.0997-1.3078-1.9897-1.2288-1.9513-1.1401-1.7661-1.072-1.7229-1.0065-1.6686-0.94484-1.6216-0.88381-1.4328-0.83327-1.5137" fill="#fcff5c" fill-opacity=".70588" stroke-width=".52016"/><g stroke-linejoin="round"><path transform="matrix(.4573 0 0 .45855 86.328 24.71)" d="m0 46.224-0.78255-1.3921-0.73642-1.3348-0.69375-1.2763-0.65458-1.2169-0.6124-1.2311-0.57082-1.2351-0.53736-1.1728-0.50682-1.1146-0.46936-1.1206-0.43184-1.1256-0.39431-1.1297-0.37135-1.0641-0.32148-1.1307-0.3-1.0682-0.26494-1.0692-0.22995-1.069-0.19504-1.0681-0.18049-1.004-0.12666-1.0639-0.11615-0.9943-0.08409-0.9907-0.07674-0.9255-0.02154-0.9815-0.04713-0.8472 0.01135-0.9103 0.00753-0.8363 0.06796-0.8969 0.03059-0.765 0.05455-0.7585 0.07597-0.7474 0.10176-0.7439 0.08783-0.6762 0.14701-0.7275 0.09387-0.6057 0.15003-0.6522 0.12896-0.5863 0.18917-0.6343 0.16562-0.56896 0.186-0.56364 0.24543-0.60431 0.21815-0.5399 0.28172-0.5818 0.34772-0.62079 0.41279-0.65344 0.3409-0.5442 0.30416-0.47835 0.26776-0.4181 0.232-0.36331 0.19015-0.30772 0.14563-0.25462 0.20768-0.29251 0.21651-0.28411 0.11299-0.19099 0.17524-0.22737 0.23948-0.26062 0.1349-0.17552 0.13605-0.16753 0.20042-0.19929 0.15021-0.15792 0.21156-0.18486 0.21713-0.17695 0.1605-0.13594 0.16867-0.13205 0.16839-0.12375 0.23569-0.14722 0.17609-0.11014 0.18373-0.10558 0.2477-0.12351 0.18605-0.089527 0.12727-0.06049 0.1247-0.054426 0.064069-0.029749-0.002186-0.006933-0.002065-0.006971-0.001942-0.007005-0.001821-0.007038-0.070097 0.008723-0.001839-0.008293-0.001694-0.0083244-0.001548-0.0083526-0.001402-0.0083782-0.001255-0.0084015-0.001109-0.0084221-9.62e-4 -0.0084401-0.066085-0.0027452-7.56e-4 -0.0096086-5.88e-4 -0.0096203-4.21e-4 -0.0096291-2.52e-4 -0.009635-0.070284-0.0096379 9.5e-5 -0.010863 2.84e-4 -0.01086 4.74e-4 -0.010853 6.63e-4 -0.010843 8.53e-4 -0.01083 0.001041-0.010814 0.00123-0.010794 0.001418-0.01077 0.001605-0.010744 0.001793-0.010715-0.06693-0.024076 0.00241-0.011846 0.002616-0.011802 0.002822-0.011755 0.003027-0.011703 0.003231-0.011649 0.003433-0.011591 0.003635-0.01153 0.003836-0.011464 0.004035-0.011395 0.004234-0.011323 0.00443-0.011248 0.004627-0.011168 0.00482-0.011086 0.005013-0.011 0.005204-0.010911 0.005394-0.010819 0.005582-0.010723 0.005768-0.010624 0.005953-0.010521 0.006136-0.010416 0.006316-0.010307 0.006495-0.010196 0.006672-0.01008 0.006848-0.009963 0.007019-0.009842 0.007191-0.009717 0.007359-0.009591 0.007526-0.00946 0.007689-0.009328 0.007851-0.009193 0.00801-0.009054 0.008167-0.008912 0.008321-0.008769 0.008474-0.008622 0.057387 0.042024 0.00788-0.007478 0.008009-0.007339 0.008137-0.007198 0.00826-0.007056 0.008383-0.00691 0.008502-0.006762 0.008618-0.006614 0.008733-0.006462 0.008844-0.006308 0.008953-0.006153 0.009059-0.005996 0.009162-0.005837 0.045418 0.054497-0.026795-0.065687 0.043489 0.056049 0.00847-0.004599 0.008549-0.00445 0.037348 0.054588-0.020023-0.063038 0.03542 0.055858 0.00779-0.003387 0.007848-0.003251 0.007904-0.003113 0.007957-0.002975 0.008007-0.002836 0.008056-0.002695 0.008102-0.002555 0.027495 0.065068 0.007005-0.001942 0.007038-0.001821 0.0070684-0.001697 0.0070972-0.001573 0.020518 0.067461 0.0059432-0.001102 0.0059614-9.97e-4 0.005978-8.94e-4 0.0059926-7.89e-4 0.0060055-6.84e-4 0.0362 0.34442 0.24822-0.64664 0.29701-0.70286 0.37456-0.81741 0.48691-0.99261 0.55334-1.0438 0.61878-1.084 0.62518-1.0008 0.69369-1.0423 0.73087-1.0197 0.66451-0.81771 0.73046-0.85692 0.6874-0.7149 0.71404-0.6938 0.70088-0.6136 0.76467-0.6499 0.7484-0.5698 0.77087-0.5474 0.6659-0.3621 0.6374-0.2882 0.6087-0.22 0.6627-0.2525 0.6283-0.1815 0.6384-0.164 0.6514-0.1496 0.6575-0.128 0.717-0.1585 0.6244-0.0423 0.7385-0.1222 0.7443-0.0981 0.7529-0.0768 0.8156-0.0995 0.8211-0.0728 0.8893-0.0941 0.8988-0.0678 0.9612-0.0789 1.0288-0.0894 1.0428-0.0609 1.1633-0.0989 1.2385-0.1017 1.2498-0.0634 1.3177-0.0565 1.4521-0.0814 1.5266-0.0676 1.5971-0.048 1.7359-0.0566 1.7481-1e-3 1.9528-0.0273 2.0258 0.0113 2.1682 0.0266 2.2414 0.0749 2.3225 0.1237 2.5234 0.1376 2.6716 0.1783 2.9414 0.1919 2.9504 0.2896 3.0933 0.3539 3.2353 0.4255 3.3717 0.5057 3.5801 0.5786 3.5756 0.7001 3.7807 0.7878 3.7061 0.9255 3.9064 1.0254 4.0955 1.1373 4.0163 1.2827 4.2086 1.4054 4.183 1.55 4.299 1.6891 4.271 1.8375 4.239 1.9854 4.203 2.1328 4.022 2.2745 3.914 2.4121 3.657 2.5353 3.331 2.6409 2.935 2.7237 2.676 2.8047 2.347 2.8639 2.012 2.9072 1.686 2.9364 1.215 2.9218 1.025 2.9439 0.566 2.8959 0.306 2.8743 0.048 2.8411-0.198 2.7988-0.451 2.7426-0.702 2.675-0.876 2.6205-1.05 2.5583-1.164 2.5106-1.266 2.4619-1.437 2.3801-1.535 2.3214-1.576 2.2846-1.608 2.2511-1.768 2.1515-1.742 2.1414-1.89 2.0385-1.862 2.0276-1.952 1.9493-1.98 1.9046-2.065 1.8214-2.03 1.8131-2.109 1.73-2.135 1.6793-2.208 1.5917-2.231 1.5385-2.244 1.491-2.265 1.4373-2.329 1.3437-2.394 1.244-2.353 1.2375-2.464 1.0873-2.42 1.0809-2.4756 0.976-2.5716 0.821-2.5704 0.762-2.5711 0.7-2.6093 0.592-2.6467 0.477-2.6799 0.362-2.706 0.248-2.6923 0.181-2.7523 9e-3 -2.7683-0.113-2.7392-0.174-2.8255-0.419-2.7875-0.482-2.8207-0.669-2.8099-0.792-2.799-0.924-2.8087-1.107-2.7862-1.2417-2.7567-1.3709-2.7775-1.6245-2.7049-1.6867-2.687-1.8857-2.6071-1.9457-2.5755-2.1397-2.4899-2.2013-2.4248-2.3272-2.3342-2.3848-2.2424-2.44-2.1664-2.5559-2.0372-2.4749-1.9139-2.3897-1.8383-2.4973-1.6932-2.2678-1.6339-2.4434-1.5005-2.202-1.4012-2.0997-1.3078-1.9897-1.2288-1.9513-1.1401-1.7661-1.072-1.7229-1.0065-1.6686-0.94484-1.6216-0.88381-1.4328-0.83327-1.5137" fill="none" stroke="#fcff5c" stroke-linecap="round" stroke-width="2.3112"/><g fill="#848484" font-family="Lato"><g font-size="14.937px" stroke-width="1.2448"><text transform="matrix(.28341 0 0 .28341 23.833 21.659)" x="472" y="6.5" style="font-variant-caps:normal;font-variant-east-asian:normal;font-variant-ligatures:normal;font-variant-numeric:normal" xml:space="preserve">90°</text><text transform="matrix(.28341 0 0 .28341 145.55 21.659)" x="-496" y="6.5" style="font-variant-caps:normal;font-variant-east-asian:normal;font-variant-ligatures:normal;font-variant-numeric:normal" xml:space="preserve">90°</text><text transform="matrix(.28341 0 0 .28341 83.593 20.518)" x="233.98399" y="421.297" style="font-variant-caps:normal;font-variant-east-asian:normal;font-variant-ligatures:normal;font-variant-numeric:normal" xml:space="preserve"> 30°</text><text transform="matrix(.28341 0 0 .28341 41.92 -5.0187)" x="405.297" y="250" style="font-variant-caps:normal;font-variant-east-asian:normal;font-variant-ligatures:normal;font-variant-numeric:normal" xml:space="preserve"> 60°</text><text transform="matrix(.28341 0 0 .28341 85.908 20.518)" x="-260.98401" y="421.297" style="font-variant-caps:normal;font-variant-east-asian:normal;font-variant-ligatures:normal;font-variant-numeric:normal" xml:space="preserve">30° </text><text transform="matrix(.28341 0 0 .28341 127.58 -5.0187)" x="-432.297" y="250" style="font-variant-caps:normal;font-variant-east-asian:normal;font-variant-ligatures:normal;font-variant-numeric:normal" xml:space="preserve">60° </text></g><text transform="matrix(.28319 0 0 .28319 -50.867 156.64)" x="472" y="6.5" font-size="14.948px" stroke-width="1.6" style="font-variant-caps:normal;font-variant-east-asian:normal;font-variant-ligatures:normal;font-variant-numeric:normal" xml:space="preserve">0º</text><text transform="matrix(.28319 0 0 .28319 -54.958 161.38)" x="472" y="6.5" font-size="14.948px" stroke-width="1.6" style="font-variant-caps:normal;font-variant-east-asian:normal;font-variant-ligatures:normal;font-variant-numeric:normal" xml:space="preserve">cd.klm</text></g><rect transform="matrix(.26283 0 0 .26283 10.824 161.78)" y="6.5" width="11.2" height="15.2" fill="#fcff5c" fill-opacity=".68235" stroke="#fcff5c" stroke-linecap="round" stroke-width="1.8336"/><text transform="matrix(.26283 0 0 .26283 10.824 161.22)" x="16" y="22.5" fill="#848484" font-family="Lato" font-size="17.569px" stroke-width=".91678" style="font-variant-caps:normal;font-variant-east-asian:normal;font-variant-ligatures:normal;font-variant-numeric:normal" xml:space="preserve">C0-C180</text></g></g><g transform="translate(.00382 12.493)" fill="none" stroke="#858585"><path transform="matrix(.52917 0 0 .52917 -68.201 -25.683)" d="m320.33 65.864a31.291 31.291 0 0 1-15.646 27.099 31.291 31.291 0 0 1-31.292-1e-6 31.291 31.291 0 0 1-15.646-27.099" stroke-width=".15"/><path transform="matrix(1.0583 0 0 1.0576 -221.15 -60.49)" d="m320.33 65.864a31.291 31.291 0 0 1-15.646 27.099 31.291 31.291 0 0 1-31.292-1e-6 31.291 31.291 0 0 1-15.646-27.099" stroke-width=".075027"/><path transform="matrix(1.5875 0 0 1.5865 -374.1 -95.32)" d="m320.33 65.864a31.291 31.291 0 0 1-15.646 27.099 31.291 31.291 0 0 1-31.292-1e-6 31.291 31.291 0 0 1-15.646-27.099" stroke-width=".050016"/><path transform="matrix(2.1167 0 0 2.1153 -527.05 -130.15)" d="m320.33 65.864a31.291 31.291 0 0 1-15.646 27.099 31.291 31.291 0 0 1-31.292-1e-6 31.291 31.291 0 0 1-15.646-27.099" stroke-width=".037512"/><path transform="matrix(2.6458 0 0 2.6441 -680 -164.98)" d="m316.1 81.579c-2.6998 4.6487-6.5966 8.6031-11.414 11.384-9.6817 5.59-21.61 5.59-31.292-1e-6 -4.8457-2.7976-8.7602-6.7827-11.462-11.467" stroke-width=".03001"/><path transform="matrix(3.1749 0 0 3.1729 -832.93 -199.8)" d="m311.59 87.561c-2.0089 2.088-4.324 3.9131-6.9028 5.4019-9.6817 5.59-21.61 5.59-31.292-1e-6 -2.5964-1.499-4.9254-3.3389-6.9438-5.4447" stroke-width=".025009"/><path transform="matrix(3.7041 0 0 3.7017 -985.9 -234.64)" d="m308.37 90.473c-1.1574 0.90884-2.3869 1.7421-3.683 2.4903-9.6817 5.59-21.61 5.59-31.292-1e-6 -1.3089-0.75568-2.5499-1.598-3.7174-2.5174" stroke-width=".021436"/><path transform="matrix(4.2243 0 0 4.2215 -1136.5 -268.87)" d="m306.04 92.132c-0.44425 0.28747-0.89718 0.5646-1.3586 0.83096-9.6817 5.59-21.61 5.59-31.292-1e-6 -0.43229-0.24957-0.85718-0.5086-1.2744-0.77673" stroke-width=".018796"/><path transform="matrix(.26469 0 0 .26469 -.036694 -.031725)" d="m320.33 34.764v499.07" stroke-width=".29988"/><path transform="matrix(0 .29371 -.29371 0 168.21 -84.937)" d="m320.33 40.455v487.98" stroke-width=".27025"/><g stroke-width=".29988"><path transform="matrix(.26469 0 0 .26469 -.036694 -.031725)" d="m320.33 34.764 129.11 481.86"/><path transform="matrix(.26469 0 0 .26469 -.036694 -.031725)" d="m320.33 34.764 249.34 431.88"/><path transform="matrix(.26469 0 0 .26469 -.036694 -.031725)" d="m320.33 34.764 270.38 270.38"/><path transform="matrix(.26469 0 0 .26469 -.036694 -.031725)" d="m320.33 34.764 270.39 156.06"/><path transform="matrix(.26469 0 0 .26469 -.036694 -.031725)" d="m320.33 34.764 270.39 72.405"/><path transform="matrix(.26469 0 0 .26469 -.036694 -.031725)" d="m320.33 34.764-129.23 482.31"/><path transform="matrix(.26469 0 0 .26469 -.036694 -.031725)" d="m320.33 34.764-249.85 432.76"/><path transform="matrix(.26469 0 0 .26469 -.036694 -.031725)" d="m320.33 34.764-271.08 271.08"/><path transform="matrix(.26469 0 0 .26469 -.036694 -.031725)" d="m320.33 34.764-271.08 156.51"/><path transform="matrix(.26469 0 0 .26469 -.036694 -.031725)" d="m320.33 34.764-271.06 72.627"/></g></g><g transform="matrix(1.4366 0 0 -1.4371 -132.51 261.28)" fill="none" stroke="#000" stroke-width=".18414"><g stroke-linecap="round"><path d="m144.21 167.11a0.25 0.25 0 0 0 0.37459 0.27513"/><path d="m157.64 176.17 1.02-1.488"/><path d="m152.88 174.13a0.78925 0.78925 0 0 0-0.86153 0.12262"/><path d="m151.5 175.43a0.25 0.25 0 0 0-0.44237-0.21258"/><path d="m146.03 164.99a0.35 0.35 0 0 0 0.47796-0.51142"/><path d="m154.98 172.4a0.35 0.35 0 1 0-0.47795 0.51143"/><path d="m141.3 175.83v-7.134"/><path d="m146.5 164.48-0.67257-0.62865"/><path d="m158.52 176.48h-0.70749"/><path d="m157.43 174.03a0.2 0.2 0 0 0-0.0539 0.13655"/><path d="m145.04 161.8a0.1 0.1 0 0 0-0.0398-0.16259"/><path d="m157.64 176.17a0.2 0.2 0 0 0 0.16497 0.31308"/><path d="m156.54 175.79a0.5 0.5 0 0 0 0.0135-0.0155"/><path d="m156.54 175.79 5.3e-4 2.7e-4"/><path d="m143.99 164.32a0.1 0.1 0 0 0-0.0282 0.16466"/><path d="m143.96 164.49 0.43709 0.40825"/><path d="m157.92 173.64a0.1 0.1 0 0 0-0.14134 5e-3"/><path d="m151.06 175.21-0.68394 0.91863"/><path d="m145.7 164.68 0.32888 0.30744"/><path d="m144.14 162.24 0.44371-0.0299"/><path d="m141.66 164.49v2.5085"/><path d="m142.42 162.62a2.6931 2.6931 0 0 0-0.75968 1.8748"/><path d="m153.94 175.34 0.76094-0.81439"/><path d="m143.02 163.15 0.80645-0.7755"/><path d="m158.72 176.68a0.2 0.2 0 0 0-0.2-0.2"/><path d="m154.7 174.52 0.43709 0.40852"/><path d="m158.62 174.29-0.69771-0.6522"/><path d="m141.3 175.83a0.5 0.5 0 0 0 0.5 0.5"/><path d="m143 163.17a1.8931 1.8931 0 0 0-0.13402 2.4817"/><path d="m144.58 162.21a0.2 0.2 0 0 0 0.1326-0.063"/><path d="m149.98 176.33h-8.1746"/><path d="m141.46 167.2h-0.86148"/><path d="m140.6 167.2a0.2 0.2 0 0 0-0.2 0.2"/><path d="m157.25 174.93-0.70618 0.84164"/><path d="m142.41 168.2a1.7017 1.7017 0 0 0 1.1868 0.13234"/><path d="m140.4 167.4v9.634"/><path d="m145 161.64a2.5468 2.5468 0 0 0-1.3271-0.0993"/><path d="m142.46 162.58-0.0394 0.0394"/><path d="m153.94 175.34a0.5 0.5 0 0 0 0.10841 0.77035"/><path d="m157.78 173.65-0.35586 0.38073"/><path d="m145.05 166.54a0.2 0.2 0 0 0-0.01-0.28218"/><path d="m144.14 162.24a0.5 0.5 0 0 0-0.31275 0.13844"/><path d="m153.3 173.98a0.2 0.2 0 0 0-0.28269 0.01"/><path d="m141.8 168.2a0.5 0.5 0 0 0-0.5 0.5"/><path d="m158.72 177.03v-0.35005"/><path d="m155.78 173.56a0.5 0.5 0 0 0-0.12909-0.53456"/><path d="m144.6 165.85 1.0954-1.1724"/><path d="m143.6 168.33a0.25 0.25 0 1 0-0.1245-0.48424"/><path d="m152.02 174.26a0.25 0.25 0 0 0 0.22911 0.42894"/><path d="m140.6 177.23h17.913"/><path d="m153.74 174.39-0.43841-0.40957"/><path d="m157.37 174.16v0.4445"/><path d="m145.29 163.75-1.2978 0.56859"/><path d="m144.92 166.69a0.2 0.2 0 0 0 5.3e-4 -5.3e-4"/><path d="m143.02 163.15a0.5 0.5 0 0 0-0.0194 0.0198"/><path d="m143.27 161.8-0.80645 0.77549"/><path d="m141.46 167.2a0.2 0.2 0 0 0 0.2-0.2"/><path d="m155.3 174.89 0.47969-1.333"/><path d="m144.4 164.9-0.76121 0.81439"/><path d="m149.98 176.33a0.5 0.5 0 0 0 0.40103-0.20138"/><path d="m145.04 166.26-0.43868-0.41011"/><path d="m153.01 173.99-0.13679 0.14605"/><path d="m140.4 177.03a0.2 0.2 0 0 0 0.2 0.2"/><path d="m158.52 177.23a0.2 0.2 0 0 0 0.2-0.2"/><path d="m143.67 161.54a1.3 1.3 0 0 0-0.39946 0.26225"/><path d="m157.26 174.93a0.5 0.5 0 0 0 0.11697-0.3214"/><path d="m155.14 174.93a0.1 0.1 0 0 0 0.16238-0.0392"/><path d="m158.66 174.68a0.3 0.3 0 0 0-0.0426-0.3888"/><path d="m145.83 163.85a0.5 0.5 0 0 0-0.54206-0.0927"/><path d="m144.92 166.69 0.136-0.14658"/><path d="m144.59 167.38a0.71062 0.71062 0 0 0 0.32792-0.68985"/><path d="m154.05 176.11a1.8931 1.8931 0 0 0 2.4854-0.32218"/><path d="m144.71 162.15 0.32279-0.34581"/><path d="m154.83 173.21-1.0956 1.1724"/><path d="m142.86 165.65a0.5 0.5 0 0 0 0.77592 0.0561"/><path d="m141.8 168.2h0.60696"/><path d="m155.65 173.02-0.67284-0.62865"/><path d="m154.5 172.91 0.32888 0.30718"/><path d="m152.25 174.68s0.46855-0.10406 0.61278 0.15426 0.21679 0.68054-0.20917 1.0284-0.92914 0.33414-1.1069 0.14817-0.0374-0.59026-0.0374-0.59026"/><g transform="rotate(.098556 6258.5 -7171.6)"><path d="m157.34 176.25 9.1326 8.5349"/><path d="m164.3 180.02-2.0603-1.9256"/><path d="m161.76 178.61 0.47811-0.51144"/><path d="m161.76 178.61-3.5334-3.2865"/><path d="m167.36 183.82-3.5334-3.2865"/><path d="m163.82 180.53 0.47784-0.51144"/></g><path d="m143.47 167.85s-0.47657 0.0925-0.61834-0.1672c-0.14177-0.25968-0.21031-0.68257 0.21894-1.0264 0.42924-0.34382 0.93227-0.32529 1.1082-0.13764 0.17596 0.18765 0.0318 0.59059 0.0318 0.59059"/></g><g transform="matrix(-.065784 -.99783 -.99783 .065784 350.7 306.05)"><g stroke-linecap="round"><path d="m154.45 191.25a1 1 0 0 0 0.23792 1.1208"/><path d="m156.09 195.74-1.0658 1.1866"/><path d="m143.71 186.36 1.1243-1.1406"/><path d="m146.23 186.51-0.67257-0.62865"/><path d="m152.81 192.67 3.2744 3.0728"/><path d="m143.71 186.36a0.1 0.1 0 0 0-0.0282 0.16466"/><path d="m143.69 186.52 0.43709 0.40825"/><path d="m144.84 185.21 3.2951 3.0756"/><path d="m157.2 194.71-2.5112-2.3469"/><path d="m154.42 196.56 0.43709 0.40852"/><path d="m145.77 184.03a0.7 0.7 0 0 0-1.0369 0.09"/><path d="m146.18 184.42-0.41063-0.38391"/><path d="m154.86 196.96a0.1 0.1 0 0 0 0.16238-0.0392"/><path d="m157.18 195.75a0.7 0.7 0 0 0 0.0198-1.0406"/><path d="m146.18 184.42a1 1 0 0 0 1.245 0.0964"/></g><g transform="translate(-7.4974 14.313)" stroke-linecap="round"><path d="m150.22 172.11a0.3 0.3 0 0 0 0.0368 0.39697"/><path d="m150.26 172.51 0.78753 0.72292"/><path d="m152.23 169.81-2.0118 2.2991"/></g><g transform="matrix(0 -1 -1 0 340.83 369.41)" stroke-linecap="round"><path d="m171.33 185.9a0.3 0.3 0 0 0 0.0368 0.39697"/><path d="m171.36 186.29 0.78753 0.72292"/><path d="m173.66 183.65-2.3284 2.2435"/></g><path d="m148.13 188.29s2.206 0.6511 2.9353 1.0292c0.72929 0.37806 1.1532 0.59573 1.5862 1.3596 0.43305 0.7639 0.16054 1.9866 0.16054 1.9866"/><path d="m154.45 191.25c0.30902-0.57792 0.47736-1.1055 0.56343-1.5631 0.0662-0.35222 0.11723-0.86147 0.0346-1.5669-0.0853-0.7286-0.31234-1.6839-0.81402-2.5352-0.4133-0.70131-0.88291-1.1279-1.2431-1.3965-0.37157-0.27713-0.80128-0.50938-1.2562-0.65021-0.41603-0.12878-0.79889-0.16418-1.1574-0.14633-0.46709 0.0232-0.98891 0.14183-1.6168 0.38752-0.45668 0.17867-0.9185 0.4049-1.3444 0.63336-0.0636 0.0341-0.12725 0.0688-0.19081 0.10377" stroke-linecap="round"/></g></g></svg>
