<svg width="640" height="655" version="1.1" viewBox="0 0 169.33 173.3" xmlns="http://www.w3.org/2000/svg"><g fill-rule="evenodd"><path transform="matrix(.17413 0 0 .17407 84.755 22.037)" d="m0 263.87-4.4428-9.346-4.143-8.664-3.8683-8.226-3.6717-7.028-3.2659-8.962-2.7478-11.005-2.4313-10.53-2.2809-9.053-1.9137-9.442-1.5928-9.448-1.4882-8.334-1.4162-7.347-0.8587-8.693-0.1096-10.503-0.0471-9.365 1.1701-12.466 1.8143-13.105 2.3382-13.241 2.9125-13.481 2.3834-10.63 2.9708-11.108 1.6539-6.7831 1.2447-5.2019 0.7037-3.5341 0.3427-2.4698 0.4235-2.4455 1.2457-3.876 1.3755-3.8213 1.5036-3.7631 1.1901-2.9392 1.2237-2.7824 1.5169-3.0531 1.483-2.7834 1.366-2.4138 0.87069-1.5382 0.6267-1.0978 0.51202-0.87279 0.38624-0.65481 0.40792-0.63977 0.26749-0.43147 0.1991-0.32607 0.12557-0.22475 0.13272-0.21957 0.40186-0.48566 0.32913-0.3819 0.07043-0.10768 0.0739-0.10493 0.07711-0.10192 0.080427-0.098999 0.083469-0.095827-0.01117-0.013551 0.088231-0.091218 0.091043-0.087844-0.007835-0.010588 0.095434-0.082901-0.006216-0.009045-0.006057-0.009152-0.11262 0.05743-0.006882-0.011231-0.11555 0.051507-0.007566-0.013373-0.11844 0.045575-0.008109-0.015577-0.007836-0.015716 0.10649-0.069033-0.006372-0.013981-0.006127-0.014091-0.00588-0.014195-0.005631-0.014296-0.12363 0.028648-0.005862-0.016554-0.005572-0.016654-0.1255 0.020005-0.00561-0.018941-0.00528-0.019037-0.00495-0.019126-0.00461-0.01921-0.00428-0.019287-0.12746 0.004653-4e-3 -0.021584-0.00363-0.021651-0.12773-0.004215-0.00315-0.023939-0.00273-0.02399-0.00232-0.024035-0.12742-0.015293-0.00161-0.026292-0.00115-0.026317-6.9e-4 -0.026333-0.12594-0.026341 2.5e-4 -0.028535 7.5e-4 -0.028526 0.00124-0.028509 0.00174-0.028483 0.00224-0.028448-0.12241-0.041558 0.00348-0.030535 0.00401-0.030469 0.00454-0.030395-0.11873-0.05214 6e-3 -0.032375 0.00657-0.032265 0.00712-0.032146 0.00769-0.032016-0.11331-0.064447 0.00939-0.033846 0.00997-0.033676 0.01056-0.033497 0.01115-0.033307 0.01172-0.033108-0.10506-0.077949 0.01368-0.03472 0.01428-0.034476 0.01488-0.034222 0.01547-0.033956 0.01607-0.033682 0.01665-0.033396 0.01723-0.033098 0.01781-0.0328 0.01837-0.03247 0.01894-0.03216 0.0195-0.03182 0.02005-0.03147 0.0206-0.03112 0.02113-0.03075 0.02167-0.03038 0.0222-0.03 0.02272-0.0296 0.02323-0.02921 0.02373-0.02879-0.07073-0.11093 0.11969 0.05461 0.02522-0.02752 0.02568-0.02707 0.02616-0.02661 0.02661-0.02616 0.02707-0.02568 0.02752-0.02522 0.02794-0.02472 0.02838-0.02424 0.02879-0.02373 0.02921-0.02323 0.0296-0.02272 0.03-0.0222 0.03038-0.02167 0.03075-0.02113 0.03112-0.0206 0.03147-0.02005 0.03182-0.0195 0.03216-0.01894 0.03247-0.01837 0.0328-0.01781 0.033098-0.01723 0.088504 0.09634 0.031701-0.01512 0.03196-0.01457 0.03221-0.014 0.032449-0.01344 0.032678-0.01288 0.075938 0.10595 0.031038-0.01099 0.031225-0.01045 0.031402-0.0099 0.031571-0.00935 0.064264 0.11263 0.029754-0.0077 0.029883-0.00717 0.056167 0.11644 0.027963-0.00569 0.028058-0.0052 0.028145-0.00471 0.028223-0.00422 0.028291-0.00372 0.028353-0.00323 0.039361 0.12249 0.026261-0.00206 0.026292-0.00161 0.030709 0.12461 0.024137-6.3e-4 0.024145-2.1e-4 0.024145 2.1e-4 0.01975 0.12627 0.021931 9.5e-4 0.013133 0.12688 0.019694 0.00155 0.019664 0.00189 0.019628 0.00224 0.019586 0.00258-1.27e-4 0.12708 0.017321 0.002898 0.017267 0.003201-0.008955 0.12659 0.015001 0.003326 0.01494 0.003586 0.014876 0.003848-0.019844 0.12495 0.012628 0.003741 0.012562 0.00396-0.028479 0.12316 0.010345 0.003664 0.010279 0.003843 0.010211 0.004023-0.038979 0.11992 0.008052 0.003501 0.00799 0.003642 0.007926 0.00378 0.007858 0.003918 0.007788 0.004054-0.23619 0.44421 0.31661-0.39098 0.16847-0.18711 0.17505-0.18129 0.26559-0.26872 1.5618-1.6394 1.5314-1.4942 1.7619-1.6191 2.1809-1.9077 2.0646-1.6612 1.6572-1.1702 1.7006-1.1147 1.3572-0.7348 1.0933-0.4532 0.9152-0.2638-0.0756 0.5215-0.699 0.9582-0.5211 0.7856-0.5433 0.7637-0.6707 0.80974 0.0526 0.31662 0.4771 0.05643 2.8757-1.313 5.2354-2.4955 10.768-5.2082 14.091-6.4333 14.435-5.9999 15.566-5.9266 11.421-3.4465 13.762-3.9911 12.175-2.8144 14.297-3.1675 10.657-1.3046 8.836-0.2915 9.485-0.1921 8.211 0.5287 9.931 0.315 9.604 0.7445 8.286 1.3998 9.517 1.3914 11.371 1.3173 11.63 1.6525 9.158 2.4819 6.902 3.1428 7.983 3.2138 7.693 3.5116 8.02 3.7303 7.089 4.0775 7.026 4.3166 6.204 4.5941 6 4.8092 6.422 5.0054 7.089 5.2264 6.618 5.4657 5.514 5.6615 5.158 5.8424 4.673 5.9995 3.433 6.0689 3.946 6.2615 4.701 6.5151 5.57 6.8298 4.564 6.899 4.304 7.051 2.187 6.8339 1.317 6.7722 1.802 6.9806 2.398 7.249 2.741 7.4881 2.225 7.5068 1.712 7.504 0.605 7.284 0.105 7.217 1.029 7.644 1.226 7.853 0.247 7.607 0.095 7.659-1.094 7.248-1.12 7.31-0.584 7.652-0.852 7.627-1.228 7.534-1.929 7.243-2.288 7.109-2.425 7.091-2.882 6.87-2.907 6.903-2.831 7.011-2.967 6.982-3.308 6.803-3.238 6.914-3.572 6.721-3.996 6.438-4.118 6.379-4.713 5.906-5.379 5.32-5.373 5.305-5.279 5.381-5.46 5.197-5.284 5.369-5.036 5.646-5.563 5.097-5.816 4.81-5.976 4.608-6.367 4.107-6.891 3.392-6.774 3.455-6.815 3.321-7.212 2.673-7.511 2.11-7.646 1.743-7.568 1.69-7.299 1.965-7.048 2.254-7 2.226-7.369 1.425-7.415 1.166-7.948-0.112-7.994-0.507-7.973-0.79-7.697-0.493-7.678-0.767-7.739-1.277-7.822-1.91-7.876-2.547-7.981-3.431-7.787-3.479-7.5952-3.521-7.4072-3.558-7.2526-3.711-7.095-3.858-6.8821-3.756-6.7753-4.14-6.5873-4.152-6.423-4.281-6.4136-5.527-6.2359-5.902-5.9505-5.398-5.7945-6.012-5.5484-5.745-5.3072-5.22-5.1494-6.195-4.8935-4.276-4.7413-7.756" fill="#fcff5c" fill-opacity=".70588"/><g stroke-linejoin="round"><path transform="matrix(.17413 0 0 .17407 84.755 22.037)" d="m0 263.87-4.4428-9.346-4.143-8.664-3.8683-8.226-3.6717-7.028-3.2659-8.962-2.7478-11.005-2.4313-10.53-2.2809-9.053-1.9137-9.442-1.5928-9.448-1.4882-8.334-1.4162-7.347-0.8587-8.693-0.1096-10.503-0.0471-9.365 1.1701-12.466 1.8143-13.105 2.3382-13.241 2.9125-13.481 2.3834-10.63 2.9708-11.108 1.6539-6.7831 1.2447-5.2019 0.7037-3.5341 0.3427-2.4698 0.4235-2.4455 1.2457-3.876 1.3755-3.8213 1.5036-3.7631 1.1901-2.9392 1.2237-2.7824 1.5169-3.0531 1.483-2.7834 1.366-2.4138 0.87069-1.5382 0.6267-1.0978 0.51202-0.87279 0.38624-0.65481 0.40792-0.63977 0.26749-0.43147 0.1991-0.32607 0.12557-0.22475 0.13272-0.21957 0.40186-0.48566 0.32913-0.3819 0.07043-0.10768 0.0739-0.10493 0.07711-0.10192 0.080427-0.098999 0.083469-0.095827-0.01117-0.013551 0.088231-0.091218 0.091043-0.087844-0.007835-0.010588 0.095434-0.082901-0.006216-0.009045-0.006057-0.009152-0.11262 0.05743-0.006882-0.011231-0.11555 0.051507-0.007566-0.013373-0.11844 0.045575-0.008109-0.015577-0.007836-0.015716 0.10649-0.069033-0.006372-0.013981-0.006127-0.014091-0.00588-0.014195-0.005631-0.014296-0.12363 0.028648-0.005862-0.016554-0.005572-0.016654-0.1255 0.020005-0.00561-0.018941-0.00528-0.019037-0.00495-0.019126-0.00461-0.01921-0.00428-0.019287-0.12746 0.004653-4e-3 -0.021584-0.00363-0.021651-0.12773-0.004215-0.00315-0.023939-0.00273-0.02399-0.00232-0.024035-0.12742-0.015293-0.00161-0.026292-0.00115-0.026317-6.9e-4 -0.026333-0.12594-0.026341 2.5e-4 -0.028535 7.5e-4 -0.028526 0.00124-0.028509 0.00174-0.028483 0.00224-0.028448-0.12241-0.041558 0.00348-0.030535 0.00401-0.030469 0.00454-0.030395-0.11873-0.05214 6e-3 -0.032375 0.00657-0.032265 0.00712-0.032146 0.00769-0.032016-0.11331-0.064447 0.00939-0.033846 0.00997-0.033676 0.01056-0.033497 0.01115-0.033307 0.01172-0.033108-0.10506-0.077949 0.01368-0.03472 0.01428-0.034476 0.01488-0.034222 0.01547-0.033956 0.01607-0.033682 0.01665-0.033396 0.01723-0.033098 0.01781-0.0328 0.01837-0.03247 0.01894-0.03216 0.0195-0.03182 0.02005-0.03147 0.0206-0.03112 0.02113-0.03075 0.02167-0.03038 0.0222-0.03 0.02272-0.0296 0.02323-0.02921 0.02373-0.02879-0.07073-0.11093 0.11969 0.05461 0.02522-0.02752 0.02568-0.02707 0.02616-0.02661 0.02661-0.02616 0.02707-0.02568 0.02752-0.02522 0.02794-0.02472 0.02838-0.02424 0.02879-0.02373 0.02921-0.02323 0.0296-0.02272 0.03-0.0222 0.03038-0.02167 0.03075-0.02113 0.03112-0.0206 0.03147-0.02005 0.03182-0.0195 0.03216-0.01894 0.03247-0.01837 0.0328-0.01781 0.033098-0.01723 0.088504 0.09634 0.031701-0.01512 0.03196-0.01457 0.03221-0.014 0.032449-0.01344 0.032678-0.01288 0.075938 0.10595 0.031038-0.01099 0.031225-0.01045 0.031402-0.0099 0.031571-0.00935 0.064264 0.11263 0.029754-0.0077 0.029883-0.00717 0.056167 0.11644 0.027963-0.00569 0.028058-0.0052 0.028145-0.00471 0.028223-0.00422 0.028291-0.00372 0.028353-0.00323 0.039361 0.12249 0.026261-0.00206 0.026292-0.00161 0.030709 0.12461 0.024137-6.3e-4 0.024145-2.1e-4v0l0.024145 2.1e-4 0.01975 0.12627 0.021931 9.5e-4 0.013133 0.12688 0.019694 0.00155 0.019664 0.00189 0.019628 0.00224 0.019586 0.00258-1.27e-4 0.12708 0.017321 0.002898 0.017267 0.003201-0.008955 0.12659 0.015001 0.003326 0.01494 0.003586 0.014876 0.003848-0.019844 0.12495 0.012628 0.003741 0.012562 0.00396-0.028479 0.12316 0.010345 0.003664 0.010279 0.003843 0.010211 0.004023-0.038979 0.11992 0.008052 0.003501 0.00799 0.003642 0.007926 0.00378 0.007858 0.003918 0.007788 0.004054-0.23619 0.44421 0.31661-0.39098 0.16847-0.18711 0.17505-0.18129 0.26559-0.26872 1.5618-1.6394 1.5314-1.4942 1.7619-1.6191 2.1809-1.9077 2.0646-1.6612 1.6572-1.1702 1.7006-1.1147 1.3572-0.7348 1.0933-0.4532 0.9152-0.2638-0.0756 0.5215-0.699 0.9582-0.5211 0.7856-0.5433 0.7637-0.6707 0.80974 0.0526 0.31662 0.4771 0.05643 2.8757-1.313 5.2354-2.4955 10.768-5.2082 14.091-6.4333 14.435-5.9999 15.566-5.9266 11.421-3.4465 13.762-3.9911 12.175-2.8144 14.297-3.1675 10.657-1.3046 8.836-0.2915 9.485-0.1921 8.211 0.5287 9.931 0.315 9.604 0.7445 8.286 1.3998 9.517 1.3914 11.371 1.3173 11.63 1.6525 9.158 2.4819 6.902 3.1428 7.983 3.2138 7.693 3.5116 8.02 3.7303 7.089 4.0775 7.026 4.3166 6.204 4.5941 6 4.8092 6.422 5.0054 7.089 5.2264 6.618 5.4657 5.514 5.6615 5.158 5.8424 4.673 5.9995 3.433 6.0689 3.946 6.2615 4.701 6.5151 5.57 6.8298 4.564 6.899 4.304 7.051 2.187 6.8339 1.317 6.7722 1.802 6.9806 2.398 7.249 2.741 7.4881 2.225 7.5068 1.712 7.504 0.605 7.284 0.105 7.217 1.029 7.644 1.226 7.853 0.247 7.607 0.095 7.659-1.094 7.248-1.12 7.31-0.584 7.652-0.852 7.627-1.228 7.534-1.929 7.243-2.288 7.109-2.425 7.091-2.882 6.87-2.907 6.903-2.831 7.011-2.967 6.982-3.308 6.803-3.238 6.914-3.572 6.721-3.996 6.438-4.118 6.379-4.713 5.906-5.379 5.32-5.373 5.305-5.279 5.381-5.46 5.197-5.284 5.369-5.036 5.646-5.563 5.097-5.816 4.81-5.976 4.608-6.367 4.107-6.891 3.392-6.774 3.455-6.815 3.321-7.212 2.673-7.511 2.11-7.646 1.743-7.568 1.69-7.299 1.965-7.048 2.254-7 2.226-7.369 1.425-7.415 1.166-7.948-0.112-7.994-0.507-7.973-0.79-7.697-0.493-7.678-0.767-7.739-1.277-7.822-1.91-7.876-2.547-7.981-3.431-7.787-3.479-7.5952-3.521-7.4072-3.558-7.2526-3.711-7.095-3.858-6.8821-3.756-6.7753-4.14-6.5873-4.152-6.423-4.281-6.4136-5.527-6.2359-5.902-5.9505-5.398-5.7945-6.012-5.5484-5.745-5.3072-5.22-5.1494-6.195-4.8935-4.276-4.7413-7.756" fill="none" stroke="#fcff5c" stroke-linecap="round" stroke-width="6.0788"/><g fill="#848484" font-family="Lato"><g font-size="14.937px" stroke-width="1.2448"><text transform="matrix(.28341 0 0 .28341 23.833 22.012)" x="472" y="6.5" style="font-variant-caps:normal;font-variant-east-asian:normal;font-variant-ligatures:normal;font-variant-numeric:normal" xml:space="preserve">90°</text><text transform="matrix(.28341 0 0 .28341 145.55 22.012)" x="-496" y="6.5" style="font-variant-caps:normal;font-variant-east-asian:normal;font-variant-ligatures:normal;font-variant-numeric:normal" xml:space="preserve">90°</text><text transform="matrix(.28341 0 0 .28341 83.593 20.871)" x="233.98399" y="421.297" style="font-variant-caps:normal;font-variant-east-asian:normal;font-variant-ligatures:normal;font-variant-numeric:normal" xml:space="preserve"> 30°</text><text transform="matrix(.28341 0 0 .28341 41.92 -4.6658)" x="405.297" y="250" style="font-variant-caps:normal;font-variant-east-asian:normal;font-variant-ligatures:normal;font-variant-numeric:normal" xml:space="preserve"> 60°</text><text transform="matrix(.28341 0 0 .28341 85.908 20.871)" x="-260.98401" y="421.297" style="font-variant-caps:normal;font-variant-east-asian:normal;font-variant-ligatures:normal;font-variant-numeric:normal" xml:space="preserve">30° </text><text transform="matrix(.28341 0 0 .28341 127.58 -4.6658)" x="-432.297" y="250" style="font-variant-caps:normal;font-variant-east-asian:normal;font-variant-ligatures:normal;font-variant-numeric:normal" xml:space="preserve">60° </text></g><text transform="matrix(.28319 0 0 .28319 -50.867 156.99)" x="472" y="6.5" font-size="14.948px" stroke-width="1.6" style="font-variant-caps:normal;font-variant-east-asian:normal;font-variant-ligatures:normal;font-variant-numeric:normal" xml:space="preserve">0º</text><text transform="matrix(.28319 0 0 .28319 -54.958 161.73)" x="472" y="6.5" font-size="14.948px" stroke-width="1.6" style="font-variant-caps:normal;font-variant-east-asian:normal;font-variant-ligatures:normal;font-variant-numeric:normal" xml:space="preserve">cd.klm</text></g><rect transform="matrix(.26283 0 0 .26283 10.824 162.13)" y="6.5" width="11.2" height="15.2" fill="#fcff5c" fill-opacity=".68235" stroke="#fcff5c" stroke-linecap="round" stroke-width="1.8336"/><text transform="matrix(.26283 0 0 .26283 10.824 161.57)" x="16" y="22.5" fill="#848484" font-family="Lato" font-size="17.569px" stroke-width=".91678" style="font-variant-caps:normal;font-variant-east-asian:normal;font-variant-ligatures:normal;font-variant-numeric:normal" xml:space="preserve">C0-C180</text></g></g><g transform="translate(.00382 12.845)" fill="none" stroke="#858585"><path transform="matrix(.52917 0 0 .52917 -68.201 -25.683)" d="m320.33 65.864a31.291 31.291 0 0 1-15.646 27.099 31.291 31.291 0 0 1-31.292-1e-6 31.291 31.291 0 0 1-15.646-27.099" stroke-width=".15"/><path transform="matrix(1.0583 0 0 1.0576 -221.15 -60.49)" d="m320.33 65.864a31.291 31.291 0 0 1-15.646 27.099 31.291 31.291 0 0 1-31.292-1e-6 31.291 31.291 0 0 1-15.646-27.099" stroke-width=".075027"/><path transform="matrix(1.5875 0 0 1.5865 -374.1 -95.32)" d="m320.33 65.864a31.291 31.291 0 0 1-15.646 27.099 31.291 31.291 0 0 1-31.292-1e-6 31.291 31.291 0 0 1-15.646-27.099" stroke-width=".050016"/><path transform="matrix(2.1167 0 0 2.1153 -527.05 -130.15)" d="m320.33 65.864a31.291 31.291 0 0 1-15.646 27.099 31.291 31.291 0 0 1-31.292-1e-6 31.291 31.291 0 0 1-15.646-27.099" stroke-width=".037512"/><path transform="matrix(2.6458 0 0 2.6441 -680 -164.98)" d="m316.1 81.579c-2.6998 4.6487-6.5966 8.6031-11.414 11.384-9.6817 5.59-21.61 5.59-31.292-1e-6 -4.8457-2.7976-8.7602-6.7827-11.462-11.467" stroke-width=".03001"/><path transform="matrix(3.1749 0 0 3.1729 -832.93 -199.8)" d="m311.59 87.561c-2.0089 2.088-4.324 3.9131-6.9028 5.4019-9.6817 5.59-21.61 5.59-31.292-1e-6 -2.5964-1.499-4.9254-3.3389-6.9438-5.4447" stroke-width=".025009"/><path transform="matrix(3.7041 0 0 3.7017 -985.9 -234.64)" d="m308.37 90.473c-1.1574 0.90884-2.3869 1.7421-3.683 2.4903-9.6817 5.59-21.61 5.59-31.292-1e-6 -1.3089-0.75568-2.5499-1.598-3.7174-2.5174" stroke-width=".021436"/><path transform="matrix(4.2243 0 0 4.2215 -1136.5 -268.87)" d="m306.04 92.132c-0.44425 0.28747-0.89718 0.5646-1.3586 0.83096-9.6817 5.59-21.61 5.59-31.292-1e-6 -0.43229-0.24957-0.85718-0.5086-1.2744-0.77673" stroke-width=".018796"/><path transform="matrix(.26469 0 0 .26469 -.036694 -.031725)" d="m320.33 34.764v499.07" stroke-width=".29988"/><path transform="matrix(0 .29371 -.29371 0 168.21 -84.937)" d="m320.33 40.455v487.98" stroke-width=".27025"/><g stroke-width=".29988"><path transform="matrix(.26469 0 0 .26469 -.036694 -.031725)" d="m320.33 34.764 129.11 481.86"/><path transform="matrix(.26469 0 0 .26469 -.036694 -.031725)" d="m320.33 34.764 249.34 431.88"/><path transform="matrix(.26469 0 0 .26469 -.036694 -.031725)" d="m320.33 34.764 270.38 270.38"/><path transform="matrix(.26469 0 0 .26469 -.036694 -.031725)" d="m320.33 34.764 270.39 156.06"/><path transform="matrix(.26469 0 0 .26469 -.036694 -.031725)" d="m320.33 34.764 270.39 72.405"/><path transform="matrix(.26469 0 0 .26469 -.036694 -.031725)" d="m320.33 34.764-129.23 482.31"/><path transform="matrix(.26469 0 0 .26469 -.036694 -.031725)" d="m320.33 34.764-249.85 432.76"/><path transform="matrix(.26469 0 0 .26469 -.036694 -.031725)" d="m320.33 34.764-271.08 271.08"/><path transform="matrix(.26469 0 0 .26469 -.036694 -.031725)" d="m320.33 34.764-271.08 156.51"/><path transform="matrix(.26469 0 0 .26469 -.036694 -.031725)" d="m320.33 34.764-271.06 72.627"/></g></g><g transform="matrix(1.4303 0 0 -1.4313 -146.21 193.09)" fill="none" stroke="#000" stroke-linecap="round" stroke-width=".18492"><path d="m155.17 118.27a0.35 0.35 0 0 0 0.47795-0.51143"/><path d="m164.12 125.68a0.35 0.35 0 1 0-0.47795 0.51143"/><path d="m152.81 114.82a1.3 1.3 0 0 0-0.39946 0.26225"/><path d="m163.94 125.19a1 1 0 0 0 0.30898 0.60266"/><path d="m154.97 117.13a0.5 0.5 0 0 0-0.54206-0.0927"/><path d="m154.05 119.97 0.136-0.14658"/><path d="m151.55 121.48a1.7017 1.7017 0 0 0 1.1868 0.13234"/><path d="m154.05 119.97a0.2 0.2 0 0 0 5.3e-4 -5.3e-4"/><path d="m165.4 127.18-0.95991 0.99245"/><path d="m166.78 129.45 1.0197-1.488"/><path d="m153.13 117.6a0.1 0.1 0 0 0-0.0282 0.16466"/><path d="m159.12 129.61h-8.1746"/><path d="m160.2 128.49-0.68394 0.91864"/><path d="m152.18 117.58a0.3 0.3 0 0 0 0.0368 0.39697"/><path d="m155.57 116.32a0.5 0.5 0 0 0 0.21775 0.11917"/><path d="m153.74 119.13 1.0954-1.1724"/><path d="m152.14 116.45a1.8931 1.8931 0 0 0-0.13402 2.4817"/><path d="m166.56 127.31a0.2 0.2 0 0 0-0.0539 0.13655"/><path d="m162.02 127.41a0.78925 0.78925 0 0 0-0.86152 0.12262"/><path d="m164.44 128.17 0.47969-1.3332"/><path d="m167.65 130.51a0.2 0.2 0 0 0 0.2-0.20001"/><path d="m155.52 117.64a1 1 0 0 0 0.62217 0.26755"/><path d="m162.15 127.27-0.13679 0.14605"/><path d="m165.4 127.18a0.2 0.2 0 0 0 7e-3 -0.29884"/><path d="m153.54 118.18-0.76121 0.81439"/><path d="m153.1 117.77 0.43709 0.40852"/><path d="m166.39 128.21-0.70618 0.84163"/><path d="m152.16 116.43a0.5 0.5 0 0 0-0.0194 0.0198"/><path d="m153.73 120.66a0.71062 0.71062 0 0 0 0.32792-0.68985"/><path d="m166.41 126.45-0.8554-0.79931"/><path d="m150.94 121.48a0.5 0.5 0 0 0-0.5 0.5"/><path d="m164.92 126.84a0.5 0.5 0 0 0-0.12909-0.53456"/><path d="m166.39 127.19a0.5 0.5 0 0 0 0.0186-0.7471"/><path d="m163.64 126.19 0.32888 0.30718"/><path d="m149.54 130.31a0.2 0.2 0 0 0 0.2 0.20001"/><path d="m164.45 129.18 1.9377-1.9882"/><path d="m151.6 115.86-0.0392 0.0394"/><path d="m154.35 116.55a0.2 0.2 0 0 0-0.29766 0.0276"/><path d="m151.56 115.9a2.6931 2.6931 0 0 0-0.75968 1.8748"/><path d="m155.57 116.32-0.8554-0.79931"/><path d="m167.85 130.31v-0.35004"/><path d="m152 118.93a0.5 0.5 0 0 0 0.77592 0.0561"/><path d="m163.08 128.62 0.76094-0.81439"/><path d="m150.94 121.48h0.60696"/><path d="m154.84 117.96 0.32888 0.30718"/><path d="m154.19 119.82a0.2 0.2 0 0 0-0.01-0.28217"/><path d="m154.13 114.92a2.5468 2.5468 0 0 0-1.3271-0.0992"/><path d="m152.22 117.98 0.78753 0.72292"/><path d="m167.65 129.76h-0.7075"/><path d="m166.78 129.45a0.2 0.2 0 0 0 0.16497 0.31307"/><path d="m153.85 115.43 0.32306-0.34555"/><path d="m159.12 129.61a0.5 0.5 0 0 0 0.40103-0.20137"/><path d="m164.05 129.17a0.3 0.3 0 0 0 0.39855 0.01"/><path d="m150.6 120.48a0.2 0.2 0 0 0 0.2-0.2"/><path d="m166.51 127.44v0.4445"/><path d="m163.08 128.62a0.5 0.5 0 0 0 0.10841 0.77035"/><path d="m152.73 121.61a0.25 0.25 0 1 0-0.1245-0.48424"/><path d="m150.6 120.48h-0.86148"/><path d="m163.97 126.49-1.0956 1.1724"/><path d="m163.94 125.19a8.3749 8.3749 0 0 0-7.7983-7.2879"/><path d="m166.92 126.93-0.35586 0.38073"/><path d="m153.28 115.52a0.5 0.5 0 0 0-0.31275 0.13843"/><path d="m152.16 116.43 0.80645-0.77549"/><path d="m164.25 125.8 1.1623 1.0864"/><path d="m150.44 129.11a0.5 0.5 0 0 0 0.5 0.49999"/><path d="m164.28 128.21a0.1 0.1 0 0 0 0.16238-0.0392"/><path d="m153.13 117.6 0.92525-1.0247"/><path d="m155.64 117.76-0.67258-0.62865"/><path d="m154.72 115.52a0.5 0.5 0 0 0-0.74414 0.069"/><path d="m160.64 128.71a0.25 0.25 0 0 0-0.44238-0.21258"/><path d="m162.87 127.67-0.43842-0.40984"/><path d="m149.54 120.68v9.6337"/><path d="m167.76 127.57-0.69771-0.6522"/><path d="m165.42 125.44a13.701 13.701 0 0 0-9.6278-8.9977"/><path d="m154.43 117.03-1.2978 0.56859"/><path d="m163.19 129.39a1.8931 1.8931 0 0 0 2.4854-0.32218"/><path d="m150.8 117.77v2.5085"/><path d="m152.41 115.08-0.80645 0.77549"/><path d="m163.27 128.43 0.78137 0.74141"/><path d="m165.42 125.44a0.5 0.5 0 0 0 0.13361 0.20921"/><path d="m167.8 127.96a0.3 0.3 0 0 0-0.0426-0.3888"/><path d="m154.17 115.08a0.1 0.1 0 0 0-0.0398-0.16259"/><path d="m165.67 129.07a0.5 0.5 0 0 0 0.0135-0.0154"/><path d="m162.44 127.26a0.2 0.2 0 0 0-0.28268 0.01"/><path d="m165.67 129.07h5.3e-4"/><path d="m161.15 127.54a0.25 0.25 0 0 0 0.2291 0.42894"/><path d="m150.44 129.11v-7.134"/><path d="m153.35 120.39a0.25 0.25 0 0 0 0.37459 0.27513"/><path d="m149.74 120.48a0.2 0.2 0 0 0-0.2 0.2"/><g transform="translate(.17256 -.049303)"><path d="m153.74 119.13 9.0607 8.4598"/><path d="m160.7 122.9-2.0603-1.9256"/><path d="m158.16 121.49 0.47811-0.51144"/><path d="m158.16 121.49-3.5334-3.2865"/><path d="m163.69 126.64-3.4648-3.2277"/><path d="m160.23 123.41 0.47784-0.51144"/></g><path d="m149.74 130.51h17.913"/><path d="m166.39 128.21a0.5 0.5 0 0 0 0.11698-0.3214"/><path d="m163.84 127.8 0.43709 0.40826"/><path d="m154.35 116.55 1.1626 1.0864"/><path d="m153.97 115.59-1.7912 1.9924"/><path d="m167.06 126.92a0.1 0.1 0 0 0-0.14134 5e-3"/><path d="m167.85 129.96a0.2 0.2 0 0 0-0.2-0.20001"/><path d="m153.28 115.52 0.44371-0.0302"/><path d="m153.72 115.49a0.2 0.2 0 0 0 0.13261-0.063"/><path d="m154.18 119.54-0.43868-0.41011"/><path d="m164.79 126.3-0.67283-0.62865"/><path d="m161.38 127.96s0.46855-0.10406 0.61278 0.15426 0.21679 0.68054-0.20917 1.0284-0.92914 0.33414-1.1069 0.14817-0.0374-0.59026-0.0374-0.59026"/><path d="m152.61 121.13s-0.46951 0.0996-0.61128-0.16008-0.21031-0.68257 0.21894-1.0264c0.42924-0.34382 0.93227-0.32529 1.1082-0.13764 0.17596 0.18765 0.0318 0.59059 0.0318 0.59059"/></g></svg>
