<?xml version="1.0" encoding="UTF-8" standalone="no"?>
<svg
   width="308.55856"
   height="48.295288"
   version="1.1"
   id="svg142"
   sodipodi:docname="desenhotecnico.svg"
   inkscape:version="1.2.2 (732a01da63, 2022-12-09)"
   xmlns:inkscape="http://www.inkscape.org/namespaces/inkscape"
   xmlns:sodipodi="http://sodipodi.sourceforge.net/DTD/sodipodi-0.dtd"
   xmlns="http://www.w3.org/2000/svg"
   xmlns:svg="http://www.w3.org/2000/svg">
  <defs
     id="defs146" />
  <sodipodi:namedview
     id="namedview144"
     pagecolor="#505050"
     bordercolor="#ffffff"
     borderopacity="1"
     inkscape:showpageshadow="0"
     inkscape:pageopacity="0"
     inkscape:pagecheckerboard="1"
     inkscape:deskcolor="#505050"
     showgrid="false"
     inkscape:zoom="1.18"
     inkscape:cx="143.22034"
     inkscape:cy="46.610169"
     inkscape:window-width="1920"
     inkscape:window-height="1009"
     inkscape:window-x="-8"
     inkscape:window-y="-8"
     inkscape:window-maximized="1"
     inkscape:current-layer="g140" />
  <g
     fill="none"
     stroke="#000000"
     stroke-linecap="round"
     stroke-linejoin="round"
     id="g140"
     transform="translate(-156.36086,-53.177274)">
    <g
       transform="matrix(8.7747,0,0,8.8904,-1098.1,952.5)"
       stroke-width="0.11322"
       id="g120">
      <path
         d="m 143.52,-100.2 v 3.5"
         id="path36" />
      <path
         d="m 162.92,-100.2 v 3.5"
         id="path38" />
      <path
         d="m 162.26,-100.2 v 3.5"
         id="path40" />
      <path
         d="m 143.93,-100.17 v 3.4362"
         id="path42" />
      <path
         d="m 162.76,-100.2 v 3.5"
         id="path44" />
      <path
         d="m 162.51,-100.17 v 3.4362"
         id="path46" />
      <path
         d="m 143.68,-100.2 v 3.5"
         id="path48" />
      <path
         d="m 144.18,-100.2 v 3.5"
         id="path50" />
      <path
         d="m 162.51,-100.17 0.24756,-0.0319"
         id="path52" />
      <path
         d="m 143.52,-96.699 h 0.16072"
         id="path54" />
      <path
         d="m 143.93,-100.17 -0.24756,-0.0319"
         id="path56" />
      <path
         d="m 155.42,-96.699 h 6.8442"
         id="path58" />
      <path
         d="m 143.93,-100.17 0.24756,-0.0319"
         id="path60" />
      <path
         d="m 155.42,-100.2 h 6.8442"
         id="path62" />
      <path
         d="m 162.76,-100.2 h 0.16073"
         id="path64" />
      <path
         d="m 162.76,-96.699 h 0.16073"
         id="path66" />
      <path
         d="m 143.93,-96.731 -0.24756,0.0319"
         id="path68" />
      <path
         d="m 143.93,-96.731 0.24756,0.0319"
         id="path70" />
      <path
         d="m 162.51,-96.731 0.24756,0.0319"
         id="path72" />
      <path
         d="m 144.18,-96.699 h 6.8442"
         id="path74" />
      <path
         d="m 144.18,-100.2 h 6.8442"
         id="path76" />
      <path
         d="m 143.52,-100.2 h 0.16072"
         id="path78" />
      <path
         d="m 162.51,-96.731 -0.24755,0.0319"
         id="path80" />
      <path
         d="m 162.51,-100.17 -0.24755,-0.0319"
         id="path82" />
      <path
         d="m 151.02,-100.8 v 4.7"
         id="path84" />
      <path
         d="m 162.92,-100.2 v 3.5"
         id="path86" />
      <path
         d="m 143.52,-100.2 v 3.5"
         id="path88" />
      <path
         d="m 163.42,-99.699 v 2.5"
         id="path90" />
      <path
         d="m 143.02,-99.699 v 2.5"
         id="path92" />
      <path
         d="m 155.42,-100.8 v 4.7"
         id="path94" />
      <path
         d="m 155.42,-100.8 a 0.3,0.3 0 0 0 -0.3,-0.3"
         id="path96" />
      <path
         d="m 163.42,-99.699 a 0.5,0.5 0 0 0 -0.5,-0.5"
         id="path98" />
      <path
         d="m 151.32,-95.799 h 3.8"
         id="path100" />
      <path
         d="m 162.92,-96.699 a 0.5,0.5 0 0 0 0.5,-0.5"
         id="path102" />
      <path
         d="m 155.12,-95.799 a 0.3,0.3 0 0 0 0.3,-0.3"
         id="path104" />
      <path
         d="m 143.52,-100.2 a 0.5,0.5 0 0 0 -0.5,0.5"
         id="path106" />
      <path
         d="m 151.32,-101.1 a 0.3,0.3 0 0 0 -0.3,0.3"
         id="path108" />
      <path
         d="m 151.02,-96.099 a 0.3,0.3 0 0 0 0.3,0.3"
         id="path110" />
      <path
         d="m 143.02,-97.199 a 0.5,0.5 0 0 0 0.5,0.5"
         id="path112" />
      <path
         d="m 151.32,-101.1 h 3.8"
         id="path114" />
      <path
         d="m 155.12,-101.1 v 5.3"
         id="path116" />
      <path
         d="m 151.32,-101.1 v 5.3"
         id="path118" />
    </g>
    <g
       stroke-width="0.11374"
       id="g138"
       transform="translate(21.126413)">
      <circle
         transform="matrix(8.7483,0,0,-8.836,-1123.7,947.45)"
         cx="176.47"
         cy="98.448997"
         r="1.75"
         id="circle122" />
      <circle
         transform="matrix(8.7483,0,0,-8.836,-1123.7,947.45)"
         cx="176.47"
         cy="98.448997"
         r="0.76956999"
         id="circle124" />
      <circle
         transform="matrix(8.7483,0,0,-8.836,-1123.7,947.45)"
         cx="176.47"
         cy="98.448997"
         r="1"
         id="circle126" />
      <circle
         transform="matrix(8.7483,0,0,-8.836,-1123.7,947.45)"
         cx="176.47"
         cy="98.448997"
         r="2.6500001"
         id="circle128" />
      <circle
         transform="matrix(8.7483,0,0,-8.836,-1123.7,947.45)"
         cx="176.47"
         cy="98.448997"
         r="1.75"
         id="circle130" />
      <circle
         transform="matrix(8.7483,0,0,-8.836,-1123.7,947.45)"
         cx="176.47"
         cy="98.448997"
         r="1"
         id="circle132" />
      <circle
         transform="matrix(8.7483,0,0,-8.836,-1123.7,947.45)"
         cx="176.47"
         cy="98.448997"
         r="2.3499999"
         id="circle134" />
      <circle
         transform="matrix(8.7483,0,0,-8.836,-1123.7,947.45)"
         cx="176.47"
         cy="98.448997"
         r="1.25"
         id="circle136" />
    </g>
  </g>
</svg>
