<?xml version="1.0" encoding="UTF-8" standalone="no"?>
<svg
   width="640"
   height="635"
   version="1.1"
   viewBox="0 0 169.33 168.01241"
   id="svg523"
   sodipodi:docname="2.svg"
   inkscape:version="1.2.2 (732a01da63, 2022-12-09)"
   xmlns:inkscape="http://www.inkscape.org/namespaces/inkscape"
   xmlns:sodipodi="http://sodipodi.sourceforge.net/DTD/sodipodi-0.dtd"
   xmlns="http://www.w3.org/2000/svg"
   xmlns:svg="http://www.w3.org/2000/svg">
  <defs
     id="defs527" />
  <sodipodi:namedview
     id="namedview525"
     pagecolor="#505050"
     bordercolor="#ffffff"
     borderopacity="1"
     inkscape:showpageshadow="0"
     inkscape:pageopacity="0"
     inkscape:pagecheckerboard="1"
     inkscape:deskcolor="#505050"
     showgrid="false"
     inkscape:zoom="1.4195489"
     inkscape:cx="212.74364"
     inkscape:cy="508.61228"
     inkscape:window-width="1920"
     inkscape:window-height="1009"
     inkscape:window-x="-8"
     inkscape:window-y="-8"
     inkscape:window-maximized="1"
     inkscape:current-layer="g367" />
  <g
     transform="matrix(0.80215,0,0,0.80215,16.759,9.6257)"
     fill-rule="evenodd"
     stroke-width="1.2466"
     id="g335">
    <path
       transform="matrix(0.35278,0,0,0.35278,84.755,9.1484)"
       d="m 0,440.02 -7.6753,-0.3 -7.66,-0.572 -7.6342,-0.86 -7.6035,-1.071 -7.5595,-1.357 -7.5051,-1.644 -7.4452,-1.888 -7.3769,-2.132 -7.2974,-2.392 -7.2053,-2.668 -7.1142,-2.886 -6.9999,-3.175 -6.888,-3.404 -6.7775,-3.593 -6.656,-3.796 -6.496,-4.108 -6.375,-4.247 -6.208,-4.513 -6.056,-4.7 -5.884,-4.917 -5.72,-5.095 -5.533,-5.302 -5.325,-5.54 -5.154,-5.665 -4.922,-5.907 -4.723,-6.055 -4.536,-6.162 -4.338,-6.281 -4.031,-6.582 -3.895,-6.55 -3.543,-6.885 -3.423,-6.808 -3.074,-7.092 -2.877,-7.118 -2.666,-7.156 -2.376,-7.3 -2.114,-7.386 -1.86,-7.448 -1.615,-7.489 -1.356,-7.536 -1.171,-7.488 -0.741,-7.712 -0.645,-7.546 -0.231,-7.72 -0.015,-7.67 0.227,-7.641 0.542,-7.673 0.713,-7.563 1.086,-7.629 1.257,-7.506 1.603,-7.528 1.877,-7.476 2.15,-7.416 2.36,-7.301 2.661,-7.249 2.9,-7.142 3.134,-7.029 3.367,-6.908 3.614,-6.792 3.74,-6.598 4.081,-6.526 4.303,-6.3785 4.295,-6.1079 4.68,-6.0395 4.854,-5.8568 4.97,-5.6456 5.17,-5.4711 5.292,-5.261 5.227,-4.979 5.446,-4.8109 5.605,-4.6163 5.705,-4.3987 5.76,-4.1681 5.565,-3.868 5.7,-3.6722 5.734,-3.4487 5.5919,-3.1865 5.4602,-2.9384 5.3017,-2.6961 5.4814,-2.5251 4.8867,-2.2245 4.7836,-2.0278 4.5394,-1.8212 4.5799,-1.6595 4.4996,-1.4868 4.2782,-1.31 4.0325,-1.1448 4.0355,-1.0021 3.7422,-0.85498 3.5622,-0.72386 3.3788,-0.60271 3.0754,-0.49568 2.906,-0.39774 2.8121,-0.30348 2.4247,-0.23983 2.2694,-0.17212 2.0934,-0.11499 1.1635,-0.17293 0.2774,-0.2734 0.1471,-0.28819 -0.1545,-0.34344 0.4054,-0.23218 0.0851,-0.29365 0.1469,-0.27765 0.2267,-0.25353 0.0054,-0.31142 0.0858,-0.28977 0.0909,-0.28823 0.0959,-0.2866 0.0642,-0.29822 0.0333,-0.31167 0.0392,-0.31231 -0.0087,-0.33569 0.0872,-0.29832 0.0219,-0.33033 0.3266,-0.18643 0.276,-0.20391 0.0716,-0.3065 0.1629,-0.25913 0.1503,-0.2657 0.1717,-0.253 -0.2376,-0.508 0.6098,0.02268 0.2163,-0.22072 0.2035,-0.22726 0.2386,-0.20015 0.2568,-0.1832 0.3819,-0.0813 0.2441,-0.1815 0.3061,-0.1261 0.4095,-0.0292 0.4065,-0.0181 0.4034,-0.0073 0.428,0.0306 0.4371,0.0559 0.4859,0.124 0.65114,0.323 0.50611,0.1974 1.2254,1.0507 1.2734,1.1946 0.95903,0.90256 1.2974,1.4097 1.2344,1.4369 0.99927,1.2254 0.79869,1.035 0.7181,0.99707 0.5234,0.77598 0.5234,-0.77598 0.7181,-0.99707 0.79869,-1.035 0.99927,-1.2254 1.2344,-1.4369 1.2974,-1.4097 0.95903,-0.90256 1.2734,-1.1946 1.2254,-1.0507 0.50611,-0.1974 0.65114,-0.323 0.4859,-0.124 0.4371,-0.0559 0.428,-0.0306 0.4034,0.0073 0.4065,0.0181 0.4095,0.0292 0.3061,0.1261 0.2441,0.1815 0.3819,0.0813 0.2568,0.1832 0.2386,0.20015 0.2035,0.22726 0.2163,0.22072 0.6098,-0.02268 -0.2376,0.508 0.1717,0.253 0.1503,0.2657 0.1629,0.25913 0.0716,0.3065 0.276,0.20391 0.3266,0.18643 0.0219,0.33033 0.0872,0.29832 -0.0087,0.33569 0.0392,0.31231 0.0333,0.31167 0.0642,0.29822 0.0959,0.2866 0.0909,0.28823 0.0858,0.28977 0.0054,0.31142 0.2267,0.25353 0.1469,0.27765 0.0851,0.29365 0.4054,0.23218 -0.1545,0.34344 0.1471,0.28819 0.2774,0.2734 1.1635,0.17293 2.0934,0.11499 2.2694,0.17212 2.4247,0.23983 2.8121,0.30348 2.906,0.39774 3.0754,0.49568 3.3788,0.60271 3.5622,0.72386 3.7422,0.85498 4.0355,1.0021 4.0325,1.1448 4.2782,1.31 4.4996,1.4868 4.5799,1.6595 4.5394,1.8212 4.7836,2.0278 4.8867,2.2245 5.4814,2.5251 5.3017,2.6961 5.4602,2.9384 5.5919,3.1865 5.734,3.4487 5.7,3.6722 5.565,3.868 5.76,4.1681 5.705,4.3987 5.605,4.6163 5.446,4.8109 5.227,4.979 5.292,5.261 5.17,5.4711 4.97,5.6456 4.854,5.8568 4.68,6.0395 4.295,6.1079 4.303,6.3785 4.081,6.526 3.74,6.598 3.614,6.792 3.367,6.908 3.134,7.029 2.9,7.142 2.661,7.249 2.36,7.301 2.15,7.416 1.877,7.476 1.603,7.528 1.257,7.506 1.086,7.629 0.713,7.563 0.542,7.673 0.227,7.641 -0.015,7.67 -0.231,7.72 -0.645,7.546 -0.741,7.712 -1.171,7.488 -1.356,7.536 -1.615,7.489 -1.86,7.448 -2.114,7.386 -2.376,7.3 -2.666,7.156 -2.877,7.118 -3.074,7.092 -3.423,6.808 -3.543,6.885 -3.895,6.55 -4.031,6.582 -4.338,6.281 -4.536,6.162 -4.723,6.055 -4.922,5.907 -5.154,5.665 -5.325,5.54 -5.533,5.302 -5.72,5.095 -5.884,4.917 -6.056,4.7 -6.208,4.513 -6.375,4.247 -6.496,4.108 -6.656,3.796 -6.7775,3.593 -6.888,3.404 -6.9999,3.175 -7.1142,2.886 -7.2053,2.668 -7.2974,2.392 -7.3769,2.132 -7.4452,1.888 -7.5051,1.644 -7.5595,1.357 -7.6035,1.071 -7.6342,0.86 -7.66,0.572 -7.6753,0.3"
       fill="#fcff5c"
       fill-opacity="0.70588"
       id="path327" />
    <path
       transform="matrix(0.35278,0,0,0.35278,84.755,9.1484)"
       d="m 0,440.02 -7.6753,-0.3 -7.66,-0.572 -7.6342,-0.86 -7.6035,-1.071 -7.5595,-1.357 -7.5051,-1.644 -7.4452,-1.888 -7.3769,-2.132 -7.2974,-2.392 -7.2053,-2.668 -7.1142,-2.886 -6.9999,-3.175 -6.888,-3.404 -6.7775,-3.593 -6.656,-3.796 -6.496,-4.108 -6.375,-4.247 -6.208,-4.513 -6.056,-4.7 -5.884,-4.917 -5.72,-5.095 -5.533,-5.302 -5.325,-5.54 -5.154,-5.665 -4.922,-5.907 -4.723,-6.055 -4.536,-6.162 -4.338,-6.281 -4.031,-6.582 -3.895,-6.55 -3.543,-6.885 -3.423,-6.808 -3.074,-7.092 -2.877,-7.118 -2.666,-7.156 -2.376,-7.3 -2.114,-7.386 -1.86,-7.448 -1.615,-7.489 -1.356,-7.536 -1.171,-7.488 -0.741,-7.712 -0.645,-7.546 -0.231,-7.72 -0.015,-7.67 0.227,-7.641 0.542,-7.673 0.713,-7.563 1.086,-7.629 1.257,-7.506 1.603,-7.528 1.877,-7.476 2.15,-7.416 2.36,-7.301 2.661,-7.249 2.9,-7.142 3.134,-7.029 3.367,-6.908 3.614,-6.792 3.74,-6.598 4.081,-6.526 4.303,-6.3785 4.295,-6.1079 4.68,-6.0395 4.854,-5.8568 4.97,-5.6456 5.17,-5.4711 5.292,-5.261 5.227,-4.979 5.446,-4.8109 5.605,-4.6163 5.705,-4.3987 5.76,-4.1681 5.565,-3.868 5.7,-3.6722 5.734,-3.4487 5.5919,-3.1865 5.4602,-2.9384 5.3017,-2.6961 5.4814,-2.5251 4.8867,-2.2245 4.7836,-2.0278 4.5394,-1.8212 4.5799,-1.6595 4.4996,-1.4868 4.2782,-1.31 4.0325,-1.1448 4.0355,-1.0021 3.7422,-0.85498 3.5622,-0.72386 3.3788,-0.60271 3.0754,-0.49568 2.906,-0.39774 2.8121,-0.30348 2.4247,-0.23983 2.2694,-0.17212 2.0934,-0.11499 1.1635,-0.17293 0.2774,-0.2734 0.1471,-0.28819 -0.1545,-0.34344 0.4054,-0.23218 0.0851,-0.29365 0.1469,-0.27765 0.2267,-0.25353 0.0054,-0.31142 0.0858,-0.28977 0.0909,-0.28823 0.0959,-0.2866 0.0642,-0.29822 0.0333,-0.31167 0.0392,-0.31231 -0.0087,-0.33569 0.0872,-0.29832 0.0219,-0.33033 0.3266,-0.18643 0.276,-0.20391 0.0716,-0.3065 0.1629,-0.25913 0.1503,-0.2657 0.1717,-0.253 -0.2376,-0.508 0.6098,0.02268 0.2163,-0.22072 0.2035,-0.22726 0.2386,-0.20015 0.2568,-0.1832 0.3819,-0.0813 0.2441,-0.1815 0.3061,-0.1261 0.4095,-0.0292 0.4065,-0.0181 0.4034,-0.0073 0.428,0.0306 0.4371,0.0559 0.4859,0.124 0.65114,0.323 0.50611,0.1974 1.2254,1.0507 1.2734,1.1946 0.95903,0.90256 1.2974,1.4097 1.2344,1.4369 0.99927,1.2254 0.79869,1.035 0.7181,0.99707 0.5234,0.77598 0.5234,-0.77598 0.7181,-0.99707 0.79869,-1.035 0.99927,-1.2254 1.2344,-1.4369 1.2974,-1.4097 0.95903,-0.90256 1.2734,-1.1946 1.2254,-1.0507 0.50611,-0.1974 0.65114,-0.323 0.4859,-0.124 0.4371,-0.0559 0.428,-0.0306 0.4034,0.0073 0.4065,0.0181 0.4095,0.0292 0.3061,0.1261 0.2441,0.1815 0.3819,0.0813 0.2568,0.1832 0.2386,0.20015 0.2035,0.22726 0.2163,0.22072 0.6098,-0.02268 -0.2376,0.508 0.1717,0.253 0.1503,0.2657 0.1629,0.25913 0.0716,0.3065 0.276,0.20391 0.3266,0.18643 0.0219,0.33033 0.0872,0.29832 -0.0087,0.33569 0.0392,0.31231 0.0333,0.31167 0.0642,0.29822 0.0959,0.2866 0.0909,0.28823 0.0858,0.28977 0.0054,0.31142 0.2267,0.25353 0.1469,0.27765 0.0851,0.29365 0.4054,0.23218 -0.1545,0.34344 0.1471,0.28819 0.2774,0.2734 1.1635,0.17293 2.0934,0.11499 2.2694,0.17212 2.4247,0.23983 2.8121,0.30348 2.906,0.39774 3.0754,0.49568 3.3788,0.60271 3.5622,0.72386 3.7422,0.85498 4.0355,1.0021 4.0325,1.1448 4.2782,1.31 4.4996,1.4868 4.5799,1.6595 4.5394,1.8212 4.7836,2.0278 4.8867,2.2245 5.4814,2.5251 5.3017,2.6961 5.4602,2.9384 5.5919,3.1865 5.734,3.4487 5.7,3.6722 5.565,3.868 5.76,4.1681 5.705,4.3987 5.605,4.6163 5.446,4.8109 5.227,4.979 5.292,5.261 5.17,5.4711 4.97,5.6456 4.854,5.8568 4.68,6.0395 4.295,6.1079 4.303,6.3785 4.081,6.526 3.74,6.598 3.614,6.792 3.367,6.908 3.134,7.029 2.9,7.142 2.661,7.249 2.36,7.301 2.15,7.416 1.877,7.476 1.603,7.528 1.257,7.506 1.086,7.629 0.713,7.563 0.542,7.673 0.227,7.641 -0.015,7.67 -0.231,7.72 -0.645,7.546 -0.741,7.712 -1.171,7.488 -1.356,7.536 -1.615,7.489 -1.86,7.448 -2.114,7.386 -2.376,7.3 -2.666,7.156 -2.877,7.118 -3.074,7.092 -3.423,6.808 -3.543,6.885 -3.895,6.55 -4.031,6.582 -4.338,6.281 -4.536,6.162 -4.723,6.055 -4.922,5.907 -5.154,5.665 -5.325,5.54 -5.533,5.302 -5.72,5.095 -5.884,4.917 -6.056,4.7 -6.208,4.513 -6.375,4.247 -6.496,4.108 -6.656,3.796 -6.7775,3.593 -6.888,3.404 -6.9999,3.175 -7.1142,2.886 -7.2053,2.668 -7.2974,2.392 -7.3769,2.132 -7.4452,1.888 -7.5051,1.644 -7.5595,1.357 -7.6035,1.071 -7.6342,0.86 -7.66,0.572 -7.6753,0.3"
       fill="none"
       stroke="#fcff5c"
       stroke-linecap="round"
       stroke-linejoin="round"
       stroke-width="3.7399"
       id="path331" />
  </g>
  <g
     transform="translate(0,-65.613)"
     fill="#848484"
     fill-rule="evenodd"
     font-family="Lato"
     stroke-linejoin="round"
     id="g355">
    <g
       font-size="14.937px"
       stroke-width="1.2448"
       id="g349">
      <text
         transform="matrix(0.28341,0,0,0.28341,23.833,82.59)"
         x="472"
         y="6.5"
         style="font-variant-ligatures:normal;font-variant-caps:normal;font-variant-numeric:normal;font-variant-east-asian:normal"
         xml:space="preserve"
         id="text337">90°</text>
      <text
         transform="matrix(0.28341,0,0,0.28341,145.55,82.59)"
         x="-496"
         y="6.5"
         style="font-variant-ligatures:normal;font-variant-caps:normal;font-variant-numeric:normal;font-variant-east-asian:normal"
         xml:space="preserve"
         id="text339">90°</text>
      <text
         transform="matrix(0.28341,0,0,0.28341,83.593,81.449)"
         x="233.98399"
         y="421.297"
         style="font-variant-ligatures:normal;font-variant-caps:normal;font-variant-numeric:normal;font-variant-east-asian:normal"
         xml:space="preserve"
         id="text341"> 30°</text>
      <text
         transform="matrix(0.28341,0,0,0.28341,41.92,55.913)"
         x="405.297"
         y="250"
         style="font-variant-ligatures:normal;font-variant-caps:normal;font-variant-numeric:normal;font-variant-east-asian:normal"
         xml:space="preserve"
         id="text343"> 60°</text>
      <text
         transform="matrix(0.28341,0,0,0.28341,85.908,81.449)"
         x="-260.98401"
         y="421.297"
         style="font-variant-ligatures:normal;font-variant-caps:normal;font-variant-numeric:normal;font-variant-east-asian:normal"
         xml:space="preserve"
         id="text345">30° </text>
      <text
         transform="matrix(0.28341,0,0,0.28341,127.58,55.913)"
         x="-432.297"
         y="250"
         style="font-variant-ligatures:normal;font-variant-caps:normal;font-variant-numeric:normal;font-variant-east-asian:normal"
         xml:space="preserve"
         id="text347">60° </text>
    </g>
    <text
       transform="matrix(0.28319,0,0,0.28319,-50.867,217.57)"
       x="472"
       y="6.5"
       font-size="14.948px"
       stroke-width="1.6"
       style="font-variant-ligatures:normal;font-variant-caps:normal;font-variant-numeric:normal;font-variant-east-asian:normal"
       xml:space="preserve"
       id="text351">0º</text>
    <text
       transform="matrix(0.28319,0,0,0.28319,-54.958,222.31)"
       x="472"
       y="6.5"
       font-size="14.948px"
       stroke-width="1.6"
       style="font-variant-ligatures:normal;font-variant-caps:normal;font-variant-numeric:normal;font-variant-east-asian:normal"
       xml:space="preserve"
       id="text353">cd.klm</text>
  </g>
  <g
     transform="matrix(0.36334,0,0,0.36334,71.361,-86.057)"
     fill="none"
     fill-rule="evenodd"
     font-family="Lato"
     stroke="#000000"
     stroke-linecap="square"
     stroke-linejoin="bevel"
     stroke-width="0.91678"
     id="g371">
    <g
       stroke-linejoin="round"
       id="g367">
      <g
         transform="matrix(0.72337,0,0,0.72337,-166.61,669.22)"
         fill="#fcff5c"
         fill-opacity="0.68235"
         font-size="16px"
         font-weight="400"
         stroke="#fcff5c"
         stroke-linecap="round"
         stroke-width="1.8336"
         id="g359">
        <rect
           y="6.5"
           width="11.2"
           height="15.2"
           stroke-width="1.8336"
           id="rect357"
           x="0" />
      </g>
      <text
         transform="matrix(0.72337,0,0,0.72337,-166.61,667.7)"
         x="16"
         y="22.5"
         fill="#848484"
         font-size="17.569px"
         stroke="none"
         stroke-linecap="butt"
         stroke-width="0.91678"
         style="font-variant-ligatures:normal;font-variant-caps:normal;font-variant-numeric:normal;font-variant-east-asian:normal"
         xml:space="preserve"
         id="text361">C0-C180</text>
    </g>
  </g>
  <g
     transform="translate(3.7076e-4,7.8131)"
     fill="none"
     stroke="#858585"
     id="g415">
    <path
       transform="matrix(0.52917,0,0,0.52917,-68.201,-25.683)"
       d="m 320.33,65.864 a 31.291,31.291 0 0 1 -15.646,27.099 31.291,31.291 0 0 1 -31.292,-10e-7 31.291,31.291 0 0 1 -15.646,-27.099"
       stroke-width="0.15"
       id="path373" />
    <path
       transform="matrix(1.0583,0,0,1.0576,-221.15,-60.49)"
       d="m 320.33,65.864 a 31.291,31.291 0 0 1 -15.646,27.099 31.291,31.291 0 0 1 -31.292,-10e-7 31.291,31.291 0 0 1 -15.646,-27.099"
       stroke-width="0.075027"
       id="path375" />
    <path
       transform="matrix(1.5875,0,0,1.5865,-374.1,-95.32)"
       d="m 320.33,65.864 a 31.291,31.291 0 0 1 -15.646,27.099 31.291,31.291 0 0 1 -31.292,-10e-7 31.291,31.291 0 0 1 -15.646,-27.099"
       stroke-width="0.050016"
       id="path377" />
    <path
       transform="matrix(2.1167,0,0,2.1153,-527.05,-130.15)"
       d="m 320.33,65.864 a 31.291,31.291 0 0 1 -15.646,27.099 31.291,31.291 0 0 1 -31.292,-10e-7 31.291,31.291 0 0 1 -15.646,-27.099"
       stroke-width="0.037512"
       id="path379" />
    <path
       transform="matrix(2.6458,0,0,2.6441,-680,-164.98)"
       d="m 316.1,81.579 c -2.6998,4.6487 -6.5966,8.6031 -11.414,11.384 -9.6817,5.59 -21.61,5.59 -31.292,-10e-7 -4.8457,-2.7976 -8.7602,-6.7827 -11.462,-11.467"
       stroke-width="0.03001"
       id="path381" />
    <path
       transform="matrix(3.1749,0,0,3.1729,-832.93,-199.8)"
       d="m 311.59,87.561 c -2.0089,2.088 -4.324,3.9131 -6.9028,5.4019 -9.6817,5.59 -21.61,5.59 -31.292,-1e-6 -2.5964,-1.499 -4.9254,-3.3389 -6.9438,-5.4447"
       stroke-width="0.025009"
       id="path383" />
    <path
       transform="matrix(3.7041,0,0,3.7017,-985.9,-234.64)"
       d="m 308.37,90.473 c -1.1574,0.90884 -2.3869,1.7421 -3.683,2.4903 -9.6817,5.59 -21.61,5.59 -31.292,-10e-7 -1.3089,-0.75568 -2.5499,-1.598 -3.7174,-2.5174"
       stroke-width="0.021436"
       id="path385" />
    <path
       transform="matrix(4.2243,0,0,4.2215,-1136.5,-268.87)"
       d="m 306.04,92.132 c -0.44425,0.28747 -0.89718,0.5646 -1.3586,0.83096 -9.6817,5.59 -21.61,5.59 -31.292,-10e-7 -0.43229,-0.24957 -0.85718,-0.5086 -1.2744,-0.77673"
       stroke-width="0.018796"
       id="path387" />
    <path
       transform="matrix(0.26469,0,0,0.26469,-0.036694,-0.031725)"
       d="m 320.33,34.764 v 499.07"
       stroke-width="0.29988"
       id="path389" />
    <path
       transform="matrix(0,0.29371,-0.29371,0,168.21,-84.937)"
       d="m 320.33,40.455 v 487.98"
       stroke-width="0.27025"
       id="path391" />
    <g
       stroke-width="0.29988"
       id="g413">
      <path
         transform="matrix(0.26469,0,0,0.26469,-0.036694,-0.031725)"
         d="m 320.33,34.764 129.11,481.86"
         id="path393" />
      <path
         transform="matrix(0.26469,0,0,0.26469,-0.036694,-0.031725)"
         d="m 320.33,34.764 249.34,431.88"
         id="path395" />
      <path
         transform="matrix(0.26469,0,0,0.26469,-0.036694,-0.031725)"
         d="m 320.33,34.764 270.38,270.38"
         id="path397" />
      <path
         transform="matrix(0.26469,0,0,0.26469,-0.036694,-0.031725)"
         d="m 320.33,34.764 270.39,156.06"
         id="path399" />
      <path
         transform="matrix(0.26469,0,0,0.26469,-0.036694,-0.031725)"
         d="m 320.33,34.764 270.39,72.405"
         id="path401" />
      <path
         transform="matrix(0.26469,0,0,0.26469,-0.036694,-0.031725)"
         d="M 320.33,34.764 191.1,517.074"
         id="path403" />
      <path
         transform="matrix(0.26469,0,0,0.26469,-0.036694,-0.031725)"
         d="M 320.33,34.764 70.48,467.524"
         id="path405" />
      <path
         transform="matrix(0.26469,0,0,0.26469,-0.036694,-0.031725)"
         d="M 320.33,34.764 49.25,305.844"
         id="path407" />
      <path
         transform="matrix(0.26469,0,0,0.26469,-0.036694,-0.031725)"
         d="M 320.33,34.764 49.25,191.274"
         id="path409" />
      <path
         transform="matrix(0.26469,0,0,0.26469,-0.036694,-0.031725)"
         d="M 320.33,34.764 49.27,107.391"
         id="path411" />
    </g>
  </g>
  <g
     transform="matrix(-2.1007,0,0,-2.1171,1227.8,-892.04)"
     fill="none"
     stroke="#000000"
     stroke-linecap="round"
     stroke-width="0.094837"
     id="g521">
    <path
       d="m 542.53,-426.81 h -2"
       id="path417" />
    <path
       d="m 540.38,-427.01 h 0.84984"
       id="path419" />
    <path
       d="m 538.43,-429.61 a 0.5,0.5 0 0 0 -0.5,0.5"
       id="path421" />
    <path
       d="m 545.83,-426.81 v -0.60008"
       id="path423" />
    <path
       d="m 549.93,-429.61 h -2.1"
       id="path425" />
    <path
       d="m 539.58,-428.91 v 3.51"
       id="path427" />
    <path
       d="m 550.43,-428.41 v -0.69982"
       id="path429" />
    <path
       d="m 547.13,-427.51 v 0.50006"
       id="path431" />
    <path
       d="m 550.43,-429.11 a 0.5,0.5 0 0 0 -0.5,-0.5"
       id="path433" />
    <path
       d="m 547.13,-424.61 h -5.9002"
       id="path435" />
    <path
       d="m 541.23,-425.71 h -0.84984"
       id="path437" />
    <path
       d="m 540.53,-426.81 v 0.99986"
       id="path439" />
    <path
       d="m 540.53,-429.61 h -2.1"
       id="path441" />
    <path
       d="m 545.63,-425.81 h 2.2"
       id="path443" />
    <path
       d="m 542.73,-427.41 h -0.20003"
       id="path445" />
    <path
       d="m 549.18,-424.41 v -0.50006"
       id="path447" />
    <path
       d="m 547.13,-427.01 h 0.84984"
       id="path449" />
    <path
       d="m 539.18,-424.41 a 0.5,0.5 0 0 0 0.5,0.5"
       id="path451" />
    <path
       d="m 549.53,-427.91 h 0.40005"
       id="path453" />
    <path
       d="m 539.18,-424.91 v 0.50006"
       id="path455" />
    <path
       d="m 547.83,-429.61 a 9.8661,9.8661 0 0 0 -7.3,0"
       id="path457" />
    <path
       d="m 549.93,-427.91 a 0.5,0.5 0 0 0 0.5,-0.5"
       id="path459" />
    <path
       d="m 547.83,-426.81 h -2"
       id="path461" />
    <path
       d="m 547.98,-427.75 -0.84984,0.24289"
       id="path463" />
    <path
       d="m 542.73,-425.81 h 2.8998"
       id="path465" />
    <path
       d="m 547.98,-428.76 a 13.572,13.572 0 0 0 -7.6,0"
       id="path467" />
    <path
       d="m 549.73,-428.91 -0.20002,0.99986"
       id="path469" />
    <path
       d="m 545.83,-427.41 h -0.20003"
       id="path471" />
    <path
       d="m 549.18,-424.91 a 0.5,0.5 0 0 0 -0.4,-0.48989"
       id="path473" />
    <path
       d="m 547.98,-427.01 v 1.2999"
       id="path475" />
    <path
       d="m 547.98,-428.76 v 1.0091"
       id="path477" />
    <path
       d="m 540.53,-425.81 h 2.2"
       id="path479" />
    <path
       d="m 540.38,-425.71 v -1.2999"
       id="path481" />
    <path
       d="m 547.98,-425.71 h -0.84984"
       id="path483" />
    <path
       d="m 547.83,-425.81 v -0.99986"
       id="path485" />
    <path
       d="m 538.43,-427.91 h 0.39979"
       id="path487" />
    <path
       d="m 548.68,-423.91 a 0.5,0.5 0 0 0 0.5,-0.5"
       id="path489" />
    <path
       d="m 542.53,-427.41 v 0.60008"
       id="path491" />
    <path
       d="m 548.78,-428.91 h 0.94985"
       id="path493" />
    <path
       d="m 537.93,-429.11 v 0.69982"
       id="path495" />
    <path
       d="m 540.38,-427.75 v -1.0091"
       id="path497" />
    <path
       d="m 547.13,-425.71 v 1.1054"
       id="path499" />
    <path
       d="m 539.58,-425.4 a 0.5,0.5 0 0 0 -0.4,0.4899"
       id="path501" />
    <path
       d="m 538.83,-427.91 -0.19977,-0.99986"
       id="path503" />
    <path
       d="m 538.63,-428.91 h 0.94986"
       id="path505" />
    <path
       d="m 539.68,-423.91 h 9.0001"
       id="path507" />
    <path
       d="m 548.78,-425.4 v -3.51"
       id="path509" />
    <path
       d="m 545.63,-427.41 h -2.8998"
       id="path511" />
    <path
       d="m 541.23,-424.61 v -1.1054"
       id="path513" />
    <path
       d="m 541.23,-427.51 -0.84984,-0.24289"
       id="path515" />
    <path
       d="m 537.93,-428.41 a 0.5,0.5 0 0 0 0.5,0.5"
       id="path517" />
    <path
       d="m 541.23,-427.01 v -0.50006"
       id="path519" />
  </g>
</svg>
