<?xml version="1.0" encoding="UTF-8" standalone="no"?>
<svg
   width="640"
   height="635"
   version="1.1"
   viewBox="0 0 169.33 168.01241"
   xml:space="preserve"
   id="svg198"
   sodipodi:docname="1.svg"
   inkscape:version="1.2.2 (732a01da63, 2022-12-09)"
   xmlns:inkscape="http://www.inkscape.org/namespaces/inkscape"
   xmlns:sodipodi="http://sodipodi.sourceforge.net/DTD/sodipodi-0.dtd"
   xmlns="http://www.w3.org/2000/svg"
   xmlns:svg="http://www.w3.org/2000/svg"><defs
     id="defs202" /><sodipodi:namedview
     id="namedview200"
     pagecolor="#505050"
     bordercolor="#ffffff"
     borderopacity="1"
     inkscape:showpageshadow="0"
     inkscape:pageopacity="0"
     inkscape:pagecheckerboard="1"
     inkscape:deskcolor="#505050"
     showgrid="false"
     inkscape:zoom="1.4195489"
     inkscape:cx="365.6091"
     inkscape:cy="743.19384"
     inkscape:window-width="1920"
     inkscape:window-height="1009"
     inkscape:window-x="-8"
     inkscape:window-y="-8"
     inkscape:window-maximized="1"
     inkscape:current-layer="g46" /><g
     transform="matrix(1.5095,0,0,1.5096,-43.177,13.99)"
     fill-rule="evenodd"
     stroke-width="0.66246"
     id="g10"><path
       transform="matrix(0.35278,0,0,0.35278,84.754,2.0865)"
       d="m 0,233.67 -4.0775,-0.072 -4.0699,-0.29 -4.0576,-0.426 -4.038,-0.598 -4.0088,-0.807 -3.9825,-0.905 -3.9588,-0.959 -3.9135,-1.164 -3.878,-1.253 -3.853,-1.267 -3.8239,-1.311 -3.7904,-1.376 -3.754,-1.446 -3.6915,-1.616 -3.6394,-1.719 -3.5457,-1.955 -3.4078,-2.298 -3.3489,-2.344 -3.3538,-2.202 -3.2179,-2.473 -3.1433,-2.55 -3.0582,-2.643 -2.9729,-2.727 -2.9384,-2.689 -2.8643,-2.744 -2.6639,-3.052 -2.6648,-2.931 -2.5121,-3.113 -2.3473,-3.296 -2.245,-3.354 -2.064,-3.532 -1.954,-3.582 -1.884,-3.558 -1.728,-3.669 -1.649,-3.654 -1.617,-3.578 -1.429,-3.714 -1.258,-3.813 -1.046,-3.953 -0.657,-4.284 -0.222,-4.632 0.309,-5.048 0.678,-5.24 0.936,-5.292 1.414,-5.55 1.735,-5.621 1.879,-5.509 1.845,-5.2383 1.933,-5.0882 1.795,-4.7546 2.013,-4.7317 2.911,-5.2323 4.3454,-6.0721 6.1992,-7.1116 8.0631,-8.0248 9.4222,-8.4697 9.9533,-8.2924 9.7646,-7.645 8.3544,-6.2955 6.7819,-4.9683 5.136,-3.7224 3.6514,-2.6842 2.7306,-2.0392 1.6614,-1.3874 0.7734,-0.8923 0.0952,-0.5493 -0.2161,-0.4053 -0.1482,-0.43423 0.3648,-0.63023 0.6128,-0.69947 0.8786,-0.7609 0.9325,-0.73884 0.7903,-0.65465 1.2632,-0.75587 1.5655,-0.78543 1.4657,-0.69888 1.2776,-0.59844 1.0571,-0.50232 0.4738,-0.34848 0.2799,-0.29545 0.4087,-0.30429 0.4007,-0.28726 0.6461,-0.30203 1.7363,-0.39281 1.5782,-0.31705 1.6222,-0.26414 1.1537,-0.18238 1.1064,-0.14016 0.72899,-0.094797 0.66483,-0.069298 0.60735,-0.047092 0.57126,-0.027172 0.57121,-0.0072526 0.40287,9.216e-4 0.28568,0.0047531 0.23417,0.0093421 0.16819,0.0094648 0.17486,0.016327 0.087424,0.0086781 0.072604,0.0091736 0.050665,0.0075082 -0.0068729,-0.0028961 -0.021044,-0.00643 -0.091792,-0.024859 -0.14037,-0.041312 -0.16706,-0.054278 -0.14424,-0.053708 -0.22593,-0.08589 -0.25072,-0.10334 -0.15797,-0.079634 -0.33981,-0.156 -0.01599,-0.039218 -0.22377,-0.12854 0.0475,-0.017549 -0.09827,-0.084125 0.17362,0.043643 0.32783,0.12908 0.40664,0.18485 0.26532,0.12431 -0.018041,-0.02751 -0.10505,-0.080988 -0.090019,-0.077017 -0.075302,-0.072334 0.042149,0.002566 -0.090049,-0.088447 0.17307,0.097349 0.28026,0.18674 0.25609,0.18275 0.17557,0.13166 0.075582,0.057757 0.034854,0.026747 0.061045,0.052389 0.021737,0.019572 0.021737,-0.019572 0.061045,-0.052389 0.034854,-0.026747 0.075582,-0.057757 0.17557,-0.13166 0.25609,-0.18275 0.28026,-0.18674 0.17307,-0.097349 -0.090049,0.088447 0.042149,-0.002566 -0.075302,0.072334 -0.090019,0.077017 -0.10505,0.080988 -0.018041,0.02751 0.26532,-0.12431 0.40664,-0.18485 0.32783,-0.12908 0.17362,-0.043643 -0.09827,0.084125 0.0475,0.017549 -0.22377,0.12854 -0.01599,0.039218 -0.33981,0.156 -0.15797,0.079634 -0.25072,0.10334 -0.22593,0.08589 -0.14424,0.053708 -0.16706,0.054278 -0.14037,0.041312 -0.091792,0.024859 -0.021044,0.00643 -0.0068729,0.0028961 0.050665,-0.0075082 0.072604,-0.0091736 0.087424,-0.0086781 0.17486,-0.016327 0.16819,-0.0094648 0.23417,-0.0093421 0.28568,-0.0047531 0.40287,-9.216e-4 0.57121,0.0072526 0.57126,0.027172 0.60735,0.047092 0.66483,0.069298 0.72899,0.094797 1.1064,0.14016 1.1537,0.18238 1.6222,0.26414 1.5781998,0.31705 1.7363,0.39281 0.6461,0.30203 0.4007,0.28726 0.4087,0.30429 0.2799,0.29545 0.4738,0.34848 1.0571,0.50232 1.2776,0.59844 1.4657,0.69888 1.5655,0.78543 1.2632,0.75587 0.7903,0.65465 0.9325,0.73884 0.8786,0.7609 0.6128,0.69947 0.3648,0.63023 -0.1482,0.43423 -0.2161,0.4053 0.0952,0.5493 0.7734,0.8923 1.6614,1.3874 2.7306,2.0392 3.6514,2.6842 5.136,3.7224 6.7819,4.9683 8.3544,6.2955 9.7646,7.645 9.9533,8.2924 9.4222,8.4697 8.0631,8.0248 6.1992,7.1116 4.3454,6.0721 2.911,5.2323 2.013,4.7317 1.795,4.7546 1.933,5.0882 1.845,5.2383 1.879,5.509 1.735,5.621 1.414,5.55 0.936,5.292 0.678,5.24 0.309,5.048 -0.222,4.632 -0.657,4.284 -1.046,3.953 -1.258,3.813 -1.429,3.714 -1.617,3.578 -1.649,3.654 -1.728,3.669 -1.884,3.558 -1.954,3.582 -2.064,3.532 -2.245,3.354 -2.3473,3.296 -2.5121,3.113 -2.6648,2.931 -2.6639,3.052 -2.8643,2.744 -2.9384,2.689 -2.9729,2.727 -3.0582,2.643 -3.1433,2.55 -3.2179,2.473 -3.3538,2.202 -3.3489,2.344 -3.4078,2.298 -3.5457,1.955 -3.6394,1.719 -3.6915,1.616 -3.754,1.446 -3.7904,1.376 -3.8239,1.311 -3.853,1.267 -3.878,1.253 -3.9135,1.164 -3.9588,0.959 -3.9825,0.905 -4.0088,0.807 -4.038,0.598 -4.0575998,0.426 -4.0699,0.29 -4.0775,0.072"
       fill="#fcff5c"
       fill-opacity="0.70588"
       id="path4" /><path
       transform="matrix(0.35278,0,0,0.35278,84.754,2.0865)"
       d="m 0,233.67 -4.0775,-0.072 -4.0699,-0.29 -4.0576,-0.426 -4.038,-0.598 -4.0088,-0.807 -3.9825,-0.905 -3.9588,-0.959 -3.9135,-1.164 -3.878,-1.253 -3.853,-1.267 -3.8239,-1.311 -3.7904,-1.376 -3.754,-1.446 -3.6915,-1.616 -3.6394,-1.719 -3.5457,-1.955 -3.4078,-2.298 -3.3489,-2.344 -3.3538,-2.202 -3.2179,-2.473 -3.1433,-2.55 -3.0582,-2.643 -2.9729,-2.727 -2.9384,-2.689 -2.8643,-2.744 -2.6639,-3.052 -2.6648,-2.931 -2.5121,-3.113 -2.3473,-3.296 -2.245,-3.354 -2.064,-3.532 -1.954,-3.582 -1.884,-3.558 -1.728,-3.669 -1.649,-3.654 -1.617,-3.578 -1.429,-3.714 -1.258,-3.813 -1.046,-3.953 -0.657,-4.284 -0.222,-4.632 0.309,-5.048 0.678,-5.24 0.936,-5.292 1.414,-5.55 1.735,-5.621 1.879,-5.509 1.845,-5.2383 1.933,-5.0882 1.795,-4.7546 2.013,-4.7317 2.911,-5.2323 4.3454,-6.0721 6.1992,-7.1116 8.0631,-8.0248 9.4222,-8.4697 9.9533,-8.2924 9.7646,-7.645 8.3544,-6.2955 6.7819,-4.9683 5.136,-3.7224 3.6514,-2.6842 2.7306,-2.0392 1.6614,-1.3874 0.7734,-0.8923 0.0952,-0.5493 -0.2161,-0.4053 -0.1482,-0.43423 0.3648,-0.63023 0.6128,-0.69947 0.8786,-0.7609 0.9325,-0.73884 0.7903,-0.65465 1.2632,-0.75587 1.5655,-0.78543 1.4657,-0.69888 1.2776,-0.59844 1.0571,-0.50232 0.4738,-0.34848 0.2799,-0.29545 0.4087,-0.30429 0.4007,-0.28726 0.6461,-0.30203 1.7363,-0.39281 1.5782,-0.31705 1.6222,-0.26414 1.1537,-0.18238 1.1064,-0.14016 0.72899,-0.094797 0.66483,-0.069298 0.60735,-0.047092 0.57126,-0.027172 0.57121,-0.0072526 0.40287,9.216e-4 0.28568,0.0047531 0.23417,0.0093421 0.16819,0.0094648 0.17486,0.016327 0.087424,0.0086781 0.072604,0.0091736 0.050665,0.0075082 -0.0068729,-0.0028961 -0.021044,-0.00643 -0.091792,-0.024859 -0.14037,-0.041312 -0.16706,-0.054278 -0.14424,-0.053708 -0.22593,-0.08589 -0.25072,-0.10334 -0.15797,-0.079634 -0.33981,-0.156 -0.01599,-0.039218 -0.22377,-0.12854 0.0475,-0.017549 -0.09827,-0.084125 0.17362,0.043643 0.32783,0.12908 0.40664,0.18485 0.26532,0.12431 -0.018041,-0.02751 -0.10505,-0.080988 -0.090019,-0.077017 -0.075302,-0.072334 0.042149,0.002566 -0.090049,-0.088447 0.17307,0.097349 0.28026,0.18674 0.25609,0.18275 0.17557,0.13166 0.075582,0.057757 0.034854,0.026747 0.061045,0.052389 0.021737,0.019572 0.021737,-0.019572 0.061045,-0.052389 0.034854,-0.026747 0.075582,-0.057757 0.17557,-0.13166 0.25609,-0.18275 0.28026,-0.18674 0.17307,-0.097349 -0.090049,0.088447 0.042149,-0.002566 -0.075302,0.072334 -0.090019,0.077017 -0.10505,0.080988 -0.018041,0.02751 0.26532,-0.12431 0.40664,-0.18485 0.32783,-0.12908 0.17362,-0.043643 -0.09827,0.084125 0.0475,0.017549 -0.22377,0.12854 -0.01599,0.039218 -0.33981,0.156 -0.15797,0.079634 -0.25072,0.10334 -0.22593,0.08589 -0.14424,0.053708 -0.16706,0.054278 -0.14037,0.041312 -0.091792,0.024859 -0.021044,0.00643 -0.0068729,0.0028961 0.050665,-0.0075082 0.072604,-0.0091736 0.087424,-0.0086781 0.17486,-0.016327 0.16819,-0.0094648 0.23417,-0.0093421 0.28568,-0.0047531 0.40287,-9.216e-4 0.57121,0.0072526 0.57126,0.027172 0.60735,0.047092 0.66483,0.069298 0.72899,0.094797 1.1064,0.14016 1.1537,0.18238 1.6222,0.26414 1.5781998,0.31705 1.7363,0.39281 0.6461,0.30203 0.4007,0.28726 0.4087,0.30429 0.2799,0.29545 0.4738,0.34848 1.0571,0.50232 1.2776,0.59844 1.4657,0.69888 1.5655,0.78543 1.2632,0.75587 0.7903,0.65465 0.9325,0.73884 0.8786,0.7609 0.6128,0.69947 0.3648,0.63023 -0.1482,0.43423 -0.2161,0.4053 0.0952,0.5493 0.7734,0.8923 1.6614,1.3874 2.7306,2.0392 3.6514,2.6842 5.136,3.7224 6.7819,4.9683 8.3544,6.2955 9.7646,7.645 9.9533,8.2924 9.4222,8.4697 8.0631,8.0248 6.1992,7.1116 4.3454,6.0721 2.911,5.2323 2.013,4.7317 1.795,4.7546 1.933,5.0882 1.845,5.2383 1.879,5.509 1.735,5.621 1.414,5.55 0.936,5.292 0.678,5.24 0.309,5.048 -0.222,4.632 -0.657,4.284 -1.046,3.953 -1.258,3.813 -1.429,3.714 -1.617,3.578 -1.649,3.654 -1.728,3.669 -1.884,3.558 -1.954,3.582 -2.064,3.532 -2.245,3.354 -2.3473,3.296 -2.5121,3.113 -2.6648,2.931 -2.6639,3.052 -2.8643,2.744 -2.9384,2.689 -2.9729,2.727 -3.0582,2.643 -3.1433,2.55 -3.2179,2.473 -3.3538,2.202 -3.3489,2.344 -3.4078,2.298 -3.5457,1.955 -3.6394,1.719 -3.6915,1.616 -3.754,1.446 -3.7904,1.376 -3.8239,1.311 -3.853,1.267 -3.878,1.253 -3.9135,1.164 -3.9588,0.959 -3.9825,0.905 -4.0088,0.807 -4.038,0.598 -4.0575998,0.426 -4.0699,0.29 -4.0775,0.072"
       fill="none"
       stroke="#fcff5c"
       stroke-linecap="round"
       stroke-linejoin="round"
       stroke-width="1.9874"
       id="path8" /></g><g
     transform="translate(0,-65.718)"
     fill="#848484"
     fill-rule="evenodd"
     font-family="Lato"
     stroke-linejoin="round"
     id="g30"><g
       font-size="14.937px"
       stroke-width="1.2448"
       id="g24"><text
         transform="matrix(0.28341,0,0,0.28341,23.833,82.59)"
         x="472"
         y="6.5"
         style="font-variant-ligatures:normal;font-variant-caps:normal;font-variant-numeric:normal;font-variant-east-asian:normal"
         xml:space="preserve"
         id="text12">90°</text><text
         transform="matrix(0.28341,0,0,0.28341,145.55,82.59)"
         x="-496"
         y="6.5"
         style="font-variant-ligatures:normal;font-variant-caps:normal;font-variant-numeric:normal;font-variant-east-asian:normal"
         xml:space="preserve"
         id="text14">90°</text><text
         transform="matrix(0.28341,0,0,0.28341,83.593,81.449)"
         x="233.98399"
         y="421.297"
         style="font-variant-ligatures:normal;font-variant-caps:normal;font-variant-numeric:normal;font-variant-east-asian:normal"
         xml:space="preserve"
         id="text16"> 30°</text><text
         transform="matrix(0.28341,0,0,0.28341,41.92,55.913)"
         x="405.297"
         y="250"
         style="font-variant-ligatures:normal;font-variant-caps:normal;font-variant-numeric:normal;font-variant-east-asian:normal"
         xml:space="preserve"
         id="text18"> 60°</text><text
         transform="matrix(0.28341,0,0,0.28341,85.908,81.449)"
         x="-260.98401"
         y="421.297"
         style="font-variant-ligatures:normal;font-variant-caps:normal;font-variant-numeric:normal;font-variant-east-asian:normal"
         xml:space="preserve"
         id="text20">30° </text><text
         transform="matrix(0.28341,0,0,0.28341,127.58,55.913)"
         x="-432.297"
         y="250"
         style="font-variant-ligatures:normal;font-variant-caps:normal;font-variant-numeric:normal;font-variant-east-asian:normal"
         xml:space="preserve"
         id="text22">60° </text></g><text
       transform="matrix(0.28319,0,0,0.28319,-50.867,217.57)"
       x="472"
       y="6.5"
       font-size="14.948px"
       stroke-width="1.6"
       style="font-variant-ligatures:normal;font-variant-caps:normal;font-variant-numeric:normal;font-variant-east-asian:normal"
       xml:space="preserve"
       id="text26">0º</text><text
       transform="matrix(0.28319,0,0,0.28319,-54.958,222.31)"
       x="472"
       y="6.5"
       font-size="14.948px"
       stroke-width="1.6"
       style="font-variant-ligatures:normal;font-variant-caps:normal;font-variant-numeric:normal;font-variant-east-asian:normal"
       xml:space="preserve"
       id="text28">cd.klm</text></g><g
     transform="matrix(0.36334,0,0,0.36334,71.361,-86.162)"
     fill="none"
     fill-rule="evenodd"
     font-family="Lato"
     stroke="#000000"
     stroke-linecap="square"
     stroke-linejoin="bevel"
     stroke-width="0.91678"
     id="g46"><g
       stroke-linejoin="round"
       id="g42"><g
         transform="matrix(0.72337,0,0,0.72337,-166.61,669.22)"
         fill="#fcff5c"
         fill-opacity="0.68235"
         font-size="16px"
         font-weight="400"
         stroke="#fcff5c"
         stroke-linecap="round"
         stroke-width="1.8336"
         id="g34"><rect
           y="6.5"
           width="11.2"
           height="15.2"
           stroke-width="1.8336"
           id="rect32"
           x="0" /></g><text
         transform="matrix(0.72337,0,0,0.72337,-166.61,667.7)"
         x="16"
         y="22.5"
         fill="#848484"
         font-size="17.569px"
         stroke="none"
         stroke-linecap="butt"
         stroke-width="0.91678"
         style="font-variant-ligatures:normal;font-variant-caps:normal;font-variant-numeric:normal;font-variant-east-asian:normal"
         xml:space="preserve"
         id="text36">C0-C180</text></g></g><g
     transform="translate(3.7076e-4,7.7069)"
     fill="none"
     stroke="#858585"
     id="g90"><path
       transform="matrix(0.52917,0,0,0.52917,-68.201,-25.683)"
       d="m 320.33,65.864 a 31.291,31.291 0 0 1 -15.646,27.099 31.291,31.291 0 0 1 -31.292,-10e-7 31.291,31.291 0 0 1 -15.646,-27.099"
       stroke-width="0.15"
       id="path48" /><path
       transform="matrix(1.0583,0,0,1.0576,-221.15,-60.49)"
       d="m 320.33,65.864 a 31.291,31.291 0 0 1 -15.646,27.099 31.291,31.291 0 0 1 -31.292,-10e-7 31.291,31.291 0 0 1 -15.646,-27.099"
       stroke-width="0.075027"
       id="path50" /><path
       transform="matrix(1.5875,0,0,1.5865,-374.1,-95.32)"
       d="m 320.33,65.864 a 31.291,31.291 0 0 1 -15.646,27.099 31.291,31.291 0 0 1 -31.292,-10e-7 31.291,31.291 0 0 1 -15.646,-27.099"
       stroke-width="0.050016"
       id="path52" /><path
       transform="matrix(2.1167,0,0,2.1153,-527.05,-130.15)"
       d="m 320.33,65.864 a 31.291,31.291 0 0 1 -15.646,27.099 31.291,31.291 0 0 1 -31.292,-10e-7 31.291,31.291 0 0 1 -15.646,-27.099"
       stroke-width="0.037512"
       id="path54" /><path
       transform="matrix(2.6458,0,0,2.6441,-680,-164.98)"
       d="m 316.1,81.579 c -2.6998,4.6487 -6.5966,8.6031 -11.414,11.384 -9.6817,5.59 -21.61,5.59 -31.292,-10e-7 -4.8457,-2.7976 -8.7602,-6.7827 -11.462,-11.467"
       stroke-width="0.03001"
       id="path56" /><path
       transform="matrix(3.1749,0,0,3.1729,-832.93,-199.8)"
       d="m 311.59,87.561 c -2.0089,2.088 -4.324,3.9131 -6.9028,5.4019 -9.6817,5.59 -21.61,5.59 -31.292,-1e-6 -2.5964,-1.499 -4.9254,-3.3389 -6.9438,-5.4447"
       stroke-width="0.025009"
       id="path58" /><path
       transform="matrix(3.7041,0,0,3.7017,-985.9,-234.64)"
       d="m 308.37,90.473 c -1.1574,0.90884 -2.3869,1.7421 -3.683,2.4903 -9.6817,5.59 -21.61,5.59 -31.292,-10e-7 -1.3089,-0.75568 -2.5499,-1.598 -3.7174,-2.5174"
       stroke-width="0.021436"
       id="path60" /><path
       transform="matrix(4.2243,0,0,4.2215,-1136.5,-268.87)"
       d="m 306.04,92.132 c -0.44425,0.28747 -0.89718,0.5646 -1.3586,0.83096 -9.6817,5.59 -21.61,5.59 -31.292,-10e-7 -0.43229,-0.24957 -0.85718,-0.5086 -1.2744,-0.77673"
       stroke-width="0.018796"
       id="path62" /><path
       transform="matrix(0.26469,0,0,0.26469,-0.036694,-0.031725)"
       d="m 320.33,34.764 v 499.07"
       stroke-width="0.29988"
       id="path64" /><path
       transform="matrix(0,0.29371,-0.29371,0,168.21,-84.937)"
       d="m 320.33,40.455 v 487.98"
       stroke-width="0.27025"
       id="path66" /><g
       stroke-width="0.29988"
       id="g88"><path
         transform="matrix(0.26469,0,0,0.26469,-0.036694,-0.031725)"
         d="m 320.33,34.764 129.11,481.86"
         id="path68" /><path
         transform="matrix(0.26469,0,0,0.26469,-0.036694,-0.031725)"
         d="m 320.33,34.764 249.34,431.88"
         id="path70" /><path
         transform="matrix(0.26469,0,0,0.26469,-0.036694,-0.031725)"
         d="m 320.33,34.764 270.38,270.38"
         id="path72" /><path
         transform="matrix(0.26469,0,0,0.26469,-0.036694,-0.031725)"
         d="m 320.33,34.764 270.39,156.06"
         id="path74" /><path
         transform="matrix(0.26469,0,0,0.26469,-0.036694,-0.031725)"
         d="m 320.33,34.764 270.39,72.405"
         id="path76" /><path
         transform="matrix(0.26469,0,0,0.26469,-0.036694,-0.031725)"
         d="M 320.33,34.764 191.1,517.074"
         id="path78" /><path
         transform="matrix(0.26469,0,0,0.26469,-0.036694,-0.031725)"
         d="M 320.33,34.764 70.48,467.524"
         id="path80" /><path
         transform="matrix(0.26469,0,0,0.26469,-0.036694,-0.031725)"
         d="M 320.33,34.764 49.25,305.844"
         id="path82" /><path
         transform="matrix(0.26469,0,0,0.26469,-0.036694,-0.031725)"
         d="M 320.33,34.764 49.25,191.274"
         id="path84" /><path
         transform="matrix(0.26469,0,0,0.26469,-0.036694,-0.031725)"
         d="M 320.33,34.764 49.27,107.391"
         id="path86" /></g></g><g
     transform="matrix(-2.1007,0,0,-2.1171,1227.8,-892.04)"
     fill="none"
     stroke="#000000"
     stroke-linecap="round"
     stroke-width="0.094837"
     id="g196"><path
       d="m 542.53,-426.81 h -2"
       id="path92" /><path
       d="m 540.38,-427.01 h 0.84984"
       id="path94" /><path
       d="m 538.43,-429.61 a 0.5,0.5 0 0 0 -0.5,0.5"
       id="path96" /><path
       d="m 545.83,-426.81 v -0.60008"
       id="path98" /><path
       d="m 549.93,-429.61 h -2.1"
       id="path100" /><path
       d="m 539.58,-428.91 v 3.51"
       id="path102" /><path
       d="m 550.43,-428.41 v -0.69982"
       id="path104" /><path
       d="m 547.13,-427.51 v 0.50006"
       id="path106" /><path
       d="m 550.43,-429.11 a 0.5,0.5 0 0 0 -0.5,-0.5"
       id="path108" /><path
       d="m 547.13,-424.61 h -5.9002"
       id="path110" /><path
       d="m 541.23,-425.71 h -0.84984"
       id="path112" /><path
       d="m 540.53,-426.81 v 0.99986"
       id="path114" /><path
       d="m 540.53,-429.61 h -2.1"
       id="path116" /><path
       d="m 545.63,-425.81 h 2.2"
       id="path118" /><path
       d="m 542.73,-427.41 h -0.20003"
       id="path120" /><path
       d="m 549.18,-424.41 v -0.50006"
       id="path122" /><path
       d="m 547.13,-427.01 h 0.84984"
       id="path124" /><path
       d="m 539.18,-424.41 a 0.5,0.5 0 0 0 0.5,0.5"
       id="path126" /><path
       d="m 549.53,-427.91 h 0.40005"
       id="path128" /><path
       d="m 539.18,-424.91 v 0.50006"
       id="path130" /><path
       d="m 547.83,-429.61 a 9.8661,9.8661 0 0 0 -7.3,0"
       id="path132" /><path
       d="m 549.93,-427.91 a 0.5,0.5 0 0 0 0.5,-0.5"
       id="path134" /><path
       d="m 547.83,-426.81 h -2"
       id="path136" /><path
       d="m 547.98,-427.75 -0.84984,0.24289"
       id="path138" /><path
       d="m 542.73,-425.81 h 2.8998"
       id="path140" /><path
       d="m 547.98,-428.76 a 13.572,13.572 0 0 0 -7.6,0"
       id="path142" /><path
       d="m 549.73,-428.91 -0.20002,0.99986"
       id="path144" /><path
       d="m 545.83,-427.41 h -0.20003"
       id="path146" /><path
       d="m 549.18,-424.91 a 0.5,0.5 0 0 0 -0.4,-0.48989"
       id="path148" /><path
       d="m 547.98,-427.01 v 1.2999"
       id="path150" /><path
       d="m 547.98,-428.76 v 1.0091"
       id="path152" /><path
       d="m 540.53,-425.81 h 2.2"
       id="path154" /><path
       d="m 540.38,-425.71 v -1.2999"
       id="path156" /><path
       d="m 547.98,-425.71 h -0.84984"
       id="path158" /><path
       d="m 547.83,-425.81 v -0.99986"
       id="path160" /><path
       d="m 538.43,-427.91 h 0.39979"
       id="path162" /><path
       d="m 548.68,-423.91 a 0.5,0.5 0 0 0 0.5,-0.5"
       id="path164" /><path
       d="m 542.53,-427.41 v 0.60008"
       id="path166" /><path
       d="m 548.78,-428.91 h 0.94985"
       id="path168" /><path
       d="m 537.93,-429.11 v 0.69982"
       id="path170" /><path
       d="m 540.38,-427.75 v -1.0091"
       id="path172" /><path
       d="m 547.13,-425.71 v 1.1054"
       id="path174" /><path
       d="m 539.58,-425.4 a 0.5,0.5 0 0 0 -0.4,0.4899"
       id="path176" /><path
       d="m 538.83,-427.91 -0.19977,-0.99986"
       id="path178" /><path
       d="m 538.63,-428.91 h 0.94986"
       id="path180" /><path
       d="m 539.68,-423.91 h 9.0001"
       id="path182" /><path
       d="m 548.78,-425.4 v -3.51"
       id="path184" /><path
       d="m 545.63,-427.41 h -2.8998"
       id="path186" /><path
       d="m 541.23,-424.61 v -1.1054"
       id="path188" /><path
       d="m 541.23,-427.51 -0.84984,-0.24289"
       id="path190" /><path
       d="m 537.93,-428.41 a 0.5,0.5 0 0 0 0.5,0.5"
       id="path192" /><path
       d="m 541.23,-427.01 v -0.50006"
       id="path194" /></g></svg>
