<?xml version="1.0" encoding="UTF-8" standalone="no"?>
<svg
   width="640"
   height="660"
   version="1.1"
   viewBox="0 0 169.33 174.63403"
   id="svg1235"
   sodipodi:docname="7.svg"
   inkscape:version="1.2.2 (732a01da63, 2022-12-09)"
   xmlns:inkscape="http://www.inkscape.org/namespaces/inkscape"
   xmlns:sodipodi="http://sodipodi.sourceforge.net/DTD/sodipodi-0.dtd"
   xmlns="http://www.w3.org/2000/svg"
   xmlns:svg="http://www.w3.org/2000/svg">
  <sodipodi:namedview
     id="namedview1237"
     pagecolor="#505050"
     bordercolor="#ffffff"
     borderopacity="1"
     inkscape:showpageshadow="0"
     inkscape:pageopacity="0"
     inkscape:pagecheckerboard="1"
     inkscape:deskcolor="#505050"
     showgrid="false"
     showguides="true"
     inkscape:zoom="2.8179104"
     inkscape:cx="146.20763"
     inkscape:cy="574.18432"
     inkscape:window-width="1920"
     inkscape:window-height="1009"
     inkscape:window-x="-8"
     inkscape:window-y="-8"
     inkscape:window-maximized="1"
     inkscape:current-layer="svg1235" />
  <defs
     id="defs1145" />
  <path
     transform="matrix(0.22731,0,0,0.2273,40.905,18.819)"
     d="m 0,141.76 -2.3489,-7.186 -2.1297,-6.319 -1.9504,-5.577 -1.8191,-4.719 -1.7015,-4.23 -1.6071,-3.77 -1.516,-3.486 -1.4541,-3.105 -1.3978,-2.819 -1.3292,-2.6933 -1.2894,-2.4546 -1.2293,-2.3745 -1.1921,-2.2147 -1.1677,-2.0395 -1.1533,-1.8651 -1.1395,-1.7227 -1.1337,-1.5812 -1.121,-1.4871 -1.1348,-1.3327 -1.1792,-1.1195 -1.1487,-1.1358 -1.1422,-1.0917 -0.7287,-2.0135 -1.3245,-0.5408 -0.9675,-1.3099 -0.925,-1.3351 -0.8157,-1.4886 -0.7367,-1.5661 -0.6306,-1.6828 -0.5591,-1.7254 -0.4189,-1.8762 -0.3225,-1.9388 -0.2228,-1.998 -0.6976,-1.197 0.4431,-2.7894 0.1958,-2.2984 0.2153,-2.2095 0.2901,-2.198 0.4155,-2.2469 0.4715,-2.2046 0.4306,-2.0515 0.5984,-2.1424 0.5623,-2.0018 0.6319,-1.981 0.6441,-1.9011 0.6528,-1.8222 0.6818,-1.7665 0.7567,-1.7539 0.7343,-1.6541 0.621,-1.4844 0.9011,-1.6469 0.8341,-1.5177 1.0579,-1.6168 0.6218,-1.2215 0.7745,-1.2763 1.0376,-1.3963 0.5769,-1.0289 0.7415,-1.0886 0.8682,-1.1158 0.8434,-1.0482 0.9429,-1.0534 0.2884,-0.6526 1.4259,-1.2101 0.8952,-0.88068 0.9341,-0.85293 0.9134,-0.79758 0.445,-0.55484 1.2369,-0.8512 0.9446,-0.68419 0.8268,-0.59945 0.7818,-0.54772 0.735,-0.49882 1.4271,-0.67929 0.0504,-0.22774 0.6628,-0.38782 L -10.773,2.69003 -9.3559,2.164 -8.68183,1.8494 -8.26916,1.61137 -7.7556,1.37153 -7.36386,1.17033 -6.58405,0.92934 -5.89442,0.72776 -5.26417,0.5573 -4.61389,0.40768 -3.92799,0.27869 -3.23921,0.17378 -2.58043,0.09413 -1.71029,0.033872 -0.70999,0.004018 H 8e-5 l 2.0545,-4.6145 2.2149,-4.5414 2.713,-5.1603 2.9596,-5.1962 3.0589,-4.9389 2.7563,-3.9755 2.2043,-2.6836 1.9698,-2.061 1.7646,-1.5494 1.9123,-1.6327 2.2372,-1.9639 1.5534,-0.8122 1.3332,-0.4167 1.2782,-0.2787 1.3264,-0.2841 1.4163,-0.3374 1.4789,-0.3494 1.4055,-0.2002 1.1852,0.1005 1.0933,0.2358 1.0065,0.3544 0.8801,0.5029 1.1994,0.2074 0.5667,0.8317 0.8141,0.6018 0.8301,0.5973 0.785,0.6458 0.1736,1.1492 1.4695,0.1107 0.9892,0.5203 1.0761,0.4777 1.2454,0.3843 1.3534,0.3451 1.383,0.3646 1.4949,0.3342 1.4295,0.4179 1.5147,0.4094 1.6015,0.4056 1.6754,0.4138 1.7788,0.4115 1.8546,0.4287 1.9603,0.4365 1.9934,0.4826 2.0404,0.5242 2.1468,0.5442 2.1332,0.6163 2.133,0.6821 2.1614,0.7377 2.2196,0.785 2.2616,0.8403 2.349,0.8849 2.3115,0.9677 2.3811,1.0217 2.3869,1.0942 2.4543,1.1541 2.5204,1.2181 2.6012,1.2833 2.8556,1.3256 2.728,1.4358 2.819,1.5124 2.959,1.5896 3.98,1.5975 2.33,1.8467 3.316,1.8718 3.607,1.9738 3.655,2.0965 3.844,2.2228 4.143,2.3622 4.132,2.5079 4.68,2.684 4.772,2.859 5.326,3.0811 5.647,3.3105 6.122,3.5785 6.762,3.898 7.137,4.2133 7.74,4.5926 8.471,5.0343 8.713,5.4166 9.272,5.8915 9.847,6.4073 10.542,6.995 11.154,7.6058 11.342,8.1312 10.73,8.4177 10.19,8.7046 9.449,8.898002 8.029,8.799 6.595,8.62 5.891,8.675 10.425,11.031 12.528,12.552 14.938,14.374 17.279,16.339 15.981,16.551 17.131,18.061 15.534,18.097 13.44,17.754 11.695,17.514 9.475,16.873 4.534,14.26 2.013,12.996 -0.928,11.251 -4.356,8.925 -5.585,8.047 -7.587,6.453 -9.901,4.426 -11.165,3.108 -11.515,2.494 -10.978,2.665 -11.156,2.192 -11.797,1.23 -12.575,0.049 -12.144,0.066 -13.742,-2.138 -15.085,-4.257 -14.864,-4.707 -14.034,-4.409 -13.815,-4.826 -12.771,-4.154 -12.163,-3.969 -11.822,-4.115 -11.286,-3.952 -11.066,-4.229 -9.943,-3.061 -9.835,-3.417 -9.695,-3.729 -9.183,-3.389 -8.781,-3.183 -8.439,-3.047 -8.12,-2.912 -8.044,-3.261 -7.773,-3.197 -7.587,-3.3 -7.146,-2.769 -7.022,-2.958 -6.794,-2.869 -6.512,-2.59 -6.3648,-2.652 -6.2658,-2.864 -6.2131,-3.259 -6.3321,-4.357 -6.3898,-5.431 -6.4644,-6.812 -6.3939,-7.839 -6.1723,-8.345 -5.968,-9.07 -5.6794,-9.472 -5.3404,-9.628 -5.0599,-10.288 -4.6558,-10.059 -4.242,-9.529 -3.8679,-9.117 -3.532,-8.951 -3.1914,-8.325 -2.8931,-8.092 -2.6089,-7.707"
     fill="#fcff5c"
     fill-opacity="0.70588"
     fill-rule="evenodd"
     id="path1149" />
  <path
     transform="matrix(0.22731,0,0,0.2273,40.905,18.819)"
     d="m 0,141.76 -2.3489,-7.186 -2.1297,-6.319 -1.9504,-5.577 -1.8191,-4.719 -1.7015,-4.23 -1.6071,-3.77 -1.516,-3.486 -1.4541,-3.105 -1.3978,-2.819 -1.3292,-2.6933 -1.2894,-2.4546 -1.2293,-2.3745 -1.1921,-2.2147 -1.1677,-2.0395 -1.1533,-1.8651 -1.1395,-1.7227 -1.1337,-1.5812 -1.121,-1.4871 -1.1348,-1.3327 -1.1792,-1.1195 -1.1487,-1.1358 -1.1422,-1.0917 -0.7287,-2.0135 -1.3245,-0.5408 -0.9675,-1.3099 -0.925,-1.3351 -0.8157,-1.4886 -0.7367,-1.5661 -0.6306,-1.6828 -0.5591,-1.7254 -0.4189,-1.8762 -0.3225,-1.9388 -0.2228,-1.998 -0.6976,-1.197 0.4431,-2.7894 0.1958,-2.2984 0.2153,-2.2095 0.2901,-2.198 0.4155,-2.2469 0.4715,-2.2046 0.4306,-2.0515 0.5984,-2.1424 0.5623,-2.0018 0.6319,-1.981 0.6441,-1.9011 0.6528,-1.8222 0.6818,-1.7665 0.7567,-1.7539 0.7343,-1.6541 0.621,-1.4844 0.9011,-1.6469 0.8341,-1.5177 1.0579,-1.6168 0.6218,-1.2215 0.7745,-1.2763 1.0376,-1.3963 0.5769,-1.0289 0.7415,-1.0886 0.8682,-1.1158 0.8434,-1.0482 0.9429,-1.0534 0.2884,-0.6526 1.4259,-1.2101 0.8952,-0.88068 0.9341,-0.85293 0.9134,-0.79758 0.445,-0.55484 1.2369,-0.8512 0.9446,-0.68419 0.8268,-0.59945 0.7818,-0.54772 0.735,-0.49882 1.4271,-0.67929 0.0504,-0.22774 0.6628,-0.38782 L -10.773,2.69003 -9.3559,2.164 -8.68183,1.8494 -8.26916,1.61137 -7.7556,1.37153 -7.36386,1.17033 -6.58405,0.92934 -5.89442,0.72776 -5.26417,0.5573 -4.61389,0.40768 -3.92799,0.27869 -3.23921,0.17378 -2.58043,0.09413 -1.71029,0.033872 -0.70999,0.004018 H 8e-5 l 2.0545,-4.6145 2.2149,-4.5414 2.713,-5.1603 2.9596,-5.1962 3.0589,-4.9389 2.7563,-3.9755 2.2043,-2.6836 1.9698,-2.061 1.7646,-1.5494 1.9123,-1.6327 2.2372,-1.9639 1.5534,-0.8122 1.3332,-0.4167 1.2782,-0.2787 1.3264,-0.2841 1.4163,-0.3374 1.4789,-0.3494 1.4055,-0.2002 1.1852,0.1005 1.0933,0.2358 1.0065,0.3544 0.8801,0.5029 1.1994,0.2074 0.5667,0.8317 0.8141,0.6018 0.8301,0.5973 0.785,0.6458 0.1736,1.1492 1.4695,0.1107 0.9892,0.5203 1.0761,0.4777 1.2454,0.3843 1.3534,0.3451 1.383,0.3646 1.4949,0.3342 1.4295,0.4179 1.5147,0.4094 1.6015,0.4056 1.6754,0.4138 1.7788,0.4115 1.8546,0.4287 1.9603,0.4365 1.9934,0.4826 2.0404,0.5242 2.1468,0.5442 2.1332,0.6163 2.133,0.6821 2.1614,0.7377 2.2196,0.785 2.2616,0.8403 2.349,0.8849 2.3115,0.9677 2.3811,1.0217 2.3869,1.0942 2.4543,1.1541 2.5204,1.2181 2.6012,1.2833 2.8556,1.3256 2.728,1.4358 2.819,1.5124 2.959,1.5896 3.98,1.5975 2.33,1.8467 3.316,1.8718 3.607,1.9738 3.655,2.0965 3.844,2.2228 4.143,2.3622 4.132,2.5079 4.68,2.684 4.772,2.859 5.326,3.0811 5.647,3.3105 6.122,3.5785 6.762,3.898 7.137,4.2133 7.74,4.5926 8.471,5.0343 8.713,5.4166 9.272,5.8915 9.847,6.4073 10.542,6.995 11.154,7.6058 11.342,8.1312 10.73,8.4177 10.19,8.7046 9.449,8.898002 8.029,8.799 6.595,8.62 5.891,8.675 10.425,11.031 12.528,12.552 14.938,14.374 17.279,16.339 15.981,16.551 17.131,18.061 15.534,18.097 13.44,17.754 11.695,17.514 9.475,16.873 4.534,14.26 2.013,12.996 -0.928,11.251 -4.356,8.925 -5.585,8.047 -7.587,6.453 -9.901,4.426 -11.165,3.108 -11.515,2.494 -10.978,2.665 -11.156,2.192 -11.797,1.23 -12.575,0.049 -12.144,0.066 -13.742,-2.138 -15.085,-4.257 -14.864,-4.707 -14.034,-4.409 -13.815,-4.826 -12.771,-4.154 -12.163,-3.969 -11.822,-4.115 -11.286,-3.952 -11.066,-4.229 -9.943,-3.061 -9.835,-3.417 -9.695,-3.729 -9.183,-3.389 -8.781,-3.183 -8.439,-3.047 -8.12,-2.912 -8.044,-3.261 -7.773,-3.197 -7.587,-3.3 -7.146,-2.769 -7.022,-2.958 -6.794,-2.869 -6.512,-2.59 -6.3648,-2.652 -6.2658,-2.864 -6.2131,-3.259 -6.3321,-4.357 -6.3898,-5.431 -6.4644,-6.812 -6.3939,-7.839 -6.1723,-8.345 -5.968,-9.07 -5.6794,-9.472 -5.3404,-9.628 -5.0599,-10.288 -4.6558,-10.059 -4.242,-9.529 -3.8679,-9.117 -3.532,-8.951 -3.1914,-8.325 -2.8931,-8.092 -2.6089,-7.707"
     fill-rule="evenodd"
     stroke="#fcff5c"
     stroke-linecap="round"
     stroke-linejoin="round"
     stroke-width="4.656"
     id="path1153"
     style="fill:none" />
  <path
     transform="matrix(0.52917,0,0,0.52917,-115.3,-16.032)"
     d="m 320.33,65.864 a 31.291,31.291 0 0 1 -15.646,27.099 31.291,31.291 0 0 1 -31.292,-10e-7 31.291,31.291 0 0 1 -15.646,-27.099"
     clip-path="none"
     stroke-width="0.50001"
     id="path1155"
     style="fill:none;stroke:#858585" />
  <path
     transform="matrix(1.0583,0,0,1.0576,-268.25,-50.839)"
     d="m 320.33,65.864 c -3e-5,11.179372 -5.96428,21.509493 -15.646,27.099 -9.68172,5.589983 -21.61028,5.589983 -31.292,-10e-7 -2.89813,-1.673165 -5.46316,-3.771111 -7.63482,-6.189462"
     clip-path="none"
     stroke-width="0.2501"
     id="path1157"
     style="fill:none;stroke:#858585"
     sodipodi:nodetypes="cccc" />
  <path
     transform="matrix(1.5875,0,0,1.5865,-421.2,-85.669)"
     d="m 320.33,65.864 c -3e-5,11.179372 -5.96428,21.509493 -15.646,27.099 -9.64354,5.56794 -21.51623,5.589896 -31.17736,0.06587 -0.0383,-0.02187 -0.0765,-0.04383 -0.11464,-0.06587"
     clip-path="none"
     stroke-width="0.16672"
     id="path1159"
     style="fill:none;stroke:#858585"
     sodipodi:nodetypes="ccsc" />
  <path
     transform="matrix(2.1167,0,0,2.1153,-574.16,-120.5)"
     d="m 320.33,65.864 c -3e-5,11.179372 -5.96428,21.509493 -15.646,27.099 -8.38348,4.840412 -18.45163,5.489472 -27.28692,1.947178"
     clip-path="none"
     stroke-width="0.12504"
     id="path1161"
     style="fill:none;stroke:#858585"
     sodipodi:nodetypes="ccc" />
  <path
     transform="matrix(2.6458,0,0,2.6441,-727.11,-155.33)"
     d="m 320.33,65.864 c -3e-5,11.179372 -5.96428,21.509493 -15.646,27.099 -7.65498,4.419791 -16.71455,5.345018 -24.9576,2.775682"
     clip-path="none"
     stroke-width="0.10004"
     id="path1163"
     style="fill:none;stroke:#858585"
     sodipodi:nodetypes="ccc" />
  <path
     transform="matrix(3.1749,0,0,3.1729,-880.04,-190.16)"
     d="m 320.33,65.864 c -3e-5,11.179372 -5.96428,21.509493 -15.646,27.099 -7.1773,4.143994 -15.58938,5.215942 -23.40549,3.215844"
     clip-path="none"
     stroke-width="0.083365"
     id="path1165"
     style="fill:none;stroke:#858585"
     sodipodi:nodetypes="ccc" />
  <path
     transform="matrix(3.7041,0,0,3.7017,-1033,-224.99)"
     d="m 320.33,65.864 c -3e-5,11.179372 -5.96428,21.509493 -15.646,27.099 -6.83989,3.949178 -14.80118,5.108364 -22.29939,3.477558"
     clip-path="none"
     stroke-width="0.071455"
     id="path1167"
     style="fill:none;stroke:#858585"
     sodipodi:nodetypes="ccc" />
  <path
     transform="matrix(4.2243,0,0,4.2215,-1183.6,-259.23)"
     d="m 320.33,65.864 c -3e-5,11.179372 -5.96428,21.509493 -15.646,27.099 -6.57263,3.794869 -14.18074,5.013517 -21.41841,3.655944"
     clip-path="none"
     stroke-width="0.062656"
     id="path1169"
     style="fill:none;stroke:#858585"
     sodipodi:nodetypes="ccc" />
  <path
     transform="matrix(0.26469,0,0,0.26469,-47.137,9.6195)"
     d="m 320.33,34.764 v 499.07"
     clip-path="none"
     stroke-width="0.99963"
     id="path1171"
     style="fill:none;stroke:#858585" />
  <path
     transform="matrix(0,0.3935,-0.3935,0,173.84,-107.25)"
     d="M 320.33,44.49 V 408.76494"
     clip-path="none"
     stroke-width="0.6724"
     id="path1173"
     style="fill:none;stroke:#858585"
     sodipodi:nodetypes="cc" />
  <path
     transform="matrix(0.26469,0,0,0.26469,-47.137,9.6195)"
     d="m 320.33,34.764 129.11,481.86"
     clip-path="none"
     id="path1175"
     style="fill:none;stroke:#858585;stroke-width:0.99963" />
  <path
     transform="matrix(0.26469,0,0,0.26469,-47.137,9.6195)"
     d="m 320.33,34.764 249.34,431.88"
     clip-path="none"
     id="path1177"
     style="fill:none;stroke:#858585;stroke-width:0.99963" />
  <path
     transform="matrix(0.26469,0,0,0.26469,-47.137,9.6195)"
     d="m 320.33,34.764 352.39,352.39"
     clip-path="none"
     id="path1179"
     style="fill:none;stroke:#858585;stroke-width:0.99963" />
  <path
     transform="matrix(0.26469,0,0,0.26469,-47.137,9.6195)"
     d="m 320.33,34.764 431.6,249.1"
     clip-path="none"
     id="path1181"
     style="fill:none;stroke:#858585;stroke-width:0.99963" />
  <path
     transform="matrix(0.26469,0,0,0.26469,-47.137,9.6195)"
     d="m 320.33,34.764 481.51,128.94"
     clip-path="none"
     id="path1183"
     style="fill:none;stroke:#858585;stroke-width:0.99963" />
  <path
     transform="matrix(0.26469,0,0,0.26469,-47.137,9.6195)"
     d="M 320.33,34.764 227.23509,382.21124"
     clip-path="none"
     id="path1185"
     style="fill:none;stroke:#858585;stroke-width:0.99963"
     sodipodi:nodetypes="cc" />
  <path
     transform="matrix(0.26469,0,0,0.26469,-47.137,9.6195)"
     d="M 320.33,34.764 227.25416,195.97873"
     clip-path="none"
     id="path1187"
     style="fill:none;stroke:#858585;stroke-width:0.99963"
     sodipodi:nodetypes="cc" />
  <path
     transform="matrix(0.26469,0,0,0.26469,-47.137,9.6195)"
     d="m 320.33,34.764 -93.10313,93.10313"
     clip-path="none"
     id="path1189"
     style="fill:none;stroke:#858585;stroke-width:0.99963"
     sodipodi:nodetypes="cc" />
  <path
     transform="matrix(0.26469,0,0,0.26469,-47.137,9.6195)"
     d="M 320.33,34.764 227.23771,88.511897"
     clip-path="none"
     id="path1191"
     style="fill:none;stroke:#858585;stroke-width:0.99963"
     sodipodi:nodetypes="cc" />
  <path
     transform="matrix(0.26469,0,0,0.26469,-47.137,9.6195)"
     d="M 320.33,34.764 227.18434,59.721918"
     clip-path="none"
     id="path1193"
     style="fill:none;stroke:#858585;stroke-width:0.99963"
     sodipodi:nodetypes="cc" />
  <text
     transform="matrix(0.28341,0,0,0.28341,23.833,18.817)"
     x="472"
     y="6.5"
     style="font-size:14.937px;font-family:Lato;font-variant-ligatures:normal;font-variant-caps:normal;font-variant-numeric:normal;font-variant-east-asian:normal;fill:#848484;fill-rule:evenodd;stroke-width:1.2448;stroke-linejoin:round"
     xml:space="preserve"
     id="text1201">90°</text>
  <text
     transform="matrix(0.28341,0,0,0.28341,145.55,18.817)"
     x="-496"
     y="6.5"
     style="font-size:14.937px;font-family:Lato;font-variant-ligatures:normal;font-variant-caps:normal;font-variant-numeric:normal;font-variant-east-asian:normal;fill:#848484;fill-rule:evenodd;stroke-width:1.2448;stroke-linejoin:round"
     xml:space="preserve"
     id="text1203">90°</text>
  <text
     transform="matrix(0.28341,0,0,0.28341,36.489,17.676)"
     x="233.98399"
     y="421.297"
     style="font-size:14.937px;font-family:Lato;font-variant-ligatures:normal;font-variant-caps:normal;font-variant-numeric:normal;font-variant-east-asian:normal;fill:#848484;fill-rule:evenodd;stroke-width:1.2448;stroke-linejoin:round"
     xml:space="preserve"
     id="text1205"> 30°</text>
  <text
     transform="matrix(0.28341,0,0,0.28341,36.913,16.647)"
     x="405.297"
     y="250"
     style="font-size:14.937px;font-family:Lato;font-variant-ligatures:normal;font-variant-caps:normal;font-variant-numeric:normal;font-variant-east-asian:normal;fill:#848484;fill-rule:evenodd;stroke-width:1.2448;stroke-linejoin:round"
     xml:space="preserve"
     id="text1207"> 60°</text>
  <text
     transform="matrix(0.28341,0,0,0.28341,79.029,-53.821)"
     x="-260.98401"
     y="421.297"
     style="font-size:14.937px;font-family:Lato;font-variant-ligatures:normal;font-variant-caps:normal;font-variant-numeric:normal;font-variant-east-asian:normal;fill:#848484;fill-rule:evenodd;stroke-width:1.2448;stroke-linejoin:round"
     xml:space="preserve"
     id="text1209">30° </text>
  <text
     transform="matrix(0.28341,0,0,0.28341,127.58,-34.248)"
     x="-432.297"
     y="250"
     style="font-size:14.937px;font-family:Lato;font-variant-ligatures:normal;font-variant-caps:normal;font-variant-numeric:normal;font-variant-east-asian:normal;fill:#848484;fill-rule:evenodd;stroke-width:1.2448;stroke-linejoin:round"
     xml:space="preserve"
     id="text1211">60° </text>
  <text
     transform="matrix(0.28319,0,0,0.28319,-97.972,153.79)"
     x="472"
     y="6.5"
     font-size="14.948px"
     stroke-width="1.6"
     style="font-family:Lato;font-variant-ligatures:normal;font-variant-caps:normal;font-variant-numeric:normal;font-variant-east-asian:normal;fill:#848484;fill-rule:evenodd;stroke-linejoin:round"
     xml:space="preserve"
     id="text1215">0º</text>
  <text
     transform="matrix(0.28319,0,0,0.28319,-102.06,158.53)"
     x="472"
     y="6.5"
     font-size="14.948px"
     stroke-width="1.6"
     style="font-family:Lato;font-variant-ligatures:normal;font-variant-caps:normal;font-variant-numeric:normal;font-variant-east-asian:normal;fill:#848484;fill-rule:evenodd;stroke-linejoin:round"
     xml:space="preserve"
     id="text1217">cd.klm</text>
  <rect
     transform="matrix(0.26283,0,0,0.26283,6.5907,163.67624)"
     y="6.5"
     width="11.2"
     height="15.2"
     fill="#fcff5c"
     fill-opacity="0.68235"
     stroke="#fcff5c"
     stroke-linecap="round"
     stroke-width="1.8336"
     id="rect1221"
     x="0"
     style="fill-rule:evenodd;stroke-linejoin:round" />
  <text
     transform="matrix(0.26283,0,0,0.26283,6.5907,163.12624)"
     x="16"
     y="22.5"
     fill="#848484"
     font-family="Lato"
     font-size="17.569px"
     stroke-width="0.91678"
     style="font-variant-ligatures:normal;font-variant-caps:normal;font-variant-numeric:normal;font-variant-east-asian:normal;fill-rule:evenodd;stroke-linejoin:round"
     xml:space="preserve"
     id="text1223">C0-C180</text>
  <path
     transform="matrix(1.5127,0,0,-1.5109,-915.55,436.07)"
     d="m 622.43,276.74 v 1.5 m 0.50006,0 v 1.0001 m 6.555,-6.8659 -7.4414,-0.13414 m 2.7363,11.75 a 0.25,0.25 0 0 0 0.25,0.25 m 7.0429,-7.2173 a 1,1 0 0 0 0.82619,0.46382 m 5.7319,1.7536 h -1.3018 m -14.399,0 h -1.3002 m 8.5479,-6.8535 -0.69268,-0.0124 m -7.0551,5.8658 h 0.50006 m -0.88634,-6 a 0.5,0.5 0 0 0 -0.50729,0.45856 m 2.8589,8.7916 h 0.38471 m 0,0.99985 h -0.38471 m 14.236,-2.0032 v -1.2467 m -0.80168,-2.5 v 1.4999 m -9.8351,-0.84191 0.0725,10e-4 m -3.2867,4.0911 v -1.5502 m 3.9399,-1.3738 v -0.70009 m 7.0179,-0.32829 a 0.2,0.2 0 0 0 0.16936,-0.0881 m -4.3671,1.1165 v -0.70009 m 5.7891,0.37399 h 0.50007 m -15.099,-1.8 a 0.3,0.3 0 0 0 -0.3,0.29999 m 0.30004,-0.29999 h 0.98768 m 14.913,8.35 v -1.2967 m -7.0908,-5.6273 h -2.8202 m 9.11,-1.126 a 0.3,0.3 0 0 0 -0.29998,-0.29999 m -2.0502,5.0501 h 0.38364 m -0.38364,0.99985 v 1.4999 m 0,-5.5499 h 0.94985 m -14.893,-5.7414 0.0935,6.5415 m 6.4367,-1.8407 a 1,1 0 0 0 0.84238,-0.43377 m -0.91481,0.43242 1.4909,-5.0239 m -5.7674,4.0659 0.54399,0.80564 m 14.368,3.241 a 1.63,1.63 0 0 0 0,3.0067 m -17,0 a 1.63,1.63 0 0 0 0,-3.0067 m 2.7936,-3.1529 3.5706,0.0643 m 8.4354,1.168 h -4.89 m -2.8197,0 h -4.89 m 12.078,-1.1164 0.67998,-1.0096 m -0.15875,2 v 1.4999 m -0.56496,2.5501 a 0.65,0.65 0 1 0 0,-1 m -11.085,-1.5501 h -0.95012 m 14.8,-1.7251 a 7.2361,7.2361 0 0 0 0.13719,-2.2645 m -1.438,3.2897 v -1.0001 m -15.449,6.8001 h 16.5 m -3.1485,-0.80011 h -10.201 m -0.25003,-5.7999 -1.3499,-2 m 13.158,0 h 0.94192 m -3.6293,-4.9864 a 7.3667,7.3667 0 0 0 -3.7233,0.93305 m 6.6514,4.0534 -1.3494,2 m -13.85,5.0533 v 1.2967 m 2.2,-6.35 h 0.95012 m 10.7,1.4999 v 1.5502 m 2.9002,3.5499 a 0.25,0.25 0 0 0 0.25,-0.25 m -2.2004,-4.8501 h -0.94985 m -2.5808,-2.4535 2.84,0.0513 m -10.959,6.4522 v -1.4999 m 7.2928,-5.4673 a 1.8962,1.8962 0 0 0 -3.1639,-0.057 m 9.722,2.2744 v -1.0253 m -14.801,1.7251 v -1.4999 m 12.034,4.05 h -0.38364 m -11.65,-2.624 h 12.6 m -1.1996,4.374 a 0.25,0.25 0 0 0 0.24998,-0.25 m 0.94964,-4.0501 v -1.2999 m 2.3376,-2.6897 a 4.9793,4.9793 0 0 0 -4.8662,-4.4968 m -12.271,13.336 a 0.25,0.25 0 0 0 0.25,0.25 m 2.3816,-7.7943 a 0.2,0.2 0 0 0 0.16216,0.0881 m -2.7939,1.9063 v 1.2467 m 2.2,-1.8468 v 1.2999 m 0.56542,1.5501 a 0.65,0.65 0 1 0 0,1"
     fill="none"
     stroke="#000000"
     stroke-linecap="round"
     stroke-width="0.15313"
     id="path1233" />
</svg>
