<?xml version="1.0" encoding="UTF-8" standalone="no"?>
<!-- Created with Inkscape (http://www.inkscape.org/) -->

<svg
   width="72"
   height="72"
   viewBox="0 0 67.499999 67.499998"
   id="svg2"
   version="1.1"
   inkscape:version="1.2.2 (732a01da63, 2022-12-09)"
   sodipodi:docname="IP42.svg"
   xmlns:inkscape="http://www.inkscape.org/namespaces/inkscape"
   xmlns:sodipodi="http://sodipodi.sourceforge.net/DTD/sodipodi-0.dtd"
   xmlns="http://www.w3.org/2000/svg"
   xmlns:svg="http://www.w3.org/2000/svg"
   xmlns:rdf="http://www.w3.org/1999/02/22-rdf-syntax-ns#"
   xmlns:cc="http://creativecommons.org/ns#"
   xmlns:dc="http://purl.org/dc/elements/1.1/">
  <defs
     id="defs4">
    <marker
       style="overflow:visible"
       inkscape:stockid="InfiniteLineEnd"
       id="InfiniteLineEnd"
       refX="0"
       refY="0"
       orient="auto"
       inkscape:isstock="true">
      <g
         id="g4450"
         style="fill:#000000">
        <circle
           id="circle4452"
           r="0.80000001"
           cy="0"
           cx="3" />
        <circle
           id="circle4454"
           r="0.80000001"
           cy="0"
           cx="6.5" />
        <circle
           id="circle4456"
           r="0.80000001"
           cy="0"
           cx="10" />
      </g>
    </marker>
  </defs>
  <sodipodi:namedview
     id="base"
     pagecolor="#ffffff"
     bordercolor="#666666"
     borderopacity="1.0"
     inkscape:pageopacity="0.0"
     inkscape:pageshadow="2"
     inkscape:zoom="5.6568546"
     inkscape:cx="-3.093592"
     inkscape:cy="47.906481"
     inkscape:document-units="px"
     inkscape:current-layer="layer1"
     showgrid="false"
     fit-margin-top="0"
     fit-margin-left="0"
     fit-margin-right="0"
     fit-margin-bottom="0"
     inkscape:window-width="1920"
     inkscape:window-height="1009"
     inkscape:window-x="-8"
     inkscape:window-y="-8"
     inkscape:window-maximized="1"
     inkscape:pagecheckerboard="1"
     inkscape:showpageshadow="0"
     inkscape:deskcolor="#d1d1d1" />
  <metadata
     id="metadata7">
    <rdf:RDF>
      <cc:Work
         rdf:about="">
        <dc:format>image/svg+xml</dc:format>
        <dc:type
           rdf:resource="http://purl.org/dc/dcmitype/StillImage" />
      </cc:Work>
    </rdf:RDF>
  </metadata>
  <g
     inkscape:label="Camada 1"
     inkscape:groupmode="layer"
     id="layer1"
     transform="translate(-178.57143,-377.5)">
    <rect
       style="fill:#ffffff;fill-opacity:1;fill-rule:evenodd;stroke:#666666;stroke-width:0.262467;stroke-dasharray:none;stroke-opacity:1"
       id="rect799"
       width="18.897638"
       height="18.897638"
       x="0"
       y="0"
       transform="matrix(3.5718747,0,0,3.5718747,178.57143,377.5)" />
    <g
       id="g4198"
       transform="matrix(3.2539613,0,0,3.2539613,-397.92213,-845.78711)">
      <g
         aria-label="IP42"
         id="text4169"
         style="line-height:0%;font-family:Verdana;-inkscape-font-specification:'Verdana, Normal';letter-spacing:0px;word-spacing:0px;fill:#666666;stroke-width:1px">
        <path
           d="m 179.61563,389.2475 v -5.85148 h 1.18147 v 5.85148 z"
           style="font-weight:bold;font-size:8.1745px;line-height:87%;font-family:Arial;-inkscape-font-specification:'Arial, Bold'"
           id="path2205" />
        <path
           d="m 181.92269,389.2475 v -5.85148 h 1.89594 q 1.07769,0 1.40499,0.0878 0.50293,0.13171 0.8422,0.57477 0.33927,0.43906 0.33927,1.13756 0,0.53885 -0.19558,0.90606 -0.19558,0.36721 -0.49893,0.57876 -0.29936,0.20756 -0.61069,0.27541 -0.4231,0.0838 -1.22538,0.0838 h -0.77035 v 2.20728 z m 1.18147,-4.8616 v 1.66045 h 0.64662 q 0.6985,0 0.934,-0.0918 0.23549,-0.0918 0.36721,-0.28739 0.13571,-0.19558 0.13571,-0.45502 0,-0.31932 -0.1876,-0.52688 -0.1876,-0.20755 -0.47498,-0.25944 -0.21155,-0.0399 -0.85018,-0.0399 z"
           style="font-weight:bold;font-size:8.1745px;line-height:87%;font-family:Arial;-inkscape-font-specification:'Arial, Bold'"
           id="path2207" />
        <path
           d="m 189.32684,389.2475 v -1.17748 h -2.39488 v -0.9819 l 2.53857,-3.71604 h 0.94198 v 3.71205 h 0.72645 v 0.98589 h -0.72645 v 1.17748 z m 0,-2.16337 v -1.99972 l -1.34512,1.99972 z"
           style="font-weight:bold;font-size:8.1745px;line-height:87%;font-family:Arial;-inkscape-font-specification:'Arial, Bold'"
           id="path2209" />
        <path
           d="m 195.4617,388.20573 v 1.04177 h -3.93158 q 0.0639,-0.59074 0.38318,-1.11761 0.31932,-0.53086 1.2613,-1.40499 0.75838,-0.70649 0.93001,-0.95795 0.2315,-0.34726 0.2315,-0.68653 0,-0.3752 -0.20356,-0.57477 -0.19957,-0.20357 -0.55481,-0.20357 -0.35125,0 -0.55881,0.21155 -0.20755,0.21155 -0.23948,0.7025 l -1.11761,-0.11176 q 0.0998,-0.92602 0.62666,-1.32916 0.52687,-0.40313 1.31718,-0.40313 0.86614,0 1.36108,0.467 0.49494,0.467 0.49494,1.16151 0,0.39515 -0.14369,0.75438 -0.1397,0.35524 -0.44704,0.74641 -0.20356,0.25944 -0.73443,0.7464 -0.53086,0.48696 -0.67455,0.64661 -0.13971,0.15966 -0.22752,0.31134 z"
           style="font-weight:bold;font-size:8.1745px;line-height:87%;font-family:Arial;-inkscape-font-specification:'Arial, Bold'"
           id="path2211" />
      </g>
    </g>
  </g>
</svg>
