<?xml version="1.0" encoding="UTF-8" standalone="no"?>
<svg
   width="72"
   height="72"
   version="1.1"
   viewBox="0 0 67.5 67.5"
   id="svg2001"
   sodipodi:docname="ip66.svg"
   inkscape:version="1.2.2 (732a01da63, 2022-12-09)"
   xmlns:inkscape="http://www.inkscape.org/namespaces/inkscape"
   xmlns:sodipodi="http://sodipodi.sourceforge.net/DTD/sodipodi-0.dtd"
   xmlns="http://www.w3.org/2000/svg"
   xmlns:svg="http://www.w3.org/2000/svg">
  <defs
     id="defs2005" />
  <sodipodi:namedview
     id="namedview2003"
     pagecolor="#505050"
     bordercolor="#ffffff"
     borderopacity="1"
     inkscape:showpageshadow="0"
     inkscape:pageopacity="0"
     inkscape:pagecheckerboard="1"
     inkscape:deskcolor="#505050"
     showgrid="false"
     inkscape:zoom="3.2777778"
     inkscape:cx="26.389831"
     inkscape:cy="36"
     inkscape:window-width="1920"
     inkscape:window-height="1009"
     inkscape:window-x="-8"
     inkscape:window-y="-8"
     inkscape:window-maximized="1"
     inkscape:current-layer="g1999" />
  <g
     transform="translate(-178.57 -377.5)"
     id="g1999">
    <rect
       transform="matrix(3.5719 0 0 3.5719 178.57 377.5)"
       width="18.898"
       height="18.898"
       fill="#fff"
       fill-rule="evenodd"
       stroke="#666"
       stroke-width=".26247"
       id="rect1993" />
    <g
       aria-label="IP66"
       transform="matrix(3.2207 0 0 3.2207 -391.95 -833.1)"
       id="text1997"
       style="line-height:0%;font-family:Verdana;letter-spacing:0px;word-spacing:0px;fill:#666666;stroke-width:1px">
      <path
         d="m 179.61563,389.2475 v -5.85148 h 1.18147 v 5.85148 z"
         style="font-weight:bold;font-size:8.1745px;line-height:87%;font-family:Arial"
         id="path3199" />
      <path
         d="m 181.92269,389.2475 v -5.85148 h 1.89594 q 1.07769,0 1.40499,0.0878 0.50293,0.13171 0.8422,0.57477 0.33927,0.43906 0.33927,1.13756 0,0.53885 -0.19558,0.90606 -0.19558,0.36721 -0.49893,0.57876 -0.29936,0.20756 -0.61069,0.27541 -0.4231,0.0838 -1.22538,0.0838 h -0.77035 v 2.20728 z m 1.18147,-4.8616 v 1.66045 h 0.64662 q 0.6985,0 0.934,-0.0918 0.23549,-0.0918 0.36721,-0.28739 0.13571,-0.19558 0.13571,-0.45502 0,-0.31932 -0.1876,-0.52688 -0.1876,-0.20755 -0.47498,-0.25944 -0.21155,-0.0399 -0.85018,-0.0399 z"
         style="font-weight:bold;font-size:8.1745px;line-height:87%;font-family:Arial"
         id="path3201" />
      <path
         d="m 190.92741,384.82896 -1.08567,0.11974 q -0.0399,-0.33528 -0.20756,-0.49494 -0.16764,-0.15966 -0.43507,-0.15966 -0.35524,0 -0.60271,0.31932 -0.24348,0.31931 -0.30734,1.32915 0.4191,-0.49494 1.04177,-0.49494 0.7025,0 1.20143,0.53486 0.50292,0.53485 0.50292,1.38104 0,0.89808 -0.52687,1.44092 -0.52687,0.54283 -1.3531,0.54283 -0.88611,0 -1.45689,-0.68653 -0.57077,-0.69052 -0.57077,-2.25916 0,-1.60856 0.59472,-2.31904 0.59473,-0.71047 1.5447,-0.71047 0.66657,0 1.10164,0.37519 0.43906,0.37121 0.5588,1.08169 z m -2.54256,2.44676 q 0,0.54683 0.25147,0.84619 0.25146,0.29536 0.57477,0.29536 0.31133,0 0.51889,-0.24347 0.20755,-0.24348 0.20755,-0.79829 0,-0.57078 -0.22352,-0.83422 -0.22352,-0.26743 -0.5588,-0.26743 -0.32331,0 -0.54683,0.25546 -0.22353,0.25146 -0.22353,0.7464 z"
         style="font-weight:bold;font-size:8.1745px;line-height:87%;font-family:Arial"
         id="path3203" />
      <path
         d="m 195.47368,384.82896 -1.08568,0.11974 q -0.0399,-0.33528 -0.20755,-0.49494 -0.16764,-0.15966 -0.43507,-0.15966 -0.35524,0 -0.60271,0.31932 -0.24348,0.31931 -0.30734,1.32915 0.4191,-0.49494 1.04177,-0.49494 0.70249,0 1.20143,0.53486 0.50292,0.53485 0.50292,1.38104 0,0.89808 -0.52687,1.44092 -0.52688,0.54283 -1.35311,0.54283 -0.8861,0 -1.45688,-0.68653 -0.57078,-0.69052 -0.57078,-2.25916 0,-1.60856 0.59473,-2.31904 0.59473,-0.71047 1.54469,-0.71047 0.66658,0 1.10165,0.37519 0.43906,0.37121 0.5588,1.08169 z m -2.54256,2.44676 q 0,0.54683 0.25146,0.84619 0.25147,0.29536 0.57477,0.29536 0.31134,0 0.51889,-0.24347 0.20756,-0.24348 0.20756,-0.79829 0,-0.57078 -0.22352,-0.83422 -0.22352,-0.26743 -0.55881,-0.26743 -0.3233,0 -0.54683,0.25546 -0.22352,0.25146 -0.22352,0.7464 z"
         style="font-weight:bold;font-size:8.1745px;line-height:87%;font-family:Arial"
         id="path3205" />
    </g>
  </g>
</svg>
