<?xml version="1.0" encoding="UTF-8" standalone="no"?>
<svg
   width="72"
   height="72"
   version="1.1"
   viewBox="0 0 67.5 67.5"
   id="svg9"
   sodipodi:docname="norecicl.svg"
   inkscape:version="1.4 (86a8ad7, 2024-10-11)"
   xmlns:inkscape="http://www.inkscape.org/namespaces/inkscape"
   xmlns:sodipodi="http://sodipodi.sourceforge.net/DTD/sodipodi-0.dtd"
   xmlns="http://www.w3.org/2000/svg"
   xmlns:svg="http://www.w3.org/2000/svg">
  <defs
     id="defs9" />
  <sodipodi:namedview
     id="namedview9"
     pagecolor="#505050"
     bordercolor="#eeeeee"
     borderopacity="1"
     inkscape:showpageshadow="0"
     inkscape:pageopacity="0"
     inkscape:pagecheckerboard="0"
     inkscape:deskcolor="#505050"
     inkscape:zoom="31.701954"
     inkscape:cx="61.88893"
     inkscape:cy="64.712099"
     inkscape:window-width="1920"
     inkscape:window-height="1009"
     inkscape:window-x="-8"
     inkscape:window-y="-8"
     inkscape:window-maximized="1"
     inkscape:current-layer="svg9" />
  <rect
     transform="scale(3.5719)"
     width="18.898"
     height="18.898"
     fill="#fff"
     fill-rule="evenodd"
     stroke="#666"
     stroke-width=".26247"
     id="rect1" />
  <path
     transform="matrix(3.8106 0 0 3.8107 -680.48 -1438.5)"
     d="m188.09 380.07h-0.88028v0.13839h0.88028zm-2.5152 0.42962c-0.1362 0.074-0.24207 0.16435-0.30052 0.27462h0.30052zm4.5703 1.3169-0.33162 0.33779-0.0161 0.17178h0.39803v-0.50957h-0.0504zm-2.993 2.699-1.7134-1.8075 0.28089 3.2653zm0.33892 5e-3 1.6381 1.7252 0.33994-3.6477h-0.0335v-0.0582l-1.9445 1.9807zm-2.0854-2.1963 1.9167 2.0186 1.1337-1.1537h-1.5984v-0.60363h1.8486v0.34898l0.72923-0.74207v-0.64676h0.13159l0.0425-0.45653h-4.3103l0.10623 1.2351zm4.6277 5.2311c8e-3 0.0472 0.012 0.0956 0.012 0.14495 0 0.48012-0.38919 0.86928-0.86927 0.86928-0.33338 0-0.62294-0.18766-0.76877-0.46312h-2.1258v0.45411h-0.55929v-0.45526c-0.0655-9e-3 -0.12832-0.0715-0.13393-0.1368l-0.11941-1.388-2.9628 3.018-0.17712-0.17404 3.1122-3.167-0.33549-3.9002-2.9607-3.1232v-0.34394l2.9277 3.0834-0.0771-0.89675h-0.36358v-0.30181h0.31989c5e-3 -0.017 0.0128-0.0368 0.0224-0.0589 0.10637-0.24586 0.32606-0.4216 0.60083-0.54664v-0.19947h0.51574v0.0308c0.26869-0.0618 0.55278-0.0953 0.81738-0.11238v-0.11951h1.4839v0.74198h-1.4839v-0.31343c-0.26284 0.0196-0.55299 0.0556-0.81738 0.11844v0.45905h3.5072c-0.13763-0.32474-0.67278-0.47681-1.2059-0.54574v-0.30732c0.5351 0.0663 1.0851 0.21594 1.3612 0.53918 0.0736-0.0938 0.18813-0.15405 0.31666-0.15405 0.22226 0 0.40242 0.18015 0.40242 0.40242 0 0.22223-0.18016 0.40242-0.40242 0.40242-0.0554 0-0.10807-0.0111-0.15606-0.0314l-0.0434 0.4653h0.20086l2.6494-2.6961v0.34413l-2.309 2.352h0.0481v1.0524h-0.68741l-0.36705 3.9384 2.7152 2.8596-0.18013 0.17095-1.907-2.0116zm-1.7266 0.14495c0-0.44563 0.33529-0.81294 0.76736-0.86339l0.0249-0.26713-1.7782-1.8757-1.5735 1.6027 0.12969 1.5079h2.4359c-4e-3 -0.0342-6e-3 -0.0691-6e-3 -0.10438zm0.41721 0c0 0.24968 0.20239 0.45209 0.4521 0.45209 0.24967 0 0.45208-0.20241 0.45208-0.45209 0-0.2497-0.20241-0.4521-0.45208-0.4521-0.24971 0-0.4521 0.2024-0.4521 0.4521zm0.15848 0c0-0.16214 0.13146-0.29362 0.29362-0.29362 0.16214 0 0.29361 0.13148 0.29361 0.29362 0 0.16215-0.13147 0.29359-0.29361 0.29359-0.16216 0-0.29362-0.13144-0.29362-0.29359zm-5.8855 4.0363h8.7444v2.1293h-8.7444z"
     fill="#666"
     stroke-width=".13121"
     id="path9" />
</svg>
