<?xml version="1.0" encoding="UTF-8" standalone="no"?>
<!-- Created with Inkscape (http://www.inkscape.org/) -->

<svg
   width="72"
   height="72"
   viewBox="0 0 67.500002 67.499998"
   id="svg2"
   version="1.1"
   inkscape:version="1.4 (86a8ad7, 2024-10-11)"
   sodipodi:docname="NotIsolate.svg"
   xmlns:inkscape="http://www.inkscape.org/namespaces/inkscape"
   xmlns:sodipodi="http://sodipodi.sourceforge.net/DTD/sodipodi-0.dtd"
   xmlns="http://www.w3.org/2000/svg"
   xmlns:svg="http://www.w3.org/2000/svg"
   xmlns:rdf="http://www.w3.org/1999/02/22-rdf-syntax-ns#"
   xmlns:cc="http://creativecommons.org/ns#"
   xmlns:dc="http://purl.org/dc/elements/1.1/">
  <defs
     id="defs4">
    <marker
       style="overflow:visible"
       inkscape:stockid="InfiniteLineEnd"
       id="InfiniteLineEnd"
       refX="0"
       refY="0"
       orient="auto"
       inkscape:isstock="true">
      <g
         id="g4450"
         style="fill:#000000">
        <circle
           id="circle4452"
           r="0.80000001"
           cy="0"
           cx="3" />
        <circle
           id="circle4454"
           r="0.80000001"
           cy="0"
           cx="6.5" />
        <circle
           id="circle4456"
           r="0.80000001"
           cy="0"
           cx="10" />
      </g>
    </marker>
  </defs>
  <sodipodi:namedview
     id="base"
     pagecolor="#ffffff"
     bordercolor="#666666"
     borderopacity="1.0"
     inkscape:pageopacity="0.0"
     inkscape:pageshadow="2"
     inkscape:zoom="4"
     inkscape:cx="22"
     inkscape:cy="36.125"
     inkscape:document-units="px"
     inkscape:current-layer="g20"
     showgrid="false"
     fit-margin-top="0"
     fit-margin-left="0"
     fit-margin-right="0"
     fit-margin-bottom="0"
     inkscape:window-width="1280"
     inkscape:window-height="953"
     inkscape:window-x="-8"
     inkscape:window-y="-8"
     inkscape:window-maximized="1"
     showguides="true"
     inkscape:guide-bbox="true"
     inkscape:pagecheckerboard="1"
     inkscape:showpageshadow="0"
     inkscape:deskcolor="#d1d1d1" />
  <metadata
     id="metadata7">
    <rdf:RDF>
      <cc:Work
         rdf:about="">
        <dc:format>image/svg+xml</dc:format>
        <dc:type
           rdf:resource="http://purl.org/dc/dcmitype/StillImage" />
      </cc:Work>
    </rdf:RDF>
  </metadata>
  <g
     inkscape:label="Camada 1"
     inkscape:groupmode="layer"
     id="layer1"
     transform="translate(-178.57143,-377.5)">
    <g
       id="g4198">
      <rect
         style="fill:none;fill-opacity:1;fill-rule:evenodd;stroke:#666666;stroke-width:0.937499;stroke-dasharray:none;stroke-opacity:1"
         id="rect799"
         width="67.5"
         height="67.5"
         x="178.57143"
         y="377.5" />
      <g
         id="Layer_2"
         transform="matrix(4.4946812,0,0,4.4946812,174.09417,372.96854)">
        <g
           id="g20">
          <g
             id="g4"
             style="fill:#666666;fill-opacity:1;stroke:#666666;stroke-opacity:1">
            <g
               id="g2"
               style="fill:#666666;fill-opacity:1;stroke:#666666;stroke-opacity:1">
              <line
                 class="st5"
                 x1="1.41"
                 y1="10.77"
                 x2="7.4099998"
                 y2="10.77"
                 id="line2"
                 style="fill:#666666;stroke:#666666;stroke-width:0.25;stroke-miterlimit:10;fill-opacity:1;stroke-opacity:1" />
            </g>
            <g
               id="g3"
               style="fill:#666666;fill-opacity:1;stroke:#666666;stroke-opacity:1">
              <line
                 class="st5"
                 x1="9.6000004"
                 y1="10.77"
                 x2="15.6"
                 y2="10.77"
                 id="line3"
                 style="fill:#666666;stroke:#666666;stroke-width:0.25;stroke-miterlimit:10;fill-opacity:1;stroke-opacity:1" />
            </g>
          </g>
          <g
             id="g6"
             style="stroke:#666666;stroke-opacity:1">
            <g
               id="g5"
               style="stroke:#666666;stroke-opacity:1">
              <path
                 class="st6"
                 d="m 12.75,10.13 c 0,-0.26 0.17,-0.36 0.41,-0.38 0.24,-0.02 0.38,0.07 0.43,0.12 0.05,0.04 0.19,0.14 0.43,0.14 0.24,0 0.43,-0.12 0.4,-0.47 C 14.4,9.36 14.34,9.25 14.26,9.2 14.17,9.14 14.06,9.13 13.94,9.15 13.7,9.19 13.59,9.31 13.54,9.36 13.49,9.41 13.37,9.53 13.13,9.55 13.01,9.56 12.9,9.55 12.82,9.51 12.78,9.49 12.74,9.46 12.72,9.41 12.69,9.37 12.67,9.32 12.66,9.25 12.61,9 12.77,8.87 13,8.81 c 0.23,-0.06 0.39,0 0.45,0.04 0.06,0.03 0.21,0.1 0.45,0.06 C 14.02,8.89 14.12,8.84 14.18,8.75 14.24,8.66 14.26,8.54 14.21,8.37 14.11,8.03 13.9,7.99 13.67,8.07 13.44,8.15 13.35,8.29 13.31,8.35 13.28,8.41 13.18,8.54 12.95,8.61 12.83,8.64 12.73,8.65 12.63,8.62 12.54,8.59 12.47,8.52 12.43,8.4 12.35,8.16 12.48,8 12.7,7.9 12.92,7.8 13.08,7.83 13.15,7.86 13.22,7.88 13.37,7.92 13.6,7.84 13.71,7.79 13.8,7.73 13.84,7.64 13.88,7.55 13.88,7.42 13.8,7.26 13.64,6.94 13.42,6.94 13.21,7.06 13,7.18 12.94,7.33 12.91,7.4 12.89,7.47 12.82,7.61 12.6,7.72 12.5,7.77 12.39,7.8 12.3,7.78 12.21,7.77 12.13,7.71 12.06,7.6 11.93,7.38 12.02,7.21 12.22,7.07 c 0.2,-0.14 0.36,-0.14 0.43,-0.13 0.07,0.01 0.23,0.02 0.44,-0.11 0.1,-0.06 0.18,-0.14 0.2,-0.25 0.03,-0.1 0,-0.23 -0.11,-0.37 C 12.96,5.92 12.75,5.96 12.57,6.12 12.39,6.28 12.35,6.44 12.34,6.51 12.33,6.6 12.29,6.76 12.1,6.9 12,6.98 11.9,7.03 11.81,7.03 11.71,7.04 11.63,7 11.54,6.91 11.37,6.72 11.43,6.53 11.6,6.36 11.77,6.18 11.93,6.15 12,6.15 12.07,6.15 12.23,6.13 12.41,5.96 12.5,5.88 12.56,5.78 12.56,5.68 12.57,5.57 12.52,5.46 12.38,5.34 12.11,5.1 11.9,5.18 11.76,5.37 11.61,5.56 11.61,5.73 11.61,5.8 11.61,5.87 11.6,6.03 11.44,6.22 11.36,6.31 11.27,6.38 11.18,6.4 11.13,6.41 11.09,6.41 11.04,6.4 11,6.38 10.95,6.36 10.9,6.32 10.8,6.24 10.75,6.16 10.75,6.07 c 0,-0.09 0.03,-0.19 0.1,-0.3 0.13,-0.21 0.28,-0.27 0.35,-0.28 0.07,-0.02 0.22,-0.07 0.36,-0.26 0.07,-0.1 0.11,-0.2 0.09,-0.3 C 11.64,4.88 11.62,4.83 11.58,4.77 11.54,4.72 11.48,4.67 11.41,4.62 11.1,4.44 10.91,4.56 10.81,4.78 10.7,5 10.74,5.16 10.75,5.23 10.77,5.3 10.79,5.46 10.67,5.67 10.61,5.78 10.54,5.86 10.46,5.9 10.38,5.94 10.28,5.94 10.17,5.89 9.93,5.78 9.91,5.58 10,5.35 10.08,5.12 10.22,5.03 10.28,5 10.34,4.97 10.48,4.89 10.58,4.67 10.68,4.45 10.65,4.23 10.31,4.11 9.96,4 9.8,4.16 9.75,4.39 9.69,4.63 9.75,4.78 9.79,4.84 9.82,4.9 9.87,5.06 9.8,5.29 9.72,5.52 9.59,5.67 9.35,5.61 9.11,5.56 9.05,5.37 9.08,5.13 9.11,4.89 9.23,4.77 9.28,4.73 9.33,4.68 9.45,4.58 9.5,4.34 9.55,4.1 9.48,3.89 9.11,3.85 8.75,3.81 8.63,4 8.63,4.24 8.63,4.48 8.72,4.62 8.76,4.67 8.81,4.72 8.89,4.87 8.87,5.11 8.85,5.35 8.75,5.52 8.5,5.52 8.25,5.52 8.15,5.35 8.13,5.11 8.11,4.87 8.2,4.73 8.25,4.67 8.29,4.62 8.39,4.48 8.38,4.24 8.38,4 8.26,3.81 7.89,3.84 7.53,3.89 7.46,4.1 7.5,4.34 7.55,4.58 7.67,4.69 7.72,4.73 7.78,4.77 7.89,4.89 7.92,5.13 7.96,5.37 7.9,5.56 7.66,5.61 7.41,5.67 7.28,5.52 7.21,5.29 7.14,5.06 7.19,4.9 7.22,4.84 7.25,4.78 7.31,4.63 7.26,4.39 7.21,4.16 7.05,4 6.7,4.11 6.36,4.23 6.33,4.45 6.43,4.67 6.53,4.89 6.67,4.97 6.73,5 6.79,5.03 6.93,5.12 7.01,5.35 7.09,5.58 7.07,5.78 6.85,5.88 6.73,5.94 6.64,5.93 6.56,5.89 6.47,5.85 6.4,5.77 6.34,5.66 6.22,5.45 6.24,5.29 6.26,5.22 6.28,5.15 6.31,4.99 6.2,4.77 6.1,4.56 5.91,4.43 5.6,4.62 5.52,4.67 5.47,4.72 5.43,4.77 5.39,4.82 5.37,4.87 5.36,4.93 c -0.02,0.1 0.02,0.21 0.09,0.3 0.14,0.2 0.3,0.25 0.36,0.26 0.07,0.01 0.22,0.07 0.35,0.28 0.06,0.1 0.1,0.2 0.1,0.3 0,0.1 -0.05,0.18 -0.15,0.25 C 6.06,6.36 6.01,6.38 5.96,6.39 5.91,6.4 5.87,6.4 5.82,6.39 5.73,6.37 5.65,6.3 5.57,6.21 5.41,6.03 5.39,5.86 5.4,5.79 5.4,5.72 5.4,5.56 5.25,5.37 5.1,5.18 4.89,5.1 4.63,5.34 4.49,5.46 4.44,5.57 4.45,5.68 c 0,0.1 0.06,0.2 0.15,0.28 0.18,0.16 0.34,0.19 0.41,0.19 0.07,0 0.23,0.03 0.4,0.21 C 5.58,6.54 5.64,6.73 5.47,6.91 5.38,7 5.29,7.04 5.2,7.03 5.11,7.03 5.01,6.98 4.91,6.9 4.72,6.76 4.68,6.6 4.67,6.53 4.65,6.46 4.62,6.3 4.44,6.14 4.26,5.98 4.04,5.94 3.82,6.23 3.71,6.37 3.69,6.49 3.71,6.6 3.73,6.7 3.81,6.78 3.91,6.85 4.11,6.98 4.28,6.97 4.35,6.96 4.42,6.95 4.58,6.94 4.78,7.09 4.98,7.23 5.08,7.4 4.94,7.62 4.88,7.72 4.8,7.77 4.71,7.78 4.61,7.8 4.51,7.77 4.4,7.71 4.18,7.6 4.11,7.46 4.09,7.39 4.06,7.32 4,7.17 3.79,7.05 3.58,6.93 3.36,6.93 3.2,7.25 3.12,7.41 3.12,7.54 3.17,7.63 3.21,7.72 3.3,7.79 3.41,7.83 3.64,7.92 3.8,7.88 3.86,7.86 3.93,7.83 4.09,7.8 4.31,7.9 4.53,8 4.66,8.16 4.56,8.4 4.51,8.52 4.44,8.59 4.36,8.62 4.27,8.65 4.16,8.64 4.05,8.6 3.81,8.54 3.71,8.4 3.68,8.34 3.64,8.28 3.55,8.14 3.33,8.06 3.1,7.98 2.88,8.03 2.79,8.37 2.74,8.54 2.76,8.66 2.82,8.75 2.88,8.83 2.98,8.88 3.1,8.9 3.34,8.95 3.49,8.88 3.55,8.84 3.61,8.8 3.76,8.74 4,8.8 4.23,8.86 4.39,8.99 4.34,9.24 4.32,9.31 4.3,9.36 4.27,9.41 4.24,9.45 4.21,9.48 4.17,9.51 4.09,9.55 3.98,9.56 3.86,9.54 3.62,9.52 3.5,9.41 3.45,9.35 3.4,9.3 3.29,9.18 3.05,9.14 2.93,9.13 2.82,9.13 2.74,9.19 2.65,9.25 2.59,9.36 2.58,9.54 2.55,9.89 2.74,10 2.98,10.01 3.22,10.01 3.36,9.92 3.41,9.87 3.46,9.83 3.6,9.74 3.84,9.76 4.08,9.78 4.26,9.88 4.25,10.14"
                 id="path4"
                 style="fill:none;stroke:#666666;stroke-width:0.1112;stroke-miterlimit:10;stroke-opacity:1" />
            </g>
          </g>
          <g
             id="g7"
             style="stroke:#666666;stroke-opacity:1">
            <polyline
               class="st5"
               points="10.03,10.64 10.03,8.32 9.24,7.48 8.5,7.48 7.76,7.48 6.98,8.32 6.98,10.64    "
               id="polyline6"
               style="fill:none;stroke:#666666;stroke-width:0.25;stroke-miterlimit:10;stroke-opacity:1" />
          </g>
          <g
             id="g8"
             style="stroke:#666666;stroke-opacity:1">
            <path
               class="st5"
               d="m 9.38,9.6 c 0,0.48 -0.39,0.88 -0.88,0.88 -0.48,0 -0.87,-0.39 -0.87,-0.88 0,-0.48 0.39,-0.88 0.87,-0.88 0.49,0 0.88,0.39 0.88,0.88 z"
               id="path7"
               style="fill:none;stroke:#666666;stroke-width:0.25;stroke-miterlimit:10;stroke-opacity:1" />
          </g>
          <g
             id="g9"
             style="stroke:#666666;stroke-opacity:1">
            <polyline
               class="st5"
               points="7.97,8.91 7.97,8.22 9.04,8.22 9.04,8.91    "
               id="polyline8"
               style="fill:none;stroke:#666666;stroke-width:0.25;stroke-miterlimit:10;stroke-opacity:1" />
          </g>
          <g
             id="g13"
             style="stroke:#666666;stroke-opacity:1">
            <g
               id="g10"
               style="stroke:#666666;stroke-opacity:1">
              <line
                 class="st5"
                 x1="8.79"
                 y1="11.7"
                 x2="9.46"
                 y2="14.85"
                 id="line9"
                 style="fill:none;stroke:#666666;stroke-width:0.25;stroke-miterlimit:10;stroke-opacity:1" />
            </g>
            <g
               id="g11"
               style="stroke:#666666;stroke-opacity:1">
              <line
                 class="st5"
                 x1="9.3100004"
                 y1="11.53"
                 x2="10.62"
                 y2="14.48"
                 id="line10"
                 style="fill:none;stroke:#666666;stroke-width:0.25;stroke-miterlimit:10;stroke-opacity:1" />
            </g>
            <g
               id="g12"
               style="stroke:#666666;stroke-opacity:1">
              <line
                 class="st5"
                 x1="9.7399998"
                 y1="11.24"
                 x2="11.64"
                 y2="13.85"
                 id="line11"
                 style="fill:none;stroke:#666666;stroke-width:0.25;stroke-miterlimit:10;stroke-opacity:1" />
            </g>
          </g>
          <g
             id="g17"
             style="stroke:#666666;stroke-opacity:1">
            <g
               id="g14"
               style="stroke:#666666;stroke-opacity:1">
              <line
                 class="st5"
                 x1="8.2200003"
                 y1="11.7"
                 x2="7.54"
                 y2="14.85"
                 id="line13"
                 style="fill:none;stroke:#666666;stroke-width:0.25;stroke-miterlimit:10;stroke-opacity:1" />
            </g>
            <g
               id="g15"
               style="stroke:#666666;stroke-opacity:1">
              <line
                 class="st5"
                 x1="7.6999998"
                 y1="11.53"
                 x2="6.3899999"
                 y2="14.48"
                 id="line14"
                 style="fill:none;stroke:#666666;stroke-width:0.25;stroke-miterlimit:10;stroke-opacity:1" />
            </g>
            <g
               id="g16"
               style="stroke:#666666;stroke-opacity:1">
              <line
                 class="st5"
                 x1="7.2600002"
                 y1="11.24"
                 x2="5.3699999"
                 y2="13.85"
                 id="line15"
                 style="fill:none;stroke:#666666;stroke-width:0.25;stroke-miterlimit:10;stroke-opacity:1" />
            </g>
          </g>
          <g
             id="g18"
             style="fill:#666666;fill-opacity:1">
            <rect
               x="8.2200003"
               y="1.46"
               transform="matrix(0.7072,-0.7071,0.7071,0.7072,-0.6999,7.3339)"
               class="st7"
               width="0.56"
               height="6.0999999"
               id="rect17"
               style="fill:#666666;fill-opacity:1" />
          </g>
          <g
             id="g19"
             style="fill:#666666;fill-opacity:1">
            <rect
               x="5.4499998"
               y="4.23"
               transform="matrix(0.7066,-0.7076,0.7076,0.7066,-0.6976,7.3416)"
               class="st7"
               width="6.0999999"
               height="0.56"
               id="rect18"
               style="fill:#666666;fill-opacity:1" />
          </g>
        </g>
      </g>
    </g>
  </g>
</svg>
