<?xml version="1.0" encoding="UTF-8" standalone="no"?>
<!-- Created with Inkscape (http://www.inkscape.org/) -->

<svg
   width="72"
   height="72"
   viewBox="0 0 67.499998 67.499998"
   id="svg2"
   version="1.1"
   inkscape:version="1.2.2 (732a01da63, 2022-12-09)"
   sodipodi:docname="rohs.svg"
   xmlns:inkscape="http://www.inkscape.org/namespaces/inkscape"
   xmlns:sodipodi="http://sodipodi.sourceforge.net/DTD/sodipodi-0.dtd"
   xmlns="http://www.w3.org/2000/svg"
   xmlns:svg="http://www.w3.org/2000/svg"
   xmlns:rdf="http://www.w3.org/1999/02/22-rdf-syntax-ns#"
   xmlns:cc="http://creativecommons.org/ns#"
   xmlns:dc="http://purl.org/dc/elements/1.1/">
  <defs
     id="defs4">
    <marker
       style="overflow:visible"
       inkscape:stockid="InfiniteLineEnd"
       id="InfiniteLineEnd"
       refX="0"
       refY="0"
       orient="auto"
       inkscape:isstock="true">
      <g
         id="g4450"
         style="fill:#000000">
        <circle
           id="circle4452"
           r="0.80000001"
           cy="0"
           cx="3" />
        <circle
           id="circle4454"
           r="0.80000001"
           cy="0"
           cx="6.5" />
        <circle
           id="circle4456"
           r="0.80000001"
           cy="0"
           cx="10" />
      </g>
    </marker>
  </defs>
  <sodipodi:namedview
     id="base"
     pagecolor="#ffffff"
     bordercolor="#666666"
     borderopacity="1.0"
     inkscape:pageopacity="0.0"
     inkscape:pageshadow="2"
     inkscape:zoom="5.6568545"
     inkscape:cx="-25.367455"
     inkscape:cy="50.381356"
     inkscape:document-units="px"
     inkscape:current-layer="text4169"
     showgrid="false"
     fit-margin-top="0"
     fit-margin-left="0"
     fit-margin-right="0"
     fit-margin-bottom="0"
     inkscape:window-width="1920"
     inkscape:window-height="1009"
     inkscape:window-x="-8"
     inkscape:window-y="-8"
     inkscape:window-maximized="1"
     inkscape:pagecheckerboard="1"
     inkscape:showpageshadow="0"
     inkscape:deskcolor="#d1d1d1" />
  <metadata
     id="metadata7">
    <rdf:RDF>
      <cc:Work
         rdf:about="">
        <dc:format>image/svg+xml</dc:format>
        <dc:type
           rdf:resource="http://purl.org/dc/dcmitype/StillImage" />
      </cc:Work>
    </rdf:RDF>
  </metadata>
  <g
     inkscape:label="Camada 1"
     inkscape:groupmode="layer"
     id="layer1"
     transform="translate(-178.57143,-377.5)">
    <g
       id="g4198">
      <rect
         style="fill:#ffffff;fill-opacity:1;fill-rule:evenodd;stroke:#666666;stroke-width:0.262467;stroke-dasharray:none;stroke-opacity:1"
         id="rect799"
         width="18.897638"
         height="18.897638"
         x="0"
         y="0"
         transform="matrix(3.5718747,0,0,3.5718747,178.57143,377.5)" />
      <g
         aria-label="RoHS"
         transform="matrix(3.0871691,0,0,3.0871691,-366.56207,-783.39857)"
         id="text4169"
         style="line-height:0%;font-family:Verdana;-inkscape-font-specification:'Verdana, Normal';letter-spacing:0px;word-spacing:0px;fill:#666666;stroke-width:1px">
        <path
           d="m 179.16163,389.26971 v -4.5982 h 1.95408 q 0.73709,0 1.06957,0.12547 0.33561,0.12232 0.53635,0.43912 0.20074,0.31679 0.20074,0.72454 0,0.51753 -0.30425,0.85628 -0.30424,0.33561 -0.9096,0.42344 0.30111,0.17565 0.49558,0.3858 0.1976,0.21015 0.53008,0.7465 l 0.56144,0.89705 h -1.11034 l -0.67123,-1.00056 q -0.35757,-0.53635 -0.4893,-0.67436 -0.13174,-0.14115 -0.27915,-0.19133 -0.14742,-0.0533 -0.46735,-0.0533 h -0.1882 v 1.91957 z m 0.92842,-2.65353 h 0.68691 q 0.66809,0 0.83433,-0.0565 0.16623,-0.0565 0.26033,-0.19446 0.0941,-0.13801 0.0941,-0.34502 0,-0.23211 -0.12546,-0.37326 -0.12233,-0.14428 -0.34816,-0.18192 -0.11292,-0.0157 -0.6775,-0.0157 h -0.72455 z"
           style="font-weight:bold;font-size:6.42368px;line-height:87%;font-family:Arial;-inkscape-font-specification:'Arial, Bold'"
           id="path3074" />
        <path
           d="m 183.58732,387.55715 q 0,-0.43912 0.21642,-0.85001 0.21643,-0.41089 0.61163,-0.62731 0.39835,-0.21642 0.88765,-0.21642 0.75591,0 1.23894,0.49244 0.48303,0.4893 0.48303,1.23894 0,0.75591 -0.4893,1.25462 -0.48617,0.49558 -1.2264,0.49558 -0.45793,0 -0.8751,-0.20701 -0.41402,-0.20701 -0.63045,-0.60536 -0.21642,-0.40148 -0.21642,-0.97547 z m 0.90333,0.0471 q 0,0.49558 0.23524,0.75905 0.23524,0.26347 0.58027,0.26347 0.34502,0 0.57712,-0.26347 0.23525,-0.26347 0.23525,-0.76532 0,-0.48931 -0.23525,-0.75278 -0.2321,-0.26347 -0.57712,-0.26347 -0.34503,0 -0.58027,0.26347 -0.23524,0.26347 -0.23524,0.75905 z"
           style="font-weight:bold;font-size:6.42368px;line-height:87%;font-family:Arial;-inkscape-font-specification:'Arial, Bold'"
           id="path3076" />
        <path
           d="m 187.72445,389.26971 v -4.5982 h 0.92842 v 1.8098 h 1.8192 v -1.8098 h 0.92843 v 4.5982 h -0.92843 v -2.01053 h -1.8192 v 2.01053 z"
           style="font-weight:bold;font-size:6.42368px;line-height:87%;font-family:Arial;-inkscape-font-specification:'Arial, Bold'"
           id="path3078" />
        <path
           d="m 192.12504,387.77357 0.90333,-0.0878 q 0.0815,0.4548 0.32934,0.66809 0.25093,0.21328 0.67436,0.21328 0.44853,0 0.67436,-0.18819 0.22897,-0.19133 0.22897,-0.44539 0,-0.1631 -0.0972,-0.27602 -0.0941,-0.11605 -0.33248,-0.20074 -0.1631,-0.0565 -0.74336,-0.20074 -0.7465,-0.18506 -1.04761,-0.4548 -0.42344,-0.37952 -0.42344,-0.92529 0,-0.35129 0.1976,-0.65554 0.20074,-0.30738 0.574,-0.46735 0.37638,-0.15996 0.90646,-0.15996 0.86569,0 1.30168,0.37952 0.43911,0.37953 0.46107,1.01311 l -0.92842,0.0408 q -0.0596,-0.35443 -0.2572,-0.50812 -0.19447,-0.15683 -0.58654,-0.15683 -0.40461,0 -0.63358,0.16624 -0.14742,0.10664 -0.14742,0.28542 0,0.1631 0.13801,0.27916 0.17564,0.14742 0.85314,0.30738 0.6775,0.15996 1.00057,0.33248 0.3262,0.16937 0.50812,0.46734 0.18506,0.29484 0.18506,0.73082 0,0.39521 -0.21956,0.74023 -0.21956,0.34502 -0.62104,0.5144 -0.40148,0.16623 -1.00057,0.16623 -0.87196,0 -1.33931,-0.40148 -0.46735,-0.40461 -0.55831,-1.17621 z"
           style="font-weight:bold;font-size:6.42368px;line-height:87%;font-family:Arial;-inkscape-font-specification:'Arial, Bold'"
           id="path3080" />
      </g>
    </g>
  </g>
</svg>
