<?xml version="1.0" encoding="UTF-8" standalone="no"?>
<!-- Created with Inkscape (http://www.inkscape.org/) -->

<svg
   width="6.7012277mm"
   height="8.0000038mm"
   viewBox="0 0 6.7012277 8.0000038"
   version="1.1"
   id="svg632"
   inkscape:version="1.2.2 (732a01da63, 2022-12-09)"
   sodipodi:docname="B.svg"
   xml:space="preserve"
   xmlns:inkscape="http://www.inkscape.org/namespaces/inkscape"
   xmlns:sodipodi="http://sodipodi.sourceforge.net/DTD/sodipodi-0.dtd"
   xmlns="http://www.w3.org/2000/svg"
   xmlns:svg="http://www.w3.org/2000/svg"><sodipodi:namedview
     id="namedview634"
     pagecolor="#505050"
     bordercolor="#ffffff"
     borderopacity="1"
     inkscape:showpageshadow="0"
     inkscape:pageopacity="0"
     inkscape:pagecheckerboard="1"
     inkscape:deskcolor="#505050"
     inkscape:document-units="mm"
     showgrid="false"
     inkscape:zoom="12.325625"
     inkscape:cx="15.617869"
     inkscape:cy="23.60935"
     inkscape:window-width="1680"
     inkscape:window-height="979"
     inkscape:window-x="1912"
     inkscape:window-y="-8"
     inkscape:window-maximized="1"
     inkscape:current-layer="layer1"
     showguides="true" /><defs
     id="defs629"><rect
       x="-7.5726862"
       y="-37.40448"
       width="52.549854"
       height="40.846611"
       id="rect290" /><rect
       x="-36.257107"
       y="7.2284732"
       width="25.815975"
       height="44.862431"
       id="rect289" /></defs><g
     inkscape:label="Layer 1"
     inkscape:groupmode="layer"
     id="layer1"
     transform="translate(-63.569552,-174.79593)"><g
       aria-label="B"
       transform="matrix(0.69849932,0,0,0.69849932,68.04022,198.75405)"
       id="text288"
       style="font-size:16px;line-height:1.25;white-space:pre;shape-inside:url(#rect290);display:inline;stroke-width:0.378788"><path
         d="m -6.4003906,-34.299419 h 4.578125 q 1.35937497,0 2.02343748,0.117188 0.671875,0.109375 1.19531252,0.46875 0.53125,0.359375 0.8828125,0.960937 0.3515625,0.59375 0.3515625,1.335938 0,0.804687 -0.4375,1.476562 -0.4296875,0.671875 -1.171875,1.007813 1.046875,0.304687 1.609375,1.039062 0.5625,0.734375 0.5625,1.726563 0,0.78125 -0.3671875,1.523437 -0.359375,0.734375 -0.9921875,1.179688 -0.625,0.4375 -1.54687502,0.539062 -0.57812501,0.0625 -2.78906248,0.07813 h -3.8984375 z m 2.3125,1.90625 v 2.648438 h 1.515625 q 1.3515625,0 1.67968747,-0.03906 0.59375,-0.07031 0.9296875,-0.40625 0.34375001,-0.34375 0.34375001,-0.898437 0,-0.53125 -0.29687501,-0.859375 -0.2890625,-0.335938 -0.86718749,-0.40625 -0.34374998,-0.03906 -1.97656248,-0.03906 z m 0,4.554688 v 3.0625 h 2.140625 q 1.24999998,0 1.58593747,-0.07031 0.515625,-0.09375 0.83593751,-0.453125 0.328125,-0.367187 0.328125,-0.976562 0,-0.515625 -0.25000001,-0.875 -0.24999999,-0.359375 -0.72656249,-0.523438 -0.46875,-0.164062 -2.04687498,-0.164062 z"
         style="font-weight:bold;font-family:Arial;-inkscape-font-specification:'Arial, Bold'"
         id="path800" /></g></g></svg>
