<?xml version="1.0" encoding="UTF-8" standalone="no"?>
<!-- Created with Inkscape (http://www.inkscape.org/) -->

<svg
   width="7.2348285mm"
   height="8mm"
   viewBox="0 0 7.2348285 8"
   version="1.1"
   id="svg632"
   inkscape:version="1.2.2 (732a01da63, 2022-12-09)"
   sodipodi:docname="G.svg"
   xml:space="preserve"
   xmlns:inkscape="http://www.inkscape.org/namespaces/inkscape"
   xmlns:sodipodi="http://sodipodi.sourceforge.net/DTD/sodipodi-0.dtd"
   xmlns="http://www.w3.org/2000/svg"
   xmlns:svg="http://www.w3.org/2000/svg"><sodipodi:namedview
     id="namedview634"
     pagecolor="#505050"
     bordercolor="#ffffff"
     borderopacity="1"
     inkscape:showpageshadow="0"
     inkscape:pageopacity="0"
     inkscape:pagecheckerboard="1"
     inkscape:deskcolor="#505050"
     inkscape:document-units="mm"
     showgrid="false"
     inkscape:zoom="12.325625"
     inkscape:cx="16.672583"
     inkscape:cy="24.096141"
     inkscape:window-width="1680"
     inkscape:window-height="979"
     inkscape:window-x="1912"
     inkscape:window-y="-8"
     inkscape:window-maximized="1"
     inkscape:current-layer="layer1"
     showguides="true" /><defs
     id="defs629"><rect
       x="-7.5726862"
       y="-37.40448"
       width="52.549854"
       height="40.846611"
       id="rect290" /><rect
       x="-36.257107"
       y="7.2284732"
       width="25.815975"
       height="44.862431"
       id="rect289" /></defs><g
     inkscape:label="Layer 1"
     inkscape:groupmode="layer"
     id="layer1"
     transform="translate(-63.285786,-174.6595)"><g
       aria-label="G"
       transform="matrix(0.67546174,0,0,0.67546174,67.883411,197.95937)"
       id="text288"
       style="font-size:16px;line-height:1.25;white-space:pre;shape-inside:url(#rect290);display:inline;stroke-width:0.391707"><path
         d="m -1.0800781,-27.057231 v -1.929688 h 4.984375 v 4.5625 q -0.7265625,0.703125 -2.109375,1.242188 -1.37500002,0.53125 -2.78906253,0.53125 -1.79687497,0 -3.13281247,-0.75 -1.3359375,-0.757813 -2.0078125,-2.15625 -0.671875,-1.40625 -0.671875,-3.054688 0,-1.789062 0.75,-3.179687 0.75,-1.390625 2.1953125,-2.132813 1.1015625,-0.570312 2.7421875,-0.570312 2.1328125,0 3.328125,0.898437 1.203125,0.890625 1.546875,2.46875 l -2.296875,0.429688 q -0.2421875,-0.84375 -0.91406253,-1.328125 -0.66406249,-0.492188 -1.66406247,-0.492188 -1.515625,0 -2.4140625,0.960938 -0.890625,0.960937 -0.890625,2.851562 0,2.039063 0.90625,3.0625 0.90625,1.015625 2.375,1.015625 0.72656247,0 1.45312498,-0.28125 0.73437502,-0.289062 1.25781252,-0.695312 v -1.453125 z"
         style="font-weight:bold;font-family:Arial;-inkscape-font-specification:'Arial, Bold'"
         id="path822" /></g></g></svg>
