<?xml version="1.0" encoding="UTF-8" standalone="no"?>
<!-- Created with Inkscape (http://www.inkscape.org/) -->

<svg
   width="7.1923604mm"
   height="8mm"
   viewBox="0 0 7.1923604 8"
   version="1.1"
   id="svg632"
   inkscape:version="1.2.2 (732a01da63, 2022-12-09)"
   sodipodi:docname="R.svg"
   xml:space="preserve"
   xmlns:inkscape="http://www.inkscape.org/namespaces/inkscape"
   xmlns:sodipodi="http://sodipodi.sourceforge.net/DTD/sodipodi-0.dtd"
   xmlns="http://www.w3.org/2000/svg"
   xmlns:svg="http://www.w3.org/2000/svg"><sodipodi:namedview
     id="namedview634"
     pagecolor="#505050"
     bordercolor="#ffffff"
     borderopacity="1"
     inkscape:showpageshadow="0"
     inkscape:pageopacity="0"
     inkscape:pagecheckerboard="1"
     inkscape:deskcolor="#505050"
     inkscape:document-units="mm"
     showgrid="false"
     inkscape:zoom="12.325625"
     inkscape:cx="18.132954"
     inkscape:cy="23.60935"
     inkscape:window-width="1680"
     inkscape:window-height="979"
     inkscape:window-x="1912"
     inkscape:window-y="-8"
     inkscape:window-maximized="1"
     inkscape:current-layer="layer1"
     showguides="true" /><defs
     id="defs629"><rect
       x="-7.5726862"
       y="-37.40448"
       width="52.549854"
       height="40.846611"
       id="rect290" /><rect
       x="-36.257107"
       y="7.2284732"
       width="25.815975"
       height="44.862431"
       id="rect289" /></defs><g
     inkscape:label="Layer 1"
     inkscape:groupmode="layer"
     id="layer1"
     transform="translate(-63.569552,-174.79593)"><g
       aria-label="R"
       transform="matrix(0.69849932,0,0,0.69849932,68.04022,198.75405)"
       id="text288"
       style="font-size:16px;line-height:1.25;white-space:pre;shape-inside:url(#rect290);display:inline;stroke-width:0.378788"><path
         d="m -6.4003906,-22.846294 v -11.453125 h 4.8671875 q 1.83593748,0 2.6640625,0.3125 0.8359375,0.304688 1.3359375,1.09375 0.5,0.789063 0.5,1.804688 0,1.289062 -0.7578125,2.132812 -0.7578125,0.835938 -2.26562502,1.054688 0.74999999,0.4375 1.23437502,0.960937 0.4921875,0.523438 1.3203125,1.859375 l 1.3984375,2.234375 h -2.765625 l -1.67187502,-2.492187 q -0.89062498,-1.335938 -1.21874998,-1.679688 -0.328125,-0.351562 -0.6953125,-0.476562 -0.3671875,-0.132813 -1.1640625,-0.132813 h -0.46875 v 4.78125 z m 2.3125,-6.609375 h 1.7109375 q 1.66406248,0 2.07812497,-0.140625 0.4140625,-0.140625 0.64843751,-0.484375 0.23437499,-0.34375 0.23437499,-0.859375 0,-0.578125 -0.31249999,-0.929687 -0.3046875,-0.359375 -0.8671875,-0.453125 -0.28125001,-0.03906 -1.68749998,-0.03906 h -1.8046875 z"
         style="font-weight:bold;font-family:Arial;-inkscape-font-specification:'Arial, Bold'"
         id="path833" /></g></g></svg>
