<?xml version="1.0" encoding="UTF-8" standalone="no"?>
<!-- Created with Inkscape (http://www.inkscape.org/) -->

<svg
   width="7.0184698mm"
   height="8mm"
   viewBox="0 0 7.0184698 8"
   version="1.1"
   id="svg632"
   inkscape:version="1.2.2 (732a01da63, 2022-12-09)"
   sodipodi:docname="S.svg"
   xml:space="preserve"
   xmlns:inkscape="http://www.inkscape.org/namespaces/inkscape"
   xmlns:sodipodi="http://sodipodi.sourceforge.net/DTD/sodipodi-0.dtd"
   xmlns="http://www.w3.org/2000/svg"
   xmlns:svg="http://www.w3.org/2000/svg"><sodipodi:namedview
     id="namedview634"
     pagecolor="#505050"
     bordercolor="#ffffff"
     borderopacity="1"
     inkscape:showpageshadow="0"
     inkscape:pageopacity="0"
     inkscape:pagecheckerboard="1"
     inkscape:deskcolor="#505050"
     inkscape:document-units="mm"
     showgrid="false"
     inkscape:zoom="4.3577666"
     inkscape:cx="60.925704"
     inkscape:cy="2.9831795"
     inkscape:window-width="1680"
     inkscape:window-height="979"
     inkscape:window-x="1912"
     inkscape:window-y="-8"
     inkscape:window-maximized="1"
     inkscape:current-layer="layer1"
     showguides="true" /><defs
     id="defs629"><rect
       x="-36.257107"
       y="7.2284732"
       width="25.815975"
       height="44.862431"
       id="rect289" /></defs><g
     inkscape:label="Layer 1"
     inkscape:groupmode="layer"
     id="layer1"
     transform="translate(-65.262988,-183.87098)"><g
       aria-label="S"
       transform="matrix(0.67546174,0,0,0.67546174,89.379083,177.16679)"
       id="text287"
       style="font-weight:900;font-size:16px;line-height:1.25;font-family:Arial;-inkscape-font-specification:'Arial, Heavy';white-space:pre;shape-inside:url(#rect289);stroke-width:0.391708"><path
         d="m -35.703125,17.784716 3.367188,-0.210937 q 0.109375,0.820312 0.445312,1.25 0.546875,0.695312 1.5625,0.695312 0.757813,0 1.164063,-0.351562 0.414062,-0.359375 0.414062,-0.828125 0,-0.445313 -0.390625,-0.796875 -0.390625,-0.351563 -1.8125,-0.664063 -2.328125,-0.523437 -3.320312,-1.390625 -1,-0.867187 -1,-2.210937 0,-0.882813 0.507812,-1.664063 0.515625,-0.789062 1.539063,-1.234375 1.03125,-0.4531247 2.820312,-0.4531247 2.195313,0 3.34375,0.8203127 1.15625,0.8125 1.375,2.59375 l -3.335937,0.195312 q -0.132813,-0.773437 -0.5625,-1.125 -0.421875,-0.351562 -1.171875,-0.351562 -0.617188,0 -0.929688,0.265625 Q -32,12.581591 -32,12.956591 q 0,0.273438 0.257813,0.492188 0.25,0.226562 1.1875,0.421875 2.320312,0.5 3.320312,1.015625 1.007813,0.507812 1.460938,1.265625 0.460937,0.757812 0.460937,1.695312 0,1.101563 -0.609375,2.03125 -0.609375,0.929688 -1.703125,1.414063 -1.09375,0.476562 -2.757812,0.476562 -2.921875,0 -4.046875,-1.125 -1.125,-1.125 -1.273438,-2.859375 z"
         id="path409" /></g></g></svg>
