<svg width="500" height="345" version="1.1" viewBox="0 0 132.29 91.281" xmlns="http://www.w3.org/2000/svg"><path transform="matrix(.50911 -.45014 .1023 .66293 44.851 2400.6)" d="m604.77-3112.8q-0.28732 0-0.45339 0.2267-0.16606 0.224-0.16606 0.6194 0 0.4323 0.15816 0.6617 0.16079 0.2293 0.46129 0.2293 0.31631 0 0.47974-0.2241 0.16343-0.2267 0.16343-0.6669 0-0.4059-0.1687-0.6247-0.1687-0.2214-0.47447-0.2214zm0.64317-1.2099q0-0.2135 0.0923-0.319 0.0923-0.108 0.27941-0.108 0.18716 0 0.27942 0.108 0.0923 0.1055 0.0923 0.319v3.1315q0 0.2135-0.0949 0.319-0.0949 0.1054-0.28732 0.1054-0.17134 0-0.25832-0.087-0.087-0.09-0.087-0.2636v-0.084q-0.17134 0.253-0.37694 0.369-0.20561 0.116-0.48238 0.116-0.52983 0-0.85933-0.4191-0.32686-0.4192-0.32686-1.0992 0-0.6854 0.32686-1.1124 0.3295-0.4297 0.84878-0.4297 0.27414 0 0.49029 0.116 0.21615 0.1134 0.36376 0.3374zm-4.3177 2.2775q0.0132 0.3374 0.17134 0.514 0.16079 0.1766 0.44811 0.1766 0.1318 0 0.24251-0.037t0.19506-0.1081q0.0211-0.019 0.0553-0.05 0.19506-0.1766 0.34004-0.1766 0.12916 0 0.21352 0.084 0.087 0.082 0.087 0.2056 0 0.09-0.0474 0.1792-0.0448 0.087-0.13971 0.1793-0.18452 0.1739-0.44548 0.2662-0.25832 0.095-0.56409 0.095-0.62209 0-0.98585-0.4165-0.36377-0.4191-0.36377-1.1335 0-0.7038 0.35849-1.1097t0.98058-0.4059q0.62472 0 0.9964 0.3822 0.3743 0.3822 0.3743 1.0254 0 0.1897-0.0685 0.2609-0.0685 0.069-0.34268 0.069h-0.0817zm1.1282-0.5035q-0.0132-0.29-0.15816-0.4402-0.14234-0.1529-0.40857-0.1529-0.25305 0-0.3954 0.1529-0.14234 0.1502-0.16606 0.4402zm-4.3572 1.7344q-0.27415 0-0.37958-0.1265-0.10544-0.1291-0.10544-0.4824v-2.8995q0-0.203 0.1028-0.3137 0.10544-0.1133 0.29523-0.1133 0.20033 0 0.3005 0.108 0.10016 0.1055 0.10016 0.319v2.7967h1.4682q0.22932 0 0.35321 0.09 0.12653 0.09 0.12653 0.2556 0 0.1925-0.11335 0.2795-0.11334 0.087-0.36639 0.087zm-3.1526-2.3486q-0.0316-0.047-0.0501-0.1028-0.0158-0.058-0.0158-0.1186 0-0.1424 0.10543-0.2425 0.10808-0.1028 0.25833-0.1028 0.1028 0 0.19506 0.079 0.0923 0.079 0.20297 0.2662l0.34004 0.5667 0.33476-0.5825q0.10544-0.1845 0.1977-0.2557 0.0949-0.074 0.21351-0.074 0.14762 0 0.24515 0.09 0.10017 0.087 0.10017 0.2135 0 0.077-0.0158 0.1371-0.0158 0.058-0.0501 0.1054l-0.58255 0.8962 0.61681 0.9543q0.0369 0.058 0.0554 0.1212 0.0184 0.063 0.0184 0.1239 0 0.1423-0.10807 0.232-0.10544 0.09-0.27414 0.09-0.11599 0-0.20561-0.071-0.0896-0.071-0.21088-0.2741l-0.36112-0.6089-0.34531 0.6089q-0.11335 0.195-0.21088 0.2715-0.0949 0.074-0.22142 0.074-0.15552 0-0.26096-0.097-0.10544-0.098-0.10544-0.2373 0-0.053 0.0211-0.1107 0.0211-0.061 0.0606-0.1212l0.62999-0.9437zm-2.3249 1.1177q0.0132 0.3374 0.17133 0.514 0.1608 0.1766 0.44812 0.1766 0.1318 0 0.24251-0.037t0.19506-0.1081q0.0211-0.019 0.0553-0.05 0.19506-0.1766 0.34004-0.1766 0.12916 0 0.21351 0.084 0.087 0.082 0.087 0.2056 0 0.09-0.0474 0.1792-0.0448 0.087-0.1397 0.1793-0.18452 0.1739-0.44548 0.2662-0.25832 0.095-0.5641 0.095-0.62208 0-0.98585-0.4165-0.36376-0.4191-0.36376-1.1335 0-0.7038 0.35849-1.1097t0.98058-0.4059q0.62472 0 0.99639 0.3822 0.37431 0.3822 0.37431 1.0254 0 0.1897-0.0685 0.2609-0.0685 0.069-0.34268 0.069h-0.0817zm1.1282-0.5035q-0.0132-0.29-0.15816-0.4402-0.14234-0.1529-0.40857-0.1529-0.25306 0-0.3954 0.1529-0.14234 0.1502-0.16606 0.4402zm-4.924 1.3074q0 0.2425-0.0975 0.3585t-0.29786 0.116q-0.20561 0-0.3005-0.1134-0.0923-0.1133-0.0923-0.3611v-2.8995q0-0.3533 0.10544-0.4798 0.10544-0.1291 0.37958-0.1291 0.31368 0 0.62735 0.5298 0.029 0.047 0.0422 0.071l1.2574 2.1193v-2.2459q0-0.2425 0.0949-0.3585 0.0975-0.1159 0.3005-0.1159 0.20297 0 0.29786 0.1159 0.0949 0.1134 0.0949 0.3585v2.9101q0 0.3374-0.0975 0.4692-0.0949 0.1292-0.33477 0.1292-0.21088 0-0.33213-0.074-0.12126-0.074-0.29259-0.3611l-1.3549-2.2801zm41.313-4.3603-0.13264-0.025q-0.1636-0.032-0.23704-0.1252-0.0697-0.097-0.0442-0.2613 0.0245-0.1633 0.11991-0.2269 0.0976-0.066 0.26149-0.037l0.13279 0.025 0.0721-0.473q0.0403-0.2585 0.15774-0.3689 0.1216-0.1129 0.32545-0.075 0.20654 0.038 0.28684 0.1948 0.0848 0.147 0.0508 0.4105l-0.0715 0.4698 0.20929 0.039q0.167 0.03 0.23367 0.1255 0.0701 0.095 0.0444 0.2612-0.0245 0.1634-0.12015 0.2306-0.0947 0.065-0.2582 0.034l-0.20927-0.039-0.29306 1.9251q-0.0174 0.1282 0.0106 0.1789 0.0321 0.054 0.13529 0.069 0.0211-0 0.0621 0.01 0.0452 0.01 0.0791 0.014 0.13536 0.025 0.20001 0.1205 0.0642 0.096 0.0408 0.2471-0.0349 0.2235-0.18582 0.3009-0.15092 0.074-0.44784 0.02-0.48932-0.09-0.64482-0.3294-0.15475-0.2436-0.0654-0.8306zm-2.2048-0.3773q-0.32242-0.06-0.53866 0.1765-0.21347 0.2366-0.28866 0.7399-0.0787 0.5182 0.0574 0.8262 0.13629 0.3077 0.46746 0.3685 0.31123 0.057 0.53108-0.1844 0.22011-0.2421 0.29319-0.722 0.0797-0.5242-0.0536-0.8318-0.13301-0.3107-0.46833-0.3678zm-1.0301 2.239-0.20154 1.324q-0.0403 0.2586-0.16162 0.3675-0.11841 0.1094-0.31922 0.072-0.20139-0.036-0.28196-0.1914-0.0823-0.1465-0.0433-0.4026l0.5956-3.9109q0.0409-0.2615 0.16194-0.374 0.1218-0.113 0.32833-0.075 0.18109 0.032 0.25557 0.1557 0.0781 0.1194 0.0581 0.3428l-7e-3 0.1156q0.17629-0.2602 0.43436-0.3701 0.26139-0.1129 0.55843-0.058 0.56845 0.1051 0.8436 0.6813 0.27655 0.5708 0.15101 1.3956-0.12703 0.8349-0.56019 1.2904-0.43236 0.4526-0.98953 0.3496-0.29395-0.055-0.50437-0.239-0.20632-0.1848-0.3195-0.4799zm-2.4776-0.5142q0.0342-0.2198 0.19834-0.3549 0.16635-0.137 0.36419-0.1004 0.20424 0.037 0.31867 0.2318 0.11688 0.1853 0.083 0.4099-0.0355 0.2261-0.2034 0.3636-0.16843 0.1333-0.36652 0.097-0.19471-0.037-0.31403-0.2286-0.11589-0.191-0.0827-0.4135zm-1.8526-2.7093q-0.30838-0.056-0.52834 0.1851-0.21964 0.2388-0.29186 0.7187-0.08 0.5246 0.0474 0.8343 0.13018 0.3103 0.45145 0.3729 0.33931 0.063 0.55602-0.1765 0.2175-0.2425 0.29885-0.7766 0.0752-0.4923-0.0656-0.7914-0.13983-0.3024-0.46657-0.3666zm0.91364-1.3402q0.0403-0.2584 0.15774-0.3689 0.11899-0.1131 0.31974-0.076 0.20156 0.036 0.2795 0.1898 0.0795 0.1471 0.0402 0.4057l-0.57843 3.7988q-0.0403 0.2584-0.16158 0.3672-0.12127 0.1088-0.32769 0.07-0.18422-0.033-0.26091-0.158-0.0775-0.1254-0.0445-0.3371l0.0174-0.1031q-0.23068 0.2731-0.4726 0.3731-0.24206 0.1-0.53893 0.045-0.56842-0.1051-0.84357-0.6813-0.27327-0.5733-0.14753-1.3986 0.12679-0.8312 0.55613-1.2844 0.43294-0.4559 0.99009-0.3531 0.29396 0.055 0.50464 0.238 0.21534 0.1718 0.32798 0.4812zm-5.0533 1.9065q-0.0482 0.4119 0.0889 0.6576 0.13998 0.2462 0.44798 0.3035 0.14115 0.026 0.26703 0 0.12583-0.023 0.22915-0.091 0.0248-0.019 0.0686-0.049 0.24192-0.1758 0.3975-0.1468 0.13829 0.025 0.21659 0.1317 0.0781 0.1169 0.0554 0.2664-0.0185 0.1087-0.0842 0.208-0.0633 0.096-0.18312 0.1899-0.23005 0.1743-0.52717 0.2345-0.29462 0.064-0.62265 0-0.66746-0.1234-0.97972-0.7048-0.31295-0.5805-0.18095-1.4471 0.12988-0.854 0.58963-1.2753 0.45959-0.4213 1.127-0.2977 0.67029 0.1237 0.99803 0.6623 0.33108 0.5378 0.21227 1.318-0.0361 0.2294-0.12207 0.303-0.0856 0.067-0.38026 0.015l-0.0882-0.015zm1.3035-0.387q0.0396-0.3541-0.0884-0.5655-0.12388-0.2153-0.41063-0.2635-0.27176-0.049-0.45247 0.1072-0.18056 0.1539-0.25976 0.5009zm-3.1423-2.7937q0.0403-0.2586 0.1616-0.3673 0.12465-0.1124 0.33117-0.074 0.20424 0.037 0.28432 0.193 0.0849 0.1483 0.0456 0.4062l-0.57848 3.799q-0.0396 0.2551-0.16231 0.3684-0.12123 0.1086-0.32492 0.071-0.20654-0.038-0.29191-0.1829-0.0814-0.151-0.0427-0.4054zm-3.0339 0.8857q-0.0246-0.065-0.0343-0.1356-7e-3 -0.072 5e-3 -0.1472 0.0263-0.1725 0.15672-0.2745 0.13482-0.1034 0.29612-0.073 0.11042 0.021 0.19221 0.1458 0.0849 0.1138 0.1685 0.3634l0.26024 0.7547 0.46662-0.6403q0.14736-0.2031 0.25898-0.271 0.11546-0.071 0.24278-0.048 0.15764 0.03 0.24727 0.1525 0.091 0.127 0.068 0.2788-0.0122 0.094-0.0412 0.1638-0.0297 0.065-0.0726 0.1181l-0.7906 0.9717 0.4854 1.2801q0.0288 0.077 0.037 0.1577 8e-3 0.08-3e-3 0.1544-0.0264 0.1727-0.159 0.2601-0.12975 0.088-0.31075 0.055-0.12421-0.023-0.20781-0.1258-0.0828-0.1048-0.17567-0.3741l-0.27497-0.8104-0.48302 0.6702q-0.1574 0.214-0.27654 0.2871-0.11557 0.07-0.25126 0.046-0.16719-0.031-0.26339-0.1635-0.0944-0.1407-0.0693-0.3086 9e-3 -0.063 0.0447-0.1297 0.0331-0.072 0.0882-0.1344l0.85013-1.0198zm-2.7009 0.8948q-0.0484 0.4118 0.0889 0.6574 0.14035 0.2442 0.44796 0.3035 0.1413 0.026 0.26707 0 0.12583-0.023 0.22909-0.091 0.0254-0.021 0.0686-0.049 0.24192-0.1758 0.39756-0.1471 0.13829 0.025 0.2166 0.1318 0.0781 0.1168 0.0553 0.2665-0.0187 0.1098-0.0842 0.2081-0.063 0.096-0.18305 0.1895-0.2301 0.1746-0.52712 0.2345-0.29465 0.064-0.62278 0-0.66739-0.1234-0.98022-0.7026-0.31276-0.5807-0.18089-1.4471 0.13007-0.8541 0.58984-1.2753 0.45954-0.421 1.127-0.2978 0.67031 0.1238 0.99849 0.6614 0.33101 0.5379 0.2122 1.318-0.0361 0.2295-0.12205 0.303-0.0856 0.067-0.38022 0.015l-0.0882-0.015zm1.3034-0.3869q0.0396-0.3544-0.0884-0.5655-0.12405-0.2154-0.41102-0.2638-0.27142-0.05-0.45238 0.1069-0.18059 0.1541-0.25979 0.5011zm-4.7927 0.8071q-0.0397 0.2554-0.16236 0.3686-0.12125 0.1087-0.32762 0.071-0.20425-0.037-0.28952-0.1813-0.0812-0.1509-0.0427-0.4055l0.38986-2.5615q0.0409-0.2616 0.16199-0.3743 0.1216-0.1129 0.32831-0.075 0.18109 0.032 0.25555 0.1556 0.0781 0.1194 0.0581 0.3427l-7e-3 0.1167q0.19692-0.2627 0.46076-0.3717 0.26704-0.1117 0.56687-0.056 0.50053 0.093 0.71088 0.4496 0.21039 0.357 0.11714 0.9683l-0.29131 1.9122q-0.0396 0.2553-0.1623 0.3685-0.12138 0.1101-0.32788 0.072-0.20425-0.037-0.28949-0.1813-0.0816-0.1499-0.0427-0.4057l0.25033-1.6437q0.0566-0.3744-0.0318-0.555-0.086-0.181-0.33723-0.229-0.29116-0.055-0.49112 0.1127-0.19925 0.164-0.25099 0.5028zm-2.4872-0.4897q0.0343-0.2202 0.19839-0.3551 0.16632-0.137 0.3642-0.1005 0.20424 0.037 0.31863 0.2316 0.11747 0.1832 0.0831 0.4096-0.0355 0.2265-0.20347 0.364-0.16873 0.1331-0.36645 0.097-0.19508-0.037-0.31405-0.2286-0.11618-0.1912-0.0826-0.4135zm-2.5887-0.4152q-0.0985 0.2841-0.21227 0.3615-0.11019 0.074-0.37042 0.027-0.24388-0.043-0.32573-0.1523-0.0825-0.1071-0.10986-0.4248l-0.23327-2.5353q-8e-3 -0.078-8e-3 -0.1395 6e-4 -0.061 7e-3 -0.1111 0.0293-0.1953 0.15954-0.3025 0.13236-0.1069 0.29938-0.076 0.15574 0.029 0.2371 0.161 0.0856 0.1244 0.096 0.3431l0.11493 2.1288 0.6499-1.9183q0.0938-0.2757 0.211-0.3593 0.1208-0.087 0.3556-0.044 0.24057 0.045 0.32656 0.1655 0.0853 0.1231 0.099 0.4195l0.0686 2.0509 0.74178-1.9899q0.0734-0.1865 0.18764-0.2777 0.11856-0.09 0.25703-0.065 0.18109 0.032 0.26314 0.1621 0.0847 0.1303 0.0551 0.3256-8e-3 0.044-0.0235 0.1003-0.018 0.057-0.0541 0.1478l-0.981 2.3374q-0.1174 0.2848-0.22904 0.3588-0.10741 0.076-0.34797 0.032-0.2409-0.044-0.325-0.1568-0.0843-0.116-0.0994-0.4161l-0.10453-2.1397zm-4.4316-0.8194q-0.0986 0.2845-0.21251 0.3618-0.11019 0.074-0.37036 0.027-0.2437-0.044-0.32578-0.1523-0.0825-0.1071-0.10969-0.4247l-0.23331-2.5352q-8e-3 -0.079-8e-3 -0.1395 5.9e-4 -0.061 7e-3 -0.1111 0.0293-0.1954 0.15958-0.3028 0.13231-0.1066 0.29938-0.075 0.15559 0.029 0.23709 0.161 0.0855 0.1244 0.096 0.3431l0.11493 2.1288 0.65009-1.9182q0.0938-0.2758 0.211-0.3592 0.12074-0.087 0.35561-0.044 0.24088 0.044 0.32657 0.1656 0.0853 0.123 0.0989 0.4195l0.0687 2.0508 0.74184-1.99q0.0734-0.1864 0.18766-0.2779 0.11854-0.09 0.25701-0.065 0.18108 0.032 0.26314 0.1621 0.0848 0.1316 0.0552 0.3258-8e-3 0.044-0.0235 0.1002-0.0178 0.056-0.0542 0.1479l-0.98118 2.3372q-0.11758 0.2848-0.22905 0.3588-0.10755 0.076-0.348 0.032-0.24136-0.041-0.32503-0.1568-0.0835-0.118-0.0994-0.4162l-0.10454-2.1399zm-4.4318-0.8192q-0.0985 0.2843-0.21251 0.3618-0.11019 0.074-0.37044 0.027-0.24292-0.046-0.32575-0.1523-0.0826-0.1071-0.1097-0.4245l-0.2333-2.5353q-8e-3 -0.078-8e-3 -0.1394 6e-4 -0.061 7e-3 -0.1112 0.0293-0.1952 0.15952-0.3024 0.13231-0.1066 0.29941-0.076 0.15544 0.029 0.23708 0.161 0.0856 0.1245 0.0959 0.3433l0.1149 2.1288 0.64993-1.9184q0.0938-0.2755 0.21112-0.359 0.12078-0.087 0.35558-0.044 0.24134 0.041 0.32654 0.1656 0.0853 0.123 0.099 0.4193l0.0686 2.0511 0.74182-1.99q0.0734-0.1864 0.18765-0.2778 0.11861-0.09 0.2571-0.065 0.18108 0.032 0.26318 0.1621 0.0848 0.1316 0.0552 0.3259-8e-3 0.044-0.0235 0.1003-0.0178 0.055-0.0541 0.1478l-0.98102 2.3375q-0.1174 0.2848-0.22902 0.3587-0.10741 0.076-0.34793 0.032-0.24093-0.044-0.325-0.1568-0.0835-0.118-0.0994-0.4162l-0.1045-2.1397zm-9.9189 10.719 7.1863 0.01m158.15 16.806s0.7256 0.3524 0.93719 1.0255c0.2116 0.6731-0.30665 0.7351-0.30665 0.7351m-114.06-30.06s-1.0083 12.175-1.4786 13.243c-0.47037 1.0678-5.6696 2.3484-5.6696 2.3484m-29.371-22.623-0.52007-0.4808m1.3631 0.3746-0.2397-0.4094m-0.81685 0.9348-0.2319-0.3957m1.4067-0.2082-0.35793-0.3311m-1.2676 0.8377-0.0789-0.1353m1.7781-0.7381-0.12178-0.112m-0.5202 0.4612-0.38212-0.653m-0.0861 1.2208-0.37024-0.342m-25.324 31.59c2.2355-3.1301 4.4258-6.4811 6.5685-10.022 2.1724-3.5905 4.294-7.3731 6.363-11.316 1.2932-2.4644 2.565-4.9899 3.816-7.5704 0.78187-1.613 1.5553-3.2469 2.3198-4.8992m37.812 2.8577 4.88 6.067m-26.049-11.554 4.7493 5.9053m16.826-0.2404 4.8695 6.0693m-67.493 18.289c2.2319-3.125 4.4196-6.4698 6.5602-10.004 2.173-3.5874 4.2957-7.3665 6.3665-11.305 1.2942-2.4617 2.5675-4.9845 3.82-7.5621 0.78286-1.6111 1.5574-3.2431 2.3231-4.8934m-14.318 39.669c2.2319-3.125 4.4196-6.4698 6.5602-10.004 2.173-3.5874 4.2957-7.3665 6.3665-11.305 1.2942-2.4617 2.5675-4.9845 3.82-7.5621 0.78286-1.6111 1.5574-3.2431 2.3231-4.8934m16.946-2.23 4.7516 5.9052m0.22984 0.5758c0.0102 0.01 0.0227 0 0.0336 0.01 0.0188 0 0.0358 0.01 0.0537 0.012 0.0286 0.01 0.0573 0.013 0.0858 0.021 0.0295 0.01 0.0591 0.015 0.0885 0.023m-21.606-3.8489c0.0341-0.074 0.0768-0.1429 0.12677-0.2056 0.0484-0.06 0.10427-0.116 0.16595-0.164 0.0386-0.03 0.0795-0.057 0.12284-0.082 0.0269-0.015 0.0549-0.029 0.0837-0.043 0.0286-0.012 0.058-0.024 0.0879-0.035 0.0482-0.017 0.0978-0.031 0.14825-0.04 0.081-0.017 0.1654-0.024 0.25168-0.023 0.0889 0 0.17981 0.011 0.26909 0.031m20.088 4.3463-13.378-2.8947m-13.301-7.2611c0.0455-0.089 0.1018-0.1732 0.16725-0.2491 0.0633-0.073 0.1359-0.1402 0.21566-0.198 0.0499-0.036 0.10263-0.069 0.15825-0.098 0.0348-0.019 0.0705-0.035 0.10733-0.051 0.0368-0.016 0.0745-0.03 0.11271-0.042 0.0613-0.02 0.12465-0.035 0.18901-0.048 0.10314-0.019 0.21025-0.028 0.31956-0.025 0.11271 0 0.22725 0.016 0.33984 0.04m3.1419 6.5762c0.0455-0.089 0.1018-0.1732 0.16724-0.249 0.0633-0.073 0.1359-0.1403 0.21566-0.1981 0.0499-0.036 0.10264-0.069 0.15825-0.098 0.0348-0.019 0.0705-0.035 0.10733-0.051 0.0368-0.016 0.0745-0.03 0.11271-0.042 0.0613-0.02 0.12465-0.035 0.18901-0.048 0.10314-0.019 0.21026-0.028 0.31956-0.025 0.11272 0 0.22726 0.016 0.33985 0.04m20.088 4.3467c0.0102 0.01 0.0242 0 0.0358 0.01 0.0198 7e-4 0.0383 0.01 0.0572 0.013 0.0306 0.01 0.0609 0.014 0.0914 0.023 0.0315 0.01 0.0628 0.016 0.0942 0.024m-13.427-2.3865-6.7096-1.4516m-0.23001-0.576 6.7096 1.4515m-13.228-6.7985 4.9088 6.018m-3.1419-6.5761 4.7515 5.9051m6.7096 1.4515 13.378 2.8948m-45.589 25.133c-0.1265-0.1549-0.126-0.2988-0.12027-0.4739 5e-3 -0.1514 0.0859-0.3446 0.19012-0.4738m4.775 6.8397c-0.12649-0.1548-0.19602-0.3311-0.1903-0.5062 5e-3 -0.1513 0.0619-0.2997 0.16659-0.4286m2.3512 1.2313c-0.21423 0.1245-0.40046 0.2414-0.63321 0.303-0.24304 0.034-0.59752-0.027-0.81291-0.1193-0.29921-0.1279-0.4822-0.367-0.46366-0.5997 9e-3 -0.109 0.0582-0.2153 0.14466-0.3062m24.82-31.232c0.068 0.024 0.13466 0.046 0.19992 0.063 0.2206 0.059 0.42599 0.081 0.61762 0.075 0.20413-0.01 0.39248-0.045 0.56104-0.1111 0.16618-0.065 0.31294-0.1567 0.43429-0.2724 0.12201-0.1166 0.2187-0.2571 0.2814-0.4232 0.0629-0.1664 0.0928-0.3585 0.0693-0.5858-3e-3 -0.033-8e-3 -0.067-0.0139-0.1013m-0.85818 0.1477-0.13482-0.1043m0.79506 0.2952c6e-3 0 0.0117 0.01 0.0164 0.011 9e-3 0.01 0.013 0.022 0.0161 0.033 2e-3 0.014 3e-3 0.024 1e-3 0.035m-0.082-0.099 0.0483 0.02m-1.2155 1.0549c-0.0752-0.013-0.15045-0.028-0.22271-0.044-0.0723-0.016-0.14859-0.033-0.22784-0.054m1.2676-0.837-0.23979-0.2952m0.59781 0.6263c-3e-3 0.011-5e-3 0.015-9e-3 0.022-5e-3 0.01-9e-3 0.014-0.0159 0.021-8e-3 0.01-0.0181 0.016-0.0285 0.023-0.01 0.01-0.0204 0.01-0.0318 0.012-0.011 0.01-0.0226 0-0.0341 0m0.0725-0.5577 0.0387 0.01m-0.44934-0.097 0.41063 0.089m0.12086 0.1125c-0.01 0.066-0.0208 0.1283-0.0327 0.1873-0.0117 0.058-0.0249 0.1198-0.0411 0.1796m-1.0366 0.55c-3e-3 0.011-4e-3 0.011-8e-3 0.016-1e-3 -0-7e-3 0.01-0.0105 0.011-8e-3 0.01-0.0202 0.014-0.0328 0.018-0.0127 0.01-0.0283 0.01-0.0435 0.01-0.0154 0-0.0295 4e-4 -0.0434-0m-0.23181-0.3936-0.23974-0.2955m-0.0618 0.5351-3e-3 -0.043m0.0857 0.1015c-9e-3 -0.01-0.0204-0-0.0289-0.01-9e-3 -0.01-0.0171-0.012-0.0246-0.017-0.0101-0.01-0.0186-0.013-0.0231-0.028h-6e-3m1.5893-0.3722-0.0389-0.01m-1.2e-4 3e-4 -0.41057-0.089m-1.1363 0.3901 0.0671-0.3341m0.609 0.4804-8e-3 0.032m0.0752-0.3657-0.0671 0.3341m-0.6833-0.115 7e-3 -0.031m8.245 18.27c-0.44611 0.2255-0.9091 0.4298-1.3872 0.6121s-0.97099 0.3426-1.4746 0.4801c-0.50357 0.1373-1.0168 0.2518-1.5401 0.3438-0.52334 0.092-1.0566 0.1614-1.5959 0.2078-0.53923 0.046-1.0844 0.07-1.6313 0.07-0.54692 5e-4 -1.096-0.021-1.6467-0.066-0.5507-0.045-1.102-0.1119-1.6502-0.2012-0.54827-0.089-1.0954-0.201-1.6376-0.3345s-1.079-0.2885-1.61-0.4653c-0.51992-0.1732-1.0336-0.367-1.5378-0.5805m-18.126 13.515-4.8358-5.8865m38.674-7.6953 20.64 4.2065m1.2296-0.042c-0.0734 0.023-0.14956 0.043-0.22765 0.058-0.0782 0.016-0.15816 0.027-0.2395 0.034-0.0814 0.01-0.16378 0.01-0.2477 0.01-0.0839-9e-4 -0.16917-0.01-0.25512-0.017-0.086-0.01-0.1728-0.024-0.25968-0.043m-43.537-4.145c-0.60584 0.9646-1.2048 1.922-1.7967 2.8707-0.59191 0.9486-1.177 1.8887-1.7548 2.8186-0.57779 0.9298-1.1483 1.8496-1.7118 2.7584-0.56351 0.9089-1.1198 1.8066-1.6686 2.6915-0.54876 0.8851-1.1423 1.8179-1.6764 2.6772m60.524-25.304-4.8607-6.0626m-55.663 31.367c-0.0792 0.087-0.18172 0.1605-0.29811 0.2165-0.1106 0.053-0.23677 0.092-0.37013 0.1147-0.13155 0.022-0.2733 0.028-0.41721 0.017-0.14834-0.011-0.30173-0.042-0.45902-0.097-0.15568-0.055-0.31818-0.1344-0.48461-0.2589-0.10234-0.082-0.20843-0.1747-0.29903-0.2834m25.884-29.879c4e-3 0 7e-3 0 0.0117 0.01 0.17708 0.2185 0.40601 0.4233 0.66121 0.5819 0.25534 0.158 0.53697 0.2701 0.80439 0.3281m1.6899-3.1315c-0.17928-0.2175-0.40849-0.4236-0.66257-0.5826-0.25708-0.1605-0.53931-0.2743-0.80629-0.3316-0.26695-0.057-0.55353-0.068-0.81947-0.02-0.26597 0.048-0.5113 0.153-0.7078 0.2923-0.1987 0.141-0.37422 0.3355-0.49596 0.5631-0.12171 0.2276-0.18973 0.4883-0.2041 0.7427-0.0142 0.2544 0.0233 0.5367 0.11719 0.8089 0.0919 0.2668 0.23784 0.5239 0.41176 0.7409m1.4765 0.9236c0.26796 0.058 0.55709 0.07 0.82642 0.024 0.2693-0.045 0.51875-0.1478 0.71878-0.2848 0.2009-0.1377 0.37875-0.3286 0.50189-0.5536 0.12318-0.2249 0.19149-0.4838 0.20512-0.7378 0.0136-0.2547-0.0259-0.5385-0.12267-0.8134-0.0967-0.2748-0.25058-0.5407-0.43265-0.7639h-7e-3m24.735 21.501c3e-3 0 6e-3 0 0.17181 0.2124 0 0 0.21758 0.1912 0.71496 0.4855 0 0 0.27894 0.1077 0.54777 0.1654 0.26866 0.059 0.563 0.075 0.84195 0.04 0.12212-0.015 0.2415-0.04 0.35509-0.074m-1.5279-3.6538c-0.25865 0.041-0.50109 0.1285-0.7017 0.2444-0.21329 0.1235-0.4077 0.2957-0.55005 0.4989-0.14243 0.2033-0.23277 0.4378-0.26768 0.6678-0.0346 0.2302-0.0192 0.486 0.0545 0.734 0.0725 0.2437 0.2012 0.4795 0.36129 0.6792m2.6309 0.8326 0.0911-0.029m-33.892-30.043-6.71-1.4519m-15.932 40.336-4.9498-6.0593m40.969-29.931-13.378-2.8943m-7.4569 18.926c3e-3 0 6e-3 0 9e-3 0.01 0.1659 0.2046 0.38536 0.398 0.6349 0.5486 0.24961 0.1503 0.5292 0.2584 0.79787 0.3168m1.9399-2.8497c-0.16787-0.2047-0.38745-0.3977-0.63509-0.5487-0.25162-0.153-0.53208-0.263-0.80058-0.3207-0.26846-0.059-0.56063-0.073-0.83572-0.033-0.27511 0.039-0.53325 0.1325-0.74387 0.2584-0.21089 0.126-0.4023 0.3017-0.54144 0.5086-0.13919 0.2071-0.22614 0.4454-0.25798 0.6791-0.032 0.2335-0.0128 0.4937 0.064 0.7454 0.0755 0.2474 0.20695 0.4867 0.36921 0.6893m1.4409 0.8757c0.26857 0.059 0.56216 0.074 0.83971 0.037 0.27754-0.037 0.53911-0.1258 0.75289-0.2481 0.21402-0.1224 0.40872-0.2943 0.55006-0.4988 0.14133-0.2044 0.22937-0.4415 0.26089-0.6753 0.032-0.2335 0.011-0.4955-0.0685-0.7499-0.0794-0.2544-0.21739-0.5014-0.38668-0.7097-3e-3 -0-6e-3 -0-9e-3 -0.01m-18.535 22.878h-4e-3m-0.0227-0.9359h4e-3c0.0354 0.05 0.0783 0.1017 0.12605 0.1546 0.0481 0.052 0.10025 0.1025 0.15382 0.1491 0.0532 0.049 0.10744 0.088 0.15858 0.1217 0.0532 0.035 0.10319 0.057 0.14411 0.079m56.64-12.092c-0.16579-0.202-0.38354-0.3928-0.62992-0.5426-0.25037-0.1522-0.53052-0.2607-0.79914-0.3186-0.26849-0.059-0.56136-0.073-0.83783-0.036-0.0154 0-0.0321 0.01-0.048 0.01m1.6182 3.6285c0.11175-0.039 0.2167-0.086 0.31257-0.1386 0.21627-0.1198 0.41385-0.2882 0.55836-0.4888 0.14455-0.2006 0.23592-0.4336 0.27081-0.6635 0.0346-0.2301 0.0175-0.4876-0.0587-0.7383-0.0763-0.2507-0.21144-0.4942-0.37844-0.6997-3e-3 -0-6e-3 -0-9e-3 -0.01m5.6194-12.218-21.848-5.7144m21.744 5.3198-21.974-5.8959m16.698-0.3513-21.169-5.487m-41.118 30.971h6e-3m41.112-30.975 21.169 5.487m0.54664 0.3027h3e-3m-42.087-10.206 20.088 4.3462m139.86 42.331s0.7187 0.2569 0.97709 1.031-0.34642 0.7294-0.34642 0.7294m-6.0903-5.7264s1.0137 0.4381 1.2923 1.5355c0.27863 1.0975-0.24125 1.3991-0.24125 1.3991m-7.2519 0.8461s-0.23391 0.3516-0.39125 0.4277c-0.1574 0.076-0.55286 0.028-0.55286 0.028m-1.3922-7.1887s1.2718 0.1507 2.1772 1.5767c0.90533 1.4263 0.56422 3.1393 0.56422 3.1393m-102.07-22.886 102.07 22.886m-102.25-20.82 101.85 22.837m-178.48-125.3 72.141 88.89m-79.314-53.401 35.603 43.882m1.7669-0.5581-36.931-45.507m57.299 49.92-53.969-66.492m-0.0461 0.2295 53.735 66.196m135.88 40.854 5.0399 1.1276m-5.5331-2.8581 4.9025 1.0973m-4.8326 1.0786 4.4086 1.0311m-3.7614 0.7742 4.3921 0.9864m-11.853-4.3165 6.8141 1.5247s0.64854 0.4761 0.71571 1.4408c0.0673 0.9644-1.1396 0.669-1.1396 0.669m-7.0124-6.4661 6.3853 1.4217m-6.15 3.528 6.7771 1.5164m-108.74-23.397 100.97 22.589m-1.3922-7.1888-99.057-22.162m-0.0298 0.5337 100.66 22.529m0.76096 5.8314 0.40507-2.0159m-169.44-9.092-26.005-32.042m25.873 30.936-25.704-31.672" fill="none" stroke="#000" stroke-width=".42722"/></svg>
