<svg width="500" height="345" version="1.1" viewBox="0 0 132.29 91.281" xmlns="http://www.w3.org/2000/svg"><path transform="matrix(.84637 0 0 .84637 279.36 2415.3)" d="m-204.72-2835.5c0.0586 0.026 0.7808-0.064 0.93831 0.7003 0.1575 0.7647-0.37048 1.2858-0.37048 1.2858m-3.3724 4.0513s-0.0982 0.3998-0.18364 0.5431c-0.0855 0.1432-0.32912 0.3163-0.32912 0.3163m-1.7063-4.8903s0.78325-0.5584 1.5002 0.077c0.71697 0.6357 0.71884 2.1589 0.71884 2.1589m-64.162 36.359 64.162-36.359m-64.022 38.074 64.022-36.279m-0.0233-2.0897 3.3956-1.9615s0.65719-0.1192 0.74024 0.7233c0.083 0.8424-0.37663 0.9636-0.37663 0.9636m-4.5127-1.6247 3.5813-2.0483m-2.8045 5.8124 3.736-2.1394m-67.714 39.232 63.466-36.008m-1.7063-4.8903-62.263 35.325m0.0466 0.4339 63.273-35.891m1.1626 4.1628v-1.7944m11.685-12.55 0.78449-0.4453m-1.4748 10.446 11.025-4.2312m-15.8 3.1028-0.9271 0.5262m11.903-6.9215 4.8239-1.8515m-17.083 7.0974v5.7155m8.3894-13.39-0.85592-0.4942m7.4115 2.4868 1.7476 1.0266m-10.559 2.3992v0.6533m11.673-3.2798-5.547 3.147m-11.541 5.1652 0.56567 0.3323m9.7716-5.2189v-2.2659m-9.7716 6.8315v0.6533m-0.56567-2.9454 0.56567 0.3324m4.8501-0.7922v0.6533m8.8112-6.7186v0.027m-14.588 7.3567v-0.6532m17.034-8.2939v0.1762m-9.0009-0.5787 6.2053-3.5205m-9.388 10.118v-0.653m7.0527-2.4553-2.2048 0.8464m-4.848 4.2217 0.9271-0.5263m11.256-7.4525-5.1308 2.9107m-12.259 4.1846 6.0587-3.4377m3.2271-3.701-0.78475 0.4453m-7.2173 10.456-0.9271 0.526m-0.35665 1.4271 6.0587-3.4377m-0.62442-6.2516-1.7523-1.0295m13.708 1.4187 0.41618 0.2445m-11.748 5.6179v-0.5715m-5.702 2.5821v-0.6533m16.727-6.16 1.0737-0.6091m-20.68 1.6516 6.2053-3.5209m4.8191-0.7104-1.7521-1.0295m-0.45879 1.3042-1.7523-1.0295m5.5168 3.1303v-1.0615m-10.055 10.115-1.8352-1.0781m11.89-4.4646v-1.0615m-3.8838-5.5266 0.57812-0.3279m11.408-0.9633-1.0737 0.6091m-11.025 8.8037 3.996-2.2672m7.3356-6.5344 0.41618 0.2445m-2.8615 1.1694-3.8896 2.2069m-3.9807-1.4298-1.6404 0.9305m12.372-2.877v3.5107m-10.273-4.8281 1.7523 1.0295m0.85593 0.4942-1.6407 0.9308m8.5823 3.1888-4.8239 1.8513m-6.6913 1.3517 0.56568 0.3324m-8.6572-2.4929 2.5233 1.4824m18.87-8.6826v5.7153m-13.663 1.238 0.9271-0.5263m0.94086-2.6487v-0.98m-0.94086 4.282-0.9271 0.526m1.5423-5.6669v-0.9797m3.3057 6.8342 2.2048-0.8464m4.8239-0.2183v-0.5715m-16.727 6.16 0.9271-0.526m8.0021-10.248 0.85593 0.4942m8.0153 3.5105v-4.5725m-0.40402 2.45-7.6983 4.3678m-3.996-1.9775v-0.5715m11.025-4.2312 1.7867-1.0137m-11.795 2.7983-0.78449 0.4453m-5.9336 6.4614 0.9271-0.526m3.2541-6.9649-0.85593 1.4652m14.071-0.2532 0.0534 0.031m-3.2117-5.969 4.2754 2.5119m-1.4798 5.098-5.1308 2.911m-14.783 1.4374v-2.2462m11.024-5.211-1.7521-1.0295m11.057 4.0656-0.2749 0.1558m-7.4769 3.6743-3.996 1.5335m11.025-8.8037v-0.5715m-8.694-0.01 1.7523 1.0295m7.6647 3.3044 0.35058 0.2061m-9.656-2.5797v-0.9797m3.7584 1.4475v1.0613m-6.2008 1.3184 3.996-1.5335m-5.5168-2.0688 0.78448-0.4453m0.81148 7.9243-0.9271 0.5259m7.0527-3.2715v1.0615m-6.8252-3.3002 0.85593-1.4652m12.58 2.4717-1.7867 1.0139m-11.515 0.019 0.56568 0.3323m-0.81148-5.3115 1.7523 1.0295m10.009-1.7846-11.025 4.2312m-4.7749 3.9341v0.653m3.923 0.387v-0.6529m-92.143 58.077q-0.17283 0.1528-0.24532 0.4187-0.0728 0.2638-0.025 0.5735 0.0522 0.3386 0.17511 0.4341 0.12443 0.094 0.30519-0.066 0.19026-0.1682 0.26148-0.4307 0.0709-0.2645 0.0177-0.6093-0.0491-0.3179-0.17698-0.3995-0.12824-0.084-0.31216 0.079zm0.24063-1.2898q-0.0258-0.1672 0.017-0.2989 0.0425-0.1337 0.15501-0.2332 0.11258-0.099 0.18113-0.064 0.0683 0.034 0.0941 0.2007l0.3785 2.4528q0.0258 0.1673-0.0185 0.3004-0.0443 0.133-0.16008 0.2353-0.10307 0.091-0.1659 0.069-0.0632-0.024-0.0842-0.1602l-0.0102-0.066q-0.0725 0.2893-0.18213 0.4895-0.10966 0.2002-0.27614 0.3474-0.3187 0.2818-0.56756 0.1288-0.24728-0.1545-0.32947-0.6871-0.0828-0.5369 0.0622-1.0452 0.14626-0.5118 0.45862-0.788 0.16489-0.1458 0.30893-0.1699 0.14373-0.026 0.25959 0.071zm-2.3219 4.0803q0.0487 0.2572 0.16519 0.3115 0.11806 0.053 0.29089-0.1 0.0793-0.07 0.1414-0.158t0.10426-0.1884q0.0104-0.026 0.0272-0.069 0.096-0.2421 0.1832-0.3192 0.0777-0.069 0.13858-0.048 0.0623 0.018 0.0772 0.1147 0.0109 0.071-7e-3 0.1656-0.0164 0.092-0.0624 0.2148-0.09 0.2343-0.23579 0.4454-0.1439 0.2118-0.32782 0.3744-0.3742 0.3309-0.64335 0.1981-0.26947-0.1348-0.35582-0.6944-0.0851-0.5512 0.0815-1.0598 0.16658-0.5086 0.54077-0.8395 0.37578-0.3322 0.64555-0.2305 0.27134 0.1003 0.34908 0.6041 0.0229 0.1485-0.01 0.2408-0.0329 0.09-0.19779 0.2362l-0.0491 0.044zm0.61776-0.9944q-0.043-0.2201-0.14834-0.2607-0.1041-0.044-0.26424 0.098-0.15222 0.1345-0.21936 0.33-0.0675 0.1934-0.0467 0.4331zm-2.4113 3.6759q-0.1649 0.1458-0.24361 0.1028-0.079-0.045-0.12173-0.3218l-0.35046-2.2711q-0.0245-0.159 0.0239-0.3003 0.0497-0.1449 0.16389-0.2458 0.1205-0.1066 0.19381-0.075 0.073 0.029 0.0988 0.1966l0.33804 2.1905 0.88317-0.7809q0.13794-0.1219 0.22333-0.1173 0.087 0 0.10701 0.1329 0.0233 0.1508-0.0344 0.2792t-0.20987 0.263zm-2.1802-0.1629q-0.0247-0.02-0.0426-0.054-0.0165-0.037-0.0238-0.084-0.0172-0.1116 0.0341-0.246 0.0526-0.138 0.14297-0.218 0.0618-0.055 0.12688-0.042 0.0651 0.013 0.15426 0.1005l0.27304 0.2631 0.13095-0.6343q0.0411-0.2006 0.088-0.3055 0.0481-0.1084 0.11948-0.1715 0.0888-0.078 0.15834-0.06 0.0708 0.015 0.0861 0.114 9e-3 0.06 7e-3 0.1158-2e-3 0.054-0.0174 0.1092l-0.24209 1.0118 0.48637 0.4194q0.0292 0.026 0.048 0.065 0.0187 0.04 0.026 0.087 0.0172 0.1115-0.037 0.2392-0.0525 0.1266-0.15402 0.2163-0.0698 0.062-0.13226 0.054-0.0625-0.01-0.15998-0.1025l-0.29081-0.2849-0.13412 0.6606q-0.0446 0.213-0.094 0.3248-0.0481 0.1085-0.12424 0.1758-0.0935 0.083-0.1687 0.063-0.0753-0.021-0.0921-0.1298-6e-3 -0.041-6.9e-4 -0.098 5e-3 -0.059 0.0218-0.1272l0.26489-1.0742zm-1.2634 2.112q0.0487 0.2572 0.16519 0.3115 0.11807 0.053 0.29089-0.1 0.0793-0.07 0.14141-0.158 0.0621-0.088 0.10426-0.1884 0.0104-0.026 0.0272-0.069 0.096-0.2421 0.18319-0.3192 0.0777-0.069 0.13859-0.048 0.0622 0.018 0.0772 0.1147 0.0109 0.07-7e-3 0.1656-0.0164 0.092-0.0624 0.2148-0.09 0.2343-0.23579 0.4454-0.1439 0.2118-0.32783 0.3744-0.37419 0.3309-0.64335 0.1981-0.26946-0.1348-0.35581-0.6944-0.0851-0.5512 0.0815-1.0598 0.16658-0.5086 0.54077-0.8395 0.37578-0.3322 0.64554-0.2305 0.27135 0.1003 0.34909 0.6041 0.0229 0.1485-0.01 0.2407-0.0329 0.091-0.19778 0.2363l-0.0491 0.044zm0.61777-0.9944q-0.043-0.2201-0.14834-0.2607-0.1041-0.044-0.26424 0.098-0.15222 0.1345-0.21936 0.33-0.0675 0.1934-0.0467 0.4331zm-2.8038 3.6429q0.0293 0.1899-0.0153 0.3326t-0.16514 0.2493q-0.12368 0.1093-0.19446 0.071-0.0692-0.04-0.0992-0.2338l-0.35046-2.271q-0.0427-0.2768 5e-3 -0.4319 0.0478-0.1572 0.21272-0.303 0.18868-0.1669 0.4414 0.081 0.0231 0.021 0.034 0.033l1.0125 0.9912-0.27146-1.7591q-0.0293-0.19 0.0138-0.3313 0.0446-0.1426 0.16674-0.2506 0.12209-0.108 0.19318-0.068 0.0708 0.038 0.10041 0.2303l0.35174 2.2794q0.0408 0.2642-2e-3 0.4193-0.0415 0.1517-0.18575 0.2793-0.12685 0.1121-0.20873 0.1187-0.0819 0.01-0.21964-0.1273l-1.0906-1.0653zm24.323-25.388-0.0828 0.051q-0.10227 0.062-0.15772 0.028-0.0537-0.039-0.0582-0.1812-5e-3 -0.1409 0.0447-0.2415 0.0507-0.1038 0.15286-0.1678l0.0829-0.051-0.0138-0.4089q-7e-3 -0.2239 0.0503-0.3728 0.0595-0.1531 0.18669-0.2319 0.12884-0.08 0.19608 0 0.0688 0.07 0.0802 0.2945l0.0138 0.406 0.13057-0.081q0.10413-0.065 0.15572-0.026 0.0536 0.037 0.0583 0.181 5e-3 0.141-0.0444 0.2445-0.0491 0.1014-0.15116 0.1642l-0.13056 0.081 0.0564 1.6637q5e-3 0.1097 0.028 0.1345 0.0258 0.025 0.0897-0.018 0.0124-0.013 0.0386-0.025 0.0283-0.017 0.0493-0.031 0.0845-0.052 0.13487-0.012 0.0502 0.041 0.0544 0.1719 6e-3 0.1936-0.0754 0.3345-0.0818 0.1385-0.26704 0.2534-0.30523 0.1896-0.42767 0.085-0.12253-0.1085-0.13976-0.6158zm-1.3718 0.8771q-0.20114 0.1248-0.30268 0.4247-0.0998 0.2989-0.0842 0.7331 0.0153 0.4477 0.13437 0.6166 0.11917 0.1685 0.32572 0.04 0.19408-0.121 0.29716-0.4269 0.10314-0.3067 0.0891-0.7214-0.0154-0.453-0.13279-0.623-0.11756-0.1726-0.32616-0.039zm-0.349 2.3016 0.0388 1.1442q7e-3 0.224-0.0528 0.3738-0.058 0.1487-0.18329 0.2263-0.12548 0.079-0.19275 0-0.0672-0.071-0.0747-0.2923l-0.11444-3.38q-7e-3 -0.2266 0.0522-0.3791 0.0596-0.1533 0.18847-0.2331 0.11283-0.071 0.17254-0.014 0.0614 0.052 0.0764 0.2376l0.01 0.094q0.0746-0.2975 0.21654-0.5209 0.14359-0.2274 0.32888-0.3425 0.35464-0.22 0.58979 0.085 0.23534 0.3 0.25952 1.0128 0.0245 0.7215-0.18099 1.3087-0.20537 0.5844-0.55296 0.8001-0.18347 0.1132-0.33228 0.081-0.14644-0.035-0.25018-0.2059zm-1.5525 0.915q-6e-3 -0.1904 0.0764-0.3835 0.0835-0.1958 0.20694-0.2723 0.12727-0.08 0.21969 0.012 0.0927 0.083 0.0995 0.2769 6e-3 0.196-0.0784 0.393-0.0852 0.194-0.2088 0.2705-0.12153 0.075-0.21652-0.012-0.0928-0.088-0.0997-0.2799zm-1.4418-1.1368q-0.19232 0.1198-0.29543 0.426-0.10326 0.3038-0.0887 0.7181 0.0153 0.4535 0.12935 0.6283 0.11581 0.1738 0.31663 0.052 0.21169-0.1313 0.31312-0.434 0.10152-0.3056 0.0859-0.7672-0.0143-0.4256-0.1351-0.585-0.12066-0.1625-0.32496-0.039zm0.38757-1.5357q-7e-3 -0.2238 0.0503-0.3728 0.0579-0.1519 0.18314-0.2296 0.12559-0.079 0.19106 0 0.0656 0.073 0.0732 0.2964l0.11122 3.2831q7e-3 0.2239-0.0528 0.3736t-0.18859 0.2295q-0.11482 0.072-0.17604 0.015-0.0618-0.057-0.0675-0.2404l-2e-3 -0.09q-0.10575 0.3366-0.23918 0.5436-0.13354 0.2069-0.31876 0.3217-0.35462 0.22-0.58977-0.085-0.23367-0.3037-0.25779-1.017-0.0242-0.7185 0.17928-1.3018 0.20532-0.5873 0.55288-0.8031 0.18348-0.1132 0.33231-0.082 0.15029 0.02 0.25545 0.2025zm-2.8092 4.1809q0.0208 0.3483 0.13296 0.4678 0.11396 0.1184 0.30616-5e-4 0.088-0.055 0.16101-0.1395 0.0729-0.085 0.12677-0.1936 0.0126-0.028 0.0353-0.075 0.12428-0.2663 0.22136-0.3264 0.0862-0.054 0.14621-0.012 0.0611 0.05 0.0655 0.1792 2e-3 0.095-0.0255 0.2077-0.0265 0.1085-0.0872 0.2461-0.11731 0.2589-0.28875 0.4641-0.16953 0.2065-0.37417 0.3335-0.41641 0.2583-0.67451-0.031-0.2584-0.2882-0.28375-1.0372-0.0251-0.738 0.20053-1.3125 0.22553-0.5744 0.64191-0.8326 0.41814-0.2596 0.68039-0.012 0.26414 0.2451 0.28698 0.9194 6e-3 0.1989-0.0368 0.3023-0.0434 0.098-0.22696 0.2137l-0.0549 0.035zm0.73732-0.9964q-0.019-0.2984-0.12154-0.3959-0.10053-0.1027-0.27885 0.012-0.16938 0.1062-0.25921 0.3246-0.09 0.2166-0.0957 0.5305zm-2.2278-0.5169q-7e-3 -0.224 0.0528-0.3737 0.0614-0.1543 0.19021-0.2344 0.12727-0.08 0.19436 0 0.069 0.071 0.0765 0.2939l0.11122 3.2833q7e-3 0.2209-0.0531 0.3749-0.0598 0.1495-0.18685 0.2285-0.12884 0.08-0.19769 0.012-0.0672-0.075-0.0747-0.2949zm-1.7179 2.3073q-0.0227-0.038-0.037-0.088-0.0127-0.053-0.0148-0.118-5e-3 -0.1491 0.0611-0.2983 0.0686-0.1527 0.16923-0.2151 0.069-0.042 0.13325 0.012 0.0648 0.044 0.14527 0.195l0.24776 0.4527 0.20328-0.7497q0.0641-0.2374 0.12303-0.35 0.0609-0.1168 0.14028-0.1664 0.0985-0.06 0.16718-0.012 0.0701 0.051 0.0746 0.1822 4e-3 0.08-5e-3 0.1502-0.01 0.067-0.0294 0.1311l-0.3581 1.1816 0.4467 0.7445q0.0266 0.045 0.0413 0.1038 0.0143 0.059 0.0168 0.1226 5e-3 0.1493-0.0642 0.2883-0.0674 0.138-0.1803 0.2082-0.0775 0.048-0.1402 0.012-0.0625-0.038-0.15089-0.1996l-0.26335-0.4885-0.20954 0.7818q-0.0688 0.2514-0.13163 0.372-0.061 0.1167-0.14559 0.1696-0.10426 0.065-0.1782 0.012-0.0738-0.06-0.079-0.2049-2e-3 -0.054 0.0112-0.1253 0.0112-0.074 0.0368-0.1522l0.38811-1.2509zm-1.5165 2.1373q0.0207 0.3483 0.13294 0.4676 0.11395 0.1167 0.30614-5e-4 0.0881-0.055 0.16102-0.1396 0.0729-0.085 0.12676-0.1934 0.0127-0.03 0.0353-0.075 0.12428-0.2663 0.22137-0.3266 0.0862-0.054 0.14621-0.012 0.0611 0.05 0.0655 0.1793 2e-3 0.096-0.0255 0.2078-0.0263 0.1085-0.0872 0.2458-0.11731 0.2591-0.28873 0.464-0.16952 0.2067-0.37421 0.3338-0.41636 0.2583-0.67454-0.029-0.25832-0.2885-0.28371-1.0372-0.025-0.7382 0.20065-1.3126 0.22553-0.5742 0.64193-0.8327 0.41817-0.2595 0.68055-0.013 0.26413 0.2453 0.28695 0.9195 6e-3 0.199-0.0368 0.3022-0.0434 0.098-0.22692 0.2138l-0.0549 0.035zm0.73726-0.9963q-0.019-0.2986-0.12153-0.3959-0.10065-0.1027-0.27912 0.012-0.16933 0.105-0.25919 0.3243-0.09 0.2168-0.0957 0.5307zm-2.7853 3.1812q7e-3 0.2212-0.0531 0.3751-0.0598 0.1496-0.18854 0.2295-0.12728 0.08-0.19606 0.012-0.0671-0.075-0.0747-0.2949l-0.0751-2.2137q-7e-3 -0.2267 0.0522-0.3793 0.0595-0.1531 0.18846-0.2331 0.11283-0.071 0.17253-0.014 0.0614 0.052 0.0764 0.2375l0.01 0.095q0.0867-0.3105 0.23223-0.5362 0.14713-0.2295 0.33417-0.3456 0.31228-0.1936 0.48194-0.026 0.16971 0.1678 0.18751 0.6962l0.0559 1.6527q7e-3 0.221-0.0531 0.3749-0.0597 0.1508-0.18853 0.2307-0.12728 0.08-0.19604 0.012-0.0672-0.074-0.0747-0.2951l-0.0481-1.4206q-0.0112-0.3234-0.0862-0.4178-0.0736-0.096-0.23053 0-0.18173 0.1121-0.28179 0.3495-0.10003 0.2344-0.0902 0.5273zm-1.5553 0.9393q-6e-3 -0.1907 0.0764-0.3837 0.0835-0.1957 0.20693-0.2724 0.12727-0.08 0.21966 0.012 0.0928 0.081 0.0995 0.2766 6e-3 0.1963-0.0784 0.3933-0.0854 0.194-0.20876 0.2705-0.12178 0.075-0.21653-0.012-0.093-0.088-0.0997-0.28zm-1.6073 1.0516q-0.0249 0.2749-0.084 0.396-0.0573 0.1168-0.21959 0.2179-0.1519 0.096-0.21433 0.054-0.0626-0.04-0.11743-0.2743l-0.44676-1.8618q-0.0144-0.057-0.0216-0.105-7e-3 -0.048-9e-3 -0.091-6e-3 -0.1685 0.0594-0.3218 0.0667-0.1541 0.17092-0.2186 0.0972-0.06 0.16208 0 0.0665 0.052 0.0992 0.2177l0.32644 1.6063 0.15906-1.8482q0.0231-0.2658 0.0835-0.3936 0.0621-0.1327 0.20861-0.2234 0.1501-0.093 0.21644-0.044 0.0662 0.051 0.11023 0.2759l0.28919 1.5699 0.20568-1.9531q0.0216-0.1851 0.0793-0.3173 0.0604-0.1338 0.14677-0.1875 0.11283-0.071 0.17787-0.013 0.0667 0.057 0.0725 0.2258 5.6e-4 0.039-2e-3 0.091-4e-3 0.054-0.0147 0.1446l-0.30757 2.3525q-0.0362 0.2855-0.0944 0.4029-0.0554 0.1168-0.20543 0.2102-0.15017 0.094-0.21445 0.05-0.0647-0.046-0.1101-0.273l-0.32151-1.6204zm-2.7647 1.7151q-0.0249 0.2753-0.0841 0.3964-0.0573 0.1168-0.21956 0.2178-0.15193 0.095-0.21437 0.054-0.0626-0.04-0.11731-0.2743l-0.44677-1.8617q-0.0145-0.057-0.0216-0.105-7e-3 -0.048-9e-3 -0.091-6e-3 -0.1686 0.0594-0.322 0.0667-0.1539 0.17095-0.2184 0.0971-0.06 0.16207 0 0.0665 0.052 0.0992 0.2177l0.32644 1.6063 0.15919-1.8482q0.0231-0.2659 0.0835-0.3936 0.0621-0.1324 0.20861-0.2234 0.15016-0.094 0.21645-0.044 0.0662 0.051 0.11023 0.276l0.28917 1.5698 0.20569-1.9533q0.0216-0.185 0.0793-0.3174 0.0604-0.1337 0.14677-0.1874 0.11283-0.071 0.17787-0.013 0.0669 0.058 0.0726 0.2258 5.6e-4 0.039-2e-3 0.091-4e-3 0.053-0.0147 0.1446l-0.3077 2.3525q-0.0363 0.2856-0.0944 0.4029-0.0555 0.1168-0.20544 0.2103-0.15017 0.096-0.21447 0.05-0.0645-0.048-0.1101-0.2731l-0.32153-1.6205zm-2.7648 1.7154q-0.0249 0.2751-0.0841 0.3964-0.0573 0.1168-0.2196 0.2179-0.15171 0.093-0.21435 0.054-0.0626-0.04-0.1173-0.2742l-0.44677-1.8617q-0.0144-0.057-0.0216-0.105-7e-3 -0.048-9e-3 -0.091-6e-3 -0.1685 0.0594-0.3217 0.0667-0.1539 0.17094-0.2186 0.097-0.06 0.16207 0 0.0665 0.052 0.0992 0.2179l0.32642 1.6063 0.15906-1.8483q0.0231-0.2657 0.0836-0.3935 0.0621-0.1326 0.20861-0.2233 0.15016-0.096 0.21643-0.044 0.0662 0.051 0.11022 0.2758l0.2892 1.57 0.20569-1.9532q0.0216-0.185 0.0793-0.3174 0.0604-0.134 0.14678-0.1877 0.11283-0.071 0.1779-0.013 0.0669 0.058 0.0726 0.2259 5.6e-4 0.039-2e-3 0.091-4e-3 0.053-0.0147 0.1446l-0.30757 2.3526q-0.0362 0.2855-0.0944 0.4028-0.0554 0.1168-0.20542 0.2101-0.15019 0.094-0.21445 0.05-0.0645-0.048-0.1101-0.2731l-0.32149-1.6204zm-4.6707 13.672 4.3233-3.818m25.516-32.791s0.86512 10.073 0.71124 11.159-3.1265 4.8548-3.1265 4.8548m-20.401-2.0986-0.37094-0.1m0.86518-0.4315-0.19367-0.1932m-0.37836 1.1666-0.18732-0.1866m0.821-0.9112-0.25532-0.069m-0.6612 1.3303-0.0638-0.064m0.98032-1.5238-0.0868-0.023m-0.25716 0.6379-0.30877-0.3082m0.0958 1.002-0.26405-0.071m-11.415 38.212c0.96637-3.6407 1.8788-7.4303 2.7397-11.344 0.87277-3.9677 1.6917-8.0589 2.4597-12.248 0.47998-2.618 0.93978-5.2726 1.3803-7.9592 0.27535-1.6792 0.54309-3.3703 0.80325-5.0711m23.09-17.872 3.6687 2.1566m-17.065 4.8043 3.5706 2.0995m10.092-9.1374 3.6626 2.164m-38.387 50.221c0.96483-3.6347 1.8764-7.4181 2.7369-11.325 0.87346-3.9656 1.6935-8.0546 2.4631-12.241 0.48096-2.6165 0.94191-5.2697 1.3838-7.9548 0.27617-1.6783 0.5448-3.3685 0.80591-5.0684m-3.8179 38.687c0.96483-3.6347 1.8764-7.4181 2.7369-11.325 0.87346-3.9656 1.6935-8.0546 2.4631-12.241 0.48096-2.6165 0.94191-5.2697 1.3838-7.9548 0.27617-1.6783 0.5448-3.3685 0.80591-5.0684m9.9237-10.759 3.5719 2.0982m0.20785 0.3288c7e-3 0 0.014-0.01 0.0211-0.012 0.0113-0.01 0.0225-0.013 0.0338-0.019 0.018-0.01 0.0361-0.02 0.0542-0.029 0.0186-0.01 0.0373-0.02 0.056-0.029m-13.461 8.4763c0.0116-0.076 0.0289-0.1528 0.0514-0.2285 0.0218-0.073 0.0487-0.1463 0.08-0.2167 0.0196-0.044 0.0409-0.087 0.064-0.1294 0.0144-0.026 0.0295-0.052 0.0452-0.078 0.0157-0.025 0.0319-0.05 0.0487-0.074 0.0269-0.039 0.0551-0.076 0.0843-0.1104 0.0467-0.056 0.0966-0.1067 0.14862-0.1518 0.0537-0.046 0.10949-0.087 0.1656-0.1189m12.609-7.2795-8.3971 4.8479m-8.8782 1.3866c0.0166-0.094 0.0403-0.1898 0.0705-0.284 0.0292-0.091 0.0648-0.1821 0.10579-0.2698 0.0256-0.055 0.0534-0.1086 0.0833-0.1612 0.0187-0.033 0.0382-0.065 0.0584-0.097s0.0412-0.063 0.0627-0.093c0.0345-0.048 0.0707-0.094 0.10794-0.1378 0.0597-0.07 0.12314-0.1334 0.18914-0.1899 0.0681-0.058 0.13859-0.1086 0.20926-0.1494m2.6847 3.4799c0.0166-0.094 0.0403-0.1898 0.0705-0.284 0.0292-0.091 0.0648-0.1821 0.10579-0.2698 0.0256-0.055 0.0534-0.1086 0.0833-0.1612 0.0187-0.033 0.0382-0.065 0.0584-0.097s0.0412-0.063 0.0627-0.093c0.0345-0.048 0.0707-0.094 0.10794-0.1378 0.0597-0.07 0.12314-0.1334 0.18914-0.1899 0.0681-0.058 0.13859-0.1086 0.20926-0.1494m12.608-7.2791c7e-3 0 0.015-0.01 0.0225-0.013 0.012-0.01 0.024-0.014 0.036-0.02 0.0192-0.011 0.0384-0.021 0.0577-0.031 0.0198-0.011 0.0397-0.021 0.0596-0.031m-8.3648 5.2718-4.2114 2.4315m-0.20797-0.3288 4.2114-2.4316m-8.7786 1.7103 3.6801 2.1029m-2.6847-3.4798 3.5719 2.0982m4.2114-2.4316 8.3971-4.8479m-24.385 43.932c-0.0948-0.054-0.1119-0.167-0.12962-0.3072-0.0153-0.1212 0.01-0.3156 0.0571-0.4722m3.699 2.8177c-0.0948-0.054-0.15793-0.1551-0.17565-0.2953-0.0153-0.1212 1e-3 -0.2677 0.0484-0.4243m1.5631-0.2861c-0.11381 0.2115-0.2117 0.4021-0.34426 0.5741-0.1421 0.1558-0.36269 0.2966-0.5034 0.3389-0.19543 0.059-0.33441-0.031-0.35138-0.2231-8e-3 -0.09 9e-3 -0.1996 0.05-0.3168m11.154-37.663c0.0439-0.017 0.0865-0.036 0.12787-0.057 0.13984-0.071 0.26606-0.1629 0.38059-0.2696 0.122-0.1137 0.23063-0.2441 0.32405-0.3854 0.0921-0.1393 0.16929-0.2892 0.2283-0.4444 0.0593-0.1562 0.10047-0.3177 0.11812-0.4811 0.0177-0.1638 0.0125-0.3302-0.0291-0.4957-6e-3 -0.024-0.0129-0.048-0.0206-0.072m-0.49836 0.5721-0.0937-0.01m0.51392-0.1916c4e-3 3e-4 8e-3 0 0.0112 0 6e-3 0 0.0104 0.01 0.0136 0.017 3e-3 0.01 5e-3 0.017 5e-3 0.027m-0.0614-0.034 0.0315-0.01m-0.60363 1.4727c-0.0468 0.03-0.0939 0.058-0.13928 0.084-0.0454 0.026-0.0934 0.053-0.14356 0.079m0.6613-1.3297-0.17992-0.1037m0.43529 0.1726c-2.7e-4 0.01-1e-3 0.014-3e-3 0.022-2e-3 0.01-4e-3 0.016-7e-3 0.025-4e-3 0.011-9e-3 0.022-0.0144 0.033-5e-3 0.01-0.0112 0.018-0.0177 0.026-6e-3 0.01-0.0133 0.014-0.0204 0.019m-0.0238-0.4754 0.0243-0.014m-0.28201 0.163 0.25771-0.149m0.0863 0.024c2e-3 0.057 3e-3 0.1116 3e-3 0.1641 0 0.052-5.3e-4 0.1071-3e-3 0.1625m-0.55703 0.9821c-2.7e-4 0.01-1e-3 0.011-3e-3 0.017-1e-3 0-3e-3 0.01-5e-3 0.014-4e-3 0.011-0.0104 0.022-0.0175 0.032-7e-3 0.011-0.0161 0.021-0.0251 0.03-9e-3 0.01-0.0177 0.016-0.0264 0.021m-0.18701-0.185-0.17992-0.1039m0.0275 0.4519-7e-3 -0.032m0.0638 0.034c-6e-3 0-0.0124 0.01-0.0182 0.01h-0.0168c-7e-3 -5e-4 -0.0127 0-0.0173-0.01h-4e-3m0.911-1.1368-0.0243 0.015m-4e-5 3e-4 -0.25771 0.1487m-0.63632 0.9099v-0.2974m0.42439 0.052-1e-3 0.029m1e-3 -0.3264v0.2974m-0.42492 0.2733 5.3e-4 -0.028m7.1677 9.925c-0.24108 0.4139-0.49489 0.8201-0.76047 1.2172s-0.54265 0.7848-0.82894 1.1603c-0.2863 0.3754-0.58118 0.738-0.88486 1.0884s-0.61608 0.6884-0.93484 1.0116c-0.31875 0.3231-0.64384 0.6314-0.97275 0.9228-0.32892 0.2913-0.66185 0.5661-0.99851 0.824-0.33665 0.2579-0.67639 0.4985-1.017 0.7201-0.34058 0.2217-0.68319 0.4252-1.0255 0.609s-0.68394 0.3479-1.0247 0.4918c-0.33367 0.1409-0.66611 0.2623-0.99518 0.3632m-9.2696 20.226-3.6203-2.0388m22.333-26.596 12.923-7.6824m0.73457-0.6869c-0.0414 0.057-0.0848 0.113-0.12989 0.1667-0.0451 0.054-0.0919 0.1051-0.13994 0.1541-0.0481 0.049-0.0973 0.095-0.14789 0.1389-0.0506 0.044-0.10253 0.085-0.15546 0.1227-0.0529 0.038-0.10686 0.073-0.16141 0.1044m-26.689 19.909c-0.24782 1.0778-0.49237 2.1462-0.73377 3.2041-0.24139 1.0578-0.47968 2.1053-0.71483 3.141-0.23516 1.0356-0.46718 2.0595-0.69628 3.071-0.2291 1.0116-0.45522 2.0106-0.67834 2.9956-0.22311 0.9851-0.4674 2.0314-0.68478 2.9885m33.347-52.01-3.6565-2.1635m-29.691 54.173c-0.0371 0.1105-0.0899 0.2224-0.15315 0.3281-0.0601 0.1005-0.13127 0.1982-0.20878 0.2867-0.0765 0.087-0.16096 0.1676-0.24892 0.2351-0.0906 0.07-0.18658 0.1275-0.28788 0.1678-0.10025 0.04-0.20763 0.064-0.32279 0.055-0.0715-0.01-0.14649-0.026-0.21413-0.063m11.958-37.17h8e-3c0.13293 0.077 0.29538 0.1156 0.46806 0.1041 0.17269-0.012 0.35564-0.074 0.52351-0.1708m0.63798-3.3516c-0.13413-0.075-0.29691-0.1145-0.46896-0.1039-0.17404 0.011-0.35755 0.072-0.52507 0.1691-0.16752 0.097-0.34115 0.2413-0.49537 0.42-0.15422 0.1788-0.28906 0.3918-0.39042 0.6054-0.10248 0.2161-0.18455 0.4618-0.23027 0.7048-0.0457 0.243-0.0551 0.4834-0.033 0.6903 0.0222 0.2068 0.0789 0.408 0.16827 0.5713 0.0875 0.1601 0.20638 0.2838 0.33723 0.3613m0.99978-0.062c0.16821-0.097 0.34351-0.2418 0.50001-0.4207 0.1565-0.1788 0.29417-0.3917 0.39793-0.6054 0.1042-0.2147 0.18811-0.4588 0.23499-0.7005 0.0469-0.2417 0.0567-0.4808 0.0342-0.687-0.0226-0.2067-0.0807-0.408-0.17211-0.5719-0.0914-0.1638-0.21607-0.2902-0.35257-0.3682-2e-3 -8e-4 -3e-3 0-5e-3 0m17.477 3.6855c2e-3 0 4e-3 0 0.12902 0.075 0 0 0.15398 0.034 0.48874 0 0 0 0.1808-0.064 0.34948-0.1618 0.16868-0.097 0.34771-0.2407 0.51127-0.4165 0.0716-0.077 0.14041-0.1599 0.20468-0.2466m-1.3607-2.0493c-0.15062 0.1697-0.28587 0.3672-0.39253 0.5647-0.11338 0.2101-0.2095 0.4484-0.27056 0.6833-0.0611 0.235-0.0871 0.4667-0.0803 0.6654 7e-3 0.1987 0.0472 0.3909 0.12151 0.5459 0.0731 0.1523 0.17899 0.2686 0.29943 0.3399m1.6831-0.7471 0.0513-0.071m-24.018-5.5064-4.2116 2.4315m-4.7077 40.068-3.7097-2.1135m21.026-45.234-8.3968 4.848m-2.1979 18.79h6e-3c0.12452 0.072 0.27991 0.1068 0.44821 0.092 0.16831-0.015 0.34956-0.079 0.51822-0.1762m0.82244-3.2638c-0.12571-0.071-0.28112-0.1054-0.44834-0.092-0.16984 0.014-0.35184 0.077-0.52032 0.1746-0.16855 0.097-0.346 0.2413-0.50672 0.4184-0.16072 0.1772-0.30474 0.3874-0.41622 0.598-0.11162 0.2109-0.20552 0.4503-0.2642 0.6864-0.0587 0.2362-0.0822 0.4691-0.0731 0.6691 9e-3 0.1999 0.052 0.3935 0.1286 0.5498 0.0753 0.1536 0.1833 0.2711 0.30539 0.3435m0.97257-0.08c0.16862-0.097 0.34711-0.2409 0.50963-0.4172s0.30907-0.3853 0.42288-0.5948c0.11394-0.2097 0.21028-0.4479 0.27059-0.6832 0.0603-0.2353 0.0846-0.4678 0.0753-0.6677-9e-3 -0.1999-0.0533-0.394-0.13182-0.551-0.0785-0.157-0.19137-0.2771-0.31837-0.3502h-6e-3m-8.3836 27.777h-3e-3m-0.12679-0.721c7.9e-4 5e-4 2e-3 0 3e-3 0 0.0273 0.02 0.0594 0.038 0.0945 0.054 0.0352 0.015 0.0727 0.027 0.11055 0.035 0.0379 0.01 0.0753 0.012 0.1101 0.011 0.0363-6e-4 0.069-0.01 0.0962-0.015m32.608-39.595c-0.12413-0.07-0.27818-0.1037-0.44449-0.09-0.16899 0.014-0.35062 0.078-0.5192 0.1755-0.16857 0.097-0.34653 0.2411-0.50827 0.4177-9e-3 0.01-0.0187 0.021-0.028 0.031m1.412 1.9814c0.0625-0.09 0.12-0.1823 0.17126-0.2748 0.11562-0.2088 0.21411-0.4458 0.27679-0.6798 0.0627-0.234 0.0895-0.4651 0.0827-0.6637-7e-3 -0.1987-0.0484-0.3913-0.12454-0.5471-0.0762-0.1558-0.18691-0.2746-0.31221-0.3468h-6e-3m1.9033-12.559-13.832 7.1439m13.722-7.3978-13.93 7.0689m10.002-9.1559-13.397 6.9609m-20.989 46.127h4e-3m20.985-46.127 13.397-6.9609m0.36539-0.054h2e-3m-26.549 14.39 12.608-7.2795m-40.298-38.391 54.138 31.256m-54.163 0.3555 26.719 15.436m0.99536-1.3769-27.715-16.002m40.5 8.6257-40.5-23.378m0 0.2043 40.323 23.27m-20.813 46.03-19.515-11.267m19.302 10.47-19.29-11.137" fill="none" stroke="#000" stroke-linecap="round" stroke-width=".31261"/></svg>
