<?xml version="1.0" encoding="UTF-8" standalone="no"?>
<svg
   width="698.99164"
   height="460.26382"
   version="1.1"
   viewBox="0 0 698.99165 460.26381"
   xml:space="preserve"
   id="svg310"
   sodipodi:docname="desenho cabos.svg"
   inkscape:version="1.2.2 (732a01da63, 2022-12-09)"
   xmlns:inkscape="http://www.inkscape.org/namespaces/inkscape"
   xmlns:sodipodi="http://sodipodi.sourceforge.net/DTD/sodipodi-0.dtd"
   xmlns="http://www.w3.org/2000/svg"
   xmlns:svg="http://www.w3.org/2000/svg"><defs
     id="defs314" /><sodipodi:namedview
     id="namedview312"
     pagecolor="#505050"
     bordercolor="#ffffff"
     borderopacity="1"
     inkscape:showpageshadow="0"
     inkscape:pageopacity="0"
     inkscape:pagecheckerboard="1"
     inkscape:deskcolor="#505050"
     showgrid="false"
     inkscape:zoom="0.72514317"
     inkscape:cx="-105.49641"
     inkscape:cy="313.04163"
     inkscape:window-width="1920"
     inkscape:window-height="1009"
     inkscape:window-x="-8"
     inkscape:window-y="-8"
     inkscape:window-maximized="1"
     inkscape:current-layer="svg310" /><g
     transform="matrix(1.3333,0,0,1.3333,-150.61163,-87.516096)"
     stroke="#000000"
     stroke-miterlimit="6.1292"
     id="g266"><g
       stroke-width="0.25735"
       id="g104"><g
         transform="matrix(2.9142,0,0,-2.9144,170.28,44.917)"
         fill="none"
         stroke-linecap="round"
         id="g6"><path
           d="M 159.83,-7.328 H -19.54"
           id="path2" /><path
           d="M 160.1,-31.105 H -19.49"
           id="path4" /></g><g
         transform="matrix(2.9142,0,0,-2.9144,170.28,44.917)"
         fill="none"
         stroke-linecap="round"
         stroke-linejoin="round"
         id="g48"><path
           d="M 159.66,-10.086 138.676,-31.105"
           id="path8" /><path
           d="M 153.89,-7.328 130.151,-31.105"
           id="path10" /><path
           d="M 145.36,-7.328 121.622,-31.105"
           id="path12" /><path
           d="M 136.83,-7.328 113.053,-31.105"
           id="path14" /><path
           d="M 128.3,-7.328 104.519,-31.105"
           id="path16" /><path
           d="M 119.77,-7.328 95.992,-31.105"
           id="path18" /><path
           d="M 111.24,-7.328 87.463,-31.105"
           id="path20" /><path
           d="M 102.67,-7.328 78.932,-31.105"
           id="path22" /><path
           d="M 94.141,-7.328 70.402,-31.105"
           id="path24" /><path
           d="M 85.609,-7.328 61.871,-31.105"
           id="path26" /><path
           d="M 77.078,-7.328 53.34,-31.105"
           id="path28" /><path
           d="M 68.551,-7.328 44.77,-31.105"
           id="path30" /><path
           d="M 60.02,-7.328 36.242,-31.105"
           id="path32" /><path
           d="M 51.488,-7.328 27.711,-31.105"
           id="path34" /><path
           d="M 42.961,-7.328 19.18,-31.105"
           id="path36" /><path
           d="M 34.391,-7.328 10.652,-31.105"
           id="path38" /><path
           d="M 25.859,-7.328 2.121,-31.105"
           id="path40" /><path
           d="M 17.328,-7.328 -6.41,-31.105"
           id="path42" /><path
           d="M 8.801,-7.328 -14.938,-31.105"
           id="path44" /><path
           d="m 0.27,-7.328 -19.78,-19.779 0.08518,-0.10027"
           id="path46" /></g><g
         transform="matrix(2.9142,0,0,2.9144,170.28,23.059)"
         id="g52"><path
           d="M -11.35,132.93 H 152.91"
           fill="none"
           stroke="#000000"
           stroke-linecap="round"
           stroke-miterlimit="6.1292"
           stroke-width="0.25735"
           id="path50" /></g><g
         transform="matrix(2.9142,0,0,2.9144,170.28,9.9447)"
         id="g56"><path
           d="m -11.234,127.9 h 163.92 v 9.528"
           fill="none"
           stroke="#000000"
           stroke-linecap="round"
           stroke-miterlimit="6.1292"
           stroke-width="0.25735"
           id="path54" /></g><g
         transform="matrix(2.9142,0,0,2.9144,152.8,88.632)"
         fill="none"
         stroke-linecap="round"
         id="g84"><path
           d="m 75.879,73.027 h 3.769"
           id="path58" /><path
           d="m 75.926,71.559 c 0,0.054 -0.004,0.109 -0.008,0.16 -0.004,0.051 -0.012,0.097 -0.016,0.136 -0.007,0.036 -0.015,0.071 -0.019,0.09 v 0.004"
           id="path60" /><path
           d="m 75.879,71.141 c 0,0 0,0.007 0.004,0.031 0.004,0.019 0.012,0.055 0.019,0.09 0.004,0.039 0.012,0.086 0.016,0.136 0.004,0.051 0.008,0.11 0.008,0.161"
           id="path62" /><path
           d="M 79.648,62.965 H 75.879"
           id="path64" /><path
           d="M 78.602,60.449 H 76.926"
           id="path66" /><path
           d="m 79.602,71.559 c 0,-0.051 0.003,-0.11 0.007,-0.161 0.004,-0.05 0.012,-0.097 0.02,-0.136 0.004,-0.035 0.012,-0.071 0.016,-0.09 0.003,-0.024 0.003,-0.031 0.003,-0.031"
           id="path68" /><path
           d="m 79.645,71.949 v -0.004 c -0.004,-0.019 -0.012,-0.054 -0.016,-0.09 -0.008,-0.039 -0.012,-0.085 -0.02,-0.136 -0.004,-0.051 -0.007,-0.106 -0.007,-0.16"
           id="path70" /><path
           d="M 75.879,71.141 V 62.965"
           id="path72" /><path
           d="M 79.648,71.141 V 62.965"
           id="path74" /><path
           d="M 79.648,73.027 79.645,71.949"
           id="path76" /><path
           d="M 78.602,62.965 V 60.449"
           id="path78" /><path
           d="m 75.879,73.027 0.004,-1.078"
           id="path80" /><path
           d="M 76.926,62.965 V 60.449"
           id="path82" /></g><g
         transform="matrix(2.9142,0,0,2.9144,152.8,44.917)"
         fill="none"
         stroke-linecap="round"
         id="g102"><path
           d="m 75.25,38.234 h 5.027"
           id="path86" /><path
           d="m 74.41,31.945 h 6.707"
           id="path88" /><path
           d="m 74.41,31.945 v -0.84"
           id="path90" /><path
           d="M 80.277,38.234 V 31.945"
           id="path92" /><path
           d="M 75.25,38.234 V 31.945"
           id="path94" /><path
           d="m 81.117,31.945 v -0.84"
           id="path96" /><path
           d="M 78.078,75.449 V 38.234"
           id="path98" /><path
           d="M 77.449,75.402 V 38.234"
           id="path100" /></g></g><g
       transform="matrix(2.3552,0,0,2.3553,176.39,81.464)"
       stroke-width="0.31844"
       id="g108"><path
         d="M 49.621,121.61 H 49.219"
         fill="none"
         stroke="#000000"
         stroke-linecap="round"
         stroke-miterlimit="6.1292"
         stroke-width="0.31844"
         id="path106" /></g><g
       transform="matrix(2.2345,0,0,2.2346,230.2,96.908)"
       fill="none"
       stroke-linecap="round"
       stroke-width="0.33564"
       id="g114"><path
         d="m 106.31,121.61 h -0.407"
         id="path110" /><path
         d="m 105.78,121.61 h 0.121"
         id="path112" /></g><g
       transform="matrix(2.3552,0,0,2.3553,176.39,81.464)"
       fill="none"
       stroke-linecap="round"
       stroke-width="0.31844"
       id="g120"><path
         d="m 49.621,121.61 h 0.121"
         id="path116" /><path
         d="m 46.324,127.9 v -3.398"
         id="path118" /></g><g
       transform="matrix(2.2345,0,0,2.2346,230.2,96.908)"
       stroke-width="0.33564"
       id="g124"><path
         d="m 106.3,121.61 v -0.058"
         fill="none"
         stroke="#000000"
         stroke-linecap="round"
         stroke-miterlimit="6.1292"
         stroke-width="0.33564"
         id="path122" /></g><g
       transform="matrix(2.3552,0,0,2.3553,176.39,81.464)"
       stroke-width="0.31844"
       id="g128"><path
         d="m 49.227,121.55 v 0.058"
         fill="none"
         stroke="#000000"
         stroke-linecap="round"
         stroke-miterlimit="6.1292"
         stroke-width="0.31844"
         id="path126" /></g><g
       transform="matrix(2.9142,0,0,2.9144,152.8,9.9447)"
       stroke-width="0.25735"
       id="g132"><path
         d="m 75.879,98.75 -27.45,24.078"
         fill="none"
         stroke="#000000"
         stroke-linecap="round"
         stroke-miterlimit="6.1292"
         stroke-width="0.25735"
         id="path130" /></g><g
       transform="matrix(2.2345,0,0,2.2346,230.2,96.908)"
       stroke-width="0.33564"
       id="g136"><path
         d="m 109.2,127.9 v -3.398"
         fill="none"
         stroke="#000000"
         stroke-linecap="round"
         stroke-miterlimit="6.1292"
         stroke-width="0.33564"
         id="path134" /></g><g
       transform="matrix(2.9142,0,0,2.9144,152.8,9.9447)"
       fill="none"
       stroke-linecap="round"
       stroke-width="0.25735"
       id="g142"><path
         d="m 75.872,98.382 -24.784,21.617 -0.85464,0.75203 -2.3544,2.0717"
         id="path138" /><path
         d="M 107.8,123.05 79.694,98.295"
         id="path140" /></g><g
       transform="matrix(2.3552,0,0,2.3553,176.39,81.464)"
       fill="none"
       stroke-linecap="round"
       stroke-width="0.31844"
       id="g148"><path
         d="m 49.219,121.61 c -1.598,0 -2.895,1.293 -2.895,2.891"
         id="path144" /><path
         d="m 52.613,124.5 c 0,-1.586 -1.281,-2.879 -2.871,-2.891"
         id="path146" /></g><g
       transform="matrix(2.2345,0,0,2.2346,230.2,96.908)"
       stroke-width="0.33564"
       id="g152"><path
         d="m 105.78,121.61 c -1.586,0.012 -2.871,1.305 -2.871,2.891"
         fill="none"
         stroke="#000000"
         stroke-linecap="round"
         stroke-miterlimit="6.1292"
         stroke-width="0.33564"
         id="path150" /></g><g
       transform="matrix(2.3552,0,0,2.3553,176.39,81.464)"
       stroke-width="0.31844"
       id="g156"><path
         d="m 52.613,127.9 v -3.398"
         fill="none"
         stroke="#000000"
         stroke-linecap="round"
         stroke-miterlimit="6.1292"
         stroke-width="0.31844"
         id="path154" /></g><g
       transform="matrix(2.9142,0,0,2.9144,152.8,9.9447)"
       stroke-width="0.25735"
       id="g160"><path
         d="M 107.38,123.06 79.649,98.629"
         fill="none"
         stroke="#000000"
         stroke-linecap="round"
         stroke-miterlimit="6.1292"
         stroke-width="0.25735"
         id="path158" /></g><g
       transform="matrix(2.2345,0,0,2.2346,230.2,96.908)"
       fill="none"
       stroke-linecap="round"
       stroke-width="0.33564"
       id="g166"><path
         d="m 102.91,127.9 v -3.398"
         id="path162" /><path
         d="m 109.2,124.5 c 0,-1.598 -1.297,-2.891 -2.89,-2.891"
         id="path164" /></g><g
       stroke-width="0.25735"
       id="g180"><g
         transform="matrix(2.9142,0,0,-2.9144,195.87,44.878)"
         id="g170"><path
           d="M 151.11,-18.652 138.678,-31.105"
           fill="none"
           stroke="#000000"
           stroke-linecap="round"
           stroke-linejoin="round"
           stroke-miterlimit="6.1292"
           stroke-width="0.25735"
           id="path168" /></g><g
         transform="matrix(2.9142,0,0,-2.9144,222.07,44.657)"
         id="g174"><path
           d="m 142.02,-27.757 -3.3424,-3.3479"
           fill="none"
           stroke="#000000"
           stroke-linecap="round"
           stroke-linejoin="round"
           stroke-miterlimit="6.1292"
           stroke-width="0.25735"
           id="path172" /></g><g
         transform="matrix(2.9142,0,0,-2.9144,145.99,44.657)"
         id="g178"><path
           d="m 0.27,-7.328 -11.202,-11.202 -0.20433,-0.01818"
           fill="none"
           stroke="#000000"
           stroke-linecap="round"
           stroke-linejoin="round"
           stroke-miterlimit="6.1292"
           stroke-width="0.25735"
           id="path176" /></g></g><path
       transform="matrix(0.69847,0,0,0.69854,113.36,54.67)"
       d="m 34.618,469.58 -0.48217,39.752"
       fill="none"
       stroke-width="1.0737"
       id="path182" /><path
       transform="matrix(0.69847,0,0,0.69854,113.36,54.67)"
       d="m 381.66,470.11 -0.48216,39.752"
       fill="none"
       stroke-width="1.0737"
       id="path184" /><g
       stroke-width="0.25735"
       id="g264"><g
         transform="matrix(2.9142,0,0,2.9144,118.39,7.5379)"
         id="g200"><g
           transform="translate(81.237,12.909)"
           fill="none"
           stroke="#000000"
           stroke-linecap="round"
           stroke-miterlimit="6.1292"
           stroke-width="0.25735"
           id="g198"><path
             d="m 75.25,38.234 h 5.027"
             id="path186" /><path
             d="m 74.41,31.945 h 6.707"
             id="path188" /><path
             d="m 74.41,31.945 v -0.84"
             id="path190" /><path
             d="M 80.277,38.234 V 31.945"
             id="path192" /><path
             d="M 75.25,38.234 V 31.945"
             id="path194" /><path
             d="m 81.117,31.945 v -0.84"
             id="path196" /></g></g><g
         transform="matrix(2.9142,0,0,2.9144,-297.62,7.5379)"
         id="g216"><g
           transform="translate(81.237,12.909)"
           fill="none"
           stroke="#000000"
           stroke-linecap="round"
           stroke-miterlimit="6.1292"
           stroke-width="0.25735"
           id="g214"><path
             d="m 75.25,38.234 h 5.027"
             id="path202" /><path
             d="m 74.41,31.945 h 6.707"
             id="path204" /><path
             d="m 74.41,31.945 v -0.84"
             id="path206" /><path
             d="M 80.277,38.234 V 31.945"
             id="path208" /><path
             d="M 75.25,38.234 V 31.945"
             id="path210" /><path
             d="m 81.117,31.945 v -0.84"
             id="path212" /></g></g><g
         transform="matrix(2.9142,0,0,2.9144,-26.528,36.464)"
         id="g224"><g
           transform="translate(-11.736,2.8153)"
           fill="none"
           stroke="#000000"
           stroke-linecap="round"
           stroke-miterlimit="6.1292"
           stroke-width="0.25735"
           id="g222"><path
             d="M 78.078,107.04 V 38.231"
             id="path218" /><path
             d="M 77.449,107.09 V 38.234"
             id="path220" /></g></g><g
         transform="matrix(2.9142,0,0,2.9144,389.42,36.908)"
         id="g262"><g
           transform="translate(-11.736,49.315)"
           fill="none"
           stroke-linecap="round"
           id="g238"><path
             d="M 79.648,62.965 H 75.879"
             id="path226" /><path
             d="M 78.602,60.449 H 76.926"
             id="path228" /><path
             d="M 75.879,69.294 V 62.9646"
             id="path230" /><path
             d="M 79.648,69.294 V 62.9646"
             id="path232" /><path
             d="M 78.602,62.965 V 60.449"
             id="path234" /><path
             d="M 76.926,62.965 V 60.449"
             id="path236" /></g><g
           transform="translate(-11.736,2.8153)"
           fill="none"
           stroke-linecap="round"
           id="g244"><path
             d="M 78.078,106.95 V 38.235"
             id="path240" /><path
             d="M 77.449,106.9 V 38.232"
             id="path242" /></g><g
           transform="translate(-0.84211,-0.46945)"
           id="g260"><g
             transform="translate(-153.67,49.762)"
             fill="none"
             stroke="#000000"
             stroke-linecap="round"
             stroke-miterlimit="6.1292"
             stroke-width="0.25735"
             id="g258"><path
               d="M 79.648,62.965 H 75.879"
               id="path246" /><path
               d="M 78.602,60.449 H 76.926"
               id="path248" /><path
               d="M 75.879,69.294 V 62.9646"
               id="path250" /><path
               d="M 79.648,69.294 V 62.9646"
               id="path252" /><path
               d="M 78.602,62.965 V 60.449"
               id="path254" /><path
               d="M 76.926,62.965 V 60.449"
               id="path256" /></g></g></g></g></g></svg>
