<?xml version="1.0" encoding="UTF-8" standalone="no"?>
<svg
   width="100"
   height="53.806"
   version="1.1"
   viewBox="0 0 26.458 14.236"
   id="svg346"
   sodipodi:docname="C.svg"
   inkscape:version="1.2.2 (732a01da63, 2022-12-09)"
   xmlns:inkscape="http://www.inkscape.org/namespaces/inkscape"
   xmlns:sodipodi="http://sodipodi.sourceforge.net/DTD/sodipodi-0.dtd"
   xmlns="http://www.w3.org/2000/svg"
   xmlns:svg="http://www.w3.org/2000/svg">
  <defs
     id="defs350" />
  <sodipodi:namedview
     id="namedview348"
     pagecolor="#505050"
     bordercolor="#ffffff"
     borderopacity="1"
     inkscape:showpageshadow="0"
     inkscape:pageopacity="0"
     inkscape:pagecheckerboard="1"
     inkscape:deskcolor="#505050"
     showgrid="false"
     inkscape:zoom="4.386128"
     inkscape:cx="50.04414"
     inkscape:cy="26.903"
     inkscape:window-width="1920"
     inkscape:window-height="1009"
     inkscape:window-x="-8"
     inkscape:window-y="-8"
     inkscape:window-maximized="1"
     inkscape:current-layer="svg346" />
  <g
     stroke="#000000"
     id="g338"
     transform="matrix(-1,0,0,1,26.458483,0)">
    <rect
       class="cls-1"
       transform="matrix(0.060318,0,0,0.059642,-0.5526,-0.04)"
       x="356.04001"
       y="2.1300001"
       width="90.300003"
       height="235.75"
       fill="#ffffff"
       stroke-width="2.9408"
       id="rect332" />
    <path
       class="cls-2"
       transform="matrix(0.058812,0,0,0.058584,0.1199,0.09)"
       d="M 120.42,0 0.09,120 120.42,240 h 233.3 V 0 Z"
       fill="#b0d917"
       stroke-width="3.005"
       id="path334" />
    <path
       transform="matrix(-1.2322,0,0,1.2315,28.561949,-307.01)"
       d="m 13.971,257.16 q 0,0.11518 -0.0092,0.19811 -0.0046,0.0783 -0.01843,0.13821 -0.01382,0.0553 -0.03686,0.0967 -0.02303,0.0415 -0.07371,0.0967 -0.05068,0.0507 -0.1981,0.13361 -0.14282,0.0829 -0.35474,0.16124 -0.20732,0.0737 -0.47913,0.12439 -0.26721,0.0507 -0.58049,0.0507 -0.61274,0 -1.1057,-0.18889 -0.49296,-0.18889 -0.83848,-0.56206 -0.34553,-0.37777 -0.52981,-0.93983 -0.18428,-0.56206 -0.18428,-1.3084 0,-0.76016 0.20271,-1.3499 0.20271,-0.58974 0.56667,-0.99051 0.36396,-0.40081 0.87073,-0.60813 0.51138,-0.20731 1.1241,-0.20731 0.24878,0 0.47913,0.0415 0.23035,0.0415 0.42385,0.11057 0.1981,0.0645 0.35474,0.15203 0.15664,0.0875 0.21653,0.15203 0.0645,0.0599 0.08753,0.10136 0.02304,0.0415 0.03686,0.10596 0.01382,0.0645 0.01843,0.15203 0.0092,0.0875 0.0092,0.21653 0,0.13821 -0.0092,0.23496 -0.0092,0.0968 -0.03225,0.15664 -0.02304,0.0599 -0.05528,0.0875 -0.03225,0.0276 -0.07371,0.0276 -0.0691,0 -0.17507,-0.0783 -0.10596,-0.0829 -0.27642,-0.17967 -0.16585,-0.10135 -0.40081,-0.17967 -0.23035,-0.0829 -0.55284,-0.0829 -0.35474,0 -0.63577,0.14742 -0.27642,0.14282 -0.47452,0.41464 -0.1935,0.26721 -0.29485,0.64959 -0.10135,0.38238 -0.10136,0.86151 0,0.52521 0.10596,0.9122 0.11057,0.38238 0.30867,0.63116 0.20271,0.24878 0.48374,0.37317 0.28564,0.11978 0.64038,0.11978 0.32249,0 0.55745,-0.0737 0.23496,-0.0783 0.40081,-0.17046 0.17046,-0.0921 0.27642,-0.16585 0.11057,-0.0737 0.17046,-0.0737 0.04607,0 0.07371,0.0184 0.02764,0.0184 0.04607,0.0737 0.01843,0.0553 0.02764,0.15664 0.0092,0.0968 0.0092,0.2626 z"
       fill="#ffffff"
       stroke-width="0.14319"
       id="path336" />
  </g>
  <path
     transform="matrix(0.058812,0,0,0.058584,-20.814568,0.12148)"
     d="m 400.87,90.613 c -0.0788,8.7e-5 -0.15759,0.0092 -0.23633,0.01367 -0.0586,0.0035 -0.11723,0.0038 -0.17578,0.0098 -0.85375,0.08461 -1.6906,0.42715 -2.4219,1.0312 -0.12175,0.0998 -0.23961,0.20826 -0.35547,0.32226 -4.43,4.35 -8.8006,8.7595 -13.141,13.189 -0.59,0.6 -1.0691,1.4305 -1.2891,2.2305 -0.55,1.97 0.30914,3.7806 2.1191,4.8906 1.2318,0.71711 2.209,0.96444 3.0703,0.97656 l 0.002,0.002 h 7.9395 c 0.018,10.106 0.026,17.275 0.0351,26.93 l -0.11523,4.4316 c -0.0363,1.3851 0.34378,2.5322 1.0586,3.3906 0.003,0.004 0.006,0.009 0.01,0.0137 0.0539,0.0642 0.1103,0.1266 0.16797,0.1875 0.81277,0.89984 1.9924,1.4495 3.2363,1.459 0.0353,0.001 0.0703,0.001 0.10547,0.002 0.0358,-6.2e-4 0.0715,-4.3e-4 0.10743,-0.002 1.2439,-0.01 2.4236,-0.55914 3.2363,-1.459 0.82977,-0.87629 1.2775,-2.0958 1.2383,-3.5918 l -0.11718,-4.4902 c 0.009,-9.6221 0.0192,-16.787 0.0371,-26.871 h 7.5117 l -0.0391,-0.0195 c 0.97539,0.081 2.0771,-0.10901 3.5371,-0.95898 1.81,-1.11 2.6691,-2.9206 2.1191,-4.8906 -0.22,-0.8 -0.69906,-1.6305 -1.2891,-2.2305 -4.34,-4.43 -8.7106,-8.8395 -13.141,-13.189 -0.11688,-0.115 -0.23651,-0.22366 -0.35938,-0.32422 -0.85121,-0.70194 -1.845,-1.0544 -2.8418,-1.0527 -0.003,-4e-6 -0.007,-4e-6 -0.01,0 z"
     id="path340" />
  <path
     transform="matrix(0.76305,0,0,0.763,-55.290445,-102.67)"
     d="m 78.142,140.26 q 0.04183,0.1255 0.05229,0.1987 0.01046,0.0732 -0.02789,0.11155 -0.03834,0.0349 -0.13595,0.0418 -0.09761,0.0105 -0.26841,0.0105 -0.17778,0 -0.27887,-0.007 -0.09761,-0.003 -0.14989,-0.0174 -0.05229,-0.0174 -0.0732,-0.0453 -0.02092,-0.0279 -0.03486,-0.0732 l -0.30327,-0.90634 h -1.6941 l -0.28584,0.88193 q -0.01394,0.0488 -0.03835,0.0837 -0.02091,0.0314 -0.0732,0.0523 -0.0488,0.0174 -0.14292,0.0244 -0.09063,0.007 -0.24053,0.007 -0.16035,0 -0.25098,-0.0105 -0.09063,-0.0105 -0.12549,-0.0488 -0.03486,-0.0418 -0.0244,-0.11504 0.01046,-0.0732 0.05229,-0.19521 l 1.3909,-4.0018 q 0.02092,-0.0593 0.0488,-0.0941 0.02789,-0.0383 0.08715,-0.0558 0.06275,-0.0209 0.17081,-0.0244 0.10806,-0.007 0.28584,-0.007 0.20567,0 0.32767,0.007 0.12201,0.003 0.18824,0.0244 0.06972,0.0174 0.09761,0.0558 0.03137,0.0384 0.05229,0.10458 z m -2.0706,-3.3081 h -0.0035 l -0.63792,1.9172 h 1.2793 z"
     fill="#090209"
     stroke-width="0.092468"
     id="path342" />
  <path
     transform="matrix(0.76305,0,0,0.763,-55.012177,-102.41)"
     d="m 77.682,147.48 q 0,0.10109 -0.01046,0.17429 -0.007,0.0732 -0.0244,0.11852 -0.01394,0.0418 -0.03834,0.0593 -0.02092,0.0174 -0.05229,0.0174 -0.04532,0 -0.14641,-0.0627 -0.10109,-0.0628 -0.26841,-0.13595 -0.16732,-0.0732 -0.40088,-0.13595 -0.23007,-0.0627 -0.53683,-0.0627 -0.32767,0 -0.5926,0.11504 -0.26493,0.11155 -0.45316,0.3207 -0.18824,0.20567 -0.28933,0.49848 -0.10109,0.28933 -0.10109,0.6414 0,0.38694 0.10109,0.68324 0.10458,0.29281 0.28933,0.49151 0.18475,0.19869 0.44271,0.29979 0.26144,0.10109 0.57517,0.10109 0.15338,0 0.30327,-0.0349 0.14989,-0.0349 0.27887,-0.10458 v -1.0458 H 75.9042 q -0.06275,0 -0.09761,-0.0767 -0.03486,-0.0802 -0.03486,-0.26841 0,-0.0976 0.007,-0.16384 0.01046,-0.0662 0.02789,-0.10457 0.01743,-0.0418 0.04183,-0.0593 0.0244,-0.0209 0.05577,-0.0209 h 1.5233 q 0.05577,0 0.09761,0.0209 0.04532,0.0174 0.07669,0.0558 0.03486,0.0384 0.05229,0.0941 0.01743,0.0523 0.01743,0.12201 v 1.7952 q 0,0.10458 -0.03834,0.18475 -0.03486,0.0767 -0.14989,0.12201 -0.11155,0.0453 -0.27887,0.0941 -0.16732,0.0488 -0.34859,0.0837 -0.17778,0.0349 -0.36253,0.0523 -0.18127,0.0174 -0.36602,0.0174 -0.54031,0 -0.96908,-0.15338 -0.42528,-0.15687 -0.72158,-0.44968 -0.2963,-0.2963 -0.45317,-0.7181 -0.15686,-0.42527 -0.15686,-0.9621 0,-0.55426 0.16732,-0.99348 0.16732,-0.44271 0.47408,-0.74947 0.30676,-0.31024 0.73901,-0.47408 0.43574,-0.16383 0.96908,-0.16383 0.29282,0 0.53334,0.0418 0.24053,0.0383 0.41831,0.0976 0.18127,0.0558 0.29979,0.12201 0.11852,0.0662 0.16384,0.11503 0.0488,0.0488 0.06972,0.13944 0.02092,0.0872 0.02092,0.26144 z"
     fill="#090209"
     stroke-width="0.092468"
     id="path344" />
</svg>
