<?xml version="1.0" encoding="UTF-8" standalone="no"?>
<svg
   width="903.37305"
   height="197.884"
   version="1.1"
   id="svg2665"
   sodipodi:docname="desenho_cabo_c1f.svg"
   inkscape:version="1.2.2 (732a01da63, 2022-12-09)"
   xmlns:inkscape="http://www.inkscape.org/namespaces/inkscape"
   xmlns:sodipodi="http://sodipodi.sourceforge.net/DTD/sodipodi-0.dtd"
   xmlns="http://www.w3.org/2000/svg"
   xmlns:svg="http://www.w3.org/2000/svg">
  <defs
     id="defs2669" />
  <sodipodi:namedview
     id="namedview2667"
     pagecolor="#505050"
     bordercolor="#ffffff"
     borderopacity="1"
     inkscape:showpageshadow="0"
     inkscape:pageopacity="0"
     inkscape:pagecheckerboard="1"
     inkscape:deskcolor="#505050"
     showgrid="false"
     inkscape:zoom="4.2162164"
     inkscape:cx="825.26599"
     inkscape:cy="165.55128"
     inkscape:window-width="1920"
     inkscape:window-height="1009"
     inkscape:window-x="-8"
     inkscape:window-y="-8"
     inkscape:window-maximized="1"
     inkscape:current-layer="svg2665" />
  <g
     transform="matrix(1.6741,0,0,1.6889,-65.14184,-5.7963004)"
     fill="none"
     stroke="#000000"
     stroke-linecap="round"
     stroke-linejoin="round"
     stroke-width="0.15735"
     id="g2383">
    <path
       transform="matrix(3.7795,0,0,3.7795,-789.9,657.68)"
       d="m 226.77,-169.06 h -1.65"
       id="path2175" />
    <path
       transform="matrix(3.7795,0,0,3.7795,-789.9,657.68)"
       d="m 230.15,-171.18 -0.72119,-0.0534"
       id="path2177" />
    <path
       transform="matrix(3.7795,0,0,3.7795,-789.9,657.68)"
       d="m 235.87,-166.76 h -1"
       id="path2179" />
    <path
       transform="matrix(3.7795,0,0,3.7795,-789.9,657.68)"
       d="m 241.87,-170.1 v 6.6569"
       id="path2181" />
    <path
       transform="matrix(3.7795,0,0,3.7795,-789.9,657.68)"
       d="m 230.87,-171.28 -0.72021,-0.0533"
       id="path2183" />
    <path
       transform="matrix(3.7795,0,0,3.7795,-789.9,657.68)"
       d="m 225.12,-169.11 a 0.15,0.15 0 0 0 -0.3,0"
       id="path2185" />
    <path
       transform="matrix(3.7795,0,0,3.7795,-789.9,657.68)"
       d="m 235.87,-170.34 v 3.5731"
       id="path2187" />
    <path
       transform="matrix(3.7795,0,0,3.7795,-789.9,657.68)"
       d="m 241.6,-170.04 v 1.1149 2.1433 c 0,1.0353 -1e-5,2.0731 -1e-5,2.8814 v 0.36295 c 0,0.11527 -7e-5,0.26437 -7.1e-4,0.31294 -3.1e-4,0.0243 -8.3e-4,0.0264 -3.8e-4,0.0268 4.5e-4,4e-4 7.7e-4,6.8e-4 9.4e-4,8.4e-4 1.1e-4,1.1e-4 1.7e-4,1.6e-4 1.9e-4,1.9e-4"
       id="path2189" />
    <path
       transform="matrix(3.7795,0,0,3.7795,-789.9,657.68)"
       d="m 241.6,-170.34 c 9e-5,-9e-5 -4e-5,3e-5 -4e-5,3e-5 0,0 2.8e-4,-2.4e-4 -2.6e-4,2.5e-4 -2.7e-4,2.5e-4 -7.5e-4,6.8e-4 -0.001,0.001 -6.8e-4,6.2e-4 7.4e-4,0.0174 0.001,0.0633 3.9e-4,0.0507 5.9e-4,0.13085 5.9e-4,0.2328"
       id="path2191" />
    <path
       transform="matrix(3.7795,0,0,3.7795,-789.9,657.68)"
       d="m 231.87,-166.76 h 1"
       id="path2193" />
    <path
       transform="matrix(3.7795,0,0,3.7795,-789.9,657.68)"
       d="m 220.97,-164.46 h -1.3"
       id="path2195" />
    <path
       transform="matrix(3.7795,0,0,3.7795,-789.9,657.68)"
       d="m 228.37,-162.8 v 0.58333"
       id="path2197" />
    <path
       transform="matrix(3.7795,0,0,3.7795,-789.9,657.68)"
       d="m 222.82,-165.05 v 0.6385"
       id="path2199" />
    <path
       transform="matrix(3.7795,0,0,3.7795,-789.9,657.68)"
       d="m 222.82,-164.46 h -1.85"
       id="path2201" />
    <path
       transform="matrix(3.7795,0,0,3.7795,-789.9,657.68)"
       d="m 234.87,-166.76 v -3.6243"
       id="path2203" />
    <path
       transform="matrix(3.7795,0,0,3.7795,-789.9,657.68)"
       d="m 234.87,-170.39 v -0.44423"
       id="path2205" />
    <path
       transform="matrix(3.7795,0,0,3.7795,-789.9,657.68)"
       d="m 223.12,-168.65 v -0.4615"
       id="path2207" />
    <path
       transform="matrix(3.7795,0,0,3.7795,-789.9,657.68)"
       d="m 231.11,-171.11 -1.9092,-0.14142"
       id="path2209" />
    <path
       transform="matrix(3.7795,0,0,3.7795,-789.9,657.68)"
       d="m 235.87,-170.76 v 0.0158 0.11049 0.29498"
       id="path2211" />
    <path
       transform="matrix(3.7795,0,0,3.7795,-789.9,657.68)"
       d="m 225.12,-164.41 v -0.6385"
       id="path2213" />
    <path
       transform="matrix(3.7795,0,0,3.7795,-789.9,657.68)"
       d="m 231.14,-171.11 -0.26612,-0.0197"
       id="path2215" />
    <path
       transform="matrix(3.7795,0,0,3.7795,-789.9,657.68)"
       d="m 219.37,-165 v 0.23218"
       id="path2217" />
    <path
       transform="matrix(3.7795,0,0,3.7795,-789.9,657.68)"
       d="m 238.87,-166.76 v 3.7722"
       id="path2219" />
    <path
       transform="matrix(3.7795,0,0,3.7795,-789.9,657.68)"
       d="m 224.82,-165.05 v 0.6385"
       id="path2221" />
    <path
       transform="matrix(3.7795,0,0,3.7795,-789.9,657.68)"
       d="m 224.82,-168.65 v 3.6"
       id="path2223" />
    <path
       transform="matrix(3.7795,0,0,3.7795,-789.9,657.68)"
       d="m 232.87,-166.76 v 4.2167"
       id="path2225" />
    <path
       transform="matrix(3.7795,0,0,3.7795,-789.9,657.68)"
       d="m 237.87,-166.76 h 1"
       id="path2227" />
    <path
       transform="matrix(3.7795,0,0,3.7795,-789.9,657.68)"
       d="m 219.37,-168.6 v 3.6"
       id="path2229" />
    <path
       transform="matrix(3.7795,0,0,3.7795,-789.9,657.68)"
       d="m 226.77,-164.46 h -1.65"
       id="path2231" />
    <path
       transform="matrix(3.7795,0,0,3.7795,-789.9,657.68)"
       d="m 222.82,-169.06 h -1.85"
       id="path2233" />
    <path
       transform="matrix(3.7795,0,0,3.7795,-789.9,657.68)"
       d="m 219.37,-164.76 a 0.3,0.3 0 0 0 0.3,0.3"
       id="path2235" />
    <path
       transform="matrix(3.7795,0,0,3.7795,-789.9,657.68)"
       d="m 224.82,-169.11 v 0.4615"
       id="path2237" />
    <path
       transform="matrix(3.7795,0,0,3.7795,-789.9,657.68)"
       d="m 235.37,-170.8 -0.5,-0.037"
       id="path2239" />
    <path
       transform="matrix(3.7795,0,0,3.7795,-789.9,657.68)"
       d="m 225.12,-165.05 v -3.6"
       id="path2241" />
    <path
       transform="matrix(3.7795,0,0,3.7795,-789.9,657.68)"
       d="m 222.82,-169.11 v 0.4615"
       id="path2243" />
    <path
       transform="matrix(3.7795,0,0,3.7795,-789.9,657.68)"
       d="m 223.12,-169.11 a 0.15,0.15 0 0 0 -0.3,0"
       id="path2245" />
    <path
       transform="matrix(3.7795,0,0,3.7795,-789.9,657.68)"
       d="m 222.82,-164.41 a 0.15,0.15 0 0 0 0.3,0"
       id="path2247" />
    <path
       transform="matrix(3.7795,0,0,3.7795,-789.9,657.68)"
       d="m 237.87,-162.92 v -3.8493"
       id="path2249" />
    <path
       transform="matrix(3.7795,0,0,3.7795,-789.9,657.68)"
       d="m 231.88,-162.51 v -4.236"
       id="path2251" />
    <path
       transform="matrix(3.7795,0,0,3.7795,-789.9,657.68)"
       d="m 229.17,-171.41 v 0.15042"
       id="path2253" />
    <path
       transform="matrix(3.7795,0,0,3.7795,-789.9,657.68)"
       d="m 223.12,-165.05 v -3.6"
       id="path2255" />
    <path
       transform="matrix(3.7795,0,0,3.7795,-789.9,657.68)"
       d="m 231.14,-171.26 -0.26612,-0.0197"
       id="path2257" />
    <path
       transform="matrix(3.7795,0,0,3.7795,-789.9,657.68)"
       d="m 224.82,-164.41 a 0.15,0.15 0 0 0 0.3,0"
       id="path2259" />
    <path
       transform="matrix(3.7795,0,0,3.7795,-789.9,657.68)"
       d="m 229.43,-171.24 -0.26612,-0.0197"
       id="path2261" />
    <path
       transform="matrix(3.7795,0,0,3.7795,-789.9,657.68)"
       d="m 224.82,-164.46 h -1.7"
       id="path2263" />
    <path
       transform="matrix(3.7795,0,0,3.7795,-789.9,657.68)"
       d="m 224.82,-169.06 h -1.7"
       id="path2265" />
    <path
       transform="matrix(3.7795,0,0,3.7795,-789.9,657.68)"
       d="m 231.11,-171.11 -1.502,-0.11125"
       id="path2267" />
    <path
       transform="matrix(3.7795,0,0,3.7795,-789.9,657.68)"
       d="m 219.67,-169.06 a 0.3,0.3 0 0 0 -0.3,0.3"
       id="path2269" />
    <path
       transform="matrix(3.7795,0,0,3.7795,-789.9,657.68)"
       d="m 230.87,-171.13 -0.72021,-0.0533"
       id="path2271" />
    <path
       transform="matrix(3.7795,0,0,3.7795,-789.9,657.68)"
       d="m 231.14,-171.26 v 0.15041"
       id="path2273" />
    <path
       transform="matrix(3.7795,0,0,3.7795,-789.9,657.68)"
       d="m 220.97,-169.06 h -1.3"
       id="path2275" />
    <path
       transform="matrix(3.7795,0,0,3.7795,-789.9,657.68)"
       d="m 223.12,-164.41 v -0.6385"
       id="path2277" />
    <path
       transform="matrix(3.7795,0,0,3.7795,-789.9,657.68)"
       d="m 229.71,-171.22 -0.19336,-0.0143"
       id="path2279" />
    <path
       transform="matrix(3.7795,0,0,3.7795,-789.9,657.68)"
       d="m 219.37,-168.76 v 0.16782"
       id="path2281" />
    <path
       transform="matrix(3.7795,0,0,3.7795,-789.9,657.68)"
       d="m 235.87,-170.76 -0.5,-0.037"
       id="path2283" />
    <path
       transform="matrix(3.7795,0,0,3.7795,-789.9,657.68)"
       d="m 222.82,-168.65 v 3.6"
       id="path2285" />
    <path
       transform="matrix(3.7795,0,0,3.7795,-789.9,657.68)"
       d="m 241.6,-170.04 v 1.5e-4"
       id="path2287" />
    <path
       transform="matrix(3.7795,0,0,3.7795,-789.9,657.68)"
       d="m 230.15,-171.33 -0.72119,-0.0534"
       id="path2289" />
    <path
       transform="matrix(3.7795,0,0,3.7795,-789.9,657.68)"
       d="m 225.12,-168.65 v -0.4615"
       id="path2291" />
    <path
       transform="matrix(3.7795,0,0,3.7795,-789.9,657.68)"
       d="m 229.43,-171.39 -0.26612,-0.0197"
       id="path2293" />
    <path
       transform="matrix(3.7795,0,0,3.7795,-789.9,657.68)"
       d="m 241.59,-163.19 -13.212,0.97918"
       id="path2295" />
    <path
       transform="matrix(3.7795,0,0,3.7795,-789.9,657.68)"
       d="m 228.37,-171.31 0.79183,0.0587"
       id="path2297" />
    <path
       transform="matrix(3.7795,0,0,3.7795,-789.9,657.68)"
       d="m 231.14,-171.11 10.464,0.77509"
       id="path2299" />
    <path
       transform="matrix(3.7795,0,0,3.7795,-789.9,657.68)"
       d="m 231.87,-165.04 h 1"
       id="path2301" />
    <path
       transform="matrix(3.7795,0,0,3.7795,-789.9,657.68)"
       d="m 237.87,-165.04 h 1"
       id="path2303" />
    <path
       transform="matrix(3.7795,0,0,3.7795,-789.9,657.68)"
       d="m 241.6,-165.04 109.75,-0.009"
       id="path2305" />
    <path
       transform="matrix(3.7795,0,0,3.7795,-789.9,657.68)"
       d="m 235.87,-166.97 h -1"
       id="path2307" />
    <path
       transform="matrix(3.7795,0,0,3.7795,-789.9,657.68)"
       d="M 351.32,-168.48 241.6,-168.489"
       id="path2309" />
    <path
       transform="matrix(3.7795,0,0,3.7795,-789.9,657.68)"
       d="m 235.87,-168.49 h -1"
       id="path2311" />
    <path
       transform="matrix(3.7795,0,0,3.7795,-789.9,657.68)"
       d="m 228.37,-162.21 v -0.58333"
       id="path2313" />
    <path
       transform="matrix(3.7795,0,0,3.7795,-789.9,657.68)"
       d="m 226.77,-162.8 v 0.58333"
       id="path2315" />
    <path
       transform="matrix(3.7795,0,0,3.7795,-789.9,657.68)"
       d="m 228.37,-162.8 v -7.9333"
       id="path2317" />
    <path
       transform="matrix(3.7795,0,0,3.7795,-789.9,657.68)"
       d="m 226.77,-162.21 h 1.6"
       id="path2319" />
    <path
       transform="matrix(3.7795,0,0,3.7795,-789.9,657.68)"
       d="m 226.77,-171.31 h 1.6"
       id="path2321" />
    <path
       transform="matrix(3.7795,0,0,3.7795,-789.9,657.68)"
       d="m 226.77,-171.31 v 0.58333"
       id="path2323" />
    <path
       transform="matrix(3.7795,0,0,3.7795,-789.9,657.68)"
       d="m 226.77,-170.73 v 7.9333"
       id="path2325" />
    <path
       transform="matrix(3.7795,0,0,3.7795,-789.9,657.68)"
       d="m 228.37,-170.73 v -0.58333"
       id="path2327" />
    <path
       transform="matrix(3.7795,0,0,3.7795,-789.9,657.68)"
       d="m 219.67,-164.46 v -0.58046"
       id="path2329" />
    <path
       transform="matrix(3.7795,0,0,3.7795,-789.9,657.68)"
       d="m 230.15,-171.33 v 0.15041"
       id="path2331" />
    <path
       transform="matrix(3.7795,0,0,3.7795,-789.9,657.68)"
       d="m 223.12,-168.65 -1.9e-4,-0.001 -5.6e-4,-10e-4 -9.4e-4,-0.001 -0.001,-0.001 -0.006,-0.003 -0.009,-0.003 -0.008,-0.002 -0.004,-9.8e-4 -0.005,-9.4e-4 -0.005,-9.1e-4 -0.005,-8.6e-4 -0.006,-8.2e-4 -0.006,-7.7e-4 -0.006,-7.3e-4 -0.006,-6.8e-4 -0.006,-6.2e-4 -0.007,-5.8e-4 -0.007,-5.2e-4 -0.007,-4.6e-4 -0.007,-4.1e-4 -0.007,-3.5e-4 -0.007,-3e-4 -0.007,-2.3e-4 -0.007,-1.8e-4 -0.007,-1.1e-4 -0.007,-6e-5 -0.007,10e-6 -0.007,6e-5 -0.007,1.3e-4 -0.007,1.8e-4 -0.007,2.5e-4 -0.007,3e-4 -0.007,3.6e-4 -0.007,4.2e-4 -0.007,4.8e-4 -0.007,5.3e-4 -0.007,5.8e-4 -0.006,6.3e-4 -0.006,6.9e-4 -0.006,7.3e-4 -0.006,7.9e-4 -0.005,8.2e-4 -0.005,8.7e-4 -0.005,9.1e-4 -0.005,9.5e-4 -0.004,9.8e-4 -0.008,0.002 -0.009,0.003 -0.006,0.003 -0.001,0.001 -8.7e-4,0.001 -5e-4,0.001 -1.3e-4,10e-4"
       id="path2333" />
    <path
       transform="matrix(3.7795,0,0,3.7795,-789.9,657.68)"
       d="m 225.12,-165.05 -1.9e-4,-10e-4 -5.6e-4,-0.001 -9.4e-4,-0.001 -0.001,-0.001 -0.006,-0.003 -0.009,-0.003 -0.008,-0.002 -0.004,-9.8e-4 -0.005,-9.4e-4 -0.005,-9.1e-4 -0.005,-8.6e-4 -0.006,-8.2e-4 -0.006,-7.7e-4 -0.006,-7.3e-4 -0.006,-6.8e-4 -0.006,-6.2e-4 -0.007,-5.8e-4 -0.007,-5.2e-4 -0.007,-4.6e-4 -0.007,-4.1e-4 -0.007,-3.5e-4 -0.007,-3e-4 -0.007,-2.3e-4 -0.007,-1.8e-4 -0.007,-1.1e-4 -0.007,-6e-5 -0.007,1e-5 -0.007,6e-5 -0.007,1.3e-4 -0.007,1.8e-4 -0.007,2.5e-4 -0.007,3e-4 -0.007,3.6e-4 -0.007,4.2e-4 -0.007,4.8e-4 -0.007,5.3e-4 -0.007,5.8e-4 -0.006,6.3e-4 -0.006,6.9e-4 -0.006,7.3e-4 -0.006,7.9e-4 -0.005,8.2e-4 -0.005,8.7e-4 -0.005,9.1e-4 -0.005,9.5e-4 -0.004,9.8e-4 -0.008,0.002 -0.009,0.003 -0.006,0.003 -0.001,0.001 -8.7e-4,0.001 -5e-4,0.001 -1.3e-4,0.001"
       id="path2335" />
    <path
       transform="matrix(3.7795,0,0,3.7795,-789.9,657.68)"
       d="m 224.82,-165.04 h -1.7"
       id="path2337" />
    <path
       transform="matrix(3.7795,0,0,3.7795,-789.9,657.68)"
       d="m 229.43,-171.39 v 0.15041"
       id="path2339" />
    <path
       transform="matrix(3.7795,0,0,3.7795,-789.9,657.68)"
       d="m 223.12,-165.05 -1.9e-4,-10e-4 -5.6e-4,-0.001 -9.4e-4,-0.001 -0.001,-0.001 -0.006,-0.003 -0.009,-0.003 -0.008,-0.002 -0.004,-9.8e-4 -0.005,-9.4e-4 -0.005,-9.1e-4 -0.005,-8.6e-4 -0.006,-8.2e-4 -0.006,-7.7e-4 -0.006,-7.3e-4 -0.006,-6.8e-4 -0.006,-6.2e-4 -0.007,-5.8e-4 -0.007,-5.2e-4 -0.007,-4.6e-4 -0.007,-4.1e-4 -0.007,-3.5e-4 -0.007,-3e-4 -0.007,-2.3e-4 -0.007,-1.8e-4 -0.007,-1.1e-4 -0.007,-6e-5 -0.007,1e-5 -0.007,6e-5 -0.007,1.3e-4 -0.007,1.8e-4 -0.007,2.5e-4 -0.007,3e-4 -0.007,3.6e-4 -0.007,4.2e-4 -0.007,4.8e-4 -0.007,5.3e-4 -0.007,5.8e-4 -0.006,6.3e-4 -0.006,6.9e-4 -0.006,7.3e-4 -0.006,7.9e-4 -0.005,8.2e-4 -0.005,8.7e-4 -0.005,9.1e-4 -0.005,9.5e-4 -0.004,9.8e-4 -0.008,0.002 -0.009,0.003 -0.006,0.003 -0.001,0.001 -8.7e-4,0.001 -5e-4,0.001 -1.3e-4,0.001"
       id="path2341" />
    <path
       transform="matrix(3.7795,0,0,3.7795,-789.9,657.68)"
       d="m 220.97,-168.64 h -1.3"
       id="path2343" />
    <path
       transform="matrix(3.7795,0,0,3.7795,-789.9,657.68)"
       d="m 241.6,-170.04 -5.7222,-0.30024"
       id="path2345" />
    <path
       transform="matrix(3.7795,0,0,3.7795,-789.9,657.68)"
       d="m 224.82,-168.64 h -1.7"
       id="path2347" />
    <path
       transform="matrix(3.7795,0,0,3.7795,-789.9,657.68)"
       d="m 222.82,-165.04 h -1.85"
       id="path2349" />
    <path
       transform="matrix(3.7795,0,0,3.7795,-789.9,657.68)"
       d="m 219.67,-165.04 -0.015,6e-5 -0.0149,1.8e-4 -0.0149,3e-4 -0.0148,4.2e-4 -0.0146,5.4e-4 -0.0144,6.6e-4 -0.0142,7.7e-4 -0.014,8.8e-4 -0.0137,0.001 -0.0133,0.001 -0.013,0.001 -0.0126,10e-4 -0.0122,0.001 -0.0117,0.001 -0.0112,0.002 -0.0107,0.002 -0.0102,0.002 -0.01,0.002 -0.009,0.002 -0.016,0.004 -0.007,0.002 -0.012,0.004 -0.005,0.002 -0.008,0.004 -0.003,0.002 -0.002,0.002 -0.001,0.002 -6.9e-4,0.002 -6e-5,0.001"
       id="path2351" />
    <path
       transform="matrix(3.7795,0,0,3.7795,-789.9,657.68)"
       d="m 226.77,-165.04 h -1.65"
       id="path2353" />
    <path
       transform="matrix(3.7795,0,0,3.7795,-789.9,657.68)"
       d="m 230.87,-171.28 v 0.15041"
       id="path2355" />
    <path
       transform="matrix(3.7795,0,0,3.7795,-789.9,657.68)"
       d="m 241.87,-169.83 -3.8e-4,-0.0106 -0.001,-0.0106 -0.002,-0.0105 -0.003,-0.0105 -0.003,-0.0104 -0.004,-0.0102 -0.005,-0.0101 -0.012,-0.02 -0.007,-0.009 -0.016,-0.018 -0.009,-0.009 -0.009,-0.008 -0.01,-0.008 -0.0105,-0.008 -0.011,-0.007 -0.0115,-0.007 -0.012,-0.006 -0.0124,-0.006 -0.0128,-0.006 -0.0132,-0.005 -0.0135,-0.005 -0.0138,-0.004 -0.0141,-0.004 -0.0143,-0.003 -0.0146,-0.003 -0.0147,-0.002 -0.0148,-0.002 -0.014,-9.7e-4"
       id="path2357" />
    <path
       transform="matrix(3.7795,0,0,3.7795,-789.9,657.68)"
       d="m 241.87,-170.12 -3.8e-4,-0.0106 -0.001,-0.0106 -0.002,-0.0105 -0.003,-0.0105 -0.003,-0.0104 -0.004,-0.0102 -0.005,-0.0101 -0.012,-0.02 -0.007,-0.009 -0.016,-0.018 -0.009,-0.009 -0.009,-0.008 -0.01,-0.008 -0.0105,-0.008 -0.011,-0.007 -0.0115,-0.007 -0.012,-0.006 -0.0124,-0.006 -0.0128,-0.006 -0.0132,-0.005 -0.0135,-0.005 -0.0138,-0.004 -0.0141,-0.004 -0.0143,-0.003 -0.0146,-0.003 -0.0147,-0.002 -0.0148,-0.002 -0.014,-9.7e-4"
       id="path2359" />
    <path
       transform="matrix(3.7795,0,0,3.7795,-789.9,657.68)"
       d="m 220.97,-165.04 h -1.3"
       id="path2361" />
    <path
       transform="matrix(3.7795,0,0,3.7795,-789.9,657.68)"
       d="m 219.67,-168.64 -0.015,6e-5 -0.0149,1.8e-4 -0.0149,3e-4 -0.0148,4.2e-4 -0.0146,5.4e-4 -0.0144,6.6e-4 -0.0142,7.7e-4 -0.014,8.8e-4 -0.0137,0.001 -0.0133,0.001 -0.013,10e-4 -0.0126,0.001 -0.0122,0.001 -0.0117,0.001 -0.0112,0.002 -0.0107,0.002 -0.0102,0.002 -0.01,0.002 -0.009,0.002 -0.016,0.004 -0.007,0.002 -0.012,0.004 -0.005,0.002 -0.008,0.004 -0.003,0.002 -0.002,0.002 -0.001,0.002 -6.9e-4,0.002 -6e-5,0.001"
       id="path2363" />
    <path
       transform="matrix(3.7795,0,0,3.7795,-789.9,657.68)"
       d="m 219.67,-168.64 v -0.41954"
       id="path2365" />
    <path
       transform="matrix(3.7795,0,0,3.7795,-789.9,657.68)"
       d="m 234.87,-170.39 -6.5,-0.34105"
       id="path2367" />
    <path
       transform="matrix(3.7795,0,0,3.7795,-789.9,657.68)"
       d="m 226.77,-168.64 h -1.65"
       id="path2369" />
    <path
       transform="matrix(3.7795,0,0,3.7795,-789.9,657.68)"
       d="m 219.67,-165.04 v -3.6"
       id="path2371" />
    <path
       transform="matrix(3.7795,0,0,3.7795,-789.9,657.68)"
       d="m 222.82,-168.64 h -1.85"
       id="path2373" />
    <path
       transform="matrix(3.7795,0,0,3.7795,-789.9,657.68)"
       d="m 225.12,-168.65 -1.9e-4,-0.001 -5.6e-4,-10e-4 -9.4e-4,-0.001 -0.001,-0.001 -0.006,-0.003 -0.009,-0.003 -0.008,-0.002 -0.004,-9.8e-4 -0.005,-9.4e-4 -0.005,-9.1e-4 -0.005,-8.6e-4 -0.006,-8.2e-4 -0.006,-7.7e-4 -0.006,-7.3e-4 -0.006,-6.8e-4 -0.006,-6.2e-4 -0.007,-5.8e-4 -0.007,-5.2e-4 -0.007,-4.6e-4 -0.007,-4.1e-4 -0.007,-3.5e-4 -0.007,-3e-4 -0.007,-2.3e-4 -0.007,-1.8e-4 -0.007,-1.1e-4 -0.007,-6e-5 -0.007,10e-6 -0.007,6e-5 -0.007,1.3e-4 -0.007,1.8e-4 -0.007,2.5e-4 -0.007,3e-4 -0.007,3.6e-4 -0.007,4.2e-4 -0.007,4.8e-4 -0.007,5.3e-4 -0.007,5.8e-4 -0.006,6.3e-4 -0.006,6.9e-4 -0.006,7.3e-4 -0.006,7.9e-4 -0.005,8.2e-4 -0.005,8.7e-4 -0.005,9.1e-4 -0.005,9.5e-4 -0.004,9.8e-4 -0.008,0.002 -0.009,0.003 -0.006,0.003 -0.001,0.001 -8.7e-4,0.001 -5e-4,0.001 -1.3e-4,10e-4"
       id="path2375" />
    <path
       transform="matrix(3.7795,0,0,3.7795,-789.9,657.68)"
       d="m 226.77,-162.8 h 1.6"
       id="path2377" />
    <path
       transform="matrix(3.7795,0,0,3.7795,-789.9,657.68)"
       d="m 226.77,-170.73 h 1.6"
       id="path2379" />
    <path
       transform="matrix(3.7795,0,0,3.7795,-789.9,657.68)"
       d="m 241.87,-163.41 -3.8e-4,0.0106 -0.001,0.0106 -0.002,0.0105 -0.003,0.0105 -0.003,0.0104 -0.004,0.0102 -0.005,0.0101 -0.012,0.02 -0.007,0.009 -0.016,0.018 -0.009,0.009 -0.009,0.008 -0.01,0.008 -0.0105,0.008 -0.011,0.007 -0.0115,0.007 -0.012,0.006 -0.0124,0.006 -0.0128,0.006 -0.0132,0.005 -0.0135,0.005 -0.0138,0.004 -0.0141,0.004 -0.0143,0.003 -0.0146,0.003 -0.0147,0.002 -0.0148,0.002 -0.014,9.7e-4"
       id="path2381" />
  </g>
  <path
     transform="matrix(0.99997,0,0,0.99997,272.07526,-200.7763)"
     d="m 273.47,198.92 h 24.781 l -32.709,84.795 h -24.781 z"
     fill="#ffffff"
     stroke="#000000"
     stroke-miterlimit="0"
     id="path2385" />
  <rect
     transform="matrix(0.44871,0,0,0.99997,430.68526,-200.7763)"
     x="251.5"
     y="195.92"
     width="60.713001"
     height="4.8369002"
     fill="#ffffff"
     stroke-width="1.4928"
     id="rect2387" />
  <rect
     transform="matrix(0.4736,0,0,0.99997,392.18526,-115.3803)"
     x="251.5"
     y="195.92"
     width="60.713001"
     height="4.8369002"
     fill="#ffffff"
     stroke-width="1.4531"
     id="rect2483" />
  <g
     transform="matrix(0.61519,0,0,0.60936,311.75526,-23.432301)"
     stroke="#000000"
     stroke-linejoin="round"
     id="g2499">
    <path
       transform="matrix(0.99984,0,0,0.99984,311.64,-158.85)"
       d="m 539.94,273.09 91.216,-0.65375"
       fill="#ffffff"
       stroke-width="13.925"
       id="path2491" />
    <path
       transform="matrix(0.99984,0,0,0.99984,311.64,-158.85)"
       d="m 603.13,272.81 44.557,-0.1868"
       fill="none"
       stroke-linecap="round"
       stroke-width="4.9201px"
       id="path2493" />
    <path
       transform="matrix(0.99984,0,0,0.99984,311.64,-158.85)"
       d="m 539.72,255.12 91.433,-0.56035"
       fill="none"
       stroke-width="13.925"
       id="path2495" />
    <path
       transform="matrix(0.99984,0,0,0.99984,311.64,-158.85)"
       d="m 603.03,254.93 44.651,-0.18678"
       fill="#ffffff"
       stroke-linecap="round"
       stroke-width="4.9201"
       id="path2497" />
  </g>
  <path
     transform="translate(-48.52274,-56.993601)"
     d="m 883.94,86.504 0.13091,21.906"
     fill="none"
     stroke="#000000"
     stroke-width="1px"
     id="path2501" />
  <g
     transform="matrix(6.0516,0,0,6.0582,-1275.3457,1179.4388)"
     fill="none"
     stroke="#000000"
     stroke-linecap="round"
     stroke-linejoin="round"
     stroke-width="0.093632"
     id="g2663">
    <path
       d="m 353.27,-171.4 v 0.0894"
       id="path2503" />
    <path
       d="m 350.96,-164.46 h 6.8238"
       id="path2505" />
    <path
       d="m 354.15,-171.41 v 0.0918"
       id="path2507" />
    <path
       d="m 357.78,-164.46 a 0.5,0.5 0 0 0 0.49348,-0.58046"
       id="path2509" />
    <path
       d="m 351.05,-168.64 -0.58696,3.6"
       id="path2511" />
    <circle
       transform="scale(1,-1)"
       cx="356.22"
       cy="166.75999"
       r="0.55000001"
       id="circle2513" />
    <path
       d="m 354.67,-171.38 c -0.0703,0 -0.14305,-4.7e-4 -0.21105,-0.002 -0.0515,-0.001 -0.10116,-0.003 -0.14516,-0.005 -0.0395,-0.002 -0.0725,-0.004 -0.0986,-0.007 -0.0311,-0.004 -0.0501,-0.007 -0.0609,-0.0116"
       id="path2515" />
    <path
       d="m 356.77,-171.33 v 0.0186"
       id="path2517" />
    <path
       d="m 358.33,-170.73 c 0.78057,0.77787 1.3238,1.7921 1.5386,2.8718 0.21488,1.0796 0.10143,2.2246 -0.31981,3.2424 -0.28082,0.67855 -0.69844,1.3006 -1.2188,1.8192"
       id="path2519" />
    <path
       d="m 350.42,-162.8 c -0.52038,-0.51858 -0.93727,-1.1408 -1.2189,-1.8192 -0.28167,-0.67839 -0.42812,-1.413 -0.42812,-2.1475 0,-0.73457 0.14646,-1.4691 0.42813,-2.1475 0.28167,-0.67837 0.69855,-1.3006 1.2189,-1.8191 0.37007,-0.36878 0.88932,-0.58333 1.4118,-0.58333"
       id="path2521" />
    <path
       d="m 356.91,-171.31 c 0.52244,0 1.0417,0.21455 1.4118,0.58333"
       id="path2523" />
    <path
       d="m 351.98,-171.4 v 0.0894"
       id="path2525" />
    <path
       d="m 354.67,-171.38 v 0.0661"
       id="path2527" />
    <circle
       transform="scale(1,-1)"
       cx="352.51999"
       cy="166.75999"
       r="0.80000001"
       id="circle2529" />
    <path
       d="m 354.15,-171.41 h -0.18847"
       id="path2531" />
    <path
       d="m 353.27,-171.4 h -1.2881"
       id="path2533" />
    <path
       d="m 357.69,-168.64 a 0.5,0.5 0 0 0 -0.49348,-0.41954"
       id="path2535" />
    <path
       d="m 351.55,-169.06 a 0.5,0.5 0 0 0 -0.49348,0.41954"
       id="path2537" />
    <path
       d="m 355.1,-171.36 v 0.0465"
       id="path2539" />
    <path
       d="m 358.28,-165.04 -0.58696,-3.6"
       id="path2541" />
    <path
       d="m 357.2,-169.06 h -5.6498"
       id="path2543" />
    <path
       d="m 355.88,-171.41 c -0.0981,0 -0.19536,9.3e-4 -0.2888,0.003 -0.0879,0.002 -0.16841,0.005 -0.24147,0.009"
       id="path2545" />
    <circle
       transform="scale(1,-1)"
       cx="352.51999"
       cy="166.75999"
       r="0.55000001"
       id="circle2547" />
    <path
       d="m 353.96,-171.41 v 0.0918"
       id="path2549" />
    <path
       d="m 356.77,-171.33 c 0,-0.011 -0.0193,-0.0221 -0.0712,-0.0325 -0.0391,-0.008 -0.0951,-0.0148 -0.17051,-0.0209"
       id="path2551" />
    <path
       d="m 350.47,-165.04 a 0.5,0.5 0 0 0 0.49348,0.58046"
       id="path2553" />
    <circle
       transform="scale(1,-1)"
       cx="356.22"
       cy="166.75999"
       r="0.80000001"
       id="circle2555" />
    <path
       d="m 356.52,-171.39 c -0.0395,-0.003 -0.083,-0.006 -0.13097,-0.009 -0.0473,-0.002 -0.0978,-0.005 -0.15144,-0.006 -0.11534,-0.004 -0.23884,-0.005 -0.36359,-0.005"
       id="path2557" />
    <path
       d="m 355.35,-171.39 c -0.0363,0.002 -0.0698,0.004 -0.0998,0.007 -0.0287,0.002 -0.0537,0.005 -0.0745,0.008 -0.0407,0.006 -0.0633,0.0116 -0.0718,0.0179"
       id="path2559" />
    <path
       d="m 357.89,-168.68 a 0.7,0.7 0 0 0 -0.69088,-0.58736"
       id="path2561" />
    <path
       d="m 350.27,-165.08 a 0.7,0.7 0 0 0 0.69087,0.81264"
       id="path2563" />
    <path
       d="m 350.27,-165.08 0.58695,-3.6"
       id="path2565" />
    <path
       d="m 351.55,-169.26 a 0.7,0.7 0 0 0 -0.69088,0.58736"
       id="path2567" />
    <path
       d="m 357.89,-168.68 0.58695,3.6"
       id="path2569" />
    <path
       d="m 357.78,-164.26 h -6.8238"
       id="path2571" />
    <path
       d="m 351.55,-169.26 h 5.6498"
       id="path2573" />
    <path
       d="m 357.78,-164.26 a 0.7,0.7 0 0 0 0.69087,-0.81264"
       id="path2575" />
    <path
       d="m 350.42,-162.8 a 2,2 0 0 0 1.4118,0.58333"
       id="path2577" />
    <path
       d="m 356.91,-162.21 a 2,2 0 0 0 1.4118,-0.58333"
       id="path2579" />
    <path
       d="m 351.83,-171.31 a 2,2 0 0 0 -1.4118,0.58333"
       id="path2581" />
    <path
       d="m 356.91,-171.31 h -5.0823"
       id="path2583" />
    <path
       d="m 350.42,-170.73 a 5.6,5.6 0 0 0 0,7.9333"
       id="path2585" />
    <path
       d="m 351.83,-162.21 h 5.0823"
       id="path2587" />
    <path
       d="m 358.33,-170.73 a 2,2 0 0 0 -1.4118,-0.58333"
       id="path2589" />
    <path
       d="m 358.33,-162.8 a 5.6,5.6 0 0 0 0,-7.9333"
       id="path2591" />
    <path
       d="m 355.35,-171.39 v 0.0793"
       id="path2593" />
    <path
       d="m 350.42,-165.05 a 0.55,0.55 0 0 0 0.54283,0.6385"
       id="path2595" />
    <path
       d="m 350.96,-164.46 v -0.3"
       id="path2597" />
    <path
       d="m 357.89,-168.68 -0.14805,0.0241"
       id="path2599" />
    <path
       d="m 351.55,-169.11 h 5.6498"
       id="path2601" />
    <path
       d="m 357.78,-164.41 a 0.55,0.55 0 0 0 0.54283,-0.6385"
       id="path2603" />
    <path
       d="m 356.52,-171.39 v 0.072"
       id="path2605" />
    <path
       d="m 358.33,-165.05 0.14804,-0.0241"
       id="path2607" />
    <path
       d="m 350.96,-164.41 v 0.15"
       id="path2609" />
    <path
       d="m 350.76,-165 0.58696,-3.6"
       id="path2611" />
    <path
       d="m 351.55,-169.11 a 0.55,0.55 0 0 0 -0.54283,0.4615"
       id="path2613" />
    <path
       d="m 357.98,-165 0.29609,-0.0483"
       id="path2615" />
    <path
       d="m 357.78,-164.76 a 0.2,0.2 0 0 0 0.19739,-0.23218"
       id="path2617" />
    <path
       d="m 351.55,-168.76 v -0.3"
       id="path2619" />
    <path
       d="m 357.78,-164.41 h -6.8238"
       id="path2621" />
    <path
       d="m 357.39,-168.6 0.58696,3.6"
       id="path2623" />
    <path
       d="m 351.55,-169.11 v -0.15"
       id="path2625" />
    <path
       d="m 357.78,-164.46 v -0.3"
       id="path2627" />
    <path
       d="m 351.55,-168.76 h 5.6498"
       id="path2629" />
    <path
       d="m 350.76,-165 a 0.2,0.2 0 0 0 0.19739,0.23218"
       id="path2631" />
    <path
       d="m 357.74,-168.65 a 0.55,0.55 0 0 0 -0.54283,-0.4615"
       id="path2633" />
    <path
       d="m 357.2,-169.11 v -0.15"
       id="path2635" />
    <path
       d="m 357.78,-164.41 v 0.15"
       id="path2637" />
    <path
       d="m 357.39,-168.6 0.29609,-0.0483"
       id="path2639" />
    <path
       d="m 351.05,-168.64 0.29609,0.0483"
       id="path2641" />
    <path
       d="m 350.42,-165.05 0.58696,-3.6"
       id="path2643" />
    <path
       d="m 355.88,-171.41 v 0.0918"
       id="path2645" />
    <path
       d="m 357.78,-164.76 h -6.8238"
       id="path2647" />
    <path
       d="m 350.42,-165.05 -0.14804,-0.0241"
       id="path2649" />
    <path
       d="m 357.2,-168.76 v -0.3"
       id="path2651" />
    <path
       d="m 357.39,-168.6 a 0.2,0.2 0 0 0 -0.19739,-0.16782"
       id="path2653" />
    <path
       d="m 357.74,-168.65 0.58696,3.6"
       id="path2655" />
    <path
       d="m 351.55,-168.76 a 0.2,0.2 0 0 0 -0.19739,0.16782"
       id="path2657" />
    <path
       d="m 350.47,-165.04 0.29609,0.0483"
       id="path2659" />
    <path
       d="m 351,-168.65 -0.14805,-0.0241"
       id="path2661" />
  </g>
</svg>
