<?xml version="1.0" encoding="UTF-8" standalone="no"?>
<svg
   width="396.31662"
   height="66.256378"
   version="1.1"
   id="svg2222"
   sodipodi:docname="desenhotecnico.svg"
   inkscape:version="1.2.2 (732a01da63, 2022-12-09)"
   xmlns:inkscape="http://www.inkscape.org/namespaces/inkscape"
   xmlns:sodipodi="http://sodipodi.sourceforge.net/DTD/sodipodi-0.dtd"
   xmlns="http://www.w3.org/2000/svg"
   xmlns:svg="http://www.w3.org/2000/svg">
  <defs
     id="defs2226" />
  <sodipodi:namedview
     id="namedview2224"
     pagecolor="#505050"
     bordercolor="#ffffff"
     borderopacity="1"
     inkscape:showpageshadow="0"
     inkscape:pageopacity="0"
     inkscape:pagecheckerboard="1"
     inkscape:deskcolor="#505050"
     showgrid="false"
     inkscape:zoom="0.834386"
     inkscape:cx="177.37594"
     inkscape:cy="191.75777"
     inkscape:window-width="1920"
     inkscape:window-height="1009"
     inkscape:window-x="-8"
     inkscape:window-y="-8"
     inkscape:window-maximized="1"
     inkscape:current-layer="svg2222" />
  <g
     transform="matrix(4.6649,0,0,4.6669,-435.78213,581.19863)"
     fill="none"
     stroke="#000000"
     stroke-linecap="round"
     stroke-linejoin="round"
     stroke-width="0.1215"
     id="g1844">
    <path
       d="m 109.6,-124.47 h -2.9e-4"
       id="path1676" />
    <path
       d="m 113.35,-121.76 -5.5e-4,-0.0125 -0.001,-0.0125 -0.002,-0.0124 -0.002,-0.0123 -0.003,-0.0121 -0.004,-0.012 -0.004,-0.0118 -0.005,-0.0116 -0.005,-0.0113 -0.006,-0.011 -0.006,-0.0107 -0.007,-0.0104 -0.007,-0.01 -0.008,-0.01 -0.008,-0.009 -0.009,-0.009 -0.009,-0.008 -0.01,-0.008 -0.0102,-0.007 -0.0105,-0.007 -0.0108,-0.006 -0.0111,-0.006 -0.0114,-0.005 -0.0117,-0.005 -0.0119,-0.004 -0.0121,-0.003 -0.0122,-0.003 -0.0123,-0.002 -0.0124,-0.001 -0.0125,-8.7e-4 -0.0112,-2.5e-4"
       id="path1678" />
    <path
       d="m 97.358,-124.47 h -2.86e-4"
       id="path1680" />
    <path
       d="m 113.48,-110.65 v -4.0536"
       id="path1682" />
    <path
       d="m 95.518,-122.41 a 4.6789,4.6789 0 0 0 -0.10115,0.24863"
       id="path1684" />
    <path
       d="m 111.78,-122 c -0.0325,0 -0.0647,-0.006 -0.0948,-0.0187 -0.03,-0.0123 -0.0572,-0.0304 -0.0803,-0.0531 -0.0128,-0.0127 -0.0242,-0.0267 -0.034,-0.0418 -0.01,-0.0151 -0.0179,-0.0313 -0.0242,-0.0482"
       id="path1686" />
    <path
       d="m 113.23,-110.4 0.0125,-3.2e-4 0.0125,-9.4e-4 0.0124,-0.002 0.0123,-0.002 0.0122,-0.003 0.0121,-0.003 0.0119,-0.004 0.0116,-0.005 0.0114,-0.005 0.0111,-0.006 0.0108,-0.006 0.0105,-0.007 0.0101,-0.007 0.01,-0.008 0.009,-0.008 0.009,-0.009 0.008,-0.009 0.008,-0.01 0.007,-0.01 0.007,-0.0104 0.006,-0.0107 0.006,-0.011 0.005,-0.0113 0.005,-0.0116 0.004,-0.0118 0.004,-0.012 0.003,-0.0122 0.002,-0.0123 0.002,-0.0124 0.001,-0.0125 4.8e-4,-0.0125 2e-5,-0.003"
       id="path1688" />
    <path
       d="M 95.184,-122 H 93.8594"
       id="path1690" />
    <path
       d="m 113.1,-122 h -1.3246"
       id="path1692" />
    <path
       d="m 97.358,-124.47 a 0.25,0.25 0 0 0 -0.13729,0.0412"
       id="path1694" />
    <path
       d="m 93.478,-114.7 v 4.0536"
       id="path1696" />
    <path
       d="m 93.61,-121.76 -0.1317,7.0598"
       id="path1698" />
    <path
       d="m 95.417,-122.17 c -0.01139,0.0305 -0.02861,0.0584 -0.05073,0.0823 -0.02203,0.0238 -0.04848,0.043 -0.07788,0.0566 -0.01635,0.008 -0.03347,0.0133 -0.05106,0.0172 -0.01761,0.004 -0.03558,0.006 -0.05361,0.006"
       id="path1700" />
    <path
       d="M 109.6,-124.47 H 97.354"
       id="path1702" />
    <path
       d="m 93.478,-110.65 3.14e-4,0.0125 9.4e-4,0.0125 0.0016,0.0124 0.0022,0.0123 0.0028,0.0122 0.0034,0.012 0.004,0.0119 0.0046,0.0116 0.0052,0.0114 0.0057,0.0111 0.0063,0.0108 0.0068,0.0105 0.0073,0.0101 0.0078,0.01 0.0083,0.009 0.0088,0.009 0.0092,0.008 0.0096,0.008 0.01002,0.007 0.01038,0.007 0.01072,0.006 0.01104,0.006 0.01132,0.005 0.01158,0.005 0.0118,0.004 0.012,0.004 0.01217,0.003 0.01231,0.002 0.01241,0.002 0.01249,0.001 0.01253,4.7e-4 0.0033,3e-5"
       id="path1704" />
    <path
       d="m 97.22,-124.43 a 4.6789,4.6789 0 0 0 -1.7021,2.0168"
       id="path1706" />
    <path
       d="m 93.859,-122 -0.01254,3.1e-4 -0.0125,9.4e-4 -0.01243,0.002 -0.01234,0.002 -0.01221,0.003 -0.01205,0.003 -0.01186,0.004 -0.01164,0.005 -0.01139,0.005 -0.01111,0.006 -0.01081,0.006 -0.01048,0.007 -0.01012,0.007 -0.0097,0.008 -0.0093,0.008 -0.0089,0.009 -0.0084,0.009 -0.008,0.01 -0.0075,0.01 -0.007,0.0104 -0.0064,0.0107 -0.0059,0.011 -0.0053,0.0113 -0.0048,0.0116 -0.0042,0.0118 -0.0036,0.012 -0.003,0.0122 -0.0023,0.0123 -0.0017,0.0124 -0.0011,0.0125 -4.6e-4,0.0112"
       id="path1708" />
    <path
       d="m 109.74,-124.43 a 0.25,0.25 0 0 0 -0.13729,-0.0412"
       id="path1710" />
    <path
       d="m 113.48,-114.7 -0.1317,-7.0598"
       id="path1712" />
    <path
       d="m 93.727,-110.4 h 19.507"
       id="path1714" />
    <path
       d="m 111.54,-122.17 a 4.6789,4.6789 0 0 0 -0.10115,-0.24863"
       id="path1716" />
    <path
       d="m 111.44,-122.41 a 4.6789,4.6789 0 0 0 -1.7021,-2.0168"
       id="path1718" />
    <path
       d="m 93.657,-110.82 -0.17879,0.17879"
       id="path1720" />
    <path
       d="m 95.184,-122 0.12576,0.17879"
       id="path1722" />
    <path
       d="m 109.6,-124.47 -0.0543,0.17879"
       id="path1724" />
    <path
       d="m 97.412,-124.29 -0.01249,3.4e-4 -0.01246,9.6e-4 -0.0124,0.002 -0.0123,0.002 -0.01218,0.003 -0.01202,0.003 -0.01184,0.004 -0.01163,0.005 -0.01138,0.005 -0.01111,0.006 -0.01081,0.006 -0.0093,0.006"
       id="path1726" />
    <path
       d="m 97.49,-123.8 -0.07782,-0.49809"
       id="path1728" />
    <path
       d="m 111.42,-121.99 -0.47095,0.16221"
       id="path1730" />
    <path
       d="m 93.786,-121.58 -0.1284,6.8827"
       id="path1732" />
    <path
       d="m 97.358,-124.47 0.05433,0.17879"
       id="path1734" />
    <path
       d="m 112.68,-121.33 0.49345,-0.25369"
       id="path1736" />
    <path
       d="m 110.95,-121.83 a 4.002,4.002 0 0 0 -1.474,-1.9649"
       id="path1738" />
    <path
       d="m 112.93,-121.82 -0.24445,0.49809"
       id="path1740" />
    <path
       d="m 113.3,-114.7 -0.1284,-6.8827"
       id="path1742" />
    <path
       d="m 97.272,-124.25 a 4.5001,4.5001 0 0 0 -1.7273,2.2578"
       id="path1744" />
    <path
       d="m 109.69,-124.25 -0.0105,-0.007 -0.0109,-0.006 -0.0111,-0.006 -0.0114,-0.005 -0.0117,-0.005 -0.0119,-0.004 -0.012,-0.003 -0.0122,-0.003 -0.0123,-0.002 -0.0124,-0.002 -0.0125,-8.9e-4 -0.011,-2.6e-4"
       id="path1746" />
    <path
       d="m 94.155,-111.07 -0.4981,0.24905"
       id="path1748" />
    <path
       d="m 93.906,-110.58 0.24905,-0.4981"
       id="path1750" />
    <path
       d="M 95.309,-121.82 H 94.0342"
       id="path1752" />
    <path
       d="m 93.657,-110.82 4.05e-4,0.0125 0.001,0.0124 0.0016,0.0124 0.0023,0.0123 0.0029,0.0121 0.0035,0.012 0.0041,0.0118 0.0046,0.0116 0.0052,0.0113 0.0058,0.0111 0.0063,0.0108 0.0069,0.0105 0.0074,0.0101 0.0079,0.01 0.0083,0.009 0.0088,0.009 0.0092,0.008 0.0096,0.008 0.01,0.007 0.01036,0.007 0.01069,0.006 0.011,0.006 0.01127,0.005 0.01153,0.005 0.01175,0.004 0.01194,0.004 0.0121,0.003 0.01223,0.002 0.01233,0.002 0.0124,0.001 0.01244,5.7e-4 0.0033,5e-5"
       id="path1754" />
    <path
       d="m 94.279,-121.33 -0.24445,-0.49809"
       id="path1756" />
    <path
       d="m 113.48,-110.65 -0.17879,-0.17879"
       id="path1758" />
    <path
       d="m 109.47,-123.8 c 0.0138,-0.028 0.0276,-0.0562 0.0412,-0.084 0.0217,-0.0445 0.0425,-0.0877 0.0619,-0.12824 0.0311,-0.0649 0.0581,-0.1221 0.0781,-0.16463 0.0206,-0.0438 0.0333,-0.0714 0.0365,-0.0782"
       id="path1760" />
    <path
       d="m 94.035,-121.82 -0.01245,4.1e-4 -0.01242,0.001 -0.01235,0.002 -0.01226,0.002 -0.01214,0.003 -0.01198,0.003 -0.0118,0.004 -0.01159,0.005 -0.01134,0.005 -0.01107,0.006 -0.01078,0.006 -0.01045,0.007 -0.0101,0.007 -0.0097,0.008 -0.0093,0.008 -0.0089,0.009 -0.0084,0.009 -0.008,0.01 -0.0075,0.01 -0.007,0.0104 -0.0065,0.0107 -0.0059,0.011 -0.0054,0.0113 -0.0048,0.0115 -0.0042,0.0118 -0.0036,0.0119 -0.003,0.0121 -0.0024,0.0122 -0.0018,0.0123 -0.0012,0.0124 -5.39e-4,0.0111"
       id="path1762" />
    <path
       d="m 113.3,-110.82 v -3.8731"
       id="path1764" />
    <path
       d="m 94.155,-114.69 0.12375,-6.6337"
       id="path1766" />
    <path
       d="m 93.786,-121.58 0.49345,0.25369"
       id="path1768" />
    <path
       d="m 113.18,-121.58 -6.4e-4,-0.0124 -0.001,-0.0124 -0.002,-0.0123 -0.003,-0.0122 -0.003,-0.0121 -0.004,-0.0119 -0.004,-0.0117 -0.005,-0.0115 -0.005,-0.0112 -0.006,-0.011 -0.006,-0.0107 -0.007,-0.0103 -0.016,-0.02 -0.008,-0.009 -0.009,-0.009 -0.009,-0.008 -0.01,-0.008 -0.0101,-0.007 -0.0105,-0.007 -0.0108,-0.006 -0.0111,-0.006 -0.0114,-0.005 -0.0116,-0.005 -0.0118,-0.004 -0.012,-0.003 -0.0121,-0.003 -0.0123,-0.002 -0.0124,-0.002 -0.0124,-9.6e-4 -0.0111,-3.3e-4"
       id="path1770" />
    <path
       d="m 109.74,-124.43 -0.0517,0.18053"
       id="path1772" />
    <path
       d="m 111.42,-121.99 c 0.011,0.0331 0.0291,0.0639 0.0527,0.0895 0.0229,0.0248 0.0512,0.0449 0.0821,0.0583 0.0193,0.008 0.0399,0.0143 0.0609,0.0174 0.0132,0.002 0.0265,0.003 0.0397,0.003"
       id="path1774" />
    <path
       d="m 94.155,-111.07 v -3.6194"
       id="path1776" />
    <path
       d="m 111.65,-121.82 v 0.49809"
       id="path1778" />
    <path
       d="m 113.06,-110.58 0.0125,-4e-4 0.0124,-0.001 0.0246,-0.004 0.0121,-0.003 0.012,-0.003 0.0118,-0.004 0.0116,-0.005 0.0113,-0.005 0.0111,-0.006 0.0108,-0.006 0.0104,-0.007 0.0101,-0.007 0.01,-0.008 0.009,-0.008 0.009,-0.009 0.008,-0.009 0.016,-0.02 0.007,-0.0104 0.007,-0.0107 0.006,-0.011 0.005,-0.0113 0.005,-0.0115 0.004,-0.0117 0.004,-0.0119 0.003,-0.0121 0.002,-0.0122 0.002,-0.0123 0.001,-0.0124 5.7e-4,-0.0124 5e-5,-0.003"
       id="path1780" />
    <path
       d="m 93.61,-121.76 0.17549,0.17879"
       id="path1782" />
    <path
       d="m 97.22,-124.43 0.05174,0.18053"
       id="path1784" />
    <path
       d="m 97.49,-123.8 a 4.002,4.002 0 0 0 -1.474,1.9649"
       id="path1786" />
    <path
       d="m 94.279,-121.33 h 1.0304"
       id="path1788" />
    <path
       d="m 109.47,-123.8 0.0778,-0.49809"
       id="path1790" />
    <path
       d="m 112.68,-121.33 0.12375,6.6337"
       id="path1792" />
    <path
       d="m 95.309,-121.33 c 0.03938,0 0.07906,-0.003 0.11831,-0.009 0.06279,-0.0101 0.12418,-0.0281 0.182,-0.0535 0.09251,-0.0406 0.1776,-0.10094 0.24643,-0.17487 0.07098,-0.0762 0.12583,-0.16779 0.15968,-0.26608"
       id="path1794" />
    <path
       d="m 111.54,-122.17 -0.12794,0.1727"
       id="path1796" />
    <path
       d="m 93.906,-110.58 h 19.15"
       id="path1798" />
    <path
       d="m 110.95,-121.83 c 0.0339,0.0983 0.0887,0.18985 0.15969,0.26608 0.0688,0.0739 0.15391,0.13431 0.24642,0.17487 0.0578,0.0254 0.11921,0.0434 0.18201,0.0535 0.0392,0.006 0.0789,0.009 0.1183,0.009"
       id="path1800" />
    <path
       d="m 97.49,-123.8 h 11.982"
       id="path1802" />
    <path
       d="m 111.78,-122 -0.12576,0.17879"
       id="path1804" />
    <path
       d="m 113.3,-110.82 -0.4981,-0.24905"
       id="path1806" />
    <path
       d="m 113.1,-122 -0.17548,0.17879"
       id="path1808" />
    <path
       d="m 112.81,-111.07 0.24905,0.4981"
       id="path1810" />
    <path
       d="m 112.81,-114.69 v 3.6194"
       id="path1812" />
    <path
       d="M 109.55,-124.29 H 97.412"
       id="path1814" />
    <path
       d="m 93.727,-110.4 0.17879,-0.17879"
       id="path1816" />
    <path
       d="m 113.06,-110.58 0.17879,0.17879"
       id="path1818" />
    <path
       d="m 95.309,-121.82 c 0.01323,1.4e-4 0.02655,-7.7e-4 0.03971,-0.003 0.02106,-0.003 0.04161,-0.009 0.06094,-0.0174 0.03093,-0.0134 0.05929,-0.0335 0.08214,-0.0583 0.02357,-0.0255 0.04166,-0.0563 0.05268,-0.0895"
       id="path1820" />
    <path
       d="m 95.309,-121.33 v -0.49809"
       id="path1822" />
    <path
       d="m 97.49,-123.8 c -0.01378,-0.028 -0.0276,-0.0562 -0.04116,-0.084 -0.02169,-0.0445 -0.04252,-0.0877 -0.06195,-0.12824 -0.03109,-0.0649 -0.0581,-0.1221 -0.07806,-0.16463 -0.02058,-0.0438 -0.03335,-0.0714 -0.03653,-0.0782"
       id="path1824" />
    <path
       d="m 111.42,-121.99 a 4.5001,4.5001 0 0 0 -1.7273,-2.2578"
       id="path1826" />
    <path
       d="m 95.417,-122.17 0.12794,0.1727"
       id="path1828" />
    <path
       d="M 112.81,-111.07 H 94.159"
       id="path1830" />
    <path
       d="m 111.65,-121.33 h 1.0304"
       id="path1832" />
    <path
       d="m 94.035,-121.82 -0.17549,-0.17879"
       id="path1834" />
    <path
       d="m 93.657,-114.7 v 3.8731"
       id="path1836" />
    <path
       d="m 96.016,-121.83 -0.47095,-0.16221"
       id="path1838" />
    <path
       d="m 113.18,-121.58 0.17549,-0.17879"
       id="path1840" />
    <path
       d="m 112.93,-121.82 h -1.2748"
       id="path1842" />
  </g>
  <g
     transform="matrix(4.6649,0,0,4.6669,-261.91781,441.48816)"
     id="g2078"
     style="fill:none;stroke:#000000;stroke-width:0.1215;stroke-linecap:round;stroke-linejoin:round">
    <path
       d="m 109.6,-82.964 h -2.9e-4"
       id="path1882" />
    <path
       d="m 107.11,-90.964 h -0.21555"
       id="path1884" />
    <path
       d="m 109.74,-82.964 h 2.5e-4"
       id="path1886" />
    <path
       d="m 113.35,-82.964 h -0.24901"
       id="path1888" />
    <path
       d="m 97.358,-82.964 h -2.86e-4"
       id="path1890" />
    <path
       d="M 97.22,-85.364 H 95.5179"
       id="path1892" />
    <path
       d="m 109.74,-85.364 h -0.13783"
       id="path1894" />
    <path
       d="m 112.81,-80.464 a 0.5,0.5 0 0 0 0.4981,-0.45642"
       id="path1896" />
    <path
       d="m 109.47,-80.464 h 1.474"
       id="path1898" />
    <path
       d="M 97.358,-85.364 H 97.22017"
       id="path1900" />
    <path
       d="M 95.518,-85.364 H 95.50526"
       id="path1902" />
    <path
       d="m 113.48,-82.964 -0.17879,2.0436"
       id="path1904" />
    <path
       d="m 95.417,-82.964 h 0.10115"
       id="path1906" />
    <path
       d="m 111.78,-82.964 h -0.23329"
       id="path1908" />
    <path
       d="m 94.155,-80.464 h 0.12375"
       id="path1910" />
    <path
       d="M 95.184,-82.964 H 93.8594"
       id="path1912" />
    <path
       d="m 113.1,-82.964 h -1.3246"
       id="path1914" />
    <path
       d="m 106.89,-90.964 h -6.8238"
       id="path1916" />
    <path
       d="m 93.657,-80.92 a 0.5,0.5 0 0 0 0.4981,0.45642"
       id="path1918" />
    <path
       d="M 109.6,-85.364 H 97.354"
       id="path1920" />
    <path
       d="m 97.22,-82.964 h 0.13729"
       id="path1922" />
    <path
       d="M 96.016,-80.464 H 97.49"
       id="path1924" />
    <path
       d="M 93.61,-82.964 H 93.4783"
       id="path1926" />
    <path
       d="M 95.417,-82.964 H 95.18372"
       id="path1928" />
    <path
       d="M 109.6,-82.964 H 97.354"
       id="path1930" />
    <path
       d="m 95.518,-82.964 h 1.7021"
       id="path1932" />
    <path
       d="m 94.279,-80.464 h 1.0304"
       id="path1934" />
    <path
       d="M 93.859,-82.964 H 93.61"
       id="path1936" />
    <path
       d="m 112.68,-80.464 h 0.12375"
       id="path1938" />
    <path
       d="m 95.309,-80.464 h 0.70642"
       id="path1940" />
    <path
       d="m 110.95,-80.464 h 0.70642"
       id="path1942" />
    <path
       d="m 109.6,-82.964 h 0.13729"
       id="path1944" />
    <path
       d="m 97.49,-80.464 h 11.982"
       id="path1946" />
    <path
       d="m 97.22,-82.964 h 2.52e-4"
       id="path1948" />
    <path
       d="M 100.07,-90.964 H 99.85445"
       id="path1950" />
    <path
       d="m 113.48,-82.964 h -0.1317"
       id="path1952" />
    <path
       d="m 93.478,-82.964 0.17879,2.0436"
       id="path1954" />
    <path
       d="m 111.44,-82.964 h 0.10115"
       id="path1956" />
    <path
       d="m 111.46,-85.364 h -0.0127"
       id="path1958" />
    <path
       d="m 109.74,-82.964 h 1.7021"
       id="path1960" />
    <path
       d="m 111.65,-80.464 h 1.0304"
       id="path1962" />
    <path
       d="m 111.44,-85.364 h -1.7021"
       id="path1964" />
    <path
       d="m 99.853,-90.964 a 0.3,0.3 0 0 0 -0.29995,0.29476"
       id="path1966" />
    <path
       d="m 95.505,-82.964 v -2.4"
       id="path1968" />
    <path
       d="m 107.41,-90.669 a 0.3,0.3 0 0 0 -0.29995,-0.29476"
       id="path1970" />
    <path
       d="m 111.46,-82.964 v -2.4"
       id="path1972" />
    <path
       d="m 107.41,-90.669 0.0926,5.3052"
       id="path1974" />
    <path
       d="m 99.554,-90.669 -0.0926,5.3052"
       id="path1976" />
    <path
       d="m 106.89,-85.364 v -5.3052"
       id="path1978" />
    <path
       d="m 95.184,-82.964 c 0.0019,0.0308 0.0037,0.0616 0.0056,0.0923 0.01164,0.19146 0.02332,0.38292 0.03504,0.57438 0.0073,0.11966 0.01467,0.23933 0.02204,0.35898 0.0046,0.07479 0.0092,0.14958 0.01383,0.22436 0.0046,0.07479 0.0092,0.14957 0.01387,0.22436 0.0074,0.11966 0.01483,0.23931 0.02228,0.35897 0.0044,0.07006 0.0087,0.14012 0.0131,0.21017"
       id="path1980" />
    <path
       d="m 109.6,-82.964 -0.0543,2.0436"
       id="path1982" />
    <path
       d="m 97.272,-80.92 0.01053,3.06e-4 0.01085,2.51e-4 0.01114,1.95e-4 0.01141,1.38e-4 0.01165,8.2e-5 0.01186,2.5e-5 0.01204,-3.1e-5 0.0122,-8.9e-5 0.01232,-1.46e-4 0.01241,-2.01e-4 0.01246,-2.58e-4 0.01101,-2.72e-4"
       id="path1984" />
    <path
       d="m 97.49,-80.464 c -0.0049,0 -0.0098,-0.0029 -0.01463,-0.0086 -0.0077,-0.0092 -0.01515,-0.02562 -0.02209,-0.04901 -0.01111,-0.03743 -0.02079,-0.0925 -0.02796,-0.16039 -0.0074,-0.07002 -0.01199,-0.15342 -0.01313,-0.2384"
       id="path1986" />
    <path
       d="m 110.95,-80.464 0.0236,-6.25e-4 0.0236,-0.0019 0.0234,-0.0031 0.0233,-0.0044 0.023,-0.0056 0.0228,-0.0068 0.0224,-0.008 0.022,-0.0092 0.0215,-0.01031 0.021,-0.01143 0.0205,-0.01253 0.0198,-0.01359 0.0192,-0.01463 0.0185,-0.01562 0.0177,-0.01658 0.0169,-0.01749 0.016,-0.01836 0.0152,-0.01919 0.0142,-0.01996 0.0133,-0.02069 0.0123,-0.02137 0.0112,-0.02199 0.0102,-0.02255 0.009,-0.02306 0.008,-0.02352 0.007,-0.02391 0.006,-0.02425 0.005,-0.02452 0.003,-0.02473 0.002,-0.01667"
       id="path1988" />
    <path
       d="M 93.786,-80.92 H 93.6576"
       id="path1990" />
    <path
       d="m 95.518,-82.964 v -2.4"
       id="path1992" />
    <path
       d="m 97.358,-82.964 0.05433,2.0436"
       id="path1994" />
    <path
       d="m 112.68,-80.464 0.0248,-6.25e-4 0.0247,-0.0019 0.0246,-0.0031 0.0244,-0.0044 0.0241,-0.0056 0.0238,-0.0068 0.0235,-0.008 0.023,-0.0092 0.0226,-0.01031 0.022,-0.01143 0.0214,-0.01253 0.0208,-0.01359 0.0201,-0.01463 0.0193,-0.01562 0.0185,-0.01658 0.0177,-0.01749 0.0168,-0.01836 0.0159,-0.01919 0.0149,-0.01996 0.0139,-0.02069 0.0129,-0.02137 0.0118,-0.02199 0.0107,-0.02255 0.01,-0.02306 0.008,-0.02352 0.007,-0.02391 0.006,-0.02425 0.005,-0.02452 0.004,-0.02473 0.002,-0.01667"
       id="path1996" />
    <path
       d="m 97.22,-85.364 v 2.4"
       id="path1998" />
    <path
       d="m 112.68,-80.464 0.0123,-6.25e-4 0.0122,-0.0019 0.0122,-0.0031 0.0121,-0.0044 0.012,-0.0056 0.0118,-0.0068 0.0116,-0.008 0.0114,-0.0092 0.0112,-0.01031 0.0109,-0.01143 0.0106,-0.01253 0.0103,-0.01359 0.01,-0.01463 0.01,-0.01562 0.009,-0.01658 0.009,-0.01749 0.008,-0.01836 0.008,-0.01919 0.007,-0.01996 0.007,-0.02069 0.006,-0.02137 0.006,-0.02199 0.005,-0.02255 0.005,-0.02306 0.004,-0.02352 0.004,-0.02391 0.003,-0.02425 0.002,-0.02452 0.002,-0.02473 8.6e-4,-0.01667"
       id="path2000" />
    <path
       d="m 113.3,-80.92 h -0.1284"
       id="path2002" />
    <path
       d="M 97.272,-80.92 H 95.5447"
       id="path2004" />
    <path
       d="m 109.55,-80.92 0.0125,3.06e-4 0.0125,2.51e-4 0.0124,1.95e-4 0.0123,1.38e-4 0.0122,8.2e-5 0.012,2.5e-5 0.0118,-3.1e-5 0.0116,-8.9e-5 0.0114,-1.46e-4 0.0111,-2.01e-4 0.0108,-2.58e-4 0.009,-2.72e-4"
       id="path2006" />
    <path
       d="m 109.74,-82.964 v -2.4"
       id="path2008" />
    <path
       d="M 95.309,-80.92 H 94.0342"
       id="path2010" />
    <path
       d="m 106.89,-90.964 v 0.29476"
       id="path2012" />
    <path
       d="m 94.035,-80.92 0.0014,0.02484 0.002,0.02467 0.0026,0.02444 0.0032,0.02414 0.0038,0.02379 0.0043,0.02338 0.0049,0.0229 0.0055,0.02237 0.006,0.02179 0.0065,0.02115 0.007,0.02046 0.0075,0.01971 0.008,0.01892 0.0085,0.01808 0.0089,0.0172 0.0093,0.01627 0.0097,0.0153 0.01006,0.01429 0.0104,0.01325 0.01072,0.01217 0.011,0.01106 0.01126,0.0099 0.01149,0.0088 0.01169,0.0076 0.01186,0.0064 0.012,0.0052 0.01211,0.0039 0.01219,0.0027 0.01225,0.0015 0.0082,2.81e-4"
       id="path2014" />
    <path
       d="m 99.554,-90.669 h 0.51551"
       id="path2016" />
    <path
       d="m 109.47,-80.464 c 0.0138,0 0.0276,-0.0029 0.0412,-0.0086 0.0217,-0.0092 0.0425,-0.02562 0.0619,-0.04901 0.0311,-0.03743 0.0581,-0.0925 0.0781,-0.16039 0.0206,-0.07002 0.0333,-0.15342 0.0365,-0.2384"
       id="path2018" />
    <path
       d="m 93.786,-80.92 6.36e-4,0.001 0.0013,9.77e-4 0.0019,9.17e-4 0.0025,8.56e-4 0.0031,7.91e-4 0.0037,7.26e-4 0.0043,6.57e-4 0.0049,5.89e-4 0.0054,5.18e-4 0.006,4.45e-4 0.0065,3.73e-4 0.007,2.98e-4 0.0075,2.23e-4 0.008,1.48e-4 0.0085,7.2e-5 0.0089,-4e-6 0.0094,-8e-5 0.0098,-1.56e-4 0.01014,-2.31e-4 0.01049,-3.06e-4 0.01081,-3.81e-4 0.01111,-4.53e-4 0.01137,-5.25e-4 0.01161,-5.96e-4 0.01182,-6.65e-4 0.012,-7.33e-4 0.01215,-7.98e-4 0.01228,-8.62e-4 0.01236,-9.24e-4 0.01242,-9.83e-4 0.01113,-9.26e-4"
       id="path2020" />
    <path
       d="m 109.6,-85.364 v 2.4"
       id="path2022" />
    <path
       d="m 97.358,-82.964 v -2.4"
       id="path2024" />
    <path
       d="m 93.786,-80.92 0.0028,0.02484 0.004,0.02467 0.0052,0.02444 0.0064,0.02414 0.0076,0.02379 0.0088,0.02338 0.0099,0.0229 0.01104,0.02237 0.01214,0.02179 0.0132,0.02115 0.01423,0.02046 0.01523,0.01971 0.01619,0.01892 0.0171,0.01808 0.01798,0.0172 0.0188,0.01627 0.01959,0.0153 0.02032,0.01429 0.021,0.01325 0.02163,0.01217 0.02221,0.01106 0.02273,0.0099 0.02319,0.0088 0.0236,0.0076 0.02394,0.0064 0.02423,0.0052 0.02445,0.0039 0.02462,0.0027 0.02472,0.0015 0.01661,2.81e-4"
       id="path2026" />
    <path
       d="m 112.93,-80.92 0.0125,0.001 0.0124,9.77e-4 0.0124,9.17e-4 0.0123,8.56e-4 0.0121,7.91e-4 0.012,7.26e-4 0.0118,6.57e-4 0.0116,5.89e-4 0.0113,5.18e-4 0.0111,4.45e-4 0.0108,3.73e-4 0.0105,2.98e-4 0.0101,2.23e-4 0.01,1.48e-4 0.009,7.2e-5 0.009,-4e-6 0.008,-8e-5 0.008,-1.56e-4 0.008,-2.31e-4 0.007,-3.06e-4 0.007,-3.81e-4 0.006,-4.53e-4 0.005,-5.25e-4 0.005,-5.96e-4 0.004,-6.65e-4 0.004,-7.33e-4 0.003,-7.98e-4 0.002,-8.62e-4 0.002,-9.24e-4 0.001,-9.83e-4 5.4e-4,-9.26e-4"
       id="path2028" />
    <path
       d="m 109.74,-82.964 -0.0517,2.0436"
       id="path2030" />
    <path
       d="m 100.07,-85.364 v -5.3052"
       id="path2032" />
    <path
       d="m 111.42,-80.92 c 0.011,0.0043 0.0291,0.0073 0.0527,0.0088 0.0229,0.0014 0.0512,0.0014 0.0821,-5.3e-5 0.0193,-9.17e-4 0.0399,-0.0024 0.0609,-0.0044 0.0132,-0.0013 0.0265,-0.0027 0.0397,-0.0043"
       id="path2034" />
    <path
       d="m 111.65,-80.92 v 0.45642"
       id="path2036" />
    <path
       d="m 93.61,-82.964 0.17549,2.0436"
       id="path2038" />
    <path
       d="m 106.89,-90.669 h 0.5155"
       id="path2040" />
    <path
       d="m 97.22,-82.964 0.05174,2.0436"
       id="path2042" />
    <path
       d="m 109.47,-80.464 c 0.005,0 0.01,-0.0029 0.0146,-0.0086 0.008,-0.0092 0.0151,-0.02562 0.0221,-0.04901 0.0111,-0.03743 0.0208,-0.0925 0.028,-0.16039 0.007,-0.07002 0.012,-0.15342 0.0131,-0.2384"
       id="path2044" />
    <path
       d="m 111.54,-82.964 c -0.002,0.0308 -0.004,0.0616 -0.006,0.0923 -0.0118,0.19146 -0.0237,0.38292 -0.0357,0.57438 -0.008,0.11966 -0.0149,0.23933 -0.0224,0.35898 -0.005,0.07479 -0.009,0.14958 -0.0141,0.22436 -0.005,0.07479 -0.009,0.14957 -0.0141,0.22436 -0.007,0.11966 -0.0151,0.23931 -0.0227,0.35897 -0.004,0.07006 -0.009,0.14012 -0.0133,0.21017"
       id="path2046" />
    <path
       d="m 111.78,-82.964 c -0.002,0.0308 -0.004,0.0616 -0.006,0.0923 -0.0116,0.19146 -0.0233,0.38292 -0.035,0.57438 -0.007,0.11966 -0.0147,0.23933 -0.022,0.35898 -0.005,0.07479 -0.009,0.14958 -0.0138,0.22436 -0.005,0.07479 -0.009,0.14957 -0.0139,0.22436 -0.007,0.11966 -0.0148,0.23931 -0.0223,0.35897 -0.004,0.07006 -0.009,0.14012 -0.0131,0.21017"
       id="path2048" />
    <path
       d="m 113.1,-82.964 -0.17548,2.0436"
       id="path2050" />
    <path
       d="M 109.55,-80.92 H 97.412"
       id="path2052" />
    <path
       d="m 100.07,-90.964 v 0.29476"
       id="path2054" />
    <path
       d="m 95.309,-80.92 c 0.01323,0.0016 0.02655,0.0031 0.03971,0.0043 0.02106,0.002 0.04161,0.0035 0.06094,0.0044 0.03093,0.0015 0.05929,0.0015 0.08214,5.3e-5 0.02357,-0.0015 0.04166,-0.0045 0.05268,-0.0088"
       id="path2056" />
    <path
       d="m 95.309,-80.464 v -0.45642"
       id="path2058" />
    <path
       d="m 97.49,-80.464 c -0.01378,0 -0.0276,-0.0029 -0.04116,-0.0086 -0.02169,-0.0092 -0.04252,-0.02562 -0.06195,-0.04901 -0.03109,-0.03743 -0.0581,-0.0925 -0.07806,-0.16039 -0.02058,-0.07002 -0.03335,-0.15342 -0.03653,-0.2384"
       id="path2060" />
    <path
       d="m 111.42,-80.92 h -1.7273"
       id="path2062" />
    <path
       d="m 100.07,-90.669 h 6.8238"
       id="path2064" />
    <path
       d="m 95.417,-82.964 c 0.0019,0.0308 0.0038,0.0616 0.0057,0.0923 0.01184,0.19146 0.02373,0.38292 0.03566,0.57438 0.0075,0.11966 0.01493,0.23933 0.02242,0.35898 0.0047,0.07479 0.0094,0.14958 0.01407,0.22436 0.0047,0.07479 0.0094,0.14957 0.01411,0.22436 0.0075,0.11966 0.01509,0.23931 0.02266,0.35897 0.0044,0.07006 0.0089,0.14012 0.01332,0.21017"
       id="path2066" />
    <path
       d="m 94.035,-80.92 -0.17549,-2.0436"
       id="path2068" />
    <path
       d="m 111.44,-85.364 v 2.4"
       id="path2070" />
    <path
       d="m 95.545,-80.92 0.0026,0.02484 0.0038,0.02467 0.005,0.02444 0.0061,0.02414 0.0073,0.02379 0.0084,0.02338 0.0095,0.0229 0.01054,0.02237 0.01158,0.02179 0.0126,0.02115 0.01358,0.02046 0.01453,0.01971 0.01545,0.01892 0.01632,0.01808 0.01716,0.0172 0.01795,0.01627 0.01869,0.0153 0.01939,0.01429 0.02004,0.01325 0.02064,0.01217 0.02119,0.01106 0.02169,0.0099 0.02213,0.0088 0.02252,0.0076 0.02285,0.0064 0.02312,0.0052 0.02334,0.0039 0.02349,0.0027 0.0236,0.0015 0.01585,2.81e-4"
       id="path2072" />
    <path
       d="m 113.18,-80.92 0.17549,-2.0436"
       id="path2074" />
    <path
       d="m 112.93,-80.92 h -1.2748"
       id="path2076" />
  </g>
  <path
     transform="matrix(4.6649,0,0,4.6669,-260.64476,581.17816)"
     d="m 135.87,-122.2 h 2.4"
     id="path2080"
     style="fill:none;stroke:#000000;stroke-width:0.1215;stroke-linecap:round;stroke-linejoin:round" />
  <path
     transform="matrix(4.6649,0,0,4.6669,-260.64476,581.17816)"
     d="m 140.77,-123.8 a 0.5,0.5 0 0 0 -0.4564,-0.49351"
     id="path2082"
     style="fill:none;stroke:#000000;stroke-width:0.1215;stroke-linecap:round;stroke-linejoin:round" />
  <path
     transform="matrix(4.6649,0,0,4.6669,-260.64476,581.17816)"
     d="m 138.27,-112.8 -7.7052,-0.13449"
     id="path2084"
     style="fill:none;stroke:#000000;stroke-width:0.1215;stroke-linecap:round;stroke-linejoin:round" />
  <path
     transform="matrix(4.6649,0,0,4.6669,-260.64476,581.17816)"
     d="m 138.27,-124.47 2.0436,0.17879"
     id="path2086"
     style="fill:none;stroke:#000000;stroke-width:0.1215;stroke-linecap:round;stroke-linejoin:round" />
  <path
     transform="matrix(4.6649,0,0,4.6669,-260.64476,581.17816)"
     d="m 135.87,-124.43 v 2.0168"
     id="path2088"
     style="fill:none;stroke:#000000;stroke-width:0.1215;stroke-linecap:round;stroke-linejoin:round" />
  <path
     transform="matrix(4.6649,0,0,4.6669,-260.64476,581.17816)"
     d="m 135.87,-124.47 v 0.0414"
     id="path2090"
     style="fill:none;stroke:#000000;stroke-width:0.1215;stroke-linecap:round;stroke-linejoin:round" />
  <path
     transform="matrix(4.6649,0,0,4.6669,-260.64476,581.17816)"
     d="m 135.87,-122.41 v 0.21049"
     id="path2092"
     style="fill:none;stroke:#000000;stroke-width:0.1215;stroke-linecap:round;stroke-linejoin:round" />
  <path
     transform="matrix(4.6649,0,0,4.6669,-260.64476,581.17816)"
     d="m 140.31,-110.58 a 0.5,0.5 0 0 0 0.45642,-0.4981"
     id="path2094"
     style="fill:none;stroke:#000000;stroke-width:0.1215;stroke-linecap:round;stroke-linejoin:round" />
  <path
     transform="matrix(4.6649,0,0,4.6669,-260.64476,581.17816)"
     d="m 138.27,-122.17 v -0.24863"
     id="path2096"
     style="fill:none;stroke:#000000;stroke-width:0.1215;stroke-linecap:round;stroke-linejoin:round" />
  <path
     transform="matrix(4.6649,0,0,4.6669,-260.64476,581.17816)"
     d="m 135.87,-122.2 v 3.8028"
     id="path2098"
     style="fill:none;stroke:#000000;stroke-width:0.1215;stroke-linecap:round;stroke-linejoin:round" />
  <path
     transform="matrix(4.6649,0,0,4.6669,-260.64476,581.17816)"
     d="m 140.77,-121.33 a 0.5,0.5 0 0 0 -0.45642,-0.49809"
     id="path2100"
     style="fill:none;stroke:#000000;stroke-width:0.1215;stroke-linecap:round;stroke-linejoin:round" />
  <path
     transform="matrix(4.6649,0,0,4.6669,-260.64476,581.17816)"
     d="m 140.77,-114.69 v -6.6337"
     id="path2102"
     style="fill:none;stroke:#000000;stroke-width:0.1215;stroke-linecap:round;stroke-linejoin:round" />
  <path
     transform="matrix(4.6649,0,0,4.6669,-260.64476,581.17816)"
     d="m 138.27,-124.47 h -2.4"
     id="path2104"
     style="fill:none;stroke:#000000;stroke-width:0.1215;stroke-linecap:round;stroke-linejoin:round" />
  <path
     transform="matrix(4.6649,0,0,4.6669,-260.64476,581.17816)"
     d="m 138.27,-117.7 -7.7052,0.1345"
     id="path2106"
     style="fill:none;stroke:#000000;stroke-width:0.1215;stroke-linecap:round;stroke-linejoin:round" />
  <path
     transform="matrix(4.6649,0,0,4.6669,-260.64476,581.17816)"
     d="m 135.87,-118.4 a 0.3,0.3 0 0 0 0.3,0.3"
     id="path2108"
     style="fill:none;stroke:#000000;stroke-width:0.1215;stroke-linecap:round;stroke-linejoin:round" />
  <path
     transform="matrix(4.6649,0,0,4.6669,-260.64476,581.17816)"
     d="m 138.27,-124.43 v -0.0412"
     id="path2110"
     style="fill:none;stroke:#000000;stroke-width:0.1215;stroke-linecap:round;stroke-linejoin:round" />
  <path
     transform="matrix(4.6649,0,0,4.6669,-260.64476,581.17816)"
     d="m 140.77,-111.07 v -3.6194"
     id="path2112"
     style="fill:none;stroke:#000000;stroke-width:0.1215;stroke-linecap:round;stroke-linejoin:round" />
  <path
     transform="matrix(4.6649,0,0,4.6669,-260.64476,581.17816)"
     d="m 138.27,-114.7 v 4.0536"
     id="path2114"
     style="fill:none;stroke:#000000;stroke-width:0.1215;stroke-linecap:round;stroke-linejoin:round" />
  <path
     transform="matrix(4.6649,0,0,4.6669,-260.64476,581.17816)"
     d="m 140.77,-121.83 v -1.9649"
     id="path2116"
     style="fill:none;stroke:#000000;stroke-width:0.1215;stroke-linecap:round;stroke-linejoin:round" />
  <path
     transform="matrix(4.6649,0,0,4.6669,-260.64476,581.17816)"
     d="m 138.27,-121.76 v 7.0598"
     id="path2118"
     style="fill:none;stroke:#000000;stroke-width:0.1215;stroke-linecap:round;stroke-linejoin:round" />
  <path
     transform="matrix(4.6649,0,0,4.6669,-260.64476,581.17816)"
     d="m 138.27,-122.17 v 0.16186"
     id="path2120"
     style="fill:none;stroke:#000000;stroke-width:0.1215;stroke-linecap:round;stroke-linejoin:round" />
  <path
     transform="matrix(4.6649,0,0,4.6669,-260.64476,581.17816)"
     d="m 138.27,-110.65 v 0.24905"
     id="path2122"
     style="fill:none;stroke:#000000;stroke-width:0.1215;stroke-linecap:round;stroke-linejoin:round" />
  <path
     transform="matrix(4.6649,0,0,4.6669,-260.64476,581.17816)"
     d="m 138.27,-122.41 v -2.0168"
     id="path2124"
     style="fill:none;stroke:#000000;stroke-width:0.1215;stroke-linecap:round;stroke-linejoin:round" />
  <path
     transform="matrix(4.6649,0,0,4.6669,-260.64476,581.17816)"
     d="m 138.27,-122 v 0.2444"
     id="path2126"
     style="fill:none;stroke:#000000;stroke-width:0.1215;stroke-linecap:round;stroke-linejoin:round" />
  <path
     transform="matrix(4.6649,0,0,4.6669,-260.64476,581.17816)"
     d="m 130.27,-113.41 v 0.18086"
     id="path2128"
     style="fill:none;stroke:#000000;stroke-width:0.1215;stroke-linecap:round;stroke-linejoin:round" />
  <path
     transform="matrix(4.6649,0,0,4.6669,-260.64476,581.17816)"
     d="m 140.77,-121.33 v -0.50383"
     id="path2130"
     style="fill:none;stroke:#000000;stroke-width:0.1215;stroke-linecap:round;stroke-linejoin:round" />
  <path
     transform="matrix(4.6649,0,0,4.6669,-260.64476,581.17816)"
     d="m 138.27,-124.43 v -1.7e-4"
     id="path2132"
     style="fill:none;stroke:#000000;stroke-width:0.1215;stroke-linecap:round;stroke-linejoin:round" />
  <path
     transform="matrix(4.6649,0,0,4.6669,-260.64476,581.17816)"
     d="m 130.27,-117.26 v 0.25024"
     id="path2134"
     style="fill:none;stroke:#000000;stroke-width:0.1215;stroke-linecap:round;stroke-linejoin:round" />
  <path
     transform="matrix(4.6649,0,0,4.6669,-260.64476,581.17816)"
     d="m 138.27,-110.4 2.0436,-0.17879"
     id="path2136"
     style="fill:none;stroke:#000000;stroke-width:0.1215;stroke-linecap:round;stroke-linejoin:round" />
  <path
     transform="matrix(4.6649,0,0,4.6669,-260.64476,581.17816)"
     d="m 130.56,-117.56 a 0.3,0.3 0 0 0 -0.29476,0.29995"
     id="path2138"
     style="fill:none;stroke:#000000;stroke-width:0.1215;stroke-linecap:round;stroke-linejoin:round" />
  <path
     transform="matrix(4.6649,0,0,4.6669,-260.64476,581.17816)"
     d="m 130.27,-113.23 a 0.3,0.3 0 0 0 0.29476,0.29996"
     id="path2140"
     style="fill:none;stroke:#000000;stroke-width:0.1215;stroke-linecap:round;stroke-linejoin:round" />
  <path
     transform="matrix(4.6649,0,0,4.6669,-260.64476,581.17816)"
     d="m 136.27,-114.95 v 1.3703"
     id="path2142"
     style="fill:none;stroke:#000000;stroke-width:0.1215;stroke-linecap:round;stroke-linejoin:round" />
  <path
     transform="matrix(4.6649,0,0,4.6669,-260.64476,581.17816)"
     d="m 136.27,-116.32 v 1.3703"
     id="path2144"
     style="fill:none;stroke:#000000;stroke-width:0.1215;stroke-linecap:round;stroke-linejoin:round" />
  <path
     transform="matrix(4.6649,0,0,4.6669,-260.64476,581.17816)"
     d="m 140.31,-121.82 -2.0436,-0.17879"
     id="path2146"
     style="fill:none;stroke:#000000;stroke-width:0.1215;stroke-linecap:round;stroke-linejoin:round" />
  <path
     transform="matrix(4.6649,0,0,4.6669,-260.64476,581.17816)"
     d="m 130.27,-117.01 v 3.6"
     id="path2148"
     style="fill:none;stroke:#000000;stroke-width:0.1215;stroke-linecap:round;stroke-linejoin:round" />
  <path
     transform="matrix(4.6649,0,0,4.6669,-260.64476,581.17816)"
     d="m 136.17,-118.1 h 2.1"
     id="path2150"
     style="fill:none;stroke:#000000;stroke-width:0.1215;stroke-linecap:round;stroke-linejoin:round" />
  <path
     transform="matrix(4.6649,0,0,4.6669,-260.64476,581.17816)"
     d="m 136.27,-113.58 a 0.3,0.3 0 0 0 0.29476,0.29996"
     id="path2152"
     style="fill:none;stroke:#000000;stroke-width:0.1215;stroke-linecap:round;stroke-linejoin:round" />
  <path
     transform="matrix(4.6649,0,0,4.6669,-260.64476,581.17816)"
     d="m 136.56,-116.62 1.7052,-0.0298"
     id="path2154"
     style="fill:none;stroke:#000000;stroke-width:0.1215;stroke-linecap:round;stroke-linejoin:round" />
  <path
     transform="matrix(4.6649,0,0,4.6669,-260.64476,581.17816)"
     d="m 136.56,-113.28 1.7052,0.0298"
     id="path2156"
     style="fill:none;stroke:#000000;stroke-width:0.1215;stroke-linecap:round;stroke-linejoin:round" />
  <path
     transform="matrix(4.6649,0,0,4.6669,-260.64476,581.17816)"
     d="m 136.56,-116.62 a 0.3,0.3 0 0 0 -0.29476,0.29995"
     id="path2158"
     style="fill:none;stroke:#000000;stroke-width:0.1215;stroke-linecap:round;stroke-linejoin:round" />
  <path
     transform="matrix(4.6649,0,0,4.6669,-260.64476,581.17816)"
     d="m 140.31,-110.82 -2.0436,0.17879"
     id="path2160"
     style="fill:none;stroke:#000000;stroke-width:0.1215;stroke-linecap:round;stroke-linejoin:round" />
  <path
     transform="matrix(4.6649,0,0,4.6669,-260.64476,581.17816)"
     d="m 140.31,-124.25 3e-4,-0.007 2.5e-4,-0.006 2e-4,-0.006 1.4e-4,-0.005 8e-5,-0.005 2e-5,-0.004 -3e-5,-0.003 -9e-5,-0.003 -1.4e-4,-0.002 -2e-4,-0.002 -2.6e-4,-8.9e-4 -2.7e-4,-2.6e-4"
     id="path2162"
     style="fill:none;stroke:#000000;stroke-width:0.1215;stroke-linecap:round;stroke-linejoin:round" />
  <path
     transform="matrix(4.6649,0,0,4.6669,-260.64476,581.17816)"
     d="m 140.31,-121.58 v 6.8827"
     id="path2164"
     style="fill:none;stroke:#000000;stroke-width:0.1215;stroke-linecap:round;stroke-linejoin:round" />
  <path
     transform="matrix(4.6649,0,0,4.6669,-260.64476,581.17816)"
     d="m 138.27,-122.41 h -2.4"
     id="path2166"
     style="fill:none;stroke:#000000;stroke-width:0.1215;stroke-linecap:round;stroke-linejoin:round" />
  <path
     transform="matrix(4.6649,0,0,4.6669,-260.64476,581.17816)"
     d="m 130.56,-113.37 v -3.6"
     id="path2168"
     style="fill:none;stroke:#000000;stroke-width:0.1215;stroke-linecap:round;stroke-linejoin:round" />
  <path
     transform="matrix(4.6649,0,0,4.6669,-260.64476,581.17816)"
     d="m 130.27,-117.01 3.7e-4,0.002 10e-4,0.002 0.002,0.002 0.006,0.004 0.004,0.002 0.01,0.004 0.006,0.002 0.007,0.002 0.016,0.004 0.018,0.004 0.01,0.002 0.0105,0.002 0.011,0.002 0.0115,0.002 0.012,0.001 0.0124,0.001 0.0128,10e-4 0.0132,0.001 0.0135,0.001 0.0138,9.3e-4 0.0141,8.2e-4 0.0143,7e-4 0.0145,5.9e-4 0.0147,4.7e-4 0.0148,3.5e-4 0.0149,2.3e-4 0.015,1.1e-4 0.001,1e-5"
     id="path2170"
     style="fill:none;stroke:#000000;stroke-width:0.1215;stroke-linecap:round;stroke-linejoin:round" />
  <path
     transform="matrix(4.6649,0,0,4.6669,-260.64476,581.17816)"
     d="m 135.87,-124.43 h 2.4"
     id="path2172"
     style="fill:none;stroke:#000000;stroke-width:0.1215;stroke-linecap:round;stroke-linejoin:round" />
  <path
     transform="matrix(4.6649,0,0,4.6669,-260.64476,581.17816)"
     d="m 140.31,-124.25 v 2.2578"
     id="path2174"
     style="fill:none;stroke:#000000;stroke-width:0.1215;stroke-linecap:round;stroke-linejoin:round" />
  <path
     transform="matrix(4.6649,0,0,4.6669,-260.64476,581.17816)"
     d="m 140.31,-110.82 0.0248,-0.001 0.0247,-0.002 0.0244,-0.003 0.0241,-0.003 0.0238,-0.004 0.0234,-0.004 0.0229,-0.005 0.0224,-0.006 0.0218,-0.006 0.0211,-0.007 0.0205,-0.007 0.0197,-0.008 0.0189,-0.008 0.0181,-0.009 0.0172,-0.009 0.0163,-0.009 0.0153,-0.01 0.0143,-0.0103 0.0132,-0.0106 0.0122,-0.0109 0.0111,-0.0112 0.01,-0.0115 0.009,-0.0117 0.008,-0.0119 0.006,-0.0121 0.005,-0.0122 0.004,-0.0123 0.003,-0.0124 0.001,-0.0125 2.8e-4,-0.008"
     id="path2176"
     style="fill:none;stroke:#000000;stroke-width:0.1215;stroke-linecap:round;stroke-linejoin:round" />
  <path
     transform="matrix(4.6649,0,0,4.6669,-260.64476,581.17816)"
     d="m 140.31,-110.58 0.001,-4.1e-4 0.001,-0.001 9.3e-4,-0.002 8.8e-4,-0.002 8.1e-4,-0.003 7.4e-4,-0.003 6.8e-4,-0.004 6.1e-4,-0.005 5.3e-4,-0.005 4.7e-4,-0.006 3.9e-4,-0.006 3.1e-4,-0.007 2.4e-4,-0.007 1.6e-4,-0.008 9e-5,-0.008 1e-5,-0.009 -7e-5,-0.009 -1.4e-4,-0.01 -2.2e-4,-0.01 -2.9e-4,-0.0104 -3.7e-4,-0.0107 -4.5e-4,-0.011 -5.2e-4,-0.0113 -5.8e-4,-0.0115 -6.6e-4,-0.0118 -7.3e-4,-0.0119 -7.9e-4,-0.0121 -8.6e-4,-0.0122 -9.2e-4,-0.0123 -9.8e-4,-0.0124 -0.001,-0.0124 -2.8e-4,-0.003"
     id="path2178"
     style="fill:none;stroke:#000000;stroke-width:0.1215;stroke-linecap:round;stroke-linejoin:round" />
  <path
     transform="matrix(4.6649,0,0,4.6669,-260.64476,581.17816)"
     d="m 130.56,-116.97 v -0.59846"
     id="path2180"
     style="fill:none;stroke:#000000;stroke-width:0.1215;stroke-linecap:round;stroke-linejoin:round" />
  <path
     transform="matrix(4.6649,0,0,4.6669,-260.64476,581.17816)"
     d="m 136.56,-114.95 v -1.6702"
     id="path2182"
     style="fill:none;stroke:#000000;stroke-width:0.1215;stroke-linecap:round;stroke-linejoin:round" />
  <path
     transform="matrix(4.6649,0,0,4.6669,-260.64476,581.17816)"
     d="m 136.56,-113.28 v -1.6702"
     id="path2184"
     style="fill:none;stroke:#000000;stroke-width:0.1215;stroke-linecap:round;stroke-linejoin:round" />
  <path
     transform="matrix(4.6649,0,0,4.6669,-260.64476,581.17816)"
     d="m 140.31,-121.58 0.001,-0.0124 9.8e-4,-0.0124 9.1e-4,-0.0123 8.6e-4,-0.0122 7.9e-4,-0.0121 7.3e-4,-0.0119 6.5e-4,-0.0117 5.9e-4,-0.0115 5.2e-4,-0.0112 4.5e-4,-0.011 3.7e-4,-0.0107 3e-4,-0.0103 2.2e-4,-0.01 1.5e-4,-0.01 7e-5,-0.009 -1e-5,-0.009 -8e-5,-0.008 -1.5e-4,-0.008 -2.3e-4,-0.007 -3.1e-4,-0.007 -3.8e-4,-0.006 -4.5e-4,-0.006 -5.3e-4,-0.005 -5.9e-4,-0.005 -6.7e-4,-0.004 -7.3e-4,-0.003 -8e-4,-0.003 -8.6e-4,-0.002 -9.2e-4,-0.002 -9.9e-4,-9.6e-4 -9.2e-4,-3.3e-4"
     id="path2186"
     style="fill:none;stroke:#000000;stroke-width:0.1215;stroke-linecap:round;stroke-linejoin:round" />
  <path
     transform="matrix(4.6649,0,0,4.6669,-260.64476,581.17816)"
     d="m 130.56,-112.93 v -0.43255"
     id="path2188"
     style="fill:none;stroke:#000000;stroke-width:0.1215;stroke-linecap:round;stroke-linejoin:round" />
  <path
     transform="matrix(4.6649,0,0,4.6669,-260.64476,581.17816)"
     d="m 140.77,-121.33 -6.3e-4,-0.0127 -0.002,-0.0127 -0.003,-0.0126 -0.004,-0.0125 -0.006,-0.0124 -0.007,-0.0123 -0.008,-0.0121 -0.009,-0.0118 -0.0103,-0.0116 -0.0114,-0.0113 -0.0125,-0.011 -0.0136,-0.0107 -0.0146,-0.0103 -0.0156,-0.01 -0.0166,-0.01 -0.0175,-0.009 -0.0184,-0.009 -0.0192,-0.008 -0.02,-0.008 -0.0207,-0.007 -0.0214,-0.007 -0.022,-0.006 -0.0226,-0.005 -0.0231,-0.005 -0.0235,-0.004 -0.0239,-0.004 -0.0242,-0.003 -0.0245,-0.002 -0.0247,-0.002 -0.0167,-8.9e-4"
     id="path2190"
     style="fill:none;stroke:#000000;stroke-width:0.1215;stroke-linecap:round;stroke-linejoin:round" />
  <path
     transform="matrix(4.6649,0,0,4.6669,-260.64476,581.17816)"
     d="m 138.27,-116.94 -7.7052,-0.0216"
     id="path2192"
     style="fill:none;stroke:#000000;stroke-width:0.1215;stroke-linecap:round;stroke-linejoin:round" />
  <path
     transform="matrix(4.6649,0,0,4.6669,-260.64476,581.17816)"
     d="m 130.27,-113.41 3.7e-4,0.002 10e-4,0.002 0.002,0.002 0.006,0.004 0.004,0.002 0.01,0.004 0.006,0.002 0.007,0.002 0.016,0.004 0.018,0.004 0.01,0.002 0.0105,0.002 0.011,0.002 0.0115,0.002 0.012,10e-4 0.0124,0.001 0.0128,0.001 0.0132,10e-4 0.0135,0.001 0.0138,9.3e-4 0.0141,8.2e-4 0.0143,7e-4 0.0145,5.9e-4 0.0147,4.7e-4 0.0148,3.5e-4 0.0149,2.3e-4 0.015,1.1e-4 0.001,1e-5"
     id="path2194"
     style="fill:none;stroke:#000000;stroke-width:0.1215;stroke-linecap:round;stroke-linejoin:round" />
  <path
     transform="matrix(4.6649,0,0,4.6669,-260.64476,581.17816)"
     d="m 136.37,-113.35 -5.8114,-0.0163"
     id="path2196"
     style="fill:none;stroke:#000000;stroke-width:0.1215;stroke-linecap:round;stroke-linejoin:round" />
  <path
     transform="matrix(4.6649,0,0,4.6669,-260.64476,581.17816)"
     d="m 138.27,-121.76 2.0436,0.17879"
     id="path2198"
     style="fill:none;stroke:#000000;stroke-width:0.1215;stroke-linecap:round;stroke-linejoin:round" />
  <path
     transform="matrix(4.6649,0,0,4.6669,-260.64476,581.17816)"
     d="m 138.27,-124.43 2.0436,0.18053"
     id="path2200"
     style="fill:none;stroke:#000000;stroke-width:0.1215;stroke-linecap:round;stroke-linejoin:round" />
  <path
     transform="matrix(4.6649,0,0,4.6669,-260.64476,581.17816)"
     d="m 136.17,-118.1 v -0.29759"
     id="path2202"
     style="fill:none;stroke:#000000;stroke-width:0.1215;stroke-linecap:round;stroke-linejoin:round" />
  <path
     transform="matrix(4.6649,0,0,4.6669,-260.64476,581.17816)"
     d="m 140.31,-121.82 c 0.002,1.4e-4 0.003,-7.7e-4 0.004,-0.003 0.002,-0.003 0.003,-0.009 0.004,-0.0174 10e-4,-0.0134 10e-4,-0.0335 6e-5,-0.0583 -0.001,-0.0255 -0.005,-0.0563 -0.009,-0.0895"
     id="path2204"
     style="fill:none;stroke:#000000;stroke-width:0.1215;stroke-linecap:round;stroke-linejoin:round" />
  <path
     transform="matrix(4.6649,0,0,4.6669,-260.64476,581.17816)"
     d="m 138.27,-118.4 h -2.1"
     id="path2206"
     style="fill:none;stroke:#000000;stroke-width:0.1215;stroke-linecap:round;stroke-linejoin:round" />
  <path
     transform="matrix(4.6649,0,0,4.6669,-260.64476,581.17816)"
     d="m 135.87,-118.4 3.7e-4,1.2e-4 0.001,1.2e-4 0.002,1.2e-4 0.003,1.2e-4 0.003,1.1e-4 0.004,1.2e-4 0.005,1.1e-4 0.005,1.2e-4 0.006,1.1e-4 0.007,1.1e-4 0.016,2e-4 0.009,1e-4 0.009,9e-5 0.01,9e-5 0.0105,9e-5 0.011,8e-5 0.0115,8e-5 0.012,7e-5 0.0124,7e-5 0.0128,6e-5 0.0132,6e-5 0.0135,5e-5 0.0138,5e-5 0.0284,8e-5 0.0145,3e-5 0.0295,4e-5 0.0149,1e-5 h 0.021"
     id="path2208"
     style="fill:none;stroke:#000000;stroke-width:0.1215;stroke-linecap:round;stroke-linejoin:round" />
  <path
     transform="matrix(4.6649,0,0,4.6669,-260.64476,581.17816)"
     d="m 136.17,-118.4 v -3.8052"
     id="path2210"
     style="fill:none;stroke:#000000;stroke-width:0.1215;stroke-linecap:round;stroke-linejoin:round" />
  <path
     transform="matrix(4.6649,0,0,4.6669,-260.64476,581.17816)"
     d="m 140.77,-123.8 c 0,-0.028 -0.003,-0.0562 -0.009,-0.084 -0.009,-0.0445 -0.0256,-0.0877 -0.049,-0.12824 -0.0374,-0.0649 -0.0925,-0.1221 -0.16039,-0.16463 -0.07,-0.0438 -0.15342,-0.0714 -0.2384,-0.0782"
     id="path2212"
     style="fill:none;stroke:#000000;stroke-width:0.1215;stroke-linecap:round;stroke-linejoin:round" />
  <path
     transform="matrix(4.6649,0,0,4.6669,-260.64476,581.17816)"
     d="m 138.27,-122.17 2.0436,0.1727"
     id="path2214"
     style="fill:none;stroke:#000000;stroke-width:0.1215;stroke-linecap:round;stroke-linejoin:round" />
  <path
     transform="matrix(4.6649,0,0,4.6669,-260.64476,581.17816)"
     d="m 140.31,-114.7 v 3.8731"
     id="path2216"
     style="fill:none;stroke:#000000;stroke-width:0.1215;stroke-linecap:round;stroke-linejoin:round" />
  <path
     transform="matrix(4.6649,0,0,4.6669,-260.64476,581.17816)"
     d="m 140.77,-121.83 -6.3e-4,-0.008 -0.002,-0.008 -0.003,-0.008 -0.004,-0.008 -0.006,-0.008 -0.007,-0.008 -0.008,-0.008 -0.009,-0.008 -0.0103,-0.007 -0.0114,-0.007 -0.0125,-0.007 -0.0136,-0.007 -0.0146,-0.007 -0.0156,-0.006 -0.0166,-0.006 -0.0175,-0.006 -0.0184,-0.006 -0.0192,-0.005 -0.02,-0.005 -0.0207,-0.005 -0.0214,-0.004 -0.022,-0.004 -0.0226,-0.004 -0.0231,-0.003 -0.0235,-0.003 -0.0239,-0.002 -0.0242,-0.002 -0.0245,-0.002 -0.0247,-10e-4 -0.0167,-5.7e-4"
     id="path2218"
     style="fill:none;stroke:#000000;stroke-width:0.1215;stroke-linecap:round;stroke-linejoin:round" />
</svg>
