<?xml version="1.0" encoding="UTF-8" standalone="no"?>
<!-- 2023-06-28 13:49:26 Generated by QCAD SVG Exporter -->

<svg
   width="97.341431mm"
   height="78.134216mm"
   viewBox="65.81695 -142.56062 97.34143 78.134219"
   version="1.1"
   style="fill:none;stroke-linecap:round;stroke-linejoin:round"
   id="svg8603"
   sodipodi:docname="VB_03_A_DT.svg"
   inkscape:version="1.2.2 (732a01da63, 2022-12-09)"
   xmlns:inkscape="http://www.inkscape.org/namespaces/inkscape"
   xmlns:sodipodi="http://sodipodi.sourceforge.net/DTD/sodipodi-0.dtd"
   xmlns="http://www.w3.org/2000/svg"
   xmlns:svg="http://www.w3.org/2000/svg">
  <defs
     id="defs8607" />
  <sodipodi:namedview
     id="namedview8605"
     pagecolor="#ffffff"
     bordercolor="#666666"
     borderopacity="1.0"
     inkscape:showpageshadow="2"
     inkscape:pageopacity="0.0"
     inkscape:pagecheckerboard="0"
     inkscape:deskcolor="#d1d1d1"
     inkscape:document-units="mm"
     showgrid="false"
     inkscape:zoom="2.0065512"
     inkscape:cx="198.84865"
     inkscape:cy="150.507"
     inkscape:window-width="1680"
     inkscape:window-height="987"
     inkscape:window-x="-8"
     inkscape:window-y="-7"
     inkscape:window-maximized="1"
     inkscape:current-layer="svg8603" />
  <g
     id="g11106">
    <path
       d="m 109.6042,-124.47227 h -2.9e-4"
       style="stroke:#000000;stroke-width:0.15;stroke-dasharray:none"
       id="path8023" />
    <path
       d="m 113.35182,-121.75916 -5.5e-4,-0.0125 m 0,0 -0.001,-0.0125 m 0,0 -0.002,-0.0124 m 0,0 -0.002,-0.0123 m 0,0 -0.003,-0.0121 m 0,0 -0.004,-0.012 m 0,0 -0.004,-0.0118 m 0,0 -0.005,-0.0116 m 0,0 -0.005,-0.0113 m 0,0 -0.006,-0.011 m 0,0 -0.006,-0.0107 m 0,0 -0.007,-0.0104 m 0,0 -0.007,-0.01 m 0,0 -0.008,-0.01 m 0,0 -0.008,-0.009 m 0,0 -0.009,-0.009 m 0,0 -0.009,-0.008 m 0,0 -0.01,-0.008 m 0,0 -0.0102,-0.007 m 0,0 -0.0105,-0.007 m 0,0 -0.0108,-0.006 m 0,0 -0.0111,-0.006 m 0,0 -0.0114,-0.005 m 0,0 -0.0117,-0.005 m 0,0 -0.0119,-0.004 m 0,0 -0.0121,-0.003 m 0,0 -0.0122,-0.003 m 0,0 -0.0123,-0.002 m 0,0 -0.0124,-10e-4 m 0,0 -0.0125,-8.7e-4 m 0,0 -0.0112,-2.5e-4"
       style="stroke:#000000;stroke-width:0.15;stroke-dasharray:none"
       id="path8027" />
    <path
       d="m 97.357935,-124.47227 h -2.86e-4"
       style="stroke:#000000;stroke-width:0.15;stroke-dasharray:none"
       id="path8029" />
    <path
       d="m 113.48352,-110.64575 v -4.05357"
       style="stroke:#000000;stroke-width:0.15;stroke-dasharray:none"
       id="path8033" />
    <path
       d="m 95.518048,-122.41405 a 4.6788883,4.6788883 0 0 0 -0.101154,0.24863"
       style="stroke:#000000;stroke-width:0.15;stroke-dasharray:none"
       id="path8037" />
    <path
       d="m 111.77824,-122.00356 c -0.0325,0 -0.0647,-0.006 -0.0948,-0.0187 -0.03,-0.0123 -0.0572,-0.0304 -0.0803,-0.0531 -0.0128,-0.0127 -0.0242,-0.0267 -0.034,-0.0418 -0.01,-0.0151 -0.0179,-0.0313 -0.0242,-0.0482"
       style="stroke:#000000;stroke-width:0.15;stroke-dasharray:none"
       id="path8039" />
    <path
       d="m 113.23447,-110.3967 0.0125,-3.2e-4 m 0,0 0.0125,-9.4e-4 m 0,0 0.0124,-0.002 m 0,0 0.0123,-0.002 m 0,0 0.0122,-0.003 m 0,0 0.0121,-0.003 m 0,0 0.0119,-0.004 m 0,0 0.0116,-0.005 m 0,0 0.0114,-0.005 m 0,0 0.0111,-0.006 m 0,0 0.0108,-0.006 m 0,0 0.0105,-0.007 m 0,0 0.0101,-0.007 m 0,0 0.01,-0.008 m 0,0 0.009,-0.008 m 0,0 0.009,-0.009 m 0,0 0.008,-0.009 m 0,0 0.008,-0.01 m 0,0 0.007,-0.01 m 0,0 0.007,-0.0104 m 0,0 0.006,-0.0107 m 0,0 0.006,-0.011 m 0,0 0.005,-0.0113 m 0,0 0.005,-0.0116 m 0,0 0.004,-0.0118 m 0,0 0.004,-0.012 m 0,0 0.003,-0.0122 m 0,0 0.002,-0.0123 m 0,0 0.002,-0.0124 m 0,0 0.001,-0.0125 m 0,0 4.8e-4,-0.0125 m 0,0 2e-5,-0.003"
       style="stroke:#000000;stroke-width:0.15;stroke-dasharray:none"
       id="path8041" />
    <path
       d="M 95.183609,-122.00356 H 93.859035"
       style="stroke:#000000;stroke-width:0.15;stroke-dasharray:none"
       id="path8043" />
    <path
       d="m 113.10281,-122.00356 h -1.32457"
       style="stroke:#000000;stroke-width:0.15;stroke-dasharray:none"
       id="path8045" />
    <path
       d="m 97.357649,-124.47227 a 0.25,0.25 0 0 0 -0.137291,0.0412"
       style="stroke:#000000;stroke-width:0.15;stroke-dasharray:none"
       id="path8049" />
    <path
       d="m 93.478328,-114.69932 v 4.05357"
       style="stroke:#000000;stroke-width:0.15;stroke-dasharray:none"
       id="path8051" />
    <path
       d="m 93.61003,-121.75916 -0.131702,7.05984"
       style="stroke:#000000;stroke-width:0.15;stroke-dasharray:none"
       id="path8053" />
    <path
       d="m 95.416894,-122.16542 c -0.01139,0.0305 -0.02861,0.0584 -0.05073,0.0823 -0.02203,0.0238 -0.04848,0.043 -0.07788,0.0566 -0.01635,0.008 -0.03347,0.0133 -0.05106,0.0172 -0.01761,0.004 -0.03558,0.006 -0.05361,0.006"
       style="stroke:#000000;stroke-width:0.15;stroke-dasharray:none"
       id="path8055" />
    <path
       d="M 109.60391,-124.47227 H 97.357935"
       style="stroke:#000000;stroke-width:0.15;stroke-dasharray:none"
       id="path8057" />
    <path
       d="m 93.478328,-110.64575 3.14e-4,0.0125 m 0,0 9.4e-4,0.0125 m 0,0 0.0016,0.0124 m 0,0 0.0022,0.0123 m 0,0 0.0028,0.0122 m 0,0 0.0034,0.012 m 0,0 0.004,0.0119 m 0,0 0.0046,0.0116 m 0,0 0.0052,0.0114 m 0,0 0.0057,0.0111 m 0,0 0.0063,0.0108 m 0,0 0.0068,0.0105 m 0,0 0.0073,0.0101 m 0,0 0.0078,0.01 m 0,0 0.0083,0.009 m 0,0 0.0088,0.009 m 0,0 0.0092,0.008 m 0,0 0.0096,0.008 m 0,0 0.01002,0.007 m 0,0 0.01038,0.007 m 0,0 0.01072,0.006 m 0,0 0.01104,0.006 m 0,0 0.01132,0.005 m 0,0 0.01158,0.005 m 0,0 0.0118,0.004 m 0,0 0.012,0.004 m 0,0 0.01217,0.003 m 0,0 0.01231,0.002 m 0,0 0.01241,0.002 m 0,0 0.01249,0.001 m 0,0 0.01253,4.7e-4 m 0,0 0.0033,3e-5"
       style="stroke:#000000;stroke-width:0.15;stroke-dasharray:none"
       id="path8059" />
    <path
       d="m 97.220106,-124.43085 a 4.6788883,4.6788883 0 0 0 -1.702058,2.0168"
       style="stroke:#000000;stroke-width:0.15;stroke-dasharray:none"
       id="path8061" />
    <path
       d="m 93.859035,-122.00356 -0.01254,3.1e-4 m 0,0 -0.0125,9.4e-4 m 0,0 -0.01243,0.002 m 0,0 -0.01234,0.002 m 0,0 -0.01221,0.003 m 0,0 -0.01205,0.003 m 0,0 -0.01186,0.004 m 0,0 -0.01164,0.005 m 0,0 -0.01139,0.005 m 0,0 -0.01111,0.006 m 0,0 -0.01081,0.006 m 0,0 -0.01048,0.007 m 0,0 -0.01012,0.007 m 0,0 -0.0097,0.008 m 0,0 -0.0093,0.008 m 0,0 -0.0089,0.009 m 0,0 -0.0084,0.009 m 0,0 -0.008,0.01 m 0,0 -0.0075,0.01 m 0,0 -0.007,0.0104 m 0,0 -0.0064,0.0107 m 0,0 -0.0059,0.011 m 0,0 -0.0053,0.0113 m 0,0 -0.0048,0.0116 m 0,0 -0.0042,0.0118 m 0,0 -0.0036,0.012 m 0,0 -0.003,0.0122 m 0,0 -0.0023,0.0123 m 0,0 -0.0017,0.0124 m 0,0 -0.0011,0.0125 m 0,0 -4.6e-4,0.0112"
       style="stroke:#000000;stroke-width:0.15;stroke-dasharray:none"
       id="path8063" />
    <path
       d="m 109.74149,-124.43102 a 0.25,0.25 0 0 0 -0.13729,-0.0412"
       style="stroke:#000000;stroke-width:0.15;stroke-dasharray:none"
       id="path8065" />
    <path
       d="m 113.48352,-114.69932 -0.1317,-7.05984"
       style="stroke:#000000;stroke-width:0.15;stroke-dasharray:none"
       id="path8069" />
    <path
       d="M 93.727377,-110.3967 H 113.23447"
       style="stroke:#000000;stroke-width:0.15;stroke-dasharray:none"
       id="path8073" />
    <path
       d="m 111.54495,-122.16542 a 4.6788883,4.6788883 0 0 0 -0.10115,-0.24863"
       style="stroke:#000000;stroke-width:0.15;stroke-dasharray:none"
       id="path8075" />
    <path
       d="m 111.4438,-122.41405 a 4.6788883,4.6788883 0 0 0 -1.70206,-2.0168"
       style="stroke:#000000;stroke-width:0.15;stroke-dasharray:none"
       id="path8077" />
    <path
       d="m 93.657118,-110.82454 -0.17879,0.17879"
       style="stroke:#000000;stroke-width:0.15;stroke-dasharray:none"
       id="path8079" />
    <path
       d="m 95.183609,-122.00356 0.125757,0.17879"
       style="stroke:#000000;stroke-width:0.15;stroke-dasharray:none"
       id="path8081" />
    <path
       d="m 109.6042,-124.47227 -0.0543,0.17879"
       style="stroke:#000000;stroke-width:0.15;stroke-dasharray:none"
       id="path8083" />
    <path
       d="m 97.411984,-124.29348 -0.01249,3.4e-4 m 0,0 -0.01246,9.6e-4 m 0,0 -0.0124,0.002 m 0,0 -0.0123,0.002 m 0,0 -0.01218,0.003 m 0,0 -0.01202,0.003 m 0,0 -0.01184,0.004 m 0,0 -0.01163,0.005 m 0,0 -0.01138,0.005 m 0,0 -0.01111,0.006 m 0,0 -0.01081,0.006 m 0,0 -0.0093,0.006"
       style="stroke:#000000;stroke-width:0.15;stroke-dasharray:none"
       id="path8085" />
    <path
       d="m 97.4898,-123.79539 -0.07782,-0.49809"
       style="stroke:#000000;stroke-width:0.15;stroke-dasharray:none"
       id="path8087" />
    <path
       d="m 111.41701,-121.99272 -0.47095,0.16221"
       style="stroke:#000000;stroke-width:0.15;stroke-dasharray:none"
       id="path8089" />
    <path
       d="m 93.785516,-121.58037 -0.128398,6.88271"
       style="stroke:#000000;stroke-width:0.15;stroke-dasharray:none"
       id="path8091" />
    <path
       d="m 97.357649,-124.47227 0.05433,0.17879"
       style="stroke:#000000;stroke-width:0.15;stroke-dasharray:none"
       id="path8093" />
    <path
       d="m 112.68288,-121.32668 0.49345,-0.25369"
       style="stroke:#000000;stroke-width:0.15;stroke-dasharray:none"
       id="path8095" />
    <path
       d="m 110.94606,-121.83051 a 4.0020011,4.0020011 0 0 0 -1.47401,-1.96488"
       style="stroke:#000000;stroke-width:0.15;stroke-dasharray:none"
       id="path8097" />
    <path
       d="m 112.92733,-121.82477 -0.24445,0.49809"
       style="stroke:#000000;stroke-width:0.15;stroke-dasharray:none"
       id="path8099" />
    <path
       d="m 113.30473,-114.69766 -0.1284,-6.88271"
       style="stroke:#000000;stroke-width:0.15;stroke-dasharray:none"
       id="path8101" />
    <path
       d="m 97.272102,-124.25049 a 4.5000984,4.5000984 0 0 0 -1.727263,2.25777"
       style="stroke:#000000;stroke-width:0.15;stroke-dasharray:none"
       id="path8103" />
    <path
       d="m 109.68975,-124.25049 -0.0105,-0.007 m 0,0 -0.0109,-0.006 m 0,0 -0.0111,-0.006 m 0,0 -0.0114,-0.005 m 0,0 -0.0117,-0.005 m 0,0 -0.0119,-0.004 m 0,0 -0.012,-0.003 m 0,0 -0.0122,-0.003 m 0,0 -0.0123,-0.002 m 0,0 -0.0124,-0.002 m 0,0 -0.0125,-8.9e-4 m 0,0 -0.011,-2.6e-4"
       style="stroke:#000000;stroke-width:0.15;stroke-dasharray:none"
       id="path8105" />
    <path
       d="m 94.155215,-111.07359 -0.498097,0.24905"
       style="stroke:#000000;stroke-width:0.15;stroke-dasharray:none"
       id="path8107" />
    <path
       d="m 93.906166,-110.57549 0.249049,-0.4981"
       style="stroke:#000000;stroke-width:0.15;stroke-dasharray:none"
       id="path8109" />
    <path
       d="M 95.309366,-121.82477 H 94.034521"
       style="stroke:#000000;stroke-width:0.15;stroke-dasharray:none"
       id="path8111" />
    <path
       d="m 93.657111,-110.82454 4.05e-4,0.0125 m 0,0 0.001,0.0124 m 0,0 0.0016,0.0124 m 0,0 0.0023,0.0123 m 0,0 0.0029,0.0121 m 0,0 0.0035,0.012 m 0,0 0.0041,0.0118 m 0,0 0.0046,0.0116 m 0,0 0.0052,0.0113 m 0,0 0.0058,0.0111 m 0,0 0.0063,0.0108 m 0,0 0.0069,0.0105 m 0,0 0.0074,0.0101 m 0,0 0.0079,0.01 m 0,0 0.0083,0.009 m 0,0 0.0088,0.009 m 0,0 0.0092,0.008 m 0,0 0.0096,0.008 m 0,0 0.01,0.007 m 0,0 0.01036,0.007 m 0,0 0.01069,0.006 m 0,0 0.011,0.006 m 0,0 0.01127,0.005 m 0,0 0.01153,0.005 m 0,0 0.01175,0.004 m 0,0 0.01194,0.004 m 0,0 0.0121,0.003 m 0,0 0.01223,0.002 m 0,0 0.01233,0.002 m 0,0 0.0124,10e-4 m 0,0 0.01244,5.7e-4 m 0,0 0.0033,5e-5"
       style="stroke:#000000;stroke-width:0.15;stroke-dasharray:none"
       id="path8113" />
    <path
       d="m 94.278967,-121.32668 -0.244446,-0.49809"
       style="stroke:#000000;stroke-width:0.15;stroke-dasharray:none"
       id="path8115" />
    <path
       d="m 113.48352,-110.64575 -0.17879,-0.17879"
       style="stroke:#000000;stroke-width:0.15;stroke-dasharray:none"
       id="path8117" />
    <path
       d="m 109.47205,-123.79539 c 0.0138,-0.028 0.0276,-0.0562 0.0412,-0.084 0.0217,-0.0445 0.0425,-0.0877 0.0619,-0.12824 0.0311,-0.0649 0.0581,-0.1221 0.0781,-0.16463 0.0206,-0.0438 0.0333,-0.0714 0.0365,-0.0782"
       style="stroke:#000000;stroke-width:0.15;stroke-dasharray:none"
       id="path8119" />
    <path
       d="m 94.034521,-121.8248 -0.01245,4.1e-4 m 0,0 -0.01242,10e-4 m 0,0 -0.01235,0.002 m 0,0 -0.01226,0.002 m 0,0 -0.01214,0.003 m 0,0 -0.01198,0.003 m 0,0 -0.0118,0.004 m 0,0 -0.01159,0.005 m 0,0 -0.01134,0.005 m 0,0 -0.01107,0.006 m 0,0 -0.01078,0.006 m 0,0 -0.01045,0.007 m 0,0 -0.0101,0.007 m 0,0 -0.0097,0.008 m 0,0 -0.0093,0.008 m 0,0 -0.0089,0.009 m 0,0 -0.0084,0.009 m 0,0 -0.008,0.01 m 0,0 -0.0075,0.01 m 0,0 -0.007,0.0104 m 0,0 -0.0065,0.0107 m 0,0 -0.0059,0.011 m 0,0 -0.0054,0.0113 m 0,0 -0.0048,0.0115 m 0,0 -0.0042,0.0118 m 0,0 -0.0036,0.0119 m 0,0 -0.003,0.0121 m 0,0 -0.0024,0.0122 m 0,0 -0.0018,0.0123 m 0,0 -0.0012,0.0124 m 0,0 -5.39e-4,0.0111"
       style="stroke:#000000;stroke-width:0.15;stroke-dasharray:none"
       id="path8121" />
    <path
       d="m 113.30473,-110.82454 v -3.87312"
       style="stroke:#000000;stroke-width:0.15;stroke-dasharray:none"
       id="path8123" />
    <path
       d="m 94.155215,-114.69301 0.123752,-6.63367"
       style="stroke:#000000;stroke-width:0.15;stroke-dasharray:none"
       id="path8125" />
    <path
       d="m 93.785516,-121.58037 0.493451,0.25369"
       style="stroke:#000000;stroke-width:0.15;stroke-dasharray:none"
       id="path8127" />
    <path
       d="m 113.17636,-121.58037 -6.4e-4,-0.0124 m 0,0 -0.001,-0.0124 m 0,0 -0.002,-0.0123 m 0,0 -0.003,-0.0122 m 0,0 -0.003,-0.0121 m 0,0 -0.004,-0.0119 m 0,0 -0.004,-0.0117 m 0,0 -0.005,-0.0115 m 0,0 -0.005,-0.0112 m 0,0 -0.006,-0.011 m 0,0 -0.006,-0.0107 m 0,0 -0.007,-0.0103 m 0,0 -0.008,-0.01 m 0,0 -0.008,-0.01 m 0,0 -0.008,-0.009 m 0,0 -0.009,-0.009 m 0,0 -0.009,-0.008 m 0,0 -0.01,-0.008 m 0,0 -0.0101,-0.007 m 0,0 -0.0105,-0.007 m 0,0 -0.0108,-0.006 m 0,0 -0.0111,-0.006 m 0,0 -0.0114,-0.005 m 0,0 -0.0116,-0.005 m 0,0 -0.0118,-0.004 m 0,0 -0.012,-0.003 m 0,0 -0.0121,-0.003 m 0,0 -0.0123,-0.002 m 0,0 -0.0124,-0.002 m 0,0 -0.0124,-9.6e-4 m 0,0 -0.0111,-3.3e-4"
       style="stroke:#000000;stroke-width:0.15;stroke-dasharray:none"
       id="path8129" />
    <path
       d="m 109.74149,-124.43102 -0.0517,0.18053"
       style="stroke:#000000;stroke-width:0.15;stroke-dasharray:none"
       id="path8131" />
    <path
       d="m 111.41701,-121.99272 c 0.011,0.0331 0.0291,0.0639 0.0527,0.0895 0.0229,0.0248 0.0512,0.0449 0.0821,0.0583 0.0193,0.008 0.0399,0.0143 0.0609,0.0174 0.0132,0.002 0.0265,0.003 0.0397,0.003"
       style="stroke:#000000;stroke-width:0.15;stroke-dasharray:none"
       id="path8133" />
    <path
       d="m 94.155215,-111.07359 v -3.61942"
       style="stroke:#000000;stroke-width:0.15;stroke-dasharray:none"
       id="path8135" />
    <path
       d="m 111.65248,-121.82477 v 0.49809"
       style="stroke:#000000;stroke-width:0.15;stroke-dasharray:none"
       id="path8137" />
    <path
       d="m 113.05568,-110.57549 0.0125,-4e-4 m 0,0 0.0124,-0.001 m 0,0 0.0123,-0.002 m 0,0 0.0123,-0.002 m 0,0 0.0121,-0.003 m 0,0 0.012,-0.003 m 0,0 0.0118,-0.004 m 0,0 0.0116,-0.005 m 0,0 0.0113,-0.005 m 0,0 0.0111,-0.006 m 0,0 0.0108,-0.006 m 0,0 0.0104,-0.007 m 0,0 0.0101,-0.007 m 0,0 0.01,-0.008 m 0,0 0.009,-0.008 m 0,0 0.009,-0.009 m 0,0 0.008,-0.009 m 0,0 0.008,-0.01 m 0,0 0.008,-0.01 m 0,0 0.007,-0.0104 m 0,0 0.007,-0.0107 m 0,0 0.006,-0.011 m 0,0 0.005,-0.0113 m 0,0 0.005,-0.0115 m 0,0 0.004,-0.0117 m 0,0 0.004,-0.0119 m 0,0 0.003,-0.0121 m 0,0 0.002,-0.0122 m 0,0 0.002,-0.0123 m 0,0 0.001,-0.0124 m 0,0 5.7e-4,-0.0124 m 0,0 5e-5,-0.003"
       style="stroke:#000000;stroke-width:0.15;stroke-dasharray:none"
       id="path8139" />
    <path
       d="m 93.61003,-121.75916 0.175486,0.17879"
       style="stroke:#000000;stroke-width:0.15;stroke-dasharray:none"
       id="path8141" />
    <path
       d="m 97.220358,-124.43102 0.05174,0.18053"
       style="stroke:#000000;stroke-width:0.15;stroke-dasharray:none"
       id="path8143" />
    <path
       d="m 97.4898,-123.79539 a 4.0020011,4.0020011 0 0 0 -1.474015,1.96488"
       style="stroke:#000000;stroke-width:0.15;stroke-dasharray:none"
       id="path8145" />
    <path
       d="m 94.278967,-121.32668 h 1.030399"
       style="stroke:#000000;stroke-width:0.15;stroke-dasharray:none"
       id="path8147" />
    <path
       d="m 109.47205,-123.79539 0.0778,-0.49809"
       style="stroke:#000000;stroke-width:0.15;stroke-dasharray:none"
       id="path8149" />
    <path
       d="m 112.68288,-121.32668 0.12375,6.63367"
       style="stroke:#000000;stroke-width:0.15;stroke-dasharray:none"
       id="path8151" />
    <path
       d="m 95.309366,-121.32668 c 0.03938,0 0.07906,-0.003 0.118306,-0.009 0.06279,-0.0101 0.12418,-0.0281 0.182002,-0.0535 0.09251,-0.0406 0.177602,-0.10094 0.246426,-0.17487 0.07098,-0.0762 0.125831,-0.16779 0.159685,-0.26608"
       style="stroke:#000000;stroke-width:0.15;stroke-dasharray:none"
       id="path8153" />
    <path
       d="m 111.54495,-122.16542 -0.12794,0.1727"
       style="stroke:#000000;stroke-width:0.15;stroke-dasharray:none"
       id="path8155" />
    <path
       d="M 93.906166,-110.57549 H 113.05568"
       style="stroke:#000000;stroke-width:0.15;stroke-dasharray:none"
       id="path8157" />
    <path
       d="m 110.94606,-121.83051 c 0.0339,0.0983 0.0887,0.18985 0.15969,0.26608 0.0688,0.0739 0.15391,0.13431 0.24642,0.17487 0.0578,0.0254 0.11921,0.0434 0.18201,0.0535 0.0392,0.006 0.0789,0.009 0.1183,0.009"
       style="stroke:#000000;stroke-width:0.15;stroke-dasharray:none"
       id="path8159" />
    <path
       d="m 97.4898,-123.79539 h 11.98225"
       style="stroke:#000000;stroke-width:0.15;stroke-dasharray:none"
       id="path8161" />
    <path
       d="m 111.77824,-122.00356 -0.12576,0.17879"
       style="stroke:#000000;stroke-width:0.15;stroke-dasharray:none"
       id="path8163" />
    <path
       d="m 113.30473,-110.82454 -0.4981,-0.24905"
       style="stroke:#000000;stroke-width:0.15;stroke-dasharray:none"
       id="path8165" />
    <path
       d="m 113.10281,-122.00356 -0.17548,0.17879"
       style="stroke:#000000;stroke-width:0.15;stroke-dasharray:none"
       id="path8167" />
    <path
       d="m 112.80663,-111.07359 0.24905,0.4981"
       style="stroke:#000000;stroke-width:0.15;stroke-dasharray:none"
       id="path8169" />
    <path
       d="m 112.80663,-114.69301 v 3.61942"
       style="stroke:#000000;stroke-width:0.15;stroke-dasharray:none"
       id="path8171" />
    <path
       d="M 109.54987,-124.29348 H 97.411984"
       style="stroke:#000000;stroke-width:0.15;stroke-dasharray:none"
       id="path8173" />
    <path
       d="m 93.727377,-110.3967 0.178789,-0.17879"
       style="stroke:#000000;stroke-width:0.15;stroke-dasharray:none"
       id="path8175" />
    <path
       d="m 113.05568,-110.57549 0.17879,0.17879"
       style="stroke:#000000;stroke-width:0.15;stroke-dasharray:none"
       id="path8177" />
    <path
       d="m 95.309366,-121.82477 c 0.01323,1.4e-4 0.02655,-7.7e-4 0.03971,-0.003 0.02106,-0.003 0.04161,-0.009 0.06094,-0.0174 0.03093,-0.0134 0.05929,-0.0335 0.08214,-0.0583 0.02357,-0.0255 0.04166,-0.0563 0.05268,-0.0895"
       style="stroke:#000000;stroke-width:0.15;stroke-dasharray:none"
       id="path8179" />
    <path
       d="m 95.309366,-121.32668 v -0.49809"
       style="stroke:#000000;stroke-width:0.15;stroke-dasharray:none"
       id="path8181" />
    <path
       d="m 97.4898,-123.79539 c -0.01378,-0.028 -0.0276,-0.0562 -0.04116,-0.084 -0.02169,-0.0445 -0.04252,-0.0877 -0.06195,-0.12824 -0.03109,-0.0649 -0.0581,-0.1221 -0.07806,-0.16463 -0.02058,-0.0438 -0.03335,-0.0714 -0.03653,-0.0782"
       style="stroke:#000000;stroke-width:0.15;stroke-dasharray:none"
       id="path8183" />
    <path
       d="m 111.41701,-121.99272 a 4.5000984,4.5000984 0 0 0 -1.72726,-2.25777"
       style="stroke:#000000;stroke-width:0.15;stroke-dasharray:none"
       id="path8185" />
    <path
       d="m 95.416894,-122.16542 0.127945,0.1727"
       style="stroke:#000000;stroke-width:0.15;stroke-dasharray:none"
       id="path8187" />
    <path
       d="M 112.80663,-111.07359 H 94.155215"
       style="stroke:#000000;stroke-width:0.15;stroke-dasharray:none"
       id="path8189" />
    <path
       d="m 111.65248,-121.32668 h 1.0304"
       style="stroke:#000000;stroke-width:0.15;stroke-dasharray:none"
       id="path8191" />
    <path
       d="m 94.034521,-121.82477 -0.175486,-0.17879"
       style="stroke:#000000;stroke-width:0.15;stroke-dasharray:none"
       id="path8193" />
    <path
       d="m 93.657118,-114.69766 v 3.87312"
       style="stroke:#000000;stroke-width:0.15;stroke-dasharray:none"
       id="path8195" />
    <path
       d="m 96.015785,-121.83051 -0.470946,-0.16221"
       style="stroke:#000000;stroke-width:0.15;stroke-dasharray:none"
       id="path8197" />
    <path
       d="m 113.17633,-121.58037 0.17549,-0.17879"
       style="stroke:#000000;stroke-width:0.15;stroke-dasharray:none"
       id="path8199" />
    <path
       d="m 112.92733,-121.82477 h -1.27485"
       style="stroke:#000000;stroke-width:0.15;stroke-dasharray:none"
       id="path8201" />
  </g>
  <path
     style="stroke:#000000;stroke-width:0.15;stroke-dasharray:none"
     d="m 113.48352,-110.02075 v 8.56541"
     id="path11291" />
  <path
     style="stroke:#000000;stroke-width:0.15;stroke-dasharray:none"
     d="m 93.478328,-110.02075 v 8.56541"
     id="path11289" />
  <path
     style="stroke:#000000;stroke-width:0.15;stroke-dasharray:none"
     d="m 93.478328,-102.70534 h 5.764339"
     id="path8239"
     sodipodi:nodetypes="cc" />
  <path
     style="fill:none;stroke:#000000;stroke-width:0.15;stroke-linecap:round;stroke-linejoin:round;stroke-dasharray:none"
     d="m 107.71918,-102.70534 h 5.76434"
     id="path8239-6"
     sodipodi:nodetypes="cc" />
  <g
     id="g11466">
    <path
       d="m 109.6042,-82.963503 h -2.9e-4"
       style="stroke:#000000;stroke-width:0.15;stroke-dasharray:none"
       id="path8243" />
    <path
       d="M 107.10835,-90.963503 H 106.8928"
       style="stroke:#000000;stroke-width:0.15;stroke-dasharray:none"
       id="path8245" />
    <path
       d="m 109.74149,-82.963503 h 2.5e-4"
       style="stroke:#000000;stroke-width:0.15;stroke-dasharray:none"
       id="path8247" />
    <path
       d="m 113.35182,-82.963503 h -0.24901"
       style="stroke:#000000;stroke-width:0.15;stroke-dasharray:none"
       id="path8249" />
    <path
       d="m 97.357935,-82.963503 h -2.86e-4"
       style="stroke:#000000;stroke-width:0.15;stroke-dasharray:none"
       id="path8251" />
    <path
       d="M 97.220106,-85.363503 H 95.518048"
       style="stroke:#000000;stroke-width:0.15;stroke-dasharray:none"
       id="path8253" />
    <path
       d="m 109.74174,-85.363503 h -0.13783"
       style="stroke:#000000;stroke-width:0.15;stroke-dasharray:none"
       id="path8255" />
    <path
       d="m 112.80663,-80.463506 a 0.5,0.5 0 0 0 0.4981,-0.456422"
       style="stroke:#000000;stroke-width:0.15;stroke-dasharray:none"
       id="path8257" />
    <path
       d="m 109.47205,-80.463506 h 1.47401"
       style="stroke:#000000;stroke-width:0.15;stroke-dasharray:none"
       id="path8259" />
    <path
       d="M 97.357935,-85.363503 H 97.220106"
       style="stroke:#000000;stroke-width:0.15;stroke-dasharray:none"
       id="path8261" />
    <path
       d="m 95.518048,-85.363503 h -0.01274"
       style="stroke:#000000;stroke-width:0.15;stroke-dasharray:none"
       id="path8263" />
    <path
       d="m 113.48352,-82.963503 -0.17879,2.043575"
       style="stroke:#000000;stroke-width:0.15;stroke-dasharray:none"
       id="path8265" />
    <path
       d="m 95.416894,-82.963503 h 0.101154"
       style="stroke:#000000;stroke-width:0.15;stroke-dasharray:none"
       id="path8267" />
    <path
       d="m 111.77824,-82.963503 h -0.23329"
       style="stroke:#000000;stroke-width:0.15;stroke-dasharray:none"
       id="path8269" />
    <path
       d="m 94.155215,-80.463506 h 0.123752"
       style="stroke:#000000;stroke-width:0.15;stroke-dasharray:none"
       id="path8271" />
    <path
       d="M 95.183609,-82.963503 H 93.859035"
       style="stroke:#000000;stroke-width:0.15;stroke-dasharray:none"
       id="path8273" />
    <path
       d="m 113.10281,-82.963503 h -1.32457"
       style="stroke:#000000;stroke-width:0.15;stroke-dasharray:none"
       id="path8275" />
    <path
       d="m 106.8928,-90.963503 h -6.82375"
       style="stroke:#000000;stroke-width:0.15;stroke-dasharray:none"
       id="path8277" />
    <path
       d="m 93.657118,-80.919928 a 0.5,0.5 0 0 0 0.498097,0.456422"
       style="stroke:#000000;stroke-width:0.15;stroke-dasharray:none"
       id="path8279" />
    <path
       d="M 109.60391,-85.363503 H 97.357935"
       style="stroke:#000000;stroke-width:0.15;stroke-dasharray:none"
       id="path8281" />
    <path
       d="m 97.220358,-82.963503 h 0.137291"
       style="stroke:#000000;stroke-width:0.15;stroke-dasharray:none"
       id="path8283" />
    <path
       d="M 96.015785,-80.463506 H 97.4898"
       style="stroke:#000000;stroke-width:0.15;stroke-dasharray:none"
       id="path8285" />
    <path
       d="M 93.61003,-82.963503 H 93.478328"
       style="stroke:#000000;stroke-width:0.15;stroke-dasharray:none"
       id="path8287" />
    <path
       d="M 95.416894,-82.963503 H 95.183609"
       style="stroke:#000000;stroke-width:0.15;stroke-dasharray:none"
       id="path8289" />
    <path
       d="M 109.60391,-82.963503 H 97.357935"
       style="stroke:#000000;stroke-width:0.15;stroke-dasharray:none"
       id="path8291" />
    <path
       d="m 95.518048,-82.963503 h 1.702058"
       style="stroke:#000000;stroke-width:0.15;stroke-dasharray:none"
       id="path8293" />
    <path
       d="m 94.278967,-80.463506 h 1.030399"
       style="stroke:#000000;stroke-width:0.15;stroke-dasharray:none"
       id="path8295" />
    <path
       d="M 93.859035,-82.963503 H 93.61003"
       style="stroke:#000000;stroke-width:0.15;stroke-dasharray:none"
       id="path8297" />
    <path
       d="m 112.68288,-80.463506 h 0.12375"
       style="stroke:#000000;stroke-width:0.15;stroke-dasharray:none"
       id="path8299" />
    <path
       d="m 95.309366,-80.463506 h 0.706419"
       style="stroke:#000000;stroke-width:0.15;stroke-dasharray:none"
       id="path8301" />
    <path
       d="m 110.94606,-80.463506 h 0.70642"
       style="stroke:#000000;stroke-width:0.15;stroke-dasharray:none"
       id="path8303" />
    <path
       d="m 109.6042,-82.963503 h 0.13729"
       style="stroke:#000000;stroke-width:0.15;stroke-dasharray:none"
       id="path8305" />
    <path
       d="m 97.4898,-80.463506 h 11.98225"
       style="stroke:#000000;stroke-width:0.15;stroke-dasharray:none"
       id="path8307" />
    <path
       d="m 97.220106,-82.963503 h 2.52e-4"
       style="stroke:#000000;stroke-width:0.15;stroke-dasharray:none"
       id="path8309" />
    <path
       d="M 100.06905,-90.963503 H 99.853498"
       style="stroke:#000000;stroke-width:0.15;stroke-dasharray:none"
       id="path8311" />
    <path
       d="m 113.48352,-82.963503 h -0.1317"
       style="stroke:#000000;stroke-width:0.15;stroke-dasharray:none"
       id="path8313" />
    <path
       d="m 93.478328,-82.963503 0.17879,2.043575"
       style="stroke:#000000;stroke-width:0.15;stroke-dasharray:none"
       id="path8315" />
    <path
       d="m 111.4438,-82.963503 h 0.10115"
       style="stroke:#000000;stroke-width:0.15;stroke-dasharray:none"
       id="path8317" />
    <path
       d="m 111.45654,-85.363503 h -0.0127"
       style="stroke:#000000;stroke-width:0.15;stroke-dasharray:none"
       id="path8319" />
    <path
       d="m 109.74174,-82.963503 h 1.70206"
       style="stroke:#000000;stroke-width:0.15;stroke-dasharray:none"
       id="path8321" />
    <path
       d="m 111.65248,-80.463506 h 1.0304"
       style="stroke:#000000;stroke-width:0.15;stroke-dasharray:none"
       id="path8323" />
    <path
       d="m 111.4438,-85.363503 h -1.70206"
       style="stroke:#000000;stroke-width:0.15;stroke-dasharray:none"
       id="path8325" />
    <path
       d="m 99.853498,-90.963503 a 0.3,0.3 0 0 0 -0.299954,0.29476"
       style="stroke:#000000;stroke-width:0.15;stroke-dasharray:none"
       id="path8327" />
    <path
       d="m 95.505311,-82.963503 v -2.4"
       style="stroke:#000000;stroke-width:0.15;stroke-dasharray:none"
       id="path8329" />
    <path
       d="m 107.4083,-90.668743 a 0.3,0.3 0 0 0 -0.29995,-0.29476"
       style="stroke:#000000;stroke-width:0.15;stroke-dasharray:none"
       id="path8331" />
    <path
       d="m 111.45654,-82.963503 v -2.4"
       style="stroke:#000000;stroke-width:0.15;stroke-dasharray:none"
       id="path8333" />
    <path
       d="m 107.4083,-90.668743 0.0926,5.30524"
       style="stroke:#000000;stroke-width:0.15;stroke-dasharray:none"
       id="path8335" />
    <path
       d="m 99.553544,-90.668743 -0.0926,5.30524"
       style="stroke:#000000;stroke-width:0.15;stroke-dasharray:none"
       id="path8337" />
    <path
       d="m 106.8928,-85.363503 v -5.30524"
       style="stroke:#000000;stroke-width:0.15;stroke-dasharray:none"
       id="path8339" />
    <path
       d="m 95.183609,-82.963503 c 0.0019,0.0308 0.0037,0.0616 0.0056,0.0923 0.01164,0.19146 0.02332,0.38292 0.03504,0.57438 0.0073,0.11966 0.01467,0.23933 0.02204,0.35898 0.0046,0.07479 0.0092,0.149579 0.01383,0.224365 0.0046,0.07479 0.0092,0.149573 0.01387,0.224358 0.0074,0.119657 0.01483,0.239313 0.02228,0.358968 0.0044,0.07006 0.0087,0.140116 0.0131,0.210174"
       style="stroke:#000000;stroke-width:0.15;stroke-dasharray:none"
       id="path8341" />
    <path
       d="m 109.6042,-82.963503 -0.0543,2.043575"
       style="stroke:#000000;stroke-width:0.15;stroke-dasharray:none"
       id="path8343" />
    <path
       d="m 97.272102,-80.919928 0.01053,3.06e-4 m 0,0 0.01085,2.51e-4 m 0,0 0.01114,1.95e-4 m 0,0 0.01141,1.38e-4 m 0,0 0.01165,8.2e-5 m 0,0 0.01186,2.5e-5 m 0,0 0.01204,-3.1e-5 m 0,0 0.0122,-8.9e-5 m 0,0 0.01232,-1.46e-4 m 0,0 0.01241,-2.01e-4 m 0,0 0.01246,-2.58e-4 m 0,0 0.01101,-2.72e-4"
       style="stroke:#000000;stroke-width:0.15;stroke-dasharray:none"
       id="path8345" />
    <path
       d="m 97.4898,-80.463506 c -0.0049,0 -0.0098,-0.0029 -0.01463,-0.0086 -0.0077,-0.0092 -0.01515,-0.02562 -0.02209,-0.04901 -0.01111,-0.03743 -0.02079,-0.0925 -0.02796,-0.160393 -0.0074,-0.07002 -0.01199,-0.15342 -0.01313,-0.238404"
       style="stroke:#000000;stroke-width:0.15;stroke-dasharray:none"
       id="path8347" />
    <path
       d="m 110.94606,-80.463506 0.0236,-6.25e-4 m 0,0 0.0236,-0.0019 m 0,0 0.0234,-0.0031 m 0,0 0.0233,-0.0044 m 0,0 0.023,-0.0056 m 0,0 0.0228,-0.0068 m 0,0 0.0224,-0.008 m 0,0 0.022,-0.0092 m 0,0 0.0215,-0.01031 m 0,0 0.021,-0.01143 m 0,0 0.0205,-0.01253 m 0,0 0.0198,-0.01359 m 0,0 0.0192,-0.01463 m 0,0 0.0185,-0.01562 m 0,0 0.0177,-0.01658 m 0,0 0.0169,-0.01749 m 0,0 0.016,-0.01836 m 0,0 0.0152,-0.01919 m 0,0 0.0142,-0.01996 m 0,0 0.0133,-0.02069 m 0,0 0.0123,-0.02137 m 0,0 0.0112,-0.02199 m 0,0 0.0102,-0.02255 m 0,0 0.009,-0.02306 m 0,0 0.008,-0.02352 m 0,0 0.007,-0.02391 m 0,0 0.006,-0.02425 m 0,0 0.005,-0.02452 m 0,0 0.003,-0.02473 m 0,0 0.002,-0.01667"
       style="stroke:#000000;stroke-width:0.15;stroke-dasharray:none"
       id="path8349" />
    <path
       d="M 93.785516,-80.919928 H 93.657118"
       style="stroke:#000000;stroke-width:0.15;stroke-dasharray:none"
       id="path8351" />
    <path
       d="m 95.518048,-82.963503 v -2.4"
       style="stroke:#000000;stroke-width:0.15;stroke-dasharray:none"
       id="path8353" />
    <path
       d="m 97.357649,-82.963503 0.05433,2.043575"
       style="stroke:#000000;stroke-width:0.15;stroke-dasharray:none"
       id="path8355" />
    <path
       d="m 112.68288,-80.463506 0.0248,-6.25e-4 m 0,0 0.0247,-0.0019 m 0,0 0.0246,-0.0031 m 0,0 0.0244,-0.0044 m 0,0 0.0241,-0.0056 m 0,0 0.0238,-0.0068 m 0,0 0.0235,-0.008 m 0,0 0.023,-0.0092 m 0,0 0.0226,-0.01031 m 0,0 0.022,-0.01143 m 0,0 0.0214,-0.01253 m 0,0 0.0208,-0.01359 m 0,0 0.0201,-0.01463 m 0,0 0.0193,-0.01562 m 0,0 0.0185,-0.01658 m 0,0 0.0177,-0.01749 m 0,0 0.0168,-0.01836 m 0,0 0.0159,-0.01919 m 0,0 0.0149,-0.01996 m 0,0 0.0139,-0.02069 m 0,0 0.0129,-0.02137 m 0,0 0.0118,-0.02199 m 0,0 0.0107,-0.02255 m 0,0 0.01,-0.02306 m 0,0 0.008,-0.02352 m 0,0 0.007,-0.02391 m 0,0 0.006,-0.02425 m 0,0 0.005,-0.02452 m 0,0 0.004,-0.02473 m 0,0 0.002,-0.01667"
       style="stroke:#000000;stroke-width:0.15;stroke-dasharray:none"
       id="path8357" />
    <path
       d="m 97.220106,-85.363503 v 2.4"
       style="stroke:#000000;stroke-width:0.15;stroke-dasharray:none"
       id="path8359" />
    <path
       d="m 112.68288,-80.463506 0.0123,-6.25e-4 m 0,0 0.0122,-0.0019 m 0,0 0.0122,-0.0031 m 0,0 0.0121,-0.0044 m 0,0 0.012,-0.0056 m 0,0 0.0118,-0.0068 m 0,0 0.0116,-0.008 m 0,0 0.0114,-0.0092 m 0,0 0.0112,-0.01031 m 0,0 0.0109,-0.01143 m 0,0 0.0106,-0.01253 m 0,0 0.0103,-0.01359 m 0,0 0.01,-0.01463 m 0,0 0.01,-0.01562 m 0,0 0.009,-0.01658 m 0,0 0.009,-0.01749 m 0,0 0.008,-0.01836 m 0,0 0.008,-0.01919 m 0,0 0.007,-0.01996 m 0,0 0.007,-0.02069 m 0,0 0.006,-0.02137 m 0,0 0.006,-0.02199 m 0,0 0.005,-0.02255 m 0,0 0.005,-0.02306 m 0,0 0.004,-0.02352 m 0,0 0.004,-0.02391 m 0,0 0.003,-0.02425 m 0,0 0.002,-0.02452 m 0,0 0.002,-0.02473 m 0,0 8.6e-4,-0.01667"
       style="stroke:#000000;stroke-width:0.15;stroke-dasharray:none"
       id="path8361" />
    <path
       d="m 113.30473,-80.919928 h -0.1284"
       style="stroke:#000000;stroke-width:0.15;stroke-dasharray:none"
       id="path8363" />
    <path
       d="M 97.272102,-80.919928 H 95.544839"
       style="stroke:#000000;stroke-width:0.15;stroke-dasharray:none"
       id="path8365" />
    <path
       d="m 109.54987,-80.919928 0.0125,3.06e-4 m 0,0 0.0125,2.51e-4 m 0,0 0.0124,1.95e-4 m 0,0 0.0123,1.38e-4 m 0,0 0.0122,8.2e-5 m 0,0 0.012,2.5e-5 m 0,0 0.0118,-3.1e-5 m 0,0 0.0116,-8.9e-5 m 0,0 0.0114,-1.46e-4 m 0,0 0.0111,-2.01e-4 m 0,0 0.0108,-2.58e-4 m 0,0 0.009,-2.72e-4"
       style="stroke:#000000;stroke-width:0.15;stroke-dasharray:none"
       id="path8367" />
    <path
       d="m 109.74174,-82.963503 v -2.4"
       style="stroke:#000000;stroke-width:0.15;stroke-dasharray:none"
       id="path8369" />
    <path
       d="M 95.309366,-80.919928 H 94.034521"
       style="stroke:#000000;stroke-width:0.15;stroke-dasharray:none"
       id="path8371" />
    <path
       d="m 106.8928,-90.963503 v 0.29476"
       style="stroke:#000000;stroke-width:0.15;stroke-dasharray:none"
       id="path8373" />
    <path
       d="m 94.034521,-80.919928 0.0014,0.02484 m 0,0 0.002,0.02467 m 0,0 0.0026,0.02444 m 0,0 0.0032,0.02414 m 0,0 0.0038,0.02379 m 0,0 0.0043,0.02338 m 0,0 0.0049,0.0229 m 0,0 0.0055,0.02237 m 0,0 0.006,0.02179 m 0,0 0.0065,0.02115 m 0,0 0.007,0.02046 m 0,0 0.0075,0.01971 m 0,0 0.008,0.01892 m 0,0 0.0085,0.01808 m 0,0 0.0089,0.0172 m 0,0 0.0093,0.01627 m 0,0 0.0097,0.0153 m 0,0 0.01006,0.01429 m 0,0 0.0104,0.01325 m 0,0 0.01072,0.01217 m 0,0 0.011,0.01106 m 0,0 0.01126,0.0099 m 0,0 0.01149,0.0088 m 0,0 0.01169,0.0076 m 0,0 0.01186,0.0064 m 0,0 0.012,0.0052 m 0,0 0.01211,0.0039 m 0,0 0.01219,0.0027 m 0,0 0.01225,0.0015 m 0,0 0.0082,2.81e-4"
       style="stroke:#000000;stroke-width:0.15;stroke-dasharray:none"
       id="path8375" />
    <path
       d="m 99.553544,-90.668743 h 0.515506"
       style="stroke:#000000;stroke-width:0.15;stroke-dasharray:none"
       id="path8377" />
    <path
       d="m 109.47205,-80.463506 c 0.0138,0 0.0276,-0.0029 0.0412,-0.0086 0.0217,-0.0092 0.0425,-0.02562 0.0619,-0.04901 0.0311,-0.03743 0.0581,-0.0925 0.0781,-0.160393 0.0206,-0.07002 0.0333,-0.15342 0.0365,-0.238404"
       style="stroke:#000000;stroke-width:0.15;stroke-dasharray:none"
       id="path8379" />
    <path
       d="m 93.785516,-80.919928 6.36e-4,0.001 m 0,0 0.0013,9.77e-4 m 0,0 0.0019,9.17e-4 m 0,0 0.0025,8.56e-4 m 0,0 0.0031,7.91e-4 m 0,0 0.0037,7.26e-4 m 0,0 0.0043,6.57e-4 m 0,0 0.0049,5.89e-4 m 0,0 0.0054,5.18e-4 m 0,0 0.006,4.45e-4 m 0,0 0.0065,3.73e-4 m 0,0 0.007,2.98e-4 m 0,0 0.0075,2.23e-4 m 0,0 0.008,1.48e-4 m 0,0 0.0085,7.2e-5 m 0,0 0.0089,-4e-6 m 0,0 0.0094,-8e-5 m 0,0 0.0098,-1.56e-4 m 0,0 0.01014,-2.31e-4 m 0,0 0.01049,-3.06e-4 m 0,0 0.01081,-3.81e-4 m 0,0 0.01111,-4.53e-4 m 0,0 0.01137,-5.25e-4 m 0,0 0.01161,-5.96e-4 m 0,0 0.01182,-6.65e-4 m 0,0 0.012,-7.33e-4 m 0,0 0.01215,-7.98e-4 m 0,0 0.01228,-8.62e-4 m 0,0 0.01236,-9.24e-4 m 0,0 0.01242,-9.83e-4 m 0,0 0.01113,-9.26e-4"
       style="stroke:#000000;stroke-width:0.15;stroke-dasharray:none"
       id="path8381" />
    <path
       d="m 109.60391,-85.363503 v 2.4"
       style="stroke:#000000;stroke-width:0.15;stroke-dasharray:none"
       id="path8383" />
    <path
       d="m 97.357935,-82.963503 v -2.4"
       style="stroke:#000000;stroke-width:0.15;stroke-dasharray:none"
       id="path8385" />
    <path
       d="m 93.785516,-80.919928 0.0028,0.02484 m 0,0 0.004,0.02467 m 0,0 0.0052,0.02444 m 0,0 0.0064,0.02414 m 0,0 0.0076,0.02379 m 0,0 0.0088,0.02338 m 0,0 0.0099,0.0229 m 0,0 0.01104,0.02237 m 0,0 0.01214,0.02179 m 0,0 0.0132,0.02115 m 0,0 0.01423,0.02046 m 0,0 0.01523,0.01971 m 0,0 0.01619,0.01892 m 0,0 0.0171,0.01808 m 0,0 0.01798,0.0172 m 0,0 0.0188,0.01627 m 0,0 0.01959,0.0153 m 0,0 0.02032,0.01429 m 0,0 0.021,0.01325 m 0,0 0.02163,0.01217 m 0,0 0.02221,0.01106 m 0,0 0.02273,0.0099 m 0,0 0.02319,0.0088 m 0,0 0.0236,0.0076 m 0,0 0.02394,0.0064 m 0,0 0.02423,0.0052 m 0,0 0.02445,0.0039 m 0,0 0.02462,0.0027 m 0,0 0.02472,0.0015 m 0,0 0.01661,2.81e-4"
       style="stroke:#000000;stroke-width:0.15;stroke-dasharray:none"
       id="path8387" />
    <path
       d="m 112.92733,-80.919928 0.0125,0.001 m 0,0 0.0124,9.77e-4 m 0,0 0.0124,9.17e-4 m 0,0 0.0123,8.56e-4 m 0,0 0.0121,7.91e-4 m 0,0 0.012,7.26e-4 m 0,0 0.0118,6.57e-4 m 0,0 0.0116,5.89e-4 m 0,0 0.0113,5.18e-4 m 0,0 0.0111,4.45e-4 m 0,0 0.0108,3.73e-4 m 0,0 0.0105,2.98e-4 m 0,0 0.0101,2.23e-4 m 0,0 0.01,1.48e-4 m 0,0 0.009,7.2e-5 m 0,0 0.009,-4e-6 m 0,0 0.008,-8e-5 m 0,0 0.008,-1.56e-4 m 0,0 0.008,-2.31e-4 m 0,0 0.007,-3.06e-4 m 0,0 0.007,-3.81e-4 m 0,0 0.006,-4.53e-4 m 0,0 0.005,-5.25e-4 m 0,0 0.005,-5.96e-4 m 0,0 0.004,-6.65e-4 m 0,0 0.004,-7.33e-4 m 0,0 0.003,-7.98e-4 m 0,0 0.002,-8.62e-4 m 0,0 0.002,-9.24e-4 m 0,0 0.001,-9.83e-4 m 0,0 5.4e-4,-9.26e-4"
       style="stroke:#000000;stroke-width:0.15;stroke-dasharray:none"
       id="path8389" />
    <path
       d="m 109.74149,-82.963503 -0.0517,2.043575"
       style="stroke:#000000;stroke-width:0.15;stroke-dasharray:none"
       id="path8391" />
    <path
       d="m 100.06905,-85.363503 v -5.30524"
       style="stroke:#000000;stroke-width:0.15;stroke-dasharray:none"
       id="path8393" />
    <path
       d="m 111.41701,-80.919928 c 0.011,0.0043 0.0291,0.0073 0.0527,0.0088 0.0229,0.0014 0.0512,0.0014 0.0821,-5.3e-5 0.0193,-9.17e-4 0.0399,-0.0024 0.0609,-0.0044 0.0132,-0.0013 0.0265,-0.0027 0.0397,-0.0043"
       style="stroke:#000000;stroke-width:0.15;stroke-dasharray:none"
       id="path8395" />
    <path
       d="m 111.65248,-80.919928 v 0.456422"
       style="stroke:#000000;stroke-width:0.15;stroke-dasharray:none"
       id="path8397" />
    <path
       d="m 93.61003,-82.963503 0.175486,2.043575"
       style="stroke:#000000;stroke-width:0.15;stroke-dasharray:none"
       id="path8399" />
    <path
       d="m 106.8928,-90.668743 h 0.5155"
       style="stroke:#000000;stroke-width:0.15;stroke-dasharray:none"
       id="path8401" />
    <path
       d="m 97.220358,-82.963503 0.05174,2.043575"
       style="stroke:#000000;stroke-width:0.15;stroke-dasharray:none"
       id="path8403" />
    <path
       d="m 109.47205,-80.463506 c 0.005,0 0.01,-0.0029 0.0146,-0.0086 0.008,-0.0092 0.0151,-0.02562 0.0221,-0.04901 0.0111,-0.03743 0.0208,-0.0925 0.028,-0.160393 0.007,-0.07002 0.012,-0.15342 0.0131,-0.238404"
       style="stroke:#000000;stroke-width:0.15;stroke-dasharray:none"
       id="path8405" />
    <path
       d="m 111.54495,-82.963503 c -0.002,0.0308 -0.004,0.0616 -0.006,0.0923 -0.0118,0.19146 -0.0237,0.38292 -0.0357,0.57438 -0.008,0.11966 -0.0149,0.23933 -0.0224,0.35898 -0.005,0.07479 -0.009,0.149579 -0.0141,0.224365 -0.005,0.07479 -0.009,0.149573 -0.0141,0.224358 -0.007,0.119657 -0.0151,0.239313 -0.0227,0.358968 -0.004,0.07006 -0.009,0.140116 -0.0133,0.210174"
       style="stroke:#000000;stroke-width:0.15;stroke-dasharray:none"
       id="path8407" />
    <path
       d="m 111.77824,-82.963503 c -0.002,0.0308 -0.004,0.0616 -0.006,0.0923 -0.0116,0.19146 -0.0233,0.38292 -0.035,0.57438 -0.007,0.11966 -0.0147,0.23933 -0.022,0.35898 -0.005,0.07479 -0.009,0.149579 -0.0138,0.224365 -0.005,0.07479 -0.009,0.149573 -0.0139,0.224358 -0.007,0.119657 -0.0148,0.239313 -0.0223,0.358968 -0.004,0.07006 -0.009,0.140116 -0.0131,0.210174"
       style="stroke:#000000;stroke-width:0.15;stroke-dasharray:none"
       id="path8409" />
    <path
       d="m 113.10281,-82.963503 -0.17548,2.043575"
       style="stroke:#000000;stroke-width:0.15;stroke-dasharray:none"
       id="path8411" />
    <path
       d="M 109.54987,-80.919928 H 97.411984"
       style="stroke:#000000;stroke-width:0.15;stroke-dasharray:none"
       id="path8413" />
    <path
       d="m 100.06905,-90.963503 v 0.29476"
       style="stroke:#000000;stroke-width:0.15;stroke-dasharray:none"
       id="path8415" />
    <path
       d="m 95.309366,-80.919928 c 0.01323,0.0016 0.02655,0.0031 0.03971,0.0043 0.02106,0.002 0.04161,0.0035 0.06094,0.0044 0.03093,0.0015 0.05929,0.0015 0.08214,5.3e-5 0.02357,-0.0015 0.04166,-0.0045 0.05268,-0.0088"
       style="stroke:#000000;stroke-width:0.15;stroke-dasharray:none"
       id="path8417" />
    <path
       d="m 95.309366,-80.463506 v -0.456422"
       style="stroke:#000000;stroke-width:0.15;stroke-dasharray:none"
       id="path8419" />
    <path
       d="m 97.4898,-80.463506 c -0.01378,0 -0.0276,-0.0029 -0.04116,-0.0086 -0.02169,-0.0092 -0.04252,-0.02562 -0.06195,-0.04901 -0.03109,-0.03743 -0.0581,-0.0925 -0.07806,-0.160393 -0.02058,-0.07002 -0.03335,-0.15342 -0.03653,-0.238404"
       style="stroke:#000000;stroke-width:0.15;stroke-dasharray:none"
       id="path8421" />
    <path
       d="m 111.41701,-80.919928 h -1.72726"
       style="stroke:#000000;stroke-width:0.15;stroke-dasharray:none"
       id="path8423" />
    <path
       d="m 100.06905,-90.668743 h 6.82375"
       style="stroke:#000000;stroke-width:0.15;stroke-dasharray:none"
       id="path8425" />
    <path
       d="m 95.416894,-82.963503 c 0.0019,0.0308 0.0038,0.0616 0.0057,0.0923 0.01184,0.19146 0.02373,0.38292 0.03566,0.57438 0.0075,0.11966 0.01493,0.23933 0.02242,0.35898 0.0047,0.07479 0.0094,0.149579 0.01407,0.224365 0.0047,0.07479 0.0094,0.149573 0.01411,0.224358 0.0075,0.119657 0.01509,0.239313 0.02266,0.358968 0.0044,0.07006 0.0089,0.140116 0.01332,0.210174"
       style="stroke:#000000;stroke-width:0.15;stroke-dasharray:none"
       id="path8427" />
    <path
       d="m 94.034521,-80.919928 -0.175486,-2.043575"
       style="stroke:#000000;stroke-width:0.15;stroke-dasharray:none"
       id="path8429" />
    <path
       d="m 111.4438,-85.363503 v 2.4"
       style="stroke:#000000;stroke-width:0.15;stroke-dasharray:none"
       id="path8431" />
    <path
       d="m 95.544839,-80.919928 0.0026,0.02484 m 0,0 0.0038,0.02467 m 0,0 0.005,0.02444 m 0,0 0.0061,0.02414 m 0,0 0.0073,0.02379 m 0,0 0.0084,0.02338 m 0,0 0.0095,0.0229 m 0,0 0.01054,0.02237 m 0,0 0.01158,0.02179 m 0,0 0.0126,0.02115 m 0,0 0.01358,0.02046 m 0,0 0.01453,0.01971 m 0,0 0.01545,0.01892 m 0,0 0.01632,0.01808 m 0,0 0.01716,0.0172 m 0,0 0.01795,0.01627 m 0,0 0.01869,0.0153 m 0,0 0.01939,0.01429 m 0,0 0.02004,0.01325 m 0,0 0.02064,0.01217 m 0,0 0.02119,0.01106 m 0,0 0.02169,0.0099 m 0,0 0.02213,0.0088 m 0,0 0.02252,0.0076 m 0,0 0.02285,0.0064 m 0,0 0.02312,0.0052 m 0,0 0.02334,0.0039 m 0,0 0.02349,0.0027 m 0,0 0.0236,0.0015 m 0,0 0.01585,2.81e-4"
       style="stroke:#000000;stroke-width:0.15;stroke-dasharray:none"
       id="path8433" />
    <path
       d="m 113.17633,-80.919928 0.17549,-2.043575"
       style="stroke:#000000;stroke-width:0.15;stroke-dasharray:none"
       id="path8435" />
    <path
       d="m 112.92733,-80.919928 h -1.27485"
       style="stroke:#000000;stroke-width:0.15;stroke-dasharray:none"
       id="path8437" />
  </g>
  <path
     style="stroke:#000000;stroke-width:0.15;stroke-dasharray:none"
     d="M 97.856548,-90.963503 H 84.969562"
     id="path11366" />
  <path
     style="stroke:#000000;stroke-width:0.15;stroke-dasharray:none"
     d="m 92.107176,-80.463506 -7.137614,0"
     id="path11364"
     sodipodi:nodetypes="cc" />
  <path
     style="stroke:#000000;stroke-width:0.15;stroke-dasharray:none"
     d="M 86.219562,-80.463506 V -90.963503"
     id="path8453" />
  <path
     d="m 135.86727,-122.20356 h 2.4"
     style="stroke:#000000;stroke-width:0.15;stroke-dasharray:none"
     id="path8457" />
  <path
     d="m 140.76725,-123.79997 a 0.49999989,0.49999989 0 0 0 -0.4564,-0.49351"
     style="stroke:#000000;stroke-width:0.15;stroke-dasharray:none"
     id="path8459" />
  <path
     d="m 138.26727,-112.7993 -7.70524,-0.13449"
     style="stroke:#000000;stroke-width:0.15;stroke-dasharray:none"
     id="path8461" />
  <path
     d="m 138.26727,-124.47227 2.04358,0.17879"
     style="stroke:#000000;stroke-width:0.15;stroke-dasharray:none"
     id="path8463" />
  <path
     d="m 135.86727,-124.43085 v 2.0168"
     style="stroke:#000000;stroke-width:0.15;stroke-dasharray:none"
     id="path8465" />
  <path
     d="m 135.86727,-124.47227 v 0.0414"
     style="stroke:#000000;stroke-width:0.15;stroke-dasharray:none"
     id="path8467" />
  <path
     d="m 135.86727,-122.41405 v 0.21049"
     style="stroke:#000000;stroke-width:0.15;stroke-dasharray:none"
     id="path8469" />
  <path
     d="m 140.31085,-110.57549 a 0.5,0.5 0 0 0 0.45642,-0.4981"
     style="stroke:#000000;stroke-width:0.15;stroke-dasharray:none"
     id="path8471" />
  <path
     d="m 138.26727,-122.16542 v -0.24863"
     style="stroke:#000000;stroke-width:0.15;stroke-dasharray:none"
     id="path8473" />
  <path
     d="m 135.86727,-122.20356 v 3.80275"
     style="stroke:#000000;stroke-width:0.15;stroke-dasharray:none"
     id="path8475" />
  <path
     d="m 140.76727,-121.32668 a 0.5,0.5 0 0 0 -0.45642,-0.49809"
     style="stroke:#000000;stroke-width:0.15;stroke-dasharray:none"
     id="path8477" />
  <path
     d="m 140.76727,-114.69301 v -6.63367"
     style="stroke:#000000;stroke-width:0.15;stroke-dasharray:none"
     id="path8479" />
  <path
     d="m 138.26727,-124.47227 h -2.4"
     style="stroke:#000000;stroke-width:0.15;stroke-dasharray:none"
     id="path8481" />
  <path
     d="m 138.26727,-117.6993 -7.70524,0.1345"
     style="stroke:#000000;stroke-width:0.15;stroke-dasharray:none"
     id="path8485" />
  <path
     d="m 135.86727,-118.40081 a 0.3,0.3 0 0 0 0.3,0.3"
     style="stroke:#000000;stroke-width:0.15;stroke-dasharray:none"
     id="path8487" />
  <path
     d="m 138.26727,-124.43102 v -0.0412"
     style="stroke:#000000;stroke-width:0.15;stroke-dasharray:none"
     id="path8489" />
  <path
     d="m 140.76727,-111.07359 v -3.61942"
     style="stroke:#000000;stroke-width:0.15;stroke-dasharray:none"
     id="path8491" />
  <path
     d="m 138.26727,-114.69932 v 4.05357"
     style="stroke:#000000;stroke-width:0.15;stroke-dasharray:none"
     id="path8493" />
  <path
     d="m 140.76727,-121.83051 v -1.96488"
     style="stroke:#000000;stroke-width:0.15;stroke-dasharray:none"
     id="path8495" />
  <path
     d="m 138.26727,-121.75916 v 7.05984"
     style="stroke:#000000;stroke-width:0.15;stroke-dasharray:none"
     id="path8497" />
  <path
     d="m 138.26727,-122.16542 v 0.16186"
     style="stroke:#000000;stroke-width:0.15;stroke-dasharray:none"
     id="path8499" />
  <path
     d="m 138.26727,-110.64575 v 0.24905"
     style="stroke:#000000;stroke-width:0.15;stroke-dasharray:none"
     id="path8501" />
  <path
     d="m 138.26727,-122.41405 v -2.0168"
     style="stroke:#000000;stroke-width:0.15;stroke-dasharray:none"
     id="path8503" />
  <path
     d="m 138.26727,-122.00356 v 0.2444"
     style="stroke:#000000;stroke-width:0.15;stroke-dasharray:none"
     id="path8505" />
  <path
     d="m 130.26727,-113.41461 v 0.18086"
     style="stroke:#000000;stroke-width:0.15;stroke-dasharray:none"
     id="path8507" />
  <path
     d="m 140.76727,-121.32668 v -0.50383"
     style="stroke:#000000;stroke-width:0.15;stroke-dasharray:none"
     id="path8509" />
  <path
     d="m 138.26727,-124.43085 v -1.7e-4"
     style="stroke:#000000;stroke-width:0.15;stroke-dasharray:none"
     id="path8511" />
  <path
     d="m 130.26727,-117.26485 v 0.25024"
     style="stroke:#000000;stroke-width:0.15;stroke-dasharray:none"
     id="path8513" />
  <path
     d="m 138.26727,-110.3967 2.04358,-0.17879"
     style="stroke:#000000;stroke-width:0.15;stroke-dasharray:none"
     id="path8515" />
  <path
     d="m 130.56203,-117.5648 a 0.3,0.3 0 0 0 -0.29476,0.29995"
     style="stroke:#000000;stroke-width:0.15;stroke-dasharray:none"
     id="path8517" />
  <path
     d="m 130.26727,-113.23375 a 0.3,0.3 0 0 0 0.29476,0.29996"
     style="stroke:#000000;stroke-width:0.15;stroke-dasharray:none"
     id="path8519" />
  <path
     d="m 136.26727,-114.9493 v 1.37028"
     style="stroke:#000000;stroke-width:0.15;stroke-dasharray:none"
     id="path8523" />
  <path
     d="m 136.26727,-116.31958 v 1.37028"
     style="stroke:#000000;stroke-width:0.15;stroke-dasharray:none"
     id="path8525" />
  <path
     d="m 140.31085,-121.82477 -2.04358,-0.17879"
     style="stroke:#000000;stroke-width:0.15;stroke-dasharray:none"
     id="path8527" />
  <path
     d="m 130.26727,-117.01461 v 3.6"
     style="stroke:#000000;stroke-width:0.15;stroke-dasharray:none"
     id="path8529" />
  <path
     d="m 136.16727,-118.10081 h 2.1"
     style="stroke:#000000;stroke-width:0.15;stroke-dasharray:none"
     id="path8531" />
  <path
     d="m 136.26727,-113.57902 a 0.3,0.3 0 0 0 0.29476,0.29996"
     style="stroke:#000000;stroke-width:0.15;stroke-dasharray:none"
     id="path8533" />
  <path
     d="m 136.56203,-116.61953 1.70524,-0.0298"
     style="stroke:#000000;stroke-width:0.15;stroke-dasharray:none"
     id="path8535" />
  <path
     d="m 136.56203,-113.27906 1.70524,0.0298"
     style="stroke:#000000;stroke-width:0.15;stroke-dasharray:none"
     id="path8537" />
  <path
     d="m 136.56203,-116.61953 a 0.3,0.3 0 0 0 -0.29476,0.29995"
     style="stroke:#000000;stroke-width:0.15;stroke-dasharray:none"
     id="path8539" />
  <path
     d="m 140.31085,-110.82454 -2.04358,0.17879"
     style="stroke:#000000;stroke-width:0.15;stroke-dasharray:none"
     id="path8541" />
  <path
     d="m 140.31085,-124.25049 3e-4,-0.007 m 0,0 2.5e-4,-0.006 m 0,0 2e-4,-0.006 m 0,0 1.4e-4,-0.005 m 0,0 8e-5,-0.005 m 0,0 2e-5,-0.004 m 0,0 -3e-5,-0.003 m 0,0 -9e-5,-0.003 m 0,0 -1.4e-4,-0.002 m 0,0 -2e-4,-0.002 m 0,0 -2.6e-4,-8.9e-4 m 0,0 -2.7e-4,-2.6e-4"
     style="stroke:#000000;stroke-width:0.15;stroke-dasharray:none"
     id="path8543" />
  <path
     d="m 140.31085,-121.58037 v 6.88271"
     style="stroke:#000000;stroke-width:0.15;stroke-dasharray:none"
     id="path8545" />
  <path
     d="m 138.26727,-122.41405 h -2.4"
     style="stroke:#000000;stroke-width:0.15;stroke-dasharray:none"
     id="path8547" />
  <path
     d="m 130.56203,-113.36634 v -3.6"
     style="stroke:#000000;stroke-width:0.15;stroke-dasharray:none"
     id="path8549" />
  <path
     d="m 130.26727,-117.01461 3.7e-4,0.002 m 0,0 0.001,0.002 m 0,0 0.002,0.002 m 0,0 0.003,0.002 m 0,0 0.003,0.002 m 0,0 0.004,0.002 m 0,0 0.005,0.002 m 0,0 0.005,0.002 m 0,0 0.006,0.002 m 0,0 0.007,0.002 m 0,0 0.008,0.002 m 0,0 0.008,0.002 m 0,0 0.009,0.002 m 0,0 0.009,0.002 m 0,0 0.01,0.002 m 0,0 0.0105,0.002 m 0,0 0.011,0.002 m 0,0 0.0115,0.002 m 0,0 0.012,0.001 m 0,0 0.0124,0.001 m 0,0 0.0128,10e-4 m 0,0 0.0132,0.001 m 0,0 0.0135,0.001 m 0,0 0.0138,9.3e-4 m 0,0 0.0141,8.2e-4 m 0,0 0.0143,7e-4 m 0,0 0.0145,5.9e-4 m 0,0 0.0147,4.7e-4 m 0,0 0.0148,3.5e-4 m 0,0 0.0149,2.3e-4 m 0,0 0.015,1.1e-4 m 0,0 0.001,1e-5"
     style="stroke:#000000;stroke-width:0.15;stroke-dasharray:none"
     id="path8551" />
  <path
     d="m 135.86727,-124.43085 h 2.4"
     style="stroke:#000000;stroke-width:0.15;stroke-dasharray:none"
     id="path8553" />
  <path
     d="m 140.31085,-124.25049 v 2.25777"
     style="stroke:#000000;stroke-width:0.15;stroke-dasharray:none"
     id="path8555" />
  <path
     d="m 140.31085,-110.82454 0.0248,-0.001 m 0,0 0.0247,-0.002 m 0,0 0.0244,-0.003 m 0,0 0.0241,-0.003 m 0,0 0.0238,-0.004 m 0,0 0.0234,-0.004 m 0,0 0.0229,-0.005 m 0,0 0.0224,-0.006 m 0,0 0.0218,-0.006 m 0,0 0.0211,-0.007 m 0,0 0.0205,-0.007 m 0,0 0.0197,-0.008 m 0,0 0.0189,-0.008 m 0,0 0.0181,-0.009 m 0,0 0.0172,-0.009 m 0,0 0.0163,-0.009 m 0,0 0.0153,-0.01 m 0,0 0.0143,-0.0103 m 0,0 0.0132,-0.0106 m 0,0 0.0122,-0.0109 m 0,0 0.0111,-0.0112 m 0,0 0.01,-0.0115 m 0,0 0.009,-0.0117 m 0,0 0.008,-0.0119 m 0,0 0.006,-0.0121 m 0,0 0.005,-0.0122 m 0,0 0.004,-0.0123 m 0,0 0.003,-0.0124 m 0,0 0.001,-0.0125 m 0,0 2.8e-4,-0.008"
     style="stroke:#000000;stroke-width:0.15;stroke-dasharray:none"
     id="path8557" />
  <path
     d="m 140.31085,-110.57549 0.001,-4.1e-4 m 0,0 0.001,-10e-4 m 0,0 9.3e-4,-0.002 m 0,0 8.8e-4,-0.002 m 0,0 8.1e-4,-0.003 m 0,0 7.4e-4,-0.003 m 0,0 6.8e-4,-0.004 m 0,0 6.1e-4,-0.005 m 0,0 5.3e-4,-0.005 m 0,0 4.7e-4,-0.006 m 0,0 3.9e-4,-0.006 m 0,0 3.1e-4,-0.007 m 0,0 2.4e-4,-0.007 m 0,0 1.6e-4,-0.008 m 0,0 9e-5,-0.008 m 0,0 1e-5,-0.009 m 0,0 -7e-5,-0.009 m 0,0 -1.4e-4,-0.01 m 0,0 -2.2e-4,-0.01 m 0,0 -2.9e-4,-0.0104 m 0,0 -3.7e-4,-0.0107 m 0,0 -4.5e-4,-0.011 m 0,0 -5.2e-4,-0.0113 m 0,0 -5.8e-4,-0.0115 m 0,0 -6.6e-4,-0.0118 m 0,0 -7.3e-4,-0.0119 m 0,0 -7.9e-4,-0.0121 m 0,0 -8.6e-4,-0.0122 m 0,0 -9.2e-4,-0.0123 m 0,0 -9.8e-4,-0.0124 m 0,0 -0.001,-0.0124 m 0,0 -2.8e-4,-0.003"
     style="stroke:#000000;stroke-width:0.15;stroke-dasharray:none"
     id="path8559" />
  <path
     d="m 130.56203,-116.96634 v -0.59846"
     style="stroke:#000000;stroke-width:0.15;stroke-dasharray:none"
     id="path8561" />
  <path
     d="m 136.56203,-114.9493 v -1.67023"
     style="stroke:#000000;stroke-width:0.15;stroke-dasharray:none"
     id="path8563" />
  <path
     d="m 136.56203,-113.27906 v -1.67024"
     style="stroke:#000000;stroke-width:0.15;stroke-dasharray:none"
     id="path8565" />
  <path
     d="m 140.31085,-121.58037 0.001,-0.0124 m 0,0 9.8e-4,-0.0124 m 0,0 9.1e-4,-0.0123 m 0,0 8.6e-4,-0.0122 m 0,0 7.9e-4,-0.0121 m 0,0 7.3e-4,-0.0119 m 0,0 6.5e-4,-0.0117 m 0,0 5.9e-4,-0.0115 m 0,0 5.2e-4,-0.0112 m 0,0 4.5e-4,-0.011 m 0,0 3.7e-4,-0.0107 m 0,0 3e-4,-0.0103 m 0,0 2.2e-4,-0.01 m 0,0 1.5e-4,-0.01 m 0,0 7e-5,-0.009 m 0,0 -10e-6,-0.009 m 0,0 -8e-5,-0.008 m 0,0 -1.5e-4,-0.008 m 0,0 -2.3e-4,-0.007 m 0,0 -3.1e-4,-0.007 m 0,0 -3.8e-4,-0.006 m 0,0 -4.5e-4,-0.006 m 0,0 -5.3e-4,-0.005 m 0,0 -5.9e-4,-0.005 m 0,0 -6.7e-4,-0.004 m 0,0 -7.3e-4,-0.003 m 0,0 -8e-4,-0.003 m 0,0 -8.6e-4,-0.002 m 0,0 -9.2e-4,-0.002 m 0,0 -9.9e-4,-9.6e-4 m 0,0 -9.2e-4,-3.3e-4"
     style="stroke:#000000;stroke-width:0.15;stroke-dasharray:none"
     id="path8567" />
  <path
     d="m 130.56203,-112.93379 v -0.43255"
     style="stroke:#000000;stroke-width:0.15;stroke-dasharray:none"
     id="path8569" />
  <path
     d="m 140.76727,-121.32668 -6.3e-4,-0.0127 m 0,0 -0.002,-0.0127 m 0,0 -0.003,-0.0126 m 0,0 -0.004,-0.0125 m 0,0 -0.006,-0.0124 m 0,0 -0.007,-0.0123 m 0,0 -0.008,-0.0121 m 0,0 -0.009,-0.0118 m 0,0 -0.0103,-0.0116 m 0,0 -0.0114,-0.0113 m 0,0 -0.0125,-0.011 m 0,0 -0.0136,-0.0107 m 0,0 -0.0146,-0.0103 m 0,0 -0.0156,-0.01 m 0,0 -0.0166,-0.01 m 0,0 -0.0175,-0.009 m 0,0 -0.0184,-0.009 m 0,0 -0.0192,-0.008 m 0,0 -0.02,-0.008 m 0,0 -0.0207,-0.007 m 0,0 -0.0214,-0.007 m 0,0 -0.022,-0.006 m 0,0 -0.0226,-0.005 m 0,0 -0.0231,-0.005 m 0,0 -0.0235,-0.004 m 0,0 -0.0239,-0.004 m 0,0 -0.0242,-0.003 m 0,0 -0.0245,-0.002 m 0,0 -0.0247,-0.002 m 0,0 -0.0167,-8.9e-4"
     style="stroke:#000000;stroke-width:0.15;stroke-dasharray:none"
     id="path8571" />
  <path
     d="m 138.26727,-116.9447 -7.70524,-0.0216"
     style="stroke:#000000;stroke-width:0.15;stroke-dasharray:none"
     id="path8573" />
  <path
     d="m 130.26727,-113.41461 3.7e-4,0.002 m 0,0 0.001,0.002 m 0,0 0.002,0.002 m 0,0 0.003,0.002 m 0,0 0.003,0.002 m 0,0 0.004,0.002 m 0,0 0.005,0.002 m 0,0 0.005,0.002 m 0,0 0.006,0.002 m 0,0 0.007,0.002 m 0,0 0.008,0.002 m 0,0 0.008,0.002 m 0,0 0.009,0.002 m 0,0 0.009,0.002 m 0,0 0.01,0.002 m 0,0 0.0105,0.002 m 0,0 0.011,0.002 m 0,0 0.0115,0.002 m 0,0 0.012,10e-4 m 0,0 0.0124,0.001 m 0,0 0.0128,0.001 m 0,0 0.0132,10e-4 m 0,0 0.0135,0.001 m 0,0 0.0138,9.3e-4 m 0,0 0.0141,8.2e-4 m 0,0 0.0143,7e-4 m 0,0 0.0145,5.9e-4 m 0,0 0.0147,4.7e-4 m 0,0 0.0148,3.5e-4 m 0,0 0.0149,2.3e-4 m 0,0 0.015,1.1e-4 m 0,0 0.001,1e-5"
     style="stroke:#000000;stroke-width:0.15;stroke-dasharray:none"
     id="path8575" />
  <path
     d="m 136.37346,-113.35002 -5.81143,-0.0163"
     style="stroke:#000000;stroke-width:0.15;stroke-dasharray:none"
     id="path8577" />
  <path
     d="m 138.26727,-121.75916 2.04358,0.17879"
     style="stroke:#000000;stroke-width:0.15;stroke-dasharray:none"
     id="path8579" />
  <path
     d="m 138.26727,-124.43102 2.04358,0.18053"
     style="stroke:#000000;stroke-width:0.15;stroke-dasharray:none"
     id="path8581" />
  <path
     d="m 136.16727,-118.10081 v -0.29759"
     style="stroke:#000000;stroke-width:0.15;stroke-dasharray:none"
     id="path8583" />
  <path
     d="m 140.31085,-121.82477 c 0.002,1.4e-4 0.003,-7.7e-4 0.004,-0.003 0.002,-0.003 0.003,-0.009 0.004,-0.0174 0.001,-0.0134 0.001,-0.0335 6e-5,-0.0583 -10e-4,-0.0255 -0.005,-0.0563 -0.009,-0.0895"
     style="stroke:#000000;stroke-width:0.15;stroke-dasharray:none"
     id="path8585" />
  <path
     d="m 138.26727,-118.3984 h -2.1"
     style="stroke:#000000;stroke-width:0.15;stroke-dasharray:none"
     id="path8587" />
  <path
     d="m 135.86727,-118.40081 3.7e-4,1.2e-4 m 0,0 0.001,1.2e-4 m 0,0 0.002,1.2e-4 m 0,0 0.003,1.2e-4 m 0,0 0.003,1.1e-4 m 0,0 0.004,1.2e-4 m 0,0 0.005,1.1e-4 m 0,0 0.005,1.2e-4 m 0,0 0.006,1.1e-4 m 0,0 0.007,1.1e-4 m 0,0 0.008,10e-5 m 0,0 0.008,1e-4 m 0,0 0.009,1e-4 m 0,0 0.009,9e-5 m 0,0 0.01,9e-5 m 0,0 0.0105,9e-5 m 0,0 0.011,8e-5 m 0,0 0.0115,8e-5 m 0,0 0.012,7e-5 m 0,0 0.0124,7e-5 m 0,0 0.0128,6e-5 m 0,0 0.0132,6e-5 m 0,0 0.0135,5e-5 m 0,0 0.0138,5e-5 m 0,0 0.0141,4e-5 m 0,0 0.0143,4e-5 m 0,0 0.0145,3e-5 m 0,0 0.0147,2e-5 m 0,0 0.0148,2e-5 m 0,0 0.0149,1e-5 m 0,0 h 0.015 m 0,0 h 0.006"
     style="stroke:#000000;stroke-width:0.15;stroke-dasharray:none"
     id="path8589" />
  <path
     d="m 136.16727,-118.3984 v -3.80516"
     style="stroke:#000000;stroke-width:0.15;stroke-dasharray:none"
     id="path8591" />
  <path
     d="m 140.76727,-123.79539 c 0,-0.028 -0.003,-0.0562 -0.009,-0.084 -0.009,-0.0445 -0.0256,-0.0877 -0.049,-0.12824 -0.0374,-0.0649 -0.0925,-0.1221 -0.16039,-0.16463 -0.07,-0.0438 -0.15342,-0.0714 -0.2384,-0.0782"
     style="stroke:#000000;stroke-width:0.15;stroke-dasharray:none"
     id="path8593" />
  <path
     d="m 138.26727,-122.16542 2.04358,0.1727"
     style="stroke:#000000;stroke-width:0.15;stroke-dasharray:none"
     id="path8595" />
  <path
     d="m 140.31085,-114.69766 v 3.87312"
     style="stroke:#000000;stroke-width:0.15;stroke-dasharray:none"
     id="path8597" />
  <path
     d="m 140.76727,-121.83051 -6.3e-4,-0.008 m 0,0 -0.002,-0.008 m 0,0 -0.003,-0.008 m 0,0 -0.004,-0.008 m 0,0 -0.006,-0.008 m 0,0 -0.007,-0.008 m 0,0 -0.008,-0.008 m 0,0 -0.009,-0.008 m 0,0 -0.0103,-0.007 m 0,0 -0.0114,-0.007 m 0,0 -0.0125,-0.007 m 0,0 -0.0136,-0.007 m 0,0 -0.0146,-0.007 m 0,0 -0.0156,-0.006 m 0,0 -0.0166,-0.006 m 0,0 -0.0175,-0.006 m 0,0 -0.0184,-0.006 m 0,0 -0.0192,-0.005 m 0,0 -0.02,-0.005 m 0,0 -0.0207,-0.005 m 0,0 -0.0214,-0.004 m 0,0 -0.022,-0.004 m 0,0 -0.0226,-0.004 m 0,0 -0.0231,-0.003 m 0,0 -0.0235,-0.003 m 0,0 -0.0239,-0.002 m 0,0 -0.0242,-0.002 m 0,0 -0.0245,-0.002 m 0,0 -0.0247,-0.001 m 0,0 -0.0167,-5.7e-4"
     style="stroke:#000000;stroke-width:0.15;stroke-dasharray:none"
     id="path8599" />
  <rect
     style="fill:#fff5ff;stroke-width:0.15;stroke-linecap:round;stroke-miterlimit:0;stroke-dasharray:none;paint-order:fill markers stroke"
     id="rect10945"
     width="5.2213798"
     height="2.7971675"
     x="125.67634"
     y="-74.309731" />
  <path
     style="fill:#000000;stroke:#000000;stroke-width:0.15;stroke-linecap:round;stroke-linejoin:miter;stroke-miterlimit:4;stroke-dasharray:none;stroke-opacity:1"
     d="m 84.385168,-110.3967 0,-3.8325"
     id="path3826-29-4-29-1-9-6-8-3-7-1"
     sodipodi:nodetypes="cc" />
  <path
     style="fill:#000000;stroke:#000000;stroke-width:0.15;stroke-linecap:round;stroke-linejoin:miter;stroke-miterlimit:4;stroke-dasharray:none;stroke-opacity:1"
     d="m 84.385168,-120.63977 v -3.8325"
     id="path3826-29-4-29-1-9-6-8-3-7-1-6"
     sodipodi:nodetypes="cc" />
  <path
     style="fill:#000000;stroke:#000000;stroke-width:0.15;stroke-linecap:round;stroke-linejoin:miter;stroke-miterlimit:4;stroke-dasharray:none;stroke-opacity:1"
     d="m 82.947667,-110.3967 h 8.79316"
     id="path3670-1-6-4-2-8-3-8-6" />
  <path
     style="fill:#000000;stroke:#000000;stroke-width:0.15;stroke-linecap:round;stroke-linejoin:miter;stroke-miterlimit:4;stroke-dasharray:none;stroke-opacity:1"
     d="m 82.947667,-124.47227 h 8.79316"
     id="path3670-1-6-4-2-8-3-8-6-1" />
  <text
     xml:space="preserve"
     style="font-size:5.29167px;line-height:1.25;font-family:sans-serif;fill:#000000;stroke-width:0.264583;stroke-linecap:round;stroke-linejoin:round"
     x="81.175766"
     y="-115.53477"
     id="text4889-9-9-4-2-6-2-1-5-5"><tspan
       sodipodi:role="line"
       id="tspan4887-0-2-9-29-2-1-5-5-5"
       style="font-size:5.29167px;fill:#000000;stroke-width:0.264583"
       x="81.175766"
       y="-115.53477">14</tspan></text>
  <text
     xml:space="preserve"
     style="font-size:5.29167px;line-height:1.25;font-family:sans-serif;fill:#000000;stroke-width:0.264583;stroke-linecap:round;stroke-linejoin:round"
     x="79.100182"
     y="-83.821732"
     id="text4889-9-9-4-2-6-2-1-5-5-0"><tspan
       sodipodi:role="line"
       id="tspan4887-0-2-9-29-2-1-5-5-5-1"
       style="font-size:5.29167px;fill:#000000;stroke-width:0.264583"
       x="79.100182"
       y="-83.821732">10</tspan></text>
  <text
     xml:space="preserve"
     style="font-size:5.29167px;line-height:1.25;font-family:sans-serif;fill:#000000;stroke-width:0.264583;stroke-linecap:round;stroke-linejoin:round"
     x="100.45673"
     y="-100.81357"
     id="text4889-9-9-4-2-6-2-1-5-5-1"><tspan
       sodipodi:role="line"
       id="tspan4887-0-2-9-29-2-1-5-5-5-8"
       style="font-size:5.29167px;fill:#000000;stroke-width:0.264583"
       x="100.45673"
       y="-100.81357">20</tspan></text>
</svg>
