<?xml version="1.0" encoding="UTF-8" standalone="no"?>
<svg
   width="640"
   height="660"
   version="1.1"
   viewBox="0 0 169.33 174.62261"
   id="svg88"
   sodipodi:docname="diagrama t5 clear.svg"
   inkscape:version="1.2.2 (732a01da63, 2022-12-09)"
   xmlns:inkscape="http://www.inkscape.org/namespaces/inkscape"
   xmlns:sodipodi="http://sodipodi.sourceforge.net/DTD/sodipodi-0.dtd"
   xmlns="http://www.w3.org/2000/svg"
   xmlns:svg="http://www.w3.org/2000/svg">
  <defs
     id="defs92" />
  <sodipodi:namedview
     id="namedview90"
     pagecolor="#505050"
     bordercolor="#ffffff"
     borderopacity="1"
     inkscape:showpageshadow="0"
     inkscape:pageopacity="0"
     inkscape:pagecheckerboard="1"
     inkscape:deskcolor="#505050"
     showgrid="false"
     inkscape:zoom="0.96740406"
     inkscape:cx="282.71537"
     inkscape:cy="409.34292"
     inkscape:window-width="1920"
     inkscape:window-height="1009"
     inkscape:window-x="-8"
     inkscape:window-y="-8"
     inkscape:window-maximized="1"
     inkscape:current-layer="svg88" />
  <g
     fill-rule="evenodd"
     id="g40"
     transform="translate(0,-5.2899973)">
    <path
       transform="matrix(0.28284,0,0,0.28284,84.756,23.788)"
       d="m 0,429.79 -7.4984,-0.206 -7.4769,-0.746 -7.4317,-1.285 -7.3531,-1.961 -7.2456,-2.613 -7.1354,-3.002 -6.9963,-3.494 -6.8538,-3.852 -6.6983,-4.195 -6.5169,-4.602 -6.3963,-4.601 -6.2649,-4.665 -6.1101,-4.83 -5.9135,-5.137 -5.7468,-5.281 -5.556,-5.487 -5.479,-5.295 -5.453,-4.983 -5.264,-5.203 -5.175,-5.122 -5.122,-4.963 -5.176,-4.566 -5.374,-3.898 -5.452,-3.595 -5.553,-3.289 -5.576,-3.191 -5.523,-3.264 -5.485,-3.304 -5.393,-3.447 -5.184,-3.78 -4.721,-4.505 -4.259,-5.149 -3.692,-5.889 -3.335,-6.234 -2.935,-6.603 -2.286,-7.278 -1.924,-7.493 -1.747,-7.446 -1.028,-8.068 -1.337,-7.394 -1.167,-7.336 -0.842,-7.446 -0.584,-7.47 -0.42,-7.383 -0.469,-7.088 0.242,-7.548 1.194,-8.175 1.177,-7.859 1.678,-8.009 2.662,-8.539 2.813,-8.322 3.49,-8.524 3.248,-7.99 4.77,-8.778 5.838,-9.141 8.192,-10.306 10.916,-11.553 14.148,-12.936 15.446,-12.949 18.602,-13.969 20.076,-13.864 19.329,-12.507 15.914,-9.8683 13.127,-7.7844 11.244,-6.3205 8.1642,-4.4579 4.9558,-2.7445 2.5456,-1.5586 1.226,-0.94193 0.5586,-0.644 0.3086,-0.53041 0.2982,-0.50997 0.3317,-0.50413 0.3428,-0.49043 0.3988,-0.48861 0.7954,-0.56912 1.2307,-0.63705 1.5214,-0.65092 1.8368,-0.6545 2.073,-0.62782 2.3557,-0.59658 2.4067,-0.51846 1.9797,-0.37968 1.4431,-0.25269 1.1118,-0.17249 0.84767,-0.11475 0.47658,-0.065462 0.15061,-0.037337 0.05772,-0.030416 0.03485,-0.028383 0.05873,-0.026749 0.07086,-0.024291 0.07122,-0.021827 0.08318,-0.018542 0.07173,-0.016682 0.06025,-0.01543 0.04879,-0.014789 0.03734,-0.014753 0.02595,-0.015323 0.04919,-0.010402 0.037732,-0.010972 -0.065202,-0.031604 0.14082,0.013442 0.037823,-0.007195 0.03779,-0.00594 0.026477,-0.007915 0.037684,-0.003639 0.02643,-0.006012 0.037464,-0.001353 0.048272,0.003879 0.047911,0.005487 0.058356,0.011465 0.046987,0.008854 0.035811,0.005662 0.046057,0.011788 0.02446,0.00307 0.013796,-0.00145 0.013725,-0.001028 0.00341,-0.006281 0.00352,-0.00622 0.003627,-0.006158 -0.006188,-0.012294 -0.005862,-0.012572 0.11087,0.065668 -0.112,-0.084906 -0.004959,-0.013194 -0.004607,-0.013443 -0.022687,-0.02809 0.032744,0.015217 -0.039618,-0.043906 -0.020523,-0.030015 -0.063063,-0.069971 0.016282,-4.52e-4 -0.009102,-0.024402 -0.016661,-0.033121 -0.015644,-0.033836 -0.006627,-0.025969 -0.0137,-0.035052 0.002724,-0.018031 -0.004328,-0.027076 -0.003539,-0.027407 0.004463,-0.0185 0.004947,-0.018543 0.005434,-0.018575 0.012635,-0.009012 0.006247,-0.01849 0.013112,-0.008678 0.007061,-0.018371 0.01358,-0.008322 0.007874,-0.018216 0.01404,-0.007944 0.014177,-0.007697 0.01431,-0.007449 0.014437,-0.007198 0.01456,-0.006945 0.014679,-0.00669 0.014794,-0.006433 0.010521,-0.017021 0.0152,-0.005987 0.015301,-0.005721 0.015399,-0.005453 0.015492,-0.005184 0.012159,-0.016101 0.015859,-0.004698 0.015939,-0.00442 0.018844,0.007211 -0.015698,-0.14061 0.045099,0.12182 0.034068,0.088582 -0.003628,-0.10642 0.012854,-0.025875 0.018593,0.009051 0.016804,-0.002213 0.014393,-0.02519 0.017278,-0.001664 0.016487,-0.013034 0.017529,-0.00107 0.017136,-0.01246 0.017759,-4.6e-4 0.017765,-1.6e-4 0.017765,1.6e-4 0.017759,4.6e-4 0.017136,0.01246 0.017529,0.00107 0.016487,0.013034 0.017278,0.001664 0.014393,0.02519 0.016804,0.002213 0.018593,-0.009051 0.012854,0.025875 -0.003628,0.10642 0.034068,-0.088582 0.045099,-0.12182 -0.015698,0.14061 0.018844,-0.007211 0.015939,0.00442 0.015859,0.004698 0.012159,0.016101 0.015492,0.005184 0.015399,0.005453 0.015301,0.005721 0.0152,0.005987 0.010521,0.017021 0.014794,0.006433 0.014679,0.00669 0.01456,0.006945 0.014437,0.007198 0.01431,0.007449 0.014177,0.007697 0.01404,0.007944 0.007874,0.018216 0.01358,0.008322 0.007061,0.018371 0.013112,0.008678 0.006247,0.01849 0.012635,0.009012 0.005434,0.018575 0.004947,0.018543 0.004463,0.0185 -0.003539,0.027407 -0.004328,0.027076 0.002724,0.018031 -0.0137,0.035052 -0.006627,0.025969 -0.015644,0.033836 -0.016661,0.033121 -0.009102,0.024402 0.016282,4.52e-4 -0.063063,0.069971 -0.020523,0.030015 -0.039618,0.043906 0.032744,-0.015217 -0.022687,0.02809 -0.004607,0.013443 -0.004959,0.013194 -0.112,0.084906 0.11087,-0.065668 -0.005862,0.012572 -0.006188,0.012294 0.003627,0.006158 0.00352,0.00622 0.00341,0.006281 0.013725,0.001028 0.013796,0.00145 0.02446,-0.00307 0.046057,-0.011788 0.035811,-0.005662 0.046987,-0.008854 0.058356,-0.011465 0.047911,-0.005487 0.048272,-0.003879 0.037464,0.001353 0.02643,0.006012 0.037684,0.003639 0.026477,0.007915 0.03779,0.00594 0.037823,0.007195 0.14082,-0.013442 -0.065202,0.031604 0.037732,0.010972 0.04919,0.010402 0.02595,0.015323 0.03734,0.014753 0.04879,0.014789 0.06025,0.01543 0.07173,0.016682 0.08318,0.018542 0.07122,0.021827 0.07086,0.024291 0.05873,0.026749 0.03485,0.028383 0.05772,0.030416 0.15061,0.037337 0.47658,0.065462 0.84767,0.11475 1.1118,0.17249 1.4431,0.25269 1.9797,0.37968 2.4067,0.51846 2.3557,0.59658 2.073,0.62782 1.8368,0.6545 1.5214,0.65092 1.2307,0.63705 0.7954,0.56912 0.3988,0.48861 0.3428,0.49043 0.3317,0.50413 0.2982,0.50997 0.3086,0.53041 0.5586,0.644 1.226,0.94193 2.5456,1.5586 4.9558,2.7445 8.1642,4.4579 11.244,6.3205 13.127,7.7844 15.914,9.8683 19.329,12.507 20.076,13.864 18.602,13.969 15.446,12.949 14.148,12.936 10.916,11.553 8.192,10.306 5.838,9.141 4.77,8.778 3.248,7.99 3.49,8.524 2.813,8.322 2.662,8.539 1.678,8.009 1.177,7.859 1.194,8.175 0.242,7.548 -0.469,7.088 -0.42,7.383 -0.584,7.47 -0.842,7.446 -1.167,7.336 -1.337,7.394 -1.028,8.068 -1.747,7.446 -1.924,7.493 -2.286,7.278 -2.935,6.603 -3.335,6.234 -3.692,5.889 -4.259,5.149 -4.721,4.505 -5.184,3.78 -5.393,3.447 -5.485,3.304 -5.523,3.264 -5.576,3.191 -5.553,3.289 -5.452,3.595 -5.374,3.898 -5.176,4.566 -5.122,4.963 -5.175,5.122 -5.264,5.203 -5.453,4.983 -5.479,5.295 -5.556,5.487 -5.7468,5.281 -5.9135,5.137 -6.1101,4.83 -6.2649,4.665 -6.3963,4.601 -6.5169,4.602 -6.6983,4.195 -6.8538,3.852 -6.9963,3.494 -7.1354,3.002 -7.2456,2.613 -7.3531,1.961 -7.4317,1.285 -7.4769,0.746 -7.4984,0.206"
       fill="#fcff5c"
       fill-opacity="0.70588"
       id="path4" />
    <path
       transform="matrix(0.28284,0,0,0.28284,84.756,23.788)"
       d="m 0,429.79 -7.4984,-0.206 -7.4769,-0.746 -7.4317,-1.285 -7.3531,-1.961 -7.2456,-2.613 -7.1354,-3.002 -6.9963,-3.494 -6.8538,-3.852 -6.6983,-4.195 -6.5169,-4.602 -6.3963,-4.601 -6.2649,-4.665 -6.1101,-4.83 -5.9135,-5.137 -5.7468,-5.281 -5.556,-5.487 -5.479,-5.295 -5.453,-4.983 -5.264,-5.203 -5.175,-5.122 -5.122,-4.963 -5.176,-4.566 -5.374,-3.898 -5.452,-3.595 -5.553,-3.289 -5.576,-3.191 -5.523,-3.264 -5.485,-3.304 -5.393,-3.447 -5.184,-3.78 -4.721,-4.505 -4.259,-5.149 -3.692,-5.889 -3.335,-6.234 -2.935,-6.603 -2.286,-7.278 -1.924,-7.493 -1.747,-7.446 -1.028,-8.068 -1.337,-7.394 -1.167,-7.336 -0.842,-7.446 -0.584,-7.47 -0.42,-7.383 -0.469,-7.088 0.242,-7.548 1.194,-8.175 1.177,-7.859 1.678,-8.009 2.662,-8.539 2.813,-8.322 3.49,-8.524 3.248,-7.99 4.77,-8.778 5.838,-9.141 8.192,-10.306 10.916,-11.553 14.148,-12.936 15.446,-12.949 18.602,-13.969 20.076,-13.864 19.329,-12.507 15.914,-9.8683 13.127,-7.7844 11.244,-6.3205 8.1642,-4.4579 4.9558,-2.7445 2.5456,-1.5586 1.226,-0.94193 0.5586,-0.644 0.3086,-0.53041 0.2982,-0.50997 0.3317,-0.50413 0.3428,-0.49043 0.3988,-0.48861 0.7954,-0.56912 1.2307,-0.63705 1.5214,-0.65092 1.8368,-0.6545 2.073,-0.62782 2.3557,-0.59658 2.4067,-0.51846 1.9797,-0.37968 1.4431,-0.25269 1.1118,-0.17249 0.84767,-0.11475 0.47658,-0.065462 0.15061,-0.037337 0.05772,-0.030416 0.03485,-0.028383 0.05873,-0.026749 0.07086,-0.024291 0.07122,-0.021827 0.08318,-0.018542 0.07173,-0.016682 0.06025,-0.01543 0.04879,-0.014789 0.03734,-0.014753 0.02595,-0.015323 0.04919,-0.010402 0.037732,-0.010972 -0.065202,-0.031604 0.14082,0.013442 0.037823,-0.007195 0.03779,-0.00594 0.026477,-0.007915 0.037684,-0.003639 0.02643,-0.006012 0.037464,-0.001353 0.048272,0.003879 0.047911,0.005487 0.058356,0.011465 0.046987,0.008854 0.035811,0.005662 0.046057,0.011788 0.02446,0.00307 0.013796,-0.00145 0.013725,-0.001028 0.00341,-0.006281 0.00352,-0.00622 0.003627,-0.006158 -0.006188,-0.012294 -0.005862,-0.012572 0.11087,0.065668 -0.112,-0.084906 -0.004959,-0.013194 -0.004607,-0.013443 -0.022687,-0.02809 0.032744,0.015217 -0.039618,-0.043906 -0.020523,-0.030015 -0.063063,-0.069971 0.016282,-4.52e-4 -0.009102,-0.024402 -0.016661,-0.033121 -0.015644,-0.033836 -0.006627,-0.025969 -0.0137,-0.035052 0.002724,-0.018031 -0.004328,-0.027076 -0.003539,-0.027407 0.004463,-0.0185 0.004947,-0.018543 0.005434,-0.018575 0.012635,-0.009012 0.006247,-0.01849 0.013112,-0.008678 0.007061,-0.018371 0.01358,-0.008322 0.007874,-0.018216 0.01404,-0.007944 0.014177,-0.007697 0.01431,-0.007449 0.014437,-0.007198 0.01456,-0.006945 0.014679,-0.00669 0.014794,-0.006433 0.010521,-0.017021 0.0152,-0.005987 0.015301,-0.005721 0.015399,-0.005453 0.015492,-0.005184 0.012159,-0.016101 0.015859,-0.004698 0.015939,-0.00442 0.018844,0.007211 -0.015698,-0.14061 0.045099,0.12182 0.034068,0.088582 -0.003628,-0.10642 0.012854,-0.025875 0.018593,0.009051 0.016804,-0.002213 0.014393,-0.02519 0.017278,-0.001664 0.016487,-0.013034 0.017529,-0.00107 0.017136,-0.01246 0.017759,-4.6e-4 0.017765,-1.6e-4 v 0 l 0.017765,1.6e-4 0.017759,4.6e-4 0.017136,0.01246 0.017529,0.00107 0.016487,0.013034 0.017278,0.001664 0.014393,0.02519 0.016804,0.002213 0.018593,-0.009051 0.012854,0.025875 -0.003628,0.10642 0.034068,-0.088582 0.045099,-0.12182 -0.015698,0.14061 0.018844,-0.007211 0.015939,0.00442 0.015859,0.004698 0.012159,0.016101 0.015492,0.005184 0.015399,0.005453 0.015301,0.005721 0.0152,0.005987 0.010521,0.017021 0.014794,0.006433 0.014679,0.00669 0.01456,0.006945 0.014437,0.007198 0.01431,0.007449 0.014177,0.007697 0.01404,0.007944 0.007874,0.018216 0.01358,0.008322 0.007061,0.018371 0.013112,0.008678 0.006247,0.01849 0.012635,0.009012 0.005434,0.018575 0.004947,0.018543 0.004463,0.0185 -0.003539,0.027407 -0.004328,0.027076 0.002724,0.018031 -0.0137,0.035052 -0.006627,0.025969 -0.015644,0.033836 -0.016661,0.033121 -0.009102,0.024402 0.016282,4.52e-4 -0.063063,0.069971 -0.020523,0.030015 -0.039618,0.043906 0.032744,-0.015217 -0.022687,0.02809 -0.004607,0.013443 -0.004959,0.013194 -0.112,0.084906 0.11087,-0.065668 -0.005862,0.012572 -0.006188,0.012294 0.003627,0.006158 0.00352,0.00622 0.00341,0.006281 0.013725,0.001028 0.013796,0.00145 0.02446,-0.00307 0.046057,-0.011788 0.035811,-0.005662 0.046987,-0.008854 0.058356,-0.011465 0.047911,-0.005487 0.048272,-0.003879 0.037464,0.001353 0.02643,0.006012 0.037684,0.003639 0.026477,0.007915 0.03779,0.00594 0.037823,0.007195 0.14082,-0.013442 -0.065202,0.031604 0.037732,0.010972 0.04919,0.010402 0.02595,0.015323 0.03734,0.014753 0.04879,0.014789 0.06025,0.01543 0.07173,0.016682 0.08318,0.018542 0.07122,0.021827 0.07086,0.024291 0.05873,0.026749 0.03485,0.028383 0.05772,0.030416 0.15061,0.037337 0.47658,0.065462 0.84767,0.11475 1.1118,0.17249 1.4431,0.25269 1.9797,0.37968 2.4067,0.51846 2.3557,0.59658 2.073,0.62782 1.8368,0.6545 1.5214,0.65092 1.2307,0.63705 0.7954,0.56912 0.3988,0.48861 0.3428,0.49043 0.3317,0.50413 0.2982,0.50997 0.3086,0.53041 0.5586,0.644 1.226,0.94193 2.5456,1.5586 4.9558,2.7445 8.1642,4.4579 11.244,6.3205 13.127,7.7844 15.914,9.8683 19.329,12.507 20.076,13.864 18.602,13.969 15.446,12.949 14.148,12.936 10.916,11.553 8.192,10.306 5.838,9.141 4.77,8.778 3.248,7.99 3.49,8.524 2.813,8.322 2.662,8.539 1.678,8.009 1.177,7.859 1.194,8.175 0.242,7.548 -0.469,7.088 -0.42,7.383 -0.584,7.47 -0.842,7.446 -1.167,7.336 -1.337,7.394 -1.028,8.068 -1.747,7.446 -1.924,7.493 -2.286,7.278 -2.935,6.603 -3.335,6.234 -3.692,5.889 -4.259,5.149 -4.721,4.505 -5.184,3.78 -5.393,3.447 -5.485,3.304 -5.523,3.264 -5.576,3.191 -5.553,3.289 -5.452,3.595 -5.374,3.898 -5.176,4.566 -5.122,4.963 -5.175,5.122 -5.264,5.203 -5.453,4.983 -5.479,5.295 -5.556,5.487 -5.7468,5.281 -5.9135,5.137 -6.1101,4.83 -6.2649,4.665 -6.3963,4.601 -6.5169,4.602 -6.6983,4.195 -6.8538,3.852 -6.9963,3.494 -7.1354,3.002 -7.2456,2.613 -7.3531,1.961 -7.4317,1.285 -7.4769,0.746 -7.4984,0.206"
       fill="none"
       stroke="#fcff5c"
       stroke-linecap="round"
       stroke-linejoin="round"
       stroke-width="3.7418"
       id="path8" />
    <g
       fill="#848484"
       font-family="Lato"
       stroke-linejoin="round"
       id="g28">
      <g
         font-size="14.937px"
         stroke-width="1.2448"
         id="g22">
        <g
           aria-label="90°"
           transform="matrix(0.28341,0,0,0.28341,23.833,23.783)"
           id="text10">
          <path
             d="m 476.10021,2.1085219 q -0.60495,0 -1.15015,-0.2016495 -0.53773,-0.2016495 -0.9485,-0.5900115 -0.41077,-0.3958305 -0.65723,-0.96343651 -0.23899,-0.57507451 -0.23899,-1.31445603 0,-0.70203906 0.2614,-1.31445606 0.26139,-0.612417 0.73191,-1.0679955 0.47051,-0.4555785 1.12027,-0.716976 0.64976,-0.2613975 1.42649,-0.2613975 0.76925,0 1.39661,0.253929 0.62735,0.253929 1.07546,0.7095075 0.44811,0.4555785 0.6871,1.090401 0.24646,0.6348226 0.24646,1.40407806 0,0.46304701 -0.0896,0.88128302 -0.0821,0.41076751 -0.24646,0.80659802 -0.16431,0.3958305 -0.39583,0.791661 -0.22405,0.388362 -0.51533,0.806598 l -2.6065,3.7641241 q -0.0971,0.1419015 -0.27634,0.2315235 Q 475.74172,6.5 475.5102,6.5 h -1.22484 l 3.25627,-4.2645136 q 0.1643,-0.2165865 0.30621,-0.4107675 0.1419,-0.194181 0.26886,-0.388362 -0.41077,0.328614 -0.92609,0.5003895 -0.51533,0.1717755 -1.0904,0.1717755 z m 2.67372,-3.1293015 q 0,-0.5003895 -0.16431,-0.9036886 -0.15684,-0.4107675 -0.44064,-0.6945705 -0.2838,-0.283803 -0.67963,-0.433173 -0.38836,-0.1568385 -0.85888,-0.1568385 -0.49292,0 -0.90369,0.164307 -0.4033,0.1568385 -0.69457,0.4406415 -0.2838,0.283803 -0.44064,0.6796335 -0.15684,0.3958306 -0.15684,0.8663461 0,0.50785797 0.1419,0.91115698 0.14937,0.39583051 0.41824,0.67216501 0.27633,0.27633451 0.6647,0.41823601 0.39583,0.1419015 0.88128,0.1419015 0.53773,0 0.9485,-0.1717755 0.41823,-0.17924401 0.70204,-0.47051551 0.2838,-0.29127151 0.43317,-0.67216501 0.14937,-0.38089351 0.14937,-0.79166098 z"
             id="path1555" />
          <path
             d="m 488.87881,1.1525539 q 0,1.404078 -0.30621,2.434731 -0.29874,1.0231846 -0.82153,1.6953496 -0.5228,0.672165 -1.23978,1.000779 -0.7095,0.328614 -1.52357,0.328614 -0.82153,0 -1.53104,-0.328614 -0.70204,-0.328614 -1.22484,-1.000779 -0.52279,-0.672165 -0.82153,-1.6953496 -0.29874,-1.030653 -0.29874,-2.434731 0,-1.40407802 0.29874,-2.434731 0.29874,-1.0306531 0.82153,-1.7028181 0.5228,-0.6796335 1.22484,-1.0082475 0.70951,-0.328614 1.53104,-0.328614 0.81407,0 1.52357,0.328614 0.71698,0.328614 1.23978,1.0082475 0.52279,0.672165 0.82153,1.7028181 0.30621,1.03065298 0.30621,2.434731 z m -1.38167,0 q 0,-1.22483402 -0.20912,-2.05383754 -0.20165,-0.83647206 -0.55267,-1.34433006 -0.34355,-0.507858 -0.79913,-0.7244445 -0.45558,-0.224055 -0.9485,-0.224055 -0.49292,0 -0.9485,0.224055 -0.45558,0.2165865 -0.79913,0.7244445 -0.34355,0.507858 -0.55267,1.34433006 -0.20165,0.82900352 -0.20165,2.05383754 0,1.224834 0.20165,2.0538375 0.20912,0.8290036 0.55267,1.3368616 0.34355,0.507858 0.79913,0.731913 0.45558,0.2165865 0.9485,0.2165865 0.49292,0 0.9485,-0.2165865 0.45558,-0.224055 0.79913,-0.731913 0.35102,-0.507858 0.55267,-1.3368616 0.20912,-0.8290035 0.20912,-2.0538375 z"
             id="path1557" />
          <path
             d="m 489.84971,-1.9244682 q 0,-0.5003895 0.18672,-0.941031 0.18671,-0.4406415 0.51532,-0.761787 0.32862,-0.328614 0.76926,-0.5153265 0.44811,-0.1867125 0.96343,-0.1867125 0.51533,0 0.95597,0.1867125 0.44811,0.1867125 0.77673,0.5153265 0.32861,0.3211455 0.51532,0.761787 0.18671,0.4406415 0.18671,0.941031 0,0.4929211 -0.18671,0.93356256 -0.18671,0.43317301 -0.51532,0.76178702 -0.32862,0.3211455 -0.77673,0.51532651 -0.44064,0.1867125 -0.95597,0.1867125 -0.51532,0 -0.96343,-0.1867125 -0.44064,-0.19418101 -0.76926,-0.51532651 -0.32861,-0.32861401 -0.51532,-0.76178702 -0.18672,-0.44064146 -0.18672,-0.93356256 z m 0.9485,0.00747 q 0,0.3136771 0.11203,0.5900116 0.11203,0.268866 0.31368,0.47051546 0.20165,0.20164951 0.47051,0.32114551 0.27634,0.1120275 0.59001,0.1120275 0.31368,0 0.58255,-0.1120275 0.26886,-0.119496 0.47051,-0.32114551 0.20165,-0.20164946 0.31368,-0.47051546 0.11203,-0.2763345 0.11203,-0.5900116 0,-0.313677 -0.11203,-0.5900115 -0.11203,-0.2763345 -0.31368,-0.477984 -0.20165,-0.209118 -0.47051,-0.3211455 -0.26887,-0.119496 -0.58255,-0.119496 -0.31367,0 -0.59001,0.119496 -0.26886,0.1120275 -0.47051,0.3211455 -0.20165,0.2016495 -0.31368,0.477984 -0.11203,0.2763345 -0.11203,0.5900115 z"
             id="path1559" />
        </g>
        <g
           aria-label="90°"
           transform="matrix(0.28341,0,0,0.28341,145.55,23.783)"
           id="text12">
          <path
             d="m -491.89979,2.1085219 q -0.60495,0 -1.15015,-0.2016495 -0.53773,-0.2016495 -0.9485,-0.5900115 -0.41077,-0.3958305 -0.65723,-0.96343651 -0.23899,-0.57507451 -0.23899,-1.31445603 0,-0.70203906 0.2614,-1.31445606 0.26139,-0.612417 0.73191,-1.0679955 0.47051,-0.4555785 1.12027,-0.716976 0.64976,-0.2613975 1.42649,-0.2613975 0.76925,0 1.39661,0.253929 0.62735,0.253929 1.07546,0.7095075 0.44811,0.4555785 0.6871,1.090401 0.24646,0.6348226 0.24646,1.40407806 0,0.46304701 -0.0896,0.88128302 -0.0821,0.41076751 -0.24646,0.80659802 -0.16431,0.3958305 -0.39583,0.791661 -0.22405,0.388362 -0.51533,0.806598 l -2.6065,3.7641241 q -0.0971,0.1419015 -0.27634,0.2315235 Q -492.25828,6.5 -492.4898,6.5 h -1.22484 l 3.25627,-4.2645136 q 0.1643,-0.2165865 0.30621,-0.4107675 0.1419,-0.194181 0.26886,-0.388362 -0.41077,0.328614 -0.92609,0.5003895 -0.51533,0.1717755 -1.0904,0.1717755 z m 2.67372,-3.1293015 q 0,-0.5003895 -0.16431,-0.9036886 -0.15684,-0.4107675 -0.44064,-0.6945705 -0.2838,-0.283803 -0.67963,-0.433173 -0.38836,-0.1568385 -0.85888,-0.1568385 -0.49292,0 -0.90369,0.164307 -0.4033,0.1568385 -0.69457,0.4406415 -0.2838,0.283803 -0.44064,0.6796335 -0.15684,0.3958306 -0.15684,0.8663461 0,0.50785797 0.1419,0.91115698 0.14937,0.39583051 0.41824,0.67216501 0.27633,0.27633451 0.6647,0.41823601 0.39583,0.1419015 0.88128,0.1419015 0.53773,0 0.9485,-0.1717755 0.41823,-0.17924401 0.70204,-0.47051551 0.2838,-0.29127151 0.43317,-0.67216501 0.14937,-0.38089351 0.14937,-0.79166098 z"
             id="path1562" />
          <path
             d="m -479.12119,1.1525539 q 0,1.404078 -0.30621,2.434731 -0.29874,1.0231846 -0.82153,1.6953496 -0.5228,0.672165 -1.23978,1.000779 -0.7095,0.328614 -1.52357,0.328614 -0.82153,0 -1.53104,-0.328614 -0.70204,-0.328614 -1.22484,-1.000779 -0.52279,-0.672165 -0.82153,-1.6953496 -0.29874,-1.030653 -0.29874,-2.434731 0,-1.40407802 0.29874,-2.434731 0.29874,-1.0306531 0.82153,-1.7028181 0.5228,-0.6796335 1.22484,-1.0082475 0.70951,-0.328614 1.53104,-0.328614 0.81407,0 1.52357,0.328614 0.71698,0.328614 1.23978,1.0082475 0.52279,0.672165 0.82153,1.7028181 0.30621,1.03065298 0.30621,2.434731 z m -1.38167,0 q 0,-1.22483402 -0.20912,-2.05383754 -0.20165,-0.83647206 -0.55267,-1.34433006 -0.34355,-0.507858 -0.79913,-0.7244445 -0.45558,-0.224055 -0.9485,-0.224055 -0.49292,0 -0.9485,0.224055 -0.45558,0.2165865 -0.79913,0.7244445 -0.34355,0.507858 -0.55267,1.34433006 -0.20165,0.82900352 -0.20165,2.05383754 0,1.224834 0.20165,2.0538375 0.20912,0.8290036 0.55267,1.3368616 0.34355,0.507858 0.79913,0.731913 0.45558,0.2165865 0.9485,0.2165865 0.49292,0 0.9485,-0.2165865 0.45558,-0.224055 0.79913,-0.731913 0.35102,-0.507858 0.55267,-1.3368616 0.20912,-0.8290035 0.20912,-2.0538375 z"
             id="path1564" />
          <path
             d="m -478.15029,-1.9244682 q 0,-0.5003895 0.18672,-0.941031 0.18671,-0.4406415 0.51532,-0.761787 0.32862,-0.328614 0.76926,-0.5153265 0.44811,-0.1867125 0.96343,-0.1867125 0.51533,0 0.95597,0.1867125 0.44811,0.1867125 0.77673,0.5153265 0.32861,0.3211455 0.51532,0.761787 0.18671,0.4406415 0.18671,0.941031 0,0.4929211 -0.18671,0.93356256 -0.18671,0.43317301 -0.51532,0.76178702 -0.32862,0.3211455 -0.77673,0.51532651 -0.44064,0.1867125 -0.95597,0.1867125 -0.51532,0 -0.96343,-0.1867125 -0.44064,-0.19418101 -0.76926,-0.51532651 -0.32861,-0.32861401 -0.51532,-0.76178702 -0.18672,-0.44064146 -0.18672,-0.93356256 z m 0.9485,0.00747 q 0,0.3136771 0.11203,0.5900116 0.11203,0.268866 0.31368,0.47051546 0.20165,0.20164951 0.47051,0.32114551 0.27634,0.1120275 0.59001,0.1120275 0.31368,0 0.58255,-0.1120275 0.26886,-0.119496 0.47051,-0.32114551 0.20165,-0.20164946 0.31368,-0.47051546 0.11203,-0.2763345 0.11203,-0.5900116 0,-0.313677 -0.11203,-0.5900115 -0.11203,-0.2763345 -0.31368,-0.477984 -0.20165,-0.209118 -0.47051,-0.3211455 -0.26887,-0.119496 -0.58255,-0.119496 -0.31367,0 -0.59001,0.119496 -0.26886,0.1120275 -0.47051,0.3211455 -0.20165,0.2016495 -0.31368,0.477984 -0.11203,0.2763345 -0.11203,0.5900115 z"
             id="path1566" />
        </g>
        <g
           aria-label=" 30°"
           transform="matrix(0.28341,0,0,0.28341,83.593,22.642)"
           id="text14">
          <path
             d="m 241.49732,410.47514 q 0.67963,0 1.2547,0.19418 0.57508,0.19418 0.98585,0.55267 0.41823,0.35849 0.64976,0.86635 0.23152,0.50785 0.23152,1.12774 0,0.50786 -0.13443,0.91116 -0.12697,0.39583 -0.37343,0.70204 -0.23899,0.29874 -0.58254,0.50785 -0.34355,0.20912 -0.76926,0.33609 1.04559,0.27633 1.56839,0.92609 0.53026,0.64976 0.53026,1.62813 0,0.73939 -0.2838,1.3294 -0.27634,0.59001 -0.76179,1.00824 -0.48545,0.41077 -1.13521,0.63483 -0.64229,0.21658 -1.38167,0.21658 -0.85141,0 -1.45636,-0.20911 -0.60495,-0.21659 -1.02319,-0.59002 -0.41823,-0.37342 -0.6871,-0.88128 -0.26886,-0.51533 -0.45558,-1.11281 l 0.56761,-0.23899 q 0.15684,-0.0672 0.31368,-0.0672 0.14937,0 0.26139,0.0672 0.1195,0.0598 0.17925,0.19418 0.0149,0.0299 0.0299,0.0672 0.0149,0.0299 0.0299,0.0672 0.10456,0.21658 0.25393,0.49292 0.14937,0.26886 0.40329,0.50786 0.25393,0.23899 0.62736,0.40329 0.38089,0.16431 0.94103,0.16431 0.56014,0 0.97837,-0.17924 0.42571,-0.18672 0.70204,-0.47799 0.28381,-0.29127 0.42571,-0.64976 0.1419,-0.35848 0.1419,-0.7095 0,-0.43318 -0.1195,-0.79167 -0.11203,-0.35848 -0.41823,-0.61988 -0.29874,-0.2614 -0.83648,-0.41077 -0.53026,-0.14937 -1.36673,-0.14937 v -0.96343 q 0.67963,-0.007 1.15762,-0.14937 0.48545,-0.14191 0.79166,-0.38837 0.30621,-0.24646 0.44064,-0.59001 0.1419,-0.34355 0.1419,-0.76179 0,-0.46304 -0.14937,-0.80659 -0.1419,-0.34355 -0.39583,-0.56761 -0.25393,-0.22405 -0.60495,-0.33608 -0.34355,-0.11203 -0.74685,-0.11203 -0.4033,0 -0.74685,0.1195 -0.34355,0.11949 -0.61242,0.33608 -0.26139,0.20912 -0.44064,0.50786 -0.17924,0.29127 -0.26886,0.63482 -0.0598,0.21659 -0.17925,0.31368 -0.11949,0.0971 -0.30621,0.0971 -0.0373,0 -0.0822,0 -0.0373,-0.007 -0.0896,-0.0149 l -0.69457,-0.1195 q 0.10456,-0.73191 0.4033,-1.29205 0.29874,-0.5676 0.75432,-0.9485 0.46304,-0.38089 1.05305,-0.57507 0.59748,-0.20165 1.28459,-0.20165 z"
             id="path1569" />
          <path
             d="m 253.74566,415.94955 q 0,1.40408 -0.30621,2.43473 -0.29874,1.02319 -0.82154,1.69535 -0.52279,0.67217 -1.23977,1.00078 -0.70951,0.32861 -1.52357,0.32861 -0.82154,0 -1.53105,-0.32861 -0.70204,-0.32861 -1.22483,-1.00078 -0.5228,-0.67216 -0.82154,-1.69535 -0.29874,-1.03065 -0.29874,-2.43473 0,-1.40408 0.29874,-2.43473 0.29874,-1.03065 0.82154,-1.70282 0.52279,-0.67963 1.22483,-1.00825 0.70951,-0.32861 1.53105,-0.32861 0.81406,0 1.52357,0.32861 0.71698,0.32862 1.23977,1.00825 0.5228,0.67217 0.82154,1.70282 0.30621,1.03065 0.30621,2.43473 z m -1.38168,0 q 0,-1.22483 -0.20912,-2.05384 -0.20164,-0.83647 -0.55266,-1.34433 -0.34356,-0.50785 -0.79913,-0.72444 -0.45558,-0.22406 -0.9485,-0.22406 -0.49292,0 -0.9485,0.22406 -0.45558,0.21659 -0.79913,0.72444 -0.34355,0.50786 -0.55267,1.34433 -0.20165,0.82901 -0.20165,2.05384 0,1.22483 0.20165,2.05384 0.20912,0.829 0.55267,1.33686 0.34355,0.50786 0.79913,0.73191 0.45558,0.21659 0.9485,0.21659 0.49292,0 0.9485,-0.21659 0.45557,-0.22405 0.79913,-0.73191 0.35102,-0.50786 0.55266,-1.33686 0.20912,-0.82901 0.20912,-2.05384 z"
             id="path1571" />
          <path
             d="m 254.71656,412.87253 q 0,-0.50039 0.18671,-0.94103 0.18671,-0.44064 0.51533,-0.76179 0.32861,-0.32861 0.76925,-0.51533 0.44811,-0.18671 0.96344,-0.18671 0.51533,0 0.95597,0.18671 0.44811,0.18672 0.77672,0.51533 0.32862,0.32115 0.51533,0.76179 0.18671,0.44064 0.18671,0.94103 0,0.49292 -0.18671,0.93356 -0.18671,0.43317 -0.51533,0.76179 -0.32861,0.32114 -0.77672,0.51532 -0.44064,0.18672 -0.95597,0.18672 -0.51533,0 -0.96344,-0.18672 -0.44064,-0.19418 -0.76925,-0.51532 -0.32862,-0.32862 -0.51533,-0.76179 -0.18671,-0.44064 -0.18671,-0.93356 z m 0.9485,0.007 q 0,0.31367 0.11203,0.59001 0.11202,0.26886 0.31367,0.47051 0.20165,0.20165 0.47052,0.32115 0.27633,0.11203 0.59001,0.11203 0.31368,0 0.58254,-0.11203 0.26887,-0.1195 0.47052,-0.32115 0.20165,-0.20165 0.31368,-0.47051 0.11202,-0.27634 0.11202,-0.59001 0,-0.31368 -0.11202,-0.59001 -0.11203,-0.27634 -0.31368,-0.47799 -0.20165,-0.20912 -0.47052,-0.32114 -0.26886,-0.1195 -0.58254,-0.1195 -0.31368,0 -0.59001,0.1195 -0.26887,0.11202 -0.47052,0.32114 -0.20165,0.20165 -0.31367,0.47799 -0.11203,0.27633 -0.11203,0.59001 z"
             id="path1573" />
        </g>
        <g
           aria-label=" 60°"
           transform="matrix(0.28341,0,0,0.28341,41.92,-2.8943)"
           id="text16">
          <path
             d="m 413.03437,243.44266 q 0.6423,0 1.21737,0.21658 0.57507,0.20912 1.00825,0.61989 0.43317,0.4033 0.6871,1.00078 0.25393,0.59001 0.25393,1.3518 0,0.73938 -0.26887,1.3742 -0.26886,0.63482 -0.75432,1.10534 -0.47798,0.47051 -1.15761,0.73938 -0.67964,0.26887 -1.4937,0.26887 -0.8066,0 -1.46383,-0.25393 -0.64976,-0.2614 -1.11281,-0.73192 -0.46304,-0.47798 -0.71697,-1.15015 -0.24646,-0.67963 -0.24646,-1.5161 0,-0.70204 0.31367,-1.4937 0.31368,-0.79166 0.99332,-1.70282 l 2.71106,-3.6521 q 0.10456,-0.13443 0.29127,-0.22405 0.18671,-0.0971 0.42571,-0.0971 h 1.18002 l -3.71184,4.69769 q 0.38089,-0.2614 0.84394,-0.4033 0.46304,-0.14937 1.00077,-0.14937 z m -2.76334,3.25626 q 0,0.51533 0.14937,0.94103 0.14937,0.42571 0.43317,0.73192 0.29127,0.30621 0.70204,0.47798 0.41824,0.16431 0.9485,0.16431 0.53773,0 0.97091,-0.17178 0.43317,-0.17177 0.73938,-0.47798 0.31367,-0.30621 0.47798,-0.72445 0.17178,-0.41823 0.17178,-0.91115 0,-0.5228 -0.16431,-0.94103 -0.16431,-0.42571 -0.46305,-0.71698 -0.29874,-0.29874 -0.71697,-0.45558 -0.41824,-0.15684 -0.91863,-0.15684 -0.53773,0 -0.9709,0.18672 -0.43318,0.17924 -0.73938,0.49292 -0.29874,0.3062 -0.46305,0.71697 -0.15684,0.4033 -0.15684,0.84394 z"
             id="path1576" />
          <path
             d="m 425.05866,244.65255 q 0,1.40408 -0.30621,2.43473 -0.29874,1.02319 -0.82153,1.69535 -0.5228,0.67217 -1.23978,1.00078 -0.7095,0.32862 -1.52357,0.32862 -0.82153,0 -1.53104,-0.32862 -0.70204,-0.32861 -1.22484,-1.00078 -0.52279,-0.67216 -0.82153,-1.69535 -0.29874,-1.03065 -0.29874,-2.43473 0,-1.40407 0.29874,-2.43473 0.29874,-1.03065 0.82153,-1.70282 0.5228,-0.67963 1.22484,-1.00824 0.70951,-0.32862 1.53104,-0.32862 0.81407,0 1.52357,0.32862 0.71698,0.32861 1.23978,1.00824 0.52279,0.67217 0.82153,1.70282 0.30621,1.03066 0.30621,2.43473 z m -1.38167,0 q 0,-1.22483 -0.20912,-2.05383 -0.20165,-0.83648 -0.55267,-1.34433 -0.34355,-0.50786 -0.79913,-0.72445 -0.45558,-0.22405 -0.9485,-0.22405 -0.49292,0 -0.9485,0.22405 -0.45558,0.21659 -0.79913,0.72445 -0.34355,0.50785 -0.55267,1.34433 -0.20165,0.829 -0.20165,2.05383 0,1.22484 0.20165,2.05384 0.20912,0.829 0.55267,1.33686 0.34355,0.50786 0.79913,0.73192 0.45558,0.21658 0.9485,0.21658 0.49292,0 0.9485,-0.21658 0.45558,-0.22406 0.79913,-0.73192 0.35102,-0.50786 0.55267,-1.33686 0.20912,-0.829 0.20912,-2.05384 z"
             id="path1578" />
          <path
             d="m 426.02956,241.57553 q 0,-0.50039 0.18671,-0.94103 0.18672,-0.44064 0.51533,-0.76179 0.32862,-0.32861 0.76926,-0.51532 0.44811,-0.18672 0.96343,-0.18672 0.51533,0 0.95597,0.18672 0.44811,0.18671 0.77673,0.51532 0.32861,0.32115 0.51532,0.76179 0.18671,0.44064 0.18671,0.94103 0,0.49292 -0.18671,0.93356 -0.18671,0.43318 -0.51532,0.76179 -0.32862,0.32115 -0.77673,0.51533 -0.44064,0.18671 -0.95597,0.18671 -0.51532,0 -0.96343,-0.18671 -0.44064,-0.19418 -0.76926,-0.51533 -0.32861,-0.32861 -0.51533,-0.76179 -0.18671,-0.44064 -0.18671,-0.93356 z m 0.9485,0.007 q 0,0.31368 0.11203,0.59001 0.11203,0.26887 0.31368,0.47052 0.20165,0.20165 0.47051,0.32114 0.27634,0.11203 0.59001,0.11203 0.31368,0 0.58255,-0.11203 0.26886,-0.11949 0.47051,-0.32114 0.20165,-0.20165 0.31368,-0.47052 0.11203,-0.27633 0.11203,-0.59001 0,-0.31368 -0.11203,-0.59001 -0.11203,-0.27634 -0.31368,-0.47799 -0.20165,-0.20911 -0.47051,-0.32114 -0.26887,-0.1195 -0.58255,-0.1195 -0.31367,0 -0.59001,0.1195 -0.26886,0.11203 -0.47051,0.32114 -0.20165,0.20165 -0.31368,0.47799 -0.11203,0.27633 -0.11203,0.59001 z"
             id="path1580" />
        </g>
        <g
           aria-label="30° "
           transform="matrix(0.28341,0,0,0.28341,85.908,22.642)"
           id="text18">
          <path
             d="m -256.35354,410.47514 q 0.67963,0 1.25471,0.19418 0.57507,0.19418 0.98584,0.55267 0.41824,0.35849 0.64976,0.86635 0.23152,0.50785 0.23152,1.12774 0,0.50786 -0.13443,0.91116 -0.12696,0.39583 -0.37342,0.70204 -0.239,0.29874 -0.58255,0.50785 -0.34355,0.20912 -0.76925,0.33609 1.04559,0.27633 1.56838,0.92609 0.53027,0.64976 0.53027,1.62813 0,0.73939 -0.28381,1.3294 -0.27633,0.59001 -0.76178,1.00824 -0.48546,0.41077 -1.13522,0.63483 -0.64229,0.21658 -1.38167,0.21658 -0.85141,0 -1.45636,-0.20911 -0.60494,-0.21659 -1.02318,-0.59002 -0.41824,-0.37342 -0.6871,-0.88128 -0.26887,-0.51533 -0.45558,-1.11281 l 0.56761,-0.23899 q 0.15683,-0.0672 0.31367,-0.0672 0.14937,0 0.2614,0.0672 0.1195,0.0598 0.17924,0.19418 0.0149,0.0299 0.0299,0.0672 0.0149,0.0299 0.0299,0.0672 0.10456,0.21658 0.25393,0.49292 0.14937,0.26886 0.4033,0.50786 0.25393,0.23899 0.62735,0.40329 0.3809,0.16431 0.94103,0.16431 0.56014,0 0.97838,-0.17924 0.4257,-0.18672 0.70204,-0.47799 0.2838,-0.29127 0.4257,-0.64976 0.1419,-0.35848 0.1419,-0.7095 0,-0.43318 -0.11949,-0.79167 -0.11203,-0.35848 -0.41824,-0.61988 -0.29874,-0.2614 -0.83647,-0.41077 -0.53026,-0.14937 -1.36674,-0.14937 v -0.96343 q 0.67964,-0.007 1.15762,-0.14937 0.48545,-0.14191 0.79166,-0.38837 0.30621,-0.24646 0.44064,-0.59001 0.14191,-0.34355 0.14191,-0.76179 0,-0.46304 -0.14937,-0.80659 -0.14191,-0.34355 -0.39584,-0.56761 -0.25392,-0.22405 -0.60494,-0.33608 -0.34355,-0.11203 -0.74685,-0.11203 -0.4033,0 -0.74685,0.1195 -0.34355,0.11949 -0.61242,0.33608 -0.2614,0.20912 -0.44064,0.50786 -0.17925,0.29127 -0.26887,0.63482 -0.0598,0.21659 -0.17924,0.31368 -0.1195,0.0971 -0.30621,0.0971 -0.0373,0 -0.0822,0 -0.0374,-0.007 -0.0896,-0.0149 l -0.69457,-0.1195 q 0.10456,-0.73191 0.4033,-1.29205 0.29874,-0.5676 0.75432,-0.9485 0.46305,-0.38089 1.05306,-0.57507 0.59748,-0.20165 1.28458,-0.20165 z"
             id="path1583" />
          <path
             d="m -244.1052,415.94955 q 0,1.40408 -0.30621,2.43473 -0.29874,1.02319 -0.82153,1.69535 -0.5228,0.67217 -1.23977,1.00078 -0.70951,0.32861 -1.52358,0.32861 -0.82153,0 -1.53104,-0.32861 -0.70204,-0.32861 -1.22483,-1.00078 -0.5228,-0.67216 -0.82154,-1.69535 -0.29874,-1.03065 -0.29874,-2.43473 0,-1.40408 0.29874,-2.43473 0.29874,-1.03065 0.82154,-1.70282 0.52279,-0.67963 1.22483,-1.00825 0.70951,-0.32861 1.53104,-0.32861 0.81407,0 1.52358,0.32861 0.71697,0.32862 1.23977,1.00825 0.52279,0.67217 0.82153,1.70282 0.30621,1.03065 0.30621,2.43473 z m -1.38167,0 q 0,-1.22483 -0.20912,-2.05384 -0.20165,-0.83647 -0.55267,-1.34433 -0.34355,-0.50785 -0.79913,-0.72444 -0.45558,-0.22406 -0.9485,-0.22406 -0.49292,0 -0.9485,0.22406 -0.45558,0.21659 -0.79913,0.72444 -0.34355,0.50786 -0.55267,1.34433 -0.20165,0.82901 -0.20165,2.05384 0,1.22483 0.20165,2.05384 0.20912,0.829 0.55267,1.33686 0.34355,0.50786 0.79913,0.73191 0.45558,0.21659 0.9485,0.21659 0.49292,0 0.9485,-0.21659 0.45558,-0.22405 0.79913,-0.73191 0.35102,-0.50786 0.55267,-1.33686 0.20912,-0.82901 0.20912,-2.05384 z"
             id="path1585" />
          <path
             d="m -243.1343,412.87253 q 0,-0.50039 0.18672,-0.94103 0.18671,-0.44064 0.51532,-0.76179 0.32862,-0.32861 0.76926,-0.51533 0.44811,-0.18671 0.96343,-0.18671 0.51533,0 0.95597,0.18671 0.44811,0.18672 0.77673,0.51533 0.32861,0.32115 0.51532,0.76179 0.18672,0.44064 0.18672,0.94103 0,0.49292 -0.18672,0.93356 -0.18671,0.43317 -0.51532,0.76179 -0.32862,0.32114 -0.77673,0.51532 -0.44064,0.18672 -0.95597,0.18672 -0.51532,0 -0.96343,-0.18672 -0.44064,-0.19418 -0.76926,-0.51532 -0.32861,-0.32862 -0.51532,-0.76179 -0.18672,-0.44064 -0.18672,-0.93356 z m 0.9485,0.007 q 0,0.31367 0.11203,0.59001 0.11203,0.26886 0.31368,0.47051 0.20165,0.20165 0.47051,0.32115 0.27634,0.11203 0.59001,0.11203 0.31368,0 0.58255,-0.11203 0.26886,-0.1195 0.47051,-0.32115 0.20165,-0.20165 0.31368,-0.47051 0.11203,-0.27634 0.11203,-0.59001 0,-0.31368 -0.11203,-0.59001 -0.11203,-0.27634 -0.31368,-0.47799 -0.20165,-0.20912 -0.47051,-0.32114 -0.26887,-0.1195 -0.58255,-0.1195 -0.31367,0 -0.59001,0.1195 -0.26886,0.11202 -0.47051,0.32114 -0.20165,0.20165 -0.31368,0.47799 -0.11203,0.27633 -0.11203,0.59001 z"
             id="path1587" />
        </g>
        <g
           aria-label="60° "
           transform="matrix(0.28341,0,0,0.28341,127.58,-2.8943)"
           id="text20">
          <path
             d="m -427.44247,243.44266 q 0.64229,0 1.21736,0.21658 0.57508,0.20912 1.00825,0.61989 0.43317,0.4033 0.6871,1.00078 0.25393,0.59001 0.25393,1.3518 0,0.73938 -0.26886,1.3742 -0.26887,0.63482 -0.75432,1.10534 -0.47799,0.47051 -1.15762,0.73938 -0.67963,0.26887 -1.4937,0.26887 -0.8066,0 -1.46383,-0.25393 -0.64976,-0.2614 -1.1128,-0.73192 -0.46305,-0.47798 -0.71698,-1.15015 -0.24646,-0.67963 -0.24646,-1.5161 0,-0.70204 0.31368,-1.4937 0.31367,-0.79166 0.99331,-1.70282 l 2.71106,-3.6521 q 0.10456,-0.13443 0.29128,-0.22405 0.18671,-0.0971 0.4257,-0.0971 h 1.18002 l -3.71184,4.69769 q 0.38089,-0.2614 0.84394,-0.4033 0.46305,-0.14937 1.00078,-0.14937 z m -2.76335,3.25626 q 0,0.51533 0.14937,0.94103 0.14937,0.42571 0.43318,0.73192 0.29127,0.30621 0.70203,0.47798 0.41824,0.16431 0.9485,0.16431 0.53774,0 0.97091,-0.17178 0.43317,-0.17177 0.73938,-0.47798 0.31368,-0.30621 0.47799,-0.72445 0.17177,-0.41823 0.17177,-0.91115 0,-0.5228 -0.16431,-0.94103 -0.1643,-0.42571 -0.46304,-0.71698 -0.29874,-0.29874 -0.71698,-0.45558 -0.41824,-0.15684 -0.91862,-0.15684 -0.53774,0 -0.97091,0.18672 -0.43317,0.17924 -0.73938,0.49292 -0.29874,0.3062 -0.46305,0.71697 -0.15684,0.4033 -0.15684,0.84394 z"
             id="path1590" />
          <path
             d="m -415.41819,244.65255 q 0,1.40408 -0.30621,2.43473 -0.29874,1.02319 -0.82153,1.69535 -0.5228,0.67217 -1.23977,1.00078 -0.70951,0.32862 -1.52358,0.32862 -0.82153,0 -1.53104,-0.32862 -0.70204,-0.32861 -1.22483,-1.00078 -0.5228,-0.67216 -0.82154,-1.69535 -0.29874,-1.03065 -0.29874,-2.43473 0,-1.40407 0.29874,-2.43473 0.29874,-1.03065 0.82154,-1.70282 0.52279,-0.67963 1.22483,-1.00824 0.70951,-0.32862 1.53104,-0.32862 0.81407,0 1.52358,0.32862 0.71697,0.32861 1.23977,1.00824 0.52279,0.67217 0.82153,1.70282 0.30621,1.03066 0.30621,2.43473 z m -1.38167,0 q 0,-1.22483 -0.20912,-2.05383 -0.20165,-0.83648 -0.55267,-1.34433 -0.34355,-0.50786 -0.79913,-0.72445 -0.45558,-0.22405 -0.9485,-0.22405 -0.49292,0 -0.9485,0.22405 -0.45557,0.21659 -0.79913,0.72445 -0.34355,0.50785 -0.55266,1.34433 -0.20165,0.829 -0.20165,2.05383 0,1.22484 0.20165,2.05384 0.20911,0.829 0.55266,1.33686 0.34356,0.50786 0.79913,0.73192 0.45558,0.21658 0.9485,0.21658 0.49292,0 0.9485,-0.21658 0.45558,-0.22406 0.79913,-0.73192 0.35102,-0.50786 0.55267,-1.33686 0.20912,-0.829 0.20912,-2.05384 z"
             id="path1592" />
          <path
             d="m -414.44728,241.57553 q 0,-0.50039 0.18671,-0.94103 0.18671,-0.44064 0.51532,-0.76179 0.32862,-0.32861 0.76926,-0.51532 0.44811,-0.18672 0.96344,-0.18672 0.51532,0 0.95596,0.18672 0.44811,0.18671 0.77673,0.51532 0.32861,0.32115 0.51533,0.76179 0.18671,0.44064 0.18671,0.94103 0,0.49292 -0.18671,0.93356 -0.18672,0.43318 -0.51533,0.76179 -0.32862,0.32115 -0.77673,0.51533 -0.44064,0.18671 -0.95596,0.18671 -0.51533,0 -0.96344,-0.18671 -0.44064,-0.19418 -0.76926,-0.51533 -0.32861,-0.32861 -0.51532,-0.76179 -0.18671,-0.44064 -0.18671,-0.93356 z m 0.9485,0.007 q 0,0.31368 0.11202,0.59001 0.11203,0.26887 0.31368,0.47052 0.20165,0.20165 0.47052,0.32114 0.27633,0.11203 0.59001,0.11203 0.31367,0 0.58254,-0.11203 0.26887,-0.11949 0.47052,-0.32114 0.20164,-0.20165 0.31367,-0.47052 0.11203,-0.27633 0.11203,-0.59001 0,-0.31368 -0.11203,-0.59001 -0.11203,-0.27634 -0.31367,-0.47799 -0.20165,-0.20911 -0.47052,-0.32114 -0.26887,-0.1195 -0.58254,-0.1195 -0.31368,0 -0.59001,0.1195 -0.26887,0.11203 -0.47052,0.32114 -0.20165,0.20165 -0.31368,0.47799 -0.11202,0.27633 -0.11202,0.59001 z"
             id="path1594" />
        </g>
      </g>
      <g
         aria-label="0º"
         transform="matrix(0.28319,0,0,0.28319,-50.867,158.76)"
         id="text24"
         style="font-size:14.948px;stroke-width:1.6">
        <path
           d="m 480.2214,1.148616 q 0,1.405112 -0.30643,2.436524 -0.29896,1.023938 -0.82214,1.696598 -0.52318,0.67266 -1.24069,1.001516 -0.71003,0.328856 -1.52469,0.328856 -0.82214,0 -1.53217,-0.328856 -0.70256,-0.328856 -1.22574,-1.001516 -0.52318,-0.67266 -0.82214,-1.696598 -0.29896,-1.031412 -0.29896,-2.436524 0,-1.40511198 0.29896,-2.436524 0.29896,-1.031412 0.82214,-1.704072 0.52318,-0.680134 1.22574,-1.00899 0.71003,-0.328856 1.53217,-0.328856 0.81466,0 1.52469,0.328856 0.71751,0.328856 1.24069,1.00899 0.52318,0.67266 0.82214,1.704072 0.30643,1.03141202 0.30643,2.436524 z m -1.38269,0 q 0,-1.22573598 -0.20927,-2.05534998 -0.2018,-0.83708802 -0.55308,-1.34532002 -0.3438,-0.508232 -0.79972,-0.724978 -0.45591,-0.22422 -0.94919,-0.22422 -0.49329,0 -0.9492,0.22422 -0.45592,0.216746 -0.79972,0.724978 -0.3438,0.508232 -0.55308,1.34532002 -0.20179,0.829614 -0.20179,2.05534998 0,1.225736 0.20179,2.05535 0.20928,0.829614 0.55308,1.337846 0.3438,0.508232 0.79972,0.732452 0.45591,0.216746 0.9492,0.216746 0.49328,0 0.94919,-0.216746 0.45592,-0.22422 0.79972,-0.732452 0.35128,-0.508232 0.55308,-1.337846 0.20927,-0.829614 0.20927,-2.05535 z"
           id="path1550" />
        <path
           d="m 483.52491,-4.329826 q 0.52318,0 0.94172,0.164428 0.42602,0.156954 0.72498,0.455914 0.29896,0.29896 0.46339,0.732452 0.16442,0.426018 0.16442,0.956672 0,0.538128 -0.16442,0.97162 -0.16443,0.43349202 -0.46339,0.73992602 -0.29896,0.29896 -0.72498,0.463388 -0.41854,0.156954 -0.94172,0.156954 -0.53066,0 -0.95668,-0.156954 -0.42601,-0.164428 -0.73245,-0.463388 -0.29896,-0.306434 -0.46339,-0.73992602 -0.16442,-0.433492 -0.16442,-0.97162 0,-0.530654 0.16442,-0.956672 0.16443,-0.433492 0.46339,-0.732452 0.30644,-0.29896 0.73245,-0.455914 0.42602,-0.164428 0.95668,-0.164428 z m 0,3.84911002 q 0.62781,0 0.93425,-0.388648 0.3139,-0.39612202 0.3139,-1.14352202 0,-0.7474 -0.3139,-1.136048 -0.30644,-0.388648 -0.93425,-0.388648 -0.65024,0 -0.96415,0.388648 -0.30643,0.388648 -0.30643,1.136048 0,0.7474 0.30643,1.14352202 0.31391,0.388648 0.96415,0.388648 z"
           id="path1552" />
      </g>
      <g
         aria-label="cd.klm"
         transform="matrix(0.28319,0,0,0.28319,-54.958,163.5)"
         id="text26"
         style="font-size:14.948px;stroke-width:1.6">
        <path
           d="m 478.25574,0.27415802 q -0.0598,0.082214 -0.11959,0.127058 -0.0598,0.044844 -0.1719,0.044844 -0.11211,0 -0.24664,-0.089688 -0.12706,-0.097162 -0.32886,-0.209272 -0.20179,-0.11211 -0.49328,-0.201798 -0.28401,-0.097162 -0.70256,-0.097162 -0.55307,0 -0.97909,0.201798 -0.42602,0.194324 -0.7175,0.568024 -0.28402,0.3737 -0.4335,0.90435398 -0.142,0.530654 -0.142,1.188366 0,0.687608 0.15695,1.225736 0.15696,0.530654 0.44097,0.89688 0.28401,0.358752 0.68761,0.553076 0.41107,0.18685 0.9193,0.18685 0.48581,0 0.79972,-0.11211 0.3139,-0.119584 0.52318,-0.26159 0.20927,-0.142006 0.3438,-0.254116 0.13453,-0.119584 0.26906,-0.119584 0.17191,0 0.25412,0.127058 l 0.3737,0.48581 q -0.49328,0.605394 -1.23321,0.889406 -0.73993,0.276538 -1.56207,0.276538 -0.71003,0 -1.32289,-0.26159 -0.6054,-0.26159 -1.05384,-0.754874 -0.44844,-0.500758 -0.71003,-1.225736 -0.25411,-0.724978 -0.25411,-1.651754 0,-0.844562 0.23169,-1.562066 0.23917,-0.71750398 0.68761,-1.23320998 0.45591,-0.52318 1.1211,-0.814666 0.66518,-0.29148602 1.52469,-0.29148602 0.79225,0 1.40512,0.26159002 0.61286,0.254116 1.08373,0.724978 z"
           id="path1537" />
        <path
           d="m 485.4009,6.5 q -0.28402,0 -0.35876,-0.276538 L 484.92256,5.30416 q -0.48581,0.590446 -1.11363,0.949198 -0.62034,0.351278 -1.42753,0.351278 -0.65024,0 -1.18089,-0.246642 -0.53066,-0.254116 -0.90436,-0.739926 -0.3737,-0.48581 -0.57549,-1.210788 -0.2018,-0.724978 -0.2018,-1.666702 0,-0.837088 0.22422,-1.554592 0.22422,-0.72497798 0.64276,-1.25563198 0.42602,-0.530654 1.03141,-0.829614 0.6054,-0.30643402 1.37522,-0.30643402 0.69508,0 1.18837,0.23916802 0.49328,0.231694 0.88193,0.657712 V -4.509202 h 1.33037 V 6.5 Z m -2.57853,-0.97162 q 0.65023,0 1.13604,-0.29896 0.49329,-0.29896 0.90436,-0.844562 V 0.72259802 q -0.36623,-0.493284 -0.80719,-0.687608 -0.4335,-0.201798 -0.96415,-0.201798 -1.06131,0 -1.62933,0.754874 -0.56803,0.75487398 -0.56803,2.15251198 0,0.739926 0.12706,1.27058 0.12706,0.52318 0.3737,0.866984 0.24664,0.33633 0.6054,0.493284 0.35875,0.156954 0.82214,0.156954 z"
           id="path1539" />
        <path
           d="m 487.99437,5.67786 q 0,-0.194324 0.0673,-0.366226 0.0747,-0.171902 0.19432,-0.29896 0.12706,-0.127058 0.29896,-0.201798 0.17191,-0.07474 0.36623,-0.07474 0.19432,0 0.36623,0.07474 0.1719,0.07474 0.29896,0.201798 0.12705,0.127058 0.19432,0.29896 0.0747,0.171902 0.0747,0.366226 0,0.201798 -0.0747,0.3737 -0.0673,0.164428 -0.19432,0.291486 -0.12706,0.127058 -0.29896,0.194324 -0.17191,0.07474 -0.36623,0.07474 -0.19432,0 -0.36623,-0.07474 -0.1719,-0.067266 -0.29896,-0.194324 -0.11958,-0.127058 -0.19432,-0.291486 -0.0673,-0.171902 -0.0673,-0.3737 z"
           id="path1541" />
        <path
           d="m 492.97953,-4.509202 v 6.479958 h 0.34381 q 0.14948,0 0.24664,-0.03737 0.0972,-0.044844 0.21674,-0.171902 l 2.39168,-2.56358198 q 0.11211,-0.119584 0.22422,-0.194324 0.11211,-0.07474 0.29896,-0.07474 h 1.21079 l -2.7878,2.967178 q -0.10464,0.127058 -0.20927,0.22422 -0.0972,0.097162 -0.22422,0.171902 0.13453,0.089688 0.23917,0.209272 0.11211,0.11211 0.20927,0.26159 l 2.9597,3.737 h -1.19584 q -0.16443,0 -0.28401,-0.059792 -0.11211,-0.067266 -0.21675,-0.201798 L 493.91378,3.1367 q -0.11211,-0.156954 -0.22422,-0.201798 -0.11211,-0.052318 -0.33633,-0.052318 h -0.3737 V 6.5 h -1.33784 V -4.509202 Z"
           id="path1543" />
        <path
           d="M 500.90945,-4.509202 V 6.5 h -1.33037 V -4.509202 Z"
           id="path1545" />
        <path
           d="m 503.25629,6.5 v -7.571162 h 0.79224 q 0.28402,0 0.35876,0.27653802 l 0.0972,0.777296 q 0.41854,-0.515706 0.93425,-0.844562 0.52318,-0.32885602 1.21079,-0.32885602 0.76982,0 1.24068,0.42601802 0.47834,0.426018 0.68761,1.150996 0.15695,-0.41107 0.41107,-0.71003 0.26159,-0.29896 0.58297,-0.493284 0.32138,-0.19432402 0.68013,-0.28401202 0.36623,-0.089688 0.73993,-0.089688 0.59792,0 1.06131,0.19432402 0.47086,0.18685 0.79224,0.553076 0.32886,0.366226 0.50076,0.904354 0.1719,0.530654 0.1719,1.21826198 V 6.5 h -1.33037 V 1.67927 q 0,-0.88940598 -0.38865,-1.34531998 -0.38865,-0.463388 -1.12857,-0.463388 -0.32886,0 -0.62782,0.119584 -0.29148,0.11211 -0.5157,0.33633 -0.22422,0.22422 -0.35876,0.568024 Q 509.04117,1.23083 509.04117,1.67927 V 6.5 h -1.33038 V 1.67927 q 0,-0.91182798 -0.36622,-1.36026798 -0.36623,-0.44844 -1.06878,-0.44844 -0.49329,0 -0.91931,0.269064 -0.41854,0.26159 -0.76982,0.717504 V 6.5 Z"
           id="path1547" />
      </g>
    </g>
    <g
       stroke-linejoin="round"
       id="g36">
      <rect
         transform="matrix(0.26283,0,0,0.26283,10.824,163.9)"
         y="6.5"
         width="11.2"
         height="15.2"
         fill="#fcff5c"
         fill-opacity="0.68235"
         stroke="#fcff5c"
         stroke-linecap="round"
         stroke-width="1.8336"
         id="rect30"
         x="0" />
      <g
         aria-label="C0-C180"
         transform="matrix(0.26283,0,0,0.26283,10.824,163.35)"
         id="text32"
         style="font-size:17.569px;font-family:Lato;fill:#848484;stroke-width:0.91678">
        <path
           d="m 26.400848,19.899788 q 0.140552,0 0.254751,0.114198 l 0.667622,0.729114 q -0.773036,0.896019 -1.879883,1.396735 -1.098063,0.500717 -2.652919,0.500717 -1.361598,0 -2.468445,-0.465579 -1.106847,-0.474363 -1.888667,-1.317675 -0.781821,-0.852096 -1.212261,-2.038004 -0.430441,-1.185907 -0.430441,-2.608996 0,-1.423089 0.456794,-2.608997 0.465579,-1.185907 1.300106,-2.038004 0.834528,-0.852096 1.994082,-1.317675 1.168338,-0.4743627 2.573858,-0.4743627 1.387951,0 2.389384,0.4304407 1.010218,0.43044 1.792038,1.168338 l -0.553423,0.781821 q -0.06149,0.08784 -0.140552,0.149336 -0.07906,0.05271 -0.228397,0.05271 -0.114199,0 -0.245966,-0.07906 -0.122983,-0.08784 -0.298673,-0.210828 -0.17569,-0.122983 -0.412872,-0.263535 -0.237181,-0.140552 -0.562208,-0.263535 -0.325026,-0.122983 -0.755467,-0.202044 -0.43044,-0.08784 -0.992648,-0.08784 -1.010218,0 -1.85353,0.35138 -0.834527,0.342596 -1.440658,0.983864 -0.60613,0.641269 -0.948726,1.563641 -0.333811,0.922373 -0.333811,2.064358 0,1.177123 0.333811,2.099495 0.342596,0.922373 0.922373,1.563641 0.588561,0.632484 1.387951,0.966295 0.799389,0.333811 1.721762,0.333811 0.562208,0 1.010217,-0.06149 0.44801,-0.07028 0.825743,-0.210828 0.386518,-0.140552 0.711545,-0.35138 0.333811,-0.219613 0.667622,-0.518286 0.149336,-0.131767 0.289888,-0.131767 z"
           id="path1522" />
        <path
           d="m 37.697706,16.210298 q 0,1.651486 -0.360165,2.863747 -0.35138,1.203476 -0.966295,1.994081 -0.614915,0.790605 -1.458227,1.177123 -0.834527,0.386519 -1.792038,0.386519 -0.966295,0 -1.800822,-0.386519 -0.825743,-0.386518 -1.440658,-1.177123 -0.614915,-0.790605 -0.966295,-1.994081 -0.35138,-1.212261 -0.35138,-2.863747 0,-1.651486 0.35138,-2.863747 0.35138,-1.212261 0.966295,-2.002866 0.614915,-0.79939 1.440658,-1.185908 0.834527,-0.3865177 1.800822,-0.3865177 0.957511,0 1.792038,0.3865177 0.843312,0.386518 1.458227,1.185908 0.614915,0.790605 0.966295,2.002866 0.360165,1.212261 0.360165,2.863747 z m -1.625133,0 q 0,-1.440658 -0.245966,-2.415738 -0.237181,-0.983864 -0.650053,-1.58121 -0.404087,-0.597346 -0.939941,-0.852096 -0.535855,-0.263535 -1.115632,-0.263535 -0.579777,0 -1.115631,0.263535 -0.535855,0.25475 -0.939942,0.852096 -0.404087,0.597346 -0.650053,1.58121 -0.237181,0.97508 -0.237181,2.415738 0,1.440658 0.237181,2.415737 0.245966,0.97508 0.650053,1.572426 0.404087,0.597346 0.939942,0.860881 0.535854,0.25475 1.115631,0.25475 0.579777,0 1.115632,-0.25475 0.535854,-0.263535 0.939941,-0.860881 0.412872,-0.597346 0.650053,-1.572426 0.245966,-0.975079 0.245966,-2.415737 z"
           id="path1524" />
        <path
           d="m 39.103223,16.570462 h 4.339543 v 1.32646 h -4.339543 z"
           id="path1526" />
        <path
           d="m 54.722069,19.899788 q 0.140552,0 0.25475,0.114198 l 0.667622,0.729114 q -0.773036,0.896019 -1.879883,1.396735 -1.098062,0.500717 -2.652919,0.500717 -1.361598,0 -2.468445,-0.465579 -1.106847,-0.474363 -1.888667,-1.317675 -0.781821,-0.852096 -1.212261,-2.038004 -0.430441,-1.185907 -0.430441,-2.608996 0,-1.423089 0.456794,-2.608997 0.465579,-1.185907 1.300106,-2.038004 0.834528,-0.852096 1.994082,-1.317675 1.168338,-0.4743627 2.573858,-0.4743627 1.387952,0 2.389385,0.4304407 1.010217,0.43044 1.792038,1.168338 l -0.553424,0.781821 q -0.06149,0.08784 -0.140552,0.149336 -0.07906,0.05271 -0.228397,0.05271 -0.114198,0 -0.245966,-0.07906 -0.122983,-0.08784 -0.298673,-0.210828 -0.17569,-0.122983 -0.412871,-0.263535 -0.237182,-0.140552 -0.562208,-0.263535 -0.325027,-0.122983 -0.755467,-0.202044 -0.430441,-0.08784 -0.992649,-0.08784 -1.010218,0 -1.85353,0.35138 -0.834527,0.342596 -1.440658,0.983864 -0.60613,0.641269 -0.948726,1.563641 -0.333811,0.922373 -0.333811,2.064358 0,1.177123 0.333811,2.099495 0.342596,0.922373 0.922373,1.563641 0.588561,0.632484 1.387951,0.966295 0.799389,0.333811 1.721762,0.333811 0.562208,0 1.010218,-0.06149 0.448009,-0.07028 0.825743,-0.210828 0.386518,-0.140552 0.711544,-0.35138 0.333811,-0.219613 0.667622,-0.518286 0.149337,-0.131767 0.289889,-0.131767 z"
           id="path1528" />
        <path
           d="m 58.877128,21.305308 h 2.705626 v -8.582457 q 0,-0.386518 0.02635,-0.78182 l -2.248832,1.923805 q -0.08785,0.07028 -0.17569,0.105414 -0.08785,0.02635 -0.166905,0.02635 -0.131768,0 -0.237182,-0.05271 -0.105414,-0.06149 -0.158121,-0.140552 l -0.491932,-0.676407 3.742197,-3.2414802 h 1.273753 V 21.305308 h 2.477229 V 22.5 h -6.746496 z"
           id="path1530" />
        <path
           d="m 71.632219,22.640552 q -0.939941,0 -1.721762,-0.245966 -0.78182,-0.254751 -1.344028,-0.720329 -0.562208,-0.465579 -0.869666,-1.124416 -0.307457,-0.667622 -0.307457,-1.493365 0,-1.212261 0.632484,-1.994082 0.632484,-0.790605 1.809607,-1.124416 -0.992649,-0.368949 -1.50215,-1.098062 -0.500716,-0.737898 -0.500716,-1.7569 0,-0.693976 0.272319,-1.300106 0.27232,-0.606131 0.773036,-1.05414 0.500717,-0.44801 1.194692,-0.70276 0.70276,-0.2547507 1.563641,-0.2547507 0.852097,0 1.554857,0.2547507 0.70276,0.25475 1.203476,0.70276 0.500717,0.448009 0.773036,1.05414 0.27232,0.60613 0.27232,1.300106 0,1.019002 -0.509501,1.7569 -0.509501,0.729113 -1.493365,1.098062 1.177123,0.333811 1.809607,1.124416 0.632484,0.781821 0.632484,1.994082 0,0.825743 -0.316242,1.493365 -0.307458,0.658837 -0.869666,1.124416 -0.553423,0.465578 -1.335244,0.720329 -0.78182,0.245966 -1.721762,0.245966 z m 0,-1.247399 q 0.614915,0 1.098063,-0.166906 0.491932,-0.17569 0.825743,-0.483147 0.342595,-0.316242 0.518285,-0.746683 0.184475,-0.439225 0.184475,-0.966295 0,-0.650053 -0.219613,-1.106847 Q 73.828344,17.457697 73.459395,17.167808 73.099231,16.87792 72.624868,16.746152 72.150505,16.6056 71.632219,16.6056 q -0.518285,0 -0.992648,0.140552 -0.474363,0.131768 -0.843312,0.421656 -0.360165,0.289889 -0.579777,0.755467 -0.210828,0.456794 -0.210828,1.106847 0,0.52707 0.17569,0.966295 0.184474,0.430441 0.518285,0.746683 0.342596,0.307457 0.825743,0.483147 0.491932,0.166906 1.106847,0.166906 z m 0,-6.043736 q 0.614915,0 1.045356,-0.184475 0.439225,-0.193259 0.711544,-0.500716 0.27232,-0.316242 0.395303,-0.720329 0.122983,-0.404087 0.122983,-0.834528 0,-0.439225 -0.149337,-0.825743 -0.140552,-0.386518 -0.43044,-0.676406 -0.281104,-0.289889 -0.711545,-0.456794 -0.421656,-0.166906 -0.983864,-0.166906 -0.562208,0 -0.992648,0.166906 -0.421656,0.166905 -0.711545,0.456794 -0.281104,0.289888 -0.43044,0.676406 -0.140552,0.386518 -0.140552,0.825743 0,0.430441 0.122983,0.834528 0.122983,0.404087 0.395302,0.720329 0.27232,0.307457 0.70276,0.500716 0.439225,0.184475 1.05414,0.184475 z"
           id="path1532" />
        <path
           d="m 86.398962,16.210298 q 0,1.651486 -0.360165,2.863747 -0.35138,1.203476 -0.966295,1.994081 -0.614915,0.790605 -1.458227,1.177123 -0.834527,0.386519 -1.792038,0.386519 -0.966295,0 -1.800822,-0.386519 -0.825743,-0.386518 -1.440658,-1.177123 -0.614915,-0.790605 -0.966295,-1.994081 -0.35138,-1.212261 -0.35138,-2.863747 0,-1.651486 0.35138,-2.863747 0.35138,-1.212261 0.966295,-2.002866 0.614915,-0.79939 1.440658,-1.185908 0.834527,-0.3865177 1.800822,-0.3865177 0.957511,0 1.792038,0.3865177 0.843312,0.386518 1.458227,1.185908 0.614915,0.790605 0.966295,2.002866 0.360165,1.212261 0.360165,2.863747 z m -1.625133,0 q 0,-1.440658 -0.245966,-2.415738 -0.237181,-0.983864 -0.650053,-1.58121 -0.404087,-0.597346 -0.939941,-0.852096 -0.535855,-0.263535 -1.115632,-0.263535 -0.579777,0 -1.115631,0.263535 -0.535855,0.25475 -0.939942,0.852096 -0.404087,0.597346 -0.650053,1.58121 -0.237181,0.97508 -0.237181,2.415738 0,1.440658 0.237181,2.415737 0.245966,0.97508 0.650053,1.572426 0.404087,0.597346 0.939942,0.860881 0.535854,0.25475 1.115631,0.25475 0.579777,0 1.115632,-0.25475 0.535854,-0.263535 0.939941,-0.860881 0.412872,-0.597346 0.650053,-1.572426 0.245966,-0.975079 0.245966,-2.415737 z"
           id="path1534" />
      </g>
    </g>
  </g>
  <g
     transform="matrix(0.99998,0,0,0.99998,0.0045991,9.5090027)"
     fill="none"
     stroke="#858585"
     id="g84">
    <path
       transform="matrix(0.52917,0,0,0.52917,-68.201,-25.683)"
       d="m 320.33,65.864 a 31.291,31.291 0 0 1 -15.646,27.099 31.291,31.291 0 0 1 -31.292,-10e-7 31.291,31.291 0 0 1 -15.646,-27.099"
       stroke-width="0.15"
       id="path42" />
    <path
       transform="matrix(1.0583,0,0,1.0576,-221.15,-60.49)"
       d="m 320.33,65.864 a 31.291,31.291 0 0 1 -15.646,27.099 31.291,31.291 0 0 1 -31.292,-10e-7 31.291,31.291 0 0 1 -15.646,-27.099"
       stroke-width="0.075027"
       id="path44" />
    <path
       transform="matrix(1.5875,0,0,1.5865,-374.1,-95.32)"
       d="m 320.33,65.864 a 31.291,31.291 0 0 1 -15.646,27.099 31.291,31.291 0 0 1 -31.292,-10e-7 31.291,31.291 0 0 1 -15.646,-27.099"
       stroke-width="0.050016"
       id="path46" />
    <path
       transform="matrix(2.1167,0,0,2.1153,-527.05,-130.15)"
       d="m 320.33,65.864 a 31.291,31.291 0 0 1 -15.646,27.099 31.291,31.291 0 0 1 -31.292,-10e-7 31.291,31.291 0 0 1 -15.646,-27.099"
       stroke-width="0.037512"
       id="path48" />
    <path
       transform="matrix(2.6458,0,0,2.6441,-680,-164.98)"
       d="m 316.1,81.579 c -2.6998,4.6487 -6.5966,8.6031 -11.414,11.384 -9.6817,5.59 -21.61,5.59 -31.292,-10e-7 -4.8457,-2.7976 -8.7602,-6.7827 -11.462,-11.467"
       stroke-width="0.03001"
       id="path50" />
    <path
       transform="matrix(3.1749,0,0,3.1729,-832.93,-199.8)"
       d="m 311.59,87.561 c -2.0089,2.088 -4.324,3.9131 -6.9028,5.4019 -9.6817,5.59 -21.61,5.59 -31.292,-1e-6 -2.5964,-1.499 -4.9254,-3.3389 -6.9438,-5.4447"
       stroke-width="0.025009"
       id="path52" />
    <path
       transform="matrix(3.7041,0,0,3.7017,-985.9,-234.64)"
       d="m 308.37,90.473 c -1.1574,0.90884 -2.3869,1.7421 -3.683,2.4903 -9.6817,5.59 -21.61,5.59 -31.292,-10e-7 -1.3089,-0.75568 -2.5499,-1.598 -3.7174,-2.5174"
       stroke-width="0.021436"
       id="path54" />
    <path
       transform="matrix(4.2243,0,0,4.2215,-1136.5,-268.87)"
       d="m 306.04,92.132 c -0.44425,0.28747 -0.89718,0.5646 -1.3586,0.83096 -9.6817,5.59 -21.61,5.59 -31.292,-10e-7 -0.43229,-0.24957 -0.85718,-0.5086 -1.2744,-0.77673"
       stroke-width="0.018796"
       id="path56" />
    <path
       transform="matrix(0.26469,0,0,0.26469,-0.036694,-0.031725)"
       d="m 320.33,34.764 v 499.07"
       stroke-width="0.29988"
       id="path58" />
    <path
       transform="matrix(0,0.29371,-0.29371,0,168.21,-84.937)"
       d="m 320.33,40.455 v 487.98"
       stroke-width="0.27025"
       id="path60" />
    <g
       stroke-width="0.29988"
       id="g82">
      <path
         transform="matrix(0.26469,0,0,0.26469,-0.036694,-0.031725)"
         d="m 320.33,34.764 129.11,481.86"
         id="path62" />
      <path
         transform="matrix(0.26469,0,0,0.26469,-0.036694,-0.031725)"
         d="m 320.33,34.764 249.34,431.88"
         id="path64" />
      <path
         transform="matrix(0.26469,0,0,0.26469,-0.036694,-0.031725)"
         d="m 320.33,34.764 270.38,270.38"
         id="path66" />
      <path
         transform="matrix(0.26469,0,0,0.26469,-0.036694,-0.031725)"
         d="m 320.33,34.764 270.39,156.06"
         id="path68" />
      <path
         transform="matrix(0.26469,0,0,0.26469,-0.036694,-0.031725)"
         d="m 320.33,34.764 270.39,72.405"
         id="path70" />
      <path
         transform="matrix(0.26469,0,0,0.26469,-0.036694,-0.031725)"
         d="M 320.33,34.764 191.1,517.074"
         id="path72" />
      <path
         transform="matrix(0.26469,0,0,0.26469,-0.036694,-0.031725)"
         d="M 320.33,34.764 70.48,467.524"
         id="path74" />
      <path
         transform="matrix(0.26469,0,0,0.26469,-0.036694,-0.031725)"
         d="M 320.33,34.764 49.25,305.844"
         id="path76" />
      <path
         transform="matrix(0.26469,0,0,0.26469,-0.036694,-0.031725)"
         d="M 320.33,34.764 49.25,191.274"
         id="path78" />
      <path
         transform="matrix(0.26469,0,0,0.26469,-0.036694,-0.031725)"
         d="M 320.33,34.764 49.27,107.391"
         id="path80" />
    </g>
  </g>
  <path
     transform="matrix(-1.3055,0,0,-1.3055,796.82,-205.02)"
     d="m 541.59,-158.54 a 0.35,0.35 0 0 0 0.58484,0.33766 m 1.93,-7.0415 h -4.6014 m 9.2541,7.0795 a 7.25,7.25 0 0 0 0.0745,-0.038 m -6.6572,0 a 7.25,7.25 0 0 0 0.0745,0.038 m 8.9982,-8.9395 h -0.6731 m -9.6659,8.0687 a 7.25,7.25 0 0 0 0.065,0.0526 m -2.2234,-3.0233 a 0.35,0.35 0 0 0 0.27467,0.61693 m 0.55236,-5.9961 a 0.2,0.2 0 0 0 0.18235,0.28215 m -1.34,0.91731 a 7.25,7.25 0 0 0 -0.0832,0.44974 m 5.3312,8.1065 a 0.35,0.35 0 0 0 0.66055,0.14041 m 5.4254,-10.054 v 2.0002 m 1.3001,-2.1003 a 0.4,0.4 0 0 0 -0.26458,-0.1 m -10.382,8.256 a 0.35,0.35 0 0 0 0.50185,0.45188 m 10.595,-6.2087 h -4.5985 m -7.4388,2.2013 h 1.3824 m 10.884,0.25656 a 0.2,0.2 0 0 0 -0.19166,-0.25712 m -0.88137,3.4968 a 0.35,0.35 0 0 0 0.45188,-0.50184 m -3.0488,2.1883 a 7.25,7.25 0 0 0 0.0781,-0.03 m -7.5871,-8.4521 h -1.9386 m 10.872,7.7563 a 0.35,0.35 0 0 0 0.54633,-0.39693 m 2.3751,-7.9423 a 7.25,7.25 0 0 0 -13.81,0 m 8.3065,1.681 v -0.6985 m 2.5121,7.4023 a 7.25,7.25 0 0 0 0.0702,-0.0456 m -10.889,-8.3392 a 0.4,0.4 0 0 0 0.38097,0.52192 m 12.524,2.4608 h -1.7452 m 1.3532,3.894 a 7.25,7.25 0 0 0 0.0526,-0.065 m -12.903,-4.8677 a 0.35,0.35 0 0 0 0,0.67533 m 0.4588,2.2214 a 7.25,7.25 0 0 0 0.03,0.0781 m 3.4992,3.8415 a 0.35,0.35 0 0 0 0.61693,0.27466 m 9.1612,-8.5132 a 0.4,0.4 0 0 0 0.38097,-0.52192 m -2.6503,3.4818 a 0.4,0.4 0 0 0 0.4,0.4 m -4.2336,5.6377 a 0.35,0.35 0 0 0 0.67161,-0.0706 m 3.5619,-5.5666 h 1.3827 m 1.2003,-2.0218 a 0.35,0.35 0 0 0 -0.0706,-0.67161 m -0.68847,4.3469 a 0.35,0.35 0 0 0 0.27467,-0.61693 m -13.907,-1.4617 a 0.35,0.35 0 0 0 0.1404,0.66053 m 3.03,4.2215 a 7.25,7.25 0 0 0 0.0702,0.0456 m 2.738,1.051 a 7.25,7.25 0 0 0 0.0826,0.013 m -5.4313,-8.9267 h 1.2533 m -0.3897,6.2896 a 7.25,7.25 0 0 0 0.0527,0.065 m 5.9455,2.6472 a 7.25,7.25 0 0 0 0.0836,-0.004 m -6.0291,-2.6431 a 0.35,0.35 0 0 0 0.45187,0.50184 m 0.90118,-3.8958 v -0.50006 m 8.5048,-1.6007 h 1.75 m -1.1291,-1.2601 a 0.4,0.4 0 0 0 0.4,0.4 m -0.32079,-0.74063 h 0.3765 m -3.4097,9.4925 a 0.35,0.35 0 0 0 0.64226,-0.20868 m -8.109,-9.2838 h 0.60008 m -0.20612,7.5973 a 7.25,7.25 0 0 0 0.0592,0.0592 m 12.11,-3.3201 a 0.35,0.35 0 0 0 0.1404,-0.66053 m -5.3181,5.8382 a 7.25,7.25 0 0 0 0.0808,-0.0217 m -0.71541,-6.3915 h 4.7985 m -2.6712,5.8402 a 0.35,0.35 0 0 0 0.58484,-0.33766 m 0.68152,-0.49514 a 0.35,0.35 0 0 0 0.50186,-0.45188 m -11.326,-3.2989 a 6.5,6.5 0 0 0 12.458,0 m -1.779,-4.9571 a 0.2,0.2 0 0 0 -0.2,0.2 m -8.78,8.5605 a 0.35,0.35 0 0 0 0.54634,0.39693 m 2.785,-5.457 h 2.4 m -5.6515,-3.7015 h -0.83846 m 11.288,2.2013 v 1.6007 m 1.2422,-0.36332 a 0.35,0.35 0 0 0 0,-0.67533 m -8.6408,-0.9616 v 0.6985 m 8.182,3.1598 a 0.35,0.35 0 0 0 0.20868,-0.64225 m -1.248,-4.3767 a 0.2,0.2 0 0 0 0.18235,-0.28215 m 0.13115,6.7256 a 7.25,7.25 0 0 0 0.0456,-0.0702 m 1.0641,-2.8206 a 0.35,0.35 0 0 0 0.0706,-0.67159 m -11.488,-3.3212 a 0.2,0.2 0 0 0 -0.2,-0.2 m 1.8909,9.8833 a 0.35,0.35 0 0 0 0.64226,0.20868 m -4.0832,-6.291 v -1.6007 m 4.8014,-0.39952 h -0.20003 m -4.6014,0.6985 v 1.2012 m -1.1671,0.49236 a 7.25,7.25 0 0 0 0.0131,0.0827 m 1.1167,0.42451 a 0.2,0.2 0 0 0 -0.19166,0.25712 m 7.4045,5.297 a 0.35,0.35 0 0 0 0.66056,-0.14041 m 4.6047,-3.685 a 7.25,7.25 0 0 0 0.038,-0.0745 m -13.721,-2.9165 a 7.25,7.25 0 0 0 0.004,0.0836 m 0.22446,1.4147 a 7.25,7.25 0 0 0 0.0217,0.0808 m 14.076,-3.4593 a 0.2,0.2 0 0 0 -0.19542,-0.15746 m -12.946,5.6836 a 0.35,0.35 0 0 0 0.39694,0.54634 m 12.828,-5.6228 a 7.25,7.25 0 0 0 -0.0832,-0.44974 m -14.076,3.4594 a 0.35,0.35 0 0 0 0.20868,0.64225 m 11.654,-4.8188 v 0.10055 m 2.3712,1.8215 a 7.25,7.25 0 0 0 -0.004,-0.0835 m -7.5758,7.6633 a 0.35,0.35 0 0 0 0.67531,0 m -5.6263,-10.342 a 0.4,0.4 0 0 0 -0.26133,0.0972 m -1.3386,1.3028 a 0.2,0.2 0 0 0 -0.19542,0.15746 m 0.98095,5.456 a 7.25,7.25 0 0 0 0.0456,0.0702 m 7.1503,3.1835 a 7.25,7.25 0 0 0 0.0826,-0.013 m -8.4132,-6.733 a 0.35,0.35 0 0 0 0.0706,0.67159 m 14.056,-2.7916 h -1.9386 m -9.2001,0.79904 v -2.0002 m -0.82074,0.43921 h -0.6731 m 12.982,2.882 a 7.25,7.25 0 0 0 0.004,-0.0836 m -12.792,-3.3404 a 0.25142,0.25142 0 0 0 0,0.50284 m 10.08,8.1605 a 7.25,7.25 0 0 0 0.065,-0.0526 m -0.34029,-4.907 v 0.50006 m -10.695,2.1276 a 0.35,0.35 0 0 0 0.33765,0.58483 m 1.4483,-2.3135 a 0.4,0.4 0 0 0 0.4,-0.4 m 9.2048,-2.8988 v -0.80169 m -3.5486,1.2012 h -0.20003 m 4.9016,5.2127 a 0.35,0.35 0 0 0 0.33765,-0.58483 m -0.78015,1.2013 a 0.35,0.35 0 0 0 0.39693,-0.54634 m -7.1503,3.1835 a 0.35,0.35 0 0 0 0.67161,0.0706 m 6.4211,-6.6373 v -1.2012 m 0.75347,3.238 a 7.25,7.25 0 0 0 0.03,-0.0781 m -13.951,-3.6519 a 0.35,0.35 0 0 0 -0.0706,0.67161 m 1.2377,-0.47855 h 1.75 m 10.176,-1.8423 a 6.5,6.5 0 0 0 -11.853,0 m 11.023,7.898 a 7.25,7.25 0 0 0 0.0591,-0.0592 m -10.106,-7.5973 v 0.80169 m 10.276,-0.80121 a 0.3,0.3 0 0 0 0.22361,-0.50001 m -11.55,3.6004 h 4.8014 m -3.6722,-2.8603 a 0.2,0.2 0 0 0 -0.2,-0.2 m 6.2722,1.1606 h -2.4 m -0.71818,8.2913 a 7.25,7.25 0 0 0 0.0808,0.0217 m 7.1067,-8.7734 h 1.2533 m -6.9452,8.9974 a 7.25,7.25 0 0 0 0.0836,0.005 m 2.9748,-0.4894 a 0.35,0.35 0 0 0 0.61693,-0.27466 m -7.5089,-5.7777 h -1.7452 m 11.071,-3.1608 a 0.2,0.2 0 0 0 -0.2,0.2 m -11.349,5.514 a 7.25,7.25 0 0 0 0.038,0.0745 m -0.79707,-3.7498 a 7.25,7.25 0 0 0 -0.004,0.0835 m 2.371,-1.8215 v -0.10055 m -0.40002,0.49986 a 0.4,0.4 0 0 0 0.4,-0.4 m 2.2336,8.9132 a 7.25,7.25 0 0 0 0.0781,0.03 m 7.8446,-9.8844 h -0.83555 m 2.7041,4.2765 a 7.25,7.25 0 0 0 0.0131,-0.0827 m -0.17516,0.82406 a 7.25,7.25 0 0 0 0.0217,-0.0808"
     fill="none"
     stroke="#000000"
     stroke-linecap="round"
     stroke-width="0.2"
     id="path86" />
</svg>
