<?xml version="1.0" encoding="UTF-8" standalone="no"?>
<svg
   width="629.69806"
   height="245.17151"
   version="1.1"
   id="svg1247"
   sodipodi:docname="desenhotecnico.svg"
   inkscape:version="1.2.2 (732a01da63, 2022-12-09)"
   xmlns:inkscape="http://www.inkscape.org/namespaces/inkscape"
   xmlns:sodipodi="http://sodipodi.sourceforge.net/DTD/sodipodi-0.dtd"
   xmlns="http://www.w3.org/2000/svg"
   xmlns:svg="http://www.w3.org/2000/svg">
  <defs
     id="defs1251" />
  <sodipodi:namedview
     id="namedview1249"
     pagecolor="#505050"
     bordercolor="#ffffff"
     borderopacity="1"
     inkscape:showpageshadow="0"
     inkscape:pageopacity="0"
     inkscape:pagecheckerboard="1"
     inkscape:deskcolor="#505050"
     showgrid="false"
     inkscape:zoom="0.70447761"
     inkscape:cx="317.9661"
     inkscape:cy="122.07627"
     inkscape:window-width="1920"
     inkscape:window-height="1009"
     inkscape:window-x="-8"
     inkscape:window-y="-8"
     inkscape:window-maximized="1"
     inkscape:current-layer="g1161" />
  <g
     transform="translate(-142.01625,-25.570424)"
     fill="none"
     stroke="#000000"
     stroke-linecap="round"
     stroke-linejoin="round"
     stroke-miterlimit="10"
     id="g1161">
    <path
       transform="matrix(0.99983,0,0,0.99983,381.79053,-155.32425)"
       d="m -239.31241,405.1942 v 0.24914 m 127.31,-103.41 0.74744,-8.9709 m -2.7374,17.941 1.9931,-8.9709 m -5.2331,17.191 3.2388,-8.2233 m -7.7188,16.193 4.4845,-7.9742 m -10.214,14.954 5.7302,-6.9773 m -12.21,13.207 6.4777,-6.2298 m -13.958,11.21 7.4742,-4.9838 m -15.694,8.9738 8.2216,-3.9871 m -16.692,6.4771 8.4708,-2.4919 m -17.441,3.9919 8.9691,-1.4951 m -17.939,1.4951 h 8.9691 m -17.939,-1.5 8.9691,1.4951 m -17.689,-3.9851 8.72,2.4919 m -16.69,-6.4819 7.9725,3.9871 m -15.442,-8.9671 7.4742,4.9838 m -14.204,-11.214 6.7268,6.2298 m -12.207,-13.21 5.4811,6.9773 m -9.9711,-14.947 4.4845,7.9742 m -7.7145,-16.194 3.2388,8.2233 m -5.4888,-17.193 2.2422,8.9709 m -2.7322,-17.951 0.49827,8.9709 m -0.008,-17.941 -0.49827,8.9709 m 2.7483,-17.691 -2.2422,8.7217 m 5.4722,-17.192 -3.2388,8.4725 m 7.7288,-16.202 -4.4845,7.725 m 9.9645,-14.695 -5.4811,6.9774 m 12.211,-13.207 -6.7268,6.2298 m 14.197,-11.22 -7.4742,4.9838 m 15.444,-8.9638 -7.9725,3.9871 m 16.692,-6.7271 -8.72,2.7411 m 17.69,-3.9911 -8.9691,1.2459 m 17.939,-1.2459 h -8.9691 m 17.939,1.25 -8.9691,-1.2459 m 17.439,3.9859 -8.4708,-2.7411 m 16.691,6.7211 -8.2216,-3.9871 m 15.702,8.9771 -7.4742,-4.9838 m 13.954,11.214 -6.4777,-6.2298 m 12.208,13.2 -5.7302,-6.9774 m 10.21,14.707 -4.4845,-7.725 m 7.7245,16.195 -3.2388,-8.4725 m 5.2288,17.192 -1.9931,-8.7217 m 2.7431,17.692 -0.74744,-8.9709 m -37.873,12.961 0.24916,-3.9871 m -1.2392,7.7271 0.99659,-3.7379 m -2.4966,7.2279 1.4948,-3.4887 m -3.7348,6.4787 2.2422,-2.9903 m -4.9822,5.7303 2.7406,-2.7411 m -5.9806,4.9811 3.2388,-2.2427 m -6.7288,3.9927 3.4879,-1.7443 m -7.2279,2.7343 3.7371,-0.99676 m -7.4671,1.2468 3.7372,-0.24921 m -7.4772,-7.9e-4 3.7371,0.24921 m -7.4771,-1.2392 3.7371,0.99676 m -7.2271,-2.7468 3.488,1.7443 m -6.718,-3.9843 3.2388,2.2427 m -5.9788,-4.9827 2.7405,2.7411 m -4.9905,-5.7311 2.2422,2.9903 m -3.7322,-6.4803 1.4949,3.4887 m -2.4949,-7.2287 0.99657,3.7379 m -1.4966,-7.7279 0.49831,3.9871 m 0.002,-7.7171 -0.49831,3.7379 m 1.4983,-7.4779 -0.99657,3.7378 m 2.4866,-7.2278 -1.4949,3.4887 m 3.7449,-6.7287 -2.2422,3.2395 m 4.9822,-5.7295 -2.7405,2.4919 m 5.9705,-4.7319 -3.2388,2.2427 m 6.7288,-3.9927 -3.488,1.7444 m 7.228,-2.7344 -3.7371,0.99673 m 7.4771,-1.2467 -3.7371,0.24922 m 7.4671,7.8e-4 -3.7372,-0.24922 m 7.4772,1.2392 -3.7371,-0.99673 m 7.2271,2.7467 -3.4879,-1.7444 m 6.7279,3.9844 -3.2388,-2.2427 m 5.9788,4.7327 -2.7406,-2.4919 m 4.9806,5.7319 -2.2422,-3.2395 m 3.7422,6.7295 -1.4948,-3.4887 m 2.4848,7.2287 -0.99659,-3.7378 m 1.2466,7.4678 -0.24916,-3.7379 m 45.839,132.58 v -0.24917 m 0,0.49917 v -0.24921 m 0,0.49921 v -0.24916 m 0,0.48916 v -0.2492 m 0,0.4992 v -0.24919 m 0,0.49919 v -0.24923 m -0.24,0.49923 0.24916,-0.24919 m -0.24916,0.49919 v -0.24917 m 0,0.49917 v -0.24919 m -0.25,0.49919 0.24911,-0.24921 m -0.24911,0.49921 v -0.24919 m -0.25,0.49919 0.24915,-0.24917 m -0.24915,0.49917 v -0.24921 m -0.25,0.24921 h 0.24916 m -0.24916,0.25 v -0.2492 m -0.25,0.4992 0.24912,-0.24915 m -0.49912,0.24915 h 0.24914 m -0.24914,0.24 v -0.24921 m -0.25,0.24921 h 0.24917 m -0.49917,0 h 0.24912 m -133.54,-242.46 v 0.24919 m 0,-0.49919 v 0.24922 m 0.25,-0.24922 h -0.24916 m 0.24916,-0.25 v 0.24918 m 0,-0.49918 v 0.24923 m 0.25,-0.49923 -0.2491,0.24918 m 0.2491,-0.48918 v 0.24917 m 0.25,-0.24917 h -0.24915 m 0.24915,-0.25 v 0.24919 m 0.25,-0.24919 h -0.24916 m 0.49916,0 h -0.24914 m 0.24914,-0.25 v 0.24921 m 0.25,-0.24921 h -0.24914 m 0.48914,0 h -0.24915 m 0.49915,0 h -0.24912 m 0.49912,0 h -0.24914 m 18.439,240.97 v -0.24916 m 0,0.48916 v -0.2492 m -0.25,0.2492 h 0.24912 m -0.24912,0.25 v -0.24919 m 0,0.49919 v -0.24923 m -0.25,0.49923 0.24917,-0.24919 m -0.24917,0.49919 v -0.24917 m 0,0.49917 v -0.24919 m -0.25,0.24919 h 0.24916 m -0.24916,0.25 v -0.24921 m -0.25,0.49921 0.24912,-0.24919 m -0.24912,0.49919 v -0.24917 m -0.25,0.24917 h 0.24915 m -0.24915,0.25 v -0.24921 m -0.24,0.24921 h 0.24914 m -0.24914,0.25 v -0.2492 m -0.25,0.2492 h 0.24912 m -0.24912,0.25 v -0.24915 m -0.25,0.24915 h 0.24914 m -0.49914,0 h 0.24913 m -0.24913,0.24 v -0.24921 m -0.25,0.24921 h 0.24918 m -0.49918,0 h -15.447 m -2.243,-4.23 v 0.24921 m 0,-0.49921 v 0.24919 m 0,-0.49919 v 0.2492 m 111.62,-15.449 3.2389,15.699 m 0.2411,0.501 v 0.24921 m -0.25,-0.24921 h 0.24914 m -0.24914,-0.25 v 0.24917 m 0,-0.49917 v 0.24921 m 2.5,3.9808 h 0.24912 m -0.49912,-0.24 0.24917,0.24921 m -0.49917,-0.24921 h 0.24909 m -0.49909,-0.25 0.24916,0.24915 m -0.49916,-0.49915 0.24917,0.2492 m -0.24917,-0.4992 v 0.24921 m -0.25,-0.24921 h 0.24912 m -0.24912,-0.25 v 0.24917 m -0.25,-0.24917 h 0.24914 m -0.24914,-0.25 v 0.24919 m 0,-0.49919 v 0.24921 m -0.25,-0.24921 h 0.24915 m -0.24915,-0.25 v 0.24919 m -0.25,-0.49919 0.24913,0.24917 m -0.24913,-0.49917 v 0.24919 m 0,-0.49919 v 0.24923 m -0.25,-0.49923 0.24913,0.24919 m -0.24913,-0.48919 v 0.2492 m 0,-0.4992 v 0.24916 m -97.41,3.2308 h 0.24914 m 115.35,0 h -15.447 m -6.723,-22.92 0.49825,2.9903 m -12.208,-61.3 11.71,58.311 m 24.41,2.489 v -2.9903 m -115.1,19.94 0.24913,-0.74759 m 114.85,-234.24 v -3.7378 m -111.61,222.28 0.49829,-2.9903 m -24.418,-215.55 v 215.05 m 24.42,0.5 11.71,-58.311 m 99.4,76.501 v -15.699 m -135.53,-221.78 v 3.7378 m 135.53,215.05 v -215.05 m -0.25,234.49 0.24917,-0.7476 m -135.53,-18.692 v 2.9903 m 1.99,20.43 h 0.24914 m -0.49914,0 h 0.24912 m -0.24912,-0.24 v 0.24921 m -0.24,-0.24921 h 0.24915 m -0.49915,-0.25 0.24914,0.24915 m -0.49914,-0.49915 0.24914,0.2492 m -0.24914,-0.4992 v 0.24921 m -0.25,-0.24921 h 0.24916 m -0.24916,-0.25 v 0.24917 m 0,-0.49917 v 0.24919 m -0.25,-0.24919 h 0.24915 m -0.24915,-0.25 v 0.24921 m 0,-0.49921 v 0.24919 m 0,-0.49919 v 0.24917 m -0.25,-0.24917 h 0.2491 m -0.2491,-0.25 v 0.24919 m 0,-0.49919 v 0.24923 m 0,-0.49923 v 0.24919 m 0,-0.48919 v 0.2492 m 0,-0.4992 v 0.24916 m -0.25,-0.49916 0.24916,0.24921 m -0.24916,-0.49921 v 0.24917 m 133.54,-240.47 h -0.24912 m 0.49912,0 h -0.24917 m 0.49917,0 h -0.24914 m 0.49914,0 h -0.24912 m 0.24912,0.25 v -0.24921 m 0.25,0.24921 h -0.24916 m 0.49916,0.25 -0.24915,-0.24919 m 0.49915,0.48919 -0.24911,-0.24917 m 0.24911,0.49917 v -0.24918 m 0.24,0.24918 h -0.24916 m 0.24916,0.25 v -0.24923 m 0,0.49923 v -0.24918 m 0,0.49918 v -0.24922 m 0.25,0.24922 h -0.24917 m 0.24917,0.25 v -0.24919 m -2.24,-1.7408 h -131.05 m -2.24,223.77 v 15.699 m 117.6,4.731 h 0.24916 m -97.169,-4.23 3.2388,-15.699"
       id="path1131"
       sodipodi:nodetypes="cccccccccccccccccccccccccccccccccccccccccccccccccccccccccccccccccccccccccccccccccccccccccccccccccccccccccccccccccccccccccccccccccccccccccccccccccccccccccccccccccccccccccccccccccccccccccccccccccccccccccccccccccccccccccccccccccccccccccccccccccccccccccccccccccccccccccccccccccccccccccccccccccccccccccccccccccccccccccccccccccccccccccccccccccccccccccccccccccccccccccccccccccccccccccccccccccccccccccccccccccccccccccccccccccccccccccccccccccccccccccc" />
    <path
       d="m 908.30511,236.22592 v -8.72021 m 24.90577,36.12586 v -0.24915 m 0,0.4991 v -0.24913 m 0,0.49909 v -0.24915 m 0,0.49911 v -0.24919 m -0.24996,0.49915 0.24915,-0.24915 m -0.24915,0.4991 v -0.24915 m 0,0.49911 v -0.24913 m 0,0.49909 v -0.24917 m -0.24996,0.49913 0.24908,-0.24915 m -0.24908,0.4991 v -0.24915 m -0.24995,0.49911 0.24907,-0.24913 m -0.24907,0.49909 v -0.24915 m -0.24996,0.24915 h 0.24909 m -0.24909,0.23996 v -0.24918 m -0.24996,0.49913 0.24909,-0.24914 m -0.24909,0.4991 v -0.24912 m -0.24996,0.49908 0.24913,-0.24915 m -0.48909,0.24915 h 0.24914 m -0.49909,0.24996 0.24904,-0.24915 m -0.24904,0.4991 v -0.24915 m -0.24996,0.24915 h 0.24913 m -0.49909,0.24996 0.24908,-0.24916 m -0.49904,0.49912 0.2491,-0.24917 m -0.49905,0.24917 h 0.24907 m -0.49903,0.24996 0.24915,-0.24912 m -0.49911,0.24912 h 0.24908 m -0.49904,0.24995 0.2491,-0.24915 m -0.49905,0.24915 h 0.24909 m -0.49905,0.24996 0.24908,-0.24919 m -0.49904,0.24919 h 0.24911 m -0.48907,0 h 0.24914 m -0.74905,0 h 0.49815 m -0.74811,0 h 0.24914 m -0.4991,0 h 0.24908 m -0.49903,0 h 0.24909 m -9.9674,-41.61292 v -8.96948 m -99.13315,50.5824 h 108.8515 m -98.64323,-68.26839 v 8.96937 m -1.24979,-97.17447 h 91.1705 m -82.45198,88.205 v -0.99659 m 81.45615,45.33929 v -8.96938 m -88.92488,-35.37298 h 88.92788 m -7.72169,0 v -0.99659 m 0,-69.51118 v -8.96938 m -1.48975,132.54747 v -8.72022 m -79.71644,-0.008 h 88.92788 m -88.92788,-26.65547 v 8.96948 m 0,8.71751 v 8.96938 m 89.92471,-132.54746 v 8.72021 m 14.6975,138.53645 h -120.5595 m 0,3.47941 v -3.48811 m 104.86217,0.009 v -5.97958 m -88.92488,-17.697 h 88.92788 m -0.003,-26.40551 v -8.96937 m -88.92488,53.07198 v 5.97958 m 7.46873,-129.55797 v -8.96938 m 0,23.66698 v -5.97958 m -8.71852,-17.686 h 91.1705 m -8.71452,23.66598 v -5.97959 m 23.41602,124.31887 v -3.48811 m -105.872,-120.82946 h 91.1705 M 828.58871,253.9273 h 88.92788 M 837.80714,227.51179 V 236.232 M 827.33892,130.35001 v 8.72021 m 80.96623,79.47449 v -8.72022 m -90.17466,59.30192 h 0.24907 m -0.49903,0 h 0.24913 m -0.49909,0 h 0.24912 m -0.49908,0 h 0.24906 m -0.49901,0 h 0.24908 m -0.49904,0 h 0.24914 m -0.4991,-0.24996 0.24909,0.24919 m -0.49905,-0.24919 h 0.24909 m -0.49904,0 h 0.24911 m -0.49907,-0.24995 0.24909,0.24915 m -0.49905,-0.24915 h 0.2491 m -0.2491,-0.24996 v 0.24912 m -0.23996,-0.24912 h 0.24908 m -0.49904,-0.24996 0.24912,0.24917 m -0.49907,-0.49913 0.2491,0.24916 m -0.49906,-0.24916 h 0.2491 m -0.49906,-0.24995 0.2491,0.24915 m -0.2491,-0.49911 v 0.24915 m -0.24996,-0.24915 h 0.24911 m -0.49906,-0.24996 0.24908,0.24915 m -0.24908,-0.49911 v 0.24912 m -0.24996,-0.49907 0.2491,0.24914 m -0.49906,-0.4891 0.24911,0.24917 m -0.49907,-0.49913 0.24908,0.24915 m -0.24908,-0.49911 v 0.24913 m 0,-0.49909 v 0.24915 m -0.24995,-0.4991 0.24911,0.24914 m -0.24911,-0.4991 v 0.24917 m 0,-0.49913 v 0.24913 m -0.23996,-0.49909 0.24909,0.24915 m -0.24909,-0.4991 v 0.24914 m 0,-0.4991 v 0.24919 m 0,-0.49915 v 0.24915 m 0,-0.49911 v 0.24913 m 0,-0.49908 v 0.24914 m 14.6875,-133.28733 h 91.1705 m -89.92071,79.47648 h 88.92788 m -79.70945,0 v 8.72022 m 0,26.65347 v 8.72022 M 918.51342,130.3506 v 8.72021 m -89.92471,79.47449 h 88.92788 m -88.92788,8.96848 h 88.92788 M 827.33892,112.65331 v 8.72021 m -22.16623,25.66364 v 2.49148 M 938.44003,145.0475 H 807.41231 m -0.24996,54.81068 h 0.24911 m -0.49907,0 h 0.2491 m -0.2491,-0.24996 v 0.24917 m -0.23996,-0.24917 h 0.24908 m -0.49903,0 h 0.24909 m -0.49905,0 h 0.24913 m -0.24913,-0.24996 v 0.24918 m -0.24996,-0.24918 h 0.24908 m -0.24908,-0.24995 v 0.24908 m -0.24996,-0.24908 h 0.2491 m -0.2491,-0.24996 v 0.24917 m -0.24995,-0.48913 0.24909,0.24915 m -0.24909,-0.49911 v 0.24916 m -0.24996,-0.49912 0.24912,0.24917 m -0.24912,-0.49912 v 0.24914 m 0,-0.4991 v 0.24912 M 940.67965,149.5269 v -2.49148 m 0,46.84404 V 149.531 m -135.50696,44.34846 v 3.73726 m 2.23962,2.24172 h 131.02772 m 0.24996,-54.81068 h -0.2491 m 0.49905,0 h -0.24907 m 0.49903,0 h -0.2491 m 0.2491,0.24996 v -0.24915 m 0.24996,0.24915 h -0.2491 m 0.49906,0 h -0.24913 m 0.24913,0.24995 v -0.24913 m 0.24995,0.24913 h -0.24907 m 0.24907,0.24996 v -0.24918 m 0.24996,0.24918 h -0.24912 m 0.24912,0.24996 v -0.24915 m 0.23996,0.24915 h -0.24908 m 0.24908,0.23996 v -0.24915 m 0,0.4991 v -0.24915 m 0,0.49911 v -0.24915 m 0.24996,0.24915 h -0.2491 m 0.2491,0.24996 v -0.24914 m -135.50696,2.73874 v 44.34846 m 135.50696,3.99332 v -0.24912 m -0.24996,0.24912 h 0.2491 m -0.2491,0.24995 v -0.24914 m 0,0.4991 v -0.24917 m 0,0.49913 v -0.24916 m -0.23996,0.24916 h 0.24908 m -0.24908,0.23996 v -0.24915 m 0,0.49911 v -0.24917 m -0.24996,0.24917 h 0.24912 m -0.24912,0.24995 v -0.24908 m -0.24995,0.24908 h 0.24907 m -0.49903,0.24996 0.24913,-0.24918 m -0.49909,0.24918 h 0.2491 m -0.49906,0 h 0.2491 m -0.2491,0.24996 v -0.24917 m -0.24995,0.24917 h 0.24907 m -0.49903,0 h 0.2491 m 1.99056,-2.23962 v -3.73727 M 805.17273,146.78758 v 0.24914 m 0,-0.4991 v 0.24915 m 0.24996,-0.24915 h -0.24912 m 0.24912,-0.24995 v 0.24915 m 0,-0.48911 v 0.24915 m 0.24995,-0.24915 h -0.24909 m 0.24909,-0.24996 v 0.24915 m 0.24996,-0.49911 -0.2491,0.24918 m 0.49906,-0.49913 -0.24908,0.24913 m 0.49904,-0.24913 h -0.24913 m 0.49908,-0.24996 -0.24909,0.24915 m 0.48905,-0.24915 h -0.24907 m 0.49903,0 h -0.2491 m 0.49906,0 h -0.24911"
       id="path1576"
       transform="translate(-169.46538,-42.730599)"
       style="stroke:#000000;stroke-opacity:1" />
    <path
       d="m 560.61757,262.22375 v 0.24915 m -79.9624,-23.66497 h -8.96758 m 26.65347,-26.91543 v -5.97958 m 52.80802,-40.6121 h -8.71852 m -70.74297,82.22602 v -91.18849 m 70.74297,34.87807 h 8.71852 m -105.862,56.31042 v -91.18849 m 0,91.18849 h 8.96757 m -1e-4,0 v -91.18849 m 106.36192,-14.7035 h -3.48741 m -23.41802,70.25805 h -8.96747 m -8.71952,-55.56055 h 8.71842 m -11.20809,49.58157 v -8.72022 m 37.6136,50.33344 h 5.97838 m -94.15799,-91.19449 h 8.71842 m 44.33746,34.88407 v -34.88107 m -88.42796,-0.003 h 8.96757 m 61.7765,40.86305 v -5.97958 m -35.37199,-25.9146 h -8.71841 m 79.46148,25.9156 h 8.71852 m 0,20.67648 h -8.71852 m -35.37098,35.63394 h 8.71852 m -26.40451,-91.19449 h 8.71841 m 8.96758,49.58157 h 15.19542 m -15.19542,41.61292 V 211.8996 m 35.37098,35.62794 V 211.8996 M 427.59949,165.30152 h -8.71842 m 114.83047,-8.96847 h 8.71852 m 8.71852,55.56055 h -8.71852 m 14.6975,0 h -5.97838 m -35.12503,35.63394 V 211.8996 m -17.68399,-20.68248 v -34.88107 m 52.80802,82.47298 h -8.71852 m 8.71852,-47.59191 v -34.88107 m 15.44737,100.16297 V 147.61753 m -156.68336,99.91301 v -91.18849 m 97.14549,34.87807 V 156.33905 M 560.61857,262.481 h -3.48741 M 427.59319,247.53354 v -91.18849 m 123.54899,-0.006 h 5.97838 m -58.786,82.47597 h -1.24549 m 9.96101,-26.91542 h -8.71852 m 8.71852,-20.67648 h 8.96757 m 35.12503,0 h 5.97838 m -58.786,-34.88407 h 8.71852 m 17.68399,34.88407 v -34.88107 m -61.7745,91.19149 v -91.18849 m -17.68599,8.96247 h -8.71842 m 79.46049,0 h -8.96757 m -9e-4,82.22602 V 211.9056 m 35.37398,35.62794 V 211.9056 m -8.71851,-20.68248 v -34.88107 m 27.15538,-14.7005 h -0.2491 m 0.49906,0 h -0.24908 m 0.49903,0 h -0.24911 m 0.48907,0.24995 -0.24912,-0.24917 m 0.49908,0.24917 h -0.24911 m 0.49907,0 h -0.24906 m 0.49902,0 h -0.24911 m 0.49906,0.24996 -0.24906,-0.24915 m 0.49902,0.24915 h -0.24913 m 0.49909,0 h -0.24912 m 0.49908,0.24996 -0.24909,-0.24915 m 0.49904,0.24915 H 563.352 m 0.49902,0.24996 -0.24913,-0.24914 m 0.49909,0.49909 -0.24908,-0.24915 m 0.49904,0.24915 h -0.24912 m 0.24912,0.24996 v -0.24914 m 0.23995,0.24914 h -0.24912 m 0.49908,0.23996 -0.24907,-0.24916 m 0.49903,0.49912 -0.24912,-0.24915 m 0.24912,0.49911 v -0.24915 m 0.24996,0.4991 -0.24908,-0.24914 m 0.49903,0.24914 h -0.24906 m 0.24906,0.24996 v -0.24917 m 0.24996,0.49913 -0.24914,-0.24913 m 0.24914,0.49909 v -0.24917 m 0.24996,0.49912 -0.24911,-0.24912 m 0.24911,0.49908 v -0.24917 m 0,0.49913 v -0.24915 m 0.24996,0.49911 -0.24909,-0.24915 m 0.24909,0.4991 v -0.24914 m 0,0.4891 v -0.24915 m 0,0.49911 v -0.24916 m 0.24995,0.49912 -0.24909,-0.24912 m 0.24909,0.49908 v -0.24915 m 0,0.4991 v -0.24916 m 0,0.49912 v -0.24915 m -50.5714,64.52803 h -8.96757 m 59.53887,44.85237 v -0.24916 m 0,0.49912 v -0.24913 m 0,0.49909 v -0.24917 m -0.24995,0.48913 0.24909,-0.24917 m -0.24909,0.49913 v -0.24911 m 0,0.49906 v -0.24914 m 0,0.4991 v -0.24919 m -0.24996,0.49915 0.24909,-0.24915 m -0.24909,0.49911 v -0.24915 m 0,0.4991 v -0.24914 m -0.24996,0.4991 0.24911,-0.24911 m -0.24911,0.49907 v -0.24919 m -0.24996,0.49915 0.24914,-0.24913 m -0.49909,0.49908 0.24906,-0.24914 m -0.49902,0.4991 0.24908,-0.24917 m -0.24908,0.48913 V 260.232 m -0.24996,0.49911 0.24912,-0.24917 m -0.49908,0.24917 h 0.24907 m -0.48902,0.24996 0.24912,-0.24912 m -0.24912,0.49907 v -0.24912 m -0.24996,0.24912 H 564.35 m -0.49908,0.24996 0.24908,-0.24918 m -0.49904,0.24918 h 0.24913 m -0.49908,0.24996 0.24906,-0.24917 m -0.49902,0.24917 h 0.24909 m -0.49905,0.24996 0.24912,-0.24913 m -0.49908,0.24913 h 0.24913 m -0.49908,0 h 0.24906 m -0.49902,0.24995 0.24911,-0.24916 m -0.49907,0.24916 h 0.24906 m -0.49902,0 h 0.24911 m -0.48907,0 h 0.24913 m -0.49908,0 h 0.24911 m -0.49907,0 h 0.24908 m -0.49904,0.24996 0.2491,-0.24915 m -27.15438,-14.6985 h 8.71851 m -61.77549,0 v -91.18849 m -53.05798,82.46997 h -8.71842 m 114.83048,-73.5075 h -8.96748 m 8.96748,73.5075 h -8.96748 m -10e-4,-47.5919 h 8.96748 m -17.686,0 h 8.71842 m -105.862,56.31042 v -91.18849 m 61.7765,8.96247 h -8.96758 m 8.96758,82.22602 h 8.71841 m 8.96758,-56.31042 h 8.71852 m -8.71852,-25.9156 h -1.24549 m -87.18517,82.22602 h 8.96757 m 17.68599,0 v -91.18849 m 114.58052,91.18849 v -35.62794 m -88.18001,35.62794 h 8.71842 m 53.05598,-35.63394 h -8.71842 m 8.71842,35.63394 v -35.62794 m -8.71852,26.90942 h -8.96757 m -97.14648,-82.47597 h 8.96757 m 94.65691,40.86305 H 498.3295 m -53.05698,41.61292 h -8.71842 m 105.862,-47.5919 v -34.88107 m -97.14748,-0.003 h 8.96758 m 8.71842,82.47597 h -8.71842 m 61.77449,8.71852 h 8.71842 m 32.3845,-105.89199 V 262.48062 M 427.58563,247.53316 h 8.96757 m 60.53071,63.77916 v -0.24911 m 0,0.49907 v -0.24918 m 0,0.49913 v -0.24915 m 0,0.49911 v -0.24914 m 0,0.4991 v -0.24916 m -0.24896,0.49912 0.24909,-0.24914 m -0.24909,0.49909 v -0.24914 m 0,0.4891 v -0.24918 m 0,0.49914 v -0.24913 m -0.24895,0.24913 h 0.24908 m -0.24908,0.24996 v -0.24915 m 0,0.4991 v -0.24918 m -0.24896,0.24918 h 0.24911 m -0.24911,0.24996 v -0.24915 m 0,0.49911 v -0.2491 m -0.24996,0.2491 h 0.24913 m -0.24913,0.24996 v -0.24918 m -0.24896,0.49913 0.24909,-0.24916 m -0.49804,0.49912 0.24909,-0.24915 m -0.24909,0.49911 v -0.24913 m -0.24896,0.24913 h 0.24911 m -0.24911,0.24996 v -0.24913 m -0.24896,0.24913 h 0.24907 M 473.669,330.2491 v 0.24917 m 0,-0.49913 v 0.24915 m 0,-0.49911 v 0.24916 m 0,-0.49911 v 0.24914 m 0,-0.4991 v 0.24917 m 0,-0.49913 v 0.24912 m 0.24896,-0.24912 h -0.24908 m 0.24908,-0.24996 v 0.24915 m 0,-0.4991 v 0.24918 m 0.24896,-0.24918 h -0.24912 m 0.24912,-0.24996 v 0.24915 m 0,-0.48911 v 0.24915 m 0.24896,-0.24915 h -0.24912 m 0.24912,-0.24996 v 0.24913 m 0.24895,-0.24913 h -0.24907 m 0.24907,-0.24996 v 0.24915 m 0.24896,-0.24915 h -0.24912 m 0.24912,-0.24995 v 0.24914 M 446.76558,99.037601 h 36.86673 M 497.08402,311.06155 V 96.048109 m -13.20175,2.989492 h -0.24912 m 0.49807,0 h -0.24909 m 0.49805,0 h -0.24909 m 0.49805,0 h -0.24909 m 0.49805,0.249957 -0.2491,-0.249157 m 0.49806,0.249157 h -0.24913 m 0.49808,0 h -0.24907 m 0.49803,0 h -0.2491 m 0.49906,0.249958 -0.24913,-0.249148 m 0.49809,0.249148 h -0.24909 m 0.49804,0.249957 -0.24906,-0.249167 m 0.49802,0.249167 h -0.24913 m 0.24913,0.249957 v -0.249117 m 0.24896,0.249117 h -0.24908 m 0.49804,0.23996 -0.24913,-0.24913 m 0.49808,0.49909 -0.24907,-0.24917 m 0.49903,0.24917 h -0.24908 m 0.24908,0.24996 v -0.24918 m 0.24896,0.49913 -0.24909,-0.24912 m 0.49805,0.24912 h -0.24915 m 0.24915,0.24996 v -0.24917 m 0.24896,0.49913 -0.24908,-0.24915 m 0.49803,0.49911 -0.24909,-0.24913 m 0.24909,0.49908 v -0.24915 m 0.24896,0.49911 -0.24911,-0.24919 m 0.24911,0.49915 v -0.24913 m 0.24896,0.49909 -0.24909,-0.24917 m 0.24909,0.49912 v -0.24913 m 0,0.48909 v -0.24915 m 0.24996,0.49911 -0.2491,-0.24915 m 0.2491,0.49911 v -0.24915 m 0,0.4991 v -0.24914 m 0,0.4991 v -0.24918 m 0,0.49914 v -0.24912 m 0,0.49908 v -0.24917 m 0,0.49912 v -0.24914 m 0,206.79484 v -0.24918 m 0,0.49913 v -0.24915 m 0,0.49911 v -0.24914 m 0,0.4991 v -0.24916 m 0,0.49912 v -0.24914 m 0,0.49909 v -0.24914 m -0.24996,0.24914 h 0.2491 m -0.2491,0.23996 v -0.24918 m 0,0.49914 v -0.24913 m 0,0.49909 v -0.24915 m -0.24896,0.24915 h 0.24909 m -0.24909,0.24995 v -0.24918 m 0,0.49914 v -0.24915 m -0.24896,0.24915 h 0.24911 m -0.24911,0.24996 v -0.2491 m 0,0.49906 v -0.24918 m -0.24895,0.24918 h 0.24909 m -0.24909,0.24995 v -0.24916 m -0.24896,0.24916 h 0.24908 m -0.24908,0.24996 v -0.24915 m -0.24896,0.49911 0.24915,-0.24913 m -0.49811,0.49909 0.24909,-0.24913 m -14.19859,19.17574 21.42236,-18.93578 M 446.51675,99.039241 h 0.24908 m -0.74699,0 h 0.49824 m -0.7472,-0.249958 0.24908,0.249188 m -0.747,-0.249188 h 0.49821 m -0.74817,-0.249957 0.24908,0.249107 m -0.74699,-0.249107 h 0.49819 m -0.74715,-0.249958 0.24913,0.249148 m -0.49809,-0.499105 0.2491,0.249137 m -0.49805,-0.499095 0.24907,0.249148 m -0.49803,-0.499105 0.24908,0.249177 m -0.49804,-0.749092 0.2491,0.498295 m -0.49906,-0.738255 0.24912,0.249168 m -0.49807,-0.499125 0.24911,0.249128 m -0.49807,-0.749043 0.2491,0.498315 m -0.2491,-0.748273 v 0.249148 m 0,-0.749063 v 0.498276 m -0.24896,-0.748233 0.24908,0.249178 m -0.24908,-0.749093 v 0.498285 m 0,-0.748243 v 0.249138 m 0.24896,-0.739054 -0.24908,0.498315 m 0.24908,-0.748273 V 93.8093 m 0,-0.749043 v 0.498325 m 0.24896,-0.748282 -0.2491,0.249147 m 0.49805,-0.749062 -0.24911,0.498265 m 0.49907,-0.748223 -0.24912,0.249148 m 0.49808,-0.499105 -0.2491,0.249177 m 0.49806,-0.499135 -0.24908,0.249138 m 0.49803,-0.499095 -0.24907,0.249187 m 0.49803,-0.499145 -0.2491,0.249138 m 0.49806,-0.489097 -0.24913,0.249128 m 0.74704,-0.499086 -0.49819,0.249148 m 0.74815,-0.249148 h -0.24908 m 0.747,-0.249957 -0.49821,0.249168 m 0.74717,-0.249168 h -0.24908 m 0.74699,0 h -0.49824 m 0.7472,0 h -0.24908 m 44.83838,0 h -0.24914 m 0.74705,0 h -0.49818 m 0.74714,0 h -0.24911 m 0.49807,0 h -0.2491 m 0.49806,0 h -0.24909 m 0.49904,0 h -0.2491 m 0.49806,0.249957 -0.24913,-0.249167 m 0.49809,0.249167 h -0.2491 m 0.49806,0.249958 -0.2491,-0.249148 m 0.49805,0.249148 h -0.24907 m 0.49803,0.239959 -0.24908,-0.249127 m 0.49804,0.249127 h -0.2491 m 0.49906,0.249958 -0.24913,-0.249138 m 0.49808,0.249138 h -0.24907 m 0.49803,0.249957 -0.24913,-0.249187 m 0.24913,0.499145 v -0.249138 m 0.24896,0.249138 h -0.24907 m 0.49803,0.249957 -0.24911,-0.249177 m 0.49806,0.499135 -0.24909,-0.249148 m 0.24909,0.499105 v -0.249117 m 0.24896,0.499075 -0.24909,-0.249148 m 0.24909,0.499105 V 92.81111 m 0.24996,0.249147 h -0.24913 m 0.24913,0.249958 v -0.249158 m 0.24896,0.499115 -0.24911,-0.249167 m 0.24911,0.499125 v -0.249128 m 0.24895,0.489087 -0.24908,-0.249158 m 0.24908,0.499115 v -0.249157 m 0,0.499115 v -0.249138 m 0.24896,0.499095 -0.24909,-0.249177 m 0.24909,0.499135 v -0.249108 m 0,0.499065 v -0.249177 m 0,0.499135 v -0.249128 m 0,0.499085 v -0.249147 m 0,0.499105 v -0.249148 m -7.72168,9.217629 v 206.29493 m 1.7437,-220.992427 h -44.33946 m 40.85205,225.231707 -12.70384,11.71001 m -1.24579,3.23745 v 3.98632"
       id="path2153"
       transform="translate(-31.88824,-64.247296)" />
  </g>
</svg>
