<?xml version="1.0" encoding="UTF-8" standalone="no"?>
<svg
   width="640"
   height="690"
   version="1.1"
   viewBox="0 0 169.33 182.5625"
   id="svg311"
   sodipodi:docname="diagrama t8 frost.svg"
   inkscape:version="1.2.2 (732a01da63, 2022-12-09)"
   xmlns:inkscape="http://www.inkscape.org/namespaces/inkscape"
   xmlns:sodipodi="http://sodipodi.sourceforge.net/DTD/sodipodi-0.dtd"
   xmlns="http://www.w3.org/2000/svg"
   xmlns:svg="http://www.w3.org/2000/svg">
  <defs
     id="defs315" />
  <sodipodi:namedview
     id="namedview313"
     pagecolor="#505050"
     bordercolor="#ffffff"
     borderopacity="1"
     inkscape:showpageshadow="0"
     inkscape:pageopacity="0"
     inkscape:pagecheckerboard="1"
     inkscape:deskcolor="#505050"
     showgrid="false"
     inkscape:zoom="0.92709556"
     inkscape:cx="122.96467"
     inkscape:cy="417.4327"
     inkscape:window-width="1920"
     inkscape:window-height="1009"
     inkscape:window-x="-8"
     inkscape:window-y="-8"
     inkscape:window-maximized="1"
     inkscape:current-layer="svg311" />
  <g
     fill-rule="evenodd"
     id="g263"
     transform="translate(0,-5.289473)">
    <g
       transform="matrix(0.99964,0,0,0.99964,0.030622,22.32)"
       stroke-width="1.0004"
       id="g225">
      <path
         transform="matrix(0.28287,0,0,0.28287,84.739,9.0018)"
         d="m 0,458.35 -7.9945,-0.343 -7.9812,-0.521 -7.9481,-0.991 -7.921,-1.091 -7.8683,-1.479 -7.8141,-1.732 -7.7396,-2.079 -7.6788,-2.231 -7.5935,-2.515 -7.4911,-2.835 -7.3765,-3.152 -7.2944,-3.255 -7.1586,-3.584 -7.0433,-3.777 -6.921,-3.965 -6.752,-4.3 -6.607,-4.5 -6.47,-4.657 -6.289,-4.921 -6.104,-5.161 -5.989,-5.195 -5.735,-5.57 -5.534,-5.775 -5.428,-5.741 -5.237,-5.901 -4.92,-6.3 -4.851,-6.167 -4.554,-6.481 -4.336,-6.615 -4.183,-6.623 -3.941,-6.78 -3.724,-6.878 -3.471,-7.02 -3.288,-7.041 -2.996,-7.216 -2.773,-7.272 -2.54,-7.337 -2.374,-7.303 -2.039,-7.477 -1.885,-7.417 -1.644,-7.455 -1.296,-7.604 -1.182,-7.483 -1.004,-7.431 -0.664,-7.543 -0.557,-7.41 -0.298,-7.424 -0.039,-7.431 0.223,-7.429 0.275,-7.244 0.638,-7.319 0.822,-7.236 1.034,-7.173 1.181,-7.058 1.436,-7.02 1.513,-6.852 1.813,-6.835 1.965,-6.714 1.996,-6.521 2.341,-6.515 2.431,-6.354 2.5,-6.185 2.735,-6.105 2.918,-5.991 3.008,-5.8316 3.023,-5.6396 3.335,-5.5807 3.486,-5.4437 3.305,-5.1772 3.554,-5.084 3.616,-4.9182 3.71,-4.7647 3.671,-4.5699 3.924,-4.4666 3.817,-4.2572 3.855,-4.0944 3.946,-3.9458 4.051,-3.7993 4.114,-3.6426 4.039,-3.4615 4.054,-3.3021 3.91,-3.1226 4.032,-2.9861 3.996,-2.829 4.012,-2.6809 3.889,-2.5242 3.937,-2.385 3.904,-2.2421 3.865,-2.1026 3.766,-1.9664 3.819,-1.834 3.653,-1.7075 3.6796,-1.5806 3.6252,-1.4588 3.5481,-1.3423 3.5265,-1.2247 3.3858,-1.1231 3.3975,-1.0079 3.3099,-0.9077 3.2202,-0.8128 3.1859,-0.7117 3.0921,-0.6248 3.0915,-0.5213 2.9369,-0.4557 2.8759,-0.3731 2.8319,-0.2883 2.6743,-0.2401 2.6648,-0.1518 2.5612,-0.0957 2.4934,-0.0315 2.3883,0.0153 2.3372,0.0788 2.2669,0.1322 2.1602,0.1664 2.0715,0.2037 2.0177,0.2537 1.8764,0.2571 1.8571,0.3176 1.717,0.3112 1.7139,0.3762 1.6254,0.391 1.5542,0.4121 1.5322,0.4618 1.4121,0.4455 1.3901,0.4906 1.2722,0.4662 1.2192,0.4832 1.1356,0.474 1.0839,0.4853 1.0327,0.4947 0.9376,0.46339 0.91776,0.49293 0.85424,0.48203 0.80617,0.48186 0.77263,0.49349 0.72564,0.48981 0.66622,0.46992 0.60849,0.44744 0.57811,0.45183 0.53549,0.44016 0.494,0.42671 0.45367,0.41152 0.41457,0.39466 0.38823,0.39192 0.34003,0.35625 0.30493,0.33462 0.28189,0.32786 0.24915,0.30367 0.21792,0.27811 0.19801,0.26808 0.21662,0.32552 0.10422,0.1431 0.12556,0.19844 0.11842,0.20242 0.094697,0.17087 0.017222,0.01358 0.047148,0.085814 0.007546,-0.003126 0.0076,-0.002994 0.007651,-0.00286 -0.004998,-0.039602 0.008391,-0.002808 0.00844,-0.002661 -0.002266,-0.040002 0.009183,-0.002547 0.009226,-0.002385 0.009266,-0.002225 0.005249,-0.021136 0.005951,-0.02111 0.003267,-0.040268 0.010741,-0.001798 0.0080572,-0.02092 0.011135,-0.001465 0.011159,-0.001272 0.0094798,-0.020502 0.010176,-0.02036 0.01189,-7.28e-4 0.01122,-0.020007 0.012248,-3.21e-4 0.012252,-1.07e-4 0.012252,1.07e-4 0.012248,3.21e-4 0.01122,0.020007 0.01189,7.28e-4 0.010176,0.02036 0.0094798,0.020502 0.011159,0.001272 0.011135,0.001465 0.0080572,0.02092 0.010741,0.001798 0.003267,0.040268 0.005951,0.02111 0.005249,0.021136 0.009266,0.002225 0.009226,0.002385 0.009183,0.002547 -0.002266,0.040002 0.00844,0.002661 0.008391,0.002808 -0.004998,0.039602 0.007651,0.00286 0.0076,0.002994 0.007546,0.003126 0.047148,-0.085814 0.017222,-0.01358 0.094697,-0.17087 0.11842,-0.20242 0.12556,-0.19844 0.10422,-0.1431 0.21662,-0.32552 0.19801,-0.26808 0.21792,-0.27811 0.24915,-0.30367 0.28189,-0.32786 0.30493,-0.33462 0.34003,-0.35625 0.38823,-0.39192 0.41457,-0.39466 0.45367,-0.41152 0.494,-0.42671 0.53549,-0.44016 0.57811,-0.45183 0.60849,-0.44744 0.66622,-0.46992 0.72564,-0.48981 0.77263,-0.49349 0.80617,-0.48186 0.85424,-0.48203 0.91776,-0.49293 0.9376,-0.46339 1.0327,-0.4947 1.0839,-0.4853 1.1356,-0.474 1.2192,-0.4832 1.2722,-0.4662 1.3901,-0.4906 1.4121,-0.4455 1.5322,-0.4618 1.5542,-0.4121 1.6254,-0.391 1.7139,-0.3762 1.717,-0.3112 1.8571,-0.3176 1.8764,-0.2571 2.0177,-0.2537 2.0715,-0.2037 2.1602,-0.1664 2.2669,-0.1322 2.3372,-0.0788 2.3883,-0.0153 2.4934,0.0315 2.5612,0.0957 2.6648,0.1518 2.6743,0.2401 2.8319,0.2883 2.8759,0.3731 2.9369,0.4557 3.0915,0.5213 3.0921,0.6248 3.1859,0.7117 3.2202,0.8128 3.3099,0.9077 3.3975,1.0079 3.3858,1.1231 3.5265,1.2247 3.5481,1.3423 3.6252,1.4588 3.679598,1.5806 3.653,1.7075 3.819,1.834 3.766,1.9664 3.865,2.1026 3.904,2.2421 3.937,2.385 3.889,2.5242 4.012,2.6809 3.996,2.829 4.032,2.9861 3.91,3.1226 4.054,3.3021 4.039,3.4615 4.114,3.6426 4.051,3.7993 3.946,3.9458 3.855,4.0944 3.817,4.2572 3.924,4.4666 3.671,4.5699 3.71,4.7647 3.616,4.9182 3.554,5.084 3.305,5.1772 3.486,5.4437 3.335,5.5807 3.023,5.6396 3.008,5.8316 2.918,5.991 2.735,6.105 2.5,6.185 2.431,6.354 2.341,6.515 1.996,6.521 1.965,6.714 1.813,6.835 1.513,6.852 1.436,7.02 1.181,7.058 1.034,7.173 0.822,7.236 0.638,7.319 0.275,7.244 0.223,7.429 -0.039,7.431 -0.298,7.424 -0.557,7.41 -0.664,7.543 -1.004,7.431 -1.182,7.483 -1.296,7.604 -1.644,7.455 -1.885,7.417 -2.039,7.477 -2.374,7.303 -2.54,7.337 -2.773,7.272 -2.996,7.216 -3.288,7.041 -3.471,7.02 -3.724,6.878 -3.941,6.78 -4.183,6.623 -4.336,6.615 -4.554,6.481 -4.851,6.167 -4.92,6.3 -5.237,5.901 -5.428,5.741 -5.534,5.775 -5.735,5.57 -5.989,5.195 -6.104,5.161 -6.289,4.921 -6.47,4.657 -6.607,4.5 -6.752,4.3 -6.921,3.965 -7.043298,3.777 -7.1586,3.584 -7.2944,3.255 -7.3765,3.152 -7.4911,2.835 -7.5935,2.515 -7.6788,2.231 -7.7396,2.079 -7.8141,1.732 -7.8683,1.479 -7.921,1.091 -7.9481,0.991 -7.9812,0.521 L 2.0000004e-6,458.35"
         fill="#fcff5c"
         fill-opacity="0.68235"
         id="path217" />
      <path
         transform="matrix(0.28287,0,0,0.28287,84.739,9.0018)"
         d="m 0,458.35 -7.9945,-0.343 -7.9812,-0.521 -7.9481,-0.991 -7.921,-1.091 -7.8683,-1.479 -7.8141,-1.732 -7.7396,-2.079 -7.6788,-2.231 -7.5935,-2.515 -7.4911,-2.835 -7.3765,-3.152 -7.2944,-3.255 -7.1586,-3.584 -7.0433,-3.777 -6.921,-3.965 -6.752,-4.3 -6.607,-4.5 -6.47,-4.657 -6.289,-4.921 -6.104,-5.161 -5.989,-5.195 -5.735,-5.57 -5.534,-5.775 -5.428,-5.741 -5.237,-5.901 -4.92,-6.3 -4.851,-6.167 -4.554,-6.481 -4.336,-6.615 -4.183,-6.623 -3.941,-6.78 -3.724,-6.878 -3.471,-7.02 -3.288,-7.041 -2.996,-7.216 -2.773,-7.272 -2.54,-7.337 -2.374,-7.303 -2.039,-7.477 -1.885,-7.417 -1.644,-7.455 -1.296,-7.604 -1.182,-7.483 -1.004,-7.431 -0.664,-7.543 -0.557,-7.41 -0.298,-7.424 -0.039,-7.431 0.223,-7.429 0.275,-7.244 0.638,-7.319 0.822,-7.236 1.034,-7.173 1.181,-7.058 1.436,-7.02 1.513,-6.852 1.813,-6.835 1.965,-6.714 1.996,-6.521 2.341,-6.515 2.431,-6.354 2.5,-6.185 2.735,-6.105 2.918,-5.991 3.008,-5.8316 3.023,-5.6396 3.335,-5.5807 3.486,-5.4437 3.305,-5.1772 3.554,-5.084 3.616,-4.9182 3.71,-4.7647 3.671,-4.5699 3.924,-4.4666 3.817,-4.2572 3.855,-4.0944 3.946,-3.9458 4.051,-3.7993 4.114,-3.6426 4.039,-3.4615 4.054,-3.3021 3.91,-3.1226 4.032,-2.9861 3.996,-2.829 4.012,-2.6809 3.889,-2.5242 3.937,-2.385 3.904,-2.2421 3.865,-2.1026 3.766,-1.9664 3.819,-1.834 3.653,-1.7075 3.6796,-1.5806 3.6252,-1.4588 3.5481,-1.3423 3.5265,-1.2247 3.3858,-1.1231 3.3975,-1.0079 3.3099,-0.9077 3.2202,-0.8128 3.1859,-0.7117 3.0921,-0.6248 3.0915,-0.5213 2.9369,-0.4557 2.8759,-0.3731 2.8319,-0.2883 2.6743,-0.2401 2.6648,-0.1518 2.5612,-0.0957 2.4934,-0.0315 2.3883,0.0153 2.3372,0.0788 2.2669,0.1322 2.1602,0.1664 2.0715,0.2037 2.0177,0.2537 1.8764,0.2571 1.8571,0.3176 1.717,0.3112 1.7139,0.3762 1.6254,0.391 1.5542,0.4121 1.5322,0.4618 1.4121,0.4455 1.3901,0.4906 1.2722,0.4662 1.2192,0.4832 1.1356,0.474 1.0839,0.4853 1.0327,0.4947 0.9376,0.46339 0.91776,0.49293 0.85424,0.48203 0.80617,0.48186 0.77263,0.49349 0.72564,0.48981 0.66622,0.46992 0.60849,0.44744 0.57811,0.45183 0.53549,0.44016 0.494,0.42671 0.45367,0.41152 0.41457,0.39466 0.38823,0.39192 0.34003,0.35625 0.30493,0.33462 0.28189,0.32786 0.24915,0.30367 0.21792,0.27811 0.19801,0.26808 0.21662,0.32552 0.10422,0.1431 0.12556,0.19844 0.11842,0.20242 0.094697,0.17087 0.017222,0.01358 0.047148,0.085814 0.007546,-0.003126 0.0076,-0.002994 0.007651,-0.00286 -0.004998,-0.039602 0.008391,-0.002808 0.00844,-0.002661 -0.002266,-0.040002 0.009183,-0.002547 0.009226,-0.002385 0.009266,-0.002225 0.005249,-0.021136 0.005951,-0.02111 0.003267,-0.040268 0.010741,-0.001798 0.0080572,-0.02092 0.011135,-0.001465 0.011159,-0.001272 0.0094798,-0.020502 0.010176,-0.02036 0.01189,-7.28e-4 0.01122,-0.020007 0.012248,-3.21e-4 0.012252,-1.07e-4 v 0 l 0.012252,1.07e-4 0.012248,3.21e-4 0.01122,0.020007 0.01189,7.28e-4 0.010176,0.02036 0.0094798,0.020502 0.011159,0.001272 0.011135,0.001465 0.0080572,0.02092 0.010741,0.001798 0.003267,0.040268 0.005951,0.02111 0.005249,0.021136 0.009266,0.002225 0.009226,0.002385 0.009183,0.002547 -0.002266,0.040002 0.00844,0.002661 0.008391,0.002808 -0.004998,0.039602 0.007651,0.00286 0.0076,0.002994 0.007546,0.003126 0.047148,-0.085814 0.017222,-0.01358 0.094697,-0.17087 0.11842,-0.20242 0.12556,-0.19844 0.10422,-0.1431 0.21662,-0.32552 0.19801,-0.26808 0.21792,-0.27811 0.24915,-0.30367 0.28189,-0.32786 0.30493,-0.33462 0.34003,-0.35625 0.38823,-0.39192 0.41457,-0.39466 0.45367,-0.41152 0.494,-0.42671 0.53549,-0.44016 0.57811,-0.45183 0.60849,-0.44744 0.66622,-0.46992 0.72564,-0.48981 0.77263,-0.49349 0.80617,-0.48186 0.85424,-0.48203 0.91776,-0.49293 0.9376,-0.46339 1.0327,-0.4947 1.0839,-0.4853 1.1356,-0.474 1.2192,-0.4832 1.2722,-0.4662 1.3901,-0.4906 1.4121,-0.4455 1.5322,-0.4618 1.5542,-0.4121 1.6254,-0.391 1.7139,-0.3762 1.717,-0.3112 1.8571,-0.3176 1.8764,-0.2571 2.0177,-0.2537 2.0715,-0.2037 2.1602,-0.1664 2.2669,-0.1322 2.3372,-0.0788 2.3883,-0.0153 2.4934,0.0315 2.5612,0.0957 2.6648,0.1518 2.6743,0.2401 2.8319,0.2883 2.8759,0.3731 2.9369,0.4557 3.0915,0.5213 3.0921,0.6248 3.1859,0.7117 3.2202,0.8128 3.3099,0.9077 3.3975,1.0079 3.3858,1.1231 3.5265,1.2247 3.5481,1.3423 3.6252,1.4588 3.679598,1.5806 3.653,1.7075 3.819,1.834 3.766,1.9664 3.865,2.1026 3.904,2.2421 3.937,2.385 3.889,2.5242 4.012,2.6809 3.996,2.829 4.032,2.9861 3.91,3.1226 4.054,3.3021 4.039,3.4615 4.114,3.6426 4.051,3.7993 3.946,3.9458 3.855,4.0944 3.817,4.2572 3.924,4.4666 3.671,4.5699 3.71,4.7647 3.616,4.9182 3.554,5.084 3.305,5.1772 3.486,5.4437 3.335,5.5807 3.023,5.6396 3.008,5.8316 2.918,5.991 2.735,6.105 2.5,6.185 2.431,6.354 2.341,6.515 1.996,6.521 1.965,6.714 1.813,6.835 1.513,6.852 1.436,7.02 1.181,7.058 1.034,7.173 0.822,7.236 0.638,7.319 0.275,7.244 0.223,7.429 -0.039,7.431 -0.298,7.424 -0.557,7.41 -0.664,7.543 -1.004,7.431 -1.182,7.483 -1.296,7.604 -1.644,7.455 -1.885,7.417 -2.039,7.477 -2.374,7.303 -2.54,7.337 -2.773,7.272 -2.996,7.216 -3.288,7.041 -3.471,7.02 -3.724,6.878 -3.941,6.78 -4.183,6.623 -4.336,6.615 -4.554,6.481 -4.851,6.167 -4.92,6.3 -5.237,5.901 -5.428,5.741 -5.534,5.775 -5.735,5.57 -5.989,5.195 -6.104,5.161 -6.289,4.921 -6.47,4.657 -6.607,4.5 -6.752,4.3 -6.921,3.965 -7.043298,3.777 -7.1586,3.584 -7.2944,3.255 -7.3765,3.152 -7.4911,2.835 -7.5935,2.515 -7.6788,2.231 -7.7396,2.079 -7.8141,1.732 -7.8683,1.479 -7.921,1.091 -7.9481,0.991 -7.9812,0.521 L 2.0000004e-6,458.35"
         fill="none"
         stroke="#fcff5c"
         stroke-linecap="round"
         stroke-linejoin="round"
         stroke-width="3.7428"
         id="path221" />
    </g>
    <g
       transform="translate(0,-51.241)"
       fill="#848484"
       font-family="Lato"
       stroke-linejoin="round"
       id="g245">
      <g
         font-size="14.937px"
         stroke-width="1.2448"
         id="g239">
        <g
           aria-label="90°"
           transform="matrix(0.28341,0,0,0.28341,23.833,82.59)"
           id="text227">
          <path
             d="m 476.10021,2.1085219 q -0.60495,0 -1.15015,-0.2016495 -0.53773,-0.2016495 -0.9485,-0.5900115 -0.41077,-0.3958305 -0.65723,-0.96343651 -0.23899,-0.57507451 -0.23899,-1.31445603 0,-0.70203906 0.2614,-1.31445606 0.26139,-0.612417 0.73191,-1.0679955 0.47051,-0.4555785 1.12027,-0.716976 0.64976,-0.2613975 1.42649,-0.2613975 0.76925,0 1.39661,0.253929 0.62735,0.253929 1.07546,0.7095075 0.44811,0.4555785 0.6871,1.090401 0.24646,0.6348226 0.24646,1.40407806 0,0.46304701 -0.0896,0.88128302 -0.0821,0.41076751 -0.24646,0.80659802 -0.16431,0.3958305 -0.39583,0.791661 -0.22405,0.388362 -0.51533,0.806598 l -2.6065,3.7641241 q -0.0971,0.1419015 -0.27634,0.2315235 Q 475.74172,6.5 475.5102,6.5 h -1.22484 l 3.25627,-4.2645136 q 0.1643,-0.2165865 0.30621,-0.4107675 0.1419,-0.194181 0.26886,-0.388362 -0.41077,0.328614 -0.92609,0.5003895 -0.51533,0.1717755 -1.0904,0.1717755 z m 2.67372,-3.1293015 q 0,-0.5003895 -0.16431,-0.9036886 -0.15684,-0.4107675 -0.44064,-0.6945705 -0.2838,-0.283803 -0.67963,-0.433173 -0.38836,-0.1568385 -0.85888,-0.1568385 -0.49292,0 -0.90369,0.164307 -0.4033,0.1568385 -0.69457,0.4406415 -0.2838,0.283803 -0.44064,0.6796335 -0.15684,0.3958306 -0.15684,0.8663461 0,0.50785797 0.1419,0.91115698 0.14937,0.39583051 0.41824,0.67216501 0.27633,0.27633451 0.6647,0.41823601 0.39583,0.1419015 0.88128,0.1419015 0.53773,0 0.9485,-0.1717755 0.41823,-0.17924401 0.70204,-0.47051551 0.2838,-0.29127151 0.43317,-0.67216501 0.14937,-0.38089351 0.14937,-0.79166098 z"
             id="path2574" />
          <path
             d="m 488.87881,1.1525539 q 0,1.404078 -0.30621,2.434731 -0.29874,1.0231846 -0.82153,1.6953496 -0.5228,0.672165 -1.23978,1.000779 -0.7095,0.328614 -1.52357,0.328614 -0.82153,0 -1.53104,-0.328614 -0.70204,-0.328614 -1.22484,-1.000779 -0.52279,-0.672165 -0.82153,-1.6953496 -0.29874,-1.030653 -0.29874,-2.434731 0,-1.40407802 0.29874,-2.434731 0.29874,-1.0306531 0.82153,-1.7028181 0.5228,-0.6796335 1.22484,-1.0082475 0.70951,-0.328614 1.53104,-0.328614 0.81407,0 1.52357,0.328614 0.71698,0.328614 1.23978,1.0082475 0.52279,0.672165 0.82153,1.7028181 0.30621,1.03065298 0.30621,2.434731 z m -1.38167,0 q 0,-1.22483402 -0.20912,-2.05383754 -0.20165,-0.83647206 -0.55267,-1.34433006 -0.34355,-0.507858 -0.79913,-0.7244445 -0.45558,-0.224055 -0.9485,-0.224055 -0.49292,0 -0.9485,0.224055 -0.45558,0.2165865 -0.79913,0.7244445 -0.34355,0.507858 -0.55267,1.34433006 -0.20165,0.82900352 -0.20165,2.05383754 0,1.224834 0.20165,2.0538375 0.20912,0.8290036 0.55267,1.3368616 0.34355,0.507858 0.79913,0.731913 0.45558,0.2165865 0.9485,0.2165865 0.49292,0 0.9485,-0.2165865 0.45558,-0.224055 0.79913,-0.731913 0.35102,-0.507858 0.55267,-1.3368616 0.20912,-0.8290035 0.20912,-2.0538375 z"
             id="path2576" />
          <path
             d="m 489.84971,-1.9244682 q 0,-0.5003895 0.18672,-0.941031 0.18671,-0.4406415 0.51532,-0.761787 0.32862,-0.328614 0.76926,-0.5153265 0.44811,-0.1867125 0.96343,-0.1867125 0.51533,0 0.95597,0.1867125 0.44811,0.1867125 0.77673,0.5153265 0.32861,0.3211455 0.51532,0.761787 0.18671,0.4406415 0.18671,0.941031 0,0.4929211 -0.18671,0.93356256 -0.18671,0.43317301 -0.51532,0.76178702 -0.32862,0.3211455 -0.77673,0.51532651 -0.44064,0.1867125 -0.95597,0.1867125 -0.51532,0 -0.96343,-0.1867125 -0.44064,-0.19418101 -0.76926,-0.51532651 -0.32861,-0.32861401 -0.51532,-0.76178702 -0.18672,-0.44064146 -0.18672,-0.93356256 z m 0.9485,0.00747 q 0,0.3136771 0.11203,0.5900116 0.11203,0.268866 0.31368,0.47051546 0.20165,0.20164951 0.47051,0.32114551 0.27634,0.1120275 0.59001,0.1120275 0.31368,0 0.58255,-0.1120275 0.26886,-0.119496 0.47051,-0.32114551 0.20165,-0.20164946 0.31368,-0.47051546 0.11203,-0.2763345 0.11203,-0.5900116 0,-0.313677 -0.11203,-0.5900115 -0.11203,-0.2763345 -0.31368,-0.477984 -0.20165,-0.209118 -0.47051,-0.3211455 -0.26887,-0.119496 -0.58255,-0.119496 -0.31367,0 -0.59001,0.119496 -0.26886,0.1120275 -0.47051,0.3211455 -0.20165,0.2016495 -0.31368,0.477984 -0.11203,0.2763345 -0.11203,0.5900115 z"
             id="path2578" />
        </g>
        <g
           aria-label="90°"
           transform="matrix(0.28341,0,0,0.28341,145.55,82.59)"
           id="text229">
          <path
             d="m -491.89979,2.1085219 q -0.60495,0 -1.15015,-0.2016495 -0.53773,-0.2016495 -0.9485,-0.5900115 -0.41077,-0.3958305 -0.65723,-0.96343651 -0.23899,-0.57507451 -0.23899,-1.31445603 0,-0.70203906 0.2614,-1.31445606 0.26139,-0.612417 0.73191,-1.0679955 0.47051,-0.4555785 1.12027,-0.716976 0.64976,-0.2613975 1.42649,-0.2613975 0.76925,0 1.39661,0.253929 0.62735,0.253929 1.07546,0.7095075 0.44811,0.4555785 0.6871,1.090401 0.24646,0.6348226 0.24646,1.40407806 0,0.46304701 -0.0896,0.88128302 -0.0821,0.41076751 -0.24646,0.80659802 -0.16431,0.3958305 -0.39583,0.791661 -0.22405,0.388362 -0.51533,0.806598 l -2.6065,3.7641241 q -0.0971,0.1419015 -0.27634,0.2315235 Q -492.25828,6.5 -492.4898,6.5 h -1.22484 l 3.25627,-4.2645136 q 0.1643,-0.2165865 0.30621,-0.4107675 0.1419,-0.194181 0.26886,-0.388362 -0.41077,0.328614 -0.92609,0.5003895 -0.51533,0.1717755 -1.0904,0.1717755 z m 2.67372,-3.1293015 q 0,-0.5003895 -0.16431,-0.9036886 -0.15684,-0.4107675 -0.44064,-0.6945705 -0.2838,-0.283803 -0.67963,-0.433173 -0.38836,-0.1568385 -0.85888,-0.1568385 -0.49292,0 -0.90369,0.164307 -0.4033,0.1568385 -0.69457,0.4406415 -0.2838,0.283803 -0.44064,0.6796335 -0.15684,0.3958306 -0.15684,0.8663461 0,0.50785797 0.1419,0.91115698 0.14937,0.39583051 0.41824,0.67216501 0.27633,0.27633451 0.6647,0.41823601 0.39583,0.1419015 0.88128,0.1419015 0.53773,0 0.9485,-0.1717755 0.41823,-0.17924401 0.70204,-0.47051551 0.2838,-0.29127151 0.43317,-0.67216501 0.14937,-0.38089351 0.14937,-0.79166098 z"
             id="path2567" />
          <path
             d="m -479.12119,1.1525539 q 0,1.404078 -0.30621,2.434731 -0.29874,1.0231846 -0.82153,1.6953496 -0.5228,0.672165 -1.23978,1.000779 -0.7095,0.328614 -1.52357,0.328614 -0.82153,0 -1.53104,-0.328614 -0.70204,-0.328614 -1.22484,-1.000779 -0.52279,-0.672165 -0.82153,-1.6953496 -0.29874,-1.030653 -0.29874,-2.434731 0,-1.40407802 0.29874,-2.434731 0.29874,-1.0306531 0.82153,-1.7028181 0.5228,-0.6796335 1.22484,-1.0082475 0.70951,-0.328614 1.53104,-0.328614 0.81407,0 1.52357,0.328614 0.71698,0.328614 1.23978,1.0082475 0.52279,0.672165 0.82153,1.7028181 0.30621,1.03065298 0.30621,2.434731 z m -1.38167,0 q 0,-1.22483402 -0.20912,-2.05383754 -0.20165,-0.83647206 -0.55267,-1.34433006 -0.34355,-0.507858 -0.79913,-0.7244445 -0.45558,-0.224055 -0.9485,-0.224055 -0.49292,0 -0.9485,0.224055 -0.45558,0.2165865 -0.79913,0.7244445 -0.34355,0.507858 -0.55267,1.34433006 -0.20165,0.82900352 -0.20165,2.05383754 0,1.224834 0.20165,2.0538375 0.20912,0.8290036 0.55267,1.3368616 0.34355,0.507858 0.79913,0.731913 0.45558,0.2165865 0.9485,0.2165865 0.49292,0 0.9485,-0.2165865 0.45558,-0.224055 0.79913,-0.731913 0.35102,-0.507858 0.55267,-1.3368616 0.20912,-0.8290035 0.20912,-2.0538375 z"
             id="path2569" />
          <path
             d="m -478.15029,-1.9244682 q 0,-0.5003895 0.18672,-0.941031 0.18671,-0.4406415 0.51532,-0.761787 0.32862,-0.328614 0.76926,-0.5153265 0.44811,-0.1867125 0.96343,-0.1867125 0.51533,0 0.95597,0.1867125 0.44811,0.1867125 0.77673,0.5153265 0.32861,0.3211455 0.51532,0.761787 0.18671,0.4406415 0.18671,0.941031 0,0.4929211 -0.18671,0.93356256 -0.18671,0.43317301 -0.51532,0.76178702 -0.32862,0.3211455 -0.77673,0.51532651 -0.44064,0.1867125 -0.95597,0.1867125 -0.51532,0 -0.96343,-0.1867125 -0.44064,-0.19418101 -0.76926,-0.51532651 -0.32861,-0.32861401 -0.51532,-0.76178702 -0.18672,-0.44064146 -0.18672,-0.93356256 z m 0.9485,0.00747 q 0,0.3136771 0.11203,0.5900116 0.11203,0.268866 0.31368,0.47051546 0.20165,0.20164951 0.47051,0.32114551 0.27634,0.1120275 0.59001,0.1120275 0.31368,0 0.58255,-0.1120275 0.26886,-0.119496 0.47051,-0.32114551 0.20165,-0.20164946 0.31368,-0.47051546 0.11203,-0.2763345 0.11203,-0.5900116 0,-0.313677 -0.11203,-0.5900115 -0.11203,-0.2763345 -0.31368,-0.477984 -0.20165,-0.209118 -0.47051,-0.3211455 -0.26887,-0.119496 -0.58255,-0.119496 -0.31367,0 -0.59001,0.119496 -0.26886,0.1120275 -0.47051,0.3211455 -0.20165,0.2016495 -0.31368,0.477984 -0.11203,0.2763345 -0.11203,0.5900115 z"
             id="path2571" />
        </g>
        <g
           aria-label=" 30°"
           transform="matrix(0.28341,0,0,0.28341,83.593,81.449)"
           id="text231">
          <path
             d="m 241.49732,410.47514 q 0.67963,0 1.2547,0.19418 0.57508,0.19418 0.98585,0.55267 0.41823,0.35849 0.64976,0.86635 0.23152,0.50785 0.23152,1.12774 0,0.50786 -0.13443,0.91116 -0.12697,0.39583 -0.37343,0.70204 -0.23899,0.29874 -0.58254,0.50785 -0.34355,0.20912 -0.76926,0.33609 1.04559,0.27633 1.56839,0.92609 0.53026,0.64976 0.53026,1.62813 0,0.73939 -0.2838,1.3294 -0.27634,0.59001 -0.76179,1.00824 -0.48545,0.41077 -1.13521,0.63483 -0.64229,0.21658 -1.38167,0.21658 -0.85141,0 -1.45636,-0.20911 -0.60495,-0.21659 -1.02319,-0.59002 -0.41823,-0.37342 -0.6871,-0.88128 -0.26886,-0.51533 -0.45558,-1.11281 l 0.56761,-0.23899 q 0.15684,-0.0672 0.31368,-0.0672 0.14937,0 0.26139,0.0672 0.1195,0.0598 0.17925,0.19418 0.0149,0.0299 0.0299,0.0672 0.0149,0.0299 0.0299,0.0672 0.10456,0.21658 0.25393,0.49292 0.14937,0.26886 0.40329,0.50786 0.25393,0.23899 0.62736,0.40329 0.38089,0.16431 0.94103,0.16431 0.56014,0 0.97837,-0.17924 0.42571,-0.18672 0.70204,-0.47799 0.28381,-0.29127 0.42571,-0.64976 0.1419,-0.35848 0.1419,-0.7095 0,-0.43318 -0.1195,-0.79167 -0.11203,-0.35848 -0.41823,-0.61988 -0.29874,-0.2614 -0.83648,-0.41077 -0.53026,-0.14937 -1.36673,-0.14937 v -0.96343 q 0.67963,-0.007 1.15762,-0.14937 0.48545,-0.14191 0.79166,-0.38837 0.30621,-0.24646 0.44064,-0.59001 0.1419,-0.34355 0.1419,-0.76179 0,-0.46304 -0.14937,-0.80659 -0.1419,-0.34355 -0.39583,-0.56761 -0.25393,-0.22405 -0.60495,-0.33608 -0.34355,-0.11203 -0.74685,-0.11203 -0.4033,0 -0.74685,0.1195 -0.34355,0.11949 -0.61242,0.33608 -0.26139,0.20912 -0.44064,0.50786 -0.17924,0.29127 -0.26886,0.63482 -0.0598,0.21659 -0.17925,0.31368 -0.11949,0.0971 -0.30621,0.0971 -0.0373,0 -0.0822,0 -0.0373,-0.007 -0.0896,-0.0149 l -0.69457,-0.1195 q 0.10456,-0.73191 0.4033,-1.29205 0.29874,-0.5676 0.75432,-0.9485 0.46304,-0.38089 1.05305,-0.57507 0.59748,-0.20165 1.28459,-0.20165 z"
             id="path2560" />
          <path
             d="m 253.74566,415.94955 q 0,1.40408 -0.30621,2.43473 -0.29874,1.02319 -0.82154,1.69535 -0.52279,0.67217 -1.23977,1.00078 -0.70951,0.32861 -1.52357,0.32861 -0.82154,0 -1.53105,-0.32861 -0.70204,-0.32861 -1.22483,-1.00078 -0.5228,-0.67216 -0.82154,-1.69535 -0.29874,-1.03065 -0.29874,-2.43473 0,-1.40408 0.29874,-2.43473 0.29874,-1.03065 0.82154,-1.70282 0.52279,-0.67963 1.22483,-1.00825 0.70951,-0.32861 1.53105,-0.32861 0.81406,0 1.52357,0.32861 0.71698,0.32862 1.23977,1.00825 0.5228,0.67217 0.82154,1.70282 0.30621,1.03065 0.30621,2.43473 z m -1.38168,0 q 0,-1.22483 -0.20912,-2.05384 -0.20164,-0.83647 -0.55266,-1.34433 -0.34356,-0.50785 -0.79913,-0.72444 -0.45558,-0.22406 -0.9485,-0.22406 -0.49292,0 -0.9485,0.22406 -0.45558,0.21659 -0.79913,0.72444 -0.34355,0.50786 -0.55267,1.34433 -0.20165,0.82901 -0.20165,2.05384 0,1.22483 0.20165,2.05384 0.20912,0.829 0.55267,1.33686 0.34355,0.50786 0.79913,0.73191 0.45558,0.21659 0.9485,0.21659 0.49292,0 0.9485,-0.21659 0.45557,-0.22405 0.79913,-0.73191 0.35102,-0.50786 0.55266,-1.33686 0.20912,-0.82901 0.20912,-2.05384 z"
             id="path2562" />
          <path
             d="m 254.71656,412.87253 q 0,-0.50039 0.18671,-0.94103 0.18671,-0.44064 0.51533,-0.76179 0.32861,-0.32861 0.76925,-0.51533 0.44811,-0.18671 0.96344,-0.18671 0.51533,0 0.95597,0.18671 0.44811,0.18672 0.77672,0.51533 0.32862,0.32115 0.51533,0.76179 0.18671,0.44064 0.18671,0.94103 0,0.49292 -0.18671,0.93356 -0.18671,0.43317 -0.51533,0.76179 -0.32861,0.32114 -0.77672,0.51532 -0.44064,0.18672 -0.95597,0.18672 -0.51533,0 -0.96344,-0.18672 -0.44064,-0.19418 -0.76925,-0.51532 -0.32862,-0.32862 -0.51533,-0.76179 -0.18671,-0.44064 -0.18671,-0.93356 z m 0.9485,0.007 q 0,0.31367 0.11203,0.59001 0.11202,0.26886 0.31367,0.47051 0.20165,0.20165 0.47052,0.32115 0.27633,0.11203 0.59001,0.11203 0.31368,0 0.58254,-0.11203 0.26887,-0.1195 0.47052,-0.32115 0.20165,-0.20165 0.31368,-0.47051 0.11202,-0.27634 0.11202,-0.59001 0,-0.31368 -0.11202,-0.59001 -0.11203,-0.27634 -0.31368,-0.47799 -0.20165,-0.20912 -0.47052,-0.32114 -0.26886,-0.1195 -0.58254,-0.1195 -0.31368,0 -0.59001,0.1195 -0.26887,0.11202 -0.47052,0.32114 -0.20165,0.20165 -0.31367,0.47799 -0.11203,0.27633 -0.11203,0.59001 z"
             id="path2564" />
        </g>
        <g
           aria-label=" 60°"
           transform="matrix(0.28341,0,0,0.28341,41.92,55.913)"
           id="text233">
          <path
             d="m 413.03437,243.44266 q 0.6423,0 1.21737,0.21658 0.57507,0.20912 1.00825,0.61989 0.43317,0.4033 0.6871,1.00078 0.25393,0.59001 0.25393,1.3518 0,0.73938 -0.26887,1.3742 -0.26886,0.63482 -0.75432,1.10534 -0.47798,0.47051 -1.15761,0.73938 -0.67964,0.26887 -1.4937,0.26887 -0.8066,0 -1.46383,-0.25393 -0.64976,-0.2614 -1.11281,-0.73192 -0.46304,-0.47798 -0.71697,-1.15015 -0.24646,-0.67963 -0.24646,-1.5161 0,-0.70204 0.31367,-1.4937 0.31368,-0.79166 0.99332,-1.70282 l 2.71106,-3.6521 q 0.10456,-0.13443 0.29127,-0.22405 0.18671,-0.0971 0.42571,-0.0971 h 1.18002 l -3.71184,4.69769 q 0.38089,-0.2614 0.84394,-0.4033 0.46304,-0.14937 1.00077,-0.14937 z m -2.76334,3.25626 q 0,0.51533 0.14937,0.94103 0.14937,0.42571 0.43317,0.73192 0.29127,0.30621 0.70204,0.47798 0.41824,0.16431 0.9485,0.16431 0.53773,0 0.97091,-0.17178 0.43317,-0.17177 0.73938,-0.47798 0.31367,-0.30621 0.47798,-0.72445 0.17178,-0.41823 0.17178,-0.91115 0,-0.5228 -0.16431,-0.94103 -0.16431,-0.42571 -0.46305,-0.71698 -0.29874,-0.29874 -0.71697,-0.45558 -0.41824,-0.15684 -0.91863,-0.15684 -0.53773,0 -0.9709,0.18672 -0.43318,0.17924 -0.73938,0.49292 -0.29874,0.3062 -0.46305,0.71697 -0.15684,0.4033 -0.15684,0.84394 z"
             id="path2546" />
          <path
             d="m 425.05866,244.65255 q 0,1.40408 -0.30621,2.43473 -0.29874,1.02319 -0.82153,1.69535 -0.5228,0.67217 -1.23978,1.00078 -0.7095,0.32862 -1.52357,0.32862 -0.82153,0 -1.53104,-0.32862 -0.70204,-0.32861 -1.22484,-1.00078 -0.52279,-0.67216 -0.82153,-1.69535 -0.29874,-1.03065 -0.29874,-2.43473 0,-1.40407 0.29874,-2.43473 0.29874,-1.03065 0.82153,-1.70282 0.5228,-0.67963 1.22484,-1.00824 0.70951,-0.32862 1.53104,-0.32862 0.81407,0 1.52357,0.32862 0.71698,0.32861 1.23978,1.00824 0.52279,0.67217 0.82153,1.70282 0.30621,1.03066 0.30621,2.43473 z m -1.38167,0 q 0,-1.22483 -0.20912,-2.05383 -0.20165,-0.83648 -0.55267,-1.34433 -0.34355,-0.50786 -0.79913,-0.72445 -0.45558,-0.22405 -0.9485,-0.22405 -0.49292,0 -0.9485,0.22405 -0.45558,0.21659 -0.79913,0.72445 -0.34355,0.50785 -0.55267,1.34433 -0.20165,0.829 -0.20165,2.05383 0,1.22484 0.20165,2.05384 0.20912,0.829 0.55267,1.33686 0.34355,0.50786 0.79913,0.73192 0.45558,0.21658 0.9485,0.21658 0.49292,0 0.9485,-0.21658 0.45558,-0.22406 0.79913,-0.73192 0.35102,-0.50786 0.55267,-1.33686 0.20912,-0.829 0.20912,-2.05384 z"
             id="path2548" />
          <path
             d="m 426.02956,241.57553 q 0,-0.50039 0.18671,-0.94103 0.18672,-0.44064 0.51533,-0.76179 0.32862,-0.32861 0.76926,-0.51532 0.44811,-0.18672 0.96343,-0.18672 0.51533,0 0.95597,0.18672 0.44811,0.18671 0.77673,0.51532 0.32861,0.32115 0.51532,0.76179 0.18671,0.44064 0.18671,0.94103 0,0.49292 -0.18671,0.93356 -0.18671,0.43318 -0.51532,0.76179 -0.32862,0.32115 -0.77673,0.51533 -0.44064,0.18671 -0.95597,0.18671 -0.51532,0 -0.96343,-0.18671 -0.44064,-0.19418 -0.76926,-0.51533 -0.32861,-0.32861 -0.51533,-0.76179 -0.18671,-0.44064 -0.18671,-0.93356 z m 0.9485,0.007 q 0,0.31368 0.11203,0.59001 0.11203,0.26887 0.31368,0.47052 0.20165,0.20165 0.47051,0.32114 0.27634,0.11203 0.59001,0.11203 0.31368,0 0.58255,-0.11203 0.26886,-0.11949 0.47051,-0.32114 0.20165,-0.20165 0.31368,-0.47052 0.11203,-0.27633 0.11203,-0.59001 0,-0.31368 -0.11203,-0.59001 -0.11203,-0.27634 -0.31368,-0.47799 -0.20165,-0.20911 -0.47051,-0.32114 -0.26887,-0.1195 -0.58255,-0.1195 -0.31367,0 -0.59001,0.1195 -0.26886,0.11203 -0.47051,0.32114 -0.20165,0.20165 -0.31368,0.47799 -0.11203,0.27633 -0.11203,0.59001 z"
             id="path2550" />
        </g>
        <g
           aria-label="30° "
           transform="matrix(0.28341,0,0,0.28341,85.908,81.449)"
           id="text235">
          <path
             d="m -256.35354,410.47514 q 0.67963,0 1.25471,0.19418 0.57507,0.19418 0.98584,0.55267 0.41824,0.35849 0.64976,0.86635 0.23152,0.50785 0.23152,1.12774 0,0.50786 -0.13443,0.91116 -0.12696,0.39583 -0.37342,0.70204 -0.239,0.29874 -0.58255,0.50785 -0.34355,0.20912 -0.76925,0.33609 1.04559,0.27633 1.56838,0.92609 0.53027,0.64976 0.53027,1.62813 0,0.73939 -0.28381,1.3294 -0.27633,0.59001 -0.76178,1.00824 -0.48546,0.41077 -1.13522,0.63483 -0.64229,0.21658 -1.38167,0.21658 -0.85141,0 -1.45636,-0.20911 -0.60494,-0.21659 -1.02318,-0.59002 -0.41824,-0.37342 -0.6871,-0.88128 -0.26887,-0.51533 -0.45558,-1.11281 l 0.56761,-0.23899 q 0.15683,-0.0672 0.31367,-0.0672 0.14937,0 0.2614,0.0672 0.1195,0.0598 0.17924,0.19418 0.0149,0.0299 0.0299,0.0672 0.0149,0.0299 0.0299,0.0672 0.10456,0.21658 0.25393,0.49292 0.14937,0.26886 0.4033,0.50786 0.25393,0.23899 0.62735,0.40329 0.3809,0.16431 0.94103,0.16431 0.56014,0 0.97838,-0.17924 0.4257,-0.18672 0.70204,-0.47799 0.2838,-0.29127 0.4257,-0.64976 0.1419,-0.35848 0.1419,-0.7095 0,-0.43318 -0.11949,-0.79167 -0.11203,-0.35848 -0.41824,-0.61988 -0.29874,-0.2614 -0.83647,-0.41077 -0.53026,-0.14937 -1.36674,-0.14937 v -0.96343 q 0.67964,-0.007 1.15762,-0.14937 0.48545,-0.14191 0.79166,-0.38837 0.30621,-0.24646 0.44064,-0.59001 0.14191,-0.34355 0.14191,-0.76179 0,-0.46304 -0.14937,-0.80659 -0.14191,-0.34355 -0.39584,-0.56761 -0.25392,-0.22405 -0.60494,-0.33608 -0.34355,-0.11203 -0.74685,-0.11203 -0.4033,0 -0.74685,0.1195 -0.34355,0.11949 -0.61242,0.33608 -0.2614,0.20912 -0.44064,0.50786 -0.17925,0.29127 -0.26887,0.63482 -0.0598,0.21659 -0.17924,0.31368 -0.1195,0.0971 -0.30621,0.0971 -0.0373,0 -0.0822,0 -0.0374,-0.007 -0.0896,-0.0149 l -0.69457,-0.1195 q 0.10456,-0.73191 0.4033,-1.29205 0.29874,-0.5676 0.75432,-0.9485 0.46305,-0.38089 1.05306,-0.57507 0.59748,-0.20165 1.28458,-0.20165 z"
             id="path2553" />
          <path
             d="m -244.1052,415.94955 q 0,1.40408 -0.30621,2.43473 -0.29874,1.02319 -0.82153,1.69535 -0.5228,0.67217 -1.23977,1.00078 -0.70951,0.32861 -1.52358,0.32861 -0.82153,0 -1.53104,-0.32861 -0.70204,-0.32861 -1.22483,-1.00078 -0.5228,-0.67216 -0.82154,-1.69535 -0.29874,-1.03065 -0.29874,-2.43473 0,-1.40408 0.29874,-2.43473 0.29874,-1.03065 0.82154,-1.70282 0.52279,-0.67963 1.22483,-1.00825 0.70951,-0.32861 1.53104,-0.32861 0.81407,0 1.52358,0.32861 0.71697,0.32862 1.23977,1.00825 0.52279,0.67217 0.82153,1.70282 0.30621,1.03065 0.30621,2.43473 z m -1.38167,0 q 0,-1.22483 -0.20912,-2.05384 -0.20165,-0.83647 -0.55267,-1.34433 -0.34355,-0.50785 -0.79913,-0.72444 -0.45558,-0.22406 -0.9485,-0.22406 -0.49292,0 -0.9485,0.22406 -0.45558,0.21659 -0.79913,0.72444 -0.34355,0.50786 -0.55267,1.34433 -0.20165,0.82901 -0.20165,2.05384 0,1.22483 0.20165,2.05384 0.20912,0.829 0.55267,1.33686 0.34355,0.50786 0.79913,0.73191 0.45558,0.21659 0.9485,0.21659 0.49292,0 0.9485,-0.21659 0.45558,-0.22405 0.79913,-0.73191 0.35102,-0.50786 0.55267,-1.33686 0.20912,-0.82901 0.20912,-2.05384 z"
             id="path2555" />
          <path
             d="m -243.1343,412.87253 q 0,-0.50039 0.18672,-0.94103 0.18671,-0.44064 0.51532,-0.76179 0.32862,-0.32861 0.76926,-0.51533 0.44811,-0.18671 0.96343,-0.18671 0.51533,0 0.95597,0.18671 0.44811,0.18672 0.77673,0.51533 0.32861,0.32115 0.51532,0.76179 0.18672,0.44064 0.18672,0.94103 0,0.49292 -0.18672,0.93356 -0.18671,0.43317 -0.51532,0.76179 -0.32862,0.32114 -0.77673,0.51532 -0.44064,0.18672 -0.95597,0.18672 -0.51532,0 -0.96343,-0.18672 -0.44064,-0.19418 -0.76926,-0.51532 -0.32861,-0.32862 -0.51532,-0.76179 -0.18672,-0.44064 -0.18672,-0.93356 z m 0.9485,0.007 q 0,0.31367 0.11203,0.59001 0.11203,0.26886 0.31368,0.47051 0.20165,0.20165 0.47051,0.32115 0.27634,0.11203 0.59001,0.11203 0.31368,0 0.58255,-0.11203 0.26886,-0.1195 0.47051,-0.32115 0.20165,-0.20165 0.31368,-0.47051 0.11203,-0.27634 0.11203,-0.59001 0,-0.31368 -0.11203,-0.59001 -0.11203,-0.27634 -0.31368,-0.47799 -0.20165,-0.20912 -0.47051,-0.32114 -0.26887,-0.1195 -0.58255,-0.1195 -0.31367,0 -0.59001,0.1195 -0.26886,0.11202 -0.47051,0.32114 -0.20165,0.20165 -0.31368,0.47799 -0.11203,0.27633 -0.11203,0.59001 z"
             id="path2557" />
        </g>
        <g
           aria-label="60° "
           transform="matrix(0.28341,0,0,0.28341,127.58,55.913)"
           id="text237">
          <path
             d="m -427.44247,243.44266 q 0.64229,0 1.21736,0.21658 0.57508,0.20912 1.00825,0.61989 0.43317,0.4033 0.6871,1.00078 0.25393,0.59001 0.25393,1.3518 0,0.73938 -0.26886,1.3742 -0.26887,0.63482 -0.75432,1.10534 -0.47799,0.47051 -1.15762,0.73938 -0.67963,0.26887 -1.4937,0.26887 -0.8066,0 -1.46383,-0.25393 -0.64976,-0.2614 -1.1128,-0.73192 -0.46305,-0.47798 -0.71698,-1.15015 -0.24646,-0.67963 -0.24646,-1.5161 0,-0.70204 0.31368,-1.4937 0.31367,-0.79166 0.99331,-1.70282 l 2.71106,-3.6521 q 0.10456,-0.13443 0.29128,-0.22405 0.18671,-0.0971 0.4257,-0.0971 h 1.18002 l -3.71184,4.69769 q 0.38089,-0.2614 0.84394,-0.4033 0.46305,-0.14937 1.00078,-0.14937 z m -2.76335,3.25626 q 0,0.51533 0.14937,0.94103 0.14937,0.42571 0.43318,0.73192 0.29127,0.30621 0.70203,0.47798 0.41824,0.16431 0.9485,0.16431 0.53774,0 0.97091,-0.17178 0.43317,-0.17177 0.73938,-0.47798 0.31368,-0.30621 0.47799,-0.72445 0.17177,-0.41823 0.17177,-0.91115 0,-0.5228 -0.16431,-0.94103 -0.1643,-0.42571 -0.46304,-0.71698 -0.29874,-0.29874 -0.71698,-0.45558 -0.41824,-0.15684 -0.91862,-0.15684 -0.53774,0 -0.97091,0.18672 -0.43317,0.17924 -0.73938,0.49292 -0.29874,0.3062 -0.46305,0.71697 -0.15684,0.4033 -0.15684,0.84394 z"
             id="path2539" />
          <path
             d="m -415.41819,244.65255 q 0,1.40408 -0.30621,2.43473 -0.29874,1.02319 -0.82153,1.69535 -0.5228,0.67217 -1.23977,1.00078 -0.70951,0.32862 -1.52358,0.32862 -0.82153,0 -1.53104,-0.32862 -0.70204,-0.32861 -1.22483,-1.00078 -0.5228,-0.67216 -0.82154,-1.69535 -0.29874,-1.03065 -0.29874,-2.43473 0,-1.40407 0.29874,-2.43473 0.29874,-1.03065 0.82154,-1.70282 0.52279,-0.67963 1.22483,-1.00824 0.70951,-0.32862 1.53104,-0.32862 0.81407,0 1.52358,0.32862 0.71697,0.32861 1.23977,1.00824 0.52279,0.67217 0.82153,1.70282 0.30621,1.03066 0.30621,2.43473 z m -1.38167,0 q 0,-1.22483 -0.20912,-2.05383 -0.20165,-0.83648 -0.55267,-1.34433 -0.34355,-0.50786 -0.79913,-0.72445 -0.45558,-0.22405 -0.9485,-0.22405 -0.49292,0 -0.9485,0.22405 -0.45557,0.21659 -0.79913,0.72445 -0.34355,0.50785 -0.55266,1.34433 -0.20165,0.829 -0.20165,2.05383 0,1.22484 0.20165,2.05384 0.20911,0.829 0.55266,1.33686 0.34356,0.50786 0.79913,0.73192 0.45558,0.21658 0.9485,0.21658 0.49292,0 0.9485,-0.21658 0.45558,-0.22406 0.79913,-0.73192 0.35102,-0.50786 0.55267,-1.33686 0.20912,-0.829 0.20912,-2.05384 z"
             id="path2541" />
          <path
             d="m -414.44728,241.57553 q 0,-0.50039 0.18671,-0.94103 0.18671,-0.44064 0.51532,-0.76179 0.32862,-0.32861 0.76926,-0.51532 0.44811,-0.18672 0.96344,-0.18672 0.51532,0 0.95596,0.18672 0.44811,0.18671 0.77673,0.51532 0.32861,0.32115 0.51533,0.76179 0.18671,0.44064 0.18671,0.94103 0,0.49292 -0.18671,0.93356 -0.18672,0.43318 -0.51533,0.76179 -0.32862,0.32115 -0.77673,0.51533 -0.44064,0.18671 -0.95596,0.18671 -0.51533,0 -0.96344,-0.18671 -0.44064,-0.19418 -0.76926,-0.51533 -0.32861,-0.32861 -0.51532,-0.76179 -0.18671,-0.44064 -0.18671,-0.93356 z m 0.9485,0.007 q 0,0.31368 0.11202,0.59001 0.11203,0.26887 0.31368,0.47052 0.20165,0.20165 0.47052,0.32114 0.27633,0.11203 0.59001,0.11203 0.31367,0 0.58254,-0.11203 0.26887,-0.11949 0.47052,-0.32114 0.20164,-0.20165 0.31367,-0.47052 0.11203,-0.27633 0.11203,-0.59001 0,-0.31368 -0.11203,-0.59001 -0.11203,-0.27634 -0.31367,-0.47799 -0.20165,-0.20911 -0.47052,-0.32114 -0.26887,-0.1195 -0.58254,-0.1195 -0.31368,0 -0.59001,0.1195 -0.26887,0.11203 -0.47052,0.32114 -0.20165,0.20165 -0.31368,0.47799 -0.11202,0.27633 -0.11202,0.59001 z"
             id="path2543" />
        </g>
      </g>
      <g
         aria-label="0º"
         transform="matrix(0.28319,0,0,0.28319,-50.867,217.57)"
         id="text241"
         style="font-size:14.948px;stroke-width:1.6">
        <path
           d="m 480.2214,1.148616 q 0,1.405112 -0.30643,2.436524 -0.29896,1.023938 -0.82214,1.696598 -0.52318,0.67266 -1.24069,1.001516 -0.71003,0.328856 -1.52469,0.328856 -0.82214,0 -1.53217,-0.328856 -0.70256,-0.328856 -1.22574,-1.001516 -0.52318,-0.67266 -0.82214,-1.696598 -0.29896,-1.031412 -0.29896,-2.436524 0,-1.40511198 0.29896,-2.436524 0.29896,-1.031412 0.82214,-1.704072 0.52318,-0.680134 1.22574,-1.00899 0.71003,-0.328856 1.53217,-0.328856 0.81466,0 1.52469,0.328856 0.71751,0.328856 1.24069,1.00899 0.52318,0.67266 0.82214,1.704072 0.30643,1.03141202 0.30643,2.436524 z m -1.38269,0 q 0,-1.22573598 -0.20927,-2.05534998 -0.2018,-0.83708802 -0.55308,-1.34532002 -0.3438,-0.508232 -0.79972,-0.724978 -0.45591,-0.22422 -0.94919,-0.22422 -0.49329,0 -0.9492,0.22422 -0.45592,0.216746 -0.79972,0.724978 -0.3438,0.508232 -0.55308,1.34532002 -0.20179,0.829614 -0.20179,2.05534998 0,1.225736 0.20179,2.05535 0.20928,0.829614 0.55308,1.337846 0.3438,0.508232 0.79972,0.732452 0.45591,0.216746 0.9492,0.216746 0.49328,0 0.94919,-0.216746 0.45592,-0.22422 0.79972,-0.732452 0.35128,-0.508232 0.55308,-1.337846 0.20927,-0.829614 0.20927,-2.05535 z"
           id="path2521" />
        <path
           d="m 483.52491,-4.329826 q 0.52318,0 0.94172,0.164428 0.42602,0.156954 0.72498,0.455914 0.29896,0.29896 0.46339,0.732452 0.16442,0.426018 0.16442,0.956672 0,0.538128 -0.16442,0.97162 -0.16443,0.43349202 -0.46339,0.73992602 -0.29896,0.29896 -0.72498,0.463388 -0.41854,0.156954 -0.94172,0.156954 -0.53066,0 -0.95668,-0.156954 -0.42601,-0.164428 -0.73245,-0.463388 -0.29896,-0.306434 -0.46339,-0.73992602 -0.16442,-0.433492 -0.16442,-0.97162 0,-0.530654 0.16442,-0.956672 0.16443,-0.433492 0.46339,-0.732452 0.30644,-0.29896 0.73245,-0.455914 0.42602,-0.164428 0.95668,-0.164428 z m 0,3.84911002 q 0.62781,0 0.93425,-0.388648 0.3139,-0.39612202 0.3139,-1.14352202 0,-0.7474 -0.3139,-1.136048 -0.30644,-0.388648 -0.93425,-0.388648 -0.65024,0 -0.96415,0.388648 -0.30643,0.388648 -0.30643,1.136048 0,0.7474 0.30643,1.14352202 0.31391,0.388648 0.96415,0.388648 z"
           id="path2523" />
      </g>
      <g
         aria-label="cd.klm"
         transform="matrix(0.28319,0,0,0.28319,-54.958,222.31)"
         id="text243"
         style="font-size:14.948px;stroke-width:1.6">
        <path
           d="m 478.25574,0.27415802 q -0.0598,0.082214 -0.11959,0.127058 -0.0598,0.044844 -0.1719,0.044844 -0.11211,0 -0.24664,-0.089688 -0.12706,-0.097162 -0.32886,-0.209272 -0.20179,-0.11211 -0.49328,-0.201798 -0.28401,-0.097162 -0.70256,-0.097162 -0.55307,0 -0.97909,0.201798 -0.42602,0.194324 -0.7175,0.568024 -0.28402,0.3737 -0.4335,0.90435398 -0.142,0.530654 -0.142,1.188366 0,0.687608 0.15695,1.225736 0.15696,0.530654 0.44097,0.89688 0.28401,0.358752 0.68761,0.553076 0.41107,0.18685 0.9193,0.18685 0.48581,0 0.79972,-0.11211 0.3139,-0.119584 0.52318,-0.26159 0.20927,-0.142006 0.3438,-0.254116 0.13453,-0.119584 0.26906,-0.119584 0.17191,0 0.25412,0.127058 l 0.3737,0.48581 q -0.49328,0.605394 -1.23321,0.889406 -0.73993,0.276538 -1.56207,0.276538 -0.71003,0 -1.32289,-0.26159 -0.6054,-0.26159 -1.05384,-0.754874 -0.44844,-0.500758 -0.71003,-1.225736 -0.25411,-0.724978 -0.25411,-1.651754 0,-0.844562 0.23169,-1.562066 0.23917,-0.71750398 0.68761,-1.23320998 0.45591,-0.52318 1.1211,-0.814666 0.66518,-0.29148602 1.52469,-0.29148602 0.79225,0 1.40512,0.26159002 0.61286,0.254116 1.08373,0.724978 z"
           id="path2526" />
        <path
           d="m 485.4009,6.5 q -0.28402,0 -0.35876,-0.276538 L 484.92256,5.30416 q -0.48581,0.590446 -1.11363,0.949198 -0.62034,0.351278 -1.42753,0.351278 -0.65024,0 -1.18089,-0.246642 -0.53066,-0.254116 -0.90436,-0.739926 -0.3737,-0.48581 -0.57549,-1.210788 -0.2018,-0.724978 -0.2018,-1.666702 0,-0.837088 0.22422,-1.554592 0.22422,-0.72497798 0.64276,-1.25563198 0.42602,-0.530654 1.03141,-0.829614 0.6054,-0.30643402 1.37522,-0.30643402 0.69508,0 1.18837,0.23916802 0.49328,0.231694 0.88193,0.657712 V -4.509202 h 1.33037 V 6.5 Z m -2.57853,-0.97162 q 0.65023,0 1.13604,-0.29896 0.49329,-0.29896 0.90436,-0.844562 V 0.72259802 q -0.36623,-0.493284 -0.80719,-0.687608 -0.4335,-0.201798 -0.96415,-0.201798 -1.06131,0 -1.62933,0.754874 -0.56803,0.75487398 -0.56803,2.15251198 0,0.739926 0.12706,1.27058 0.12706,0.52318 0.3737,0.866984 0.24664,0.33633 0.6054,0.493284 0.35875,0.156954 0.82214,0.156954 z"
           id="path2528" />
        <path
           d="m 487.99437,5.67786 q 0,-0.194324 0.0673,-0.366226 0.0747,-0.171902 0.19432,-0.29896 0.12706,-0.127058 0.29896,-0.201798 0.17191,-0.07474 0.36623,-0.07474 0.19432,0 0.36623,0.07474 0.1719,0.07474 0.29896,0.201798 0.12705,0.127058 0.19432,0.29896 0.0747,0.171902 0.0747,0.366226 0,0.201798 -0.0747,0.3737 -0.0673,0.164428 -0.19432,0.291486 -0.12706,0.127058 -0.29896,0.194324 -0.17191,0.07474 -0.36623,0.07474 -0.19432,0 -0.36623,-0.07474 -0.1719,-0.067266 -0.29896,-0.194324 -0.11958,-0.127058 -0.19432,-0.291486 -0.0673,-0.171902 -0.0673,-0.3737 z"
           id="path2530" />
        <path
           d="m 492.97953,-4.509202 v 6.479958 h 0.34381 q 0.14948,0 0.24664,-0.03737 0.0972,-0.044844 0.21674,-0.171902 l 2.39168,-2.56358198 q 0.11211,-0.119584 0.22422,-0.194324 0.11211,-0.07474 0.29896,-0.07474 h 1.21079 l -2.7878,2.967178 q -0.10464,0.127058 -0.20927,0.22422 -0.0972,0.097162 -0.22422,0.171902 0.13453,0.089688 0.23917,0.209272 0.11211,0.11211 0.20927,0.26159 l 2.9597,3.737 h -1.19584 q -0.16443,0 -0.28401,-0.059792 -0.11211,-0.067266 -0.21675,-0.201798 L 493.91378,3.1367 q -0.11211,-0.156954 -0.22422,-0.201798 -0.11211,-0.052318 -0.33633,-0.052318 h -0.3737 V 6.5 h -1.33784 V -4.509202 Z"
           id="path2532" />
        <path
           d="M 500.90945,-4.509202 V 6.5 h -1.33037 V -4.509202 Z"
           id="path2534" />
        <path
           d="m 503.25629,6.5 v -7.571162 h 0.79224 q 0.28402,0 0.35876,0.27653802 l 0.0972,0.777296 q 0.41854,-0.515706 0.93425,-0.844562 0.52318,-0.32885602 1.21079,-0.32885602 0.76982,0 1.24068,0.42601802 0.47834,0.426018 0.68761,1.150996 0.15695,-0.41107 0.41107,-0.71003 0.26159,-0.29896 0.58297,-0.493284 0.32138,-0.19432402 0.68013,-0.28401202 0.36623,-0.089688 0.73993,-0.089688 0.59792,0 1.06131,0.19432402 0.47086,0.18685 0.79224,0.553076 0.32886,0.366226 0.50076,0.904354 0.1719,0.530654 0.1719,1.21826198 V 6.5 h -1.33037 V 1.67927 q 0,-0.88940598 -0.38865,-1.34531998 -0.38865,-0.463388 -1.12857,-0.463388 -0.32886,0 -0.62782,0.119584 -0.29148,0.11211 -0.5157,0.33633 -0.22422,0.22422 -0.35876,0.568024 Q 509.04117,1.23083 509.04117,1.67927 V 6.5 h -1.33038 V 1.67927 q 0,-0.91182798 -0.36622,-1.36026798 -0.36623,-0.44844 -1.06878,-0.44844 -0.49329,0 -0.91931,0.269064 -0.41854,0.26159 -0.76982,0.717504 V 6.5 Z"
           id="path2536" />
      </g>
    </g>
    <g
       transform="matrix(0.36334,0,0,0.36334,71.361,-71.685)"
       fill="none"
       font-family="Lato"
       stroke="#000000"
       stroke-linecap="square"
       stroke-linejoin="bevel"
       stroke-width="0.91678"
       id="g261">
      <g
         stroke-linejoin="round"
         id="g257">
        <g
           transform="matrix(0.72337,0,0,0.72337,-166.61,669.22)"
           fill="#fcff5c"
           fill-opacity="0.68235"
           font-size="16px"
           font-weight="400"
           stroke="#fcff5c"
           stroke-linecap="round"
           stroke-width="1.8336"
           id="g249">
          <rect
             y="6.5"
             width="11.2"
             height="15.2"
             stroke-width="1.8336"
             id="rect247"
             x="0" />
        </g>
        <g
           aria-label="C0-C180"
           transform="matrix(0.72337,0,0,0.72337,-166.61,667.7)"
           id="text251"
           style="font-size:17.569px;fill:#848484;stroke:none;stroke-linecap:butt">
          <path
             d="m 26.400848,19.899788 q 0.140552,0 0.254751,0.114198 l 0.667622,0.729114 q -0.773036,0.896019 -1.879883,1.396735 -1.098063,0.500717 -2.652919,0.500717 -1.361598,0 -2.468445,-0.465579 -1.106847,-0.474363 -1.888667,-1.317675 -0.781821,-0.852096 -1.212261,-2.038004 -0.430441,-1.185907 -0.430441,-2.608996 0,-1.423089 0.456794,-2.608997 0.465579,-1.185907 1.300106,-2.038004 0.834528,-0.852096 1.994082,-1.317675 1.168338,-0.4743627 2.573858,-0.4743627 1.387951,0 2.389384,0.4304407 1.010218,0.43044 1.792038,1.168338 l -0.553423,0.781821 q -0.06149,0.08784 -0.140552,0.149336 -0.07906,0.05271 -0.228397,0.05271 -0.114199,0 -0.245966,-0.07906 -0.122983,-0.08784 -0.298673,-0.210828 -0.17569,-0.122983 -0.412872,-0.263535 -0.237181,-0.140552 -0.562208,-0.263535 -0.325026,-0.122983 -0.755467,-0.202044 -0.43044,-0.08784 -0.992648,-0.08784 -1.010218,0 -1.85353,0.35138 -0.834527,0.342596 -1.440658,0.983864 -0.60613,0.641269 -0.948726,1.563641 -0.333811,0.922373 -0.333811,2.064358 0,1.177123 0.333811,2.099495 0.342596,0.922373 0.922373,1.563641 0.588561,0.632484 1.387951,0.966295 0.799389,0.333811 1.721762,0.333811 0.562208,0 1.010217,-0.06149 0.44801,-0.07028 0.825743,-0.210828 0.386518,-0.140552 0.711545,-0.35138 0.333811,-0.219613 0.667622,-0.518286 0.149336,-0.131767 0.289888,-0.131767 z"
             id="path2581" />
          <path
             d="m 37.697706,16.210298 q 0,1.651486 -0.360165,2.863747 -0.35138,1.203476 -0.966295,1.994081 -0.614915,0.790605 -1.458227,1.177123 -0.834527,0.386519 -1.792038,0.386519 -0.966295,0 -1.800822,-0.386519 -0.825743,-0.386518 -1.440658,-1.177123 -0.614915,-0.790605 -0.966295,-1.994081 -0.35138,-1.212261 -0.35138,-2.863747 0,-1.651486 0.35138,-2.863747 0.35138,-1.212261 0.966295,-2.002866 0.614915,-0.79939 1.440658,-1.185908 0.834527,-0.3865177 1.800822,-0.3865177 0.957511,0 1.792038,0.3865177 0.843312,0.386518 1.458227,1.185908 0.614915,0.790605 0.966295,2.002866 0.360165,1.212261 0.360165,2.863747 z m -1.625133,0 q 0,-1.440658 -0.245966,-2.415738 -0.237181,-0.983864 -0.650053,-1.58121 -0.404087,-0.597346 -0.939941,-0.852096 -0.535855,-0.263535 -1.115632,-0.263535 -0.579777,0 -1.115631,0.263535 -0.535855,0.25475 -0.939942,0.852096 -0.404087,0.597346 -0.650053,1.58121 -0.237181,0.97508 -0.237181,2.415738 0,1.440658 0.237181,2.415737 0.245966,0.97508 0.650053,1.572426 0.404087,0.597346 0.939942,0.860881 0.535854,0.25475 1.115631,0.25475 0.579777,0 1.115632,-0.25475 0.535854,-0.263535 0.939941,-0.860881 0.412872,-0.597346 0.650053,-1.572426 0.245966,-0.975079 0.245966,-2.415737 z"
             id="path2583" />
          <path
             d="m 39.103223,16.570462 h 4.339543 v 1.32646 h -4.339543 z"
             id="path2585" />
          <path
             d="m 54.722069,19.899788 q 0.140552,0 0.25475,0.114198 l 0.667622,0.729114 q -0.773036,0.896019 -1.879883,1.396735 -1.098062,0.500717 -2.652919,0.500717 -1.361598,0 -2.468445,-0.465579 -1.106847,-0.474363 -1.888667,-1.317675 -0.781821,-0.852096 -1.212261,-2.038004 -0.430441,-1.185907 -0.430441,-2.608996 0,-1.423089 0.456794,-2.608997 0.465579,-1.185907 1.300106,-2.038004 0.834528,-0.852096 1.994082,-1.317675 1.168338,-0.4743627 2.573858,-0.4743627 1.387952,0 2.389385,0.4304407 1.010217,0.43044 1.792038,1.168338 l -0.553424,0.781821 q -0.06149,0.08784 -0.140552,0.149336 -0.07906,0.05271 -0.228397,0.05271 -0.114198,0 -0.245966,-0.07906 -0.122983,-0.08784 -0.298673,-0.210828 -0.17569,-0.122983 -0.412871,-0.263535 -0.237182,-0.140552 -0.562208,-0.263535 -0.325027,-0.122983 -0.755467,-0.202044 -0.430441,-0.08784 -0.992649,-0.08784 -1.010218,0 -1.85353,0.35138 -0.834527,0.342596 -1.440658,0.983864 -0.60613,0.641269 -0.948726,1.563641 -0.333811,0.922373 -0.333811,2.064358 0,1.177123 0.333811,2.099495 0.342596,0.922373 0.922373,1.563641 0.588561,0.632484 1.387951,0.966295 0.799389,0.333811 1.721762,0.333811 0.562208,0 1.010218,-0.06149 0.448009,-0.07028 0.825743,-0.210828 0.386518,-0.140552 0.711544,-0.35138 0.333811,-0.219613 0.667622,-0.518286 0.149337,-0.131767 0.289889,-0.131767 z"
             id="path2587" />
          <path
             d="m 58.877128,21.305308 h 2.705626 v -8.582457 q 0,-0.386518 0.02635,-0.78182 l -2.248832,1.923805 q -0.08785,0.07028 -0.17569,0.105414 -0.08785,0.02635 -0.166905,0.02635 -0.131768,0 -0.237182,-0.05271 -0.105414,-0.06149 -0.158121,-0.140552 l -0.491932,-0.676407 3.742197,-3.2414802 h 1.273753 V 21.305308 h 2.477229 V 22.5 h -6.746496 z"
             id="path2589" />
          <path
             d="m 71.632219,22.640552 q -0.939941,0 -1.721762,-0.245966 -0.78182,-0.254751 -1.344028,-0.720329 -0.562208,-0.465579 -0.869666,-1.124416 -0.307457,-0.667622 -0.307457,-1.493365 0,-1.212261 0.632484,-1.994082 0.632484,-0.790605 1.809607,-1.124416 -0.992649,-0.368949 -1.50215,-1.098062 -0.500716,-0.737898 -0.500716,-1.7569 0,-0.693976 0.272319,-1.300106 0.27232,-0.606131 0.773036,-1.05414 0.500717,-0.44801 1.194692,-0.70276 0.70276,-0.2547507 1.563641,-0.2547507 0.852097,0 1.554857,0.2547507 0.70276,0.25475 1.203476,0.70276 0.500717,0.448009 0.773036,1.05414 0.27232,0.60613 0.27232,1.300106 0,1.019002 -0.509501,1.7569 -0.509501,0.729113 -1.493365,1.098062 1.177123,0.333811 1.809607,1.124416 0.632484,0.781821 0.632484,1.994082 0,0.825743 -0.316242,1.493365 -0.307458,0.658837 -0.869666,1.124416 -0.553423,0.465578 -1.335244,0.720329 -0.78182,0.245966 -1.721762,0.245966 z m 0,-1.247399 q 0.614915,0 1.098063,-0.166906 0.491932,-0.17569 0.825743,-0.483147 0.342595,-0.316242 0.518285,-0.746683 0.184475,-0.439225 0.184475,-0.966295 0,-0.650053 -0.219613,-1.106847 Q 73.828344,17.457697 73.459395,17.167808 73.099231,16.87792 72.624868,16.746152 72.150505,16.6056 71.632219,16.6056 q -0.518285,0 -0.992648,0.140552 -0.474363,0.131768 -0.843312,0.421656 -0.360165,0.289889 -0.579777,0.755467 -0.210828,0.456794 -0.210828,1.106847 0,0.52707 0.17569,0.966295 0.184474,0.430441 0.518285,0.746683 0.342596,0.307457 0.825743,0.483147 0.491932,0.166906 1.106847,0.166906 z m 0,-6.043736 q 0.614915,0 1.045356,-0.184475 0.439225,-0.193259 0.711544,-0.500716 0.27232,-0.316242 0.395303,-0.720329 0.122983,-0.404087 0.122983,-0.834528 0,-0.439225 -0.149337,-0.825743 -0.140552,-0.386518 -0.43044,-0.676406 -0.281104,-0.289889 -0.711545,-0.456794 -0.421656,-0.166906 -0.983864,-0.166906 -0.562208,0 -0.992648,0.166906 -0.421656,0.166905 -0.711545,0.456794 -0.281104,0.289888 -0.43044,0.676406 -0.140552,0.386518 -0.140552,0.825743 0,0.430441 0.122983,0.834528 0.122983,0.404087 0.395302,0.720329 0.27232,0.307457 0.70276,0.500716 0.439225,0.184475 1.05414,0.184475 z"
             id="path2591" />
          <path
             d="m 86.398962,16.210298 q 0,1.651486 -0.360165,2.863747 -0.35138,1.203476 -0.966295,1.994081 -0.614915,0.790605 -1.458227,1.177123 -0.834527,0.386519 -1.792038,0.386519 -0.966295,0 -1.800822,-0.386519 -0.825743,-0.386518 -1.440658,-1.177123 -0.614915,-0.790605 -0.966295,-1.994081 -0.35138,-1.212261 -0.35138,-2.863747 0,-1.651486 0.35138,-2.863747 0.35138,-1.212261 0.966295,-2.002866 0.614915,-0.79939 1.440658,-1.185908 0.834527,-0.3865177 1.800822,-0.3865177 0.957511,0 1.792038,0.3865177 0.843312,0.386518 1.458227,1.185908 0.614915,0.790605 0.966295,2.002866 0.360165,1.212261 0.360165,2.863747 z m -1.625133,0 q 0,-1.440658 -0.245966,-2.415738 -0.237181,-0.983864 -0.650053,-1.58121 -0.404087,-0.597346 -0.939941,-0.852096 -0.535855,-0.263535 -1.115632,-0.263535 -0.579777,0 -1.115631,0.263535 -0.535855,0.25475 -0.939942,0.852096 -0.404087,0.597346 -0.650053,1.58121 -0.237181,0.97508 -0.237181,2.415738 0,1.440658 0.237181,2.415737 0.245966,0.97508 0.650053,1.572426 0.404087,0.597346 0.939942,0.860881 0.535854,0.25475 1.115631,0.25475 0.579777,0 1.115632,-0.25475 0.535854,-0.263535 0.939941,-0.860881 0.412872,-0.597346 0.650053,-1.572426 0.245966,-0.975079 0.245966,-2.415737 z"
             id="path2593" />
        </g>
      </g>
    </g>
  </g>
  <g
     transform="translate(-0.0014368,16.894527)"
     fill="none"
     stroke="#858585"
     id="g307">
    <path
       transform="matrix(0.52917,0,0,0.52917,-68.201,-25.683)"
       d="m 320.33,65.864 a 31.291,31.291 0 0 1 -15.646,27.099 31.291,31.291 0 0 1 -31.292,-10e-7 31.291,31.291 0 0 1 -15.646,-27.099"
       stroke-width="0.15"
       id="path265" />
    <path
       transform="matrix(1.0583,0,0,1.0576,-221.15,-60.49)"
       d="m 320.33,65.864 a 31.291,31.291 0 0 1 -15.646,27.099 31.291,31.291 0 0 1 -31.292,-10e-7 31.291,31.291 0 0 1 -15.646,-27.099"
       stroke-width="0.075027"
       id="path267" />
    <path
       transform="matrix(1.5875,0,0,1.5865,-374.1,-95.32)"
       d="m 320.33,65.864 a 31.291,31.291 0 0 1 -15.646,27.099 31.291,31.291 0 0 1 -31.292,-10e-7 31.291,31.291 0 0 1 -15.646,-27.099"
       stroke-width="0.050016"
       id="path269" />
    <path
       transform="matrix(2.1167,0,0,2.1153,-527.05,-130.15)"
       d="m 320.33,65.864 a 31.291,31.291 0 0 1 -15.646,27.099 31.291,31.291 0 0 1 -31.292,-10e-7 31.291,31.291 0 0 1 -15.646,-27.099"
       stroke-width="0.037512"
       id="path271" />
    <path
       transform="matrix(2.6458,0,0,2.6441,-680,-164.98)"
       d="m 316.1,81.579 c -2.6998,4.6487 -6.5966,8.6031 -11.414,11.384 -9.6817,5.59 -21.61,5.59 -31.292,-10e-7 -4.8457,-2.7976 -8.7602,-6.7827 -11.462,-11.467"
       stroke-width="0.03001"
       id="path273" />
    <path
       transform="matrix(3.1749,0,0,3.1729,-832.93,-199.8)"
       d="m 311.59,87.561 c -2.0089,2.088 -4.324,3.9131 -6.9028,5.4019 -9.6817,5.59 -21.61,5.59 -31.292,-1e-6 -2.5964,-1.499 -4.9254,-3.3389 -6.9438,-5.4447"
       stroke-width="0.025009"
       id="path275" />
    <path
       transform="matrix(3.7041,0,0,3.7017,-985.9,-234.64)"
       d="m 308.37,90.473 c -1.1574,0.90884 -2.3869,1.7421 -3.683,2.4903 -9.6817,5.59 -21.61,5.59 -31.292,-10e-7 -1.3089,-0.75568 -2.5499,-1.598 -3.7174,-2.5174"
       stroke-width="0.021436"
       id="path277" />
    <path
       transform="matrix(4.2243,0,0,4.2215,-1136.5,-268.87)"
       d="m 306.04,92.132 c -0.44425,0.28747 -0.89718,0.5646 -1.3586,0.83096 -9.6817,5.59 -21.61,5.59 -31.292,-10e-7 -0.43229,-0.24957 -0.85718,-0.5086 -1.2744,-0.77673"
       stroke-width="0.018796"
       id="path279" />
    <path
       transform="matrix(0.26469,0,0,0.26469,-0.036694,-0.031725)"
       d="m 320.33,34.764 v 499.07"
       stroke-width="0.29988"
       id="path281" />
    <path
       transform="matrix(0,0.29371,-0.29371,0,168.21,-84.937)"
       d="m 320.33,40.455 v 487.98"
       stroke-width="0.27025"
       id="path283" />
    <g
       stroke-width="0.29988"
       id="g305">
      <path
         transform="matrix(0.26469,0,0,0.26469,-0.036694,-0.031725)"
         d="m 320.33,34.764 129.11,481.86"
         id="path285" />
      <path
         transform="matrix(0.26469,0,0,0.26469,-0.036694,-0.031725)"
         d="m 320.33,34.764 249.34,431.88"
         id="path287" />
      <path
         transform="matrix(0.26469,0,0,0.26469,-0.036694,-0.031725)"
         d="m 320.33,34.764 270.38,270.38"
         id="path289" />
      <path
         transform="matrix(0.26469,0,0,0.26469,-0.036694,-0.031725)"
         d="m 320.33,34.764 270.39,156.06"
         id="path291" />
      <path
         transform="matrix(0.26469,0,0,0.26469,-0.036694,-0.031725)"
         d="m 320.33,34.764 270.39,72.405"
         id="path293" />
      <path
         transform="matrix(0.26469,0,0,0.26469,-0.036694,-0.031725)"
         d="M 320.33,34.764 191.1,517.074"
         id="path295" />
      <path
         transform="matrix(0.26469,0,0,0.26469,-0.036694,-0.031725)"
         d="M 320.33,34.764 70.48,467.524"
         id="path297" />
      <path
         transform="matrix(0.26469,0,0,0.26469,-0.036694,-0.031725)"
         d="M 320.33,34.764 49.25,305.844"
         id="path299" />
      <path
         transform="matrix(0.26469,0,0,0.26469,-0.036694,-0.031725)"
         d="M 320.33,34.764 49.25,191.274"
         id="path301" />
      <path
         transform="matrix(0.26469,0,0,0.26469,-0.036694,-0.031725)"
         d="M 320.33,34.764 49.27,107.391"
         id="path303" />
    </g>
  </g>
  <path
     transform="matrix(-1.0255,0,0,-1.0255,641.24,-282.99947)"
     d="m 541.32,-291.64 h -9.5988 m 1.6118,1.8601 v -0.499 m 17.121,11.241 a 0.4,0.4 0 0 0 0.59569,-0.49982 m -1.4811,1.1364 a 0.4,0.4 0 0 0 0.63699,-0.44601 m 1.0749,-0.90197 a 0.4,0.4 0 0 0 0.54986,-0.54985 m 1.8905,-10.141 v -1.2002 m -22,1.2002 h 9.7986 m -9.813,7.4912 a 0.4,0.4 0 0 0 0.38881,0.67341 m -0.66968,-7.1024 h 1.5071 m 12.341,12.755 a 12.5,12.5 0 0 0 0.30565,-0.0678 m 8.7494,-7.5303 a 0.4,0.4 0 0 0 0.26597,-0.73073 m -24.354,-4.6094 a 12.5,12.5 0 0 0 -0.0137,0.31279 m 0.25737,-2.1637 a 0.4,0.4 0 0 0 -0.13504,0.76581 m 23.531,7.4192 a 0.4,0.4 0 0 0 0.32863,-0.70477 m -1.6994,-5.4465 h 1.5073 m -18.197,-2.2623 v -0.69982 m -3.6486,-1.7091 a 0.2,0.2 0 0 0 0.2,0.2 m 17.835,15.001 a 12.5,12.5 0 0 0 0.24838,-0.19061 m -17.71,-14.511 a 0.2,0.2 0 0 0 -0.2,-0.2 m 22.2,0.49057 a 12.5,12.5 0 0 0 -24.046,0 m 2.0733,-0.5905 v 1.17 m -0.0615,11.305 a 12.5,12.5 0 0 0 0.19059,0.24839 m 11.297,4.6794 a 12.5,12.5 0 0 0 0.3104,-0.0409 m 8.59,-16.262 h 1.2618 m 0.59815,6.4425 a 0.4,0.4 0 0 0 0.13504,-0.76581 m -22.522,-7.3766 a 0.4,0.4 0 0 0 -0.4,0.4 m 15.189,16.797 a 12.5,12.5 0 0 0 0.28925,-0.11981 m 6.3223,-14.508 v 1.6002 m -20.5,-3.9701 a 0.2,0.2 0 0 0 -0.2,-0.2 m 9.8388,18.084 a 12.5,12.5 0 0 0 0.31278,-0.0138 m -13.114,-11.004 a 12.5,12.5 0 0 0 0.0409,0.3104 m 2.5508,5.9465 a 0.4,0.4 0 0 0 0.49984,0.59569 m 18.709,-9.2488 a 0.4,0.4 0 0 0 0.4,0.4 m -20.788,-1.0609 h 22 m -0.47387,-3.309 h -0.34951 m -0.3558,12.623 a 12.5,12.5 0 0 0 0.19059,-0.24839 m -22.383,-5.6981 a 0.4,0.4 0 0 0 0.13504,0.76581 m 21.487,-5.5726 h 2 m -0.5377,-2.1426 a 11.5,11.5 0 0 0 -21.425,0 m 23.084,6.9494 a 12.5,12.5 0 0 0 0.0409,-0.3104 m -8.5047,10.397 a 0.4,0.4 0 0 0 0.73072,-0.26595 m -14.088,-17.198 h -0.70009 m 22.319,8.4481 a 12.5,12.5 0 0 0 0.0678,-0.30565 m -16.338,-6.0333 h -2.8001 m -5.5789,4.1825 a 0.4,0.4 0 0 0 0.0678,0.77465 m 1.955,5.3715 a 0.4,0.4 0 0 0 0.44603,0.63698 m 19.262,-12.875 v 2.3699 m -8.0515,-0.46076 h -2.4 m 8.1002,0.69982 v -0.69982 m -17.075,-1.409 h -0.34951 m 22.014,9.8177 a 12.5,12.5 0 0 0 0.11981,-0.28924 m -1.596,2.8462 a 0.4,0.4 0 0 0 0.44602,-0.63698 m -11.859,-10.329 v 0.69982 m 13.814,4.2573 a 0.4,0.4 0 0 0 0.0678,-0.77465 m -1.9303,-5.8916 a 0.4,0.4 0 0 0 -0.4,-0.4 m 2.0189,2.7319 a 0.4,0.4 0 0 0 -0.20126,-0.75113 m -2.5176,-1.9808 a 0.2,0.2 0 0 0 -0.2,0.2 m 1.2075,12.238 a 12.5,12.5 0 0 0 0.16822,-0.26406 m -22.264,-10.474 h 1.2621 m 9.6749,16.37 a 12.5,12.5 0 0 0 0.31278,0.0138 m -12.105,-12.105 a 12.5,12.5 0 0 0 0.0136,0.31279 m 4.1516,8.6194 a 0.4,0.4 0 0 0 0.59569,0.49982 m 19.488,-13.641 h -1.8052 m -21.2,2.4 v -1.6002 m 21.227,-1.2699 a 0.4,0.4 0 0 0 0.4,0.4 m -10.765,16.384 a 0.4,0.4 0 0 0 0.77762,0 m 12.091,-13.196 a 0.4,0.4 0 0 0 -0.0678,-0.77466 m -23.9,6.404 a 0.4,0.4 0 0 0 0.32863,0.70477 m 0.78249,-9.5226 a 0.4,0.4 0 0 0 0.4,-0.4 m 7.1184,16.459 a 12.5,12.5 0 0 0 0.30565,0.0678 m 0.76581,0.135 a 12.5,12.5 0 0 0 0.3104,0.0409 m -10.547,-16.812 a 0.4,0.4 0 0 0 0.38474,0.50943 m 9.086,16.127 a 0.4,0.4 0 0 0 0.76581,0.13504 m -5.0611,-1.9142 a 12.5,12.5 0 0 0 0.26405,0.16822 m -5.5852,-13.484 a 12.5,12.5 0 0 0 -0.0678,0.30565 m 23.875,-1.3375 a 0.4,0.4 0 0 0 0.38474,-0.50943 m -1.8733,-1.1906 h -0.69982 m -20.45,2.809 v 1.2002 m 2.4404,10.69 a 12.5,12.5 0 0 0 0.23083,0.21154 m 15.228,-12.802 h -2.8001 m 6.2514,-1.5091 a 0.2,0.2 0 0 0 0.2,-0.2 m -6.4514,2.409 v -0.69982 m -2.7001,0.69982 v -0.69982 m -13.77,1.6942 a 12.5,12.5 0 0 0 -0.0409,0.3104 m 4e-5,0 a 0.4,0.4 0 0 0 -0.0678,0.77466 m 4.9956,10.713 a 0.4,0.4 0 0 0 0.63699,0.44601 m 13.431,0.16822 a 12.5,12.5 0 0 0 0.26405,-0.16822 m 3.7779,-3.8738 a 0.4,0.4 0 0 0 0.3888,-0.67341 m -8.1564,6.2586 a 0.4,0.4 0 0 0 0.75113,-0.20127 m 8.8033,-13.444 a 12.5,12.5 0 0 0 -0.0409,-0.3104 m -8.7624,13.754 a 12.5,12.5 0 0 0 0.29858,-0.0941 m -15.875,-15.483 a 0.4,0.4 0 0 0 -0.20126,0.75113 m 24.663,2.4693 a 12.5,12.5 0 0 0 -0.0136,-0.31279 m -23.976,0.37592 a 11.5,11.5 0 1 0 22.991,0 m -0.96933,-4.5643 a 0.2,0.2 0 0 0 0.1863,-0.27275 m -15.64,16.65 a 12.5,12.5 0 0 0 0.28925,0.11981 m -6.969,-6.9689 a 12.5,12.5 0 0 0 0.11981,0.28924 m 1.6994,-5.4478 a 0.4,0.4 0 0 0 0.4,-0.4 m 3.478,11.934 a 12.5,12.5 0 0 0 0.27771,0.14457 m 2.0233,0.80854 a 0.4,0.4 0 0 0 0.75112,0.20127 m 12.246,-13.589 v 0.499 m -0.2787,9.4805 a 12.5,12.5 0 0 0 0.21151,-0.23082 m -21.267,-12.008 a 12.5,12.5 0 0 0 -0.0212,0.0696 m 13.754,15.981 a 0.4,0.4 0 0 0 0.76581,-0.13504 m -9.1362,-1.6109 a 0.4,0.4 0 0 0 0.67343,0.3888 m 10.838,0.47321 a 0.4,0.4 0 0 0 0.70476,-0.32864 m -14.883,-14.179 v -2.3699 m -2.0454,4.87 a 0.2,0.2 0 0 0 -0.19992,0.19434 m 19.824,9.6467 a 12.5,12.5 0 0 0 0.23083,-0.21154 m 3.408,-12.719 a 12.5,12.5 0 0 0 -0.0212,-0.0696 m -19.68,13.5 a 12.5,12.5 0 0 0 0.24838,0.19061 m -4.3887,-6.1036 a 0.4,0.4 0 0 0 0.26596,0.73073 m 23.575,-1.0293 a 0.4,0.4 0 0 0 0.20126,-0.75113 m -0.22248,-6.537 a 0.2,0.2 0 0 0 -0.19114,-0.14114 m -6.1227,14.979 a 12.5,12.5 0 0 0 0.27771,-0.14457 m 6.57,-10.313 a 12.5,12.5 0 0 0 0.0136,-0.31279 m -24.663,2.4693 a 0.4,0.4 0 0 0 0.20126,0.75113 m 23.463,-3.9349 a 0.2,0.2 0 0 0 -0.19992,-0.19434 m 0.57799,4.4278 a 12.5,12.5 0 0 0 0.0941,-0.29858 m -2.6466,4.7196 a 0.4,0.4 0 0 0 0.49985,-0.59569 m 2.5508,-9.5198 a 0.4,0.4 0 0 0 -0.13504,-0.76581 m -22.187,-1.2675 h -1.8053 m 22.755,1.0389 h -9.6015 m -11.749,-2.2089 h 0.40005 m 0.56171,3.57 h -1.8619 m 0.0911,7.0525 a 12.5,12.5 0 0 0 0.14457,0.27771 m 23.508,-5.5215 a 0.4,0.4 0 0 0 0,-0.77761 m -17.132,11.996 a 0.4,0.4 0 0 0 0.73072,0.26595 m 15.158,-13.293 h -1.8619 m -21.625,3.9724 a 12.5,12.5 0 0 0 0.0678,0.30565 m -0.32513,-3.2469 a 0.4,0.4 0 0 0 0,0.77761 m 6.8614,10.77 a 0.4,0.4 0 0 0 0.70476,0.32864 m -6.3223,-14.508 h 2 m 19.227,-1.6698 v 0.39979 m 1.0379,10.2 a 12.5,12.5 0 0 0 0.14457,-0.27771 m -5.2488,5.3819 a 0.4,0.4 0 0 0 0.67343,-0.3888 m -8.0599,1.7868 a 0.4,0.4 0 0 0 0.77466,0.0678 m 10.651,-17.47 h 0.40005 m -22.105,1.1699 a 0.2,0.2 0 0 0 -0.19114,0.14114 m 10.745,0.19799 h -0.1998 m 11.578,-1.4091 a 0.2,0.2 0 0 0 -0.2,0.2 m -0.0267,0.87005 v -1.17 m -19.927,0.69982 v -0.39979 m -0.649,11.274 a 12.5,12.5 0 0 0 0.16821,0.26406 m 1.348,1.7119 a 0.4,0.4 0 0 0 0.54986,0.54985 m 9.2612,3.3708 a 0.4,0.4 0 0 0 0.77466,-0.0678 m -0.0777,-15.893 h -0.20003 m 11.038,0.92841 a 12.5,12.5 0 0 0 -0.0678,-0.30565 m -21.49,11.187 a 12.5,12.5 0 0 0 0.21151,0.23082 m -2.8581,-4.9504 a 12.5,12.5 0 0 0 0.0942,0.29858 m 1.161,-9.0706 a 0.2,0.2 0 0 0 0.1863,0.27275 m 6.6182,16.763 a 12.5,12.5 0 0 0 0.29859,0.0941 m -0.4921,-14.749 v -0.69982"
     fill="none"
     stroke="#000000"
     stroke-linecap="round"
     stroke-width="0.2"
     id="path309" />
</svg>
