<?xml version="1.0" encoding="UTF-8" standalone="no"?>
<!-- Created with Inkscape (http://www.inkscape.org/) -->

<svg
   width="38.004292mm"
   height="27.950003mm"
   viewBox="0 0 38.004292 27.950003"
   version="1.1"
   id="svg5"
   inkscape:version="1.1 (c68e22c387, 2021-05-23)"
   sodipodi:docname="Suporte AREX_01.svg"
   xmlns:inkscape="http://www.inkscape.org/namespaces/inkscape"
   xmlns:sodipodi="http://sodipodi.sourceforge.net/DTD/sodipodi-0.dtd"
   xmlns="http://www.w3.org/2000/svg"
   xmlns:svg="http://www.w3.org/2000/svg">
  <sodipodi:namedview
     id="namedview7"
     pagecolor="#ffffff"
     bordercolor="#ffffff"
     borderopacity="1"
     inkscape:pageshadow="0"
     inkscape:pageopacity="0"
     inkscape:pagecheckerboard="false"
     inkscape:document-units="mm"
     showgrid="false"
     inkscape:zoom="1.4142136"
     inkscape:cx="-6.7175144"
     inkscape:cy="3.5355339"
     inkscape:window-width="1680"
     inkscape:window-height="987"
     inkscape:window-x="1912"
     inkscape:window-y="18"
     inkscape:window-maximized="1"
     inkscape:current-layer="layer1" />
  <defs
     id="defs2">
    <marker
       style="overflow:visible"
       id="Arrow2Lend"
       refX="0"
       refY="0"
       orient="auto"
       inkscape:stockid="Arrow2Lend"
       inkscape:isstock="true">
      <path
         transform="matrix(-1.1,0,0,-1.1,-1.1,0)"
         d="M 8.7185878,4.0337352 -2.2072895,0.01601326 8.7185884,-4.0017078 c -1.7454984,2.3720609 -1.7354408,5.6174519 -6e-7,8.035443 z"
         style="fill:context-stroke;fill-rule:evenodd;stroke-width:0.625;stroke-linejoin:round"
         id="path16608" />
    </marker>
    <marker
       style="overflow:visible"
       id="Arrow2Lstart"
       refX="0"
       refY="0"
       orient="auto"
       inkscape:stockid="Arrow2Lstart"
       inkscape:isstock="true">
      <path
         transform="matrix(1.1,0,0,1.1,1.1,0)"
         d="M 8.7185878,4.0337352 -2.2072895,0.01601326 8.7185884,-4.0017078 c -1.7454984,2.3720609 -1.7354408,5.6174519 -6e-7,8.035443 z"
         style="fill:context-stroke;fill-rule:evenodd;stroke-width:0.625;stroke-linejoin:round"
         id="path16605" />
    </marker>
    <inkscape:path-effect
       effect="bspline"
       id="path-effect16345"
       is_visible="true"
       lpeversion="1"
       weight="33.333333"
       steps="2"
       helper_size="0"
       apply_no_weight="true"
       apply_with_weight="true"
       only_selected="false" />
    <inkscape:path-effect
       effect="bspline"
       id="path-effect14074"
       is_visible="true"
       lpeversion="1"
       weight="33.333333"
       steps="2"
       helper_size="0"
       apply_no_weight="true"
       apply_with_weight="true"
       only_selected="false" />
    <inkscape:path-effect
       effect="bspline"
       id="path-effect14037"
       is_visible="true"
       lpeversion="1"
       weight="33.333333"
       steps="2"
       helper_size="0"
       apply_no_weight="true"
       apply_with_weight="true"
       only_selected="false" />
    <inkscape:path-effect
       effect="bspline"
       id="path-effect13915"
       is_visible="true"
       lpeversion="1"
       weight="33.333333"
       steps="2"
       helper_size="0"
       apply_no_weight="true"
       apply_with_weight="true"
       only_selected="false" />
    <inkscape:path-effect
       effect="bspline"
       id="path-effect6218"
       is_visible="true"
       lpeversion="1"
       weight="33.333333"
       steps="2"
       helper_size="0"
       apply_no_weight="true"
       apply_with_weight="true"
       only_selected="false" />
    <inkscape:path-effect
       effect="bspline"
       id="path-effect6068"
       is_visible="true"
       lpeversion="1"
       weight="33.333333"
       steps="2"
       helper_size="0"
       apply_no_weight="true"
       apply_with_weight="true"
       only_selected="false" />
    <inkscape:path-effect
       effect="bspline"
       id="path-effect6062"
       is_visible="true"
       lpeversion="1"
       weight="33.333333"
       steps="2"
       helper_size="0"
       apply_no_weight="true"
       apply_with_weight="true"
       only_selected="false" />
    <inkscape:path-effect
       effect="bspline"
       id="path-effect1207"
       is_visible="true"
       lpeversion="1"
       weight="33.333333"
       steps="2"
       helper_size="0"
       apply_no_weight="true"
       apply_with_weight="true"
       only_selected="false" />
    <inkscape:path-effect
       effect="bspline"
       id="path-effect1121"
       is_visible="true"
       lpeversion="1"
       weight="33.333333"
       steps="2"
       helper_size="0"
       apply_no_weight="true"
       apply_with_weight="true"
       only_selected="false" />
  </defs>
  <g
     inkscape:label="Camada 1"
     inkscape:groupmode="layer"
     id="layer1"
     transform="translate(-60.53538,-127.20372)">
    <path
       style="fill:none;stroke:#000000;stroke-width:0.264583px;stroke-linecap:butt;stroke-linejoin:miter;stroke-opacity:1"
       d="m 92.024083,141.59861 c 0.0085,-0.0654 0.02547,-0.19648 0.04932,-0.30249 0.02385,-0.10601 0.0546,-0.18694 0.09305,-0.27234 0.03844,-0.0854 0.08453,-0.17515 0.131865,-0.26294 0.04733,-0.0878 0.09587,-0.17354 0.156607,-0.26147 0.06074,-0.0879 0.133631,-0.17798 0.201564,-0.25106 0.06793,-0.0731 0.130861,-0.12914 0.197804,-0.18178 0.06694,-0.0526 0.137885,-0.10183 0.209413,-0.14474 0.07153,-0.0429 0.143647,-0.0795 0.220325,-0.11272 0.07668,-0.0332 0.157899,-0.0629 0.231152,-0.0846 0.07325,-0.0217 0.138466,-0.0355 0.204,-0.0458 0.06553,-0.0103 0.131295,-0.0173 0.196557,-0.0227 0.06526,-0.005 0.129981,-0.01 0.210485,-0.0107 0.0805,-0.001 0.176765,5e-4 0.258071,0.005 0.08131,0.005 0.147689,0.013 0.218234,0.0277 0.07055,0.0147 0.14526,0.036 0.22209,0.0607 0.07683,0.0247 0.155764,0.0527 0.236532,0.0894 0.08077,0.0367 0.163328,0.082 0.236963,0.12572 0.07364,0.0437 0.138369,0.0858 0.207525,0.14041 0.06916,0.0546 0.142783,0.12179 0.206665,0.18975 0.06388,0.068 0.118103,0.13676 0.165818,0.20392 0.04772,0.0672 0.08898,0.13269 0.121717,0.19297 0.03274,0.0603 0.05701,0.11529 0.08025,0.17636 0.02324,0.0611 0.04549,0.12823 0.06753,0.19923 0.02204,0.071 0.04388,0.14582 0.05903,0.20446 0.01515,0.0586 0.02365,0.10112 0.03131,0.16117 0.0077,0.0601 0.01455,0.13775 0.02184,0.20691 0.0073,0.0692 0.01497,0.12987 0.0188,0.79883 0.0038,0.66896 0.0038,1.94618 -0.001,2.622 -0.0048,0.67583 -0.01444,0.75019 -0.02304,0.81876 -0.0086,0.0686 -0.01617,0.13124 -0.03461,0.22216 -0.01844,0.0909 -0.04772,0.21013 -0.08064,0.31417 -0.03291,0.10403 -0.06941,0.19287 -0.10937,0.27345 -0.03996,0.0806 -0.08337,0.15294 -0.128849,0.22081 -0.04548,0.0679 -0.093,0.13123 -0.149334,0.20117 -0.05633,0.0699 -0.121418,0.14639 -0.192172,0.21198 -0.07075,0.0656 -0.147254,0.12039 -0.226464,0.16964 -0.07921,0.0493 -0.161222,0.093 -0.274365,0.13583 -0.113143,0.0428 -0.25754,0.0847 -0.352866,0.11073 -0.09533,0.0261 -0.141608,0.0363 -0.299922,0.0404 -0.158313,0.004 -0.428709,0.002 -0.601207,-0.009 -0.172497,-0.0112 -0.247126,-0.0318 -0.313731,-0.0556 -0.0666,-0.0239 -0.12516,-0.0511 -0.1809,-0.0749 -0.05574,-0.0239 -0.10866,-0.0443 -0.172637,-0.077 -0.06398,-0.0326 -0.139002,-0.0774 -0.210889,-0.13003 -0.07189,-0.0526 -0.140557,-0.11299 -0.201236,-0.17266 -0.06068,-0.0597 -0.113288,-0.11861 -0.163496,-0.18025 -0.05021,-0.0616 -0.09793,-0.12592 -0.143027,-0.1973 -0.0451,-0.0714 -0.08748,-0.1498 -0.120633,-0.2236 -0.03316,-0.0738 -0.05704,-0.14301 -0.08628,-0.22657 -0.02923,-0.0836 -0.06382,-0.18148 -0.09281,-0.27232 -0.029,-0.0909 -0.05239,-0.17469 -0.06874,-0.92115 -0.01634,-0.74646 -0.02556,-2.15547 -0.03016,-2.86012 -0.0046,-0.70466 -0.0046,-0.70472 0.0039,-0.77014 z"
       id="path1119"
       inkscape:path-effect="#path-effect1121"
       inkscape:original-d="m 92.015603,141.66403 c 0.01725,-0.1308 0.03424,-0.26186 0.05097,-0.39319 0.03101,-0.0806 0.06175,-0.16154 0.09223,-0.2427 0.04638,-0.0896 0.0925,-0.17934 0.138346,-0.26941 0.04881,-0.0855 0.09735,-0.17125 0.145624,-0.25727 0.07317,-0.0898 0.146066,-0.17984 0.218702,-0.27015 0.06319,-0.0558 0.126121,-0.11186 0.188782,-0.16819 0.0712,-0.0489 0.14214,-0.0981 0.212813,-0.14759 0.07234,-0.0363 0.144425,-0.073 0.216241,-0.10984 0.0815,-0.0295 0.162732,-0.0592 0.2437,-0.0892 0.06548,-0.0135 0.130699,-0.0272 0.195649,-0.0412 0.06605,-0.007 0.131834,-0.0137 0.197352,-0.0208 0.06499,-0.004 0.12971,-0.008 0.194167,-0.0121 0.09654,0.002 0.192813,0.003 0.288825,0.005 0.06661,0.008 0.132945,0.0165 0.199019,0.0243 0.07499,0.0216 0.149704,0.0429 0.224158,0.0639 0.07921,0.0283 0.158155,0.0563 0.236837,0.0841 0.08284,0.0456 0.165407,0.0909 0.247713,0.13595 0.06499,0.0423 0.129709,0.0844 0.194167,0.12621 0.07389,0.0674 0.147508,0.13456 0.220866,0.20144 0.05447,0.069 0.108673,0.1378 0.162613,0.2063 0.04153,0.0658 0.08279,0.13133 0.123783,0.1966 0.02453,0.0553 0.04881,0.11029 0.07281,0.16504 0.02252,0.0674 0.04476,0.13456 0.06675,0.20145 0.02212,0.0751 0.04395,0.14993 0.06553,0.2245 0.0088,0.0427 0.01725,0.0852 0.02548,0.12743 0.0071,0.0779 0.01402,0.15559 0.02064,0.233 0.008,0.0609 0.01564,0.12161 0.02305,0.18203 2.65e-4,1.27753 2.65e-4,2.55475 0,3.83173 -0.0094,0.0747 -0.01897,0.14907 -0.02886,0.2232 -0.0073,0.063 -0.0149,0.12567 -0.02273,0.1881 -0.02902,0.11947 -0.0583,0.23867 -0.08785,0.3576 -0.03625,0.0892 -0.07277,0.17803 -0.109553,0.26665 -0.04315,0.0726 -0.08655,0.14496 -0.130225,0.21704 -0.04728,0.0637 -0.09482,0.12705 -0.142627,0.19017 -0.06485,0.0768 -0.12996,0.15323 -0.195336,0.22945 -0.07622,0.055 -0.152699,0.10982 -0.229444,0.16433 -0.08173,0.044 -0.163722,0.0878 -0.245981,0.13126 -0.144126,0.0421 -0.288515,0.084 -0.433168,0.12561 -0.04602,0.0105 -0.09231,0.0207 -0.138853,0.0307 -0.270145,-0.002 -0.540541,-0.004 -0.811207,-0.006 -0.07437,-0.0203 -0.149008,-0.0408 -0.223909,-0.0616 -0.0583,-0.027 -0.116869,-0.0542 -0.175699,-0.0817 -0.05265,-0.0202 -0.105559,-0.0407 -0.158735,-0.0614 -0.07476,-0.0446 -0.149796,-0.0894 -0.225088,-0.13446 -0.06844,-0.0602 -0.137131,-0.12057 -0.206092,-0.18125 -0.05236,-0.0587 -0.104971,-0.11764 -0.157856,-0.17685 -0.04748,-0.0641 -0.09523,-0.12836 -0.14324,-0.19294 -0.04212,-0.0782 -0.08451,-0.15662 -0.127162,-0.23532 -0.0236,-0.0689 -0.04748,-0.13811 -0.07162,-0.20755 -0.03433,-0.0977 -0.06892,-0.1956 -0.103775,-0.29379 -0.02312,-0.0835 -0.04651,-0.16734 -0.07016,-0.2514 -0.0089,-1.40881 -0.01815,-2.81782 -0.02764,-4.22713 z" />
    <path
       style="fill:none;stroke:#000000;stroke-width:0.15;stroke-linecap:butt;stroke-linejoin:miter;stroke-miterlimit:4;stroke-dasharray:none;stroke-opacity:1"
       d="m 93.00306,142.14495 c 0.0045,-0.0485 0.0136,-0.14559 0.02147,-0.2339 0.0079,-0.0883 0.01453,-0.16754 0.02919,-0.24452 0.01466,-0.077 0.03732,-0.15131 0.05966,-0.2212 0.02233,-0.0699 0.04434,-0.13537 0.07484,-0.19573 0.0305,-0.0604 0.06937,-0.11534 0.106613,-0.16462 0.03724,-0.0493 0.07277,-0.0928 0.113412,-0.1318 0.04064,-0.039 0.08626,-0.0735 0.131297,-0.10727 0.04503,-0.0338 0.08933,-0.0667 0.1356,-0.0921 0.04627,-0.0253 0.09421,-0.0429 0.162436,-0.0519 0.06822,-0.009 0.156247,-0.009 0.252368,-0.008 0.09612,0.002 0.201529,0.005 0.288203,0.0224 0.08667,0.0175 0.155971,0.0494 0.215764,0.0868 0.05979,0.0374 0.110732,0.0806 0.153492,0.11782 0.04276,0.0372 0.07738,0.0684 0.114288,0.10891 0.03691,0.0405 0.07618,0.0902 0.110299,0.14059 0.03412,0.0504 0.06303,0.1013 0.08851,0.15108 0.02548,0.0498 0.04748,0.0983 0.06496,0.14294 0.01747,0.0446 0.03044,0.0854 0.04286,0.13073 0.01242,0.0453 0.02428,0.095 0.03502,0.14074 0.01074,0.0458 0.02034,0.0874 0.02913,0.1313 0.0088,0.0439 0.01674,0.0897 0.02391,0.16357 0.0072,0.0739 0.01357,0.17569 0.01676,0.69977 0.0032,0.52409 0.0032,1.47051 6.13e-4,1.97127 -0.0026,0.50077 -0.0077,0.55593 -0.0148,0.61002 -0.0071,0.0541 -0.01612,0.10727 -0.02597,0.17476 -0.0098,0.0675 -0.02047,0.14899 -0.03556,0.22274 -0.01508,0.0737 -0.03456,0.13958 -0.0559,0.1993 -0.02134,0.0597 -0.04451,0.11333 -0.06879,0.16362 -0.02428,0.0503 -0.04963,0.0972 -0.07974,0.14909 -0.03011,0.0519 -0.06481,0.10846 -0.102594,0.15707 -0.03779,0.0486 -0.07862,0.0892 -0.120896,0.12569 -0.04227,0.0365 -0.08603,0.0689 -0.133285,0.0977 -0.04726,0.0288 -0.09764,0.0538 -0.148842,0.0733 -0.0512,0.0194 -0.102052,0.0328 -0.199668,0.0388 -0.09762,0.006 -0.24196,0.005 -0.334047,-0.004 -0.09209,-0.008 -0.131894,-0.0234 -0.167457,-0.0411 -0.03556,-0.0177 -0.06685,-0.0378 -0.09659,-0.0555 -0.02974,-0.0177 -0.05796,-0.0328 -0.09213,-0.057 -0.03416,-0.0242 -0.07422,-0.0574 -0.11604,-0.0936 -0.04182,-0.0362 -0.08513,-0.0753 -0.123847,-0.11511 -0.03872,-0.0399 -0.07213,-0.0799 -0.102144,-0.1253 -0.03001,-0.0454 -0.05604,-0.0956 -0.08259,-0.15067 -0.02656,-0.0551 -0.05318,-0.1143 -0.07473,-0.17085 -0.02155,-0.0566 -0.03767,-0.10967 -0.04989,-0.17137 -0.01221,-0.0617 -0.02031,-0.13126 -0.02548,-0.20006 -0.0052,-0.0688 -0.0073,-0.13645 -0.01088,-0.6923 -0.0035,-0.55585 -0.0085,-1.59992 -0.01092,-2.12206 -0.0025,-0.52215 -0.0024,-0.52227 0.0021,-0.57073 z"
       id="path1203"
       inkscape:path-effect="#path-effect1207"
       inkscape:original-d="m 92.998534,142.19341 c 0.0092,-0.0969 0.01828,-0.19404 0.02721,-0.29135 0.0069,-0.0793 0.0136,-0.15853 0.02001,-0.23831 0.02296,-0.0741 0.04561,-0.14843 0.068,-0.22301 0.02227,-0.0652 0.04428,-0.13067 0.06605,-0.19648 0.03921,-0.0548 0.07808,-0.10979 0.116751,-0.16511 0.03582,-0.0432 0.07134,-0.0867 0.106624,-0.13048 0.04594,-0.0342 0.09155,-0.0687 0.136994,-0.10351 0.04463,-0.0327 0.08888,-0.0657 0.132978,-0.0989 0.04838,-0.0174 0.09629,-0.0351 0.144211,-0.053 0.08843,-1.7e-4 0.176455,-6e-4 0.263897,-0.001 0.10478,0.004 0.210198,0.007 0.314474,0.01 0.06902,0.0319 0.1383,0.0638 0.206822,0.0951 0.05112,0.0434 0.10206,0.0866 0.152909,0.12968 0.03469,0.0313 0.06924,0.0626 0.103653,0.0935 0.03945,0.05 0.07875,0.0997 0.117907,0.14927 0.02908,0.0512 0.05801,0.10211 0.08681,0.15287 0.02217,0.0488 0.0442,0.0973 0.06608,0.14568 0.0131,0.0409 0.02606,0.0817 0.03887,0.12229 0.01202,0.05 0.02389,0.0997 0.03563,0.14927 0.0099,0.0419 0.01944,0.0836 0.02878,0.12502 0.0083,0.0463 0.01622,0.0921 0.02393,0.13781 0.0067,0.10214 0.01306,0.20391 0.01919,0.30546 1.41e-4,0.94664 1.41e-4,1.89306 0,2.8393 -0.005,0.0553 -0.01013,0.11046 -0.01541,0.16539 -0.0087,0.0533 -0.01779,0.10647 -0.0271,0.15943 -0.01039,0.082 -0.02102,0.16351 -0.03193,0.24493 -0.01935,0.0661 -0.03885,0.13192 -0.05848,0.19759 -0.02304,0.0538 -0.0462,0.10741 -0.06952,0.16082 -0.02524,0.0472 -0.05062,0.0941 -0.07614,0.14092 -0.03462,0.057 -0.06938,0.11354 -0.104278,0.17002 -0.04069,0.0408 -0.08152,0.0814 -0.122486,0.12177 -0.04363,0.0326 -0.0874,0.065 -0.131314,0.0973 -0.05055,0.0255 -0.100941,0.0505 -0.152314,0.0756 -0.05109,0.0138 -0.101959,0.0271 -0.153048,0.0402 -0.144214,-0.002 -0.288562,-0.003 -0.433054,-0.004 -0.0397,-0.0151 -0.07954,-0.0302 -0.119531,-0.0456 -0.03112,-0.02 -0.06239,-0.0402 -0.09379,-0.0605 -0.0281,-0.015 -0.05635,-0.0301 -0.08474,-0.0455 -0.03991,-0.033 -0.07997,-0.0662 -0.12016,-0.0996 -0.04342,-0.0391 -0.08675,-0.0781 -0.130691,-0.11777 -0.03343,-0.0401 -0.06685,-0.0801 -0.100806,-0.12071 -0.02599,-0.0503 -0.05202,-0.10042 -0.07854,-0.15124 -0.02657,-0.0594 -0.05319,-0.11859 -0.08028,-0.1785 -0.01596,-0.0532 -0.03209,-0.10631 -0.04857,-0.15999 -0.0079,-0.0697 -0.01599,-0.13926 -0.02439,-0.20943 -0.0019,-0.0674 -0.004,-0.13506 -0.0065,-0.20283 -0.0048,-1.04392 -0.0097,-2.08799 -0.01475,-3.13228 z"
       sodipodi:nodetypes="ccccccccccccccccccccccccccccccccccccccccccccccccc" />
    <path
       style="fill:none;stroke:#000000;stroke-width:0.264583px;stroke-linecap:butt;stroke-linejoin:miter;stroke-opacity:1"
       d="m 68.029961,141.59861 c 0.0085,-0.0654 0.02547,-0.19648 0.04932,-0.30249 0.02385,-0.10601 0.05461,-0.18694 0.09305,-0.27234 0.03844,-0.0854 0.08453,-0.17515 0.131865,-0.26294 0.04733,-0.0878 0.09587,-0.17354 0.156607,-0.26147 0.06074,-0.0879 0.133631,-0.17798 0.201564,-0.25106 0.06793,-0.0731 0.130861,-0.12914 0.197804,-0.18178 0.06694,-0.0526 0.137885,-0.10183 0.209413,-0.14474 0.07153,-0.0429 0.143647,-0.0795 0.220325,-0.11272 0.07668,-0.0332 0.157899,-0.0629 0.231152,-0.0846 0.07325,-0.0217 0.138466,-0.0355 0.204,-0.0458 0.06553,-0.0103 0.131295,-0.0173 0.196557,-0.0227 0.06526,-0.005 0.129981,-0.01 0.210485,-0.0107 0.0805,-0.001 0.176765,5e-4 0.258071,0.005 0.08131,0.005 0.147689,0.013 0.218234,0.0277 0.07055,0.0147 0.14526,0.036 0.22209,0.0607 0.07683,0.0247 0.155764,0.0527 0.236532,0.0894 0.08077,0.0367 0.163328,0.082 0.236963,0.12572 0.07364,0.0437 0.138369,0.0858 0.207525,0.14041 0.06916,0.0546 0.142783,0.12179 0.206665,0.18975 0.06388,0.068 0.118103,0.13676 0.165818,0.20392 0.04772,0.0672 0.08898,0.13269 0.121717,0.19297 0.03274,0.0603 0.05701,0.11529 0.08025,0.17636 0.02324,0.0611 0.04549,0.12823 0.06753,0.19923 0.02204,0.071 0.04388,0.14582 0.05903,0.20446 0.01515,0.0586 0.02365,0.10112 0.03132,0.16117 0.0077,0.0601 0.01455,0.13775 0.02184,0.20691 0.0073,0.0692 0.01497,0.12987 0.0188,0.79883 0.0038,0.66896 0.0038,1.94618 -0.001,2.622 -0.0048,0.67583 -0.01444,0.75019 -0.02304,0.81876 -0.0086,0.0686 -0.01617,0.13124 -0.03461,0.22216 -0.01844,0.0909 -0.04772,0.21013 -0.08064,0.31417 -0.03291,0.10403 -0.06941,0.19287 -0.10937,0.27345 -0.03996,0.0806 -0.08337,0.15294 -0.128849,0.22081 -0.04548,0.0679 -0.093,0.13123 -0.149334,0.20117 -0.05633,0.0699 -0.121418,0.14639 -0.192172,0.21198 -0.07075,0.0656 -0.147254,0.12039 -0.226464,0.16964 -0.07921,0.0493 -0.161222,0.093 -0.274365,0.13583 -0.113143,0.0428 -0.25754,0.0847 -0.352866,0.11073 -0.09533,0.0261 -0.141608,0.0363 -0.299922,0.0404 -0.158313,0.004 -0.428709,0.002 -0.601207,-0.009 -0.172497,-0.0112 -0.247126,-0.0318 -0.313731,-0.0556 -0.0666,-0.0239 -0.12516,-0.0511 -0.1809,-0.0749 -0.05574,-0.0239 -0.10866,-0.0443 -0.172637,-0.077 -0.06398,-0.0326 -0.139002,-0.0774 -0.210889,-0.13003 -0.07189,-0.0526 -0.140557,-0.11299 -0.201236,-0.17266 -0.06068,-0.0597 -0.113288,-0.11861 -0.163496,-0.18025 -0.05021,-0.0616 -0.09793,-0.12592 -0.143027,-0.1973 -0.0451,-0.0714 -0.08748,-0.1498 -0.120633,-0.2236 -0.03316,-0.0738 -0.05704,-0.14301 -0.08628,-0.22657 -0.02923,-0.0836 -0.06382,-0.18148 -0.09281,-0.27232 -0.029,-0.0909 -0.05239,-0.17469 -0.06874,-0.92115 -0.01634,-0.74646 -0.02556,-2.15547 -0.03016,-2.86012 -0.0046,-0.70466 -0.0046,-0.70472 0.0039,-0.77014 z"
       id="path6058"
       inkscape:path-effect="#path-effect6062"
       inkscape:original-d="m 68.021481,141.66403 c 0.01725,-0.1308 0.03424,-0.26186 0.05097,-0.39319 0.03101,-0.0806 0.06175,-0.16154 0.09223,-0.2427 0.04638,-0.0896 0.0925,-0.17934 0.138346,-0.26941 0.04881,-0.0855 0.09735,-0.17125 0.145624,-0.25727 0.07317,-0.0898 0.146066,-0.17984 0.218702,-0.27015 0.06319,-0.0558 0.126121,-0.11186 0.188782,-0.16819 0.0712,-0.0489 0.14214,-0.0981 0.212813,-0.14759 0.07234,-0.0363 0.144425,-0.073 0.216241,-0.10984 0.0815,-0.0295 0.162732,-0.0592 0.2437,-0.0892 0.06548,-0.0135 0.130699,-0.0272 0.195649,-0.0412 0.06605,-0.007 0.131834,-0.0137 0.197352,-0.0208 0.06499,-0.004 0.12971,-0.008 0.194167,-0.0121 0.09654,0.002 0.192813,0.003 0.288825,0.005 0.06661,0.008 0.132945,0.0165 0.199019,0.0243 0.07499,0.0216 0.149704,0.0429 0.224158,0.0639 0.07921,0.0283 0.158155,0.0563 0.236837,0.0841 0.08284,0.0456 0.165407,0.0909 0.247713,0.13595 0.06499,0.0423 0.129709,0.0844 0.194167,0.12621 0.07389,0.0674 0.147508,0.13456 0.220866,0.20144 0.05447,0.069 0.108673,0.1378 0.162613,0.2063 0.04153,0.0658 0.08279,0.13133 0.123783,0.1966 0.02453,0.0553 0.04881,0.11029 0.07281,0.16504 0.02252,0.0674 0.04476,0.13456 0.06675,0.20145 0.02212,0.0751 0.04395,0.14993 0.06553,0.2245 0.0088,0.0427 0.01725,0.0852 0.02548,0.12743 0.0071,0.0779 0.01402,0.15559 0.02064,0.233 0.008,0.0609 0.01564,0.12161 0.02305,0.18203 2.65e-4,1.27753 2.65e-4,2.55475 0,3.83173 -0.0094,0.0747 -0.01897,0.14907 -0.02886,0.2232 -0.0073,0.063 -0.0149,0.12567 -0.02273,0.1881 -0.02902,0.11947 -0.0583,0.23867 -0.08785,0.3576 -0.03625,0.0892 -0.07277,0.17803 -0.109553,0.26665 -0.04315,0.0726 -0.08655,0.14496 -0.130225,0.21704 -0.04728,0.0637 -0.09482,0.12705 -0.142627,0.19017 -0.06485,0.0768 -0.12996,0.15323 -0.195336,0.22945 -0.07622,0.055 -0.152699,0.10982 -0.229444,0.16433 -0.08173,0.044 -0.163722,0.0878 -0.245981,0.13126 -0.144126,0.0421 -0.288515,0.084 -0.433168,0.12561 -0.04602,0.0105 -0.09231,0.0207 -0.138853,0.0307 -0.270145,-0.002 -0.540541,-0.004 -0.811207,-0.006 -0.07437,-0.0203 -0.149008,-0.0408 -0.223909,-0.0616 -0.0583,-0.027 -0.116869,-0.0542 -0.175699,-0.0817 -0.05265,-0.0202 -0.105559,-0.0407 -0.158735,-0.0614 -0.07476,-0.0446 -0.149796,-0.0894 -0.225088,-0.13446 -0.06844,-0.0602 -0.137131,-0.12057 -0.206092,-0.18125 -0.05236,-0.0587 -0.104971,-0.11764 -0.157856,-0.17685 -0.04748,-0.0641 -0.09523,-0.12836 -0.14324,-0.19294 -0.04212,-0.0782 -0.08451,-0.15662 -0.127162,-0.23532 -0.0236,-0.0689 -0.04748,-0.13811 -0.07162,-0.20755 -0.03433,-0.0977 -0.06892,-0.1956 -0.103775,-0.29379 -0.02312,-0.0835 -0.04651,-0.16734 -0.07016,-0.2514 -0.0089,-1.40881 -0.01815,-2.81782 -0.02764,-4.22713 z" />
    <path
       style="fill:none;stroke:#000000;stroke-width:0.15;stroke-linecap:butt;stroke-linejoin:miter;stroke-miterlimit:4;stroke-dasharray:none;stroke-opacity:1"
       d="m 69.008938,142.14495 c 0.0045,-0.0485 0.0136,-0.14559 0.02147,-0.2339 0.0079,-0.0883 0.01453,-0.16754 0.02919,-0.24452 0.01466,-0.077 0.03732,-0.15131 0.05966,-0.2212 0.02233,-0.0699 0.04434,-0.13537 0.07484,-0.19573 0.0305,-0.0604 0.06937,-0.11534 0.106613,-0.16462 0.03724,-0.0493 0.07278,-0.0928 0.113412,-0.1318 0.04064,-0.039 0.08626,-0.0735 0.131297,-0.10727 0.04503,-0.0338 0.08933,-0.0667 0.1356,-0.0921 0.04627,-0.0253 0.09421,-0.0429 0.162436,-0.0519 0.06822,-0.009 0.156247,-0.009 0.252368,-0.008 0.09612,0.002 0.201529,0.005 0.288203,0.0224 0.08667,0.0175 0.155971,0.0494 0.215764,0.0868 0.05979,0.0374 0.110732,0.0806 0.153492,0.11782 0.04276,0.0372 0.07738,0.0684 0.114288,0.10891 0.03691,0.0405 0.07618,0.0902 0.110299,0.14059 0.03412,0.0504 0.06303,0.1013 0.08851,0.15108 0.02548,0.0498 0.04748,0.0983 0.06496,0.14294 0.01747,0.0446 0.03044,0.0854 0.04285,0.13073 0.01242,0.0453 0.02428,0.095 0.03502,0.14074 0.01074,0.0458 0.02034,0.0874 0.02912,0.1313 0.0088,0.0439 0.01674,0.0897 0.02391,0.16357 0.0072,0.0739 0.01357,0.17569 0.01676,0.69977 0.0032,0.52409 0.0032,1.47051 6.13e-4,1.97127 -0.0026,0.50077 -0.0077,0.55593 -0.0148,0.61002 -0.0071,0.0541 -0.01612,0.10727 -0.02597,0.17476 -0.0098,0.0675 -0.02047,0.14899 -0.03556,0.22274 -0.01508,0.0737 -0.03456,0.13958 -0.0559,0.1993 -0.02134,0.0597 -0.04451,0.11333 -0.06879,0.16362 -0.02428,0.0503 -0.04963,0.0972 -0.07974,0.14909 -0.03011,0.0519 -0.06481,0.10846 -0.102594,0.15707 -0.03779,0.0486 -0.07862,0.0892 -0.120896,0.12569 -0.04227,0.0365 -0.08603,0.0689 -0.133285,0.0977 -0.04726,0.0288 -0.09764,0.0538 -0.148842,0.0733 -0.0512,0.0194 -0.102052,0.0328 -0.199668,0.0388 -0.09761,0.006 -0.24196,0.005 -0.334047,-0.004 -0.09209,-0.008 -0.131894,-0.0234 -0.167457,-0.0411 -0.03556,-0.0177 -0.06685,-0.0378 -0.09659,-0.0555 -0.02974,-0.0177 -0.05796,-0.0328 -0.09213,-0.057 -0.03416,-0.0242 -0.07422,-0.0574 -0.11604,-0.0936 -0.04182,-0.0362 -0.08513,-0.0753 -0.123847,-0.11511 -0.03872,-0.0399 -0.07213,-0.0799 -0.102144,-0.1253 -0.03001,-0.0454 -0.05604,-0.0956 -0.08259,-0.15067 -0.02656,-0.0551 -0.05317,-0.1143 -0.07473,-0.17085 -0.02155,-0.0566 -0.03768,-0.10967 -0.04989,-0.17137 -0.01221,-0.0617 -0.02031,-0.13126 -0.02548,-0.20006 -0.0052,-0.0688 -0.0073,-0.13645 -0.01088,-0.6923 -0.0035,-0.55585 -0.0085,-1.59992 -0.01092,-2.12206 -0.0025,-0.52215 -0.0024,-0.52227 0.0021,-0.57073 z"
       id="path6064"
       inkscape:path-effect="#path-effect6068"
       inkscape:original-d="m 69.004412,142.19341 c 0.0092,-0.0969 0.01828,-0.19404 0.02721,-0.29135 0.0069,-0.0793 0.0136,-0.15853 0.02001,-0.23831 0.02296,-0.0741 0.04561,-0.14843 0.068,-0.22301 0.02227,-0.0652 0.04428,-0.13067 0.06605,-0.19648 0.03921,-0.0548 0.07808,-0.10979 0.116751,-0.16511 0.03582,-0.0432 0.07134,-0.0867 0.106624,-0.13048 0.04594,-0.0342 0.09155,-0.0687 0.136994,-0.10351 0.04463,-0.0327 0.08888,-0.0657 0.132978,-0.0989 0.04838,-0.0174 0.09629,-0.0351 0.144211,-0.053 0.08843,-1.7e-4 0.176455,-6e-4 0.263897,-0.001 0.10478,0.004 0.210198,0.007 0.314474,0.01 0.06902,0.0319 0.1383,0.0638 0.206822,0.0951 0.05112,0.0434 0.10206,0.0866 0.152909,0.12968 0.03469,0.0313 0.06924,0.0626 0.103653,0.0935 0.03945,0.05 0.07875,0.0997 0.117907,0.14927 0.02908,0.0512 0.05801,0.10211 0.08681,0.15287 0.02217,0.0488 0.0442,0.0973 0.06608,0.14568 0.0131,0.0409 0.02606,0.0817 0.03887,0.12229 0.01202,0.05 0.02389,0.0997 0.03563,0.14927 0.0099,0.0419 0.01944,0.0836 0.02878,0.12502 0.0083,0.0463 0.01622,0.0921 0.02393,0.13781 0.0067,0.10214 0.01306,0.20391 0.01919,0.30546 1.41e-4,0.94664 1.41e-4,1.89306 0,2.8393 -0.005,0.0553 -0.01013,0.11046 -0.01541,0.16539 -0.0087,0.0533 -0.01779,0.10647 -0.0271,0.15943 -0.01039,0.082 -0.02102,0.16351 -0.03193,0.24493 -0.01935,0.0661 -0.03885,0.13192 -0.05848,0.19759 -0.02304,0.0538 -0.0462,0.10741 -0.06952,0.16082 -0.02524,0.0472 -0.05062,0.0941 -0.07614,0.14092 -0.03462,0.057 -0.06938,0.11354 -0.104278,0.17002 -0.04069,0.0408 -0.08152,0.0814 -0.122486,0.12177 -0.04363,0.0326 -0.0874,0.065 -0.131314,0.0973 -0.05055,0.0255 -0.100941,0.0505 -0.152314,0.0756 -0.05109,0.0138 -0.101959,0.0271 -0.153048,0.0402 -0.144214,-0.002 -0.288562,-0.003 -0.433054,-0.004 -0.0397,-0.0151 -0.07954,-0.0302 -0.119531,-0.0456 -0.03112,-0.02 -0.06239,-0.0402 -0.09379,-0.0605 -0.0281,-0.015 -0.05635,-0.0301 -0.08474,-0.0455 -0.03991,-0.033 -0.07997,-0.0662 -0.12016,-0.0996 -0.04342,-0.0391 -0.08675,-0.0781 -0.130691,-0.11777 -0.03343,-0.0401 -0.06685,-0.0801 -0.100806,-0.12071 -0.02599,-0.0503 -0.05202,-0.10042 -0.07854,-0.15124 -0.02657,-0.0594 -0.05319,-0.11859 -0.08028,-0.1785 -0.01596,-0.0532 -0.03209,-0.10631 -0.04857,-0.15999 -0.0079,-0.0697 -0.01599,-0.13926 -0.02439,-0.20943 -0.0019,-0.0674 -0.004,-0.13506 -0.0065,-0.20283 -0.0048,-1.04392 -0.0097,-2.08799 -0.01475,-3.13228 z"
       sodipodi:nodetypes="ccccccccccccccccccccccccccccccccccccccccccccccccc" />
    <path
       style="fill:none;stroke:#000000;stroke-width:0.264583px;stroke-linecap:round;stroke-linejoin:miter;stroke-opacity:1"
       d="m 88.56927,147.79458 c -0.08822,0.10752 -0.176411,0.21501 -0.279768,0.34594 -0.103356,0.13092 -0.221865,0.28526 -0.343118,0.42304 -0.121253,0.13778 -0.245276,0.25905 -0.352775,0.36655 -0.107498,0.1075 -0.198433,0.20119 -0.31004,0.30453 -0.111607,0.10334 -0.243897,0.21634 -0.388587,0.33485 -0.144691,0.11851 -0.301784,0.24253 -0.483663,0.36517 -0.18188,0.12263 -0.388583,0.2439 -0.600792,0.36103 -0.212209,0.11713 -0.429935,0.23013 -0.700011,0.34726 -0.270077,0.11713 -0.592535,0.2384 -0.869495,0.32109 -0.276961,0.0827 -0.508467,0.12679 -0.71792,0.16124 -0.209452,0.0344 -0.396862,0.0592 -0.615828,0.0753 -0.218967,0.0161 -0.46949,0.0234 -0.730597,0.0125 -0.261107,-0.0109 -0.532798,-0.04 -0.776814,-0.0712 -0.244016,-0.0311 -0.460329,-0.0643 -0.663009,-0.10712 -0.202679,-0.0429 -0.391703,-0.0955 -0.567104,-0.14809 -0.1754,-0.0526 -0.337136,-0.10523 -0.51545,-0.16953 -0.178315,-0.0643 -0.373209,-0.1403 -0.531066,-0.20558 -0.157857,-0.0653 -0.278683,-0.11984 -0.403889,-0.18121 -0.125205,-0.0614 -0.254821,-0.12959 -0.389774,-0.20559 -0.134952,-0.076 -0.275284,-0.1598 -0.392696,-0.23238 -0.117411,-0.0726 -0.211941,-0.13398 -0.307437,-0.2012 -0.0955,-0.0672 -0.191975,-0.14031 -0.307448,-0.2319 -0.115474,-0.0916 -0.249937,-0.20169 -0.373214,-0.3113 -0.123277,-0.10961 -0.235332,-0.21874 -0.35454,-0.33913 -0.119208,-0.12039 -0.245541,-0.25203 -0.408422,-0.45096 -0.162882,-0.19893 -0.362258,-0.46515 -0.507924,-0.70738 -0.145665,-0.24223 -0.237521,-0.46047 -0.333067,-0.69706 -0.09555,-0.2366 -0.19476,-0.49152 -0.268513,-0.71959 -0.07375,-0.22808 -0.121984,-0.42927 -0.176113,-0.65989 -0.05413,-0.23061 -0.11411,-0.49045 -0.155855,-0.79201 -0.04175,-0.30156 -0.06508,-0.64382 -0.06514,-0.96342 -6.3e-5,-0.31959 0.02321,-0.61564 0.05883,-0.8962 0.03561,-0.28057 0.08365,-0.5461 0.126789,-0.76046 0.04314,-0.21436 0.0814,-0.37768 0.12696,-0.54548 0.04556,-0.1678 0.09841,-0.34003 0.157677,-0.51622 0.05926,-0.1762 0.124933,-0.35631 0.194289,-0.52631 0.06936,-0.17001 0.142395,-0.32987 0.242717,-0.51904 0.100323,-0.18917 0.227937,-0.40765 0.33767,-0.58159 0.109732,-0.17394 0.201563,-0.3033 0.302439,-0.43351 0.100876,-0.13021 0.21078,-0.26124 0.338551,-0.41015 0.12777,-0.14891 0.273393,-0.31568 0.417849,-0.45758 0.144455,-0.1419 0.287642,-0.25884 0.428924,-0.36677 0.141281,-0.10794 0.280635,-0.20685 0.438499,-0.3155 0.157864,-0.10866 0.334229,-0.22705 0.535964,-0.33887 0.201735,-0.11182 0.428767,-0.21705 0.667631,-0.3099 0.238864,-0.0928 0.489462,-0.17327 0.81648,-0.2582 0.327017,-0.0849 0.730345,-0.17433 1.137646,-0.22809 0.4073,-0.0538 0.818456,-0.0719 1.235324,-0.0555 0.416868,0.0164 0.839345,0.0672 1.16076,0.12826 0.321415,0.0611 0.541698,0.1324 0.745823,0.20167 0.204125,0.0693 0.392062,0.13647 0.575428,0.21032 0.183367,0.0739 0.362172,0.15433 0.546538,0.25559 0.184366,0.10125 0.374318,0.22323 0.57303,0.35432 0.198713,0.13108 0.406184,0.27126 0.573261,0.38081 0.167076,0.10954 0.293748,0.18847 0.425568,0.27772 0.13182,0.0893 0.268832,0.18884 0.398997,0.29624 0.130166,0.1074 0.253507,0.22257 0.363022,0.32749 0.109515,0.10491 0.205151,0.19951 0.289338,0.2858 0.08419,0.0863 0.156905,0.16423 0.223989,0.23686 0.06709,0.0726 0.12846,0.13984 0.178637,0.19783 0.05018,0.058 0.08915,0.1067 0.127891,0.15513"
       id="path6216"
       sodipodi:nodetypes="cccccccccccccccccccccccccccccccccccccccccccccccccccccccccccccc"
       inkscape:original-d="m 88.56927,147.79458 c -0.08793,0.10776 -0.176123,0.21525 -0.264584,0.32248 -0.11825,0.1546 -0.236757,0.30894 -0.355533,0.46302 -0.123762,0.12153 -0.247783,0.2428 -0.372071,0.3638 -0.09069,0.094 -0.181636,0.18768 -0.272851,0.28112 -0.13203,0.11326 -0.264319,0.22626 -0.396875,0.339 -0.156835,0.12429 -0.313928,0.24831 -0.471289,0.37207 -0.206447,0.12153 -0.413147,0.2428 -0.620118,0.3638 -0.217469,0.11326 -0.435194,0.22626 -0.65319,0.339 -0.322201,0.12153 -0.644657,0.2428 -0.967382,0.3638 -0.231252,0.0444 -0.462757,0.0885 -0.694532,0.13229 -0.187153,0.0251 -0.374562,0.0499 -0.562239,0.0744 -0.250279,0.008 -0.500814,0.0149 -0.751619,0.0219 -0.27144,-0.0289 -0.543134,-0.058 -0.815109,-0.0874 -0.216061,-0.0329 -0.432379,-0.066 -0.648965,-0.0994 -0.188777,-0.0524 -0.377811,-0.10498 -0.567113,-0.15786 -0.161491,-0.0524 -0.323241,-0.10497 -0.485261,-0.15786 -0.194623,-0.0757 -0.389504,-0.15174 -0.584653,-0.22801 -0.120565,-0.0543 -0.24139,-0.10887 -0.362484,-0.1637 -0.129334,-0.0679 -0.258929,-0.13616 -0.388792,-0.20463 -0.140055,-0.0835 -0.280369,-0.16734 -0.42095,-0.2514 -0.09425,-0.0611 -0.188772,-0.12251 -0.283556,-0.18417 -0.0962,-0.0728 -0.19267,-0.1459 -0.289404,-0.21924 -0.134207,-0.10985 -0.268674,-0.21995 -0.40341,-0.33033 -0.111795,-0.10887 -0.223851,-0.218 -0.336175,-0.3274 -0.126082,-0.13139 -0.252414,-0.26303 -0.37902,-0.39494 -0.199119,-0.26597 -0.398497,-0.53219 -0.598143,-0.79868 -0.0916,-0.21799 -0.183455,-0.43623 -0.27558,-0.65475 -0.09896,-0.25467 -0.198169,-0.50959 -0.297658,-0.7648 -0.04797,-0.20094 -0.0962,-0.40213 -0.144694,-0.60359 -0.05976,-0.25976 -0.119741,-0.5196 -0.180066,-0.78005 -0.02311,-0.34265 -0.04645,-0.68491 -0.07009,-1.02809 0.02356,-0.29597 0.04683,-0.59202 0.06983,-0.88816 0.04825,-0.26495 0.09629,-0.53048 0.144032,-0.79612 0.03853,-0.16307 0.0768,-0.32639 0.114804,-0.48999 0.05312,-0.17197 0.105973,-0.3442 0.158565,-0.51671 0.06594,-0.17986 0.131609,-0.35997 0.197018,-0.54036 0.0733,-0.15959 0.146341,-0.31945 0.219109,-0.47956 0.127871,-0.2182 0.255485,-0.43668 0.382838,-0.65543 0.0921,-0.1291 0.183928,-0.25846 0.275496,-0.38808 0.110172,-0.13077 0.220076,-0.2618 0.329719,-0.3931 0.145895,-0.16651 0.291519,-0.33328 0.436887,-0.50033 0.143495,-0.11671 0.286683,-0.23365 0.429633,-0.35088 0.139609,-0.0986 0.278943,-0.19754 0.418024,-0.29671 0.17664,-0.11813 0.353004,-0.23652 0.529112,-0.35518 0.227306,-0.10497 0.454339,-0.2102 0.681118,-0.31571 0.250895,-0.0802 0.501501,-0.16061 0.751875,-0.24133 0.403636,-0.0891 0.806954,-0.17855 1.210048,-0.26823 0.411449,-0.0179 0.822606,-0.036 1.233527,-0.0544 0.422772,0.0511 0.845252,0.10188 1.26749,0.15242 0.22056,0.0716 0.440849,0.14289 0.660877,0.21393 0.188213,0.0675 0.376158,0.13468 0.563845,0.20162 0.179061,0.0807 0.357852,0.16121 0.536377,0.24142 0.190216,0.12225 0.38017,0.24423 0.569862,0.36595 0.207737,0.14044 0.415207,0.28062 0.622411,0.42053 0.126941,0.0792 0.253616,0.15812 0.380025,0.23678 0.137259,0.0998 0.274253,0.19941 0.410988,0.29872 0.123622,0.11545 0.246963,0.23062 0.370065,0.34555 0.09593,0.0949 0.19157,0.18949 0.286965,0.28384 0.07301,0.0782 0.145713,0.15616 0.218215,0.2339 0.06168,0.0675 0.123042,0.13473 0.184167,0.2017 0.03924,0.049 0.07822,0.0977 0.11693,0.14616"
       inkscape:path-effect="#path-effect6218" />
    <path
       style="fill:none;stroke:#000000;stroke-width:0.15;stroke-linecap:butt;stroke-linejoin:miter;stroke-miterlimit:4;stroke-dasharray:none;stroke-opacity:1"
       d="m 89.346483,139.61732 h -12.65039 v 3.80338 h 0.297656 v 4.33255 h 12.336198 z"
       id="path8996" />
    <path
       style="fill:none;stroke:#000000;stroke-width:0.15;stroke-linecap:butt;stroke-linejoin:miter;stroke-miterlimit:4;stroke-dasharray:none;stroke-opacity:1"
       d="m 76.993749,143.4207 h 3.522266 v 4.26641"
       id="path8998" />
    <path
       style="fill:none;stroke:#000000;stroke-width:0.15;stroke-linecap:butt;stroke-linejoin:miter;stroke-miterlimit:4;stroke-dasharray:none;stroke-opacity:1"
       d="m 80.251431,139.55117 v 3.83646"
       id="path9000" />
    <path
       style="fill:none;stroke:#000000;stroke-width:0.1;stroke-linecap:butt;stroke-linejoin:miter;stroke-miterlimit:4;stroke-dasharray:none;stroke-opacity:1"
       d="m 88.425723,139.60723 v 8.11295 l 0.143547,0.0744"
       id="path9115" />
    <path
       style="fill:none;stroke:#000000;stroke-width:0.1;stroke-linecap:butt;stroke-linejoin:miter;stroke-miterlimit:4;stroke-dasharray:none;stroke-opacity:1"
       d="m 88.90528,139.60723 v 8.11295 l 0.143547,0.0744"
       id="path9197" />
    <path
       style="fill:none;stroke:#000000;stroke-width:0.1;stroke-linecap:round;stroke-linejoin:miter;stroke-miterlimit:4;stroke-dasharray:none;stroke-opacity:1"
       d="m 88.031835,148.3651 -0.0083,-0.0248 -0.740008,-0.59531"
       id="path12989" />
    <path
       style="fill:none;stroke:#000000;stroke-width:0.1;stroke-linecap:round;stroke-linejoin:miter;stroke-miterlimit:4;stroke-dasharray:none;stroke-opacity:1"
       d="m 76.208267,148.3527 0.785482,-0.59945"
       id="path13122" />
    <path
       style="fill:none;stroke:#000000;stroke-width:0.1;stroke-linecap:round;stroke-linejoin:miter;stroke-miterlimit:4;stroke-dasharray:none;stroke-opacity:1"
       d="m 76.237205,139.05094 0.673862,0.54984"
       id="path13157" />
    <path
       style="fill:none;stroke:#000000;stroke-width:0.1;stroke-linecap:round;stroke-linejoin:miter;stroke-miterlimit:4;stroke-dasharray:none;stroke-opacity:1"
       d="m 87.949213,139.11504 -0.57296,0.49403"
       id="path13192" />
    <path
       style="fill:none;stroke:#000000;stroke-width:0.1;stroke-linecap:round;stroke-linejoin:miter;stroke-miterlimit:4;stroke-dasharray:none;stroke-opacity:1"
       d="m 89.036423,147.80335 v 0.54157 l 1.073169,1.07317 0.0028,-0.003"
       id="path13340" />
    <path
       style="fill:none;stroke:#000000;stroke-width:0.1;stroke-linecap:round;stroke-linejoin:miter;stroke-miterlimit:4;stroke-dasharray:none;stroke-opacity:1"
       d="m 89.036423,139.61318 v -0.54157 l 1.073169,-1.07317 0.0028,0.003"
       id="path13440" />
    <rect
       style="fill:none;fill-rule:evenodd;stroke:#000000;stroke-width:0.0999999;stroke-linecap:round;stroke-linejoin:round;stroke-miterlimit:4;stroke-dasharray:none;stop-color:#000000"
       id="rect13648"
       width="1.8686198"
       height="19.047318"
       x="90.123695"
       y="134.16855" />
    <path
       style="fill:none;stroke:#000000;stroke-width:0.15;stroke-linecap:round;stroke-linejoin:miter;stroke-miterlimit:4;stroke-dasharray:none;stroke-opacity:1"
       d="m 65.798567,139.63385 v 8.13594"
       id="path13763" />
    <path
       style="fill:none;stroke:#000000;stroke-width:0.15;stroke-linecap:round;stroke-linejoin:miter;stroke-miterlimit:4;stroke-dasharray:none;stroke-opacity:1"
       d="m 98.46467,139.63385 v 8.13594"
       id="path13878" />
    <path
       style="fill:none;stroke:#000000;stroke-width:0.15;stroke-linecap:round;stroke-linejoin:miter;stroke-miterlimit:4;stroke-dasharray:none;stroke-opacity:1"
       d="m 98.464668,147.76979 c -0.145526,0.16262 -0.291041,0.32523 -0.465766,0.50575 -0.174726,0.18051 -0.37867,0.37895 -0.601916,0.59392 -0.223245,0.21498 -0.465771,0.44648 -0.751026,0.70969 -0.285254,0.2632 -0.613219,0.5581 -0.900535,0.80338 -0.287315,0.24529 -0.53398,0.44096 -0.8771,0.68349 -0.34312,0.24253 -0.782703,0.53192 -1.276032,0.82613 -0.493329,0.29421 -1.040401,0.59324 -1.587575,0.89232"
       id="path13913"
       inkscape:path-effect="#path-effect13915"
       inkscape:original-d="m 98.464668,147.76979 c -0.145249,0.16287 -0.290764,0.32548 -0.436544,0.48783 -0.20369,0.1987 -0.407636,0.39713 -0.611849,0.59531 -0.242276,0.23178 -0.484804,0.46328 -0.727604,0.69453 -0.327716,0.29517 -0.655683,0.59006 -0.98392,0.8847 -0.246409,0.19595 -0.493072,0.39163 -0.740007,0.58704 -0.439338,0.28966 -0.878922,0.57904 -1.318782,0.86817 -0.546827,0.2993 -1.093898,0.59833 -1.641244,0.8971" />
    <path
       style="fill:none;stroke:#000000;stroke-width:0.15;stroke-linecap:round;stroke-linejoin:miter;stroke-miterlimit:4;stroke-dasharray:none;stroke-opacity:1"
       d="m 98.464668,139.64149 c -0.145526,-0.16262 -0.291041,-0.32523 -0.465766,-0.50575 -0.174726,-0.18051 -0.37867,-0.37895 -0.601916,-0.59392 -0.223245,-0.21498 -0.465771,-0.44648 -0.751026,-0.70969 -0.285254,-0.2632 -0.613219,-0.5581 -0.900535,-0.80338 -0.287315,-0.24529 -0.53398,-0.44096 -0.8771,-0.68349 -0.34312,-0.24253 -0.782703,-0.53192 -1.276032,-0.82613 -0.493329,-0.29421 -1.040401,-0.59324 -1.587575,-0.89232"
       id="path14033"
       inkscape:path-effect="#path-effect14037"
       inkscape:original-d="m 98.464668,139.64149 c -0.145249,-0.16287 -0.290764,-0.32548 -0.436544,-0.48783 -0.20369,-0.1987 -0.407636,-0.39713 -0.611849,-0.59531 -0.242276,-0.23178 -0.484804,-0.46328 -0.727604,-0.69453 -0.327716,-0.29517 -0.655683,-0.59006 -0.98392,-0.8847 -0.246409,-0.19595 -0.493072,-0.39163 -0.740007,-0.58704 -0.439338,-0.28966 -0.878922,-0.57904 -1.318782,-0.86817 -0.546827,-0.2993 -1.093898,-0.59833 -1.641244,-0.8971" />
    <path
       style="fill:none;stroke:#000000;stroke-width:0.15;stroke-linecap:round;stroke-linejoin:miter;stroke-miterlimit:4;stroke-dasharray:none;stroke-opacity:1"
       d="m 90.971864,134.15427 c -0.134151,-0.0622 -0.268619,-0.12458 -0.430376,-0.1928 -0.161757,-0.0682 -0.35079,-0.14228 -0.603168,-0.23875 -0.252378,-0.0965 -0.568082,-0.21535 -0.877955,-0.31963 -0.309873,-0.10428 -0.613883,-0.19392 -0.9152,-0.27612 -0.301318,-0.0822 -0.599903,-0.15692 -0.878058,-0.21841 -0.278155,-0.0615 -0.535838,-0.10972 -0.827986,-0.16691 -0.292148,-0.0572 -0.618733,-0.12333 -0.961185,-0.17571 -0.342452,-0.0524 -0.700737,-0.091 -1.048579,-0.12406 -0.347842,-0.0331 -0.685229,-0.0607 -1.046869,-0.0774 -0.36164,-0.0167 -0.747493,-0.0226 -1.116807,-0.0294 -0.369314,-0.007 -0.722034,-0.0146 -1.036791,-0.007 -0.314757,0.008 -0.59148,0.0312 -0.927662,0.0624 -0.336182,0.0312 -0.73179,0.0702 -1.150801,0.12083 -0.419012,0.0507 -0.861394,0.11303 -1.232663,0.17928 -0.371269,0.0662 -0.67139,0.13641 -0.956142,0.20905 -0.284752,0.0726 -0.554098,0.14775 -0.839679,0.23354 -0.285581,0.0858 -0.587376,0.18225 -0.878147,0.2794 -0.29077,0.0971 -0.570509,0.19499 -0.81995,0.29008 -0.249441,0.0951 -0.468543,0.18741 -0.692472,0.28215 -0.223928,0.0947 -0.452646,0.19187 -0.699175,0.30472 -0.24653,0.11284 -0.51067,0.2413 -0.763178,0.37085 -0.252508,0.12956 -0.493286,0.26015 -0.75462,0.40864 -0.261334,0.14849 -0.543179,0.31485 -0.784084,0.46551 -0.240906,0.15065 -0.440819,0.28559 -0.636954,0.41888 -0.196135,0.1333 -0.388465,0.26494 -0.578704,0.39699 -0.190238,0.13205 -0.378368,0.2645 -0.573214,0.41104 -0.194845,0.14654 -0.396377,0.30715 -0.59916,0.47051 -0.202784,0.16336 -0.406787,0.32945 -0.616616,0.50922 -0.209829,0.17977 -0.425429,0.37317 -0.620343,0.55254 -0.194914,0.17937 -0.369111,0.34468 -0.530888,0.50604 -0.161776,0.16136 -0.311117,0.31877 -0.438365,0.45713 -0.127247,0.13835 -0.232384,0.25763 -0.337506,0.3769"
       id="path14072"
       inkscape:path-effect="#path-effect14074"
       inkscape:original-d="m 90.971864,134.15427 c -0.134205,-0.0621 -0.268674,-0.12446 -0.403411,-0.18709 -0.188774,-0.0738 -0.377809,-0.14785 -0.56711,-0.22217 -0.315455,-0.11862 -0.631161,-0.23749 -0.947137,-0.35664 -0.30376,-0.0894 -0.607774,-0.17903 -0.912058,-0.26894 -0.298339,-0.0745 -0.596932,-0.14919 -0.895795,-0.22418 -0.257434,-0.048 -0.515123,-0.0962 -0.773081,-0.1447 -0.326337,-0.0659 -0.652925,-0.13203 -0.979783,-0.19844 -0.358032,-0.0383 -0.716315,-0.0769 -1.07487,-0.11575 -0.337127,-0.0273 -0.674505,-0.055 -1.012153,-0.0828 -0.385615,-0.006 -0.771475,-0.0114 -1.15761,-0.0175 -0.352484,-0.008 -0.705216,-0.0153 -1.05822,-0.0234 -0.276476,0.0237 -0.553207,0.047 -0.830207,0.0702 -0.395359,0.0392 -0.790964,0.0782 -1.186844,0.11693 -0.442132,0.0626 -0.88451,0.12499 -1.327161,0.18709 -0.299862,0.0704 -0.599977,0.14058 -0.900363,0.21047 -0.2691,0.0754 -0.538451,0.1505 -0.808075,0.22536 -0.30153,0.0967 -0.603316,0.19319 -0.90537,0.28938 -0.279482,0.0981 -0.559218,0.19595 -0.839226,0.29353 -0.218848,0.0926 -0.437952,0.18492 -0.657323,0.27698 -0.228492,0.0974 -0.457205,0.19455 -0.686264,0.29146 -0.263978,0.12878 -0.52812,0.25724 -0.792588,0.38547 -0.240532,0.13087 -0.481308,0.26147 -0.722368,0.39181 -0.281597,0.16663 -0.56344,0.33299 -0.845566,0.49909 -0.199663,0.13521 -0.399578,0.27014 -0.59977,0.40482 -0.192076,0.13191 -0.384405,0.26355 -0.577008,0.39493 -0.18787,0.13272 -0.376,0.26517 -0.564397,0.39736 -0.201274,0.16088 -0.402805,0.32149 -0.604613,0.48184 -0.203756,0.16637 -0.40776,0.33246 -0.612046,0.4983 -0.215356,0.19369 -0.430959,0.38709 -0.646842,0.58025 -0.173938,0.16557 -0.348131,0.33088 -0.522595,0.49592 -0.149078,0.15767 -0.298415,0.31508 -0.448024,0.47222 -0.104877,0.11956 -0.210017,0.23884 -0.315419,0.35786"
       sodipodi:nodetypes="ccccccccccccccccccccccccccccccccc" />
    <path
       style="fill:none;stroke:#000000;stroke-width:0.15;stroke-linecap:round;stroke-linejoin:miter;stroke-miterlimit:4;stroke-dasharray:none;stroke-opacity:1"
       d="m 90.971864,153.24945 c -0.134151,0.0622 -0.268619,0.12458 -0.430376,0.1928 -0.161757,0.0682 -0.35079,0.14228 -0.603168,0.23875 -0.252378,0.0965 -0.568082,0.21535 -0.877955,0.31963 -0.309873,0.10428 -0.613883,0.19392 -0.9152,0.27612 -0.301318,0.0822 -0.599903,0.15692 -0.878058,0.21841 -0.278155,0.0615 -0.535838,0.10972 -0.827986,0.16691 -0.292148,0.0572 -0.618733,0.12333 -0.961185,0.17571 -0.342452,0.0524 -0.700737,0.091 -1.048579,0.12406 -0.347842,0.0331 -0.685229,0.0607 -1.046869,0.0774 -0.36164,0.0167 -0.747493,0.0226 -1.116807,0.0294 -0.369314,0.007 -0.722034,0.0146 -1.036791,0.007 -0.314757,-0.008 -0.59148,-0.0312 -0.927662,-0.0624 -0.336182,-0.0312 -0.73179,-0.0702 -1.150801,-0.12083 -0.419012,-0.0507 -0.861394,-0.11303 -1.232663,-0.17928 -0.371269,-0.0662 -0.67139,-0.13641 -0.956142,-0.20905 -0.284752,-0.0726 -0.554098,-0.14775 -0.839679,-0.23354 -0.285581,-0.0858 -0.587376,-0.18225 -0.878147,-0.2794 -0.29077,-0.0971 -0.570509,-0.19499 -0.81995,-0.29008 -0.249441,-0.0951 -0.468543,-0.18741 -0.692472,-0.28215 -0.223928,-0.0947 -0.452646,-0.19187 -0.699175,-0.30472 -0.24653,-0.11284 -0.51067,-0.2413 -0.763178,-0.37085 -0.252508,-0.12956 -0.493286,-0.26015 -0.75462,-0.40864 -0.261334,-0.14849 -0.543179,-0.31485 -0.784084,-0.46551 -0.240906,-0.15065 -0.440819,-0.28559 -0.636954,-0.41888 -0.196135,-0.1333 -0.388465,-0.26494 -0.578704,-0.39699 -0.190238,-0.13205 -0.378368,-0.2645 -0.573214,-0.41104 -0.194845,-0.14654 -0.396377,-0.30715 -0.59916,-0.47051 -0.202784,-0.16336 -0.406787,-0.32945 -0.616616,-0.50922 -0.209829,-0.17977 -0.425429,-0.37317 -0.620343,-0.55254 -0.194914,-0.17937 -0.369111,-0.34468 -0.530888,-0.50604 -0.161776,-0.16136 -0.311117,-0.31877 -0.438365,-0.45713 -0.127247,-0.13835 -0.232384,-0.25763 -0.337506,-0.3769"
       id="path16341"
       inkscape:path-effect="#path-effect16345"
       inkscape:original-d="m 90.971864,153.24945 c -0.134205,0.0621 -0.268674,0.12446 -0.403411,0.18709 -0.188774,0.0738 -0.377809,0.14785 -0.56711,0.22217 -0.315455,0.11862 -0.631161,0.23749 -0.947137,0.35664 -0.30376,0.0894 -0.607774,0.17903 -0.912058,0.26894 -0.298339,0.0745 -0.596932,0.14919 -0.895795,0.22418 -0.257434,0.048 -0.515123,0.0962 -0.773081,0.1447 -0.326337,0.0659 -0.652925,0.13203 -0.979783,0.19844 -0.358032,0.0383 -0.716315,0.0769 -1.07487,0.11575 -0.337127,0.0273 -0.674505,0.055 -1.012153,0.0828 -0.385615,0.006 -0.771475,0.0114 -1.15761,0.0175 -0.352484,0.008 -0.705216,0.0153 -1.05822,0.0234 -0.276476,-0.0237 -0.553207,-0.047 -0.830207,-0.0702 -0.395359,-0.0392 -0.790964,-0.0782 -1.186844,-0.11693 -0.442132,-0.0626 -0.88451,-0.12499 -1.327161,-0.18709 -0.299862,-0.0704 -0.599977,-0.14058 -0.900363,-0.21047 -0.2691,-0.0754 -0.538451,-0.1505 -0.808075,-0.22536 -0.30153,-0.0967 -0.603316,-0.19319 -0.90537,-0.28938 -0.279482,-0.0981 -0.559218,-0.19595 -0.839226,-0.29353 -0.218848,-0.0926 -0.437952,-0.18492 -0.657323,-0.27698 -0.228492,-0.0974 -0.457205,-0.19455 -0.686264,-0.29146 -0.263978,-0.12878 -0.52812,-0.25724 -0.792588,-0.38547 -0.240532,-0.13087 -0.481308,-0.26147 -0.722368,-0.39181 -0.281597,-0.16663 -0.56344,-0.33299 -0.845566,-0.49909 -0.199663,-0.13521 -0.399578,-0.27014 -0.59977,-0.40482 -0.192076,-0.13191 -0.384405,-0.26355 -0.577008,-0.39493 -0.18787,-0.13272 -0.376,-0.26517 -0.564397,-0.39736 -0.201274,-0.16088 -0.402805,-0.32149 -0.604613,-0.48184 -0.203756,-0.16637 -0.40776,-0.33246 -0.612046,-0.4983 -0.215356,-0.19369 -0.430959,-0.38709 -0.646842,-0.58025 -0.173938,-0.16557 -0.348131,-0.33088 -0.522595,-0.49592 -0.149078,-0.15767 -0.298415,-0.31508 -0.448024,-0.47222 -0.104877,-0.11956 -0.210017,-0.23884 -0.315419,-0.35786"
       sodipodi:nodetypes="ccccccccccccccccccccccccccccccccc" />
    <path
       style="fill:none;stroke:#000000;stroke-width:0.15;stroke-linecap:butt;stroke-linejoin:miter;stroke-miterlimit:4;stroke-dasharray:none;stroke-opacity:1"
       d="M 70.129018,141.85414 V 128.80235"
       id="path16382" />
    <path
       style="fill:none;stroke:#000000;stroke-width:0.15;stroke-linecap:butt;stroke-linejoin:miter;stroke-miterlimit:4;stroke-dasharray:none;stroke-opacity:1"
       d="M 69.585416,141.82493 H 62.36518"
       id="path16384" />
    <path
       style="fill:none;stroke:#000000;stroke-width:0.15;stroke-linecap:butt;stroke-linejoin:miter;stroke-miterlimit:4;stroke-dasharray:none;stroke-opacity:1"
       d="M 69.585416,145.63686 H 62.36518"
       id="path16466" />
    <path
       style="fill:none;stroke:#000000;stroke-width:0.15;stroke-linecap:butt;stroke-linejoin:miter;stroke-miterlimit:4;stroke-dasharray:none;stroke-opacity:1"
       d="M 94.07381,141.85414 V 128.76928"
       id="path16468" />
    <path
       style="fill:none;stroke:#000000;stroke-width:0.15;stroke-linecap:butt;stroke-linejoin:miter;stroke-miterlimit:4;stroke-dasharray:none;stroke-opacity:1;marker-start:url(#Arrow2Lstart);marker-end:url(#Arrow2Lend)"
       d="M 70.42814,129.74506 H 93.773339"
       id="path16505" />
    <text
       xml:space="preserve"
       style="font-size:3.52778px;line-height:1.25;font-family:sans-serif;stroke-width:0.264583"
       x="80.305099"
       y="129.44739"
       id="text17613"><tspan
         sodipodi:role="line"
         id="tspan17611"
         style="font-style:normal;font-variant:normal;font-weight:600;font-stretch:normal;font-size:3.52778px;font-family:'Source Sans Pro';-inkscape-font-specification:'Source Sans Pro Semi-Bold';stroke-width:0.264583"
         x="80.305099"
         y="129.44739">44</tspan></text>
    <path
       style="fill:none;stroke:#000000;stroke-width:0.1;stroke-linecap:butt;stroke-linejoin:miter;stroke-miterlimit:4;stroke-dasharray:none;stroke-opacity:1;marker-start:url(#Arrow2Lstart);marker-end:url(#Arrow2Lend)"
       d="m 62.908566,141.86724 v 3.70194"
       id="path20087" />
    <text
       xml:space="preserve"
       style="font-size:3.52778px;line-height:1.25;font-family:sans-serif;stroke-width:0.264583"
       x="60.380157"
       y="144.8822"
       id="text20251"><tspan
         sodipodi:role="line"
         id="tspan20249"
         style="font-style:normal;font-variant:normal;font-weight:600;font-stretch:normal;font-size:3.52778px;font-family:'Source Sans Pro';-inkscape-font-specification:'Source Sans Pro Semi-Bold';stroke-width:0.264583"
         x="60.380157"
         y="144.8822">7</tspan></text>
  </g>
</svg>
