<?xml version="1.0" encoding="UTF-8" standalone="no"?>
<!-- Created with Inkscape (http://www.inkscape.org/) -->

<svg
   width="32.806484mm"
   height="33.936012mm"
   viewBox="0 0 32.806485 33.936013"
   version="1.1"
   id="svg5"
   inkscape:version="1.1 (c68e22c387, 2021-05-23)"
   sodipodi:docname="Suporte AREX_02.svg"
   xmlns:inkscape="http://www.inkscape.org/namespaces/inkscape"
   xmlns:sodipodi="http://sodipodi.sourceforge.net/DTD/sodipodi-0.dtd"
   xmlns="http://www.w3.org/2000/svg"
   xmlns:svg="http://www.w3.org/2000/svg">
  <sodipodi:namedview
     id="namedview7"
     pagecolor="#ffffff"
     bordercolor="#ffffff"
     borderopacity="1"
     inkscape:pageshadow="0"
     inkscape:pageopacity="0"
     inkscape:pagecheckerboard="false"
     inkscape:document-units="mm"
     showgrid="false"
     inkscape:zoom="1.4142136"
     inkscape:cx="6.7175144"
     inkscape:cy="79.195959"
     inkscape:window-width="1680"
     inkscape:window-height="987"
     inkscape:window-x="1912"
     inkscape:window-y="18"
     inkscape:window-maximized="1"
     inkscape:current-layer="layer1" />
  <defs
     id="defs2">
    <inkscape:path-effect
       effect="bspline"
       id="path-effect24432"
       is_visible="true"
       lpeversion="1"
       weight="33.333333"
       steps="2"
       helper_size="0"
       apply_no_weight="true"
       apply_with_weight="true"
       only_selected="false" />
    <inkscape:path-effect
       effect="bspline"
       id="path-effect24362"
       is_visible="true"
       lpeversion="1"
       weight="33.333333"
       steps="2"
       helper_size="0"
       apply_no_weight="true"
       apply_with_weight="true"
       only_selected="false" />
    <inkscape:path-effect
       effect="bspline"
       id="path-effect21627"
       is_visible="true"
       lpeversion="1"
       weight="33.333333"
       steps="2"
       helper_size="0"
       apply_no_weight="true"
       apply_with_weight="true"
       only_selected="false" />
    <marker
       style="overflow:visible"
       id="Arrow2Lend"
       refX="0"
       refY="0"
       orient="auto"
       inkscape:stockid="Arrow2Lend"
       inkscape:isstock="true">
      <path
         transform="matrix(-1.1,0,0,-1.1,-1.1,0)"
         d="M 8.7185878,4.0337352 -2.2072895,0.01601326 8.7185884,-4.0017078 c -1.7454984,2.3720609 -1.7354408,5.6174519 -6e-7,8.035443 z"
         style="fill:context-stroke;fill-rule:evenodd;stroke-width:0.625;stroke-linejoin:round"
         id="path16608" />
    </marker>
    <marker
       style="overflow:visible"
       id="Arrow2Lstart"
       refX="0"
       refY="0"
       orient="auto"
       inkscape:stockid="Arrow2Lstart"
       inkscape:isstock="true">
      <path
         transform="matrix(1.1,0,0,1.1,1.1,0)"
         d="M 8.7185878,4.0337352 -2.2072895,0.01601326 8.7185884,-4.0017078 c -1.7454984,2.3720609 -1.7354408,5.6174519 -6e-7,8.035443 z"
         style="fill:context-stroke;fill-rule:evenodd;stroke-width:0.625;stroke-linejoin:round"
         id="path16605" />
    </marker>
    <inkscape:path-effect
       effect="bspline"
       id="path-effect16345"
       is_visible="true"
       lpeversion="1"
       weight="33.333333"
       steps="2"
       helper_size="0"
       apply_no_weight="true"
       apply_with_weight="true"
       only_selected="false" />
    <inkscape:path-effect
       effect="bspline"
       id="path-effect14074"
       is_visible="true"
       lpeversion="1"
       weight="33.333333"
       steps="2"
       helper_size="0"
       apply_no_weight="true"
       apply_with_weight="true"
       only_selected="false" />
    <inkscape:path-effect
       effect="bspline"
       id="path-effect14037"
       is_visible="true"
       lpeversion="1"
       weight="33.333333"
       steps="2"
       helper_size="0"
       apply_no_weight="true"
       apply_with_weight="true"
       only_selected="false" />
    <inkscape:path-effect
       effect="bspline"
       id="path-effect13915"
       is_visible="true"
       lpeversion="1"
       weight="33.333333"
       steps="2"
       helper_size="0"
       apply_no_weight="true"
       apply_with_weight="true"
       only_selected="false" />
    <inkscape:path-effect
       effect="bspline"
       id="path-effect6218"
       is_visible="true"
       lpeversion="1"
       weight="33.333333"
       steps="2"
       helper_size="0"
       apply_no_weight="true"
       apply_with_weight="true"
       only_selected="false" />
    <inkscape:path-effect
       effect="bspline"
       id="path-effect6068"
       is_visible="true"
       lpeversion="1"
       weight="33.333333"
       steps="2"
       helper_size="0"
       apply_no_weight="true"
       apply_with_weight="true"
       only_selected="false" />
    <inkscape:path-effect
       effect="bspline"
       id="path-effect6062"
       is_visible="true"
       lpeversion="1"
       weight="33.333333"
       steps="2"
       helper_size="0"
       apply_no_weight="true"
       apply_with_weight="true"
       only_selected="false" />
    <inkscape:path-effect
       effect="bspline"
       id="path-effect1207"
       is_visible="true"
       lpeversion="1"
       weight="33.333333"
       steps="2"
       helper_size="0"
       apply_no_weight="true"
       apply_with_weight="true"
       only_selected="false" />
    <inkscape:path-effect
       effect="bspline"
       id="path-effect1121"
       is_visible="true"
       lpeversion="1"
       weight="33.333333"
       steps="2"
       helper_size="0"
       apply_no_weight="true"
       apply_with_weight="true"
       only_selected="false" />
  </defs>
  <g
     inkscape:label="Camada 1"
     inkscape:groupmode="layer"
     id="layer1"
     transform="translate(-20.949602,-84.232419)">
    <rect
       style="fill:none;fill-rule:evenodd;stroke:#000000;stroke-width:0.0999997;stroke-linecap:round;stroke-linejoin:round;stroke-miterlimit:4;stroke-dasharray:none;stop-color:#000000"
       id="rect21389"
       width="32.706486"
       height="2.8549109"
       x="20.999601"
       y="115.26352" />
    <path
       style="fill:none;stroke:#000000;stroke-width:0.15;stroke-linecap:butt;stroke-linejoin:miter;stroke-miterlimit:4;stroke-dasharray:none;stroke-opacity:1"
       d="m 31.429795,115.2869 0.771742,-9.26088 h 10.289877 l 0.678196,9.30766"
       id="path21506" />
    <path
       style="fill:none;stroke:#000000;stroke-width:0.15;stroke-linecap:butt;stroke-linejoin:miter;stroke-miterlimit:4;stroke-dasharray:none;stroke-opacity:1"
       d="m 32.201537,106.02602 -2.33861,9.28427"
       id="path21508" />
    <path
       style="fill:none;stroke:#000000;stroke-width:0.15;stroke-linecap:butt;stroke-linejoin:miter;stroke-miterlimit:4;stroke-dasharray:none;stroke-opacity:1"
       d="m 42.491414,106.02602 2.338608,9.33104"
       id="path21510" />
    <path
       style="fill:none;stroke:#000000;stroke-width:0.15;stroke-linecap:round;stroke-linejoin:miter;stroke-miterlimit:4;stroke-dasharray:none;stroke-opacity:1"
       d="m 32.201537,106.02602 c -0.02338,-2.75929 -0.04677,-5.51885 -0.05652,-7.08816 -0.0097,-1.569313 -0.0059,-1.948353 -0.0024,-2.220705 0.0034,-0.272353 0.0063,-0.438 0.01414,-0.589536 0.0078,-0.151535 0.02046,-0.288926 0.04383,-0.436084 0.02338,-0.147159 0.05748,-0.304037 0.09061,-0.442901 0.03313,-0.138865 0.06528,-0.259691 0.106449,-0.377532 0.04116,-0.117841 0.09134,-0.232637 0.146745,-0.36238 0.05541,-0.129744 0.116038,-0.274434 0.170473,-0.395716 0.05444,-0.121281 0.102664,-0.219118 0.150896,-0.316271 0.04823,-0.09715 0.09646,-0.193615 0.155034,-0.296986 0.05857,-0.103372 0.127471,-0.213612 0.206714,-0.330757 0.07924,-0.117146 0.168813,-0.241166 0.265974,-0.365203 0.09716,-0.124037 0.201888,-0.248058 0.327439,-0.374207 0.125551,-0.126149 0.271879,-0.25438 0.427406,-0.37259 0.155527,-0.11821 0.3202,-0.226368 0.467849,-0.31261 0.147648,-0.08624 0.278218,-0.150553 0.430036,-0.215637 0.151818,-0.06508 0.324842,-0.130937 0.481655,-0.182464 0.156813,-0.05153 0.297371,-0.08873 0.427607,-0.119048 0.130236,-0.03031 0.250126,-0.05374 0.367617,-0.07234 0.117492,-0.0186 0.232556,-0.03238 0.354928,-0.0422 0.122372,-0.0098 0.252027,-0.01572 0.425025,-0.01671 0.172998,-9.88e-4 0.389315,0.0029 0.548159,0.01218 0.158844,0.0093 0.260184,0.02389 0.371271,0.04095 0.111087,0.01705 0.231912,0.03654 0.364139,0.06401 0.132227,0.02747 0.275839,0.06288 0.402081,0.09852 0.126243,0.03564 0.235106,0.07146 0.335363,0.106959 0.100256,0.03549 0.19189,0.07063 0.276982,0.10682 0.08509,0.03619 0.163644,0.0734 0.243225,0.113713 0.07958,0.04032 0.160193,0.08372 0.230464,0.124976 0.07027,0.04125 0.130201,0.08031 0.202554,0.130063 0.07235,0.04975 0.157126,0.110161 0.239455,0.175953 0.08233,0.06579 0.16223,0.136922 0.233876,0.203634 0.07165,0.06671 0.135042,0.128988 0.202905,0.201133 0.06786,0.07214 0.14021,0.154136 0.218062,0.24785 0.07785,0.09371 0.161221,0.199131 0.234251,0.294564 0.07303,0.09543 0.135731,0.180871 0.193525,0.26163 0.05779,0.08076 0.110687,0.156834 0.163081,0.243788 0.05239,0.08695 0.104326,0.184759 0.152973,0.282326 0.04865,0.09757 0.09402,0.194869 0.135643,0.289414 0.04162,0.09454 0.07949,0.186301 0.117721,0.289448 0.03823,0.103147 0.07683,0.217667 0.113714,0.332966 0.03688,0.115299 0.07205,0.231369 0.106499,0.352184 0.03445,0.120814 0.06819,0.246369 0.09934,0.378332 0.03115,0.131963 0.05973,0.270329 0.07696,0.413108 0.01723,0.142778 0.02318,0.289982 0.02614,1.985049 0.003,1.695067 0.003,4.937867 0.003,8.180477"
       id="path21625"
       inkscape:path-effect="#path-effect21627"
       inkscape:original-d="m 32.201537,106.02602 c -0.02312,-2.75929 -0.04651,-5.51885 -0.07016,-8.27867 0.0042,-0.3788 0.0081,-0.75784 0.01169,-1.137155 0.0032,-0.165388 0.0061,-0.331036 0.0088,-0.496953 0.01294,-0.137131 0.02561,-0.274521 0.038,-0.412179 0.03437,-0.15662 0.06847,-0.313499 0.102314,-0.470646 0.03242,-0.120565 0.06458,-0.24139 0.09647,-0.362484 0.05044,-0.114533 0.100618,-0.229328 0.150529,-0.344387 0.0609,-0.144434 0.121532,-0.289124 0.181902,-0.434084 0.0485,-0.09758 0.09673,-0.195416 0.144694,-0.293521 0.0485,-0.0962 0.09673,-0.192661 0.144694,-0.289388 0.06917,-0.109982 0.138068,-0.220223 0.206705,-0.330729 0.08984,-0.123761 0.17941,-0.247782 0.268718,-0.37207 0.104997,-0.123762 0.209726,-0.247782 0.314192,-0.37207 0.146597,-0.127971 0.292924,-0.256202 0.438989,-0.384697 0.164945,-0.107899 0.329618,-0.216056 0.494031,-0.324482 0.130839,-0.06405 0.261409,-0.12836 0.391717,-0.192934 0.173294,-0.06559 0.346317,-0.131445 0.519078,-0.197562 0.140828,-0.03694 0.281385,-0.07415 0.42168,-0.111622 0.120156,-0.02315 0.240043,-0.04659 0.359668,-0.07028 0.115333,-0.01352 0.230397,-0.0273 0.345199,-0.04134 0.129922,-0.0056 0.259574,-0.01154 0.388964,-0.01767 0.21659,0.0042 0.432907,0.0081 0.648964,0.01169 0.101606,0.01487 0.202944,0.0295 0.304019,0.04385 0.121095,0.01976 0.241921,0.03924 0.362484,0.05846 0.14388,0.03568 0.287491,0.0711 0.430839,0.106249 0.109132,0.03609 0.217995,0.07192 0.326595,0.107486 0.09191,0.03541 0.183543,0.07055 0.274919,0.105421 0.07881,0.03747 0.157361,0.07468 0.235644,0.11162 0.08088,0.04368 0.161495,0.08708 0.241846,0.130225 0.0602,0.03933 0.120132,0.07839 0.179802,0.117195 0.08504,0.06068 0.169813,0.121092 0.254323,0.181242 0.08017,0.0714 0.16007,0.142531 0.239708,0.213397 0.06366,0.06255 0.127062,0.12482 0.190197,0.186833 0.07261,0.08226 0.144958,0.16425 0.217041,0.245978 0.08364,0.105687 0.167007,0.211105 0.250114,0.316261 0.06297,0.0857 0.125666,0.171141 0.188102,0.256315 0.05316,0.07634 0.106053,0.152415 0.158685,0.228229 0.0522,0.09808 0.10413,0.195886 0.155802,0.293438 0.04564,0.09758 0.09102,0.194879 0.136132,0.291932 0.03814,0.09204 0.07601,0.183796 0.113627,0.275299 0.03887,0.114791 0.07747,0.229312 0.115816,0.343573 0.03543,0.116339 0.0706,0.232408 0.105504,0.348216 0.03401,0.125823 0.06775,0.251378 0.101228,0.376673 0.02884,0.138639 0.05742,0.277004 0.08573,0.415116 0.0062,0.147477 0.01215,0.294681 0.01783,0.441621 2.65e-4,3.243204 2.65e-4,6.486004 0,9.728614"
       sodipodi:nodetypes="ccccccccccccccccccccccccccccccccccccccccccccccc" />
    <path
       style="fill:none;stroke:#000000;stroke-width:0.15;stroke-linecap:round;stroke-linejoin:miter;stroke-miterlimit:4;stroke-dasharray:none;stroke-opacity:1"
       d="m 32.233232,95.180868 c 0.06886,-0.283688 0.137757,-0.567561 0.19701,-0.789438 0.05925,-0.221877 0.108861,-0.381725 0.179142,-0.556766 0.07028,-0.175041 0.161229,-0.365206 0.242535,-0.527824 0.08131,-0.162617 0.152962,-0.297662 0.224628,-0.416196 0.07167,-0.118533 0.143323,-0.220508 0.23635,-0.339036 0.09303,-0.118528 0.207402,-0.253572 0.334892,-0.381751 0.127491,-0.12818 0.268049,-0.249445 0.418983,-0.360384 0.150935,-0.11094 0.312188,-0.211521 0.456655,-0.295434 0.144467,-0.08391 0.272114,-0.151147 0.440704,-0.230565 0.16859,-0.07942 0.378086,-0.17101 0.551561,-0.235807 0.173476,-0.0648 0.310865,-0.102798 0.464752,-0.139831 0.153886,-0.03703 0.324234,-0.0731 0.467976,-0.09941 0.143741,-0.02631 0.260836,-0.04285 0.492371,-0.0518 0.231535,-0.0089 0.577448,-0.01031 0.829836,-0.0035 0.252388,0.0068 0.411215,0.02184 0.563726,0.05081 0.152512,0.02897 0.298673,0.07185 0.433144,0.111801 0.13447,0.03995 0.257245,0.07698 0.372228,0.115483 0.114983,0.0385 0.222171,0.07845 0.338127,0.1267 0.115957,0.04825 0.240681,0.104762 0.341482,0.154826 0.100802,0.05007 0.177678,0.09364 0.268141,0.14506 0.09046,0.05142 0.194502,0.110671 0.290267,0.172358 0.09577,0.06169 0.183273,0.125768 0.259404,0.183998 0.07613,0.05823 0.1409,0.110595 0.222541,0.183644 0.08164,0.07305 0.180168,0.166754 0.264568,0.250132 0.0844,0.08338 0.154679,0.156412 0.225976,0.238759 0.0713,0.08235 0.143648,0.17399 0.208751,0.260811 0.0651,0.08682 0.12298,0.168813 0.188431,0.266658 0.06545,0.09785 0.138485,0.211533 0.204967,0.320401 0.06648,0.108868 0.126426,0.212908 0.175671,0.30834 0.04924,0.09543 0.08783,0.182252 0.122617,0.266312 0.03479,0.08406 0.06579,0.165363 0.09714,0.254936 0.03134,0.08957 0.06304,0.187406 0.0937,0.284561 0.03066,0.09716 0.06029,0.193614 0.09197,0.308679 0.03169,0.115065 0.06545,0.248732 0.09644,0.394112 0.03099,0.145379 0.05924,0.302473 0.07611,0.428553 0.01686,0.12608 0.02238,0.221162 0.02632,1.973234 0.0039,1.752071 0.0063,5.161021 0.0087,8.569771"
       id="path24360"
       inkscape:path-effect="#path-effect24362"
       inkscape:original-d="m 32.233232,95.180868 c 0.06917,-0.283612 0.138067,-0.567486 0.206705,-0.851627 0.04987,-0.159591 0.09948,-0.319439 0.148828,-0.479557 0.09122,-0.189908 0.182166,-0.380074 0.272852,-0.570508 0.07192,-0.134787 0.143581,-0.26983 0.214974,-0.405143 0.07192,-0.101712 0.143581,-0.203685 0.214974,-0.305925 0.114644,-0.134787 0.229019,-0.26983 0.343131,-0.405143 0.140828,-0.121005 0.281385,-0.242271 0.42168,-0.363802 0.161524,-0.10032 0.322777,-0.200901 0.483769,-0.30175 0.127916,-0.06697 0.255563,-0.134204 0.382947,-0.201705 0.209769,-0.09133 0.419265,-0.182925 0.628501,-0.274785 0.137661,-0.03774 0.275051,-0.07574 0.41218,-0.114007 0.170621,-0.03581 0.340971,-0.07187 0.51106,-0.108209 0.117368,-0.0163 0.234466,-0.03283 0.351302,-0.04965 0.346192,-0.0011 0.692105,-0.0024 1.037761,-0.0041 0.159097,0.01527 0.317923,0.03028 0.476488,0.04502 0.14643,0.04314 0.29259,0.08602 0.438489,0.128624 0.123044,0.03729 0.245818,0.07432 0.368331,0.111086 0.107452,0.04021 0.214636,0.08017 0.321558,0.119853 0.124993,0.05678 0.249716,0.113298 0.374177,0.169548 0.07715,0.04384 0.154025,0.08742 0.230641,0.130736 0.104308,0.05952 0.208348,0.118774 0.312125,0.177765 0.08777,0.06434 0.175276,0.128424 0.262517,0.192239 0.06503,0.05263 0.1298,0.104994 0.194303,0.157096 0.0988,0.09397 0.197324,0.187677 0.295589,0.28112 0.07055,0.0733 0.140825,0.146336 0.21084,0.219107 0.07261,0.0919 0.144959,0.183544 0.217041,0.274918 0.05814,0.08226 0.11602,0.16425 0.173633,0.24598 0.0733,0.113956 0.146337,0.227642 0.219108,0.341064 0.06021,0.104309 0.120154,0.208349 0.179834,0.312126 0.03885,0.08708 0.07744,0.173898 0.115755,0.260451 0.03127,0.08157 0.06228,0.162872 0.09302,0.243911 0.03196,0.09811 0.06365,0.195945 0.09509,0.293524 0.02989,0.09673 0.05952,0.193188 0.08888,0.289388 0.03403,0.133934 0.06779,0.267602 0.101286,0.401007 0.02851,0.157364 0.05676,0.314458 0.08475,0.471289 0.0058,0.09535 0.01129,0.190434 0.01654,0.285256 0.0027,3.409335 0.0051,6.818285 0.0072,10.227035"
       sodipodi:nodetypes="cccccccccccccccccccccccccccccccccccccc" />
    <path
       style="fill:none;stroke:#000000;stroke-width:0.15;stroke-linecap:round;stroke-linejoin:miter;stroke-miterlimit:4;stroke-dasharray:none;stroke-opacity:1"
       d="m 42.520646,105.6723 c 0.317899,0.67036 0.635646,1.3404 0.803504,1.69414 0.167859,0.35374 0.185767,0.39104 0.206214,0.42875 0.02045,0.0377 0.04334,0.0757 0.07015,0.1171 0.02681,0.0414 0.05748,0.0862 0.09212,0.12491 0.03464,0.0387 0.07316,0.0714 0.115535,0.10152 0.04237,0.0301 0.08866,0.0579 0.146251,0.0771 0.05759,0.0192 0.126462,0.03 0.217436,0.0341 0.09098,0.004 0.204097,0.001 0.316958,-0.001"
       id="path24430"
       inkscape:path-effect="#path-effect24432"
       inkscape:original-d="m 42.520646,105.6723 c 0.318012,0.67031 0.63576,1.34035 0.953243,2.01013 0.01822,0.0377 0.03614,0.075 0.05382,0.11212 0.02317,0.0383 0.04606,0.0763 0.0687,0.11401 0.03097,0.0451 0.06164,0.0899 0.09208,0.13446 0.03878,0.0329 0.07727,0.0656 0.115473,0.0979 0.04655,0.028 0.09282,0.0558 0.138855,0.0833 0.06916,0.0111 0.13803,0.0219 0.206651,0.0324 0.113384,-0.002 0.226498,-0.005 0.339351,-0.008"
       sodipodi:nodetypes="ccccccccc" />
    <path
       style="fill:none;stroke:#000000;stroke-width:0.15;stroke-linecap:round;stroke-linejoin:miter;stroke-miterlimit:4;stroke-dasharray:none;stroke-opacity:1"
       d="M 44.488816,108.24886 V 84.308147 l -0.455507,0.0044 -0.11989,0.03721 -0.187349,0.144443 c 0,0 -0.08104,0.107751 -0.115755,0.159163 -0.02523,0.04919 -0.06932,0.178716 -0.09508,0.227377 -0.03901,0.103619 -0.0266,0.163561 -0.06615,0.26665 -0.02178,0.09742 -0.03763,0.140825 -0.05995,0.237712 -0.02936,0.09328 -0.05899,0.186299 -0.08888,0.279052 -0.05899,0.158743 -0.118247,0.317214 -0.177767,0.475424 -0.08104,0.154608 -0.162344,0.308945 -0.243913,0.46302 -0.07691,0.135315 -0.154075,0.27036 -0.23151,0.405144 -0.07829,0.113266 -0.156832,0.226262 -0.235645,0.338997 -0.07415,0.09259 -0.136161,0.160117 -0.21084,0.252181 -0.07622,0.06848 -0.165099,0.161495 -0.241845,0.229443 -0.08793,0.07261 -0.176125,0.144959 -0.264584,0.217041 -0.08242,0.06159 -0.1651,0.12291 -0.248046,0.183968 -0.08518,0.0547 -0.170613,0.10913 -0.256316,0.163298 -0.110669,0.06641 -0.221599,0.132556 -0.332796,0.198437 -0.157524,0.07813 -0.315306,0.155983 -0.473356,0.233578 -0.24331,0.09606 -0.354584,0.146367 -0.598419,0.241891 -0.16539,0.04606 -0.46333,0.137335 -0.629246,0.182868 -0.195602,0.05275 -0.342978,0.08641 -0.535535,0.15195 -0.140698,0.03872 -0.298191,0.08957 -0.439415,0.127766 -0.144927,0.05386 -0.240504,0.06611 -0.385957,0.119438 -0.09426,0.03924 -0.300394,0.119561 -0.395177,0.158272 -0.138592,0.0663 -0.240235,0.124063 -0.379353,0.189837 -0.152701,0.08157 -0.272587,0.150471 -0.425814,0.23151 -0.104468,0.06779 -0.287745,0.17252 -0.39274,0.239779 -0.127896,0.09535 -0.276722,0.211104 -0.405144,0.305924 -0.08518,0.06503 -0.253294,0.224885 -0.338997,0.289388"
       id="path24434"
       sodipodi:nodetypes="cccccccccccccccccccccccccccccccc" />
    <path
       sodipodi:type="star"
       style="fill:none;fill-rule:evenodd;stroke:#000000;stroke-width:0.356779;stroke-linecap:round;stroke-linejoin:round;stroke-miterlimit:4;stroke-dasharray:none;stop-color:#000000"
       id="path29051"
       inkscape:flatsided="true"
       sodipodi:sides="6"
       sodipodi:cx="-92.21875"
       sodipodi:cy="-121.90625"
       sodipodi:r1="7.4073706"
       sodipodi:r2="6.4149714"
       sodipodi:arg1="1.0471976"
       sodipodi:arg2="1.5707963"
       inkscape:rounded="0"
       inkscape:randomized="0"
       d="m -88.515065,-115.49128 -7.407371,0 -3.703685,-6.41497 3.703686,-6.41497 7.407371,0 3.703685,6.41497 z"
       transform="matrix(0.28021671,0,0,0.28035363,63.192489,130.45934)" />
    <path
       sodipodi:type="star"
       style="fill:none;fill-rule:evenodd;stroke:#000000;stroke-width:0.30912;stroke-linecap:round;stroke-linejoin:round;stroke-miterlimit:4;stroke-dasharray:none;stop-color:#000000"
       id="path29133"
       inkscape:flatsided="true"
       sodipodi:sides="6"
       sodipodi:cx="-92.21875"
       sodipodi:cy="-121.90625"
       sodipodi:r1="7.4073706"
       sodipodi:r2="6.4149714"
       sodipodi:arg1="1.0471976"
       sodipodi:arg2="1.5707963"
       inkscape:rounded="0"
       inkscape:randomized="0"
       d="m -88.515065,-115.49128 -7.407371,0 -3.703685,-6.41497 3.703686,-6.41497 7.407371,0 3.703685,6.41497 z"
       transform="matrix(0.32154368,0,0,0.32546558,66.986994,135.95877)" />
    <circle
       style="fill:none;fill-rule:evenodd;stroke:#000000;stroke-width:0.1;stroke-linecap:round;stroke-linejoin:round;stroke-miterlimit:4;stroke-dasharray:none;stop-color:#000000"
       id="path29157"
       cx="37.334728"
       cy="96.288803"
       r="0.90950519" />
    <ellipse
       style="fill:none;fill-rule:evenodd;stroke:#000000;stroke-width:0.0999999;stroke-linecap:round;stroke-linejoin:round;stroke-miterlimit:4;stroke-dasharray:none;stop-color:#000000"
       id="circle29239"
       cx="37.34713"
       cy="96.276398"
       rx="1.1782227"
       ry="1.1947591" />
    <rect
       style="fill:none;fill-rule:evenodd;stroke:#000000;stroke-width:0.1;stroke-linecap:round;stroke-linejoin:round;stroke-miterlimit:4;stroke-dasharray:none;stop-color:#000000"
       id="rect29296"
       width="1.9099609"
       height="6.2323089"
       x="45.561615"
       y="93.138611" />
    <rect
       style="fill:none;fill-rule:evenodd;stroke:#000000;stroke-width:0.1;stroke-linecap:round;stroke-linejoin:round;stroke-miterlimit:4;stroke-dasharray:none;stop-color:#000000"
       id="rect29298"
       width="1.0666015"
       height="2.4308593"
       x="44.503284"
       y="95.048569" />
  </g>
</svg>
