<?xml version="1.0" encoding="UTF-8" standalone="no"?>
<svg
   width="835.90576"
   height="214.75313"
   version="1.1"
   id="svg190"
   sodipodi:docname="desenhotecnico.svg"
   inkscape:version="1.2.2 (732a01da63, 2022-12-09)"
   xmlns:inkscape="http://www.inkscape.org/namespaces/inkscape"
   xmlns:sodipodi="http://sodipodi.sourceforge.net/DTD/sodipodi-0.dtd"
   xmlns="http://www.w3.org/2000/svg"
   xmlns:svg="http://www.w3.org/2000/svg">
  <defs
     id="defs194" />
  <sodipodi:namedview
     id="namedview192"
     pagecolor="#505050"
     bordercolor="#ffffff"
     borderopacity="1"
     inkscape:showpageshadow="0"
     inkscape:pageopacity="0"
     inkscape:pagecheckerboard="1"
     inkscape:deskcolor="#505050"
     showgrid="false"
     inkscape:zoom="1.0480932"
     inkscape:cx="285.27996"
     inkscape:cy="237.57428"
     inkscape:window-width="1920"
     inkscape:window-height="1009"
     inkscape:window-x="-8"
     inkscape:window-y="-8"
     inkscape:window-maximized="1"
     inkscape:current-layer="g42" />
  <desc
     id="desc2">C:\Users\manuelf\Desktop\Barra\Modelos Barras\medidas\Barra24VCTLargura.dxf - scale = 1.000000</desc>
  <g
     fill="none"
     stroke="#000000"
     stroke-linecap="round"
     stroke-linejoin="round"
     stroke-miterlimit="10"
     stroke-width="1.1065"
     id="g42"
     transform="translate(-77.925408,-92.179795)">
    <path
       transform="matrix(0.90339,0,0,0.90349,-229.38,-514.4)"
       d="m 1176.2,844.87 -98.274,4.6117 m 97.474,-19.602 -98.533,4.6117 m -426.55,57.188 h 47.192 m -47.192,-48.19 h 47.192 m -288.85,29.51 h 3.8894 m 1.5506,-5.3 h 30.597 m -64.307,12.68 h 3.3709 m -35.521,-20.29 h -4.6674 m 101.13,1.38 h -30.597 m -47.453,4.16 h -23.077 m 65.087,5.3 h 3.8894 m -20.749,-6.46 h -3.8895 m -16.85,15.91 h 3.3709 m -7.7809,-10.6 h -23.077 m 4.667,5.53 v 1.8447 m 0,-19.135 v 2.0752 m 39.93,-2.0752 v 2.0752 m -47.45,17.055 v -19.138 m 7.52,19.138 h -7.5196 m 46.68,0 -3.6302,3.2282 m -9.3398,-3.2282 v 3.2282 m -33.71,-22.358 h 7.5196 m 4e-4,19.13 h 39.932 m -21.522,-13.6 v 8.0704 m 78.05,2.0796 h -30.597 m -5.443,-9.23 v -2.3058 m -37.6,18.216 -3.8895,-3.2282 m 20.74,-12.682 v -2.3058 m -21.26,9.4558 h -23.077 m 44.597,3.69 h -39.932 m 65.862,1.84 h -25.93 m -0.26,-14.98 h 3.8895 m 20.75,8.76 v 2.0752 m -20.75,-0.005 h -3.8895 m 3.8895,-10.83 v 2.3058 m -3.63,-6.4558 h -39.932 m 64.312,6.45 h -3.8894 m 5.4394,-6.45 h -25.93 m 3.63,12.91 v 2.0752 m -3.63,2.3048 v 1.8447 m 24.38,-4.1547 h -3.8894 m -20.751,-2.07 h 3.8895 m 16.86,-8.76 h 3.8894 m 32.151,4.61 h -30.597 m -26.193,6.22 v -2.0752 m -7.52,6.2252 v 3.2282 m -36.82,-16.828 h 23.077 m -23.077,11.76 h 4.6674 m -4.6674,-15.22 v 15.219 m 70.53,1.841 v -19.138 m -1.55,4.158 v 2.3058 m -64.31,-4.3858 h 39.932 m 20.488,12.91 v -2.0752 m 779.44,-34.815 30.338,-1.3835 m -30.838,-4.1465 30.597,-1.3835 m 9.803,67.094 9.3348,0.46115 m 0.065,-10e-4 18.929,0.69177 m -19.729,8.3081 v 1.3835 m -17.9,-8.3035 -30.597,-1.3835 m 48.497,9.6835 27.486,1.3835 m -17.686,-10.374 -2.593,-0.23057 m 16.693,-3.2294 -0.7778,10.607 m -31.422,-12.227 4.6673,0.23059 m 31.133,15.219 0.7778,-13.604 m -8.5778,2.544 0.2594,-2.9976 m -28.259,-1.3924 -0.2594,3.2282 m -9.8406,10.152 0.7779,-13.604 m 40.722,12.454 -22.818,-1.1529 m -9.382,2.5329 4.4081,0.2306 m 11.692,-3.4606 h -0.5186 m -6.1814,0.69 -9.3347,-0.46117 m -0.065,10e-4 v 2.9976 m 5.5,-13.368 4.4081,0.23057 m -4.7081,1.1494 0.2593,-1.3835 m -14.259,6.9135 -30.597,-1.3835 m 49.297,-3.9165 -4.6674,-0.23058 m 13.667,3.4608 -0.5187,5.3034 m -26.881,-10.613 9.3348,0.23059 m 9.0652,0.46941 v 1.3835 m 19.2,-0.4635 3.8894,0.23058 m -16.589,3.2294 h -0.5186 m 2.5186,5.53 h -2.3336 m -16.066,3.23 -9.3347,-0.23058 m 13.735,0.46058 0.2593,-1.3835 m 5.2407,-11.986 19.188,0.92235 m 3.912,0.22765 4.4081,0.23058 m -32.708,10.609 4.408,0.23058 m -0.01,1.3794 -4.6673,-0.23057 m 11.169,-3.4594 0.2593,-5.534 m -24.359,-4.376 -30.597,-1.6141 m 29.997,13.834 -30.597,-1.6141 m 49.097,-0.006 0.5187,-7.3787 m -823.32,-35.281 h 30.597 m -30.597,5.31 h 30.597 m 743.7,25.13 30.597,1.6141 m -30.897,3.9259 30.597,1.3835 m -30.297,-3.4635 0.2593,-4.8423 m -1.0593,14.992 0.2593,-4.6117 m -0.059,-0.008 0.5186,-5.534 m -473.69,-11.756 472.96,21.905 m -472.96,-36.895 474,21.905 m 57.27,-59.255 0.2594,5.534 m -9.5594,-8.994 v 1.3835 m 7.3,7.8365 h -0.5186 m 2.8186,-0.23 -2.3337,0.23057 m -11.166,4.6094 v -1.3835 m 13.2,-8.9865 -2.3336,0.23058 m -16.066,-0.23058 9.3347,-0.46118 m -17.835,11.301 -0.7779,-13.604 m 25.378,2.994 h -0.7779 m 0.4779,5.53 -0.5186,-5.534 m 13.019,-4.606 3.6301,-0.23058 m -40.43,14.751 -30.597,1.6141 m 76.497,-2.9941 -0.7778,-13.604 m -36.122,12.224 0.2594,2.9976 m 3.6406,-12.458 v -1.1529 m 5.5,13.373 -4.6674,0.23059 m -0.033,-1.3806 4.6674,-0.23059 m -9.067,1.6106 h 4.408 m -5.408,-13.6 0.2592,3.2282 m -0.2592,-3.2282 h 4.6673 m -13.767,0.46 9.0755,-0.46116 m 9.6245,2.7712 18.929,-0.92233 m 3.571,-3.2277 0.778,10.607 m 0.022,-0.007 -23.078,0.92233 m 0.278,1.8477 v 1.3835 m 18.4,-11.534 v -2.9976 m 3.6,-0.2224 4.6675,-0.23058 m -27.468,2.7606 h -4.6673 m 5.4673,12.22 27.486,-1.3835 m -36.586,1.6135 -9.3348,0.46117 m 18.135,-3.9112 -0.2593,-7.3787 m -18.141,5.2987 -30.597,1.3835 m 30.097,-8.3035 -30.597,1.3835 m 44.297,-2.5335 4.6673,-0.2306 m -18.167,6.9206 -30.338,1.3835 m 48.538,-8.3035 19.188,-0.92233 m -18.688,11.302 -9.0754,0.46116 m -611.66,36.429 h -3.8895 m 3.8895,-14.99 h -3.8895 m -5.1905,14.99 h -3.8895 m -5.1905,-14.99 h -153.5 m 153.5,14.99 h -153.5 m 0,-10.15 v 5.3034 m 0,-10.143 v 4.8423 m 162.58,-4.8423 h -3.8895 m -158.69,10.15 v 4.8423 m 193.18,16.598 h 70.529 m -105.02,-11.99 v -7.1481 m 9.08,7.3781 v -7.3787 m -9.08,7.1487 -5.186,-0.23059 m 116.43,6.9206 v -0.23059 m 0,0.46059 v -0.23057 m 0,0.46057 v -0.23058 m -0.26,0.46058 0.25929,-0.2306 m -0.25929,0.4606 v -0.23057 m 0,0.46057 v -0.2306 m 0,0.4606 v -0.23058 m -0.26,0.46058 0.25931,-0.23058 m -0.25931,0.46058 v -0.23058 m 0,0.46058 v -0.2306 m -0.26,0.4606 0.25929,-0.23057 m -0.25929,0.46057 v -0.23058 m -0.26,0.46058 0.25929,-0.2306 m -0.51929,0.4706 0.25931,-0.23057 m -0.25931,0.46057 v -0.23059 m -0.26,0.23059 h 0.25929 m -0.25929,0.23 v -0.23058 m -0.26,0.46058 0.2593,-0.23059 m -0.5093,0.46059 0.2593,-0.23058 m -0.5193,0.23058 h 0.2593 m -0.2593,0.23 v -0.23058 m -0.26,0.23058 h 0.25929 m -0.51929,0.23 0.25929,-0.23059 m -0.51929,0.46059 0.25931,-0.23058 m -0.51931,0.23058 h 0.25929 m -0.51929,0.23 0.2593,-0.23059 m -0.5193,0.23059 h 0.2593 m -0.5193,0 h 0.2593 m -0.5193,0.23 0.2593,-0.23058 m -0.5193,0.23058 h 0.2593 m -0.5193,0 h 0.25929 m -0.51929,0 h 0.25929 m -0.51929,0.23 0.25931,-0.23059 m -0.51931,0.23059 h 0.25929 m -0.50929,0 h 0.25931 m -0.51931,0 h 0.25929 m -101.39,-29.05 v -0.23058 m 0,0.46058 v -0.23058 m -0.26,0.46058 0.25931,-0.23058 m -0.25931,0.46058 v -0.23059 m -0.26,0.23059 h 0.25928 m -0.25928,0.23 v -0.23058 m -0.26,0.46058 0.25931,-0.23058 m -0.51931,0.23058 h 0.25929 m -0.25929,0.23 v -0.2306 m -0.26,0.2306 h 0.25931 m -0.51931,0 h 0.25928 m -0.50928,0 h 0.2593 m -0.5193,0 h 0.25931 m -0.51931,0 h 0.25929 m -0.51929,0 h 0.2593 m -0.5193,0 h 0.25929 m -0.25929,-0.23 v 0.2306 m -0.26,-0.2306 h 0.25931 m -0.51931,-0.23 0.2593,0.23058 m -0.5193,-0.46058 0.25929,0.23058 m -0.25929,-0.46058 v 0.23059 m -0.26,-0.23059 h 0.2593 m -0.2593,-0.23 v 0.23058 m 0,-0.46058 v 0.23058 m 0,-0.46058 v 0.23058 m 105.02,-19.141 h -70.529 m -15.301,13.6 v 2.5364 m -0.78,20.754 -5.4452,-0.23058 m 0.005,-25.129 v 7.3787 m 98.27,23.751 v -37.355 m -5.96,-5.305 h -0.25929 m 0.50929,0 h -0.25931 m 0.51931,0 h -0.25929 m 0.51929,0 h -0.25931 m 0.51931,0 h -0.25929 m 0.51929,0 h -0.25929 m 0.51929,0.23 -0.2593,-0.23058 m 0.5193,0.23058 h -0.2593 m 0.5193,0 h -0.2593 m 0.5193,0.23 -0.2593,-0.23058 m 0.5193,0.23058 h -0.2593 m 0.5193,0.23 -0.25929,-0.2306 m 0.51929,0.2306 h -0.25931 m 0.51931,0.23 -0.25929,-0.23057 m 0.51929,0.46057 -0.25929,-0.23059 m 0.51929,0.46059 -0.2593,-0.23059 m 0.5093,0.46059 -0.2593,-0.23058 m 0.5193,0.23058 h -0.2593 m 0.2593,0.23 v -0.23058 m 0.26,0.46058 -0.25929,-0.23058 m 0.25929,0.47058 v -0.23059 m 0.26,0.46059 -0.25931,-0.23058 m 0.51931,0.46058 -0.25929,-0.2306 m 0.51929,0.4606 -0.25929,-0.23057 m 0.25929,0.46057 v -0.23059 m 0,0.46059 v -0.23058 m 0.26,0.46058 -0.25931,-0.23059 m 0.25931,0.46059 v -0.23058 m 0,0.46058 v -0.23058 m 0,0.46058 v -0.23059 m 0.26,0.46059 -0.25929,-0.23058 m 0.25929,0.46058 v -0.23059 m 0,0.46059 v -0.23057 m 0,0.46057 v -0.2306 m -107.35,6.6906 5.186,-0.23058 m -5.186,17.521 v 7.3787 m -3.89,-17.519 v -7.1481 m 33.97,36.428 h 0.51859 m -1.2986,0 h 0.77788 m -1.2979,-0.23 0.51861,0.23059 m -1.2986,-0.23059 h 0.7779 m -1.2879,-0.23 0.51859,0.23058 m -1.2986,-0.23058 h 0.7779 m -1.2979,-0.23 0.51859,0.23059 m -1.2986,-0.46059 0.77788,0.23058 m -1.2979,-0.46058 0.51861,0.23059 m -1.0386,-0.46059 0.51859,0.23058 m -1.2886,-0.46058 0.77789,0.23058 m -1.2979,-0.46058 0.5186,0.23059 m -1.0386,-0.69059 0.51859,0.46117 m -1.0386,-0.70117 0.5186,0.23057 m -1.0386,-0.46057 0.51859,0.2306 m -1.0386,-0.6906 0.51861,0.46115 m -1.0386,-0.92115 0.51857,0.46118 m -1.0286,-0.92118 0.51861,0.46116 m -1.0386,-0.69116 0.51859,0.2306 m -1.0386,-0.6906 0.5186,0.46117 m -0.7786,-0.92117 0.25931,0.46115 m -0.77931,-0.92115 0.51858,0.46118 m -0.77858,-1.1612 0.2593,0.69176 m -0.7793,-1.1518 0.5186,0.46116 m -0.7786,-0.92116 0.25929,0.46116 m -0.51929,-0.92116 0.25931,0.46117 m -0.50931,-1.1512 0.25929,0.69176 m -0.51929,-1.1518 0.2593,0.46117 m -0.5193,-1.1512 0.2593,0.69175 m -0.5193,-1.1518 0.25929,0.46116 m -0.25929,-1.1612 v 0.69175 m -0.26,-1.1518 0.25931,0.46117 m -0.25931,-1.1512 v 0.69175 m 0,-1.1518 v 0.46117 m -0.26,-1.1512 0.25928,0.69175 m -0.25928,-1.1518 v 0.46117 m -19.19,-6.2312 v 0.23058 m 0,-0.46058 v 0.23059 m 0.26,-0.46059 -0.2593,0.23058 m 0.2593,-0.46058 v 0.23059 m 0.26,-0.23059 h -0.25929 m 0.25929,-0.23 v 0.23058 m 0.26,-0.23058 h -0.2593 m 0.2593,-0.23 v 0.23059 m 0.26,-0.23059 h -0.25931 m 0.51931,-0.23 -0.25929,0.23058 m 0.51929,-0.23058 h -0.2593 m 0.5193,0 h -0.25929 m 0.51929,0 h -0.25931 m 0.50931,0 h -0.2593 m 0.5193,0 h -0.25928 m 0.51928,0.23 -0.25931,-0.23058 m 0.51931,0.23058 h -0.25929 m 0.25929,0.23 v -0.23059 m 0.26,0.23059 h -0.25931 m 0.25931,0.23 v -0.23058 m 0.26,0.46058 -0.25928,-0.23059 m 0.25928,0.46059 v -0.23058 m 0.26,0.23058 h -0.25931 m 0.25931,0.23 v -0.23059 m 0,0.46059 v -0.23058 m 0,-17.059 v 7.1481 m 5.19,17.522 h -5.186 m 9.076,-17.29 v -0.23058 m -0.26,0.46058 0.2593,-0.23058 m -0.2593,0.46058 v -0.23058 m 0,0.46058 v -0.23059 m -0.26,0.23059 h 0.25931 m -0.25931,0.23 v -0.23058 m -0.26,0.23058 h 0.25928 m -0.25928,0.23 v -0.23058 m -0.26,0.23058 h 0.25931 m -0.51931,0.23 0.25929,-0.2306 m -0.51929,0.2306 h 0.2593 m -0.5193,0 h 0.2593 m -0.5193,0 h 0.25929 m -0.51929,0 h 0.25931 m -0.51931,0 h 0.25928 m -0.51928,0 h 0.25931 m -0.25931,-0.23 v 0.2306 m -0.26,-0.2306 h 0.25929 m -0.51929,-0.23 0.25931,0.23058 m -0.50931,-0.46058 0.25929,0.23058 m -0.25929,-0.46058 v 0.23059 m -0.26,-0.23059 h 0.2593 m -0.2593,-0.23 v 0.23058 m 0,-0.46058 v 0.23058 m 0,-0.46058 v 0.23058 m 58.34,10.599 v -0.23059 m 0,0.70059 v -0.46116 m -0.26,0.69116 0.25931,-0.2306 m -0.51931,0.6906 0.25929,-0.46116 m -0.51929,0.69116 0.25931,-0.23059 m -0.51931,0.46059 0.25928,-0.23058 m -0.51928,0.23058 h 0.2593 m -0.7793,0.23 0.5186,-0.23058 m -0.7786,0.23058 h 0.2593 m -0.7693,0 h 0.5186 m -0.7786,-0.23 0.2593,0.23058 m -0.7793,-0.23058 h 0.51859 m -0.77859,-0.23 0.25929,0.23058 m -0.51929,-0.46058 0.2593,0.23059 m -0.5193,-0.69059 0.25929,0.46116 m -0.51929,-0.69116 0.25931,0.2306 m -0.25931,-0.7006 v 0.46116 m 0,-0.69116 v 0.23059 m 0,-0.69059 v 0.46116 m 0,-0.69116 v 0.23058 m 0.26,-0.69058 -0.25931,0.46117 m 0.51931,-0.69117 -0.25929,0.23059 m 0.51929,-0.46059 -0.2593,0.23058 m 0.5193,-0.46058 -0.25929,0.23059 m 0.77929,-0.23059 h -0.51859 m 0.77859,-0.23 -0.2593,0.23058 m 0.7693,-0.23058 h -0.5186 m 0.7786,0 h -0.2593 m 0.7793,0.23 -0.5186,-0.23058 m 0.7786,0.23058 h -0.2593 m 0.5193,0.23 -0.25928,-0.23059 m 0.51928,0.46059 -0.25931,-0.23058 m 0.51931,0.46058 -0.25929,-0.23059 m 0.51929,0.69059 -0.25931,-0.46117 m 0.25931,0.69117 v -0.23058 m 0,0.69058 v -0.46116 m -48.23,3.0012 v 2.5364 m -6.22,-5.5364 v 7.6093 m 5.7,0.2307 h -0.2593 m 0.5193,0 h -0.25929 m 0.51929,0.23 -0.25931,-0.23059 m 0.51931,0.23059 h -0.25928 m 0.25928,0.23 v -0.23058 m 0.26,0.23058 h -0.25931 m 0.25931,0.23 v -0.23058 m 0,0.47058 v -0.23058 m -0.52,-24.679 v 0.69176 m 0.26,-1.1518 -0.25928,0.46117 m 0.25928,-1.1512 v 0.69175 m 0,-1.3818 v 0.69175 m 0.26,-1.1518 -0.25931,0.46117 m 0.25931,-1.1612 v 0.69176 m 0.26,-1.1518 -0.25929,0.46116 m 0.51929,-0.92116 -0.2593,0.46116 m 0.5193,-1.1512 -0.2593,0.69176 m 0.5093,-1.1518 -0.25929,0.46118 m 0.51929,-1.1512 -0.25931,0.69175 m 0.51931,-1.1518 -0.25929,0.46116 m 0.77929,-0.92116 -0.5186,0.46117 m 0.7786,-0.93117 -0.2593,0.46118 m 0.7793,-0.92118 -0.51858,0.46115 m 0.77858,-0.92115 -0.25931,0.46117 m 0.77931,-0.92117 -0.5186,0.46117 m 1.0386,-0.92117 -0.51859,0.46117 m 1.0286,-0.92117 -0.51861,0.46117 m 1.0386,-0.69117 -0.51857,0.23058 m 1.0386,-0.69058 -0.51861,0.46116 m 1.0386,-0.92116 -0.51859,0.46118 m 1.0386,-0.70118 -0.5186,0.23059 m 1.0386,-0.46059 -0.51859,0.23058 m 1.0386,-0.69058 -0.5186,0.46116 m 1.2886,-0.69116 -0.77789,0.23059 m 1.2979,-0.46059 -0.51859,0.23059 m 1.0386,-0.46059 -0.51861,0.23057 m 1.2986,-0.46057 -0.77788,0.2306 m 1.2979,-0.2306 h -0.51859 m 1.2986,-0.23 -0.7779,0.23058 m 1.2879,-0.23058 h -0.51859 m 1.2986,-0.23 -0.7779,0.23058 m 1.2979,-0.23058 h -0.51861 m 1.2986,0 h -0.77788 m 1.2979,0 h -0.51859 m -24.891,18.91 v -7.3787 m -14.27,0.4587 v 23.981 m 0,-23.981 5.186,-0.23057 m 67.424,7.1506 v -0.2306 m 0,0.6906 v -0.46116 m -0.26,0.69116 0.25931,-0.23058 m -0.51931,0.46058 0.25929,-0.23059 m -0.51929,0.46059 0.25931,-0.23058 m -0.51931,0.46058 0.25928,-0.23058 m -0.51928,0.46058 0.2593,-0.2306 m -0.7793,0.2306 h 0.5186 m -0.7786,0 h 0.2593 m -0.7693,0 h 0.5186 m -0.7786,0 h 0.2593 m -0.7793,-0.23 0.51859,0.2306 m -0.77859,-0.4606 0.25929,0.23058 m -0.51929,-0.46058 0.2593,0.23058 m -0.5193,-0.46058 0.25929,0.23059 m -0.51929,-0.46059 0.25931,0.23058 m -0.25931,-0.69058 v 0.46116 m 0,-0.69116 v 0.2306 m 0,-0.6906 v 0.46116 m 0,-0.70116 v 0.23059 m 0.26,-0.69059 -0.25931,0.46116 m 0.51931,-0.69116 -0.25929,0.23058 m 0.51929,-0.46058 -0.2593,0.23059 m 0.5193,-0.46059 -0.25929,0.23058 m 0.77929,-0.46058 -0.51859,0.2306 m 0.77859,-0.2306 h -0.2593 m 0.7693,0 h -0.5186 m 0.7786,0 h -0.2593 m 0.7793,0 h -0.5186 m 0.7786,0.23 -0.2593,-0.2306 m 0.5193,0.4606 -0.25928,-0.23058 m 0.51928,0.46058 -0.25931,-0.23059 m 0.51931,0.46059 -0.25929,-0.23058 m 0.51929,0.69058 -0.25931,-0.46116 m 0.25931,0.70116 v -0.23059 m 0,0.69059 v -0.46116 m -54.45,-6.6888 5.4452,-0.23059 m -9.3352,17.521 v 0.23058 m 0,-0.46058 v 0.23059 m 0.26,-0.46059 -0.2593,0.23058 m 0.2593,-0.46058 v 0.23059 m 0.25,-0.23059 H 612.729 m 0.25929,-0.23 v 0.23058 m 0.26,-0.23058 h -0.25931 m 0.25931,-0.23 v 0.23059 m 0.26,-0.23059 H 613.249 m 0.51929,-0.23 -0.25931,0.23058 m 0.51931,-0.23058 h -0.25928 m 0.51928,0 h -0.25931 m 0.51931,0 H 614.289 m 0.51929,0 h -0.2593 m 0.5193,0 h -0.2593 m 0.2593,0.23 v -0.23058 m 0.26,0.23058 H 615.069 m 0.51929,0.23 -0.25931,-0.23059 m 0.51931,0.46059 -0.25928,-0.23058 m 0.51928,0.46058 -0.25931,-0.23059 m 0.25931,0.46059 v -0.23058 m 0.26,0.46058 -0.2593,-0.23059 m 0.2593,0.46059 v -0.23058 m 6.74,-18.439 v -0.23058 m 0,0.46058 v -0.23059 m -0.26,0.23059 h 0.25931 m -0.25931,0.23 v -0.23058 m -0.26,0.23058 h 0.25928 m -0.25928,0.23 v -0.23059 m -0.26,0.23059 h 0.25931 m -0.51931,0 h 0.25929 m -0.25929,0.23 v -0.23058 m -0.26,0.23058 h 0.2593 m 92.571,11.53 473.74001,-21.905 m -473.74001,6.915 472.96001,-21.905 m 0.51,10.145 -0.2593,-5.534 m -0.041,0.004 -0.2593,-4.6117 m 0.8593,14.982 -0.2593,-4.8422 m -565.56001,35.742 v 0.2306 m 0,-0.4606 v 0.23058 m 0,-0.46058 v 0.23058 m 0,-0.46058 v 0.23058 m 0,-0.46058 v 0.23059 m 0,-0.46059 v 0.23058 m 0,-0.46058 v 0.23058 m 0,-0.46058 v 0.2306 m 0,-0.4606 v 0.23057 m 0,-0.47057 v 0.23059 m 0,-0.46059 v 0.23059 m 0,-0.46059 v 0.23057 m 0,-0.46057 v 0.23059 m 0,-0.46059 v 0.23058 m 0,-0.46058 v 0.23059 m 0,-0.46059 v 0.23058 m -0.26,-0.46058 0.25931,0.23059 m -0.25931,-0.46059 v 0.23058 m 0,-0.46058 v 0.23059 m 0,-0.46059 v 0.23058 m 0,-0.46058 v 0.23057 m 0,-0.46057 v 0.2306 m 0,-0.4606 v 0.23058 m 0,-0.46058 v 0.23059 m 0,-0.46059 v 0.23058 m 0,-0.46058 v 0.23059 m 0,-0.47059 v 0.23057 m 0,-0.46057 v 0.2306 m 0,-0.4606 v 0.23057 m 0,-0.46057 v 0.23058 m 0,-0.46058 v 0.2306 m 0,-0.4606 v 0.23057 m 0,-0.46057 v 0.23059 m 0,-0.46059 v 0.23058 m 0,-0.46058 v 0.23059 m 0,-0.46059 v 0.23058 m 0,-0.46058 v 0.2306 m 0,-0.4606 v 0.23057 m 0,-0.46057 v 0.23058 m 0,-0.46058 v 0.23059 m 0,-0.46059 v 0.23058 m 0,-0.46058 v 0.23059 m 0,-0.46059 v 0.23058 m 0,-0.47058 v 0.23059 m 0,-0.46059 v 0.23058 m 0,-0.46058 v 0.23058 m 0,-0.46058 v 0.23058 m 0,-0.46058 v 0.23059 m 0,-0.46059 v 0.23059 m 0,-0.46059 v 0.23057 m 0,-0.46057 v 0.2306 m 0,-0.4606 v 0.23058 m 0,-0.46058 v 0.23058 m 0.26,-0.23058 h -0.25931 m 0.25931,-0.23 v 0.23059 m 0,-0.46059 v 0.23058 m 0,-0.46058 v 0.23058 m 0,-0.46058 v 0.23058 m 0,-0.46058 v 0.2306 m 0,-0.4606 v 0.23057 m 0,-0.46057 v 0.23059 m 0,-0.47059 v 0.23059 m 0,-0.46059 v 0.23058 m 0,-0.46058 v 0.23058 m 0,-0.46058 v 0.23058 m 0,-0.46058 v 0.23059 m 0,-0.46059 v 0.23058 m 0,-0.46058 v 0.2306 m 0,-0.4606 v 0.23057 m 0,-0.46057 v 0.23059 m 0,17.989 v -0.23057 m 0,0.46057 v -0.23059 m -19.19,1.8406 -5.186,-0.23059 m 23.336,-24.669 h 0.2593 m -9.3293,25.13 h -5.186 m 14.516,0.46 -5.4452,-0.23058 m 6.2252,-22.829 v -0.23057 m 0,0.46057 v -0.23058 m 553.12001,-168.79 H 997.56899 m 178.14001,-9.68 H 997.56899 m -347.24,15.68 h 32.153 m -32.153,-21.68 h 32.153 m -268.37,13.61 h 30.597 m 0.003,-5.54 h -30.597 m -65.863,-8.99 39.932,6.6869 m -21.002,9.9131 v -6.9175 m 0,6.9175 h 3.8895 m 3.3705,-6.91 v 6.9175 m 5.96,-0.008 v -6.9175 m 33.71,6.9175 h -26.708 m -16.332,-6.91 h -3.8895 m 46.93,-3 h -25.93 m 25.93,9.91 v -9.9151 m -26.7,3.0051 v 6.9175 m -16.34,-0.008 v -6.9175 m 12.71,0.008 v 6.9175 m -43.05,-0.008 v -16.602 m 7.52,0.002 h -7.5196 m 33.71,16.6 h -3.3709 m 9.3309,0 h -5.9639 m -3.3661,-6.91 h 3.3709 m 9.3391,6.91 h 3.6302 m -3.6302,0 h -3.3709 m 7.0009,-6.91 h -3.6302 m -3.3798,0 h 3.3709 m -16.591,6.91 h -26.448 m 924.18001,-0.69 -0.2593,-0.23058 m -46.441,0.23158 h -30.338 m 49.538,-10.84 v -0.69175 m 27.2,11.532 -0.5185,-0.23058 m 0.018,0.92058 v -6.9175 m 0.5,0.6975 -0.5185,0.23059 m -18.181,-5.5406 -2.3336,-1.3835 m 21.034,6.6935 h -0.5185 m -17.682,-5.31 -2.593,-1.3835 m 21.093,12.914 h -0.2593 m -27.241,-6.91 v -2.767 m -0.8,-0.003 h 19.447 m -19.147,-3.23 h -9.3347 m 37.335,6 v 6.9175 m 0,-0.6975 v -5.534 m -33,-0.686 v -5.3034 m -4.4,2.5334 v -3.2282 m 37.1,12.908 v 1.3835 m -28,-13.604 h -4.6673 m 24.067,2.54 v 2.767 m 8.6,6.913 h -0.5185 m 0.018,-0.69 h 0.5185 m -0.019,0 v -5.534 m -28,-0.686 v -5.3034 m 0.3,0.6834 v -1.3835 m 28,6.6935 -0.2593,0.23059 m -46.44,5.9894 h 45.896 m -45.896,-6.91 h 13.743 m -44.143,5.99 v 0.23058 m 0,-0.46058 v 0.23058 m 0,-0.46058 v 0.23059 m 0,-0.46059 v 0.23058 m 0,-0.46058 v 0.23058 m 0,-0.46058 v 0.2306 m 0,-0.4606 v 0.23057 m 0,-0.46057 v 0.23059 m 0,-0.46059 v 0.23059 m 0,-0.46059 v 0.23057 m 0,-0.47057 v 0.23059 m 0,-0.46059 v 0.23058 m 71.9,-3.6806 v -4.6117 m -41.5,-1.3883 v 3.2282 m 18.4,2.7718 v -5.3034 m -9.1,2.5334 v -3.2282 m 9.9,5.9982 v -2.767 m 6.2,-3.233 h -0.5186 m -55.281,9.22 v 0.23059 m 0,-0.46059 v 0.23058 m 0,-0.46058 v 0.23059 m 0,-0.46059 v 0.23058 m 0,-0.46058 v 0.23059 m 0,-0.46059 v 0.23058 m 0,-0.46058 v 0.23057 m 0,-0.46057 v 0.2306 m 0,-0.4606 v 0.23058 m 0,-0.46058 v 0.23059 m 0,-0.46059 v 0.23058 m 0,-0.46058 v 0.23059 m 49.1,-6.9206 h 0.5187 m 22.781,6 v -2.767 m 4.7,3.457 h -0.2593 m -46.441,0 h -30.338 m 48.738,-0.69 h 27.486 m -45.886,-2.77 h 9.3347 m 32.965,0 v -1.8447 m 4.1,10.835 h 0.2593 m -0.7593,-5.53 v 5.534 m -21,-12.224 v 1.3835 m -15.6,1.8465 h 4.4081 m 5.4919,-3.23 v 1.3835 m 26.7,4.6165 h 0.7778 m -0.2778,6.91 v 1.3835 m -4.1,-12.914 h -0.7778 m -22.322,0 v -0.69175 m 17.9,12.222 v 1.3835 m -11.7,-14.294 h 0.2593 m 16.341,3.23 h 0.2592 m -42.259,2.77 v 6.9175 m 46.4,-6.2275 v 5.534 m -37.1,-12.224 h -9.3347 m 37.135,14.3 h 9.3347 m -4.9347,-12.92 h -22.818 m -49.082,11.3 v 0.23057 m 0,-0.46057 v 0.2306 m 0,-0.4606 v 0.23058 m 0,-0.46058 v 0.23058 m 0,-0.46058 v 0.23058 m 0,-0.46058 v 0.23059 m 0,-0.69059 v 0.46116 m -0.2,-0.69116 0.2593,0.2306 m -0.2593,-0.6906 v 0.46116 m 0,-0.69116 v 0.23059 m 0,-0.70059 v 0.46116 m 0,-0.69116 v 0.23058 m 0,-0.69058 v 0.46117 m 0,-0.92117 v 0.46117 m 0,-0.92117 v 0.46117 m 0,-0.92117 v 0.46117 m 0,-0.69117 v 0.23058 m 0,-0.69058 v 0.46117 m 0,-0.92117 v 0.46116 m 0,-0.92116 v 0.46118 m 0,-0.70118 v 0.23057 m 0,-0.69057 v 0.46118 m 0.2,-0.69118 -0.2593,0.23058 m 0.2593,-0.46058 v 0.23058 m 0,-0.69058 v 0.46117 m 0,-0.69117 v 0.2306 m 0,-0.4606 v 0.23058 m 0,-0.46058 v 0.23057 m 0,-0.46057 v 0.23059 m 0,-0.46059 v 0.23058 m 0,-0.23058 h 0.5186 m -473.69001,9.68 h 473.22001 m 0.55,-0.46 v -0.23058 m 0,0.46058 v -0.2306 m 0,0.4606 v -0.23057 m 0,0.23057 h -0.5186 m 0.5186,-9.45 v -0.23058 m 0,0.46058 v -0.23059 m 0,0.46059 v -0.23057 m 0,0.46057 v -0.23058 m 0,0.46058 v -0.2306 m 0,0.4606 v -0.23057 m 0,0.46057 v -0.2306 m 0,0.4606 v -0.23058 m 0,0.46058 v -0.23058 m 0,0.46058 v -0.23058 m 0,0.46058 v -0.2306 m 0.2,0.2306 h -0.2593 m 0.2593,0.24 v -0.23057 m 0,0.46057 v -0.23058 m 0,0.46058 v -0.2306 m 0,0.4606 v -0.23057 m -473.97001,-3.2294 h 473.22001 m 67.95,0 v 2.767 m -0.5,6.913 v 1.3835 m -37.1,-1.3835 v -0.69175 m 13.7,-6.2182 v -2.767 m -13.7,-0.003 v -3.2282 m 0,6.6882 v -0.69175 m 24.6,-5.9982 v 1.3835 m 0.3,-1.3835 h -0.2593 m -644.64001,12.91 h -153.5 m 0,-9.68 v 9.6845 m 153.5,-9.6845 h -153.5 m 167.77,13.83 v -8.9928 m -14.27,-9.4472 23.078,-0.69174 m 16.602,20.982 h 70.529 m -105.02,-1.85 v -0.23058 m 0.26,0.23058 h -0.2593 m 0.5193,0 h -0.25929 m 0.25929,0.23 v -0.2306 m 0.26,0.2306 h -0.2593 m 0.5193,0 h -0.25931 m 0.51931,0 h -0.25929 m 0.51929,0 h -0.2593 m 0.5193,0 h -0.25929 m 0.51929,0 h -0.25931 m 0.50931,0 h -0.2593 m 0.5193,0 h -0.25928 m 0.51928,0 h -0.25931 m 0.51931,0 h -0.25929 m 0.51929,0 h -0.25931 m 0.51931,0 h -0.25928 m 0.25928,-0.23 v 0.2306 m 0.26,-0.2306 h -0.25931 m 5.4493,0.23 v -0.2306 m 0.26,0.2306 h -0.2593 m 0.2593,0.23 v -0.23057 m 0.25,0.23057 h -0.25929 m 0.51929,0 h -0.25931 m 0.51931,0 h -0.25929 m 0.51929,0 h -0.25931 m 0.25931,0.24 v -0.2306 m 0.26,0.2306 h -0.25928 m 0.51928,0 h -0.25931 m 0.51931,0 h -0.25929 m 0.51929,0 h -0.2593 m 0.5193,0 h -0.2593 m 0.5193,0 h -0.25929 m 0.51929,0 h -0.25931 m 0.25931,-0.24 v 0.2306 m 0.26,-0.2306 h -0.25928 m 0.51928,0 h -0.25931 m 0.25931,-0.23 v 0.23057 m 0.26,-0.23057 h -0.2593 m -12.711,-9.22 v -8.7622 m 17.89,18.912 -23.078,-0.69175 m 116.43,-0.008 v -18.908 m -102.16,9.458 v -8.9928 m 9.07,19.143 h -0.2593 m 0.2593,0.23 v -0.23059 m 0.26,0.23059 h -0.2593 m 0.5193,0 h -0.2593 m 0.2593,0.23 v -0.23059 m 0.26,0.23059 h -0.25929 m 91.009,-21.45 h -4.6674 m -105.01,19.6 v -8.7622 m 34.49,-10.838 h -13.743 m -0.007,21.68 h 13.743 m -15.813,-21.22 0.25929,-0.23058 m -0.51929,0.23058 h 0.2593 m -0.2593,0.23 v -0.23059 m -0.26,0.23059 h 0.2593 m -0.5193,0 h 0.2593 m 2.5907,20.99 h -0.77789 m -16.072,-19.6 v 8.7622 m 0,-8.9922 v 0.23057 m -0.26,-0.23057 h 0.25931 m -0.25931,-0.23 v 0.23059 m -0.26,-0.23059 h 0.25928 m -0.51928,0 h 0.25931 m -0.51931,0 h 0.25929 m -0.51929,0 h 0.25931 m -0.51931,0 h 0.25928 m -0.50928,0 h 0.2593 m -0.5193,0 h 0.25931 m -0.51931,0 h 0.25929 m -0.51929,0 h 0.2593 m -0.5193,0 h 0.25929 m -0.51929,0 h 0.25931 m -0.51931,0.23 0.2593,-0.23059 m -0.5193,0.23059 h 0.25929 m -0.51929,0 h 0.2593 m -0.2593,0.23 v -0.23057 m 18.93,19.831 v -0.23058 m 0.26,0.23058 h -0.25931 m 0.51931,0 h -0.25928 m 0.51928,0 h -0.25931 m 0.51931,0 h -0.25929 m -15.821,-10.84 v 8.9928 m -9.08,-8.9928 v 9.4539 m 18.16,-9.4539 v 9.2234 m 0,-18.443 v 9.2234 m 92.05,10.837 h 4.6674 m 0.2526,-21.68 h -0.25929 m 0.51929,0 h -0.25931 m 0.51931,0.23 -0.25929,-0.2306 m 0.51929,0.2306 h -0.25929 m 0.25929,0.23 V 673.081 m 0.26,0.23058 h -0.25931 m 0.25931,0.23 v -0.23059 m 0,0.47059 V 673.551 m 0.26,0.23058 h -0.25929 m 0.25929,0.23 V 673.781 m 0,0.46058 V 674.011 m -90.75,-1.1594 h -0.2593 m 0.5093,0 h -0.25929 m -0.77071,0 h 0.25929 m -0.51929,0 h 0.25931 m -0.51931,0 h 0.25928 m -0.51928,0.23 h 0.25931 m 0.78069,-0.23 h 0.77789 m -25.938,1.39 v 9.454 m 25.68,10.836 h 0.25929 m -0.51929,0 h 0.2593 m -0.5193,0 h 0.2593 m 91.011,-1.15 v -0.2306 m 0,0.4606 v -0.23058 m -0.26,0.23058 h 0.25929 m -0.25929,0.23 v -0.23057 m 0,0.46057 v -0.23059 m -0.26,0.23059 h 0.25931 m -0.25931,0.23 v -0.23059 m -0.26,0.23059 h 0.25929 m -0.25929,0.23 v -0.23058 m -0.26,0.23058 h 0.25929 m -0.51929,0 h 0.25931 m -0.51931,0 h 0.25929 m -97.229,-20.06 h 0.2593 m -0.2593,-0.23 v 0.23059 m -0.26,-0.23059 h 0.25931 m -0.51931,0 h 0.25928 m -0.51928,0 h 0.25931 m -0.51931,0 h 0.25929 m -0.51929,0 h 0.2593 m -0.5193,0 h 0.2593 m -0.5193,0 h 0.25929 m -0.51929,0 h 0.25931 m -0.51931,0 h 0.25928 m -0.51928,0 h 0.25931 m -0.51931,0 h 0.25929 m -0.51929,0 h 0.25931 m -0.50931,0.23 0.25929,-0.23059 m -0.51929,0.23059 h 0.2593 m -0.2593,0.23 v -0.23059 m 95.94,-1.6194 h -70.529 m -16.601,17.3 v 0.2306 m 0,-0.4606 v 0.23058 m 0,-0.46058 v 0.23059 m 0,-0.46059 v 0.23058 m 0,-0.47058 v 0.23058 m 0,-0.46058 v 0.23058 m 0,-0.46058 v 0.23059 m 0,-0.46059 v 0.23059 m 0,-0.46059 v 0.23057 m 0,-0.46057 v 0.2306 m 0.26,-0.4606 -0.2593,0.23058 m 0.2593,-0.46058 v 0.23058 m 0,-0.46058 v 0.23058 m 0,-0.46058 v 0.23059 m 0,-0.46059 v 0.23058 m 0,-0.46058 v 0.23058 m 0,-0.46058 v 0.2306 m 0,-0.4606 v 0.23057 m 0,-0.46057 v 0.23059 m 0,-0.46059 v 0.23059 m 0,-0.46059 v 0.23057 m 0,-0.47057 v 0.23059 m 0.26,-0.23059 h -0.2593 m 0.2593,-0.23 v 0.23058 m 0,-0.46058 v 0.23059 m 0,-0.46059 v 0.23058 m 0,-0.46058 v 0.23059 m 0,-0.46059 v 0.23058 m 0,-0.46058 v 0.23059 m 0,-0.46059 v 0.23058 m -0.52,6.4594 v 3.4587 m 0.52,-10.379 v 0.23057 m 0,-0.46057 v 0.2306 m 0,-0.4606 v 0.23058 m 0,-0.46058 v 0.23059 m 0,-0.46059 v 0.23058 m 0,-0.46058 v 0.23059 m -0.26,-0.46059 0.2593,0.23057 m -0.2593,-0.46057 v 0.2306 m 0,-0.4606 v 0.23058 m 0,-0.47058 v 0.23057 m 0,-0.46057 v 0.2306 m 0,-0.4606 v 0.23058 m 0,-0.46058 v 0.23058 m 0,-0.46058 v 0.23058 m 0,-0.46058 v 0.2306 m 0,-0.4606 v 0.23057 m 0,-0.46057 v 0.2306 m 0,-0.4606 v 0.23058 m -0.26,-0.23058 h 0.2593 m -0.2593,-0.23 v 0.23057 m 0,-0.46057 v 0.23059 m 0,-0.46059 v 0.23058 m 0,-0.46058 v 0.23059 m 0,-0.46059 v 0.23058 m 0,-0.46058 v 0.23059 m 0,-0.46059 v 0.23058 m 0,-0.46058 v 0.23058 m 0,-0.47058 v 0.23058 m 0,-0.46058 v 0.23059 m 0,-0.46059 v 0.23059 m 0,-3.6906 v 3.4588"
       id="path4" />
  </g>
  <g
     stroke="#000000"
     id="g188"
     transform="translate(-25.779447,199.04363)" />
</svg>
