<?xml version="1.0" encoding="UTF-8" standalone="no"?>
<svg
   width="1e3"
   height="190.03"
   version="1.1"
   viewBox="0 0 1e3 190.03"
   xml:space="preserve"
   id="svg332"
   sodipodi:docname="desenhotecnico.svg"
   inkscape:version="1.2.2 (732a01da63, 2022-12-09)"
   xmlns:inkscape="http://www.inkscape.org/namespaces/inkscape"
   xmlns:sodipodi="http://sodipodi.sourceforge.net/DTD/sodipodi-0.dtd"
   xmlns="http://www.w3.org/2000/svg"
   xmlns:svg="http://www.w3.org/2000/svg"><defs
     id="defs336" /><sodipodi:namedview
     id="namedview334"
     pagecolor="#505050"
     bordercolor="#ffffff"
     borderopacity="1"
     inkscape:showpageshadow="0"
     inkscape:pageopacity="0"
     inkscape:pagecheckerboard="1"
     inkscape:deskcolor="#505050"
     showgrid="false"
     inkscape:zoom="1.168"
     inkscape:cx="500"
     inkscape:cy="95.034247"
     inkscape:window-width="1920"
     inkscape:window-height="1009"
     inkscape:window-x="-8"
     inkscape:window-y="-8"
     inkscape:window-maximized="1"
     inkscape:current-layer="svg332" /><text
     transform="matrix(.907 0 0 .90695 -145.78 -26.247)"
     x="352.77798"
     y="42.779858"
     fill="#000000"
     font-family="Lato"
     font-size="19.104px"
     letter-spacing="0px"
     stroke="#000000"
     stroke-width=".10866"
     word-spacing="0px"
     style="font-variant-caps:normal;font-variant-east-asian:normal;font-variant-ligatures:normal;font-variant-numeric:normal;line-height:125%"
     xml:space="preserve"
     id="text4"><tspan
       x="352.77798"
       y="42.779858"
       font-family="Lato"
       font-size="19.104px"
       stroke="#000000"
       stroke-width=".10866"
       style="font-variant-caps:normal;font-variant-east-asian:normal;font-variant-ligatures:normal;font-variant-numeric:normal"
       id="tspan2">A</tspan></text><g
     transform="matrix(.90789 0 0 .90789 -148.95 31.329)"
     stroke="#000"
     stroke-width="1.1015"
     id="g18"><path
       transform="matrix(-1.5617,0,0,-1.5621,240.57,98.055)"
       d="m43.643 71.307h-243.34"
       fill="#4d4d4d"
       stroke-width=".7052"
       id="path6" /><g
       stroke-linecap="round"
       stroke-linejoin="round"
       id="g16"><path
         transform="matrix(-1.5617,0,0,-1.5621,163.1,98.055)"
         d="m-247.65 69.021v4.6436l-5.9083-2.3121 5.9083-2.3509"
         stroke-width=".7052"
         id="path8" /><path
         transform="matrix(-1.5617,0,0,-1.5621,240.57,98.055)"
         d="m42.421 73.645v-4.6436l5.9083 2.3121-5.9083 2.3509"
         stroke-width=".7052"
         id="path10" /><path
         transform="matrix(.999 0 0 .999 37.44 -63.417)"
         d="m127.08 43.6 0.11828 72.339"
         fill="none"
         stroke-width="1.1026"
         id="path12" /><path
         transform="matrix(.999 0 0 .999 432.12 -63.417)"
         d="m127.08 43.6 0.11828 72.339"
         fill="none"
         stroke-width="1.1026"
         id="path14" /></g></g><text
     transform="matrix(0.907,0,0,0.90695,611.54,-26.247)"
     x="352.77798"
     y="42.779858"
     fill="#000000"
     font-family="Lato"
     font-size="19.104px"
     letter-spacing="0px"
     stroke="#000000"
     stroke-width="0.10866"
     word-spacing="0px"
     style="line-height:125%;font-variant-ligatures:normal;font-variant-caps:normal;font-variant-numeric:normal;font-variant-east-asian:normal"
     xml:space="preserve"
     id="text22"><tspan
       x="352.77798"
       y="42.779858"
       font-family="Lato"
       font-size="19.104px"
       stroke="#000000"
       stroke-width="0.10866"
       style="font-variant-ligatures:normal;font-variant-caps:normal;font-variant-numeric:normal;font-variant-east-asian:normal"
       id="tspan20">D</tspan></text><g
     transform="matrix(.90789 0 0 .90789 725.45 31.329)"
     stroke="#000"
     stroke-width="1.1015"
     id="g36"><path
       transform="matrix(-1.5617,0,0,-1.5621,240.57,98.055)"
       d="m43.643 71.307h-78.185"
       fill="#4d4d4d"
       stroke-width=".7052"
       id="path24" /><g
       stroke-linecap="round"
       stroke-linejoin="round"
       id="g34"><path
         transform="matrix(-1.5617,0,0,-1.5621,-94.052,98.055)"
         d="m-247.65 69.021v4.6436l-5.9083-2.3121 5.9083-2.3509"
         stroke-width=".7052"
         id="path26" /><path
         transform="matrix(-1.5617,0,0,-1.5621,240.57,98.055)"
         d="m42.421 73.645v-4.6436l5.9083 2.3121-5.9083 2.3509"
         stroke-width=".7052"
         id="path28" /><path
         transform="matrix(.999 0 0 .999 37.44 -63.417)"
         d="m127.08 43.6 0.11828 72.339"
         fill="none"
         stroke-width="1.1026"
         id="path30" /><path
         transform="matrix(.999 0 0 .999 174.97 -63.417)"
         d="m127.08 43.6 0.11828 30.678"
         fill="none"
         stroke-width="1.1026"
         id="path32" /></g></g><text
     transform="matrix(.907 0 0 .90695 322.85 -27.295)"
     x="98.293945"
     y="143.83748"
     fill="#000000"
     font-family="Lato"
     font-size="19.104px"
     letter-spacing="0px"
     stroke="#000000"
     stroke-width=".10866"
     word-spacing="0px"
     style="font-variant-caps:normal;font-variant-east-asian:normal;font-variant-ligatures:normal;font-variant-numeric:normal;line-height:125%"
     xml:space="preserve"
     id="text40"><tspan
       x="98.293945"
       y="143.83748"
       font-family="Lato"
       font-size="19.104px"
       stroke="#000000"
       stroke-width=".10866"
       style="font-variant-caps:normal;font-variant-east-asian:normal;font-variant-ligatures:normal;font-variant-numeric:normal"
       id="tspan38">B</tspan></text><g
     transform="matrix(.90789 0 0 .90789 422.25 242.92)"
     stroke="#000"
     stroke-width="1.1015"
     id="g54"><path
       transform="matrix(0,1.4002,1.5618,0,-104.45,-197.93)"
       d="m57.397 71.333-67.24-0.0259"
       fill="#4d4d4d"
       stroke-width=".74483"
       id="path42" /><g
       stroke-linecap="round"
       stroke-linejoin="round"
       id="g52"><path
         transform="matrix(0,1.5621,1.5618,0,-104.45,-196.33)"
         d="m-8.5008 69.021v4.6436l-5.9083-2.3121 5.9083-2.3509"
         stroke-width=".70518"
         id="path44" /><path
         transform="matrix(0,1.5621,1.5618,0,-104.45,-215.69)"
         d="m61.493 73.645v-4.6436l5.9083 2.3121-5.9083 2.3509"
         stroke-width=".70518"
         id="path46" /><path
         transform="matrix(.999 0 0 .999 -109.49 -292.14)"
         d="m141.48 72.665h-31.468"
         fill="none"
         stroke-width="1.1026"
         id="path48" /><path
         transform="matrix(.999 0 0 .999 -109.49 -311.64)"
         d="m137.3 202.05h-27.29"
         fill="none"
         stroke-width="1.1026"
         id="path50" /></g></g><text
     transform="matrix(0.907,0,0,0.90695,39.319,-24.543)"
     x="846.42407"
     y="157.73505"
     fill="#000000"
     font-family="Lato"
     font-size="19.104px"
     letter-spacing="0px"
     stroke="#000000"
     stroke-width="0.10866"
     word-spacing="0px"
     style="line-height:125%;font-variant-ligatures:normal;font-variant-caps:normal;font-variant-numeric:normal;font-variant-east-asian:normal"
     xml:space="preserve"
     id="text58"><tspan
       x="846.42407"
       y="157.73505"
       font-family="Lato"
       font-size="19.104px"
       stroke="#000000"
       stroke-width="0.10866"
       style="font-variant-ligatures:normal;font-variant-caps:normal;font-variant-numeric:normal;font-variant-east-asian:normal"
       id="tspan56">C</tspan></text><g
     transform="matrix(.90789 0 0 .90789 451.61 242.54)"
     stroke="#000"
     stroke-width="1.1015"
     id="g72"><path
       transform="matrix(0,1.5621,-1.5618,0,499.86,-195.95)"
       d="m87.032 71.307h-96.875"
       fill="#4d4d4d"
       stroke-width=".70518"
       id="path60" /><g
       stroke-linecap="round"
       stroke-linejoin="round"
       id="g70"><path
         transform="matrix(0,1.5621,-1.5618,0,499.86,-195.95)"
         d="m-8.5008 69.021v4.6436l-5.9083-2.3121 5.9083-2.3509"
         stroke-width=".70518"
         id="path62" /><path
         transform="matrix(0,1.5621,-1.5618,0,499.86,-199.91)"
         d="m84.837 73.645v-4.6436l5.9083 2.3121-5.9083 2.3509"
         stroke-width=".70518"
         id="path64" /><path
         transform="matrix(.999 0 0 .999 -452.38 -291.75)"
         d="m823.05 72.665h25.175"
         fill="none"
         stroke-width="1.1026"
         id="path66" /><path
         transform="matrix(.999 0 0 .999 -452.38 -130.75)"
         d="m823.05 72.665h25.175"
         fill="none"
         stroke-width="1.1026"
         id="path68" /></g></g><g
     fill="none"
     stroke="#000"
     id="g330"><g
       transform="matrix(1.2664 0 0 1.2664 1266.4 1292)"
       stroke-linecap="round"
       stroke-linejoin="round"
       stroke-width=".78964"
       id="g242"><path
         transform="scale(1,-1)"
         d="m-304.4 911.68v69.5m53.75-106.25h-30m60 36.5v70m8.9474 0v-70m-94.947 45.5c-1.5995-0.63357-2.65-2.1796-2.65-3.9m0-13.2c0-1.7204 1.0505-3.2664 2.65-3.9m-2.65 17.1v-13.2m86.15-28.9h-0.5m11.947-1.5h-8.9474m-60 1.5h-23.75m80.25 0h-26.5m40-1.5v1.5m-63.75 53.255c-2.9537-6e-5 -2.1646-5.8861 0.68484-5.1082m1.1449 0.66101c1.6499 1.6343 0.49261 4.4472-1.8297 4.4472m63.75 19.245v-1.5m-58.039-15.666c-3.3272 7.5e-4 -3.5303-4.9177-0.21432-5.1912m1.3019 0.22956c0.25256 0.11632 0.48484 0.2724 0.68796 0.46229m0.75706 1.3113c0.37845 1.6301-0.85918 3.188-2.5326 3.188m48.039-55.334h-2.5m12.5-1.5h-1.0526m0 1.5h1.0526m-12.5 71h2.5m-60-72.5h-23.75m80.75 0h-27m-53.75 71.75v0.74997m80.25-71v71m0.5 3e-5h0.5m12.5 0h-1.0526m-45.197-17.745c-2.3223-1e-5 -3.4796-2.8129-1.8297-4.4472m1.1449-0.66101c2.8494-0.77794 3.6385 5.1081 0.68484 5.1082m-49.75-52.505v69.5m2.25 0.75v1.5m80.75-74h0.5m-81.25 74 93.75 6e-5m-71.445-28.415c-1.9541 2e-5 -3.2098-2.0748-2.3034-3.806 0.90637-1.7311 3.327-1.8812 4.4402-0.27522m0.45215 1.2423c0.14061 1.5238-1.0587 2.8389-2.589 2.8389m31.445-44.085h27m-80.75 0h23.75m-2.5 38.1c-2.1459 1e-5 -3.3679-2.4527-2.0756-4.1657 1.2923-1.7131 3.9862-1.2118 4.5756 0.85164m0.0146 1.3752c-0.30034 1.1426-1.3332 1.939-2.5146 1.939m-21.25 34.4c-1.2426 0-2.25-1.0074-2.25-2.25m2.25 0.75c-0.41421 0-0.75-0.33579-0.75-0.75m0.75-69.5v-0.74997m-2.25 70.25h2.25m41.789-14.916c-1.6734-2e-5 -2.911-1.5579-2.5326-3.188m0.75707-1.3113c0.20312-0.18989 0.43539-0.34597 0.68795-0.46229m1.3019-0.22956c3.316 0.27352 3.1129 5.192-0.21432 5.1912m50.909 15.666h-8.9474m0-71h8.9474m-11.947 71h-80.75m-2.25-70.25c0-1.2426 1.0074-2.25 2.25-2.25m81.25 0h2.5m-58.406 50.849c-1.7594-1e-5 -3.0108-1.711-2.4778-3.3877s2.5427-2.351 3.9792-1.335m0.84977 1.0127c0.81426 1.7247-0.44393 3.71-2.3512 3.71m-25.344 21.651h80.25m-56.501-111.5h30m-15 93.523 1.5-2.5981m13.5-86.425v-4.5m0 76v-71.5m-16.5 86.425 1.5 2.5981m-1.5-2.5981c-7.6649-0.77035-13.5-7.2215-13.5-14.925m30 0c1e-4 7.7035-5.8351 14.155-13.5 14.925m-16.5-90.925v76m48.981 2.0906 1.3199-1.8951m2.9489-0.19551c0 2.8995-2.3505 5.25-5.25 5.25s-5.25-2.3505-5.25-5.25 2.3505-5.25 5.25-5.25 5.25 2.3505 5.25 5.25zm-7.5511-0.19554 0.98123 2.0906m4.3199-1.895c0 1.6568-1.3432 3-3 3s-3-1.3432-3-3 1.3432-3 3-3 3 1.3432 3 3zm-0.69889 0.19551-0.98122-2.0906-2.3011-0.19553m-0.33866 3.9856 2.3011 0.19553m-1.9624-4.1812-1.3199 1.8951m8.0511 35.696v-3e-5m3.2739-74.85c0.92252 0.0771 1.6685 0.78311 1.7961 1.7m-6.64 0.65v-0.65m6.64 0.65v-0.65m-5.07 2.15v3e-5m-1.57-2.15c0.11817-0.90931 0.85066-1.6154 1.7637-1.7h3.0802m11.924 4.3508h1.0526m-13 0h0.5m12.5 0v70m-10 0h-3m3-70h-2.5m2.5 0h8.9474m-22.536 36.322-1e-5 -1e-5m3.7606-1.274c6e-5 1.1767-0.95382 2.1306-2.1305 2.1306-1.1767 6e-5 -2.1307-0.95388-2.1306-2.1306 0-1.1767 0.95392-2.1306 2.1306-2.1305 1.1766 0 2.1305 0.95386 2.1305 2.1305zm-2.5226-2.0853h2e-5m0.70158 4.074h-2e-5m21.649 32.963h-10m-3 0h-0.5m0-70h0.5m-647.86 40.643h-1.201m11.406 0h-3.8717m8.8307 0h-3.8712m8.7309 0h-3.8973m11.46 0h-1.201m-138.37 33.267h250.5m0.75-73.125h-3e-5m-252-1.0867h3e-5m257.75 28.462v14m1.5 0v-14m-265 14v-14m-1.5 0v14m274.25-0.5v-13m-7 0v13m-275-13v13m7 0v-13m147.01 11h1.2152m-11.598 0h4.3565m-9.1946 0h4.3395m-9.2989 0h4.34m-11.549 0h1.2152m-103.44 39.15c-1.7204 0-3.2664-1.0505-3.9-2.65m21 0c-0.63357 1.5995-2.1796 2.65-3.9 2.65h-13.2m242.6-36.65 3e-5 -5e-5m0-14-3e-5 -5e-5m0-1.0269h3e-5m0 11.218h-3e-5m0-3.9868 3e-5 -0.0267m-3e-5 5.21h3e-5m0-10.819-3e-5 -0.0106m0 12.067 3e-5 -0.0161m0-6.4313-3e-5 -0.0267m3e-5 6.458-3e-5 -0.0161m3e-5 -4.3879h-3e-5m3e-5 -8.4424h-3e-5m0 0.81663 3e-5 -0.0106m-252-0.56877-3e-5 5e-5m0 14 3e-5 5e-5m0-2.9586h-3e-5m0-12.124h3e-5m0 2.0073-3e-5 0.0135m0 6.0621 3e-5 0.0268m-3e-5 6.0354 3e-5 0.0135m-3e-5 -12.138 3e-5 0.0135m-3e-5 11.09h3e-5m0 1.0073-3e-5 0.0135m0-13.145h3e-5m-3e-5 9.1244h3e-5m0-2.0684-3e-5 0.0269m156-42c1.3333 0 1.3333 2 0 2m-60 0c-1.3333 0-1.3333-2 0-2m35.326 38.823c4.9706 0 9 4.0294 9 9m-7.4904 7.8222-1.1118-2.4239m-131.72-53.221h-2m131.89 48.486v5.1303m122.11 27.134c0 0.41421-0.33579 0.75-0.75 0.75m2.25-81v80.25m-122.5-80.75c1.3333 0 1.3333 2 0 2m2.9498 54.755h-1.1144m103.16-56.755h-60m-175.25 81.5c-0.41421 0-0.75-0.33579-0.75-0.75m126.88-41.927v1.2m29.123-40.023h-10m-130 18h60m-78.5-18.5v-2.5m121.57 57.334 4e-5 3.3901m-103.07-55.724c-1.3333 0-1.3333-2 0-2m60 16h-60m107.35 42.75-2.4555-0.75656m-1.8826-11.494c5e-3 -1.1572 0.91379-2.1087 2.0696-2.1664m-0.18702 10.765 1.7172-1.6994m124.44-66.399h-242.11m126.06 69.043v0.74912m-19.481-8.9693v10.8m34.474-56.623h10m-23.165 54.755v-1.1102m119.16-55.145h1.5m-135.14 59.055h1.4953m131.39 21.195h0.74997m-96-64.75c1.3333 0 1.3333 2 0 2m-35.474 49.623h4.5208m1.9067-28.8v1.2m-50.953-40.023c1.3333 0 1.3333 2 0 2m70 0c-1.3333 0-1.3333-2 0-2m105.25 80.75v2.25m-119.53-29.779 3e-5 -4.7351m-55.724-32.486c1.3333 0 1.3333 2 0 2m55.326 20.823h-4.4488m-3.0086 7.6774c1e-3 -1.1826 0.94919-2.1464 2.1316-2.1672m110-28.333c1.3333 0 1.3333 2 0 2m-124.47 29.823c0-4.9706 4.0294-9 9-9m55.474-36.823h60m-130-2h-10m27.088 60.585h0.87925m-2.6425-8.4872c0.8676-0.85853 2.1554 0.44287 1.2878 1.3014m-121.86 27.351h-0.74997m121-78.75c-1.3333 0-1.3333-2 0-2m5.877 52.314v-3.8445m124.37 34.531h-250.5m139.58-24.377c0 4.9706-4.0294 9-9 9m-129.45-79.57c0.87753-0.68223 1.9574-1.0526 3.0689-1.0526m249.55 12.5v-2.5m-254.5 83.75v-80.75m139.13 58.623c0 4.3078-3.4922 7.8-7.8 7.8m-6.2792-17.953c-2.1071-0.98029-1.4066-4.1364 0.9152-4.1364s3.0223 3.1561 0.9152 4.1364m49.123-30.469h60m17.5 62.75c0 1.2426-1.0074 2.25-2.25 2.25m-1.1271-94.947c2.7617 2.1471 4.3772 5.4492 4.3771 8.9474m-134.64 62.555 3.2309 1.03m128.91-60.585h2m-122.53 40.023c3.7975 2e-5 7.0431 2.7349 7.687 6.4774m-11.206 11.21c0.43717 0.45304 0.71018 1.0393 0.77555 1.6655m-32.731-41.376h60m-156 62.75h-1.5m253.5-80.75v80.75m-130.08-30.371v-1.909m9.408-8.4471c4.3078 0 7.8 3.4922 7.8 7.8m-19.037 0.64785-2e-3 1.1461m3.8805 9.1358c0.98329-2.1343 4.1779-1.4314 4.1779 0.91625s-3.1946 3.0506-4.1779 0.91625m-17.968-60.585c1.3333 0 1.3333 2 0 2m50 14h-60m0-14h10m147.5 78.75h-1.5m-131.47-14.327c-4.3078 0-7.8-3.4922-7.8-7.8m18.6 7.8h-4.4488m2.8386-9.6307-1.7604 0.91827m-2.9086 9.9124v-1.2m122.01-79.423c1.1115 0 2.1914 0.37037 3.0689 1.0526m-249.37 94.947v-2.25m129.45-22.135 3.7541-7e-3m-133.95-58.108v80.25m16-78.75h60m160 14h-60m-46.107 32.486c-2.1193-0.98121-1.418-4.1545 0.9152-4.1545s3.0345 3.1732 0.9152 4.1545m-55.724-48.486h-60m236 80.75v-80.25m-131.47 39.523h4.5208m50.953-22.023c-1.3333 0-1.3333-2 0-2m-57.638 43.555c-0.97818 2.0798-4.0958 1.3811-4.0958-0.9152s3.1176-2.995 4.0958-0.9152m8.5148-5.4104c2.1066 0.98024 1.4061 4.1356-0.9152 4.1356s-3.0218-3.1553-0.9152-4.1356m50.953-50.314c-1.3333 0-1.3333-2 0-2m-175.25 83c-1.2426 0-2.25-1.0074-2.25-2.25m122.83-28.652-2.2602 2.2367m0.87239-1.9897c-0.8668 0.8578-2.1535-0.4424-1.2867-1.3002m-120.15-50.544h1.5m128.83 46c1e-3 -1.1664 0.92411-2.1232 2.0897-2.1664m-4.0401 22.089v1.2m-6.79-18.006-1.4363 1.4279m12.675-11.022h0.14839m104.53-40.023c1.3333 0 1.3333 2 0 2m-109.12 38.023h4.4488m-0.31943 16.769h-1.2907m0.17765-3.1758 1.1131 2.4267m-5.9597-16.02v-1.2m-12.321 19.8v-10.8m6.3392 9.9018h-0.70284m1.5752-5.3798 1.9804-1.9659m-10.146-3.8787c0.65539-4.4113 4.4426-7.6774 8.9023-7.6774m0.22166 19.171v-2.8954m-0.37005 12.524c-4.9706 0-9-4.0294-9-9m28.8 0v-10.8m-13.449 19.8h4.4488m-35.326-49.623c-1.3333 0-1.3333-2 0-2m43.126 31.823v10.8m-19.037-10.152c-2.1089-0.97868-1.4103-4.1368 0.91251-4.1378s3.0242 3.1565 0.91609 4.137m3.1289-1.8e-4v3.8445m5.9534-52.314h-10m2.9677 58.752-0.61637-2e-3m10.599-1.9953c0.9895-2.0913 4.1256-1.3846 4.1256 0.9269s-3.1362 3.0182-4.1256 0.9269m-136.45-61.609c-6e-5 -3.4982 1.6154-6.8003 4.3771-8.9474m252.62 11.447c0 0.27614-0.22386 0.5-0.5 0.5m-128.95 66.423h-4.5208m-122.03 14.327v-80.25m17.5 17.5c-1.3333 0-1.3333-2 0-2m109.05 22.823h-4.5208m-122.53-38.823c-0.27614 0-0.5-0.22386-0.5-0.5m115.23 48.323c0-4.3078 3.4922-7.8 7.8-7.8m8.205 19.353 1.465-0.76028m-9.1957-56.615h10m-136.5 41.5h3m260-1.5v-1.5m-260 1.5v1.5m260-1.5h-3m-257 1.5v13.5m-3 0h3m260-13.5v13.5m-259-30h-1m0 30h1m-1-16.5h-3m260 3h3m-3-1.5v-1.5m0-13.5h-1m4 0v13.5m0 3v-1.5m-257.5-15h-3e-5m252 0h-3e-5m2.5 16.5v-1.5m-257-15v13.5m-3 1.5v-1.5m263-13.5h-3m-260 16.5v-1.5m257.5 15h3e-5m-252 0h3e-5m-5.5-13.5v13.5m259 0h1m-260-30v13.5m126.8-0.47743c0.18118-0.43072 0.42069-0.8345 0.71181-1.2m7.9785 0c0.29112 0.3655 0.53063 0.76928 0.71181 1.2m-0.19488 4.3658c-0.39357 0.74251-0.96453 1.3763-1.6621 1.8449m-5.6882 0c-0.69757-0.46863-1.2685-1.1024-1.6621-1.8449m133.01 12.612v-13.5m-260-1.5h3m257-1.5v-13.5m-257 13.5v1.5m260 15h-3m3-16.5h-3m-260-13.5h3m256-23.25c1.3197 0.36197 2.481 1.1538 3.3 2.25m-4.8 0h3e-5m4.8 6c-0.81904 1.0962-1.9803 1.888-3.3 2.25m-1.5-2.25h3e-5m4.8-6v6m-258.3 2.25c-1.3197-0.36197-2.481-1.1538-3.3-2.25m4.8 0h-3e-5m-4.8-6c0.81904-1.0962 1.9803-1.888 3.3-2.25m1.5 2.25h-3e-5m-4.8 6v-6m139.45 10v2m-12.558-2v2m-4.7367-2v2m13.384-2v2m128.51 17c0.13807 0 0.25 0.11193 0.25 0.25m-2 0c0-0.13807 0.11193-0.25 0.25-0.25m1.5 14h-1.5m1.75-0.25c0 0.13807-0.11193 0.25-0.25 0.25m-1.5 0c-0.13807 0-0.25-0.11193-0.25-0.25m1.75-13.75h-1.5m1.75 0.25v13.5m-266.75 0.25c-0.13807 0-0.25-0.11193-0.25-0.25m2 0c0 0.13807-0.11193 0.25-0.25 0.25m-1.5 0h1.5m-1.75-13.75c0-0.13807 0.11193-0.25 0.25-0.25h1.5c0.13807 0 0.25 0.11193 0.25 0.25m-2 13.5v-13.5m274.5 0.25c0.27614 0 0.5 0.22386 0.5 0.5m-13 2h-1m1 8h-1m6.5 2.5c-0.27614 0-0.5-0.22386-0.5-0.5m0.5 0.5h7m0.5-0.5c0 0.27614-0.22386 0.5-0.5 0.5m-7-13h7m-7.5 0.5c0-0.27614 0.22386-0.5 0.5-0.5m7.5 0.5v12m-275.5-12.5c0.27614 0 0.5 0.22386 0.5 0.5m5 10h1m-13.5 2.5c-0.27614 0-0.5-0.22386-0.5-0.5m8 0c0 0.27614-0.22386 0.5-0.5 0.5m0-13h-7m12.5 2.5h1m-14-2c0-0.27614 0.22386-0.5 0.5-0.5m7 13h-7m-0.5-0.5v-12m61.24-36c0.54838 0 0.99447 0.44164 0.99995 0.99m166.51 1.01 0.0101-1.01m-0.1701 17.01 0.02-2m8.14-14 0.0101-1.01m-0.1701 17.01 0.02-2m-116.85-15.01c5e-3 -0.54836 0.45157-0.99 0.99995-0.99m98.63 16 0.02 2m-0.1701-17.01 0.0101 1.01m-140.86 14 0.02 2m-0.1701-17.01 0.0101 1.01m49.35 16 0.0167-2m-95.867-14 0.0101-1.01m-0.1701 17.01 0.02-2m40.14-14 0.0101-1.01m-0.1701 17.01 0.02-2m171.78 0 0.02 2m-0.1701-17.01 0.0101 1.01m-116.87 14 0.0167 2m123.84-18c0.54838 0 0.99447 0.44164 0.99995 0.99m-171.48 0c5e-3 -0.54836 0.45157-0.99 0.99995-0.99m-41 0.99c5e-3 -0.54836 0.45157-0.99 0.99995-0.99m155.99 2 0.0101-1.01m-0.1701 17.01 0.02-2m-148.85-15.01c5e-3 -0.54836 0.45157-0.99 0.99995-0.99m113.48 0c0.54838 0 0.99447 0.44164 0.99995 0.99m-6.6399 17.01 0.0167-2m-71.377-16c0.54838 0 0.99447 0.44164 0.99995 0.99m-23.85 15.01 0.02 2m-0.1701-17.01 0.0101 1.01m56.14 14 0.02 2m-0.1701-17.01 0.0101 1.01m-38.5 0 0.0101-1.01m-0.1701 17.01 0.02-2m-39.86-14 0.0101-1.01m-0.1701 17.01 0.02-2m32.15-15.01c5e-3 -0.54836 0.45157-0.99 0.99995-0.99m140 0.99c5e-3 -0.54836 0.45157-0.99 0.99995-0.99m-2.37 16 0.02 2m-0.1701-17.01 0.0101 1.01m-155.5 0 0.0101-1.01m-0.1701 17.01 0.02-2m170.63-16c0.54838 0 0.99447 0.44164 0.99995 0.99m-9-0.99c0.54838 0 0.99447 0.44164 0.99995 0.99m-174-0.99c0.54838 0 0.99447 0.44164 0.99995 0.99m41.52 0c5e-3 -0.54836 0.45157-0.99 0.99995-0.99m121.48 0c0.54838 0 0.99447 0.44164 0.99995 0.99m-41-0.99c0.54838 0 0.99447 0.44164 0.99995 0.99m-59.49 1.01 0.0101-1.01m-0.1701 17.01 0.02-2m-58.37-16c0.54838 0 0.99447 0.44164 0.99995 0.99m9.5202 0c5e-3 -0.54836 0.45157-0.99 0.99995-0.99m147.99 2 0.0101-1.01m-0.1701 17.01 0.02-2m-135.37-16c0.54838 0 0.99447 0.44164 0.99995 0.99m156-0.99c0.54838 0 0.99447 0.44164 0.99995 0.99m16.15 15.01 0.02 2m-0.1701-17.01 0.0101 1.01m-79.86 14 0.02 2m-0.1701-17.01 0.0101 1.01m-116.86 14 0.02 2m-0.1701-17.01 0.0101 1.01m173.14 14 0.02 2m-0.1701-17.01 0.0101 1.01m-71.867 14 0.0167 2m-107.65-16 0.0101-1.01m-0.1701 17.01 0.02-2m21.63-16c0.54838 0 0.99447 0.44164 0.99995 0.99m174.52 0c5e-3 -0.54836 0.45157-0.99 0.99995-0.99m-81.01 2 0.0101-1.01m-0.1701 17.01 0.02-2m-47.37-16c0.54838 0 0.99447 0.44164 0.99995 0.99m124-0.99c0.54838 0 0.99447 0.44164 0.99995 0.99m-78.48 0c5e-3 -0.54836 0.45157-0.99 0.99995-0.99m38.99 2 0.0101-1.01m-0.1701 17.01 0.02-2m0.1501-15.01c5e-3 -0.54836 0.45157-0.99 0.99995-0.99m-174 0.99c5e-3 -0.54836 0.45157-0.99 0.99995-0.99m204 0.99c5e-3 -0.54836 0.45157-0.99 0.99995-0.99m-34.37 16 0.02 2m-0.1701-17.01 0.0101 1.01m-115.5 0 0.0101-1.01m-0.1701 17.01 0.02-2m32.14-14 0.0101-1.01m-0.1701 17.01 0.02-2m-82.37-16c0.54838 0 0.99447 0.44164 0.99995 0.99m158.52 0c5e-3 -0.54836 0.45157-0.99 0.99995-0.99m-111.37 16 0.02 2m-0.1701-17.01 0.0101 1.01m181.25-2h3e-5m-221.11 16 0.02 2m-0.1701-17.01 0.0101 1.01m174.5 0 0.0101-1.01m-0.1701 17.01 0.02-2m-156.86-14 0.0101-1.01m-0.1701 17.01 0.02-2m131.78 0 0.02 2m-0.1701-17.01 0.0101 1.01m40.14 14 0.02 2m-0.1701-17.01 0.0101 1.01m-123.49-1.01c5e-3 -0.54836 0.45157-0.99 0.99995-0.99m89.48 0c0.54838 0 0.99447 0.44164 0.99995 0.99m-147.48 0c5e-3 -0.54836 0.45157-0.99 0.99995-0.99m187.99 2 0.0101-1.01m-0.1701 17.01 0.02-2m-23.85-15.01c5e-3 -0.54836 0.45157-0.99 0.99995-0.99m-206.26 0h3e-5m213.26 0.99c5e-3 -0.54836 0.45157-0.99 0.99995-0.99m-35.52 0c0.54838 0 0.99447 0.44164 0.99995 0.99m-124.85 15.01 0.02 2m-0.1701-17.01 0.0101 1.01m-31.86 14 0.02 2m-0.1701-17.01 0.0101 1.01m125.14 14 0.02 2m-0.1701-17.01 0.0101 1.01m446.57 2.84v1.5m-242.11-1.5v1.5m0 72.5v-1.5m242.11 1.5v-1.5m-245.18-71v-1.5m248.25 72.5v1.5m-248.25-1.5v1.5m-11.927-58.75v8.5m4.3 0v-8.5m263.25 21.75h-0.7m-262.3 0h0.7m262.54-7v14m1.5 0v-14m-265 14v-14m-1.5 0v14m274.25-0.5v-13m-7 0v13m-275-13v13m7 0v-13m258.12-28.5v70m-245.18-70v70m2.054 0v-70m238 0v70m-237-5v5m0-70v5m236 0v-5m0 70v-5m-242.12 5v-70m245.18 70v-70m4.196-0.5v0.5m-249.37-2h-4.3771m253.75 72v0.5m-4.196-71h3.0689m-250.12 70.5v0.49997m0-71v0.49997m253.5 0v-0.49997m0 71v-0.49997m-248.55-72h-3.0689m252.62 0v1.5m-252.62 0h3.0689m249.56 72.5-249.56 3e-5m-4.196-72v-0.5m251.25 71h1.5m-255-0.49997v0.49997m0-71v0.49997m6.446 70.5h-3.0689m-4.3771-72.5v1.5m7.446 71h242.11m-245.18 1.5h3.0689m242.1-72.5h-242.11m248.56 0h-1.5m-1.8771 71h-3.0689m-249.55 1.5v-1.5m3.25 0v-0.5m4.196-72 249.55-4.9e-4m7e-3 74v-1.5m-252.62 0h-4.3771m0-71h4.3771m248.25 0h4.3771m-256 71h1.5m252-70.5v-0.49997m0 71v-0.49997m-252-70.5h-1.5m-1 72.5h4.3771m252.62-1.5h-4.3771m-260.42-57c0-0.13807 0.11193-0.25 0.25-0.25m4.3 0c0.13807 0 0.25 0.11193 0.25 0.25m0 8c0 0.13807-0.11193 0.25-0.25 0.25h-4.3c-0.13807 0-0.25-0.11193-0.25-0.25m4.55-8.25h-4.3m-0.25 8.25v-8m267.8 39.023v-2.5981m0 2.5981h-3m-257-89.023c0-0.82843 0.67157-1.5 1.5-1.5m-1.5 87.925h-3m258.5-90.925c2.4853 0 4.5 2.0147 4.5 4.5m-4.5-1.5c0.82843 0 1.5 0.67157 1.5 1.5m-255.5-4.5h254m4.5 76v14.925m-4.5-87.925h-254m-4.5 90.523v-2.5981m260-49.925v-0.5m-260-36c0-2.4853 2.0147-4.5 4.5-4.5m-4.5 76v-71.5m0 71.5v14.925m263-86.425v71.5m-263 17.523h3m0-53.023v0.5m0-36.5v34.5m260 51.925h-3m2.3-11.925c-0.60154 0.80516-1.3912 1.4506-2.3 1.8799m0-9.7597c0.90876 0.42928 1.6985 1.0747 2.3 1.8799v6m-259.3 1.8799c-0.90876-0.42928-1.6985-1.0747-2.3-1.8799m0-6c0.60154-0.80516 1.3912-1.4506 2.3-1.8799m-2.3 7.8799v-6m243.8-32.001c2.7614 0 5 2.2386 5 5m0 60c0 2.7614-2.2386 5-5 5m-226 0c-2.7614 0-5-2.2386-5-5m236 2e-5v-60m-236 2e-5v60m231-65h-226m0 70h226m-231-65c0-2.7614 2.2386-5 5-5m-9.75 70.5v-0.5m3.5 0.5v-0.5m242 0.50103v-0.5m-3.5 0.5v-0.5m-242-70.5v0.5m3.5-0.5v0.5m238.5-0.5004v0.5m3.5-0.5v0.5m8.7497 28.25c0-0.13807 0.11193-0.25 0.25-0.25m1.5 14h-1.5m1.75-0.25c0 0.13807-0.11193 0.25-0.25 0.25m-1.5 0c-0.13807 0-0.25-0.11193-0.25-0.25m1.75-13.75c0.13807 0 0.25 0.11193 0.25 0.25m-0.25-0.25h-1.5m1.75 0.25v13.5m-266.75-13.75h1.5m-1.5 14h1.5m-1.75-13.75c0-0.13807 0.11193-0.25 0.25-0.25m0 14c-0.13807 0-0.25-0.11193-0.25-0.25m2 0c0 0.13807-0.11193 0.25-0.25 0.25m0-14c0.13807 0 0.25 0.11193 0.25 0.25m-2 13.5v-13.5m267.5 0.25h7m0.5 12.5c0 0.27614-0.22386 0.5-0.5 0.5m0-13c0.27614 0 0.5 0.22386 0.5 0.5m-7.5 12.5c-0.27614 0-0.5-0.22386-0.5-0.5m0-12c0-0.27614 0.22386-0.5 0.5-0.5m0 13h7m0.5-12.5v12m-275.5-12.5h-7m-0.5 0.5c0-0.27614 0.22386-0.5 0.5-0.5m7.5 12.5c0 0.27614-0.22386 0.5-0.5 0.5h-7m7-13c0.27614 0 0.5 0.22386 0.5 0.5m-7.5 12.5c-0.27614 0-0.5-0.22386-0.5-0.5v-12m260.5-29h2.054m-2.554 0h0.5m-247.5 0v70m4.3771-70h3.0689m234.05 0h5m-236 0h5m241.5 70h-4.3771m-242.62 0h-0.5m240.05-70h3.0689m-242.12 70h-0.5m-0.5-70h-2.054m2.054 0h0.5m239.55 70h-2.554m10-70v70m-241.5 0h-5m236 0h-5m11.123-70h4.3771m-10 70h-0.5m-246.5-70h4.3771m242.62 70v-70m-239.55 70h-3.0689m5.1229 0h-2.054m-3.0689 0h-4.3771m10-70v70m0-70h0.5m242.12 70h-3.0689m-3.054-70h0.5"
         stroke-width=".78964"
         id="path74" /><g
         id="g116"><g
           transform="matrix(.71894 0 0 .71894 -1004 -1093.8)"
           stroke-width="1.0983"
           id="g84"><g
             transform="matrix(.98144 0 0 .98144 -149.64 191.04)"
             stroke="#000"
             id="g82"><circle
               transform="matrix(.66831 0 0 .66831 167.5 23.234)"
               cx="543.34"
               cy="71.961"
               r="7.0615"
               fill="none"
               stroke-width="1.6745"
               id="circle76" /><circle
               transform="matrix(.35802 0 0 .35802 336.05 45.619)"
               cx="543.34"
               cy="71.961"
               r="7.0615"
               fill="none"
               stroke-width="3.1258"
               id="circle78" /><path
               transform="rotate(-33.391 550.78 65.119)"
               d="m531.43 56.539-1.1602 1.6875-1.74-1.0785-0.73147 1.1198 1.6863 1.1598-1.078 1.7411 1.119 0.73158 1.1621-1.6875 1.7395 1.0791 0.76053-1.2504-1.7158-1.0296 1.0784-1.7407z"
               fill="#000"
               stroke-linecap="round"
               stroke-linejoin="round"
               stroke-width="1.1191"
               id="path80" /></g></g><g
           transform="matrix(.53517 .48641 -.48974 .53153 -916.64 -1225.4)"
           stroke-width=".86247"
           id="g94"><g
             transform="matrix(.98144 0 0 .98144 -149.64 191.04)"
             stroke="#000"
             id="g92"><circle
               transform="matrix(.66831 0 0 .66831 167.5 23.234)"
               cx="543.34"
               cy="71.961"
               r="7.0615"
               fill="none"
               stroke-width="1.6652"
               id="circle86" /><circle
               transform="matrix(.35802 0 0 .35802 336.05 45.619)"
               cx="543.34"
               cy="71.961"
               r="7.0615"
               fill="none"
               stroke-width="3.1084"
               id="circle88" /><path
               transform="rotate(-33.391 550.78 65.119)"
               d="m531.43 56.539-1.1602 1.6875-1.74-1.0785-0.73147 1.1198 1.6863 1.1598-1.078 1.7411 1.119 0.73158 1.1621-1.6875 1.7395 1.0791 0.76053-1.2504-1.7158-1.0296 1.0784-1.7407z"
               fill="#000"
               stroke-linecap="round"
               stroke-linejoin="round"
               stroke-width="1.1129"
               id="path90" /></g></g><g
           transform="matrix(.53517 .48641 -.48974 .53153 -941.12 -1225.4)"
           stroke-width=".86247"
           id="g104"><g
             transform="matrix(.98144 0 0 .98144 -149.64 191.04)"
             stroke="#000"
             id="g102"><circle
               transform="matrix(.66831 0 0 .66831 167.5 23.234)"
               cx="543.34"
               cy="71.961"
               r="7.0615"
               fill="none"
               stroke-width="1.6652"
               id="circle96" /><circle
               transform="matrix(.35802 0 0 .35802 336.05 45.619)"
               cx="543.34"
               cy="71.961"
               r="7.0615"
               fill="none"
               stroke-width="3.1084"
               id="circle98" /><path
               transform="rotate(-33.391 550.78 65.119)"
               d="m531.43 56.539-1.1602 1.6875-1.74-1.0785-0.73147 1.1198 1.6863 1.1598-1.078 1.7411 1.119 0.73158 1.1621-1.6875 1.7395 1.0791 0.76053-1.2504-1.7158-1.0296 1.0784-1.7407z"
               fill="#000"
               stroke-linecap="round"
               stroke-linejoin="round"
               stroke-width="1.1129"
               id="path100" /></g></g><g
           transform="matrix(.71894 0 0 .71894 -1246.1 -1093.8)"
           stroke-width="1.0983"
           id="g114"><g
             transform="matrix(.98144 0 0 .98144 -149.64 191.04)"
             stroke="#000"
             id="g112"><circle
               transform="matrix(.66831 0 0 .66831 167.5 23.234)"
               cx="543.34"
               cy="71.961"
               r="7.0615"
               fill="none"
               stroke-width="1.6745"
               id="circle106" /><circle
               transform="matrix(.35802 0 0 .35802 336.05 45.619)"
               cx="543.34"
               cy="71.961"
               r="7.0615"
               fill="none"
               stroke-width="3.1258"
               id="circle108" /><path
               transform="rotate(-33.391 550.78 65.119)"
               d="m531.43 56.539-1.1602 1.6875-1.74-1.0785-0.73147 1.1198 1.6863 1.1598-1.078 1.7411 1.119 0.73158 1.1621-1.6875 1.7395 1.0791 0.76053-1.2504-1.7158-1.0296 1.0784-1.7407z"
               fill="#000"
               stroke-linecap="round"
               stroke-linejoin="round"
               stroke-width="1.1191"
               id="path110" /></g></g></g><g
         fill="none"
         id="g128"><g
           stroke-linejoin="round"
           id="g124"><path
             transform="matrix(1.0063 0 0 -.99437 -1028.3 77.905)"
             d="m391.83 1069.7a1.7 1.7 0 0 1-1.3251-1.6582"
             stroke-linecap="round"
             stroke-width=".78939"
             id="path118" /><path
             transform="matrix(1.0063 0 0 -.99437 -1028.3 77.905)"
             d="m397.15 1068.1a1.7 1.7 0 0 1-1.3251 1.6582"
             stroke-linecap="round"
             stroke-width=".78939"
             id="path120" /><path
             transform="matrix(.71761 0 0 .71122 -1247.3 -1017.6)"
             d="m852.74 48.019 0.0197-1.2074 9.2746 0.0094 0.0178 1.1985"
             stroke-linecap="butt"
             stroke-width="1.1053px"
             id="path122" /></g><path
           transform="matrix(.7202 0 0 .71165 -1249.5 -1017.7)"
           d="m854.65 44.817h5.5748"
           stroke-linecap="round"
           stroke-linejoin="miter"
           stroke-width="1.103px"
           id="path126" /></g><g
         transform="translate(108.77 .056683)"
         fill="none"
         id="g140"><g
           stroke-linejoin="round"
           id="g136"><path
             transform="matrix(1.0063 0 0 -.99437 -1028.3 77.905)"
             d="m391.83 1069.7a1.7 1.7 0 0 1-1.3251-1.6582"
             stroke-linecap="round"
             stroke-width=".78939"
             id="path130" /><path
             transform="matrix(1.0063 0 0 -.99437 -1028.3 77.905)"
             d="m397.15 1068.1a1.7 1.7 0 0 1-1.3251 1.6582"
             stroke-linecap="round"
             stroke-width=".78939"
             id="path132" /><path
             transform="matrix(.71761 0 0 .71122 -1247.3 -1017.6)"
             d="m852.74 48.019 0.0197-1.2074 9.2746 0.0094 0.0178 1.1985"
             stroke-linecap="butt"
             stroke-width="1.1053px"
             id="path134" /></g><path
           transform="matrix(.7202 0 0 .71165 -1249.5 -1017.7)"
           d="m854.65 44.817h5.5748"
           stroke-linecap="round"
           stroke-linejoin="miter"
           stroke-width="1.103px"
           id="path138" /></g><g
         transform="translate(133.24 .057353)"
         fill="none"
         id="g152"><g
           stroke-linejoin="round"
           id="g148"><path
             transform="matrix(1.0063 0 0 -.99437 -1028.3 77.905)"
             d="m391.83 1069.7a1.7 1.7 0 0 1-1.3251-1.6582"
             stroke-linecap="round"
             stroke-width=".78939"
             id="path142" /><path
             transform="matrix(1.0063 0 0 -.99437 -1028.3 77.905)"
             d="m397.15 1068.1a1.7 1.7 0 0 1-1.3251 1.6582"
             stroke-linecap="round"
             stroke-width=".78939"
             id="path144" /><path
             transform="matrix(.71761 0 0 .71122 -1247.3 -1017.6)"
             d="m852.74 48.019 0.0197-1.2074 9.2746 0.0094 0.0178 1.1985"
             stroke-linecap="butt"
             stroke-width="1.1053px"
             id="path146" /></g><path
           transform="matrix(.7202 0 0 .71165 -1249.5 -1017.7)"
           d="m854.65 44.817h5.5748"
           stroke-linecap="round"
           stroke-linejoin="miter"
           stroke-width="1.103px"
           id="path150" /></g><g
         transform="translate(242.03 .00098021)"
         fill="none"
         id="g164"><g
           stroke-linejoin="round"
           id="g160"><path
             transform="matrix(1.0063 0 0 -.99437 -1028.3 77.905)"
             d="m391.83 1069.7a1.7 1.7 0 0 1-1.3251-1.6582"
             stroke-linecap="round"
             stroke-width=".78939"
             id="path154" /><path
             transform="matrix(1.0063 0 0 -.99437 -1028.3 77.905)"
             d="m397.15 1068.1a1.7 1.7 0 0 1-1.3251 1.6582"
             stroke-linecap="round"
             stroke-width=".78939"
             id="path156" /><path
             transform="matrix(.71761 0 0 .71122 -1247.3 -1017.6)"
             d="m852.74 48.019 0.0197-1.2074 9.2746 0.0094 0.0178 1.1985"
             stroke-linecap="butt"
             stroke-width="1.1053px"
             id="path158" /></g><path
           transform="matrix(.7202 0 0 .71165 -1249.5 -1017.7)"
           d="m854.65 44.817h5.5748"
           stroke-linecap="round"
           stroke-linejoin="miter"
           stroke-width="1.103px"
           id="path162" /></g><g
         transform="translate(406.84 .0044928)"
         fill="none"
         id="g176"><g
           stroke-linejoin="round"
           id="g172"><path
             transform="matrix(1.0063 0 0 -.99437 -1028.3 77.905)"
             d="m391.83 1069.7a1.7 1.7 0 0 1-1.3251-1.6582"
             stroke-linecap="round"
             stroke-width=".78939"
             id="path166" /><path
             transform="matrix(1.0063 0 0 -.99437 -1028.3 77.905)"
             d="m397.15 1068.1a1.7 1.7 0 0 1-1.3251 1.6582"
             stroke-linecap="round"
             stroke-width=".78939"
             id="path168" /><path
             transform="matrix(.71761 0 0 .71122 -1247.3 -1017.6)"
             d="m852.74 48.019 0.0197-1.2074 9.2746 0.0094 0.0178 1.1985"
             stroke-linecap="butt"
             stroke-width="1.1053px"
             id="path170" /></g><path
           transform="matrix(.7202 0 0 .71165 -1249.5 -1017.7)"
           d="m854.65 44.817h5.5748"
           stroke-linecap="round"
           stroke-linejoin="miter"
           stroke-width="1.103px"
           id="path174" /></g><g
         transform="matrix(1 0 0 -1 0 -1892.8)"
         fill="none"
         id="g188"><g
           stroke-linejoin="round"
           id="g184"><path
             transform="matrix(1.0063 0 0 -.99437 -1028.3 77.905)"
             d="m391.83 1069.7a1.7 1.7 0 0 1-1.3251-1.6582"
             stroke-linecap="round"
             stroke-width=".78939"
             id="path178" /><path
             transform="matrix(1.0063 0 0 -.99437 -1028.3 77.905)"
             d="m397.15 1068.1a1.7 1.7 0 0 1-1.3251 1.6582"
             stroke-linecap="round"
             stroke-width=".78939"
             id="path180" /><path
             transform="matrix(.71761 0 0 .71122 -1247.3 -1017.6)"
             d="m852.74 48.019 0.0197-1.2074 9.2746 0.0094 0.0178 1.1985"
             stroke-linecap="butt"
             stroke-width="1.1053px"
             id="path182" /></g><path
           transform="matrix(.7202 0 0 .71165 -1249.5 -1017.7)"
           d="m854.65 44.817h5.5748"
           stroke-linecap="round"
           stroke-linejoin="miter"
           stroke-width="1.103px"
           id="path186" /></g><g
         transform="matrix(1 0 0 -1 108.77 -1892.9)"
         fill="none"
         id="g200"><g
           stroke-linejoin="round"
           id="g196"><path
             transform="matrix(1.0063 0 0 -.99437 -1028.3 77.905)"
             d="m391.83 1069.7a1.7 1.7 0 0 1-1.3251-1.6582"
             stroke-linecap="round"
             stroke-width=".78939"
             id="path190" /><path
             transform="matrix(1.0063 0 0 -.99437 -1028.3 77.905)"
             d="m397.15 1068.1a1.7 1.7 0 0 1-1.3251 1.6582"
             stroke-linecap="round"
             stroke-width=".78939"
             id="path192" /><path
             transform="matrix(.71761 0 0 .71122 -1247.3 -1017.6)"
             d="m852.74 48.019 0.0197-1.2074 9.2746 0.0094 0.0178 1.1985"
             stroke-linecap="butt"
             stroke-width="1.1053px"
             id="path194" /></g><path
           transform="matrix(.7202 0 0 .71165 -1249.5 -1017.7)"
           d="m854.65 44.817h5.5748"
           stroke-linecap="round"
           stroke-linejoin="miter"
           stroke-width="1.103px"
           id="path198" /></g><g
         transform="matrix(1 0 0 -1 133.24 -1892.9)"
         fill="none"
         id="g212"><g
           stroke-linejoin="round"
           id="g208"><path
             transform="matrix(1.0063 0 0 -.99437 -1028.3 77.905)"
             d="m391.83 1069.7a1.7 1.7 0 0 1-1.3251-1.6582"
             stroke-linecap="round"
             stroke-width=".78939"
             id="path202" /><path
             transform="matrix(1.0063 0 0 -.99437 -1028.3 77.905)"
             d="m397.15 1068.1a1.7 1.7 0 0 1-1.3251 1.6582"
             stroke-linecap="round"
             stroke-width=".78939"
             id="path204" /><path
             transform="matrix(.71761 0 0 .71122 -1247.3 -1017.6)"
             d="m852.74 48.019 0.0197-1.2074 9.2746 0.0094 0.0178 1.1985"
             stroke-linecap="butt"
             stroke-width="1.1053px"
             id="path206" /></g><path
           transform="matrix(.7202 0 0 .71165 -1249.5 -1017.7)"
           d="m854.65 44.817h5.5748"
           stroke-linecap="round"
           stroke-linejoin="miter"
           stroke-width="1.103px"
           id="path210" /></g><g
         transform="matrix(1 0 0 -1 242.03 -1892.8)"
         fill="none"
         id="g224"><g
           stroke-linejoin="round"
           id="g220"><path
             transform="matrix(1.0063 0 0 -.99437 -1028.3 77.905)"
             d="m391.83 1069.7a1.7 1.7 0 0 1-1.3251-1.6582"
             stroke-linecap="round"
             stroke-width=".78939"
             id="path214" /><path
             transform="matrix(1.0063 0 0 -.99437 -1028.3 77.905)"
             d="m397.15 1068.1a1.7 1.7 0 0 1-1.3251 1.6582"
             stroke-linecap="round"
             stroke-width=".78939"
             id="path216" /><path
             transform="matrix(.71761 0 0 .71122 -1247.3 -1017.6)"
             d="m852.74 48.019 0.0197-1.2074 9.2746 0.0094 0.0178 1.1985"
             stroke-linecap="butt"
             stroke-width="1.1053px"
             id="path218" /></g><path
           transform="matrix(.7202 0 0 .71165 -1249.5 -1017.7)"
           d="m854.65 44.817h5.5748"
           stroke-linecap="round"
           stroke-linejoin="miter"
           stroke-width="1.103px"
           id="path222" /></g><g
         fill="none"
         id="g240"><g
           id="g232"><circle
             transform="matrix(.88765 0 0 -.88765 -1004.3 -108.58)"
             cx="832.1"
             cy="943.91"
             r="6.75"
             stroke-linecap="round"
             stroke-linejoin="round"
             stroke-width=".88958"
             id="circle226" /><circle
             transform="matrix(.88765 0 0 -.88765 -1004.3 -108.58)"
             cx="832.1"
             cy="943.91"
             r="6"
             stroke-linecap="round"
             stroke-linejoin="round"
             stroke-width=".88958"
             id="circle228" /><path
             transform="matrix(.63528 0 0 .63528 -916.12 -1086.6)"
             d="m1021.6 216.33-2.5586 4.1094 2.2793 4.2695 4.8379 0.16211 2.5586-4.1094-2.2793-4.2695z"
             stroke-linecap="butt"
             stroke-linejoin="miter"
             stroke-width="1.243"
             id="path230" /></g><circle
           transform="matrix(.94733 0 0 -.94733 -1053.9 -51.292)"
           cx="832.1"
           cy="926.41"
           r="4.25"
           stroke-linecap="round"
           stroke-linejoin="round"
           stroke-width=".83354"
           id="circle234" /><circle
           transform="matrix(.94733 0 0 -.94733 -1053.9 -51.292)"
           cx="832.1"
           cy="926.41"
           r="4"
           stroke-linecap="round"
           stroke-linejoin="round"
           stroke-width=".83354"
           id="circle236" /><path
           transform="matrix(.44931 -.099004 .099004 .44931 -747.55 -926.61)"
           d="m1021.6 216.33-2.5586 4.1094 2.2793 4.2695 4.8379 0.16211 2.5586-4.1094-2.2793-4.2695z"
           stroke-linecap="butt"
           stroke-linejoin="miter"
           stroke-width="1.7163"
           id="path238" /></g></g><g
       stroke-width="1.1033"
       id="g328"><g
         transform="matrix(.90673 0 0 .90602 -4.7819 1.7993)"
         id="g248"><circle
           transform="matrix(.6892 0 0 .6892 156 9.6003)"
           cx="543.34"
           cy="71.961"
           r="7.0615"
           stroke-width="1.6008"
           id="circle244" /><path
           transform="translate(-.0017588 -.045724)"
           d="m531.43 56.539-1.1602 1.6875-1.74-1.0785-0.73147 1.1198 1.6863 1.1598-1.078 1.7411 1.119 0.73158 1.1621-1.6875 1.7395 1.0791 0.76053-1.2504-1.7158-1.0296 1.0784-1.7407z"
           stroke-linecap="round"
           stroke-linejoin="round"
           stroke-width="1.1033"
           id="path246" /></g><g
         transform="matrix(.90673 0 0 .90602 52.484 1.7993)"
         id="g254"><circle
           transform="matrix(.6892 0 0 .6892 156 9.6003)"
           cx="543.34"
           cy="71.961"
           r="7.0615"
           stroke-width="1.6008"
           id="circle250" /><path
           transform="translate(-.0017588 -.045724)"
           d="m531.43 56.539-1.1602 1.6875-1.74-1.0785-0.73147 1.1198 1.6863 1.1598-1.078 1.7411 1.119 0.73158 1.1621-1.6875 1.7395 1.0791 0.76053-1.2504-1.7158-1.0296 1.0784-1.7407z"
           stroke-linecap="round"
           stroke-linejoin="round"
           stroke-width="1.1033"
           id="path252" /></g><g
         transform="matrix(.90673 0 0 .90602 109.75 1.7993)"
         id="g260"><circle
           transform="matrix(.6892 0 0 .6892 156 9.6003)"
           cx="543.34"
           cy="71.961"
           r="7.0615"
           stroke-width="1.6008"
           id="circle256" /><path
           transform="translate(-.0017588 -.045724)"
           d="m531.43 56.539-1.1602 1.6875-1.74-1.0785-0.73147 1.1198 1.6863 1.1598-1.078 1.7411 1.119 0.73158 1.1621-1.6875 1.7395 1.0791 0.76053-1.2504-1.7158-1.0296 1.0784-1.7407z"
           stroke-linecap="round"
           stroke-linejoin="round"
           stroke-width="1.1033"
           id="path258" /></g><g
         transform="matrix(.90673 0 0 .90602 167.02 1.7993)"
         id="g266"><circle
           transform="matrix(.6892 0 0 .6892 156 9.6003)"
           cx="543.34"
           cy="71.961"
           r="7.0615"
           stroke-width="1.6008"
           id="circle262" /><path
           transform="translate(-.0017588 -.045724)"
           d="m531.43 56.539-1.1602 1.6875-1.74-1.0785-0.73147 1.1198 1.6863 1.1598-1.078 1.7411 1.119 0.73158 1.1621-1.6875 1.7395 1.0791 0.76053-1.2504-1.7158-1.0296 1.0784-1.7407z"
           stroke-linecap="round"
           stroke-linejoin="round"
           stroke-width="1.1033"
           id="path264" /></g><g
         transform="matrix(.90673 0 0 .90602 224.28 1.7993)"
         id="g272"><circle
           transform="matrix(.6892 0 0 .6892 156 9.6003)"
           cx="543.34"
           cy="71.961"
           r="7.0615"
           stroke-width="1.6008"
           id="circle268" /><path
           transform="translate(-.0017588 -.045724)"
           d="m531.43 56.539-1.1602 1.6875-1.74-1.0785-0.73147 1.1198 1.6863 1.1598-1.078 1.7411 1.119 0.73158 1.1621-1.6875 1.7395 1.0791 0.76053-1.2504-1.7158-1.0296 1.0784-1.7407z"
           stroke-linecap="round"
           stroke-linejoin="round"
           stroke-width="1.1033"
           id="path270" /></g><g
         transform="matrix(.90673 0 0 .90602 281.55 1.7993)"
         id="g278"><circle
           transform="matrix(.6892 0 0 .6892 156 9.6003)"
           cx="543.34"
           cy="71.961"
           r="7.0615"
           stroke-width="1.6008"
           id="circle274" /><path
           transform="translate(-.0017588 -.045724)"
           d="m531.43 56.539-1.1602 1.6875-1.74-1.0785-0.73147 1.1198 1.6863 1.1598-1.078 1.7411 1.119 0.73158 1.1621-1.6875 1.7395 1.0791 0.76053-1.2504-1.7158-1.0296 1.0784-1.7407z"
           stroke-linecap="round"
           stroke-linejoin="round"
           stroke-width="1.1033"
           id="path276" /></g><g
         transform="matrix(.90673 0 0 .90602 -4.7819 77.778)"
         id="g284"><circle
           transform="matrix(.6892 0 0 .6892 156 9.6003)"
           cx="543.34"
           cy="71.961"
           r="7.0615"
           stroke-width="1.6008"
           id="circle280" /><path
           transform="translate(-.0017588 -.045724)"
           d="m531.43 56.539-1.1602 1.6875-1.74-1.0785-0.73147 1.1198 1.6863 1.1598-1.078 1.7411 1.119 0.73158 1.1621-1.6875 1.7395 1.0791 0.76053-1.2504-1.7158-1.0296 1.0784-1.7407z"
           stroke-linecap="round"
           stroke-linejoin="round"
           stroke-width="1.1033"
           id="path282" /></g><g
         transform="matrix(.90673 0 0 .90602 52.484 77.778)"
         id="g290"><circle
           transform="matrix(.6892 0 0 .6892 156 9.6003)"
           cx="543.34"
           cy="71.961"
           r="7.0615"
           stroke-width="1.6008"
           id="circle286" /><path
           transform="translate(-.0017588 -.045724)"
           d="m531.43 56.539-1.1602 1.6875-1.74-1.0785-0.73147 1.1198 1.6863 1.1598-1.078 1.7411 1.119 0.73158 1.1621-1.6875 1.7395 1.0791 0.76053-1.2504-1.7158-1.0296 1.0784-1.7407z"
           stroke-linecap="round"
           stroke-linejoin="round"
           stroke-width="1.1033"
           id="path288" /></g><g
         transform="matrix(.90673 0 0 .90602 109.75 77.778)"
         id="g296"><circle
           transform="matrix(.6892 0 0 .6892 156 9.6003)"
           cx="543.34"
           cy="71.961"
           r="7.0615"
           stroke-width="1.6008"
           id="circle292" /><path
           transform="translate(-.0017588 -.045724)"
           d="m531.43 56.539-1.1602 1.6875-1.74-1.0785-0.73147 1.1198 1.6863 1.1598-1.078 1.7411 1.119 0.73158 1.1621-1.6875 1.7395 1.0791 0.76053-1.2504-1.7158-1.0296 1.0784-1.7407z"
           stroke-linecap="round"
           stroke-linejoin="round"
           stroke-width="1.1033"
           id="path294" /></g><g
         transform="matrix(.90673 0 0 .90602 167.02 77.778)"
         id="g302"><circle
           transform="matrix(.6892 0 0 .6892 156 9.6003)"
           cx="543.34"
           cy="71.961"
           r="7.0615"
           stroke-width="1.6008"
           id="circle298" /><path
           transform="translate(-.0017588 -.045724)"
           d="m531.43 56.539-1.1602 1.6875-1.74-1.0785-0.73147 1.1198 1.6863 1.1598-1.078 1.7411 1.119 0.73158 1.1621-1.6875 1.7395 1.0791 0.76053-1.2504-1.7158-1.0296 1.0784-1.7407z"
           stroke-linecap="round"
           stroke-linejoin="round"
           stroke-width="1.1033"
           id="path300" /></g><g
         transform="matrix(.90673 0 0 .90602 224.28 77.778)"
         id="g308"><circle
           transform="matrix(.6892 0 0 .6892 156 9.6003)"
           cx="543.34"
           cy="71.961"
           r="7.0615"
           stroke-width="1.6008"
           id="circle304" /><path
           transform="translate(-.0017588 -.045724)"
           d="m531.43 56.539-1.1602 1.6875-1.74-1.0785-0.73147 1.1198 1.6863 1.1598-1.078 1.7411 1.119 0.73158 1.1621-1.6875 1.7395 1.0791 0.76053-1.2504-1.7158-1.0296 1.0784-1.7407z"
           stroke-linecap="round"
           stroke-linejoin="round"
           stroke-width="1.1033"
           id="path306" /></g><g
         transform="matrix(.90673 0 0 .90602 281.55 77.778)"
         id="g314"><circle
           transform="matrix(.6892 0 0 .6892 156 9.6003)"
           cx="543.34"
           cy="71.961"
           r="7.0615"
           stroke-width="1.6008"
           id="circle310" /><path
           transform="translate(-.0017588 -.045724)"
           d="m531.43 56.539-1.1602 1.6875-1.74-1.0785-0.73147 1.1198 1.6863 1.1598-1.078 1.7411 1.119 0.73158 1.1621-1.6875 1.7395 1.0791 0.76053-1.2504-1.7158-1.0296 1.0784-1.7407z"
           stroke-linecap="round"
           stroke-linejoin="round"
           stroke-width="1.1033"
           id="path312" /></g><g
         transform="matrix(.90673 0 0 .90602 -4.7819 39.799)"
         id="g320"><circle
           transform="matrix(.6892 0 0 .6892 156 9.6003)"
           cx="543.34"
           cy="71.961"
           r="7.0615"
           stroke-width="1.6008"
           id="circle316" /><path
           transform="translate(-.0017588 -.045724)"
           d="m531.43 56.539-1.1602 1.6875-1.74-1.0785-0.73147 1.1198 1.6863 1.1598-1.078 1.7411 1.119 0.73158 1.1621-1.6875 1.7395 1.0791 0.76053-1.2504-1.7158-1.0296 1.0784-1.7407z"
           stroke-linecap="round"
           stroke-linejoin="round"
           stroke-width="1.1033"
           id="path318" /></g><g
         transform="matrix(.90673 0 0 .90602 281.55 39.799)"
         id="g326"><circle
           transform="matrix(.6892 0 0 .6892 156 9.6003)"
           cx="543.34"
           cy="71.961"
           r="7.0615"
           stroke-width="1.6008"
           id="circle322" /><path
           transform="translate(-.0017588 -.045724)"
           d="m531.43 56.539-1.1602 1.6875-1.74-1.0785-0.73147 1.1198 1.6863 1.1598-1.078 1.7411 1.119 0.73158 1.1621-1.6875 1.7395 1.0791 0.76053-1.2504-1.7158-1.0296 1.0784-1.7407z"
           stroke-linecap="round"
           stroke-linejoin="round"
           stroke-width="1.1033"
           id="path324" /></g></g></g></svg>
