<?xml version="1.0" encoding="UTF-8" standalone="no"?>
<svg
   width="1033.1"
   height="403.34"
   version="1.1"
   xml:space="preserve"
   id="svg156"
   sodipodi:docname="desenhotecnico.svg"
   inkscape:version="1.2.2 (732a01da63, 2022-12-09)"
   xmlns:inkscape="http://www.inkscape.org/namespaces/inkscape"
   xmlns:sodipodi="http://sodipodi.sourceforge.net/DTD/sodipodi-0.dtd"
   xmlns="http://www.w3.org/2000/svg"
   xmlns:svg="http://www.w3.org/2000/svg"><defs
     id="defs160" /><sodipodi:namedview
     id="namedview158"
     pagecolor="#505050"
     bordercolor="#ffffff"
     borderopacity="1"
     inkscape:showpageshadow="0"
     inkscape:pageopacity="0"
     inkscape:pagecheckerboard="1"
     inkscape:deskcolor="#505050"
     showgrid="false"
     inkscape:zoom="2.3404572"
     inkscape:cx="750.70802"
     inkscape:cy="53.835635"
     inkscape:window-width="1920"
     inkscape:window-height="1009"
     inkscape:window-x="-8"
     inkscape:window-y="-8"
     inkscape:window-maximized="1"
     inkscape:current-layer="g96" /><g
     transform="translate(384.56 1008.6)"
     display="none"
     id="g74"><g
       transform="matrix(.90789 0 0 .90789 -656.18 -309.81)"
       stroke="#000"
       stroke-width="1.1015"
       id="g14"><path
         transform="matrix(-1.5617,0,0,-1.5621,240.57,98.055)"
         d="m43.643 71.307h-274.01"
         fill="#4d4d4d"
         stroke-width=".7052"
         id="path2" /><g
         stroke-linecap="round"
         stroke-linejoin="round"
         id="g12"><path
           transform="matrix(-1.5617,0,0,-1.5621,210.47,98.055)"
           d="m-247.65 69.021v4.6436l-5.9083-2.3121 5.9083-2.3509"
           stroke-width=".7052"
           id="path4" /><path
           transform="matrix(-1.5617,0,0,-1.5621,240.57,98.055)"
           d="m42.421 73.645v-4.6436l5.9083 2.3121-5.9083 2.3509"
           stroke-width=".7052"
           id="path6" /><path
           transform="matrix(.999 0 0 .999 37.44 -63.417)"
           d="m127.08 43.6 0.11828 72.339"
           fill="none"
           stroke-width="1.1026"
           id="path8" /><path
           transform="matrix(.999 0 0 .999 480.6 -63.417)"
           d="m127.08 43.6 0.11828 72.339"
           fill="none"
           stroke-width="1.1026"
           id="path10" /></g></g><text
       transform="matrix(.907 0 0 .90695 -376.66 -367.31)"
       x="846.42407"
       y="157.73505"
       fill="#000000"
       font-family="Lato"
       font-size="19.104px"
       letter-spacing="0px"
       stroke="#000000"
       stroke-width=".10866"
       word-spacing="0px"
       style="font-variant-caps:normal;font-variant-east-asian:normal;font-variant-ligatures:normal;font-variant-numeric:normal;line-height:125%"
       xml:space="preserve"
       id="text18"><tspan
         x="846.42407"
         y="157.73505"
         font-family="Lato"
         font-size="19.104px"
         stroke="#000000"
         stroke-width=".10866"
         style="font-variant-caps:normal;font-variant-east-asian:normal;font-variant-ligatures:normal;font-variant-numeric:normal"
         id="tspan16">D</tspan></text><g
       transform="matrix(.90789 0 0 .90789 35.628 -223.71)"
       stroke="#000"
       stroke-width="1.1015"
       id="g32"><path
         transform="matrix(0,1.5621,-1.5618,0,499.86,-195.95)"
         d="m250.95 71.333-260.79-0.025908"
         fill="#4d4d4d"
         stroke-width=".70518"
         id="path20" /><g
         stroke-linecap="round"
         stroke-linejoin="round"
         id="g30"><path
           transform="matrix(0,1.5621,-1.5618,0,499.86,-195.95)"
           d="m-8.5008 69.021v4.6436l-5.9083-2.3121 5.9083-2.3509"
           stroke-width=".70518"
           id="path22" /><path
           transform="matrix(0,1.5621,-1.5618,0,499.86,61.618)"
           d="m84.837 73.645v-4.6436l5.9083 2.3121-5.9083 2.3509"
           stroke-width=".70518"
           id="path24" /><path
           transform="matrix(.999 0 0 .999 -452.38 -291.75)"
           d="m823.05 72.665h25.175"
           fill="none"
           stroke-width="1.1026"
           id="path26" /><path
           transform="matrix(.999 0 0 .999 -452.38 131.19)"
           d="m823.05 72.665h25.175"
           fill="none"
           stroke-width="1.1026"
           id="path28" /></g></g><text
       transform="matrix(.907 0 0 .90695 -134.27 -392.8)"
       x="98.293945"
       y="143.83748"
       fill="#000000"
       font-family="Lato"
       font-size="19.104px"
       letter-spacing="0px"
       stroke="#000000"
       stroke-width=".10866"
       word-spacing="0px"
       style="font-variant-caps:normal;font-variant-east-asian:normal;font-variant-ligatures:normal;font-variant-numeric:normal;line-height:125%"
       xml:space="preserve"
       id="text36"><tspan
         x="98.293945"
         y="143.83748"
         font-family="Lato"
         font-size="19.104px"
         stroke="#000000"
         stroke-width=".10866"
         style="font-variant-caps:normal;font-variant-east-asian:normal;font-variant-ligatures:normal;font-variant-numeric:normal"
         id="tspan34">B</tspan></text><g
       stroke="#000"
       id="g64"><path
         transform="matrix(0,1.2712,1.4179,0,-129.7,-272.31)"
         d="m118.76 71.333-232.43-0.0259"
         fill="#4d4d4d"
         stroke-width=".74483"
         id="path38" /><g
         transform="matrix(.90789 0 0 .90789 -34.874 -92.615)"
         stroke-linecap="round"
         stroke-linejoin="round"
         id="g48"><path
           transform="matrix(0,1.5621,1.5618,0,-104.45,-339.86)"
           d="m-8.5008 69.021v4.6436l-5.9083-2.3121 5.9083-2.3509"
           stroke-width=".70518"
           id="path40" /><path
           transform="matrix(0,1.5621,1.5618,0,-104.45,-129.36)"
           d="m61.493 73.645v-4.6436l5.9083 2.3121-5.9083 2.3509"
           stroke-width=".70518"
           id="path42" /><path
           transform="matrix(.999 0 0 .999 -109.49 -436.07)"
           d="m141.48 72.665h-31.468"
           fill="none"
           stroke-width="1.1026"
           id="path44" /><path
           transform="matrix(.999 0 0 .999 -109.49 -224.94)"
           d="m137.3 202.05h-27.29"
           fill="none"
           stroke-width="1.1026"
           id="path46" /></g><g
         transform="matrix(.90789 0 0 .90789 313.69 -251.49)"
         stroke-width="1.1015"
         id="g62"><path
           transform="matrix(-1.5617,0,0,-1.5621,240.57,-105.31)"
           d="m43.643 71.307h-70.911"
           fill="#4d4d4d"
           stroke-width=".7052"
           id="path50" /><g
           stroke-linecap="round"
           stroke-linejoin="round"
           id="g60"><path
             transform="matrix(-1.5617,0,0,-1.5621,-105.44,-105.31)"
             d="m-247.65 69.021v4.6436l-5.9083-2.3121 5.9083-2.3509"
             stroke-width=".7052"
             id="path52" /><path
             transform="matrix(-1.5617,0,0,-1.5621,240.57,-105.31)"
             d="m42.421 73.645v-4.6436l5.9083 2.3121-5.9083 2.3509"
             stroke-width=".7052"
             id="path54" /><path
             transform="matrix(.999 0 0 .999 37.44 -63.417)"
             d="m127.08-160.58 0.11828 276.52"
             fill="none"
             stroke-width="1.1026"
             id="path56" /><path
             transform="matrix(.999 0 0 .999 163.56 -266.78)"
             d="m127.08 43.6 0.11828 30.678"
             fill="none"
             stroke-width="1.1026"
             id="path58" /></g></g></g><text
       transform="matrix(.907 0 0 .90695 199.78 -493.69)"
       x="352.77798"
       y="42.779858"
       fill="#000000"
       font-family="Lato"
       font-size="19.104px"
       letter-spacing="0px"
       stroke="#000000"
       stroke-width=".10866"
       word-spacing="0px"
       style="font-variant-caps:normal;font-variant-east-asian:normal;font-variant-ligatures:normal;font-variant-numeric:normal;line-height:125%"
       xml:space="preserve"
       id="text68"><tspan
         x="352.77798"
         y="42.779858"
         font-family="Lato"
         font-size="19.104px"
         stroke="#000000"
         stroke-width=".10866"
         style="font-variant-caps:normal;font-variant-east-asian:normal;font-variant-ligatures:normal;font-variant-numeric:normal"
         id="tspan66">C</tspan></text><text
       transform="matrix(.907 0 0 .90695 -631.27 -367.38)"
       x="352.77798"
       y="42.779858"
       fill="#000000"
       font-family="Lato"
       font-size="19.104px"
       letter-spacing="0px"
       stroke="#000000"
       stroke-width=".10866"
       word-spacing="0px"
       style="font-variant-caps:normal;font-variant-east-asian:normal;font-variant-ligatures:normal;font-variant-numeric:normal;line-height:125%"
       xml:space="preserve"
       id="text72"><tspan
         x="352.77798"
         y="42.779858"
         font-family="Lato"
         font-size="19.104px"
         stroke="#000000"
         stroke-width=".10866"
         style="font-variant-caps:normal;font-variant-east-asian:normal;font-variant-ligatures:normal;font-variant-numeric:normal"
         id="tspan70">A</tspan></text></g><g
     id="g96"><path
       transform="matrix(-1.3606 0 0 -1.361 988.34 123.19)"
       d="m38.882 71.352-66.151-0.04489"
       fill="#4d4d4d"
       stroke="#000"
       stroke-width=".73486"
       id="path76" /><g
       transform="translate(32.458 7.6422)"
       stroke="#000"
       stroke-linecap="round"
       stroke-linejoin="round"
       id="g86"><path
         transform="matrix(-1.3606,0,0,-1.361,654.42,115.55)"
         d="m-247.65 69.021v4.6436l-5.9083-2.3121 5.9083-2.3509"
         stroke-width=".73486"
         id="path78" /><path
         transform="matrix(-1.3606,0,0,-1.361,962.81,115.55)"
         d="m42.421 73.645v-4.6436l5.9083 2.3121-5.9083 2.3509"
         stroke-width=".73486"
         id="path80" /><path
         transform="matrix(.87038 0 0 .87038 785.58 146.29)"
         d="m127.08-153.9 0.11828 262.25"
         fill="none"
         stroke-width="1.1489"
         id="path82" /><path
         transform="matrix(.87038 0 0 .87038 888.79 -25.137)"
         d="m127.08 43.6 0.11828 30.678"
         fill="none"
         stroke-width="1.1489"
         id="path84" /></g><text
       transform="matrix(0.8704,0,0,0.87035,667.17,-17.27)"
       x="352.77798"
       y="42.779858"
       fill="#000000"
       font-family="Lato"
       font-size="21.447px"
       letter-spacing="0px"
       stroke-width="1.1489"
       word-spacing="0px"
       style="line-height:125%;font-variant-ligatures:normal;font-variant-caps:normal;font-variant-numeric:normal;font-variant-east-asian:normal"
       xml:space="preserve"
       id="text90"><tspan
         x="352.77798"
         y="42.779858"
         font-family="Lato"
         font-size="21.447px"
         stroke-width="1.1489"
         style="font-variant-ligatures:normal;font-variant-caps:normal;font-variant-numeric:normal;font-variant-east-asian:normal"
         id="tspan88">D</tspan></text><text
       transform="matrix(0.8704,0,0,0.87035,761.79,108.9)"
       x="98.293945"
       y="143.83748"
       fill="#000000"
       font-family="Lato"
       font-size="21.447px"
       letter-spacing="0px"
       stroke-width="1.1489"
       word-spacing="0px"
       style="line-height:125%;font-variant-ligatures:normal;font-variant-caps:normal;font-variant-numeric:normal;font-variant-east-asian:normal"
       xml:space="preserve"
       id="text94"><tspan
         x="98.293945"
         y="143.83748"
         font-family="Lato"
         font-size="21.447px"
         stroke-width="1.1489"
         style="font-variant-ligatures:normal;font-variant-caps:normal;font-variant-numeric:normal;font-variant-east-asian:normal"
         id="tspan92">C</tspan></text></g><g
     stroke="#000"
     id="g122"><path
       transform="matrix(0 1.2199 -1.3607 0 939.42 197.87)"
       d="m162.1 71.323-275.78-0.016105"
       fill="none"
       stroke-width=".77617"
       id="path98" /><g
       transform="translate(20.331 8.3682)"
       stroke-linecap="round"
       stroke-linejoin="round"
       id="g108"><path
         transform="matrix(0,1.361,-1.3607,0,919.09,65.841)"
         d="m-8.5008 69.021v4.6436l-5.9083-2.3121 5.9083-2.3509"
         stroke-width=".73484"
         id="path100" /><path
         transform="matrix(0 1.361 -1.3607 0 919.09 301.74)"
         d="m61.493 73.645v-4.6436l5.9083 2.3121-5.9083 2.3509"
         stroke-width=".73484"
         id="path102" /><path
         transform="matrix(-.87038 0 0 .87038 923.48 -17.976)"
         d="m141.48 72.665h-31.468"
         stroke-width="1.1489"
         id="path104" /><path
         transform="matrix(-.87038 0 0 .87038 923.48 331.23)"
         d="m141.48 72.665h-31.468"
         stroke-width="1.1489"
         id="path106" /></g><path
       transform="matrix(-1.3606 0 0 -1.361 66.871 123.47)"
       d="m43.643 71.307-260.4 0.02609"
       fill="none"
       stroke-width=".73486"
       id="path110" /><g
       transform="translate(.0021081 7.4477)"
       stroke-linecap="round"
       stroke-linejoin="round"
       id="g120"><path
         transform="matrix(-1.3606,0,0,-1.361,21.038,116.02)"
         d="m-247.65 69.021v4.6436l-5.9083-2.3121 5.9083-2.3509"
         stroke-width=".73486"
         id="path112" /><path
         transform="matrix(-1.3606,0,0,-1.361,66.869,116.02)"
         d="m42.421 73.645v-4.6436l5.9083 2.3121-5.9083 2.3509"
         stroke-width=".73486"
         id="path114" /><path
         transform="matrix(.87038 0 0 .87038 -110.11 -24.662)"
         d="m127.08 43.6 0.11828 72.339"
         stroke-width="1.1489"
         id="path116" /><path
         transform="matrix(.87038 0 0 .87038 256.39 -24.662)"
         d="m127.08 43.6 0.11828 72.339"
         stroke-width="1.1489"
         id="path118" /></g></g><g
     id="g146"><text
       transform="matrix(.8704 0 0 .87035 -131.5 -17.35)"
       x="352.77798"
       y="42.779858"
       fill="#000000"
       font-family="Lato"
       font-size="21.447px"
       letter-spacing="0px"
       stroke-width="1.1489"
       word-spacing="0px"
       style="font-variant-caps:normal;font-variant-east-asian:normal;font-variant-ligatures:normal;font-variant-numeric:normal;line-height:125%"
       xml:space="preserve"
       id="text126"><tspan
         x="352.77798"
         y="42.779858"
         font-family="Lato"
         font-size="21.447px"
         stroke-width="1.1489"
         style="font-variant-caps:normal;font-variant-east-asian:normal;font-variant-ligatures:normal;font-variant-numeric:normal"
         id="tspan124">A</tspan></text><text
       transform="matrix(.8704 0 0 .87035 344.07 76.481)"
       x="98.293945"
       y="143.83748"
       fill="#000000"
       font-family="Lato"
       font-size="21.447px"
       letter-spacing="0px"
       stroke-width="1.1489"
       word-spacing="0px"
       style="font-variant-caps:normal;font-variant-east-asian:normal;font-variant-ligatures:normal;font-variant-numeric:normal;line-height:125%"
       xml:space="preserve"
       id="text130"><tspan
         x="98.293945"
         y="143.83748"
         font-family="Lato"
         font-size="21.447px"
         stroke-width="1.1489"
         style="font-variant-caps:normal;font-variant-east-asian:normal;font-variant-ligatures:normal;font-variant-numeric:normal"
         id="tspan128">B</tspan></text><g
       transform="translate(16.479 11.445)"
       stroke="#000"
       id="g144"><path
         transform="matrix(0,1.2199,1.3607,0,334.19,186.44)"
         d="m106.23 71.309-219.91-0.001402"
         stroke-width=".77617"
         id="path132" /><g
         stroke-linecap="round"
         stroke-linejoin="round"
         id="g142"><path
           transform="matrix(0,1.361,1.3607,0,333.94,62.78)"
           d="m-8.5008 69.021v4.6436l-5.9083-2.3121 5.9083-2.3509"
           stroke-width=".73484"
           id="path134" /><path
           transform="matrix(0 1.361 1.3607 0 334.17 229.57)"
           d="m61.493 73.645v-4.6436l5.9083 2.3121-5.9083 2.3509"
           stroke-width=".73484"
           id="path136" /><path
           transform="matrix(.87038 0 0 .87038 329.55 -21.037)"
           d="m141.48 72.665h-31.468"
           stroke-width="1.1489"
           id="path138" /><path
           transform="matrix(.87038 0 0 .87038 329.78 146.44)"
           d="m137.3 202.05h-27.29"
           stroke-width="1.1489"
           id="path140" /></g></g></g><g
     fill="none"
     stroke="#000"
     stroke-linecap="round"
     id="g154"><path
       transform="matrix(.90637 0 0 .90579 1.2709 -97.665)"
       d="m34.222 258.55-1.3855 1.4559-1.5194-1.3144-0.88219 0.97213 1.4548 1.385-1.3142 1.5206 0.9713 0.88217 1.3874-1.4556 1.5189 1.315 0.93056-1.0942-1.5035-1.2633 1.3145-1.5202zm0.48365 4.1359c-0.92515 1.0109-2.4946 1.0805-3.5056 0.15538-1.0109-0.92515-1.0805-2.4946-0.15538-3.5056 0.92514-1.0109 2.4946-1.0805 3.5056-0.15539 1.0109 0.92514 1.0805 2.4946 0.15539 3.5056zm1.6532 1.4375c-1.7269 1.887-4.6566 2.0169-6.5437 0.29004-1.8871-1.7269-2.0169-4.6566-0.29005-6.5437 1.7269-1.887 4.6566-2.0169 6.5437-0.29005 1.8871 1.7269 2.0169 4.6566 0.29005 6.5437zm149.84-5.5621-1.3855 1.456-1.5194-1.3144-0.88219 0.97213 1.4548 1.385-1.3142 1.5206 0.97131 0.88217 1.3874-1.4556 1.5189 1.315 0.93056-1.0942-1.5035-1.2633 1.3145-1.5202zm0.48365 4.1359c-0.92515 1.0109-2.4946 1.0805-3.5056 0.15538-1.0109-0.92515-1.0805-2.4946-0.15538-3.5056 0.92514-1.0109 2.4946-1.0805 3.5056-0.15538 1.0109 0.92514 1.0805 2.4946 0.15539 3.5056zm1.6532 1.4375c-1.7269 1.887-4.6566 2.0169-6.5437 0.29005-1.887-1.7269-2.0169-4.6566-0.29004-6.5437 1.7269-1.887 4.6566-2.0169 6.5437-0.29005 1.887 1.7269 2.0169 4.6566 0.29005 6.5437zm32.059-5.5845-1.3855 1.456-1.5194-1.3144-0.8822 0.97212 1.4548 1.385-1.3142 1.5206 0.97131 0.88217 1.3874-1.4556 1.5189 1.315 0.93056-1.0942-1.5035-1.2633 1.3145-1.5202zm0.48365 4.1359c-0.92515 1.0109-2.4946 1.0805-3.5056 0.15539-1.0109-0.92515-1.0805-2.4946-0.15538-3.5056 0.92514-1.0109 2.4946-1.0805 3.5056-0.15538 1.0109 0.92514 1.0805 2.4946 0.15539 3.5056zm1.6532 1.4375c-1.7269 1.887-4.6566 2.0169-6.5437 0.29004-1.887-1.7269-2.0169-4.6566-0.29004-6.5437 1.7269-1.887 4.6566-2.0169 6.5437-0.29005 1.887 1.7269 2.0169 4.6566 0.29005 6.5437zm140.94-96.523h5.5748m-7.4271 3.2247 0.0196-1.2067 9.2413 0.01 0.0177 1.1978m-4e-5 -0.9082c0-1.11-0.76879-2.0721-1.8515-2.3169m-5.5748 0c-1.0827 0.24482-1.8515 1.2069-1.8515 2.3169m-326.27-2.317h5.5748m-7.4271 3.2247 0.0196-1.2067 9.2413 0.01 0.0177 1.1978m-4e-5 -0.9082c-3e-6 -1.11-0.76879-2.0721-1.8515-2.3169m-5.5748 0c-1.0827 0.24482-1.8515 1.2069-1.8515 2.3169m336.92 88.42-0.0392 2.0094-2.0083 0.0561 5e-3 1.3127 2.0082 0.0396 0.0571 2.009 1.3121-5e-3 0.0408-2.0105 2.0083-0.0553-0.0522-1.4354-1.9621 0.0831-0.0565-2.0089zm3.149 2.7246c0 1.3704-1.1109 2.4813-2.4813 2.4813-1.3704-6e-5 -2.4812-1.111-2.4812-2.4813 5e-5 -1.3703 1.1109-2.4811 2.4812-2.4812 1.3703 0 2.4812 1.1108 2.4813 2.4812zm2.19-0.0556c0 2.558-2.0737 4.6317-4.6317 4.6317-2.558-6e-5 -4.6316-2.0737-4.6316-4.6317 5e-5 -2.5579 2.0737-4.6315 4.6316-4.6316 2.558 0 4.6316 2.0736 4.6317 4.6316zm-374.56-31.435v-18.165m9.7809 0v18.165m391.93-18.165v18.165m-9.7809 0v-18.165m-381.11 18.863v-19.562m2.0959 0v19.562m377.96-19.562v19.562m-2.0959 0v-19.562m-4.5411 12.455h4.1918m0-0.93951h-4.1918m4.1918-4.4095h-4.1918m-366.78 4.4095h-4.1918m368.88 15.032v4.1918m0-41.918v4.1918m2.0959 15.032h4.1918m-375.17 4.4095h4.1918m-4.1918-4.4095h4.1918m0-0.93951h-4.1918m6.2877-14.093v-4.1918m0 41.918v-4.1918m4.541-63.227h353.51m-356.3 91.172h-0.34932m359.8 0h-0.34916m-359.53-18.774v-2.8835m0.0838 2.8835h-0.0838m0 13.884v-13.883m-4.5272 8.4106 6e-3 0.17076 0.0169 0.17035 0.0282 0.16948 0.0394 0.16821 0.0505 0.16651 0.0615 0.1644 0.0722 0.16188 0.0829 0.15894 0.0933 0.15562 0.10354 0.15192 0.11346 0.1478 0.1231 0.14336 0.13246 0.13847 0.14143 0.1333 0.15009 0.12785 0.15837 0.12198 0.16626 0.11597 0.17371 0.10955 0.18077 0.10284 0.18733 0.0958 0.19345 0.0887 0.19908 0.0813 0.20421 0.0736 0.20884 0.0658 0.21294 0.0578 0.2165 0.0498 0.21954 0.0416 0.22201 0.0333 0.22392 0.0249 0.2253 0.0164 0.22611 8e-3 0.0942 7.4e-4m359.96 1.6091v0.44663m-0.0838-0.44663h0.0838m0-16.321v16.321m4.5272-9.1789-6e-3 -0.0728-0.0169-0.0726-0.0282-0.0724-0.0394-0.0718-0.0504-0.0711-0.0615-0.0702-0.0722-0.069-0.0829-0.0678-0.0933-0.0664-0.10353-0.0648-0.11346-0.063-0.1231-0.0612-0.13246-0.0591-0.14143-0.0569-0.1501-0.0545-0.15837-0.0521-0.16624-0.0495-0.17373-0.0467-0.18076-0.0439-0.18733-0.0409-0.19345-0.0379-0.19909-0.0346-0.20421-0.0314-0.20883-0.0281-0.21293-0.0247-0.21651-0.0212-0.21954-0.0177-0.22201-0.0143-0.22393-0.0112-0.22529-7e-3 -0.2261-3e-3 -0.0942-3.2e-4m-25.584-78.342c-0.88528-2.235-3.0455-3.7028-5.4494-3.7028m-18.444 0c-2.4039-1e-5 -4.5641 1.4678-5.4494 3.7028m23.893-3.7028h-18.444m-313.2 36.539h2.7945m-2.7945 33.534h2.7945m-2.7945-33.534v33.535m362.59 0h2.7945m-2.7945-33.534h2.7945m0 33.534v-33.534m-383.55 7.685c-0.38584 1e-5 -0.69862 0.31279-0.69863 0.69863m18.165 2.7945h0.69848m-8.3835 14.671c0.38584-1e-5 0.69862-0.31279 0.69863-0.69863m-0.69863 0.69863h-9.7809m9.7809-18.165h-9.7809m10.48 0.69863c-6e-6 -0.38584-0.31279-0.69862-0.69863-0.69863m-10.48 17.466c5.52e-6 0.38584 0.31279 0.69862 0.69863 0.69863m17.466-3.4932h0.69848m-18.863-13.973v16.767m403.11-16.767c-1e-5 -0.38584-0.31279-0.69862-0.69863-0.69863m-17.466 14.671h-0.69879m7.6851 2.7945c0 0.38584 0.31279 0.69863 0.69864 0.69863m9.7809 0c0.38584-1e-5 0.69862-0.31279 0.69863-0.69863m-10.48-17.466h9.7809m-9.7809 0c-0.38585 0-0.69864 0.31279-0.69864 0.69863m-6.9864 2.7945h-0.69879m8.3838 14.671h9.7809m0.69863-0.69863v-16.767m-391.93 17.815c0 0.19292 0.1564 0.34932 0.34932 0.34932m0-19.562c-0.19292 0-0.34932 0.1564-0.34932 0.34932m0.34932-0.34932h2.0959m0.34932 0.34932c0-0.19292-0.1564-0.34932-0.34932-0.34932m-2.0959 19.562h2.0959c0.19292 0 0.34932-0.1564 0.34932-0.34932m-2.7945-18.863v18.863m380.41 0.34932c0.19292 0 0.34932-0.1564 0.34932-0.34932m-2.4452-19.212c-0.19293 0-0.34932 0.1564-0.34932 0.34932m2.7945 0c0-0.19292-0.1564-0.34932-0.34932-0.34932m0 19.562h-2.0959m-0.34932-0.34932c0 0.19292 0.15639 0.34932 0.34932 0.34932m2.0959-19.562h-2.0959m2.4452 19.212v-18.863m-377.96 9.4316v1.735m370.98 19.224h4.1918m-375.17-18.285v18.285m375.17-23.634v-18.285m0 20.959v1.735m-4.1918 0.93951v18.285m-366.78-41.918h-4.1918m4.1918 20.959v-1.735m0 3.47v-1.735m2.0959 20.959h-2.0959m366.78-41.918v18.285m-366.78 5.349v-0.93951m-4.1918 0v0.93951m4.1918 18.285v-18.285m363.29-23.634h1.3974m-3.4934 0h4e-5m-355.61 0h4e-5m-3.4931 0h1.3971m367.48 19.224v-0.93951m-4.1918 23.634h-2.0959m6.2877-41.918h-4.1918m-370.98 18.285v0.93951m0 1.735h4.1918m-4.1918-20.959v18.285m370.98 0v0.93951m0 3.47v0.93951m-366.78-5.349v-18.285m3.493 41.918h-1.3971m3.4931 0h-4e-5m355.61 0h-4e-5m3.4934 0h-1.3974m7.6851 0v-18.285m-370.98-23.634h2.0959m-6.2877 19.224v1.735m370.98 0v1.735m4.1918 0.93951v-0.93951m-375.17 19.224h4.1918m366.78-22.694v1.735m-366.78-1.735v-0.93951m370.98 2.6745h-4.1918m4.1918-1.735v1.735m-6.2877-20.959h2.0959m-3.8426 64.274c0-0.38585-0.31279-0.69864-0.69864-0.69864m-335.92-26.318c-1.2949 0.27083-2.2224 1.4125-2.2224 2.7354m132.74-13.438c1e-5 -1.5482-1.2586-2.8013-2.8068-2.7945m198.5 57.981c1.5531 0 3.062-0.51753 4.2881-1.4708m-353.33-17.392h2.0959m4.3694 17.392c1.2261 0.95327 2.735 1.4708 4.2881 1.4708m-10.753-107.24v88.377m359.8-88.377h-2.0959m-354.56 0h-1.0479m0 89.076h-1.048m2.0959-89.076v-3.1438m203.3 89.425v-34.227m-206.45 39.117v1.3973m357.7-4.1918h2.0959m-330.11-79.644c-4.6327 0.0248-4.6327 6.9615 0 6.9863m-28.644 73.357c-0.38584 1e-5 -0.69863 0.3128-0.69863 0.69864m329.76-74.055c4.6327-0.0248 4.6327-6.9615 0-6.9863m-328.01 80.343v-0.69863m148.45-39.117c-42.916 0.18917-85.703 4.7114-127.71 13.498m-2.2224 23.524c0 1.5434 1.2511 2.7945 2.7945 2.7945m185.85-39.816c-1.5482-7e-3 -2.8068 1.2463-2.8068 2.7945m153.35 36.323v-88.377m-3.1438 0h1.0479m4e-5 88.377v0.69863m1.7466 0.69864v3.4932m-357.35-4.1918v-89.076m355.61 0c-6e-5 -0.57876-0.46925-1.0479-1.048-1.0479m-17.466 66.541v20.789m-338.84 6.9864c6e-6 4.8879 2.2572 9.5019 6.116 12.502m352.98-13.201h0.34916m-3.1438-95.713v3.1438m-159.29 8.733h132.74m-330.11 83.836h0.34932m-0.34932-1.3973v-2.7945m153.35-36.323v34.227m183.04 2.7945h-127.15m-58.685 0c1.5434 0 2.7945-1.2511 2.7945-2.7945m204.35-86.281v89.076m-27.596-73.357h-132.74m-195.27 72.658v-88.377m27.596 8.733h132.74m195.27 80.343h1.048m-208.19 0h-127.15m336.39 2.0959v-2.7945m-197.36-72.658h-132.74m307.27 47.038c-42.007-8.7866-84.794-13.309-127.71-13.498m-188.64 37.021v-20.789m-17.466-68.637c-1.7363 0-3.1438 1.4075-3.1439 3.1438m336.39 89.076c1.5434 0 2.7945-1.2511 2.7945-2.7945m-338.84 3.4932v3.4932m162.08-77.548c4.6327-0.0248 4.6327-6.9615 0-6.9863m176.75 56.76c4e-5 -1.3229-0.92753-2.4646-2.2224-2.7354m20.736-62.758v88.377m-1.048-91.521h-353.51m356.65 95.713v-1.3973m-162.43-82.439c-4.6327 0.0248-4.6327 6.9615 0 6.9863m9.0823 70.562c0 1.5434 1.2511 2.7945 2.7945 2.7945m-206.1-90.124c-0.57876 0-1.0479 0.46914-1.048 1.0479m357.7 0c-6e-5 -1.7362-1.4076-3.1437-3.1438-3.1438m-345.9 110.38h338.29m4.2881-1.4708c3.8588-3.0001 6.116-7.6141 6.116-12.502m-357.35-93.268h-2.0959m298.67 83.138c0.36588 0 0.72989-0.0523 1.081-0.15519m2.0158-1.4126c1.011-1.3764 0.99219-3.2549-0.0461-4.6108m-1.8962-1.3288c-0.37354-0.11768-0.76287-0.17756-1.1545-0.17757m-263.01 8.4255-0.92771 5.1024m5.3796-29.588-2.5108 13.81m23.535 9.9354c5.1233 0 5.1233-7.685 0-7.685m-61.131 10.829h-0.0838m0.0838-16.767h-0.0838m2.1798 12.575h-4e-5m-2.1797-12.575c-2.5003 0-4.5272 2.0269-4.5272 4.5272m6.7069-0.33535h-4e-5m-6.7069 8.0483c0 2.5003 2.0269 4.5272 4.5272 4.5272m-4.5272-5.4731v-6.767m0 7.7129v-0.94593m362.31-7.1024h4e-5m2.0959-4.1918h0.0838m4.5272 4.5272c0-2.5003-2.0269-4.5272-4.5272-4.5272m-2.1798 12.575h4e-5m2.0959 4.1918h0.0838c2.5003 0 4.5272-2.0269 4.5272-4.5272m0-5.0984v5.0985m0-7.7129v2.6145m-6.7069-20.416h4e-5m0-4.8904-4e-5 0.0326m4e-5 2.4377h-4e-5m0-2.5029 4e-5 0.0326m0-12.251h-4e-5m0-2.4202h4e-5m-4e-5 19.562h4e-5m0-19.562h-4e-5m0 4.8579 4e-5 0.0326m0 1e-5 -4e-5 0.0326m-355.61-9e-5 -4e-5 -0.0324m0 9.7808 4e-5 -0.0326m0-14.639h-4e-5m0 4.8904 4e-5 -0.0326m-4e-5 2.5029h4e-5m-4e-5 4.8403h4e-5m0 2.5029-4e-5 -0.0326m4e-5 -4.8905h-4e-5m0 9.7809h4e-5m292.73 23.055c2e-5 2.5638 2.4631 4.4085 4.9234 3.6873m2.0158-1.4125c1.0112-1.3765 0.99239-3.2552-0.0461-4.6112m-1.8962-1.3286c-2.476-0.7799-4.9969 1.0691-4.9969 3.665m-259.17 4.5839-0.92753 5.1015m5.3796-29.588-2.511 13.81m284.61 0-2.511-13.81m5.3796 29.588-0.92753-5.1015m-266.85-4.5839c-1.3e-5 0.81837 0.26125 1.6154 0.74574 2.2749m2.0158 1.4125c2.4757 0.72576 4.949-1.146 4.9232-3.7257-0.02579-2.5798-2.536-4.4017-4.9967-3.6266m-1.8962 1.3286c-0.51355 0.67057-0.79186 1.4917-0.79186 2.3363m-9.6364-20.873c-0.32579 0.0489-0.56785 0.32714-0.57114 0.65656m254.44-1.6071 0.30222 30.221m-48.234 1.3833c0.76623-2e-5 1.3895-0.6171 1.3972-1.3833m35.342-31.684c-3e-3 -0.33587-0.25466-0.61746-0.58798-0.65887m-66.539-5.11 0.37452 37.452m-99.933 1.3833c0.76623-2e-5 1.3895-0.6171 1.3972-1.3833m154.1-33.002c-3e-3 -0.33911-0.25939-0.62233-0.59643-0.65986m-141.31-4.4542c-0.35493 0.017-0.63499 0.3079-0.63854 0.66322m86.609 0c-4e-3 -0.35532-0.28362-0.64621-0.63855-0.66322m-87.742 39.499c0.76623-2e-5 1.3895-0.6171 1.3972-1.3833m-90.822 1.3833c0.76623-2e-5 1.3895-0.6171 1.3972-1.3833m57.663-35.215c-4e-3 -0.39034-0.33905-0.69488-0.72798-0.66152m-77.417 10.865c-0.0024-0.23668-0.1293-0.45459-0.33401-0.57339m253.49 25.585c8e-3 0.7662 0.63096 1.3833 1.3972 1.3833m31.28-30.654-0.21037-0.0316m-197.09-7.4578c-0.34791 0.0255-0.61822 0.31338-0.6217 0.6622m-65.592 7.4523 0.28647 28.646m219.03-34.176c-3e-3 -0.34234-0.26415-0.62715-0.60486-0.66074m-34.712 34.837 0.36847-36.849m-95.031-0.60542 0.37455 37.454m81.712 1.3833c0.76623-2e-5 1.3895-0.6171 1.3972-1.3833m127.59 19.548h-1.4e-4m-105.23-19.548 0.36101-36.102m-107.95 36.102 0.37452-37.452m-43.305 3.2663c-4e-3 -0.3937-0.34456-0.69934-0.73638-0.66076m-11.298 1.1854c-0.33705 0.0375-0.59304 0.32075-0.59643 0.65986m-9.7011 1.2996 0.31702 31.702m163.11-36.846 0.36847 36.846m-88.755 1.3833c0.76623-2e-5 1.3895-0.6171 1.3972-1.3833m-43.747-35.87c-0.34433 0.0296-0.60981 0.31594-0.61327 0.66152m130.67-2.3032c-0.38299-0.0232-0.70732 0.2791-0.71115 0.66277m-128.54 1.6336 0.35216 35.215m21.277-37.511-0.046 3e-3m205.8 38.892c0.76623-2e-5 1.3895-0.6171 1.3972-1.3833m-308.8 0 0.24961-24.962m265.96 24.962c8e-3 0.7662 0.63096 1.3833 1.3972 1.3833m61.288 16.694c3.8588-3.0001 6.116-7.6141 6.116-12.502m-322.75-33.132-0.24537 0.04m231.5-6.6598 0.34177 34.176m-211.71 1.3833c0.76623-2e-5 1.3895-0.6171 1.3972-1.3833m91.17-37.919 0.37919 37.919m-69.193 0 0.33001-33.002m228.82 34.385c0.76623-2e-5 1.3895-0.6171 1.3972-1.3833m-239.92-31.702c-4e-3 -0.40046-0.35579-0.70818-0.75322-0.65888m205.74 33.744c0.76623-2e-5 1.3895-0.6171 1.3972-1.3833m-195.97-33.675-0.12268 0.014m252.56 8.0763c-0.20468 0.11881-0.33159 0.33669-0.33395 0.57334m-196.22-13.106-0.0338 1e-3m-44.68 3.269-0.0992 0.01m141.3-2.6715-0.046-3e-3m-10.134 37.511c8e-3 0.7662 0.63096 1.3833 1.3972 1.3833m20.959-1.3833c8e-3 0.7662 0.63096 1.3833 1.3972 1.3833m-189.36-1.3833 0.3022-30.221m23.848-2.794 0.33016 33.015m44.344-36.849 0.36849 36.849c8e-3 0.7662 0.63096 1.3833 1.3972 1.3833m-13.656-38.148-0.0609 4e-3m174.75 4.3995c-0.39743-0.0493-0.74921 0.25843-0.75321 0.65888m-66.309-6.4153c-0.37993-0.0182-0.69893 0.28288-0.70273 0.66322m-185.38 9.9375c-0.32195 0.0525-0.55943 0.32904-0.5627 0.65523m173.14 28.236c0.70403-0.0762 1.2397-0.66709 1.2468-1.3752m125.08 0c7e-3 0.70808 0.54271 1.2989 1.2467 1.3752m-299.13-28.276c-0.0041-0.4107-0.37305-0.72127-0.77843-0.65527m33.512-4.8044-0.14907 0.0185m-43.493 32.342c0.0077 0.7662 0.63097 1.3833 1.3972 1.3833m65.672-1.3833c8e-3 0.7662 0.63096 1.3833 1.3972 1.3833m-57.557-28.285 0.26902 26.901m64.945 0 0.35207-35.208m109.36 35.208c8e-3 0.7662 0.63096 1.3833 1.3972 1.3833m98.92-29.997c-3e-3 -0.32942-0.24534-0.60767-0.57113-0.65656m-252.35-0.97498c-4e-3 -0.40385-0.36147-0.71255-0.76161-0.65778m152.99-7.0145 0.37919 37.918m43.669-35.877c-0.38893-0.0334-0.72406 0.27118-0.72797 0.66152m-217.6 35.215c0.0077 0.7662 0.63097 1.3833 1.3972 1.3833m19.717-32.262c-0.32958 0.0452-0.57623 0.32512-0.57956 0.65776m265.64 3.36c-3e-3 -0.32619-0.24075-0.60272-0.5627-0.65523m-67.203-8.3533-0.0787-7e-3m-131.03 35.877 0.36844-36.846m161.71 38.229c0.76623-2e-5 1.3895-0.6171 1.3972-1.3833m-42.95-36.098c-3e-3 -0.34882-0.27379-0.63674-0.6217-0.6622m45.378 5.0766 0.31685 31.684m-22.356 0c8e-3 0.7662 0.63096 1.3833 1.3972 1.3833m-48.234-1.3833 0.37454-37.454m0.73652-0.6616-0.0338-1e-3m-196.22 13.105 0.25013 25.012m306.67 0 0.25011-25.012m-32.721-5.8919c-0.40014-0.0548-0.75757 0.25393-0.76161 0.65778m-22.659 30.246 0.33015-33.015m-163.81 33.015 0.36097-36.098m-46.471 37.481c0.76623-2e-5 1.3895-0.6171 1.3972-1.3833m9.781 1.3833c0.76623-2e-5 1.3895-0.6171 1.3972-1.3833m1.794-33.015c-4e-3 -0.39707-0.35015-0.70377-0.7448-0.65987m-10.103 33.675c0.0077 0.7662 0.63097 1.3833 1.3972 1.3833m228.85-31.605c-3e-3 -0.33264-0.24999-0.61258-0.57956-0.65776m-33.599-3.958-0.0992-0.01m92.204 36.929v3.4932m-312.65-5.5751 0.28613-28.614m-23.889 29.989c0.70403-0.0762 1.2397-0.66709 1.2468-1.3752m264.08 0 0.31701-31.702m-31.727 31.702c8e-3 0.7662 0.63096 1.3833 1.3972 1.3833m31.232-33.726-0.14908-0.0184m-32.833-2.8474 0.35209 35.208m-141.49-36.102 0.36103 36.102m21.982-37.454c-4e-3 -0.38034-0.3228-0.68141-0.70273-0.66322m161.04 39.501c0.76623-2e-5 1.3895-0.6171 1.3972-1.3833m-89.425 0 0.37918-37.919m-61.511 0c-2e-3 -0.19453-0.0883-0.37863-0.23656-0.50454m129.64 4.7619-0.12268-0.014m-131.02 33.675 0.37918-37.918m86.978 37.918c8e-3 0.7662 0.63096 1.3833 1.3972 1.3833m-120.53-37.486c-4e-3 -0.387-0.33358-0.69043-0.71957-0.6622m152.34 1.9177c-0.39183-0.0386-0.73246 0.26706-0.73639 0.66076m46.495 34.186c8e-3 0.7662 0.63096 1.3833 1.3972 1.3833m8.9496-28.9-0.24537-0.04m-253.95 27.556 0.31683-31.684m232.36 31.684c8e-3 0.7662 0.63096 1.3833 1.3972 1.3833m31.888-26.345 0.24962 24.962m-80.371 0 0.35214-35.215m-105.82 35.215c7e-3 0.70808 0.54271 1.2989 1.2467 1.3752m128.37-34.377 0.33002 33.002m-219.67-30.246 0.30246 30.246m298.65 1.3833h1.5e-4m-80.33-35.058c-0.39466-0.0439-0.74083 0.2628-0.7448 0.65987m-35.262 34.399c0.76623-2e-5 1.3895-0.6171 1.3972-1.3833m80.371 0c8e-3 0.7662 0.63096 1.3833 1.3972 1.3833m-255.52-33.726c-0.33333 0.0414-0.58463 0.32299-0.58799 0.65887m142.55-6.2345c-2e-3 -0.1913-0.0854-0.37268-0.22953-0.49851m-108.06 2.54-0.0787 7e-3m196.05 35.87 0.30245-30.246m-208.5 30.246 0.34176-34.176m267.6 36.258c0-0.38585-0.31279-0.69864-0.69864-0.69864m-38.09 0c0.76623-2e-5 1.3895-0.6171 1.3972-1.3833m-209.59 1.3833c0.76623-2e-5 1.3895-0.6171 1.3972-1.3833m187.08-30.879-0.17829-0.0245m-266.55 32.287c0.76623-2e-5 1.3895-0.6171 1.3972-1.3833m12.246-29.302-0.21037 0.0316m11.381-1.6328-0.1783 0.0245m197.91-4.3292c-3e-3 -0.34558-0.26895-0.63195-0.61327-0.66152m-117.8 35.87c8e-3 0.7662 0.63096 1.3833 1.3972 1.3833m-13.701-38.892c-0.35145 0.0213-0.62662 0.31069-0.63013 0.66277m-35.3 38.229c0.76623-2e-5 1.3895-0.6171 1.3972-1.3833m142.88-36.846c-4e-3 -0.35207-0.27868-0.64149-0.63012-0.66277m-128.95 37.509c8e-3 0.7662 0.63096 1.3833 1.3972 1.3833m138.74-38.143-0.0609-4e-3m104.15 56.312c1.5531 0 3.062-0.51753 4.2881-1.4708m-18.222-43.039c-1e-3 -0.1381-0.0453-0.27241-0.12589-0.38458m-310.17-7e-5c-0.08062 0.11218-0.12464 0.24651-0.12603 0.38465m123.32-13.455c-0.14411 0.12583-0.22762 0.30721-0.22953 0.49851m174.28 37.918 0.269-26.901m1.5865 0.0399 0.26862 26.861m-222.89 1.3833c0.76623-2e-5 1.3895-0.6171 1.3972-1.3833m209.25-29.302c-0.40279-0.0603-0.76595 0.24932-0.77002 0.65658m1.5515 0.0315 0.28615 28.614m-219.71-34.186 0.34187 34.186m-44.999-28.646c-0.0041-0.40726-0.36723-0.71692-0.77002-0.65658m-12.246 29.302 0.26861-26.861m209.01-9.9033c-0.38599-0.0282-0.71569 0.2752-0.71956 0.6622m-151.72 1.2653c-0.34071 0.0336-0.60142 0.3184-0.60485 0.66074m139.39 35.56c0.76623-2e-5 1.3895-0.6171 1.3972-1.3833m33.534 0 0.34185-34.186m-139.71-2.6625c-4e-3 -0.38368-0.32817-0.68594-0.71116-0.66277m-65.989 37.511c0.0077 0.7662 0.63097 1.3833 1.3972 1.3833m249.38-1.3833 0.28646-28.646m-195.18 28.646c8e-3 0.7662 0.63096 1.3833 1.3972 1.3833m93.506-39.807c-0.1483 0.12591-0.23461 0.31001-0.23656 0.50454m-161.74 37.919c0.0077 0.7662 0.63097 1.3833 1.3972 1.3833m214.45 0c0.76623-2e-5 1.3895-0.6171 1.3972-1.3833m56.938-27.556c-0.40538-0.066-0.77434 0.24457-0.77844 0.65527m-239.87 26.901c8e-3 0.7662 0.63096 1.3833 1.3972 1.3833m161.72-37.481 0.36099 36.098"
       stroke-width="1.1036px"
       id="path148" /><path
       transform="matrix(.90672 0 0 .9067 18.846 13.093)"
       d="m516.47 44.718h5.5748m-7.4271 3.2246 0.0196-1.2066 9.2413 0.01 0.0177 1.1978m-4e-5 -0.9083c0-1.11-0.76879-2.0721-1.8515-2.3169m-5.5748 0c-1.0827 0.2448-1.8515 1.2069-1.8515 2.3169m154.04-2.3169h5.5748m-7.4271 3.2246 0.0196-1.2066 9.2413 0.01 0.0177 1.1978m-4e-5 -0.9083c0-1.11-0.76879-2.0721-1.8515-2.3169m-5.5748 0c-1.0827 0.2448-1.8515 1.2069-1.8515 2.3169m35.869-2.3169h5.5748m-7.4271 3.2246 0.0196-1.2066 9.2413 0.01 0.0177 1.1978m-4e-5 -0.9083c0-1.11-0.76879-2.0721-1.8515-2.3169m-5.5748 0c-1.0827 0.2448-1.8515 1.2069-1.8515 2.3169m153.82-2.2585h5.5748m-7.4271 3.2246 0.0196-1.2066 9.2413 0.01 0.0177 1.1978m-353.26-1e-4h359.1m-20.712 151.02-1.1602 1.6875-1.74-1.0785-0.73147 1.1198 1.6863 1.1598-1.078 1.7411 1.119 0.73158 1.1621-1.6875 1.7395 1.0791 0.76053-1.2504-1.7158-1.0296 1.0784-1.7407zm3.9172 2.7031c0 2.6879-2.1789 4.8668-4.8668 4.8668s-4.8668-2.1789-4.8668-4.8668 2.1789-4.8668 4.8668-4.8668 4.8668 2.1789 4.8668 4.8668zm-319.7-2.7031-1.1602 1.6875-1.74-1.0785-0.73147 1.1198 1.6863 1.1598-1.078 1.7411 1.119 0.73158 1.1621-1.6875 1.7395 1.0791 0.76053-1.2504-1.7158-1.0296 1.0784-1.7407zm3.9172 2.7031c0 2.6879-2.1789 4.8668-4.8668 4.8668s-4.8668-2.1789-4.8668-4.8668 2.1789-4.8668 4.8668-4.8668 4.8668 2.1789 4.8668 4.8668zm311.87 39.215-1.1602 1.6875-1.74-1.0785-0.73147 1.1198 1.6863 1.1598-1.078 1.7411 1.119 0.73158 1.1621-1.6875 1.7395 1.0791 0.76053-1.2504-1.7158-1.0296 1.0784-1.7407zm3.9172 2.7031c0 2.6879-2.1789 4.8668-4.8668 4.8668s-4.8668-2.1789-4.8668-4.8668 2.1789-4.8668 4.8668-4.8668 4.8668 2.1789 4.8668 4.8668zm-67.074-2.7031-1.1602 1.6875-1.74-1.0785-0.73147 1.1198 1.6863 1.1598-1.078 1.7411 1.119 0.73158 1.1621-1.6875 1.7395 1.0791 0.76053-1.2504-1.7158-1.0296 1.0784-1.7407zm3.9172 2.7031c0 2.6879-2.1789 4.8668-4.8668 4.8668s-4.8668-2.1789-4.8668-4.8668 2.1789-4.8668 4.8668-4.8668 4.8668 2.1789 4.8668 4.8668zm-67.074-2.7031-1.1602 1.6875-1.74-1.0785-0.73147 1.1198 1.6863 1.1598-1.078 1.7411 1.119 0.73158 1.1621-1.6875 1.7395 1.0791 0.76053-1.2504-1.7158-1.0296 1.0784-1.7407zm3.9172 2.7031c0 2.6879-2.1789 4.8668-4.8668 4.8668s-4.8668-2.1789-4.8668-4.8668 2.1789-4.8668 4.8668-4.8668 4.8668 2.1789 4.8668 4.8668zm-67.074-2.7031-1.1602 1.6875-1.74-1.0785-0.73147 1.1198 1.6863 1.1598-1.078 1.7411 1.119 0.73158 1.1621-1.6875 1.7395 1.0791 0.76053-1.2504-1.7158-1.0296 1.0784-1.7407zm3.9172 2.7031c0 2.6879-2.1789 4.8668-4.8668 4.8668s-4.8668-2.1789-4.8668-4.8668 2.1789-4.8668 4.8668-4.8668 4.8668 2.1789 4.8668 4.8668zm-67.074-2.7031-1.1602 1.6875-1.74-1.0785-0.73147 1.1198 1.6863 1.1598-1.078 1.7411 1.119 0.73158 1.1621-1.6875 1.7395 1.0791 0.76053-1.2504-1.7158-1.0296 1.0784-1.7407zm3.9172 2.7031c0 2.6879-2.1789 4.8668-4.8668 4.8668s-4.8668-2.1789-4.8668-4.8668 2.1789-4.8668 4.8668-4.8668 4.8668 2.1789 4.8668 4.8668zm-67.071-2.703-1.1602 1.6875-1.74-1.0785-0.73147 1.1198 1.6863 1.1598-1.078 1.7411 1.119 0.73158 1.1621-1.6875 1.7395 1.0791 0.76053-1.2504-1.7158-1.0296 1.0784-1.7407zm3.9172 2.7031c0 2.6879-2.1789 4.8668-4.8668 4.8668s-4.8668-2.1789-4.8668-4.8668 2.1789-4.8668 4.8668-4.8668 4.8668 2.1789 4.8668 4.8668zm311.87-86.563-1.1602 1.6875-1.74-1.0785-0.73147 1.1199 1.6863 1.1598-1.078 1.741 1.119 0.7316 1.1621-1.6875 1.7395 1.0791 0.76053-1.2504-1.7158-1.0296 1.0784-1.7407zm3.9172 2.7031c0 2.6879-2.1789 4.8668-4.8668 4.8668s-4.8668-2.1789-4.8668-4.8668c0-2.6878 2.1789-4.8668 4.8668-4.8668s4.8668 2.179 4.8668 4.8668zm-67.074-2.7031-1.1602 1.6875-1.74-1.0785-0.73147 1.1199 1.6863 1.1598-1.078 1.741 1.119 0.7316 1.1621-1.6875 1.7395 1.0791 0.76053-1.2504-1.7158-1.0296 1.0784-1.7407zm3.9172 2.7031c0 2.6879-2.1789 4.8668-4.8668 4.8668s-4.8668-2.1789-4.8668-4.8668c0-2.6878 2.1789-4.8668 4.8668-4.8668s4.8668 2.179 4.8668 4.8668zm-67.074-2.7031-1.1602 1.6875-1.74-1.0785-0.73147 1.1199 1.6863 1.1598-1.078 1.741 1.119 0.7316 1.1621-1.6875 1.7395 1.0791 0.76053-1.2504-1.7158-1.0296 1.0784-1.7407zm3.9172 2.7031c0 2.6879-2.1789 4.8668-4.8668 4.8668s-4.8668-2.1789-4.8668-4.8668c0-2.6878 2.1789-4.8668 4.8668-4.8668s4.8668 2.179 4.8668 4.8668zm-67.074-2.7031-1.1602 1.6875-1.74-1.0785-0.73147 1.1199 1.6863 1.1598-1.078 1.741 1.119 0.7316 1.1621-1.6875 1.7395 1.0791 0.76053-1.2504-1.7158-1.0296 1.0784-1.7407zm3.9172 2.7031c0 2.6879-2.1789 4.8668-4.8668 4.8668s-4.8668-2.1789-4.8668-4.8668c0-2.6878 2.1789-4.8668 4.8668-4.8668s4.8668 2.179 4.8668 4.8668zm-67.074-2.7031-1.1602 1.6875-1.74-1.0785-0.73147 1.1199 1.6863 1.1598-1.078 1.741 1.119 0.7316 1.1621-1.6875 1.7395 1.0791 0.76053-1.2504-1.7158-1.0296 1.0784-1.7407zm3.9172 2.7031c0 2.6879-2.1789 4.8668-4.8668 4.8668s-4.8668-2.1789-4.8668-4.8668c0-2.6878 2.1789-4.8668 4.8668-4.8668s4.8668 2.179 4.8668 4.8668zm-67.074-2.7031-1.1602 1.6875-1.74-1.0785-0.73147 1.1199 1.6863 1.1598-1.078 1.741 1.119 0.7316 1.1621-1.6875 1.7395 1.0791 0.76053-1.2504-1.7158-1.0296 1.0784-1.7407zm3.9172 2.7031c0 2.6879-2.1789 4.8668-4.8668 4.8668s-4.8668-2.1789-4.8668-4.8668c0-2.6878 2.1789-4.8668 4.8668-4.8668s4.8668 2.179 4.8668 4.8668zm311.87-61.388-1.1602 1.6875-1.74-1.0785-0.73147 1.1198 1.6863 1.1598-1.078 1.7411 1.119 0.7316 1.1621-1.6875 1.7395 1.0791 0.76053-1.2504-1.7158-1.0296 1.0784-1.7407zm3.9172 2.703c0 2.6879-2.1789 4.8668-4.8668 4.8668s-4.8668-2.1789-4.8668-4.8668c0-2.6878 2.1789-4.8668 4.8668-4.8668s4.8668 2.179 4.8668 4.8668zm-319.7-2.703-1.1602 1.6875-1.74-1.0785-0.73147 1.1198 1.6863 1.1598-1.078 1.7411 1.119 0.7316 1.1621-1.6875 1.7395 1.0791 0.76053-1.2504-1.7158-1.0296 1.0784-1.7407zm3.9172 2.703c0 2.6879-2.1789 4.8668-4.8668 4.8668s-4.8668-2.1789-4.8668-4.8668c0-2.6878 2.1789-4.8668 4.8668-4.8668s4.8668 2.179 4.8668 4.8668zm311.87 39.215-1.1602 1.6875-1.74-1.0785-0.73147 1.1198 1.6863 1.1598-1.078 1.7411 1.119 0.7316 1.1621-1.6875 1.7395 1.0791 0.76053-1.2504-1.7158-1.0296 1.0784-1.7407zm3.9172 2.703c0 2.6879-2.1789 4.8668-4.8668 4.8668s-4.8668-2.1789-4.8668-4.8668c0-2.6878 2.1789-4.8668 4.8668-4.8668s4.8668 2.179 4.8668 4.8668zm-67.074-2.703-1.1602 1.6875-1.74-1.0785-0.73147 1.1198 1.6863 1.1598-1.078 1.7411 1.119 0.7316 1.1621-1.6875 1.7395 1.0791 0.76053-1.2504-1.7158-1.0296 1.0784-1.7407zm3.9172 2.703c0 2.6879-2.1789 4.8668-4.8668 4.8668s-4.8668-2.1789-4.8668-4.8668c0-2.6878 2.1789-4.8668 4.8668-4.8668s4.8668 2.179 4.8668 4.8668zm-67.074-2.703-1.1602 1.6875-1.74-1.0785-0.73147 1.1198 1.6863 1.1598-1.078 1.7411 1.119 0.7316 1.1621-1.6875 1.7395 1.0791 0.76053-1.2504-1.7158-1.0296 1.0784-1.7407zm3.9172 2.703c0 2.6879-2.1789 4.8668-4.8668 4.8668s-4.8668-2.1789-4.8668-4.8668c0-2.6878 2.1789-4.8668 4.8668-4.8668s4.8668 2.179 4.8668 4.8668zm-67.074-2.703-1.1602 1.6875-1.74-1.0785-0.73147 1.1198 1.6863 1.1598-1.078 1.7411 1.119 0.7316 1.1621-1.6875 1.7395 1.0791 0.76053-1.2504-1.7158-1.0296 1.0784-1.7407zm3.9172 2.703c0 2.6879-2.1789 4.8668-4.8668 4.8668s-4.8668-2.1789-4.8668-4.8668c0-2.6878 2.1789-4.8668 4.8668-4.8668s4.8668 2.179 4.8668 4.8668zm-67.074-2.703-1.1602 1.6875-1.74-1.0785-0.73147 1.1198 1.6863 1.1598-1.078 1.7411 1.119 0.7316 1.1621-1.6875 1.7395 1.0791 0.76053-1.2504-1.7158-1.0296 1.0784-1.7407zm3.9172 2.703c0 2.6879-2.1789 4.8668-4.8668 4.8668s-4.8668-2.1789-4.8668-4.8668c0-2.6878 2.1789-4.8668 4.8668-4.8668s4.8668 2.179 4.8668 4.8668zm-67.074-2.703-1.1602 1.6875-1.74-1.0785-0.73147 1.1198 1.6863 1.1598-1.078 1.7411 1.119 0.7316 1.1621-1.6875 1.7395 1.0791 0.76053-1.2504-1.7158-1.0296 1.0784-1.7407zm3.9172 2.703c0 2.6879-2.1789 4.8668-4.8668 4.8668s-4.8668-2.1789-4.8668-4.8668c0-2.6878 2.1789-4.8668 4.8668-4.8668s4.8668 2.179 4.8668 4.8668zm311.87-86.563-1.1602 1.6875-1.74-1.0785-0.73147 1.1199 1.6863 1.1598-1.078 1.7411 1.119 0.7315 1.1621-1.6875 1.7395 1.0791 0.76053-1.2504-1.7158-1.0296 1.0784-1.7407zm3.9172 2.7031c0 2.6879-2.1789 4.8668-4.8668 4.8668s-4.8668-2.1789-4.8668-4.8668c0-2.6878 2.1789-4.8668 4.8668-4.8668s4.8668 2.179 4.8668 4.8668zm-67.074-2.7031-1.1602 1.6875-1.74-1.0785-0.73147 1.1199 1.6863 1.1598-1.078 1.7411 1.119 0.7315 1.1621-1.6875 1.7395 1.0791 0.76053-1.2504-1.7158-1.0296 1.0784-1.7407zm3.9172 2.7031c0 2.6879-2.1789 4.8668-4.8668 4.8668s-4.8668-2.1789-4.8668-4.8668c0-2.6878 2.1789-4.8668 4.8668-4.8668s4.8668 2.179 4.8668 4.8668zm-67.074-2.7031-1.1602 1.6875-1.74-1.0785-0.73147 1.1199 1.6863 1.1598-1.078 1.7411 1.119 0.7315 1.1621-1.6875 1.7395 1.0791 0.76053-1.2504-1.7158-1.0296 1.0784-1.7407zm3.9172 2.7031c0 2.6879-2.1789 4.8668-4.8668 4.8668s-4.8668-2.1789-4.8668-4.8668c0-2.6878 2.1789-4.8668 4.8668-4.8668s4.8668 2.179 4.8668 4.8668zm-67.074-2.7031-1.1602 1.6875-1.74-1.0785-0.73147 1.1199 1.6863 1.1598-1.078 1.7411 1.119 0.7315 1.1621-1.6875 1.7395 1.0791 0.76053-1.2504-1.7158-1.0296 1.0784-1.7407zm3.9172 2.7031c0 2.6879-2.1789 4.8668-4.8668 4.8668s-4.8668-2.1789-4.8668-4.8668c0-2.6878 2.1789-4.8668 4.8668-4.8668s4.8668 2.179 4.8668 4.8668zm-67.074-2.7031-1.1602 1.6875-1.74-1.0785-0.73147 1.1199 1.6863 1.1598-1.078 1.7411 1.119 0.7315 1.1621-1.6875 1.7395 1.0791 0.76053-1.2504-1.7158-1.0296 1.0784-1.7407zm3.9172 2.7031c0 2.6879-2.1789 4.8668-4.8668 4.8668s-4.8668-2.1789-4.8668-4.8668c0-2.6878 2.1789-4.8668 4.8668-4.8668s4.8668 2.179 4.8668 4.8668zm-67.074-2.7031-1.1602 1.6875-1.74-1.0785-0.73147 1.1199 1.6863 1.1598-1.078 1.7411 1.119 0.7315 1.1621-1.6875 1.7395 1.0791 0.76053-1.2504-1.7158-1.0296 1.0784-1.7407zm3.9172 2.7031c0 2.6879-2.1789 4.8668-4.8668 4.8668s-4.8668-2.1789-4.8668-4.8668c0-2.6878 2.1789-4.8668 4.8668-4.8668s4.8668 2.179 4.8668 4.8668zm-40.936 191.79v-11.877m6.0083 0v11.877m-12.925-21.308v-18.165m9.7809 0v18.165m391.93-18.165v18.165m-9.7809 0v-18.165m-381.11 18.863v-19.562m2.0959 0v19.562m377.96-19.562v19.562m-2.0959 0v-19.562m-4.5411 9.7809h4.1918m-3.1571-20.788h3.1571m0-0.54748h-3.2994m-368.57 0h-3.299m0 0.54748h3.1568m-3.1568 20.788h4.1918m15.719 133.44v-2.0959m164.18-1.048h-111.78m-58.158-302.86v2.096m346.87 0v-2.096m-5.7608 306v-2.0959m-289.93-1.048h-32.151m-14.733-300.76v-2.096m346.95 207.49h2.0959m-359.8 0h2.0959m354.56-1.3972v-0.69863m-22.343 97.46h-32.151m-299.02-97.46v0.69863m292.03 96.761h-111.78m164.18-96.761v97.11m-335.34 0v-97.11m314.39 85.932h-293.43m-33.269-141.04v-2.8835m0 16.767v-13.883l-0.22626 4e-3 -0.22571 0.0112-0.22456 0.0184-0.22288 0.0259-0.22063 0.0331-0.21782 0.0403-0.2145 0.0474-0.21059 0.0544-0.20621 0.0612-0.20128 0.0679-0.19585 0.0745-0.18994 0.0808-0.18354 0.0869-0.1767 0.0928-0.16942 0.0985-0.16169 0.10395-0.15359 0.10913-0.14508 0.11402-0.13623 0.11863-0.12701 0.12296-0.11751 0.12687-0.10773 0.13064-0.0975 0.134-0.0873 0.13707-0.0767 0.13973-0.0659 0.14205-0.0551 0.14401-0.044 0.14566-0.0328 0.14692-0.0216 0.1478-0.01 0.14834-9.8e-4 0.0617m4.5266 8.8565h0.0838m-0.0838-116.62v-2.8836m0 16.767v-13.883h-0.22626l-0.22571 0.014-0.22456 0.018-0.22288 0.025-0.22063 0.034-0.21782 0.04-0.2145 0.048-0.21059 0.054-0.20621 0.062-0.20128 0.069-0.19585 0.074-0.18994 0.081-0.18354 0.087-0.1767 0.092-0.16942 0.099-0.16169 0.1034-0.15359 0.109-0.14508 0.1146-0.13623 0.1187-0.12701 0.123-0.11751 0.1271-0.10773 0.1314-0.0975 0.1341-0.0873 0.137-0.0767 0.1397-0.0659 0.1421-0.0551 0.1441-0.044 0.1455-0.0328 0.1469-0.0216 0.1478-0.01 0.1484-9.8e-4 0.062m4.5266 8.8566h0.0838m359.88 90.084v5.6837m0 10.637v0.44663m0-11.084v10.637l0.22626-6e-3 0.2257-0.0161 0.22457-0.0267 0.22288-0.0373 0.22063-0.0478 0.21783-0.0581 0.21448-0.0685 0.21061-0.0785 0.2062-0.0883 0.20128-0.0979 0.19586-0.10745 0.18993-0.11653 0.18354-0.12534 0.17671-0.13385 0.1694-0.14209 0.16169-0.14994 0.15359-0.15739 0.14508-0.16447 0.13623-0.17113 0.12701-0.17735 0.11751-0.18314 0.10773-0.18848 0.0977-0.19334 0.0872-0.19772 0.0767-0.20158 0.066-0.20498 0.055-0.20783 0.044-0.21018 0.0328-0.212 0.0217-0.2133 0.01-0.21405 9.8e-4 -0.0891m-4.6104-6.3508h0.0838m0-110.48v5.6837m0 10.637v0.4467m0-11.084v10.637h0.22626l0.2257-0.017 0.22457-0.027 0.22288-0.038 0.22063-0.047 0.21783-0.059 0.21448-0.068 0.21061-0.078 0.2062-0.088 0.20128-0.098 0.19586-0.1076 0.18993-0.116 0.18354-0.1257 0.17671-0.1342 0.1694-0.1421 0.16169-0.1499 0.15359-0.1573 0.14508-0.1645 0.13623-0.1712 0.12701-0.1773 0.11751-0.1832 0.10773-0.1885 0.0977-0.1933 0.0872-0.1978 0.0767-0.2014 0.0659-0.205 0.0551-0.2079 0.044-0.2102 0.0328-0.212 0.0217-0.2133 0.01-0.2141 9.7e-4 -0.089m-4.6104-6.3552h0.0838m-347.65 253.51v-96.412m335.34 0v96.412m-20.959-11.178h-293.43m129.09-189.33v2.7946m191.06 100.6v-202.6m-338.31 8.3836v-8.3836m0 108.99v-16.767m0 110.38v-9.7809m-1.3977-192.82v202.6m-7.1581-202.6v202.6m339.71 0v-202.6m2.8699-2.7945v202.6m-338.29-199.81v202.6m186.77-100.6v-2.7946m147.25 93.617v9.7809m0-110.38v16.767m0-108.99v8.3836m-18.165 282.57c0.4814-0.2607 0.94783-0.54814 1.3971-0.86098m-342.05-101.81c-0.19292 0-0.34932 0.1564-0.34932 0.34932m6.3576 11.527h-6.0083m6.0083 0c0.19292 0 0.34932-0.15639 0.34932-0.34931m4.1918-2.0959h3.493m-7.6848-9.0822c0-0.19292-0.15639-0.34932-0.34932-0.34932m-6.3576 11.527c1e-5 0.19292 0.1564 0.34931 0.34932 0.34931m10.549-9.4316h3.493m-8.0342-2.4452h-6.0083m-0.34932 0.34932v11.178m11.597-13.274h2.7945m-2.7945-25.353v25.353m362.59 0h2.7945v-25.353m-383.55-0.49603c-0.38584 1e-5 -0.69863 0.3128-0.69863 0.69864m10.48-0.69864h-9.7809m9.7809 18.165c0.38585-1e-5 0.69863-0.3128 0.69863-0.69864m6.9864-2.7945h0.69848m-18.863 2.7945c0 0.38584 0.31279 0.69863 0.69863 0.69864m10.48-17.466c0-0.38584-0.31278-0.69863-0.69863-0.69864m7.685 3.4932h0.69848m-8.3835 14.671h-9.7809m-0.69863-17.466v16.767m392.63-17.466c-0.38584 0-0.69864 0.31279-0.69864 0.69864m-6.9864 13.973h-0.69879m7.6851 2.7945c0 0.38585 0.3128 0.69864 0.69864 0.69864h9.7809m-9.7809-18.165h9.7809m0 18.165c0.38585 0 0.69864-0.31279 0.69864-0.69864m0-16.767c0-0.38585-0.31279-0.69864-0.69864-0.69864m-17.466 3.4932h-0.69879m18.863 13.973v-16.767m-389.14-1.048c0-0.19292-0.15639-0.34932-0.34932-0.34932m-2.0959 0c-0.19292 0-0.34932 0.1564-0.34932 0.34932m0.34932-0.34932h2.0959m-2.0959 19.562h2.0959c0.19293 0 0.34932-0.1564 0.34932-0.34932m-2.7945 0c0 0.19292 0.1564 0.34932 0.34932 0.34932m-0.34932-19.212v18.864m380.41 0.34932h-2.0959m2.0959 0c0.19293 0 0.34932-0.1564 0.34932-0.34932m-2.4452-19.212c-0.19292 0-0.34932 0.1564-0.34932 0.34932m0 18.863c0 0.19292 0.1564 0.34932 0.34932 0.34932m2.0959-19.562h-2.0959m2.4452 0.34932c0-0.19292-0.15639-0.34932-0.34932-0.34932m0.34932 19.212v-18.863m-377.96-14.217v2.3134m0 0.54748v20.788m375.17-23.649v2.3134m-4.1918 12.101v9.2338m4.1918 201.91v-201.91m-370.98-22.904v-0.74479m0 225.55c0 1.1575 0.93837 2.0959 2.0959 2.0959m-6.2877-225.34v0.54748m4.1918 20.788v-9.2334m0 211.14v-201.91m364.69 204c1.1575 0 2.0959-0.93837 2.0959-2.0959m-370.98-225.55h4.1918m-4.1918 225.55c0 3.4726 2.8151 6.2877 6.2877 6.2877h362.59m0-4.1918h-362.59m368.88-204v-20.788m-4.1918 20.788v201.91m0-225.55v0.74512m-370.98 22.903v201.91m375.17-222.69v-0.54748m0-2.3134h-4.1918m-2.0959 231.84c3.4726 0 6.2877-2.8151 6.2877-6.2877m-365.39-70.562v2.0959m-2.096-303.91h2.0959m300.06 300.76v1.048m-118.77-6.2877v5.2398m-183.39 1.0479v-96.412m64.624 90.124v5.2398m295.17 1.0479v-96.412m-12.226 96.412h9.7809m-4.0201-301.81h6.116m-294.82 300.76v1.048m-64.624-97.809v1.3973m2.4453 96.412v2.0959m8.3082-303.91h338.29m7.6096 301.81v-0.69864m1.048-301.11h2.0959m-302.16 301.81v-1.048m-55.541 3.1438h-1.7466m294.82-2.0959v-1.048m-293.08-300.06v-0.6986m0 204v-0.69859m174.31 97.46v-5.2398m-176.06 6.2877h1.7466m355.61 0v2.0959m-300.06-3.1438v-5.2398m-54.494-295.52v0.6986m-1.048 203.3h-2.0959m176.7 90.124c-0.19235 0.44073-0.29163 0.91643-0.29163 1.3973m6.9864 0c1e-5 -0.48087-0.0993-0.95657-0.29162-1.3973m174.25 9.7809h-9.7809m-345.13-2.0959h9.7809m345.13 0v2.0959m0.34932-2.0959h1.7466m-357.35-4e-5v-96.412m357.7-205.4v204m-357.35 96.761h-0.34931m0.34936 3.1438h-0.34932m0-2.0959h0.34932m-2.096 2.0959v-2.0959m0-303.91v2.096m295.12 294.13c-0.19235 0.44073-0.29163 0.91643-0.29163 1.3973m6.9864 0c1e-5 -0.48087-0.0993-0.95657-0.29162-1.3973m55.833-88.727v96.412m-351.24-301.81h-6.116m348.69 0h4.2881m4.3694 203.3v0.69859m0-204v0.6986m-62.528 300.06v-5.2398m-293.08-90.124v-1.3973m345.47 97.809h-335.34m-12.226-97.809v-204m357.7 303.91h-0.34932m0-2.0959h0.34932m1.7466 2.0959h-1.7466m-10.13 0h-335.34m344.43-303.91v0.6986m2.7945 301.11v2.0959m-183.04-2.0959v-1.048m-164.18 3.1438h-9.7809m357-306v2.096m0.34932 204h-2.0959m0 96.761h-0.34932m-299.42-6.637c-0.19235 0.44073-0.29163 0.91643-0.29163 1.3973m6.9864 0c1e-5 -0.48087-0.0993-0.95657-0.29162-1.3973m237.83 1.3973v5.2398m-299.02 1.048v-0.69864m356.65-95.713v-1.3973m-2.0959 0v1.3973m-174.31 95.364v1.048m176.41-4e-5h-2.0959m-351.24-301.81h4.2881m-10.753 301.81h2.0959m31.089-7.685h293.43m-314.39-90.124h335.34m-20.959 83.138h1.3973m-315.78 13.973h-9.7809m348.56-97.11h6.347m-9.7809 97.11h9.7809m-28.933-5.1799 3.1336 3.1336m-299.76-4.1216v-7.8048m-3.5429 11.926 3.1336-3.1336m1.8065-8.7928v2.7945m294.82 5.0103c1e-5 0.37058 0.14722 0.72597 0.40925 0.98801m-305.11 5.1799c1.8529 1e-5 3.6299-0.73603 4.9401-2.0462m4.9401-9.1319v4.1918m293.43 0v-4.1918m-295.23 5.9983c0.26204-0.26204 0.40925-0.61743 0.40925-0.98801m296.22-7.8048v7.8048m-296.22-7.8048h1.3973m324.17 13.973v-97.11m-30.74 85.932v-2.7945m4.9401 11.926c1.3102 1.3102 3.0872 2.0462 4.9401 2.0462m-334.05-97.11v97.11m20.86 0h-11.079m0-97.11h-9.7809m345.13 97.11h-11.079m-336.49-155.1h-0.0838m-4.5272 12.24c0 2.5003 2.0269 4.5272 4.5272 4.5272m0-16.767c-2.5003 0-4.5272 2.0269-4.5272 4.5272m4.611 12.24h-0.0838m-4.5272-10.914v-1.3264m0 7.7129v-6.3865m0-98.409c0 2.5003 2.0269 4.5272 4.5272 4.5272m0-16.767c-2.5003 0-4.5272 2.0269-4.5272 4.5272m4.611-4.5272h-0.0838m0.0838 16.767h-0.0838m-4.5272-10.914v-1.3264m0 7.7129v-6.3865m364.41 115.71h0.0838c2.5003 0 4.5272-2.0269 4.5272-4.5272m-4.611-12.24h0.0838m4.5272 4.5272c0-2.5003-2.0269-4.5272-4.5272-4.5272m4.5272 4.5272v2.6145m0 4.893v0.20546m0-5.0984v4.893m-4.6109-116.83h0.0838m0 16.767c2.5003 0 4.5272-2.0269 4.5272-4.5272m0-7.7129c0-2.5003-2.0269-4.5272-4.5272-4.5272m-0.0838 16.767h0.0838m4.5272-12.24v2.6144m0 4.8931v0.2054m0-5.0985v4.8931m-37.796 240.17h1.4e-4m1.3973-6.9864v8.3453m-1.3973-5.5508v-2.7945m20.959 13.973h-11.079m-304.7-5.6274v-8.3453m296.22 8.3453h-0.0383m-315.74-90.784h335.34m-335.34 0h-1.5e-4m314.39 82.439h1.3973m-304.7 13.973h-11.079m19.6-5.6274h-0.0383m296.18 0 3.5811 3.5811m-303.31 0 3.5811-3.5811m294.79-1.359v-4.1918m4.9401 9.1319c1.3102 1.3102 3.0872 2.0462 4.9401 2.0462m-313.19 0c1.8529 1e-5 3.6299-0.73603 4.9401-2.0462m3.5429-11.926h1.3973v2.7945m-24.802-289.23v0.6986m4.8904-0.6986v0.6986m151.97-0.6986v0.6986m-4.8904-0.6986v0.6986m34.198-0.6986v0.6986m4.8904-0.6986v0.6986m144.89-2.7946v-0.9082m2.1937 3.0042v0.6986m7.0842-3.7028c0-1.11-0.76879-2.072-1.8515-2.3169m1.8515 3.2251v-0.9082m-7.4264-2.3169c-1.0827 0.2449-1.8515 1.2069-1.8515 2.3169m7.0842 3.0042v0.6986m-13.623 99.206c3.8584 0 6.9864-3.1278 6.9864-6.9863m-329.76 0v-83.836m322.77 90.822h-315.78m322.77-90.822v83.836m-322.77-90.822h315.78m-322.77 90.822c6e-5 3.8585 3.128 6.9863 6.9864 6.9863m322.77-90.822c-5e-5 -3.8584-3.128-6.9863-6.9864-6.9863m-315.78 0c-3.8584 0-6.9863 3.1279-6.9864 6.9863m322.77 191.43c3.8585 0 6.9864-3.1279 6.9864-6.9864m-329.76 0v-83.836m322.77 90.823h-315.78m322.77-90.823v83.836m-322.77-90.823h315.78m-322.77 90.823c0 3.8585 3.1279 6.9864 6.9864 6.9864m322.77-90.823c-5e-5 -3.8584-3.128-6.9863-6.9864-6.9863m-315.78 0c-3.8584 0-6.9863 3.1279-6.9864 6.9863m11.541-9.7809v2.7946m194.89 0v-2.7946m44.713 2.7946v-2.7946m-163.48 2.7946v-2.7946m-89.062-99.206h-7.1581m342.58 0h-2.8699m-221.13 102v-2.7946m35.782 0v2.7946m127.7 0v-2.7946m70.925-99.206h-6.116m-13.586 102.28c1.1178-0.8383 1.1178-2.515 0-3.3534m-320.45-0.2664c-1.0482 1.0834-1.0482 2.8029 0 3.8862m326.18-102.55v202.6m-330.45 0h329.76m-186.17-100.6v-2.7946m42.593 0v2.7946m144.98 100.6h2.8699m-334.72 0h0.69864m275.63-103.4v2.7946m49.851 0.5458c1.0482-1.0833 1.0482-2.8028 0-3.8862m-280.4 0.5458v2.7946m163.48-2.7946v2.7946m-223.23 100.6v-202.6m68.802 102v-2.7946m-54.829-99.206h-0.69863m0.69863 0v202.6m-13.973 0h6.116m140.93-100.6v-2.7946m120.89 0v2.7946m9.0543 0v-2.7946m24.48 0v2.7946m-139.02 0v-2.7946m-69.168 0v2.7946m239.6 0v-2.7946m-319.61 103.4h0.69863m180.7-103.4v2.7946m154.02 100.6h4.2881m-8.5553-202.6h-329.76m239.97 102v-2.7946m-20.232 0v2.7946m111.42-102h-0.69864m-112.84 102v-2.7946m-221.88 103.4h2.87m44.349-100.6v-2.7946m91.549 0v2.7946m185.84-2.7946v2.7946m-288.56 0v-2.7946m165.6 0v2.7946m-132.07 0v-2.7946m279.12-99.206v202.6m-321.71-103.4v2.7946m161.23 0v-2.7946m145.8 103.4h0.69864m-274.2-103.4v2.7946m250.78 0v-2.7946m-273.14 0v2.7946m115.86 0v-2.7946m146.1 2.7946v-2.7946m-290.83-0.2794c-1.1178 0.8384-1.1178 2.5151 0 3.3534m71.456-0.2794v-2.7946m261.82 103.4h6.116m-162.45-103.4v2.7946m-114.54-2.7946v2.7946m33.534-2.7946v2.7946m141.12-2.7946v2.7946m88.363 100.6h0.69864m-232.31-100.6v-2.7946m210.32 0v2.7946m-11.178-2.7946v2.7946m40.329-102h-4.2881m-334.02 0h-0.69864m231.61 99.206v2.7946m-35.658 0v-2.7946m-185.84 2.7946v-2.7946m219.37 2.7946v-2.7946m-237.34-99.206h-6.116m345.13 0h-0.69864m-45.076 102v-2.7946m-172.53 0v2.7946m-22.356-2.7946v2.7946m33.534-2.7946v2.7946m141.12-2.7946v2.7946m-243.85 0v-2.7946m100.6 2.7946v-2.7946m-129.75 103.4h4.2881"
       stroke-width="1.1029px"
       id="path150" /><path
       transform="matrix(.90167 0 0 .90226 54.555 14.978)"
       d="m971.05 333.72v-5.5748m3.2247 7.4271-1.2066-0.0196 9e-3 -9.2413 1.1978-0.0177m-3e-5 9.278h-0.90823m0-9.2779c-1.1101-4e-5 -2.0722 0.76875-2.317 1.8515m3.2252-1.8515h-0.90823m-2.317 7.4264c0.24483 1.0828 1.2069 1.8515 2.317 1.8515m-2.2987-57.578v-5.5748m3.2246 7.427-1.2066-0.0196 9e-3 -9.2413 1.1978-0.0177m-1e-5 9.2779h-0.90823m0-9.2779c-1.1101-4e-5 -2.0722 0.76875-2.317 1.8515m3.2252-1.8515h-0.90823m-2.317 7.4264c0.24483 1.0828 1.2069 1.8515 2.317 1.8515m88.217-235.13h5.5748m-7.4271 3.2246 0.02-1.2066 9.2413 0.01 0.018 1.1978m0-0.9083c0-1.11-0.7688-2.0721-1.8515-2.3169m-5.5748 0c-1.0827 0.2448-1.8515 1.2069-1.8515 2.3169m-1.1993 50.131 3.1631-2.7569m-12.654 11 3.1631-2.7569m5.6959-3.207c0.2476 1.4059-0.6913 2.7464-2.0972 2.994-1.4058 0.2475-2.746-0.6915-2.9936-2.0974s0.6914-2.7464 2.0972-2.994c1.4058-0.2475 2.7461 0.6915 2.9936 2.0974zm-4.512-1.9047-1.0541 2.8799 1.9664 2.3523 3.0208-0.5262 1.0541-2.8799-1.9664-2.3523zm0.1468 0.2594 3.6667 4.2181m2.2467-2.1245c0 2.2534-1.8267 4.0801-4.0801 4.0801s-4.0801-1.8267-4.0801-4.0801 1.8267-4.0801 4.0801-4.0801 4.0801 1.8267 4.0801 4.0801zm4.654 0c0 4.8237-3.9104 8.7341-8.7341 8.7341s-8.7341-3.9104-8.7341-8.7341 3.9104-8.7341 8.7341-8.7341 8.7341 3.9104 8.7341 8.7341zm-5.6112 101.86 3.1631-2.7569m-12.654 11 3.1631-2.7569m5.696-3.207c0.2476 1.406-0.6913 2.7464-2.0972 2.994-1.4058 0.24753-2.7461-0.6915-2.9936-2.0974-0.2476-1.406 0.6914-2.7464 2.0972-2.994 1.4058-0.24753 2.7461 0.6915 2.9936 2.0974zm-4.512-1.9047-1.0541 2.8798 1.9664 2.3524 3.0208-0.52628 1.0541-2.8798-1.9664-2.3523zm0.1468 0.25934 3.6667 4.2182m2.2467-2.1245c0 2.2534-1.8267 4.0801-4.0801 4.0801s-4.0801-1.8267-4.0801-4.0801 1.8267-4.0801 4.0801-4.0801 4.0801 1.8267 4.0801 4.0801zm4.654 0c0 4.8237-3.9104 8.7341-8.7341 8.7341s-8.7341-3.9104-8.7341-8.7341 3.9104-8.7341 8.7341-8.7341 8.7341 3.9104 8.7341 8.7341zm-42.314 38.109-1.0955 3.097 2.134 2.4966 3.2298-0.59902 1.0955-3.097-2.134-2.4966zm-0.1377-26.295-2.5586 4.1094 2.2793 4.2695 4.8379 0.16211 2.5586-4.1094-2.2793-4.2695zm7.8846 28.722c0-3.0868-2.5023-5.5891-5.5891-5.5891s-5.5891 2.5023-5.5891 5.5891 2.5023 5.5891 5.5891 5.5891 5.5891-2.5023 5.5891-5.5891zm2.7945-24.452c0-4.6301-3.7535-8.3836-8.3836-8.3836-4.6302 0-8.3836 3.7535-8.3836 8.3836s3.7534 8.3836 8.3836 8.3836c4.6301 0 8.3836-3.7535 8.3836-8.3836zm1.048 0c0-5.2089-4.2227-9.4316-9.4316-9.4316-5.209 0-9.4316 4.2227-9.4316 9.4316s4.2226 9.4316 9.4316 9.4316c5.2089 0 9.4316-4.2227 9.4316-9.4316zm11.527 201.91h-41.918m80.268-374.47v2.096m-8.3101 301.81v2.0959m-7.685-303.91v-2.096m-89.775 302.86v-299.71m93.268-3.1439v2.096m-3.4932 303.91v-2.0959m7.685-97.809v97.11m-4.1918-97.809v-202.6m-3.4932 0v202.6m15.995-202.6v202.6m-112.62 84.675c-1e-5 2.4039 1.4678 4.5641 3.7028 5.4494m0-29.343c-2.235 0.88527-3.7028 3.0455-3.7028 5.4494v18.444m59.244-93.058c0-3.2797-2.6587-5.9384-5.9384-5.9384s-5.9384 2.6587-5.9384 5.9384 2.6587 5.9384 5.9384 5.9384 5.9384-2.6587 5.9384-5.9384zm3.1439-24.452c0-5.016-4.0663-9.0823-9.0823-9.0823s-9.0823 4.0663-9.0823 9.0823c0 5.016 4.0663 9.0822 9.0823 9.0822 5.0159 0 9.0822-4.0662 9.0823-9.0822zm0.6986 0c0-5.4018-4.379-9.7809-9.7809-9.7809-5.4018 0-9.7809 4.3791-9.7809 9.7809s4.3791 9.7809 9.7809 9.7809c5.4019 0 9.7809-4.3791 9.7809-9.7809zm-9.7809-23.649 1.735 2.3134m-22.694 229.53v-6.2877m41.918-201.91c2e-4 -10.542-7.8295-19.443-18.285-20.788m-23.634 228.98h41.918m-19.224-229.53c0.2264 0.30187 0.5653 0.49933 0.9395 0.54748m-5.349 0c0.3743-0.0481 0.7132-0.24562 0.9396-0.54748m-0.9396 0.54748c-10.456 1.3449-18.285 10.246-18.285 20.788m41.918 201.91v6.2877m-22.694-229.53 1.735-2.3134m20.959 23.649v201.91m-41.918 0v-201.91m64.274 131.34h-0.6987m8.3836 2.0959h-4.8904m14.671 0v-2.0959m-81.957-147.13c-2.5994 1e-5 -4.3238 2.6936-3.2358 5.0544 1.088 2.3607 4.2561 2.7994 5.9447 0.82313m0.65-1.1258c0.8206-2.3187-0.8993-4.7518-3.3589-4.7518m67.286 147.13v2.0959m-3.4932-303.91h0.6986m-89.775 0h88.377m1.3973 0h3.4932m-96.412 300.76c5e-5 1.7363 1.4076 3.1438 3.1439 3.1438m0-306c-1.7363 0-3.1439 1.4076-3.1439 3.1439m95.713 300.76v-96.412m-92.569-207.49v2.096m23.482 182.39c0.7208 0 1.4246-0.2186 2.0185-0.62692m0-5.8722c-1.8835-1.2949-4.4818-0.50653-5.3282 1.6166m1.6225 4.4577c0.51865 0.27885 1.0983 0.42481 1.6872 0.42481m69.087 121.51h-2.1374m-90.432-303.91h89.076m3.4932 205.4c0-0.77171-0.6256-1.3973-1.3973-1.3973m-65.672-20.598c-0.8147 0.65258-1.3022 1.6296-1.3338 2.6729m-27.31-185.03v299.71m93.576 1.048h-0.6571m-67.396-139.15c-2.8756 8e-5 -4.5663 3.2308-2.9276 5.5936 1.6388 2.3628 5.2571 1.9112 6.2647-0.78209m0.2258-1.2802c-0.017-1.9554-1.6075-3.5313-3.5629-3.5313m84.761-164.75h-107.04m90.331 303.91h2.1374m-92.569-301.81c-0.57876 0-1.048 0.4692-1.048 1.0479m108.29-1.0479v-2.096m-9.7809 303.91h9.7809m-107.24-300.76v-1.0479m25.283 179.13c-4.895 3e-3 -4.6688 7.415 0.2172 7.1195m0-7.1128c-0.072-5e-3 -0.1448-7e-3 -0.2172-7e-3m63.793 122.68v2.0959m2.0959-99.905h-2.7945m2.0544 99.905v-2.0959m-64.932 0h-25.5m89.076 0h-21.658m0-4e-5h25.151m-92.569 0h25.5m-28.644-1.0479h3.1439m22.007-126.73c1.2344 2e-5 2.3809-0.63893 3.0303-1.6888m0-3.7484c-1.2531-2.0261-4.1032-2.2755-5.6891-0.49774m0 4.7438c0.67603 0.75779 1.6433 1.1911 2.6588 1.1911m83.763-174.03h-12.502m-70.889 171.15c-2.7591 7e-5 -4.4711 3.001-3.067 5.3761s4.8586 2.3219 6.1888-0.0954m0-3.4353c-0.6263-1.1383-1.8225-1.8454-3.1217-1.8454m67.396 132.76h0.6571m-23.013 0h21.658m-89.076 0h25.5m-25.5-2.0959v2.0959m89.076-306v2.096m-0.6986 204v-204m-88.377 300.76v1.0479m-3.1439-300.76h3.1439m92.569 300.76h4.8904m9.7809 2.0959h-9.7809m-8.3836 0h0.6986m-90.823-3.1438c0 0.57879 0.4692 1.048 1.048 1.048m105.77-301.81h1.4708m0 301.11h-9.7809m-6.2769-97.11h6.2769m9.7809 97.11v-97.11m-9.7809 97.11h-4.8904m-92.569 0h-0.98801m108.23-97.11h-9.7809m-12.925-204m4.8904 0v0.6986m17.815 0h-1.4708m-16.694 202.6h0.6986m-0.6986-202.6h-0.6986m1.3973 0h-0.6987m-0.6986 202.6h0.6986m4.1918 0h12.502m-15.995 0h3.4932m13.973-202.6v202.6m-1.4708-202.6h-12.502m-4.1918 0v202.6m4.1918-202.6h-3.4932m15.995 202.6h1.4708"
       stroke-width="1.1087px"
       id="path152" /></g></svg>
