<?xml version="1.0" encoding="UTF-8" standalone="no"?>
<svg
   width="1032.5"
   height="535.22"
   version="1.1"
   xml:space="preserve"
   id="svg84"
   sodipodi:docname="desenhotecnico.svg"
   inkscape:version="1.2.2 (732a01da63, 2022-12-09)"
   xmlns:inkscape="http://www.inkscape.org/namespaces/inkscape"
   xmlns:sodipodi="http://sodipodi.sourceforge.net/DTD/sodipodi-0.dtd"
   xmlns="http://www.w3.org/2000/svg"
   xmlns:svg="http://www.w3.org/2000/svg"><defs
     id="defs88" /><sodipodi:namedview
     id="namedview86"
     pagecolor="#505050"
     bordercolor="#ffffff"
     borderopacity="1"
     inkscape:showpageshadow="0"
     inkscape:pageopacity="0"
     inkscape:pagecheckerboard="1"
     inkscape:deskcolor="#505050"
     showgrid="false"
     inkscape:zoom="1.2471672"
     inkscape:cx="493.11752"
     inkscape:cy="303.88868"
     inkscape:window-width="1920"
     inkscape:window-height="1009"
     inkscape:window-x="-8"
     inkscape:window-y="-8"
     inkscape:window-maximized="1"
     inkscape:current-layer="svg84" /><g
     stroke="#000"
     id="g20"><g
       transform="matrix(1.106 0 0 1.1055 -73.445 .21446)"
       id="g6"><g
         stroke-width="1.0016"
         id="g2" /><path
         transform="matrix(1.2602,0,0,-1.2588,1440.8,600.43)"
         d="m-391.2 224.05c0 1.3999-1.1337 2.5348-2.5322 2.5348s-2.5322-1.1349-2.5322-2.5348 1.1337-2.5348 2.5322-2.5348 2.5322 1.1349 2.5322 2.5348zm-4.181 20.918-1.8569-2.9855 1.6542-3.1018 3.5111-0.11778 1.8569 2.9855-1.6542 3.1018zm7.7382-3.1028c0 3.3639-2.7241 6.0908-6.0844 6.0908s-6.0844-2.7269-6.0844-6.0908 2.7241-6.0908 6.0844-6.0908 6.0844 2.7269 6.0844 6.0908zm0.76054 0c0 3.7843-3.0646 6.8521-6.8449 6.8521s-6.8449-3.0678-6.8449-6.8521 3.0646-6.8521 6.8449-6.8521 6.8449 3.0678 6.8449 6.8521zm-0.25351 0c0 3.6441-2.9511 6.5983-6.5914 6.5983s-6.5914-2.9542-6.5914-6.5983 2.9511-6.5983 6.5914-6.5983 6.5914 2.9542 6.5914 6.5983zm0.50703 0c0 3.9245-3.1781 7.1059-7.0984 7.1059s-7.0984-3.1814-7.0984-7.1059 3.1781-7.1059 7.0984-7.1059 7.0984 3.1814 7.0984 7.1059zm13.836 35.824-0.81845-2.2399 1.5268-1.8296 2.3454 0.40932 0.81846 2.2399-1.5268 1.8296zm4.3412-1.8301c0-1.5508-1.2558-2.808-2.805-2.808s-2.805 1.2572-2.805 2.808 1.2558 2.808 2.805 2.808 2.805-1.2572 2.805-2.808zm3.1995 1e-5c0-3.3197-2.6884-6.0109-6.0046-6.0109s-6.0046 2.6912-6.0046 6.0109 2.6884 6.0109 6.0046 6.0109 6.0046-2.6912 6.0046-6.0109zm-7.4726 101.87-0.81845-2.2399 1.5268-1.8296 2.3454 0.40932 0.81846 2.2399-1.5268 1.8296zm4.3412-1.8301c0-1.5508-1.2558-2.808-2.805-2.808s-2.805 1.2572-2.805 2.808 1.2558 2.808 2.805 2.808 2.805-1.2572 2.805-2.808zm3.1995 1e-5c0-3.3197-2.6884-6.0109-6.0046-6.0109s-6.0046 2.6912-6.0046 6.0109 2.6884 6.0109 6.0046 6.0109 6.0046-2.6912 6.0046-6.0109zm-13.523-278.49h-30m51.49 120v-69.5m-61.94 0.24997v285.5m58.94-215.75v216m8.9474 0v-216m-72.488-57.12c0-0.93888 0.76112-1.7 1.7-1.7m0 6.64c-0.93888 0-1.7-0.76112-1.7-1.7m2.35-4.94h-0.65m0.65 6.64h-0.65m-1.7-1.7v-3.24m0 40c0-0.93888 0.76112-1.7 1.7-1.7m0 6.64c-0.93888 0-1.7-0.76112-1.7-1.7m2.35 1.7h-0.65m0.65-6.64h-0.65m-1.7 4.94v-3.24m2.35-26.38c-1.5995-0.63357-2.65-2.1796-2.65-3.9m0-13.2c0-1.7204 1.0505-3.2664 2.65-3.9m-2.65 17.1v-6.6m0 0v-6.6m30.35 101.52 1.2417-1.6556m-16.242-164.27v4.5m30 144.5c-1.9e-4 7.5442-5.6035 13.914-13.086 14.877m-16.914-163.88h30m-13.758 164.27c0.16203-0.21604 0.40455-0.35736 0.67239-0.39182m-3.8282 0c0.26784 0.0345 0.51036 0.17578 0.67239 0.39182m-0.67239-0.39182c-7.4825-0.96264-13.086-7.3328-13.086-14.877m30-144.5v-4.5m-16.242 164.27 1.2417 1.6556m15-16.925v-144.5m-30 0v144.5m47-24.5h4.4902m7-69.5v69.5m0-69.5h-7m7 69.5h-7m7-69v69m-60.724 24.011c-1.9747 2e-5 -3.2-2.1478-2.1951-3.8476 1.0049-1.6999 3.4773-1.6618 4.4292 0.0683m0 2.4586c-0.44823 0.81461-1.3043 1.3207-2.2341 1.3207m59.682 192.99h-8.9474m3-287h7m-60.734 100.09c-2.058-5e-5 -3.2681-2.3123-2.0952-4.0033s3.7625-1.3678 4.4836 0.55978m0.16155 0.91619c-0.0125 1.3994-1.1504 2.5273-2.5499 2.5273m32.234-100.09h18m-58.45 0h10.45m57.447 287h1.0526m-10.5-287h3.5m-5.5 288.5h2.5m-58.95-1.5h55.45m13.5 1.5h-1.0526m-9.4474-288.5v69m-2.5 219.5h-55.95m58.45-219.5c0 0.55228-0.44772 1-1 1m-57.45 216.25v0.74997m55.45-217v217m13.5-288.5h-7m-61.95 288.5h55.95m-55.95 1.5c-1.2426 0-2.25-1.0074-2.25-2.25m59.7-216.25h-2m-45.155 18.3c-3.5066 1e-3 -3.3446-5.3102 0.15544-5.0952m0 5.0905c-0.0518 3e-3 -0.10359 5e-3 -0.15544 5e-3m-12.545-87.55c0-1.2426 1.0074-2.25 2.25-2.25m68.95 0v1.5m-7-1.5h-3.5m-48 1.5h-10.45m58.45 0h-18m16 288.5h-0.5m-45.5-290h-10.45m58.45 0h-18m-42.7 287.75v-285.5m71.2 286.25v1.5m-13-1.5h0.5m-46.155-181.2c-1.8604 5e-5 -3.0946-1.9278-2.3159-3.6174 0.77872-1.6896 3.0461-2.0035 4.2546-0.58904m0.46516 0.80569c0.58733 1.6595-0.64356 3.4008-2.4039 3.4008m48.655 182.7h8.9474m-11.447-1.5h2.5m-58.95-286.25v-0.74997m57.76 288.5v0.65m-5.07-2.15v-3e-5m0.10256 3.8498c-0.92809-0.015-1.6726-0.77159-1.6726-1.6998m0-0.65v0.65m6.64 0c1e-5 0.92821-0.74451 1.6848-1.6726 1.6998m-3.2673-1e-3 -0.0275-2e-4m3.2948 1e-3 -2.5915 2.2e-4m0 0h-0.67593m6.12-220.35h8.9474m1.0526 216v-216m-12.5 216h-0.5m0.5-216h2.5m0 216h-2.5m11.447 0h-8.9474m10 0h-1.0526m-11.947-216h0.5m11.447 0h1.0526m-13 216h-0.49023m0-216h0.49023"
         fill="none"
         stroke-linecap="round"
         stroke-linejoin="round"
         stroke-width=".71801"
         id="path4" /></g><path
       transform="matrix(-1.3606 0 0 -1.361 988.34 123.19)"
       d="m38.882 71.352-66.151-0.04489"
       fill="#4d4d4d"
       stroke-width=".73486"
       id="path8" /><g
       transform="translate(32.458 7.6422)"
       stroke-linecap="round"
       stroke-linejoin="round"
       id="g18"><path
         transform="matrix(-1.3606,0,0,-1.361,654.42,115.55)"
         d="m-247.65 69.021v4.6436l-5.9083-2.3121 5.9083-2.3509"
         stroke-width=".73486"
         id="path10" /><path
         transform="matrix(-1.3606,0,0,-1.361,962.81,115.55)"
         d="m42.421 73.645v-4.6436l5.9083 2.3121-5.9083 2.3509"
         stroke-width=".73486"
         id="path12" /><path
         transform="matrix(.87038 0 0 .87038 785.58 146.29)"
         d="m127.08-153.9 0.11828 400.12"
         fill="none"
         stroke-width="1.1489"
         id="path14" /><path
         transform="matrix(.87038 0 0 .87038 888.79 -25.137)"
         d="m127.08 43.6 0.11828 30.678"
         fill="none"
         stroke-width="1.1489"
         id="path16" /></g></g><text
     transform="matrix(0.8704,0,0,0.87035,663.95,-17.914)"
     x="352.77798"
     y="42.779858"
     fill="#000000"
     font-family="Lato"
     font-size="30.638px"
     letter-spacing="0px"
     stroke-width="1.1489"
     word-spacing="0px"
     style="line-height:125%;font-variant-ligatures:normal;font-variant-caps:normal;font-variant-numeric:normal;font-variant-east-asian:normal"
     xml:space="preserve"
     id="text24"><tspan
       x="352.77798"
       y="42.779858"
       font-family="Lato"
       font-size="30.638px"
       stroke-width="1.1489"
       style="font-variant-ligatures:normal;font-variant-caps:normal;font-variant-numeric:normal;font-variant-east-asian:normal"
       id="tspan22">D</tspan></text><text
     transform="matrix(0.8704,0,0,0.87035,760.93,156.77)"
     x="98.293945"
     y="143.83748"
     fill="#000000"
     font-family="Lato"
     font-size="30.638px"
     letter-spacing="0px"
     stroke-width="1.1489"
     word-spacing="0px"
     style="line-height:125%;font-variant-ligatures:normal;font-variant-caps:normal;font-variant-numeric:normal;font-variant-east-asian:normal"
     xml:space="preserve"
     id="text28"><tspan
       x="98.293945"
       y="143.83748"
       font-family="Lato"
       font-size="30.638px"
       stroke-width="1.1489"
       style="font-variant-ligatures:normal;font-variant-caps:normal;font-variant-numeric:normal;font-variant-east-asian:normal"
       id="tspan26">C</tspan></text><g
     stroke="#000"
     id="g54"><path
       transform="matrix(0 1.2199 -1.3607 0 939.42 197.87)"
       d="m235.88 71.323-349.56-0.016105"
       fill="none"
       stroke-width=".77617"
       id="path30" /><g
       transform="translate(20.331 8.3682)"
       stroke-linecap="round"
       stroke-linejoin="round"
       id="g40"><path
         transform="matrix(0,1.361,-1.3607,0,919.09,65.841)"
         d="m-8.5008 69.021v4.6436l-5.9083-2.3121 5.9083-2.3509"
         stroke-width=".73484"
         id="path32" /><path
         transform="matrix(0 1.361 -1.3607 0 919.09 391.18)"
         d="m61.493 73.645v-4.6436l5.9083 2.3121-5.9083 2.3509"
         stroke-width=".73484"
         id="path34" /><path
         transform="matrix(-.87038 0 0 .87038 923.48 -17.976)"
         d="m141.48 72.665h-31.468"
         stroke-width="1.1489"
         id="path36" /><path
         transform="matrix(-.87038 0 0 .87038 923.48 419.67)"
         d="m141.48 72.665h-31.468"
         stroke-width="1.1489"
         id="path38" /></g><path
       transform="matrix(-1.3606 0 0 -1.361 66.871 123.47)"
       d="m43.643 71.307-260.4 0.02609"
       fill="none"
       stroke-width=".73486"
       id="path42" /><g
       transform="translate(.0021081 7.4477)"
       stroke-linecap="round"
       stroke-linejoin="round"
       id="g52"><path
         transform="matrix(-1.3606,0,0,-1.361,21.038,116.02)"
         d="m-247.65 69.021v4.6436l-5.9083-2.3121 5.9083-2.3509"
         stroke-width=".73486"
         id="path44" /><path
         transform="matrix(-1.3606,0,0,-1.361,66.869,116.02)"
         d="m42.421 73.645v-4.6436l5.9083 2.3121-5.9083 2.3509"
         stroke-width=".73486"
         id="path46" /><path
         transform="matrix(.87038 0 0 .87038 -110.11 -24.662)"
         d="m127.08 43.6 0.11828 72.339"
         stroke-width="1.1489"
         id="path48" /><path
         transform="matrix(.87038 0 0 .87038 256.39 -24.662)"
         d="m127.08 43.6 0.11828 72.339"
         stroke-width="1.1489"
         id="path50" /></g></g><text
     transform="matrix(.8704 0 0 .87035 -131.5 -17.585)"
     x="352.77798"
     y="42.779858"
     fill="#000000"
     font-family="Lato"
     font-size="30.638px"
     letter-spacing="0px"
     stroke-width="1.1489"
     word-spacing="0px"
     style="font-variant-caps:normal;font-variant-east-asian:normal;font-variant-ligatures:normal;font-variant-numeric:normal;line-height:125%"
     xml:space="preserve"
     id="text58"><tspan
       x="352.77798"
       y="42.779858"
       font-family="Lato"
       font-size="30.638px"
       stroke-width="1.1489"
       style="font-variant-caps:normal;font-variant-east-asian:normal;font-variant-ligatures:normal;font-variant-numeric:normal"
       id="tspan56">A</tspan></text><text
     transform="matrix(.8704 0 0 .87035 339.78 122.71)"
     x="98.293945"
     y="143.83748"
     fill="#000000"
     font-family="Lato"
     font-size="30.638px"
     letter-spacing="0px"
     stroke-width="1.1489"
     word-spacing="0px"
     style="font-variant-caps:normal;font-variant-east-asian:normal;font-variant-ligatures:normal;font-variant-numeric:normal;line-height:125%"
     xml:space="preserve"
     id="text62"><tspan
       x="98.293945"
       y="143.83748"
       font-family="Lato"
       font-size="30.638px"
       stroke-width="1.1489"
       style="font-variant-caps:normal;font-variant-east-asian:normal;font-variant-ligatures:normal;font-variant-numeric:normal"
       id="tspan60">B</tspan></text><g
     stroke="#000"
     id="g82"><g
       transform="translate(16.479 11.445)"
       id="g76"><path
         transform="matrix(0,1.2199,1.3607,0,334.19,186.44)"
         d="m180.01 71.309-293.69-0.001402"
         stroke-width=".77617"
         id="path64" /><g
         stroke-linecap="round"
         stroke-linejoin="round"
         id="g74"><path
           transform="matrix(0,1.361,1.3607,0,333.94,62.78)"
           d="m-8.5008 69.021v4.6436l-5.9083-2.3121 5.9083-2.3509"
           stroke-width=".73484"
           id="path66" /><path
           transform="matrix(0 1.361 1.3607 0 334.17 320.07)"
           d="m61.493 73.645v-4.6436l5.9083 2.3121-5.9083 2.3509"
           stroke-width=".73484"
           id="path68" /><path
           transform="matrix(.87038 0 0 .87038 329.55 -21.037)"
           d="m141.48 72.665h-31.468"
           stroke-width="1.1489"
           id="path70" /><path
           transform="matrix(.87038 0 0 .87038 329.78 236.94)"
           d="m137.3 202.05h-27.29"
           stroke-width="1.1489"
           id="path72" /></g></g><path
       transform="matrix(1.0048 0 0 1.0048 1.3417 5.0549)"
       d="m335.93 120.98-1.251 1.3146-1.372-1.1868-0.79655 0.8777 1.3136 1.2504-1.1866 1.3728 0.87701 0.79648 1.2527-1.3143 1.3715 1.1873 0.84023-0.98791-1.3576-1.1406 1.1869-1.3725zm0.43669 3.7342c-0.83532 0.91275-2.2524 0.97556-3.1652 0.14029-0.9128-0.83529-0.97562-2.2524-0.1403-3.1651 0.83532-0.91275 2.2524-0.97556 3.1652-0.14029 0.9128 0.83529 0.97561 2.2524 0.14029 3.1651zm1.4927 1.2978c-1.5593 1.7038-4.2046 1.821-5.9086 0.26187-1.704-1.5592-1.8213-4.2044-0.2619-5.9082 1.5593-1.7038 4.2046-1.821 5.9086-0.26188 1.704 1.5592 1.8213 4.2044 0.26189 5.9082zm-139.01-5.0501-1.251 1.3146-1.372-1.1868-0.79656 0.8777 1.3136 1.2504-1.1866 1.3728 0.87702 0.79649 1.2527-1.3143 1.3715 1.1873 0.84022-0.98791-1.3576-1.1406 1.1869-1.3725zm0.4367 3.7342c-0.83532 0.91275-2.2524 0.97557-3.1652 0.1403-0.9128-0.83529-0.97561-2.2524-0.1403-3.1651 0.83532-0.91275 2.2524-0.97556 3.1652-0.14029 0.9128 0.83528 0.97561 2.2524 0.1403 3.1651zm1.4927 1.2978c-1.5593 1.7038-4.2046 1.821-5.9086 0.26187-1.704-1.5592-1.8212-4.2044-0.26188-5.9082 1.5593-1.7037 4.2045-1.8209 5.9084-0.26188 1.704 1.5592 1.8213 4.2044 0.2619 5.9082zm-32.756-5.1276-1.251 1.3146-1.3718-1.1868-0.79657 0.87769 1.3136 1.2504-1.1866 1.3728 0.87697 0.79648 1.2528-1.3143 1.3715 1.1873 0.84017-0.9879-1.3576-1.1406 1.187-1.3725zm0.43679 3.7342c-0.83533 0.91283-2.2526 0.97565-3.1654 0.1403-0.91279-0.8353-0.97559-2.2524-0.14026-3.1651 0.83532-0.91275 2.2524-0.97556 3.1652-0.14029 0.91283 0.83526 0.97568 2.2523 0.14039 3.1651zm1.4927 1.2978c-1.5593 1.7038-4.2046 1.821-5.9086 0.26187-1.704-1.5592-1.8212-4.2044-0.26187-5.9082 1.5593-1.7037 4.2045-1.821 5.9084-0.26189 1.704 1.5591 1.8213 4.2044 0.262 5.9082zm-139.05-4.9448-1.251 1.3146-1.372-1.1868-0.79657 0.8777 1.3136 1.2504-1.1866 1.3728 0.87697 0.79648 1.2528-1.3143 1.3715 1.1873 0.84018-0.98791-1.3575-1.1406 1.1869-1.3725zm0.43666 3.7342c-0.83532 0.91275-2.2524 0.97556-3.1652 0.14029-0.91283-0.83526-0.97568-2.2523-0.14039-3.1651 0.83533-0.91283 2.2525-0.97564 3.1654-0.14029 0.91279 0.8353 0.97559 2.2524 0.14026 3.1651zm1.4927 1.2978c-1.5593 1.7038-4.2046 1.821-5.9086 0.26187-1.704-1.5592-1.8212-4.2044-0.26187-5.9082 1.5593-1.7038 4.2046-1.821 5.9086-0.26188 1.704 1.5592 1.8212 4.2044 0.26187 5.9082zm293.29-74.996h0.84868m0 0h7.5191m-304.51 0h0.84874m0 0h7.519m309.29 38.096h3.7806m0-0.8464h-3.7806m3.7806-3.9725h-3.7806m-330.8 3.9725h-3.7806m332.69 3.4721v13.847m0-37.764v13.847m1.8903 3.4721h3.7806m-338.36 3.9725h3.7806m-3.7806-3.9725h3.7806m0-0.8464h-3.7806m5.6709-2.6257v-13.847m0 37.764v-13.847m-17.643 3.147v-16.364m8.8214 0v16.364m353.49-16.364v16.364m-8.8214 0v-16.364m-341.83-0.6294v0.5387m0 0v17.084m-1.8903 0v-17.084m0 0v-0.5387m342.77 0v17.623m-1.8903 0v-17.623m-331.43 49.093h-0.31505m2.8354-72.318h318.83m2.8354 72.318h-0.31505m0.31505-4.8204h0.0756m4.083-8.2693-5e-3 -0.0657m0 0-0.0153-0.0655m0 0-0.0254-0.0652m0 0-0.0355-0.0647m0 0-0.0455-0.064m0 0-0.0555-0.0632m0 0-0.0652-0.0622m0 0-0.0747-0.0611m0 0-0.0842-0.0598m0 0-0.0934-0.0584m0 0-0.10232-0.0568m0 0-0.11103-0.0551m0 0-0.11947-0.0533m0 0-0.12755-0.0512m0 0-0.13537-0.0492m0 0-0.14283-0.0469m0 0-0.14996-0.0446m0 0-0.15666-0.0421m0 0-0.16304-0.0395m0 0-0.16895-0.0369m0 0-0.17448-0.0341m0 0-0.17955-0.0312m0 0-0.18418-0.0283m0 0-0.18835-0.0253m0 0-0.19205-0.0223m0 0-0.19526-0.0191m0 0-0.198-0.016m0 0-0.20023-0.0128m0 0-0.20196-0.0101m0 0-0.2032-6e-3m0 0-0.20392-3e-3m0 0-0.0849-2.8e-4m-8e-5 -5.1204v5.1204m0 9.5827v0.40237m0-9.9852v9.5827m-324.65 0.40238v-0.86174m0-10.195-0.20403 3e-3m0 0-0.20352 8e-3m0 0-0.20251 0.0113m0 0-0.201 0.0165m0 0-0.19899 0.0212m0 0-0.19646 0.0257m0 0-0.19344 0.0302m0 0-0.19004 0.0346m0 0-0.18588 0.039m0 0-0.1816 0.0433m0 0-0.17668 0.0474m0 0-0.17126 0.0515m0 0-0.16559 0.0554m0 0-0.15929 0.0592m0 0-0.15286 0.0627m0 0-0.1458 0.0662m0 0-0.1385 0.0695m0 0-0.13081 0.0726m0 0-0.1235 0.0755m0 0-0.11468 0.0783m0 0-0.10586 0.0808m0 0-0.09704 0.0832m0 0-0.08821 0.0853m0 0-0.07813 0.0872m0 0-0.06931 0.089m0 0-0.05923 0.0905m0 0-0.04915 0.0918m0 0-0.04033 0.0928m0 0-0.03025 0.0935m0 0-0.0189 0.0942m0 0-0.0126 0.0945m0 0-8.82e-4 0.0393m4.0824 8.3027v-10.195m0 10.195h0.07561m-0.07561-10.195v-4.0493m308.36-58.585c-1.1832 0-2.1423 0.95809-2.1423 2.14m8.3677 0c0-1.1819-0.95916-2.14-2.1423-2.14m2.1423 2.9582v-0.81822m-8.3677 0.81822v-0.81822m5.0666-2.14h0.79201m-3.6032 0h0.76089m3.1744 0.06911c-0.16725-0.01271-0.33276-0.01699-0.49072-0.01699-0.15797 0-0.32438 0.0038-0.49434 0.01699m-0.35171-0.06911h-1.8376m-0.76089 0h-0.11316m2.7117 0h0.21255m1.1588 0h-0.3668m-2.8424 0.0013c-0.0993 2.5e-5 -0.1996 0.0088-0.2911 0.02631-0.0536 0.01007-0.11002 0.0248-0.16742 0.04267m3.3007-0.06898c0.0752 2.5e-5 0.14925 0.0088 0.21467 0.02631 0.0383 0.01007 0.0779 0.0248 0.11732 0.04267m-3.6329-0.0013c-0.1295-0.01271-0.2558-0.01699-0.37544-0.01699-0.11972 0-0.24474 0.0038-0.37066 0.01699m3.3943 0.0013c-0.0445-0.01787-0.0882-0.03235-0.12935-0.04267-0.0703-0.01762-0.14686-0.02631-0.22206-0.02631m0.21231-0.0013-6e-3 0.02417m-3.2484 0.04645c0.0535-0.01787 0.10699-0.03235 0.15833-0.04267 0.0877-0.01762 0.18619-0.02631 0.28548-0.02631m-290.04 2.9565v-0.81822m-6.2254-2.14c-1.1832 0-2.1423 0.95809-2.1423 2.14m0 0.81822v-0.81822m8.3677 0c0-1.1819-0.95916-2.14-2.1423-2.14m-1.1588 0h0.79204m-3.6032 0h0.76091m3.1744 0.06911c-0.16723-0.01271-0.33282-0.01699-0.49072-0.01699-0.15803 0-0.32438 0.0038-0.49438 0.01699m-0.35172-0.06911h-1.8376m-0.76091 0h-0.11342m2.7117 0h0.2126m1.1588 0h-0.36672m-2.8424 0.0013c-0.09956 2.5e-5 -0.19962 0.0088-0.29111 0.02631-0.05419 0.01007-0.10964 0.0248-0.16748 0.04267m3.3007-0.06898c0.07561 2.5e-5 0.14921 0.0088 0.21461 0.02631 0.03781 0.01007 0.07813 0.0248 0.1172 0.04267m-3.6328-0.0013c-0.12955-0.01271-0.25582-0.01699-0.37541-0.01699-0.11972 0-0.24486 0.0038-0.37075 0.01699m3.3943 0.0013c-0.04411-0.01787-0.08821-0.03235-0.12942-0.04267-0.07057-0.01762-0.14681-0.02631-0.22205-0.02631m0.21234-0.0013v0.02417m-3.2484 0.04645c0.05419-0.01787 0.10712-0.03235 0.15828-0.04267 0.08821-0.01762 0.18626-0.02631 0.28556-0.02631m267.7-0.37932c-2.1681-4e-6 -4.1164 1.3224-4.9148 3.3358m26.464 0c-0.79843-2.0135-2.7467-3.3358-4.9148-3.3358m0 0h-16.635m-286.88 38.205v1.5631m334.58 17.319h3.7806m-338.36-16.473v16.473m338.36-21.291v-16.473m0 18.882v1.5631m-3.7806 0.8464v16.473m-330.8-37.764h-3.7806m3.7806 18.882v-1.5631m0 3.1261v-1.5631m1.8903 18.882h-1.8903m330.8-37.764v16.473m-330.8 4.8189v-0.8464m-3.7806 0v0.8464m3.7806 16.473v-16.473m327.65-21.291h1.2602m-3.1505 0h4e-5m-320.72 0h1.26e-4m-3.1506 0h1.2602m331.43 17.319v-0.8464m-3.7806 21.291h-1.8903m5.6709-37.764h-3.7806m-334.58 16.473v0.8464m0 1.5631h3.7806m-3.7806-18.882v16.473m334.58 0v0.8464m0 3.1261v0.8464m-330.8-4.8189v-16.473m3.1505 37.764h-1.2602m3.1506 0h-1.26e-4m320.72 0h-4e-5m3.1505 0h-1.2602m6.9311 0v-16.473m-334.58-21.291h1.8903m-5.6709 17.319v1.5631m334.58 0v1.5631m3.7806 0.8464v-0.8464m-338.36 17.319h3.7806m330.8-20.445v1.5631m-330.8-1.5631v-0.8464m334.58 2.4095h-3.7806m3.7806-1.5631v1.5631m-5.6709-18.882h1.8903m-330.8 13.847h3.1505m-10.082-3.147h-8.8214m9.4515 0.6294c0-0.34761-0.28211-0.6294-0.6301-0.6294m-9.4515 15.735c0 0.34761 0.28211 0.6294 0.6301 0.6294m0-16.364c-0.34799 0-0.6301 0.28179-0.6301 0.6294m9.4515 15.735h-8.8214m8.8214 0c0.34799 0 0.6301-0.28179 0.6301-0.6294m6.301-2.5176h3.1505m-19.533-12.588v15.106m362.94 0.6294c0.348 0 0.6301-0.28179 0.6301-0.6294m-10.082 0c0 0.34761 0.28211 0.6294 0.6301 0.6294m0 0h8.8214m-8.8214-16.364h8.8214m-8.8214 0c-0.34799 0-0.6301 0.28179-0.6301 0.6294m-6.301 2.5176h-3.1505m19.533-2.5176c0-0.34761-0.2821-0.6294-0.6301-0.6294m-15.752 13.217h-3.1505m19.533 2.5176v-15.106m-351.28 16.364h-1.8903m2.2054-17.308c0-0.1738-0.14105-0.3147-0.31505-0.3147m0 0h-1.8903m0 0c-0.174 0-0.31505 0.1409-0.31505 0.3147m0 16.994c0 0.1738 0.14105 0.3147 0.31505 0.3147m1.8903 0c0.174 0 0.31505-0.1409 0.31505-0.3147m-2.5204-16.994v0.51946m0 0v16.474m343.4-16.994c0-0.1738-0.14105-0.3147-0.31505-0.3147m0 17.623c0.174 0 0.31505-0.1409 0.31505-0.3147m-2.2054-17.308c-0.174 0-0.31505 0.1409-0.31505 0.3147m2.2054-0.3147h-1.8903m1.8903 17.623h-1.8903m-0.31505-0.3147c0 0.1738 0.14105 0.3147 0.31505 0.3147m2.2054-0.3147v-16.994m-332.06 17.308-1.27e-4 -6.3e-5m0-14.689 1.27e-4 -0.0253m0 14.533-1.27e-4 -0.0063m0-3.4353h1.27e-4m-1.27e-4 -14.856h1.27e-4m-1.27e-4 17.765h1.27e-4m0-15.889h-1.27e-4m1.27e-4 10.571-1.27e-4 -0.0321m1.27e-4 4.8338h-1.27e-4m0-4.8338 1.27e-4 -0.03222m-1.27e-4 5.9091 1.27e-4 -0.0076m0-14.469-1.27e-4 -0.0253m320.72 14.689-4e-5 6.3e-5m0-17.623 4e-5 6.3e-5m0 11.381h-4e-5m4e-5 -11.486h-4e-5m0 8.8821 4e-5 0.03386m0-10.175h-4e-5m4e-5 16.52h-4e-5m4e-5 1.2849-4e-5 0.01699m0-15.296 4e-5 0.01699m0 0-4e-5 0.01699m0 12.701h4e-5m-4e-5 2.5268 4e-5 0.01699m0-7.6311-4e-5 0.03373m-270.94 29.535c2e-5 0.73728 0.23569 1.4553 0.67269 2.0495m1.818 1.2725c2.2329 0.65365 4.4634-1.0328 4.44-3.3568-0.02344-2.3241-2.2875-3.9653-4.5068-3.2668m-1.7101 1.197c-0.46323 0.60412-0.71426 1.3439-0.71428 2.1048m1.3809-52.87c-4.1363 1.6e-5 -8.0092 2.0276-10.363 5.4252m223.22 47.444c-4e-5 2.3098 2.2215 3.9717 4.4404 3.322m1.8181-1.2725c0.91195-1.2401 0.895-2.9326-0.0416-4.1542m-1.7101-1.197c-2.2331-0.70262-4.5067 0.96305-4.5067 3.3017m24.692-5.4884-2.2623-12.429m4.8496 26.642-0.83654-4.5959m-116.52-57h95.623m-218.41 0h95.623m133.14 5.4252c-2.3536-3.3976-6.2266-5.4252-10.363-5.4252m-239.3 57-0.83652 4.5959m4.8496-26.642-2.2624 12.429m269.48 14.313h-114.68m-166.98-62.562c-4.2007 0-4.2007 6.294 0 6.294m-1.146 32.558c-1.1678 0.24396-2.0044 1.2724-2.0045 2.4642m303.08-52.016h-318.83m299.93 16.994h-124.76m-156.26-6.294h124.76m-127.91 60.045c0 1.3904 1.1284 2.5176 2.5204 2.5176m300.56-73.262v2.8323m-183.36 37.077c1e-5 -1.3948-1.1352-2.5237-2.5315-2.5176m-135.46 36.5v3.147m-0.31505-74.206v69.8m303.91-23.081c-37.887-7.9157-76.477-11.99-115.18-12.16m-182.89 50.908c1.1059 0.8588 2.4667 1.325 3.8674 1.325m8.8893-18.882v-18.728m127.91-35.022c4.2007 0 4.2007-6.294 0-6.294m-144.61 62.55v-0.61709m300.87-55.639c4.2007 0 4.2007-6.294 0-6.294m-300.87 62.562v-70.43m-1.8904 72.318v1.2588m305.91-24.393c-2e-5 -1.1917-0.83655-2.2202-2.0044-2.4642m-303.91 26.858h0.31505m1.5752-3.7764v-69.8m1.26e-4 70.43h-0.94528m323.56-0.6294v-69.8m-138.31 67.912v-30.836m136.42-37.077v69.8m-7.8082 16.994c1.4008 1e-5 2.7616-0.46622 3.8674-1.325m5.8311-13.151v-2.5176m-314.8 16.994h305.11m9.3834-13.217h0.31505m-5.8311 11.892c3.4803-2.7027 5.5161-6.8595 5.516-11.263m-18.273-25.022v18.728m-303.08-67.912v-2.8323m183.36 70.745c0 1.3904 1.1284 2.5176 2.5204 2.5176m-188.71 1.8882v-2.5176m324.19 1.2588v3.147m-324.19-4.4058h1.8903m136.42-32.724v30.836m-2.5204 2.5176h-114.68m156.89-62.562c-4.2007 0-4.2007 6.294 0 6.294m-177.06 56.268c-0.34799 0-0.6301 0.28179-0.6301 0.6294m188.41-36.5c-1.3963-0.0061-2.5315 1.1228-2.5315 2.5176m-183.36-39.909c-1.566 0-2.8354 1.2681-2.8354 2.8323m322.61 0c0-0.52141-0.42315-0.9441-0.94515-0.9441m-318.83 0.9441h-0.94502m0.94502-0.9441c-0.52199 0-0.94515 0.42269-0.94515 0.9441m320.72 70.43h0.94519m-0.94515-0.6294h1.8903m-1.8903 0v0.61709m-19.218 0.0126c1.392 0 2.5204-1.1272 2.5204-2.5176m-170.13 2.5176c1.392 0 2.5204-1.1272 2.5204-2.5176m184.3-67.912v70.43m-144.61-62.562h124.76m21.738-7.8675c0-1.5642-1.2695-2.8323-2.8354-2.8323m-185.89 37.391c-38.706 0.17019-77.297 4.2441-115.18 12.16m303.91 26.858v-1.2588m-2.8354-72.318h0.94511m1.8903 0h-1.8903m-322.3 74.206c-4.9e-5 4.4035 2.0358 8.5603 5.5161 11.263m-3.9409-85.469h-1.8903m146.5 14.162h-124.76m302.45 56.898c0-0.34761-0.2821-0.6294-0.6301-0.6294m-0.94518-13.859h3e-5m-3e-5 7.5528h3e-5m6.049-7.2507c0-2.2525-1.828-4.0785-4.083-4.0785m0 15.106c2.255 0 4.083-1.826 4.083-4.0785m-4.1587 4.0785h0.0756m-0.0756-15.106h0.0756m4.083 4.0785v2.3555m0 4.4081v0.18509m0-4.5931v4.4081m-328.74-10.842c-2.255 0-4.083 1.826-4.083 4.0785m4.1587-4.0785h-0.07561m1.966 11.329h-1.26e-4m1.26e-4 -7.5528h-1.26e-4m-1.8903 11.329h-0.07561m-4.083-4.0785c0 2.2525 1.828 4.0785 4.083 4.0785m-4.083-4.0785v-5.0859m0 0v-1.8626m326.77 13.545h0.94519m0.6301 0.6294c0-0.3476-0.2821-0.6294-0.6301-0.6294m-322.61 0c-0.34799 0-0.6301 0.2818-0.6301 0.6294m0 0.0126v-0.0126m1.5754-0.62937h-0.94528m323.24 0.6294v0.0126m-210.47-35.682-0.0416 0.0025m87.97 33.791c7e-3 0.69027 0.56907 1.2462 1.2601 1.2462m-86.954 0h5.6456m-56.054 0h5.6456m218.01 0c0.69107 0 1.2532-0.55594 1.2601-1.2462m-228.1 0 0.28581-28.543m148.74-4.6508 0.33232 33.195m-18.903 1.2462h5.6456m-64.995-35.843c-0.12167 0.1129-0.19153 0.2708-0.19319 0.43668m-111.24 34.16 0.2252-22.488m82.018-10.037 0.32551 32.525m-51.368-27.841-0.1608 0.022029m205.88 29.066c0.69108 0 1.2532-0.55594 1.2601-1.2462m-167.61 0 0.31757-31.719m116.88 31.719 0.33234-33.197m-85.371 33.197c7e-3 0.69029 0.5691 1.2462 1.2602 1.2462m-62.036-29.807c-0.0036-0.36079-0.32091-0.63803-0.67937-0.59359m147.47-4.6401c-0.34542-0.02087-0.63794 0.25144-0.6414 0.59709m71.897 7.4185c-3e-3 -0.29677-0.22127-0.54745-0.5151-0.5915m-239.32 26.369 0.25809-25.779m-11.6 27.025c0.69105-3e-5 1.2532-0.55596 1.2601-1.2462m250.17 0c7e-3 0.69027 0.56907 1.2462 1.2601 1.2462m-32.451-31.585c-0.35594-0.03955-0.66816 0.23676-0.67174 0.59448m-38.708 29.743c7e-3 0.69027 0.56906 1.2462 1.2601 1.2462m39.066-1.2462c7e-3 0.69027 0.56906 1.2462 1.2601 1.2462m-172.04 0c0.69105-3e-5 1.2532-0.55596 1.2601-1.2462m108.69-34.16c-2e-3 -0.16588-0.0715-0.32378-0.19321-0.43668m70.155 5.4431c-0.35844-0.04441-0.67571 0.23282-0.67932 0.59359m-157.81 28.561 0.32564-32.521m-59.158 6.7137 0.25834 25.807m195.94 0 0.30832-30.798m62.098 30.798c7e-3 0.66575 0.53116 1.2112 1.1968 1.2446m-73.684-1.2446 0.31761-31.726m-166.01 31.726c0.0069 0.6903 0.5691 1.2462 1.2602 1.2462m-31.747-25.482c-0.0037-0.36999-0.33645-0.64979-0.70206-0.59034m17.933 26.072c0.69105-3e-5 1.2532-0.55596 1.2601-1.2462m11.712-28.561 0.28581 28.561m30.245 0c7e-3 0.6903 0.5691 1.2462 1.2602 1.2462m187.77 0h5.6456m-56.054 0h5.6456m-48.606-35.849c-0.1254 0.11315-0.1977 0.27354-0.19939 0.44233m-65.554 0.41875c-3e-3 -0.34264-0.29112-0.61385-0.63376-0.59749m104.91 35.586c0.69108 0 1.2532-0.55594 1.2601-1.2462m0.97417-32.321c-0.35078-0.03006-0.65304 0.24431-0.65656 0.59597m-176.36 4.4768c-0.0036-0.36384-0.32604-0.64196-0.68694-0.59259m165.39 29.087c0.69107 0 1.2532-0.55594 1.2601-1.2462m-125.68-31.726c-4e-3 -0.35166-0.30578-0.62602-0.65656-0.59597m-32.446 33.567c0.69105-3e-5 1.2532-0.55596 1.2601-1.2462m21.018-31.384c-0.3073 0.03025-0.54245 0.28684-0.54554 0.59526m196.29 32.035c0.69107 0 1.2532-0.55594 1.2601-1.2462m-166.02-33.197 0.33231 33.197m-43.502 1.2462c0.69105-3e-5 1.2532-0.55596 1.2601-1.2462m199.49-27.227c-3e-3 -0.29968-0.22546-0.55187-0.5227-0.59258m-29.758-2.9705c-3e-3 -0.30842-0.23823-0.565-0.54551-0.59526m-188.03 3.5658c-0.29726 0.04069-0.51973 0.29289-0.52273 0.59258m148.14-7.1135c-0.34267-0.01639-0.63038 0.25483-0.63381 0.59749m-146.13 6.494 0.27271 27.248m207.64-28.543 0.28575 28.543m-167.92-31.726 0.31757 31.726m-73.684 1.2446c0.66567-0.0335 1.1901-0.57889 1.1968-1.2446m41.277-29.154-0.13446 0.01662m20.955-1.661 0.30825 30.798m165.69 0 0.29776-29.743m11.7 29.743c7e-3 0.69027 0.56907 1.2462 1.2601 1.2462m-150.62-1.2462 0.33231-33.195m-8.8237 0.6698c-3e-3 -0.34866-0.30086-0.62202-0.649-0.59658m-49.434 33.122c0.0069 0.6903 0.5691 1.2462 1.2602 1.2462m-22.589-26.036c-0.29036 0.04731-0.50454 0.29644-0.50748 0.5903m268.18 24.199 0.22557-22.533m-9.3625-2.2928c-0.36561-0.05945-0.69835 0.22034-0.70205 0.59034m-184.83 25.482h5.6456m-87.784-23.779c-2e-3 -0.20684-0.10988-0.39826-0.28581-0.50736m208.45 23.04c7e-3 0.69027 0.56906 1.2462 1.2601 1.2462m-210.78-24.066c-0.06629 0.0982-0.10222 0.2137-0.10334 0.33213m246.77 23.735c0.69108 0 1.2532-0.55594 1.2601-1.2462m-80.653 0 0.34199-34.161m-115.92 4.4176 0.29766 29.743m58.574 0 0.34202-34.16m-1.6021 35.406c0.69104-4e-5 1.2532-0.55597 1.2601-1.2462m137.36 0 0.27278-27.248m-184.87 28.494h5.6456m32.419-35.585c-0.32012 0.01532-0.57271 0.27738-0.57591 0.59749m-18.585 33.741c7e-3 0.69029 0.5691 1.2462 1.2602 1.2462m185.77-26.036-0.2213-0.036m-10.073-1.5727c-0.36328-0.05436-0.69081 0.22461-0.69449 0.59151m-80.911 25.807 0.3378-33.742m-136.88 4.6051c-0.30062 0.037305-0.52726 0.29099-0.53029 0.59358m21.485-2.2546c-4e-3 -0.35467-0.31075-0.63001-0.66412-0.59526m206.99 31.393 0.24262-24.236m-41.829 25.482c0.69108 0 1.2532-0.55594 1.2601-1.2462m30.245 0 0.25836-25.807m-169.12 27.053c0.69104-4e-5 1.2532-0.55597 1.2601-1.2462m138.97-29.732 0.29764 29.732m-209.08-26.369c-0.29386 0.04401-0.5122 0.2947-0.51517 0.5915m229.76 25.779c7e-3 0.69027 0.56907 1.2462 1.2601 1.2462m-238.18 0h5.6456m54.844 0h5.6456m-60.49 0c0.69105-4e-5 1.2532-0.55597 1.2601-1.2462m61.376-33.118c-0.31376 0.02296-0.55752 0.28233-0.56066 0.59657m150.29 33.767h5.6456m22.566-27.616-0.18975-0.02845m-49.763-5.3207 0.31755 31.719m-110.29 1.2462c0.69104-3e-5 1.2532-0.55596 1.2601-1.2462m11.655-34.161c-2e-3 -0.16881-0.074-0.3292-0.19949-0.44233m147.72 8.8249 0.25807 25.779m-79.393 1.2462h5.6456m-117.2 0c0.69105-4e-5 1.2532-0.55597 1.2601-1.2462m179.33-27.227 0.27257 27.227m-71.485-34.339-0.0305-0.0013m7.8499 35.586c0.69107 0 1.2532-0.55595 1.2601-1.2462m52.037-28.543c-3e-3 -0.30259-0.22968-0.55628-0.53032-0.59357m-146.96-4.0596c-3e-3 -0.34562-0.29592-0.61791-0.64131-0.59709m117.86 2.0749c-3e-3 -0.31133-0.24256-0.56933-0.55312-0.59597m-185.64 33.561h5.6456m250.04-24.286c-0.17596 0.10908-0.28383 0.3005-0.2859 0.50735m-166.26-11.628 0.34189 34.161m-11.997 0 0.33786-33.741m117.83 2.3474c-0.35338-0.03476-0.66059 0.24058-0.66415 0.59526m-20.472 30.798 0.32561-32.525m0.64898-0.59658c-0.34813-0.02543-0.64549 0.24793-0.64898 0.59658m-164.76 33.771h5.6456m232.53 0h5.6456m-215.81-32.639-0.0895 0.0088m-9.9892 1.0468-0.1109 0.01259m-20.999 30.326 0.27258-27.227m188.56-4.1583-0.0896-0.0088m-39.72-2.3474 0.33779 33.741m-167.61 0c0.0069 0.69029 0.5691 1.2462 1.2602 1.2462m175.53-35.037-0.0413-0.0025m-19.563-0.3663 0.34199 34.16m-117.5-29.743c-0.0036-0.35776-0.31584-0.63408-0.67181-0.59448m127.91-3.4029c-3e-3 -0.32011-0.2558-0.58217-0.57592-0.59749m62.663 35.585h5.6456m-155.37-35.037c-0.31698 0.01915-0.56518 0.27989-0.56835 0.59709m109.96 34.441h5.6456m-37.151-1.2462c7e-3 0.69027 0.56906 1.2462 1.2601 1.2462m-159.73-26.072-0.22129 0.036m51.574 24.79c7e-3 0.69029 0.5691 1.2462 1.2602 1.2462m185.72-29.066-0.16079-0.02203m-19.505-1.8902c-3e-3 -0.3055-0.23393-0.56065-0.53791-0.59447m-168.69 30.326 0.30825-30.789m209.29 6.5901c-3e-3 -0.29387-0.21713-0.543-0.50751-0.5903m-167.19-8.9527 0.33773 33.742m-81.606-26.398-0.18966 0.02845m80.824-7.9698-0.0302 0.0013m118.2 34.339c7e-3 0.69027 0.56907 1.2462 1.2601 1.2462m0 0h5.6456m53.359-23.735 0.22513 22.488m-187.77 0c7e-3 0.6903 0.56911 1.2462 1.2602 1.2462m-43.502-1.2462 0.29766-29.732m219.63 29.732c7e-3 0.69027 0.56907 1.2462 1.2601 1.2462m-72.157-33.767c-3e-3 -0.31425-0.24693-0.57363-0.56071-0.59657m-119.49 34.364c0.69105-4e-5 1.2532-0.55597 1.2601-1.2462m199.54-22.488c-1e-3 -0.11846-0.0372-0.23396-0.10359-0.33213m-9.9952-1.3791 0.24226 24.199m-70.896-32.521 0.32557 32.521m29.409-30.326-0.11078-0.01259m9.1121 30.338 0.28592-28.561m-125.65 28.561c7e-3 0.66578 0.53122 1.2112 1.1969 1.2446m-60.427 1e-3h5.6456m189.99-29.087c-0.36089-0.04935-0.68327 0.22876-0.68691 0.59259m-196.21 27.248c0.0069 0.69029 0.5691 1.2462 1.2602 1.2462m-31.505-1.2462c0.0069 0.69029 0.5691 1.2462 1.2602 1.2462m27.905-31.572c-0.304 0.03378-0.53492 0.28894-0.53798 0.59447m115.7 30.975c0.66568-0.0334 1.1902-0.57888 1.1968-1.2446m-145.78-25.807c-0.0037-0.36691-0.33122-0.64588-0.6945-0.59151m256.12 27.645c0.69108 0 1.2532-0.55594 1.2601-1.2462m-58.882-30.789 0.30823 30.789m-216.75 1.2462h5.6456m2.9332-25.482 0.24259 24.236m-10.082 0c0.0069 0.69029 0.5691 1.2462 1.2602 1.2462m236.1-30.384-0.13445-0.01662m-30.165-3.1611-0.071-0.0063m-10.026-0.79608-0.0548-0.0038m0.94111 33.122c7e-3 0.69027 0.56906 1.2462 1.2601 1.2462m-119.43-34.368-0.0554 0.0038m-10.026 0.79603-0.0706 0.0063m179.99 33.561h5.6456m-255.39-23.779 0.22558 22.533m189.03 1.2462h5.6456m-7.2381-34.441c-3e-3 -0.31718-0.25134-0.57792-0.56831-0.59709m-117.34 1.4764c-0.31054 0.02664-0.54998 0.28464-0.5531 0.59597m-60.807 31.719 0.24234-24.199m166.11 25.445c0.69107 0 1.2532-0.55594 1.2601-1.2462m39.066 1.2462c0.69107 0 1.2532-0.55594 1.2601-1.2462m-114.02 1.2462h5.6456"
       fill="none"
       stroke-linecap="round"
       stroke-linejoin="round"
       stroke-width=".99521"
       id="path78" /><path
       transform="matrix(1.005 0 0 1.005 5.7552 4.885)"
       d="m815.3 287.73v16.364m0 0c0.34799 0 0.6301-0.28179 0.6301-0.6294m0-15.106c0-0.3476-0.28211-0.6294-0.6301-0.6294m0.6301 15.735v-15.106m-323.33-11.227-1.0503 1.5277-1.5752-0.97632-0.66222 1.0138 1.5266 1.0499-0.97593 1.5762 1.0131 0.66228 1.0521-1.5277 1.5749 0.97688 0.68853-1.132-1.5533-0.93205 0.9763-1.5758zm3.5463 2.447c0 2.4333-1.9726 4.4058-4.406 4.4058-2.4334 0-4.406-1.9725-4.406-4.4058s1.9726-4.4058 4.406-4.4058c2.4334 0 4.406 1.9725 4.406 4.4058zm281.26 35.284-1.0503 1.5277-1.5752-0.97631-0.66224 1.0138 1.5266 1.0499-0.97594 1.5761 1.0131 0.6623 1.0521-1.5277 1.5749 0.97686 0.68854-1.132-1.5533-0.93206 0.97632-1.5758zm3.5463 2.447c0 2.4333-1.9727 4.4058-4.406 4.4058s-4.406-1.9725-4.406-4.4058 1.9727-4.4058 4.406-4.4058 4.406 1.9725 4.406 4.4058zm-60.507-2.447-1.0503 1.5277-1.5752-0.97631-0.66222 1.0138 1.5266 1.0499-0.97593 1.5761 1.0131 0.6623 1.0521-1.5277 1.5749 0.97686 0.68854-1.132-1.5533-0.93206 0.97631-1.5758zm3.5463 2.447c0 2.4333-1.9726 4.4058-4.406 4.4058-2.4334 0-4.406-1.9725-4.406-4.4058s1.9726-4.4058 4.406-4.4058c2.4334 0 4.406 1.9725 4.406 4.4058zm-60.512-2.4467-1.0503 1.5277-1.5752-0.97631-0.66222 1.0138 1.5266 1.0499-0.97594 1.5761 1.0131 0.66228 1.0521-1.5277 1.5749 0.97687 0.68853-1.132-1.5533-0.93205 0.97632-1.5758zm3.5463 2.447c0 2.4333-1.9726 4.4058-4.406 4.4058-2.4334 0-4.406-1.9725-4.406-4.4058s1.9726-4.4058 4.406-4.4058c2.4334 0 4.406 1.9725 4.406 4.4058zm-60.507-2.447-1.0503 1.5277-1.5752-0.97631-0.66222 1.0138 1.5266 1.0499-0.97595 1.5761 1.0131 0.66228 1.0521-1.5277 1.5749 0.97687 0.68853-1.132-1.5533-0.93205 0.97632-1.5758zm3.5463 2.447c0 2.4333-1.9727 4.4058-4.406 4.4058s-4.406-1.9725-4.406-4.4058 1.9727-4.4058 4.406-4.4058 4.406 1.9725 4.406 4.4058zm-60.507-2.447-1.0503 1.5277-1.5752-0.97631-0.66223 1.0138 1.5266 1.0499-0.97594 1.5761 1.0131 0.66228 1.0521-1.5277 1.5749 0.97687 0.68852-1.132-1.5533-0.93205 0.97632-1.5758zm3.5463 2.447c0 2.4333-1.9726 4.4058-4.406 4.4058-2.4334 0-4.406-1.9725-4.406-4.4058s1.9726-4.4058 4.406-4.4058c2.4334 0 4.406 1.9725 4.406 4.4058zm-60.507-2.447-1.0503 1.5277-1.5752-0.97631-0.66222 1.0138 1.5266 1.0499-0.97594 1.5761 1.0131 0.66228 1.0521-1.5277 1.5749 0.97687 0.68853-1.132-1.5533-0.93205 0.9763-1.5758zm3.5463 2.447c0 2.4333-1.9727 4.4058-4.406 4.4058s-4.406-1.9725-4.406-4.4058 1.9727-4.4058 4.406-4.4058 4.406 1.9725 4.406 4.4058zm281.26-40.211-1.0503 1.5277-1.5752-0.97632-0.66223 1.0138 1.5266 1.0499-0.97593 1.5761 1.0131 0.66229 1.0521-1.5277 1.5749 0.97687 0.68853-1.132-1.5533-0.93205 0.97631-1.5758zm3.5463 2.447c0 2.4333-1.9726 4.4058-4.406 4.4058-2.4334 0-4.406-1.9725-4.406-4.4058s1.9726-4.4058 4.406-4.4058c2.4334 0 4.406 1.9725 4.406 4.4058zm-3.5463-40.211-1.0503 1.5277-1.5752-0.97631-0.66223 1.0138 1.5266 1.0499-0.97593 1.5761 1.0131 0.6623 1.0521-1.5277 1.5749 0.97686 0.68853-1.132-1.5533-0.93206 0.97631-1.5758zm3.5463 2.447c0 2.4333-1.9726 4.4058-4.406 4.4058-2.4334 0-4.406-1.9725-4.406-4.4058s1.9726-4.4058 4.406-4.4058c2.4334 0 4.406 1.9725 4.406 4.4058zm-60.507-2.447-1.0503 1.5277-1.5752-0.97631-0.66223 1.0138 1.5266 1.0499-0.97594 1.5761 1.0131 0.6623 1.0521-1.5277 1.5749 0.97686 0.68854-1.132-1.5533-0.93206 0.97632-1.5758zm3.5463 2.447c0 2.4333-1.9726 4.4058-4.406 4.4058-2.4334 0-4.406-1.9725-4.406-4.4058s1.9726-4.4058 4.406-4.4058c2.4334 0 4.406 1.9725 4.406 4.4058zm-60.512-2.4467-1.0503 1.5277-1.5752-0.97631-0.66222 1.0138 1.5266 1.0499-0.97593 1.5761 1.0131 0.6623 1.0521-1.5277 1.5749 0.97686 0.68854-1.132-1.5533-0.93205 0.97631-1.5758zm3.5463 2.447c0 2.4333-1.9727 4.4058-4.406 4.4058s-4.406-1.9725-4.406-4.4058 1.9727-4.4058 4.406-4.4058 4.406 1.9725 4.406 4.4058zm-60.507-2.447-1.0503 1.5277-1.5752-0.97631-0.66222 1.0138 1.5266 1.0499-0.97595 1.5761 1.0131 0.6623 1.0521-1.5277 1.5749 0.97686 0.68854-1.132-1.5533-0.93205 0.97631-1.5758zm3.5463 2.447c0 2.4333-1.9726 4.4058-4.406 4.4058-2.4334 0-4.406-1.9725-4.406-4.4058s1.9726-4.4058 4.406-4.4058c2.4334 0 4.406 1.9725 4.406 4.4058zm-60.507-2.447-1.0503 1.5277-1.5752-0.97631-0.66222 1.0138 1.5266 1.0499-0.97594 1.5761 1.0131 0.6623 1.0521-1.5277 1.5749 0.97686 0.68852-1.132-1.5533-0.93205 0.97631-1.5758zm3.5463 2.447c0 2.4333-1.9727 4.4058-4.406 4.4058s-4.406-1.9725-4.406-4.4058 1.9727-4.4058 4.406-4.4058 4.406 1.9725 4.406 4.4058zm-60.507-2.447-1.0503 1.5277-1.5752-0.97631-0.66222 1.0138 1.5266 1.0499-0.97593 1.5761 1.0131 0.6623 1.0521-1.5277 1.5749 0.97686 0.68854-1.132-1.5533-0.93205 0.9763-1.5758zm3.5463 2.447c0 2.4333-1.9726 4.4058-4.406 4.4058-2.4334 0-4.406-1.9725-4.406-4.4058s1.9726-4.4058 4.406-4.4058c2.4334 0 4.406 1.9725 4.406 4.4058zm-3.5472-55.284-1.0503 1.5277-1.5752-0.97632-0.66223 1.0138 1.5266 1.0499-0.97594 1.5762 1.0131 0.66229 1.0521-1.5277 1.5749 0.97687 0.68852-1.132-1.5533-0.93205 0.97632-1.5758zm3.5463 2.447c0 2.4333-1.9726 4.4058-4.406 4.4058-2.4334 0-4.406-1.9725-4.406-4.4058s1.9726-4.4058 4.406-4.4058c2.4334 0 4.406 1.9725 4.406 4.4058zm281.26 35.284-1.0503 1.5277-1.5752-0.9763-0.66222 1.0138 1.5266 1.0499-0.97594 1.5762 1.0131 0.66228 1.0521-1.5277 1.5749 0.97686 0.68853-1.132-1.5533-0.93205 0.97632-1.5759zm3.5463 2.447c0 2.4333-1.9727 4.4058-4.406 4.4058s-4.406-1.9725-4.406-4.4058 1.9727-4.4058 4.406-4.4058 4.406 1.9725 4.406 4.4058zm-60.507-2.447-1.0503 1.5277-1.5752-0.9763-0.66222 1.0138 1.5266 1.0499-0.97595 1.5762 1.0131 0.66228 1.0521-1.5277 1.5749 0.97686 0.68853-1.132-1.5533-0.93205 0.97631-1.5759zm3.5463 2.447c0 2.4333-1.9726 4.4058-4.406 4.4058-2.4334 0-4.406-1.9725-4.406-4.4058s1.9726-4.4058 4.406-4.4058c2.4334 0 4.406 1.9725 4.406 4.4058zm-60.512-2.4467-1.0503 1.5277-1.5752-0.97631-0.66223 1.0138 1.5266 1.0499-0.97595 1.5762 1.0131 0.66229 1.0521-1.5277 1.5749 0.97687 0.68854-1.132-1.5533-0.93206 0.97632-1.5758zm3.5463 2.447c0 2.4333-1.9726 4.4058-4.406 4.4058-2.4334 0-4.406-1.9725-4.406-4.4058s1.9726-4.4058 4.406-4.4058c2.4334 0 4.406 1.9725 4.406 4.4058zm-60.507-2.447-1.0503 1.5277-1.5752-0.97631-0.66222 1.0138 1.5266 1.0499-0.97594 1.5762 1.0131 0.66229 1.0521-1.5277 1.5749 0.97687 0.68854-1.132-1.5533-0.93206 0.97631-1.5758zm3.5463 2.447c0 2.4333-1.9727 4.4058-4.406 4.4058s-4.406-1.9725-4.406-4.4058 1.9727-4.4058 4.406-4.4058 4.406 1.9725 4.406 4.4058zm-60.507-2.447-1.0503 1.5277-1.5752-0.97631-0.66223 1.0138 1.5266 1.0499-0.97594 1.5762 1.0131 0.66229 1.0521-1.5277 1.5749 0.97687 0.68854-1.132-1.5533-0.93206 0.9763-1.5758zm3.5463 2.447c0 2.4333-1.9726 4.4058-4.406 4.4058-2.4334 0-4.406-1.9725-4.406-4.4058s1.9726-4.4058 4.406-4.4058c2.4334 0 4.406 1.9725 4.406 4.4058zm-60.507-2.447-1.0503 1.5277-1.5752-0.97631-0.66223 1.0138 1.5266 1.0499-0.97595 1.5762 1.0131 0.66229 1.0521-1.5277 1.5749 0.97687 0.68854-1.132-1.5533-0.93206 0.97632-1.5758zm3.5463 2.447c0 2.4333-1.9727 4.4058-4.406 4.4058s-4.406-1.9725-4.406-4.4058 1.9727-4.4058 4.406-4.4058 4.406 1.9725 4.406 4.4058zm281.26-40.211-1.0503 1.5277-1.5752-0.97632-0.66222 1.0138 1.5266 1.0499-0.97593 1.5761 1.0131 0.66228 1.0521-1.5277 1.5749 0.97688 0.68854-1.132-1.5533-0.93205 0.97631-1.5758zm3.5463 2.447c0 2.4333-1.9726 4.4058-4.406 4.4058-2.4334 0-4.406-1.9725-4.406-4.4058s1.9726-4.4058 4.406-4.4058c2.4334 0 4.406 1.9725 4.406 4.4058zm-3.5463-40.211-1.0503 1.5277-1.5752-0.97631-0.66222 1.0138 1.5266 1.0499-0.97593 1.5761 1.0131 0.66228 1.0521-1.5277 1.5749 0.97688 0.68854-1.132-1.5533-0.93206 0.97631-1.5759zm3.5463 2.447c0 2.4333-1.9726 4.4058-4.406 4.4058-2.4334 0-4.406-1.9725-4.406-4.4058s1.9726-4.4058 4.406-4.4058c2.4334 0 4.406 1.9725 4.406 4.4058zm-60.507-2.447-1.0503 1.5277-1.5752-0.97631-0.66222 1.0138 1.5266 1.0499-0.97595 1.5761 1.0131 0.66228 1.0521-1.5277 1.5749 0.97688 0.68854-1.132-1.5533-0.93206 0.97631-1.5759zm3.5463 2.447c0 2.4333-1.9726 4.4058-4.406 4.4058-2.4334 0-4.406-1.9725-4.406-4.4058s1.9726-4.4058 4.406-4.4058c2.4334 0 4.406 1.9725 4.406 4.4058zm-60.512-2.4467-1.0503 1.5277-1.5752-0.97631-0.66222 1.0138 1.5266 1.0499-0.97595 1.5761 1.0131 0.6623 1.0521-1.5277 1.5749 0.97686 0.68853-1.132-1.5533-0.93205 0.97632-1.5758zm3.5463 2.447c0 2.4333-1.9727 4.4058-4.406 4.4058s-4.406-1.9725-4.406-4.4058 1.9727-4.4058 4.406-4.4058 4.406 1.9725 4.406 4.4058zm-60.507-2.447-1.0503 1.5277-1.5752-0.97631-0.66222 1.0138 1.5266 1.0499-0.97593 1.5761 1.0131 0.6623 1.0521-1.5277 1.5749 0.97686 0.68853-1.132-1.5533-0.93205 0.9763-1.5758zm3.5463 2.447c0 2.4333-1.9726 4.4058-4.406 4.4058-2.4334 0-4.406-1.9725-4.406-4.4058s1.9726-4.4058 4.406-4.4058c2.4334 0 4.406 1.9725 4.406 4.4058zm-60.507-2.447-1.0503 1.5277-1.5752-0.97631-0.66222 1.0138 1.5266 1.0499-0.97594 1.5761 1.0131 0.6623 1.0521-1.5277 1.5749 0.97686 0.68854-1.132-1.5533-0.93205 0.9763-1.5758zm3.5463 2.447c0 2.4333-1.9727 4.4058-4.406 4.4058s-4.406-1.9725-4.406-4.4058 1.9727-4.4058 4.406-4.4058 4.406 1.9725 4.406 4.4058zm-60.507-2.447-1.0503 1.5277-1.5752-0.97631-0.66222 1.0138 1.5266 1.0499-0.97595 1.5761 1.0131 0.6623 1.0521-1.5277 1.5749 0.97686 0.68853-1.132-1.5533-0.93205 0.97631-1.5758zm3.5463 2.447c0 2.4333-1.9726 4.4058-4.406 4.4058-2.4334 0-4.406-1.9725-4.406-4.4058s1.9726-4.4058 4.406-4.4058c2.4334 0 4.406 1.9725 4.406 4.4058zm-3.5472-55.285-1.0503 1.5277-1.5752-0.97631-0.66223 1.0138 1.5266 1.0499-0.97594 1.5761 1.0131 0.66229 1.0521-1.5277 1.5749 0.97687 0.68852-1.132-1.5533-0.93207 0.97632-1.5758zm3.5463 2.447c0 2.4333-1.9726 4.4058-4.406 4.4058-2.4334 0-4.406-1.9725-4.406-4.4058 0-2.4333 1.9726-4.4058 4.406-4.4058 2.4334 0 4.406 1.9725 4.406 4.4058zm281.26 35.284-1.0503 1.5277-1.5752-0.9763-0.66222 1.0138 1.5266 1.0499-0.97594 1.5762 1.0131 0.66228 1.0521-1.5277 1.5749 0.97688 0.68853-1.132-1.5533-0.93205 0.97632-1.5759zm3.5463 2.447c0 2.4333-1.9727 4.4058-4.406 4.4058s-4.406-1.9725-4.406-4.4058 1.9727-4.4058 4.406-4.4058 4.406 1.9725 4.406 4.4058zm-60.507-2.447-1.0503 1.5277-1.5752-0.9763-0.66222 1.0138 1.5266 1.0499-0.97595 1.5762 1.0131 0.66228 1.0521-1.5277 1.5749 0.97688 0.68853-1.132-1.5533-0.93205 0.97631-1.5759zm3.5463 2.447c0 2.4333-1.9726 4.4058-4.406 4.4058-2.4334 0-4.406-1.9725-4.406-4.4058s1.9726-4.4058 4.406-4.4058c2.4334 0 4.406 1.9725 4.406 4.4058zm-60.512-2.4467-1.0503 1.5277-1.5752-0.97631-0.66223 1.0138 1.5266 1.0499-0.97595 1.5762 1.0131 0.66229 1.0521-1.5277 1.5749 0.97687 0.68854-1.132-1.5533-0.93205 0.97632-1.5758zm3.5463 2.447c0 2.4333-1.9726 4.4058-4.406 4.4058-2.4334 0-4.406-1.9725-4.406-4.4058 0-2.4333 1.9726-4.4058 4.406-4.4058 2.4334 0 4.406 1.9725 4.406 4.4058zm-60.507-2.447-1.0503 1.5277-1.5752-0.97631-0.66222 1.0138 1.5266 1.0499-0.97594 1.5762 1.0131 0.66229 1.0521-1.5277 1.5749 0.97687 0.68854-1.132-1.5533-0.93205 0.97631-1.5758zm3.5463 2.447c0 2.4333-1.9727 4.4058-4.406 4.4058s-4.406-1.9725-4.406-4.4058c0-2.4333 1.9727-4.4058 4.406-4.4058s4.406 1.9725 4.406 4.4058zm-60.507-2.447-1.0503 1.5277-1.5752-0.97631-0.66223 1.0138 1.5266 1.0499-0.97594 1.5762 1.0131 0.66229 1.0521-1.5277 1.5749 0.97687 0.68854-1.132-1.5533-0.93205 0.9763-1.5758zm3.5463 2.447c0 2.4333-1.9726 4.4058-4.406 4.4058-2.4334 0-4.406-1.9725-4.406-4.4058 0-2.4333 1.9726-4.4058 4.406-4.4058 2.4334 0 4.406 1.9725 4.406 4.4058zm-60.507-2.447-1.0503 1.5277-1.5752-0.97631-0.66223 1.0138 1.5266 1.0499-0.97595 1.5762 1.0131 0.66229 1.0521-1.5277 1.5749 0.97687 0.68854-1.132-1.5533-0.93205 0.97632-1.5758zm3.5463 2.447c0 2.4333-1.9727 4.4058-4.406 4.4058s-4.406-1.9725-4.406-4.4058c0-2.4333 1.9727-4.4058 4.406-4.4058s4.406 1.9725 4.406 4.4058zm281.26-40.211-1.0503 1.5277-1.5752-0.97631-0.66222 1.0138 1.5266 1.0499-0.97593 1.5761 1.0131 0.66228 1.0521-1.5277 1.5749 0.97688 0.68854-1.132-1.5533-0.93205 0.97631-1.5758zm3.5463 2.447c0 2.4333-1.9726 4.4058-4.406 4.4058-2.4334 0-4.406-1.9725-4.406-4.4058 0-2.4333 1.9726-4.4058 4.406-4.4058 2.4334 0 4.406 1.9725 4.406 4.4058zm-3.5463-40.211-1.0503 1.5277-1.5752-0.97631-0.66222 1.0138 1.5266 1.0499-0.97593 1.5761 1.0131 0.66228 1.0521-1.5277 1.5749 0.97688 0.68854-1.132-1.5533-0.93205 0.97631-1.5759zm3.5463 2.447c0 2.4333-1.9726 4.4058-4.406 4.4058-2.4334 0-4.406-1.9725-4.406-4.4058 0-2.4333 1.9726-4.4058 4.406-4.4058 2.4334 0 4.406 1.9725 4.406 4.4058zm-60.507-2.447-1.0503 1.5277-1.5752-0.97631-0.66222 1.0138 1.5266 1.0499-0.97595 1.5761 1.0131 0.66228 1.0521-1.5277 1.5749 0.97688 0.68854-1.132-1.5533-0.93205 0.97631-1.5759zm3.5463 2.447c0 2.4333-1.9726 4.4058-4.406 4.4058-2.4334 0-4.406-1.9725-4.406-4.4058 0-2.4333 1.9726-4.4058 4.406-4.4058 2.4334 0 4.406 1.9725 4.406 4.4058zm-60.512-2.4467-1.0503 1.5277-1.5752-0.97631-0.66222 1.0138 1.5266 1.0499-0.97595 1.5761 1.0131 0.66229 1.0521-1.5277 1.5749 0.97687 0.68853-1.132-1.5533-0.93205 0.97632-1.5758zm3.5463 2.447c0 2.4333-1.9727 4.4058-4.406 4.4058s-4.406-1.9725-4.406-4.4058c0-2.4333 1.9727-4.4058 4.406-4.4058s4.406 1.9725 4.406 4.4058zm-60.507-2.447-1.0503 1.5277-1.5752-0.97631-0.66222 1.0138 1.5266 1.0499-0.97593 1.5761 1.0131 0.66229 1.0521-1.5277 1.5749 0.97687 0.68853-1.132-1.5533-0.93205 0.9763-1.5758zm3.5463 2.447c0 2.4333-1.9726 4.4058-4.406 4.4058-2.4334 0-4.406-1.9725-4.406-4.4058 0-2.4333 1.9726-4.4058 4.406-4.4058 2.4334 0 4.406 1.9725 4.406 4.4058zm-60.507-2.447-1.0503 1.5277-1.5752-0.97631-0.66222 1.0138 1.5266 1.0499-0.97594 1.5761 1.0131 0.66229 1.0521-1.5277 1.5749 0.97687 0.68854-1.132-1.5533-0.93205 0.9763-1.5758zm3.5463 2.447c0 2.4333-1.9727 4.4058-4.406 4.4058s-4.406-1.9725-4.406-4.4058c0-2.4333 1.9727-4.4058 4.406-4.4058s4.406 1.9725 4.406 4.4058zm-60.507-2.447-1.0503 1.5277-1.5752-0.97631-0.66222 1.0138 1.5266 1.0499-0.97595 1.5761 1.0131 0.66229 1.0521-1.5277 1.5749 0.97687 0.68853-1.132-1.5533-0.93205 0.97631-1.5758zm3.5463 2.447c0 2.4333-1.9726 4.4058-4.406 4.4058-2.4334 0-4.406-1.9725-4.406-4.4058 0-2.4333 1.9726-4.4058 4.406-4.4058 2.4334 0 4.406 1.9725 4.406 4.4058zm303.41 235.4h3.7806m-3.7806-18.727h3.7806m0-0.49322h-3.7806m-330.8 0h-3.7806m0 0.49322h3.7806m-3.7806 18.727h3.7806m-15.752 8.1822v-16.364m8.8214 0v16.364m344.66 0v-16.364m-341.83-0.6294v17.623m-1.8903 0v-17.623m342.77 0v17.623m-1.8903 0v-17.623m-37.176 117.07h-264.64m-18.903 10.07v-87.487m302.45 0v87.487m-302.45-0.6294v-86.857m283.54 76.787h-264.64m283.54-76.787v86.857m-261.49 0.31474h-28.997m298.68-87.172v-0.62937m-55.449 87.801h-100.82m153.27-360.33v-1.8882m-312.84 0v1.8882m-5.8311 274.42h1.8903m157.21 85.913h-100.82m-55.449-87.801v0.62937m311.96-275.05v1.8882m7.8082 274.42h1.8903m-313.47 88.745v-1.8882m290.49-0.9441h-28.997m40.956 2.8323v-1.8882m-303.77-361.28v-1.8882m314.8 198.98h0.0756m0-5.1204v5.1204m0 9.5827v0.40239m0-0.40239 0.20406-5e-3m0 0 0.20356-0.0145m0 0 0.20254-0.024m0 0 0.20101-0.0336m0 0 0.19899-0.043m0 0 0.19645-0.0525m0 0 0.19346-0.0617m0 0 0.18993-0.0707m0 0 0.18598-0.0796m0 0 0.18153-0.0882m0 0 0.17665-0.0968m0 0 0.1713-0.10498m0 0 0.16554-0.11292m0 0 0.15936-0.12059m0 0 0.1528-0.12801m0 0 0.14583-0.13507m0 0 0.13852-0.1418m0 0 0.13085-0.14818m0 0 0.12287-0.15416m0 0 0.11455-0.15978m0 0 0.10598-0.16499m0 0 0.0972-0.1698m0 0 0.088-0.17417m0 0 0.0788-0.17812m0 0 0.0692-0.18162m0 0 0.0595-0.18465m0 0 0.0497-0.18725m0 0 0.0397-0.18935m0 0 0.0296-0.19098m0 0 0.0195-0.19217m0 0 9e-3 -0.19284m0 0 8.8e-4 -0.0803m-4.0825-5.7212v9.5827m-0.0756-135.46h0.0756m0-5.1204v5.1204m0 9.5827v0.40239m0-0.40239 0.20406-5e-3m0 0 0.20356-0.0145m0 0 0.20254-0.024m0 0 0.20102-0.0336m0 0 0.19898-0.0431m0 0 0.19646-0.0525m0 0 0.19345-0.0617m0 0 0.18994-0.0707m0 0 0.18598-0.0796m0 0 0.18153-0.0882m0 0 0.17664-0.0968m0 0 0.1713-0.10499m0 0 0.16554-0.11291m0 0 0.15937-0.12059m0 0 0.1528-0.12801m0 0 0.14583-0.13507m0 0 0.13852-0.1418m0 0 0.13084-0.14818m0 0 0.12287-0.15416m0 0 0.11455-0.15978m0 0 0.10599-0.16499m0 0 0.0972-0.1698m0 0 0.088-0.17417m0 0 0.0788-0.17812m0 0 0.0692-0.18162m0 0 0.0595-0.18465m0 0 0.0497-0.18725m0 0 0.0397-0.18935m0 0 0.0296-0.19098m0 0 0.0195-0.19217m0 0 9e-3 -0.19284m0 0 8.8e-4 -0.0803m-4.0825-5.7212v9.5828m-324.65-10.654h0.0756m-0.0756 10.195v-10.195m-4.083 6.5814 5e-3 0.18059m0 0 0.0153 0.18013m0 0 0.0255 0.17923m0 0 0.0355 0.17788m0 0 0.0455 0.17608m0 0 0.0555 0.17385m0 0 0.0652 0.17119m0 0 0.0747 0.16809m0 0 0.0842 0.16457m0 0 0.0934 0.16064m0 0 0.10233 0.15632m0 0 0.11102 0.15158m0 0 0.11947 0.1465m0 0 0.12756 0.14102m0 0 0.13537 0.13521m0 0 0.14283 0.12905m0 0 0.14994 0.12261m0 0 0.15668 0.11581m0 0 0.16303 0.10876m0 0 0.16896 0.10133m0 0 0.17447 0.0938m0 0 0.17956 0.086m0 0 0.18417 0.0779m0 0 0.18835 0.0696m0 0 0.19204 0.0612m0 0 0.19527 0.0526m0 0 0.19801 0.0439m0 0 0.20023 0.0351m0 0 0.20196 0.0262m0 0 0.20319 0.0173m0 0 0.20392 9e-3m0 0 0.0849 7.8e-4m9e-5 -10.195v-4.0493m0 15.106v-0.86175m0.0756 112.96h-0.0756m0 10.501v-10.501m-4.083 8.1936 5e-3 0.11531m0 0 0.0153 0.11505m0 0 0.0255 0.11443m0 0 0.0355 0.11354m0 0 0.0455 0.11241m0 0 0.0555 0.11103m0 0 0.0652 0.10926m0 0 0.0747 0.10738m0 0 0.0842 0.10511m0 0 0.0934 0.10259m0 0 0.10233 0.0998m0 0 0.11102 0.0968m0 0 0.11947 0.0935m0 0 0.12756 0.09m0 0 0.13537 0.0863m0 0 0.14283 0.0823m0 0 0.14994 0.0783m0 0 0.15668 0.0739m0 0 0.16303 0.0694m0 0 0.16896 0.0647m0 0 0.17447 0.0599m0 0 0.17956 0.0549m0 0 0.18417 0.0497m0 0 0.18835 0.0444m0 0 0.19204 0.0392m0 0 0.19527 0.0336m0 0 0.19801 0.0281m0 0 0.20023 0.0224m0 0 0.20196 0.0168m0 0 0.20319 0.0113m0 0 0.20392 5e-3m0 0 0.0849 5e-4m9e-5 3.2807v-3.2809m0-10.501v-1.3243m5.6583-194.67h2.9142m0 0h5.4535m128.69 0h8.3677m22.476 0h8.3677m128.69 0h0.69611m0 0h7.6716m-4.1158 3.3358v271.9m3.8674 0v-271.9m-308.98 0v271.9m302.51 0v-271.9m-306.38 0v271.9m6.4557-271.9v271.9m1.2602-265.61v-6.294m0 96.928v-15.106m0 105.74v-15.106m0 99.445v-8.8116m164.59-172.46v-2.5176m0 93.151v-2.5176m132.81 84.34v8.8116m0-99.445v15.106m0-105.74v15.106m0-96.928v6.294m-164.59 172.46v2.5176m0-93.151v2.5176m148.21 260.86c0.43423-0.23489 0.85496-0.49387 1.2602-0.77574m-302.76-130.34v2.0841m0 0.49322v18.727m338.36-21.305v2.0841m-3.7806 0.49322v18.727m3.7806 181.9v-181.9m-334.58-19.221v-2.0841m0 203.2c0 1.0428 0.84632 1.8882 1.8903 1.8882m-1.8903-202.52v-0.49323m-3.7806 0v0.49323m3.7806 18.727v-18.727m0 200.63v-181.9m328.91 183.78c1.044 0 1.8903-0.84538 1.8903-1.8882m-334.58-203.2h3.7806m-3.7806 203.2c0 3.1285 2.539 5.6646 5.6709 5.6646m328.91-206.78v0.49323m-328.91 206.29h327.02m0-3.7764h-327.02m332.69-183.78v-18.727m-3.7806 18.727v181.9m0-203.2v2.0841m-334.58 19.221v181.9m338.36-200.63v-0.49323m0-2.0841h-3.7806m-1.8903 208.86c3.132 0 5.6709-2.5361 5.6709-5.6646m-350.34-190.08c-0.34799 0-0.6301 0.2818-0.6301 0.6294m9.4515 15.735h-8.8214m9.4515-15.735c0-0.3476-0.2821-0.6294-0.6301-0.6294m6.9311 13.217h3.1505m-19.533 2.5176c0 0.34761 0.28211 0.6294 0.6301 0.6294m8.8214 0c0.348 0 0.6301-0.28179 0.6301-0.6294m6.301-12.588h3.1505m-10.082-3.147h-8.8214m-0.6301 0.6294v15.106m354.12-15.735c-0.34799 0-0.6301 0.2818-0.6301 0.6294m-6.301 2.5176h-3.1505m10.082-3.147h8.8214m-15.752 13.217h-3.1505m9.4515 2.5176c0 0.34761 0.28211 0.6294 0.6301 0.6294m0 0h8.8214m-350.65 0.6294h-1.8903m1.8903-17.623h-1.8903m0 0c-0.17399 0-0.31505 0.1409-0.31505 0.3147m0 16.994c0 0.1738 0.14106 0.3147 0.31505 0.3147m2.2054-17.308c0-0.1738-0.14105-0.3147-0.31505-0.3147m0 17.623c0.174 0 0.31505-0.1409 0.31505-0.3147m-2.5204-16.994v16.994m343.09 0.3147h-1.8903m0-17.623c-0.17399 0-0.31505 0.1409-0.31505 0.3147m2.2054 17.308c0.174 0 0.31505-0.1409 0.31505-0.3147m-0.31505-17.308h-1.8903m2.2054 0.3147c0-0.1738-0.14105-0.3147-0.31505-0.3147m-2.2054 17.308c0 0.1738 0.14106 0.3147 0.31505 0.3147m2.2054-0.3147v-16.994m-34.925 124.98c1.1816 1.1804 2.7843 1.8435 4.4554 1.8435m9.992 0h-9.992m-274.46-5.3844h-0.34954m-7.6508 5.3844c1.6711-3e-5 3.2738-0.66315 4.4554-1.8435m3.1954-10.744h1.2602m283.54 12.588h8.8214m-311.27-87.487h302.45m-284.81 82.103v-7.2036m267.16 0v7.2036m26.464 5.3844v-87.487m-8.8214 0h8.8214m-26.813 82.103 3.5448 3.5409m-269.1-8.2269v3.7764m-18.903 6.294h-8.8214m27.724-6.294h264.64m-292.37-81.193v87.487m292.37-10.07v-2.5176m-283.54-74.899h-8.8214m23.268 85.644 3.5448-3.5409m266.81 0h-0.34956m-0.91064-0.9096v-3.7764m0-2.5176h1.2602m-265.9 0v2.5176m-8.911 10.07h-9.992m17.643-5.6991v-7.5183m265.9 2.5176v-2.5176m0 0h1.2602m-274.81 12.588h-9.992m302.45 0h-9.992m-7.6508-5.0697h-0.0345m-267.1 0h-0.0345m267.12 0 3.2298 3.2262m-3.1954-10.744v7.5183m-270.36 3.2262 3.2298-3.2262m270.33 3.2262c1.1816 1.1804 2.7843 1.8435 4.4554 1.8435m-282.46 0c1.6711-3e-5 3.2738-0.66315 4.4554-1.8435m4.4556-10.744v2.5176m-18.903-76.787h302.45m-284.81 74.269h1.2602m-24.099-347.43h-5.516m1.8903 361.28h8.8214m255.19-0.9441v-4.7205m-260.38-355.61h3.8674m262.81 355.61v4.7205m-262.81-360.33h305.11m9.3834-1.8882v1.8882m-314.48-1.8882h-3.8674m-3.9408 275.05h-1.8903m0 88.116v-86.857m0-1.2588v1.2588m0-1.2588v-273.16m314.8-3.8e-5h3.8674m-316.78 361.28v-86.857m322.61-274.42v273.16m-322.61 88.116v1.8882m9.1364 0h-8.8214m322.3-1.8882v-86.857m-2.2054 88.745h-8.8214m-46.994-8.8116c-0.17348 0.39704-0.26303 0.82559-0.26303 1.2588m6.301 0c-2e-5 -0.43321-0.0896-0.86176-0.26304-1.2588m-113.15 5.9793v-4.7205m163.51-83.081v0.62936m0-273.16v0.62936m-9.1364 360.65h8.8214m-0.63007 0v-0.62944m-319.78-360.02v-0.62936m0 273.16v-0.62937m50.093 88.745v-0.9441m270.63-87.172v1.2588m-3.9408-276.31h-3.8674m-305.11 0h305.11m3.8674 0h5.516m-1.5752 365.05h-0.31505m0.31509-88.745v86.857m-319.78 4e-5v-0.62944m-2.8354-360.65h1.8903m311.58 361.28h-302.45m311.58 0v1.8882m-157.21-7.5528v4.7205m-165.09-362.22v1.8882m324.19 273.16h-1.8903m-163.51 88.116v-0.9441m-156.26-360.33v0.6294m319.46 360.65v1.8882m-3.6257-363.16h5.516m-324.19 361.28h1.8903m322.61 0h-1.8903m-320.41-0.94406h-0.31505m311.58 2.8323h-302.45m311.58-363.16h1.8903m-322.61 274.42v-1.2588m319.78-273.16v0.6294m-269.42 353.72c-0.17347 0.39704-0.26302 0.82559-0.26302 1.2588m6.301 0c-2e-5 -0.43321-0.0896-0.86176-0.26305-1.2588m-6.038 5.9793v-4.7205m272.52-81.193v-1.2588m-51.983 87.172v0.9441m-270.63 0h0.31505m157.16-6.9234c-0.17348 0.39704-0.26303 0.82559-0.26303 1.2588m6.301 0c-1e-5 -0.43321-0.0896-0.86176-0.26304-1.2588m101.08 6.9234v-0.9441m56.079 0.9441h0.31505m-322.3-363.16h5.516m52.453 362.22v0.9441m264.33-0.9441h-0.31505m-320.09 0.9441v1.8882m0 0h-0.31505m163.51-2.8323v0.9441m-107.12-5.6646v4.7205m266.22-168.36h0.0756m-0.0756 15.106h0.0756m4.083-11.027c0-2.2525-1.828-4.0785-4.083-4.0785m0 15.106c2.255 0 4.083-1.826 4.083-4.0785m0-6.9486v2.3555m0 4.4081v0.18509m0-4.5931v4.4081m-4.083-121.62c2.255 0 4.083-1.826 4.083-4.0785m-4.1587 4.0785h0.0756m-0.0756-15.106h0.0756m4.083 4.0785c0-2.2525-1.828-4.0785-4.083-4.0785m4.083 4.0785v2.3555m0 4.4081v0.18509m0-4.5931v4.4081m-332.82 0.18509c0 2.2525 1.828 4.0785 4.083 4.0785m0.0756-15.106h-0.0756m0 0c-2.255 0-4.083 1.826-4.083 4.0785m4.1587 11.027h-0.0756m-4.083-4.4749v-6.5522m0 6.9486v-0.39641m4.1587 130.35h-0.0756m0.0756-15.106h-0.0756m0 0c-2.255 0-4.083 1.826-4.083 4.0785m0 6.9486c0 2.2525 1.828 4.0785 4.083 4.0785m-4.083-5.5877v-4.8303m0 6.3394v-1.5092m0-4.8303v-0.60914m18.109-197.93v-0.81822m-6.3892 2.7064v0.6294m6.3892-3.3358c1e-5 -1.1684-0.93823-2.1209-2.1078-2.1397m0.12925 4.8461v0.6294m-6.3892-2.5176v-0.81822m2.1078-2.1397c-1.1696 0.01888-2.1078 0.97128-2.1078 2.1397m4.173-2.1383 0.0113 2.52e-4m-1.1902-0.0025h-0.85181m1.869 0.06911c-0.20221-0.01271-0.4008-0.01699-0.58962-0.01699-0.18883 0-0.38696 0.0038-0.58781 0.01699m1.3606-0.06735c-0.0378 2.5e-5 -0.0771 0.0088-0.11417 0.02631-0.0217 0.01007-0.0451 0.0248-0.0692 0.04267m-1.8689-0.06898-0.0346 2.52e-4m1.2844-0.0025 0.0113 0.05212m0.3711-0.05212h0.39809m2.087 0.0025c0.10699 0.0013 0.21274 0.01007 0.3086 0.02606 0.0621 0.01007 0.12707 0.0248 0.19241 0.04267m-0.5356-0.06898 0.0347 2.52e-4m-3.2657-0.0025h0.39809m2.4507 0h0.38244m-0.38244 0h-1.648m-0.80269 0h0.38245m2.9865 0.06911c-0.062-0.01271-0.1245-0.01699-0.18464-0.01699-0.0601 0-0.124 0.0038-0.19037 0.01699m-2.9e-4 0.0013c-0.0673-0.01787-0.13372-0.03235-0.19697-0.04267-0.10812-0.01762-0.22732-0.02631-0.34601-0.02631m-2.0682-0.0013 6e-3 0.05828m-0.94671 0.01259c0.0181-0.01787 0.0365-0.03235 0.0548-0.04267 0.0311-0.01762 0.0675-0.02631 0.10535-0.02631m134.07 2.9565v-0.81822m1.9785 2.7064v0.6294m4.4107-0.6294v0.6294m1.9785-3.3358c0-1.1819-0.95917-2.14-2.1423-2.14m2.1423 2.9582v-0.81822m-6.2254-2.14c-1.1832 0-2.1423 0.9581-2.1423 2.14m5.9585-2.1383c0.0841 2.5e-5 0.16692 0.0088 0.24047 0.02631 0.0431 0.01007 0.0876 0.0248 0.13222 0.04267m-1.303-0.07062h0.0459m-2.7489 0h0.84983m1.8991 0h0.88461m0.37289 0.06911c-0.15468-0.01271-0.30788-0.01699-0.4542-0.01699-0.14633 0-0.30056 0.0038-0.45826 0.01699m-2.2444-0.06735c-0.092 2.6e-5 -0.18507 0.0088-0.27018 0.02631-0.0498 0.01007-0.10245 0.0248-0.15595 0.04267m2.6704-3.8e-5c-0.0493-0.01787-0.0977-0.03235-0.14333-0.04267-0.0781-0.01762-0.16332-0.02631-0.24733-0.02631m-2.1e-4 -0.0013h-1.8532m-0.84983 0h-0.18275m4.083 0h-0.26673m-3.2102 0.06911c-0.1443-0.01271-0.28524-0.01699-0.41888-0.01699-0.13363 0-0.27346 0.0038-0.41444 0.01699m4.3e-4 0.0013c0.0493-0.01787 0.0984-0.03235 0.14579-0.04267 0.0809-0.01762 0.17194-0.02631 0.26392-0.02631m2.7488-0.0013-2.4e-4 9.56e-4m27.748 4.8454v0.6294m0.16383-5.4758c-1.1832 0-2.1423 0.9581-2.1423 2.14m8.3677 0c0-1.1819-0.95917-2.14-2.1423-2.14m-6.2254 2.9582v-0.81822m6.3892 2.7064v0.6294m1.9785-2.5176v-0.81822m-5.0479-2.1383c-0.0849 2.5e-5 -0.17111 0.0088-0.25007 0.02631-0.0462 0.01007-0.0951 0.0248-0.14486 0.04267m-0.5264-0.07062h0.89472m1.8808 0h0.85956m0.1917 0h-0.1917m-0.43716 0.07062c-0.0531-0.01787-0.10523-0.03235-0.15455-0.04267-0.0843-0.01762-0.17654-0.02631-0.26764-0.02631m0.85915 3.8e-5c0.0911 2.5e-5 0.18119 0.0088 0.2613 0.02631 0.0469 0.01007 0.0955 0.0248 0.14428 0.04267m-3.1457-0.07062h0.0268m3.1194 0.06911c-0.14263-0.01271-0.28407-0.01699-0.41923-0.01699-0.13517 0-0.27771 0.0038-0.42362 0.01699m-2.6718 0c-0.1562-0.01271-0.30895-0.01699-0.45387-0.01699-0.14491 0-0.29663 0.0038-0.44978 0.01699m4.3e-4 0.0013c0.0451-0.01787 0.0902-0.03235 0.13385-0.04267 0.0744-0.01762 0.15832-0.02631 0.24329-0.02631m-2.2e-4 -0.0013h-0.25626m3.0318 0h-1.854m-0.0268 0 8e-5 3.15e-4m135.75 4.8461v0.6294m6.3892-2.5176v-0.81822m-8.3677 0.81822v-0.81822m2.1423-2.14c-1.1832 0-2.1423 0.9581-2.1423 2.14m8.3677 0c0-1.1819-0.95916-2.14-2.1423-2.14m0.16383 4.8464v0.6294m-4.1721-5.4758h-0.0747m0.2919 0.06911c-0.11871-0.01271-0.23431-0.01699-0.34377-0.01699-0.10939 0-0.22381 0.0038-0.33877 0.01699m1.1613-0.06735c-0.10384 2.5e-5 -0.2086 0.0088-0.30405 0.02631-0.0558 0.01007-0.11468 0.0248-0.17448 0.04267m2.2967-0.07062h0.32599m0.72429 0.0013c0.0688 2.5e-5 0.13636 0.0088 0.19588 0.02631 0.0348 0.01007 0.0708 0.0248 0.10661 0.04267m-3.8669-0.07062h0.69606m2.144 0h0.72452m0.44371 0h-0.44371m-1.0505 0h-1.8181m3.1712 0.06911c-0.17508-0.01271-0.34821-0.01699-0.51341-0.01699s-0.33916 0.0038-0.51672 0.01699m-1e-5 0.0013c-0.0411-0.01788-0.0813-0.03235-0.11909-0.04267-0.0646-0.01762-0.13483-0.02631-0.20364-0.02631m-2.9794 0.06898c0.0562-0.01788 0.11228-0.03235 0.16617-0.04267 0.092-0.01762 0.19508-0.02631 0.29892-0.02631m2.84-0.0013-0.0158 0.0642m-10.939 93.528c3.4799 0 6.301-2.8179 6.301-6.294m-297.41 0v-75.528m291.11 81.822h-284.81m291.11-81.822v75.528m-291.11-81.822h284.81m-291.11 81.822c0 3.4761 2.821 6.294 6.301 6.294m291.11-81.822c0-3.4761-2.8211-6.294-6.301-6.294m-284.81 0c-3.48 0-6.301 2.8179-6.301 6.294m291.11 172.46c3.4799 0 6.301-2.8179 6.301-6.294m-297.41 0v-75.528m291.11 81.822h-284.81m291.11-81.822v75.528m-291.11-81.822h284.81m-291.11 81.822c0 3.4761 2.821 6.294 6.301 6.294m291.11-81.822c0-3.4761-2.8211-6.294-6.301-6.294m-284.81 0c-3.48 0-6.301 2.8179-6.301 6.294m291.11 172.46c3.4799 0 6.301-2.8179 6.301-6.294m-297.41 0v-75.528m291.11 81.822h-284.81m291.11-81.822v75.528m-291.11-81.822h284.81m-291.11 81.822c0 3.4761 2.821 6.294 6.301 6.294m291.11-81.822c0-3.4761-2.8211-6.294-6.301-6.294m-284.81 0c-3.48 0-6.301 2.8179-6.301 6.294m-13.232 84.34h5.516m318.35-271.9v271.9m-311.27-271.9h-0.6301m-11.972 271.9v-271.9m318.35 0h-3.8674m3.8674 271.9h5.516m-318.35-271.9h-5.516m9.3834 0h-3.8674m318.35 0h-5.516m-312.84 271.9h3.8674m3.2186-271.9v271.9m-3.2186 0h2.5884m299.3 0h0.6301m-299.93-271.9h-2.5884m2.5884 271.9h0.6301m299.3-271.9h-0.6301m3.2186 0h-2.5885m0 271.9h2.5885m-3.2186-271.9v271.9m3.2186 0h3.8674m-264.47-93.151v2.5176m70.571-93.151v2.5176m186.81-90.634h-0.6301m-80.98 90.634v-2.5176m32.16 90.634v2.5176m-50.408-2.5176v2.5176m60.49-93.151v2.5176m-40.326 88.116v2.5176m-169.52-90.634v-2.5176m11.997 90.634v2.5176m107.09-2.5176v2.5176m-147.42-93.151v2.5176m60.49 88.116v2.5176m-74.679-181.27h-6.301m297.41 0h-6.301m-94.843 90.634v-2.5176m-20.163 93.151v-2.5176m11.997 0v2.5176m-22.19 0v-2.5176m-95.009-90.634v2.5176m206.02 90.634v-2.5176m-177.69 2.5176v-2.5176m193.64 2.7694c1.0082-0.75528 1.0082-2.2658 0-3.0211m-106.69-87.864v-2.5176m-23.839 90.634v2.5176m-71.281-93.151v2.5176m201.81 0.25176c1.0082-0.75528 1.0082-2.2658 0-3.0211m-26.036 93.403v-2.5176m-88.819-90.634v2.5176m-76.872-2.5176v2.5176m64.764 0v-2.5176m-54.683 90.634v2.5176m-72.487-90.634v-2.5176m30.245 93.151v-2.5176m10.082 2.5176v-2.5176m214.49-87.624c0.94525-0.97601 0.94525-2.525 0-3.501m-204.4 3.0093v-2.5176m167.61 2.5176v-2.5176m-252.22 90.382c-1.0082 0.75528-1.0082 2.2658 0 3.0211m191.73-0.25176v-2.5176m-66.768-88.116v-2.5176m48.52 90.634v2.5176m60.49-93.151v2.5176m-219.93 0v-2.5176m-8.1661 90.634v2.5176m121.09-2.5176v2.5176m-102.84-90.634v-2.5176m-29.287 183.78h0.6301m236.59-90.634v-2.5176m-127.28 2.5176v-2.5176m-109.31-178.75h-0.6301m186.81 181.27v-2.5176m50.408-88.116v-2.5176m-167.61 2.5176v-2.5176m93.359 0v2.5176m-42.951 0v-2.5176m98.951 0v2.5176m-218.34 181.27h297.41m-276.92-93.151v2.5176m228.1-93.151v2.5176m44.96 91.126c0.94525-0.97601 0.94525-2.525 0-3.501m-24.797 0.49171v2.5176m-40.326-2.5176v2.5176m-1.9155 0v-2.5176m-197.85 2.5176v-2.5176m-24.12-90.885c-1.0082 0.75528-1.0082 2.2658 0 3.0211m211.89 90.382v-2.5176m-28.329-90.634v2.5176m-147.44-2.5176v2.5176m88.842 90.634v-2.5176m-10.105 2.5176v-2.5176m-115.53-0.49171c-0.94525 0.97601-0.94525 2.525 0 3.501m131.2-91.126v-2.5176m0 93.151v-2.5176m71.281 2.5176v-2.5176m0-88.116v-2.5176m82.568 0v2.5176m-187.77 88.116v2.5176m-97.284-93.643c-0.94525 0.97601-0.94525 2.525 0 3.501m224.57-3.0093v2.5176m18.248 90.634v-2.5176m-78.76-90.634v2.5176m40.349 88.116v2.5176m18.248-90.634v-2.5176m-165.69 0v2.5176m-1.9155 0v-2.5176m40.326 2.5176v-2.5176m189.69 90.634v2.5176m-50.408-2.5176v2.5176m30.245-93.151v2.5176m-92.65 0v-2.5176m-97.035 2.5176v-2.5176m177.69 93.151v-2.5176m-226.18-90.634v2.5176m-22.079 90.634v-2.5176m82.568 0v2.5176m195.94-90.634v-2.5176m-28.329 90.634v2.5176m-240.09 0v-2.5176m268.42 2.5176v-2.5176m-88.819-90.634v2.5176m-149.36 90.634v-2.5176m60.49-88.116v-2.5176m-20.163 93.151v-2.5176m-8.1661-90.634v2.5176m165.69 0v-2.5176m-125.36 90.634v2.5176m145.53-90.634v-2.5176m30.572 183.78h0.6301m-164.76-181.27v-2.5176m0 93.151v-2.5176m145.55 0v2.5176m-157.52-93.151v2.5176m42.818 88.116v2.5176m0-93.151v2.5176m44.136-2.5176v2.5176m-157.52 88.116v2.5176m-42.242-90.634v-2.5176m30.245 93.151v-2.5176m20.163 2.5176v-2.5176m11.997 0v2.5176m-40.326-2.5176v2.5176m-20.163-93.151v2.5176m268.42-2.5176v2.5176m-228.1-2.5176v2.5176m80.764-2.5176v2.5176m145.41 0v-2.5176"
       fill="none"
       stroke-linecap="round"
       stroke-linejoin="round"
       stroke-width=".99501"
       id="path80" /></g></svg>
