<?xml version="1.0" encoding="UTF-8" standalone="no"?>
<svg
   width="1032.5"
   height="585.15"
   version="1.1"
   xml:space="preserve"
   id="svg80"
   sodipodi:docname="desenhotecnico.svg"
   inkscape:version="1.2.2 (732a01da63, 2022-12-09)"
   xmlns:inkscape="http://www.inkscape.org/namespaces/inkscape"
   xmlns:sodipodi="http://sodipodi.sourceforge.net/DTD/sodipodi-0.dtd"
   xmlns="http://www.w3.org/2000/svg"
   xmlns:svg="http://www.w3.org/2000/svg"><defs
     id="defs84" /><sodipodi:namedview
     id="namedview82"
     pagecolor="#505050"
     bordercolor="#ffffff"
     borderopacity="1"
     inkscape:showpageshadow="0"
     inkscape:pageopacity="0"
     inkscape:pagecheckerboard="1"
     inkscape:deskcolor="#505050"
     showgrid="false"
     inkscape:zoom="1.6132615"
     inkscape:cx="604.98562"
     inkscape:cy="130.17109"
     inkscape:window-width="1920"
     inkscape:window-height="1009"
     inkscape:window-x="-8"
     inkscape:window-y="-8"
     inkscape:window-maximized="1"
     inkscape:current-layer="svg80" /><g
     stroke="#000"
     id="g16"><path
       transform="matrix(.87126 .1391 -.1391 .87126 -380.47 12.549)"
       d="m1576.7-107.63 2.6211-3.1399m-10.491 12.534 2.6211-3.1399m4.9901-3.9624c0.4543 1.3153-0.2435 2.7499-1.5586 3.2043-1.3152 0.45437-2.7497-0.24357-3.204-1.5589-0.4544-1.3153 0.2434-2.7499 1.5586-3.2043 1.3151-0.45437 2.7496 0.24358 3.204 1.5589zm-4.636-1.14-0.5721 2.9342 2.2544 1.9622 2.827-0.97085 0.5721-2.9342-2.2544-1.9622zm0.1812 0.22708 4.1779 3.4969m1.8362-2.3904c0.3463 2.1691-1.1314 4.2083-3.3005 4.5546s-4.2083-1.1314-4.5546-3.3005 1.1314-4.2083 3.3005-4.5546c2.1691-0.3463 4.2083 1.1314 4.5546 3.3005zm4.48-0.71516c0.7413 4.6433-2.4219 9.0085-7.0652 9.7498-4.6433 0.74126-9.0084-2.4219-9.7497-7.0652-0.7413-4.6433 2.4218-9.0084 7.0651-9.7498 4.6433-0.74132 9.0084 2.4219 9.7498 7.0652zm12.245 110.63 2.6211-3.1399m-10.491 12.534 2.6211-3.1399m4.9901-3.9624c0.4543 1.3153-0.2435 2.7499-1.5586 3.2043-1.3152 0.45437-2.7497-0.24358-3.204-1.5589-0.4544-1.3153 0.2434-2.7499 1.5586-3.2043 1.3151-0.45437 2.7496 0.24357 3.204 1.5589zm-4.636-1.14-0.5721 2.9341 2.2544 1.9622 2.827-0.97085 0.5721-2.9341-2.2544-1.9622zm0.1812 0.22707 4.1779 3.4969m1.8362-2.3904c0.3463 2.1691-1.1314 4.2083-3.3005 4.5546-2.1691 0.3463-4.2083-1.1314-4.5546-3.3005-0.3463-2.1691 1.1314-4.2083 3.3005-4.5546 2.1691-0.3463 4.2083 1.1314 4.5546 3.3005zm4.48-0.71526c0.7413 4.6433-2.4219 9.0085-7.0652 9.7498-4.6434 0.74132-9.0085-2.4219-9.7498-7.0652-0.7413-4.6433 2.4219-9.0085 7.0652-9.7498 4.6433-0.74132 9.0084 2.4219 9.7498 7.0652zm12.181 110.52 2.6211-3.1399m-10.491 12.534 2.6212-3.1399m4.99-3.9624c0.4543 1.3153-0.2435 2.7499-1.5586 3.2043-1.3152 0.45437-2.7497-0.24357-3.204-1.5589-0.4544-1.3153 0.2434-2.7499 1.5586-3.2043 1.3151-0.45437 2.7496 0.24358 3.204 1.5589zm-4.6359-1.14-0.5722 2.9342 2.2544 1.9622 2.827-0.97085 0.5721-2.9342-2.2544-1.9622zm0.1811 0.22708 4.1779 3.4969m1.8362-2.3904c0.3463 2.1691-1.1314 4.2083-3.3005 4.5546s-4.2083-1.1314-4.5546-3.3005 1.1314-4.2083 3.3005-4.5546c2.1691-0.3463 4.2083 1.1314 4.5546 3.3005zm4.48-0.71526c0.7413 4.6433-2.4219 9.0085-7.0652 9.7498-4.6433 0.74126-9.0084-2.4219-9.7497-7.0652-0.7413-4.6433 2.4218-9.0084 7.0651-9.7498 4.6433-0.74132 9.0084 2.4219 9.7498 7.0652zm-38.369 29.355-1.9768 4.6942 3.0765 4.0581 5.0537-0.63412 1.9767-4.6942-3.0765-4.0581zm11.787 2.6686c-0.7681-4.811-5.291-8.0884-10.102-7.3201-4.8111 0.7681-8.0884 5.291-7.3201 10.102 0.7681 4.811 5.291 8.0884 10.102 7.3201 4.811-0.7681 8.0884-5.291 7.3201-10.102zm1.0889-0.17385c-0.8642-5.4121-5.9519-9.099-11.364-8.2351-5.4121 0.8641-9.0991 5.9519-8.2352 11.364 0.8641 5.4121 5.9518 9.0991 11.364 8.2352 5.412-0.86415 9.099-5.9519 8.2351-11.364zm-0.3629 0.058c-0.8321-5.212-5.732-8.7626-10.944-7.9301-5.2116 0.83212-8.762 5.7314-7.9301 10.943 0.8321 5.2116 5.7314 8.7619 10.943 7.9301 5.2116-0.83207 8.762-5.7313 7.9302-10.943zm0.7259-0.1159c-0.8959-5.6127-6.1723-9.4364-11.785-8.5402-5.6127 0.89593-9.4363 6.1724-8.5401 11.785 0.8959 5.6127 6.1723 9.4364 11.785 8.5402 5.6127-0.89588 9.4364-6.1723 8.5402-11.785zm-28.388-352.77 5.6114-0.89589m-6.9587 4.4323-0.1738-1.2151 9.3034-1.4757 0.2099 1.2002m-0.1457-0.91229c-0.178-1.1149-1.1061-1.9577-2.2352-2.0296m-5.6114 0.8959c-1.0506 0.41988-1.699 1.2065-1.521 2.3214m77.714 582.12-42.162 6.7314m-43.775-83.264-1.0101-6.3264m0 0-0.4784-2.9969m-7.4786-46.841-1.01-6.3264m0 0-0.4785-2.9969m99.427-33.052 15.58 97.585m-72.401-507.16 0.4484 2.8082m-13.023-0.8006 0.4484 2.8082m-12.5 517.48-80.031-501.27m177.23 487.19 0.4484 2.8082m-88.657-505.65-0.4484-2.8082m16.648 0.94171 64.563 404.38m-80.651-401.81 64.563 404.38m3.5134-0.56095-64.563-404.38m14.168 374.01-0.3677-2.3035m-0.4157-0.51452 0.5486 3.4364m0 3e-3 -0.5496-3.4422m0.4195 0.51898 0.3671 2.2994m-36.714 107.64c-2.1059 1.2485-3.2357 3.655-2.85 6.0706m2.9591 18.534c0.3857 2.4157 2.2086 4.3507 4.5986 4.8814m-7.5577-23.416 1.4796 9.2671m0 0 1.4795 9.2671m50.911-160.9c-1.6912-10.593-10.994-18.28-21.726-17.953m59.051 251.74 1.0088 6.3185m-42.162 6.7314 42.162-6.7314m-52.587-212.63c-0.2559-1.6029-1.764-2.6947-3.3684-2.4385-1.6044 0.25617-2.6975 1.7632-2.4415 3.3661 0.2559 1.6029 1.7639 2.6947 3.3683 2.4385 1.6044-0.25612 2.6975-1.7632 2.4416-3.3661zm-8.5059-45.826c0.2761 0.26698 0.6486 0.411 1.0328 0.39929m-5.3801 0.85898c-10.301 3.0306-16.748 13.233-15.056 23.826m17.287-27.13 2.1163 2.046m17.922 258.87-37.325-233.78m42.162-6.7314 37.325 233.78m-41.153 13.05-1.0088-6.3185m-22.27-257.61c0.3687-0.10849 0.6778-0.36135 0.8571-0.70104m0 0 1.3739-2.6033m-22.823 177.5-0.9135 0.14585m-2.7703-2.0055c0.2105 1.3183 1.4508 2.2162 2.7703 2.0055m-0.575-9.4691-0.9135 0.14585m0 0c-1.3195 0.21064-2.2186 1.4501-2.0081 2.7684m0.2985 1.8696-0.08-0.50144m-0.2184-1.3682 0.1351 0.84623m0.5126 3.1984c0.021 0.12964 0.051 0.25841 0.09 0.37354 0.022 0.0674 0.05 0.13755 0.082 0.20804m-0.475-2.4685 0.3013 1.8871m0.172 0.58198c-4e-4 0.0888 0.01 0.17315 0.021 0.252 0.013 0.0789 0.03 0.16022 0.058 0.23969m-0.6779-3.7504-0.083-0.52195m0 1e-5c-0.01-0.0496-0.01-0.0991 0.01-0.14377 0.01-0.0261 0.02-0.0535 0.036-0.0811m0.1644 1.5363-0.046-0.28812m-0.1202-1.2483c0.021 0.2215 0.051 0.43862 0.083 0.64486 0.033 0.20623 0.072 0.42252 0.1218 0.64118m0.3423 2.639-0.08-0.50143m-0.3473-2.1752 0.076-4e-3m0.01 0.0417c-0.015 0.0342-0.026 0.0668-0.033 0.0967-0.012 0.0511-0.014 0.10386-0.01 0.15343m-0.1279-0.78896 0.061 4e-3m0.6188 3.7456c-0.031-0.068-0.059-0.13611-0.081-0.20203-0.038-0.11264-0.069-0.24022-0.089-0.36985m-7.6867-63.479c-1.3195 0.21069-2.2185 1.4501-2.008 2.7684m4.41 6.409-0.9135 0.14585m-0.575-9.4691-0.9135 0.14584m-1.2817 7.3177c0.2105 1.3183 1.4507 2.2161 2.7702 2.0055m-3.198-4.6852-0.08-0.50143m-0.2184-1.3682 0.1351 0.84623m0.5126 3.1984c0.021 0.1296 0.051 0.25842 0.09 0.37355 0.022 0.0674 0.05 0.13755 0.082 0.20802m-0.475-2.4685 0.3013 1.8871m0.1719 0.58198c-3e-4 0.0888 0.01 0.17315 0.021 0.25199 0.013 0.0789 0.03 0.16024 0.058 0.2397m-0.6778-3.7504-0.083-0.52195m0 1e-5c-0.01-0.0496-0.01-0.0992 0.01-0.14384 0.01-0.0261 0.02-0.0534 0.036-0.081m0.1644 1.5364-0.046-0.28814m-0.1203-1.2483c0.021 0.22149 0.051 0.43861 0.083 0.64485 0.033 0.20623 0.072 0.42252 0.1218 0.64119m0.3423 2.639-0.08-0.50144m-0.3473-2.1753 0.076-5e-3m0.011 0.0423c-0.015 0.0342-0.026 0.0668-0.033 0.0968-0.012 0.0512-0.014 0.10382-0.01 0.15342m-0.1279-0.78899 0.061 5e-3m0.6187 3.7449c-0.031-0.068-0.059-0.13612-0.081-0.20204-0.038-0.1127-0.068-0.24022-0.089-0.36984m22.977-443.73v4e-5m4.9188-0.78537 0.1121 0.70206m98.118 499.46-15.58-97.585m15.58 97.585-9.8377 1.5707m-24.715-96.127 9.135-1.4585m15.58 97.585-4.9189 0.78533m-92.053 14.697-1.3608 0.21725m92.59-114.86-9.8377 1.5707m-85.664 113.39 4.2162-0.67314m8.2843-516.81 0.7027-0.11219m-8.7629 518.32 0.4484 2.8082m-84.92-504.81 80.031 501.27m29.291-520.16 1.4793-0.23619m-106.81 17.053 88.539-14.136m83.993 503.51-15.468-96.883m20.835 98.906-4.9189 0.78533m-0.4483-2.8082 4.9188-0.78533m-98.601 14.303c0.1238 0.77542 0.8533 1.3036 1.6295 1.1797m25.882-523.94-1.4794 0.23619m1.4794-0.23619-106.81 17.053m107.26-14.245-0.4483-2.8082m-3.6498 381.58c1.1498-1.4666 1.0006-3.5648-0.3451-4.8535m3.1556 146.09-24.594 3.9266m92.053-14.697-25.297 4.0388m-0.4483-2.8083 25.297-4.0388m-92.053 14.697 24.594-3.9266m-105.52-502.96 0.4483 2.8082m-3.992 2.0772 4.2162-0.67314m187.51 488.43-9.8377 1.5707m-177.9-491.4c-0.7762 0.12393-1.305 0.85304-1.1812 1.6285m1.1812-1.6284 87.837-14.024m-11.686 353.18c-2.7752 0.44314-4.0156 3.7338-2.2223 5.895 1.7933 2.1613 5.2594 1.553 6.2094-1.0898m-0.5512-3.4521c-0.8126-1.0432-2.1292-1.5617-3.4359-1.3531m29.043 17.258c-0.8776 1.6437-0.366 3.6841 1.1834 4.7197m-18.287-378.08 0.4484 2.8082m-12.107 336.28c-2.6145 0.41751-3.9167 3.4012-2.4436 5.5988s4.73 2.1296 6.1113-0.12746m0.4731-1.2356c0.4534-2.4619-1.6669-4.6307-4.1408-4.2357m-1.641 8.4855c-2.8923 0.46181-4.0746 3.9799-2.0472 6.0911 2.0274 2.1112 5.5944 1.0763 6.1757-1.792m0.022-1.3227c-0.3313-1.9621-2.1834-3.2904-4.1501-2.9764m5.5641 16.086c-4.9255 0.78713-3.508 8.2036 1.3607 7.1194m-1.1412-7.1476c-0.073 7e-3 -0.1467 0.0164-0.2196 0.0279m-0.097 155.96 0.2241 1.4041m92.053-14.697 0.4483 2.8082m-20.357-100.42-64.787-405.79m89.614 502.62 9.8377-1.5707m-98.046-501.27 3.5135-0.56095m62.679 406.12-2.8107 0.44876m-152.4-390.36-0.2242-1.4041m79.064 350.28c0.7249-0.11574 1.3978-0.44842 1.9297-0.95413m-0.9421-5.901c-2.1022-0.99875-4.5891 0.21073-5.0998 2.4802m2.3471 4.219c0.5664 0.19691 1.1728 0.25049 1.7651 0.15594m26.266-367.1-12.574 2.0076m-11.499 365.78c-0.7147 0.78661-1.0483 1.8467-0.9127 2.9002m-4.1047-11.759c1.2416-0.19822 2.2923-1.0245 2.777-2.1838m-0.6014-3.7667c-1.5855-1.8348-4.4921-1.6277-5.802 0.41341m0.7611 4.767c0.8015 0.65294 1.8439 0.93306 2.8653 0.77m80.825 50.379c-0.1238-0.77547-0.8534-1.3036-1.6296-1.1797m-155.88-394.12c-2.3286 0.37175-3.9151 2.5591-3.5437 4.8855m191.73 487.75-0.4484-2.8082m-82.215 13.126-24.594 3.9267m92.053-14.697-25.297 4.0388m-71.196 9.9271c0.3714 2.3264 2.5601 3.911 4.8887 3.5392m72.287-115.93 0.7027-0.11219m0 0 3.5134-0.56095m-51.988-406.39-12.575 2.0076m14.054-2.2438-1.4793 0.23619m1.4793-0.23619 64.563 404.38m-1.4793 0.23619 1.4793-0.23619m-82.833-401.47 64.563 404.38m4.2161-0.67314 12.575-2.0076m-80.651-401.81-0.7027 0.11219m4.2161-0.67314-3.5134 0.56095m17.681 373.45-0.3681-2.3054m0.1317 2.9263-0.5496-3.4427m-17.598-370.52-0.7027 0.11219m64.563 404.38 0.7027-0.11219"
       fill="none"
       stroke-linecap="round"
       stroke-linejoin="round"
       stroke-width="1.1334"
       id="path2" /><path
       transform="matrix(-1.3606 0 0 -1.361 988.34 123.19)"
       d="m38.882 71.352-66.151-0.04489"
       fill="#4d4d4d"
       stroke-width=".73486"
       id="path4" /><g
       transform="translate(32.458 7.6422)"
       stroke-linecap="round"
       stroke-linejoin="round"
       id="g14"><path
         transform="matrix(-1.3606,0,0,-1.361,654.42,115.55)"
         d="m-247.65 69.021v4.6436l-5.9083-2.3121 5.9083-2.3509"
         stroke-width=".73486"
         id="path6" /><path
         transform="matrix(-1.3606,0,0,-1.361,962.81,115.55)"
         d="m42.421 73.645v-4.6436l5.9083 2.3121-5.9083 2.3509"
         stroke-width=".73486"
         id="path8" /><path
         transform="matrix(.87038 0 0 .87038 785.58 146.29)"
         d="m127.08-153.9 0.11828 466.76"
         fill="none"
         stroke-width="1.1489"
         id="path10" /><path
         transform="matrix(.87038 0 0 .87038 888.79 -25.137)"
         d="m127.08 43.6 0.11828 30.678"
         fill="none"
         stroke-width="1.1489"
         id="path12" /></g></g><text
     transform="matrix(0.8704,0,0,0.87035,663.95,-17.914)"
     x="352.77798"
     y="42.779858"
     fill="#000000"
     font-family="Lato"
     font-size="30.638px"
     letter-spacing="0px"
     stroke-width="1.1489"
     word-spacing="0px"
     style="line-height:125%;font-variant-ligatures:normal;font-variant-caps:normal;font-variant-numeric:normal;font-variant-east-asian:normal"
     xml:space="preserve"
     id="text20"><tspan
       x="352.77798"
       y="42.779858"
       font-family="Lato"
       font-size="30.638px"
       stroke-width="1.1489"
       style="font-variant-ligatures:normal;font-variant-caps:normal;font-variant-numeric:normal;font-variant-east-asian:normal"
       id="tspan18">D</tspan></text><text
     transform="matrix(0.8704,0,0,0.87035,760.93,249.24)"
     x="98.293945"
     y="143.83748"
     fill="#000000"
     font-family="Lato"
     font-size="30.638px"
     letter-spacing="0px"
     stroke-width="1.1489"
     word-spacing="0px"
     style="line-height:125%;font-variant-ligatures:normal;font-variant-caps:normal;font-variant-numeric:normal;font-variant-east-asian:normal"
     xml:space="preserve"
     id="text24"><tspan
       x="98.293945"
       y="143.83748"
       font-family="Lato"
       font-size="30.638px"
       stroke-width="1.1489"
       style="font-variant-ligatures:normal;font-variant-caps:normal;font-variant-numeric:normal;font-variant-east-asian:normal"
       id="tspan22">C</tspan></text><g
     stroke="#000"
     id="g50"><path
       transform="matrix(0 1.2199 -1.3607 0 939.42 197.87)"
       d="m311.3 71.323-424.98-0.016105"
       fill="none"
       stroke-width=".77617"
       id="path26" /><g
       transform="translate(20.331 8.3682)"
       stroke-linecap="round"
       stroke-linejoin="round"
       id="g36"><path
         transform="matrix(0,1.361,-1.3607,0,919.09,65.841)"
         d="m-8.5008 69.021v4.6436l-5.9083-2.3121 5.9083-2.3509"
         stroke-width=".73484"
         id="path28" /><path
         transform="matrix(0 1.361 -1.3607 0 919.09 483.55)"
         d="m61.493 73.645v-4.6436l5.9083 2.3121-5.9083 2.3509"
         stroke-width=".73484"
         id="path30" /><path
         transform="matrix(-.87038 0 0 .87038 923.48 -17.976)"
         d="m141.48 72.665h-31.468"
         stroke-width="1.1489"
         id="path32" /><path
         transform="matrix(-.87038 0 0 .87038 923.48 513.04)"
         d="m141.48 72.665h-31.468"
         stroke-width="1.1489"
         id="path34" /></g><path
       transform="matrix(-1.3606 0 0 -1.361 66.871 123.47)"
       d="m43.643 71.307-260.4 0.02609"
       fill="none"
       stroke-width=".73486"
       id="path38" /><g
       transform="translate(.0021081 7.4477)"
       stroke-linecap="round"
       stroke-linejoin="round"
       id="g48"><path
         transform="matrix(-1.3606,0,0,-1.361,21.038,116.02)"
         d="m-247.65 69.021v4.6436l-5.9083-2.3121 5.9083-2.3509"
         stroke-width=".73486"
         id="path40" /><path
         transform="matrix(-1.3606,0,0,-1.361,66.869,116.02)"
         d="m42.421 73.645v-4.6436l5.9083 2.3121-5.9083 2.3509"
         stroke-width=".73486"
         id="path42" /><path
         transform="matrix(.87038 0 0 .87038 -110.11 -24.662)"
         d="m127.08 43.6 0.11828 72.339"
         stroke-width="1.1489"
         id="path44" /><path
         transform="matrix(.87038 0 0 .87038 256.39 -24.662)"
         d="m127.08 43.6 0.11828 72.339"
         stroke-width="1.1489"
         id="path46" /></g></g><text
     transform="matrix(.8704 0 0 .87035 -131.5 -17.585)"
     x="352.77798"
     y="42.779858"
     fill="#000000"
     font-family="Lato"
     font-size="30.638px"
     letter-spacing="0px"
     stroke-width="1.1489"
     word-spacing="0px"
     style="font-variant-caps:normal;font-variant-east-asian:normal;font-variant-ligatures:normal;font-variant-numeric:normal;line-height:125%"
     xml:space="preserve"
     id="text54"><tspan
       x="352.77798"
       y="42.779858"
       font-family="Lato"
       font-size="30.638px"
       stroke-width="1.1489"
       style="font-variant-caps:normal;font-variant-east-asian:normal;font-variant-ligatures:normal;font-variant-numeric:normal"
       id="tspan52">A</tspan></text><text
     transform="matrix(.8704 0 0 .87035 339.78 212.21)"
     x="98.293945"
     y="143.83748"
     fill="#000000"
     font-family="Lato"
     font-size="30.638px"
     letter-spacing="0px"
     stroke-width="1.1489"
     word-spacing="0px"
     style="font-variant-caps:normal;font-variant-east-asian:normal;font-variant-ligatures:normal;font-variant-numeric:normal;line-height:125%"
     xml:space="preserve"
     id="text58"><tspan
       x="98.293945"
       y="143.83748"
       font-family="Lato"
       font-size="30.638px"
       stroke-width="1.1489"
       style="font-variant-caps:normal;font-variant-east-asian:normal;font-variant-ligatures:normal;font-variant-numeric:normal"
       id="tspan56">B</tspan></text><g
     stroke="#000"
     id="g78"><g
       transform="translate(16.479 11.445)"
       id="g72"><path
         transform="matrix(0,1.2199,1.3607,0,334.19,186.44)"
         d="m255.43 71.309-369.11-0.001402"
         stroke-width=".77617"
         id="path60" /><g
         stroke-linecap="round"
         stroke-linejoin="round"
         id="g70"><path
           transform="matrix(0,1.361,1.3607,0,333.94,62.78)"
           d="m-8.5008 69.021v4.6436l-5.9083-2.3121 5.9083-2.3509"
           stroke-width=".73484"
           id="path62" /><path
           transform="matrix(0 1.361 1.3607 0 334.17 411.79)"
           d="m61.493 73.645v-4.6436l5.9083 2.3121-5.9083 2.3509"
           stroke-width=".73484"
           id="path64" /><path
           transform="matrix(.87038 0 0 .87038 329.55 -21.037)"
           d="m141.48 72.665h-31.468"
           stroke-width="1.1489"
           id="path66" /><path
           transform="matrix(.87038 0 0 .87038 329.78 328.66)"
           d="m137.3 202.05h-27.29"
           stroke-width="1.1489"
           id="path68" /></g></g><path
       transform="matrix(.99766 0 0 .99764 .96418 11.916)"
       d="m31.352 124.85-1.2598 1.3238-1.3816-1.1952-0.80212 0.88385 1.3228 1.2593-1.1949 1.3826 0.88314 0.8021 1.2615-1.3235 1.381 1.1956 0.8461-0.99485-1.3671-1.1487 1.1952-1.3822zm0.43973 3.7605c-0.84118 0.91921-2.2683 0.98246-3.1875 0.14127-0.91921-0.84117-0.98246-2.2682-0.14128-3.1874 0.84117-0.91921 2.2683-0.98246 3.1875-0.14128 0.91921 0.84118 0.98246 2.2683 0.14128 3.1875zm1.5031 1.307c-1.5702 1.7158-4.234 1.8338-5.9498 0.26369-1.7158-1.5702-1.8338-4.234-0.26369-5.9498 1.5702-1.7158 4.234-1.8338 5.9498-0.26369 1.7158 1.5702 1.8338 4.234 0.26369 5.9498zm136.25-5.0568-1.2598 1.3238-1.3816-1.1952-0.80212 0.88386 1.3228 1.2593-1.1949 1.3826 0.88314 0.8021 1.2614-1.3235 1.381 1.1956 0.8461-0.99486-1.3671-1.1487 1.1952-1.3822zm0.43972 3.7605c-0.84117 0.91921-2.2682 0.98246-3.1874 0.14128-0.91921-0.84118-0.98246-2.2683-0.14127-3.1874 0.84116-0.91916 2.2682-0.98242 3.1874-0.14129 0.91921 0.84117 0.98246 2.2682 0.14127 3.1874zm1.5031 1.307c-1.5702 1.7158-4.234 1.8338-5.9498 0.26369-1.7158-1.5702-1.8338-4.234-0.26369-5.9498 1.5702-1.7158 4.234-1.8338 5.9498-0.26369 1.7158 1.5702 1.8338 4.234 0.26369 5.9498zm29.15-5.0776-1.2598 1.3238-1.3816-1.1952-0.80212 0.88385 1.3228 1.2593-1.1949 1.3826 0.88314 0.8021 1.2614-1.3235 1.381 1.1956 0.8461-0.99485-1.3671-1.1487 1.1952-1.3822zm0.43972 3.7605c-0.84118 0.9192-2.2682 0.98245-3.1874 0.14126-0.91921-0.84117-0.98246-2.2682-0.14128-3.1874 0.84118-0.91921 2.2683-0.98246 3.1875-0.14127 0.91921 0.84117 0.98246 2.2682 0.14127 3.1874zm1.5031 1.307c-1.5702 1.7158-4.234 1.8338-5.9498 0.26369-1.7158-1.5702-1.8338-4.234-0.26369-5.9498 1.5702-1.7158 4.234-1.8338 5.9498-0.26369 1.7158 1.5702 1.8338 4.234 0.26369 5.9498zm134.44-5.2592-0.0356 1.827-1.826 0.051 5e-3 1.1936 1.826 0.036 0.0519 1.8266 1.193-4e-3 0.0371-1.8281 1.826-0.0503-0.0475-1.3052-1.784 0.0755-0.0514-1.8266zm2.8632 2.4774c1e-5 1.246-1.0101 2.2561-2.2561 2.2561-1.246 0-2.2561-1.0101-2.2561-2.2561-1e-5 -1.246 1.0101-2.2561 2.2561-2.2561 1.246-1e-5 2.2561 1.0101 2.2561 2.2561zm1.9912-0.0505c-1e-5 2.3258-1.8855 4.2113-4.2113 4.2113-2.3258-1e-5 -4.2113-1.8855-4.2113-4.2113 1e-5 -2.3258 1.8855-4.2113 4.2113-4.2113 2.3258 1e-5 4.2113 1.8855 4.2113 4.2113zm-309.81-84.715 5.0708 1e-6m-6.7556 2.9267 0.01783-1.0952 8.4058 0.0085 0.0161 1.0871m-3.2e-5 -0.82441c2.8e-5 -1.0075-0.69927-1.8807-1.6841-2.103m-5.0708 0c-0.98486 0.22219-1.6669 0.82414-1.6669 1.8316m300.22-1.887 5.0708 1e-6m-6.7556 2.9267 0.0178-1.0952 8.4058 0.0085 0.0161 1.0871m-4e-5 -0.82441c3e-5 -1.0075-0.69926-1.8807-1.6841-2.103m-5.0708 0c-0.98486 0.22219-1.6669 0.82414-1.6669 1.8316m-327.69 54.44-3.95e-5 -16.413m0 0-7.4e-6 -0.08146m8.89-3.5e-5 7e-6 0.08146m1e-6 5.1e-5 3.9e-5 16.413m356.24-16.494 2e-5 16.083m0 0 5e-5 0.4112m-8.89 3.5e-5 5e-5 -0.41119m0 0-2e-5 -16.083m-2.8574 17.129 1e-5 -1.8303m0 0-2e-5 -15.933m1.905 3e-6 2e-5 15.933m0 0v1.8303m-345.44-1e-3 -9e-6 -0.02258m-1e-6 -5.1e-5 -9.5e-5 -17.741m1.905 3e-6 9.6e-5 17.741m0 0 9e-6 0.02258m0.31749-10.457 3.81 7e-6m331.46 16.801 1e-5 3.8065m-5e-5 -38.065v3.8065m-329.57-1.1e-5 -5e-6 -3.8065m5e-5 38.065-5e-6 -3.8065m335.28-17.655-3.81-7e-6m0 4.8574 3.81 7e-6m0-0.85316-3.81-6e-6m-337.18 0.85302 3.81 6e-6m333.38-4.0038 3.81 6e-6m-337.18-0.85289-3.81-6e-6m3.81 4.0043-3.81-7e-6m7.226 29.243h0.07618m-0.07615-9.5368-0.20564 5e-3m0 0-0.20514 0.0147m0 0-0.20412 0.0245m0 0-0.20257 0.0341m0 0-0.20054 0.0438m0 0-0.19798 0.0533m0 0-0.19496 0.0627m0 0-0.19141 0.0718m0 0-0.18741 0.081m0 0-0.18296 0.0897m0 0-0.17801 0.0983m0 0-0.17264 0.10671m0 0-0.16682 0.11483m0 0-0.1606 0.12257m0 0-0.15399 0.1301m0 0-0.14697 0.13728m0 0-0.13959 0.1441m0 0-0.13188 0.15059m0 0-0.12382 0.15668m0 0-0.11548 0.16237m0 0-0.10684 0.16768m0 0-0.09794 0.17256m0 0-0.08863 0.17701m0 0-0.07933 0.18104m0 0-0.06977 0.18456m0 0-0.05996 0.18766m0 0-0.04999 0.1903m0 0-0.04003 0.19244m0 0-0.03008 0.19406m0 0-0.0197 0.19528m0 0-0.0089 0.19598m0 0-9.16e-4 0.0816m4.1142 10.956v-5.3434m-3.2e-5 -9.5364-3.4e-5 -0.34618m-1.1e-5 9.8824-3.2e-5 -9.5364m326.54 7.2674 4.1147-1e-5m-4.1147 1e-5 4e-5 7.613m-3e-5 -15.226-4e-5 7.613m-322.65-69.786 318.77 9.4e-5m-40.767-7.169c-2.1849 1.7e-5 -4.1483 1.3329-4.953 3.3625m26.67-3.1e-5c-0.80465-2.0295-2.7681-3.3624-4.953-3.3624m0 0-16.764-2e-6m44.577 63.632h2.54m-2.54-30.452 2.54 4e-6m-8e-5 30.452 1e-5 -0.88804m0 0 4e-5 -29.564m-331.47 30.452h2.54m-2.54-30.452 2.54 4e-6m-2.54-4e-6 -3.3e-5 21.998m0 0-5e-6 8.4544m-17.462-7.613c4.21e-6 0.35038 0.2843 0.63442 0.635 0.63442m-6.66e-5 -16.495c-0.35069 2e-6 -0.63499 0.28404-0.63499 0.63442m16.51 2.5376 0.95246-1e-6m-7.9375 13.323-8.89 3.5e-5m8.89-3.5e-5c0.35069-1e-6 0.63499-0.28404 0.63499-0.63442m-0.63502-15.86-8.89 3.5e-5m9.5245 0.63435c-4e-6 -0.35038-0.2843-0.63442-0.635-0.63442m6.9846 13.323 0.95246-1e-6m-17.463-12.689 6.11e-6 0.07524m0 0-1.238e-5 15.151m349.89-2.5371-0.95246 1e-6m7.3024 2.5376c0 0.35038 0.2843 0.63442 0.635 0.63442m8.89-3.5e-5c0.35069-2e-6 0.63499-0.28404 0.63499-0.63442m-9.5247 0.63446 8.89-3.5e-5m-8.8899-16.495c-0.3507 2e-6 -0.63499 0.28404-0.63499 0.63442m10.16 2.4e-5c-1e-5 -0.35038-0.28431-0.63442-0.635-0.63442m-8.89 3.5e-5 8.89-3.5e-5m-15.875 3.1721-0.95246 1e-5m17.463 12.689-3e-5 -0.37958m0 0 1e-5 -14.846m-10.16-0.9516c0-0.17519-0.14215-0.31721-0.3175-0.31721m-2.2225 17.446c-1e-5 0.17519 0.14214 0.31721 0.31749 0.31721m4e-5 -17.764 1.905 3e-6m-1.905 17.764 1.905 3e-6m-1.9049-17.764c-0.17535-2e-6 -0.31751 0.14202-0.31751 0.31721m2.2224 17.447c0.17535-3e-6 0.31749-0.14202 0.31749-0.31721m0 0v-1.7649m0 0-9e-5 -15.364m-345.75 17.447 1.905 3e-6m-1.9049-17.764c-0.17535 3e-6 -0.3175 0.14202-0.3175 0.31721m0.3175-0.31721 1.905 3e-6m-2.2225 17.446c0 0.17519 0.14215 0.31721 0.3175 0.31721m1.905 3e-6c0.17535 1e-6 0.3175-0.14202 0.3175-0.31721m-8.5e-5 -17.129c1e-6 -0.17519-0.14215-0.31721-0.3175-0.31721m-2.2225 0.31721 2.5e-5 17.107m0 0 1.27e-4 0.02184m336.23-27.597 1.5875-8e-6m-4.1276-1e-5h4e-5m-321.31 2.25e-4 4.5e-5 1e-6m-4.1276-9e-6 1.5875-9e-6m-7.3024 21.461 5.1e-5 16.604m337.19-16.603-4e-5 16.604m0-21.461v0.85316m3.81 6e-6v1.5755m-335.28 19.033-1.905-1e-5m337.18-38.069-3.81-6e-6m3.8096 38.065 4e-5 -16.604m-341-0.85355-4e-6 0.85316m3.81-0.85312 2e-6 -1.5755m3.4924 19.033-1.5875 1e-5m4.1276 1e-5h-3.6e-5m321.31-2.3e-4h-4e-5m4.1276 1e-5 -1.5875 1e-5m3.4924-38.065 5e-5 16.604m3.81 0.85316 1e-5 -0.85316m-3.8099 21.461h-1.905m-335.28-38.066-3.8e-5 16.604m337.18 21.461 3.81 1e-5m-341-6e-4 3.81 1e-5m333.37-20.609-1e-5 1.5755m-337.18 6.8e-5 -2e-6 1.5755m337.18-1.5754v1.5755m-333.37-3.1508-5e-6 -0.85316m331.47-16.604 1.905 3e-6m-333.37 21.462 4e-6 -0.85316m-1.4e-5 -20.608 1.905 3e-6m335.27 19.032-1e-5 1.5755m-337.19 17.456-5e-5 -16.604m337.18-4.8575-5e-5 -16.604m-3.81 20.608v0.85316m-333.37-4.8567 3.8e-5 -16.604m337.18 19.032-3.81-6e-6m-337.18-2.4291 5e-6 0.85316m3.81 1.5756 2e-6 -1.5755m-3.6e-5 -17.457-3.81-6e-6m341 21.461v-0.85316m-340.99-1.5745 3.81 7e-6m-3.81-1.5756-2e-6 1.5755m7.3025 36.162h-0.07618m-4.1148-4.111c-6e-6 2.2705 1.8423 4.111 4.1148 4.111m2.6162-3.8066h-4.5e-5m-2.5401-11.419h-0.07618m0 0c-2.2725 0-4.1148 1.8406-4.1148 4.111m6.731-0.30451h-3.6e-5m-6.731 7.3085 2.2e-5 -6.8448m0 0 3e-5 -0.15924m328.04-0.30383h4e-5m2.6162 11.42c2.2725 0 4.1148-1.8406 4.1148-4.111m-6.731 0.30451h4e-5m6.731-7.3085c0-2.2705-1.8423-4.111-4.1148-4.111m0 0h-0.0762m3e-5 15.226h0.0762m4.1148-11.115v3.502m0 0 1e-5 3.502m-328.04-40.932 3.7e-5 -6.3e-5m-3.7e-5 1.4333 4.5e-5 1e-6m-4.7e-5 3.3731 3.7e-5 -1e-6m-4.4e-5 10.892-1.06e-4 -0.02198m2.3e-5 -8.2841-5.3e-5 -0.03363m-5e-6 -2.6e-5 -5.1e-5 -0.03364m7.3e-5 11.661h-3.6e-5m4.7e-5 -16.68h-3.6e-5m-4.6e-5 13.414-1.08e-4 -0.02197m-3e-6 1.6608h3.6e-5m-1.2e-5 -16.805 1.5e-5 -0.01141m-8e-6 -2.93e-4 1.6e-5 -0.01142m321.31-0.53102 4e-5 6.3e-5m-4e-5 17.764-4e-5 6.4e-5m0-6.2917-4e-5 -1e-6m4e-5 5.1016-2e-5 0.01713m3e-5 -15.401-2e-5 0.01713m-3e-5 7.6406-3e-5 0.03412m-4e-5 5.128 4e-5 -1e-6m-6e-5 -12.837-2e-5 0.01712m-7e-5 15.367-2e-5 0.01712m1e-5 -1.2952-5e-5 -2e-6m9e-5 -15.384-3e-5 1e-6m-1e-5 8.987-1e-5 0.03401m2e-5 -10.29-4e-5 1e-6m-300.35-19.562 16.42-2.4e-5m4.4901 1.8582 0.68012 0.6795m257.81-2.5366-16.42 2.3e-5m-242.07 1.8582c-1.1908-1.1898-2.806-1.8582-4.4901-1.8582m267.16 1.5728c-1.158-1.0139-2.6454-1.5729-4.1851-1.5729m-20.91 1.8581-0.68012 0.67951m5.1703-2.5377c-1.6841-4e-6 -3.2993 0.66841-4.4901 1.8582m-258.49-1.8576c-1.5398-4e-6 -3.0271 0.55898-4.1851 1.5729m168.02 55.145c-1e-5 1.4015 1.1372 2.5377 2.54 2.5377m136.53 9.8971v3.1721m-304.8-76.13 125.73-7.78e-4m176.53-7.6131-1.1e-4 79.937m-321.31 2.3e-4 -1.905 1e-5m1.905 0 6e-6 -0.63442m136.52-42.247c2e-5 -1.4059-1.144-2.5439-2.5512-2.5377m-136.51 44.785 2.54 1e-5m15.875-11.166-5.2e-5 -18.878m307.98 31.312c-1e-5 -0.35038-0.28431-0.63441-0.635-0.63441m-8.8215 16.495c1.4116 0 2.783-0.46996 3.8975-1.3356m-311.37 1.3361 307.48 8.7e-4m9.4564-17.129 4e-5 -79.303m-323.85 79.3 3.9e-5 -79.303m318.29 95.095c3.5072-2.7243 5.5587-6.9141 5.5588-11.353m-21.59-69.786c4.2334-1.5e-5 4.2333-6.3442-3e-5 -6.3442m-299.24 87.485c1.1145 0.86566 2.4859 1.3356 3.8975 1.3356m-6.9164-16.495 1.1e-4 -79.937m323.85-5.45e-4 -2.54-4e-6m-1.1e-4 79.937 1.905-1e-5m-178.43-65.979-125.73 7.77e-4m-21.59 69.786c6.5e-5 4.4386 2.0516 8.6285 5.5589 11.353m320.83-14.524v-1.2688m-322.58-83.108c-2.1042 3.3e-5 -3.81 1.7043-3.81 3.8066m18.415 68.137c-1.1e-5 1.4015 1.1372 2.5377 2.54 2.5377m-20.32 9.2624c-0.35069 0-0.63499 0.28404-0.63499 0.63442m1.79e-4 -80.571-3.9e-5 79.303m304.8-65.342-125.73 7.77e-4m-42.556 20.56c-39.008 0.17133-77.898 4.2777-116.08 12.257m126.88-32.818c4.2334-1.5e-5 4.2333-6.3442-3e-5 -6.3442m160.65 41.646c-3e-5 -1.2013-0.8431-2.238-2.02-2.4839m-285.52-2.78e-4c-1.1769 0.24594-2.02 1.2826-2.02 2.4839m305.43 30.043h2.54m-2.54 0-1e-5 0.63441m-15.874-30.678 5e-5 18.878m14.605-71.943v3.8065m-183.51 37.056 4e-5 31.081m166.37 2.5368-115.57 3.8e-4m-186.05-71.943c-0.7014 1.2e-5 -1.27 0.56809-1.27 1.2689m187.34 34.519c-1.4071-0.0062-2.5511 1.1318-2.5512 2.5376m136.52-37.056c-2e-5 -0.70076-0.56863-1.2688-1.27-1.2688m3.81 1.2688c-1e-5 -2.1023-1.7058-3.8065-3.81-3.8065m-17.145 74.481c1.4028-2e-5 2.54-1.1362 2.54-2.5377m-286.39-60.524c-4.2334 1.5e-5 -4.2333 6.3442 2.3e-5 6.3442m302.26-13.957-4e-5 79.303m-187.33-8.6284-115.57 3.8e-4m-20.955 9.8967-5e-6 -1.2688m305.95-32.528c-38.182-7.979-77.072-12.086-116.08-12.257m-189.87 46.054-5e-6 3.1721m179.07-76.127 125.73-7.77e-4m-125.73 7.77e-4c-4.2334 1.5e-5 -4.2334 6.3442 2e-5 6.3442m-176.53-13.956-2.54-4e-6m322.58-1.23e-4 1.2699-3e-6m-320.04-1.97e-4 -1.2699 3e-6m320.03-3.8071-318.77-9.5e-5m183.51 71.943-4e-5 -31.081m-183.52-37.056-5e-6 -3.8065m300.46 59.82c-3e-3 -0.29327-0.21467-0.54281-0.50378-0.59371m-178.68-10.751 0.26039 26.005m158.05-18.574-0.19122-0.0286m-189.24-5.9702-0.0715 0.0063m108.05-2.0411c-0.34531-0.01651-0.63525 0.25688-0.63871 0.60226m-86.374 0.54998 0.25475 25.455m19.402-27.029c-0.32572 0.0115-0.58477 0.27695-0.58803 0.60257m-79.969 6.9675 0.19486 19.459m50.552-24.778 0.24804 24.777m137.56-23.637c-0.35614-0.03504-0.66574 0.2425-0.66932 0.60002m-51.03 23.037 0.26447-26.427m71.747 5.047c-0.36123-0.04476-0.68096 0.23467-0.6846 0.59832m31.367 3.8007-0.22302-0.0363m-40.614-5.5562c-0.35871-0.03986-0.67334 0.23864-0.67696 0.59921m-218.33 5.5518 0.16432 16.422m239.84-19.437c-3e-3 -0.30208-0.22722-0.55629-0.52678-0.59732m-19.819-1.9275 0.21984 21.962m-209.73-18.006 0.18027 18.006m217.94-4e-4 0.208-20.782m-168.32-3.7845c-0.31297 0.02685-0.55428 0.2869-0.55742 0.60072m139.72 0.0011c-3e-3 -0.31381-0.24444-0.57386-0.55741-0.60072m-199.46 7.5499-0.22302 0.0363m240.24-3.0757c-0.3637-0.04974-0.68857 0.2306-0.69224 0.59734m-69.804-6.5443c-3e-3 -0.32266-0.25778-0.5868-0.58037-0.60225m-68.24 26.606 0.2645-26.426m98.429 1.8545c-0.3535-0.0303-0.65811 0.24626-0.66166 0.60072m-178.59 3.9378c-0.29956 0.04103-0.52375 0.29525-0.52677 0.59732m51.418-5.9375c-0.31621 0.02312-0.56189 0.28456-0.56507 0.60132m108.64-1.2814-0.0418-0.0025m71.809 8.0795c-3e-3 -0.29914-0.223-0.55182-0.51911-0.59621m-19.829-2.1911 0.20783 20.765m38.869-5e-5 0.14717-14.706m-69.737-9.2595 0.23994 23.965m-140.2-7.3e-4 0.23984-23.966m-39.997 3.9088-0.16206 0.0222m147.87 20.034 0.26022-26.005m-126.98 4.0314c-0.0036-0.36057-0.31826-0.63908-0.67696-0.59921m-41.514 22.574 0.16408-16.386m21.731-3.0733c-0.0037-0.36673-0.32854-0.64707-0.69224-0.59733m169.55-4.7167c-3e-3 -0.31675-0.24886-0.57819-0.56507-0.60131m-19.768-0.62876 0.26026 26.004m-129.16-22.573-0.1115 0.01269m179.86 0.59935c-3e-3 -0.30794-0.23576-0.56512-0.5421-0.59921m-169.14-1.0675c-0.30967 0.03051-0.54664 0.28914-0.54975 0.60002m220.6 7.7742-0.2575-0.0453m-81.185-10.075-0.0554-0.0038m-117.49 0.60091c-4e-3 -0.35142-0.3032-0.62695-0.65402-0.60132m9.2915 25.379 0.25475-25.453m-61.215 25.453 0.19462-19.437m-8.7643 1.4308c-0.0037-0.36983-0.33378-0.65104-0.69988-0.59624m169.54-6.8503c-3e-3 -0.3197-0.25329-0.58251-0.57272-0.60184m-147.97 5.2733c-0.0036-0.36365-0.32338-0.64308-0.68461-0.59832m128.29-5.6495c-0.3425-0.01208-0.62766 0.26019-0.63109 0.60257m20.956 0.37001c-0.3481-0.02104-0.64289 0.25343-0.64638 0.60184m-86.375-0.54988c-3e-3 -0.34539-0.29341-0.61878-0.63873-0.60225m-39.971 3.5694 0.23056 23.038m9.92-23.972 0.23993 23.972m-51.871-18.574c-0.29611 0.0444-0.51612 0.29706-0.51911 0.5962m230.74-2.0569-0.16205-0.02217m-81.248-6.9723-0.0222-7.43e-4m71.787 6.2649c-3e-3 -0.305-0.23147-0.56071-0.53443-0.59831m-11.188 21.363 0.21996-21.974m52.204 7.3133 0.14678 14.661m-32.25-4e-5 0.19474-19.459m10.845 0.85673c-0.36611-0.0548-0.69619 0.2264-0.69989 0.59624m-260.53 18.007 0.14675-14.661m42.056-6.1211 0.20802 20.781m-0.89251-21.38-0.13549 0.01675m178.32 21.363 0.2306-23.037m-178.56 1.6739c-0.30297 0.03759-0.53138 0.29331-0.53443 0.59831m158.54 20.765 0.24803-24.778m21.612 1.749 0.23047 23.029m-108.21-26.427c-3e-3 -0.34238-0.28859-0.61466-0.63109-0.60257m-61.073 4.4684c-0.30634 0.03408-0.53901 0.29127-0.5421 0.59921m149.27-3.4169c-0.35083-0.02563-0.6505 0.2499-0.65402 0.60133m-179.32 24.778 0.17997-17.978m-19.849 2.723c-0.28911 0.0509-0.50085 0.30043-0.50378 0.59371m271.97-1.7249 0.16396 16.386m-191-1.4e-4 0.24785-24.773m88.888-1.6523c-3e-3 -0.32562-0.26231-0.59107-0.58803-0.60257m31.085 2.2553 0.2479 24.774m20.089-23.029c-3e-3 -0.31088-0.24007-0.56952-0.54975-0.60002m51.416 7.2427c-3e-3 -0.2962-0.21882-0.54732-0.51144-0.59501m-169.13-9.6261-0.0308 0.0013m-29.79 2.6343c-4e-3 -0.35446-0.30816-0.63102-0.66167-0.60072m-21.189 24.573 0.21984-21.962m179.86-0.59867-0.11151-0.012652m-128.33-4.0326c-0.3226 0.01544-0.57716 0.27959-0.58039 0.60225m-39.36 2.9658c-4e-3 -0.35752-0.31318-0.63507-0.66931-0.60003m118.17-2.969-0.0307-0.0013m-87.013 1.1519c-3e-3 -0.3484-0.29827-0.62287-0.64636-0.60184m169.63 8.0794 0.18002 17.977m19.412-15.3c-0.37074-0.0651-0.71138 0.21767-0.71515 0.59374m-60.117-8.9224-0.0902-0.0089m31.155 4.2004 0.19454 19.437m18.549-2e-5 0.16442-16.422m-259.84-0.5594c-0.29263 0.0477-0.50848 0.2988-0.51145 0.59501m200.2-8.1797-0.0715-0.0063m-21.221 24.573 0.25482-25.455m-177.72 9.0328c-0.0037-0.37294-0.33907-0.65496-0.70752-0.59503m-9.4354 2.311 0.14724 14.706m-0.86235-15.3-0.25749 0.0453m60.309 15.255 0.23043-23.028m-59.567 8.3226c-0.0038-0.37607-0.34442-0.65888-0.71516-0.59374m100.69 15.3 0.26035-26.004m68.555-0.42274 0.26453 26.426m89.67-3.2e-4 0.18024-18.007m-168.26-8.0479c-0.31943 0.01932-0.56952 0.28213-0.57272 0.60184m179.68 8.435c-0.36845-0.0599-0.70379 0.22209-0.70752 0.59504m-157.41-10.005 0.26448 26.427m-72.89-1.1e-4 0.2078-20.765m168.71 20.766 0.23994-23.972m-157.44 1.9971 0.21998 21.974m188.49-21.363-0.13549-0.01675m-50.177-4.0729 0.25483 25.453m-169.79-18.603-0.1912 0.0287m71.29-7.4829-0.0418 0.0025m20.367-0.97514-0.0223 7.81e-4m-30.464 1.65-0.0554 0.0038m-20.263 1.7376-0.0902 0.0089"
       fill="none"
       stroke-linecap="round"
       stroke-linejoin="round"
       stroke-width="1.0024"
       id="path74" /><path
       transform="matrix(.99736 0 0 .99736 18.09 11.898)"
       d="m470.31 42.218 5.0707-4e-6m-6.7555 2.9267 0.0178-1.0952 8.4058 0.0085 0.016 1.0871m-4e-5 -0.82441c0-1.0075-0.69927-1.8807-1.684-2.1029m-5.0708-1e-6c-0.98486 0.22219-1.6841 1.0954-1.6841 2.1029m139.77-1.9789 5.0708 1e-5m-6.7556 2.9267 0.0179-1.0952 8.4057 0.0085 0.0161 1.0871m-4e-5 -0.82441c1e-5 -1.0075-0.69926-1.8808-1.6841-2.103m-5.0708 0c-0.98486 0.22219-1.6841 1.0954-1.6841 2.1029m32.767-2.1028h5.0708m-6.7556 2.9267 0.0178-1.0952 8.4058 0.0085 0.0161 1.0871m-4e-5 -0.82441c1e-5 -1.0075-0.69926-1.8808-1.6841-2.103m-5.0708-1e-5c-0.98486 0.22219-1.6841 1.0954-1.6841 2.1029m133.01 320.13-1.0542 1.5333-1.5812-0.97992-0.6647 1.0175 1.5324 1.0538-0.97957 1.582 1.0168 0.66473 1.056-1.5333 1.5808 0.98049 0.69107-1.1362-1.5591-0.93549 0.97997-1.5816zm3.5597 2.4561c0 2.4423-1.9801 4.4221-4.4226 4.4221-2.4425 0-4.4225-1.9798-4.4226-4.422 0-2.4422 1.98-4.4221 4.4225-4.4221 2.4425-6e-5 4.4226 1.9798 4.4226 4.422zm-290.51-2.4558-1.0543 1.5333-1.5811-0.97991-0.6647 1.0175 1.5324 1.0538-0.97957 1.582 1.0168 0.66473 1.056-1.5333 1.5808 0.98047 0.69115-1.1362-1.5592-0.9355 0.97997-1.5816zm3.5596 2.4561c1e-5 2.4422-1.98 4.4221-4.4225 4.4221-2.4425 5e-5 -4.4226-1.9798-4.4226-4.4221 0-2.4423 1.9801-4.4221 4.4226-4.4221 2.4425 0 4.4225 1.9798 4.4225 4.422zm283.4 35.632-1.0543 1.5333-1.5811-0.97991-0.6647 1.0175 1.5324 1.0538-0.97957 1.582 1.0168 0.66473 1.056-1.5333 1.5808 0.98048 0.69115-1.1362-1.5592-0.9355 0.97997-1.5816zm3.5596 2.4561c0 2.4423-1.9801 4.4221-4.4226 4.4221-2.4425 0-4.4225-1.9798-4.4226-4.422 0-2.4423 1.9801-4.4221 4.4226-4.4221 2.4425 0 4.4225 1.9798 4.4225 4.422zm-60.951-2.456-1.0542 1.5333-1.5812-0.97992-0.66471 1.0175 1.5324 1.0538-0.97958 1.582 1.0169 0.66473 1.056-1.5333 1.5808 0.98047 0.69115-1.1362-1.5591-0.93549 0.97997-1.5816zm3.5597 2.4561c0 2.4423-1.9801 4.4221-4.4226 4.4221-2.4425 5e-5 -4.4226-1.9798-4.4226-4.4221 0-2.4423 1.9801-4.4221 4.4226-4.4221 2.4425-5e-5 4.4226 1.9798 4.4226 4.4221zm-60.952-2.4562-1.0542 1.5333-1.5812-0.97992-0.6647 1.0175 1.5324 1.0538-0.97957 1.582 1.0168 0.66473 1.0561-1.5333 1.5808 0.98048 0.69107-1.1362-1.5591-0.93549 0.97997-1.5816zm3.5597 2.4561c1e-5 2.4423-1.9801 4.4221-4.4226 4.4221-2.4425 0-4.4225-1.9798-4.4225-4.422-1e-5 -2.4422 1.98-4.4221 4.4225-4.4221 2.4425-5e-5 4.4226 1.9798 4.4226 4.4221zm-60.951-2.456-1.0543 1.5333-1.5811-0.9799-0.6647 1.0175 1.5324 1.0538-0.97966 1.582 1.0169 0.66475 1.056-1.5333 1.5808 0.98049 0.69115-1.1362-1.5592-0.9355 0.97997-1.5816zm3.5596 2.4561c0 2.4423-1.9801 4.4221-4.4226 4.4221-2.4425 0-4.4225-1.9798-4.4225-4.422-1e-5 -2.4423 1.9801-4.4221 4.4226-4.4221 2.4425-1e-5 4.4225 1.9798 4.4225 4.422zm-60.951-2.456-1.0543 1.5333-1.5811-0.97991-0.66471 1.0175 1.5324 1.0538-0.97957 1.582 1.0168 0.66473 1.056-1.5333 1.5808 0.98047 0.69116-1.1362-1.5592-0.9355 0.97997-1.5816zm3.5596 2.4561c0 2.4422-1.98 4.4221-4.4225 4.4221-2.4425 6e-5 -4.4226-1.9798-4.4226-4.422 0-2.4423 1.9801-4.4221 4.4226-4.4221 2.4425 0 4.4225 1.9798 4.4226 4.422zm-60.951-2.456-1.0542 1.5333-1.5812-0.97992-0.6647 1.0175 1.5324 1.0538-0.97957 1.582 1.0168 0.66472 1.0561-1.5332 1.5808 0.98048 0.69106-1.1362-1.5591-0.93549 0.97997-1.5816zm3.5597 2.4561c0 2.4423-1.9801 4.4221-4.4226 4.4221-2.4425 0-4.4225-1.9798-4.4226-4.422 0-2.4422 1.98-4.4221 4.4225-4.4221 2.4425-5e-5 4.4226 1.9798 4.4226 4.4221zm283.4-78.654-1.0543 1.5333-1.5811-0.97991-0.66471 1.0175 1.5324 1.0538-0.97957 1.582 1.0168 0.66473 1.056-1.5333 1.5808 0.98048 0.69116-1.1362-1.5592-0.9355 0.97997-1.5816zm3.5596 2.4561c0 2.4422-1.98 4.4221-4.4225 4.4221-2.4425 6e-5 -4.4226-1.9798-4.4226-4.422 0-2.4423 1.9801-4.4221 4.4226-4.4221 2.4425-1e-5 4.4225 1.9798 4.4226 4.422zm-60.951-2.456-1.0542 1.5333-1.5812-0.97992-0.6647 1.0175 1.5324 1.0538-0.97966 1.582 1.0168 0.66473 1.0561-1.5332 1.5808 0.98049 0.69106-1.1362-1.5591-0.93549 0.97997-1.5816zm3.5597 2.4561c0 2.4423-1.9801 4.4221-4.4226 4.4221-2.4425 0-4.4225-1.9798-4.4226-4.422 0-2.4423 1.9801-4.4221 4.4226-4.4221 2.4425 0 4.4225 1.9798 4.4225 4.422zm-60.952-2.4562-1.0542 1.5333-1.5811-0.97991-0.6647 1.0175 1.5324 1.0538-0.97966 1.582 1.017 0.66473 1.056-1.5333 1.5808 0.98048 0.69107-1.1362-1.5591-0.93549 0.97997-1.5816zm3.5597 2.4561c0 2.4423-1.9801 4.4221-4.4226 4.4221-2.4425 0-4.4225-1.9798-4.4225-4.422-1e-5 -2.4423 1.9801-4.4221 4.4226-4.4221 2.4425 0 4.4225 1.9798 4.4225 4.422zm-60.951-2.456-1.0543 1.5333-1.5811-0.9799-0.66471 1.0175 1.5324 1.0538-0.97957 1.582 1.0168 0.66473 1.056-1.5333 1.5808 0.98048 0.69116-1.1362-1.5592-0.9355 0.97997-1.5816zm3.5596 2.4561c0 2.4422-1.98 4.4221-4.4225 4.4221-2.4425 6e-5 -4.4226-1.9798-4.4226-4.422 0-2.4423 1.9801-4.4221 4.4226-4.4221 2.4425-1e-5 4.4225 1.9798 4.4226 4.422zm-60.951-2.456-1.0542 1.5333-1.5812-0.97992-0.66471 1.0175 1.5324 1.0538-0.97957 1.582 1.0169 0.66473 1.056-1.5333 1.5808 0.98048 0.69115-1.1362-1.5591-0.93549 0.97997-1.5816zm3.5597 2.4561c0 2.4423-1.9801 4.4221-4.4226 4.4221-2.4425 6e-5 -4.4226-1.9798-4.4226-4.422-1e-5 -2.4423 1.9801-4.4221 4.4226-4.4221 2.4425-5e-5 4.4226 1.9798 4.4226 4.4221zm-60.952-2.4562-1.0542 1.5333-1.5811-0.97992-0.66471 1.0175 1.5324 1.0538-0.97966 1.582 1.017 0.66474 1.056-1.5333 1.5808 0.98048 0.69106-1.1362-1.5591-0.93549 0.97997-1.5816zm3.5597 2.4561c0 2.4423-1.9801 4.4221-4.4226 4.4221-2.4425 0-4.4225-1.9798-4.4225-4.422 0-2.4423 1.9801-4.4221 4.4226-4.4221 2.4425 0 4.4225 1.9798 4.4225 4.422zm283.4-55.782-1.0542 1.5333-1.5812-0.97993-0.66462 1.0175 1.5324 1.0538-0.97966 1.582 1.0169 0.66474 1.056-1.5333 1.5808 0.98048 0.69106-1.1362-1.5591-0.93549 0.97997-1.5816zm3.5597 2.4561c0 2.4423-1.9801 4.4221-4.4226 4.4221-2.4425-1e-5 -4.4225-1.9798-4.4225-4.422-1e-5 -2.4423 1.9801-4.4221 4.4226-4.4221 2.4425 1e-5 4.4225 1.9798 4.4225 4.422zm-290.51-2.4558-1.0542 1.5333-1.5812-0.97992-0.66471 1.0175 1.5324 1.0538-0.97957 1.582 1.0169 0.66473 1.056-1.5333 1.5808 0.98048 0.69115-1.1362-1.5591-0.93549 0.97997-1.5816zm3.5597 2.4561c0 2.4423-1.9801 4.4221-4.4226 4.4221-2.4425 6e-5 -4.4226-1.9798-4.4226-4.422-1e-5 -2.4423 1.9801-4.4221 4.4226-4.4221 2.4425-5e-5 4.4226 1.9798 4.4226 4.4221zm283.4 35.632-1.0543 1.5333-1.5811-0.97991-0.6647 1.0175 1.5324 1.0538-0.97957 1.582 1.0168 0.66473 1.056-1.5333 1.5808 0.98048 0.69115-1.1362-1.5592-0.9355 0.97997-1.5816zm3.5597 2.4561c0 2.4423-1.9801 4.4221-4.4226 4.4221-2.4425 5e-5 -4.4226-1.9798-4.4226-4.4221-1e-5 -2.4423 1.9801-4.4221 4.4226-4.4221 2.4425-5e-5 4.4226 1.9798 4.4226 4.4221zm-60.952-2.4562-1.0542 1.5333-1.5812-0.97991-0.6647 1.0175 1.5324 1.0538-0.97966 1.582 1.0169 0.66475 1.056-1.5333 1.5808 0.98048 0.69106-1.1362-1.5591-0.93549 0.97997-1.5816zm3.5597 2.4561c0 2.4423-1.9801 4.4221-4.4226 4.4221-2.4425 0-4.4225-1.9798-4.4225-4.422-1e-5 -2.4423 1.9801-4.4221 4.4226-4.4221 2.4425 0 4.4225 1.9798 4.4225 4.422zm-60.951-2.456-1.0543 1.5333-1.5811-0.97991-0.66471 1.0175 1.5324 1.0538-0.97966 1.582 1.0169 0.66474 1.056-1.5333 1.5808 0.98048 0.69107-1.1362-1.5591-0.93549 0.97997-1.5816zm3.5596 2.4561c0 2.4423-1.9801 4.4221-4.4226 4.4221-2.4425 0-4.4225-1.9798-4.4225-4.422 0-2.4423 1.9801-4.4221 4.4226-4.4221 2.4425-1e-5 4.4225 1.9798 4.4226 4.422zm-60.951-2.456-1.0543 1.5333-1.5811-0.97991-0.66471 1.0175 1.5324 1.0538-0.97957 1.582 1.0169 0.66473 1.056-1.5333 1.5808 0.98048 0.69115-1.1362-1.5592-0.9355 0.97997-1.5816zm3.5596 2.4561c1e-5 2.4422-1.98 4.4221-4.4225 4.4221-2.4425 6e-5 -4.4226-1.9798-4.4226-4.422-1e-5 -2.4423 1.9801-4.4221 4.4226-4.4221 2.4425 0 4.4225 1.9798 4.4225 4.422zm-60.951-2.456-1.0542 1.5333-1.5812-0.97991-0.66471 1.0175 1.5324 1.0538-0.97957 1.582 1.0168 0.66473 1.056-1.5333 1.5808 0.9805 0.69107-1.1362-1.5591-0.93549 0.97997-1.5816zm3.5597 2.4561c0 2.4423-1.9801 4.4221-4.4226 4.4221-2.4425 5e-5 -4.4226-1.9798-4.4226-4.4221 0-2.4423 1.9801-4.4221 4.4226-4.4221 2.4425-5e-5 4.4226 1.9798 4.4226 4.4221zm-60.951-2.456-1.0543 1.5333-1.5811-0.9799-0.6647 1.0175 1.5324 1.0538-0.97966 1.582 1.0169 0.66474 1.056-1.5333 1.5808 0.98048 0.69106-1.1362-1.5591-0.93548 0.97996-1.5816zm3.5596 2.4561c0 2.4423-1.9801 4.4221-4.4226 4.4221-2.4425 0-4.4225-1.9798-4.4225-4.422-1e-5 -2.4423 1.9801-4.4221 4.4226-4.4221 2.4425 0 4.4225 1.9798 4.4225 4.422zm283.4-78.654-1.0542 1.5333-1.5812-0.97992-0.6647 1.0175 1.5324 1.0538-0.97957 1.582 1.0168 0.66473 1.056-1.5333 1.5808 0.98047 0.69115-1.1362-1.5591-0.93549 0.97997-1.5816zm3.5597 2.4561c1e-5 2.4423-1.9801 4.4221-4.4226 4.4221-2.4425 5e-5 -4.4226-1.9798-4.4226-4.422 0-2.4423 1.9801-4.4221 4.4226-4.4221 2.4425-5e-5 4.4226 1.9798 4.4226 4.4221zm-60.951-2.456-1.0543 1.5333-1.5811-0.97991-0.6647 1.0175 1.5324 1.0538-0.97957 1.582 1.0168 0.66473 1.056-1.5333 1.5808 0.98048 0.69115-1.1362-1.5592-0.9355 0.97997-1.5816zm3.5596 2.4561c0 2.4423-1.9801 4.4221-4.4226 4.4221-2.4425 0-4.4225-1.9798-4.4225-4.422-1e-5 -2.4423 1.9801-4.4221 4.4226-4.4221 2.4425 0 4.4225 1.9798 4.4225 4.422zm-60.951-2.456-1.0543 1.5333-1.5811-0.97991-0.66471 1.0175 1.5324 1.0538-0.97957 1.582 1.0168 0.66473 1.056-1.5333 1.5808 0.98047 0.69116-1.1362-1.5592-0.9355 0.97997-1.5816zm3.5596 2.4561c0 2.4422-1.98 4.4221-4.4225 4.4221-2.4425 5e-5 -4.4226-1.9798-4.4226-4.422 0-2.4423 1.9801-4.4221 4.4226-4.4221 2.4425 1e-5 4.4225 1.9798 4.4226 4.422zm-60.951-2.456-1.0542 1.5333-1.5812-0.97992-0.6647 1.0175 1.5324 1.0538-0.97957 1.582 1.0168 0.66473 1.056-1.5333 1.5808 0.98047 0.69115-1.1362-1.5591-0.93549 0.97997-1.5816zm3.5597 2.4561c0 2.4423-1.9801 4.4221-4.4226 4.4221-2.4425 5e-5 -4.4226-1.9798-4.4226-4.4221-1e-5 -2.4423 1.9801-4.4221 4.4226-4.4221 2.4425-5e-5 4.4226 1.9798 4.4226 4.4221zm-60.952-2.4562-1.0542 1.5333-1.5812-0.97992-0.66471 1.0175 1.5324 1.0538-0.97965 1.582 1.0169 0.66475 1.056-1.5333 1.5808 0.98048 0.69106-1.1362-1.5591-0.93549 0.97997-1.5816zm3.5597 2.4561c0 2.4423-1.9801 4.4221-4.4226 4.4221-2.4425 0-4.4225-1.9798-4.4225-4.422-1e-5 -2.4422 1.98-4.4221 4.4225-4.4221 2.4425-5e-5 4.4226 1.9798 4.4226 4.4221zm-60.951-2.456-1.0543 1.5333-1.5811-0.9799-0.66471 1.0175 1.5324 1.0538-0.97957 1.582 1.0168 0.66473 1.056-1.5333 1.5808 0.98047 0.69116-1.1362-1.5592-0.9355 0.97997-1.5816zm3.5596 2.4561c0 2.4422-1.98 4.4221-4.4225 4.4221-2.4425 6e-5 -4.4226-1.9798-4.4226-4.422 0-2.4423 1.9801-4.4221 4.4226-4.4221 2.4425 1e-5 4.4225 1.9798 4.4226 4.422zm283.4-55.737-1.0543 1.5333-1.5811-0.97991-0.66471 1.0175 1.5324 1.0538-0.97966 1.582 1.0169 0.66474 1.056-1.5333 1.5808 0.98048 0.69107-1.1362-1.5591-0.93549 0.97997-1.5816zm3.5596 2.4561c1e-5 2.4423-1.9801 4.4221-4.4226 4.4221-2.4425 0-4.4225-1.9798-4.4225-4.422 0-2.4423 1.9801-4.4221 4.4226-4.4221 2.4425 0 4.4225 1.9798 4.4225 4.422zm-290.51-2.4558-1.0542 1.5333-1.5812-0.97992-0.66471 1.0175 1.5324 1.0538-0.97957 1.582 1.0168 0.66473 1.0561-1.5332 1.5808 0.98048 0.69107-1.1362-1.5591-0.93549 0.97997-1.5816zm3.5597 2.4561c1e-5 2.4423-1.9801 4.4221-4.4226 4.4221-2.4425 0-4.4225-1.9798-4.4225-4.422-1e-5 -2.4422 1.98-4.4221 4.4225-4.4221 2.4425-5e-5 4.4226 1.9798 4.4226 4.4221zm283.4 35.632-1.0543 1.5333-1.5811-0.97992-0.66471 1.0175 1.5324 1.0538-0.97957 1.582 1.0168 0.66473 1.056-1.5333 1.5808 0.98048 0.69116-1.1362-1.5592-0.93551 0.97997-1.5816zm3.5597 2.4561c0 2.4423-1.9801 4.4221-4.4226 4.4221-2.4425 5e-5 -4.4226-1.9798-4.4226-4.4221 0-2.4423 1.9801-4.4221 4.4226-4.4221 2.4425-5e-5 4.4226 1.9798 4.4226 4.422zm-60.951-2.456-1.0543 1.5333-1.5811-0.97991-0.6647 1.0175 1.5324 1.0538-0.97966 1.582 1.0169 0.66474 1.056-1.5333 1.5808 0.98047 0.69106-1.1362-1.5591-0.93549 0.97997-1.5816zm3.5596 2.4561c0 2.4423-1.9801 4.4221-4.4226 4.4221-2.4425 0-4.4225-1.9798-4.4226-4.422 0-2.4423 1.9801-4.4221 4.4226-4.4221 2.4425 0 4.4225 1.9798 4.4226 4.422zm-60.951-2.456-1.0543 1.5333-1.5811-0.97992-0.66471 1.0175 1.5324 1.0538-0.97958 1.582 1.0169 0.66473 1.056-1.5333 1.5808 0.98048 0.69115-1.1362-1.5592-0.93551 0.97997-1.5816zm3.5596 2.4561c1e-5 2.4423-1.9801 4.4221-4.4226 4.4221-2.4425 0-4.4225-1.9798-4.4225-4.422 0-2.4423 1.9801-4.4221 4.4226-4.4221 2.4425 0 4.4225 1.9798 4.4225 4.422zm-60.951-2.456-1.0543 1.5333-1.5811-0.97991-0.6647 1.0175 1.5324 1.0538-0.97957 1.582 1.0168 0.66473 1.056-1.5333 1.5808 0.98048 0.69115-1.1362-1.5592-0.93551 0.97996-1.5816zm3.5597 2.4561c0 2.4423-1.9801 4.4221-4.4226 4.4221-2.4425 6e-5 -4.4226-1.9798-4.4226-4.422 0-2.4423 1.9801-4.4221 4.4226-4.4221 2.4425-5e-5 4.4226 1.9798 4.4226 4.422zm-60.952-2.4561-1.0542 1.5333-1.5812-0.97993-0.6647 1.0175 1.5324 1.0538-0.97957 1.582 1.0168 0.66473 1.0561-1.5332 1.5808 0.98047 0.69106-1.1362-1.5591-0.93549 0.97997-1.5816zm3.5597 2.4561c0 2.4423-1.9801 4.4221-4.4226 4.4221-2.4425-1e-5 -4.4225-1.9798-4.4226-4.422 0-2.4422 1.98-4.4221 4.4225-4.4221 2.4425-5e-5 4.4226 1.9798 4.4226 4.422zm-60.951-2.456-1.0543 1.5333-1.5811-0.97991-0.66471 1.0175 1.5324 1.0538-0.97957 1.582 1.0168 0.66473 1.056-1.5333 1.5808 0.98047 0.69116-1.1362-1.5592-0.9355 0.97997-1.5816zm3.5596 2.4561c1e-5 2.4423-1.9801 4.4221-4.4226 4.4221-2.4425 0-4.4225-1.9798-4.4225-4.422 0-2.4423 1.9801-4.4221 4.4226-4.4221 2.4425 0 4.4225 1.9798 4.4225 4.422zm283.4-78.654-1.0542 1.5333-1.5812-0.97993-0.6647 1.0175 1.5324 1.0538-0.97957 1.582 1.0168 0.66473 1.0561-1.5332 1.5808 0.98048 0.69106-1.1362-1.5591-0.93549 0.97997-1.5816zm3.5597 2.4561c0 2.4423-1.9801 4.4221-4.4226 4.4221-2.4425 0-4.4225-1.9798-4.4226-4.422 0-2.4422 1.98-4.4221 4.4225-4.4221 2.4425-5e-5 4.4226 1.9798 4.4226 4.422zm-60.951-2.456-1.0543 1.5333-1.5811-0.97991-0.66471 1.0175 1.5324 1.0538-0.97957 1.582 1.0168 0.66473 1.056-1.5333 1.5808 0.98047 0.69116-1.1362-1.5592-0.9355 0.97997-1.5816zm3.5596 2.4561c1e-5 2.4422-1.98 4.4221-4.4225 4.4221-2.4425 5e-5 -4.4226-1.9798-4.4226-4.4221 0-2.4423 1.9801-4.4221 4.4226-4.4221 2.4425 0 4.4225 1.9798 4.4225 4.422zm-60.951-2.456-1.0543 1.5333-1.5811-0.97991-0.6647 1.0175 1.5324 1.0538-0.97957 1.582 1.0168 0.66473 1.056-1.5333 1.5808 0.98048 0.69115-1.1362-1.5592-0.93551 0.97997-1.5816zm3.5597 2.4561c0 2.4423-1.9801 4.4221-4.4226 4.4221-2.4425 5e-5 -4.4226-1.9798-4.4226-4.4221-1e-5 -2.4423 1.9801-4.4221 4.4226-4.4221 2.4425-5e-5 4.4226 1.9798 4.4226 4.422zm-60.952-2.4561-1.0542 1.5333-1.5812-0.97992-0.66471 1.0175 1.5324 1.0538-0.97957 1.582 1.0169 0.66473 1.0561-1.5332 1.5808 0.98048 0.69106-1.1362-1.5591-0.93549 0.97997-1.5816zm3.5597 2.4561c0 2.4423-1.9801 4.4221-4.4226 4.4221-2.4425 0-4.4225-1.9798-4.4225-4.422-1e-5 -2.4422 1.98-4.4221 4.4225-4.4221 2.4425-5e-5 4.4226 1.9798 4.4226 4.4221zm-60.951-2.456-1.0543 1.5333-1.5811-0.97991-0.66471 1.0175 1.5324 1.0538-0.97966 1.582 1.0169 0.66474 1.056-1.5333 1.5808 0.98047 0.69107-1.1362-1.5591-0.93549 0.97997-1.5816zm3.5596 2.4561c0 2.4423-1.9801 4.4221-4.4226 4.4221-2.4425-1e-5 -4.4225-1.9798-4.4225-4.422 0-2.4423 1.9801-4.4221 4.4226-4.4221 2.4425 1e-5 4.4225 1.9798 4.4226 4.422zm-60.951-2.456-1.0543 1.5333-1.5811-0.97991-0.6647 1.0175 1.5324 1.0538-0.97957 1.582 1.0168 0.66473 1.056-1.5333 1.5808 0.98047 0.69115-1.1362-1.5592-0.9355 0.97997-1.5816zm3.5597 2.4561c0 2.4423-1.9801 4.4221-4.4226 4.4221-2.4425 5e-5 -4.4226-1.9798-4.4226-4.4221-1e-5 -2.4423 1.9801-4.4221 4.4226-4.4221 2.4425-5e-5 4.4226 1.9798 4.4226 4.4221zm283.4-55.782-1.0543 1.5333-1.5811-0.97991-0.6647 1.0175 1.5324 1.0538-0.97957 1.582 1.0168 0.66473 1.056-1.5333 1.5808 0.98048 0.69115-1.1362-1.5592-0.9355 0.97997-1.5816zm3.5596 2.4561c1e-5 2.4422-1.98 4.4221-4.4225 4.4221-2.4425 5.5e-5 -4.4226-1.9798-4.4226-4.4221-1e-5 -2.4423 1.9801-4.4221 4.4226-4.4221 2.4425-3e-6 4.4225 1.9798 4.4225 4.422zm-290.51-2.4558-1.0543 1.5333-1.5811-0.97991-0.6647 1.0175 1.5324 1.0538-0.97966 1.582 1.0169 0.66474 1.056-1.5333 1.5808 0.98048 0.69106-1.1362-1.5591-0.93549 0.97997-1.5816zm3.5596 2.4561c0 2.4423-1.9801 4.4221-4.4226 4.4221-2.4425-1e-6 -4.4225-1.9798-4.4225-4.422-1e-5 -2.4423 1.9801-4.4221 4.4226-4.4221 2.4425 1e-6 4.4225 1.9798 4.4225 4.422zm283.4 35.632-1.0542 1.5333-1.5812-0.97993-0.6647 1.0175 1.5324 1.0538-0.97957 1.582 1.0168 0.66473 1.0561-1.5332 1.5808 0.98048 0.69106-1.1362-1.5591-0.93549 0.97997-1.5816zm3.5597 2.4561c0 2.4423-1.9801 4.4221-4.4226 4.4221-2.4425-1e-5 -4.4225-1.9798-4.4226-4.422 0-2.4422 1.98-4.4221 4.4225-4.4221 2.4425-5e-5 4.4226 1.9798 4.4226 4.422zm-60.951-2.456-1.0543 1.5333-1.5811-0.97991-0.66471 1.0175 1.5324 1.0538-0.97957 1.582 1.0168 0.66473 1.056-1.5333 1.5808 0.98047 0.69116-1.1362-1.5592-0.9355 0.97997-1.5816zm3.5596 2.4561c1e-5 2.4422-1.98 4.4221-4.4225 4.4221-2.4425 5e-5 -4.4226-1.9798-4.4226-4.4221s1.9801-4.4221 4.4226-4.4221c2.4425 0 4.4225 1.9798 4.4225 4.422zm-60.951-2.456-1.0543 1.5333-1.5811-0.97992-0.6647 1.0175 1.5324 1.0538-0.97957 1.582 1.0168 0.66473 1.056-1.5333 1.5808 0.98048 0.69115-1.1362-1.5592-0.93551 0.97997-1.5816zm3.5597 2.4561c0 2.4423-1.9801 4.4221-4.4226 4.4221-2.4425 5e-5 -4.4226-1.9798-4.4226-4.4221-1e-5 -2.4423 1.9801-4.4221 4.4226-4.4221 2.4425-5e-5 4.4226 1.9798 4.4226 4.422zm-60.952-2.4561-1.0542 1.5333-1.5812-0.97992-0.66471 1.0175 1.5324 1.0538-0.97957 1.582 1.0169 0.66473 1.0561-1.5332 1.5808 0.98048 0.69106-1.1362-1.5591-0.93549 0.97997-1.5816zm3.5597 2.4561c0 2.4423-1.9801 4.4221-4.4226 4.4221-2.4425 0-4.4225-1.9798-4.4225-4.422-1e-5 -2.4422 1.98-4.4221 4.4225-4.4221 2.4425-5e-5 4.4226 1.9798 4.4226 4.4221zm-60.951-2.456-1.0543 1.5333-1.5811-0.97991-0.66471 1.0175 1.5324 1.0538-0.97966 1.582 1.0169 0.66474 1.056-1.5333 1.5808 0.98047 0.69107-1.1362-1.5591-0.93549 0.97997-1.5816zm3.5596 2.4561c0 2.4423-1.9801 4.4221-4.4226 4.4221-2.4425-1e-5 -4.4225-1.9798-4.4225-4.422 0-2.4423 1.9801-4.4221 4.4226-4.4221 2.4425 0 4.4225 1.9798 4.4226 4.422zm-60.951-2.456-1.0543 1.5333-1.5811-0.97991-0.6647 1.0175 1.5324 1.0538-0.97957 1.582 1.0168 0.66473 1.056-1.5333 1.5808 0.98047 0.69115-1.1362-1.5592-0.9355 0.97997-1.5816zm3.5597 2.4561c0 2.4423-1.9801 4.4221-4.4226 4.4221-2.4425 5e-5 -4.4226-1.9798-4.4226-4.4221-1e-5 -2.4423 1.9801-4.4221 4.4226-4.4221 2.4425-5e-5 4.4226 1.9798 4.4226 4.4221zm283.4-78.654-1.0542 1.5333-1.5811-0.97991-0.66471 1.0175 1.5324 1.0538-0.97966 1.582 1.0169 0.66474 1.056-1.5333 1.5808 0.98048 0.69107-1.1362-1.5591-0.93549 0.97997-1.5816zm3.5597 2.4561c1e-5 2.4423-1.9801 4.4221-4.4226 4.4221-2.4425 2e-6 -4.4225-1.9798-4.4225-4.422 0-2.4423 1.9801-4.4221 4.4226-4.4221 2.4425-2e-6 4.4225 1.9798 4.4225 4.422zm-60.951-2.456-1.0542 1.5333-1.5812-0.97992-0.6647 1.0175 1.5324 1.0538-0.97957 1.582 1.0168 0.66472 1.056-1.5333 1.5808 0.98048 0.69115-1.1362-1.5591-0.93549 0.97996-1.5816zm3.5597 2.4561c0 2.4423-1.9801 4.4221-4.4226 4.4221-2.4425 5.5e-5 -4.4226-1.9798-4.4226-4.4221 0-2.4423 1.9801-4.4221 4.4226-4.4221 2.4425-5.4e-5 4.4226 1.9798 4.4226 4.4221zm-60.952-2.4561-1.0542 1.5333-1.5812-0.97993-0.66471 1.0175 1.5324 1.0538-0.97957 1.582 1.0168 0.66473 1.056-1.5333 1.5808 0.98049 0.69106-1.1362-1.5591-0.93549 0.97996-1.5816zm3.5597 2.4561c0 2.4423-1.9801 4.4221-4.4226 4.4221-2.4425 5.5e-5 -4.4226-1.9798-4.4226-4.4221-1e-5 -2.4423 1.9801-4.4221 4.4226-4.4221 2.4425-5.5e-5 4.4226 1.9798 4.4226 4.4221zm-60.952-2.4561-1.0542 1.5333-1.5811-0.97991-0.66471 1.0175 1.5324 1.0538-0.97966 1.582 1.017 0.66474 1.056-1.5333 1.5808 0.98048 0.69107-1.1362-1.5591-0.93549 0.97997-1.5816zm3.5597 2.4561c0 2.4423-1.9801 4.4221-4.4226 4.4221-2.4425 2e-6 -4.4225-1.9798-4.4225-4.422-1e-5 -2.4423 1.9801-4.4221 4.4226-4.4221 2.4425-2e-6 4.4225 1.9798 4.4225 4.422zm-60.951-2.456-1.0543 1.5333-1.5811-0.97991-0.6647 1.0175 1.5324 1.0538-0.97957 1.582 1.0168 0.66472 1.056-1.5333 1.5808 0.98048 0.69115-1.1362-1.5592-0.9355 0.97997-1.5816zm3.5596 2.4561c0 2.4423-1.9801 4.4221-4.4226 4.4221-2.4425 2e-6 -4.4225-1.9798-4.4226-4.422 0-2.4423 1.9801-4.4221 4.4226-4.4221 2.4425-2e-6 4.4225 1.9798 4.4226 4.422zm-60.951-2.456-1.0542 1.5333-1.5812-0.97992-0.66471 1.0175 1.5324 1.0538-0.97958 1.582 1.0169 0.66473 1.056-1.5333 1.5808 0.98049 0.69106-1.1362-1.5591-0.93549 0.97997-1.5816zm3.5597 2.4561c0 2.4423-1.9801 4.4221-4.4226 4.4221-2.4425 5.1e-5 -4.4226-1.9798-4.4226-4.4221 0-2.4423 1.9801-4.4221 4.4226-4.4221 2.4425-5.5e-5 4.4226 1.9798 4.4226 4.4221zm-43.435 310.33-7e-5 -16.495m8.89-3e-5 7e-5 16.495m356.24-16.494 3e-5 5.6757m0 0-7e-5 10.82m-8.89 4e-5 7e-5 -10.82m0 0-1e-5 -5.6758m-2.8575 17.129 7e-5 -14.282m0 0 3e-5 -3.4816m1.905 0-3e-5 3.4816m0 0-7e-5 14.282m-345.44-1e-3 9e-5 -9.5156m0 0-3e-5 -8.2482m1.905 0-6e-5 8.2482m0 0v9.5156m337.5-8.8824 3.81 1e-5m-341-6e-4 3.81 1e-5m333.69-18.877 3.493-1e-5m-1.4e-4 -0.49719-3.3005-1e-5m-337.7 0.49651h3.4931m-0.19254-0.49717-3.3005 1e-5m7.2262-2.4642 6e-5 -9.5363m0 0 0.0759-8e-5m-0.0763 14.88-3e-5 -5.3434m6e-5 -9.5363 1.4e-4 -0.34615m-4.1148 8.6571 5e-3 0.0612m0 0 0.0155 0.0612m0 0 0.0256 0.0607m0 0 0.0356 0.0604m0 0 0.0456 0.0597m0 0 0.0557 0.0589m0 0 0.0657 0.0581m0 0 0.075 0.0569m0 0 0.0849 0.0558m0 0 0.0941 0.0544m0 0 0.10313 0.0531m0 0 0.11189 0.0514m0 0 0.12038 0.0498m0 0 0.12854 0.0478m0 0 0.13646 0.0458m0 0 0.14393 0.0438m0 0 0.15112 0.0417m0 0 0.15785 0.0392m0 0 0.16436 0.0369m0 0 0.17026 0.0344m0 0 0.17586 0.0317m0 0 0.18095 0.0292m0 0 0.18562 0.026m0 0 0.18973 0.024m0 0 0.19359 0.0208m0 0 0.19677 0.0179m0 0 0.19958 0.015m0 0 0.20177 0.0114m0 0 0.20353 9e-3m0 0 0.20476 6e-3m0 0 0.20553 3e-3m0 0 0.0858 3.2e-4m2.7e-4 -101.51-4e-5 -9.5364m0 0 0.0759-4e-5m-0.0763 14.88 6e-5 -5.3434m-3e-5 -9.5364 1.4e-4 -0.34615m-4.1148 8.6571 5e-3 0.0612m0 0 0.0155 0.0612m0 0 0.0255 0.0608m0 0 0.0356 0.0603m0 0 0.0456 0.0597m0 0 0.0557 0.0589m0 0 0.0657 0.0581m0 0 0.075 0.0569m0 0 0.0849 0.0558m0 0 0.0941 0.0546m0 0 0.10313 0.0531m0 0 0.1118 0.0514m0 0 0.12047 0.0498m0 0 0.12854 0.0478m0 0 0.13637 0.0458m0 0 0.14393 0.0438m0 0 0.15113 0.0417m0 0 0.15791 0.0393m0 0 0.16427 0.0369m0 0 0.17027 0.0344m0 0 0.17586 0.0317m0 0 0.18095 0.0292m0 0 0.1857 0.026m0 0 0.18974 0.024m0 0 0.19359 0.0208m0 0 0.19677 0.0179m0 0 0.19949 0.0149m0 0 0.20185 0.0114m0 0 0.20353 9e-3m0 0 0.20476 6e-3m0 0 0.20545 3e-3m0 0 0.0858 3.3e-4m2.6e-4 -101.51-3e-5 -9.5364m0 0 0.0759-4e-5m-0.0763 14.88 6e-5 -5.3434m-4e-5 -9.5364 1.5e-4 -0.34615m-4.1148 8.6571 5e-3 0.0612m0 0 0.0155 0.0612m0 0 0.0256 0.0608m0 0 0.0355 0.0603m0 0 0.0456 0.0597m0 0 0.0556 0.059m0 0 0.0657 0.0581m0 0 0.075 0.0569m0 0 0.0848 0.0558m0 0 0.0941 0.0546m0 0 0.10314 0.053m0 0 0.11189 0.0514m0 0 0.12038 0.0497m0 0 0.12854 0.0478m0 0 0.13637 0.0458m0 0 0.14401 0.0438m0 0 0.15105 0.0416m0 0 0.15792 0.0393m0 0 0.16435 0.0369m0 0 0.17018 0.0344m0 0 0.17591 0.0319m0 0 0.18087 0.0292m0 0 0.18564 0.0264m0 0 0.1898 0.0236m0 0 0.19358 0.0208m0 0 0.19677 0.0179m0 0 0.19957 0.015m0 0 0.20177 0.0114m0 0 0.20354 9e-3m0 0 0.20475 6e-3m0 0 0.20554 3e-3m0 0 0.0858 3e-4m326.54-2.2706 4e-5 7.613m-1.2e-4 -15.226 5e-5 7.613m-0.0759 4e-5 0.0759-4e-5m-2.7e-4 101.51-4e-5 7.613m-3e-5 -15.226 5e-5 7.613m-0.0759 5e-5 0.0759-5e-5m-2.7e-4 101.51-4e-5 7.613m-4e-5 -15.226 5e-5 7.613m-0.0759 8e-5 0.0759-8e-5m-314.4 169.71 1.4e-4 -88.184m302.26 1.5e-4 -1.3e-4 88.184m-17.78-10.151-266.7 3.1e-4m-24.284-446.95 5e-5 2.5377m262.41 454.25-101.6-2.3e-4m150.56-456.78 4e-5 2.5377m3.8975 2e-6 -5e-5 -2.5377m-17.289 456.78h-29.223m48.259-87.866 4e-5 -0.31721m-313.12-366.06 5e-5 -2.5377m314.39 370.5 2.54 1e-5m-11.748 90.09 4e-5 -2.5377m-262.57-1.2696h-29.223m-19.037-88.184-3e-5 0.3172m156.21 87.868-101.6-2.4e-4m-58.42-86.281h2.54m9.2078 90.088-5e-5 -2.5377m0.31747-454.88 6.9e-4 365.42m-6.5062-365.42 6.9e-4 365.42m308.76-2.6e-4 -7e-4 -365.42m-304.87-5.1e-4 6.9e-4 365.42m311.37 9e-5 -6.9e-4 -365.42m-3.8975-2e-6 7e-4 365.42m-3.8786-8.8819 5e-5 8.8819m-7.2e-4 -100.23 1.2e-4 15.226m5.1e-4 -106.59 3e-5 15.226m5.1e-4 -106.59 3e-5 15.226m1.3e-4 -97.704-7e-5 6.3442m-133.84 85.01-5e-5 -2.5377m5.4e-4 93.891-4e-5 -2.5377m5.3e-4 93.891 5e-5 -2.5377m-165.87-265.19-3e-5 -6.3442m-1.2e-4 97.704-1.2e-4 -15.226m-5.1e-4 106.59-3e-5 -15.226m-5.1e-4 106.59-3e-5 -15.226m7.2e-4 100.23 3e-5 -8.8819m133.84-85.01 4e-5 2.5377m-5.3e-4 -93.891 4e-5 2.5377m-5.4e-4 -93.891-4e-5 2.5377m140.12 356.23c1.9051 0.42296 3.8799 0.42296 5.7851 0m33.303-124.03h2.54m-2.54-30.452h2.54m-8e-5 30.452-7e-5 -20.35m0 0 1e-5 -10.102m-331.47 30.452 2.5399-1e-5m-2.54-30.452h2.54m-2.54 0v1.5887m0 0-1e-5 28.864m-7.3023-22.839c-8e-5 -0.35041-0.2843-0.63443-0.63501-0.63442m0 0-8.89 4e-5m15.875 13.322 0.95246-1e-5m-16.827-13.323c-0.35072 3e-5 -0.63499 0.28403-0.635 0.63442m3e-5 15.226c9e-5 0.3504 0.2843 0.63443 0.63502 0.63442m15.875-13.323 0.95246-1e-5m-7.9375 13.323c0.35072-3e-5 0.63499-0.28405 0.635-0.63442m-0.635 0.63442-8.89 4e-5m-0.63503-15.86 3e-5 15.226m365.76 0.63433c0.35072-3e-5 0.63499-0.28404 0.63499-0.63441m-10.16-3e-5c9e-5 0.3504 0.28431 0.63443 0.63502 0.63442m-6.9854-13.323-0.95246 1e-5m7.9374-3.1721c-0.35071 3e-5 -0.63498 0.28404-0.63499 0.63443m-6.35 12.688-0.95246 1e-5m7.9375-13.323 8.89-4e-5m0.63502 0.63442c-9e-5 -0.35041-0.2843-0.63443-0.63502-0.63442m-8.8899 16.495 8.89-4e-5m0.63499-0.63441 3e-5 -9.9873m0 0 4e-5 -5.2392m-12.383-1.2689h1.905m-1.9051 17.764h1.905m-1.9049-17.764c-0.1754 0-0.31754 0.142-0.3175 0.3172m2.2224 17.447c0.17531-3e-5 0.31745-0.14203 0.31749-0.31721m-8e-5 -17.129c-5e-5 -0.17517-0.14212-0.31716-0.31742-0.3172m-2.2225 17.446c5e-5 0.17516 0.14212 0.31715 0.31742 0.3172m2.2225-0.31721-2e-5 -13.772m0 0-4e-5 -3.3573m-343.54-2.8e-4c-4e-5 -0.1752-0.14219-0.31723-0.31751-0.31721m-1.905 0c-0.1754 1e-5 -0.31753 0.142-0.31749 0.3172m8e-5 17.129c5e-5 0.17516 0.14212 0.31716 0.31742 0.31721m1.3e-4 -17.764h1.905m-1.9051 17.764h1.905m0 0c0.17531-2e-5 0.31745-0.14204 0.3175-0.31722m-2.5399-17.13-3e-5 7.9537m0 0 4e-5 9.1758m2.54-27.442 1e-5 18.877m2.8e-4 211.26c-4e-5 3.1535 2.5587 5.7099 5.715 5.7098l329.57 1e-5m1.9054-235.29 2e-5 18.315m-333.37 211.26c-1e-5 1.0511 0.85291 1.9033 1.905 1.9033m335.28-213.17-1.1e-4 -18.877m-340.99-0.49651 1.5e-4 0.49719m335.28 235.85c3.1563 4e-5 5.715-2.5563 5.715-5.7098m-3.8106-211.26 2.8e-4 211.26m-1.905 1.9032-329.57-1e-5m329.57 1e-5c1.052-3e-5 1.905-0.85213 1.905-1.9032m-333.37 7.3e-4 -2.8e-4 -211.26m-3.81-21.475 4e-5 2.1008m-1.3e-4 19.374 2.8e-4 211.26m341-232.73 5e-5 2.1007m-337.19 19.374-2e-5 -18.315m337.18 229.58-2.8e-4 -211.26m-1e-4 -21.475h-3.1115m3.1115 2.5979-1.4e-4 -0.49719m-341-2.1014h3.1115m323.28-287.49 2e-5 0.63442m-4.445-0.63439-8e-5 0.63441m-138.13-0.63515 1e-5 0.63442m4.445-0.63443 1e-5 0.63442m-31.083-0.63448 1e-5 0.63442m-4.445-0.63439 1e-5 0.63442m-133.69-0.63469 1e-5 0.63442m-4.445-0.63439 1e-5 0.63442m299.4 180.18c3.5069 3e-5 6.35-2.8403 6.35-6.3442m-299.72 4.1e-4 4.3e-4 -76.13m293.37 82.475-287.02-3.1e-4m293.37-82.476 4.6e-4 76.13m-293.37-82.475 287.02 3.1e-4m-293.37 82.476c5e-5 3.5038 2.843 6.3442 6.35 6.3442m293.37-82.476c-5e-5 -3.5038-2.843-6.3442-6.35-6.3442m-287.02-3.1e-4c-3.5069 2e-5 -6.3499 2.8404-6.3499 6.3442m6.3495 176.37c-3.507-5e-5 -6.35 2.8403-6.35 6.3442m299.72-4.2e-4 -4.3e-4 76.13m-293.37-82.475 287.02 3e-4m-293.37 82.476-4.5e-4 -76.13m293.37 82.475-287.02-3.1e-4m293.37-82.476c-4e-5 -3.5038-2.8431-6.3442-6.35-6.3442m-293.37 82.476c5e-5 3.5038 2.843 6.3442 6.35 6.3442m287.02 3.1e-4c3.5069-2e-5 6.3499-2.8404 6.3499-6.3442m-6.3503-85.012c3.5069-2e-5 6.3499-2.8404 6.3499-6.3442m-299.72 4.2e-4 -4.6e-4 -76.13m293.37 82.475-287.02-3e-4m293.37-82.476-4.3e-4 76.13m-293.37-82.475 287.02 3e-4m-293.37 82.476c5e-5 3.5038 2.843 6.3442 6.35 6.3442m293.37-82.476c-5e-5 -3.5038-2.843-6.3442-6.35-6.3442m-287.02-3e-4c-3.507-4e-5 -6.35 2.8403-6.35 6.3442m6.3497-189.05c-3.5069 1.1e-5 -6.3499 2.8404-6.3499 6.3442m299.72-4.12e-4 4.5e-4 76.13m-293.37-82.475 287.02 3.06e-4m-293.37 82.476 4.3e-4 -76.13m293.37 82.475-287.02-3.1e-4m293.37-82.476c-5e-5 -3.5038-2.843-6.3442-6.35-6.3442m-293.37 82.476c5e-5 3.5038 2.843 6.3442 6.3501 6.3442m287.02 3e-4c3.5069 3e-5 6.35-2.8403 6.35-6.3442m-313.05 194.13-0.0759 8e-5m0.0761 15.226-0.0759 8e-5m-3e-5 -15.226c-2.2725 0-4.1148 1.8406-4.1148 4.111m-5e-5 7.004c-4e-5 2.2705 1.8423 4.111 4.1148 4.111m-4.1147-6.569-1e-5 -4.5461m-5e-5 7.004 6e-5 -2.458m4.1908-94.938-0.0759 8e-5m-4.1148-4.111c-4e-5 2.2705 1.8423 4.111 4.1148 4.111m0.0762-15.226-0.0759 4e-5m0 0c-2.2725 0-4.1148 1.8406-4.1148 4.111m1e-5 4.546-1e-5 -4.546m-5e-5 7.004 6e-5 -2.458m4.1908-94.938-0.0759 5e-5m-4.1147-4.111c-3e-5 2.2704 1.8422 4.111 4.1147 4.111m-3e-5 -15.226c-2.2725 0-4.1148 1.8406-4.1148 4.111m4.191-4.1111-0.0759 4e-5m-4.1148 8.6571-1e-5 -4.5461m4e-5 7.004-3e-5 -2.458m330.58 6.5685 0.0759-4e-5m-0.0762-15.226 0.0759-4e-5m4.1148 7.6131-1e-5 3.502m-4e-5 -7.004 7e-5 3.502m-7e-5 -3.502c-5e-5 -2.2705-1.8423-4.111-4.1148-4.111m1.1e-4 15.226c2.2725 0 4.1147-1.8406 4.1148-4.111m-4.1909 105.62 0.0759-4e-5m-0.0761-15.226 0.0759-4e-5m4.1148 7.6131 7e-5 3.502m-4e-5 -7.004-2e-5 3.502m2e-5 -3.502c-5e-5 -2.2705-1.8423-4.111-4.1148-4.111m3e-5 15.226c2.2725 4e-5 4.1148-1.8406 4.1148-4.111m-4.1909 105.62 0.0759-8e-5m-0.0761-15.226 0.0759-8e-5m4.1148 7.6131-2e-5 3.502m5e-5 -7.004-2e-5 3.502m2e-5 -3.502c-5e-5 -2.2705-1.8423-4.111-4.1148-4.111m3e-5 15.226c2.2725 0 4.1147-1.8406 4.1148-4.111m-300.73 159.86 266.7-3.1e-4m26.67 6.3442 1.4e-4 -88.184m-311.15 88.185-8.89 3e-5m26.67-8.8821h-1.27m-25.4-79.302-1.4e-4 88.184m311.15 1.7e-4 8.89-3e-5m-293.37-12.689-5e-5 2.5377m-1.2699 3.8065 1.27 1e-5m-4.4902 4.486 2.8482-2.8456m269.99 7.1e-4 2.8482 2.8456m13.29-86.326 8.89-4e-5m-295.01 83.479c0.23815-0.23796 0.37192-0.56071 0.37197-0.89723m-7.7103 5.601-8.7997-1e-5m302.26 1.5e-4 -8.7997-1e-5m-8.9798-6.3441h1.27m-3e-5 -6.3442 1e-5 7.0874m-269.24-7.0865h1.27m-8.9803 12.689c1.6841-1e-5 3.2993-0.66842 4.4901-1.8582m3.2202-3.7428v-7.0874m267.97 6.8e-4h1.27m-1.27 2.5377-4e-5 -2.5377m-284.47-75.495 302.26 1.5e-4m-16.51 82.583c-4e-4 0.33645 0.13377 0.65924 0.37193 0.8972m-0.37196-4.1781h-1.27m5e-5 2.5377 2e-5 -3.8065m-284.48-78.033-8.89 2e-5m297.86 86.327c1.1908 1.1898 2.806 1.8582 4.4901 1.8582m-275.68-10.15 6e-5 3.8065m244.47 2.2206-3e-5 3.8065m40.322 1.2688 8.89-4e-5m2.8575-5e-5h-2.54m2.5396-88.819h-2.54m-55.88 88.818 7e-5 -1.2688m55.562 1.2689 0.31745-2e-5m-323.85-455.51 2.54 4e-6m3.019-2.9e-5 3.8975 1e-6m156.92 454.25 2e-5 1.2688m-6.35-1.2688 2e-5 -3.8065m-160.02 5.0753 7e-5 -87.549m3.8098 87.55 3e-5 -0.95165m-3.8099-457.1v2.5377m316.93-2e-6 3.8975 2e-6m-320.83-2.5378 326.38-8.69e-4m-273.41 450.76c-0.58174 0.59296-0.90755 1.3902-0.90755 2.2204m6.35 0c-1e-5 -0.83029-0.32583-1.6275-0.90755-2.2204m216.8 6.0267 2e-5 1.2688m-271.78-454.88v-0.63438m-2.5e-4 366.7-1e-5 -0.63439m321.31 1.9034-7e-5 87.549m-55.88-1.2687-7e-5 -3.8065m-265.11 7.6129h-0.31755m49.53-2.5376-2e-5 -1.2688m-49.53 1.2689 0.31746-1e-5m8.8899 2.5377-8.89 4e-5m320.67-2.5377-4e-5 2.5377m0.31752-91.355 2e-5 1.2688m-320.04-367.97 1e-5 0.63442m320.04 365.43 2e-5 0.63439m2.9e-4 -366.7-7e-5 0.63437m-1.5e-4 453.61h-0.635m-320.68-87.55-2.54-1e-5m9.457-366.7 307.48 8.7e-4m6.9164 7.5e-5 2.5399-1e-5m-160.02 450.44-3e-5 3.8065m160.02-456.78-4e-5 2.5377m-2.5399 455.51 5e-5 2.5377m0 0h-0.31755m-320.68-2.5377 5e-5 2.5377m49.212-3.8065 2e-5 -3.8065m-49.53-82.474-2e-5 -1.2688m320.99 91.356-8.89 3e-5m-311.46-3.8059h-0.635m55.879-3.8065 6e-5 3.8065m-55.88 1.269-4e-5 2.5376m-2.5401-457.41v-0.63439m-2.6e-4 366.7-2e-5 -0.63438m2.8579 89.453 8.89-3e-5m302.89-9.5e-4 -302.89 9.5e-4m309.08-455.51 5.5589-7e-6m-166.37 455.51-2e-5 -1.2688m-101.6-2.4e-4 -6e-5 1.2688m264.16-455.52 1e-5 0.63442m-320.04 454.88 7e-5 -87.549m320.04 87.551-6e-5 -0.95166m-161.66-6.3446c-0.58174 0.59296-0.90756 1.3902-0.90755 2.2204m6.3499 0c0-0.83031-0.32591-1.6275-0.90763-2.2204m103.42 1.5e-4c-0.58174 0.59294-0.90764 1.3901-0.90764 2.2204m6.35 1e-5c-1e-5 -0.8303-0.32591-1.6275-0.90764-2.2204m41.23 9.8335-302.89 9.4e-4m314.64-90.086-2e-5 -1.2688m-320.83-366.69-5.559-1.1e-5m5.2e-4 455.51h2.54m323.85-89.456 2e-5 0.63439m2.9e-4 -366.7 1e-5 0.63438m-326.39 366.06 3e-5 1.2688m326.39 87.55 6e-5 -87.549m8e-5 -367.33-5.5589 7e-6m-308.13 5.2e-5 7e-4 365.42m-7.1412-365.42-5.559-1.1e-5m9.4566 365.42h2.6085m-2.6086-365.42-3.8975 7e-6m308.76 365.42 2.6086 2e-5m-304.87-365.43-2.6085 3e-6m2.6086 365.42h0.635m304.23-365.42-2.6086-1.2e-5m-308.76 365.42h3.8975m-9.4568-2e-5 -7.2e-4 -365.42m320.83 365.43h5.5589m-313.69-365.42-0.63501-1e-6m301.62 3.6e-4 6.9e-4 365.42m-313.69 1.5e-4 5.559 1e-5m315.27-365.42-3.8975-2e-6m-3.2444 365.43h0.63501m2.6086 1e-5h3.8975m5.5597-365.43 7e-4 365.42m-12.065-365.42-0.63491 1.3e-5m-169.85 91.352-4e-5 -2.5377m3.8154 2.5377 4e-5 -2.5377m5.4e-4 93.891 4e-5 -2.5377m5.4e-4 93.891-5e-5 -2.5377m-24.158-88.818-4e-5 -2.5377m3.5e-4 -88.819 4e-5 -2.5377m12.09-4e-5 5e-5 2.5377m106.02 0-5e-5 -2.5377m-219.71 2.5382-5e-5 -2.5377m156.84 182.71-5e-5 2.5377m-5.3e-4 -93.891 4e-5 2.5377m-5.3e-4 -93.891 4e-5 2.5377m52.707 182.71 5e-5 -2.5377m30.48 2.5377 4e-5 -2.5376m-238.1-182.71 4e-5 2.5377m122.03 88.818 4e-5 2.5377m-50.912-2.5377 4e-5 2.5377m158.75 88.819-4e-5 2.5376m-120.04-7.7e-4 -4e-5 -2.5377m130.2 3.7e-4 4e-5 2.5377m-240.03-2.5379-4e-5 2.5376m248.25-8.3e-4 4e-5 -2.5377m-20.32-180.17-5e-5 -2.5377m-59.029 182.71-4e-5 2.5377m-160.68-91.356 4e-5 -2.5377m117.4 2.5378 4e-5 -2.5377m-46.275 2.5377-4e-5 -2.5377m107.95-88.818-5e-5 -2.5377m-146.66 182.71 5e-5 2.5377m18.389-91.352 4e-5 -2.5377m-40.64 2.5377 5e-5 -2.5377m181 3.1e-4 5e-5 2.5377m8.2296-2e-5 -4e-5 -2.5377m3.4e-4 -88.819-4e-5 -2.5377m42.57 91.357-4e-5 2.5376m-52.73-91.356-5e-5 -2.5377m73.05 182.72 4e-5 2.5377m18.72 91.356 0.63492-1e-5m-218.74-276.61-4e-5 2.5377m-50.8-2.5377 4e-5 2.5377m179.07-2.538 5e-5 2.5377m59.029 91.357 4e-5 -2.5377m-262.56-180.17-6.3499 4e-6m299.72-4.12e-4 -6.35-1.1e-5m-294 365.43h0.63501m49.2-274.07-5e-5 -2.5377m12.09 91.357-4e-5 2.5377m-5.4e-4 -93.891-4e-5 2.5377m138.43-2.5378 5e-5 2.5377m79.35 91.356 5e-5 -2.5377m-59.029-91.357 5e-5 2.5377m4.6e-4 180.17-4e-5 2.5377m-199.39-2.5375-4e-5 2.5376m250.19-2.538 4e-5 2.5377m-103.64-182.71-5e-5 -2.5377m-31.083 185.25-4e-5 -2.5377m142.95-180.18 4e-5 -2.5376m-81.279 93.89-5e-5 -2.5377m-95.86-91.357-5e-5 2.5377m87.629-2.5373 5e-5 2.5377m-69.24 91.357-4e-5 -2.5377m109.88 91.355-4e-5 2.5377m-97.677-185.25-5e-5 2.5377m-101.71 180.17-4e-5 2.5376m227.94-182.71-4e-5 -2.5377m10.16 2.5376 4e-5 -2.5376m-59.029 182.71-4e-5 2.5377m-118.11-93.894 4e-5 2.5377m136.5 2.1e-4 5e-5 -2.5377m-136.5-91.356-4e-5 2.5376m8.2296-1e-5 5e-5 -2.5377m148.59 93.894 5e-5 -2.5377m1.9313-91.359 5e-5 2.5377m-150.52 182.72-5e-5 -2.5377m79.399-91.353 5e-5 2.5377m-160.68-91.356-5e-5 -2.5377m148.48 185.25 4e-5 -2.5377m3.5e-4 -88.819-5e-5 -2.5377m111.87 93.895-5e-5 -2.5377m-48.869-182.72 4e-5 2.5377m60.96-2.5373-4e-5 2.5376m-179.07 88.823 5e-5 2.5377m126.34 6e-4 4e-5 -2.5377m-60.96-88.818 4e-5 -2.5377m83.208 182.71 4e-5 2.5377m-128.16-2.5382 5e-5 2.5377m162.63-91.105c1.0161-0.76129 1.0161-2.284 2e-5 -3.0452m-14.148-91.102-4e-5 2.5377m-170.84 182.72-4e-5 -2.5377m-69.192-182.72-4e-5 2.5377m136.5 91.356-4e-5 -2.5377m111.76 93.894-4e-5 -2.5377m-38.71-91.357-4e-5 2.5377m18.39 91.357-4e-5 -2.5377m-264.33-91.61c-1.0161 0.76128-1.0161 2.284-2e-5 3.0452m16.078-2.7915-5e-5 2.5377m71.12 88.819 4e-5 2.5377m-20.32-185.25-5e-5 2.5376m-1.9302 182.71-4e-5 -2.5377m-65.63-91.852c-0.95265 0.9838-0.95271 2.5452 1e-5 3.529m45.31 90.861-5e-5 -2.5377m10.16-180.18 4e-5 -2.5376m148.59 93.894-5e-5 -2.5377m87.884 94.39c0.95266-0.9838 0.95262-2.5452 0-3.529m-287.27-88.323-4e-5 -2.5377m155.04-91.358 5e-5 2.5377m84.984-1.7e-4 -4e-5 -2.5377m46.558 2.7915c1.0161-0.76128 1.0161-2.284 2e-5 -3.0452m-195.15 94.145-4e-5 -2.5377m195.83-88.325c0.95266-0.98381 0.95263-2.5452 0-3.529m-291.25 182.96c-1.016 0.76129-1.016 2.2839-1e-5 3.0452m16.078-185.5 5e-5 2.5377m148.57 180.17 5e-5 2.5377m-107.93-2.5376 5e-5 2.5377m118.11-185.25 5e-5 2.5377m-175.51 179.68c-0.95265 0.98381-0.95271 2.5452 1e-5 3.529m3.2e-4 -186.24c-0.95266 0.9838-0.95271 2.5452 1e-5 3.529m118.36 179.68-4e-5 2.5377m46.967-93.892-4e-5 2.5376m-128.25-2.5382-5e-5 2.5377m122.63 88.819-4e-5 2.5376m76.754-185.25 4e-5 2.5377m-235.79-2.7922c-1.0161 0.76128-1.0161 2.284-2e-5 3.0452m225.63 88.565-5e-5 2.5376m-128.27 88.819 4e-5 2.5377m75.539 6e-5 -4e-5 -2.5377m62.89-91.359-4e-5 2.5376m-211.48 91.357 4e-5 -2.5377m12.09-4e-5 5e-5 2.5377m146.66-182.71 4e-5 -2.5377m83.209 91.356-5e-5 2.5376m-191.16-91.356 4e-5 -2.5377m-30.48 93.895 5e-5 -2.5377m81.303 93.895 4e-5 -2.5377m158.72-180.18 4e-5 -2.5376m-229.87 93.896 4e-5 -2.5377m52.73-91.355-5e-5 2.5377m146.65 91.355 4e-5 -2.5377m-138.43-88.819 5e-5 -2.5377m-109.83 91.356-4e-5 2.5377m125.63-91.355 5e-5 -2.5377m155.05 182.71 4e-5 2.5377m-219.71-93.894-5e-5 2.5376m128.27 88.819-4e-5 2.5377m20.319-93.891-5e-5 2.5377m-12.09 91.355 4e-5 -2.5377m30.48 2.5377 4e-5 -2.5377m-229.87 2.5372 4e-5 -2.5376m252.12-182.72-5e-5 2.5376m-209.55-2.5376-5e-5 2.5376m28.549 182.72-5e-5 -2.5377m107.95 2.5383 4e-5 -2.5377m-97.791-180.18 4e-5 -2.5376m22.251 182.71-5e-5 2.5377m77.47-93.893 4e-5 2.5377m-25.955-2.5377-5e-5 2.5376m132.23 0.49561c0.95266-0.9838 0.95263-2.5452 0-3.529m-265.01 0.49671-5e-5 2.5377m50.8 88.818 4e-5 2.5377m20.319-93.891 5e-5 2.5377m20.32-2.5377 5e-5 2.5377m-62.89 91.359-5e-5 -2.5377m240.99-271.53-0.63501 7e-6m-260.68 274.07 4e-5 -2.5377m158.75 2.5377 4e-5 -2.5377m-118.11-88.818 5e-5 -2.5377m191.16-91.357-5e-5 2.5377m-270.84 274.07 299.72-4.2e-4m-112.09-182.71-5e-5 -2.5377m-168.91 93.897 4e-5 -2.5377m181-91.352 5e-5 2.5377m28.55 91.357 5e-5 -2.5376m-156.82-8.2e-4 5e-5 2.5377m97.766-185.25-4e-5 2.5376m-99.701-8.7e-4 4e-5 -2.5376m60.983 93.894-4e-5 -2.5377m-91.467 2.5373 5e-5 -2.5376m50.799 93.894-4e-5 -2.5377m-89.838-271.53-0.635-2e-6m29.515 91.356-4e-5 -2.5377m266.27 185.51c1.0161-0.76128 1.0161-2.284 2e-5 -3.0452m-14.148-91.102-5e-5 2.5377m10.16-2.5377 4e-5 2.5377m-252.12-91.357-4e-5 -2.5377m12.09 91.357-4e-5 2.5377m238.1-4.4e-4 4e-5 -2.5377m-99.67 91.361-4e-5 2.5376"
       fill="none"
       stroke-linecap="round"
       stroke-linejoin="round"
       stroke-width="1.1236"
       id="path76" /></g></svg>
