<svg width="1032.5" height="679.4" version="1.1" xml:space="preserve" xmlns="http://www.w3.org/2000/svg"><path transform="matrix(.90734 0 0 .90538 -288.22 13.436)" d="m854.65 44.817h5.5748m-7.4271 3.2247 0.0196-1.2066 9.2413 0.0094 0.0177 1.1978m-4e-5 -0.90832c4e-5 -1.1101-0.76875-2.0722-1.8515-2.317m-5.5748 0c-1.0828 0.24483-1.8515 1.2069-1.8515 2.317m153.61-2.3188h5.5749m-7.4271 3.2247 0.02-1.2066 9.2412 0.0094 0.018 1.1978m0-0.90832c0-1.1101-0.7688-2.0722-1.8515-2.317m-5.5749 0c-1.0827 0.24483-1.8515 1.2069-1.8515 2.317m35.828-2.24h5.5749m-7.4272 3.2247 0.02-1.2066 9.2413 0.0094 0.018 1.1978m0-0.90832c0-1.1101-0.7688-2.0722-1.8515-2.317m-5.5749 0c-1.0827 0.24483-1.8515 1.2069-1.8515 2.317m154.06-2.3962h5.5748m-7.4271 3.2247 0.02-1.2066 9.2413 0.0094 0.018 1.1978m0-0.90832c0-1.1101-0.7688-2.0722-1.8516-2.317m-5.5748 0c-1.0827 0.24483-1.8515 1.2069-1.8515 2.317m-5.8415 453.56-1.1591 1.6894-1.7383-1.0797-0.7308 1.1211 1.6847 1.1611-1.077 1.743 1.118 0.73239 1.161-1.6894 1.7379 1.0803 0.7598-1.2518-1.7141-1.0307 1.0774-1.7426zm3.9135 2.706c0 2.6908-2.1769 4.8722-4.8622 4.8722s-4.8622-2.1814-4.8622-4.8722 2.1769-4.8722 4.8622-4.8722 4.8622 2.1814 4.8622 4.8722zm-319.4-2.706-1.159 1.6894-1.7383-1.0797-0.73078 1.1211 1.6847 1.1611-1.077 1.743 1.118 0.73239 1.161-1.6894 1.7379 1.0803 0.75981-1.2518-1.7141-1.0307 1.0774-1.7426zm3.9135 2.706c0 2.6908-2.1769 4.8722-4.8622 4.8722s-4.8622-2.1814-4.8622-4.8722 2.1769-4.8722 4.8622-4.8722 4.8622 2.1814 4.8622 4.8722zm311.57 39.258-1.1591 1.6894-1.7383-1.0797-0.7308 1.1211 1.6847 1.1611-1.077 1.743 1.118 0.73239 1.161-1.6894 1.7379 1.0803 0.7598-1.2518-1.7141-1.0307 1.0774-1.7426zm3.9135 2.706c0 2.6908-2.1769 4.8722-4.8622 4.8722s-4.8622-2.1814-4.8622-4.8722 2.1769-4.8722 4.8622-4.8722 4.8622 2.1814 4.8622 4.8722zm-67.01-2.706-1.1591 1.6894-1.7383-1.0797-0.7308 1.1211 1.6847 1.1611-1.077 1.743 1.118 0.73239 1.161-1.6894 1.7379 1.0803 0.7598-1.2518-1.7141-1.0307 1.0774-1.7426zm3.9135 2.706c0 2.6908-2.1769 4.8722-4.8622 4.8722s-4.8622-2.1814-4.8622-4.8722 2.1769-4.8722 4.8622-4.8722 4.8622 2.1814 4.8622 4.8722zm-67.01-2.706-1.159 1.6894-1.7383-1.0797-0.7308 1.1211 1.6847 1.1611-1.077 1.743 1.1179 0.73239 1.1611-1.6894 1.7378 1.0803 0.7599-1.2518-1.7142-1.0307 1.0774-1.7426zm3.9135 2.706c0 2.6908-2.1769 4.8722-4.8622 4.8722s-4.8622-2.1814-4.8622-4.8722 2.1769-4.8722 4.8622-4.8722 4.8622 2.1814 4.8622 4.8722zm-67.01-2.706-1.159 1.6894-1.7383-1.0797-0.73078 1.1211 1.6847 1.1611-1.077 1.743 1.118 0.73239 1.161-1.6894 1.7379 1.0803 0.75981-1.2518-1.7141-1.0307 1.0774-1.7426zm3.9135 2.706c0 2.6908-2.1769 4.8722-4.8622 4.8722s-4.8622-2.1814-4.8622-4.8722 2.1769-4.8722 4.8622-4.8722 4.8622 2.1814 4.8622 4.8722zm-67.01-2.706-1.159 1.6894-1.7383-1.0797-0.73078 1.1211 1.6847 1.1611-1.077 1.743 1.118 0.73239 1.161-1.6894 1.7379 1.0803 0.75981-1.2518-1.7141-1.0307 1.0774-1.7426zm3.9135 2.706c0 2.6908-2.1769 4.8722-4.8622 4.8722s-4.8622-2.1814-4.8622-4.8722 2.1769-4.8722 4.8622-4.8722 4.8622 2.1814 4.8622 4.8722zm-67.01-2.706-1.159 1.6894-1.7383-1.0797-0.73078 1.1211 1.6847 1.1611-1.077 1.743 1.118 0.73239 1.161-1.6894 1.7379 1.0803 0.75981-1.2518-1.7141-1.0307 1.0774-1.7426zm3.9135 2.706c0 2.6908-2.1769 4.8722-4.8622 4.8722s-4.8622-2.1814-4.8622-4.8722 2.1769-4.8722 4.8622-4.8722 4.8622 2.1814 4.8622 4.8722zm311.57-86.658-1.1591 1.6894-1.7383-1.0797-0.7308 1.1211 1.6847 1.1611-1.077 1.743 1.118 0.73239 1.161-1.6894 1.7379 1.0803 0.7598-1.2518-1.7141-1.0307 1.0774-1.7426zm3.9135 2.706c0 2.6908-2.1769 4.8722-4.8622 4.8722s-4.8622-2.1814-4.8622-4.8722 2.1769-4.8722 4.8622-4.8722 4.8622 2.1814 4.8622 4.8722zm-67.01-2.706-1.1591 1.6894-1.7383-1.0797-0.7308 1.1211 1.6847 1.1611-1.077 1.743 1.118 0.73239 1.161-1.6894 1.7379 1.0803 0.7598-1.2518-1.7141-1.0307 1.0774-1.7426zm3.9135 2.706c0 2.6908-2.1769 4.8722-4.8622 4.8722s-4.8622-2.1814-4.8622-4.8722 2.1769-4.8722 4.8622-4.8722 4.8622 2.1814 4.8622 4.8722zm-67.01-2.706-1.159 1.6894-1.7383-1.0797-0.7308 1.1211 1.6847 1.1611-1.077 1.743 1.1179 0.73239 1.1611-1.6894 1.7378 1.0803 0.7599-1.2518-1.7142-1.0307 1.0774-1.7426zm3.9135 2.706c0 2.6908-2.1769 4.8722-4.8622 4.8722s-4.8622-2.1814-4.8622-4.8722 2.1769-4.8722 4.8622-4.8722 4.8622 2.1814 4.8622 4.8722zm-67.01-2.706-1.159 1.6894-1.7383-1.0797-0.73078 1.1211 1.6847 1.1611-1.077 1.743 1.118 0.73239 1.161-1.6894 1.7379 1.0803 0.75981-1.2518-1.7141-1.0307 1.0774-1.7426zm3.9135 2.706c0 2.6908-2.1769 4.8722-4.8622 4.8722s-4.8622-2.1814-4.8622-4.8722 2.1769-4.8722 4.8622-4.8722 4.8622 2.1814 4.8622 4.8722zm-67.01-2.706-1.159 1.6894-1.7383-1.0797-0.73078 1.1211 1.6847 1.1611-1.077 1.743 1.118 0.73239 1.161-1.6894 1.7379 1.0803 0.75981-1.2518-1.7141-1.0307 1.0774-1.7426zm3.9135 2.706c0 2.6908-2.1769 4.8722-4.8622 4.8722s-4.8622-2.1814-4.8622-4.8722 2.1769-4.8722 4.8622-4.8722 4.8622 2.1814 4.8622 4.8722zm-67.01-2.706-1.159 1.6894-1.7383-1.0797-0.73078 1.1211 1.6847 1.1611-1.077 1.743 1.118 0.73239 1.161-1.6894 1.7379 1.0803 0.75981-1.2518-1.7141-1.0307 1.0774-1.7426zm3.9135 2.706c0 2.6908-2.1769 4.8722-4.8622 4.8722s-4.8622-2.1814-4.8622-4.8722 2.1769-4.8722 4.8622-4.8722 4.8622 2.1814 4.8622 4.8722zm311.57-62.115-1.1591 1.6894-1.7383-1.0797-0.7308 1.1211 1.6847 1.1611-1.077 1.743 1.118 0.73239 1.161-1.6894 1.7379 1.0803 0.7598-1.2518-1.7141-1.0307 1.0774-1.7426zm3.9135 2.706c0 2.6908-2.1769 4.8722-4.8622 4.8722s-4.8622-2.1814-4.8622-4.8722 2.1769-4.8722 4.8622-4.8722 4.8622 2.1814 4.8622 4.8722zm-319.4-2.706-1.159 1.6894-1.7383-1.0797-0.73078 1.1211 1.6847 1.1611-1.077 1.743 1.118 0.73239 1.161-1.6894 1.7379 1.0803 0.75981-1.2518-1.7141-1.0307 1.0774-1.7426zm3.9135 2.706c0 2.6908-2.1769 4.8722-4.8622 4.8722s-4.8622-2.1814-4.8622-4.8722 2.1769-4.8722 4.8622-4.8722 4.8622 2.1814 4.8622 4.8722zm311.57 39.258-1.1591 1.6894-1.7383-1.0796-0.7308 1.1211 1.6847 1.1611-1.077 1.743 1.118 0.73239 1.161-1.6894 1.7379 1.0803 0.7598-1.2518-1.7141-1.0307 1.0774-1.7426zm3.9135 2.7061c0 2.6908-2.1769 4.8722-4.8622 4.8722s-4.8622-2.1814-4.8622-4.8722 2.1769-4.8722 4.8622-4.8722 4.8622 2.1814 4.8622 4.8722zm-67.01-2.7061-1.1591 1.6894-1.7383-1.0796-0.7308 1.1211 1.6847 1.1611-1.077 1.743 1.118 0.73239 1.161-1.6894 1.7379 1.0803 0.7598-1.2518-1.7141-1.0307 1.0774-1.7426zm3.9135 2.7061c0 2.6908-2.1769 4.8722-4.8622 4.8722s-4.8622-2.1814-4.8622-4.8722 2.1769-4.8722 4.8622-4.8722 4.8622 2.1814 4.8622 4.8722zm-67.01-2.7061-1.159 1.6894-1.7383-1.0796-0.7308 1.1211 1.6847 1.1611-1.077 1.743 1.1179 0.73239 1.1611-1.6894 1.7378 1.0803 0.7599-1.2518-1.7142-1.0307 1.0774-1.7426zm3.9135 2.7061c0 2.6908-2.1769 4.8722-4.8622 4.8722s-4.8622-2.1814-4.8622-4.8722 2.1769-4.8722 4.8622-4.8722 4.8622 2.1814 4.8622 4.8722zm-67.01-2.7061-1.159 1.6894-1.7383-1.0796-0.73078 1.1211 1.6847 1.1611-1.077 1.743 1.118 0.73239 1.161-1.6894 1.7379 1.0803 0.75981-1.2518-1.7141-1.0307 1.0774-1.7426zm3.9135 2.7061c0 2.6908-2.1769 4.8722-4.8622 4.8722s-4.8622-2.1814-4.8622-4.8722 2.1769-4.8722 4.8622-4.8722 4.8622 2.1814 4.8622 4.8722zm-67.01-2.7061-1.159 1.6894-1.7383-1.0796-0.73078 1.1211 1.6847 1.1611-1.077 1.743 1.118 0.73239 1.161-1.6894 1.7379 1.0803 0.75981-1.2518-1.7141-1.0307 1.0774-1.7426zm3.9135 2.7061c0 2.6908-2.1769 4.8722-4.8622 4.8722s-4.8622-2.1814-4.8622-4.8722 2.1769-4.8722 4.8622-4.8722 4.8622 2.1814 4.8622 4.8722zm-67.01-2.7061-1.159 1.6894-1.7383-1.0796-0.73078 1.1211 1.6847 1.1611-1.077 1.743 1.118 0.73239 1.161-1.6894 1.7379 1.0803 0.75981-1.2518-1.7141-1.0307 1.0774-1.7426zm3.9135 2.7061c0 2.6908-2.1769 4.8722-4.8622 4.8722s-4.8622-2.1814-4.8622-4.8722 2.1769-4.8722 4.8622-4.8722 4.8622 2.1814 4.8622 4.8722zm311.57-86.658-1.1591 1.6894-1.7383-1.0797-0.7308 1.1211 1.6847 1.1611-1.077 1.743 1.118 0.73239 1.161-1.6894 1.7379 1.0803 0.7598-1.2518-1.7141-1.0307 1.0774-1.7426zm3.9135 2.706c0 2.6908-2.1769 4.8722-4.8622 4.8722s-4.8622-2.1814-4.8622-4.8722 2.1769-4.8722 4.8622-4.8722 4.8622 2.1814 4.8622 4.8722zm-67.01-2.706-1.1591 1.6894-1.7383-1.0797-0.7308 1.1211 1.6847 1.1611-1.077 1.743 1.118 0.73239 1.161-1.6894 1.7379 1.0803 0.7598-1.2518-1.7141-1.0307 1.0774-1.7426zm3.9135 2.706c0 2.6908-2.1769 4.8722-4.8622 4.8722s-4.8622-2.1814-4.8622-4.8722 2.1769-4.8722 4.8622-4.8722 4.8622 2.1814 4.8622 4.8722zm-67.01-2.706-1.159 1.6894-1.7383-1.0797-0.7308 1.1211 1.6847 1.1611-1.077 1.743 1.1179 0.73239 1.1611-1.6894 1.7378 1.0803 0.7599-1.2518-1.7142-1.0307 1.0774-1.7426zm3.9135 2.706c0 2.6908-2.1769 4.8722-4.8622 4.8722s-4.8622-2.1814-4.8622-4.8722 2.1769-4.8722 4.8622-4.8722 4.8622 2.1814 4.8622 4.8722zm-67.01-2.706-1.159 1.6894-1.7383-1.0797-0.73078 1.1211 1.6847 1.1611-1.077 1.743 1.118 0.73239 1.161-1.6894 1.7379 1.0803 0.75981-1.2518-1.7141-1.0307 1.0774-1.7426zm3.9135 2.706c0 2.6908-2.1769 4.8722-4.8622 4.8722s-4.8622-2.1814-4.8622-4.8722 2.1769-4.8722 4.8622-4.8722 4.8622 2.1814 4.8622 4.8722zm-67.01-2.706-1.159 1.6894-1.7383-1.0797-0.73078 1.1211 1.6847 1.1611-1.077 1.743 1.118 0.73239 1.161-1.6894 1.7379 1.0803 0.75981-1.2518-1.7141-1.0307 1.0774-1.7426zm3.9135 2.706c0 2.6908-2.1769 4.8722-4.8622 4.8722s-4.8622-2.1814-4.8622-4.8722 2.1769-4.8722 4.8622-4.8722 4.8622 2.1814 4.8622 4.8722zm-67.01-2.706-1.159 1.6894-1.7383-1.0797-0.73078 1.1211 1.6847 1.1611-1.077 1.743 1.118 0.73239 1.161-1.6894 1.7379 1.0803 0.75981-1.2518-1.7141-1.0307 1.0774-1.7426zm3.9135 2.706c0 2.6908-2.1769 4.8722-4.8622 4.8722s-4.8622-2.1814-4.8622-4.8722 2.1769-4.8722 4.8622-4.8722 4.8622 2.1814 4.8622 4.8722zm311.57-61.456-1.1591 1.6894-1.7383-1.0797-0.7308 1.1211 1.6847 1.1611-1.077 1.743 1.118 0.73239 1.161-1.6894 1.7379 1.0803 0.7598-1.2518-1.7141-1.0307 1.0774-1.7426zm3.9135 2.706c0 2.6908-2.1769 4.8722-4.8622 4.8722s-4.8622-2.1814-4.8622-4.8722 2.1769-4.8722 4.8622-4.8722 4.8622 2.1814 4.8622 4.8722zm-319.4-2.706-1.159 1.6894-1.7383-1.0797-0.73078 1.1211 1.6847 1.1611-1.077 1.743 1.118 0.73239 1.161-1.6894 1.7379 1.0803 0.75981-1.2518-1.7141-1.0307 1.0774-1.7426zm3.9135 2.706c0 2.6908-2.1769 4.8722-4.8622 4.8722s-4.8622-2.1814-4.8622-4.8722 2.1769-4.8722 4.8622-4.8722 4.8622 2.1814 4.8622 4.8722zm311.57 39.258-1.1591 1.6894-1.7383-1.0797-0.7308 1.1211 1.6847 1.1611-1.077 1.743 1.118 0.73239 1.161-1.6894 1.7379 1.0803 0.7598-1.2518-1.7141-1.0307 1.0774-1.7426zm3.9135 2.706c0 2.6908-2.1769 4.8722-4.8622 4.8722s-4.8622-2.1814-4.8622-4.8722 2.1769-4.8722 4.8622-4.8722 4.8622 2.1814 4.8622 4.8722zm-67.01-2.706-1.1591 1.6894-1.7383-1.0797-0.7308 1.1211 1.6847 1.1611-1.077 1.743 1.118 0.73239 1.161-1.6894 1.7379 1.0803 0.7598-1.2518-1.7141-1.0307 1.0774-1.7426zm3.9135 2.706c0 2.6908-2.1769 4.8722-4.8622 4.8722s-4.8622-2.1814-4.8622-4.8722 2.1769-4.8722 4.8622-4.8722 4.8622 2.1814 4.8622 4.8722zm-67.01-2.706-1.159 1.6894-1.7383-1.0797-0.7308 1.1211 1.6847 1.1611-1.077 1.743 1.1179 0.73239 1.1611-1.6894 1.7378 1.0803 0.7599-1.2518-1.7142-1.0307 1.0774-1.7426zm3.9135 2.706c0 2.6908-2.1769 4.8722-4.8622 4.8722s-4.8622-2.1814-4.8622-4.8722 2.1769-4.8722 4.8622-4.8722 4.8622 2.1814 4.8622 4.8722zm-67.01-2.706-1.159 1.6894-1.7383-1.0797-0.73078 1.1211 1.6847 1.1611-1.077 1.743 1.118 0.73239 1.161-1.6894 1.7379 1.0803 0.75981-1.2518-1.7141-1.0307 1.0774-1.7426zm3.9135 2.706c0 2.6908-2.1769 4.8722-4.8622 4.8722s-4.8622-2.1814-4.8622-4.8722 2.1769-4.8722 4.8622-4.8722 4.8622 2.1814 4.8622 4.8722zm-67.01-2.706-1.159 1.6894-1.7383-1.0797-0.73078 1.1211 1.6847 1.1611-1.077 1.743 1.118 0.73239 1.161-1.6894 1.7379 1.0803 0.75981-1.2518-1.7141-1.0307 1.0774-1.7426zm3.9135 2.706c0 2.6908-2.1769 4.8722-4.8622 4.8722s-4.8622-2.1814-4.8622-4.8722 2.1769-4.8722 4.8622-4.8722 4.8622 2.1814 4.8622 4.8722zm-67.01-2.706-1.159 1.6894-1.7383-1.0797-0.73078 1.1211 1.6847 1.1611-1.077 1.743 1.118 0.73239 1.161-1.6894 1.7379 1.0803 0.75981-1.2518-1.7141-1.0307 1.0774-1.7426zm3.9135 2.706c0 2.6908-2.1769 4.8722-4.8622 4.8722s-4.8622-2.1814-4.8622-4.8722 2.1769-4.8722 4.8622-4.8722 4.8622 2.1814 4.8622 4.8722zm311.57-86.658-1.1591 1.6894-1.7383-1.0797-0.7308 1.1211 1.6847 1.1611-1.077 1.743 1.118 0.73239 1.161-1.6894 1.7379 1.0803 0.7598-1.2518-1.7141-1.0307 1.0774-1.7426zm3.9135 2.706c0 2.6908-2.1769 4.8722-4.8622 4.8722s-4.8622-2.1814-4.8622-4.8722 2.1769-4.8722 4.8622-4.8722 4.8622 2.1814 4.8622 4.8722zm-67.01-2.706-1.1591 1.6894-1.7383-1.0797-0.7308 1.1211 1.6847 1.1611-1.077 1.743 1.118 0.73239 1.161-1.6894 1.7379 1.0803 0.7598-1.2518-1.7141-1.0307 1.0774-1.7426zm3.9135 2.706c0 2.6908-2.1769 4.8722-4.8622 4.8722s-4.8622-2.1814-4.8622-4.8722 2.1769-4.8722 4.8622-4.8722 4.8622 2.1814 4.8622 4.8722zm-67.01-2.706-1.159 1.6894-1.7383-1.0797-0.7308 1.1211 1.6847 1.1611-1.077 1.743 1.1179 0.73239 1.1611-1.6894 1.7378 1.0803 0.7599-1.2518-1.7142-1.0307 1.0774-1.7426zm3.9135 2.706c0 2.6908-2.1769 4.8722-4.8622 4.8722s-4.8622-2.1814-4.8622-4.8722 2.1769-4.8722 4.8622-4.8722 4.8622 2.1814 4.8622 4.8722zm-67.01-2.706-1.159 1.6894-1.7383-1.0797-0.73078 1.1211 1.6847 1.1611-1.077 1.743 1.118 0.73239 1.161-1.6894 1.7379 1.0803 0.75981-1.2518-1.7141-1.0307 1.0774-1.7426zm3.9135 2.706c0 2.6908-2.1769 4.8722-4.8622 4.8722s-4.8622-2.1814-4.8622-4.8722 2.1769-4.8722 4.8622-4.8722 4.8622 2.1814 4.8622 4.8722zm-67.01-2.706-1.159 1.6894-1.7383-1.0797-0.73078 1.1211 1.6847 1.1611-1.077 1.743 1.118 0.73239 1.161-1.6894 1.7379 1.0803 0.75981-1.2518-1.7141-1.0307 1.0774-1.7426zm3.9135 2.706c0 2.6908-2.1769 4.8722-4.8622 4.8722s-4.8622-2.1814-4.8622-4.8722 2.1769-4.8722 4.8622-4.8722 4.8622 2.1814 4.8622 4.8722zm-67.01-2.706-1.159 1.6894-1.7383-1.0797-0.73078 1.1211 1.6847 1.1611-1.077 1.743 1.118 0.73239 1.161-1.6894 1.7379 1.0803 0.75981-1.2518-1.7141-1.0307 1.0774-1.7426zm3.9135 2.706c0 2.6908-2.1769 4.8722-4.8622 4.8722s-4.8622-2.1814-4.8622-4.8722 2.1769-4.8722 4.8622-4.8722 4.8622 2.1814 4.8622 4.8722zm311.57-61.406-1.1591 1.6894-1.7383-1.0796-0.7308 1.1211 1.6847 1.1611-1.077 1.743 1.118 0.73239 1.161-1.6894 1.7379 1.0803 0.7598-1.2518-1.7141-1.0307 1.0774-1.7426zm3.9135 2.7061c0 2.6908-2.1769 4.8722-4.8622 4.8722s-4.8622-2.1814-4.8622-4.8722 2.1769-4.8722 4.8622-4.8722 4.8622 2.1814 4.8622 4.8722zm-319.4-2.7061-1.159 1.6894-1.7383-1.0796-0.73078 1.1211 1.6847 1.1611-1.077 1.743 1.118 0.73239 1.161-1.6894 1.7379 1.0803 0.75981-1.2518-1.7141-1.0307 1.0774-1.7426zm3.9135 2.7061c0 2.6908-2.1769 4.8722-4.8622 4.8722s-4.8622-2.1814-4.8622-4.8722 2.1769-4.8722 4.8622-4.8722 4.8622 2.1814 4.8622 4.8722zm311.57 39.258-1.1591 1.6894-1.7383-1.0797-0.7308 1.1211 1.6847 1.1611-1.077 1.743 1.118 0.73239 1.161-1.6894 1.7379 1.0803 0.7598-1.2518-1.7141-1.0307 1.0774-1.7426zm3.9135 2.706c0 2.6908-2.1769 4.8722-4.8622 4.8722s-4.8622-2.1814-4.8622-4.8722 2.1769-4.8722 4.8622-4.8722 4.8622 2.1814 4.8622 4.8722zm-67.01-2.706-1.1591 1.6894-1.7383-1.0797-0.7308 1.1211 1.6847 1.1611-1.077 1.743 1.118 0.73239 1.161-1.6894 1.7379 1.0803 0.7598-1.2518-1.7141-1.0307 1.0774-1.7426zm3.9135 2.706c0 2.6908-2.1769 4.8722-4.8622 4.8722s-4.8622-2.1814-4.8622-4.8722 2.1769-4.8722 4.8622-4.8722 4.8622 2.1814 4.8622 4.8722zm-67.01-2.706-1.159 1.6894-1.7383-1.0797-0.7308 1.1211 1.6847 1.1611-1.077 1.743 1.1179 0.73239 1.1611-1.6894 1.7378 1.0803 0.7599-1.2518-1.7142-1.0307 1.0774-1.7426zm3.9135 2.706c0 2.6908-2.1769 4.8722-4.8622 4.8722s-4.8622-2.1814-4.8622-4.8722 2.1769-4.8722 4.8622-4.8722 4.8622 2.1814 4.8622 4.8722zm-67.01-2.706-1.159 1.6894-1.7383-1.0797-0.73078 1.1211 1.6847 1.1611-1.077 1.743 1.118 0.73239 1.161-1.6894 1.7379 1.0803 0.75981-1.2518-1.7141-1.0307 1.0774-1.7426zm3.9135 2.706c0 2.6908-2.1769 4.8722-4.8622 4.8722s-4.8622-2.1814-4.8622-4.8722 2.1769-4.8722 4.8622-4.8722 4.8622 2.1814 4.8622 4.8722zm-67.01-2.706-1.159 1.6894-1.7383-1.0797-0.73078 1.1211 1.6847 1.1611-1.077 1.743 1.118 0.73239 1.161-1.6894 1.7379 1.0803 0.75981-1.2518-1.7141-1.0307 1.0774-1.7426zm3.9135 2.706c0 2.6908-2.1769 4.8722-4.8622 4.8722s-4.8622-2.1814-4.8622-4.8722 2.1769-4.8722 4.8622-4.8722 4.8622 2.1814 4.8622 4.8722zm-67.01-2.706-1.159 1.6894-1.7383-1.0797-0.73078 1.1211 1.6847 1.1611-1.077 1.743 1.118 0.73239 1.161-1.6894 1.7379 1.0803 0.75981-1.2518-1.7141-1.0307 1.0774-1.7426zm3.9135 2.706c0 2.6908-2.1769 4.8722-4.8622 4.8722s-4.8622-2.1814-4.8622-4.8722 2.1769-4.8722 4.8622-4.8722 4.8622 2.1814 4.8622 4.8722zm311.57-86.658-1.1591 1.6894-1.7383-1.0797-0.7308 1.1211 1.6847 1.1611-1.077 1.743 1.118 0.73239 1.161-1.6894 1.7379 1.0803 0.7598-1.2518-1.7141-1.0307 1.0774-1.7426zm3.9135 2.706c0 2.6908-2.1769 4.8722-4.8622 4.8722s-4.8622-2.1814-4.8622-4.8722 2.1769-4.8722 4.8622-4.8722 4.8622 2.1814 4.8622 4.8722zm-67.01-2.706-1.1591 1.6894-1.7383-1.0797-0.7308 1.1211 1.6847 1.1611-1.077 1.743 1.118 0.73239 1.161-1.6894 1.7379 1.0803 0.7598-1.2518-1.7141-1.0307 1.0774-1.7426zm3.9135 2.706c0 2.6908-2.1769 4.8722-4.8622 4.8722s-4.8622-2.1814-4.8622-4.8722 2.1769-4.8722 4.8622-4.8722 4.8622 2.1814 4.8622 4.8722zm-67.01-2.706-1.159 1.6894-1.7383-1.0797-0.7308 1.1211 1.6847 1.1611-1.077 1.743 1.1179 0.73239 1.1611-1.6894 1.7378 1.0803 0.7599-1.2518-1.7142-1.0307 1.0774-1.7426zm3.9135 2.706c0 2.6908-2.1769 4.8722-4.8622 4.8722s-4.8622-2.1814-4.8622-4.8722 2.1769-4.8722 4.8622-4.8722 4.8622 2.1814 4.8622 4.8722zm-67.01-2.706-1.159 1.6894-1.7383-1.0797-0.73078 1.1211 1.6847 1.1611-1.077 1.743 1.118 0.73239 1.161-1.6894 1.7379 1.0803 0.75981-1.2518-1.7141-1.0307 1.0774-1.7426zm3.9135 2.706c0 2.6908-2.1769 4.8722-4.8622 4.8722s-4.8622-2.1814-4.8622-4.8722 2.1769-4.8722 4.8622-4.8722 4.8622 2.1814 4.8622 4.8722zm-67.01-2.706-1.159 1.6894-1.7383-1.0797-0.73078 1.1211 1.6847 1.1611-1.077 1.743 1.118 0.73239 1.161-1.6894 1.7379 1.0803 0.75981-1.2518-1.7141-1.0307 1.0774-1.7426zm3.9135 2.706c0 2.6908-2.1769 4.8722-4.8622 4.8722s-4.8622-2.1814-4.8622-4.8722 2.1769-4.8722 4.8622-4.8722 4.8622 2.1814 4.8622 4.8722zm-67.01-2.706-1.159 1.6894-1.7383-1.0797-0.73078 1.1211 1.6847 1.1611-1.077 1.743 1.118 0.73239 1.161-1.6894 1.7379 1.0803 0.75981-1.2518-1.7141-1.0307 1.0774-1.7426zm3.9135 2.706c0 2.6908-2.1769 4.8722-4.8622 4.8722s-4.8622-2.1814-4.8622-4.8722 2.1769-4.8722 4.8622-4.8722 4.8622 2.1814 4.8622 4.8722zm311.57-61.456-1.1591 1.6894-1.7383-1.0797-0.7308 1.1211 1.6847 1.1611-1.077 1.743 1.118 0.73238 1.161-1.6894 1.7379 1.0803 0.7598-1.2518-1.7141-1.0307 1.0774-1.7426zm3.9135 2.706c0 2.6908-2.1769 4.8722-4.8622 4.8722s-4.8622-2.1814-4.8622-4.8722 2.1769-4.8722 4.8622-4.8722 4.8622 2.1814 4.8622 4.8722zm-319.4-2.706-1.159 1.6894-1.7383-1.0797-0.73078 1.1211 1.6847 1.1611-1.077 1.743 1.118 0.73238 1.161-1.6894 1.7379 1.0803 0.75981-1.2518-1.7141-1.0307 1.0774-1.7426zm3.9135 2.706c0 2.6908-2.1769 4.8722-4.8622 4.8722s-4.8622-2.1814-4.8622-4.8722 2.1769-4.8722 4.8622-4.8722 4.8622 2.1814 4.8622 4.8722zm311.57 39.258-1.1591 1.6894-1.7383-1.0796-0.7308 1.1211 1.6847 1.1611-1.077 1.743 1.118 0.73239 1.161-1.6894 1.7379 1.0803 0.7598-1.2518-1.7141-1.0307 1.0774-1.7426zm3.9135 2.706c0 2.6908-2.1769 4.8722-4.8622 4.8722s-4.8622-2.1814-4.8622-4.8722 2.1769-4.8722 4.8622-4.8722 4.8622 2.1814 4.8622 4.8722zm-67.01-2.706-1.1591 1.6894-1.7383-1.0796-0.7308 1.1211 1.6847 1.1611-1.077 1.743 1.118 0.73239 1.161-1.6894 1.7379 1.0803 0.7598-1.2518-1.7141-1.0307 1.0774-1.7426zm3.9135 2.706c0 2.6908-2.1769 4.8722-4.8622 4.8722s-4.8622-2.1814-4.8622-4.8722 2.1769-4.8722 4.8622-4.8722 4.8622 2.1814 4.8622 4.8722zm-67.01-2.706-1.159 1.6894-1.7383-1.0796-0.7308 1.1211 1.6847 1.1611-1.077 1.743 1.1179 0.73239 1.1611-1.6894 1.7378 1.0803 0.7599-1.2518-1.7142-1.0307 1.0774-1.7426zm3.9135 2.706c0 2.6908-2.1769 4.8722-4.8622 4.8722s-4.8622-2.1814-4.8622-4.8722 2.1769-4.8722 4.8622-4.8722 4.8622 2.1814 4.8622 4.8722zm-67.01-2.706-1.159 1.6894-1.7383-1.0796-0.73078 1.1211 1.6847 1.1611-1.077 1.743 1.118 0.73239 1.161-1.6894 1.7379 1.0803 0.75981-1.2518-1.7141-1.0307 1.0774-1.7426zm3.9135 2.706c0 2.6908-2.1769 4.8722-4.8622 4.8722s-4.8622-2.1814-4.8622-4.8722 2.1769-4.8722 4.8622-4.8722 4.8622 2.1814 4.8622 4.8722zm-67.01-2.706-1.159 1.6894-1.7383-1.0796-0.73078 1.1211 1.6847 1.1611-1.077 1.743 1.118 0.73239 1.161-1.6894 1.7379 1.0803 0.75981-1.2518-1.7141-1.0307 1.0774-1.7426zm3.9135 2.706c0 2.6908-2.1769 4.8722-4.8622 4.8722s-4.8622-2.1814-4.8622-4.8722 2.1769-4.8722 4.8622-4.8722 4.8622 2.1814 4.8622 4.8722zm-67.01-2.706-1.159 1.6894-1.7383-1.0796-0.73078 1.1211 1.6847 1.1611-1.077 1.743 1.118 0.73239 1.161-1.6894 1.7379 1.0803 0.75981-1.2518-1.7141-1.0307 1.0774-1.7426zm3.9135 2.706c0 2.6908-2.1769 4.8722-4.8622 4.8722s-4.8622-2.1814-4.8622-4.8722 2.1769-4.8722 4.8622-4.8722 4.8622 2.1814 4.8622 4.8722zm311.57-86.658-1.1591 1.6894-1.7383-1.0797-0.7308 1.1211 1.6847 1.1611-1.077 1.743 1.118 0.73239 1.161-1.6894 1.7379 1.0803 0.7598-1.2518-1.7141-1.0307 1.0774-1.7426zm3.9135 2.706c0 2.6908-2.1769 4.8722-4.8622 4.8722s-4.8622-2.1814-4.8622-4.8722 2.1769-4.8722 4.8622-4.8722 4.8622 2.1814 4.8622 4.8722zm-67.01-2.706-1.1591 1.6894-1.7383-1.0797-0.7308 1.1211 1.6847 1.1611-1.077 1.743 1.118 0.73239 1.161-1.6894 1.7379 1.0803 0.7598-1.2518-1.7141-1.0307 1.0774-1.7426zm3.9135 2.706c0 2.6908-2.1769 4.8722-4.8622 4.8722s-4.8622-2.1814-4.8622-4.8722 2.1769-4.8722 4.8622-4.8722 4.8622 2.1814 4.8622 4.8722zm-67.01-2.706-1.159 1.6894-1.7383-1.0797-0.7308 1.1211 1.6847 1.1611-1.077 1.743 1.1179 0.73239 1.1611-1.6894 1.7378 1.0803 0.7599-1.2518-1.7142-1.0307 1.0774-1.7426zm3.9135 2.706c0 2.6908-2.1769 4.8722-4.8622 4.8722s-4.8622-2.1814-4.8622-4.8722 2.1769-4.8722 4.8622-4.8722 4.8622 2.1814 4.8622 4.8722zm-67.01-2.706-1.159 1.6894-1.7383-1.0797-0.73078 1.1211 1.6847 1.1611-1.077 1.743 1.118 0.73239 1.161-1.6894 1.7379 1.0803 0.75981-1.2518-1.7141-1.0307 1.0774-1.7426zm3.9135 2.706c0 2.6908-2.1769 4.8722-4.8622 4.8722s-4.8622-2.1814-4.8622-4.8722 2.1769-4.8722 4.8622-4.8722 4.8622 2.1814 4.8622 4.8722zm-67.01-2.706-1.159 1.6894-1.7383-1.0797-0.73078 1.1211 1.6847 1.1611-1.077 1.743 1.118 0.73239 1.161-1.6894 1.7379 1.0803 0.75981-1.2518-1.7141-1.0307 1.0774-1.7426zm3.9135 2.706c0 2.6908-2.1769 4.8722-4.8622 4.8722s-4.8622-2.1814-4.8622-4.8722 2.1769-4.8722 4.8622-4.8722 4.8622 2.1814 4.8622 4.8722zm-67.01-2.706-1.159 1.6894-1.7383-1.0797-0.73078 1.1211 1.6847 1.1611-1.077 1.743 1.118 0.73239 1.161-1.6894 1.7379 1.0803 0.75981-1.2518-1.7141-1.0307 1.0774-1.7426zm3.9135 2.706c0 2.6908-2.1769 4.8722-4.8622 4.8722s-4.8622-2.1814-4.8622-4.8722 2.1769-4.8722 4.8622-4.8722 4.8622 2.1814 4.8622 4.8722zm353.76 425.3v1.3854m0 0v16.829m-9.7739 0v-16.829m0 0v-1.3854m-391.65 18.214v-6.4723m0 0v-11.742m9.7739 0v11.742m0 0v6.4723m380.83-18.915v19.616m-2.0944 0v-19.616m-375.6 0v19.616m-2.0944 0v-19.616m377.34-11.586h-3.4209m-0.7679 21.394h4.1888m-3.4209-20.845h3.4209m-371.48-0.54899h-3.4209m0 0.54899h3.4209m-3.4209 20.845h4.1888m17.104 160.78v-97.377m332.31 0v97.377m-19.548-11.209h-293.22m-22.416-590.92v-2.8022m46.851 604.58h-32.128m330.93-95.275h2.7925m-4.1888-1.7513v-3.1525m-354.65 4.9038h2.7926m3.3191-509.3v2.8022m342.33-2.8022v2.8022m-172.52 601.78h-111.7m269.49 0h-32.128m51.136-601.78v-2.8022m-6.804 608.78v-2.8022m-341.74-101.58v3.1525m290.42 97.027h-111.7m-170 4.2033v-2.8022m-12.916-511.14h-0.0838m0-11.171-0.2261 3e-3m0 0-0.22554 7e-3m0 0-0.22441 0.0126m0 0-0.22272 0.0167m0 0-0.22047 0.0214m0 0-0.21767 0.0261m0 0-0.21434 0.0307m0 0-0.21045 0.0352m0 0-0.20606 0.0395m0 0-0.20113 0.0439m0 0-0.1957 0.0481m0 0-0.18981 0.0521m0 0-0.18342 0.056m0 0-0.17657 0.06m0 0-0.1693 0.0636m0 0-0.16158 0.0671m0 0-0.15347 0.0705m0 0-0.14498 0.0736m0 0-0.13614 0.0766m0 0-0.12692 0.0793m0 0-0.11742 0.082m0 0-0.10766 0.0844m0 0-0.0975 0.0864m0 0-0.0873 0.0884m0 0-0.0767 0.0902m0 0-0.0659 0.0918m0 0-0.055 0.093m0 0-0.044 0.094m0 0-0.0328 0.0949m0 0-0.0216 0.0954m0 0-0.01 0.0958m0 0-9.7e-4 0.0399m4.5233-1.919v-4.8552m0 16.026v-11.171m0 11.958v-0.78703m363.53-8.8397-0.01-0.0716m0 0-0.017-0.0714m0 0-0.028-0.071m0 0-0.039-0.0705m0 0-0.051-0.0698m0 0-0.061-0.0689m0 0-0.072-0.0678m0 0-0.083-0.0667m0 0-0.093-0.0653m0 0-0.1035-0.0637m0 0-0.1133-0.0619m0 0-0.123-0.0601m0 0-0.1324-0.058m0 0-0.1413-0.0559m0 0-0.15-0.0537m0 0-0.1582-0.0511m0 0-0.1662-0.0486m0 0-0.1736-0.046m0 0-0.1806-0.0431m0 0-0.1872-0.0402m0 0-0.1933-0.0371m0 0-0.199-0.0341m0 0-0.204-0.0308m0 0-0.2087-0.0276m0 0-0.2128-0.0242m0 0-0.2163-0.0209m0 0-0.2194-0.0174m0 0-0.2219-0.014m0 0-0.2237-0.01m0 0-0.2252-7e-3m0 0-0.2259-3e-3m0 0-0.094-3.1e-4m1e-4 -7.7e-4v10.63m0 0h-0.084m0.084 0v0.42939m0-16.813v5.7542m-0.084 218.77h0.084m0 10.45 0.2261-1e-3m0 0 0.2255-4e-3m0 0 0.2244-8e-3m0 0 0.2228-0.0112m0 0 0.2204-0.0144m0 0 0.2177-0.0175m0 0 0.2143-0.0206m0 0 0.2105-0.0237m0 0 0.206-0.0266m0 0 0.2012-0.0296m0 0 0.1957-0.0324m0 0 0.1898-0.035m0 0 0.1834-0.0378m0 0 0.1766-0.0403m0 0 0.1693-0.0429m0 0 0.1616-0.0451m0 0 0.1534-0.0474m0 0 0.145-0.0495m0 0 0.1361-0.0516m0 0 0.127-0.0534m0 0 0.1174-0.0552m0 0 0.1076-0.0568m0 0 0.098-0.0583m0 0 0.087-0.0595m0 0 0.077-0.0607m0 0 0.066-0.0618m0 0 0.055-0.0626m0 0 0.044-0.0633m0 0 0.033-0.0639m0 0 0.022-0.0642m0 0 0.01-0.0644m0 0v-0.0269m-4.5239 1.2906v6.016m0-16.466v10.45m0-10.797v0.34709m-359.01 16.466v-3.1351m0-11.82-0.2261 4e-3m0 0-0.22554 0.0126m0 0-0.22441 0.022m0 0-0.22272 0.0308m0 0-0.22047 0.0394m0 0-0.21767 0.0481m0 0-0.21434 0.0565m0 0-0.21045 0.0647m0 0-0.20606 0.0729m0 0-0.20113 0.0808m0 0-0.1957 0.0887m0 0-0.18981 0.0961m0 0-0.18342 0.1034m0 0-0.17657 0.11054m0 0-0.1693 0.11728m0 0-0.16158 0.12371m0 0-0.15347 0.12989m0 0-0.14498 0.13576m0 0-0.13614 0.14119m0 0-0.12692 0.14634m0 0-0.11742 0.15111m0 0-0.10766 0.15549m0 0-0.0975 0.15952m0 0-0.0873 0.16313m0 0-0.0767 0.16632m0 0-0.0659 0.16912m0 0-0.055 0.17146m0 0-0.044 0.17342m0 0-0.0328 0.17491m0 0-0.0216 0.17598m0 0-0.01 0.17661m0 0-9.7e-4 0.0736m4.5233 8.2845h0.0838m-0.0838 0v-11.82m0 0v-1.8582m363.53 119.54-0.01-0.0562m0 0-0.017-0.0561m0 0-0.028-0.0558m0 0-0.039-0.0553m0 0-0.051-0.0548m0 0-0.061-0.0541m0 0-0.072-0.0532m0 0-0.083-0.0524m0 0-0.093-0.0513m0 0-0.1035-0.05m0 0-0.1133-0.0486m0 0-0.123-0.0472m0 0-0.1324-0.0457m0 0-0.1413-0.0439m0 0-0.15-0.042m0 0-0.1582-0.0402m0 0-0.1662-0.0381m0 0-0.1736-0.036m0 0-0.1806-0.0339m0 0-0.1872-0.0315m0 0-0.1933-0.0291m0 0-0.199-0.0268m0 0-0.204-0.0242m0 0-0.2087-0.0217m0 0-0.2128-0.019m0 0-0.2163-0.0164m0 0-0.2194-0.014m0 0-0.2219-0.0112m0 0-0.2237-8e-3m0 0-0.2252-6e-3m0 0-0.2259-3e-3m0 0-0.094-2.4e-4m1e-4 7.6e-4v10.228m0 0h-0.084m0.084 0v0.26229m0-16.813v6.3231m4.5239-223.31-0.01-0.0716m0 0-0.017-0.0715m0 0-0.028-0.071m0 0-0.039-0.0705m0 0-0.051-0.0698m0 0-0.061-0.0689m0 0-0.072-0.0678m0 0-0.083-0.0667m0 0-0.093-0.0653m0 0-0.1035-0.0636m0 0-0.1133-0.0619m0 0-0.123-0.0601m0 0-0.1324-0.0581m0 0-0.1413-0.0559m0 0-0.15-0.0535m0 0-0.1582-0.0511m0 0-0.1662-0.0486m0 0-0.1736-0.046m0 0-0.1806-0.0431m0 0-0.1872-0.0402m0 0-0.1933-0.0371m0 0-0.199-0.0341m0 0-0.204-0.0308m0 0-0.2087-0.0276m0 0-0.2128-0.0242m0 0-0.2163-0.0209m0 0-0.2194-0.0174m0 0-0.2219-0.014m0 0-0.2237-0.01m0 0-0.2252-7e-3m0 0-0.2259-3e-3m0 0-0.094-3.1e-4m1e-4 -9.1e-4v10.63m0 0h-0.084m0.084 0v0.42939m0-16.813v5.7542m-358.91 10.271h-0.0838m0-11.171-0.2261 3e-3m0 0-0.22554 7e-3m0 0-0.22441 0.0126m0 0-0.22272 0.0167m0 0-0.22047 0.0214m0 0-0.21767 0.0261m0 0-0.21434 0.0305m0 0-0.21045 0.0352m0 0-0.20606 0.0395m0 0-0.20113 0.0439m0 0-0.1957 0.0481m0 0-0.18981 0.0521m0 0-0.18342 0.056m0 0-0.17657 0.06m0 0-0.1693 0.0636m0 0-0.16158 0.0671m0 0-0.15347 0.0705m0 0-0.14498 0.0736m0 0-0.13614 0.0765m0 0-0.12692 0.0793m0 0-0.11742 0.082m0 0-0.10766 0.0844m0 0-0.0975 0.0865m0 0-0.0873 0.0884m0 0-0.0767 0.0902m0 0-0.0659 0.0918m0 0-0.055 0.093m0 0-0.044 0.094m0 0-0.0328 0.0949m0 0-0.0216 0.0954m0 0-0.01 0.0958m0 0-9.7e-4 0.0399m4.5233-1.9187v-4.8552m0 16.026v-11.171m0 11.958v-0.78703m0 224.96v-5.0606m0-11.058-0.2261 6e-3m0 0-0.22554 0.0156m0 0-0.22441 0.0259m0 0-0.22272 0.0363m0 0-0.22047 0.0465m0 0-0.21767 0.0565m0 0-0.21434 0.0664m0 0-0.21045 0.0762m0 0-0.20606 0.0859m0 0-0.20113 0.0953m0 0-0.1957 0.10439m0 0-0.18981 0.11321m0 0-0.18342 0.12189m0 0-0.17657 0.13003m0 0-0.1693 0.138m0 0-0.16158 0.14568m0 0-0.15347 0.15294m0 0-0.14498 0.1598m0 0-0.13614 0.16628m0 0-0.12692 0.17232m0 0-0.11742 0.17796m0 0-0.10766 0.18314m0 0-0.0975 0.18786m0 0-0.0873 0.1921m0 0-0.0767 0.19588m0 0-0.0659 0.19917m0 0-0.055 0.20194m0 0-0.044 0.20422m0 0-0.0328 0.20599m0 0-0.0216 0.20726m0 0-0.01 0.20798m0 0-9.7e-4 0.0866m4.5233 6.8933h0.0838m-0.0838 0v-11.058m0 0v-0.69461m345.66 89.321v-500.9m-1.3963 493.89v7.0055m0-107.89v16.813m0-117.69v16.813m0-117.69v16.813m0-117.69v16.813m0-107.18v6.305m4.2642-6.305v500.9m-338.05 0v-500.9m151.41 400.02v2.8022m0-103.68v2.8022m0-103.68v2.8022m0-103.68v2.8022m-148.55-100.18v500.9m1.3963-494.59v-6.305m0 107.18v-16.813m0 117.69v-16.813m0 117.69v-16.813m0 117.69v-16.813m0 107.89v-7.0055m338.07 7.0055v-500.9m-155.7 100.18v-2.8022m0 103.68v-2.8022m0 103.68v-2.8022m0 103.68v-2.8022m-190.92-400.02v500.9m309.76 93.524c2.0946 0.46705 4.2658 0.46705 6.3604 0m39.406-136.96h-2.7926m2.7926 0v-29.977m-361.63 29.977h-2.7926m0-29.977v29.977m372.46-8.4066c0 0.38693 0.3126 0.70059 0.6982 0.70056m10.472-17.514c0-0.38689-0.3125-0.70054-0.6981-0.70056m0 18.214c0.3856-2e-5 0.6981-0.31367 0.6981-0.70056m-18.152-2.8022h-1.0472m8.7267 3.5028h9.7739m-9.7739-18.214c-0.3856-3e-5 -0.6982 0.31363-0.6982 0.70056m-6.9813 2.8022h-1.0472m8.7267-3.5028h9.7739m0.6981 17.514v-15.535m0 0v-1.2788m-391.65 0c1e-5 -0.38691-0.31256-0.70056-0.69814-0.70056m-9.7739 0c-0.38558 0-0.69815 0.31365-0.69814 0.70056m18.152 2.8022h1.0472m-8.7267 14.712c0.38558 0 0.69815-0.31365 0.69814-0.70056m6.9814-2.8022h1.0472m-8.7267-14.712h-9.7739m9.7739 18.214h-9.7739m-0.69814-0.70056c-1e-5 0.38691 0.31256 0.70056 0.69814 0.70056m-0.69814-17.514v10.839m0 0v5.9745m391.65-17.864c0-0.19343-0.1562-0.35024-0.349-0.35028m-2.4435 19.265c0 0.19347 0.1563 0.3503 0.3491 0.35028m0-19.616c-0.1928-2e-5 -0.3491 0.15681-0.3491 0.35028m2.4435 19.265h-2.0944m2.0944 0c0.1928-4e-5 0.349-0.15685 0.349-0.35028m-0.349-19.265h-2.0944m2.4434 19.265v-18.915m-378.04 19.265h-2.0944m2.0944 0c0.19279 0 0.34907-0.15683 0.34907-0.35028m-0.34907-19.265h-2.0944m2.4435 0.35028c0-0.19345-0.15628-0.35028-0.34907-0.35028m-2.0944 0c-0.19279 0-0.34907 0.15683-0.34907 0.35028m0 18.915c0 0.19345 0.15628 0.35028 0.34907 0.35028m-0.34907-19.265v18.915m377.69 223.83v-233.28m0 0v-20.845m-368.62 260.43h362.33m0 0c3.4701 0 6.2832-2.8228 6.2832-6.305m-374.9-254.68v0.54899m4.1888 20.845v-14.269m370.71-7.1249v-2.3197m-6.2832 259.1c1.1567 0 2.0944-0.94096 2.0944-2.1017m-366.52 0v-233.28m-4.1888 0v233.28m0-254.68v-2.3197m4.1888 257c0 1.1607 0.93769 2.1017 2.0944 2.1017m-6.2832-256.23v20.845m0-23.713h3.4209m367.29 9.4446v14.269m0 0v233.28m-2.0944 2.1017h-362.33m368.62-259.1h-3.4209m3.4209 2.8687v-0.54899m-374.9 254.68c0 3.4822 2.8131 6.305 6.2832 6.305m34.558-85.818h293.22m29.322 7.0055v-97.377m-342.09 97.377h-9.7739m29.322-9.8078h-1.3963m-27.926-87.569v97.377m342.09 0h9.7739m-322.54-14.011v2.8022m-1.3963 4.2033h1.3963m-4.9366 4.9537 3.1314-3.1422m296.83 0 3.1314 3.1422m14.611-95.325h9.7739m-324.34 92.183c0.26186-0.26276 0.40896-0.61914 0.40896-0.99073m-8.4769 6.1848h-9.6747m332.31 0h-9.6747m-9.8732-7.0055h1.3963m0-7.0055v7.8263m-296.01-7.8263h1.3963m-9.8732 14.011c1.8516-1e-5 3.6273-0.7381 4.9366-2.0519m3.5403-4.133v-7.8263m294.61 0h1.3963m-1.3963 2.8022v-2.8022m-312.77-83.366h332.31m-18.152 91.192c0 0.3716 0.1471 0.72798 0.409 0.99073m-0.409-4.6137h-1.3963m0 2.8022v-4.2033m-312.77-86.168h-9.7739m327.48 95.325c1.3092 1.3138 3.0849 2.0519 4.9365 2.0519m-303.09-11.209v4.2033m2.1e-4 -3.3445c-0.46817 0.0276-0.93863 0.0807-1.3959 0.14596m1.3957-1.7053h-1.3963m296.01 1.7053c-0.4573-0.0652-0.9278-0.11826-1.396-0.14596m1.3965-1.5593h-1.3963m-268.78 11.559v-4.2033m-53.757 4.2033h-0.69814m173.14 0v-4.2033m179.77 8.4066h-9.774m-51.313-4.2033v-4.2033m61.436 5.6044v2.8022m-356.05-605.28v-0.70051m0 505.1v-3.5027m352.73-501.6h6.1116m-300.6 595.12c-0.63958 0.65476-0.99783 1.535-0.99785 2.4519m6.9814 0c-1e-5 -0.91685-0.35826-1.7971-0.99783-2.4519m292.82-90.021v1.4011m-353.26 96.676v-96.676m180.12 95.275v1.4011m-118.68-5.6044v4.2033m291.47 1.4011v2.8022m-352.91-99.479v-1.4011m1.3963 98.078v-1.0508m350.46 1.0508v-1.0508m-53.058-4.5536v4.2033m54.455-601.78h2.7925m-345.93 605.98h-9.7739m173.79-10.859c-0.6396 0.65475-0.9979 1.535-0.9979 2.4519m6.9814 0c0-0.91684-0.3582-1.7971-0.9978-2.4519m-179.12 8.0564v2.8022m1.3962-605.98v0.70055m53.058 602.48v-1.4011m244.35 0v1.4011m57.247-605.98v2.8022m-358.84-2.8022v2.8022m6.1116 0h-6.1116m2.7926 0.70055v-0.70051m0 505.1v-3.5027m7.6042-501.6h338.05m-345.3 603.18h9.7739m333.01 2.8022h-333.01m345.93-99.479v-1.4011m-10.397-505.1h4.2851m6.1116 501.6v3.5027m0-505.1v0.70051m-12.916 602.48h-333.01m281.7 0v-1.4011m64.229 1.4011h-2.7925m-356.05-605.98h358.84m-355.7 608.78h-0.34907m352.91-2.8022h0.349m-353.26-98.078h-2.7926m0-505.1h2.7926m292.82 595.12c-0.6396 0.65475-0.9979 1.535-0.9979 2.4519m6.9814 0c0-0.91686-0.3583-1.7972-0.9979-2.4519m-117.69 2.4519v4.2033m-182.91 1.4011v-96.676m2.7926 96.676h0.34907m352.91-1.4011h-0.6982m-0.6981-601.78v0.70055m1.3963 500.9v3.5027m0-505.1v0.70051m-1e-4 605.28h-0.349m-9.774-2.8022h9.774m3.1416-98.078h-2.7925m-349.94-505.1h4.285m165.53 603.18v-1.4011m-175.93 1.4011h2.7926m61.436-1.4011v1.4011m-61.087 0v2.8022m-3.1417-100.88v1.4011m356.05 0v96.676m2.7925 0v-96.676m-358.84-430.49h-0.0838m0 0c-2.4985 0-4.5239 2.0324-4.5239 4.5396m0 7.7341c0 2.5072 2.0254 4.5396 4.5239 4.5396m0.0838 0h-0.0838m-4.5239-4.5396v-0.36204m0-5.1387v-2.2334m0 7.3721v-5.1387m363.45-6.773h0.084m4.5239 4.5396c0-2.5072-2.0254-4.5396-4.5239-4.5396m-0.084 16.813h0.084m0 0c2.4985 0 4.5239-2.0324 4.5239-4.5396m0-5.0872v5.0872m0-7.7341v2.647m-4.5239 233.8c2.4985 0 4.5239-2.0324 4.5239-4.5396m-4.6077-12.274h0.084m-0.084 16.813h0.084m4.5239-12.274c0-2.5072-2.0254-4.5396-4.5239-4.5396m4.5239 4.5396v0.15967m0 4.8071v2.7673m0-7.5744v4.8071m-368.06 2.7673c0 2.5072 2.0254 4.5396 4.5239 4.5396m0-16.813c-2.4985 0-4.5239 2.0324-4.5239 4.5396m4.6077-4.5396h-0.0838m0.0838 16.813h-0.0838m-4.5239-11.419v-0.85476m0 7.7341v-6.8794m363.45 123.51h0.084m-0.084-16.813h0.084m0 16.813c2.4985 0 4.5239-2.0324 4.5239-4.5396m0-7.7341c0-2.5072-2.0254-4.5396-4.5239-4.5396m4.5239 7.4482v4.8255m0-7.7341v2.9086m-4.6077-214.81h0.084m4.5239-12.274c0-2.5072-2.0254-4.5396-4.5239-4.5396m-0.084 0h0.084m0 16.813c2.4985 0 4.5239-2.0324 4.5239-4.5396m0-5.0872v5.0872m0-7.7341v2.647m-363.45-7.1866h-0.0838m0 0c-2.4985 0-4.5239 2.0324-4.5239 4.5396m0 7.7341c0 2.5072 2.0254 4.5396 4.5239 4.5396m0.0838 0h-0.0838m-4.5239-4.5396v-0.36203m0-5.1387v-2.2334m0 7.3721v-5.1387m4.6077 217.4h-0.0838m0.0838 16.813h-0.0838m-4.5239-4.5396c0 2.5072 2.0254 4.5396 4.5239 4.5396m0-16.813c-2.4985 0-4.5239 2.0324-4.5239 4.5396m0 0.31952v-0.31952m0 7.7341v-7.4146m12.636-417.14v0.70055m4.887-0.70055v0.70055m333.01-0.70055v0.70055m4.8869-0.70055v0.70055m-13.614 97.377c3.8557-6e-5 6.9813-3.1365 6.9813-7.0055m-329.52 0v-84.066m322.54 91.072h-315.56m322.54-91.072v84.066m-322.54-91.072h315.56m-322.54 91.072c0 3.869 3.1257 7.0055 6.9814 7.0055m322.54-91.072c0-3.869-3.1256-7.0054-6.9813-7.0055m-315.56 0c-3.8557 0-6.9814 3.1365-6.9814 7.0055m322.54 191.95c3.8557-6e-5 6.9813-3.1365 6.9813-7.0055m-329.52 0v-84.066m322.54 91.072h-315.56m322.54-91.072v84.066m-322.54-91.072h315.56m-322.54 91.072c0 3.869 3.1257 7.0055 6.9814 7.0055m322.54-91.072c0-3.869-3.1256-7.0054-6.9813-7.0055m-315.56 0c-3.8557 0-6.9814 3.1365-6.9814 7.0055m322.54 191.95c3.8557-6e-5 6.9813-3.1365 6.9813-7.0055m-329.52 0v-84.066m322.54 91.072h-315.56m322.54-91.072v84.066m-322.54-91.072h315.56m-322.54 91.072c0 3.869 3.1257 7.0055 6.9814 7.0055m322.54-91.072c0-3.869-3.1256-7.0054-6.9813-7.0055m-315.56 0c-3.8557 0-6.9814 3.1365-6.9814 7.0055m322.54 191.95c3.8557-6e-5 6.9813-3.1365 6.9813-7.0055m-329.52 0v-84.066m322.54 91.072h-315.56m322.54-91.072v84.066m-322.54-91.072h315.56m-322.54 91.072c0 3.869 3.1257 7.0055 6.9814 7.0055m322.54-91.072c0-3.869-3.1256-7.0054-6.9813-7.0055m-315.56 0c-3.8557 0-6.9814 3.1365-6.9814 7.0055m322.54 191.95c3.8557-6e-5 6.9813-3.1365 6.9813-7.0055m-329.52 0v-84.066m322.54 91.072h-315.56m322.54-91.072v84.066m-322.54-91.072h315.56m-322.54 91.072c0 3.869 3.1257 7.0055 6.9814 7.0055m322.54-91.072c0-3.869-3.1256-7.0054-6.9813-7.0055m-315.56 0c-3.8557 0-6.9814 3.1365-6.9814 7.0055m112.06-110.69v2.8022m-24.463-100.88v-2.8022m-96.151-198.26h-6.1116m358.84 0h-6.1116m-326.54 198.26v2.8022m263.9-103.68v2.8022m-270.4 97.797c-1.117 0.84068-1.117 2.522 0 3.3627m129.38 97.797v2.8022m15.243 100.88v-2.8022m69.93-100.88v2.8022m22.34-2.8022v2.8022m22.34 98.078v2.8022m-219.22-103.68v2.8022m150.07-100.88v-2.8022m-118.68 103.68v-2.8022m-20.218 0v2.8022m-33.511 98.078v2.8022m174.53-103.68v2.8022m-129.85 98.078v2.8022m141.02-2.8022v2.8022m-209.8-402.82h-2.8679m-10.397 500.9v-500.9m339.91 201.61c1.0473-1.0863 1.0473-2.8105 0-3.8968m-27.475 101.43v2.8022m-111.73-204.56v2.8022m122.9 198.96v2.8022m-69.144-201.76v-2.8022m-94.097 201.76v2.8022m118.56-2.8022v2.8022m-163.36-204.56v2.8022m78.978 299.84v2.8022m145.37-302.09c1.0473-1.0863 1.0473-2.8105 0-3.8968m-320.97 0c-1.0473 1.0863-1.0473 2.8105 0 3.8968m282.32 97.53v2.8022m-252.73-2.8022v2.8022m76.069 0v-2.8022m69.93 100.88v2.8022m115.77-201.76v-2.8022m-9.0478 0v2.8022m44.318 400.72h2.8679m0-500.9h-2.8679m-66.658 198.26v2.8022m20.218 0v-2.8022m-100.66 103.68v-2.8022m-127.61 100.88v2.8022m-56.912 98.078h0.69814m262.14-98.078v-2.8022m-20.218-302.64v2.8022m-242.62 400.72v-500.9m296.35 301.94v-2.8022m-89.362-198.96v-2.8022m33.511 204.56v-2.8022m-107.51-98.078v-2.8022m-20.218-100.88v2.8022m105.39 201.76v-2.8022m-37.583-100.88v2.8022m-179.87-201.06h-0.69814m-0.69814 500.9h0.69814m45.742-100.88v2.8022m272.94 0v-2.8022m-131.95 0v2.8022m-120.78-100.88v-2.8022m-60.986 100.33c-1.0473 1.0863-1.0473 2.8105 0 3.8968m94.496-101.43v-2.8022m2.1223-100.88v2.8022m-96.619-3.3495c-1.0473 1.0863-1.0473 2.8105 0 3.8968m269.03 201.21v-2.8022m-174.53-299.84v-2.8022m2.1223 201.76v2.8022m-11.17 98.078v2.8022m-104.39 98.078h6.1116m131.78-100.88v2.8022m172.41-201.76v-2.8022m-98.409-100.88v2.8022m-192.21-3.0824c-1.117 0.84068-1.117 2.522 0 3.3627m328.76 400.44h4.2851m-62.641-302.64v2.8022m-57.973-100.88v-2.8022m-205.92 302.64v2.8022m11.17-305.44v2.8022m76.069 100.88v-2.8022m225.72 3.0824c1.117-0.84068 1.117-2.522 0-3.3627m-203.38 103.96v-2.8022m-42.558-100.88v2.8022m-57.973 0v-2.8022m230.39-98.078v-2.8022m-107.49 103.68v-2.8022m-122.9 204.56v-2.8022m286.24-98.078v-2.8022m-315.37 201.76h4.285m244.06-98.078v-2.8022m-96.317-299.84v-2.8022m-11.196 204.56v-2.8022m187.83-100.88v2.8022m4.3843 101.16c1.117-0.84068 1.117-2.522 0-3.3627m13.576 202.04h6.1116m0 0v-500.9m-276.8 198.26v2.8022m9.0478-100.88v-2.8022m-22.34 204.56v-2.8022m91.607-100.88v2.8022m-100.66-103.68v2.8022m78.191 198.96v2.8022m20.244 100.88v-2.8022m176.63-302.64v2.8022m-69.144 100.88v-2.8022m-172.41 201.76v2.8022m42.558 0v-2.8022m-9.0479 0v2.8022m-102.65-302.64v-2.8022m-10.807 403.52h-2.8679m324.37-100.88v2.8022m-277.19-302.64v-2.8022m-9.0479 0v2.8022m161.24 0v-2.8022m67.021 2.8022v-2.8022m24.463 201.76v2.8022m-219.22-2.8022v2.8022m152.19-204.56v2.8022m-143.15 100.88v-2.8022m152.19 103.68v-2.8022m46.803 0v2.8022m-279.69-301.94h-4.285m17.96 402.82v-2.8022m136.29 0v2.8022m3.9493-100.88v-2.8022m-115.77 100.88v2.8022m-11.17-103.68v2.8022m78.191 98.078v2.8022m194.75 0v-2.8022m-87.239-201.76v2.8022m31.388 0v-2.8022m-107.51 204.56v-2.8022m2.1223 0v2.8022m62.832-204.56v2.8022m109.58 0v-2.8022m-78.191 204.56v-2.8022m-196.87-198.96v-2.8022m-11.17 103.68v-2.8022m100.53-98.078v-2.8022m76.125 201.76v2.8022m-154.32 0v-2.8022m254.85-302.64v2.8022m-221.34 302.64v-2.8022m103.44-302.64v2.8022m-90.148 198.96v2.8022m163.36 98.078v2.8022m-196.87-204.56v2.8022m91.46-100.88v-2.8022m0 103.68v-2.8022m0 103.68v-2.8022m0 103.68v-2.8022m161.27-201.76v2.8022m-297.41-103.68v2.8022m318.69-100.18v500.9m-123.93-299.84v-2.8022m91.484 0v2.8022m-230.39-103.68v2.8022m174.53 299.84v2.8022m-22.34-204.56v2.8022m-199-100.88v-2.8022m286.24 2.8022v-2.8022m-301.79 201.48c-1.117 0.84068-1.117 2.522 0 3.3627m178.8-202.04v-2.8022m-71.757 100.88v2.8022m-80.314 100.88v-2.8022m275.07 103.68v-2.8022m-228.26-100.88v2.8022m259.52-301.94h-4.2851m-80.696 198.26v2.8022m-174.53-103.68v2.8022m150.07 0v-2.8022m-183.58 100.88v2.8022m64.899 201.76v-2.8022m-22.34-98.078v-2.8022m174.53 2.8022v-2.8022m-31.388 0v2.8022m53.729-201.76v-2.8022m2.1224 302.64v2.8022m-44.681-204.56v2.8022m-210.17 201.76v-2.8022m89.362-299.84v-2.8022m11.17 2.8022v-2.8022m141.02 2.8022v-2.8022m56.912 403.52h0.6981m-0.6981-500.9h-0.6982m-6.9813 500.9h6.9813m-329.52 0h6.9814m58.28-98.078v-2.8022m129.85-98.078v-2.8022m134.41 201.76h0.6982m-264.96-299.84v-2.8022m208.04 2.8022v-2.8022m-22.34 103.68v-2.8022m-196.87-98.078v-2.8022m129.73 204.56v-2.8022m-34.174-299.84v-2.8022m-62.046 2.8022v-2.8022m236.89 305.72c1.1169-0.84068 1.1169-2.5219 0-3.3626m-62.358-198.68v-2.8022m55.851 103.68v-2.8022m-228.26-100.88v2.8022m33.511-103.68v2.8022m161.24 302.64v-2.8022m-185.7 2.8022v-2.8022m131.98 0v2.8022m93.746-302.36c1.117-0.84068 1.117-2.522 0-3.3627m-116.09 202.04v2.8022m100.53-204.56v2.8022m-35.633 201.76v-2.8022m-268.28 100.6c-1.1169 0.84068-1.1169 2.5219 0 3.3626m303.91-3.0824v2.8022m-113.82 0v-2.8022m22.34-198.96v-2.8022m2.1223 201.76v2.8022m-109.64-100.88v-2.8022m73.879-98.078v-2.8022m46.926-100.88v2.8022m-219.21 198.96v2.8022m239.43 100.88v-2.8022m24.463 0v2.8022m-243.68-302.64v-2.8022m232.51 0v2.8022m-176.66 302.64v-2.8022m230.39-198.96v-2.8022m0-98.078v-2.8022m-313.71 201.21c-1.0473 1.0863-1.0473 2.8105 0 3.8968m177.57 97.53v2.8022m0-103.68v2.8022m0-103.68v2.8022m0-103.68v2.8022m-138.93 201.76v-2.8022m163.36 103.68v-2.8022m-56.637-198.96v-2.8022m81.1 0v2.8022m-96.343-2.8022v2.8022m-124.99 0v-2.8022m315.83 104.23c1.0473-1.0863 1.0473-2.8105 0-3.8968m-96.618-97.53v-2.8022m-118.68-98.078v-2.8022m-20.218 0v2.8022m-33.511-2.8022v2.8022m161.24 302.64v-2.8022m-163.36 2.8022v-2.8022m-44.681-98.078v-2.8022m134.07 2.8022v-2.8022m-9.0735-201.76v2.8022m74.002-2.8022v2.8022m-22.366 198.96v2.8022m-62.807-103.68v2.8022m-100.53-2.8022v2.8022m-23.402-201.06h-0.69814m66.658 100.18v-2.8022m-11.17 2.8022v-2.8022m199 201.76v2.8022m-67.047-103.68v2.8022m134.07 98.078v2.8022m10.807-301.94h-0.6981m-326.28 0h-3.9383m329.52 0h-3.9382m-291.71 299.14v2.8022m250.6 0v-2.8022m-138.78-201.76v2.8022m107.39-2.8022v2.8022m-210.17 100.88v-2.8022m163.36 103.68v-2.8022m118.96 104.23c1.0473-1.0863 1.0473-2.8105 0-3.8968m-27.475 0.54729v2.8022" fill="none" stroke="#010101" stroke-linecap="round" stroke-width="1.1033"/><g transform="translate(16.372 11.831)" display="none"><g stroke="#000" stroke-linecap="round" stroke-linejoin="round"><path transform="matrix(-1.3571,0,0,-1.3575,20.985,115.72)" d="m-247.65 69.021v4.6436l-5.9083-2.3121 5.9083-2.3509" stroke-width=".73677"/><path transform="matrix(-1.3571,0,0,-1.3575,66.697,115.72)" d="m42.421 73.645v-4.6436l5.9083 2.3121-5.9083 2.3509" stroke-width=".73677"/><path transform="matrix(.86812 0 0 .86812 -109.82 -24.597)" d="m127.08 43.6 0.11828 72.339" fill="none" stroke-width="1.152"/><path transform="matrix(.86812 0 0 .86812 255.73 -24.597)" d="m127.08 43.6 0.11828 72.339" fill="none" stroke-width="1.152"/></g><text transform="matrix(.86814 0 0 .86809 -118.51 -24.598)" x="352.77798" y="42.779858" display="inline" fill="#000000" font-family="Lato" font-size="19.104px" letter-spacing="0px" stroke="#000000" stroke-width=".11352" word-spacing="0px" style="font-variant-caps:normal;font-variant-east-asian:normal;font-variant-ligatures:normal;font-variant-numeric:normal;line-height:125%" xml:space="preserve"><tspan x="352.77798" y="42.779858" font-family="Lato" font-size="19.104px" stroke="#000000" stroke-width=".11352" style="font-variant-caps:normal;font-variant-east-asian:normal;font-variant-ligatures:normal;font-variant-numeric:normal">A</tspan></text><path transform="matrix(-1.3571,0,0,-1.3575,66.697,115.72)" d="m43.643 71.307-260.4 0.02609" fill="#4d4d4d" stroke="#000" stroke-width=".73677"/><text transform="matrix(.86814 0 0 .86809 330.69 154.85)" x="98.293945" y="143.83748" display="inline" fill="#000000" font-family="Lato" font-size="19.104px" letter-spacing="0px" stroke="#000000" stroke-width=".11352" word-spacing="0px" style="font-variant-caps:normal;font-variant-east-asian:normal;font-variant-ligatures:normal;font-variant-numeric:normal;line-height:125%" xml:space="preserve"><tspan x="98.293945" y="143.83748" font-family="Lato" font-size="19.104px" stroke="#000000" stroke-width=".11352" style="font-variant-caps:normal;font-variant-east-asian:normal;font-variant-ligatures:normal;font-variant-numeric:normal">B</tspan></text><g stroke="#000"><path transform="matrix(0,1.2168,1.3572,0,335.06,185.96)" d="m329.94 71.333-443.62-0.0259" display="inline" fill="#4d4d4d" stroke-width=".77817"/><g stroke-linecap="round" stroke-linejoin="round"><path transform="matrix(0,1.3575,1.3572,0,334.81,62.617)" d="m-8.5008 69.021v4.6436l-5.9083-2.3121 5.9083-2.3509" stroke-width=".73675"/><path transform="matrix(0,1.3575,1.3572,0,335.04,503.94)" d="m61.493 73.645v-4.6436l5.9083 2.3121-5.9083 2.3509" stroke-width=".73675"/><path transform="matrix(.86812 0 0 .86812 330.43 -20.982)" d="m141.48 72.665h-31.468" fill="none" stroke-width="1.152"/><path transform="matrix(.86812 0 0 .86812 330.66 420.86)" d="m137.3 202.05h-27.29" fill="none" stroke-width="1.152"/></g></g><text transform="matrix(.86814 0 0 .86809 738.78 233.98)" x="98.293945" y="143.83748" display="inline" fill="#000000" font-family="Lato" font-size="19.104px" letter-spacing="0px" stroke="#000000" stroke-width=".11352" word-spacing="0px" style="font-variant-caps:normal;font-variant-east-asian:normal;font-variant-ligatures:normal;font-variant-numeric:normal;line-height:125%" xml:space="preserve"><tspan x="98.293945" y="143.83748" font-family="Lato" font-size="19.104px" stroke="#000000" stroke-width=".11352" style="font-variant-caps:normal;font-variant-east-asian:normal;font-variant-ligatures:normal;font-variant-numeric:normal">D</tspan></text><g stroke="#000"><path transform="matrix(0,1.2168,-1.3572,0,918.45,189.01)" d="m383.07 71.323-496.75-0.0161" display="inline" fill="#4d4d4d" stroke-width=".77817"/><g stroke-linecap="round" stroke-linejoin="round"><path transform="matrix(0,1.3575,-1.3572,0,918.45,65.67)" d="m-8.5008 69.021v4.6436l-5.9083-2.3121 5.9083-2.3509" stroke-width=".73675"/><path transform="matrix(0,1.3575,-1.3572,0,918.45,571.64)" d="m61.493 73.645v-4.6436l5.9083 2.3121-5.9083 2.3509" stroke-width=".73675"/><path transform="matrix(-.86812 0 0 .86812 922.83 -17.929)" d="m141.48 72.665h-31.468" fill="none" stroke-width="1.152"/><path transform="matrix(-.86812 0 0 .86812 922.83 488.72)" d="m137.3 202.05h-27.29" fill="none" stroke-width="1.152"/></g><path transform="matrix(-1.3571,0,0,-1.3575,955.99,115.25)" d="m38.882 71.352-66.151-0.04489" fill="#4d4d4d" stroke-width=".73677"/><g stroke-linecap="round" stroke-linejoin="round"><path transform="matrix(-1.3571,0,0,-1.3575,655.31,115.25)" d="m-247.65 69.021v4.6436l-5.9083-2.3121 5.9083-2.3509" stroke-width=".73677"/><path transform="matrix(-1.3571,0,0,-1.3575,962.9,115.25)" d="m42.421 73.645v-4.6436l5.9083 2.3121-5.9083 2.3509" stroke-width=".73677"/><path transform="matrix(.86812 0 0 .86812 786.13 145.91)" d="m127.08-153.9 0.11828 580.71" fill="none" stroke-width="1.152"/><path transform="matrix(.86812 0 0 .86812 889.08 -25.072)" d="m127.08 43.6 0.11828 30.678" fill="none" stroke-width="1.152"/></g></g><text transform="matrix(.86814 0 0 .86809 637.91 -25.073)" x="352.77798" y="42.779858" fill="#000000" font-family="Lato" font-size="19.104px" letter-spacing="0px" stroke="#000000" stroke-width=".11352" word-spacing="0px" style="font-variant-caps:normal;font-variant-east-asian:normal;font-variant-ligatures:normal;font-variant-numeric:normal;line-height:125%" xml:space="preserve"><tspan x="352.77798" y="42.779858" font-family="Lato" font-size="19.104px" stroke="#000000" stroke-width=".11352" style="font-variant-caps:normal;font-variant-east-asian:normal;font-variant-ligatures:normal;font-variant-numeric:normal">C</tspan></text></g><path transform="matrix(-1.3606 0 0 -1.361 988.34 123.19)" d="m38.882 71.352-66.151-0.04489" fill="#4d4d4d" stroke="#000" stroke-width=".73486"/><g transform="translate(32.458 7.6422)" stroke="#000" stroke-linecap="round" stroke-linejoin="round"><path transform="matrix(-1.3606,0,0,-1.361,654.42,115.55)" d="m-247.65 69.021v4.6436l-5.9083-2.3121 5.9083-2.3509" stroke-width=".73486"/><path transform="matrix(-1.3606,0,0,-1.361,962.81,115.55)" d="m42.421 73.645v-4.6436l5.9083 2.3121-5.9083 2.3509" stroke-width=".73486"/><path transform="matrix(.87038 0 0 .87038 785.58 146.29)" d="m127.08-153.9 0.11828 579.35" fill="none" stroke-width="1.1489"/><path transform="matrix(.87038 0 0 .87038 888.79 -25.137)" d="m127.08 43.6 0.11828 30.678" fill="none" stroke-width="1.1489"/></g><text transform="matrix(.8704 0 0 .87035 663.95 -17.914)" x="352.77798" y="42.779858" fill="#000000" font-family="Lato" font-size="30.638px" letter-spacing="0px" stroke-width="1.1489" word-spacing="0px" style="font-variant-caps:normal;font-variant-east-asian:normal;font-variant-ligatures:normal;font-variant-numeric:normal;line-height:125%" xml:space="preserve"><tspan x="352.77798" y="42.779858" font-family="Lato" font-size="30.638px" stroke-width="1.1489" style="font-variant-caps:normal;font-variant-east-asian:normal;font-variant-ligatures:normal;font-variant-numeric:normal">D</tspan></text><text transform="matrix(.8704 0 0 .87035 760.93 249.24)" x="98.293945" y="143.83748" fill="#000000" font-family="Lato" font-size="30.638px" letter-spacing="0px" stroke-width="1.1489" word-spacing="0px" style="font-variant-caps:normal;font-variant-east-asian:normal;font-variant-ligatures:normal;font-variant-numeric:normal;line-height:125%" xml:space="preserve"><tspan x="98.293945" y="143.83748" font-family="Lato" font-size="30.638px" stroke-width="1.1489" style="font-variant-caps:normal;font-variant-east-asian:normal;font-variant-ligatures:normal;font-variant-numeric:normal">C</tspan></text><g stroke="#000"><path transform="matrix(0 1.2199 -1.3607 0 939.42 197.87)" d="m387.49 71.323-501.17-0.016105" fill="#4d4d4d" stroke-width=".77617"/><g transform="translate(20.331 8.3682)" stroke-linecap="round" stroke-linejoin="round"><path transform="matrix(0,1.361,-1.3607,0,919.09,65.841)" d="m-8.5008 69.021v4.6436l-5.9083-2.3121 5.9083-2.3509" stroke-width=".73484"/><path transform="matrix(0 1.361 -1.3607 0 919.09 575.51)" d="m61.493 73.645v-4.6436l5.9083 2.3121-5.9083 2.3509" stroke-width=".73484"/><path transform="matrix(-.87038 0 0 .87038 923.48 -17.976)" d="m141.48 72.665h-31.468" fill="none" stroke-width="1.1489"/><path transform="matrix(-.87038 0 0 .87038 923.48 604.99)" d="m141.48 72.665h-31.468" fill="none" stroke="#000" stroke-width="1.1489"/></g><path transform="matrix(-1.3606 0 0 -1.361 66.871 123.47)" d="m43.643 71.307-260.4 0.02609" fill="#4d4d4d" stroke-width=".73486"/><g transform="translate(.0021096 7.4477)" stroke-linecap="round" stroke-linejoin="round"><path transform="matrix(-1.3606,0,0,-1.361,21.038,116.02)" d="m-247.65 69.021v4.6436l-5.9083-2.3121 5.9083-2.3509" stroke-width=".73486"/><path transform="matrix(-1.3606,0,0,-1.361,66.869,116.02)" d="m42.421 73.645v-4.6436l5.9083 2.3121-5.9083 2.3509" stroke-width=".73486"/><path transform="matrix(.87038 0 0 .87038 -110.11 -24.662)" d="m127.08 43.6 0.11828 72.339" fill="none" stroke-width="1.1489"/><path transform="matrix(.87038 0 0 .87038 256.39 -24.662)" d="m127.08 43.6 0.11828 72.339" fill="none" stroke-width="1.1489"/></g></g><text transform="matrix(.8704 0 0 .87035 -131.5 -17.585)" x="352.77798" y="42.779858" fill="#000000" font-family="Lato" font-size="30.638px" letter-spacing="0px" stroke-width="1.1489" word-spacing="0px" style="font-variant-caps:normal;font-variant-east-asian:normal;font-variant-ligatures:normal;font-variant-numeric:normal;line-height:125%" xml:space="preserve"><tspan x="352.77798" y="42.779858" font-family="Lato" font-size="30.638px" stroke-width="1.1489" style="font-variant-caps:normal;font-variant-east-asian:normal;font-variant-ligatures:normal;font-variant-numeric:normal">A</tspan></text><text transform="matrix(.8704 0 0 .87035 339.78 212.21)" x="98.293945" y="143.83748" fill="#000000" font-family="Lato" font-size="30.638px" letter-spacing="0px" stroke-width="1.1489" word-spacing="0px" style="font-variant-caps:normal;font-variant-east-asian:normal;font-variant-ligatures:normal;font-variant-numeric:normal;line-height:125%" xml:space="preserve"><tspan x="98.293945" y="143.83748" font-family="Lato" font-size="30.638px" stroke-width="1.1489" style="font-variant-caps:normal;font-variant-east-asian:normal;font-variant-ligatures:normal;font-variant-numeric:normal">B</tspan></text><g transform="translate(16.479 11.445)" stroke="#000"><path transform="matrix(0,1.2199,1.3607,0,334.19,186.44)" d="m330.84 71.309-444.52-0.001402" fill="#4d4d4d" stroke-width=".77617"/><g stroke-linecap="round" stroke-linejoin="round"><path transform="matrix(0,1.361,1.3607,0,333.94,62.78)" d="m-8.5008 69.021v4.6436l-5.9083-2.3121 5.9083-2.3509" stroke-width=".73484"/><path transform="matrix(0 1.361 1.3607 0 334.17 504.34)" d="m61.493 73.645v-4.6436l5.9083 2.3121-5.9083 2.3509" stroke-width=".73484"/><path transform="matrix(.87038 0 0 .87038 329.55 -21.037)" d="m141.48 72.665h-31.468" fill="none" stroke-width="1.1489"/><path transform="matrix(.87038 0 0 .87038 329.78 421.22)" d="m137.3 202.05h-27.29" fill="none" stroke-width="1.1489"/></g></g><path transform="translate(1.1541 6.1647)" d="m31.16 130.18-1.2567 1.3205-1.3782-1.1922-0.80015 0.88173 1.3195 1.2561-1.192 1.3792 0.88097 0.80013 1.2584-1.3202 1.3776 1.1927 0.84402-0.99239-1.3637-1.1458 1.1922-1.3788zm0.43866 3.7513c-0.83908 0.91691-2.2626 0.98001-3.1795 0.14093-0.91688-0.83909-0.97998-2.2626-0.14093-3.1795 0.83908-0.91691 2.2626-0.98001 3.1795-0.14093 0.91688 0.83909 0.97998 2.2626 0.14093 3.1795zm1.4994 1.3038c-1.5663 1.7116-4.2235 1.8293-5.9351 0.26307-1.7116-1.5663-1.8294-4.2236-0.26307-5.9351 1.5663-1.7116 4.2235-1.8293 5.9351-0.26307 1.7116 1.5663 1.8294 4.2236 0.26307 5.9351zm135.91-5.0448-1.2567 1.3205-1.3782-1.1922-0.80014 0.88173 1.3195 1.2561-1.1919 1.3792 0.88096 0.80013 1.2584-1.3202 1.3776 1.1927 0.84401-0.99239-1.3637-1.1458 1.1922-1.3788zm0.43867 3.7513c-0.83909 0.91697-2.2627 0.98007-3.1796 0.14093-0.91688-0.83909-0.97998-2.2626-0.14093-3.1795 0.83908-0.91691 2.2626-0.98001 3.1795-0.14093 0.91689 0.83909 0.97998 2.2626 0.14094 3.1795zm1.4994 1.3038c-1.5663 1.7116-4.2235 1.8293-5.9351 0.26307-1.7116-1.5663-1.8294-4.2236-0.26308-5.9351 1.5663-1.7116 4.2235-1.8293 5.9351-0.26307 1.7116 1.5663 1.8294 4.2236 0.26308 5.9351zm29.078-5.0652-1.2567 1.3206-1.3782-1.1922-0.80015 0.88172 1.3196 1.2561-1.192 1.3792 0.88098 0.80013 1.2584-1.3202 1.3776 1.1927 0.84402-0.99239-1.3637-1.1458 1.1922-1.3788zm0.43867 3.7513c-0.83909 0.91691-2.2626 0.98001-3.1795 0.14093-0.91689-0.83908-0.97999-2.2626-0.14094-3.1795 0.83909-0.91697 2.2627-0.98007 3.1796-0.14094 0.91688 0.83909 0.97998 2.2626 0.14093 3.1795zm1.4995 1.3038c-1.5663 1.7116-4.2235 1.8293-5.9351 0.26307-1.7116-1.5663-1.8294-4.2236-0.26307-5.9351 1.5663-1.7116 4.2235-1.8293 5.9351-0.26308 1.7116 1.5663 1.8294 4.2236 0.26309 5.9351zm134.1-5.2468-0.0356 1.8225-1.8216 0.0509 5e-3 1.1907 1.8215 0.0359 0.0517 1.8221 1.1901-5e-3 0.037-1.8235 1.8215-0.0502-0.0474-1.3019-1.7796 0.0753-0.0513-1.8221zm2.8561 2.4712c0 1.2429-1.0076 2.2505-2.2505 2.2505s-2.2505-1.0076-2.2505-2.2505 1.0076-2.2505 2.2505-2.2505 2.2505 1.0076 2.2505 2.2505zm1.9864-0.0504c0 2.3201-1.8808 4.2009-4.2009 4.2009s-4.2009-1.8808-4.2009-4.2009 1.8808-4.2009 4.2009-4.2009 4.2009 1.8808 4.2009 4.2009zm-309.05-84.507h5.0582m-6.7389 2.9196 0.01778-1.0924 8.385 0.0085 0.01606 1.0845m-3.6e-5 -0.82237c3.6e-5 -1.0051-0.69754-1.876-1.6799-2.0978m-5.0582 0c-0.98238 0.22165-1.6628 0.82208-1.6628 1.8271m299.48-1.8819h5.0582m-6.7389 2.9196 0.0178-1.0924 8.385 0.0085 0.0161 1.0845m-4e-5 -0.82238c4e-5 -1.0051-0.69754-1.876-1.6799-2.0978m-5.0582 0c-0.98238 0.22165-1.6628 0.82208-1.6628 1.8271m-326.88 54.307v-16.373m0 0v-0.08126m8.8681-5.1e-5v0.08126m0 5.1e-5v16.373m355.35-16.454v16.044m0 0v0.41018m-8.8681 0v-0.41018m0 0v-16.044m-2.8504 17.087v-1.8257m0 0v-15.894m1.9003 0v15.894m0 0v1.8257m-344.59 0v-0.0225m0-6e-5v-17.698m1.9003 0v17.697m0 0v0.0225m0.31672-10.432h3.8006m330.65 16.76v3.7972m0-37.972v3.7972m-328.75 0v-3.7972m0 37.972v-3.7972m334.45-17.611h-3.8006m0 4.8454h3.8006m0-0.85105h-3.8006m-336.35 0.85105h3.8006m332.55-3.9944h3.8006m-336.35-0.85105h-3.8006m3.8006 3.9944h-3.8006m7.2085 29.17h0.07604m-0.07604-9.5128-0.20514 5e-3m0 0-0.20463 0.0147m0 0-0.20362 0.0245m0 0-0.20206 0.034m0 0-0.20005 0.0436m0 0-0.19749 0.0532m0 0-0.19447 0.0626m0 0-0.19094 0.0716m0 0-0.18696 0.0808m0 0-0.1825 0.0895m0 0-0.17757 0.0981m0 0-0.17221 0.10645m0 0-0.16642 0.11454m0 0-0.16021 0.12227m0 0-0.1536 0.12978m0 0-0.1466 0.13693m0 0-0.13924 0.14374m0 0-0.13156 0.15022m0 0-0.12352 0.15629m0 0-0.11516 0.16197m0 0-0.10654 0.16728m0 0-0.09767 0.17214m0 0-0.08847 0.17657m0 0-0.07921 0.18058m0 0-0.06959 0.18411m0 0-0.05979 0.1872m0 0-0.0499 0.18982m0 0-0.03992 0.19196m0 0-0.02976 0.19363m0 0-0.0196 0.19479m0 0-0.0091 0.19551m0 0-8.89e-4 0.0814m4.1041 10.929v-5.3302m0-9.5128v-0.34532m0 9.8587v-9.5128m325.74 7.2489h4.1046m-4.1046 0v7.5942m0-15.189v7.5942m-321.86-69.614h317.99m-40.666-7.1512c-2.1795 3e-5 -4.1381 1.3297-4.9407 3.3542m26.604 0c-0.80264-2.0245-2.7612-3.3541-4.9407-3.3542m0 0h-16.722m44.467 63.475h2.5338m-2.5338-30.377h2.5338m0 30.377v-0.88585m0 0v-29.491m-330.65 30.377h2.5337m-2.5337-30.377h2.5337m-2.5337 0v21.944m0 0v8.4335m-17.419-7.5942c-5.01e-6 0.34951 0.28359 0.63286 0.63343 0.63286m0-16.454c-0.34983 0-0.63343 0.28334-0.63343 0.63285m16.469 2.5314h0.95017m-7.9179 13.29h-8.8681m8.8681 0c0.34984-1e-5 0.63343-0.28335 0.63342-0.63286m-0.63342-15.822h-8.8681m9.5017 0.63285c0-0.34951-0.28359-0.63285-0.63342-0.63285m6.9677 13.29h0.95017m-17.419-12.657v0.07506m0 0v15.114m349.02-2.5314h-0.95017m7.2845 2.5314c0 0.34952 0.2836 0.63286 0.63344 0.63286m8.8681 0c0.34984 0 0.63344-0.28334 0.63344-0.63286m-9.5017 0.63286h8.8681m-8.8681-16.454c-0.34983 0-0.63343 0.28334-0.63343 0.63285m10.135 0c0-0.34951-0.2836-0.63285-0.63343-0.63285m-8.8681 0h8.8681m-15.836 3.1643h-0.95017m17.419 12.657v-0.37864m0 0v-14.81m-10.135-0.94929c0-0.17476-0.1418-0.31643-0.31672-0.31643m-2.217 17.403c0 0.17475 0.1418 0.31643 0.31672 0.31643m0-17.72h1.9003m-1.9003 17.72h1.9003m-1.9003-17.72c-0.17492 0-0.31672 0.14167-0.31672 0.31643m2.217 17.403c0.17492 0 0.31672-0.14167 0.31672-0.31643m0 0v-1.7605m0 0v-15.326m-344.91 17.403h1.9003m-1.9003-17.72c-0.17492 0-0.31672 0.14167-0.31672 0.31643m0.31672-0.31643h1.9003m-2.217 17.403c0 0.17476 0.1418 0.31643 0.31672 0.31643m1.9003 0c0.17492 0 0.31672-0.14167 0.31672-0.31643m0-17.087c0-0.17476-0.1418-0.31643-0.31672-0.31643m-2.217 0.31643v17.066m0 0v0.0217m335.4-27.529h1.5836m-4.1173 0h4e-5m-320.52 0h4.5e-5m-4.1173 0h1.5836m-7.2845 21.409v16.563m336.35-16.563v16.563m0-21.409v0.85105m3.8006 0v1.5716m-334.45 18.986h-1.9003m336.35-37.972h-3.8006m3.8006 37.972v-16.563m-340.15-0.85105v0.85105m3.8006-0.85105v-1.5716m3.4839 18.986h-1.5836m4.1173 0h-4.5e-5m320.52 0h-4e-5m4.1173 0h-1.5836m3.4839-37.972v16.563m3.8006 0.85105v-0.85105m-3.8006 21.409h-1.9003m-334.45-37.972v16.563m336.35 21.409h3.8006m-340.15 0h3.8006m332.55-20.558v1.5716m-336.35 0v1.5716m336.35-1.5716v1.5716m-332.55-3.1433v-0.85105m330.65-16.563h1.9003m-332.55 21.409v-0.85105m0-20.558h1.9003m334.45 18.986v1.5716m-336.35 17.414v-16.563m336.35-4.8454v-16.563m-3.8006 20.558v0.85105m-332.55-4.8454v-16.563m336.35 18.986h-3.8006m-336.35-2.4227v0.85105m3.8006 1.5716v-1.5716m0-17.414h-3.8006m340.15 21.409v-0.85105m-340.15-1.5716h3.8006m-3.8006-1.5716v1.5716m7.2845 36.073h-0.07604m-4.1046-4.1009c0 2.2649 1.8377 4.1009 4.1046 4.1009m2.6098-3.7972h-4.5e-5m-2.5337-11.391h-0.07604m0 0c-2.2669 0-4.1046 1.836-4.1046 4.1009m6.7144-0.30377h-4.5e-5m-6.7144 7.2905v-6.8278m0 0v-0.15885m327.23-0.30376h4e-5m2.6097 11.391c2.2669 0 4.1046-1.836 4.1046-4.1009m-6.7144 0.30377h4e-5m6.7144-7.2905c0-2.2649-1.8377-4.1009-4.1046-4.1009m0 0h-0.076m0 15.189h0.076m4.1046-11.087v3.4933m0 0v3.4933m-327.23-40.832 4.5e-5 -6.3e-5m-4.5e-5 1.4298h4.5e-5m-4.5e-5 3.3648h4.5e-5m-4.5e-5 10.865 4.5e-5 -0.0219m0-8.2637-4.5e-5 -0.03354m0-2.5e-5 4.5e-5 -0.03355m0 11.632h-4.5e-5m4.5e-5 -16.638h-4.5e-5m4.5e-5 13.381-4.5e-5 -0.0219m0 1.6568h4.5e-5m0-16.763-4.5e-5 -0.01139m0-2.92e-4 4.5e-5 -0.01139m320.52-0.52946 4e-5 6.4e-5m0 17.72-4e-5 6e-5m4e-5 -6.2762h-4e-5m4e-5 5.0891-4e-5 0.0171m4e-5 -15.363-4e-5 0.01708m0 7.6219 4e-5 0.03405m-4e-5 5.1153h4e-5m-4e-5 -12.806 4e-5 0.01708m-4e-5 15.329 4e-5 0.0171m0-1.292h-4e-5m4e-5 -15.346h-4e-5m4e-5 8.9649-4e-5 0.03392m4e-5 -10.264h-4e-5m-299.61-19.514h16.379m4.479 1.8536 0.67845 0.67782m257.18-2.5314h-16.379m-241.47 1.8536c-1.1879-1.1868-2.799-1.8536-4.479-1.8536m266.5 1.569c-1.1552-1.0114-2.6389-1.569-4.1749-1.569m-20.858 1.8536-0.67845 0.67782m5.1575-2.5314c-1.68 1.4e-5 -3.2911 0.66677-4.479 1.8536m-257.85-1.8536c-1.536-4e-6 -3.0197 0.5576-4.1749 1.569m167.6 55.008c0 1.3981 1.1344 2.5314 2.5337 2.5314m136.19 9.8723v3.1643m-304.05-75.942h125.42m176.1-7.5942v79.74m-320.52 0h-1.9003m1.9003 0v-0.63286m136.19-42.143c-4e-5 -1.4024-1.1412-2.5375-2.5449-2.5314m-136.17 44.674h2.5337m15.836-11.138v-18.831m307.22 31.236c0-0.34951-0.2836-0.63284-0.63343-0.63285m-8.7996 16.454c1.4082-2e-5 2.7762-0.46883 3.8879-1.3324m-310.61 1.3324h306.72m9.4327-17.087v-79.107m-323.05 79.107v-79.107m317.51 94.866c3.4986-2.7176 5.5451-6.897 5.5452-11.324m-21.537-69.614c4.2003-0.02245 4.2003-6.3061 0-6.3285m-298.51 87.268c1.1117 0.86355 2.4798 1.3324 3.888 1.3324m-6.8993-16.454v-79.74m323.05 0h-2.5338m-3e-5 79.74h1.9003m-177.99-65.817h-125.42m-21.537 69.614c1.23e-4 4.4275 2.0466 8.6069 5.5452 11.324m320.04-14.489v-1.2657m-321.78-82.904c-2.099 0-3.8006 1.7-3.8006 3.7972m18.369 67.969c0 1.3981 1.1344 2.5314 2.5337 2.5314m-20.27 9.2394c-0.34984 0-0.63343 0.28334-0.63343 0.63285m0-80.372v79.107m304.05-65.184h-125.42m-42.451 20.51c-38.912 0.17081-77.707 4.267-115.79 12.226m126.57-32.737c4.2003-0.02245 4.2003-6.3061 0-6.3285m160.25 41.543c-4e-5 -1.1983-0.84103-2.2324-2.015-2.4778m-284.81 0c-1.174 0.24532-2.015 1.2794-2.015 2.4778m304.68 29.97h2.5338m-2.5338 0v0.63286m-15.836-30.603v18.831m14.569-71.766v3.7972m-183.06 36.964v31.005m165.96 2.5314h-115.29m-185.6-71.766c-0.69965 0-1.2668 0.56668-1.2668 1.2657m186.88 34.433c-1.4037-0.0062-2.5449 1.1289-2.5449 2.5314m136.19-36.964c0-0.69904-0.56717-1.2657-1.2668-1.2657m3.8006 1.2657c0-2.0971-1.7016-3.7972-3.8006-3.7972m-17.102 74.297c1.3994 0 2.5338-1.1334 2.5338-2.5314m-285.68-60.374c-4.2003 0.02245-4.2003 6.3061 0 6.3285m301.51-13.923v79.107m-186.87-8.6068h-115.29m-20.903 9.8723v-1.2657m305.2-32.447c-38.088-7.9592-76.883-12.055-115.79-12.226m-189.41 45.94v3.1643m178.63-75.942h125.42m-125.42 0c-4.2003 0.02245-4.2003 6.3061 0 6.3285m-176.1-13.923h-2.5337m321.78 0h1.2668m-319.25 0h-1.2668m319.25-3.7972h-317.99m183.06 71.766v-31.005m-183.06-36.964v-3.7972m299.71 59.673c-3e-3 -0.29256-0.21414-0.54148-0.50254-0.59225m-178.24-10.724 0.25964 25.941m157.66-18.528-0.19073-0.0286m-188.77-5.9552-0.0713 6e-3m107.78-2.0361c-0.34447-0.01648-0.6337 0.25624-0.63714 0.60077m-86.161 0.54841 0.25416 25.392m19.354-26.962c-0.32493 0.01147-0.58334 0.27627-0.58659 0.60108m-79.772 6.95 0.19429 19.411m50.427-24.717 0.24737 24.717m137.22-23.579c-0.35526-0.035-0.6641 0.2419-0.66766 0.59854m-50.904 22.98 0.26386-26.362m71.571 5.0346c-0.36034-0.0447-0.67929 0.23409-0.68292 0.59685m31.29 3.7914-0.22247-0.0362m-40.515-5.5426c-0.35782-0.0398-0.67169 0.23805-0.67529 0.59774m-217.79 5.5384 0.16396 16.382m239.25-19.388c-3e-3 -0.30133-0.22666-0.55492-0.52549-0.59584m-19.769-1.9228 0.21926 21.907m-209.21-17.962 0.17978 17.962m217.4 0 0.2075-20.73m-167.9-3.7753c-0.31219 0.0268-0.5529 0.28619-0.55603 0.59923m139.38 0c-3e-3 -0.31304-0.24384-0.57245-0.55603-0.59923m-198.97 7.5306-0.22247 0.0362m239.65-3.0681c-0.3628-0.0496-0.68688 0.23003-0.69053 0.59586m-69.632-6.5282c-3e-3 -0.32187-0.25715-0.58536-0.57895-0.60077m-68.071 26.54 0.26386-26.361m98.183 1.8492c-0.35263-0.0302-0.65649 0.24565-0.66003 0.59924m-178.15 3.9277c-0.29882 0.0409-0.52246 0.29451-0.52547 0.59584m51.291-5.9232c-0.31544 0.02306-0.56051 0.28386-0.56368 0.59983m108.37-1.2779-0.0416-0.0027m71.632 8.0595c-3e-3 -0.2984-0.22246-0.55045-0.51784-0.59473m-19.78-2.1856 0.20732 20.713m38.773 0 0.14683-14.67m-69.565-9.2367 0.23928 23.907m-139.86 0 0.23928-23.907m-39.898 3.8995-0.16165 0.0222m147.51 19.985 0.25965-25.941m-126.66 4.0208c-0.0036-0.35968-0.31747-0.6375-0.67529-0.59773m-41.411 22.518 0.1636-16.346m21.678-3.0657c-0.0037-0.36583-0.32773-0.64548-0.69053-0.59586m169.13-4.7054c-3e-3 -0.31597-0.24825-0.57677-0.56368-0.59983m-19.718-0.62712 0.25962 25.939m-128.85-22.518-0.11123 0.0127m179.42 0.59745c-3e-3 -0.30719-0.23518-0.56374-0.54076-0.59774m-168.72-1.0649c-0.30891 0.0304-0.5453 0.28843-0.54839 0.59854m220.06 7.7548-0.25686-0.0452m-80.985-10.05-0.0553-0.0036m-117.2 0.5996c-3e-3 -0.35056-0.30244-0.62542-0.65241-0.59985m9.2685 25.316 0.25412-25.39m-61.064 25.39 0.19407-19.389m-8.7428 1.4272c-0.0037-0.36893-0.33295-0.64944-0.69815-0.59478m169.12-6.8334c-3e-3 -0.31892-0.25267-0.58107-0.57131-0.60035m-147.61 5.2599c-0.0036-0.36275-0.32257-0.6415-0.68291-0.59685m127.97-5.6358c-0.34165-0.01206-0.62611 0.25954-0.62953 0.60108m20.905 0.3691c-0.34725-0.02099-0.64131 0.25281-0.64479 0.60036m-86.161-0.54841c-3e-3 -0.34454-0.29269-0.61726-0.63716-0.60077m-39.873 3.561 0.23001 22.98m9.8954-23.913 0.23934 23.913m-51.743-18.528c-0.29538 0.0443-0.51484 0.29633-0.51783 0.59473m230.16-2.0516-0.16163-0.0222m-81.048-6.9551-0.0221-7.87e-4m71.61 6.2494c-3e-3 -0.30426-0.2309-0.55934-0.53312-0.59684m-11.16 21.311 0.21941-21.92m52.075 7.2953 0.14637 14.625m-32.171 0 0.1943-19.411m10.818 0.85459c-0.3652-0.0547-0.69448 0.22585-0.69816 0.59477m-259.89 17.962 0.14639-14.625m41.952-6.1056 0.20749 20.73m-0.8904-21.327-0.13517 0.0168m177.88 21.311 0.23002-22.98m-178.12 1.6702c-0.30222 0.0375-0.53007 0.29259-0.53311 0.59684m158.15 20.713 0.24739-24.717m21.558 1.7447 0.22992 22.972m-107.95-26.362c-3e-3 -0.34154-0.28788-0.61314-0.62953-0.60108m-60.922 4.4576c-0.30558 0.034-0.53768 0.29055-0.54076 0.59773m148.9-3.4087c-0.34996-0.02557-0.6489 0.24928-0.6524 0.59986m-178.87 24.717 0.1795-17.934m-19.8 2.7162c-0.2884 0.0508-0.49962 0.2997-0.50254 0.59226m271.29-1.7207 0.1636 16.346m-190.53 0 0.24736-24.712m88.668-1.6487c-3e-3 -0.32481-0.26166-0.58961-0.58659-0.60108m31.007 2.2498 0.24734 24.712m20.04-22.972c-3e-3 -0.31012-0.23948-0.56812-0.54839-0.59855m51.289 7.2248c-3e-3 -0.29548-0.21827-0.54598-0.51017-0.59355m-168.72-9.6025-0.0307 9.06e-4m-29.716 2.6278c-4e-3 -0.35359-0.3074-0.62946-0.66003-0.59923m-21.136 24.512 0.21928-21.907m179.42-0.59774-0.11123-0.0127m-128.01-4.0221c-0.32181 0.01541-0.57574 0.2789-0.57895 0.60077m-39.263 2.9588c-4e-3 -0.35663-0.3124-0.63349-0.66765-0.59853m117.88-2.961-0.0307-9.05e-4m-86.799 1.1489c-3e-3 -0.34754-0.29753-0.62134-0.64477-0.60036m169.21 8.0595 0.17949 17.934m19.364-15.262c-0.36983-0.065-0.70964 0.21713-0.7134 0.59228m-59.969-8.9004-0.0899-9e-3m31.079 4.1901 0.19405 19.389m18.503 0 0.16397-16.382m-259.2-0.5574c-0.29191 0.0476-0.50724 0.29806-0.5102 0.59355m199.71-8.1603-0.0713-6e-3m-21.169 24.512 0.25416-25.392m-177.28 9.0105c-0.0037-0.37203-0.33824-0.65335-0.70578-0.59356m-9.4118 2.3053 0.14683 14.67m-0.86023-15.262-0.25685 0.0452m60.16 15.217 0.22994-22.972m-59.42 8.3019c-0.0038-0.37514-0.34357-0.65726-0.7134-0.59227m100.44 15.262 0.25963-25.939m68.386-0.42174 0.26385 26.361m89.448 0 0.17979-17.962m-167.85-8.0285c-0.31864 0.01927-0.56812 0.28143-0.57132 0.60035m179.25 8.4147c-0.36754-0.0598-0.70206 0.22154-0.70578 0.59357m-157.02-9.98 0.26385 26.362m-72.711 0 0.20734-20.713m168.28 20.713 0.23935-23.913m-157.05 1.9926 0.2194 21.92m188.02-21.311-0.13516-0.0168m-50.053-4.0628 0.25414 25.39m-169.37-18.557-0.19074 0.0286m71.114-7.4649-0.0417 0.0027m20.317-0.97274-0.0221 7.87e-4m-30.389 1.6459-0.0553 0.0036m-20.213 1.7334-0.0899 9e-3" fill="none" stroke="#010101" stroke-linecap="round"/><path transform="translate(32.491 6.1647)" d="m947.5 477.17c0-1.4449-1.1724-2.6162-2.6186-2.6162s-2.6186 1.1713-2.6186 2.6162 1.1724 2.6162 2.6186 2.6162 2.6186-1.1713 2.6186-2.6162zm-4.271 2.0295c1.2166-1.1278 1.3799-2.9931 0.37781-4.3149m2.5494 0c-1.0021 1.3217-0.83875 3.187 0.37781 4.3149m-3.7181-28.242-2.3376 3.7543 2.0823 3.9006 4.4199 0.1481 2.3375-3.7542-2.0824-3.9006zm9.7412 3.9017c0-4.2301-3.4291-7.6592-7.6592-7.6592-4.23 5e-5 -7.6591 3.4292-7.6591 7.6592s3.4291 7.6592 7.6591 7.6592c4.2301 0 7.6592-3.4292 7.6592-7.6592zm0.95742 0c0-4.7588-3.8578-8.6166-8.6166-8.6166-4.7588 6e-5 -8.6166 3.8578-8.6166 8.6166s3.8577 8.6165 8.6166 8.6166c4.7588 0 8.6166-3.8578 8.6166-8.6166zm-0.31911 0c0-4.5826-3.7149-8.2975-8.2975-8.2974-4.5825 0-8.2974 3.7149-8.2974 8.2974 0 4.5826 3.7149 8.2974 8.2974 8.2974 4.5826 5e-5 8.2975-3.7149 8.2975-8.2974zm0.63823 0c0-4.9351-4.0006-8.9357-8.9358-8.9357-4.935 6e-5 -8.9357 4.0007-8.9357 8.9357s4.0006 8.9357 8.9357 8.9357 8.9358-4.0007 8.9358-8.9357zm-56.45 79.609v-5.0583m2.9196 6.7389-1.0924-0.0177 9e-3 -8.385 1.0844-0.016m-0.82241 4e-5c-1.005-4e-5 -1.876 0.69754-2.0977 1.6799m0 5.0583c0.22166 0.98243 0.82205 1.6628 1.8271 1.6628m79.443-488.18h5.0583m-6.7389 2.9196 0.0181-1.0924 8.385 0.0085 0.0163 1.0845m-9e-5 -0.82238c9e-5 -1.0051-0.69757-1.876-1.6799-2.0978m-5.0582 0c-0.98247 0.22165-1.6629 0.82208-1.6628 1.8271m-1.0882 78.154 2.7647-2.4096m-11.06 9.6142 2.7647-2.4096m4.9785-2.803c0.2164 1.2288-0.60428 2.4004-1.833 2.6168-1.2287 0.21636-2.4002-0.60439-2.6165-1.8332-0.2164-1.2288 0.6042-2.4004 1.8329-2.6168 1.2287-0.21641 2.4003 0.60436 2.6166 1.8332zm-3.9437-1.6647-0.92131 2.517 1.7187 2.056 2.6403-0.45997 0.9214-2.517-1.7188-2.056zm0.1283 0.22666 3.2048 3.6868m1.9638-1.8569c-9e-5 1.9695-1.5966 3.5661-3.5661 3.5661-1.9695 5e-5 -3.5661-1.5966-3.5662-3.5661 0-1.9696 1.5966-3.5663 3.5662-3.5662 1.9695 0 3.5661 1.5966 3.5661 3.5662zm4.0678-1e-5c0 4.2161-3.4179 7.6339-7.6339 7.6339s-7.6339-3.4178-7.6339-7.6339 3.4179-7.6339 7.6339-7.6339 7.6339 3.4178 7.6339 7.6339zm-4.9308 99.537 2.7647-2.4096m-11.06 9.6142 2.7647-2.4096m4.9785-2.803c0.2164 1.2288-0.60429 2.4004-1.833 2.6168-1.2287 0.21636-2.4002-0.60439-2.6165-1.8332-0.2164-1.2288 0.6042-2.4004 1.8329-2.6168 1.2287-0.21642 2.4003 0.60436 2.6166 1.8332zm-3.9437-1.6647-0.92132 2.517 1.7187 2.056 2.6403-0.45997 0.9214-2.517-1.7188-2.056zm0.12829 0.22666 3.2048 3.6868m1.9638-1.8569c0 1.9696-1.5966 3.5662-3.5661 3.5662-1.9696 5e-5 -3.5662-1.5966-3.5662-3.5662 9e-5 -1.9696 1.5967-3.5662 3.5662-3.5661 1.9695 0 3.566 1.5966 3.5661 3.5661zm4.0678 0c0 4.2161-3.4179 7.6339-7.6339 7.6339s-7.6339-3.4178-7.6339-7.6339 3.4179-7.6339 7.6339-7.6339 7.6339 3.4178 7.6339 7.6339zm-4.7857 99.528 2.7647-2.4096m-11.06 9.6142 2.7647-2.4096m4.9784-2.803c0.2164 1.2288-0.60429 2.4004-1.833 2.6168-1.2287 0.21635-2.4002-0.6044-2.6165-1.8332-0.2164-1.2288 0.60429-2.4004 1.833-2.6168 1.2287-0.21636 2.4002 0.6044 2.6165 1.8332zm-3.9436-1.6647-0.9214 2.517 1.7188 2.056 2.6403-0.45999 0.92132-2.517-1.7187-2.056zm0.1283 0.22668 3.2048 3.6868m1.9637-1.8569c0 1.9696-1.5966 3.5662-3.5661 3.5662s-3.5661-1.5966-3.5661-3.5662 1.5966-3.5662 3.5661-3.5662 3.5661 1.5966 3.5661 3.5662zm4.0678-1e-5c0 4.2161-3.4179 7.6339-7.6339 7.6339-4.216-5e-5 -7.6338-3.4178-7.6338-7.6339s3.4178-7.6338 7.6338-7.6339c4.216 0 7.6339 3.4178 7.6339 7.6339zm-4.8714 99.565 2.7447-2.3922m-10.981 9.5454 2.7447-2.3922m4.9425-2.7828c0.21477 1.22-0.59993 2.3831-1.8198 2.5979-1.2198 0.21483-2.3828-0.59997-2.5976-1.8199-0.21477-1.22 0.59993-2.3831 1.8198-2.5979 1.2198-0.21483 2.3828 0.59997 2.5976 1.8199zm-3.9151-1.6528-0.91469 2.4989 1.7063 2.0412 2.6212-0.45666 0.91478-2.4989-1.7063-2.0412zm0.12739 0.22503 3.1817 3.6602m1.9495-1.8435c0 1.9553-1.5851 3.5404-3.5404 3.5404-1.9553-6e-5 -3.5404-1.5851-3.5404-3.5404s1.585-3.5403 3.5404-3.5404c1.9553 0 3.5404 1.5851 3.5404 3.5404zm4.0384 0c0 4.1856-3.3931 7.5787-7.5787 7.5788-4.1856 0-7.5788-3.3931-7.5788-7.5788 0-4.1856 3.3932-7.5788 7.5788-7.5788 4.1856 6e-5 7.5787 3.3932 7.5787 7.5788zm-81.208 151.05v-8.4598m64.172 88.318h-37.637m64.611-154.48v88.547m7.4614-550.07v2.5481m-11.226-2.5481v2.5481m-3.1364 0v-2.5481m-79.665 549.76v-545.94m86.566 547.21v2.5481m-3.7637-94.92v-455.48m-3.1364 455.48v-455.48m14.361 0v455.48m-101.11 80.393c0 2.1919 1.3179 4.1616 3.3246 4.9688m0-26.755c-2.0067 0.80722-3.3246 2.7769-3.3246 4.9688m0 0v8.4088m0 0v8.4088m0.37637-5.0708c0 1.1962 0.95488 2.1659 2.1328 2.1659m0.81543 0h-0.81543m0.81543-8.4598h-0.81543m0 0c-1.1779 0-2.1327 0.96967-2.1328 2.1658m0 2.8968c0 0.0838 9e-3 0.16898 0.0263 0.24704 0.01 0.0457 0.0245 0.094 0.0426 0.14327m0 7e-5c-0.0127 0.16102-0.0172 0.3185-0.0172 0.46794s0 0.30591 0.0172 0.46389m-0.069-3.1949v1.8725m0-1.8725v-0.84864m0.0708 4.0432c-0.0181-0.0444-0.0327-0.0889-0.0426-0.13191-0.0172-0.0734-0.0263-0.15618-0.0263-0.24005m0-0.88313v-0.0669m0-2.721c0-0.0939 9e-3 -0.18689 0.0263-0.26959 0.01-0.0484 0.0245-0.0986 0.0426-0.14901m-0.0708 0.24304v0.17536m0 3.6714v0.28116m0.069-4.3714c-0.0127 0.14075-0.0172 0.28037-0.0172 0.41382 0 0.13344 0 0.2742 0.0172 0.41834m-0.069 3.2581v-0.88336m0 0v-5.1e-4m0.068-2.3741c-0.0181 0.0547-0.0327 0.10829-0.0426 0.15915-0.0172 0.0869-0.0263 0.18191-0.0263 0.27584m47.484-148.56-1.5578 2.1094m3.1156 0c0.20324 0.27525 0.50756 0.45529 0.84355 0.4992m16.418 18.955v212.13m-21.22-231.09c-9.3877 1.2263-16.418 9.3429-16.417 18.955m20.376-19.454-1.5578-2.1094m-18.818 233.7v-212.13m37.637 0c1.8e-4 -9.6122-7.0297-17.729-16.417-18.955m-21.22 236.82h37.637m-21.22-236.82c0.33599-0.0439 0.64031-0.22396 0.84356-0.4992m-17.261 237.32v-5.7332m37.637 0v5.7332m35.756-71.665v-88.547m0 88.547h-8.782m-8.1547-88.547h8.1547m0 88.547h-4.391m-82.174 0h-1.2148m96.559-88.547h-8.782m-67.414-57.028c-2.4775-6e-5 -4.0147 2.7364-2.754 4.9021 1.2608 2.1658 4.3627 2.1172 5.5569-0.0871m0-3.1323c-0.56237-1.0379-1.6364-1.6826-2.8029-1.6826m67.414 149.08h-4.391m-60.414-164.1c-2.334 2e-5 -3.8823 2.4562-2.9054 4.6088 0.97694 2.1526 3.8215 2.5526 5.3377 0.75055m0.5836-1.0265c0.73685-2.1142-0.80744-4.3328-3.0159-4.3328m73.587-386.93v-2.5481m-73.393 553.58h-21.955m82.174 0h-22.582m18.818-91.733v-459.3m-58.268 412.2c0.64712-2e-5 1.2791-0.19934 1.8123-0.57165m0-5.3544c-1.6911-1.1806-4.024-0.46181-4.784 1.474m1.4568 4.0646c0.46564 0.25426 0.98618 0.38735 1.5149 0.38736m-20.143-414.75c-2.0786 0-3.7637 1.7112-3.7637 3.8222m3.7637 547.21v2.5481m18.818-146.45c1.1084-1e-5 2.1378-0.58265 2.7208-1.54m0-3.4178c-1.1251-1.8474-3.6842-2.0748-5.1082-0.45384m0 4.3255c0.60701 0.69098 1.4755 1.0861 2.3873 1.0861m60.219-404.58h0.62734m-79.665 1.2741v-1.2741m79.665-3.9e-5h3.1364m-84.056 547.21c0 0.70364 0.56174 1.274 1.2546 1.274m95.343 2.5481h-8.782m-4.391-2.5481v2.5481m-82.174-551.03c-0.69284 0-1.2546 0.57041-1.2546 1.274m1.2546-3.8222v2.5481m-3.7637 547.21h3.7637m80.92-87.91h-2.5092m15.616-459.3h-11.226m-23.21 548.48h22.582m-82.174 0h21.955m64.611 4e-5h8.782m-99.109-1.274c0 2.1109 1.6851 3.8222 3.7637 3.8222m19.152-156.82c-2.582 1e-5 -4.1002 2.946-2.6287 5.1004 1.4715 2.1545 4.7204 1.7426 5.6251-0.71323m0.20261-1.1673c-0.0154-1.7829-1.4433-3.2199-3.199-3.2199m-19.152-394.21h78.411m-78.411 547.21v1.274m21.955-135.35c-0.7315 0.59504-1.1692 1.4859-1.1976 2.4372m1.1976 132.92h-21.955m82.174 0h-22.582m-59.592-548.48h79.038m0-2.5481v2.5481m3.1365 548.48v-87.91m13.173-463.12h-95.343m79.665 0h-0.62733m-57.278 411.78c-4.3982-5.9e-4 -4.1951 6.7645 0.19498 6.4917m0-6.4856c-0.0653-5e-3 -0.12993-6e-3 -0.19498-6e-3m73.587 141.8v-2.5484m-13.173 0h4.391m-90.329-547.21h3.7637m94.028-1.274h1.3205m-13.173 460.58c0-0.70364-0.56173-1.274-1.2546-1.274m-84.684-458.02v545.94m83.115-547.21v0.63702m-4.391-0.63702v3.9e-5m10.35-3.9e-5v0.63702m10.037 0v-0.63702m-1.3205 0.63702h-11.226m-3.7637 0h-0.62724m4.391 455.48h11.226m0 0h1.3205m0-455.48h-1.3205m-14.361 0h-0.62733m3.7637 455.48h-3.1364m-0.62733 0h0.62733m15.682 0v-455.48m-16.309 0v455.48m-0.62724 0h0.62724m3.7637-455.48h-3.1364" fill="none" stroke="#010101" stroke-linecap="round"/></svg>
