<?xml version="1.0" encoding="UTF-8" standalone="no"?>
<svg
   width="599.99988"
   height="586.26819"
   version="1.1"
   viewBox="0 0 158.74685 155.12481"
   id="svg1235"
   sodipodi:docname="45.svg"
   inkscape:version="1.2.2 (732a01da63, 2022-12-09)"
   xmlns:inkscape="http://www.inkscape.org/namespaces/inkscape"
   xmlns:sodipodi="http://sodipodi.sourceforge.net/DTD/sodipodi-0.dtd"
   xmlns="http://www.w3.org/2000/svg"
   xmlns:svg="http://www.w3.org/2000/svg">
  <sodipodi:namedview
     id="namedview1237"
     pagecolor="#505050"
     bordercolor="#ffffff"
     borderopacity="1"
     inkscape:showpageshadow="0"
     inkscape:pageopacity="0"
     inkscape:pagecheckerboard="1"
     inkscape:deskcolor="#505050"
     showgrid="false"
     showguides="true"
     inkscape:zoom="0.90354911"
     inkscape:cx="262.85234"
     inkscape:cy="267.8327"
     inkscape:window-width="1680"
     inkscape:window-height="979"
     inkscape:window-x="1912"
     inkscape:window-y="-8"
     inkscape:window-maximized="1"
     inkscape:current-layer="svg1235" />
  <defs
     id="defs1145" />
  <path
     transform="matrix(0.21948825,0,0,0.21944733,34.382559,9.5247198)"
     d="m 0,141.76 -2.3489,-7.186 -2.1297,-6.319 -1.9504,-5.577 -1.8191,-4.719 -1.7015,-4.23 -1.6071,-3.77 -1.516,-3.486 -1.4541,-3.105 -1.3978,-2.819 -1.3292,-2.6933 -1.2894,-2.4546 -1.2293,-2.3745 -1.1921,-2.2147 -1.1677,-2.0395 -1.1533,-1.8651 -1.1395,-1.7227 -1.1337,-1.5812 -1.121,-1.4871 -1.1348,-1.3327 -1.1792,-1.1195 -1.1487,-1.1358 -1.1422,-1.0917 -0.7287,-2.0135 -1.3245,-0.5408 -0.9675,-1.3099 -0.925,-1.3351 -0.8157,-1.4886 -0.7367,-1.5661 -0.6306,-1.6828 -0.5591,-1.7254 -0.4189,-1.8762 -0.3225,-1.9388 -0.2228,-1.998 -0.6976,-1.197 0.4431,-2.7894 0.1958,-2.2984 0.2153,-2.2095 0.2901,-2.198 0.4155,-2.2469 0.4715,-2.2046 0.4306,-2.0515 0.5984,-2.1424 0.5623,-2.0018 0.6319,-1.981 0.6441,-1.9011 0.6528,-1.8222 0.6818,-1.7665 0.7567,-1.7539 0.7343,-1.6541 0.621,-1.4844 0.9011,-1.6469 0.8341,-1.5177 1.0579,-1.6168 0.6218,-1.2215 0.7745,-1.2763 1.0376,-1.3963 0.5769,-1.0289 0.7415,-1.0886 0.8682,-1.1158 0.8434,-1.0482 0.9429,-1.0534 0.2884,-0.6526 1.4259,-1.2101 0.8952,-0.88068 0.9341,-0.85293 0.9134,-0.79758 0.445,-0.55484 1.2369,-0.8512 0.9446,-0.68419 0.8268,-0.59945 0.7818,-0.54772 0.735,-0.49882 1.4271,-0.67929 0.0504,-0.22774 0.6628,-0.38782 L -10.773,2.69003 -9.3559,2.164 -8.68183,1.8494 -8.26916,1.61137 -7.7556,1.37153 -7.36386,1.17033 -6.58405,0.92934 -5.89442,0.72776 -5.26417,0.5573 -4.61389,0.40768 -3.92799,0.27869 -3.23921,0.17378 -2.58043,0.09413 -1.71029,0.033872 -0.70999,0.004018 H 8e-5 l 2.0545,-4.6145 2.2149,-4.5414 2.713,-5.1603 2.9596,-5.1962 3.0589,-4.9389 2.7563,-3.9755 2.2043,-2.6836 1.9698,-2.061 1.7646,-1.5494 1.9123,-1.6327 2.2372,-1.9639 1.5534,-0.8122 1.3332,-0.4167 1.2782,-0.2787 1.3264,-0.2841 1.4163,-0.3374 1.4789,-0.3494 1.4055,-0.2002 1.1852,0.1005 1.0933,0.2358 1.0065,0.3544 0.8801,0.5029 1.1994,0.2074 0.5667,0.8317 0.8141,0.6018 0.8301,0.5973 0.785,0.6458 0.1736,1.1492 1.4695,0.1107 0.9892,0.5203 1.0761,0.4777 1.2454,0.3843 1.3534,0.3451 1.383,0.3646 1.4949,0.3342 1.4295,0.4179 1.5147,0.4094 1.6015,0.4056 1.6754,0.4138 1.7788,0.4115 1.8546,0.4287 1.9603,0.4365 1.9934,0.4826 2.0404,0.5242 2.1468,0.5442 2.1332,0.6163 2.133,0.6821 2.1614,0.7377 2.2196,0.785 2.2616,0.8403 2.349,0.8849 2.3115,0.9677 2.3811,1.0217 2.3869,1.0942 2.4543,1.1541 2.5204,1.2181 2.6012,1.2833 2.8556,1.3256 2.728,1.4358 2.819,1.5124 2.959,1.5896 3.98,1.5975 2.33,1.8467 3.316,1.8718 3.607,1.9738 3.655,2.0965 3.844,2.2228 4.143,2.3622 4.132,2.5079 4.68,2.684 4.772,2.859 5.326,3.0811 5.647,3.3105 6.122,3.5785 6.762,3.898 7.137,4.2133 7.74,4.5926 8.471,5.0343 8.713,5.4166 9.272,5.8915 9.847,6.4073 10.542,6.995 11.154,7.6058 11.342,8.1312 10.73,8.4177 10.19,8.7046 9.449,8.898002 8.029,8.799 6.595,8.62 5.891,8.675 10.425,11.031 12.528,12.552 14.938,14.374 17.279,16.339 15.981,16.551 17.131,18.061 15.534,18.097 13.44,17.754 11.695,17.514 9.475,16.873 4.534,14.26 2.013,12.996 -0.928,11.251 -4.356,8.925 -5.585,8.047 -7.587,6.453 -9.901,4.426 -11.165,3.108 -11.515,2.494 -10.978,2.665 -11.156,2.192 -11.797,1.23 -12.575,0.049 -12.144,0.066 -13.742,-2.138 -15.085,-4.257 -14.864,-4.707 -14.034,-4.409 -13.815,-4.826 -12.771,-4.154 -12.163,-3.969 -11.822,-4.115 -11.286,-3.952 -11.066,-4.229 -9.943,-3.061 -9.835,-3.417 -9.695,-3.729 -9.183,-3.389 -8.781,-3.183 -8.439,-3.047 -8.12,-2.912 -8.044,-3.261 -7.773,-3.197 -7.587,-3.3 -7.146,-2.769 -7.022,-2.958 -6.794,-2.869 -6.512,-2.59 -6.3648,-2.652 -6.2658,-2.864 -6.2131,-3.259 -6.3321,-4.357 -6.3898,-5.431 -6.4644,-6.812 -6.3939,-7.839 -6.1723,-8.345 -5.968,-9.07 -5.6794,-9.472 -5.3404,-9.628 -5.0599,-10.288 -4.6558,-10.059 -4.242,-9.529 -3.8679,-9.117 -3.532,-8.951 -3.1914,-8.325 -2.8931,-8.092 -2.6089,-7.707"
     fill="#fcff5c"
     fill-opacity="0.70588"
     fill-rule="evenodd"
     id="path1149"
     style="stroke-width:1.03571" />
  <path
     transform="matrix(0.21948825,0,0,0.21944733,34.382559,9.5247198)"
     d="m 0,141.76 -2.3489,-7.186 -2.1297,-6.319 -1.9504,-5.577 -1.8191,-4.719 -1.7015,-4.23 -1.6071,-3.77 -1.516,-3.486 -1.4541,-3.105 -1.3978,-2.819 -1.3292,-2.6933 -1.2894,-2.4546 -1.2293,-2.3745 -1.1921,-2.2147 -1.1677,-2.0395 -1.1533,-1.8651 -1.1395,-1.7227 -1.1337,-1.5812 -1.121,-1.4871 -1.1348,-1.3327 -1.1792,-1.1195 -1.1487,-1.1358 -1.1422,-1.0917 -0.7287,-2.0135 -1.3245,-0.5408 -0.9675,-1.3099 -0.925,-1.3351 -0.8157,-1.4886 -0.7367,-1.5661 -0.6306,-1.6828 -0.5591,-1.7254 -0.4189,-1.8762 -0.3225,-1.9388 -0.2228,-1.998 -0.6976,-1.197 0.4431,-2.7894 0.1958,-2.2984 0.2153,-2.2095 0.2901,-2.198 0.4155,-2.2469 0.4715,-2.2046 0.4306,-2.0515 0.5984,-2.1424 0.5623,-2.0018 0.6319,-1.981 0.6441,-1.9011 0.6528,-1.8222 0.6818,-1.7665 0.7567,-1.7539 0.7343,-1.6541 0.621,-1.4844 0.9011,-1.6469 0.8341,-1.5177 1.0579,-1.6168 0.6218,-1.2215 0.7745,-1.2763 1.0376,-1.3963 0.5769,-1.0289 0.7415,-1.0886 0.8682,-1.1158 0.8434,-1.0482 0.9429,-1.0534 0.2884,-0.6526 1.4259,-1.2101 0.8952,-0.88068 0.9341,-0.85293 0.9134,-0.79758 0.445,-0.55484 1.2369,-0.8512 0.9446,-0.68419 0.8268,-0.59945 0.7818,-0.54772 0.735,-0.49882 1.4271,-0.67929 0.0504,-0.22774 0.6628,-0.38782 L -10.773,2.69003 -9.3559,2.164 -8.68183,1.8494 -8.26916,1.61137 -7.7556,1.37153 -7.36386,1.17033 -6.58405,0.92934 -5.89442,0.72776 -5.26417,0.5573 -4.61389,0.40768 -3.92799,0.27869 -3.23921,0.17378 -2.58043,0.09413 -1.71029,0.033872 -0.70999,0.004018 H 8e-5 l 2.0545,-4.6145 2.2149,-4.5414 2.713,-5.1603 2.9596,-5.1962 3.0589,-4.9389 2.7563,-3.9755 2.2043,-2.6836 1.9698,-2.061 1.7646,-1.5494 1.9123,-1.6327 2.2372,-1.9639 1.5534,-0.8122 1.3332,-0.4167 1.2782,-0.2787 1.3264,-0.2841 1.4163,-0.3374 1.4789,-0.3494 1.4055,-0.2002 1.1852,0.1005 1.0933,0.2358 1.0065,0.3544 0.8801,0.5029 1.1994,0.2074 0.5667,0.8317 0.8141,0.6018 0.8301,0.5973 0.785,0.6458 0.1736,1.1492 1.4695,0.1107 0.9892,0.5203 1.0761,0.4777 1.2454,0.3843 1.3534,0.3451 1.383,0.3646 1.4949,0.3342 1.4295,0.4179 1.5147,0.4094 1.6015,0.4056 1.6754,0.4138 1.7788,0.4115 1.8546,0.4287 1.9603,0.4365 1.9934,0.4826 2.0404,0.5242 2.1468,0.5442 2.1332,0.6163 2.133,0.6821 2.1614,0.7377 2.2196,0.785 2.2616,0.8403 2.349,0.8849 2.3115,0.9677 2.3811,1.0217 2.3869,1.0942 2.4543,1.1541 2.5204,1.2181 2.6012,1.2833 2.8556,1.3256 2.728,1.4358 2.819,1.5124 2.959,1.5896 3.98,1.5975 2.33,1.8467 3.316,1.8718 3.607,1.9738 3.655,2.0965 3.844,2.2228 4.143,2.3622 4.132,2.5079 4.68,2.684 4.772,2.859 5.326,3.0811 5.647,3.3105 6.122,3.5785 6.762,3.898 7.137,4.2133 7.74,4.5926 8.471,5.0343 8.713,5.4166 9.272,5.8915 9.847,6.4073 10.542,6.995 11.154,7.6058 11.342,8.1312 10.73,8.4177 10.19,8.7046 9.449,8.898002 8.029,8.799 6.595,8.62 5.891,8.675 10.425,11.031 12.528,12.552 14.938,14.374 17.279,16.339 15.981,16.551 17.131,18.061 15.534,18.097 13.44,17.754 11.695,17.514 9.475,16.873 4.534,14.26 2.013,12.996 -0.928,11.251 -4.356,8.925 -5.585,8.047 -7.587,6.453 -9.901,4.426 -11.165,3.108 -11.515,2.494 -10.978,2.665 -11.156,2.192 -11.797,1.23 -12.575,0.049 -12.144,0.066 -13.742,-2.138 -15.085,-4.257 -14.864,-4.707 -14.034,-4.409 -13.815,-4.826 -12.771,-4.154 -12.163,-3.969 -11.822,-4.115 -11.286,-3.952 -11.066,-4.229 -9.943,-3.061 -9.835,-3.417 -9.695,-3.729 -9.183,-3.389 -8.781,-3.183 -8.439,-3.047 -8.12,-2.912 -8.044,-3.261 -7.773,-3.197 -7.587,-3.3 -7.146,-2.769 -7.022,-2.958 -6.794,-2.869 -6.512,-2.59 -6.3648,-2.652 -6.2658,-2.864 -6.2131,-3.259 -6.3321,-4.357 -6.3898,-5.431 -6.4644,-6.812 -6.3939,-7.839 -6.1723,-8.345 -5.968,-9.07 -5.6794,-9.472 -5.3404,-9.628 -5.0599,-10.288 -4.6558,-10.059 -4.242,-9.529 -3.8679,-9.117 -3.532,-8.951 -3.1914,-8.325 -2.8931,-8.092 -2.6089,-7.707"
     fill-rule="evenodd"
     stroke="#fcff5c"
     stroke-linecap="round"
     stroke-linejoin="round"
     stroke-width="4.82227"
     id="path1153"
     style="fill:none" />
  <path
     transform="matrix(0.51096123,0,0,0.51088846,-116.44742,-24.122263)"
     d="m 320.33,65.864 a 31.291,31.291 0 0 1 -15.646,27.099 31.291,31.291 0 0 1 -31.292,-10e-7 31.291,31.291 0 0 1 -15.646,-27.099"
     clip-path="none"
     stroke-width="0.517865"
     id="path1155"
     style="fill:none;stroke:#858585" />
  <path
     transform="matrix(1.0218838,0,0,1.0210625,-264.1344,-57.726765)"
     d="m 320.33,65.864 c -3e-5,11.179372 -5.96428,21.509493 -15.646,27.099 -9.68172,5.589983 -21.61028,5.589983 -31.292,-10e-7 -2.89813,-1.673165 -5.46316,-3.771111 -7.63482,-6.189462"
     clip-path="none"
     stroke-width="0.259031"
     id="path1157"
     style="fill:none;stroke:#858585"
     sodipodi:nodetypes="cccc" />
  <path
     transform="matrix(1.532874,0,0,1.5316903,-411.82138,-91.353473)"
     d="m 320.33,65.864 c -3e-5,11.179372 -5.96428,21.509493 -15.646,27.099 -9.64354,5.56794 -21.51623,5.589896 -31.17736,0.06587 -0.0383,-0.02187 -0.0765,-0.04383 -0.11464,-0.06587"
     clip-path="none"
     stroke-width="0.172674"
     id="path1159"
     style="fill:none;stroke:#858585"
     sodipodi:nodetypes="ccsc" />
  <path
     transform="matrix(2.0438642,0,0,2.0422215,-559.51801,-124.98115)"
     d="m 320.33,65.864 c -3e-5,11.179372 -5.96428,21.509493 -15.646,27.099 -8.38348,4.840412 -18.45163,5.489472 -27.28692,1.947178"
     clip-path="none"
     stroke-width="0.129505"
     id="path1161"
     style="fill:none;stroke:#858585"
     sodipodi:nodetypes="ccc" />
  <path
     transform="matrix(2.5547579,0,0,2.5527527,-707.20499,-158.60786)"
     d="m 320.33,65.864 c -3e-5,11.179372 -5.96428,21.509493 -15.646,27.099 -7.65498,4.419791 -16.71455,5.345018 -24.9576,2.775682"
     clip-path="none"
     stroke-width="0.103612"
     id="path1163"
     style="fill:none;stroke:#858585"
     sodipodi:nodetypes="ccc" />
  <path
     transform="matrix(3.0656515,0,0,3.063284,-854.87266,-192.23457)"
     d="m 320.33,65.864 c -3e-5,11.179372 -5.96428,21.509493 -15.646,27.099 -7.1773,4.143994 -15.58938,5.215942 -23.40549,3.215844"
     clip-path="none"
     stroke-width="0.086342"
     id="path1165"
     style="fill:none;stroke:#858585"
     sodipodi:nodetypes="ccc" />
  <path
     transform="matrix(3.5766417,0,0,3.5738152,-1002.5693,-225.86127)"
     d="m 320.33,65.864 c -3e-5,11.179372 -5.96428,21.509493 -15.646,27.099 -6.83989,3.949178 -14.80118,5.108364 -22.29939,3.477558"
     clip-path="none"
     stroke-width="0.0740067"
     id="path1167"
     style="fill:none;stroke:#858585"
     sodipodi:nodetypes="ccc" />
  <path
     transform="matrix(4.0789416,0,0,4.0756574,-1147.9872,-258.91836)"
     d="m 320.33,65.864 c -3e-5,11.179372 -5.96428,21.509493 -15.646,27.099 -6.57263,3.794869 -14.18074,5.013517 -21.41841,3.655944"
     clip-path="none"
     stroke-width="0.0648934"
     id="path1169"
     style="fill:none;stroke:#858585"
     sodipodi:nodetypes="ccc" />
  <path
     transform="matrix(0.255582,0,0,0.2555456,-50.629911,0.64304029)"
     d="m 320.33,34.764 v 499.07"
     clip-path="none"
     stroke-width="1.03533"
     id="path1171"
     style="fill:none;stroke:#858585" />
  <path
     transform="matrix(0,0.37990553,-0.37995964,0,162.74326,-112.18891)"
     d="M 320.33,44.49 V 408.76494"
     clip-path="none"
     stroke-width="0.696411"
     id="path1173"
     style="fill:none;stroke:#858585"
     sodipodi:nodetypes="cc" />
  <path
     transform="matrix(0.255582,0,0,0.2555456,-50.629911,0.64304029)"
     d="m 320.33,34.764 129.11,481.86"
     clip-path="none"
     id="path1175"
     style="fill:none;stroke:#858585;stroke-width:1.03533" />
  <path
     transform="matrix(0.255582,0,0,0.2555456,-50.629911,0.64304029)"
     d="m 320.33,34.764 249.34,431.88"
     clip-path="none"
     id="path1177"
     style="fill:none;stroke:#858585;stroke-width:1.03533" />
  <path
     transform="matrix(0.255582,0,0,0.2555456,-50.629911,0.64304029)"
     d="m 320.33,34.764 352.39,352.39"
     clip-path="none"
     id="path1179"
     style="fill:none;stroke:#858585;stroke-width:1.03533" />
  <path
     transform="matrix(0.255582,0,0,0.2555456,-50.629911,0.64304029)"
     d="m 320.33,34.764 431.6,249.1"
     clip-path="none"
     id="path1181"
     style="fill:none;stroke:#858585;stroke-width:1.03533" />
  <path
     transform="matrix(0.255582,0,0,0.2555456,-50.629911,0.64304029)"
     d="m 320.33,34.764 481.51,128.94"
     clip-path="none"
     id="path1183"
     style="fill:none;stroke:#858585;stroke-width:1.03533" />
  <path
     transform="matrix(0.255582,0,0,0.2555456,-50.629911,0.64304029)"
     d="M 320.33,34.764 227.23509,382.21124"
     clip-path="none"
     id="path1185"
     style="fill:none;stroke:#858585;stroke-width:1.03533"
     sodipodi:nodetypes="cc" />
  <path
     transform="matrix(0.255582,0,0,0.2555456,-50.629911,0.64304029)"
     d="M 320.33,34.764 227.25416,195.97873"
     clip-path="none"
     id="path1187"
     style="fill:none;stroke:#858585;stroke-width:1.03533"
     sodipodi:nodetypes="cc" />
  <path
     transform="matrix(0.255582,0,0,0.2555456,-50.629911,0.64304029)"
     d="m 320.33,34.764 -93.10313,93.10313"
     clip-path="none"
     id="path1189"
     style="fill:none;stroke:#858585;stroke-width:1.03533"
     sodipodi:nodetypes="cc" />
  <path
     transform="matrix(0.255582,0,0,0.2555456,-50.629911,0.64304029)"
     d="M 320.33,34.764 227.23771,88.511897"
     clip-path="none"
     id="path1191"
     style="fill:none;stroke:#858585;stroke-width:1.03533"
     sodipodi:nodetypes="cc" />
  <path
     transform="matrix(0.255582,0,0,0.2555456,-50.629911,0.64304029)"
     d="M 320.33,34.764 227.18434,59.721918"
     clip-path="none"
     id="path1193"
     style="fill:none;stroke:#858585;stroke-width:1.03533"
     sodipodi:nodetypes="cc" />
  <text
     transform="matrix(0.27365784,0,0,0.27361887,17.898007,9.5227889)"
     x="472"
     y="6.5"
     style="font-size:14.937px;font-family:Lato;font-variant-ligatures:normal;font-variant-caps:normal;font-variant-numeric:normal;font-variant-east-asian:normal;fill:#848484;fill-rule:evenodd;stroke-width:1.28925;stroke-linejoin:round"
     xml:space="preserve"
     id="text1201">90°</text>
  <text
     transform="matrix(0.27365784,0,0,0.27361887,135.42672,9.5227889)"
     x="-496"
     y="6.5"
     style="font-size:14.937px;font-family:Lato;font-variant-ligatures:normal;font-variant-caps:normal;font-variant-numeric:normal;font-variant-east-asian:normal;fill:#848484;fill-rule:evenodd;stroke-width:1.28925;stroke-linejoin:round"
     xml:space="preserve"
     id="text1203">90°</text>
  <text
     transform="matrix(0.27365784,0,0,0.27361887,30.118513,8.4212077)"
     x="233.98399"
     y="421.297"
     style="font-size:14.937px;font-family:Lato;font-variant-ligatures:normal;font-variant-caps:normal;font-variant-numeric:normal;font-variant-east-asian:normal;fill:#848484;fill-rule:evenodd;stroke-width:1.28925;stroke-linejoin:round"
     xml:space="preserve"
     id="text1205"> 30°</text>
  <text
     transform="matrix(0.27365784,0,0,0.27361887,30.527924,7.4277572)"
     x="405.297"
     y="250"
     style="font-size:14.937px;font-family:Lato;font-variant-ligatures:normal;font-variant-caps:normal;font-variant-numeric:normal;font-variant-east-asian:normal;fill:#848484;fill-rule:evenodd;stroke-width:1.28925;stroke-linejoin:round"
     xml:space="preserve"
     id="text1207"> 60°</text>
  <text
     transform="matrix(0.27365784,0,0,0.27361887,71.194709,-60.605744)"
     x="-260.98401"
     y="421.297"
     style="font-size:14.937px;font-family:Lato;font-variant-ligatures:normal;font-variant-caps:normal;font-variant-numeric:normal;font-variant-east-asian:normal;fill:#848484;fill-rule:evenodd;stroke-width:1.28925;stroke-linejoin:round"
     xml:space="preserve"
     id="text1209">30° </text>
  <text
     transform="matrix(0.27365784,0,0,0.27361887,118.07507,-41.708944)"
     x="-432.297"
     y="250"
     style="font-size:14.937px;font-family:Lato;font-variant-ligatures:normal;font-variant-caps:normal;font-variant-numeric:normal;font-variant-east-asian:normal;fill:#848484;fill-rule:evenodd;stroke-width:1.28925;stroke-linejoin:round"
     xml:space="preserve"
     id="text1211">60° </text>
  <text
     transform="matrix(0.27344541,0,0,0.27340647,-99.71567,139.83279)"
     x="472"
     y="6.5"
     font-size="14.948px"
     stroke-width="1.65714"
     style="font-family:Lato;font-variant-ligatures:normal;font-variant-caps:normal;font-variant-numeric:normal;font-variant-east-asian:normal;fill:#848484;fill-rule:evenodd;stroke-linejoin:round"
     xml:space="preserve"
     id="text1215">0º</text>
  <text
     transform="matrix(0.27344541,0,0,0.27340647,-103.663,144.40904)"
     x="472"
     y="6.5"
     font-size="14.948px"
     stroke-width="1.65714"
     style="font-family:Lato;font-variant-ligatures:normal;font-variant-caps:normal;font-variant-numeric:normal;font-variant-east-asian:normal;fill:#848484;fill-rule:evenodd;stroke-linejoin:round"
     xml:space="preserve"
     id="text1217">cd.klm</text>
  <rect
     transform="matrix(0.253786,0,0,0.25374986,1.2490159,149.37749)"
     y="6.5"
     width="11.2"
     height="15.2"
     fill="#fcff5c"
     fill-opacity="0.68235"
     stroke="#fcff5c"
     stroke-linecap="round"
     stroke-width="1.89908"
     id="rect1221"
     x="0"
     style="fill-rule:evenodd;stroke-linejoin:round" />
  <text
     transform="matrix(0.253786,0,0,0.25374986,1.2490159,148.84649)"
     x="16"
     y="22.5"
     fill="#848484"
     font-family="Lato"
     font-size="17.569px"
     stroke-width="0.949518"
     style="font-variant-ligatures:normal;font-variant-caps:normal;font-variant-numeric:normal;font-variant-east-asian:normal;fill-rule:evenodd;stroke-linejoin:round"
     xml:space="preserve"
     id="text1223">C0-C180</text>
</svg>
