<?xml version="1.0" encoding="UTF-8" standalone="no"?>
<svg
   width="600"
   height="571.31006"
   version="1.1"
   viewBox="0 0 158.74688 151.15731"
   id="svg3240"
   sodipodi:docname="20.svg"
   inkscape:version="1.2.2 (732a01da63, 2022-12-09)"
   xmlns:inkscape="http://www.inkscape.org/namespaces/inkscape"
   xmlns:sodipodi="http://sodipodi.sourceforge.net/DTD/sodipodi-0.dtd"
   xmlns="http://www.w3.org/2000/svg"
   xmlns:svg="http://www.w3.org/2000/svg">
  <defs
     id="defs3244" />
  <sodipodi:namedview
     id="namedview3242"
     pagecolor="#505050"
     bordercolor="#ffffff"
     borderopacity="1"
     inkscape:showpageshadow="0"
     inkscape:pageopacity="0"
     inkscape:pagecheckerboard="1"
     inkscape:deskcolor="#505050"
     showgrid="false"
     inkscape:zoom="0.36030534"
     inkscape:cx="231.74788"
     inkscape:cy="327.5"
     inkscape:window-width="1680"
     inkscape:window-height="979"
     inkscape:window-x="1912"
     inkscape:window-y="-8"
     inkscape:window-maximized="1"
     inkscape:current-layer="svg3240" />
  <g
     fill-rule="evenodd"
     id="g3064"
     transform="matrix(0.99998763,0,0,0.99998757,-5.2918488,-16.904976)"
     style="stroke-width:1.00001">
    <path
       transform="matrix(0.27967,0,0,0.27963,84.745,21.986)"
       d="m 0,391.69 -6.753,-4.812 -6.5468,-6.024 -6.3322,-6.255 -6.1609,-5.744 -5.87,-6.947 -5.6445,-6.953 -5.3517,-7.526 -5.1142,-7.505 -4.8406,-7.734 -4.6047,-7.688 -4.3199,-7.915 -4.0281,-8.121 -3.7417,-8.26 -3.3428,-8.819 -3.2383,-8.165 -2.9014,-8.447 -2.6446,-8.413 -2.3072,-8.63 -2.0314,-8.627 -1.984,-7.993 -1.7627,-7.904 -1.3667,-8.255 -1.3329,-7.697 -1.2379,-7.346 -0.9479,-7.457 -1.0246,-6.792 -0.7668,-6.864 -0.7941,-6.383 -0.7864,-6.019 -0.7114,-5.807 -0.8499,-5.261 -0.7297,-5.184 -0.888,-4.684 -1.176,-4.042 -0.868,-4.318 -1.176,-3.713 -0.945,-3.885 -1.084,-3.564 -0.806,-3.789 -0.929,-3.51 -0.927,-3.4 -0.892,-3.338 -1.053,-3.069 -0.816,-3.237 -0.973,-2.993 -0.956,-2.941 -0.914,-2.914 -0.784,-2.97 -0.827,-2.867 -0.838,-2.8016 -0.709,-2.8538 -0.693,-2.8105 -0.238,-3.1019 0.053,-3.2411 -0.183,-2.9926 -0.024,-3.0345 0.449,-3.2713 0.391,-3.146 0.833,-3.3307 0.838,-3.2357 1.098,-3.2862 1.297,-3.2906 1.057,-3.0634 1.815,-3.3425 1.528,-3.0894 1.838,-3.1244 2.015,-3.0878 2.1,-3.007 2.345,-2.9859 2.5086,-2.9247 2.7423,-2.8811 2.8354,-2.7817 2.9846,-2.6976 3.1204,-2.6042 3.2066,-2.4929 3.1823,-2.3523 4.2099,-2.4585 2.9086,-2.0158 3.2448,-1.9651 3.5204,-1.8875 3.357,-1.7275 3.4325,-1.6118 3.2605,-1.4632 3.1454,-1.3312 3.051,-1.2085 2.8547,-1.0848 2.901,-0.98499 2.7353,-0.87623 2.6037,-0.77743 2.6419,-0.68609 2.727,-0.59238 3.0925,-0.48474 2.2496,-0.42148 1.6154,-0.388 1.3375,-0.35679 1.2312,-0.3223 1.0386,-0.30406 0.9928,-0.27549 0.9462,-0.24945 0.8752,-0.23026 0.8643,-0.20314 0.8528,-0.17668 0.8168,-0.15645 0.8163,-0.1292 0.7912,-0.10841 0.8015,-0.07877 0.7989,-0.05219 0.749,-0.04096 0.7573,-0.01226 0.7069,-0.00413 0.7604,0.04115 0.6863,0.03853 0.7039,0.07065 0.6866,0.08875 0.68012,0.11129 0.67307,0.13362 0.65448,0.15014 0.62476,0.16008 0.64895,0.1985 0.61834,0.20759 -0.07724,-0.18433 0.97189,0.46462 0.2409,0.03444 0.01349,-0.10964 0.07643,-0.06771 0.07734,-0.06602 0.07823,-0.06431 0.1179,-0.03227 0.07936,-0.0602 0.09899,-0.04264 0.09916,-0.04025 0.09928,-0.03787 0.10835,-0.0271 0.35612,0.21512 -0.1055,-0.22648 0.08104,-0.0451 0.1403,0.01966 0.13027,0.01426 0.12064,0.00838 -0.11026,-0.26214 0.37852,0.32638 0.14616,0.05684 0.15808,0.0805 0.16165,0.09487 0.15046,0.08933 0.17411,0.13437 0.19553,0.18073 0.2277,0.24919 0.28814,0.37229 0.35461,0.52007 0.34789,0.55311 0.36864,0.64066 0.318,0.59808 0.10407,-0.19574 0.42733,-0.76294 0.31223,-0.50254 0.17761,-0.23842 0.2253,-0.29525 0.30293,-0.39109 0.45462,-0.58521 0.6308,-0.79183 0.68783,-0.81032 0.77602,-0.86588 0.85254,-0.89814 0.92366,-0.91759 0.90945,-0.83038 0.93998,-0.80055 0.92855,-0.72417 0.96433,-0.70316 0.98275,-0.6634 1.0172,-0.6406 1.0604,-0.6254 1.0494,-0.558 1.0908,-0.5414 1.0764,-0.4746 1.1067,-0.4488 1.1173,-0.4064 1.0685,-0.3185 1.1636,-0.3448 1.1115,-0.2578 1.1566,-0.2447 1.0694,-0.14 1.1532,-0.1543 1.1446,-0.1057 1.1029,-0.0388 1.1012,0.0011 1.0984,0.0407 1.1379,0.0568 1.0459,0.1421 1.0609,0.1684 1.1426,0.1642 1.3603,0.1042 0.7771,0.3973 1.0592,0.3044 1.0592,0.3368 1.0237,0.382 1.0683,0.3973 0.9723,0.4608 1.0507,0.4655 0.9283,0.5321 0.9341,0.5574 0.9157,0.5893 0.9562,0.6067 0.9003,0.64699 0.8552,0.68225 0.9181,0.6963 0.7378,0.75253 0.8846,0.75344 0.7142,0.80148 0.9095,0.8024 0.7372,0.84623 0.7232,0.87033 0.8193,0.88838 0.6935,0.91973 0.85,0.94008 0.6982,0.96916 0.7303,0.9941 0.6509,1.0174 0.7555,1.0469 0.6995,1.0713 0.8145,1.1084 0.6957,1.1278 0.7598,1.1642 0.9446,1.2217 0.7866,1.2358 0.9198,1.2936 0.9419,1.3381 1.0709,1.4076 1.0892,1.4599 1.0818,1.508 1.2276,1.5982 1.3223,1.6835 1.508,1.8035 1.4661,1.8622 1.3991,1.9119 1.7247,2.1026 2.2598,2.3955 1.468,2.1874 1.9593,2.4785 1.9865,2.5966 2.11,2.7647 2.5143,3.0816 2.3664,3.1477 2.4784,3.347 2.8192,3.6861 2.9635,3.9407 2.7482,3.9963 3.359,4.5595 3.561,4.9092 3.46,5.0803 3.658,5.4619 3.72,5.771 3.857,6.1543 3.813,6.4205 4.046,6.9215 3.813,7.068 4.572,8.073 3.954,7.928 4.511,8.84 4.43,9.214 4.457,9.715 4.504,10.267 4.033,10.299 4.049,10.855 3.695,11.021 3.637,11.534 3.557,12.055 3.438,12.561 2.659,12.225 2.389,12.527 2.324,13.136 2.058,13.499 1.054,12.742 0.915,13.26 0.236,12.927 -0.539,12.366 -1.264,11.809 -2.186,10.8 -2.649,10.543 -3.608,9.229 -3.925,9.104 -4.834,7.63 -5.439,6.649 -5.729,6.305 -6.466,4.745 -6.906,3.752 -7.092,3.335 -7.292,2.816 -7.591,1.89 -7.893,0.784 -7.938,0.424 -7.962,0.088 -7.9335,-0.071 -8.0159,-0.771 -7.9775,-1.016 -7.9762,-1.515 -7.9615,-2.065 -7.7772,-1.577 -7.7827,-2.379 -7.7459,-3.133 -7.553,-2.502 -7.6259,-5.119 -7.289,-2.454 -7.2613,-4.491 -7.1123,-5.443 L 0,391.68995"
       fill="none"
       stroke="#fcff5c"
       stroke-linecap="round"
       stroke-linejoin="round"
       stroke-width="3.78465"
       id="path3034" />
    <path
       transform="matrix(0.27967,0,0,0.27963,84.745,21.986)"
       d="m 0,391.69 -6.753,-4.812 -6.5468,-6.024 -6.3322,-6.255 -6.1609,-5.744 -5.87,-6.947 -5.6445,-6.953 -5.3517,-7.526 -5.1142,-7.505 -4.8406,-7.734 -4.6047,-7.688 -4.3199,-7.915 -4.0281,-8.121 -3.7417,-8.26 -3.3428,-8.819 -3.2383,-8.165 -2.9014,-8.447 -2.6446,-8.413 -2.3072,-8.63 -2.0314,-8.627 -1.984,-7.993 -1.7627,-7.904 -1.3667,-8.255 -1.3329,-7.697 -1.2379,-7.346 -0.9479,-7.457 -1.0246,-6.792 -0.7668,-6.864 -0.7941,-6.383 -0.7864,-6.019 -0.7114,-5.807 -0.8499,-5.261 -0.7297,-5.184 -0.888,-4.684 -1.176,-4.042 -0.868,-4.318 -1.176,-3.713 -0.945,-3.885 -1.084,-3.564 -0.806,-3.789 -0.929,-3.51 -0.927,-3.4 -0.892,-3.338 -1.053,-3.069 -0.816,-3.237 -0.973,-2.993 -0.956,-2.941 -0.914,-2.914 -0.784,-2.97 -0.827,-2.867 -0.838,-2.8016 -0.709,-2.8538 -0.693,-2.8105 -0.238,-3.1019 0.053,-3.2411 -0.183,-2.9926 -0.024,-3.0345 0.449,-3.2713 0.391,-3.146 0.833,-3.3307 0.838,-3.2357 1.098,-3.2862 1.297,-3.2906 1.057,-3.0634 1.815,-3.3425 1.528,-3.0894 1.838,-3.1244 2.015,-3.0878 2.1,-3.007 2.345,-2.9859 2.5086,-2.9247 2.7423,-2.8811 2.8354,-2.7817 2.9846,-2.6976 3.1204,-2.6042 3.2066,-2.4929 3.1823,-2.3523 4.2099,-2.4585 2.9086,-2.0158 3.2448,-1.9651 3.5204,-1.8875 3.357,-1.7275 3.4325,-1.6118 3.2605,-1.4632 3.1454,-1.3312 3.051,-1.2085 2.8547,-1.0848 2.901,-0.98499 2.7353,-0.87623 2.6037,-0.77743 2.6419,-0.68609 2.727,-0.59238 3.0925,-0.48474 2.2496,-0.42148 1.6154,-0.388 1.3375,-0.35679 1.2312,-0.3223 1.0386,-0.30406 0.9928,-0.27549 0.9462,-0.24945 0.8752,-0.23026 0.8643,-0.20314 0.8528,-0.17668 0.8168,-0.15645 0.8163,-0.1292 0.7912,-0.10841 0.8015,-0.07877 0.7989,-0.05219 0.749,-0.04096 0.7573,-0.01226 0.7069,-0.00413 0.7604,0.04115 0.6863,0.03853 0.7039,0.07065 0.6866,0.08875 0.68012,0.11129 0.67307,0.13362 0.65448,0.15014 0.62476,0.16008 0.64895,0.1985 0.61834,0.20759 -0.07724,-0.18433 0.97189,0.46462 0.2409,0.03444 0.01349,-0.10964 0.07643,-0.06771 0.07734,-0.06602 0.07823,-0.06431 0.1179,-0.03227 0.07936,-0.0602 0.09899,-0.04264 0.09916,-0.04025 0.09928,-0.03787 0.10835,-0.0271 0.35612,0.21512 -0.1055,-0.22648 0.08104,-0.0451 0.1403,0.01966 0.13027,0.01426 0.12064,0.00838 -0.11026,-0.26214 0.37852,0.32638 0.14616,0.05684 0.15808,0.0805 0.16165,0.09487 0.15046,0.08933 0.17411,0.13437 0.19553,0.18073 0.2277,0.24919 0.28814,0.37229 0.35461,0.52007 0.34789,0.55311 0.36864,0.64066 0.318,0.59808 0.10407,-0.19574 0.42733,-0.76294 0.31223,-0.50254 0.17761,-0.23842 0.2253,-0.29525 0.30293,-0.39109 0.45462,-0.58521 0.6308,-0.79183 0.68783,-0.81032 0.77602,-0.86588 0.85254,-0.89814 0.92366,-0.91759 0.90945,-0.83038 0.93998,-0.80055 0.92855,-0.72417 0.96433,-0.70316 0.98275,-0.6634 1.0172,-0.6406 1.0604,-0.6254 1.0494,-0.558 1.0908,-0.5414 1.0764,-0.4746 1.1067,-0.4488 1.1173,-0.4064 1.0685,-0.3185 1.1636,-0.3448 1.1115,-0.2578 1.1566,-0.2447 1.0694,-0.14 1.1532,-0.1543 1.1446,-0.1057 1.1029,-0.0388 1.1012,0.0011 1.0984,0.0407 1.1379,0.0568 1.0459,0.1421 1.0609,0.1684 1.1426,0.1642 1.3603,0.1042 0.7771,0.3973 1.0592,0.3044 1.0592,0.3368 1.0237,0.382 1.0683,0.3973 0.9723,0.4608 1.0507,0.4655 0.9283,0.5321 0.9341,0.5574 0.9157,0.5893 0.9562,0.6067 0.9003,0.64699 0.8552,0.68225 0.9181,0.6963 0.7378,0.75253 0.8846,0.75344 0.7142,0.80148 0.9095,0.8024 0.7372,0.84623 0.7232,0.87033 0.8193,0.88838 0.6935,0.91973 0.85,0.94008 0.6982,0.96916 0.7303,0.9941 0.6509,1.0174 0.7555,1.0469 0.6995,1.0713 0.8145,1.1084 0.6957,1.1278 0.7598,1.1642 0.9446,1.2217 0.7866,1.2358 0.9198,1.2936 0.9419,1.3381 1.0709,1.4076 1.0892,1.4599 1.0818,1.508 1.2276,1.5982 1.3223,1.6835 1.508,1.8035 1.4661,1.8622 1.3991,1.9119 1.7247,2.1026 2.2598,2.3955 1.468,2.1874 1.9593,2.4785 1.9865,2.5966 2.11,2.7647 2.5143,3.0816 2.3664,3.1477 2.4784,3.347 2.8192,3.6861 2.9635,3.9407 2.7482,3.9963 3.359,4.5595 3.561,4.9092 3.46,5.0803 3.658,5.4619 3.72,5.771 3.857,6.1543 3.813,6.4205 4.046,6.9215 3.813,7.068 4.572,8.073 3.954,7.928 4.511,8.84 4.43,9.214 4.457,9.715 4.504,10.267 4.033,10.299 4.049,10.855 3.695,11.021 3.637,11.534 3.557,12.055 3.438,12.561 2.659,12.225 2.389,12.527 2.324,13.136 2.058,13.499 1.054,12.742 0.915,13.26 0.236,12.927 -0.539,12.366 -1.264,11.809 -2.186,10.8 -2.649,10.543 -3.608,9.229 -3.925,9.104 -4.834,7.63 -5.439,6.649 -5.729,6.305 -6.466,4.745 -6.906,3.752 -7.092,3.335 -7.292,2.816 -7.591,1.89 -7.893,0.784 -7.938,0.424 -7.962,0.088 -7.9335,-0.071 -8.0159,-0.771 -7.9775,-1.016 -7.9762,-1.515 -7.9615,-2.065 -7.7772,-1.577 -7.7827,-2.379 -7.7459,-3.133 -7.553,-2.502 -7.6259,-5.119 -7.289,-2.454 -7.2613,-4.491 -7.1123,-5.443 L 0,391.68995"
       fill="#fcff5c"
       fill-opacity="0.70588"
       id="path3036"
       style="stroke-width:1.00002" />
    <g
       stroke-linejoin="round"
       id="g3062"
       style="stroke-width:1.00002">
      <g
         fill="#848484"
         font-family="Lato"
         id="g3056"
         style="stroke-width:1.00004">
        <g
           font-size="14.937px"
           stroke-width="1.24482"
           id="g3050">
          <text
             transform="matrix(0.28341,0,0,0.28341,23.833,22)"
             x="472"
             y="6.5"
             style="font-variant-ligatures:normal;font-variant-caps:normal;font-variant-numeric:normal;font-variant-east-asian:normal;stroke-width:1.24482"
             xml:space="preserve"
             id="text3038">90°</text>
          <text
             transform="matrix(0.28341,0,0,0.28341,145.55,22)"
             x="-496"
             y="6.5"
             style="font-variant-ligatures:normal;font-variant-caps:normal;font-variant-numeric:normal;font-variant-east-asian:normal;stroke-width:1.24482"
             xml:space="preserve"
             id="text3040">90°</text>
          <text
             transform="matrix(0.28341,0,0,0.28341,83.593,20.859)"
             x="233.98399"
             y="421.297"
             style="font-variant-ligatures:normal;font-variant-caps:normal;font-variant-numeric:normal;font-variant-east-asian:normal;stroke-width:1.24482"
             xml:space="preserve"
             id="text3042"> 30°</text>
          <text
             transform="matrix(0.28341,0,0,0.28341,41.92,-4.6775)"
             x="405.297"
             y="250"
             style="font-variant-ligatures:normal;font-variant-caps:normal;font-variant-numeric:normal;font-variant-east-asian:normal;stroke-width:1.24482"
             xml:space="preserve"
             id="text3044"> 60°</text>
          <text
             transform="matrix(0.28341,0,0,0.28341,85.908,20.859)"
             x="-260.98401"
             y="421.297"
             style="font-variant-ligatures:normal;font-variant-caps:normal;font-variant-numeric:normal;font-variant-east-asian:normal;stroke-width:1.24482"
             xml:space="preserve"
             id="text3046">30° </text>
          <text
             transform="matrix(0.28341,0,0,0.28341,127.58,-4.6775)"
             x="-432.297"
             y="250"
             style="font-variant-ligatures:normal;font-variant-caps:normal;font-variant-numeric:normal;font-variant-east-asian:normal;stroke-width:1.24482"
             xml:space="preserve"
             id="text3048">60° </text>
        </g>
        <text
           transform="matrix(0.28319,0,0,0.28319,-50.867,156.98)"
           x="472"
           y="6.5"
           font-size="14.948px"
           stroke-width="1.60002"
           style="font-variant-ligatures:normal;font-variant-caps:normal;font-variant-numeric:normal;font-variant-east-asian:normal"
           xml:space="preserve"
           id="text3052">0º</text>
        <text
           transform="matrix(0.28319,0,0,0.28319,-54.958,161.72)"
           x="472"
           y="6.5"
           font-size="14.948px"
           stroke-width="1.60002"
           style="font-variant-ligatures:normal;font-variant-caps:normal;font-variant-numeric:normal;font-variant-east-asian:normal"
           xml:space="preserve"
           id="text3054">cd.klm</text>
      </g>
      <rect
         transform="matrix(0.26283,0,0,0.26283,10.824,162.12)"
         y="6.5"
         width="11.2"
         height="15.2"
         fill="#fcff5c"
         fill-opacity="0.68235"
         stroke="#fcff5c"
         stroke-linecap="round"
         stroke-width="1.83362"
         id="rect3058"
         x="0" />
      <text
         transform="matrix(0.26283,0,0,0.26283,10.824,161.56)"
         x="16"
         y="22.5"
         fill="#848484"
         font-family="Lato"
         font-size="17.569px"
         stroke-width="0.916791"
         style="font-variant-ligatures:normal;font-variant-caps:normal;font-variant-numeric:normal;font-variant-east-asian:normal"
         xml:space="preserve"
         id="text3060">C0-C180</text>
    </g>
  </g>
  <g
     transform="matrix(0.99998763,0,0,0.99998757,-5.2880289,-4.0711351)"
     fill="none"
     stroke="#858585"
     id="g3108"
     style="stroke-width:1.00001">
    <path
       transform="matrix(0.52917,0,0,0.52917,-68.201,-25.683)"
       d="m 320.33,65.864 a 31.291,31.291 0 0 1 -15.646,27.099 31.291,31.291 0 0 1 -31.292,-10e-7 31.291,31.291 0 0 1 -15.646,-27.099"
       stroke-width="0.150002"
       id="path3066" />
    <path
       transform="matrix(1.0583,0,0,1.0576,-221.15,-60.49)"
       d="m 320.33,65.864 a 31.291,31.291 0 0 1 -15.646,27.099 31.291,31.291 0 0 1 -31.292,-10e-7 31.291,31.291 0 0 1 -15.646,-27.099"
       stroke-width="0.0750279"
       id="path3068" />
    <path
       transform="matrix(1.5875,0,0,1.5865,-374.1,-95.32)"
       d="m 320.33,65.864 a 31.291,31.291 0 0 1 -15.646,27.099 31.291,31.291 0 0 1 -31.292,-10e-7 31.291,31.291 0 0 1 -15.646,-27.099"
       stroke-width="0.0500166"
       id="path3070" />
    <path
       transform="matrix(2.1167,0,0,2.1153,-527.05,-130.15)"
       d="m 320.33,65.864 a 31.291,31.291 0 0 1 -15.646,27.099 31.291,31.291 0 0 1 -31.292,-10e-7 31.291,31.291 0 0 1 -15.646,-27.099"
       stroke-width="0.0375125"
       id="path3072" />
    <path
       transform="matrix(2.6458,0,0,2.6441,-680,-164.98)"
       d="m 316.1,81.579 c -2.6998,4.6487 -6.5966,8.6031 -11.414,11.384 -9.6817,5.59 -21.61,5.59 -31.292,-10e-7 -4.8457,-2.7976 -8.7602,-6.7827 -11.462,-11.467"
       stroke-width="0.0300104"
       id="path3074" />
    <path
       transform="matrix(3.1749,0,0,3.1729,-832.93,-199.8)"
       d="m 311.59,87.561 c -2.0089,2.088 -4.324,3.9131 -6.9028,5.4019 -9.6817,5.59 -21.61,5.59 -31.292,-1e-6 -2.5964,-1.499 -4.9254,-3.3389 -6.9438,-5.4447"
       stroke-width="0.0250093"
       id="path3076" />
    <path
       transform="matrix(3.7041,0,0,3.7017,-985.9,-234.64)"
       d="m 308.37,90.473 c -1.1574,0.90884 -2.3869,1.7421 -3.683,2.4903 -9.6817,5.59 -21.61,5.59 -31.292,-10e-7 -1.3089,-0.75568 -2.5499,-1.598 -3.7174,-2.5174"
       stroke-width="0.0214363"
       id="path3078" />
    <path
       transform="matrix(4.2243,0,0,4.2215,-1136.5,-268.87)"
       d="m 306.04,92.132 c -0.44425,0.28747 -0.89718,0.5646 -1.3586,0.83096 -9.6817,5.59 -21.61,5.59 -31.292,-10e-7 -0.43229,-0.24957 -0.85718,-0.5086 -1.2744,-0.77673"
       stroke-width="0.0187962"
       id="path3080" />
    <path
       transform="matrix(0.26469,0,0,0.26469,-0.036694,-0.031725)"
       d="m 320.33,34.764 v 499.07"
       stroke-width="0.299884"
       id="path3082" />
    <path
       transform="matrix(0,0.29371,-0.29371,0,168.21,-84.937)"
       d="m 320.33,40.455 v 487.98"
       stroke-width="0.270253"
       id="path3084" />
    <g
       stroke-width="0.299884"
       id="g3106">
      <path
         transform="matrix(0.26469,0,0,0.26469,-0.036694,-0.031725)"
         d="m 320.33,34.764 129.11,481.86"
         id="path3086"
         style="stroke-width:0.299884" />
      <path
         transform="matrix(0.26469,0,0,0.26469,-0.036694,-0.031725)"
         d="m 320.33,34.764 249.34,431.88"
         id="path3088"
         style="stroke-width:0.299884" />
      <path
         transform="matrix(0.26469,0,0,0.26469,-0.036694,-0.031725)"
         d="m 320.33,34.764 270.38,270.38"
         id="path3090"
         style="stroke-width:0.299884" />
      <path
         transform="matrix(0.26469,0,0,0.26469,-0.036694,-0.031725)"
         d="m 320.33,34.764 270.39,156.06"
         id="path3092"
         style="stroke-width:0.299884" />
      <path
         transform="matrix(0.26469,0,0,0.26469,-0.036694,-0.031725)"
         d="m 320.33,34.764 270.39,72.405"
         id="path3094"
         style="stroke-width:0.299884" />
      <path
         transform="matrix(0.26469,0,0,0.26469,-0.036694,-0.031725)"
         d="M 320.33,34.764 191.1,517.074"
         id="path3096"
         style="stroke-width:0.299884" />
      <path
         transform="matrix(0.26469,0,0,0.26469,-0.036694,-0.031725)"
         d="M 320.33,34.764 70.48,467.524"
         id="path3098"
         style="stroke-width:0.299884" />
      <path
         transform="matrix(0.26469,0,0,0.26469,-0.036694,-0.031725)"
         d="M 320.33,34.764 49.25,305.844"
         id="path3100"
         style="stroke-width:0.299884" />
      <path
         transform="matrix(0.26469,0,0,0.26469,-0.036694,-0.031725)"
         d="M 320.33,34.764 49.25,191.274"
         id="path3102"
         style="stroke-width:0.299884" />
      <path
         transform="matrix(0.26469,0,0,0.26469,-0.036694,-0.031725)"
         d="M 320.33,34.764 49.27,107.391"
         id="path3104"
         style="stroke-width:0.299884" />
    </g>
  </g>
</svg>
