<?xml version="1.0" encoding="UTF-8" standalone="no"?>
<svg
   width="600"
   height="560"
   version="1.1"
   viewBox="0 0 158.74688 148.1633"
   id="svg1777"
   sodipodi:docname="2x55.svg"
   inkscape:version="1.2.2 (732a01da63, 2022-12-09)"
   xmlns:inkscape="http://www.inkscape.org/namespaces/inkscape"
   xmlns:sodipodi="http://sodipodi.sourceforge.net/DTD/sodipodi-0.dtd"
   xmlns="http://www.w3.org/2000/svg"
   xmlns:svg="http://www.w3.org/2000/svg">
  <sodipodi:namedview
     id="namedview1779"
     pagecolor="#505050"
     bordercolor="#ffffff"
     borderopacity="1"
     inkscape:showpageshadow="0"
     inkscape:pageopacity="0"
     inkscape:pagecheckerboard="1"
     inkscape:deskcolor="#505050"
     showgrid="false"
     inkscape:zoom="1.3763068"
     inkscape:cx="240.13541"
     inkscape:cy="164.20757"
     inkscape:window-width="1680"
     inkscape:window-height="979"
     inkscape:window-x="1912"
     inkscape:window-y="-8"
     inkscape:window-maximized="1"
     inkscape:current-layer="svg1777" />
  <defs
     id="defs1687" />
  <path
     transform="matrix(0.16976475,0,0,0.16979404,79.561253,5.0709409)"
     d="m 0,296.03 -5.1698,0.142 -5.1796,0.193 -5.1965,0.265 -5.2251,0.407 -5.2442,0.315 -5.2956,0.547 -5.3398,0.593 -5.3928,0.659 -5.4451,0.677 -5.51,0.738 -5.5814,0.798 -5.6836,0.969 -5.751,0.93 -5.8199,0.889 -5.8963,0.868 -5.9817,0.866 -6.1119,0.996 -6.1587,0.831 -6.307,0.974 -6.428,1 -6.553,1.023 -6.632,0.908 -6.782,0.965 -6.815,0.736 -7,0.847 -7.194,0.95 -7.325,0.898 -7.512,0.943 -7.627,0.838 -7.778,0.788 -7.858,0.612 -7.947,0.454 -8.084,0.371 -8.119,0.127 -8.279,0.073 -8.429,-0.005 -8.679,0.039 -8.708,-0.222 -8.846,-0.339 -9.105,-0.318 -9.048,-0.682 -8.933,-1.093 -8.851,-1.445 -8.805,-1.743 -8.469,-2.319 -8.345,-2.649 -8.159,-3.023 -7.558,-3.746 -7.368,-4.055 -7.096,-4.417 -6.79,-4.779 -6.288,-5.274 -5.894,-5.644 -5.543,-5.956 -4.968,-6.401 -4.509,-6.727 -3.959,-7.083 -3.452,-7.378 -2.59,-7.855 -2.072,-8.082 -1.42,-8.353 -0.732,-8.607 0.008,-8.852 0.889,-9.126 1.826,-9.377 2.673,-9.54 3.809,-9.782 5.136,-10.043 5.736,-9.954 6.997,-10.082 8.116,-10.097 9.065,-10.003 9.836,-9.811 10.922,-9.6768 12.258,-9.5593 12.418,-9.0841 13.408,-8.8023 13.204,-8.2223 13.673,-7.7932 13.463,-7.2277 13.143,-6.6642 12.761,-6.1162 11.921,-5.5388 12.017,-5.1099 11.03,-4.586 10.19,-4.1289 9.852,-3.7458 9.268,-3.3749 8.581,-3.0355 8.119,-2.7342 7.065,-2.4691 6.683,-2.2372 6.038,-2.0403 5.833,-1.8474 5.507,-1.6765 5.224,-1.519 4.821,-1.3912 4.835,-1.2266 4.2191,-1.161 4.0659,-1.0467 3.9796,-0.9276 3.7074,-0.8524 3.3439,-0.8127 3.6401,-0.6282 3.1836,-0.6285 3.1355,-0.5364 2.9511,-0.4882 2.767,-0.4497 2.6278,-0.4057 2.5108,-0.3608 2.4811,-0.2886 2.2112,-0.3143 2.0956,-0.2902 1.9167,-0.3004 1.8038,-0.2903 1.713,-0.276 1.6022,-0.2767 1.5962,-0.2285 1.5072,-0.2259 1.5207,-0.1694 1.5124,-0.1241 1.5031,-0.0793 1.5122,-0.0221 1.4808,0.0097 1.4682,0.0533 1.4355,0.0829 1.3464,0.0686 1.2778,0.0644 0.974,-0.1345 0.7716,-0.2738 0.7891,-0.2394 0.8054,-0.204 0.7862,-0.2 0.8179,-0.148 0.8309,-0.1111 0.8751,-0.0398 0.8203,-0.0688 0.8461,-0.0136 0.8543,0.0253 0.8609,0.0648 0.8367,0.0683 0.8707,0.1446 0.8167,0.1107 0.7514,0.0553 0.9313,0.3417 0.861,0.2884 0.8708,0.3496 1.0888,0.7491 1.648,1.7618 2.5408,3.4731 2.4148,3.5536 1.5068,2.164 1.6513,2.6489 2.7358,5.1202 2.8019,5.741 0.039557,0.08483 0.039557,-0.08483 2.8019,-5.741 2.7358,-5.1202 1.6513,-2.6489 1.5068,-2.164 2.4148,-3.5536 2.5408,-3.4731 1.648,-1.7618 1.0888,-0.7491 0.8708,-0.3496 0.861,-0.2884 0.9313,-0.3417 0.7514,-0.0553 0.8167,-0.1107 0.8707,-0.1446 0.8367,-0.0683 0.8609,-0.0648 0.8543,-0.0253 0.8461,0.0136 0.8203,0.0688 0.8751,0.0398 0.8309,0.1111 0.8179,0.148 0.7862,0.2 0.8054,0.204 0.7891,0.2394 0.7716,0.2738 0.974,0.1345 1.2778,-0.0644 1.3464,-0.0686 1.4355,-0.0829 1.4682,-0.0533 1.4808,-0.0097 1.5122,0.0221 1.5031,0.0793 1.5124,0.1241 1.5207,0.1694 1.5072,0.2259 1.5962,0.2285 1.6022,0.2767 1.713,0.276 1.8038,0.2903 1.9167,0.3004 2.0956,0.2902 2.2112,0.3143 2.4811,0.2886 2.5108,0.3608 2.6278,0.4057 2.767,0.4497 2.9511,0.4882 3.1355,0.5364 3.1836,0.6285 3.6401,0.6282 3.3439,0.8127 3.7074,0.8524 3.9796,0.9276 4.0659,1.0467 4.219096,1.161 4.835,1.2266 4.821,1.3912 5.224,1.519 5.507,1.6765 5.833,1.8474 6.038,2.0403 6.683,2.2372 7.065,2.4691 8.119,2.7342 8.581,3.0355 9.268,3.3749 9.852,3.7458 10.19,4.1289 11.03,4.586 12.017,5.1099 11.921,5.5388 12.761,6.1162 13.143,6.6642 13.463,7.2277 13.673,7.7932 13.204,8.2223 13.408,8.8023 12.418,9.0841 12.258,9.5593 10.922,9.6768 9.836,9.811 9.065,10.003 8.116,10.097 6.997,10.082 5.736,9.954 5.136,10.043 3.809,9.782 2.673,9.54 1.826,9.377 0.889,9.126 0.008,8.852 -0.732,8.607 -1.42,8.353 -2.072,8.082 -2.59,7.855 -3.452,7.378 -3.959,7.083 -4.509,6.727 -4.968,6.401 -5.543,5.956 -5.894,5.644 -6.288,5.274 -6.79,4.779 -7.096,4.417 -7.368,4.055 -7.558,3.746 -8.159,3.023 -8.345,2.649 -8.469,2.319 -8.805,1.743 -8.851,1.445 -8.933,1.093 -9.048,0.682 -9.105,0.318 -8.846,0.339 -8.708,0.222 -8.679,-0.039 -8.429,0.005 -8.279,-0.073 -8.119,-0.127 -8.084,-0.371 -7.947,-0.454 -7.858,-0.612 -7.778,-0.788 -7.627,-0.838 -7.512,-0.943 -7.325,-0.898 -7.194,-0.95 -7,-0.847 -6.815,-0.736 -6.782,-0.965 -6.632,-0.908 -6.553,-1.023 -6.428,-1 -6.306996,-0.974 -6.1587,-0.831 -6.1119,-0.996 -5.9817,-0.866 -5.8963,-0.868 -5.8199,-0.889 -5.751,-0.93 -5.6836,-0.969 -5.5814,-0.798 -5.51,-0.738 -5.4451,-0.677 -5.3928,-0.659 -5.3398,-0.593 -5.2956,-0.547 -5.2442,-0.315 -5.2251,-0.407 -5.1965,-0.265 -5.1796,-0.193 -5.1698,-0.142"
     fill="#fcff5c"
     fill-opacity="0.68235"
     fill-rule="evenodd"
     id="path1689"
     style="stroke-width:1.00878" />
  <path
     transform="matrix(0.16976475,0,0,0.16979404,79.561253,5.0708219)"
     d="m 0,296.03 -5.1698,0.142 -5.1796,0.193 -5.1965,0.265 -5.2251,0.407 -5.2442,0.315 -5.2956,0.547 -5.3398,0.593 -5.3928,0.659 -5.4451,0.677 -5.51,0.738 -5.5814,0.798 -5.6836,0.969 -5.751,0.93 -5.8199,0.889 -5.8963,0.868 -5.9817,0.866 -6.1119,0.996 -6.1587,0.831 -6.307,0.974 -6.428,1 -6.553,1.023 -6.632,0.908 -6.782,0.965 -6.815,0.736 -7,0.847 -7.194,0.95 -7.325,0.898 -7.512,0.943 -7.627,0.838 -7.778,0.788 -7.858,0.612 -7.947,0.454 -8.084,0.371 -8.119,0.127 -8.279,0.073 -8.429,-0.005 -8.679,0.039 -8.708,-0.222 -8.846,-0.339 -9.105,-0.318 -9.048,-0.682 -8.933,-1.093 -8.851,-1.445 -8.805,-1.743 -8.469,-2.319 -8.345,-2.649 -8.159,-3.023 -7.558,-3.746 -7.368,-4.055 -7.096,-4.417 -6.79,-4.779 -6.288,-5.274 -5.894,-5.644 -5.543,-5.956 -4.968,-6.401 -4.509,-6.727 -3.959,-7.083 -3.452,-7.378 -2.59,-7.855 -2.072,-8.082 -1.42,-8.353 -0.732,-8.607 0.008,-8.852 0.889,-9.126 1.826,-9.377 2.673,-9.54 3.809,-9.782 5.136,-10.043 5.736,-9.954 6.997,-10.082 8.116,-10.097 9.065,-10.003 9.836,-9.811 10.922,-9.6768 12.258,-9.5593 12.418,-9.0841 13.408,-8.8023 13.204,-8.2223 13.673,-7.7932 13.463,-7.2277 13.143,-6.6642 12.761,-6.1162 11.921,-5.5388 12.017,-5.1099 11.03,-4.586 10.19,-4.1289 9.852,-3.7458 9.268,-3.3749 8.581,-3.0355 8.119,-2.7342 7.065,-2.4691 6.683,-2.2372 6.038,-2.0403 5.833,-1.8474 5.507,-1.6765 5.224,-1.519 4.821,-1.3912 4.835,-1.2266 4.2191,-1.161 4.0659,-1.0467 3.9796,-0.9276 3.7074,-0.8524 3.3439,-0.8127 3.6401,-0.6282 3.1836,-0.6285 3.1355,-0.5364 2.9511,-0.4882 2.767,-0.4497 2.6278,-0.4057 2.5108,-0.3608 2.4811,-0.2886 2.2112,-0.3143 2.0956,-0.2902 1.9167,-0.3004 1.8038,-0.2903 1.713,-0.276 1.6022,-0.2767 1.5962,-0.2285 1.5072,-0.2259 1.5207,-0.1694 1.5124,-0.1241 1.5031,-0.0793 1.5122,-0.0221 1.4808,0.0097 1.4682,0.0533 1.4355,0.0829 1.3464,0.0686 1.2778,0.0644 0.974,-0.1345 0.7716,-0.2738 0.7891,-0.2394 0.8054,-0.204 0.7862,-0.2 0.8179,-0.148 0.8309,-0.1111 0.8751,-0.0398 0.8203,-0.0688 0.8461,-0.0136 0.8543,0.0253 0.8609,0.0648 0.8367,0.0683 0.8707,0.1446 0.8167,0.1107 0.7514,0.0553 0.9313,0.3417 0.861,0.2884 0.8708,0.3496 1.0888,0.7491 1.648,1.7618 2.5408,3.4731 2.4148,3.5536 1.5068,2.164 1.6513,2.6489 2.7358,5.1202 2.8019,5.741 0.039557,0.08483 0.039557,-0.08483 2.8019,-5.741 2.7358,-5.1202 1.6513,-2.6489 1.5068,-2.164 2.4148,-3.5536 2.5408,-3.4731 1.648,-1.7618 1.0888,-0.7491 0.8708,-0.3496 0.861,-0.2884 0.9313,-0.3417 0.7514,-0.0553 0.8167,-0.1107 0.8707,-0.1446 0.8367,-0.0683 0.8609,-0.0648 0.8543,-0.0253 0.8461,0.0136 0.8203,0.0688 0.8751,0.0398 0.8309,0.1111 0.8179,0.148 0.7862,0.2 0.8054,0.204 0.7891,0.2394 0.7716,0.2738 0.974,0.1345 1.2778,-0.0644 1.3464,-0.0686 1.4355,-0.0829 1.4682,-0.0533 1.4808,-0.0097 1.5122,0.0221 1.5031,0.0793 1.5124,0.1241 1.5207,0.1694 1.5072,0.2259 1.5962,0.2285 1.6022,0.2767 1.713,0.276 1.8038,0.2903 1.9167,0.3004 2.0956,0.2902 2.2112,0.3143 2.4811,0.2886 2.5108,0.3608 2.6278,0.4057 2.767,0.4497 2.9511,0.4882 3.1355,0.5364 3.1836,0.6285 3.6401,0.6282 3.3439,0.8127 3.7074,0.8524 3.9796,0.9276 4.0659,1.0467 4.219096,1.161 4.835,1.2266 4.821,1.3912 5.224,1.519 5.507,1.6765 5.833,1.8474 6.038,2.0403 6.683,2.2372 7.065,2.4691 8.119,2.7342 8.581,3.0355 9.268,3.3749 9.852,3.7458 10.19,4.1289 11.03,4.586 12.017,5.1099 11.921,5.5388 12.761,6.1162 13.143,6.6642 13.463,7.2277 13.673,7.7932 13.204,8.2223 13.408,8.8023 12.418,9.0841 12.258,9.5593 10.922,9.6768 9.836,9.811 9.065,10.003 8.116,10.097 6.997,10.082 5.736,9.954 5.136,10.043 3.809,9.782 2.673,9.54 1.826,9.377 0.889,9.126 0.008,8.852 -0.732,8.607 -1.42,8.353 -2.072,8.082 -2.59,7.855 -3.452,7.378 -3.959,7.083 -4.509,6.727 -4.968,6.401 -5.543,5.956 -5.894,5.644 -6.288,5.274 -6.79,4.779 -7.096,4.417 -7.368,4.055 -7.558,3.746 -8.159,3.023 -8.345,2.649 -8.469,2.319 -8.805,1.743 -8.851,1.445 -8.933,1.093 -9.048,0.682 -9.105,0.318 -8.846,0.339 -8.708,0.222 -8.679,-0.039 -8.429,0.005 -8.279,-0.073 -8.119,-0.127 -8.084,-0.371 -7.947,-0.454 -7.858,-0.612 -7.778,-0.788 -7.627,-0.838 -7.512,-0.943 -7.325,-0.898 -7.194,-0.95 -7,-0.847 -6.815,-0.736 -6.782,-0.965 -6.632,-0.908 -6.553,-1.023 -6.428,-1 -6.306996,-0.974 -6.1587,-0.831 -6.1119,-0.996 -5.9817,-0.866 -5.8963,-0.868 -5.8199,-0.889 -5.751,-0.93 -5.6836,-0.969 -5.5814,-0.798 -5.51,-0.738 -5.4451,-0.677 -5.3928,-0.659 -5.3398,-0.593 -5.2956,-0.547 -5.2442,-0.315 -5.2251,-0.407 -5.1965,-0.265 -5.1796,-0.193 -5.1698,-0.142"
     fill-rule="evenodd"
     stroke="#fcff5c"
     stroke-linecap="round"
     stroke-linejoin="round"
     stroke-width="6.23537"
     id="path1693"
     style="fill:none" />
  <path
     transform="matrix(0.31748239,0,0,0.3175324,-12.206582,-15.839598)"
     d="m 320.33,65.864 a 31.291,31.291 0 0 1 -15.646,27.099 31.291,31.291 0 0 1 -31.292,-10e-7 31.291,31.291 0 0 1 -15.646,-27.099"
     clip-path="none"
     stroke-width="0.416656"
     id="path1697"
     style="fill:none;stroke:#858585" />
  <path
     transform="matrix(0.63497469,0,0,0.63464847,-103.977,-36.725931)"
     d="m 320.33,65.864 a 31.291,31.291 0 0 1 -15.646,27.099 31.291,31.291 0 0 1 -31.292,-10e-7 31.291,31.291 0 0 1 -15.646,-27.099"
     clip-path="none"
     stroke-width="0.208394"
     id="path1699"
     style="fill:none;stroke:#858585" />
  <path
     transform="matrix(0.95245708,0,0,0.95197271,-195.74414,-57.625794)"
     d="m 320.33,65.864 a 31.291,31.291 0 0 1 -15.646,27.099 31.291,31.291 0 0 1 -31.292,-10e-7 31.291,31.291 0 0 1 -15.646,-27.099"
     clip-path="none"
     stroke-width="0.138929"
     id="path1701"
     style="fill:none;stroke:#858585" />
  <path
     transform="matrix(1.269989,0,0,1.2693168,-287.51128,-78.525657)"
     d="m 320.33,65.864 a 31.291,31.291 0 0 1 -15.646,27.099 31.291,31.291 0 0 1 -31.292,-10e-7 31.291,31.291 0 0 1 -15.646,-27.099"
     clip-path="none"
     stroke-width="0.104197"
     id="path1703"
     style="fill:none;stroke:#858585" />
  <path
     transform="matrix(1.5874119,0,0,1.5866212,-379.27842,-99.426513)"
     d="m 320.33,65.864 a 31.291,31.291 0 0 1 -15.646,27.099 31.291,31.291 0 0 1 -31.292,-10e-7 31.291,31.291 0 0 1 -15.646,-27.099"
     clip-path="none"
     stroke-width="0.0833585"
     id="path1705"
     style="fill:none;stroke:#858585" />
  <path
     transform="matrix(1.9048349,0,0,1.9039256,-471.02574,-120.33034)"
     d="m 320.33,65.864 a 31.291,31.291 0 0 1 -15.646,27.099 31.291,31.291 0 0 1 -31.292,-10e-7 31.291,31.291 0 0 1 -15.646,-27.099"
     clip-path="none"
     stroke-width="0.0694666"
     id="path1707"
     style="fill:none;stroke:#858585" />
  <path
     transform="matrix(2.2223569,0,0,2.22123,-562.80279,-141.22624)"
     d="m 320.33,65.864 a 31.291,31.291 0 0 1 -15.646,27.099 31.291,31.291 0 0 1 -31.292,-10e-7 31.291,31.291 0 0 1 -15.646,-27.099"
     clip-path="none"
     stroke-width="0.0595422"
     id="path1709"
     style="fill:none;stroke:#858585" />
  <path
     transform="matrix(2.5344266,0,0,2.5331816,-653.17216,-161.77519)"
     d="m 320.33,65.864 a 31.291,31.291 0 0 1 -15.646,27.099 31.291,31.291 0 0 1 -31.292,-10e-7 31.291,31.291 0 0 1 -15.646,-27.099"
     clip-path="none"
     stroke-width="0.0522104"
     id="path1711"
     style="fill:none;stroke:#858585" />
  <path
     transform="matrix(0.15880067,0,0,0.15883063,28.690316,-0.44755867)"
     d="m 320.33,34.764 v 499.07"
     clip-path="none"
     stroke-width="0.83299"
     id="path1713"
     style="fill:none;stroke:#858585" />
  <path
     transform="matrix(0,0.29729074,-0.2972494,0,164.04809,-90.155196)"
     d="m 320.33,40.455 v 487.98"
     clip-path="none"
     stroke-width="0.445023"
     id="path1715"
     style="fill:none;stroke:#858585" />
  <path
     transform="matrix(0.15880067,0,0,0.15883063,28.690316,-0.44755867)"
     d="m 320.33,34.764 129.11,481.86"
     clip-path="none"
     id="path1717"
     style="fill:none;stroke:#858585;stroke-width:0.83299" />
  <path
     transform="matrix(0.15880067,0,0,0.15883063,28.690316,-0.44755867)"
     d="m 320.33,34.764 249.34,431.88"
     clip-path="none"
     id="path1719"
     style="fill:none;stroke:#858585;stroke-width:0.83299" />
  <path
     transform="matrix(0.15880067,0,0,0.15883063,28.690316,-0.44755867)"
     d="m 320.33,34.764 352.39,352.39"
     clip-path="none"
     id="path1721"
     style="fill:none;stroke:#858585;stroke-width:0.83299" />
  <path
     transform="matrix(0.15880067,0,0,0.15883063,28.690316,-0.44755867)"
     d="m 320.33,34.764 431.6,249.1"
     clip-path="none"
     id="path1723"
     style="fill:none;stroke:#858585;stroke-width:0.83299" />
  <path
     transform="matrix(0.15880067,0,0,0.15883063,28.690316,-0.44755867)"
     d="m 320.33,34.764 481.51,128.94"
     clip-path="none"
     id="path1725"
     style="fill:none;stroke:#858585;stroke-width:0.83299" />
  <path
     transform="matrix(0.15880067,0,0,0.15883063,28.690316,-0.44755867)"
     d="M 320.33,34.764 191.1,517.074"
     clip-path="none"
     id="path1727"
     style="fill:none;stroke:#858585;stroke-width:0.83299" />
  <path
     transform="matrix(0.15880067,0,0,0.15883063,28.690316,-0.44755867)"
     d="M 320.33,34.764 70.48,467.524"
     clip-path="none"
     id="path1729"
     style="fill:none;stroke:#858585;stroke-width:0.83299" />
  <path
     transform="matrix(0.15880067,0,0,0.15883063,28.690316,-0.44755867)"
     d="M 320.33,34.764 -33.24,388.334"
     clip-path="none"
     id="path1731"
     style="fill:none;stroke:#858585;stroke-width:0.83299" />
  <path
     transform="matrix(0.15880067,0,0,0.15883063,28.690316,-0.44755867)"
     d="m 320.33,34.764 -433.42,250.24"
     clip-path="none"
     id="path1733"
     style="fill:none;stroke:#858585;stroke-width:0.83299" />
  <path
     transform="matrix(0.15880067,0,0,0.15883063,28.690316,-0.44755867)"
     d="m 320.33,34.764 -483.42,129.53"
     clip-path="none"
     id="path1735"
     style="fill:none;stroke:#858585;stroke-width:0.83299" />
  <text
     transform="matrix(0.28095199,0,0,0.28093484,19.277666,3.8991449)"
     x="472"
     y="6.5"
     style="font-size:14.937px;font-family:Lato;font-variant-ligatures:normal;font-variant-caps:normal;font-variant-numeric:normal;font-variant-east-asian:normal;fill:#848484;fill-rule:evenodd;stroke-width:1.25573;stroke-linejoin:round"
     xml:space="preserve"
     id="text1743">90°</text>
  <text
     transform="matrix(0.28095199,0,0,0.28093484,139.93901,3.8991449)"
     x="-496"
     y="6.5"
     style="font-size:14.937px;font-family:Lato;font-variant-ligatures:normal;font-variant-caps:normal;font-variant-numeric:normal;font-variant-east-asian:normal;fill:#848484;fill-rule:evenodd;stroke-width:1.25573;stroke-linejoin:round"
     xml:space="preserve"
     id="text1745">90°</text>
  <text
     transform="matrix(0.28095199,0,0,0.28093484,53.475474,-40.002067)"
     x="233.98399"
     y="421.297"
     style="font-size:14.937px;font-family:Lato;font-variant-ligatures:normal;font-variant-caps:normal;font-variant-numeric:normal;font-variant-east-asian:normal;fill:#848484;fill-rule:evenodd;stroke-width:1.25573;stroke-linejoin:round"
     xml:space="preserve"
     id="text1747"> 30°</text>
  <text
     transform="matrix(0.28095199,0,0,0.28093484,37.207798,-22.544971)"
     x="405.297"
     y="250"
     style="font-size:14.937px;font-family:Lato;font-variant-ligatures:normal;font-variant-caps:normal;font-variant-numeric:normal;font-variant-east-asian:normal;fill:#848484;fill-rule:evenodd;stroke-width:1.25573;stroke-linejoin:round"
     xml:space="preserve"
     id="text1749"> 60°</text>
  <text
     transform="matrix(0.28095199,0,0,0.28093484,106.62051,-40.002067)"
     x="-260.98401"
     y="421.297"
     style="font-size:14.937px;font-family:Lato;font-variant-ligatures:normal;font-variant-caps:normal;font-variant-numeric:normal;font-variant-east-asian:normal;fill:#848484;fill-rule:evenodd;stroke-width:1.25573;stroke-linejoin:round"
     xml:space="preserve"
     id="text1751">30° </text>
  <text
     transform="matrix(0.28095199,0,0,0.28093484,122.12487,-22.544971)"
     x="-432.297"
     y="250"
     style="font-size:14.937px;font-family:Lato;font-variant-ligatures:normal;font-variant-caps:normal;font-variant-numeric:normal;font-variant-east-asian:normal;fill:#848484;fill-rule:evenodd;stroke-width:1.25573;stroke-linejoin:round"
     xml:space="preserve"
     id="text1753">60° </text>
  <text
     transform="matrix(0.2807339,0,0,0.28071676,-54.774462,87.191301)"
     x="472"
     y="6.5"
     font-size="14.948px"
     stroke-width="1.61405"
     style="font-family:Lato;font-variant-ligatures:normal;font-variant-caps:normal;font-variant-numeric:normal;font-variant-east-asian:normal;fill:#848484;fill-rule:evenodd;stroke-linejoin:round"
     xml:space="preserve"
     id="text1757">0º</text>
  <text
     transform="matrix(0.2807339,0,0,0.28071676,-58.82998,91.889905)"
     x="472"
     y="6.5"
     font-size="14.948px"
     stroke-width="1.61405"
     style="font-family:Lato;font-variant-ligatures:normal;font-variant-caps:normal;font-variant-numeric:normal;font-variant-east-asian:normal;fill:#848484;fill-rule:evenodd;stroke-linejoin:round"
     xml:space="preserve"
     id="text1759">cd.klm</text>
  <rect
     transform="matrix(0.26055048,0,0,0.26053458,6.3814937,92.286411)"
     y="6.5"
     width="11.2"
     height="15.2"
     fill="#fcff5c"
     fill-opacity="0.68235"
     stroke="#fcff5c"
     stroke-linecap="round"
     stroke-width="1.8497"
     id="rect1763"
     x="0"
     style="fill-rule:evenodd;stroke-linejoin:round" />
  <text
     transform="matrix(0.26055048,0,0,0.26053458,6.3814937,91.741215)"
     x="16"
     y="22.5"
     fill="#848484"
     font-family="Lato"
     font-size="17.569px"
     stroke-width="0.924829"
     style="font-variant-ligatures:normal;font-variant-caps:normal;font-variant-numeric:normal;font-variant-east-asian:normal;fill-rule:evenodd;stroke-linejoin:round"
     xml:space="preserve"
     id="text1765">C0-C180</text>
</svg>
