<?xml version="1.0" encoding="UTF-8" standalone="no"?>
<svg
   width="640"
   height="645"
   version="1.1"
   viewBox="0 0 169.33 170.65267"
   id="svg96"
   sodipodi:docname="0.svg"
   inkscape:version="1.2.2 (732a01da63, 2022-12-09)"
   xmlns:inkscape="http://www.inkscape.org/namespaces/inkscape"
   xmlns:sodipodi="http://sodipodi.sourceforge.net/DTD/sodipodi-0.dtd"
   xmlns="http://www.w3.org/2000/svg"
   xmlns:svg="http://www.w3.org/2000/svg">
  <defs
     id="defs100" />
  <sodipodi:namedview
     id="namedview98"
     pagecolor="#505050"
     bordercolor="#ffffff"
     borderopacity="1"
     inkscape:showpageshadow="0"
     inkscape:pageopacity="0"
     inkscape:pagecheckerboard="1"
     inkscape:deskcolor="#505050"
     showgrid="false"
     inkscape:zoom="0.98890193"
     inkscape:cx="569.31834"
     inkscape:cy="457.07263"
     inkscape:window-width="1920"
     inkscape:window-height="1009"
     inkscape:window-x="-8"
     inkscape:window-y="-8"
     inkscape:window-maximized="1"
     inkscape:current-layer="g42" />
  <g
     transform="matrix(0.39946,0,0,0.39988,50.894,16.41)"
     fill-rule="evenodd"
     stroke-width="2.5021"
     id="g10">
    <path
       transform="matrix(0.35278,0,0,0.35278,84.738,8.9287)"
       d="m 0,924.12 -16.163,1.861 -16.054,-3.391 -15.659,-9.046 -14.991,-14.485 -14.14,-18.845 -13.042,-23.442 -11.786,-27.38 -10.362,-31.055 -8.719,-34.892 -6.786,-39.201 -5.129,-40.879 -3.132,-43.701 -1.355,-44.867 0.206,-44.865 1.387,-43.391 2.657,-42.47 3.784,-41.195 4.017,-37.338 5.126,-36.618 4.951,-32.43 4.863,-29.073 4.434,-25.317 3.998,-22.045 3.3731,-18.765 2.8295,-16.071 2.2479,-13.623 1.6689,-11.47 1.2471,-9.861 0.7736,-8.337 0.4101,-7.173 0.1155,-6.247 0.0745,-5.825 0.1837,-5.674 0.5237,-5.875 1.0263,-6.278 1.7536,-6.939 2.096,-7.009 2.5254,-7.168 2.7296,-7.0219 2.9911,-6.9435 3.125,-6.7123 3.4162,-6.6646 3.7775,-6.6815 4.1149,-6.6559 4.4835,-6.647 4.7644,-6.5364 4.7403,-6.1336 4.9406,-5.9548 4.4021,-5.1325 4.0352,-4.5198 3.4281,-3.7588 2.7333,-2.9933 2.2815,-2.4781 1.8259,-2.0041 1.4767,-1.6466 1.2409,-1.3967 1.0447,-1.194 0.8734,-1.0241 0.7899,-0.9218 0.7108,-0.82961 0.6234,-0.74002 0.5899,-0.68655 0.523,-0.61937 0.5122,-0.58508 0.5277,-0.56475 0.427,-0.49248 0.4723,-0.48934 0.4802,-0.46899 0.4357,-0.42864 0.4797,-0.42388 0.4858,-0.40398 0.4961,-0.38563 0.5106,-0.36851 0.5151,-0.34815 0.49457,-0.32128 0.56144,-0.31778 0.6041,-0.30536 0.51758,-0.26352 0.61859,-0.2632 0.56033,-0.22962 0.57097,-0.2104 0.54092,-0.18514 0.57558,-0.16965 0.54934,-0.14612 0.55281,-0.12674 0.59101,-0.10976 0.61882,-0.090341 0.49924,-0.064417 0.46507,-0.046324 0.2531,-0.030065 h 2.9995 L 1.65753,0.032918 2.00109,0.073848 2.47013,0.133404 3.02855,0.21571 3.61496,0.32018 4.16818,0.44199 4.68792,0.57948 5.26923,0.7444 5.81102,0.92421 6.40775,1.13367 6.94413,1.3536 7.49939,1.59782 8.10727,1.87547 8.65344,2.16129 9.21645,2.47326 9.74181,2.79712 10.2633,3.1415 l 0.5075,0.3618 0.469,0.37053 0.4926,0.40005 0.4487,0.40562 0.4662,0.43394 0.4546,0.45154 0.4147,0.45656 0.4899,0.51332 0.4759,0.53218 0.4885,0.56448 0.5267,0.61215 0.5628,0.66221 0.6277,0.7324 0.6632,0.79081 0.7435,0.8812 0.9005,1.0287 0.9999,1.1513 1.1728,1.335 1.4596,1.6179 1.8098,1.9749 2.2102,2.4045 2.7236,2.9649 3.3181,3.6452 3.7876,4.2793 4.2569,4.9679 4.2931,5.3115 4.3702,5.7139 4.1363,5.8311 4.0766,6.1235 3.5597,5.9395 3.2193,5.9147 3.1133,6.1412 2.7576,6.08 2.6253,6.2732 2.4421,6.4087 2.0899,6.3218 1.5784,5.992 1.1041,5.666 0.6177,5.274 0.2835,5.062 0.281,5.348 0.4392,5.928 0.7122,6.772 1.0304,7.794 1.3817,8.998 1.8188,10.517 2.4356,12.594 3.0122,14.853 3.5741,17.379 4.3639,20.788 4.883,24.015 5.105,26.942 5.305,30.243 5.207,33.2 4.582,35.015 3.935,37.04 3.158,38.965 2.183,40.494 1.07,41.756 -0.08,43.099 -1.507,43.433 -3.552,40.627 -5.171,39.326 -7.133,35.385 -8.718,32.583 -10.229,29.176 -11.568,25.688 -12.695,22.559 -13.6,20.306 -14.443,17.086 -15.11,14.312 -15.654,10.678 -16.017,6.488"
       fill="#fcff5c"
       fill-opacity="0.70588"
       id="path4" />
    <path
       transform="matrix(0.35278,0,0,0.35278,84.738,8.9287)"
       d="m 0,924.12 -16.163,1.861 -16.054,-3.391 -15.659,-9.046 -14.991,-14.485 -14.14,-18.845 -13.042,-23.442 -11.786,-27.38 -10.362,-31.055 -8.719,-34.892 -6.786,-39.201 -5.129,-40.879 -3.132,-43.701 -1.355,-44.867 0.206,-44.865 1.387,-43.391 2.657,-42.47 3.784,-41.195 4.017,-37.338 5.126,-36.618 4.951,-32.43 4.863,-29.073 4.434,-25.317 3.998,-22.045 3.3731,-18.765 2.8295,-16.071 2.2479,-13.623 1.6689,-11.47 1.2471,-9.861 0.7736,-8.337 0.4101,-7.173 0.1155,-6.247 0.0745,-5.825 0.1837,-5.674 0.5237,-5.875 1.0263,-6.278 1.7536,-6.939 2.096,-7.009 2.5254,-7.168 2.7296,-7.0219 2.9911,-6.9435 3.125,-6.7123 3.4162,-6.6646 3.7775,-6.6815 4.1149,-6.6559 4.4835,-6.647 4.7644,-6.5364 4.7403,-6.1336 4.9406,-5.9548 4.4021,-5.1325 4.0352,-4.5198 3.4281,-3.7588 2.7333,-2.9933 2.2815,-2.4781 1.8259,-2.0041 1.4767,-1.6466 1.2409,-1.3967 1.0447,-1.194 0.8734,-1.0241 0.7899,-0.9218 0.7108,-0.82961 0.6234,-0.74002 0.5899,-0.68655 0.523,-0.61937 0.5122,-0.58508 0.5277,-0.56475 0.427,-0.49248 0.4723,-0.48934 0.4802,-0.46899 0.4357,-0.42864 0.4797,-0.42388 0.4858,-0.40398 0.4961,-0.38563 0.5106,-0.36851 0.5151,-0.34815 0.49457,-0.32128 0.56144,-0.31778 0.6041,-0.30536 0.51758,-0.26352 0.61859,-0.2632 0.56033,-0.22962 0.57097,-0.2104 0.54092,-0.18514 0.57558,-0.16965 0.54934,-0.14612 0.55281,-0.12674 0.59101,-0.10976 0.61882,-0.090341 0.49924,-0.064417 0.46507,-0.046324 0.2531,-0.030065 h 2.9995 L 1.65753,0.032918 2.00109,0.073848 2.47013,0.133404 3.02855,0.21571 3.61496,0.32018 4.16818,0.44199 4.68792,0.57948 5.26923,0.7444 5.81102,0.92421 6.40775,1.13367 6.94413,1.3536 7.49939,1.59782 8.10727,1.87547 8.65344,2.16129 9.21645,2.47326 9.74181,2.79712 10.2633,3.1415 l 0.5075,0.3618 0.469,0.37053 0.4926,0.40005 0.4487,0.40562 0.4662,0.43394 0.4546,0.45154 0.4147,0.45656 0.4899,0.51332 0.4759,0.53218 0.4885,0.56448 0.5267,0.61215 0.5628,0.66221 0.6277,0.7324 0.6632,0.79081 0.7435,0.8812 0.9005,1.0287 0.9999,1.1513 1.1728,1.335 1.4596,1.6179 1.8098,1.9749 2.2102,2.4045 2.7236,2.9649 3.3181,3.6452 3.7876,4.2793 4.2569,4.9679 4.2931,5.3115 4.3702,5.7139 4.1363,5.8311 4.0766,6.1235 3.5597,5.9395 3.2193,5.9147 3.1133,6.1412 2.7576,6.08 2.6253,6.2732 2.4421,6.4087 2.0899,6.3218 1.5784,5.992 1.1041,5.666 0.6177,5.274 0.2835,5.062 0.281,5.348 0.4392,5.928 0.7122,6.772 1.0304,7.794 1.3817,8.998 1.8188,10.517 2.4356,12.594 3.0122,14.853 3.5741,17.379 4.3639,20.788 4.883,24.015 5.105,26.942 5.305,30.243 5.207,33.2 4.582,35.015 3.935,37.04 3.158,38.965 2.183,40.494 1.07,41.756 -0.08,43.099 -1.507,43.433 -3.552,40.627 -5.171,39.326 -7.133,35.385 -8.718,32.583 -10.229,29.176 -11.568,25.688 -12.695,22.559 -13.6,20.306 -14.443,17.086 -15.11,14.312 -15.654,10.678 -16.017,6.488"
       fill="none"
       stroke="#fcff5c"
       stroke-linecap="round"
       stroke-linejoin="round"
       stroke-width="7.5062"
       id="path8" />
  </g>
  <g
     transform="translate(0,-62.592)"
     fill="#848484"
     fill-rule="evenodd"
     font-family="Lato"
     stroke-linejoin="round"
     id="g30">
    <g
       font-size="14.937px"
       stroke-width="1.2448"
       id="g24">
      <text
         transform="matrix(0.28341,0,0,0.28341,23.833,82.59)"
         x="472"
         y="6.5"
         style="font-variant-ligatures:normal;font-variant-caps:normal;font-variant-numeric:normal;font-variant-east-asian:normal"
         xml:space="preserve"
         id="text12">90°</text>
      <text
         transform="matrix(0.28341,0,0,0.28341,145.55,82.59)"
         x="-496"
         y="6.5"
         style="font-variant-ligatures:normal;font-variant-caps:normal;font-variant-numeric:normal;font-variant-east-asian:normal"
         xml:space="preserve"
         id="text14">90°</text>
      <text
         transform="matrix(0.28341,0,0,0.28341,83.593,81.449)"
         x="233.98399"
         y="421.297"
         style="font-variant-ligatures:normal;font-variant-caps:normal;font-variant-numeric:normal;font-variant-east-asian:normal"
         xml:space="preserve"
         id="text16"> 30°</text>
      <text
         transform="matrix(0.28341,0,0,0.28341,41.92,55.913)"
         x="405.297"
         y="250"
         style="font-variant-ligatures:normal;font-variant-caps:normal;font-variant-numeric:normal;font-variant-east-asian:normal"
         xml:space="preserve"
         id="text18"> 60°</text>
      <text
         transform="matrix(0.28341,0,0,0.28341,85.908,81.449)"
         x="-260.98401"
         y="421.297"
         style="font-variant-ligatures:normal;font-variant-caps:normal;font-variant-numeric:normal;font-variant-east-asian:normal"
         xml:space="preserve"
         id="text20">30° </text>
      <text
         transform="matrix(0.28341,0,0,0.28341,127.58,55.913)"
         x="-432.297"
         y="250"
         style="font-variant-ligatures:normal;font-variant-caps:normal;font-variant-numeric:normal;font-variant-east-asian:normal"
         xml:space="preserve"
         id="text22">60° </text>
    </g>
    <text
       transform="matrix(0.28319,0,0,0.28319,-50.867,217.57)"
       x="472"
       y="6.5"
       font-size="14.948px"
       stroke-width="1.6"
       style="font-variant-ligatures:normal;font-variant-caps:normal;font-variant-numeric:normal;font-variant-east-asian:normal"
       xml:space="preserve"
       id="text26">0º</text>
    <text
       transform="matrix(0.28319,0,0,0.28319,-54.958,222.31)"
       x="472"
       y="6.5"
       font-size="14.948px"
       stroke-width="1.6"
       style="font-variant-ligatures:normal;font-variant-caps:normal;font-variant-numeric:normal;font-variant-east-asian:normal"
       xml:space="preserve"
       id="text28">cd.klm</text>
  </g>
  <g
     transform="matrix(0.36334,0,0,0.36334,71.361,-83.036)"
     fill="none"
     fill-rule="evenodd"
     font-family="Lato"
     stroke="#000000"
     stroke-linecap="square"
     stroke-linejoin="bevel"
     stroke-width="0.91678"
     id="g46">
    <g
       stroke-linejoin="round"
       id="g42">
      <g
         transform="matrix(0.72337,0,0,0.72337,-166.61,669.22)"
         fill="#fcff5c"
         fill-opacity="0.68235"
         font-size="16px"
         font-weight="400"
         stroke="#fcff5c"
         stroke-linecap="round"
         stroke-width="1.8336"
         id="g34">
        <rect
           y="6.5"
           width="11.2"
           height="15.2"
           stroke-width="1.8336"
           id="rect32"
           x="0" />
      </g>
      <text
         transform="matrix(0.72337,0,0,0.72337,-166.61,667.7)"
         x="16"
         y="22.5"
         fill="#848484"
         font-size="17.569px"
         stroke="none"
         stroke-linecap="butt"
         stroke-width="0.91678"
         style="font-variant-ligatures:normal;font-variant-caps:normal;font-variant-numeric:normal;font-variant-east-asian:normal"
         xml:space="preserve"
         id="text36">C0-C180</text>
    </g>
  </g>
  <g
     transform="translate(-0.032826,10.806)"
     fill="none"
     stroke="#858585"
     id="g90">
    <path
       transform="matrix(0.52917,0,0,0.52917,-68.201,-25.683)"
       d="m 320.33,65.864 a 31.291,31.291 0 0 1 -15.646,27.099 31.291,31.291 0 0 1 -31.292,-10e-7 31.291,31.291 0 0 1 -15.646,-27.099"
       stroke-width="0.15"
       id="path48" />
    <path
       transform="matrix(1.0583,0,0,1.0576,-221.15,-60.49)"
       d="m 320.33,65.864 a 31.291,31.291 0 0 1 -15.646,27.099 31.291,31.291 0 0 1 -31.292,-10e-7 31.291,31.291 0 0 1 -15.646,-27.099"
       stroke-width="0.075027"
       id="path50" />
    <path
       transform="matrix(1.5875,0,0,1.5865,-374.1,-95.32)"
       d="m 320.33,65.864 a 31.291,31.291 0 0 1 -15.646,27.099 31.291,31.291 0 0 1 -31.292,-10e-7 31.291,31.291 0 0 1 -15.646,-27.099"
       stroke-width="0.050016"
       id="path52" />
    <path
       transform="matrix(2.1167,0,0,2.1153,-527.05,-130.15)"
       d="m 320.33,65.864 a 31.291,31.291 0 0 1 -15.646,27.099 31.291,31.291 0 0 1 -31.292,-10e-7 31.291,31.291 0 0 1 -15.646,-27.099"
       stroke-width="0.037512"
       id="path54" />
    <path
       transform="matrix(2.6458,0,0,2.6441,-680,-164.98)"
       d="m 316.1,81.579 c -2.6998,4.6487 -6.5966,8.6031 -11.414,11.384 -9.6817,5.59 -21.61,5.59 -31.292,-10e-7 -4.8457,-2.7976 -8.7602,-6.7827 -11.462,-11.467"
       stroke-width="0.03001"
       id="path56" />
    <path
       transform="matrix(3.1749,0,0,3.1729,-832.93,-199.8)"
       d="m 311.59,87.561 c -2.0089,2.088 -4.324,3.9131 -6.9028,5.4019 -9.6817,5.59 -21.61,5.59 -31.292,-1e-6 -2.5964,-1.499 -4.9254,-3.3389 -6.9438,-5.4447"
       stroke-width="0.025009"
       id="path58" />
    <path
       transform="matrix(3.7041,0,0,3.7017,-985.9,-234.64)"
       d="m 308.37,90.473 c -1.1574,0.90884 -2.3869,1.7421 -3.683,2.4903 -9.6817,5.59 -21.61,5.59 -31.292,-10e-7 -1.3089,-0.75568 -2.5499,-1.598 -3.7174,-2.5174"
       stroke-width="0.021436"
       id="path60" />
    <path
       transform="matrix(4.2243,0,0,4.2215,-1136.5,-268.87)"
       d="m 306.04,92.132 c -0.44425,0.28747 -0.89718,0.5646 -1.3586,0.83096 -9.6817,5.59 -21.61,5.59 -31.292,-10e-7 -0.43229,-0.24957 -0.85718,-0.5086 -1.2744,-0.77673"
       stroke-width="0.018796"
       id="path62" />
    <path
       transform="matrix(0.26469,0,0,0.26469,-0.036694,-0.031725)"
       d="m 320.33,34.764 v 499.07"
       stroke-width="0.29988"
       id="path64" />
    <path
       transform="matrix(0,0.29371,-0.29371,0,168.21,-84.937)"
       d="m 320.33,40.455 v 487.98"
       stroke-width="0.27025"
       id="path66" />
    <g
       stroke-width="0.29988"
       id="g88">
      <path
         transform="matrix(0.26469,0,0,0.26469,-0.036694,-0.031725)"
         d="m 320.33,34.764 129.11,481.86"
         id="path68" />
      <path
         transform="matrix(0.26469,0,0,0.26469,-0.036694,-0.031725)"
         d="m 320.33,34.764 249.34,431.88"
         id="path70" />
      <path
         transform="matrix(0.26469,0,0,0.26469,-0.036694,-0.031725)"
         d="m 320.33,34.764 270.38,270.38"
         id="path72" />
      <path
         transform="matrix(0.26469,0,0,0.26469,-0.036694,-0.031725)"
         d="m 320.33,34.764 270.39,156.06"
         id="path74" />
      <path
         transform="matrix(0.26469,0,0,0.26469,-0.036694,-0.031725)"
         d="m 320.33,34.764 270.39,72.405"
         id="path76" />
      <path
         transform="matrix(0.26469,0,0,0.26469,-0.036694,-0.031725)"
         d="M 320.33,34.764 191.1,517.074"
         id="path78" />
      <path
         transform="matrix(0.26469,0,0,0.26469,-0.036694,-0.031725)"
         d="M 320.33,34.764 70.48,467.524"
         id="path80" />
      <path
         transform="matrix(0.26469,0,0,0.26469,-0.036694,-0.031725)"
         d="M 320.33,34.764 49.25,305.844"
         id="path82" />
      <path
         transform="matrix(0.26469,0,0,0.26469,-0.036694,-0.031725)"
         d="M 320.33,34.764 49.25,191.274"
         id="path84" />
      <path
         transform="matrix(0.26469,0,0,0.26469,-0.036694,-0.031725)"
         d="M 320.33,34.764 49.27,107.391"
         id="path86" />
    </g>
  </g>
  <g
     transform="translate(6.3093,14.512)"
     id="g94">
    <path
       transform="matrix(0.20538,0,0,0.20356,92.426,91.454)"
       d="m -195.16,-435.56 v -55.7 m 245,61.206 v 7 m 10,-12.006 -1e-4,2.5057 m -254.9,-2.9999 254.4,-0.006 m -254.5,-55.7 h 253 m -33.25,62.365 v -1.0999 m -6,1.0999 v -1.0999 m 6,1.0999 h -0.4887 m 0,0 h -5.5113 m -113.5,0 v -1.0999 m -5.9981,1.0999 v -1.0999 m 5.9981,1.0999 h -0.4869 m 0,0 h -5.5112 m -55.002,-1.0999 v 1.0999 m -6.0007,-1.0999 v 1.0999 m 5.5112,-1e-5 h 0.4895 m -6.0007,0 h 5.5112 m 119.99,0 v -1.0999 m -5.9999,1.0999 v -1.0999 m 5.9999,1.0999 h -0.4884 m 0,0 h -5.5115 m -130.35,0.94035 v -2.6001 m 208.2,2.6001 v -2.6001 m 22.4,-5.5054 h 2 m -257,0 h 2.0003 m 47.498,6.0055 v 1.0001 m 142.5,-1.0001 v 1.0001 m -192,-6 v 2.4998 m 85.5,2.5 v 1.0001 m 85.999,0 h 5 m -148,-1.5002 v 0.50006 m 212.6,2.1 h -225.2 m 64.601,-2.1 v 1.0001 m 35.999,-1.0001 v 1.0001 m -20.5,0 h 0.2513 m 49.249,-1.0001 v 1.0001 m 108.5,-62.206 v -1.0001 m -6.9999,62.206 a 0.5,0.5 0 0 0 -0.5,-0.5 m -70,0.49995 v 1.0001 m -36,0 h 5.0001 m 83,-1.5002 h -200 m -12.6,2.6001 v -2.6001 m -12.9,-61.706 a 1,1 0 0 0 -1,1 m 245,68.206 a 0.5,0.5 0 0 0 0.5,0.5 m -151.5,-7.5 v 1.0001 m -95.499,-6.5058 h 1.5002 m 0.9974,-55.7 v -1.0001 m 157.75,63.206 h 0.2501 m 26,-1.0001 v 1.0001 m 68,-62.206 v 55.7 m -244.5,5.0058 a 0.5,0.5 0 0 0 -0.5,0.5 m 44.5,-5e-5 v 1.0001 m 202.5,-62.206 a 3,3 0 0 0 -3,-3 m -184,64.206 v 1.0001 m 177.5,6.5 h 2.054 m -169.05,-6.5 h 5.0006 m -36.002,0 h 5.0006 m 56.999,-1.0001 v 1.0001 m 142.5,-65.206 h -251 m -2.4987,58.706 a 0.5,0.5 0 0 0 -0.5,0.5 m 202.5,6.0001 h 4.9999 m -198,6.5 238,-1e-4 m 2.054,0 a 5,5 0 0 0 3.0689,-1.0526 m -252.62,-8.9474 a 11.333,11.333 0 0 0 4.3771,8.9474 m 5.1229,1.0526 a 0.5,0.5 0 0 0 0.5,-0.5 m 245,-68.206 a 1,1 0 0 0 -1,-1 m -249.62,68.653 a 5,5 0 0 0 3.0689,1.0526 m -7.445,-12.5 v -0.006 m 111.5,6.006 h 5.0006 m 140.5,-6.0058 v 0.006 m -192,4.9996 v 1.0001 m 163.5,-1.0001 v -0.50006 m -200,0.50006 h 200 m -218.5,7.0001 4e-4,-7 m 236.5,7.5001 v -8.0002 m -236,0 h 236 m -246.5,-60.705 v 55.2 m 257,0 v -55.2 m -4.3772,67.653 a 11.333,11.333 0 0 0 4.3771,-8.9474 m -254,-61.706 a 3,3 0 0 0 -3,3 m 2.9987,-1 h 251 m -246.55,69.706 h 2.0531 m 198,-7.5002 v 1.0001 m -4.9999,-1.0001 v 1.0001 m -15.5,0 H -5.15 m -20.5,-1.0001 v 1.0001 m -10.5,-1.0001 v 1.0001 m -20.5,-1.0001 v 1.0001 m -75.499,0 h 4.998 m -59.5,-1.5002 v 8.0002 m 246.5,-12.506 a 0.5,0.5 0 0 0 -0.5,-0.5 m -15.4,5.0056 v 2.6001"
       fill="none"
       stroke="#000000"
       stroke-linecap="round"
       stroke-width="0.647"
       id="path92" />
  </g>
</svg>
