<?xml version="1.0" encoding="UTF-8" standalone="no"?>
<svg
   width="640"
   height="645"
   version="1.1"
   viewBox="0 0 169.33 170.65267"
   id="svg319"
   sodipodi:docname="1.svg"
   inkscape:version="1.2.2 (732a01da63, 2022-12-09)"
   xmlns:inkscape="http://www.inkscape.org/namespaces/inkscape"
   xmlns:sodipodi="http://sodipodi.sourceforge.net/DTD/sodipodi-0.dtd"
   xmlns="http://www.w3.org/2000/svg"
   xmlns:svg="http://www.w3.org/2000/svg">
  <defs
     id="defs323" />
  <sodipodi:namedview
     id="namedview321"
     pagecolor="#505050"
     bordercolor="#ffffff"
     borderopacity="1"
     inkscape:showpageshadow="0"
     inkscape:pageopacity="0"
     inkscape:pagecheckerboard="1"
     inkscape:deskcolor="#505050"
     showgrid="false"
     inkscape:zoom="1.3985185"
     inkscape:cx="295.3125"
     inkscape:cy="477.64831"
     inkscape:window-width="1920"
     inkscape:window-height="1009"
     inkscape:window-x="-8"
     inkscape:window-y="-8"
     inkscape:window-maximized="1"
     inkscape:current-layer="g269" />
  <g
     transform="matrix(0.39995,0,0,0.39999,62.743,70.88)"
     fill-rule="evenodd"
     stroke-width="2.5002"
     id="g233">
    <path
       transform="matrix(0.35278,0,0,0.35278,55.035,-127.27)"
       d="m 0,896.59 -31.287,-0.639 -30.993,-5.303 -30.341,-9.418 -29.396,-13.038 -28.254,-15.964 -27.068,-17.918 -25.777,-19.661 -24.592,-20.542 -23.085,-22.25 -20.982,-25.165 -17.987,-29.51 -14.165,-34.555 -10.734,-37.481 -7.449,-39.35 -4.519,-40.062 -2.346,-39.268 -0.325,-38.263 1.483,-37.006 3.095,-35.576 4.825,-34.387 6.603,-33.29 7.862,-31.664 10.071,-31.057 11.685,-29.804 14.31,-29.398 16.1,-28.152 18.219,-27.101 19.538,-25.409 20.003,-23.197 19.707,-20.669 19.23,-18.248 18.579,-15.947 17.574,-13.689 17.077,-11.861 16.021,-9.9705 14.812,-8.2224 13.213,-6.5566 11.522,-5.0913 10.142,-3.9124 8.8233,-2.9191 7.5798,-2.0961 6.6809,-1.4544 5.7212,-0.91172 5.0118,-0.4839 3.6481,-0.13311 h 0.3276 l 3.6481,0.13311 5.0118,0.4839 5.7212,0.91172 6.6809,1.4544 7.5798,2.0961 8.8233,2.9191 10.142,3.9124 11.522,5.0913 13.213,6.5566 14.812,8.2224 16.021,9.9705 17.077,11.861 17.574,13.689 18.579,15.947 19.23,18.248 19.707,20.669 20.003,23.197 19.538,25.409 18.219,27.101 16.1,28.152 14.31,29.398 11.685,29.804 10.071,31.057 7.862,31.664 6.603,33.29 4.825,34.387 3.095,35.576 1.483,37.006 -0.325,38.263 -2.346,39.268 -4.519,40.062 -7.449,39.35 -10.734,37.481 -14.165,34.555 -17.987,29.51 -20.982,25.165 -23.085,22.25 -24.592,20.542 -25.777,19.661 -27.068,17.918 -28.254,15.964 -29.396,13.038 -30.341,9.418 -30.993,5.303 -31.287,0.639"
       fill="#fcff5c"
       fill-opacity="0.70588"
       id="path225" />
    <path
       transform="matrix(0.35278,0,0,0.35278,55.035,-127.27)"
       d="m 0,896.59 -31.287,-0.639 -30.993,-5.303 -30.341,-9.418 -29.396,-13.038 -28.254,-15.964 -27.068,-17.918 -25.777,-19.661 -24.592,-20.542 -23.085,-22.25 -20.982,-25.165 -17.987,-29.51 -14.165,-34.555 -10.734,-37.481 -7.449,-39.35 -4.519,-40.062 -2.346,-39.268 -0.325,-38.263 1.483,-37.006 3.095,-35.576 4.825,-34.387 6.603,-33.29 7.862,-31.664 10.071,-31.057 11.685,-29.804 14.31,-29.398 16.1,-28.152 18.219,-27.101 19.538,-25.409 20.003,-23.197 19.707,-20.669 19.23,-18.248 18.579,-15.947 17.574,-13.689 17.077,-11.861 16.021,-9.9705 14.812,-8.2224 13.213,-6.5566 11.522,-5.0913 10.142,-3.9124 8.8233,-2.9191 7.5798,-2.0961 6.6809,-1.4544 5.7212,-0.91172 5.0118,-0.4839 3.6481,-0.13311 h 0.3276 l 3.6481,0.13311 5.0118,0.4839 5.7212,0.91172 6.6809,1.4544 7.5798,2.0961 8.8233,2.9191 10.142,3.9124 11.522,5.0913 13.213,6.5566 14.812,8.2224 16.021,9.9705 17.077,11.861 17.574,13.689 18.579,15.947 19.23,18.248 19.707,20.669 20.003,23.197 19.538,25.409 18.219,27.101 16.1,28.152 14.31,29.398 11.685,29.804 10.071,31.057 7.862,31.664 6.603,33.29 4.825,34.387 3.095,35.576 1.483,37.006 -0.325,38.263 -2.346,39.268 -4.519,40.062 -7.449,39.35 -10.734,37.481 -14.165,34.555 -17.987,29.51 -20.982,25.165 -23.085,22.25 -24.592,20.542 -25.777,19.661 -27.068,17.918 -28.254,15.964 -29.396,13.038 -30.341,9.418 -30.993,5.303 -31.287,0.639"
       fill="none"
       stroke="#fcff5c"
       stroke-linecap="round"
       stroke-linejoin="round"
       stroke-width="7.5006"
       id="path229" />
  </g>
  <g
     transform="translate(0,-62.619)"
     fill="#848484"
     fill-rule="evenodd"
     font-family="Lato"
     stroke-linejoin="round"
     id="g253">
    <g
       font-size="14.937px"
       stroke-width="1.2448"
       id="g247">
      <text
         transform="matrix(0.28341,0,0,0.28341,23.833,82.59)"
         x="472"
         y="6.5"
         style="font-variant-ligatures:normal;font-variant-caps:normal;font-variant-numeric:normal;font-variant-east-asian:normal"
         xml:space="preserve"
         id="text235">90°</text>
      <text
         transform="matrix(0.28341,0,0,0.28341,145.55,82.59)"
         x="-496"
         y="6.5"
         style="font-variant-ligatures:normal;font-variant-caps:normal;font-variant-numeric:normal;font-variant-east-asian:normal"
         xml:space="preserve"
         id="text237">90°</text>
      <text
         transform="matrix(0.28341,0,0,0.28341,83.593,81.449)"
         x="233.98399"
         y="421.297"
         style="font-variant-ligatures:normal;font-variant-caps:normal;font-variant-numeric:normal;font-variant-east-asian:normal"
         xml:space="preserve"
         id="text239"> 30°</text>
      <text
         transform="matrix(0.28341,0,0,0.28341,41.92,55.913)"
         x="405.297"
         y="250"
         style="font-variant-ligatures:normal;font-variant-caps:normal;font-variant-numeric:normal;font-variant-east-asian:normal"
         xml:space="preserve"
         id="text241"> 60°</text>
      <text
         transform="matrix(0.28341,0,0,0.28341,85.908,81.449)"
         x="-260.98401"
         y="421.297"
         style="font-variant-ligatures:normal;font-variant-caps:normal;font-variant-numeric:normal;font-variant-east-asian:normal"
         xml:space="preserve"
         id="text243">30° </text>
      <text
         transform="matrix(0.28341,0,0,0.28341,127.58,55.913)"
         x="-432.297"
         y="250"
         style="font-variant-ligatures:normal;font-variant-caps:normal;font-variant-numeric:normal;font-variant-east-asian:normal"
         xml:space="preserve"
         id="text245">60° </text>
    </g>
    <text
       transform="matrix(0.28319,0,0,0.28319,-50.867,217.57)"
       x="472"
       y="6.5"
       font-size="14.948px"
       stroke-width="1.6"
       style="font-variant-ligatures:normal;font-variant-caps:normal;font-variant-numeric:normal;font-variant-east-asian:normal"
       xml:space="preserve"
       id="text249">0º</text>
    <text
       transform="matrix(0.28319,0,0,0.28319,-54.958,222.31)"
       x="472"
       y="6.5"
       font-size="14.948px"
       stroke-width="1.6"
       style="font-variant-ligatures:normal;font-variant-caps:normal;font-variant-numeric:normal;font-variant-east-asian:normal"
       xml:space="preserve"
       id="text251">cd.klm</text>
  </g>
  <g
     transform="matrix(0.36334,0,0,0.36334,71.361,-83.063)"
     fill="none"
     fill-rule="evenodd"
     font-family="Lato"
     stroke="#000000"
     stroke-linecap="square"
     stroke-linejoin="bevel"
     stroke-width="0.91678"
     id="g269">
    <g
       stroke-linejoin="round"
       id="g265">
      <g
         transform="matrix(0.72337,0,0,0.72337,-166.61,669.22)"
         fill="#fcff5c"
         fill-opacity="0.68235"
         font-size="16px"
         font-weight="400"
         stroke="#fcff5c"
         stroke-linecap="round"
         stroke-width="1.8336"
         id="g257">
        <rect
           y="6.5"
           width="11.2"
           height="15.2"
           stroke-width="1.8336"
           id="rect255"
           x="0" />
      </g>
      <text
         transform="matrix(0.72337,0,0,0.72337,-166.61,667.7)"
         x="16"
         y="22.5"
         fill="#848484"
         font-size="17.569px"
         stroke="none"
         stroke-linecap="butt"
         stroke-width="0.91678"
         style="font-variant-ligatures:normal;font-variant-caps:normal;font-variant-numeric:normal;font-variant-east-asian:normal"
         xml:space="preserve"
         id="text259">C0-C180</text>
    </g>
  </g>
  <g
     transform="translate(-0.0067233,10.806)"
     fill="none"
     stroke="#858585"
     id="g313">
    <path
       transform="matrix(0.52917,0,0,0.52917,-68.201,-25.683)"
       d="m 320.33,65.864 a 31.291,31.291 0 0 1 -15.646,27.099 31.291,31.291 0 0 1 -31.292,-10e-7 31.291,31.291 0 0 1 -15.646,-27.099"
       stroke-width="0.15"
       id="path271" />
    <path
       transform="matrix(1.0583,0,0,1.0576,-221.15,-60.49)"
       d="m 320.33,65.864 a 31.291,31.291 0 0 1 -15.646,27.099 31.291,31.291 0 0 1 -31.292,-10e-7 31.291,31.291 0 0 1 -15.646,-27.099"
       stroke-width="0.075027"
       id="path273" />
    <path
       transform="matrix(1.5875,0,0,1.5865,-374.1,-95.32)"
       d="m 320.33,65.864 a 31.291,31.291 0 0 1 -15.646,27.099 31.291,31.291 0 0 1 -31.292,-10e-7 31.291,31.291 0 0 1 -15.646,-27.099"
       stroke-width="0.050016"
       id="path275" />
    <path
       transform="matrix(2.1167,0,0,2.1153,-527.05,-130.15)"
       d="m 320.33,65.864 a 31.291,31.291 0 0 1 -15.646,27.099 31.291,31.291 0 0 1 -31.292,-10e-7 31.291,31.291 0 0 1 -15.646,-27.099"
       stroke-width="0.037512"
       id="path277" />
    <path
       transform="matrix(2.6458,0,0,2.6441,-680,-164.98)"
       d="m 316.1,81.579 c -2.6998,4.6487 -6.5966,8.6031 -11.414,11.384 -9.6817,5.59 -21.61,5.59 -31.292,-10e-7 -4.8457,-2.7976 -8.7602,-6.7827 -11.462,-11.467"
       stroke-width="0.03001"
       id="path279" />
    <path
       transform="matrix(3.1749,0,0,3.1729,-832.93,-199.8)"
       d="m 311.59,87.561 c -2.0089,2.088 -4.324,3.9131 -6.9028,5.4019 -9.6817,5.59 -21.61,5.59 -31.292,-1e-6 -2.5964,-1.499 -4.9254,-3.3389 -6.9438,-5.4447"
       stroke-width="0.025009"
       id="path281" />
    <path
       transform="matrix(3.7041,0,0,3.7017,-985.9,-234.64)"
       d="m 308.37,90.473 c -1.1574,0.90884 -2.3869,1.7421 -3.683,2.4903 -9.6817,5.59 -21.61,5.59 -31.292,-10e-7 -1.3089,-0.75568 -2.5499,-1.598 -3.7174,-2.5174"
       stroke-width="0.021436"
       id="path283" />
    <path
       transform="matrix(4.2243,0,0,4.2215,-1136.5,-268.87)"
       d="m 306.04,92.132 c -0.44425,0.28747 -0.89718,0.5646 -1.3586,0.83096 -9.6817,5.59 -21.61,5.59 -31.292,-10e-7 -0.43229,-0.24957 -0.85718,-0.5086 -1.2744,-0.77673"
       stroke-width="0.018796"
       id="path285" />
    <path
       transform="matrix(0.26469,0,0,0.26469,-0.036694,-0.031725)"
       d="m 320.33,34.764 v 499.07"
       stroke-width="0.29988"
       id="path287" />
    <path
       transform="matrix(0,0.29371,-0.29371,0,168.21,-84.937)"
       d="m 320.33,40.455 v 487.98"
       stroke-width="0.27025"
       id="path289" />
    <g
       stroke-width="0.29988"
       id="g311">
      <path
         transform="matrix(0.26469,0,0,0.26469,-0.036694,-0.031725)"
         d="m 320.33,34.764 129.11,481.86"
         id="path291" />
      <path
         transform="matrix(0.26469,0,0,0.26469,-0.036694,-0.031725)"
         d="m 320.33,34.764 249.34,431.88"
         id="path293" />
      <path
         transform="matrix(0.26469,0,0,0.26469,-0.036694,-0.031725)"
         d="m 320.33,34.764 270.38,270.38"
         id="path295" />
      <path
         transform="matrix(0.26469,0,0,0.26469,-0.036694,-0.031725)"
         d="m 320.33,34.764 270.39,156.06"
         id="path297" />
      <path
         transform="matrix(0.26469,0,0,0.26469,-0.036694,-0.031725)"
         d="m 320.33,34.764 270.39,72.405"
         id="path299" />
      <path
         transform="matrix(0.26469,0,0,0.26469,-0.036694,-0.031725)"
         d="M 320.33,34.764 191.1,517.074"
         id="path301" />
      <path
         transform="matrix(0.26469,0,0,0.26469,-0.036694,-0.031725)"
         d="M 320.33,34.764 70.48,467.524"
         id="path303" />
      <path
         transform="matrix(0.26469,0,0,0.26469,-0.036694,-0.031725)"
         d="M 320.33,34.764 49.25,305.844"
         id="path305" />
      <path
         transform="matrix(0.26469,0,0,0.26469,-0.036694,-0.031725)"
         d="M 320.33,34.764 49.25,191.274"
         id="path307" />
      <path
         transform="matrix(0.26469,0,0,0.26469,-0.036694,-0.031725)"
         d="M 320.33,34.764 49.27,107.391"
         id="path309" />
    </g>
  </g>
  <g
     transform="translate(6.3354,14.512)"
     id="g317">
    <path
       transform="matrix(0.20538,0,0,0.20356,92.426,91.454)"
       d="m -195.16,-435.56 v -55.7 m 245,61.206 v 7 m 10,-12.006 -1e-4,2.5057 m -254.9,-2.9999 254.4,-0.006 m -254.5,-55.7 h 253 m -33.25,62.365 v -1.0999 m -6,1.0999 v -1.0999 m 6,1.0999 h -0.4887 m 0,0 h -5.5113 m -113.5,0 v -1.0999 m -5.9981,1.0999 v -1.0999 m 5.9981,1.0999 h -0.4869 m 0,0 h -5.5112 m -55.002,-1.0999 v 1.0999 m -6.0007,-1.0999 v 1.0999 m 5.5112,-1e-5 h 0.4895 m -6.0007,0 h 5.5112 m 119.99,0 v -1.0999 m -5.9999,1.0999 v -1.0999 m 5.9999,1.0999 h -0.4884 m 0,0 h -5.5115 m -130.35,0.94035 v -2.6001 m 208.2,2.6001 v -2.6001 m 22.4,-5.5054 h 2 m -257,0 h 2.0003 m 47.498,6.0055 v 1.0001 m 142.5,-1.0001 v 1.0001 m -192,-6 v 2.4998 m 85.5,2.5 v 1.0001 m 85.999,0 h 5 m -148,-1.5002 v 0.50006 m 212.6,2.1 h -225.2 m 64.601,-2.1 v 1.0001 m 35.999,-1.0001 v 1.0001 m -20.5,0 h 0.2513 m 49.249,-1.0001 v 1.0001 m 108.5,-62.206 v -1.0001 m -6.9999,62.206 a 0.5,0.5 0 0 0 -0.5,-0.5 m -70,0.49995 v 1.0001 m -36,0 h 5.0001 m 83,-1.5002 h -200 m -12.6,2.6001 v -2.6001 m -12.9,-61.706 a 1,1 0 0 0 -1,1 m 245,68.206 a 0.5,0.5 0 0 0 0.5,0.5 m -151.5,-7.5 v 1.0001 m -95.499,-6.5058 h 1.5002 m 0.9974,-55.7 v -1.0001 m 157.75,63.206 h 0.2501 m 26,-1.0001 v 1.0001 m 68,-62.206 v 55.7 m -244.5,5.0058 a 0.5,0.5 0 0 0 -0.5,0.5 m 44.5,-5e-5 v 1.0001 m 202.5,-62.206 a 3,3 0 0 0 -3,-3 m -184,64.206 v 1.0001 m 177.5,6.5 h 2.054 m -169.05,-6.5 h 5.0006 m -36.002,0 h 5.0006 m 56.999,-1.0001 v 1.0001 m 142.5,-65.206 h -251 m -2.4987,58.706 a 0.5,0.5 0 0 0 -0.5,0.5 m 202.5,6.0001 h 4.9999 m -198,6.5 238,-1e-4 m 2.054,0 a 5,5 0 0 0 3.0689,-1.0526 m -252.62,-8.9474 a 11.333,11.333 0 0 0 4.3771,8.9474 m 5.1229,1.0526 a 0.5,0.5 0 0 0 0.5,-0.5 m 245,-68.206 a 1,1 0 0 0 -1,-1 m -249.62,68.653 a 5,5 0 0 0 3.0689,1.0526 m -7.445,-12.5 v -0.006 m 111.5,6.006 h 5.0006 m 140.5,-6.0058 v 0.006 m -192,4.9996 v 1.0001 m 163.5,-1.0001 v -0.50006 m -200,0.50006 h 200 m -218.5,7.0001 4e-4,-7 m 236.5,7.5001 v -8.0002 m -236,0 h 236 m -246.5,-60.705 v 55.2 m 257,0 v -55.2 m -4.3772,67.653 a 11.333,11.333 0 0 0 4.3771,-8.9474 m -254,-61.706 a 3,3 0 0 0 -3,3 m 2.9987,-1 h 251 m -246.55,69.706 h 2.0531 m 198,-7.5002 v 1.0001 m -4.9999,-1.0001 v 1.0001 m -15.5,0 H -5.15 m -20.5,-1.0001 v 1.0001 m -10.5,-1.0001 v 1.0001 m -20.5,-1.0001 v 1.0001 m -75.499,0 h 4.998 m -59.5,-1.5002 v 8.0002 m 246.5,-12.506 a 0.5,0.5 0 0 0 -0.5,-0.5 m -15.4,5.0056 v 2.6001"
       fill="none"
       stroke="#000000"
       stroke-linecap="round"
       stroke-width="0.647"
       id="path315" />
  </g>
</svg>
