<?xml version="1.0" encoding="UTF-8" standalone="no"?>
<svg
   width="640"
   height="645"
   version="1.1"
   viewBox="0 0 169.33 170.65267"
   id="svg536"
   sodipodi:docname="2.svg"
   inkscape:version="1.2.2 (732a01da63, 2022-12-09)"
   xmlns:inkscape="http://www.inkscape.org/namespaces/inkscape"
   xmlns:sodipodi="http://sodipodi.sourceforge.net/DTD/sodipodi-0.dtd"
   xmlns="http://www.w3.org/2000/svg"
   xmlns:svg="http://www.w3.org/2000/svg">
  <defs
     id="defs540" />
  <sodipodi:namedview
     id="namedview538"
     pagecolor="#505050"
     bordercolor="#ffffff"
     borderopacity="1"
     inkscape:showpageshadow="0"
     inkscape:pageopacity="0"
     inkscape:pagecheckerboard="1"
     inkscape:deskcolor="#505050"
     showgrid="false"
     inkscape:zoom="0.98890193"
     inkscape:cx="251.79443"
     inkscape:cy="342.80447"
     inkscape:window-width="1920"
     inkscape:window-height="1009"
     inkscape:window-x="-8"
     inkscape:window-y="-8"
     inkscape:window-maximized="1"
     inkscape:current-layer="g482" />
  <g
     transform="translate(0,10.798)"
     fill-rule="evenodd"
     id="g450">
    <path
       transform="matrix(0.1411,0,0,0.14106,84.752,9.1561)"
       d="m 0,673.49 -11.754,-0.123 -11.744,-0.491 -11.721,-0.878 -11.691,-1.164 -11.656,-1.427 -11.616,-1.671 -11.581,-1.831 -11.558,-1.891 -11.527,-2.032 -11.495,-2.171 -23.016,-4.183 -11.581,-1.839 -11.692,-1.509 -11.87,-1.031 -12.018,-0.778 -12.145,-0.669 -12.291,-0.548 -12.346,-0.74 -12.293,-1.224 -12.1,-2.026 -11.818,-2.949 -11.521,-3.803 -11.044,-4.958 -10.533,-6.052 -10.023,-7.013 -9.564,-7.769 -9.146,-8.363 -8.664,-9.01 -8.264,-9.445 -8.016,-9.586 -7.449,-10.221 -7.222,-10.27 -6.994,-10.315 -6.792,-10.321 -6.413,-10.573 -6.159,-10.632 -5.867,-10.734 -5.291,-11.177 -5.114,-11.097 -4.568,-11.448 -3.884,-11.913 -3.192,-12.335 -2.422,-12.789 -1.269,-13.57 -0.075,-14.302 1.559,-15.353 3.19,-16.276 4.917,-17.165 6.712,-17.989 8.271,-18.5 9.703,-18.82 10.512,-18.588 11.713,-18.616 12.345,-18.188 12.728,-17.583 13.078,-16.96 13.354,-16.301 13.505,-15.58 13.596,-14.842 13.308,-13.916 13.971,-13.542 13.141,-12.387 13.473,-11.875 13.2,-11.081 12.619,-10.187 12.624,-9.5944 12.195,-8.8423 11.965,-8.208 11.677,-7.5788 11.406,-6.9845 10.999,-6.373 10.687,-5.8241 10.318,-5.2853 9.931,-4.7707 9.5277,-4.2804 9.2064,-3.838 8.931,-3.4286 8.3632,-2.9823 8.1014,-2.6249 7.9089,-2.2965 7.4048,-1.9376 7.1316,-1.6367 6.7283,-1.3388 6.3972,-1.0705 5.8757,-0.80779 5.306,-0.57109 4.4041,-0.35349 3.1299,-0.17717 1.4441,-0.067828 h 5.087 l 1.0779,0.064987 2.8656,0.1651 4.3637,0.34391 5.408,0.57004 6.0789,0.81916 6.6201,1.0911 6.9907,1.3721 7.4735,1.6904 7.7848,2.0096 8.1865,2.3641 8.3168,2.6907 9.0544,3.1571 9.2991,3.5544 9.5311,3.967 10.026,4.4682 10.188,4.9087 11.136,5.6052 11.049,6.028 11.375,6.5966 11.832,7.2427 12.324,7.9398 12.659,8.6149 12.687,9.1946 13.199,10.006 13.828,10.920001 13.836,11.591 14.312,12.518 14.302,13.243 15.033,14.4 14.66,14.995 14.863,15.94 14.927,16.843 14.428,17.417 14.506,18.377 14.08,19.03 13.485,19.566 12.276,19.635 11.558,20.032 10.596,20.215 9.386,20.155 7.622,19.553 6.053,19.014 4.313,18.212 2.682,17.393 1.085,16.488 -0.431,15.542 -1.74,14.696 -2.636,14.199 -3.331,13.868 -4.046,13.464 -4.41,13.444 -5.085,13.014 -5.873,12.381 -6.667,11.666 -7.752,10.453 -8.924,8.972 -10.11,7.302 -11.29,5.455 -12.409,3.5 -13.128,2.018 -13.59,0.839 -13.51,0.552 -13.149,0.812 -12.819,1.071 -12.76,0.812 -12.491,1.018 -12.398,0.865 -12.207,0.96 -11.986,1.179 -11.665,1.733 -11.329,2.457 -11.106,2.987 -10.932,3.489 -10.901,3.611 -10.88,3.757 -10.916,3.726 -10.985,3.579 -11.04,3.49 -11.106,3.36 -11.156,3.309 -11.22,3.198 -11.297,3.005 -11.37,2.811 -11.449,2.533 -11.51,2.355 -11.587,1.932 -11.643,1.609 -11.692,1.224 -11.726,0.856 -11.749,0.388"
       fill="#fcff5c"
       fill-opacity="0.70588"
       id="path444" />
    <path
       transform="matrix(0.1411,0,0,0.14106,84.752,9.1561)"
       d="m 0,673.49 -11.754,-0.123 -11.744,-0.491 -11.721,-0.878 -11.691,-1.164 -11.656,-1.427 -11.616,-1.671 -11.581,-1.831 -11.558,-1.891 -11.527,-2.032 -11.495,-2.171 -23.016,-4.183 -11.581,-1.839 -11.692,-1.509 -11.87,-1.031 -12.018,-0.778 -12.145,-0.669 -12.291,-0.548 -12.346,-0.74 -12.293,-1.224 -12.1,-2.026 -11.818,-2.949 -11.521,-3.803 -11.044,-4.958 -10.533,-6.052 -10.023,-7.013 -9.564,-7.769 -9.146,-8.363 -8.664,-9.01 -8.264,-9.445 -8.016,-9.586 -7.449,-10.221 -7.222,-10.27 -6.994,-10.315 -6.792,-10.321 -6.413,-10.573 -6.159,-10.632 -5.867,-10.734 -5.291,-11.177 -5.114,-11.097 -4.568,-11.448 -3.884,-11.913 -3.192,-12.335 -2.422,-12.789 -1.269,-13.57 -0.075,-14.302 1.559,-15.353 3.19,-16.276 4.917,-17.165 6.712,-17.989 8.271,-18.5 9.703,-18.82 10.512,-18.588 11.713,-18.616 12.345,-18.188 12.728,-17.583 13.078,-16.96 13.354,-16.301 13.505,-15.58 13.596,-14.842 13.308,-13.916 13.971,-13.542 13.141,-12.387 13.473,-11.875 13.2,-11.081 12.619,-10.187 12.624,-9.5944 12.195,-8.8423 11.965,-8.208 11.677,-7.5788 11.406,-6.9845 10.999,-6.373 10.687,-5.8241 10.318,-5.2853 9.931,-4.7707 9.5277,-4.2804 9.2064,-3.838 8.931,-3.4286 8.3632,-2.9823 8.1014,-2.6249 7.9089,-2.2965 7.4048,-1.9376 7.1316,-1.6367 6.7283,-1.3388 6.3972,-1.0705 5.8757,-0.80779 5.306,-0.57109 4.4041,-0.35349 3.1299,-0.17717 1.4441,-0.067828 h 5.087 l 1.0779,0.064987 2.8656,0.1651 4.3637,0.34391 5.408,0.57004 6.0789,0.81916 6.6201,1.0911 6.9907,1.3721 7.4735,1.6904 7.7848,2.0096 8.1865,2.3641 8.3168,2.6907 9.0544,3.1571 9.2991,3.5544 9.5311,3.967 10.026,4.4682 10.188,4.9087 11.136,5.6052 11.049,6.028 11.375,6.5966 11.832,7.2427 12.324,7.9398 12.659,8.6149 12.687,9.1946 13.199,10.006 13.828,10.920001 13.836,11.591 14.312,12.518 14.302,13.243 15.033,14.4 14.66,14.995 14.863,15.94 14.927,16.843 14.428,17.417 14.506,18.377 14.08,19.03 13.485,19.566 12.276,19.635 11.558,20.032 10.596,20.215 9.386,20.155 7.622,19.553 6.053,19.014 4.313,18.212 2.682,17.393 1.085,16.488 -0.431,15.542 -1.74,14.696 -2.636,14.199 -3.331,13.868 -4.046,13.464 -4.41,13.444 -5.085,13.014 -5.873,12.381 -6.667,11.666 -7.752,10.453 -8.924,8.972 -10.11,7.302 -11.29,5.455 -12.409,3.5 -13.128,2.018 -13.59,0.839 -13.51,0.552 -13.149,0.812 -12.819,1.071 -12.76,0.812 -12.491,1.018 -12.398,0.865 -12.207,0.96 -11.986,1.179 -11.665,1.733 -11.329,2.457 -11.106,2.987 -10.932,3.489 -10.901,3.611 -10.88,3.757 -10.916,3.726 -10.985,3.579 -11.04,3.49 -11.106,3.36 -11.156,3.309 -11.22,3.198 -11.297,3.005 -11.37,2.811 -11.449,2.533 -11.51,2.355 -11.587,1.932 -11.643,1.609 -11.692,1.224 -11.726,0.856 -11.749,0.388"
       fill="none"
       stroke="#fcff5c"
       stroke-linecap="round"
       stroke-linejoin="round"
       stroke-width="7.5017"
       id="path448" />
  </g>
  <g
     transform="translate(0,-62.627)"
     fill="#848484"
     fill-rule="evenodd"
     font-family="Lato"
     stroke-linejoin="round"
     id="g470">
    <g
       font-size="14.937px"
       stroke-width="1.2448"
       id="g464">
      <text
         transform="matrix(0.28341,0,0,0.28341,23.833,82.59)"
         x="472"
         y="6.5"
         style="font-variant-ligatures:normal;font-variant-caps:normal;font-variant-numeric:normal;font-variant-east-asian:normal"
         xml:space="preserve"
         id="text452">90°</text>
      <text
         transform="matrix(0.28341,0,0,0.28341,145.55,82.59)"
         x="-496"
         y="6.5"
         style="font-variant-ligatures:normal;font-variant-caps:normal;font-variant-numeric:normal;font-variant-east-asian:normal"
         xml:space="preserve"
         id="text454">90°</text>
      <text
         transform="matrix(0.28341,0,0,0.28341,83.593,81.449)"
         x="233.98399"
         y="421.297"
         style="font-variant-ligatures:normal;font-variant-caps:normal;font-variant-numeric:normal;font-variant-east-asian:normal"
         xml:space="preserve"
         id="text456"> 30°</text>
      <text
         transform="matrix(0.28341,0,0,0.28341,41.92,55.913)"
         x="405.297"
         y="250"
         style="font-variant-ligatures:normal;font-variant-caps:normal;font-variant-numeric:normal;font-variant-east-asian:normal"
         xml:space="preserve"
         id="text458"> 60°</text>
      <text
         transform="matrix(0.28341,0,0,0.28341,85.908,81.449)"
         x="-260.98401"
         y="421.297"
         style="font-variant-ligatures:normal;font-variant-caps:normal;font-variant-numeric:normal;font-variant-east-asian:normal"
         xml:space="preserve"
         id="text460">30° </text>
      <text
         transform="matrix(0.28341,0,0,0.28341,127.58,55.913)"
         x="-432.297"
         y="250"
         style="font-variant-ligatures:normal;font-variant-caps:normal;font-variant-numeric:normal;font-variant-east-asian:normal"
         xml:space="preserve"
         id="text462">60° </text>
    </g>
    <text
       transform="matrix(0.28319,0,0,0.28319,-50.867,217.57)"
       x="472"
       y="6.5"
       font-size="14.948px"
       stroke-width="1.6"
       style="font-variant-ligatures:normal;font-variant-caps:normal;font-variant-numeric:normal;font-variant-east-asian:normal"
       xml:space="preserve"
       id="text466">0º</text>
    <text
       transform="matrix(0.28319,0,0,0.28319,-54.958,222.31)"
       x="472"
       y="6.5"
       font-size="14.948px"
       stroke-width="1.6"
       style="font-variant-ligatures:normal;font-variant-caps:normal;font-variant-numeric:normal;font-variant-east-asian:normal"
       xml:space="preserve"
       id="text468">cd.klm</text>
  </g>
  <g
     transform="matrix(0.36334,0,0,0.36334,71.361,-83.071)"
     fill="none"
     fill-rule="evenodd"
     font-family="Lato"
     stroke="#000000"
     stroke-linecap="square"
     stroke-linejoin="bevel"
     stroke-width="0.91678"
     id="g486">
    <g
       stroke-linejoin="round"
       id="g482">
      <g
         transform="matrix(0.72337,0,0,0.72337,-166.61,669.22)"
         fill="#fcff5c"
         fill-opacity="0.68235"
         font-size="16px"
         font-weight="400"
         stroke="#fcff5c"
         stroke-linecap="round"
         stroke-width="1.8336"
         id="g474">
        <rect
           y="6.5"
           width="11.2"
           height="15.2"
           stroke-width="1.8336"
           id="rect472"
           x="0" />
      </g>
      <text
         transform="matrix(0.72337,0,0,0.72337,-166.61,667.7)"
         x="16"
         y="22.5"
         fill="#848484"
         font-size="17.569px"
         stroke="none"
         stroke-linecap="butt"
         stroke-width="0.91678"
         style="font-variant-ligatures:normal;font-variant-caps:normal;font-variant-numeric:normal;font-variant-east-asian:normal"
         xml:space="preserve"
         id="text476">C0-C180</text>
    </g>
  </g>
  <g
     transform="translate(0,10.806)"
     fill="none"
     stroke="#858585"
     id="g530">
    <path
       transform="matrix(0.52917,0,0,0.52917,-68.201,-25.683)"
       d="m 320.33,65.864 a 31.291,31.291 0 0 1 -15.646,27.099 31.291,31.291 0 0 1 -31.292,-10e-7 31.291,31.291 0 0 1 -15.646,-27.099"
       stroke-width="0.15"
       id="path488" />
    <path
       transform="matrix(1.0583,0,0,1.0576,-221.15,-60.49)"
       d="m 320.33,65.864 a 31.291,31.291 0 0 1 -15.646,27.099 31.291,31.291 0 0 1 -31.292,-10e-7 31.291,31.291 0 0 1 -15.646,-27.099"
       stroke-width="0.075027"
       id="path490" />
    <path
       transform="matrix(1.5875,0,0,1.5865,-374.1,-95.32)"
       d="m 320.33,65.864 a 31.291,31.291 0 0 1 -15.646,27.099 31.291,31.291 0 0 1 -31.292,-10e-7 31.291,31.291 0 0 1 -15.646,-27.099"
       stroke-width="0.050016"
       id="path492" />
    <path
       transform="matrix(2.1167,0,0,2.1153,-527.05,-130.15)"
       d="m 320.33,65.864 a 31.291,31.291 0 0 1 -15.646,27.099 31.291,31.291 0 0 1 -31.292,-10e-7 31.291,31.291 0 0 1 -15.646,-27.099"
       stroke-width="0.037512"
       id="path494" />
    <path
       transform="matrix(2.6458,0,0,2.6441,-680,-164.98)"
       d="m 316.1,81.579 c -2.6998,4.6487 -6.5966,8.6031 -11.414,11.384 -9.6817,5.59 -21.61,5.59 -31.292,-10e-7 -4.8457,-2.7976 -8.7602,-6.7827 -11.462,-11.467"
       stroke-width="0.03001"
       id="path496" />
    <path
       transform="matrix(3.1749,0,0,3.1729,-832.93,-199.8)"
       d="m 311.59,87.561 c -2.0089,2.088 -4.324,3.9131 -6.9028,5.4019 -9.6817,5.59 -21.61,5.59 -31.292,-1e-6 -2.5964,-1.499 -4.9254,-3.3389 -6.9438,-5.4447"
       stroke-width="0.025009"
       id="path498" />
    <path
       transform="matrix(3.7041,0,0,3.7017,-985.9,-234.64)"
       d="m 308.37,90.473 c -1.1574,0.90884 -2.3869,1.7421 -3.683,2.4903 -9.6817,5.59 -21.61,5.59 -31.292,-10e-7 -1.3089,-0.75568 -2.5499,-1.598 -3.7174,-2.5174"
       stroke-width="0.021436"
       id="path500" />
    <path
       transform="matrix(4.2243,0,0,4.2215,-1136.5,-268.87)"
       d="m 306.04,92.132 c -0.44425,0.28747 -0.89718,0.5646 -1.3586,0.83096 -9.6817,5.59 -21.61,5.59 -31.292,-10e-7 -0.43229,-0.24957 -0.85718,-0.5086 -1.2744,-0.77673"
       stroke-width="0.018796"
       id="path502" />
    <path
       transform="matrix(0.26469,0,0,0.26469,-0.036694,-0.031725)"
       d="m 320.33,34.764 v 499.07"
       stroke-width="0.29988"
       id="path504" />
    <path
       transform="matrix(0,0.29371,-0.29371,0,168.21,-84.937)"
       d="m 320.33,40.455 v 487.98"
       stroke-width="0.27025"
       id="path506" />
    <g
       stroke-width="0.29988"
       id="g528">
      <path
         transform="matrix(0.26469,0,0,0.26469,-0.036694,-0.031725)"
         d="m 320.33,34.764 129.11,481.86"
         id="path508" />
      <path
         transform="matrix(0.26469,0,0,0.26469,-0.036694,-0.031725)"
         d="m 320.33,34.764 249.34,431.88"
         id="path510" />
      <path
         transform="matrix(0.26469,0,0,0.26469,-0.036694,-0.031725)"
         d="m 320.33,34.764 270.38,270.38"
         id="path512" />
      <path
         transform="matrix(0.26469,0,0,0.26469,-0.036694,-0.031725)"
         d="m 320.33,34.764 270.39,156.06"
         id="path514" />
      <path
         transform="matrix(0.26469,0,0,0.26469,-0.036694,-0.031725)"
         d="m 320.33,34.764 270.39,72.405"
         id="path516" />
      <path
         transform="matrix(0.26469,0,0,0.26469,-0.036694,-0.031725)"
         d="M 320.33,34.764 191.1,517.074"
         id="path518" />
      <path
         transform="matrix(0.26469,0,0,0.26469,-0.036694,-0.031725)"
         d="M 320.33,34.764 70.48,467.524"
         id="path520" />
      <path
         transform="matrix(0.26469,0,0,0.26469,-0.036694,-0.031725)"
         d="M 320.33,34.764 49.25,305.844"
         id="path522" />
      <path
         transform="matrix(0.26469,0,0,0.26469,-0.036694,-0.031725)"
         d="M 320.33,34.764 49.25,191.274"
         id="path524" />
      <path
         transform="matrix(0.26469,0,0,0.26469,-0.036694,-0.031725)"
         d="M 320.33,34.764 49.27,107.391"
         id="path526" />
    </g>
  </g>
  <g
     transform="translate(6.3421,14.512)"
     id="g534">
    <path
       transform="matrix(0.20538,0,0,0.20356,92.426,91.454)"
       d="m -195.16,-435.56 v -55.7 m 245,61.206 v 7 m 10,-12.006 -1e-4,2.5057 m -254.9,-2.9999 254.4,-0.006 m -254.5,-55.7 h 253 m -33.25,62.365 v -1.0999 m -6,1.0999 v -1.0999 m 6,1.0999 h -0.4887 m 0,0 h -5.5113 m -113.5,0 v -1.0999 m -5.9981,1.0999 v -1.0999 m 5.9981,1.0999 h -0.4869 m 0,0 h -5.5112 m -55.002,-1.0999 v 1.0999 m -6.0007,-1.0999 v 1.0999 m 5.5112,-1e-5 h 0.4895 m -6.0007,0 h 5.5112 m 119.99,0 v -1.0999 m -5.9999,1.0999 v -1.0999 m 5.9999,1.0999 h -0.4884 m 0,0 h -5.5115 m -130.35,0.94035 v -2.6001 m 208.2,2.6001 v -2.6001 m 22.4,-5.5054 h 2 m -257,0 h 2.0003 m 47.498,6.0055 v 1.0001 m 142.5,-1.0001 v 1.0001 m -192,-6 v 2.4998 m 85.5,2.5 v 1.0001 m 85.999,0 h 5 m -148,-1.5002 v 0.50006 m 212.6,2.1 h -225.2 m 64.601,-2.1 v 1.0001 m 35.999,-1.0001 v 1.0001 m -20.5,0 h 0.2513 m 49.249,-1.0001 v 1.0001 m 108.5,-62.206 v -1.0001 m -6.9999,62.206 a 0.5,0.5 0 0 0 -0.5,-0.5 m -70,0.49995 v 1.0001 m -36,0 h 5.0001 m 83,-1.5002 h -200 m -12.6,2.6001 v -2.6001 m -12.9,-61.706 a 1,1 0 0 0 -1,1 m 245,68.206 a 0.5,0.5 0 0 0 0.5,0.5 m -151.5,-7.5 v 1.0001 m -95.499,-6.5058 h 1.5002 m 0.9974,-55.7 v -1.0001 m 157.75,63.206 h 0.2501 m 26,-1.0001 v 1.0001 m 68,-62.206 v 55.7 m -244.5,5.0058 a 0.5,0.5 0 0 0 -0.5,0.5 m 44.5,-5e-5 v 1.0001 m 202.5,-62.206 a 3,3 0 0 0 -3,-3 m -184,64.206 v 1.0001 m 177.5,6.5 h 2.054 m -169.05,-6.5 h 5.0006 m -36.002,0 h 5.0006 m 56.999,-1.0001 v 1.0001 m 142.5,-65.206 h -251 m -2.4987,58.706 a 0.5,0.5 0 0 0 -0.5,0.5 m 202.5,6.0001 h 4.9999 m -198,6.5 238,-1e-4 m 2.054,0 a 5,5 0 0 0 3.0689,-1.0526 m -252.62,-8.9474 a 11.333,11.333 0 0 0 4.3771,8.9474 m 5.1229,1.0526 a 0.5,0.5 0 0 0 0.5,-0.5 m 245,-68.206 a 1,1 0 0 0 -1,-1 m -249.62,68.653 a 5,5 0 0 0 3.0689,1.0526 m -7.445,-12.5 v -0.006 m 111.5,6.006 h 5.0006 m 140.5,-6.0058 v 0.006 m -192,4.9996 v 1.0001 m 163.5,-1.0001 v -0.50006 m -200,0.50006 h 200 m -218.5,7.0001 4e-4,-7 m 236.5,7.5001 v -8.0002 m -236,0 h 236 m -246.5,-60.705 v 55.2 m 257,0 v -55.2 m -4.3772,67.653 a 11.333,11.333 0 0 0 4.3771,-8.9474 m -254,-61.706 a 3,3 0 0 0 -3,3 m 2.9987,-1 h 251 m -246.55,69.706 h 2.0531 m 198,-7.5002 v 1.0001 m -4.9999,-1.0001 v 1.0001 m -15.5,0 H -5.15 m -20.5,-1.0001 v 1.0001 m -10.5,-1.0001 v 1.0001 m -20.5,-1.0001 v 1.0001 m -75.499,0 h 4.998 m -59.5,-1.5002 v 8.0002 m 246.5,-12.506 a 0.5,0.5 0 0 0 -0.5,-0.5 m -15.4,5.0056 v 2.6001"
       fill="none"
       stroke="#000000"
       stroke-linecap="round"
       stroke-width="0.647"
       id="path532" />
  </g>
</svg>
