<?xml version="1.0" encoding="UTF-8" standalone="no"?>
<svg
   width="640"
   height="675"
   version="1.1"
   viewBox="0 0 169.33 178.59"
   id="svg103"
   sodipodi:docname="3.svg"
   inkscape:version="1.2.2 (732a01da63, 2022-12-09)"
   xmlns:inkscape="http://www.inkscape.org/namespaces/inkscape"
   xmlns:sodipodi="http://sodipodi.sourceforge.net/DTD/sodipodi-0.dtd"
   xmlns="http://www.w3.org/2000/svg"
   xmlns:svg="http://www.w3.org/2000/svg">
  <sodipodi:namedview
     id="namedview105"
     pagecolor="#505050"
     bordercolor="#ffffff"
     borderopacity="1"
     inkscape:showpageshadow="0"
     inkscape:pageopacity="0"
     inkscape:pagecheckerboard="1"
     inkscape:deskcolor="#505050"
     showgrid="false"
     inkscape:zoom="0.34962963"
     inkscape:cx="320.33898"
     inkscape:cy="337.5"
     inkscape:window-width="1920"
     inkscape:window-height="1009"
     inkscape:window-x="-8"
     inkscape:window-y="-8"
     inkscape:window-maximized="1"
     inkscape:current-layer="svg103" />
  <defs
     id="defs5">
    <clipPath
       id="a">
      <rect
         transform="matrix(.32976 0 0 1.9997 -43.619 41.413)"
         x="49.153"
         y="34.572"
         width="541.69"
         height="82.428"
         fill="#00f"
         fill-rule="evenodd"
         stroke-width=".32582"
         id="rect2" />
    </clipPath>
  </defs>
  <g
     transform="translate(0 -15.417)"
     fill-rule="evenodd"
     id="g15">
    <path
       transform="matrix(.14107 0 0 .14102 84.755 35.304)"
       d="m0 355.27-6.1993-0.112-6.1857-0.499-6.2765 1.424-6.2107-0.394-6.2332-0.153-6.2491-0.132-6.2451-0.314-6.3818 0.546-6.4256 0.504-6.5625 0.978-6.3039-0.737-6.568 0.425-6.3175-0.937-6.5839 0.059-6.6222-0.021-6.685-0.017-7.196 1.437-7.39 1.642-7.452 1.408-8.141 2.919-8.668 3.754-8.828 3.533-9.268 3.981-10.397 5.893-10.397 5.097-11.208 6.045-11.467 5.754-11.634 5.304-11.483 4.299-12.472 5.361-11.958 3.768-12.184 3.511-12.253 3.014-12.502 2.808-13.681 3.925-13.31 2.757-14.033 3.133-13.714 2.105-14.916 3.028-15.706 3.333-14.135 0.852-15.46 1.807-14.95 0.662-14.392-0.452-12.971-2.352-8.948-6.601-6.52-8.953-4.075-11.092-1.389-13.223 0.397-14.375 4.438-17.218 8.604-19.84 11.488-21.184 14.392-22.347 15.75-22.243 15.603-21.062 15.973-20.275 14.769-18.517 14.078-17.191 10.661-14.376 10.834-13.816 11.002-13.267 17.004-15.699 22.167-17.353 29.475-19.7 35.144-20.886 37.968-20.544 36.614-18.38 31.988-15.078 28.024-12.324 21.816-9.0594 17.178-6.6869 13.92-5.0192 9.1164-3.1051 3.3939-1.2241 1.2309-0.5555 1.0749-0.47186 0.9872-0.41206 0.99788-0.37676 0.99324-0.33868 1.0453-0.31028 0.93752-0.25703 0.78438-0.20432 0.70216-0.16748 0.80815-0.15167 0.9431-0.13247 0.96089-0.1002 0.86091-0.06301 0.67218-0.029603 0.35095-0.0061258 0.33617 0.011739 0.59855 0.037247 0.90354 0.079558 0.91535 0.11236 0.96988 0.15045 0.82001 0.16652 0.84405 0.1993 0.72266 0.21059 0.97597 0.28173 1.0395 0.32998 1.0441 0.36962 1.0761 0.41635 1.064 0.45443 1.1074 0.50735 1.1772 0.57095 2.4054 0.9935 7.2702 2.6692 14.495 5.4426 21.729 8.6504 27.384 11.695 33.766 15.394 35.345 17.47 38.167 20.231 34.833 20.335 31.371 20.207 26.491 19.172 20.739 17.391 17.156 16.461 11.222 13.961 7.37 12.327 4.967 11.347 6.415 12.713 7.517 13.974 10.32 16.535 12.772 19.091 15.215 21.873 15.024 22.846 14.683 23.733 11.365 22.15 7.77 20.085 5.124 18.597 0.778 15.321-2.44 12.747-7.411 8.127-10.301 5.16-11.63 3.557-15.105-0.579-14.34-0.26-15.793-2.513-15.261-2.525-14.559-2.284-14.517-2.852-14.25-3.137-12.509-1.317-13.248-2.926-12.986-3.155-13.049-3.894-12.261-3.275-12.041-3.532-12.286-4.627-11.705-4.278-12.228-6.017-12.007-6.433-11.105-5.413-10.851-5.662-10.801-6.403-9.926-5.18-9.464-4.807-8.609-3.261-8.413-3.335-8.245-3.487-7.35-1.255-7.636-2.68-6.9865-0.885-6.9699-1.204-6.9905-1.736-6.7839-1.312-6.4005 0.168-6.3986-0.034-6.2986 0.343-6.4808-1.117-6.2001 0.595-6.3509-0.895-6.212 0.069-6.1246 1.083-6.2227-0.352-6.1421 1.279-6.2071-0.321-6.1922 0.522"
       fill="#fcff5c"
       fill-opacity=".70588"
       id="path7" />
    <path
       transform="matrix(.14107 0 0 .14102 84.755 35.304)"
       d="m0 353.9-6.2501 4.172-6.3931 3.987-6.5228 3.653-6.5907 2.63-6.71 2.758-6.7651 2.169-6.8203 1.799-6.8746 1.529-7.038 2.009-7.0707 1.575-7.6154 3.868-7.5122 2.501-8.0299 4.122-8.6088 5.604-9.0133 6.098-9.444 6.562-9.899 6.982-10.086 6.481-9.975 5.159-9.885 4.086-9.501 2.381-9.735 2.437-8.682-0.573-8.483-1.265-7.142-4.331-8.313-1.858-7.531-3.543-7.437-3.74-8.607-1.644-7.564-3.641-7.854-3.201-7.032-4.601-7.115-4.463-4.198-8.794-3.772-9.105-3.578-9.055-1.444-11.584-1.783-10.677 1.35-14.138 1.822-14.058 3.176-14.981 5.179-16.507 6.597-17.222 9.562-19.434 13.259-22.113 17.622-25.113 22.185-27.93 26.705-30.342 29.284-30.729 22.084-22.76 18.929-18.79 14.219-13.934 12.614-11.86 12.064-10.717 10.363-8.8423 8.2736-6.862 5.8826-4.8641 3.9789-3.3624 2.3792-2.1913 1.9638-1.8238 1.4935-1.4588 1.4322-1.3466 0.9235-1.0131 0.5567-0.7844 0.9478-0.9342 0.8395-0.83814 1.104-0.90841 1.2103-0.89971 1.2488-0.85994 1.0253-0.72383 0.5746-0.52397 0.073-0.33478-0.3118-0.21081-0.8294-0.07098-0.4502-0.20068 0.5876-0.47321 0.4845-0.4249 0.537-0.41579 0.2735-0.34283 0.871-0.43635 1.7479-0.54224 1.979-0.51088 1.5423-0.38584 1.0574-0.27949 0.81621-0.22053 0.99616-0.20399 1.1029-0.17435 0.91658-0.12906 0.7144-0.093393 0.55515-0.068405h8.3655l0.52566 0.096481 0.85982 0.12657 1.0029 0.16425 1.2906 0.21971 1.6635 0.29799 1.8299 0.37455 2.008 0.4618 2.5743 0.61362 2.672 0.72219 2.2334 0.74241 1.6241 0.70675 0.7472 0.58207 0.6624 0.59302 0.2799 0.52566-0.4798 0.33652-0.9196 0.19673-0.8069 0.2009-0.2084 0.3692-0.1313 0.39263 0.5489 0.64037 1.8167 1.1545 1.7149 1.1928 0.913 0.9296 1.1688 1.0895 1.3508 1.2326 1.2765 1.2641 1.606 1.4987 1.7821 1.6757 2.4238 2.1256 3.2331 2.7199 3.4493 3.0192 3.5658 3.2777 4.0155 3.7678 3.7878 3.8424 3.692 4.0008 3.3784 4.0024 3.1854 4.0791 2.9915 4.1492 2.9563 4.3413 2.4212 4.1214 2.6621 4.5392 2.2099 4.3661 1.8551 4.2532 1.7191 4.3284 1.3951 4.2139 1.1807 4.1912 0.9195 4.1073 0.7228 4.0783 0.5963 4.1197 0.2525 3.9 0.3724 4.223-0.1904 3.702-0.0206 4.089-0.5499 3.555-0.4465 3.857-1.0295 3.174-1.0745 3.237-1.1386 3.274-1.5891 2.672-1.3647 3.163-1.5996 2.888-1.5182 3.171-1.1936 3.968-0.9437 4.719-0.7087 5.539-0.0351 7.457 1.4349 11.528 2.7413 15.802 2.6931 17.204 1.5845 15.895 0.0718 13.162-0.9782 11.338-1.2429 11.724-2.0152 10.404-3.0208 7.925-3.4969 7.007-3.821 6.527-4.2158 5.594-4.6584 4.156-4.6141 5.05-4.5941 6.106-4.75 6.329-5.1129 4.981-5.2837 4.796-5.42 4.93-5.6396 4.009-5.7706 3.913-5.922 3.186-6.0298 2.967-6.1296 2.73"
       fill="#87c2dc"
       fill-opacity=".70588"
       id="path9" />
    <path
       transform="matrix(.14107 0 0 .14102 84.755 35.304)"
       d="m0 355.27-6.1993-0.112-6.1857-0.499-6.2765 1.424-6.2107-0.394-6.2332-0.153-6.2491-0.132-6.2451-0.314-6.3818 0.546-6.4256 0.504-6.5625 0.978-6.3039-0.737-6.568 0.425-6.3175-0.937-6.5839 0.059-6.6222-0.021-6.685-0.017-7.196 1.437-7.39 1.642-7.452 1.408-8.141 2.919-8.668 3.754-8.828 3.533-9.268 3.981-10.397 5.893-10.397 5.097-11.208 6.045-11.467 5.754-11.634 5.304-11.483 4.299-12.472 5.361-11.958 3.768-12.184 3.511-12.253 3.014-12.502 2.808-13.681 3.925-13.31 2.757-14.033 3.133-13.714 2.105-14.916 3.028-15.706 3.333-14.135 0.852-15.46 1.807-14.95 0.662-14.392-0.452-12.971-2.352-8.948-6.601-6.52-8.953-4.075-11.092-1.389-13.223 0.397-14.375 4.438-17.218 8.604-19.84 11.488-21.184 14.392-22.347 15.75-22.243 15.603-21.062 15.973-20.275 14.769-18.517 14.078-17.191 10.661-14.376 10.834-13.816 11.002-13.267 17.004-15.699 22.167-17.353 29.475-19.7 35.144-20.886 37.968-20.544 36.614-18.38 31.988-15.078 28.024-12.324 21.816-9.0594 17.178-6.6869 13.92-5.0192 9.1164-3.1051 3.3939-1.2241 1.2309-0.5555 1.0749-0.47186 0.9872-0.41206 0.99788-0.37676 0.99324-0.33868 1.0453-0.31028 0.93752-0.25703 0.78438-0.20432 0.70216-0.16748 0.80815-0.15167 0.9431-0.13247 0.96089-0.1002 0.86091-0.06301 0.67218-0.029603 0.35095-0.0061258 0.33617 0.011739 0.59855 0.037247 0.90354 0.079558 0.91535 0.11236 0.96988 0.15045 0.82001 0.16652 0.84405 0.1993 0.72266 0.21059 0.97597 0.28173 1.0395 0.32998 1.0441 0.36962 1.0761 0.41635 1.064 0.45443 1.1074 0.50735 1.1772 0.57095 2.4054 0.9935 7.2702 2.6692 14.495 5.4426 21.729 8.6504 27.384 11.695 33.766 15.394 35.345 17.47 38.167 20.231 34.833 20.335 31.371 20.207 26.491 19.172 20.739 17.391 17.156 16.461 11.222 13.961 7.37 12.327 4.967 11.347 6.415 12.713 7.517 13.974 10.32 16.535 12.772 19.091 15.215 21.873 15.024 22.846 14.683 23.733 11.365 22.15 7.77 20.085 5.124 18.597 0.778 15.321-2.44 12.747-7.411 8.127-10.301 5.16-11.63 3.557-15.105-0.579-14.34-0.26-15.793-2.513-15.261-2.525-14.559-2.284-14.517-2.852-14.25-3.137-12.509-1.317-13.248-2.926-12.986-3.155-13.049-3.894-12.261-3.275-12.041-3.532-12.286-4.627-11.705-4.278-12.228-6.017-12.007-6.433-11.105-5.413-10.851-5.662-10.801-6.403-9.926-5.18-9.464-4.807-8.609-3.261-8.413-3.335-8.245-3.487-7.35-1.255-7.636-2.68-6.9865-0.885-6.9699-1.204-6.9905-1.736-6.7839-1.312-6.4005 0.168-6.3986-0.034-6.2986 0.343-6.4808-1.117-6.2001 0.595-6.3509-0.895-6.212 0.069-6.1246 1.083-6.2227-0.352-6.1421 1.279-6.2071-0.321-6.1922 0.522"
       fill="none"
       stroke="#fcff5c"
       stroke-linecap="round"
       stroke-linejoin="round"
       stroke-width="7.5035"
       id="path11" />
    <path
       transform="matrix(.14107 0 0 .14102 84.755 35.304)"
       d="m0 353.9-6.2501 4.172-6.3931 3.987-6.5228 3.653-6.5907 2.63-6.71 2.758-6.7651 2.169-6.8203 1.799-6.8746 1.529-7.038 2.009-7.0707 1.575-7.6154 3.868-7.5122 2.501-8.0299 4.122-8.6088 5.604-9.0133 6.098-9.444 6.562-9.899 6.982-10.086 6.481-9.975 5.159-9.885 4.086-9.501 2.381-9.735 2.437-8.682-0.573-8.483-1.265-7.142-4.331-8.313-1.858-7.531-3.543-7.437-3.74-8.607-1.644-7.564-3.641-7.854-3.201-7.032-4.601-7.115-4.463-4.198-8.794-3.772-9.105-3.578-9.055-1.444-11.584-1.783-10.677 1.35-14.138 1.822-14.058 3.176-14.981 5.179-16.507 6.597-17.222 9.562-19.434 13.259-22.113 17.622-25.113 22.185-27.93 26.705-30.342 29.284-30.729 22.084-22.76 18.929-18.79 14.219-13.934 12.614-11.86 12.064-10.717 10.363-8.8423 8.2736-6.862 5.8826-4.8641 3.9789-3.3624 2.3792-2.1913 1.9638-1.8238 1.4935-1.4588 1.4322-1.3466 0.9235-1.0131 0.5567-0.7844 0.9478-0.9342 0.8395-0.83814 1.104-0.90841 1.2103-0.89971 1.2488-0.85994 1.0253-0.72383 0.5746-0.52397 0.073-0.33478-0.3118-0.21081-0.8294-0.07098-0.4502-0.20068 0.5876-0.47321 0.4845-0.4249 0.537-0.41579 0.2735-0.34283 0.871-0.43635 1.7479-0.54224 1.979-0.51088 1.5423-0.38584 1.0574-0.27949 0.81621-0.22053 0.99616-0.20399 1.1029-0.17435 0.91658-0.12906 0.7144-0.093393 0.55515-0.068405h8.3655l0.52566 0.096481 0.85982 0.12657 1.0029 0.16425 1.2906 0.21971 1.6635 0.29799 1.8299 0.37455 2.008 0.4618 2.5743 0.61362 2.672 0.72219 2.2334 0.74241 1.6241 0.70675 0.7472 0.58207 0.6624 0.59302 0.2799 0.52566-0.4798 0.33652-0.9196 0.19673-0.8069 0.2009-0.2084 0.3692-0.1313 0.39263 0.5489 0.64037 1.8167 1.1545 1.7149 1.1928 0.913 0.9296 1.1688 1.0895 1.3508 1.2326 1.2765 1.2641 1.606 1.4987 1.7821 1.6757 2.4238 2.1256 3.2331 2.7199 3.4493 3.0192 3.5658 3.2777 4.0155 3.7678 3.7878 3.8424 3.692 4.0008 3.3784 4.0024 3.1854 4.0791 2.9915 4.1492 2.9563 4.3413 2.4212 4.1214 2.6621 4.5392 2.2099 4.3661 1.8551 4.2532 1.7191 4.3284 1.3951 4.2139 1.1807 4.1912 0.9195 4.1073 0.7228 4.0783 0.5963 4.1197 0.2525 3.9 0.3724 4.223-0.1904 3.702-0.0206 4.089-0.5499 3.555-0.4465 3.857-1.0295 3.174-1.0745 3.237-1.1386 3.274-1.5891 2.672-1.3647 3.163-1.5996 2.888-1.5182 3.171-1.1936 3.968-0.9437 4.719-0.7087 5.539-0.0351 7.457 1.4349 11.528 2.7413 15.802 2.6931 17.204 1.5845 15.895 0.0718 13.162-0.9782 11.338-1.2429 11.724-2.0152 10.404-3.0208 7.925-3.4969 7.007-3.821 6.527-4.2158 5.594-4.6584 4.156-4.6141 5.05-4.5941 6.106-4.75 6.329-5.1129 4.981-5.2837 4.796-5.42 4.93-5.6396 4.009-5.7706 3.913-5.922 3.186-6.0298 2.967-6.1296 2.73"
       fill="none"
       stroke="#87c2dc"
       stroke-linecap="round"
       stroke-linejoin="round"
       stroke-width="7.5035"
       id="path13" />
  </g>
  <g
     transform="translate(0 -62.689)"
     fill="#848484"
     fill-rule="evenodd"
     font-family="Lato"
     stroke-linejoin="round"
     id="g35">
    <g
       font-size="14.937px"
       stroke-width="1.2448"
       id="g29">
      <text
         transform="matrix(.28341 0 0 .28341 23.833 82.59)"
         x="472"
         y="6.5"
         style="font-variant-caps:normal;font-variant-east-asian:normal;font-variant-ligatures:normal;font-variant-numeric:normal"
         xml:space="preserve"
         id="text17">90°</text>
      <text
         transform="matrix(.28341 0 0 .28341 145.55 82.59)"
         x="-496"
         y="6.5"
         style="font-variant-caps:normal;font-variant-east-asian:normal;font-variant-ligatures:normal;font-variant-numeric:normal"
         xml:space="preserve"
         id="text19">90°</text>
      <text
         transform="matrix(.28341 0 0 .28341 83.593 81.449)"
         x="233.98399"
         y="421.297"
         style="font-variant-caps:normal;font-variant-east-asian:normal;font-variant-ligatures:normal;font-variant-numeric:normal"
         xml:space="preserve"
         id="text21"> 30°</text>
      <text
         transform="matrix(.28341 0 0 .28341 41.92 55.913)"
         x="405.297"
         y="250"
         style="font-variant-caps:normal;font-variant-east-asian:normal;font-variant-ligatures:normal;font-variant-numeric:normal"
         xml:space="preserve"
         id="text23"> 60°</text>
      <text
         transform="matrix(.28341 0 0 .28341 85.908 81.449)"
         x="-260.98401"
         y="421.297"
         style="font-variant-caps:normal;font-variant-east-asian:normal;font-variant-ligatures:normal;font-variant-numeric:normal"
         xml:space="preserve"
         id="text25">30° </text>
      <text
         transform="matrix(.28341 0 0 .28341 127.58 55.913)"
         x="-432.297"
         y="250"
         style="font-variant-caps:normal;font-variant-east-asian:normal;font-variant-ligatures:normal;font-variant-numeric:normal"
         xml:space="preserve"
         id="text27">60° </text>
    </g>
    <text
       transform="matrix(.28319 0 0 .28319 -50.867 217.57)"
       x="472"
       y="6.5"
       font-size="14.948px"
       stroke-width="1.6"
       style="font-variant-caps:normal;font-variant-east-asian:normal;font-variant-ligatures:normal;font-variant-numeric:normal"
       xml:space="preserve"
       id="text31">0º</text>
    <text
       transform="matrix(.28319 0 0 .28319 -54.958 222.31)"
       x="472"
       y="6.5"
       font-size="14.948px"
       stroke-width="1.6"
       style="font-variant-caps:normal;font-variant-east-asian:normal;font-variant-ligatures:normal;font-variant-numeric:normal"
       xml:space="preserve"
       id="text33">cd.klm</text>
  </g>
  <g
     transform="matrix(.36334 0 0 .36334 71.361 -83.133)"
     fill="none"
     fill-rule="evenodd"
     font-family="Lato"
     stroke="#000"
     stroke-linecap="square"
     stroke-linejoin="bevel"
     stroke-width=".91678"
     id="g97">
    <g
       stroke-linejoin="round"
       id="g93">
      <g
         transform="matrix(.72337 0 0 .72337 -166.61 669.22)"
         fill="#fcff5c"
         fill-opacity=".68235"
         font-size="16px"
         font-weight="400"
         stroke="#fcff5c"
         stroke-linecap="round"
         stroke-width="1.8336"
         id="g85">
        <rect
           y="6.5"
           width="11.2"
           height="15.2"
           stroke-width="1.8336"
           id="rect83" />
      </g>
      <text
         transform="matrix(.72337 0 0 .72337 -166.61 667.7)"
         x="16"
         y="22.5"
         fill="#848484"
         font-size="17.569px"
         stroke="none"
         stroke-linecap="butt"
         stroke-width=".91678"
         style="font-variant-caps:normal;font-variant-east-asian:normal;font-variant-ligatures:normal;font-variant-numeric:normal"
         xml:space="preserve"
         id="text87">C0-C180</text>
      <g
         transform="matrix(.72337 0 0 .72337 -166.61 666.46)"
         fill="#87c2dc"
         fill-opacity=".68235"
         font-size="16px"
         font-weight="400"
         stroke="#87c2dc"
         stroke-dasharray="8, 4"
         stroke-linecap="round"
         stroke-width="1.8336"
         id="g91">
        <rect
           y="38.5"
           width="11.2"
           height="15.2"
           stroke-dasharray="none"
           stroke-width="1.8336"
           id="rect89" />
      </g>
    </g>
    <text
       transform="matrix(.72337 0 0 .72337 -166.61 664.94)"
       x="16"
       y="54.5"
       fill="#848484"
       font-size="17.569px"
       stroke="none"
       stroke-width=".86402"
       style="font-variant-caps:normal;font-variant-east-asian:normal;font-variant-ligatures:normal;font-variant-numeric:normal"
       xml:space="preserve"
       id="text95">C90-C270</text>
  </g>
  <g
     transform="translate(6.3421 14.446)"
     stroke="#000"
     stroke-width=".26458"
     id="g101">
    <path
       transform="matrix(.20538 0 0 .20356 92.426 91.454)"
       d="m-195.16-435.56v-55.7m245 61.206v7m10-12.006-1e-4 2.5057m-254.9-2.9999 254.4-6e-3m-254.5-55.7h253m-33.25 62.365v-1.0999m-6 1.0999v-1.0999m6 1.0999h-0.4887m0 0h-5.5113m-113.5 0v-1.0999m-5.9981 1.0999v-1.0999m5.9981 1.0999h-0.4869m0 0h-5.5112m-55.002-1.0999v1.0999m-6.0007-1.0999v1.0999m5.5112-1e-5h0.4895m-6.0007 0h5.5112m119.99 0v-1.0999m-5.9999 1.0999v-1.0999m5.9999 1.0999h-0.4884m0 0h-5.5115m-130.35 0.94035v-2.6001m208.2 2.6001v-2.6001m22.4-5.5054h2m-257 0h2.0003m47.498 6.0055v1.0001m142.5-1.0001v1.0001m-192-6v2.4998m85.5 2.5v1.0001m85.999 0h5m-148-1.5002v0.50006m212.6 2.1h-225.2m64.601-2.1v1.0001m35.999-1.0001v1.0001m-20.5 0h0.2513m49.249-1.0001v1.0001m108.5-62.206v-1.0001m-6.9999 62.206a0.5 0.5 0 0 0-0.5-0.5m-70 0.49995v1.0001m-36 0h5.0001m83-1.5002h-200m-12.6 2.6001v-2.6001m-12.9-61.706a1 1 0 0 0-1 1m245 68.206a0.5 0.5 0 0 0 0.5 0.5m-151.5-7.5v1.0001m-95.499-6.5058h1.5002m0.9974-55.7v-1.0001m157.75 63.206h0.2501m26-1.0001v1.0001m68-62.206v55.7m-244.5 5.0058a0.5 0.5 0 0 0-0.5 0.5m44.5-5e-5v1.0001m202.5-62.206a3 3 0 0 0-3-3m-184 64.206v1.0001m177.5 6.5h2.054m-169.05-6.5h5.0006m-36.002 0h5.0006m56.999-1.0001v1.0001m142.5-65.206h-251m-2.4987 58.706a0.5 0.5 0 0 0-0.5 0.5m202.5 6.0001h4.9999m-198 6.5 238-1e-4m2.054 0a5 5 0 0 0 3.0689-1.0526m-252.62-8.9474a11.333 11.333 0 0 0 4.3771 8.9474m5.1229 1.0526a0.5 0.5 0 0 0 0.5-0.5m245-68.206a1 1 0 0 0-1-1m-249.62 68.653a5 5 0 0 0 3.0689 1.0526m-7.445-12.5v-6e-3m111.5 6.006h5.0006m140.5-6.0058v6e-3m-192 4.9996v1.0001m163.5-1.0001v-0.50006m-200 0.50006h200m-218.5 7.0001 4e-4 -7m236.5 7.5001v-8.0002m-236 0h236m-246.5-60.705v55.2m257 0v-55.2m-4.3772 67.653a11.333 11.333 0 0 0 4.3771-8.9474m-254-61.706a3 3 0 0 0-3 3m2.9987-1h251m-246.55 69.706h2.0531m198-7.5002v1.0001m-4.9999-1.0001v1.0001m-15.5 0h5.0001m-20.5-1.0001v1.0001m-10.5-1.0001v1.0001m-20.5-1.0001v1.0001m-75.499 0h4.998m-59.5-1.5002v8.0002m246.5-12.506a0.5 0.5 0 0 0-0.5-0.5m-15.4 5.0056v2.6001"
       fill="none"
       stroke="#000"
       stroke-linecap="round"
       stroke-width="1.294"
       id="path99" />
  </g>
  <g
     transform="translate(0,10.806)"
     fill="none"
     stroke="#858585"
     id="g318">
    <path
       transform="matrix(0.52917,0,0,0.52917,-68.201,-25.683)"
       d="m 320.33,65.864 a 31.291,31.291 0 0 1 -15.646,27.099 31.291,31.291 0 0 1 -31.292,-10e-7 31.291,31.291 0 0 1 -15.646,-27.099"
       stroke-width="0.15"
       id="path276" />
    <path
       transform="matrix(1.0583,0,0,1.0576,-221.15,-60.49)"
       d="m 320.33,65.864 a 31.291,31.291 0 0 1 -15.646,27.099 31.291,31.291 0 0 1 -31.292,-10e-7 31.291,31.291 0 0 1 -15.646,-27.099"
       stroke-width="0.075027"
       id="path278" />
    <path
       transform="matrix(1.5875,0,0,1.5865,-374.1,-95.32)"
       d="m 320.33,65.864 a 31.291,31.291 0 0 1 -15.646,27.099 31.291,31.291 0 0 1 -31.292,-10e-7 31.291,31.291 0 0 1 -15.646,-27.099"
       stroke-width="0.050016"
       id="path280" />
    <path
       transform="matrix(2.1167,0,0,2.1153,-527.05,-130.15)"
       d="m 320.33,65.864 a 31.291,31.291 0 0 1 -15.646,27.099 31.291,31.291 0 0 1 -31.292,-10e-7 31.291,31.291 0 0 1 -15.646,-27.099"
       stroke-width="0.037512"
       id="path282" />
    <path
       transform="matrix(2.6458,0,0,2.6441,-680,-164.98)"
       d="m 316.1,81.579 c -2.6998,4.6487 -6.5966,8.6031 -11.414,11.384 -9.6817,5.59 -21.61,5.59 -31.292,-10e-7 -4.8457,-2.7976 -8.7602,-6.7827 -11.462,-11.467"
       stroke-width="0.03001"
       id="path284" />
    <path
       transform="matrix(3.1749,0,0,3.1729,-832.93,-199.8)"
       d="m 311.59,87.561 c -2.0089,2.088 -4.324,3.9131 -6.9028,5.4019 -9.6817,5.59 -21.61,5.59 -31.292,-1e-6 -2.5964,-1.499 -4.9254,-3.3389 -6.9438,-5.4447"
       stroke-width="0.025009"
       id="path286" />
    <path
       transform="matrix(3.7041,0,0,3.7017,-985.9,-234.64)"
       d="m 308.37,90.473 c -1.1574,0.90884 -2.3869,1.7421 -3.683,2.4903 -9.6817,5.59 -21.61,5.59 -31.292,-10e-7 -1.3089,-0.75568 -2.5499,-1.598 -3.7174,-2.5174"
       stroke-width="0.021436"
       id="path288" />
    <path
       transform="matrix(4.2243,0,0,4.2215,-1136.5,-268.87)"
       d="m 306.04,92.132 c -0.44425,0.28747 -0.89718,0.5646 -1.3586,0.83096 -9.6817,5.59 -21.61,5.59 -31.292,-10e-7 -0.43229,-0.24957 -0.85718,-0.5086 -1.2744,-0.77673"
       stroke-width="0.018796"
       id="path290" />
    <path
       transform="matrix(0.26469,0,0,0.26469,-0.036694,-0.031725)"
       d="m 320.33,34.764 v 499.07"
       stroke-width="0.29988"
       id="path292" />
    <path
       transform="matrix(0,0.29371,-0.29371,0,168.21,-84.937)"
       d="m 320.33,40.455 v 487.98"
       stroke-width="0.27025"
       id="path294" />
    <g
       stroke-width="0.29988"
       id="g316">
      <path
         transform="matrix(0.26469,0,0,0.26469,-0.036694,-0.031725)"
         d="m 320.33,34.764 129.11,481.86"
         id="path296" />
      <path
         transform="matrix(0.26469,0,0,0.26469,-0.036694,-0.031725)"
         d="m 320.33,34.764 249.34,431.88"
         id="path298" />
      <path
         transform="matrix(0.26469,0,0,0.26469,-0.036694,-0.031725)"
         d="m 320.33,34.764 270.38,270.38"
         id="path300" />
      <path
         transform="matrix(0.26469,0,0,0.26469,-0.036694,-0.031725)"
         d="m 320.33,34.764 270.39,156.06"
         id="path302" />
      <path
         transform="matrix(0.26469,0,0,0.26469,-0.036694,-0.031725)"
         d="m 320.33,34.764 270.39,72.405"
         id="path304" />
      <path
         transform="matrix(0.26469,0,0,0.26469,-0.036694,-0.031725)"
         d="M 320.33,34.764 191.1,517.074"
         id="path306" />
      <path
         transform="matrix(0.26469,0,0,0.26469,-0.036694,-0.031725)"
         d="M 320.33,34.764 70.48,467.524"
         id="path308" />
      <path
         transform="matrix(0.26469,0,0,0.26469,-0.036694,-0.031725)"
         d="M 320.33,34.764 49.25,305.844"
         id="path310" />
      <path
         transform="matrix(0.26469,0,0,0.26469,-0.036694,-0.031725)"
         d="M 320.33,34.764 49.25,191.274"
         id="path312" />
      <path
         transform="matrix(0.26469,0,0,0.26469,-0.036694,-0.031725)"
         d="M 320.33,34.764 49.27,107.391"
         id="path314" />
    </g>
  </g>
</svg>
