<?xml version="1.0" encoding="UTF-8" standalone="no"?>
<svg
   width="640"
   height="645"
   version="1.1"
   viewBox="0 0 169.33 170.65267"
   id="svg922"
   sodipodi:docname="5.svg"
   inkscape:version="1.2.2 (732a01da63, 2022-12-09)"
   xmlns:inkscape="http://www.inkscape.org/namespaces/inkscape"
   xmlns:sodipodi="http://sodipodi.sourceforge.net/DTD/sodipodi-0.dtd"
   xmlns="http://www.w3.org/2000/svg"
   xmlns:svg="http://www.w3.org/2000/svg">
  <defs
     id="defs926" />
  <sodipodi:namedview
     id="namedview924"
     pagecolor="#505050"
     bordercolor="#ffffff"
     borderopacity="1"
     inkscape:showpageshadow="0"
     inkscape:pageopacity="0"
     inkscape:pagecheckerboard="1"
     inkscape:deskcolor="#505050"
     showgrid="false"
     inkscape:zoom="0.49445096"
     inkscape:cx="730.10273"
     inkscape:cy="378.19726"
     inkscape:window-width="1920"
     inkscape:window-height="1009"
     inkscape:window-x="-8"
     inkscape:window-y="-8"
     inkscape:window-maximized="1"
     inkscape:current-layer="svg922" />
  <g
     transform="matrix(0.40003,0,0,0.40015,72.971,76.158)"
     fill-rule="evenodd"
     stroke-width="2.4994"
     id="g836">
    <path
       transform="matrix(0.35278,0,0,0.35278,29.47,-140.48)"
       d="m 0,935.95 -30.234,-70.146 -9.8215,-292.97 1.8306,-209.14 4.475,-123.54 5.6318,-80.678 4.3527,-47.659 2.6512,-27.123 1.4366,-16.061 1.6199,-13.048 2.1677,-11.919 2.8964,-11.497 2.5722,-8.7534 1.7696,-5.6681 1.1553,-3.6401 0.90777,-2.6869 0.73885,-2.0503 0.30325,-1.1386 0.54265,-1.3359 0.50234,-1.1256 0.69232,-1.2221 0.40241,-0.75604 0.23817,-0.50246 0.18009,-0.39524 -0.084,-0.11952 0.13941,-0.30536 0.30118,-0.40491 0.70473,-0.65612 0.20564,-0.23902 0.13304,-0.16862 0.12511,-0.14774 0.09706,-0.11842 0.04845,-0.083742 0.07169,-0.087955 V 0.511482 L -1.22459,0.45363 -1.06502,0.353947 -0.9002,0.266013 -0.84936,0.21964 l 0.052907,-0.042492 0.09518,-0.045652 0.11716,-0.041575 0.098218,-0.031036 0.079517,-0.022666 0.12142,-0.018479 0.060945,-0.0099643 h 0.44879 l 0.060945,0.0099643 0.12142,0.018479 0.079517,0.022666 0.098218,0.031036 0.11716,0.041575 0.09518,0.045652 0.052907,0.042492 0.05084,0.046373 0.16482,0.087934 0.15957,0.099683 0.02175,0.057852 v 0.051371 l 0.07169,0.087955 0.04845,0.083742 0.09706,0.11842 0.12511,0.14774 0.13304,0.16862 0.20564,0.23902 0.70473,0.65612 0.30118,0.40491 0.13941,0.30536 -0.084,0.11952 0.18009,0.39524 0.23817,0.50246 0.40241,0.75604 0.69232,1.2221 0.50234,1.1256 0.54265,1.3359 0.30325,1.1386 0.73885,2.0503 0.90777,2.6869 1.1553,3.6401 1.7696,5.6681 2.5722,8.7534 2.8964,11.497 2.1677,11.919 1.6199,13.048 1.4366,16.061 2.6512,27.123 4.3527,47.659 5.6318,80.678 4.475,123.54 1.8306,209.14 -9.8215,292.97 -30.234,70.146"
       fill="#fcff5c"
       fill-opacity="0.70588"
       id="path830"
       style="display:inline" />
    <path
       transform="matrix(0.35278,0,0,0.35278,29.47,-140.48)"
       d="m 0,935.95 -30.234,-70.146 -9.8215,-292.97 1.8306,-209.14 4.475,-123.54 5.6318,-80.678 4.3527,-47.659 2.6512,-27.123 1.4366,-16.061 1.6199,-13.048 2.1677,-11.919 2.8964,-11.497 2.5722,-8.7534 1.7696,-5.6681 1.1553,-3.6401 0.90777,-2.6869 0.73885,-2.0503 0.30325,-1.1386 0.54265,-1.3359 0.50234,-1.1256 0.69232,-1.2221 0.40241,-0.75604 0.23817,-0.50246 0.18009,-0.39524 -0.084,-0.11952 0.13941,-0.30536 0.30118,-0.40491 0.70473,-0.65612 0.20564,-0.23902 0.13304,-0.16862 0.12511,-0.14774 0.09706,-0.11842 0.04845,-0.083742 0.07169,-0.087955 V 0.511482 L -1.22459,0.45363 -1.06502,0.353947 -0.9002,0.266013 -0.84936,0.21964 l 0.052907,-0.042492 0.09518,-0.045652 0.11716,-0.041575 0.098218,-0.031036 0.079517,-0.022666 0.12142,-0.018479 0.060945,-0.0099643 h 0.44879 l 0.060945,0.0099643 0.12142,0.018479 0.079517,0.022666 0.098218,0.031036 0.11716,0.041575 0.09518,0.045652 0.052907,0.042492 0.05084,0.046373 0.16482,0.087934 0.15957,0.099683 0.02175,0.057852 v 0.051371 l 0.07169,0.087955 0.04845,0.083742 0.09706,0.11842 0.12511,0.14774 0.13304,0.16862 0.20564,0.23902 0.70473,0.65612 0.30118,0.40491 0.13941,0.30536 -0.084,0.11952 0.18009,0.39524 0.23817,0.50246 0.40241,0.75604 0.69232,1.2221 0.50234,1.1256 0.54265,1.3359 0.30325,1.1386 0.73885,2.0503 0.90777,2.6869 1.1553,3.6401 1.7696,5.6681 2.5722,8.7534 2.8964,11.497 2.1677,11.919 1.6199,13.048 1.4366,16.061 2.6512,27.123 4.3527,47.659 5.6318,80.678 4.475,123.54 1.8306,209.14 -9.8215,292.97 -30.234,70.146"
       fill="none"
       stroke="#fcff5c"
       stroke-linecap="round"
       stroke-linejoin="round"
       stroke-width="7.4983"
       id="path834"
       style="display:inline" />
  </g>
  <g
     transform="translate(0,-62.625)"
     fill="#848484"
     fill-rule="evenodd"
     font-family="Lato"
     stroke-linejoin="round"
     id="g856">
    <g
       font-size="14.937px"
       stroke-width="1.2448"
       id="g850">
      <text
         transform="matrix(0.28341,0,0,0.28341,23.833,82.59)"
         x="472"
         y="6.5"
         style="font-variant-ligatures:normal;font-variant-caps:normal;font-variant-numeric:normal;font-variant-east-asian:normal"
         xml:space="preserve"
         id="text838">90°</text>
      <text
         transform="matrix(0.28341,0,0,0.28341,145.55,82.59)"
         x="-496"
         y="6.5"
         style="font-variant-ligatures:normal;font-variant-caps:normal;font-variant-numeric:normal;font-variant-east-asian:normal"
         xml:space="preserve"
         id="text840">90°</text>
      <text
         transform="matrix(0.28341,0,0,0.28341,83.593,81.449)"
         x="233.98399"
         y="421.297"
         style="font-variant-ligatures:normal;font-variant-caps:normal;font-variant-numeric:normal;font-variant-east-asian:normal"
         xml:space="preserve"
         id="text842"> 30°</text>
      <text
         transform="matrix(0.28341,0,0,0.28341,41.92,55.913)"
         x="405.297"
         y="250"
         style="font-variant-ligatures:normal;font-variant-caps:normal;font-variant-numeric:normal;font-variant-east-asian:normal"
         xml:space="preserve"
         id="text844"> 60°</text>
      <text
         transform="matrix(0.28341,0,0,0.28341,85.908,81.449)"
         x="-260.98401"
         y="421.297"
         style="font-variant-ligatures:normal;font-variant-caps:normal;font-variant-numeric:normal;font-variant-east-asian:normal"
         xml:space="preserve"
         id="text846">30° </text>
      <text
         transform="matrix(0.28341,0,0,0.28341,127.58,55.913)"
         x="-432.297"
         y="250"
         style="font-variant-ligatures:normal;font-variant-caps:normal;font-variant-numeric:normal;font-variant-east-asian:normal"
         xml:space="preserve"
         id="text848">60° </text>
    </g>
    <text
       transform="matrix(0.28319,0,0,0.28319,-50.867,217.57)"
       x="472"
       y="6.5"
       font-size="14.948px"
       stroke-width="1.6"
       style="font-variant-ligatures:normal;font-variant-caps:normal;font-variant-numeric:normal;font-variant-east-asian:normal"
       xml:space="preserve"
       id="text852">0º</text>
    <text
       transform="matrix(0.28319,0,0,0.28319,-54.958,222.31)"
       x="472"
       y="6.5"
       font-size="14.948px"
       stroke-width="1.6"
       style="font-variant-ligatures:normal;font-variant-caps:normal;font-variant-numeric:normal;font-variant-east-asian:normal"
       xml:space="preserve"
       id="text854">cd.klm</text>
  </g>
  <g
     transform="matrix(0.36334,0,0,0.36334,71.361,-83.069)"
     fill="none"
     fill-rule="evenodd"
     font-family="Lato"
     stroke="#000000"
     stroke-linecap="square"
     stroke-linejoin="bevel"
     stroke-width="0.91678"
     id="g872">
    <g
       stroke-linejoin="round"
       id="g868">
      <g
         transform="matrix(0.72337,0,0,0.72337,-166.61,669.22)"
         fill="#fcff5c"
         fill-opacity="0.68235"
         font-size="16px"
         font-weight="400"
         stroke="#fcff5c"
         stroke-linecap="round"
         stroke-width="1.8336"
         id="g860">
        <rect
           y="6.5"
           width="11.2"
           height="15.2"
           stroke-width="1.8336"
           id="rect858"
           x="0" />
      </g>
      <text
         transform="matrix(0.72337,0,0,0.72337,-166.61,667.7)"
         x="16"
         y="22.5"
         fill="#848484"
         font-size="17.569px"
         stroke="none"
         stroke-linecap="butt"
         stroke-width="0.91678"
         style="font-variant-ligatures:normal;font-variant-caps:normal;font-variant-numeric:normal;font-variant-east-asian:normal"
         xml:space="preserve"
         id="text862">C0-C180</text>
    </g>
  </g>
  <g
     transform="translate(-0.01077,10.806)"
     fill="none"
     stroke="#858585"
     id="g916">
    <path
       transform="matrix(0.52917,0,0,0.52917,-68.201,-25.683)"
       d="m 320.33,65.864 a 31.291,31.291 0 0 1 -15.646,27.099 31.291,31.291 0 0 1 -31.292,-10e-7 31.291,31.291 0 0 1 -15.646,-27.099"
       stroke-width="0.15"
       id="path874" />
    <path
       transform="matrix(1.0583,0,0,1.0576,-221.15,-60.49)"
       d="m 320.33,65.864 a 31.291,31.291 0 0 1 -15.646,27.099 31.291,31.291 0 0 1 -31.292,-10e-7 31.291,31.291 0 0 1 -15.646,-27.099"
       stroke-width="0.075027"
       id="path876" />
    <path
       transform="matrix(1.5875,0,0,1.5865,-374.1,-95.32)"
       d="m 320.33,65.864 a 31.291,31.291 0 0 1 -15.646,27.099 31.291,31.291 0 0 1 -31.292,-10e-7 31.291,31.291 0 0 1 -15.646,-27.099"
       stroke-width="0.050016"
       id="path878" />
    <path
       transform="matrix(2.1167,0,0,2.1153,-527.05,-130.15)"
       d="m 320.33,65.864 a 31.291,31.291 0 0 1 -15.646,27.099 31.291,31.291 0 0 1 -31.292,-10e-7 31.291,31.291 0 0 1 -15.646,-27.099"
       stroke-width="0.037512"
       id="path880" />
    <path
       transform="matrix(2.6458,0,0,2.6441,-680,-164.98)"
       d="m 316.1,81.579 c -2.6998,4.6487 -6.5966,8.6031 -11.414,11.384 -9.6817,5.59 -21.61,5.59 -31.292,-10e-7 -4.8457,-2.7976 -8.7602,-6.7827 -11.462,-11.467"
       stroke-width="0.03001"
       id="path882" />
    <path
       transform="matrix(3.1749,0,0,3.1729,-832.93,-199.8)"
       d="m 311.59,87.561 c -2.0089,2.088 -4.324,3.9131 -6.9028,5.4019 -9.6817,5.59 -21.61,5.59 -31.292,-1e-6 -2.5964,-1.499 -4.9254,-3.3389 -6.9438,-5.4447"
       stroke-width="0.025009"
       id="path884" />
    <path
       transform="matrix(3.7041,0,0,3.7017,-985.9,-234.64)"
       d="m 308.37,90.473 c -1.1574,0.90884 -2.3869,1.7421 -3.683,2.4903 -9.6817,5.59 -21.61,5.59 -31.292,-10e-7 -1.3089,-0.75568 -2.5499,-1.598 -3.7174,-2.5174"
       stroke-width="0.021436"
       id="path886" />
    <path
       transform="matrix(4.2243,0,0,4.2215,-1136.5,-268.87)"
       d="m 306.04,92.132 c -0.44425,0.28747 -0.89718,0.5646 -1.3586,0.83096 -9.6817,5.59 -21.61,5.59 -31.292,-10e-7 -0.43229,-0.24957 -0.85718,-0.5086 -1.2744,-0.77673"
       stroke-width="0.018796"
       id="path888" />
    <path
       transform="matrix(0.26469,0,0,0.26469,-0.036694,-0.031725)"
       d="m 320.33,34.764 v 499.07"
       stroke-width="0.29988"
       id="path890" />
    <path
       transform="matrix(0,0.29371,-0.29371,0,168.21,-84.937)"
       d="m 320.33,40.455 v 487.98"
       stroke-width="0.27025"
       id="path892" />
    <g
       stroke-width="0.29988"
       id="g914">
      <path
         transform="matrix(0.26469,0,0,0.26469,-0.036694,-0.031725)"
         d="m 320.33,34.764 129.11,481.86"
         id="path894" />
      <path
         transform="matrix(0.26469,0,0,0.26469,-0.036694,-0.031725)"
         d="m 320.33,34.764 249.34,431.88"
         id="path896" />
      <path
         transform="matrix(0.26469,0,0,0.26469,-0.036694,-0.031725)"
         d="m 320.33,34.764 270.38,270.38"
         id="path898" />
      <path
         transform="matrix(0.26469,0,0,0.26469,-0.036694,-0.031725)"
         d="m 320.33,34.764 270.39,156.06"
         id="path900" />
      <path
         transform="matrix(0.26469,0,0,0.26469,-0.036694,-0.031725)"
         d="m 320.33,34.764 270.39,72.405"
         id="path902" />
      <path
         transform="matrix(0.26469,0,0,0.26469,-0.036694,-0.031725)"
         d="M 320.33,34.764 191.1,517.074"
         id="path904" />
      <path
         transform="matrix(0.26469,0,0,0.26469,-0.036694,-0.031725)"
         d="M 320.33,34.764 70.48,467.524"
         id="path906" />
      <path
         transform="matrix(0.26469,0,0,0.26469,-0.036694,-0.031725)"
         d="M 320.33,34.764 49.25,305.844"
         id="path908" />
      <path
         transform="matrix(0.26469,0,0,0.26469,-0.036694,-0.031725)"
         d="M 320.33,34.764 49.25,191.274"
         id="path910" />
      <path
         transform="matrix(0.26469,0,0,0.26469,-0.036694,-0.031725)"
         d="M 320.33,34.764 49.27,107.391"
         id="path912" />
    </g>
  </g>
  <g
     transform="translate(6.3313,14.512)"
     id="g920">
    <path
       transform="matrix(0.20538,0,0,0.20356,92.426,91.454)"
       d="m -195.16,-435.56 v -55.7 m 245,61.206 v 7 m 10,-12.006 -1e-4,2.5057 m -254.9,-2.9999 254.4,-0.006 m -254.5,-55.7 h 253 m -33.25,62.365 v -1.0999 m -6,1.0999 v -1.0999 m 6,1.0999 h -0.4887 m 0,0 h -5.5113 m -113.5,0 v -1.0999 m -5.9981,1.0999 v -1.0999 m 5.9981,1.0999 h -0.4869 m 0,0 h -5.5112 m -55.002,-1.0999 v 1.0999 m -6.0007,-1.0999 v 1.0999 m 5.5112,-1e-5 h 0.4895 m -6.0007,0 h 5.5112 m 119.99,0 v -1.0999 m -5.9999,1.0999 v -1.0999 m 5.9999,1.0999 h -0.4884 m 0,0 h -5.5115 m -130.35,0.94035 v -2.6001 m 208.2,2.6001 v -2.6001 m 22.4,-5.5054 h 2 m -257,0 h 2.0003 m 47.498,6.0055 v 1.0001 m 142.5,-1.0001 v 1.0001 m -192,-6 v 2.4998 m 85.5,2.5 v 1.0001 m 85.999,0 h 5 m -148,-1.5002 v 0.50006 m 212.6,2.1 h -225.2 m 64.601,-2.1 v 1.0001 m 35.999,-1.0001 v 1.0001 m -20.5,0 h 0.2513 m 49.249,-1.0001 v 1.0001 m 108.5,-62.206 v -1.0001 m -6.9999,62.206 a 0.5,0.5 0 0 0 -0.5,-0.5 m -70,0.49995 v 1.0001 m -36,0 h 5.0001 m 83,-1.5002 h -200 m -12.6,2.6001 v -2.6001 m -12.9,-61.706 a 1,1 0 0 0 -1,1 m 245,68.206 a 0.5,0.5 0 0 0 0.5,0.5 m -151.5,-7.5 v 1.0001 m -95.499,-6.5058 h 1.5002 m 0.9974,-55.7 v -1.0001 m 157.75,63.206 h 0.2501 m 26,-1.0001 v 1.0001 m 68,-62.206 v 55.7 m -244.5,5.0058 a 0.5,0.5 0 0 0 -0.5,0.5 m 44.5,-5e-5 v 1.0001 m 202.5,-62.206 a 3,3 0 0 0 -3,-3 m -184,64.206 v 1.0001 m 177.5,6.5 h 2.054 m -169.05,-6.5 h 5.0006 m -36.002,0 h 5.0006 m 56.999,-1.0001 v 1.0001 m 142.5,-65.206 h -251 m -2.4987,58.706 a 0.5,0.5 0 0 0 -0.5,0.5 m 202.5,6.0001 h 4.9999 m -198,6.5 238,-1e-4 m 2.054,0 a 5,5 0 0 0 3.0689,-1.0526 m -252.62,-8.9474 a 11.333,11.333 0 0 0 4.3771,8.9474 m 5.1229,1.0526 a 0.5,0.5 0 0 0 0.5,-0.5 m 245,-68.206 a 1,1 0 0 0 -1,-1 m -249.62,68.653 a 5,5 0 0 0 3.0689,1.0526 m -7.445,-12.5 v -0.006 m 111.5,6.006 h 5.0006 m 140.5,-6.0058 v 0.006 m -192,4.9996 v 1.0001 m 163.5,-1.0001 v -0.50006 m -200,0.50006 h 200 m -218.5,7.0001 4e-4,-7 m 236.5,7.5001 v -8.0002 m -236,0 h 236 m -246.5,-60.705 v 55.2 m 257,0 v -55.2 m -4.3772,67.653 a 11.333,11.333 0 0 0 4.3771,-8.9474 m -254,-61.706 a 3,3 0 0 0 -3,3 m 2.9987,-1 h 251 m -246.55,69.706 h 2.0531 m 198,-7.5002 v 1.0001 m -4.9999,-1.0001 v 1.0001 m -15.5,0 H -5.15 m -20.5,-1.0001 v 1.0001 m -10.5,-1.0001 v 1.0001 m -20.5,-1.0001 v 1.0001 m -75.499,0 h 4.998 m -59.5,-1.5002 v 8.0002 m 246.5,-12.506 a 0.5,0.5 0 0 0 -0.5,-0.5 m -15.4,5.0056 v 2.6001"
       fill="none"
       stroke="#000000"
       stroke-linecap="round"
       stroke-width="0.647"
       id="path918" />
  </g>
</svg>
