<?xml version="1.0" encoding="UTF-8" standalone="no"?>
<svg
   width="640"
   height="645"
   version="1.1"
   viewBox="0 0 169.33 170.65267"
   id="svg1137"
   sodipodi:docname="6.svg"
   inkscape:version="1.2.2 (732a01da63, 2022-12-09)"
   xmlns:inkscape="http://www.inkscape.org/namespaces/inkscape"
   xmlns:sodipodi="http://sodipodi.sourceforge.net/DTD/sodipodi-0.dtd"
   xmlns="http://www.w3.org/2000/svg"
   xmlns:svg="http://www.w3.org/2000/svg">
  <defs
     id="defs1141" />
  <sodipodi:namedview
     id="namedview1139"
     pagecolor="#505050"
     bordercolor="#ffffff"
     borderopacity="1"
     inkscape:showpageshadow="0"
     inkscape:pageopacity="0"
     inkscape:pagecheckerboard="1"
     inkscape:deskcolor="#505050"
     showgrid="false"
     inkscape:zoom="1.3985185"
     inkscape:cx="337.5"
     inkscape:cy="564.16843"
     inkscape:window-width="1920"
     inkscape:window-height="1009"
     inkscape:window-x="-8"
     inkscape:window-y="-8"
     inkscape:window-maximized="1"
     inkscape:current-layer="g1129" />
  <g
     transform="matrix(0.7731,0,0,0.7731,106.36,-60.261)"
     fill-rule="evenodd"
     stroke-width="1.2935"
     id="g1053">
    <path
       transform="matrix(0.36453,0,0,0.36453,-27.968,103.99)"
       d="m 0,451.28 -7.8753,-0.1 -7.8675,-0.362 -7.8499,-0.64 -7.8248,-0.885 -7.7901,-1.145 -7.7484,-1.388 -7.691,-1.693 -7.6332,-1.917 -7.5585,-2.203 -7.4791,-2.453 -7.3849,-2.733 -7.2937,-2.949 -7.1711,-3.267 -7.0625,-3.477 -6.931,-3.742 -6.795,-3.988 -6.657,-4.201 -6.51,-4.425 -6.343,-4.672 -6.156,-4.943 -6.038,-5.006 -5.803,-5.354 -5.626,-5.521 -5.449,-5.67 -5.263,-5.826 -4.973,-6.175 -4.812,-6.234 -4.62,-6.344 -4.318,-6.641 -4.114,-6.736 -3.873,-6.88 -3.62,-7.03 -3.35,-7.184 -3.102,-7.291 -2.795,-7.467 -2.526,-7.569 -2.243,-7.675 -2.013,-7.699 -1.615,-7.923 -1.427,-7.867 -1.088,-7.986 -0.669,-8.174 -0.432,-8.14 -0.25,-8.044 0.269,-8.286 0.601,-8.313 1.107,-8.489 1.413,-8.455 2.075,-8.719 2.537,-8.775 2.981,-8.794 3.526,-8.873 3.919,-8.808 4.222,-8.665 4.46,-8.468 4.963,-8.45 4.92,-8.054 5.432,-8.023 5.892,-7.939 5.896,-7.5728 6.403,-7.4994 7.148,-7.5299 7.538,-7.3433 7.435,-6.9027 7.345,-6.4867 7.112,-6.0239 7.235,-5.737 7.221,-5.3958 7.121,-5.0321 6.806,-4.6032 7.2712,-4.4691 7.3792,-4.1985 7.3309,-3.8803 7.408,-3.6067 7.7941,-3.4168 7.4352,-3.0247 7.2609,-2.6998 6.1762,-2.1952 5.8381,-1.8984 5.7975,-1.6753 6.5058,-1.5754 6.0397,-1.2747 4.5267,-0.87235 3.3402,-0.58623 3.4488,-0.47718 2.1542,-0.26499 1.522,-0.1561 1.136,-0.089249 0.70111,-0.041919 0.45225,-0.017424 h 1.092 l 0.45225,0.017424 0.70111,0.041919 1.136,0.089249 1.522,0.1561 2.1542,0.26499 3.4488,0.47718 3.3402,0.58623 4.5267,0.87235 6.0397,1.2747 6.5058,1.5754 5.7975,1.6753 5.8381,1.8984 6.1762,2.1952 7.2609,2.6998 7.4352,3.0247 7.7941,3.4168 7.408,3.6067 7.3309,3.8803 7.3792,4.1985 7.2712,4.4691 6.806,4.6032 7.121,5.0321 7.221,5.3958 7.235,5.737 7.112,6.0239 7.345,6.4867 7.435,6.9027 7.538,7.3433 7.148,7.5299 6.403,7.4994 5.896,7.5728 5.892,7.939 5.432,8.023 4.92,8.054 4.963,8.45 4.46,8.468 4.222,8.665 3.919,8.808 3.526,8.873 2.981,8.794 2.537,8.775 2.075,8.719 1.413,8.455 1.107,8.489 0.601,8.313 0.269,8.286 -0.25,8.044 -0.432,8.14 -0.669,8.174 -1.088,7.986 -1.427,7.867 -1.615,7.923 -2.013,7.699 -2.243,7.675 -2.526,7.569 -2.795,7.467 -3.102,7.291 -3.35,7.184 -3.62,7.03 -3.873,6.88 -4.114,6.736 -4.318,6.641 -4.62,6.344 -4.812,6.234 -4.973,6.175 -5.263,5.826 -5.449,5.67 -5.626,5.521 -5.803,5.354 -6.038,5.006 -6.156,4.943 -6.343,4.672 -6.51,4.425 -6.657,4.201 -6.795,3.988 -6.931,3.742 -7.0625,3.477 -7.1711,3.267 -7.2937,2.949 -7.3849,2.733 -7.4791,2.453 -7.5585,2.203 -7.6332,1.917 -7.691,1.693 -7.7484,1.388 -7.7901,1.145 -7.8248,0.885 -7.8499,0.64 -7.8675,0.362 -7.8753,0.1"
       fill="#fcff5c"
       fill-opacity="0.70588"
       id="path1047" />
    <path
       transform="matrix(0.36453,0,0,0.36453,-27.968,103.99)"
       d="m 0,451.28 -7.8753,-0.1 -7.8675,-0.362 -7.8499,-0.64 -7.8248,-0.885 -7.7901,-1.145 -7.7484,-1.388 -7.691,-1.693 -7.6332,-1.917 -7.5585,-2.203 -7.4791,-2.453 -7.3849,-2.733 -7.2937,-2.949 -7.1711,-3.267 -7.0625,-3.477 -6.931,-3.742 -6.795,-3.988 -6.657,-4.201 -6.51,-4.425 -6.343,-4.672 -6.156,-4.943 -6.038,-5.006 -5.803,-5.354 -5.626,-5.521 -5.449,-5.67 -5.263,-5.826 -4.973,-6.175 -4.812,-6.234 -4.62,-6.344 -4.318,-6.641 -4.114,-6.736 -3.873,-6.88 -3.62,-7.03 -3.35,-7.184 -3.102,-7.291 -2.795,-7.467 -2.526,-7.569 -2.243,-7.675 -2.013,-7.699 -1.615,-7.923 -1.427,-7.867 -1.088,-7.986 -0.669,-8.174 -0.432,-8.14 -0.25,-8.044 0.269,-8.286 0.601,-8.313 1.107,-8.489 1.413,-8.455 2.075,-8.719 2.537,-8.775 2.981,-8.794 3.526,-8.873 3.919,-8.808 4.222,-8.665 4.46,-8.468 4.963,-8.45 4.92,-8.054 5.432,-8.023 5.892,-7.939 5.896,-7.5728 6.403,-7.4994 7.148,-7.5299 7.538,-7.3433 7.435,-6.9027 7.345,-6.4867 7.112,-6.0239 7.235,-5.737 7.221,-5.3958 7.121,-5.0321 6.806,-4.6032 7.2712,-4.4691 7.3792,-4.1985 7.3309,-3.8803 7.408,-3.6067 7.7941,-3.4168 7.4352,-3.0247 7.2609,-2.6998 6.1762,-2.1952 5.8381,-1.8984 5.7975,-1.6753 6.5058,-1.5754 6.0397,-1.2747 4.5267,-0.87235 3.3402,-0.58623 3.4488,-0.47718 2.1542,-0.26499 1.522,-0.1561 1.136,-0.089249 0.70111,-0.041919 0.45225,-0.017424 h 1.092 l 0.45225,0.017424 0.70111,0.041919 1.136,0.089249 1.522,0.1561 2.1542,0.26499 3.4488,0.47718 3.3402,0.58623 4.5267,0.87235 6.0397,1.2747 6.5058,1.5754 5.7975,1.6753 5.8381,1.8984 6.1762,2.1952 7.2609,2.6998 7.4352,3.0247 7.7941,3.4168 7.408,3.6067 7.3309,3.8803 7.3792,4.1985 7.2712,4.4691 6.806,4.6032 7.121,5.0321 7.221,5.3958 7.235,5.737 7.112,6.0239 7.345,6.4867 7.435,6.9027 7.538,7.3433 7.148,7.5299 6.403,7.4994 5.896,7.5728 5.892,7.939 5.432,8.023 4.92,8.054 4.963,8.45 4.46,8.468 4.222,8.665 3.919,8.808 3.526,8.873 2.981,8.794 2.537,8.775 2.075,8.719 1.413,8.455 1.107,8.489 0.601,8.313 0.269,8.286 -0.25,8.044 -0.432,8.14 -0.669,8.174 -1.088,7.986 -1.427,7.867 -1.615,7.923 -2.013,7.699 -2.243,7.675 -2.526,7.569 -2.795,7.467 -3.102,7.291 -3.35,7.184 -3.62,7.03 -3.873,6.88 -4.114,6.736 -4.318,6.641 -4.62,6.344 -4.812,6.234 -4.973,6.175 -5.263,5.826 -5.449,5.67 -5.626,5.521 -5.803,5.354 -6.038,5.006 -6.156,4.943 -6.343,4.672 -6.51,4.425 -6.657,4.201 -6.795,3.988 -6.931,3.742 -7.0625,3.477 -7.1711,3.267 -7.2937,2.949 -7.3849,2.733 -7.4791,2.453 -7.5585,2.203 -7.6332,1.917 -7.691,1.693 -7.7484,1.388 -7.7901,1.145 -7.8248,0.885 -7.8499,0.64 -7.8675,0.362 -7.8753,0.1"
       fill="none"
       stroke="#fcff5c"
       stroke-linecap="round"
       stroke-linejoin="round"
       stroke-width="3.7554"
       id="path1051"
       style="display:inline" />
  </g>
  <g
     transform="translate(0,-62.619)"
     fill="#848484"
     fill-rule="evenodd"
     font-family="Lato"
     stroke-linejoin="round"
     id="g1073">
    <g
       font-size="14.937px"
       stroke-width="1.2448"
       id="g1067">
      <text
         transform="matrix(0.28341,0,0,0.28341,23.833,82.59)"
         x="472"
         y="6.5"
         style="font-variant-ligatures:normal;font-variant-caps:normal;font-variant-numeric:normal;font-variant-east-asian:normal"
         xml:space="preserve"
         id="text1055">90°</text>
      <text
         transform="matrix(0.28341,0,0,0.28341,145.55,82.59)"
         x="-496"
         y="6.5"
         style="font-variant-ligatures:normal;font-variant-caps:normal;font-variant-numeric:normal;font-variant-east-asian:normal"
         xml:space="preserve"
         id="text1057">90°</text>
      <text
         transform="matrix(0.28341,0,0,0.28341,83.593,81.449)"
         x="233.98399"
         y="421.297"
         style="font-variant-ligatures:normal;font-variant-caps:normal;font-variant-numeric:normal;font-variant-east-asian:normal"
         xml:space="preserve"
         id="text1059"> 30°</text>
      <text
         transform="matrix(0.28341,0,0,0.28341,41.92,55.913)"
         x="405.297"
         y="250"
         style="font-variant-ligatures:normal;font-variant-caps:normal;font-variant-numeric:normal;font-variant-east-asian:normal"
         xml:space="preserve"
         id="text1061"> 60°</text>
      <text
         transform="matrix(0.28341,0,0,0.28341,85.908,81.449)"
         x="-260.98401"
         y="421.297"
         style="font-variant-ligatures:normal;font-variant-caps:normal;font-variant-numeric:normal;font-variant-east-asian:normal"
         xml:space="preserve"
         id="text1063">30° </text>
      <text
         transform="matrix(0.28341,0,0,0.28341,127.58,55.913)"
         x="-432.297"
         y="250"
         style="font-variant-ligatures:normal;font-variant-caps:normal;font-variant-numeric:normal;font-variant-east-asian:normal"
         xml:space="preserve"
         id="text1065">60° </text>
    </g>
    <text
       transform="matrix(0.28319,0,0,0.28319,-50.867,217.57)"
       x="472"
       y="6.5"
       font-size="14.948px"
       stroke-width="1.6"
       style="font-variant-ligatures:normal;font-variant-caps:normal;font-variant-numeric:normal;font-variant-east-asian:normal"
       xml:space="preserve"
       id="text1069">0º</text>
    <text
       transform="matrix(0.28319,0,0,0.28319,-54.958,222.31)"
       x="472"
       y="6.5"
       font-size="14.948px"
       stroke-width="1.6"
       style="font-variant-ligatures:normal;font-variant-caps:normal;font-variant-numeric:normal;font-variant-east-asian:normal"
       xml:space="preserve"
       id="text1071">cd.klm</text>
  </g>
  <g
     fill="none"
     id="g1135">
    <g
       transform="translate(0,10.806)"
       stroke="#858585"
       id="g1117">
      <path
         transform="matrix(0.52917,0,0,0.52917,-68.201,-25.683)"
         d="m 320.33,65.864 a 31.291,31.291 0 0 1 -15.646,27.099 31.291,31.291 0 0 1 -31.292,-10e-7 31.291,31.291 0 0 1 -15.646,-27.099"
         stroke-width="0.15"
         id="path1075" />
      <path
         transform="matrix(1.0583,0,0,1.0576,-221.15,-60.49)"
         d="m 320.33,65.864 a 31.291,31.291 0 0 1 -15.646,27.099 31.291,31.291 0 0 1 -31.292,-10e-7 31.291,31.291 0 0 1 -15.646,-27.099"
         stroke-width="0.075027"
         id="path1077" />
      <path
         transform="matrix(1.5875,0,0,1.5865,-374.1,-95.32)"
         d="m 320.33,65.864 a 31.291,31.291 0 0 1 -15.646,27.099 31.291,31.291 0 0 1 -31.292,-10e-7 31.291,31.291 0 0 1 -15.646,-27.099"
         stroke-width="0.050016"
         id="path1079" />
      <path
         transform="matrix(2.1167,0,0,2.1153,-527.05,-130.15)"
         d="m 320.33,65.864 a 31.291,31.291 0 0 1 -15.646,27.099 31.291,31.291 0 0 1 -31.292,-10e-7 31.291,31.291 0 0 1 -15.646,-27.099"
         stroke-width="0.037512"
         id="path1081" />
      <path
         transform="matrix(2.6458,0,0,2.6441,-680,-164.98)"
         d="m 316.1,81.579 c -2.6998,4.6487 -6.5966,8.6031 -11.414,11.384 -9.6817,5.59 -21.61,5.59 -31.292,-10e-7 -4.8457,-2.7976 -8.7602,-6.7827 -11.462,-11.467"
         stroke-width="0.03001"
         id="path1083" />
      <path
         transform="matrix(3.1749,0,0,3.1729,-832.93,-199.8)"
         d="m 311.59,87.561 c -2.0089,2.088 -4.324,3.9131 -6.9028,5.4019 -9.6817,5.59 -21.61,5.59 -31.292,-1e-6 -2.5964,-1.499 -4.9254,-3.3389 -6.9438,-5.4447"
         stroke-width="0.025009"
         id="path1085" />
      <path
         transform="matrix(3.7041,0,0,3.7017,-985.9,-234.64)"
         d="m 308.37,90.473 c -1.1574,0.90884 -2.3869,1.7421 -3.683,2.4903 -9.6817,5.59 -21.61,5.59 -31.292,-10e-7 -1.3089,-0.75568 -2.5499,-1.598 -3.7174,-2.5174"
         stroke-width="0.021436"
         id="path1087" />
      <path
         transform="matrix(4.2243,0,0,4.2215,-1136.5,-268.87)"
         d="m 306.04,92.132 c -0.44425,0.28747 -0.89718,0.5646 -1.3586,0.83096 -9.6817,5.59 -21.61,5.59 -31.292,-10e-7 -0.43229,-0.24957 -0.85718,-0.5086 -1.2744,-0.77673"
         stroke-width="0.018796"
         id="path1089" />
      <path
         transform="matrix(0.26469,0,0,0.26469,-0.036694,-0.031725)"
         d="m 320.33,34.764 v 499.07"
         stroke-width="0.29988"
         id="path1091" />
      <path
         transform="matrix(0,0.29371,-0.29371,0,168.21,-84.937)"
         d="m 320.33,40.455 v 487.98"
         stroke-width="0.27025"
         id="path1093" />
      <g
         stroke-width="0.29988"
         id="g1115">
        <path
           transform="matrix(0.26469,0,0,0.26469,-0.036694,-0.031725)"
           d="m 320.33,34.764 129.11,481.86"
           id="path1095" />
        <path
           transform="matrix(0.26469,0,0,0.26469,-0.036694,-0.031725)"
           d="m 320.33,34.764 249.34,431.88"
           id="path1097" />
        <path
           transform="matrix(0.26469,0,0,0.26469,-0.036694,-0.031725)"
           d="m 320.33,34.764 270.38,270.38"
           id="path1099" />
        <path
           transform="matrix(0.26469,0,0,0.26469,-0.036694,-0.031725)"
           d="m 320.33,34.764 270.39,156.06"
           id="path1101" />
        <path
           transform="matrix(0.26469,0,0,0.26469,-0.036694,-0.031725)"
           d="m 320.33,34.764 270.39,72.405"
           id="path1103" />
        <path
           transform="matrix(0.26469,0,0,0.26469,-0.036694,-0.031725)"
           d="M 320.33,34.764 191.1,517.074"
           id="path1105" />
        <path
           transform="matrix(0.26469,0,0,0.26469,-0.036694,-0.031725)"
           d="M 320.33,34.764 70.48,467.524"
           id="path1107" />
        <path
           transform="matrix(0.26469,0,0,0.26469,-0.036694,-0.031725)"
           d="M 320.33,34.764 49.25,305.844"
           id="path1109" />
        <path
           transform="matrix(0.26469,0,0,0.26469,-0.036694,-0.031725)"
           d="M 320.33,34.764 49.25,191.274"
           id="path1111" />
        <path
           transform="matrix(0.26469,0,0,0.26469,-0.036694,-0.031725)"
           d="M 320.33,34.764 49.27,107.391"
           id="path1113" />
      </g>
    </g>
    <g
       transform="matrix(0.36334,0,0,0.36334,71.361,-83.063)"
       fill-rule="evenodd"
       stroke="#000000"
       stroke-linecap="square"
       stroke-linejoin="bevel"
       stroke-width="0.91678"
       id="g1129">
      <g
         stroke-linejoin="round"
         id="g1125">
        <rect
           transform="matrix(0.72337,0,0,0.72337,-166.61,669.22)"
           y="6.5"
           width="11.2"
           height="15.2"
           fill="#fcff5c"
           fill-opacity="0.68235"
           stroke="#fcff5c"
           stroke-linecap="round"
           stroke-width="1.8336"
           id="rect1119"
           x="0" />
        <text
           transform="matrix(0.72337,0,0,0.72337,-166.61,667.7)"
           x="16"
           y="22.5"
           fill="#848484"
           font-family="Lato"
           font-size="17.569px"
           stroke="none"
           stroke-linecap="butt"
           stroke-width="0.91678"
           style="font-variant-ligatures:normal;font-variant-caps:normal;font-variant-numeric:normal;font-variant-east-asian:normal"
           xml:space="preserve"
           id="text1121">C0-C180</text>
      </g>
    </g>
    <g
       transform="translate(6.3421,14.512)"
       stroke="#000000"
       stroke-linecap="round"
       id="g1133">
      <path
         transform="matrix(0.20538,0,0,0.20356,92.426,91.454)"
         d="m -195.16,-435.56 v -55.7 m 245,61.213 v 6.9999 m 10,-12 -1e-4,2.5056 m -254.9,-3.005 254.4,-0.006 m -254.51,-55.682 h 253 m -33.223,62.366 v -1.0999 m -6,1.0999 v -1.0999 m 6,1.0999 h -0.4887 m -3e-4,0 h -5.5113 m -113.53,0 v -1.0999 m -6.002,1.0999 v -1.0999 m 6.002,1.0999 h -0.4869 m -0.0031,0 h -5.5112 m -55.002,-1.1 v 1.0999 m -6,-1.0999 v 1.0999 m 5.51,1e-4 h 0.4895 m -5.9995,0 h 5.5112 m 119.99,0 v -1.0999 m -6,1.0999 v -1.0999 m 6,1.0999 h -0.4884 m -6e-4,0 h -5.5115 m -130.35,0.91904 v -2.6001 m 208.2,2.6001 v -2.6001 m 22.4,-5.5099 h 2 m -257,0 h 2.0003 m 47.5,6.01 v 1.0001 m 142.5,-1.0001 v 1.0001 m -192,-6.0001 v 2.4998 m 85.5,2.5002 v 1.0001 m 86.002,-1e-4 h 5 m -148,-1.5 v 0.50006 m 212.6,2.0999 h -225.2 m 64.598,-2.1 v 1.0001 m 36.002,-1.0001 v 1.0001 m -20.502,-1e-4 h 0.2513 m 49.251,-1 v 1.0001 m 108.5,-62.21 v -1.0001 m -7,62.21 a 0.5,0.5 0 0 0 -0.5,-0.5 m -70,0.5 v 1.0001 m -36,-1e-4 h 5.0001 m 83,-1.5 h -200 m -12.602,2.6 v -2.6001 m -12.9,-61.71 a 1,1 0 0 0 -1,1 m 245,68.21 a 0.5,0.5 0 0 0 0.5,0.5 m -151.5,-7.5 v 1.0001 m -95.5,-6.5101 h 1.5002 m 0.9998,-55.7 v -1.0001 m 157.75,63.21 h 0.2501 m 26,-1 v 1.0001 m 68,-62.21 v 55.7 m -244.5,5.01 a 0.5,0.5 0 0 0 -0.5,0.5 m 44.5,0 v 1.0001 m 202.5,-62.21 a 3,3 0 0 0 -3,-3 m -184,64.21 v 1.0001 m 177.5,6.4999 h 2.054 m -169.06,-6.5 h 5.0006 m -36.001,0 h 5.0006 m 57,-1 v 1.0001 m 142.5,-65.21 h -251 m -2.502,58.71 a 0.5,0.5 0 0 0 -0.5,0.5 m 202.5,6 h 4.9999 m -198,6.5 238,-1e-4 m 2.056,1e-4 a 5,5 0 0 0 3.0689,-1.0526 m -252.62,-8.9474 a 11.333,11.333 0 0 0 4.3771,8.9474 m 5.1229,1.0526 a 0.5,0.5 0 0 0 0.5,-0.5 m 245,-68.21 a 1,1 0 0 0 -1,-1 m -249.62,68.66 a 5,5 0 0 0 3.0689,1.0526 m -7.4489,-12.503 v -0.006 m 111.5,6.006 h 5.0006 m 140.5,-6.01 v 0.006 m -192,5.004 v 1.0001 m 163.5,-1.0001 v -0.50006 m -200,0.50006 h 200 m -218.5,7 4e-4,-7 m 236.5,7.5 v -8.0002 m -236,2e-4 h 236 m -246.5,-60.71 v 55.2 m 257,0 v -55.2 m -4.377,67.66 a 11.333,11.333 0 0 0 4.3771,-8.9474 m -254,-61.713 a 3,3 0 0 0 -3,3 m 3,-1 h 251 m -246.55,69.71 h 2.0531 m 198,-7.5 v 1.0001 m -4.9996,-1.0001 v 1.0001 m -15.5,-1e-4 h 5.0001 m -20.5,-1 v 1.0001 m -10.5,-1.0001 v 1.0001 m -20.5,-1.0001 v 1.0001 m -75.502,-1e-4 h 4.998 m -59.498,-1.5 v 8.0002 m 246.5,-12.505 a 0.5,0.5 0 0 0 -0.5,-0.5 m -15.4,5.0049 v 2.6001"
         id="path1131" />
    </g>
  </g>
</svg>
