<?xml version="1.0" encoding="UTF-8" standalone="no"?>
<svg
   width="640"
   height="685"
   version="1.1"
   viewBox="0 0 169.33 181.24"
   id="svg114561"
   sodipodi:docname="1.svg"
   inkscape:version="1.2.2 (732a01da63, 2022-12-09)"
   xmlns:inkscape="http://www.inkscape.org/namespaces/inkscape"
   xmlns:sodipodi="http://sodipodi.sourceforge.net/DTD/sodipodi-0.dtd"
   xmlns="http://www.w3.org/2000/svg"
   xmlns:svg="http://www.w3.org/2000/svg">
  <sodipodi:namedview
     id="namedview114563"
     pagecolor="#505050"
     bordercolor="#ffffff"
     borderopacity="1"
     inkscape:showpageshadow="0"
     inkscape:pageopacity="0"
     inkscape:pagecheckerboard="1"
     inkscape:deskcolor="#505050"
     showgrid="false"
     inkscape:zoom="15.591446"
     inkscape:cx="330.30932"
     inkscape:cy="105.76312"
     inkscape:window-width="1920"
     inkscape:window-height="1009"
     inkscape:window-x="-8"
     inkscape:window-y="-8"
     inkscape:window-maximized="1"
     inkscape:current-layer="svg114561" />
  <defs
     id="defs114471">
    <clipPath
       id="s">
      <rect
         transform="matrix(.99961 0 0 6.062 .12332 -175.14)"
         x="49.153"
         y="34.572"
         width="541.69"
         height="82.428"
         fill="#00f"
         fill-rule="evenodd"
         stroke-width=".10748"
         id="rect114414" />
    </clipPath>
    <clipPath
       id="r">
      <rect
         transform="matrix(.99961 0 0 6.062 .12332 -175.14)"
         x="49.153"
         y="34.572"
         width="541.69"
         height="82.428"
         fill="#00f"
         fill-rule="evenodd"
         stroke-width=".10748"
         id="rect114417" />
    </clipPath>
    <clipPath
       id="q">
      <rect
         transform="matrix(.99961 0 0 6.062 .12332 -175.14)"
         x="49.153"
         y="34.572"
         width="541.69"
         height="82.428"
         fill="#00f"
         fill-rule="evenodd"
         stroke-width=".10748"
         id="rect114420" />
    </clipPath>
    <clipPath
       id="p">
      <rect
         transform="matrix(.99961 0 0 6.062 .12332 -175.14)"
         x="49.153"
         y="34.572"
         width="541.69"
         height="82.428"
         fill="#00f"
         fill-rule="evenodd"
         stroke-width=".10748"
         id="rect114423" />
    </clipPath>
    <clipPath
       id="o">
      <rect
         transform="matrix(.99961 0 0 6.062 .12332 -175.14)"
         x="49.153"
         y="34.572"
         width="541.69"
         height="82.428"
         fill="#00f"
         fill-rule="evenodd"
         stroke-width=".10748"
         id="rect114426" />
    </clipPath>
    <clipPath
       id="n">
      <rect
         transform="matrix(.99961 0 0 6.062 .12332 -175.14)"
         x="49.153"
         y="34.572"
         width="541.69"
         height="82.428"
         fill="#00f"
         fill-rule="evenodd"
         stroke-width=".10748"
         id="rect114429" />
    </clipPath>
    <clipPath
       id="m">
      <rect
         transform="matrix(.99961 0 0 6.062 .12332 -175.14)"
         x="49.153"
         y="34.572"
         width="541.69"
         height="82.428"
         fill="#00f"
         fill-rule="evenodd"
         stroke-width=".10748"
         id="rect114432" />
    </clipPath>
    <clipPath
       id="l">
      <rect
         transform="matrix(.99961 0 0 6.062 .12332 -175.14)"
         x="49.153"
         y="34.572"
         width="541.69"
         height="82.428"
         fill="#00f"
         fill-rule="evenodd"
         stroke-width=".10748"
         id="rect114435" />
    </clipPath>
    <clipPath
       id="k">
      <rect
         transform="matrix(.99961 0 0 6.062 .12332 -175.14)"
         x="49.153"
         y="34.572"
         width="541.69"
         height="82.428"
         fill="#00f"
         fill-rule="evenodd"
         stroke-width=".10748"
         id="rect114438" />
    </clipPath>
    <clipPath
       id="j">
      <rect
         transform="matrix(0 -.90084 5.463 0 131.24 572.71)"
         x="49.153"
         y="34.572"
         width="541.69"
         height="82.428"
         fill="#00f"
         fill-rule="evenodd"
         stroke-width=".11926"
         id="rect114441" />
    </clipPath>
    <clipPath
       id="i">
      <rect
         transform="matrix(.99961 0 0 6.062 .12332 -175.14)"
         x="49.153"
         y="34.572"
         width="541.69"
         height="82.428"
         fill="#00f"
         fill-rule="evenodd"
         stroke-width=".10748"
         id="rect114444" />
    </clipPath>
    <clipPath
       id="h">
      <rect
         transform="matrix(.062634 0 0 .38009 269.04 52.702)"
         x="49.153"
         y="34.572"
         width="541.69"
         height="82.428"
         fill="#00f"
         fill-rule="evenodd"
         stroke-width="1.7148"
         id="rect114447" />
    </clipPath>
    <clipPath
       id="g">
      <rect
         transform="matrix(.071431 0 0 .43346 266.16 50.856)"
         x="49.153"
         y="34.572"
         width="541.69"
         height="82.428"
         fill="#00f"
         fill-rule="evenodd"
         stroke-width="1.5036"
         id="rect114450" />
    </clipPath>
    <clipPath
       id="f">
      <rect
         transform="matrix(.083337 0 0 .5057 262.35 48.351)"
         x="49.153"
         y="34.572"
         width="541.69"
         height="82.428"
         fill="#00f"
         fill-rule="evenodd"
         stroke-width="1.2888"
         id="rect114453" />
    </clipPath>
    <clipPath
       id="e">
      <rect
         transform="matrix(.1 0 0 .60684 257.01 44.851)"
         x="49.153"
         y="34.572"
         width="541.69"
         height="82.428"
         fill="#00f"
         fill-rule="evenodd"
         stroke-width="1.074"
         id="rect114456" />
    </clipPath>
    <clipPath
       id="d">
      <rect
         transform="matrix(.125 0 0 .75854 249 39.598)"
         x="49.153"
         y="34.572"
         width="541.69"
         height="82.428"
         fill="#00f"
         fill-rule="evenodd"
         stroke-width=".85922"
         id="rect114459" />
    </clipPath>
    <clipPath
       id="c">
      <rect
         transform="matrix(.16667 0 0 1.0114 235.65 30.842)"
         x="49.153"
         y="34.572"
         width="541.69"
         height="82.428"
         fill="#00f"
         fill-rule="evenodd"
         stroke-width=".64442"
         id="rect114462" />
    </clipPath>
    <clipPath
       id="b">
      <rect
         transform="matrix(.25001 0 0 1.5172 208.97 13.333)"
         x="49.153"
         y="34.572"
         width="541.69"
         height="82.428"
         fill="#00f"
         fill-rule="evenodd"
         stroke-width=".42959"
         id="rect114465" />
    </clipPath>
    <clipPath
       id="a">
      <rect
         transform="matrix(.5 0 0 3.0322 128.87 -39.129)"
         x="49.153"
         y="34.572"
         width="541.69"
         height="82.428"
         fill="#00f"
         fill-rule="evenodd"
         stroke-width=".21488"
         id="rect114468" />
    </clipPath>
  </defs>
  <path
     transform="matrix(.14055 0 0 .14055 84.749 22.264)"
     d="m0 919.33-32.036-1.933-31.952-2.319-31.655-5.089-31.134-7.918-30.232-11.628-29.459-13.175-28.571-14.79-27.647-16.128-26.208-18.777-25.196-19.564-23.232-22.607-20.935-25.662-19.153-26.937-18.01-26.737-16.662-26.958-15.355-27.07-13.298-28.269-11.266-29.167-8.153-31.228-6.552-31.008-3.589-32.26-2.204-31.527-2.8-28.898-2.808-27.197 8.066-34.852 19.595-41.328 18.247-36.821 23.603-37.369 31.621-39.049 48.972-45.237 62.654-47.371 60.559-40.326 46.481-28.549 28.418-17.18 19.874-11.635 20.304-10.112 19.777-8.3323 15.708-5.7849 10.881-3.5715 6.0054-1.9048 3.2928-1.0833 2.4123-0.75136 2.678-0.59658 1.7668-0.37528 1.6336-0.25112 1.3188-0.14802 1.029-0.076424 1.1152 0.004304 0.87792 0.049163 1.0149 0.13542-0.11308-0.031341 0.08767 0.010286-0.27906-0.088513-0.35627-0.13508-0.95171-0.38007-0.62673-0.32588-1.3002-0.67944 0.42846 0.04997 0.70406 0.22868-0.63395-0.48506 0.53861 0.18248-0.15763-0.24053 0.3294 0.09043 0.04269-0.10525 0.02458-0.1233 0.07368-0.08476 0.07659-0.08213 0.0591-0.10046 0.18074 0.0314 0.02527-0.13822 0.08649-0.07004-0.04867-0.25628-0.04936-0.28676-0.63611-1.2607 0.19615-0.0155 0.56465 0.69014 0.65398 1.0125 0.6279 1.1593 0.11743 0.14078 0.036701-0.04541-0.024043-0.23917 0.088878 0.09516 0.039101-0.07103 0.043546-0.07009 0.047969-0.06891 0.056433-0.03855 0.058758-0.03668 0.058978-0.06387 0.065252-0.00342 0.065332-0.05964 0.065332 0.05964 0.065252 0.00342 0.058978 0.06387 0.058758 0.03668 0.056433 0.03855 0.047969 0.06891 0.043546 0.07009 0.039101 0.07103 0.088878-0.09516-0.024043 0.23917 0.036701 0.04541 0.11743-0.14078 0.6279-1.1593 0.65398-1.0125 0.56465-0.69014 0.19615 0.0155-0.63611 1.2607-0.04936 0.28676-0.04867 0.25628 0.08649 0.07004 0.02527 0.13822 0.18074-0.0314 0.0591 0.10046 0.07659 0.08213 0.07368 0.08476 0.02458 0.1233 0.04269 0.10525 0.3294-0.09043-0.15763 0.24053 0.53861-0.18248-0.63395 0.48506 0.70406-0.22868 0.42846-0.04997-1.3002 0.67944-0.62673 0.32588-0.95171 0.38007-0.35627 0.13508-0.27906 0.088513 0.08767-0.010286-0.11308 0.031341 1.0149-0.13542 0.87792-0.049163 1.1152-0.004304 1.029 0.076424 1.3188 0.14802 1.6336 0.25112 1.7668 0.37528 2.678 0.59658 2.4123 0.75136 3.2928 1.0833 6.0054 1.9048 10.881 3.5715 15.708 5.7849 19.777 8.3323 20.304 10.112 19.874 11.635 28.418 17.18 46.481 28.549 60.559 40.326 62.654 47.371 48.972 45.237 31.621 39.049 23.603 37.369 18.247 36.821 19.595 41.328 8.066 34.852-2.808 27.197-2.8 28.898-2.204 31.527-3.589 32.26-6.552 31.008-8.153 31.228-11.266 29.167-13.298 28.269-15.355 27.07-16.662 26.958-18.01 26.737-19.153 26.937-20.935 25.662-23.232 22.607-25.196 19.564-26.208 18.777-27.647 16.128-28.571 14.79-29.459 13.175-30.232 11.628-31.134 7.918-31.655 5.089-31.952 2.319-32.036 1.933"
     fill="#fcff5c"
     fill-opacity=".68235"
     fill-rule="evenodd"
     id="path114475" />
  <g
     fill="none"
     id="g114525">
    <path
       transform="matrix(.14055 0 0 .14055 84.749 22.264)"
       d="m0 919.33-32.036-1.933-31.952-2.319-31.655-5.089-31.134-7.918-30.232-11.628-29.459-13.175-28.571-14.79-27.647-16.128-26.208-18.777-25.196-19.564-23.232-22.607-20.935-25.662-19.153-26.937-18.01-26.737-16.662-26.958-15.355-27.07-13.298-28.269-11.266-29.167-8.153-31.228-6.552-31.008-3.589-32.26-2.204-31.527-2.8-28.898-2.808-27.197 8.066-34.852 19.595-41.328 18.247-36.821 23.603-37.369 31.621-39.049 48.972-45.237 62.654-47.371 60.559-40.326 46.481-28.549 28.418-17.18 19.874-11.635 20.304-10.112 19.777-8.3323 15.708-5.7849 10.881-3.5715 6.0054-1.9048 3.2928-1.0833 2.4123-0.75136 2.678-0.59658 1.7668-0.37528 1.6336-0.25112 1.3188-0.14802 1.029-0.076424 1.1152 0.004304 0.87792 0.049163 1.0149 0.13542-0.11308-0.031341 0.08767 0.010286-0.27906-0.088513-0.35627-0.13508-0.95171-0.38007-0.62673-0.32588-1.3002-0.67944 0.42846 0.04997 0.70406 0.22868-0.63395-0.48506 0.53861 0.18248-0.15763-0.24053 0.3294 0.09043 0.04269-0.10525 0.02458-0.1233 0.07368-0.08476 0.07659-0.08213 0.0591-0.10046 0.18074 0.0314 0.02527-0.13822 0.08649-0.07004-0.04867-0.25628-0.04936-0.28676-0.63611-1.2607 0.19615-0.0155 0.56465 0.69014 0.65398 1.0125 0.6279 1.1593 0.11743 0.14078 0.036701-0.04541-0.024043-0.23917 0.088878 0.09516 0.039101-0.07103 0.043546-0.07009 0.047969-0.06891 0.056433-0.03855 0.058758-0.03668 0.058978-0.06387 0.065252-0.00342 0.065332-0.05964v0l0.065332 0.05964 0.065252 0.00342 0.058978 0.06387 0.058758 0.03668 0.056433 0.03855 0.047969 0.06891 0.043546 0.07009 0.039101 0.07103 0.088878-0.09516-0.024043 0.23917 0.036701 0.04541 0.11743-0.14078 0.6279-1.1593 0.65398-1.0125 0.56465-0.69014 0.19615 0.0155-0.63611 1.2607-0.04936 0.28676-0.04867 0.25628 0.08649 0.07004 0.02527 0.13822 0.18074-0.0314 0.0591 0.10046 0.07659 0.08213 0.07368 0.08476 0.02458 0.1233 0.04269 0.10525 0.3294-0.09043-0.15763 0.24053 0.53861-0.18248-0.63395 0.48506 0.70406-0.22868 0.42846-0.04997-1.3002 0.67944-0.62673 0.32588-0.95171 0.38007-0.35627 0.13508-0.27906 0.088513 0.08767-0.010286-0.11308 0.031341 1.0149-0.13542 0.87792-0.049163 1.1152-0.004304 1.029 0.076424 1.3188 0.14802 1.6336 0.25112 1.7668 0.37528 2.678 0.59658 2.4123 0.75136 3.2928 1.0833 6.0054 1.9048 10.881 3.5715 15.708 5.7849 19.777 8.3323 20.304 10.112 19.874 11.635 28.418 17.18 46.481 28.549 60.559 40.326 62.654 47.371 48.972 45.237 31.621 39.049 23.603 37.369 18.247 36.821 19.595 41.328 8.066 34.852-2.808 27.197-2.8 28.898-2.204 31.527-3.589 32.26-6.552 31.008-8.153 31.228-11.266 29.167-13.298 28.269-15.355 27.07-16.662 26.958-18.01 26.737-19.153 26.937-20.935 25.662-23.232 22.607-25.196 19.564-26.208 18.777-27.647 16.128-28.571 14.79-29.459 13.175-30.232 11.628-31.134 7.918-31.655 5.089-31.952 2.319-32.036 1.933"
       fill-rule="evenodd"
       stroke="#fcff5c"
       stroke-linecap="round"
       stroke-linejoin="round"
       stroke-width="2.9716"
       id="path114479" />
    <g
       id="g69683"
       inkscape:label="linhas"
       style="stroke:#858585;stroke-width:0.0793752;stroke-dasharray:none;stroke-opacity:1"
       transform="translate(-0.00163647,12.811166)">
      <path
         transform="matrix(0.52917,0,0,0.52917,-68.200824,-25.682725)"
         d="m 320.33,65.864 a 31.291,31.291 0 0 1 -15.646,27.099 31.291,31.291 0 0 1 -31.292,-10e-7 31.291,31.291 0 0 1 -15.646,-27.099"
         clip-path="none"
         stroke-width="0.25"
         id="path69"
         style="fill:none;stroke:#858585;stroke-width:0.149999;stroke-dasharray:none;stroke-opacity:1" />
      <path
         transform="matrix(1.0583,0,0,1.0576,-221.15382,-60.489724)"
         d="m 320.33,65.864 a 31.291,31.291 0 0 1 -15.646,27.099 31.291,31.291 0 0 1 -31.292,-10e-7 31.291,31.291 0 0 1 -15.646,-27.099"
         clip-path="none"
         stroke-width="0.12504"
         id="path71"
         style="fill:none;stroke:#858585;stroke-width:0.0750274;stroke-dasharray:none;stroke-opacity:1" />
      <path
         transform="matrix(1.5875,0,0,1.5865,-374.10382,-95.319724)"
         d="m 320.33,65.864 a 31.291,31.291 0 0 1 -15.646,27.099 31.291,31.291 0 0 1 -31.292,-10e-7 31.291,31.291 0 0 1 -15.646,-27.099"
         clip-path="none"
         stroke-width="0.083361"
         id="path73"
         style="fill:none;stroke:#858585;stroke-width:0.0500159;stroke-dasharray:none;stroke-opacity:1" />
      <path
         transform="matrix(2.1167,0,0,2.1153,-527.05382,-130.15372)"
         d="m 320.33,65.864 a 31.291,31.291 0 0 1 -15.646,27.099 31.291,31.291 0 0 1 -31.292,-10e-7 31.291,31.291 0 0 1 -15.646,-27.099"
         clip-path="none"
         stroke-width="0.06252"
         id="path75"
         style="fill:none;stroke:#858585;stroke-width:0.0375119;stroke-dasharray:none;stroke-opacity:1" />
      <path
         transform="matrix(2.6458,0,0,2.6441,-680.00382,-164.98372)"
         d="m 316.09753,81.578948 c -2.69982,4.648663 -6.59657,8.603097 -11.41353,11.384052 -9.68172,5.589983 -21.61028,5.589983 -31.292,-10e-7 -4.84573,-2.797562 -8.76021,-6.78266 -11.46177,-11.467406"
         clip-path="none"
         stroke-width="0.050016"
         id="path77"
         style="fill:none;stroke:#858585;stroke-width:0.0300101;stroke-dasharray:none;stroke-opacity:1"
         sodipodi:nodetypes="cccc" />
      <path
         transform="matrix(3.1749,0,0,3.1729,-832.93382,-199.80372)"
         d="m 311.58678,87.561065 c -2.00888,2.087956 -4.32396,3.913113 -6.90278,5.401935 -9.68172,5.589983 -21.61028,5.589983 -31.292,-10e-7 -2.5964,-1.498966 -4.92544,-3.338867 -6.9438,-5.444652"
         clip-path="none"
         stroke-width="0.041681"
         id="path79"
         style="fill:none;stroke:#858585;stroke-width:0.0250087;stroke-dasharray:none;stroke-opacity:1"
         sodipodi:nodetypes="cccc" />
      <path
         transform="matrix(3.7041,0,0,3.7017,-985.90378,-234.64372)"
         d="m 308.36701,90.472668 c -1.15745,0.908844 -2.38692,1.742066 -3.68301,2.490332 -9.68172,5.589983 -21.61028,5.589983 -31.292,-10e-7 -1.30893,-0.755682 -2.54992,-1.598013 -3.71741,-2.517377"
         clip-path="none"
         stroke-width="0.035726"
         id="path81"
         style="fill:none;stroke:#858585;stroke-width:0.021436;stroke-dasharray:none;stroke-opacity:1"
         sodipodi:nodetypes="cccc" />
      <path
         transform="matrix(4.2243,0,0,4.2215,-1136.5038,-268.87372)"
         d="m 306.04255,92.13204 c -0.44425,0.287471 -0.89718,0.564598 -1.35855,0.83096 -9.68172,5.589983 -21.61028,5.589983 -31.292,-10e-7 -0.43229,-0.249574 -0.85718,-0.5086 -1.27445,-0.77673"
         clip-path="none"
         stroke-width="0.031327"
         id="path83"
         style="fill:none;stroke:#858585;stroke-width:0.0187964;stroke-dasharray:none;stroke-opacity:1"
         sodipodi:nodetypes="cccc" />
      <path
         transform="matrix(0.26469,0,0,0.26469,-0.03669424,-0.03172486)"
         d="m 320.33,34.764 v 499.07"
         clip-path="none"
         stroke-width="0.49981"
         id="path85"
         style="fill:none;stroke:#858585;stroke-width:0.29988;stroke-dasharray:none;stroke-opacity:1" />
      <path
         transform="matrix(0,0.29371,-0.29371,0,168.20618,-84.936724)"
         d="m 320.33,40.455 v 487.98"
         clip-path="none"
         stroke-width="0.45042"
         id="path87"
         style="fill:none;stroke:#858585;stroke-width:0.27025;stroke-dasharray:none;stroke-opacity:1" />
      <path
         transform="matrix(0.26469,0,0,0.26469,-0.03669424,-0.03172486)"
         d="m 320.33,34.764 129.11,481.86"
         clip-path="none"
         id="path89"
         style="fill:none;stroke:#858585;stroke-width:0.29988;stroke-dasharray:none;stroke-opacity:1" />
      <path
         transform="matrix(0.26469,0,0,0.26469,-0.03669424,-0.03172486)"
         d="m 320.33,34.764 249.34,431.88"
         clip-path="none"
         id="path91"
         style="fill:none;stroke:#858585;stroke-width:0.29988;stroke-dasharray:none;stroke-opacity:1" />
      <path
         transform="matrix(0.26469,0,0,0.26469,-0.03669424,-0.03172486)"
         d="M 320.33,34.764 590.70958,305.14358"
         clip-path="none"
         id="path93"
         style="fill:none;stroke:#858585;stroke-width:0.29988;stroke-dasharray:none;stroke-opacity:1"
         sodipodi:nodetypes="cc" />
      <path
         transform="matrix(0.26469,0,0,0.26469,-0.03669424,-0.03172486)"
         d="M 320.33,34.764 590.71953,190.82061"
         clip-path="none"
         id="path95"
         style="fill:none;stroke:#858585;stroke-width:0.29988;stroke-dasharray:none;stroke-opacity:1"
         sodipodi:nodetypes="cc" />
      <path
         transform="matrix(0.26469,0,0,0.26469,-0.03669424,-0.03172486)"
         d="m 320.33,34.764 270.38762,72.4051"
         clip-path="none"
         id="path97"
         style="fill:none;stroke:#858585;stroke-width:0.29988;stroke-dasharray:none;stroke-opacity:1"
         sodipodi:nodetypes="cc" />
      <path
         transform="matrix(0.26469,0,0,0.26469,-0.03669424,-0.03172486)"
         d="M 320.33,34.764 191.1,517.074"
         clip-path="none"
         id="path99"
         style="fill:none;stroke:#858585;stroke-width:0.29988;stroke-dasharray:none;stroke-opacity:1" />
      <path
         transform="matrix(0.26469,0,0,0.26469,-0.03669424,-0.03172486)"
         d="M 320.33,34.764 70.48,467.524"
         clip-path="none"
         id="path101"
         style="fill:none;stroke:#858585;stroke-width:0.29988;stroke-dasharray:none;stroke-opacity:1" />
      <path
         transform="matrix(0.26469,0,0,0.26469,-0.03669424,-0.03172486)"
         d="M 320.33,34.764 49.250031,305.84397"
         clip-path="none"
         id="path103"
         style="fill:none;stroke:#858585;stroke-width:0.29988;stroke-dasharray:none;stroke-opacity:1"
         sodipodi:nodetypes="cc" />
      <path
         transform="matrix(0.26469,0,0,0.26469,-0.03669424,-0.03172486)"
         d="M 320.33,34.764 49.252602,191.27364"
         clip-path="none"
         id="path105"
         style="fill:none;stroke:#858585;stroke-width:0.29988;stroke-dasharray:none;stroke-opacity:1"
         sodipodi:nodetypes="cc" />
      <path
         transform="matrix(0.26469,0,0,0.26469,-0.03669424,-0.03172486)"
         d="M 320.33,34.764 49.273163,107.39141"
         id="path107"
         style="display:inline;fill:none;stroke:#858585;stroke-width:0.29988;stroke-dasharray:none;stroke-opacity:1"
         clip-path="none"
         sodipodi:nodetypes="cc" />
    </g>
  </g>
  <g
     fill="#848484"
     fill-rule="evenodd"
     font-family="Lato"
     stroke-linejoin="round"
     id="g114545">
    <g
       font-size="14.937px"
       stroke-width="1.2448"
       id="g114539">
      <text
         transform="matrix(.28341 0 0 .28341 23.833 22)"
         x="472"
         y="6.5"
         style="font-variant-caps:normal;font-variant-east-asian:normal;font-variant-ligatures:normal;font-variant-numeric:normal"
         xml:space="preserve"
         id="text114527">90°</text>
      <text
         transform="matrix(.28341 0 0 .28341 145.55 22)"
         x="-496"
         y="6.5"
         style="font-variant-caps:normal;font-variant-east-asian:normal;font-variant-ligatures:normal;font-variant-numeric:normal"
         xml:space="preserve"
         id="text114529">90°</text>
      <text
         transform="matrix(.28341 0 0 .28341 83.593 20.859)"
         x="233.98399"
         y="421.297"
         style="font-variant-caps:normal;font-variant-east-asian:normal;font-variant-ligatures:normal;font-variant-numeric:normal"
         xml:space="preserve"
         id="text114531"> 30°</text>
      <text
         transform="matrix(.28341 0 0 .28341 41.92 -4.6775)"
         x="405.297"
         y="250"
         style="font-variant-caps:normal;font-variant-east-asian:normal;font-variant-ligatures:normal;font-variant-numeric:normal"
         xml:space="preserve"
         id="text114533"> 60°</text>
      <text
         transform="matrix(.28341 0 0 .28341 85.908 20.859)"
         x="-260.98401"
         y="421.297"
         style="font-variant-caps:normal;font-variant-east-asian:normal;font-variant-ligatures:normal;font-variant-numeric:normal"
         xml:space="preserve"
         id="text114535">30° </text>
      <text
         transform="matrix(.28341 0 0 .28341 127.58 -4.6775)"
         x="-432.297"
         y="250"
         style="font-variant-caps:normal;font-variant-east-asian:normal;font-variant-ligatures:normal;font-variant-numeric:normal"
         xml:space="preserve"
         id="text114537">60° </text>
    </g>
    <text
       transform="matrix(.28319 0 0 .28319 -50.867 156.98)"
       x="472"
       y="6.5"
       font-size="14.948px"
       stroke-width="1.6"
       style="font-variant-caps:normal;font-variant-east-asian:normal;font-variant-ligatures:normal;font-variant-numeric:normal"
       xml:space="preserve"
       id="text114541">0º</text>
    <text
       transform="matrix(.28319 0 0 .28319 -54.958 161.72)"
       x="472"
       y="6.5"
       font-size="14.948px"
       stroke-width="1.6"
       style="font-variant-caps:normal;font-variant-east-asian:normal;font-variant-ligatures:normal;font-variant-numeric:normal"
       xml:space="preserve"
       id="text114543">cd.klm</text>
  </g>
  <g
     fill-rule="evenodd"
     id="g114557">
    <g
       stroke-linejoin="round"
       id="g114553">
      <rect
         transform="matrix(.26283 0 0 .26283 10.824 162.12)"
         y="6.5"
         width="11.2"
         height="15.2"
         fill="#fcff5c"
         fill-opacity=".68235"
         stroke="#fcff5c"
         stroke-linecap="round"
         stroke-width="1.8336"
         id="rect114547" />
      <text
         transform="matrix(.26283 0 0 .26283 10.824 161.56)"
         x="16"
         y="22.5"
         fill="#848484"
         font-family="Lato"
         font-size="17.569px"
         stroke-width=".91678"
         style="font-variant-caps:normal;font-variant-east-asian:normal;font-variant-ligatures:normal;font-variant-numeric:normal"
         xml:space="preserve"
         id="text114549">C0-C180</text>
      <rect
         transform="matrix(.26283 0 0 .26283 10.824 161.11)"
         y="38.5"
         width="11.2"
         height="15.2"
         fill="#87c2dc"
         fill-opacity=".68235"
         stroke="#87c2dc"
         stroke-linecap="round"
         stroke-width="1.8336"
         id="rect114551" />
    </g>
    <text
       transform="matrix(.26283 0 0 .26283 10.824 160.56)"
       x="16"
       y="54.5"
       fill="#848484"
       font-family="Lato"
       font-size="17.569px"
       stroke-linecap="square"
       stroke-linejoin="bevel"
       stroke-width=".86402"
       style="font-variant-caps:normal;font-variant-east-asian:normal;font-variant-ligatures:normal;font-variant-numeric:normal"
       xml:space="preserve"
       id="text114555">C90-C270</text>
  </g>
  <path
     transform="matrix(.8528 0 0 .8528 -9.1437 -92.334)"
     d="m98.186 132.09a0.90452 0.90452 0 0 0-0.43498-0.11143m14.905-5.6368h8.8463m-22.792 0h8.8453m-12.828-3.4928v2.2554m26.774-1.2665v2.7134m-21.051 4.0331a1.809 1.809 0 0 0-1.1528-0.41488m1.5812-14.111a0.45226 0.45226 0 0 0-0.45223 0.45226m23.608 13.387v-2.9848m-16.479 0.69516h5.1m12.826-10.199v-2.3458m-3.9799 11.126v-2.3516m-1.7183-2.8039v2.8039m-19.355-4.6132v-2.7134m19.355-7e-5a0.45226 0.45226 0 0 0-0.45226-0.45226m6.1506 9.0454v-2.2554m-0.90443 9.1295a0.90452 0.90452 0 0 0 0.89832-1.0104m-25.746-11.743h0.69884m21.797 10.945h1.5379m-2.2616-3.618h-1.7183m0-2.7134h1.7183m-0.58951 6.3316a1.809 1.809 0 0 0-1.1528 0.41488m4.0037-0.41488a0.27136 0.27136 0 0 0 0.27136-0.27136m-26.052 0.27121 2.4459-3.618m-5.7006-1.4469 0.0048 5.8638m-0.0048-5.8638h2.3501m-0.90463 1.8088v2.9848m-0.99313-15.286a0.45226 0.45226 0 0 0-0.45228 0.45226m17.927 12.544v-1.2665m7.1279 0.20948 2.442 3.618m0.23405 1.8093h2.1175m-0.54229-5.0655h-0.90463m-24.42-3.0753v2.3516m24.42 0.72371v-1.8088m1.8993-10.493h-29.847m4.548 4.6132a1.1759 1.1759 0 1 0 0 1.809m0.71972 9.5506a15.15 15.15 0 0 0 19.309 0m3.3707-5.48h2.3516m-5.6982-5.8796h0.69596m5.0024-4.1607a0.45226 0.45226 0 0 0-0.45226-0.45226m-5.2461 1.8996v2.7134m0.69596 1.8093h-0.69596m-25.049 9.9342a0.90452 0.90452 0 0 0 0.89832 1.0104m1.4455-6.8742v1.8088m-0.63181 3.2562h1.5364m24.477 1.8092a0.90452 0.90452 0 0 0-0.435 0.11144m-0.52272-8.0997h-22.792m8.8453 2.3516v1.2665m17.92 3.3599 6e-3 -5.8638m-30.754-10.04v2.3458m5.7006 9.1416h-1.7183m-0.52493 5.5387a24.785 24.785 0 0 0 23.839 0m3.4573-14.68a2.9487 2.9487 0 0 0 0 5.4392m-26.772 0.98897h1.7183m0-2.8039h-0.69884m-1.0195 5.5173v-2.7134m2.1682-7.7789h18.453m-20.032 14.11h-2.8814m24.062-9.1355a1.1759 1.1759 0 1 0 0-1.809m3.3114 10.945h-2.8785m-25.28 1.8093h2.1156m-0.67011-5.0655h-0.90463m0.0019 2.985a0.27136 0.27136 0 0 0 0.27134 0.27136m-1.7186-7.3206a2.9487 2.9487 0 0 0 0-5.4392m5.7005 6.4282v-2.8039"
     fill="none"
     stroke="#000"
     stroke-linecap="round"
     stroke-width=".27136"
     id="path114559" />
</svg>
