<?xml version="1.0" encoding="UTF-8" standalone="no"?>
<!-- Created with Inkscape (http://www.inkscape.org/) -->

<svg
   width="216.24139mm"
   height="132.89566mm"
   viewBox="0 0 216.24139 132.89568"
   version="1.1"
   id="svg4586"
   inkscape:version="1.1 (c68e22c387, 2021-05-23)"
   sodipodi:docname="STopo DC24.svg"
   xmlns:inkscape="http://www.inkscape.org/namespaces/inkscape"
   xmlns:sodipodi="http://sodipodi.sourceforge.net/DTD/sodipodi-0.dtd"
   xmlns="http://www.w3.org/2000/svg"
   xmlns:svg="http://www.w3.org/2000/svg">
  <sodipodi:namedview
     id="namedview4588"
     pagecolor="#505050"
     bordercolor="#ffffff"
     borderopacity="1"
     inkscape:pageshadow="0"
     inkscape:pageopacity="0"
     inkscape:pagecheckerboard="1"
     inkscape:document-units="mm"
     showgrid="false"
     inkscape:zoom="1"
     inkscape:cx="335.5"
     inkscape:cy="283"
     inkscape:window-width="1680"
     inkscape:window-height="987"
     inkscape:window-x="1912"
     inkscape:window-y="18"
     inkscape:window-maximized="1"
     inkscape:current-layer="layer1" />
  <defs
     id="defs4583" />
  <g
     inkscape:label="Camada 1"
     inkscape:groupmode="layer"
     id="layer1"
     transform="translate(-3.391222,-126.25)">
    <path
       d="M 214.51666,135.16624 77.710525,214.1513"
       style="fill:none;stroke:#000000;stroke-width:0.15;stroke-linecap:round;stroke-linejoin:round;stroke-miterlimit:4;stroke-dasharray:none"
       id="path1898" />
    <path
       d="M 205.04143,129.69572 68.798426,208.35565"
       style="fill:none;stroke:#000000;stroke-width:0.15;stroke-linecap:round;stroke-linejoin:round;stroke-miterlimit:4;stroke-dasharray:none"
       id="path1900" />
    <path
       d="M 203.96229,129.08821 67.169609,208.0655"
       style="fill:none;stroke:#000000;stroke-width:0.15;stroke-linecap:round;stroke-linejoin:round;stroke-miterlimit:4;stroke-dasharray:none"
       id="path1902" />
    <path
       d="M 215.84846,142.56501 79.089343,221.52293"
       style="fill:none;stroke:#000000;stroke-width:0.15;stroke-linecap:round;stroke-linejoin:round;stroke-miterlimit:4;stroke-dasharray:none"
       id="path1904" />
    <path
       d="M 215.88202,139.07281 79.089343,218.0501"
       style="fill:none;stroke:#000000;stroke-width:0.15;stroke-linecap:round;stroke-linejoin:round;stroke-miterlimit:4;stroke-dasharray:none"
       id="path1906" />
    <path
       d="M 215.88202,140.09071 79.089343,219.068"
       style="fill:none;stroke:#000000;stroke-width:0.15;stroke-linecap:round;stroke-linejoin:round;stroke-miterlimit:4;stroke-dasharray:none"
       id="path1908" />
    <path
       d="M 215.88202,143.68892 79.089343,222.6662"
       style="fill:none;stroke:#000000;stroke-width:0.15;stroke-linecap:round;stroke-linejoin:round;stroke-miterlimit:4;stroke-dasharray:none"
       id="path1910" />
    <path
       d="m 215.88202,135.97007 v 4.28148"
       style="fill:none;stroke:#000000;stroke-width:0.15;stroke-linecap:round;stroke-linejoin:round;stroke-miterlimit:4;stroke-dasharray:none"
       id="path1912" />
    <path
       d="m 205.2254,128.71726 c -0.0449,0.0248 -0.0873,0.0604 -0.12508,0.10493 -0.0383,0.0451 -0.0709,0.0984 -0.0963,0.15677 -0.0262,0.0602 -0.0442,0.12462 -0.0532,0.18963 -0.005,0.0366 -0.007,0.0732 -0.007,0.10899 6.9e-4,0.0359 0.004,0.071 0.0107,0.10448 1.9e-4,9.8e-4 3.8e-4,0.002 5.7e-4,0.003"
       style="fill:none;stroke:#000000;stroke-width:0.15;stroke-linecap:round;stroke-linejoin:round;stroke-miterlimit:4;stroke-dasharray:none"
       id="path1914" />
    <path
       d="m 215.88202,142.59857 v 1.4237"
       style="fill:none;stroke:#000000;stroke-width:0.15;stroke-linecap:round;stroke-linejoin:round;stroke-miterlimit:4;stroke-dasharray:none"
       id="path1916" />
    <path
       d="m 215.88202,140.25155 -0.0504,-0.007 m 0,0 -0.0494,-0.004 m 0,0 -0.0482,-3e-4 m 0,0 -0.047,0.003 m 0,0 -0.0456,0.007 m 0,0 -0.0441,0.0101 m 0,0 -0.0177,0.005"
       style="fill:none;stroke:#000000;stroke-width:0.15;stroke-linecap:round;stroke-linejoin:round;stroke-miterlimit:4;stroke-dasharray:none"
       id="path1918" />
    <path
       d="m 215.38164,140.37961 -0.0317,0.0319 m 0,0 -0.0295,0.0349 m 0,0 -0.0272,0.0379 m 0,0 -0.0248,0.0408 m 0,0 -0.0224,0.0435 m 0,0 -0.0199,0.0462 m 0,0 -0.0174,0.0487 m 0,0 -0.0148,0.0511 m 0,0 -0.0123,0.0534 m 0,0 -0.01,0.0556 m 0,0 -0.007,0.0576 m 0,0 -0.004,0.0594 m 0,0 -0.002,0.0611 m 0,0 0.001,0.0627 m 0,0 0.004,0.0641 m 0,0 0.006,0.0654 m 0,0 0.009,0.0665 m 0,0 0.0118,0.0674 m 0,0 0.0143,0.0681 m 0,0 0.0169,0.0687 m 0,0 0.0195,0.0691 m 0,0 0.0219,0.0694 m 0,0 0.0244,0.0694 m 0,0 0.0267,0.0693 m 0,0 0.029,0.069 m 0,0 0.0313,0.0686 m 0,0 0.0334,0.068 m 0,0 0.0355,0.0672 m 0,0 0.0375,0.0662 m 0,0 0.0393,0.0651 m 0,0 0.0411,0.0638 m 0,0 0.0428,0.0623 m 0,0 0.0444,0.0607 m 0,0 0.0458,0.0589 m 0,0 0.0472,0.0571 m 0,0 0.0484,0.055 m 0,0 0.0495,0.0528 m 0,0 0.0418,0.042"
       style="fill:none;stroke:#000000;stroke-width:0.15;stroke-linecap:round;stroke-linejoin:round;stroke-miterlimit:4;stroke-dasharray:none"
       id="path1920" />
    <path
       d="m 207.88562,127.24822 c 0.0219,-0.0121 0.0444,-0.0187 0.0665,-0.0198"
       style="fill:none;stroke:#000000;stroke-width:0.15;stroke-linecap:round;stroke-linejoin:round;stroke-miterlimit:4;stroke-dasharray:none"
       id="path1922" />
    <path
       d="m 205.2254,128.71726 2.66022,-1.46904"
       style="fill:none;stroke:#000000;stroke-width:0.15;stroke-linecap:round;stroke-linejoin:round;stroke-miterlimit:4;stroke-dasharray:none"
       id="path1924" />
    <path
       d="m 215.05213,134.39073 c -0.0445,0.025 -0.0908,0.0584 -0.13648,0.0983 -0.0463,0.0405 -0.091,0.0868 -0.13164,0.13637 -0.0419,0.0511 -0.0789,0.10459 -0.10889,0.15746 -0.0169,0.0298 -0.0315,0.0592 -0.0436,0.0876 -0.0121,0.0285 -0.0216,0.056 -0.0284,0.0819 -2e-4,7.6e-4 -3.9e-4,0.002 -5.9e-4,0.002"
       style="fill:none;stroke:#000000;stroke-width:0.15;stroke-linecap:round;stroke-linejoin:round;stroke-miterlimit:4;stroke-dasharray:none"
       id="path1926" />
    <path
       d="m 215.53251,135.76829 0.34951,0.20178"
       style="fill:none;stroke:#000000;stroke-width:0.15;stroke-linecap:round;stroke-linejoin:round;stroke-miterlimit:4;stroke-dasharray:none"
       id="path1928" />
    <path
       d="m 217.79788,132.89004 c -2.9e-4,-1.6e-4 -5.8e-4,-3.3e-4 -8.8e-4,-4.9e-4 -0.012,-0.007 -0.0277,-0.008 -0.0464,-0.005 -0.0184,0.003 -0.0393,0.0113 -0.0615,0.0238"
       style="fill:none;stroke:#000000;stroke-width:0.15;stroke-linecap:round;stroke-linejoin:round;stroke-miterlimit:4;stroke-dasharray:none"
       id="path1930" />
    <path
       d="m 215.05213,134.39073 2.63691,-1.4825"
       style="fill:none;stroke:#000000;stroke-width:0.15;stroke-linecap:round;stroke-linejoin:round;stroke-miterlimit:4;stroke-dasharray:none"
       id="path1932" />
    <path
       d="m 215.88202,144.02227 -0.28869,-0.16668"
       style="fill:none;stroke:#000000;stroke-width:0.15;stroke-linecap:round;stroke-linejoin:round;stroke-miterlimit:4;stroke-dasharray:none"
       id="path1934" />
    <path
       d="m 203.67606,129.25346 v -0.3305"
       style="fill:none;stroke:#000000;stroke-width:0.15;stroke-linecap:round;stroke-linejoin:round;stroke-miterlimit:4;stroke-dasharray:none"
       id="path1936" />
    <path
       d="m 203.67606,128.92296 0.34951,0.20179"
       style="fill:none;stroke:#000000;stroke-width:0.15;stroke-linecap:round;stroke-linejoin:round;stroke-miterlimit:4;stroke-dasharray:none"
       id="path1938" />
    <path
       d="m 219.33921,143.04994 -2.60108,1.60844"
       style="fill:none;stroke:#000000;stroke-width:0.15;stroke-linecap:round;stroke-linejoin:round;stroke-miterlimit:4;stroke-dasharray:none"
       id="path1940" />
    <path
       d="m 216.22516,144.66614 a 0.5,0.5 0 0 0 0.51297,-0.008"
       style="fill:none;stroke:#000000;stroke-width:0.15;stroke-linecap:round;stroke-linejoin:round;stroke-miterlimit:4;stroke-dasharray:none"
       id="path1942" />
    <path
       d="m 203.29003,129.47634 v -1.17248"
       style="fill:none;stroke:#000000;stroke-width:0.15;stroke-linecap:round;stroke-linejoin:round;stroke-miterlimit:4;stroke-dasharray:none"
       id="path1944" />
    <path
       d="m 207.95217,127.22846 c 0.61482,-0.0282 1.259,0.0335 1.91982,0.18177 0.66082,0.1483 1.33834,0.38324 2.02022,0.6992 0.68188,0.31596 1.36812,0.71295 2.04621,1.18289 0.6781,0.46993 1.34802,1.01281 1.99735,1.61806 0.64745,0.60349 1.27439,1.26898 1.86911,1.98371"
       style="fill:none;stroke:#000000;stroke-width:0.15;stroke-linecap:round;stroke-linejoin:round;stroke-miterlimit:4;stroke-dasharray:none"
       id="path1946" />
    <path
       d="m 203.55323,127.86349 a 0.5,0.5 0 0 0 -0.2632,0.44037"
       style="fill:none;stroke:#000000;stroke-width:0.15;stroke-linecap:round;stroke-linejoin:round;stroke-miterlimit:4;stroke-dasharray:none"
       id="path1948" />
    <path
       d="m 219.50733,134.22543 c 0,-0.044 -0.006,-0.0862 -0.0157,-0.12688 -0.01,-0.0407 -0.0238,-0.0798 -0.0411,-0.11734 -0.0173,-0.0375 -0.038,-0.0734 -0.0619,-0.10716 -0.0238,-0.0338 -0.0508,-0.0654 -0.0811,-0.0943 -0.0303,-0.0289 -0.0639,-0.055 -0.10205,-0.077"
       style="fill:none;stroke:#000000;stroke-width:0.15;stroke-linecap:round;stroke-linejoin:round;stroke-miterlimit:4;stroke-dasharray:none"
       id="path1950" />
    <path
       d="m 206.24672,126.41511 -2.69349,1.44838"
       style="fill:none;stroke:#000000;stroke-width:0.15;stroke-linecap:round;stroke-linejoin:round;stroke-miterlimit:4;stroke-dasharray:none"
       id="path1952" />
    <path
       d="m 216.22516,144.66614 -1.01787,-0.58767"
       style="fill:none;stroke:#000000;stroke-width:0.15;stroke-linecap:round;stroke-linejoin:round;stroke-miterlimit:4;stroke-dasharray:none"
       id="path1954" />
    <path
       d="m 219.50733,134.22543 v 8.49873"
       style="fill:none;stroke:#000000;stroke-width:0.15;stroke-linecap:round;stroke-linejoin:round;stroke-miterlimit:4;stroke-dasharray:none"
       id="path1956" />
    <path
       d="m 206.61291,126.4324 1.37609,0.79449"
       style="fill:none;stroke:#000000;stroke-width:0.15;stroke-linecap:round;stroke-linejoin:round;stroke-miterlimit:4;stroke-dasharray:none"
       id="path1958" />
    <path
       d="m 217.79788,132.89004 1.4077,0.81274"
       style="fill:none;stroke:#000000;stroke-width:0.15;stroke-linecap:round;stroke-linejoin:round;stroke-miterlimit:4;stroke-dasharray:none"
       id="path1960" />
    <path
       d="m 219.33921,143.04994 c 0.0251,-0.0155 0.048,-0.0344 0.0676,-0.0552 0.0196,-0.0208 0.0359,-0.0434 0.0491,-0.0664 0.0132,-0.023 0.0232,-0.0465 0.0308,-0.0697 0.008,-0.0232 0.0127,-0.0461 0.0159,-0.0685 0.003,-0.0224 0.005,-0.0444 0.005,-0.066"
       style="fill:none;stroke:#000000;stroke-width:0.15;stroke-linecap:round;stroke-linejoin:round;stroke-miterlimit:4;stroke-dasharray:none"
       id="path1962" />
    <path
       d="m 206.61291,126.4324 c -0.0186,-0.0108 -0.0384,-0.0205 -0.0595,-0.0289 -0.0211,-0.008 -0.0435,-0.0154 -0.0673,-0.0205 -0.0239,-0.005 -0.0492,-0.008 -0.0757,-0.008 -0.0265,-1.2e-4 -0.0542,0.003 -0.082,0.009 -0.0278,0.007 -0.0556,0.017 -0.0816,0.031"
       style="fill:none;stroke:#000000;stroke-width:0.15;stroke-linecap:round;stroke-linejoin:round;stroke-miterlimit:4;stroke-dasharray:none"
       id="path1964" />
    <path
       d="m 68.675886,217.28539 1.484925,0.85732"
       style="fill:none;stroke:#000000;stroke-width:0.15;stroke-linecap:round;stroke-linejoin:round;stroke-miterlimit:4;stroke-dasharray:none"
       id="path1966" />
    <path
       d="m 64.044337,215.8361 0.0015,0.0723 m 0,0 0.0046,0.0739 m 0,0 0.0077,0.0753 m 0,0 0.01077,0.0766 m 0,0 0.0138,0.0776 m 0,0 0.0168,0.0784 m 0,0 0.01975,0.0791 m 0,0 0.02266,0.0795 m 0,0 0.02551,0.0798 m 0,0 0.02829,0.0799 m 0,0 0.03101,0.0797 m 0,0 0.03364,0.0794 m 0,0 0.0362,0.0788 m 0,0 0.03866,0.0781 m 0,0 0.04102,0.0772 m 0,0 0.04329,0.076 m 0,0 0.04544,0.0747 m 0,0 0.04749,0.0732 m 0,0 0.04941,0.0715 m 0,0 0.05121,0.0696 m 0,0 0.05288,0.0676 m 0,0 0.05442,0.0654 m 0,0 0.05582,0.063 m 0,0 0.05708,0.0605 m 0,0 0.0582,0.0578 m 0,0 0.05918,0.055 m 0,0 0.06001,0.052 m 0,0 0.06068,0.0489 m 0,0 0.06121,0.0457 m 0,0 0.06158,0.0424 m 0,0 0.0618,0.0389 m 0,0 0.06186,0.0354 m 0,0 0.06178,0.0318 m 0,0 0.06153,0.0281 m 0,0 0.06113,0.0243 m 0,0 0.06058,0.0205 m 0,0 0.05988,0.0166 m 0,0 0.05903,0.0127 m 0,0 0.05802,0.009 m 0,0 0.05688,0.005 m 0,0 0.05559,7.5e-4 m 0,0 0.05417,-0.003 m 0,0 0.0526,-0.007 m 0,0 0.05091,-0.0112 m 0,0 0.04909,-0.0151 m 0,0 0.04715,-0.019 m 0,0 0.04509,-0.0229 m 0,0 0.04292,-0.0267 m 0,0 0.04063,-0.0304 m 0,0 0.03825,-0.0341 m 0,0 0.03577,-0.0376 m 0,0 0.03321,-0.0411 m 0,0 0.03056,-0.0445 m 0,0 0.02783,-0.0477 m 0,0 0.02503,-0.0509 m 0,0 0.02218,-0.0539 m 0,0 0.01926,-0.0568 m 0,0 0.0163,-0.0595 m 0,0 0.01329,-0.0621 m 0,0 0.01026,-0.0645 m 0,0 0.0072,-0.0668 m 0,0 0.0041,-0.0689 m 0,0 8.88e-4,-0.0344"
       style="fill:none;stroke:#000000;stroke-width:0.15;stroke-linecap:round;stroke-linejoin:round;stroke-miterlimit:4;stroke-dasharray:none"
       id="path1968" />
    <path
       d="m 66.519029,217.28938 -4.86e-4,-0.0717 m 0,0 -0.0036,-0.0734 m 0,0 -0.0067,-0.0749 m 0,0 -0.0097,-0.0762 m 0,0 -0.01277,-0.0773 m 0,0 -0.01578,-0.0782 m 0,0 -0.01874,-0.0789 m 0,0 -0.02167,-0.0794 m 0,0 -0.02454,-0.0797 m 0,0 -0.02735,-0.0799 m 0,0 -0.03008,-0.0798 m 0,0 -0.03275,-0.0795 m 0,0 -0.03533,-0.079 m 0,0 -0.03782,-0.0784 m 0,0 -0.04022,-0.0775 m 0,0 -0.04252,-0.0764 m 0,0 -0.04472,-0.0752 m 0,0 -0.0468,-0.0737 m 0,0 -0.04876,-0.0721 m 0,0 -0.0506,-0.0703 m 0,0 -0.05232,-0.0683 m 0,0 -0.0539,-0.0662 m 0,0 -0.05535,-0.0639 m 0,0 -0.05667,-0.0614 m 0,0 -0.05783,-0.0588 m 0,0 -0.05886,-0.056 m 0,0 -0.05974,-0.0531 m 0,0 -0.06047,-0.05 m 0,0 -0.06105,-0.0468 m 0,0 -0.06147,-0.0435 m 0,0 -0.06174,-0.0401 m 0,0 -0.06186,-0.0366 m 0,0 -0.0063,-0.004"
       style="fill:none;stroke:#000000;stroke-width:0.15;stroke-linecap:round;stroke-linejoin:round;stroke-miterlimit:4;stroke-dasharray:none"
       id="path1970" />
    <path
       d="m 65.260545,215.10962 -0.06181,-0.0327 m 0,0 -0.0616,-0.029 m 0,0 -0.06124,-0.0252 m 0,0 -0.06073,-0.0214 m 0,0 -0.06006,-0.0176 m 0,0 -0.05924,-0.0136 m 0,0 -0.05828,-0.01 m 0,0 -0.05717,-0.006 m 0,0 -0.05592,-0.002 m 0,0 -0.05452,0.002 m 0,0 -0.05299,0.006 m 0,0 -0.05133,0.0102 m 0,0 -0.04954,0.0142 m 0,0 -0.04763,0.0181 m 0,0 -0.0456,0.022 m 0,0 -0.04345,0.0258 m 0,0 -0.04119,0.0295 m 0,0 -0.03883,0.0332 m 0,0 -0.03638,0.0368 m 0,0 -0.03383,0.0403 m 0,0 -0.0312,0.0437 m 0,0 -0.02849,0.047 m 0,0 -0.02571,0.0501 m 0,0 -0.02287,0.0532 m 0,0 -0.01997,0.0561 m 0,0 -0.01702,0.0589 m 0,0 -0.01402,0.0615 m 0,0 -0.01099,0.064 m 0,0 -0.0079,0.0663 m 0,0 -0.0049,0.0684 m 0,0 -0.0018,0.0704 m 0,0 -8e-6,0.005"
       style="fill:none;stroke:#000000;stroke-width:0.15;stroke-linecap:round;stroke-linejoin:round;stroke-miterlimit:4;stroke-dasharray:none"
       id="path1972" />
    <path
       d="m 72.317486,220.61261 0.0015,0.0723 m 0,0 0.0046,0.0739 m 0,0 0.0077,0.0753 m 0,0 0.01077,0.0766 m 0,0 0.0138,0.0776 m 0,0 0.0168,0.0785 m 0,0 0.01975,0.0791 m 0,0 0.02266,0.0796 m 0,0 0.02551,0.0798 m 0,0 0.02829,0.0799 m 0,0 0.03101,0.0797 m 0,0 0.03364,0.0794 m 0,0 0.0362,0.0788 m 0,0 0.03866,0.0781 m 0,0 0.04102,0.0772 m 0,0 0.04329,0.076 m 0,0 0.04544,0.0747 m 0,0 0.04748,0.0732 m 0,0 0.04941,0.0715 m 0,0 0.05121,0.0696 m 0,0 0.05288,0.0676 m 0,0 0.05442,0.0654 m 0,0 0.05582,0.063 m 0,0 0.05708,0.0605 m 0,0 0.0582,0.0578 m 0,0 0.05918,0.055 m 0,0 0.06001,0.052 m 0,0 0.06068,0.0489 m 0,0 0.06121,0.0457 m 0,0 0.06158,0.0424 m 0,0 0.0618,0.0389 m 0,0 0.06186,0.0354 m 0,0 0.06177,0.0318 m 0,0 0.06153,0.0281 m 0,0 0.06113,0.0243 m 0,0 0.06058,0.0205 m 0,0 0.05988,0.0166 m 0,0 0.05902,0.0127 m 0,0 0.05803,0.009 m 0,0 0.05688,0.005 m 0,0 0.05559,7.5e-4 m 0,0 0.05417,-0.003 m 0,0 0.05261,-0.007 m 0,0 0.05091,-0.0112 m 0,0 0.04909,-0.0151 m 0,0 0.04715,-0.019 m 0,0 0.04509,-0.0229 m 0,0 0.04291,-0.0267 m 0,0 0.04063,-0.0304 m 0,0 0.03825,-0.0341 m 0,0 0.03577,-0.0376 m 0,0 0.03321,-0.0411 m 0,0 0.03056,-0.0445 m 0,0 0.02783,-0.0477 m 0,0 0.02503,-0.0509 m 0,0 0.02217,-0.0539 m 0,0 0.01926,-0.0568 m 0,0 0.0163,-0.0595 m 0,0 0.01329,-0.0621 m 0,0 0.01026,-0.0645 m 0,0 0.0072,-0.0668 m 0,0 0.0041,-0.0689 m 0,0 8.88e-4,-0.0344"
       style="fill:none;stroke:#000000;stroke-width:0.15;stroke-linecap:round;stroke-linejoin:round;stroke-miterlimit:4;stroke-dasharray:none"
       id="path1974" />
    <path
       d="m 74.792178,222.06589 -4.85e-4,-0.0717 m 0,0 -0.0036,-0.0734 m 0,0 -0.0067,-0.0749 m 0,0 -0.0097,-0.0762 m 0,0 -0.01277,-0.0773 m 0,0 -0.01578,-0.0782 m 0,0 -0.01875,-0.0789 m 0,0 -0.02167,-0.0794 m 0,0 -0.02454,-0.0797 m 0,0 -0.02735,-0.0799 m 0,0 -0.03008,-0.0798 m 0,0 -0.03275,-0.0795 m 0,0 -0.03533,-0.079 m 0,0 -0.03782,-0.0784 m 0,0 -0.04023,-0.0775 m 0,0 -0.04252,-0.0764 m 0,0 -0.04472,-0.0752 m 0,0 -0.0468,-0.0737 m 0,0 -0.04876,-0.0721 m 0,0 -0.0506,-0.0703 m 0,0 -0.05232,-0.0683 m 0,0 -0.0539,-0.0662 m 0,0 -0.05535,-0.0639 m 0,0 -0.05666,-0.0614 m 0,0 -0.05784,-0.0588 m 0,0 -0.05886,-0.056 m 0,0 -0.05974,-0.0531 m 0,0 -0.06047,-0.05 m 0,0 -0.06105,-0.0468 m 0,0 -0.06147,-0.0435 m 0,0 -0.06174,-0.0401 m 0,0 -0.06186,-0.0366 m 0,0 -0.0063,-0.004"
       style="fill:none;stroke:#000000;stroke-width:0.15;stroke-linecap:round;stroke-linejoin:round;stroke-miterlimit:4;stroke-dasharray:none"
       id="path1976" />
    <path
       d="m 73.533694,219.88613 -0.06181,-0.0327 m 0,0 -0.0616,-0.029 m 0,0 -0.06124,-0.0252 m 0,0 -0.06073,-0.0214 m 0,0 -0.06006,-0.0175 m 0,0 -0.05924,-0.0136 m 0,0 -0.05828,-0.01 m 0,0 -0.05717,-0.006 m 0,0 -0.05592,-0.002 m 0,0 -0.05452,0.002 m 0,0 -0.05299,0.006 m 0,0 -0.05133,0.0102 m 0,0 -0.04954,0.0142 m 0,0 -0.04763,0.0181 m 0,0 -0.0456,0.022 m 0,0 -0.04345,0.0258 m 0,0 -0.04119,0.0295 m 0,0 -0.03883,0.0332 m 0,0 -0.03638,0.0368 m 0,0 -0.03383,0.0403 m 0,0 -0.0312,0.0437 m 0,0 -0.02849,0.047 m 0,0 -0.02571,0.0501 m 0,0 -0.02287,0.0532 m 0,0 -0.01997,0.0561 m 0,0 -0.01702,0.0589 m 0,0 -0.01402,0.0615 m 0,0 -0.01099,0.064 m 0,0 -0.0079,0.0663 m 0,0 -0.0049,0.0684 m 0,0 -0.0018,0.0704 m 0,0 -9e-6,0.005"
       style="fill:none;stroke:#000000;stroke-width:0.15;stroke-linecap:round;stroke-linejoin:round;stroke-miterlimit:4;stroke-dasharray:none"
       id="path1978" />
    <path
       d="m 67.327237,208.3328 c 0.04452,-0.0268 0.09083,-0.0424 0.136481,-0.0461 0.0031,-2.5e-4 0.0062,-4.4e-4 0.0093,-5.8e-4"
       style="fill:none;stroke:#000000;stroke-width:0.15;stroke-linecap:round;stroke-linejoin:round;stroke-miterlimit:4;stroke-dasharray:none"
       id="path1980" />
    <path
       d="m 67.327237,208.3328 -2.740664,1.6518"
       style="fill:none;stroke:#000000;stroke-width:0.15;stroke-linecap:round;stroke-linejoin:round;stroke-miterlimit:4;stroke-dasharray:none"
       id="path1984" />
    <path
       d="m 77.153975,214.00627 -2.764896,1.6378"
       style="fill:none;stroke:#000000;stroke-width:0.15;stroke-linecap:round;stroke-linejoin:round;stroke-miterlimit:4;stroke-dasharray:none"
       id="path1988" />
    <path
       d="m 67.790153,217.20506 -0.04208,0.0281 m 0,0 -0.03976,0.0318 m 0,0 -0.03734,0.0354 m 0,0 -0.03483,0.0389 m 0,0 -0.01248,0.0156"
       style="fill:none;stroke:#000000;stroke-width:0.15;stroke-linecap:round;stroke-linejoin:round;stroke-miterlimit:4;stroke-dasharray:none"
       id="path1990" />
    <path
       d="m 68.675886,217.28539 -0.06185,-0.0339 m 0,0 -0.06169,-0.0303 m 0,0 -0.06138,-0.0265 m 0,0 -0.06092,-0.0227 m 0,0 -0.06031,-0.0189 m 0,0 -0.05954,-0.015 m 0,0 -0.05863,-0.011 m 0,0 -0.05757,-0.007 m 0,0 -0.05636,-0.003 m 0,0 -0.05502,9e-4 m 0,0 -0.05353,0.005 m 0,0 -0.05192,0.009 m 0,0 -0.05017,0.0128 m 0,0 -0.0483,0.0168 m 0,0 -0.04631,0.0206 m 0,0 -0.04225,0.0233"
       style="fill:none;stroke:#000000;stroke-width:0.15;stroke-linecap:round;stroke-linejoin:round;stroke-miterlimit:4;stroke-dasharray:none"
       id="path1992" />
    <path
       d="m 71.410546,220.16616 -0.02025,-0.0938 m 0,0 -0.02333,-0.0944 m 0,0 -0.02634,-0.0948 m 0,0 -0.0293,-0.0949 m 0,0 -0.03216,-0.0948 m 0,0 -0.03497,-0.0944 m 0,0 -0.03767,-0.0937 m 0,0 -0.04028,-0.0929 m 0,0 -0.0428,-0.0918 m 0,0 -0.0452,-0.0905 m 0,0 -0.04749,-0.0891 m 0,0 -0.04967,-0.0873 m 0,0 -0.05172,-0.0853 m 0,0 -0.05364,-0.0831 m 0,0 -0.05543,-0.0808 m 0,0 -0.05707,-0.0781 m 0,0 -0.05858,-0.0754 m 0,0 -0.05994,-0.0725 m 0,0 -0.06115,-0.0693 m 0,0 -0.06221,-0.0659 m 0,0 -0.06311,-0.0625 m 0,0 -0.06385,-0.0588 m 0,0 -0.06443,-0.055 m 0,0 -0.06485,-0.0511 m 0,0 -0.06512,-0.047 m 0,0 -0.03912,-0.0263"
       style="fill:none;stroke:#000000;stroke-width:0.15;stroke-linecap:round;stroke-linejoin:round;stroke-miterlimit:4;stroke-dasharray:none"
       id="path1994" />
    <path
       d="m 77.153975,214.00627 c 0.04491,-0.0266 0.08734,-0.0444 0.125074,-0.0527 0.03829,-0.008 0.07092,-0.007 0.09631,0.005 0.003,0.001 0.0059,0.003 0.0087,0.004"
       style="fill:none;stroke:#000000;stroke-width:0.15;stroke-linecap:round;stroke-linejoin:round;stroke-miterlimit:4;stroke-dasharray:none"
       id="path1996" />
    <path
       d="m 67.5468,208.28327 -1.39259,-0.80401"
       style="fill:none;stroke:#000000;stroke-width:0.15;stroke-linecap:round;stroke-linejoin:round;stroke-miterlimit:4;stroke-dasharray:none"
       id="path1998" />
    <path
       d="m 79.089343,215.23604 a 0.5,0.5 0 0 0 -0.25,-0.43301"
       style="fill:none;stroke:#000000;stroke-width:0.15;stroke-linecap:round;stroke-linejoin:round;stroke-miterlimit:4;stroke-dasharray:none"
       id="path2000" />
    <path
       d="m 62.811744,209.42439 v 8.49454"
       style="fill:none;stroke:#000000;stroke-width:0.15;stroke-linecap:round;stroke-linejoin:round;stroke-miterlimit:4;stroke-dasharray:none"
       id="path2002" />
    <path
       d="m 63.144543,218.49535 1.251819,0.72274"
       style="fill:none;stroke:#000000;stroke-width:0.15;stroke-linecap:round;stroke-linejoin:round;stroke-miterlimit:4;stroke-dasharray:none"
       id="path2004" />
    <path
       d="m 69.348252,222.07707 6.385325,3.68657"
       style="fill:none;stroke:#000000;stroke-width:0.15;stroke-linecap:round;stroke-linejoin:round;stroke-miterlimit:4;stroke-dasharray:none"
       id="path2006" />
    <path
       d="m 78.826144,224.28191 a 0.5,0.5 0 0 0 0.263199,-0.44037"
       style="fill:none;stroke:#000000;stroke-width:0.15;stroke-linecap:round;stroke-linejoin:round;stroke-miterlimit:4;stroke-dasharray:none"
       id="path2008" />
    <path
       d="m 63.144543,218.49535 c -0.03747,-0.0216 -0.07312,-0.049 -0.106365,-0.0806 -0.03324,-0.0317 -0.06405,-0.0677 -0.09155,-0.10662 -0.0275,-0.0389 -0.05169,-0.0808 -0.07167,-0.12414 -0.01998,-0.0433 -0.03576,-0.088 -0.04656,-0.1326 -0.0108,-0.0446 -0.01665,-0.0892 -0.01665,-0.13243"
       style="fill:none;stroke:#000000;stroke-width:0.15;stroke-linecap:round;stroke-linejoin:round;stroke-miterlimit:4;stroke-dasharray:none"
       id="path2010" />
    <path
       d="m 77.398016,213.97088 c -0.591729,-0.71119 -1.215784,-1.37399 -1.861017,-1.97597 -0.648996,-0.60548 -1.319381,-1.14942 -1.999401,-1.62125 -0.680019,-0.47183 -1.369649,-0.87156 -2.057225,-1.19075 -0.687576,-0.31919 -1.373138,-0.55788 -2.045071,-0.70934 -0.671933,-0.15145 -1.330404,-0.2156 -1.962297,-0.18743"
       style="fill:none;stroke:#000000;stroke-width:0.15;stroke-linecap:round;stroke-linejoin:round;stroke-miterlimit:4;stroke-dasharray:none"
       id="path2012" />
    <path
       d="m 62.938515,209.15832 2.702724,-1.67131"
       style="fill:none;stroke:#000000;stroke-width:0.15;stroke-linecap:round;stroke-linejoin:round;stroke-miterlimit:4;stroke-dasharray:none"
       id="path2014" />
    <path
       d="m 76.027392,225.78689 2.798752,-1.50498"
       style="fill:none;stroke:#000000;stroke-width:0.15;stroke-linecap:round;stroke-linejoin:round;stroke-miterlimit:4;stroke-dasharray:none"
       id="path2016" />
    <path
       d="m 76.027392,225.78689 c -0.01822,0.01 -0.03773,0.0171 -0.05772,0.0219 -0.01999,0.005 -0.04043,0.007 -0.06077,0.007 -0.02034,-9e-5 -0.04057,-0.002 -0.06047,-0.007 -0.0199,-0.004 -0.03946,-0.0103 -0.05862,-0.0179 -0.01916,-0.008 -0.03792,-0.0169 -0.05624,-0.0274"
       style="fill:none;stroke:#000000;stroke-width:0.15;stroke-linecap:round;stroke-linejoin:round;stroke-miterlimit:4;stroke-dasharray:none"
       id="path2018" />
    <path
       d="m 62.811744,209.42439 c 0,-0.0211 0.0014,-0.042 0.0044,-0.0624 0.003,-0.0204 0.0075,-0.0404 0.01381,-0.0597 0.0063,-0.0193 0.01441,-0.038 0.02451,-0.0557 0.01009,-0.0177 0.0222,-0.0343 0.0363,-0.0492 0.0141,-0.0149 0.0302,-0.0282 0.04779,-0.0391"
       style="fill:none;stroke:#000000;stroke-width:0.15;stroke-linecap:round;stroke-linejoin:round;stroke-miterlimit:4;stroke-dasharray:none"
       id="path2020" />
    <path
       d="M 78.839343,214.80303 77.38401,213.96279"
       style="fill:none;stroke:#000000;stroke-width:0.15;stroke-linecap:round;stroke-linejoin:round;stroke-miterlimit:4;stroke-dasharray:none"
       id="path2022" />
    <path
       d="m 66.15421,207.47926 a 0.5,0.5 0 0 0 -0.512971,0.008"
       style="fill:none;stroke:#000000;stroke-width:0.15;stroke-linecap:round;stroke-linejoin:round;stroke-miterlimit:4;stroke-dasharray:none"
       id="path2024" />
    <path
       d="m 79.089343,223.84154 v -8.6055"
       style="fill:none;stroke:#000000;stroke-width:0.15;stroke-linecap:round;stroke-linejoin:round;stroke-miterlimit:4;stroke-dasharray:none"
       id="path2026" />
    <path
       d="m 65.140353,216.63219 -0.565686,-0.3266"
       style="fill:none;stroke:#000000;stroke-width:0.15;stroke-linecap:round;stroke-linejoin:round;stroke-miterlimit:4;stroke-dasharray:none"
       id="path2028" />
    <path
       d="m 64.574667,215.97899 0.565686,0.3266"
       style="fill:none;stroke:#000000;stroke-width:0.15;stroke-linecap:round;stroke-linejoin:round;stroke-miterlimit:4;stroke-dasharray:none"
       id="path2030" />
    <path
       d="m 65.140353,217.28539 v -0.6532"
       style="fill:none;stroke:#000000;stroke-width:0.15;stroke-linecap:round;stroke-linejoin:round;stroke-miterlimit:4;stroke-dasharray:none"
       id="path2034" />
    <path
       d="m 65.423195,217.44869 -0.282842,-0.1633"
       style="fill:none;stroke:#000000;stroke-width:0.15;stroke-linecap:round;stroke-linejoin:round;stroke-miterlimit:4;stroke-dasharray:none"
       id="path2036" />
    <path
       d="m 65.988881,217.12209 -0.565686,-0.3266"
       style="fill:none;stroke:#000000;stroke-width:0.15;stroke-linecap:round;stroke-linejoin:round;stroke-miterlimit:4;stroke-dasharray:none"
       id="path2038" />
    <path
       d="m 65.423195,215.81569 v 0.6532"
       style="fill:none;stroke:#000000;stroke-width:0.15;stroke-linecap:round;stroke-linejoin:round;stroke-miterlimit:4;stroke-dasharray:none"
       id="path2040" />
    <path
       d="m 65.423195,216.79549 v 0.6532"
       style="fill:none;stroke:#000000;stroke-width:0.15;stroke-linecap:round;stroke-linejoin:round;stroke-miterlimit:4;stroke-dasharray:none"
       id="path2042" />
    <path
       d="m 65.140353,216.30559 v -0.6532"
       style="fill:none;stroke:#000000;stroke-width:0.15;stroke-linecap:round;stroke-linejoin:round;stroke-miterlimit:4;stroke-dasharray:none"
       id="path2044" />
    <path
       d="m 65.988881,216.79549 v 0.3266"
       style="fill:none;stroke:#000000;stroke-width:0.15;stroke-linecap:round;stroke-linejoin:round;stroke-miterlimit:4;stroke-dasharray:none"
       id="path2050" />
    <path
       d="m 65.140353,215.65239 0.282842,0.1633"
       style="fill:none;stroke:#000000;stroke-width:0.15;stroke-linecap:round;stroke-linejoin:round;stroke-miterlimit:4;stroke-dasharray:none"
       id="path2052" />
    <path
       d="m 64.574667,216.30559 v -0.3266"
       style="fill:none;stroke:#000000;stroke-width:0.15;stroke-linecap:round;stroke-linejoin:round;stroke-miterlimit:4;stroke-dasharray:none"
       id="path2054" />
    <path
       d="m 65.423195,216.46889 0.565686,0.3266"
       style="fill:none;stroke:#000000;stroke-width:0.15;stroke-linecap:round;stroke-linejoin:round;stroke-miterlimit:4;stroke-dasharray:none"
       id="path2056" />
    <path
       d="m 73.413502,221.4087 -0.565686,-0.3266"
       style="fill:none;stroke:#000000;stroke-width:0.15;stroke-linecap:round;stroke-linejoin:round;stroke-miterlimit:4;stroke-dasharray:none"
       id="path2068" />
    <path
       d="m 72.847816,220.7555 0.565686,0.3266"
       style="fill:none;stroke:#000000;stroke-width:0.15;stroke-linecap:round;stroke-linejoin:round;stroke-miterlimit:4;stroke-dasharray:none"
       id="path2070" />
    <path
       d="m 73.413502,222.06189 v -0.6532"
       style="fill:none;stroke:#000000;stroke-width:0.15;stroke-linecap:round;stroke-linejoin:round;stroke-miterlimit:4;stroke-dasharray:none"
       id="path2074" />
    <path
       d="m 73.696345,222.22519 -0.282843,-0.1633"
       style="fill:none;stroke:#000000;stroke-width:0.15;stroke-linecap:round;stroke-linejoin:round;stroke-miterlimit:4;stroke-dasharray:none"
       id="path2076" />
    <path
       d="m 74.26203,221.89859 -0.565685,-0.3266"
       style="fill:none;stroke:#000000;stroke-width:0.15;stroke-linecap:round;stroke-linejoin:round;stroke-miterlimit:4;stroke-dasharray:none"
       id="path2078" />
    <path
       d="m 73.696345,220.5922 v 0.6532"
       style="fill:none;stroke:#000000;stroke-width:0.15;stroke-linecap:round;stroke-linejoin:round;stroke-miterlimit:4;stroke-dasharray:none"
       id="path2080" />
    <path
       d="m 73.696345,221.57199 v 0.6532"
       style="fill:none;stroke:#000000;stroke-width:0.15;stroke-linecap:round;stroke-linejoin:round;stroke-miterlimit:4;stroke-dasharray:none"
       id="path2082" />
    <path
       d="m 73.413502,221.0821 v -0.6532"
       style="fill:none;stroke:#000000;stroke-width:0.15;stroke-linecap:round;stroke-linejoin:round;stroke-miterlimit:4;stroke-dasharray:none"
       id="path2084" />
    <path
       d="m 74.26203,221.57199 v 0.3266"
       style="fill:none;stroke:#000000;stroke-width:0.15;stroke-linecap:round;stroke-linejoin:round;stroke-miterlimit:4;stroke-dasharray:none"
       id="path2090" />
    <path
       d="m 73.413502,220.4289 0.282843,0.1633"
       style="fill:none;stroke:#000000;stroke-width:0.15;stroke-linecap:round;stroke-linejoin:round;stroke-miterlimit:4;stroke-dasharray:none"
       id="path2092" />
    <path
       d="m 72.847816,221.0821 v -0.3266"
       style="fill:none;stroke:#000000;stroke-width:0.15;stroke-linecap:round;stroke-linejoin:round;stroke-miterlimit:4;stroke-dasharray:none"
       id="path2094" />
    <path
       d="m 73.696345,221.24539 0.565685,0.3266"
       style="fill:none;stroke:#000000;stroke-width:0.15;stroke-linecap:round;stroke-linejoin:round;stroke-miterlimit:4;stroke-dasharray:none"
       id="path2096" />
    <path
       d="m 67.783235,217.26268 c 0.05659,-0.0327 0.122489,-0.0763 0.193322,-0.13099"
       style="fill:none;stroke:#000000;stroke-width:0.15;stroke-linecap:round;stroke-linejoin:round;stroke-miterlimit:4;stroke-dasharray:none"
       id="path2114" />
    <path
       d="M 71.04119,221.09965 36.891432,240.81602"
       style="fill:none;stroke:#000000;stroke-width:0.15;stroke-linecap:round;stroke-linejoin:round;stroke-miterlimit:4;stroke-dasharray:none"
       id="path2116" />
    <path
       d="m 34.409345,236.5311 33.37389,-19.26842"
       style="fill:none;stroke:#000000;stroke-width:0.15;stroke-linecap:round;stroke-linejoin:round;stroke-miterlimit:4;stroke-dasharray:none"
       id="path2118" />
    <path
       d="m 4.069259,253.47039 1.86048,1.07415"
       style="fill:none;stroke:#000000;stroke-width:0.15;stroke-linecap:round;stroke-linejoin:round;stroke-miterlimit:4;stroke-dasharray:none"
       id="path2120" />
    <path
       d="m 6.334844,254.77843 1.860481,1.07415"
       style="fill:none;stroke:#000000;stroke-width:0.15;stroke-linecap:round;stroke-linejoin:round;stroke-miterlimit:4;stroke-dasharray:none"
       id="path2122" />
    <path
       d="m 5.495896,258.28581 0.127628,0.10675 m 0,0 0.1289,0.10008 m 0,0 0.129849,0.0931 m 0,0 0.130474,0.086 m 0,0 0.130773,0.0786 m 0,0 0.130745,0.0711 m 0,0 0.130391,0.0633 m 0,0 0.129709,0.0554 m 0,0 0.128704,0.0474 m 0,0 0.105619,0.0331"
       style="fill:none;stroke:#000000;stroke-width:0.15;stroke-linecap:round;stroke-linejoin:round;stroke-miterlimit:4;stroke-dasharray:none"
       id="path2124" />
    <path
       d="m 6.334844,256.90132 v -2.12289"
       style="fill:none;stroke:#000000;stroke-width:0.15;stroke-linecap:round;stroke-linejoin:round;stroke-miterlimit:4;stroke-dasharray:none"
       id="path2126" />
    <path
       d="m 4.069259,255.59328 1.838477,-1.06144"
       style="fill:none;stroke:#000000;stroke-width:0.15;stroke-linecap:round;stroke-linejoin:round;stroke-miterlimit:4;stroke-dasharray:none"
       id="path2128" />
    <path
       d="m 6.768688,257.96829 v 1.05236"
       style="fill:none;stroke:#000000;stroke-width:0.15;stroke-linecap:round;stroke-linejoin:round;stroke-miterlimit:4;stroke-dasharray:none"
       id="path2130" />
    <path
       d="m 15.05336,254.84474 0.09015,-0.0574 m 0,0 0.0853,-0.0652 m 0,0 0.08024,-0.073 m 0,0 0.07497,-0.0805 m 0,0 0.06952,-0.0878 m 0,0 0.0639,-0.0949 m 0,0 0.05812,-0.10176 m 0,0 0.05219,-0.10836 m 0,0 0.04613,-0.1147 m 0,0 0.03995,-0.12076 m 0,0 0.03368,-0.1265 m 0,0 0.02732,-0.13193 m 0,0 0.02089,-0.13704 m 0,0 0.01441,-0.14179 m 0,0 0.0079,-0.14621 m 0,0 0.0014,-0.15024 m 0,0 -0.0052,-0.15391 m 0,0 -0.0117,-0.15718 m 0,0 -0.0182,-0.16008 m 0,0 -0.02465,-0.16256 m 0,0 -0.03104,-0.16464 m 0,0 -0.03735,-0.16632 m 0,0 -0.04357,-0.16756 m 0,0 -0.04968,-0.1684 m 0,0 -0.05567,-0.16882 m 0,0 -0.06151,-0.1688 m 0,0 L 15.41365,251.3 m 0,0 -0.07273,-0.16753 m 0,0 -0.07807,-0.16625 m 0,0 -0.08322,-0.16457 m 0,0 -0.08816,-0.16248 m 0,0 -0.09288,-0.15997 m 0,0 -0.09737,-0.15707 m 0,0 -0.101609,-0.15378 m 0,0 -0.105599,-0.15009 m 0,0 -0.109324,-0.14604 m 0,0 -0.112777,-0.14162 m 0,0 -0.115948,-0.13685 m 0,0 -0.118829,-0.13173 m 0,0 -0.121412,-0.12629 m 0,0 -0.123693,-0.12053 m 0,0 -0.125663,-0.11446 m 0,0 -0.127321,-0.10812 m 0,0 -0.12866,-0.1015 m 0,0 -0.129677,-0.0946 m 0,0 -0.13037,-0.0875 m 0,0 -0.130738,-0.0802 m 0,0 -0.130778,-0.0727 m 0,0 -0.130492,-0.065 m 0,0 -0.129879,-0.0571 m 0,0 -0.128942,-0.0491 m 0,0 -0.127682,-0.0409 m 0,0 -0.126104,-0.0327 m 0,0 -0.12421,-0.0244 m 0,0 -0.122006,-0.016 m 0,0 -0.119497,-0.008 m 0,0 -0.116689,8.7e-4 m 0,0 -0.113589,0.009 m 0,0 -0.110206,0.0177 m 0,0 -0.106547,0.0261 m 0,0 -0.102621,0.0344 m 0,0 -0.09844,0.0426 m 0,0 -0.07852,0.0416"
       style="fill:none;stroke:#000000;stroke-width:0.15;stroke-linecap:round;stroke-linejoin:round;stroke-miterlimit:4;stroke-dasharray:none"
       id="path2132" />
    <path
       d="m 5.929739,254.54454 v 2.12289"
       style="fill:none;stroke:#000000;stroke-width:0.15;stroke-linecap:round;stroke-linejoin:round;stroke-miterlimit:4;stroke-dasharray:none"
       id="path2134" />
    <path
       d="m 6.768688,257.96829 1.412994,0.8158"
       style="fill:none;stroke:#000000;stroke-width:0.15;stroke-linecap:round;stroke-linejoin:round;stroke-miterlimit:4;stroke-dasharray:none"
       id="path2136" />
    <path
       d="m 8.181682,258.78409 5.544032,-3.20085"
       style="fill:none;stroke:#000000;stroke-width:0.15;stroke-linecap:round;stroke-linejoin:round;stroke-miterlimit:4;stroke-dasharray:none"
       id="path2138" />
    <path
       d="m 6.768688,259.02065 0.91137,-0.52618"
       style="fill:none;stroke:#000000;stroke-width:0.15;stroke-linecap:round;stroke-linejoin:round;stroke-miterlimit:4;stroke-dasharray:none"
       id="path2140" />
    <path
       d="m 13.725714,255.58324 0.07102,-0.0219 m 0,0 0.05945,-0.0259 m 0,0 0.01514,-0.008"
       style="fill:none;stroke:#000000;stroke-width:0.15;stroke-linecap:round;stroke-linejoin:round;stroke-miterlimit:4;stroke-dasharray:none"
       id="path2142" />
    <path
       d="m 4.282292,252.51864 -0.09015,0.0574 m 0,0 -0.0853,0.0652 m 0,0 -0.08024,0.073 m 0,0 -0.07497,0.0805 m 0,0 -0.06952,0.0878 m 0,0 -0.0639,0.0949 m 0,0 -0.05812,0.10176 m 0,0 -0.05219,0.10837 m 0,0 -0.04613,0.1147 m 0,0 -0.03995,0.12075 m 0,0 -0.03368,0.1265 m 0,0 -0.02732,0.13194 m 0,0 -0.02089,0.13703 m 0,0 -0.01441,0.1418 m 0,0 -0.0079,0.1462 m 0,0 -0.0014,0.15024 m 0,0 0.0052,0.15391 m 0,0 0.0117,0.15719 m 0,0 0.0182,0.16007 m 0,0 0.02465,0.16256 m 0,0 0.03104,0.16465 m 0,0 0.03735,0.16631 m 0,0 0.04357,0.16757 m 0,0 0.04968,0.1684 m 0,0 0.05567,0.16881 m 0,0 0.06151,0.16881 m 0,0 0.06721,0.16838 m 0,0 0.07273,0.16752 m 0,0 0.07807,0.16626 m 0,0 0.01006,0.0205"
       style="fill:none;stroke:#000000;stroke-width:0.15;stroke-linecap:round;stroke-linejoin:round;stroke-miterlimit:4;stroke-dasharray:none"
       id="path2144" />
    <path
       d="m 8.181682,258.78409 0.07872,-0.0752 m 0,0 0.0734,-0.0826 m 0,0 0.0679,-0.0899 m 0,0 0.06223,-0.0969 m 0,0 0.0564,-0.10371 m 0,0 0.05043,-0.11025 m 0,0 0.04434,-0.11649 m 0,0 0.03813,-0.12247 m 0,0 0.03183,-0.12811 m 0,0 0.02545,-0.13346 m 0,0 0.019,-0.13846 m 0,0 0.01251,-0.14312 m 0,0 0.006,-0.14742 m 0,0 -5.48e-4,-0.15135 m 0,0 -0.0071,-0.15491 m 0,0 -0.0136,-0.15807 m 0,0 -0.02009,-0.16084 m 0,0 -0.02652,-0.16321 m 0,0 -0.03289,-0.16517 m 0,0 -0.03918,-0.16672 m 0,0 -0.04537,-0.16786 m 0,0 -0.05144,-0.16856 m 0,0 -0.05739,-0.16886 m 0,0 -0.06319,-0.16872 m 0,0 -0.06884,-0.16818 m 0,0 -0.07431,-0.16719 m 0,0 -0.0796,-0.16581 m 0,0 -0.08468,-0.164 m 0,0 -0.08956,-0.16179 m 0,0 -0.09421,-0.15917 m 0,0 -0.09863,-0.15614 m 0,0 -0.102799,-0.15275 m 0,0 -0.106714,-0.14895 m 0,0 -0.11036,-0.14479 m 0,0 -0.113732,-0.14026 m 0,0 -0.116818,-0.13539 m 0,0 -0.119614,-0.13018 m 0,0 -0.122109,-0.12464 m 0,0 -0.1243,-0.11878 m 0,0 -0.12618,-0.11265 m 0,0 -0.127744,-0.10621 m 0,0 -0.12899,-0.0995 m 0,0 -0.129913,-0.0926 m 0,0 -0.130511,-0.0854 m 0,0 -0.130783,-0.078 m 0,0 -0.130728,-0.0704 m 0,0 -0.130347,-0.0627 m 0,0 -0.129639,-0.0548 m 0,0 -0.128608,-0.0467 m 0,0 -0.127255,-0.0385 m 0,0 -0.125583,-0.0303 m 0,0 -0.123599,-0.0219 m 0,0 -0.121305,-0.0135 m 0,0 -0.118708,-0.005 m 0,0 -0.115815,0.003 m 0,0 -0.112631,0.0118 m 0,0 -0.109166,0.0202 m 0,0 -0.105429,0.0285 m 0,0 -0.101428,0.0368 m 0,0 -0.09717,0.045 m 0,0 -0.05063,0.0277"
       style="fill:none;stroke:#000000;stroke-width:0.15;stroke-linecap:round;stroke-linejoin:round;stroke-miterlimit:4;stroke-dasharray:none"
       id="path2146" />
    <path
       d="m 5.495896,258.28581 v -1.05236"
       style="fill:none;stroke:#000000;stroke-width:0.15;stroke-linecap:round;stroke-linejoin:round;stroke-miterlimit:4;stroke-dasharray:none"
       id="path2148" />
    <path
       d="m 8.195325,257.97547 0.04336,-0.0953 m 0,0 0.0381,-0.10074 m 0,0 0.03274,-0.10589 m 0,0 0.0273,-0.11075 m 0,0 0.02179,-0.11536 m 0,0 0.01622,-0.11967 m 0,0 0.01062,-0.12367 m 0,0 0.005,-0.12738 m 0,0 -6.58e-4,-0.13076 m 0,0 -0.0063,-0.13382 m 0,0 -0.01193,-0.13654 m 0,0 -0.01752,-0.13893 m 0,0 -0.02308,-0.14095 m 0,0 -0.02857,-0.14264 m 0,0 -0.034,-0.14396 m 0,0 -0.03934,-0.14493 m 0,0 -0.03372,-0.11156"
       style="fill:none;stroke:#000000;stroke-width:0.15;stroke-linecap:round;stroke-linejoin:round;stroke-miterlimit:4;stroke-dasharray:none"
       id="path2150" />
    <path
       d="M 8.195325,257.97547 6.334844,256.90132"
       style="fill:none;stroke:#000000;stroke-width:0.15;stroke-linecap:round;stroke-linejoin:round;stroke-miterlimit:4;stroke-dasharray:none"
       id="path2152" />
    <path
       d="m 4.082902,256.41766 1.412994,0.81579"
       style="fill:none;stroke:#000000;stroke-width:0.15;stroke-linecap:round;stroke-linejoin:round;stroke-miterlimit:4;stroke-dasharray:none"
       id="path2154" />
    <path
       d="m 4.069259,253.47039 -0.04336,0.0953 m 0,0 -0.0381,0.10074 m 0,0 -0.03274,0.10588 m 0,0 -0.0273,0.11076 m 0,0 -0.02179,0.11536 m 0,0 -0.01622,0.11966 m 0,0 -0.01062,0.12368 m 0,0 -0.005,0.12738 m 0,0 6.58e-4,0.13076 m 0,0 0.0063,0.13382 m 0,0 0.01193,0.13654 m 0,0 0.01753,0.13892 m 0,0 0.02308,0.14096 m 0,0 0.02857,0.14264 m 0,0 0.034,0.14396 m 0,0 0.03934,0.14493 m 0,0 0.03372,0.11155"
       style="fill:none;stroke:#000000;stroke-width:0.15;stroke-linecap:round;stroke-linejoin:round;stroke-miterlimit:4;stroke-dasharray:none"
       id="path2156" />
    <path
       d="m 6.334844,256.90132 1.838478,-1.06145"
       style="fill:none;stroke:#000000;stroke-width:0.15;stroke-linecap:round;stroke-linejoin:round;stroke-miterlimit:4;stroke-dasharray:none"
       id="path2158" />
    <path
       d="m 5.929739,256.66743 -1.86048,-1.07415"
       style="fill:none;stroke:#000000;stroke-width:0.15;stroke-linecap:round;stroke-linejoin:round;stroke-miterlimit:4;stroke-dasharray:none"
       id="path2160" />
    <path
       d="m 15.05336,254.84474 -1.182041,0.68245"
       style="fill:none;stroke:#000000;stroke-width:0.15;stroke-linecap:round;stroke-linejoin:round;stroke-miterlimit:4;stroke-dasharray:none"
       id="path2162" />
    <path
       d="m 11.35336,248.43615 -7.071068,4.08249"
       style="fill:none;stroke:#000000;stroke-width:0.15;stroke-linecap:round;stroke-linejoin:round;stroke-miterlimit:4;stroke-dasharray:none"
       id="path2164" />
    <path
       d="m 33.015104,244.28885 0.08567,-0.0558 m 0,0 0.08101,-0.0633 m 0,0 0.07614,-0.0707 m 0,0 0.07108,-0.0778 m 0,0 0.06585,-0.0848 m 0,0 0.06045,-0.0916 m 0,0 0.04604,-0.0811"
       style="fill:none;stroke:#000000;stroke-width:0.15;stroke-linecap:round;stroke-linejoin:round;stroke-miterlimit:4;stroke-dasharray:none"
       id="path2166" />
    <path
       d="m 32.628114,244.43503 0.102154,-0.0244 m 0,0 0.09841,-0.0324 m 0,0 0.09443,-0.0403 m 0,0 0.09021,-0.048 m 0,0 0.0018,-0.001"
       style="fill:none;stroke:#000000;stroke-width:0.15;stroke-linecap:round;stroke-linejoin:round;stroke-miterlimit:4;stroke-dasharray:none"
       id="path2168" />
    <path
       d="m 31.234583,237.39974 c 0.04244,0.001 0.0967,3.4e-4 0.157474,-0.005 0.0614,-0.005 0.129453,-0.014 0.19453,-0.0265 0.06177,-0.0119 0.128574,-0.0284 0.190442,-0.0491 0.06187,-0.0206 0.11878,-0.0454 0.163783,-0.0709 2.93e-4,-1.6e-4 5.85e-4,-3.3e-4 8.77e-4,-5e-4"
       style="fill:none;stroke:#000000;stroke-width:0.15;stroke-linecap:round;stroke-linejoin:round;stroke-miterlimit:4;stroke-dasharray:none"
       id="path2170" />
    <path
       d="m 29.501522,246.3678 0.08673,-0.0565 m 0,0 0.08201,-0.0641 m 0,0 0.07708,-0.0716 m 0,0 0.07196,-0.0788 m 0,0 0.06666,-0.0859 m 0,0 0.06119,-0.0927 m 0,0 0.05268,-0.0937"
       style="fill:none;stroke:#000000;stroke-width:0.15;stroke-linecap:round;stroke-linejoin:round;stroke-miterlimit:4;stroke-dasharray:none"
       id="path2172" />
    <path
       d="m 29.114974,246.51475 0.103231,-0.0251 m 0,0 0.09943,-0.0332 m 0,0 0.09539,-0.0412 m 0,0 0.08849,-0.0475"
       style="fill:none;stroke:#000000;stroke-width:0.15;stroke-linecap:round;stroke-linejoin:round;stroke-miterlimit:4;stroke-dasharray:none"
       id="path2174" />
    <path
       d="m 29.820369,240.06878 c -2.89e-4,1.6e-4 -5.77e-4,3.2e-4 -8.64e-4,4.9e-4 -0.04477,0.0255 -0.08326,0.0609 -0.10851,0.10262 -0.02504,0.0414 -0.03706,0.089 -0.03707,0.1361"
       style="fill:none;stroke:#000000;stroke-width:0.15;stroke-linecap:round;stroke-linejoin:round;stroke-miterlimit:4;stroke-dasharray:none"
       id="path2176" />
    <path
       d="m 29.673922,240.30799 c 0,3.9e-4 10e-7,7.9e-4 3e-6,0.001 1.99e-4,0.05 0.01384,0.1059 0.04,0.16116 0.0259,0.0547 0.06397,0.10885 0.10644,0.15609"
       style="fill:none;stroke:#000000;stroke-width:0.15;stroke-linecap:round;stroke-linejoin:round;stroke-miterlimit:4;stroke-dasharray:none"
       id="path2178" />
    <path
       d="m 33.284916,242.00563 c 0.04345,-0.0256 0.08713,-0.0641 0.124144,-0.11217 0.03726,-0.0483 0.0677,-0.10627 0.08804,-0.1645 0.02215,-0.0634 0.03536,-0.1357 0.03609,-0.20758 7.24e-4,-0.0719 -0.01107,-0.14336 -0.03123,-0.20543 -2.02e-4,-6.2e-4 -4.05e-4,-10e-4 -6.09e-4,-0.002"
       style="fill:none;stroke:#000000;stroke-width:0.15;stroke-linecap:round;stroke-linejoin:round;stroke-miterlimit:4;stroke-dasharray:none"
       id="path2180" />
    <path
       d="m 31.941689,237.24817 c 0.04384,-0.0249 0.08177,-0.0534 0.10712,-0.0814 0.02552,-0.0282 0.0383,-0.0559 0.03926,-0.0788 4.2e-5,-9.9e-4 6.2e-5,-0.002 5.9e-5,-0.003"
       style="fill:none;stroke:#000000;stroke-width:0.15;stroke-linecap:round;stroke-linejoin:round;stroke-miterlimit:4;stroke-dasharray:none"
       id="path2182" />
    <path
       d="m 32.088132,237.08498 c -5.2e-5,-0.0237 -0.01279,-0.0451 -0.03748,-0.06 -0.02572,-0.0155 -0.06432,-0.024 -0.107648,-0.0256 -4.36e-4,-1e-5 -8.74e-4,-3e-5 -0.0013,-4e-5"
       style="fill:none;stroke:#000000;stroke-width:0.15;stroke-linecap:round;stroke-linejoin:round;stroke-miterlimit:4;stroke-dasharray:none"
       id="path2184" />
    <path
       d="m 31.234582,237.39974 -0.111454,1.2e-4 m 0,0 -0.108525,0.008 m 0,0 -0.105324,0.0162 m 0,0 -0.101859,0.0242 m 0,0 -0.09814,0.0321 m 0,0 -0.09418,0.0399 m 0,0 -0.07204,0.0374"
       style="fill:none;stroke:#000000;stroke-width:0.15;stroke-linecap:round;stroke-linejoin:round;stroke-miterlimit:4;stroke-dasharray:none"
       id="path2186" />
    <path
       d="m 30.555597,245.74412 0.08641,-0.0563 m 0,0 0.08171,-0.0639 m 0,0 0.0768,-0.0713 m 0,0 0.0717,-0.0785 m 0,0 0.06642,-0.0856 m 0,0 0.06097,-0.0924 m 0,0 0.05537,-0.099 m 0,0 0.04964,-0.10533 m 0,0 0.04377,-0.1114 m 0,0 0.0378,-0.1172 m 0,0 0.03174,-0.12271 m 0,0 0.02559,-0.12792 m 0,0 0.01939,-0.1328 m 0,0 0.01313,-0.13735 m 0,0 0.0068,-0.14156 m 0,0 5.33e-4,-0.14541 m 0,0 -0.0058,-0.14891 m 0,0 -0.01207,-0.15202 m 0,0 -0.01833,-0.15476 m 0,0 -0.02455,-0.15711 m 0,0 -0.0307,-0.15907 m 0,0 -0.03678,-0.16063 m 0,0 -0.04277,-0.16179 m 0,0 -0.04865,-0.16255 m 0,0 -0.05441,-0.16289 m 0,0 -0.06003,-0.16284 m 0,0 -0.06551,-0.16238 m 0,0 -0.07082,-0.1615 m 0,0 -0.07595,-0.16023 m 0,0 -0.08089,-0.15855 m 0,0 -0.08563,-0.15648 m 0,0 -0.09016,-0.15402 m 0,0 -0.09446,-0.15117 m 0,0 -0.09852,-0.14794 m 0,0 -0.102341,-0.14436 m 0,0 -0.105903,-0.14039 m 0,0 -0.109202,-0.13609 m 0,0 -0.112226,-0.13144 m 0,0 -0.03735,-0.042"
       style="fill:none;stroke:#000000;stroke-width:0.15;stroke-linecap:round;stroke-linejoin:round;stroke-miterlimit:4;stroke-dasharray:none"
       id="path2188" />
    <path
       d="m 31.254509,237.15708 -0.08626,0.0536 m 0,0 -0.08167,0.0611 m 0,0 -0.07688,0.0685 m 0,0 -0.0719,0.0756 m 0,0 -0.0031,0.004"
       style="fill:none;stroke:#000000;stroke-width:0.15;stroke-linecap:round;stroke-linejoin:round;stroke-miterlimit:4;stroke-dasharray:none"
       id="path2190" />
    <path
       d="m 31.941689,236.99937 -0.111113,3.1e-4 m 0,0 -0.108185,0.008 m 0,0 -0.104986,0.0163 m 0,0 -0.101524,0.0243 m 0,0 -0.09781,0.0322 m 0,0 -0.09385,0.04 m 0,0 -0.06972,0.0362"
       style="fill:none;stroke:#000000;stroke-width:0.15;stroke-linecap:round;stroke-linejoin:round;stroke-miterlimit:4;stroke-dasharray:none"
       id="path2192" />
    <path
       d="m 33.355903,238.06467 c -2.92e-4,1.7e-4 -5.84e-4,3.3e-4 -8.75e-4,5e-4 -0.04478,0.0256 -0.08328,0.061 -0.108518,0.10277 -0.02503,0.0414 -0.03704,0.0892 -0.03705,0.13646"
       style="fill:none;stroke:#000000;stroke-width:0.15;stroke-linecap:round;stroke-linejoin:round;stroke-miterlimit:4;stroke-dasharray:none"
       id="path2194" />
    <path
       d="m 33.209456,238.3044 c 0,4e-4 10e-7,7.9e-4 3e-6,0.001 2.01e-4,0.0502 0.01387,0.10639 0.04005,0.16194 0.02591,0.055 0.06397,0.10942 0.106396,0.15695"
       style="fill:none;stroke:#000000;stroke-width:0.15;stroke-linecap:round;stroke-linejoin:round;stroke-miterlimit:4;stroke-dasharray:none"
       id="path2196" />
    <path
       d="m 33.501346,243.76358 c 2.04e-4,-3.9e-4 4.07e-4,-7.7e-4 6.09e-4,-10e-4 0.02017,-0.0384 0.03196,-0.0762 0.03123,-0.10628 -6.95e-4,-0.0289 -0.01291,-0.0507 -0.0335,-0.0626"
       style="fill:none;stroke:#000000;stroke-width:0.15;stroke-linecap:round;stroke-linejoin:round;stroke-miterlimit:4;stroke-dasharray:none"
       id="path2198" />
    <path
       d="m 33.499691,243.59352 c -8.49e-4,-4.9e-4 -0.0017,-9.7e-4 -0.0026,-0.001 -0.02034,-0.0106 -0.05078,-0.0135 -0.08804,-0.005 -0.03702,0.008 -0.08069,0.0265 -0.124144,0.052"
       style="fill:none;stroke:#000000;stroke-width:0.15;stroke-linecap:round;stroke-linejoin:round;stroke-miterlimit:4;stroke-dasharray:none"
       id="path2200" />
    <path
       d="m 29.781526,245.69842 c -2.84e-4,1.7e-4 -5.68e-4,3.3e-4 -8.52e-4,5e-4 -0.0445,0.0263 -0.09437,0.0632 -0.143062,0.10646 -0.04869,0.0433 -0.09629,0.093 -0.137268,0.1407 -0.04309,0.0502 -0.08459,0.10474 -0.119251,0.15563 -0.03431,0.0504 -0.06203,0.0971 -0.08157,0.13492"
       style="fill:none;stroke:#000000;stroke-width:0.15;stroke-linecap:round;stroke-linejoin:round;stroke-miterlimit:4;stroke-dasharray:none"
       id="path2202" />
    <path
       d="m 34.771896,243.24937 0.08514,-0.0555 m 0,0 0.08051,-0.063 m 0,0 0.07567,-0.0703 m 0,0 0.07065,-0.0774 m 0,0 0.06544,-0.0843 m 0,0 0.06008,-0.091 m 0,0 0.05456,-0.0975 m 0,0 0.04891,-0.10377 m 0,0 0.04313,-0.10977 m 0,0 0.03725,-0.11549 m 0,0 0.03127,-0.12091 m 0,0 0.02522,-0.12604 m 0,0 0.0191,-0.13085 m 0,0 0.01294,-0.13534 m 0,0 0.0067,-0.13948 m 0,0 5.25e-4,-0.14328 m 0,0 -0.0057,-0.14672 m 0,0 -0.01189,-0.14979 m 0,0 -0.01806,-0.15249 m 0,0 -0.02419,-0.15481 m 0,0 -0.03025,-0.15673 m 0,0 -0.03624,-0.15828 m 0,0 -0.04214,-0.15942 m 0,0 -0.04794,-0.16016 m 0,0 -0.05361,-0.16051 m 0,0 -0.05915,-0.16045 m 0,0 -0.06455,-0.15999 m 0,0 -0.06978,-0.15913 m 0,0 -0.07483,-0.15788 m 0,0 -0.07971,-0.15622 m 0,0 -0.08438,-0.15419 m 0,0 -0.08883,-0.15176 m 0,0 -0.09307,-0.14895 m 0,0 -0.09708,-0.14578 m 0,0 -0.10084,-0.14223 m 0,0 -0.10435,-0.13834 m 0,0 -0.107599,-0.13409 m 0,0 -0.110581,-0.12952 m 0,0 -0.02125,-0.024"
       style="fill:none;stroke:#000000;stroke-width:0.15;stroke-linecap:round;stroke-linejoin:round;stroke-miterlimit:4;stroke-dasharray:none"
       id="path2204" />
    <path
       d="m 34.38468,243.39516 0.101614,-0.0241 m 0,0 0.09791,-0.032 m 0,0 0.09395,-0.0398 m 0,0 0.08976,-0.0475 m 0,0 0.004,-0.002"
       style="fill:none;stroke:#000000;stroke-width:0.15;stroke-linecap:round;stroke-linejoin:round;stroke-miterlimit:4;stroke-dasharray:none"
       id="path2206" />
    <path
       d="m 25.918685,240.16215 -0.08786,0.0546 m 0,0 -0.08319,0.0623 m 0,0 -0.07831,0.0697 m 0,0 -0.07117,0.0747"
       style="fill:none;stroke:#000000;stroke-width:0.15;stroke-linecap:round;stroke-linejoin:round;stroke-miterlimit:4;stroke-dasharray:none"
       id="path2208" />
    <path
       d="m 29.999832,243.37497 -0.05589,-0.16352 m 0,0 -0.0615,-0.16336 m 0,0 -0.06695,-0.16281 m 0,0 -0.07225,-0.16184 m 0,0 -0.07735,-0.16048 m 0,0 -0.08227,-0.1587 m 0,0 -0.08698,-0.15654 m 0,0 -0.09147,-0.15397 m 0,0 -0.09574,-0.15104 m 0,0 -0.09976,-0.14771 m 0,0 -0.103539,-0.14402 m 0,0 -0.107056,-0.13997 m 0,0 -0.110305,-0.13558 m 0,0 -0.113279,-0.13083 m 0,0 -0.11597,-0.12577 m 0,0 -0.11837,-0.12039 m 0,0 -0.120475,-0.1147 m 0,0 -0.122279,-0.10874 m 0,0 -0.123777,-0.1025 m 0,0 -0.124966,-0.096 m 0,0 -0.125841,-0.0893 m 0,0 -0.126404,-0.0823 m 0,0 -0.12665,-0.0751 m 0,0 -0.126578,-0.0678 m 0,0 -0.126192,-0.0603 m 0,0 -0.125489,-0.0526 m 0,0 -0.124473,-0.0448 m 0,0 -0.123146,-0.0369 m 0,0 -0.121511,-0.0289 m 0,0 -0.119572,-0.0208 m 0,0 -0.117334,-0.0127 m 0,0 L 26.571663,240 m 0,0 -0.111986,0.004 m 0,0 -0.108887,0.0118 m 0,0 -0.105518,0.02 m 0,0 -0.101884,0.0281 m 0,0 -0.09799,0.0361 m 0,0 -0.09386,0.044 m 0,0 -0.03284,0.0178"
       style="fill:none;stroke:#000000;stroke-width:0.15;stroke-linecap:round;stroke-linejoin:round;stroke-miterlimit:4;stroke-dasharray:none"
       id="path2210" />
    <path
       d="m 27.699049,239.40167 c 0.04249,0.002 0.09679,0.001 0.157578,-0.004 0.06141,-0.005 0.129429,-0.0135 0.194445,-0.0258 0.0618,-0.0117 0.128608,-0.0282 0.19047,-0.0487 0.06186,-0.0206 0.118759,-0.0453 0.163747,-0.0707 2.89e-4,-1.7e-4 5.78e-4,-3.3e-4 8.66e-4,-4.9e-4"
       style="fill:none;stroke:#000000;stroke-width:0.15;stroke-linecap:round;stroke-linejoin:round;stroke-miterlimit:4;stroke-dasharray:none"
       id="path2212" />
    <path
       d="m 30.527476,240.22602 c -4.33e-4,-4.8e-4 -8.67e-4,-9.6e-4 -0.0013,-0.001 -0.04368,-0.0483 -0.09969,-0.0941 -0.162293,-0.12928 -0.0626,-0.0352 -0.131792,-0.0597 -0.197727,-0.0722 -0.06063,-0.0114 -0.126032,-0.014 -0.186542,-0.006 -0.06011,0.008 -0.11538,0.0266 -0.159244,0.0515"
       style="fill:none;stroke:#000000;stroke-width:0.15;stroke-linecap:round;stroke-linejoin:round;stroke-miterlimit:4;stroke-dasharray:none"
       id="path2214" />
    <path
       d="m 33.284916,243.63862 c -2.88e-4,1.7e-4 -5.75e-4,3.4e-4 -8.63e-4,5.1e-4 -0.04451,0.0263 -0.09443,0.0632 -0.143196,0.10642 -0.04877,0.0433 -0.09647,0.0929 -0.137576,0.14049 -0.04328,0.0501 -0.08499,0.10461 -0.119894,0.15536 -0.03455,0.0502 -0.06252,0.0968 -0.08234,0.13436"
       style="fill:none;stroke:#000000;stroke-width:0.15;stroke-linecap:round;stroke-linejoin:round;stroke-miterlimit:4;stroke-dasharray:none"
       id="path2216" />
    <path
       d="m 32.801051,241.72627 -0.05585,-0.16193 m 0,0 -0.0614,-0.16174 m 0,0 -0.06678,-0.16115 m 0,0 -0.07201,-0.16016 m 0,0 -0.07705,-0.15877 m 0,0 -0.0819,-0.15698 m 0,0 -0.08655,-0.15479 m 0,0 -0.09098,-0.15223 m 0,0 -0.09518,-0.14928 m 0,0 -0.09914,-0.14596 m 0,0 -0.102857,-0.14227 m 0,0 -0.106317,-0.13822 m 0,0 -0.109509,-0.13384 m 0,0 -0.112429,-0.12912 m 0,0 -0.115068,-0.12407 m 0,0 -0.117418,-0.11872 m 0,0 -0.119476,-0.11306 m 0,0 -0.121235,-0.10713 m 0,0 -0.122691,-0.10093 m 0,0 -0.123839,-0.0945 m 0,0 -0.124679,-0.0878 m 0,0 -0.125208,-0.0809 m 0,0 -0.125422,-0.0738 m 0,0 -0.125323,-0.0665 m 0,0 -0.124912,-0.059 m 0,0 -0.124188,-0.0514 m 0,0 -0.123154,-0.0437 m 0,0 -0.121812,-0.0358 m 0,0 -0.120164,-0.0279 m 0,0 -0.118218,-0.0199 m 0,0 -0.115976,-0.0118 m 0,0 -0.113443,-0.004 m 0,0 -0.110627,0.004 m 0,0 -0.107534,0.0125 m 0,0 -0.104174,0.0205 m 0,0 -0.100552,0.0285 m 0,0 -0.09668,0.0365 m 0,0 -0.09256,0.0443 m 0,0 -0.02429,0.0133"
       style="fill:none;stroke:#000000;stroke-width:0.15;stroke-linecap:round;stroke-linejoin:round;stroke-miterlimit:4;stroke-dasharray:none"
       id="path2218" />
    <path
       d="m 29.299519,243.78714 c 0.01954,0.0603 0.04726,0.12032 0.08157,0.17003 0.03466,0.0502 0.07616,0.0899 0.119251,0.11502 3.36e-4,1.9e-4 6.72e-4,3.9e-4 10e-4,5.8e-4"
       style="fill:none;stroke:#000000;stroke-width:0.15;stroke-linecap:round;stroke-linejoin:round;stroke-miterlimit:4;stroke-dasharray:none"
       id="path2220" />
    <path
       d="m 29.501353,244.07277 c 0.04075,0.0235 0.08796,0.0369 0.136259,0.0359 0.04869,-10e-4 0.09857,-0.0167 0.143062,-0.0427 2.84e-4,-1.7e-4 5.68e-4,-3.3e-4 8.52e-4,-5e-4"
       style="fill:none;stroke:#000000;stroke-width:0.15;stroke-linecap:round;stroke-linejoin:round;stroke-miterlimit:4;stroke-dasharray:none"
       id="path2222" />
    <path
       d="m 29.299519,243.78714 -0.05589,-0.16391 m 0,0 -0.06152,-0.16378 m 0,0 -0.067,-0.16322 m 0,0 -0.0723,-0.16226 m 0,0 -0.07743,-0.1609 m 0,0 -0.08236,-0.15913 m 0,0 -0.08709,-0.15697 m 0,0 -0.0916,-0.15442 m 0,0 -0.09588,-0.15147 m 0,0 -0.09992,-0.14815 m 0,0 -0.103709,-0.14446 m 0,0 -0.107241,-0.14041 m 0,0 -0.110504,-0.136 m 0,0 -0.113491,-0.13127 m 0,0 -0.116195,-0.12619 m 0,0 -0.118608,-0.1208 m 0,0 -0.120725,-0.11512 m 0,0 -0.122539,-0.10914 m 0,0 -0.124048,-0.10289 m 0,0 -0.125247,-0.0964 m 0,0 -0.126132,-0.0896 m 0,0 -0.126703,-0.0827 m 0,0 -0.126955,-0.0755 m 0,0 -0.126893,-0.0681 m 0,0 -0.126511,-0.0606 m 0,0 -0.125814,-0.0529 m 0,0 -0.124802,-0.0451 m 0,0 -0.123479,-0.0372 m 0,0 -0.121847,-0.0291 m 0,0 -0.11991,-0.021 m 0,0 -0.117673,-0.0129 m 0,0 -0.115143,-0.005 m 0,0 -0.112325,0.004 m 0,0 -0.109225,0.0117 m 0,0 -0.105853,0.0198 m 0,0 -0.102217,0.028 m 0,0 -0.09832,0.036 m 0,0 -0.09419,0.0439 m 0,0 -0.03498,0.0189"
       style="fill:none;stroke:#000000;stroke-width:0.15;stroke-linecap:round;stroke-linejoin:round;stroke-miterlimit:4;stroke-dasharray:none"
       id="path2224" />
    <path
       d="m 31.258313,245.32833 0.0862,-0.0562 m 0,0 0.08151,-0.0637 m 0,0 0.07661,-0.0711 m 0,0 0.07152,-0.0783 m 0,0 0.06626,-0.0853 m 0,0 0.06082,-0.0922 m 0,0 0.05524,-0.0987 m 0,0 0.04951,-0.10507 m 0,0 0.04367,-0.11113 m 0,0 0.03771,-0.11692 m 0,0 0.03166,-0.12241 m 0,0 0.02553,-0.1276 m 0,0 0.01934,-0.13248 m 0,0 0.0131,-0.13701 m 0,0 0.0068,-0.14122 m 0,0 5.32e-4,-0.14505 m 0,0 -0.0058,-0.14854 m 0,0 -0.01204,-0.15165 m 0,0 -0.01829,-0.15438 m 0,0 -0.02449,-0.15673 m 0,0 -0.03063,-0.15868 m 0,0 -0.0367,-0.16024 m 0,0 -0.04267,-0.1614 m 0,0 -0.04853,-0.16215 m 0,0 -0.05428,-0.16249 m 0,0 -0.05989,-0.16244 m 0,0 -0.06535,-0.16198 m 0,0 -0.07064,-0.16111 m 0,0 -0.07576,-0.15983 m 0,0 -0.08069,-0.15817 m 0,0 -0.08542,-0.1561 m 0,0 -0.08994,-0.15364 m 0,0 -0.09423,-0.1508 m 0,0 -0.09828,-0.14758 m 0,0 -0.10209,-0.144 m 0,0 -0.105645,-0.14005 m 0,0 -0.108934,-0.13576 m 0,0 -0.111953,-0.13112 m 0,0 -0.03467,-0.039"
       style="fill:none;stroke:#000000;stroke-width:0.15;stroke-linecap:round;stroke-linejoin:round;stroke-miterlimit:4;stroke-dasharray:none"
       id="path2226" />
    <path
       d="m 30.871545,245.47489 0.102693,-0.0248 m 0,0 0.09893,-0.0328 m 0,0 0.09491,-0.0407 m 0,0 0.09024,-0.0483"
       style="fill:none;stroke:#000000;stroke-width:0.15;stroke-linecap:round;stroke-linejoin:round;stroke-miterlimit:4;stroke-dasharray:none"
       id="path2228" />
    <path
       d="m 34.063009,238.22411 c -4.38e-4,-4.9e-4 -8.77e-4,-9.8e-4 -0.0013,-0.001 -0.04366,-0.0487 -0.09966,-0.0948 -0.162285,-0.13025 -0.06263,-0.0355 -0.131879,-0.0603 -0.197904,-0.0729 -0.06057,-0.0116 -0.125937,-0.0142 -0.18642,-0.006 -0.06008,0.008 -0.115328,0.0265 -0.159181,0.0514"
       style="fill:none;stroke:#000000;stroke-width:0.15;stroke-linecap:round;stroke-linejoin:round;stroke-miterlimit:4;stroke-dasharray:none"
       id="path2230" />
    <path
       d="m 32.801051,241.72627 c 0.01981,0.0605 0.04779,0.12056 0.08234,0.17041 0.0349,0.0504 0.07661,0.0902 0.119894,0.11544 3.41e-4,2e-4 6.82e-4,4e-4 0.001,6e-4"
       style="fill:none;stroke:#000000;stroke-width:0.15;stroke-linecap:round;stroke-linejoin:round;stroke-miterlimit:4;stroke-dasharray:none"
       id="path2232" />
    <path
       d="m 33.004305,242.01272 c 0.04087,0.0236 0.08819,0.037 0.136552,0.036 0.04877,-0.001 0.09869,-0.0166 0.143196,-0.0426 2.88e-4,-1.7e-4 5.75e-4,-3.4e-4 8.63e-4,-5.1e-4"
       style="fill:none;stroke:#000000;stroke-width:0.15;stroke-linecap:round;stroke-linejoin:round;stroke-miterlimit:4;stroke-dasharray:none"
       id="path2234" />
    <path
       d="m 27.699049,239.40167 -0.113157,-8.1e-4 m 0,0 -0.110222,0.007 m 0,0 -0.107012,0.0154 m 0,0 -0.103536,0.0235 m 0,0 -0.0998,0.0316 m 0,0 -0.09582,0.0395 m 0,0 -0.08366,0.0429"
       style="fill:none;stroke:#000000;stroke-width:0.15;stroke-linecap:round;stroke-linejoin:round;stroke-miterlimit:4;stroke-dasharray:none"
       id="path2236" />
    <path
       d="m 29.781526,244.06543 c 0.04346,-0.0256 0.08718,-0.0641 0.124287,-0.11216 0.03734,-0.0483 0.0679,-0.10623 0.08839,-0.16444 0.02225,-0.0632 0.03566,-0.13536 0.03663,-0.20707 9.69e-4,-0.0717 -0.01052,-0.14303 -0.0304,-0.20496 -1.96e-4,-6.1e-4 -3.94e-4,-0.001 -5.92e-4,-0.002"
       style="fill:none;stroke:#000000;stroke-width:0.15;stroke-linecap:round;stroke-linejoin:round;stroke-miterlimit:4;stroke-dasharray:none"
       id="path2238" />
    <path
       d="m 28.798805,246.78359 0.08694,-0.0567 m 0,0 0.08221,-0.0643 m 0,0 0.07727,-0.0717 m 0,0 0.07214,-0.079 m 0,0 0.06682,-0.0861 m 0,0 0.06134,-0.093 m 0,0 0.054,-0.0963"
       style="fill:none;stroke:#000000;stroke-width:0.15;stroke-linecap:round;stroke-linejoin:round;stroke-miterlimit:4;stroke-dasharray:none"
       id="path2240" />
    <path
       d="m 32.312388,244.70464 0.08588,-0.056 m 0,0 0.08121,-0.0635 m 0,0 0.07633,-0.0709 m 0,0 0.07126,-0.078 m 0,0 0.06601,-0.085 m 0,0 0.0606,-0.0918 m 0,0 0.04738,-0.0837"
       style="fill:none;stroke:#000000;stroke-width:0.15;stroke-linecap:round;stroke-linejoin:round;stroke-miterlimit:4;stroke-dasharray:none"
       id="path2242" />
    <path
       d="m 27.697293,239.16046 -0.08733,0.0543 m 0,0 -0.08268,0.0619 m 0,0 -0.07784,0.0693 m 0,0 -0.07246,0.0762"
       style="fill:none;stroke:#000000;stroke-width:0.15;stroke-linecap:round;stroke-linejoin:round;stroke-miterlimit:4;stroke-dasharray:none"
       id="path2244" />
    <path
       d="m 28.406155,239.00128 -0.112816,-6.3e-4 m 0,0 -0.109883,0.007 m 0,0 -0.106675,0.0156 m 0,0 -0.103201,0.0237 m 0,0 -0.09947,0.0317 m 0,0 -0.09549,0.0396 m 0,0 -0.08133,0.0418"
       style="fill:none;stroke:#000000;stroke-width:0.15;stroke-linecap:round;stroke-linejoin:round;stroke-miterlimit:4;stroke-dasharray:none"
       id="path2246" />
    <path
       d="m 28.406155,239.25228 c 0.04385,-0.0249 0.08179,-0.0534 0.107146,-0.0816 0.02552,-0.0283 0.0383,-0.0562 0.03924,-0.0792 4e-5,-9.8e-4 5.9e-5,-0.002 5.7e-5,-0.003"
       style="fill:none;stroke:#000000;stroke-width:0.15;stroke-linecap:round;stroke-linejoin:round;stroke-miterlimit:4;stroke-dasharray:none"
       id="path2248" />
    <path
       d="m 28.552599,239.08857 c -5.2e-5,-0.0239 -0.01278,-0.0455 -0.03749,-0.0607 -0.02571,-0.0158 -0.0643,-0.0247 -0.107661,-0.0266 -4.31e-4,-2e-5 -8.63e-4,-4e-5 -0.0013,-6e-5"
       style="fill:none;stroke:#000000;stroke-width:0.15;stroke-linecap:round;stroke-linejoin:round;stroke-miterlimit:4;stroke-dasharray:none"
       id="path2250" />
    <path
       d="m 29.475901,238.15877 -0.08679,0.054 m 0,0 -0.08218,0.0615 m 0,0 -0.07736,0.0689 m 0,0 -0.07235,0.0761 m 0,0 -0.0014,0.002"
       style="fill:none;stroke:#000000;stroke-width:0.15;stroke-linecap:round;stroke-linejoin:round;stroke-miterlimit:4;stroke-dasharray:none"
       id="path2252" />
    <path
       d="m 33.501346,241.31409 -0.05584,-0.16153 m 0,0 -0.06137,-0.16133 m 0,0 -0.06674,-0.16074 m 0,0 -0.07195,-0.15974 m 0,0 -0.07697,-0.15834 m 0,0 -0.08181,-0.15655 m 0,0 -0.08644,-0.15436 m 0,0 -0.09085,-0.15179 m 0,0 -0.09504,-0.14884 m 0,0 -0.09899,-0.14551 m 0,0 -0.102686,-0.14184 m 0,0 -0.106131,-0.13779 m 0,0 -0.109311,-0.1334 m 0,0 -0.112216,-0.12869 m 0,0 L 32.17016,239.09 m 0,0 -0.11718,-0.1183 m 0,0 -0.119226,-0.11266 m 0,0 -0.120973,-0.10672 m 0,0 -0.122419,-0.10053 m 0,0 -0.123557,-0.0941 m 0,0 -0.124389,-0.0874 m 0,0 -0.124907,-0.0805 m 0,0 -0.125115,-0.0734 m 0,0 -0.12501,-0.0661 m 0,0 -0.124591,-0.0587 m 0,0 -0.123863,-0.0511 m 0,0 -0.122823,-0.0434 m 0,0 -0.121477,-0.0355 m 0,0 -0.119828,-0.0276 m 0,0 -0.117879,-0.0196 m 0,0 -0.115635,-0.0116 m 0,0 -0.113103,-0.004 m 0,0 -0.110287,0.005 m 0,0 -0.107196,0.0126 m 0,0 -0.103837,0.0206 m 0,0 -0.100219,0.0286 m 0,0 -0.09635,0.0365 m 0,0 -0.09224,0.0444 m 0,0 -0.02216,0.0122"
       style="fill:none;stroke:#000000;stroke-width:0.15;stroke-linecap:round;stroke-linejoin:round;stroke-miterlimit:4;stroke-dasharray:none"
       id="path2254" />
    <path
       d="m 29.999832,245.82446 c 1.98e-4,-3.8e-4 3.96e-4,-7.6e-4 5.92e-4,-10e-4 0.01988,-0.0386 0.03137,-0.0765 0.0304,-0.10677 -9.32e-4,-0.0291 -0.01336,-0.0509 -0.03408,-0.063"
       style="fill:none;stroke:#000000;stroke-width:0.15;stroke-linecap:round;stroke-linejoin:round;stroke-miterlimit:4;stroke-dasharray:none"
       id="path2256" />
    <path
       d="m 29.996745,245.65358 c -8.35e-4,-4.9e-4 -0.0017,-9.6e-4 -0.0025,-0.001 -0.02048,-0.0107 -0.05104,-0.0136 -0.08839,-0.006 -0.0371,0.008 -0.08082,0.0264 -0.124287,0.052"
       style="fill:none;stroke:#000000;stroke-width:0.15;stroke-linecap:round;stroke-linejoin:round;stroke-miterlimit:4;stroke-dasharray:none"
       id="path2258" />
    <path
       d="m 36.177329,242.41779 0.08472,-0.0552 m 0,0 0.08011,-0.0626 m 0,0 0.0753,-0.0699 m 0,0 0.07029,-0.077 m 0,0 0.06512,-0.0839 m 0,0 0.05978,-0.0906 m 0,0 0.05429,-0.097 m 0,0 0.04866,-0.10326 m 0,0 0.04292,-0.10922 m 0,0 0.03707,-0.11491 m 0,0 0.03112,-0.12032 m 0,0 0.02509,-0.12541 m 0,0 0.01901,-0.1302 m 0,0 0.01287,-0.13467 m 0,0 0.0067,-0.13879 m 0,0 5.23e-4,-0.14257 m 0,0 -0.0057,-0.14599 m 0,0 -0.01183,-0.14905 m 0,0 -0.01797,-0.15173 m 0,0 -0.02407,-0.15404 m 0,0 -0.0301,-0.15596 m 0,0 -0.03607,-0.15749 m 0,0 -0.04193,-0.15862 m 0,0 -0.0477,-0.15937 m 0,0 -0.05335,-0.15971 m 0,0 -0.05886,-0.15966 m 0,0 -0.06423,-0.15919 m 0,0 -0.06943,-0.15835 m 0,0 -0.07446,-0.15709 m 0,0 -0.07931,-0.15545 m 0,0 -0.08396,-0.15342 m 0,0 -0.08839,-0.15101 m 0,0 -0.09261,-0.14822 m 0,0 -0.0966,-0.14505 m 0,0 -0.100339,-0.14153 m 0,0 -0.103832,-0.13765 m 0,0 -0.107066,-0.13342 m 0,0 -0.110032,-0.12887 m 0,0 -0.112722,-0.12399 m 0,0 -0.115131,-0.11881 m 0,0 -0.117253,-0.11332 m 0,0 -0.119081,-0.10755 m 0,0 -0.120611,-0.10151 m 0,0 -0.121841,-0.0952 m 0,0 -0.122765,-0.0887 m 0,0 -0.123383,-0.0819 m 0,0 -0.123692,-0.075 m 0,0 -0.123692,-0.0678 m 0,0 -0.123383,-0.0605 m 0,0 -0.122766,-0.0531 m 0,0 -0.121841,-0.0455 m 0,0 -0.120613,-0.0378 m 0,0 -0.119082,-0.03 m 0,0 -0.117255,-0.0221 m 0,0 -0.115133,-0.0142 m 0,0 -0.112725,-0.006 m 0,0 -0.110034,0.002 m 0,0 -0.107069,0.01 m 0,0 -0.103836,0.0177 m 0,0 -0.100342,0.0257 m 0,0 -0.0966,0.0335 m 0,0 -0.09261,0.0413 m 0,0 -0.05224,0.0277"
       style="fill:none;stroke:#000000;stroke-width:0.15;stroke-linecap:round;stroke-linejoin:round;stroke-miterlimit:4;stroke-dasharray:none"
       id="path2260" />
    <path
       d="m 34.069179,243.66516 0.08535,-0.0556 m 0,0 0.08071,-0.0631 m 0,0 0.07586,-0.0704 m 0,0 0.07082,-0.0776 m 0,0 0.0656,-0.0845 m 0,0 0.06023,-0.0913 m 0,0 0.0547,-0.0978 m 0,0 0.04903,-0.10403 m 0,0 0.04324,-0.11004 m 0,0 0.03734,-0.11577 m 0,0 0.03135,-0.12121 m 0,0 0.02528,-0.12636 m 0,0 0.01915,-0.13117 m 0,0 0.01297,-0.13567 m 0,0 0.0068,-0.13983 m 0,0 5.27e-4,-0.14364 m 0,0 -0.0057,-0.14708 m 0,0 -0.01192,-0.15017 m 0,0 -0.01811,-0.15286 m 0,0 -0.02425,-0.1552 m 0,0 -0.03033,-0.15712 m 0,0 -0.03634,-0.15867 m 0,0 -0.04225,-0.15981 m 0,0 -0.04806,-0.16056 m 0,0 -0.05375,-0.16091 m 0,0 -0.0593,-0.16084 m 0,0 -0.06471,-0.16039 m 0,0 -0.06995,-0.15953 m 0,0 -0.07502,-0.15827 m 0,0 -0.0799,-0.15661 m 0,0 -0.08459,-0.15457 m 0,0 -0.08905,-0.15214 m 0,0 -0.0933,-0.14932 m 0,0 -0.09732,-0.14614 m 0,0 -0.10109,-0.14259 m 0,0 -0.104609,-0.13868 m 0,0 -0.107867,-0.13442 m 0,0 -0.110854,-0.12983 m 0,0 -0.02393,-0.027"
       style="fill:none;stroke:#000000;stroke-width:0.15;stroke-linecap:round;stroke-linejoin:round;stroke-miterlimit:4;stroke-dasharray:none"
       id="path2262" />
    <path
       d="m 11.334099,248.37599 -0.09225,0.0573 m 0,0 -0.08735,0.0654 m 0,0 -0.08222,0.0732 m 0,0 -0.05847,0.0603"
       style="fill:none;stroke:#000000;stroke-width:0.15;stroke-linecap:round;stroke-linejoin:round;stroke-miterlimit:4;stroke-dasharray:none"
       id="path2264" />
    <path
       d="m 15.095833,254.8915 0.09106,-0.0593 m 0,0 0.0861,-0.0673 m 0,0 0.08093,-0.0751 m 0,0 0.07555,-0.0828 m 0,0 0.06999,-0.0902 m 0,0 0.06425,-0.0973 m 0,0 0.05835,-0.1043 m 0,0 0.0523,-0.11098 m 0,0 0.04613,-0.11739 m 0,0 0.03984,-0.12351 m 0,0 0.03345,-0.12932 m 0,0 0.02697,-0.13479 m 0,0 0.02043,-0.13994 m 0,0 0.01384,-0.14474 m 0,0 0.0072,-0.14917 m 0,0 5.62e-4,-0.15324 m 0,0 -0.0061,-0.15691 m 0,0 -0.01272,-0.1602 m 0,0 -0.01932,-0.16308 m 0,0 -0.02587,-0.16556 m 0,0 -0.03236,-0.16763 m 0,0 -0.03876,-0.16927 m 0,0 -0.04507,-0.17049 m 0,0 -0.05127,-0.17129 m 0,0 -0.05734,-0.17166 m 0,0 -0.06326,-0.17159 m 0,0 -0.06903,-0.17111 m 0,0 -0.07463,-0.17019 m 0,0 -0.08003,-0.16884 m 0,0 -0.08524,-0.16708 m 0,0 -0.09024,-0.1649 m 0,0 -0.09501,-0.1623 m 0,0 -0.09954,-0.1593 m 0,0 -0.103822,-0.1559 m 0,0 -0.107844,-0.15212 m 0,0 -0.1116,-0.14794 m 0,0 -0.115074,-0.14341 m 0,0 -0.118262,-0.13851 m 0,0 -0.121154,-0.13327 m 0,0 -0.123744,-0.12769 m 0,0 -0.126023,-0.12179 m 0,0 -0.127988,-0.1156 m 0,0 -0.129634,-0.10911 m 0,0 -0.130954,-0.10234 m 0,0 -0.131948,-0.0953 m 0,0 -0.132612,-0.0881 m 0,0 -0.132945,-0.0806 m 0,0 -0.132944,-0.0729 m 0,0 -0.132613,-0.0651 m 0,0 -0.131949,-0.057 m 0,0 -0.130955,-0.0489 m 0,0 -0.129635,-0.0406 m 0,0 -0.12799,-0.0322 m 0,0 -0.126025,-0.0237 m 0,0 -0.123746,-0.0152 m 0,0 -0.121157,-0.007 m 0,0 -0.118265,0.002 m 0,0 -0.115077,0.0105 m 0,0 -0.111603,0.0191 m 0,0 -0.107848,0.0276 m 0,0 -0.103826,0.036 m 0,0 -0.09954,0.0444 m 0,0 -0.05615,0.0298"
       style="fill:none;stroke:#000000;stroke-width:0.15;stroke-linecap:round;stroke-linejoin:round;stroke-miterlimit:4;stroke-dasharray:none"
       id="path2266" />
    <path
       d="m 14.713807,255.04078 0.107544,-0.0282 m 0,0 0.1035,-0.0367 m 0,0 0.0992,-0.045 m 0,0 0.07178,-0.0394"
       style="fill:none;stroke:#000000;stroke-width:0.15;stroke-linecap:round;stroke-linejoin:round;stroke-miterlimit:4;stroke-dasharray:none"
       id="path2268" />
    <path
       d="m 32.312388,244.70464 -1.054075,0.62369"
       style="fill:none;stroke:#000000;stroke-width:0.15;stroke-linecap:round;stroke-linejoin:round;stroke-miterlimit:4;stroke-dasharray:none"
       id="path2270" />
    <path
       d="m 30.543066,237.55776 -1.067165,0.60101"
       style="fill:none;stroke:#000000;stroke-width:0.15;stroke-linecap:round;stroke-linejoin:round;stroke-miterlimit:4;stroke-dasharray:none"
       id="path2272" />
    <path
       d="m 30.555597,245.74412 -1.054075,0.62368"
       style="fill:none;stroke:#000000;stroke-width:0.15;stroke-linecap:round;stroke-linejoin:round;stroke-miterlimit:4;stroke-dasharray:none"
       id="path2274" />
    <path
       d="m 34.069179,243.66516 -1.054075,0.62369"
       style="fill:none;stroke:#000000;stroke-width:0.15;stroke-linecap:round;stroke-linejoin:round;stroke-miterlimit:4;stroke-dasharray:none"
       id="path2276" />
    <path
       d="m 25.207242,240.56282 -13.873143,7.81317"
       style="fill:none;stroke:#000000;stroke-width:0.15;stroke-linecap:round;stroke-linejoin:round;stroke-miterlimit:4;stroke-dasharray:none"
       id="path2278" />
    <path
       d="m 36.177329,242.41779 -1.405433,0.83158"
       style="fill:none;stroke:#000000;stroke-width:0.15;stroke-linecap:round;stroke-linejoin:round;stroke-miterlimit:4;stroke-dasharray:none"
       id="path2280" />
    <path
       d="m 26.98585,239.56113 -1.067165,0.60102"
       style="fill:none;stroke:#000000;stroke-width:0.15;stroke-linecap:round;stroke-linejoin:round;stroke-miterlimit:4;stroke-dasharray:none"
       id="path2282" />
    <path
       d="m 28.764458,238.55944 -1.067165,0.60102"
       style="fill:none;stroke:#000000;stroke-width:0.15;stroke-linecap:round;stroke-linejoin:round;stroke-miterlimit:4;stroke-dasharray:none"
       id="path2284" />
    <path
       d="m 32.677395,236.35573 -1.422886,0.80135"
       style="fill:none;stroke:#000000;stroke-width:0.15;stroke-linecap:round;stroke-linejoin:round;stroke-miterlimit:4;stroke-dasharray:none"
       id="path2286" />
    <path
       d="M 28.798805,246.78359 15.095833,254.8915"
       style="fill:none;stroke:#000000;stroke-width:0.15;stroke-linecap:round;stroke-linejoin:round;stroke-miterlimit:4;stroke-dasharray:none"
       id="path2288" />
    <path
       d="M 79.089335,215.23319 215.88202,136.2559"
       style="fill:none;stroke:#000000;stroke-width:0.15;stroke-linecap:round;stroke-linejoin:round;stroke-miterlimit:4;stroke-dasharray:none"
       id="path2290" />
    <path
       d="M 215.4359,135.69697 78.629764,214.68203"
       style="fill:none;stroke:#000000;stroke-width:0.15;stroke-linecap:round;stroke-linejoin:round;stroke-miterlimit:4;stroke-dasharray:none"
       id="path2292" />
    <path
       d="m 206.49099,126.44303 -0.0175,-0.01 m 0,0 -0.0175,-0.009 m 0,0 -0.0174,-0.008 m 0,0 -0.0173,-0.007 m 0,0 -0.0171,-0.005 m 0,0 -0.0169,-0.004 m 0,0 -0.0166,-0.003 m 0,0 -0.0164,-0.002 m 0,0 -0.016,-9.2e-4 m 0,0 -0.0157,2.2e-4 m 0,0 -0.0152,0.001 m 0,0 -0.0148,0.003 m 0,0 -0.0143,0.004 m 0,0 -0.0138,0.005 m 0,0 -0.0132,0.006 m 0,0 -0.005,0.002"
       style="fill:none;stroke:#000000;stroke-width:0.15;stroke-linecap:round;stroke-linejoin:round;stroke-miterlimit:4;stroke-dasharray:none"
       id="path2298" />
    <path
       d="m 219.08367,133.71341 -2.60234,1.50246"
       style="fill:none;stroke:#000000;stroke-width:0.15;stroke-linecap:round;stroke-linejoin:round;stroke-miterlimit:4;stroke-dasharray:none"
       id="path2300" />
    <path
       d="m 216.12161,135.83175 v 8.6055"
       style="fill:none;stroke:#000000;stroke-width:0.15;stroke-linecap:round;stroke-linejoin:round;stroke-miterlimit:4;stroke-dasharray:none"
       id="path2302" />
    <path
       d="m 203.7962,127.89211 2.69479,-1.44908"
       style="fill:none;stroke:#000000;stroke-width:0.15;stroke-linecap:round;stroke-linejoin:round;stroke-miterlimit:4;stroke-dasharray:none"
       id="path2304" />
    <path
       d="m 219.33921,143.04994 0.0119,-0.008 m 0,0 0.0113,-0.009 m 0,0 0.0106,-0.0102 m 0,0 0.01,-0.0112 m 0,0 0.009,-0.0122 m 0,0 0.008,-0.0131 m 0,0 0.008,-0.014 m 0,0 0.007,-0.0149 m 0,0 0.006,-0.0157 m 0,0 0.005,-0.0165 m 0,0 0.004,-0.0173 m 0,0 0.003,-0.018 m 0,0 0.002,-0.0187 m 0,0 0.002,-0.0193 m 0,0 6.1e-4,-0.0199 m 0,0 1e-5,-0.007"
       style="fill:none;stroke:#000000;stroke-width:0.15;stroke-linecap:round;stroke-linejoin:round;stroke-miterlimit:4;stroke-dasharray:none"
       id="path2306" />
    <path
       d="m 206.61291,126.4324 -0.006,-0.003 m 0,0 -0.007,-0.003 m 0,0 -0.007,-0.002 m 0,0 -0.007,-0.002 m 0,0 -0.007,-10e-4 m 0,0 -0.008,-5.4e-4 m 0,0 -0.008,4e-5 m 0,0 -0.008,6.1e-4 m 0,0 -0.008,0.001 m 0,0 -0.008,0.002 m 0,0 -0.009,0.002 m 0,0 -0.009,0.003 m 0,0 -0.009,0.003 m 0,0 -0.009,0.004 m 0,0 -0.009,0.004 m 0,0 -0.003,0.002"
       style="fill:none;stroke:#000000;stroke-width:0.15;stroke-linecap:round;stroke-linejoin:round;stroke-miterlimit:4;stroke-dasharray:none"
       id="path2308" />
    <path
       d="m 216.83483,144.43365 v -8.6055"
       style="fill:none;stroke:#000000;stroke-width:0.15;stroke-linecap:round;stroke-linejoin:round;stroke-miterlimit:4;stroke-dasharray:none"
       id="path2310" />
    <path
       d="m 219.43717,142.82443 -2.60234,1.60922"
       style="fill:none;stroke:#000000;stroke-width:0.15;stroke-linecap:round;stroke-linejoin:round;stroke-miterlimit:4;stroke-dasharray:none"
       id="path2312" />
    <path
       d="m 203.7962,127.89211 -0.0177,0.0104 m 0,0 -0.0176,0.0114 m 0,0 -0.0176,0.0123 m 0,0 -0.0175,0.0133 m 0,0 -0.0173,0.0142 m 0,0 -0.0171,0.0151 m 0,0 -0.0168,0.0159 m 0,0 -0.0166,0.0167 m 0,0 -0.0162,0.0175 m 0,0 -0.0159,0.0182 m 0,0 -0.0155,0.0188 m 0,0 -0.015,0.0195 m 0,0 -0.0145,0.02 m 0,0 -0.014,0.0206 m 0,0 -0.0134,0.021 m 0,0 -0.0128,0.0214 m 0,0 -0.0122,0.0218 m 0,0 -0.0116,0.0221 m 0,0 -0.0109,0.0224 m 0,0 -0.0102,0.0226 m 0,0 -0.009,0.0227 m 0,0 -0.009,0.0228 m 0,0 -0.008,0.0228 m 0,0 -0.007,0.0228 m 0,0 -0.006,0.0227 m 0,0 -0.005,0.0226 m 0,0 -0.005,0.0224 m 0,0 -0.004,0.0221 m 0,0 -0.003,0.0218 m 0,0 -0.002,0.0214 m 0,0 -0.001,0.021 m 0,0 -2.6e-4,0.0158"
       style="fill:none;stroke:#000000;stroke-width:0.15;stroke-linecap:round;stroke-linejoin:round;stroke-miterlimit:4;stroke-dasharray:none"
       id="path2314" />
    <path
       d="m 219.43717,142.82443 0.008,-0.005 m 0,0 0.008,-0.006 m 0,0 0.007,-0.006 m 0,0 0.007,-0.006 m 0,0 0.006,-0.006 m 0,0 0.006,-0.006 m 0,0 0.005,-0.007 m 0,0 0.005,-0.007 m 0,0 0.004,-0.007 m 0,0 0.004,-0.007 m 0,0 0.003,-0.007 m 0,0 0.002,-0.007 m 0,0 0.002,-0.007 m 0,0 0.001,-0.007 m 0,0 5.4e-4,-0.007 m 0,0 4e-5,-0.003"
       style="fill:none;stroke:#000000;stroke-width:0.15;stroke-linecap:round;stroke-linejoin:round;stroke-miterlimit:4;stroke-dasharray:none"
       id="path2316" />
    <path
       d="m 219.43717,134.32569 v 8.49874"
       style="fill:none;stroke:#000000;stroke-width:0.15;stroke-linecap:round;stroke-linejoin:round;stroke-miterlimit:4;stroke-dasharray:none"
       id="path2318" />
    <path
       d="m 217.68904,132.90823 -0.46043,-0.5356 m 0,0 -0.47153,-0.51509 m 0,0 -0.48146,-0.49331 m 0,0 -0.49017,-0.47029 m 0,0 -0.49767,-0.44609 m 0,0 -0.50391,-0.42078 m 0,0 -0.50891,-0.39442 m 0,0 -0.51263,-0.36707 m 0,0 -0.51506,-0.3388 m 0,0 -0.51621,-0.30969 m 0,0 -0.51607,-0.27981 m 0,0 -0.51464,-0.24921 m 0,0 -0.51193,-0.21801 m 0,0 -0.50793,-0.18626 m 0,0 -0.50266,-0.15403 m 0,0 -0.49614,-0.12143 m 0,0 -0.48837,-0.0885 m 0,0 -0.4794,-0.0554 m 0,0 -0.46921,-0.0221 m 0,0 -0.35909,0.006"
       style="fill:none;stroke:#000000;stroke-width:0.15;stroke-linecap:round;stroke-linejoin:round;stroke-miterlimit:4;stroke-dasharray:none"
       id="path2320" />
    <path
       d="m 216.12161,135.83175 0.0181,0.01 m 0,0 0.0189,0.009 m 0,0 0.0197,0.009 m 0,0 0.0205,0.008 m 0,0 0.0212,0.008 m 0,0 0.0218,0.007 m 0,0 0.0224,0.006 m 0,0 0.0229,0.006 m 0,0 0.0234,0.005 m 0,0 0.0238,0.004 m 0,0 0.0242,0.004 m 0,0 0.0244,0.003 m 0,0 0.0247,0.002 m 0,0 0.0248,0.002 m 0,0 0.025,8.7e-4 m 0,0 0.025,1.5e-4 m 0,0 0.025,-5.8e-4 m 0,0 0.0249,-0.001 m 0,0 0.0247,-0.002 m 0,0 0.0246,-0.003 m 0,0 0.0243,-0.003 m 0,0 0.024,-0.004 m 0,0 0.0236,-0.005 m 0,0 0.0231,-0.005 m 0,0 0.0226,-0.006 m 0,0 0.0221,-0.007 m 0,0 0.0214,-0.007 m 0,0 0.0208,-0.008 m 0,0 0.02,-0.009 m 0,0 0.0193,-0.009 m 0,0 0.0185,-0.01 m 0,0 0.0135,-0.008"
       style="fill:none;stroke:#000000;stroke-width:0.15;stroke-linecap:round;stroke-linejoin:round;stroke-miterlimit:4;stroke-dasharray:none"
       id="path2322" />
    <path
       d="m 216.83483,135.82815 -1.4e-4,-0.0208 m 0,0 -0.001,-0.0213 m 0,0 -0.002,-0.0217 m 0,0 -0.003,-0.022 m 0,0 -0.004,-0.0223 m 0,0 -0.005,-0.0225 m 0,0 -0.005,-0.0227 m 0,0 -0.006,-0.0228 m 0,0 -0.007,-0.0229 m 0,0 -0.008,-0.0229 m 0,0 -0.009,-0.0228 m 0,0 -0.01,-0.0227 m 0,0 -0.0103,-0.0226 m 0,0 -0.011,-0.0223 m 0,0 -0.0117,-0.0221 m 0,0 -0.0124,-0.0217 m 0,0 -0.013,-0.0213 m 0,0 -0.0136,-0.0209 m 0,0 -0.0142,-0.0204 m 0,0 -0.0147,-0.0198 m 0,0 -0.0152,-0.0192 m 0,0 -0.0157,-0.0186 m 0,0 -0.0161,-0.0179 m 0,0 -0.0165,-0.0172 m 0,0 -0.0168,-0.0164 m 0,0 -0.0171,-0.0156 m 0,0 -0.0174,-0.0147 m 0,0 -0.0176,-0.0138 m 0,0 -0.0178,-0.0129 m 0,0 -0.0179,-0.012 m 0,0 -0.018,-0.011 m 0,0 -0.007,-0.004"
       style="fill:none;stroke:#000000;stroke-width:0.15;stroke-linecap:round;stroke-linejoin:round;stroke-miterlimit:4;stroke-dasharray:none"
       id="path2324" />
    <path
       d="m 214.60256,134.95472 -0.44497,-0.5226 m 0,0 -0.45592,-0.50291 m 0,0 -0.46573,-0.48196 m 0,0 -0.47437,-0.4598 m 0,0 -0.48182,-0.4365 m 0,0 -0.48807,-0.41211 m 0,0 -0.4931,-0.38668 m 0,0 -0.4969,-0.36028 m 0,0 -0.49945,-0.333 m 0,0 -0.50077,-0.30487 m 0,0 -0.50082,-0.27598 m 0,0 -0.49962,-0.2464 m 0,0 -0.49718,-0.21622 m 0,0 -0.49349,-0.18548 m 0,0 -0.48857,-0.15428 m 0,0 -0.48243,-0.1227 m 0,0 -0.47508,-0.0908 m 0,0 -0.46655,-0.0587 m 0,0 -0.45685,-0.0264 m 0,0 -0.446,0.006 m 0,0 -0.0393,0.002"
       style="fill:none;stroke:#000000;stroke-width:0.15;stroke-linecap:round;stroke-linejoin:round;stroke-miterlimit:4;stroke-dasharray:none"
       id="path2326" />
    <path
       d="m 216.48133,135.21587 -0.0177,0.0104 m 0,0 -0.0177,0.0114 m 0,0 -0.0176,0.0123 m 0,0 -0.0175,0.0133 m 0,0 -0.0173,0.0142 m 0,0 -0.0171,0.0151 m 0,0 -0.0169,0.0159 m 0,0 -0.0165,0.0167 m 0,0 -0.0162,0.0175 m 0,0 -0.0159,0.0182 m 0,0 -0.0155,0.0188 m 0,0 -0.015,0.0195 m 0,0 -0.0145,0.02 m 0,0 -0.014,0.0206 m 0,0 -0.0134,0.021 m 0,0 -0.0128,0.0214 m 0,0 -0.0122,0.0218 m 0,0 -0.0116,0.0221 m 0,0 -0.0109,0.0224 m 0,0 -0.0102,0.0226 m 0,0 -0.009,0.0227 m 0,0 -0.009,0.0228 m 0,0 -0.008,0.0228 m 0,0 -0.007,0.0228 m 0,0 -0.006,0.0227 m 0,0 -0.005,0.0226 m 0,0 -0.005,0.0224 m 0,0 -0.004,0.0221 m 0,0 -0.003,0.0218 m 0,0 -0.002,0.0214 m 0,0 -0.001,0.021 m 0,0 -2.6e-4,0.0158"
       style="fill:none;stroke:#000000;stroke-width:0.15;stroke-linecap:round;stroke-linejoin:round;stroke-miterlimit:4;stroke-dasharray:none"
       id="path2328" />
    <path
       d="m 203.43647,129.39179 v -0.88381"
       style="fill:none;stroke:#000000;stroke-width:0.15;stroke-linecap:round;stroke-linejoin:round;stroke-miterlimit:4;stroke-dasharray:none"
       id="path2330" />
    <path
       d="m 216.48133,135.21587 -1.4292,-0.82514"
       style="fill:none;stroke:#000000;stroke-width:0.15;stroke-linecap:round;stroke-linejoin:round;stroke-miterlimit:4;stroke-dasharray:none"
       id="path2332" />
    <path
       d="m 203.29003,128.30386 6.2e-4,0.0144 m 0,0 0.002,0.0144 m 0,0 0.003,0.0143 m 0,0 0.004,0.0142 m 0,0 0.006,0.0141 m 0,0 0.007,0.0139 m 0,0 0.008,0.0137 m 0,0 0.009,0.0134 m 0,0 0.0103,0.0131 m 0,0 0.0114,0.0128 m 0,0 0.0125,0.0125 m 0,0 0.0136,0.0121 m 0,0 0.0146,0.0117 m 0,0 0.0156,0.0113 m 0,0 0.0166,0.0108 m 0,0 0.0123,0.007"
       style="fill:none;stroke:#000000;stroke-width:0.15;stroke-linecap:round;stroke-linejoin:round;stroke-miterlimit:4;stroke-dasharray:none"
       id="path2334" />
    <path
       d="m 205.2254,128.71726 -1.4292,-0.82515"
       style="fill:none;stroke:#000000;stroke-width:0.15;stroke-linecap:round;stroke-linejoin:round;stroke-miterlimit:4;stroke-dasharray:none"
       id="path2336" />
    <path
       d="m 216.12161,144.43725 -0.76787,-0.44333"
       style="fill:none;stroke:#000000;stroke-width:0.15;stroke-linecap:round;stroke-linejoin:round;stroke-miterlimit:4;stroke-dasharray:none"
       id="path2338" />
    <path
       d="m 203.7962,127.89211 -0.0174,-0.01 m 0,0 -0.0173,-0.009 m 0,0 -0.0173,-0.008 m 0,0 -0.0172,-0.007 m 0,0 -0.017,-0.006 m 0,0 -0.0168,-0.004 m 0,0 -0.0166,-0.003 m 0,0 -0.0163,-0.002 m 0,0 -0.0159,-9.6e-4 m 0,0 -0.0156,1.9e-4 m 0,0 -0.0152,0.001 m 0,0 -0.0147,0.002 m 0,0 -0.0143,0.004 m 0,0 -0.0138,0.005 m 0,0 -0.0132,0.006 m 0,0 -0.005,0.002"
       style="fill:none;stroke:#000000;stroke-width:0.15;stroke-linecap:round;stroke-linejoin:round;stroke-miterlimit:4;stroke-dasharray:none"
       id="path2340" />
    <path
       d="m 216.12161,144.43725 4.4e-4,0.0202 m 0,0 0.001,0.0196 m 0,0 0.002,0.019 m 0,0 0.003,0.0183 m 0,0 0.004,0.0176 m 0,0 0.005,0.0169 m 0,0 0.006,0.0161 m 0,0 0.006,0.0153 m 0,0 0.007,0.0144 m 0,0 0.008,0.0135 m 0,0 0.009,0.0126 m 0,0 0.01,0.0116 m 0,0 0.0103,0.0106 m 0,0 0.011,0.01 m 0,0 0.0117,0.009 m 0,0 0.009,0.005"
       style="fill:none;stroke:#000000;stroke-width:0.15;stroke-linecap:round;stroke-linejoin:round;stroke-miterlimit:4;stroke-dasharray:none"
       id="path2342" />
    <path
       d="m 215.05213,134.39073 -0.46275,-0.53755 m 0,0 -0.47388,-0.51692 m 0,0 -0.48382,-0.49501 m 0,0 -0.49255,-0.47186 m 0,0 -0.50005,-0.44753 m 0,0 -0.5063,-0.42207 m 0,0 -0.51129,-0.39558 m 0,0 -0.51499,-0.36808 m 0,0 -0.51741,-0.33967 m 0,0 -0.51853,-0.31041 m 0,0 -0.51837,-0.28037 m 0,0 -0.51689,-0.24964 m 0,0 -0.51414,-0.21827 m 0,0 -0.5101,-0.18636 m 0,0 -0.50478,-0.15399 m 0,0 -0.4982,-0.12124 m 0,0 -0.49037,-0.0882 m 0,0 -0.48132,-0.0549 m 0,0 -0.47107,-0.0215 m 0,0 -0.33992,0.006"
       style="fill:none;stroke:#000000;stroke-width:0.15;stroke-linecap:round;stroke-linejoin:round;stroke-miterlimit:4;stroke-dasharray:none"
       id="path2344" />
    <path
       d="m 214.60256,134.95472 1.51905,0.87703"
       style="fill:none;stroke:#000000;stroke-width:0.15;stroke-linecap:round;stroke-linejoin:round;stroke-miterlimit:4;stroke-dasharray:none"
       id="path2346" />
    <path
       d="m 219.43717,134.32569 0.008,-0.005 m 0,0 0.008,-0.006 m 0,0 0.007,-0.006 m 0,0 0.007,-0.006 m 0,0 0.006,-0.006 m 0,0 0.006,-0.006 m 0,0 0.005,-0.007 m 0,0 0.005,-0.007 m 0,0 0.004,-0.007 m 0,0 0.004,-0.007 m 0,0 0.003,-0.007 m 0,0 0.002,-0.007 m 0,0 0.002,-0.007 m 0,0 0.001,-0.007 m 0,0 5.4e-4,-0.007 m 0,0 4e-5,-0.003"
       style="fill:none;stroke:#000000;stroke-width:0.15;stroke-linecap:round;stroke-linejoin:round;stroke-miterlimit:4;stroke-dasharray:none"
       id="path2348" />
    <path
       d="m 219.43717,134.32569 -3e-4,-0.0207 m 0,0 -0.001,-0.0212 m 0,0 -0.002,-0.0216 m 0,0 -0.003,-0.0219 m 0,0 -0.004,-0.0222 m 0,0 -0.005,-0.0225 m 0,0 -0.006,-0.0227 m 0,0 -0.006,-0.0228 m 0,0 -0.007,-0.0229 m 0,0 -0.008,-0.0229 m 0,0 -0.009,-0.0228 m 0,0 -0.01,-0.0227 m 0,0 -0.0103,-0.0225 m 0,0 -0.011,-0.0223 m 0,0 -0.0117,-0.022 m 0,0 -0.0124,-0.0217 m 0,0 -0.013,-0.0213 m 0,0 -0.0136,-0.0209 m 0,0 -0.0142,-0.0204 m 0,0 -0.0147,-0.0199 m 0,0 -0.0152,-0.0193 m 0,0 -0.0156,-0.0186 m 0,0 -0.016,-0.018 m 0,0 -0.0164,-0.0172 m 0,0 -0.0167,-0.0165 m 0,0 -0.017,-0.0156 m 0,0 -0.0173,-0.0148 m 0,0 -0.0175,-0.0139 m 0,0 -0.0176,-0.013 m 0,0 -0.0177,-0.012 m 0,0 -0.0178,-0.011 m 0,0 -0.007,-0.004"
       style="fill:none;stroke:#000000;stroke-width:0.15;stroke-linecap:round;stroke-linejoin:round;stroke-miterlimit:4;stroke-dasharray:none"
       id="path2350" />
    <path
       d="m 216.73813,144.65838 0.0119,-0.008 m 0,0 0.0113,-0.009 m 0,0 0.0105,-0.0102 m 0,0 0.01,-0.0112 m 0,0 0.009,-0.0121 m 0,0 0.008,-0.0131 m 0,0 0.007,-0.014 m 0,0 0.007,-0.0149 m 0,0 0.006,-0.0157 m 0,0 0.005,-0.0165 m 0,0 0.004,-0.0172 m 0,0 0.003,-0.0179 m 0,0 0.002,-0.0186 m 0,0 0.001,-0.0192 m 0,0 4.6e-4,-0.0198 m 0,0 -5e-5,-0.007"
       style="fill:none;stroke:#000000;stroke-width:0.15;stroke-linecap:round;stroke-linejoin:round;stroke-miterlimit:4;stroke-dasharray:none"
       id="path2352" />
    <path
       d="m 216.83483,135.82815 2.60234,-1.50246"
       style="fill:none;stroke:#000000;stroke-width:0.15;stroke-linecap:round;stroke-linejoin:round;stroke-miterlimit:4;stroke-dasharray:none"
       id="path2354" />
    <path
       d="m 203.43647,128.50798 1.51905,0.87702"
       style="fill:none;stroke:#000000;stroke-width:0.15;stroke-linecap:round;stroke-linejoin:round;stroke-miterlimit:4;stroke-dasharray:none"
       id="path2356" />
    <path
       d="m 217.68904,132.90823 1.39463,0.80518"
       style="fill:none;stroke:#000000;stroke-width:0.15;stroke-linecap:round;stroke-linejoin:round;stroke-miterlimit:4;stroke-dasharray:none"
       id="path2358" />
    <path
       d="m 206.49099,126.44303 1.39463,0.80519"
       style="fill:none;stroke:#000000;stroke-width:0.15;stroke-linecap:round;stroke-linejoin:round;stroke-miterlimit:4;stroke-dasharray:none"
       id="path2360" />
    <path
       d="m 216.12161,144.43725 0.0181,0.01 m 0,0 0.0189,0.009 m 0,0 0.0197,0.009 m 0,0 0.0205,0.008 m 0,0 0.0212,0.008 m 0,0 0.0218,0.007 m 0,0 0.0224,0.006 m 0,0 0.0229,0.006 m 0,0 0.0234,0.005 m 0,0 0.0238,0.004 m 0,0 0.0242,0.004 m 0,0 0.0244,0.003 m 0,0 0.0247,0.002 m 0,0 0.0248,0.002 m 0,0 0.025,8.7e-4 m 0,0 0.025,1.5e-4 m 0,0 0.025,-5.7e-4 m 0,0 0.0249,-0.001 m 0,0 0.0247,-0.002 m 0,0 0.0246,-0.003 m 0,0 0.0243,-0.003 m 0,0 0.024,-0.004 m 0,0 0.0236,-0.005 m 0,0 0.0231,-0.005 m 0,0 0.0226,-0.006 m 0,0 0.0221,-0.007 m 0,0 0.0214,-0.007 m 0,0 0.0208,-0.008 m 0,0 0.02,-0.009 m 0,0 0.0193,-0.009 m 0,0 0.0185,-0.01 m 0,0 0.0135,-0.008"
       style="fill:none;stroke:#000000;stroke-width:0.15;stroke-linecap:round;stroke-linejoin:round;stroke-miterlimit:4;stroke-dasharray:none"
       id="path2362" />
    <path
       d="m 219.20558,133.70278 -0.006,-0.003 m 0,0 -0.007,-0.003 m 0,0 -0.007,-0.002 m 0,0 -0.007,-0.002 m 0,0 -0.007,-0.001 m 0,0 -0.008,-5.3e-4 m 0,0 -0.008,3e-5 m 0,0 -0.008,6.1e-4 m 0,0 -0.008,0.001 m 0,0 -0.008,0.002 m 0,0 -0.009,0.002 m 0,0 -0.009,0.003 m 0,0 -0.009,0.003 m 0,0 -0.009,0.004 m 0,0 -0.009,0.004 m 0,0 -0.003,0.002"
       style="fill:none;stroke:#000000;stroke-width:0.15;stroke-linecap:round;stroke-linejoin:round;stroke-miterlimit:4;stroke-dasharray:none"
       id="path2364" />
    <path
       d="m 76.135843,225.68172 v -8.62097"
       style="fill:none;stroke:#000000;stroke-width:0.15;stroke-linecap:round;stroke-linejoin:round;stroke-miterlimit:4;stroke-dasharray:none"
       id="path2368" />
    <path
       d="m 76.135843,217.06075 -5.04e-4,-0.0206 m 0,0 -0.0014,-0.0211 m 0,0 -0.0023,-0.0215 m 0,0 -0.0031,-0.0219 m 0,0 -0.004,-0.0222 m 0,0 -0.0048,-0.0224 m 0,0 -0.0057,-0.0226 m 0,0 -0.0065,-0.0227 m 0,0 -0.0073,-0.0228 m 0,0 -0.0081,-0.0228 m 0,0 -0.0089,-0.0228 m 0,0 -0.0096,-0.0227 m 0,0 -0.01036,-0.0225 m 0,0 -0.01106,-0.0223 m 0,0 -0.01173,-0.022 m 0,0 -0.01237,-0.0217 m 0,0 -0.01298,-0.0214 m 0,0 -0.01356,-0.0209 m 0,0 -0.01411,-0.0204 m 0,0 -0.01462,-0.0199 m 0,0 -0.01509,-0.0193 m 0,0 -0.01552,-0.0187 m 0,0 -0.01592,-0.018 m 0,0 -0.01628,-0.0173 m 0,0 -0.01659,-0.0165 m 0,0 -0.01687,-0.0157 m 0,0 -0.0171,-0.0149 m 0,0 -0.01729,-0.014 m 0,0 -0.01744,-0.0131 m 0,0 -0.01754,-0.0121 m 0,0 -0.0176,-0.0112 m 0,0 -0.0072,-0.004"
       style="fill:none;stroke:#000000;stroke-width:0.15;stroke-linecap:round;stroke-linejoin:round;stroke-miterlimit:4;stroke-dasharray:none"
       id="path2372" />
    <path
       d="m 78.936673,215.44369 0.01754,-0.0103 m 0,0 0.01663,-0.0108 m 0,0 0.01568,-0.0113 m 0,0 0.01468,-0.0117 m 0,0 0.01365,-0.0121 m 0,0 0.01259,-0.0125 m 0,0 0.0115,-0.0128 m 0,0 0.01037,-0.0131 m 0,0 0.0092,-0.0134 m 0,0 0.008,-0.0137 m 0,0 0.0069,-0.0139 m 0,0 0.0057,-0.014 m 0,0 0.0044,-0.0142 m 0,0 0.0032,-0.0143 m 0,0 0.0019,-0.0144 m 0,0 6.96e-4,-0.0144 m 0,0 2e-6,-8.2e-4"
       style="fill:none;stroke:#000000;stroke-width:0.15;stroke-linecap:round;stroke-linejoin:round;stroke-miterlimit:4;stroke-dasharray:none"
       id="path2376" />
    <path
       d="m 74.389079,215.64407 -0.46034,-0.53551 m 0,0 -0.47144,-0.51503 m 0,0 -0.481361,-0.49324 m 0,0 -0.49008,-0.47022 m 0,0 -0.497574,-0.44604 m 0,0 -0.503823,-0.42073 m 0,0 -0.508814,-0.39437 m 0,0 -0.512533,-0.36703 m 0,0 -0.51497,-0.33877 m 0,0 -0.516121,-0.30966 m 0,0 -0.515982,-0.27978 m 0,0 -0.514552,-0.24921 m 0,0 -0.511837,-0.21799 m 0,0 -0.507842,-0.18625 m 0,0 -0.502579,-0.15404 m 0,0 -0.496058,-0.12144 m 0,0 -0.488299,-0.0885 m 0,0 -0.479317,-0.0554 m 0,0 -0.46914,-0.0222 m 0,0 -0.359844,0.006"
       style="fill:none;stroke:#000000;stroke-width:0.15;stroke-linecap:round;stroke-linejoin:round;stroke-miterlimit:4;stroke-dasharray:none"
       id="path2378" />
    <path
       d="m 63.123833,218.44958 8.8e-5,0.004 m 0,0 2.65e-4,0.004 m 0,0 4.41e-4,0.004 m 0,0 6.15e-4,0.004 m 0,0 7.89e-4,0.004 m 0,0 9.6e-4,0.003 m 0,0 0.0011,0.003 m 0,0 0.0013,0.003 m 0,0 0.0015,0.003 m 0,0 0.0016,0.003 m 0,0 0.0018,0.002 m 0,0 0.0019,0.002 m 0,0 0.0021,0.002 m 0,0 0.0022,0.002 m 0,0 0.0023,0.002 m 0,0 0.0017,10e-4"
       style="fill:none;stroke:#000000;stroke-width:0.15;stroke-linecap:round;stroke-linejoin:round;stroke-miterlimit:4;stroke-dasharray:none"
       id="path2398" />
    <path
       d="m 78.583173,214.83142 -2.80083,1.61706"
       style="fill:none;stroke:#000000;stroke-width:0.15;stroke-linecap:round;stroke-linejoin:round;stroke-miterlimit:4;stroke-dasharray:none"
       id="path2400" />
    <path
       d="m 62.811744,217.91893 1.25e-4,0.003 m 0,0 3.74e-4,0.003 m 0,0 6.24e-4,0.003 m 0,0 8.7e-4,0.003 m 0,0 0.0011,0.003 m 0,0 0.0014,0.003 m 0,0 0.0016,0.003 m 0,0 0.0018,0.003 m 0,0 0.0021,0.003 m 0,0 0.0023,0.003 m 0,0 0.0025,0.002 m 0,0 0.0027,0.002 m 0,0 0.0029,0.002 m 0,0 0.0031,0.002 m 0,0 0.0033,0.002 m 0,0 0.0025,0.002"
       style="fill:none;stroke:#000000;stroke-width:0.15;stroke-linecap:round;stroke-linejoin:round;stroke-miterlimit:4;stroke-dasharray:none"
       id="path2402" />
    <path
       d="m 63.193309,209.18019 -0.01773,-0.01 m 0,0 -0.01768,-0.009 m 0,0 -0.01759,-0.007 m 0,0 -0.01746,-0.007 m 0,0 -0.01728,-0.005 m 0,0 -0.01705,-0.004 m 0,0 -0.01679,-0.003 m 0,0 -0.01648,-0.002 m 0,0 -0.01613,-8.6e-4 m 0,0 -0.01574,2.8e-4 m 0,0 -0.01532,0.001 m 0,0 -0.01485,0.003 m 0,0 -0.01435,0.004 m 0,0 -0.01381,0.005 m 0,0 -0.01323,0.006 m 0,0 -0.01263,0.007 m 0,0 -6.63e-4,4.1e-4"
       style="fill:none;stroke:#000000;stroke-width:0.15;stroke-linecap:round;stroke-linejoin:round;stroke-miterlimit:4;stroke-dasharray:none"
       id="path2408" />
    <path
       d="m 64.425651,219.20118 -1.301818,-0.7516"
       style="fill:none;stroke:#000000;stroke-width:0.15;stroke-linecap:round;stroke-linejoin:round;stroke-miterlimit:4;stroke-dasharray:none"
       id="path2416" />
    <path
       d="m 62.841033,217.95975 3.53e-4,0.0165 m 0,0 0.0011,0.0169 m 0,0 0.0018,0.0172 m 0,0 0.0025,0.0175 m 0,0 0.0032,0.0177 m 0,0 0.0038,0.0179 m 0,0 0.0045,0.0181 m 0,0 0.0052,0.0182 m 0,0 0.0058,0.0182 m 0,0 0.0065,0.0182 m 0,0 0.0071,0.0182 m 0,0 0.0077,0.0181 m 0,0 0.0083,0.018 m 0,0 0.0088,0.0179 m 0,0 0.0094,0.0176 m 0,0 0.0099,0.0174 m 0,0 0.01039,0.0171 m 0,0 0.01085,0.0167 m 0,0 0.0113,0.0164 m 0,0 0.01171,0.0159 m 0,0 0.01209,0.0154 m 0,0 0.01244,0.0149 m 0,0 0.01276,0.0144 m 0,0 0.01305,0.0138 m 0,0 0.01331,0.0132 m 0,0 0.01353,0.0126 m 0,0 0.01372,0.0119 m 0,0 0.01387,0.0112 m 0,0 0.01399,0.0105 m 0,0 0.01408,0.01 m 0,0 0.01413,0.009 m 0,0 0.0058,0.003"
       style="fill:none;stroke:#000000;stroke-width:0.15;stroke-linecap:round;stroke-linejoin:round;stroke-miterlimit:4;stroke-dasharray:none"
       id="path2420" />
    <path
       d="m 78.839343,214.80303 -0.01281,-0.007 m 0,0 -0.0134,-0.006 m 0,0 -0.01396,-0.005 m 0,0 -0.01448,-0.003 m 0,0 -0.01497,-0.002 m 0,0 -0.01542,-0.001 m 0,0 -0.01584,7e-5 m 0,0 -0.01621,0.001 m 0,0 -0.01654,0.002 m 0,0 -0.01683,0.004 m 0,0 -0.01708,0.005 m 0,0 -0.01729,0.006 m 0,0 -0.01745,0.007 m 0,0 -0.01757,0.008 m 0,0 -0.01764,0.009 m 0,0 -0.01767,0.01 m 0,0 -10e-4,6e-4"
       style="fill:none;stroke:#000000;stroke-width:0.15;stroke-linecap:round;stroke-linejoin:round;stroke-miterlimit:4;stroke-dasharray:none"
       id="path2428" />
    <path
       d="m 76.135843,217.06075 2.80083,-1.61706"
       style="fill:none;stroke:#000000;stroke-width:0.15;stroke-linecap:round;stroke-linejoin:round;stroke-miterlimit:4;stroke-dasharray:none"
       id="path2436" />
    <path
       d="m 75.782343,216.44848 -1.393264,-0.80441"
       style="fill:none;stroke:#000000;stroke-width:0.15;stroke-linecap:round;stroke-linejoin:round;stroke-miterlimit:4;stroke-dasharray:none"
       id="path2440" />
    <path
       d="m 64.586573,209.9846 -1.393264,-0.80441"
       style="fill:none;stroke:#000000;stroke-width:0.15;stroke-linecap:round;stroke-linejoin:round;stroke-miterlimit:4;stroke-dasharray:none"
       id="path2442" />
    <path
       d="m 71.04119,221.09965 0.04386,-0.0279 m 0,0 0.0415,-0.0317 m 0,0 0.03904,-0.0355 m 0,0 0.03647,-0.0392 m 0,0 0.03382,-0.0427 m 0,0 0.03109,-0.0462 m 0,0 0.02827,-0.0495 m 0,0 0.02539,-0.0527 m 0,0 0.02244,-0.0558 m 0,0 0.01944,-0.0587 m 0,0 0.01638,-0.0615 m 0,0 0.01329,-0.0642 m 0,0 0.01016,-0.0667 m 0,0 0.007,-0.069 m 0,0 0.0038,-0.0711 m 0,0 6.62e-4,-0.0731 m 0,0 -0.0025,-0.0749 m 0,0 -7.56e-4,-0.0131"
       style="fill:none;stroke:#000000;stroke-width:0.15;stroke-linecap:round;stroke-linejoin:round;stroke-miterlimit:4;stroke-dasharray:none"
       id="path2470" />
    <path
       d="m 31.941689,236.99937 v 0.2488"
       style="fill:none;stroke:#000000;stroke-width:0.15;stroke-linecap:round;stroke-linejoin:round;stroke-miterlimit:4;stroke-dasharray:none"
       id="path2476" />
  </g>
</svg>
