<?xml version="1.0" encoding="UTF-8" standalone="no"?>
<!-- Created with Inkscape (http://www.inkscape.org/) -->

<svg
   width="204.60971mm"
   height="124.69563mm"
   viewBox="0 0 204.60971 124.69565"
   version="1.1"
   id="svg4586"
   inkscape:version="1.1 (c68e22c387, 2021-05-23)"
   sodipodi:docname="STopo.svg"
   xmlns:inkscape="http://www.inkscape.org/namespaces/inkscape"
   xmlns:sodipodi="http://sodipodi.sourceforge.net/DTD/sodipodi-0.dtd"
   xmlns="http://www.w3.org/2000/svg"
   xmlns:svg="http://www.w3.org/2000/svg">
  <sodipodi:namedview
     id="namedview4588"
     pagecolor="#505050"
     bordercolor="#ffffff"
     borderopacity="1"
     inkscape:pageshadow="0"
     inkscape:pageopacity="0"
     inkscape:pagecheckerboard="1"
     inkscape:document-units="mm"
     showgrid="false"
     inkscape:zoom="0.8516629"
     inkscape:cx="231.89927"
     inkscape:cy="268.88573"
     inkscape:window-width="1680"
     inkscape:window-height="987"
     inkscape:window-x="1912"
     inkscape:window-y="18"
     inkscape:window-maximized="1"
     inkscape:current-layer="layer1"
     inkscape:snap-page="true" />
  <defs
     id="defs4583" />
  <g
     inkscape:label="Camada 1"
     inkscape:groupmode="layer"
     id="layer1"
     transform="translate(-15.73381,-119.76587)">
    <path
       d="M 216.59292,132.34373 79.80025,211.32102"
       style="fill:none;stroke:#000000;stroke-width:0.15;stroke-linecap:round;stroke-linejoin:round;stroke-miterlimit:4;stroke-dasharray:none"
       id="path1426" />
    <path
       d="M 215.31347,128.47059 78.42143,207.66716"
       style="fill:none;stroke:#000000;stroke-width:0.15;stroke-linecap:round;stroke-linejoin:round;stroke-miterlimit:4;stroke-dasharray:none"
       id="path1428" />
    <path
       d="m 205.75233,123.21159 -136.243,78.65993"
       style="fill:none;stroke:#000000;stroke-width:0.15;stroke-linecap:round;stroke-linejoin:round;stroke-miterlimit:4;stroke-dasharray:none"
       id="path1430" />
    <path
       d="M 204.67319,122.60408 67.88051,201.58137"
       style="fill:none;stroke:#000000;stroke-width:0.15;stroke-linecap:round;stroke-linejoin:round;stroke-miterlimit:4;stroke-dasharray:none"
       id="path1432" />
    <path
       d="M 216.55936,136.08089 79.80025,215.0388"
       style="fill:none;stroke:#000000;stroke-width:0.15;stroke-linecap:round;stroke-linejoin:round;stroke-miterlimit:4;stroke-dasharray:none"
       id="path1434" />
    <path
       d="M 216.59292,133.60658 79.80025,212.58387"
       style="fill:none;stroke:#000000;stroke-width:0.15;stroke-linecap:round;stroke-linejoin:round;stroke-miterlimit:4;stroke-dasharray:none"
       id="path1438" />
    <path
       d="M 216.59292,137.20479 79.80025,216.18207"
       style="fill:none;stroke:#000000;stroke-width:0.15;stroke-linecap:round;stroke-linejoin:round;stroke-miterlimit:4;stroke-dasharray:none"
       id="path1440" />
    <path
       d="m 216.59292,129.48594 v 4.28148"
       style="fill:none;stroke:#000000;stroke-width:0.15;stroke-linecap:round;stroke-linejoin:round;stroke-miterlimit:4;stroke-dasharray:none"
       id="path1442" />
    <path
       d="m 205.9363,122.23313 c -0.0449,0.0248 -0.0873,0.0604 -0.12507,0.10493 -0.0383,0.0451 -0.0709,0.0984 -0.0963,0.15677 -0.0262,0.0602 -0.0442,0.12462 -0.0532,0.18963 -0.005,0.0366 -0.007,0.0732 -0.007,0.109 7e-4,0.0359 0.004,0.071 0.0107,0.10447 1.9e-4,9.8e-4 3.8e-4,0.002 5.8e-4,0.003"
       style="fill:none;stroke:#000000;stroke-width:0.15;stroke-linecap:round;stroke-linejoin:round;stroke-miterlimit:4;stroke-dasharray:none"
       id="path1444" />
    <path
       d="m 216.59292,136.11445 v 1.42369"
       style="fill:none;stroke:#000000;stroke-width:0.15;stroke-linecap:round;stroke-linejoin:round;stroke-miterlimit:4;stroke-dasharray:none"
       id="path1446" />
    <path
       d="m 216.59292,133.76742 -0.0503,-0.007 m 0,0 -0.0493,-0.004 m 0,0 -0.0482,-3.1e-4 m 0,0 -0.047,0.003 m 0,0 -0.0456,0.007 m 0,0 -0.0441,0.0101 m 0,0 -0.0177,0.005"
       style="fill:none;stroke:#000000;stroke-width:0.15;stroke-linecap:round;stroke-linejoin:round;stroke-miterlimit:4;stroke-dasharray:none"
       id="path1448" />
    <path
       d="m 216.09254,133.89548 -0.0317,0.0319 m 0,0 -0.0295,0.0349 m 0,0 -0.0272,0.0379 m 0,0 -0.0248,0.0408 m 0,0 -0.0224,0.0435 m 0,0 -0.0199,0.0462 m 0,0 -0.0174,0.0487 m 0,0 -0.0149,0.0511 m 0,0 -0.0122,0.0534 m 0,0 -0.01,0.0556 m 0,0 -0.007,0.0576 m 0,0 -0.004,0.0594 m 0,0 -0.002,0.0611 m 0,0 0.001,0.0627 m 0,0 0.004,0.0641 m 0,0 0.006,0.0654 m 0,0 0.009,0.0665 m 0,0 0.0117,0.0674 m 0,0 0.0144,0.0681 m 0,0 0.0169,0.0687 m 0,0 0.0195,0.0691 m 0,0 0.0219,0.0694 m 0,0 0.0244,0.0694 m 0,0 0.0267,0.0693 m 0,0 0.029,0.069 m 0,0 0.0313,0.0686 m 0,0 0.0334,0.068 m 0,0 0.0355,0.0672 m 0,0 0.0374,0.0662 m 0,0 0.0393,0.0651 m 0,0 0.0411,0.0638 m 0,0 0.0428,0.0623 m 0,0 0.0444,0.0607 m 0,0 0.0458,0.059 m 0,0 0.0472,0.0571 m 0,0 0.0484,0.055 m 0,0 0.0495,0.0528 m 0,0 0.0417,0.042"
       style="fill:none;stroke:#000000;stroke-width:0.15;stroke-linecap:round;stroke-linejoin:round;stroke-miterlimit:4;stroke-dasharray:none"
       id="path1450" />
    <path
       d="m 208.59652,120.76409 c 0.0219,-0.0121 0.0444,-0.0187 0.0666,-0.0197"
       style="fill:none;stroke:#000000;stroke-width:0.15;stroke-linecap:round;stroke-linejoin:round;stroke-miterlimit:4;stroke-dasharray:none"
       id="path1452" />
    <path
       d="m 205.9363,122.23313 2.66022,-1.46904"
       style="fill:none;stroke:#000000;stroke-width:0.15;stroke-linecap:round;stroke-linejoin:round;stroke-miterlimit:4;stroke-dasharray:none"
       id="path1454" />
    <path
       d="m 215.76304,127.9066 c -0.0445,0.025 -0.0908,0.0584 -0.13648,0.0983 -0.0463,0.0405 -0.091,0.0868 -0.13164,0.13637 -0.042,0.0511 -0.0789,0.10459 -0.1089,0.15746 -0.0169,0.0298 -0.0315,0.0592 -0.0436,0.0876 -0.0121,0.0285 -0.0216,0.056 -0.0284,0.0819 -2e-4,7.6e-4 -4e-4,0.002 -5.9e-4,0.002"
       style="fill:none;stroke:#000000;stroke-width:0.15;stroke-linecap:round;stroke-linejoin:round;stroke-miterlimit:4;stroke-dasharray:none"
       id="path1456" />
    <path
       d="m 216.17477,129.2773 0.41815,0.20865"
       style="fill:none;stroke:#000000;stroke-width:0.150001;stroke-linecap:round;stroke-linejoin:round;stroke-miterlimit:4;stroke-dasharray:none"
       id="path1458" />
    <path
       d="m 218.50878,126.40592 c -2.9e-4,-1.7e-4 -5.8e-4,-3.4e-4 -8.7e-4,-5e-4 -0.012,-0.007 -0.0277,-0.008 -0.0464,-0.005 -0.0184,0.003 -0.0392,0.0113 -0.0615,0.0238"
       style="fill:none;stroke:#000000;stroke-width:0.15;stroke-linecap:round;stroke-linejoin:round;stroke-miterlimit:4;stroke-dasharray:none"
       id="path1460" />
    <path
       d="m 215.76304,127.9066 2.63691,-1.4825"
       style="fill:none;stroke:#000000;stroke-width:0.15;stroke-linecap:round;stroke-linejoin:round;stroke-miterlimit:4;stroke-dasharray:none"
       id="path1462" />
    <path
       d="m 216.59292,137.53814 -0.28869,-0.16668"
       style="fill:none;stroke:#000000;stroke-width:0.15;stroke-linecap:round;stroke-linejoin:round;stroke-miterlimit:4;stroke-dasharray:none"
       id="path1464" />
    <path
       d="m 204.38697,122.76933 v -0.3305"
       style="fill:none;stroke:#000000;stroke-width:0.15;stroke-linecap:round;stroke-linejoin:round;stroke-miterlimit:4;stroke-dasharray:none"
       id="path1466" />
    <path
       d="m 204.38697,122.43883 0.34951,0.20179"
       style="fill:none;stroke:#000000;stroke-width:0.15;stroke-linecap:round;stroke-linejoin:round;stroke-miterlimit:4;stroke-dasharray:none"
       id="path1468" />
    <path
       d="m 204.00093,122.99221 v -1.17248"
       style="fill:none;stroke:#000000;stroke-width:0.15;stroke-linecap:round;stroke-linejoin:round;stroke-miterlimit:4;stroke-dasharray:none"
       id="path1470" />
    <path
       d="m 220.05012,136.56581 c 0.0251,-0.0155 0.048,-0.0344 0.0676,-0.0552 0.0196,-0.0208 0.0359,-0.0434 0.0491,-0.0664 0.0132,-0.023 0.0232,-0.0465 0.0308,-0.0697 0.008,-0.0232 0.0127,-0.0461 0.0159,-0.0685 0.003,-0.0224 0.005,-0.0444 0.005,-0.066"
       style="fill:none;stroke:#000000;stroke-width:0.15;stroke-linecap:round;stroke-linejoin:round;stroke-miterlimit:4;stroke-dasharray:none"
       id="path1472" />
    <path
       d="m 216.93607,138.18201 a 0.5,0.5 0 0 0 0.51297,-0.008"
       style="fill:none;stroke:#000000;stroke-width:0.15;stroke-linecap:round;stroke-linejoin:round;stroke-miterlimit:4;stroke-dasharray:none"
       id="path1474" />
    <path
       d="m 206.95763,119.93098 -2.6935,1.44838"
       style="fill:none;stroke:#000000;stroke-width:0.15;stroke-linecap:round;stroke-linejoin:round;stroke-miterlimit:4;stroke-dasharray:none"
       id="path1476" />
    <path
       d="m 204.26413,121.37936 a 0.5,0.5 0 0 0 -0.2632,0.44037"
       style="fill:none;stroke:#000000;stroke-width:0.15;stroke-linecap:round;stroke-linejoin:round;stroke-miterlimit:4;stroke-dasharray:none"
       id="path1478" />
    <path
       d="m 218.50878,126.40592 1.40771,0.81273"
       style="fill:none;stroke:#000000;stroke-width:0.15;stroke-linecap:round;stroke-linejoin:round;stroke-miterlimit:4;stroke-dasharray:none"
       id="path1480" />
    <path
       d="m 207.32382,119.94827 c -0.0187,-0.0108 -0.0384,-0.0205 -0.0595,-0.0289 -0.0211,-0.008 -0.0435,-0.0154 -0.0673,-0.0205 -0.0239,-0.005 -0.0492,-0.008 -0.0757,-0.008 -0.0265,-1.1e-4 -0.0542,0.003 -0.082,0.009 -0.0278,0.007 -0.0556,0.017 -0.0816,0.031"
       style="fill:none;stroke:#000000;stroke-width:0.15;stroke-linecap:round;stroke-linejoin:round;stroke-miterlimit:4;stroke-dasharray:none"
       id="path1482" />
    <path
       d="m 207.32382,119.94827 1.37609,0.79449"
       style="fill:none;stroke:#000000;stroke-width:0.15;stroke-linecap:round;stroke-linejoin:round;stroke-miterlimit:4;stroke-dasharray:none"
       id="path1484" />
    <path
       d="m 216.93607,138.18201 -1.01787,-0.58767"
       style="fill:none;stroke:#000000;stroke-width:0.15;stroke-linecap:round;stroke-linejoin:round;stroke-miterlimit:4;stroke-dasharray:none"
       id="path1486" />
    <path
       d="m 220.21824,127.7413 v 8.49874"
       style="fill:none;stroke:#000000;stroke-width:0.15;stroke-linecap:round;stroke-linejoin:round;stroke-miterlimit:4;stroke-dasharray:none"
       id="path1488" />
    <path
       d="m 220.05012,136.56581 -2.60108,1.60844"
       style="fill:none;stroke:#000000;stroke-width:0.15;stroke-linecap:round;stroke-linejoin:round;stroke-miterlimit:4;stroke-dasharray:none"
       id="path1490" />
    <path
       d="m 208.66307,120.74434 c 0.61483,-0.0282 1.25901,0.0335 1.91983,0.18176 0.66081,0.1483 1.33834,0.38325 2.02022,0.69921 0.68188,0.31596 1.36811,0.71294 2.04621,1.18288 0.67809,0.46993 1.34801,1.01281 1.99734,1.61806 0.64745,0.6035 1.2744,1.26898 1.86912,1.98371"
       style="fill:none;stroke:#000000;stroke-width:0.15;stroke-linecap:round;stroke-linejoin:round;stroke-miterlimit:4;stroke-dasharray:none"
       id="path1492" />
    <path
       d="m 220.21824,127.7413 c 0,-0.044 -0.006,-0.0862 -0.0157,-0.12688 -0.01,-0.0407 -0.0238,-0.0798 -0.0411,-0.11734 -0.0173,-0.0375 -0.038,-0.0734 -0.0619,-0.10716 -0.0238,-0.0338 -0.0508,-0.0654 -0.0811,-0.0943 -0.0303,-0.0289 -0.0639,-0.055 -0.10204,-0.077"
       style="fill:none;stroke:#000000;stroke-width:0.15;stroke-linecap:round;stroke-linejoin:round;stroke-miterlimit:4;stroke-dasharray:none"
       id="path1494" />
    <path
       d="m 69.38679,210.80126 1.48492,0.85732"
       style="fill:none;stroke:#000000;stroke-width:0.15;stroke-linecap:round;stroke-linejoin:round;stroke-miterlimit:4;stroke-dasharray:none"
       id="path1496" />
    <path
       d="m 64.75524,209.35198 0.002,0.0723 m 0,0 0.005,0.0739 m 0,0 0.008,0.0753 m 0,0 0.0108,0.0766 m 0,0 0.0138,0.0776 m 0,0 0.0168,0.0785 m 0,0 0.0198,0.0791 m 0,0 0.0227,0.0795 m 0,0 0.0255,0.0798 m 0,0 0.0283,0.0799 m 0,0 0.031,0.0797 m 0,0 0.0337,0.0794 m 0,0 0.0362,0.0788 m 0,0 0.0387,0.0781 m 0,0 0.041,0.0772 m 0,0 0.0433,0.076 m 0,0 0.0454,0.0747 m 0,0 0.0475,0.0732 m 0,0 0.0494,0.0715 m 0,0 0.0512,0.0696 m 0,0 0.0529,0.0676 m 0,0 0.0544,0.0654 m 0,0 0.0558,0.063 m 0,0 0.0571,0.0605 m 0,0 0.0582,0.0578 m 0,0 0.0592,0.055 m 0,0 0.06,0.052 m 0,0 0.0607,0.0489 m 0,0 0.0612,0.0457 m 0,0 0.0616,0.0424 m 0,0 0.0618,0.0389 m 0,0 0.0619,0.0354 m 0,0 0.0618,0.0318 m 0,0 0.0615,0.0281 m 0,0 0.0611,0.0243 m 0,0 0.0606,0.0205 m 0,0 0.0599,0.0166 m 0,0 0.059,0.0127 m 0,0 0.058,0.009 m 0,0 0.0569,0.005 m 0,0 0.0556,7.5e-4 m 0,0 0.0542,-0.003 m 0,0 0.0526,-0.007 m 0,0 0.0509,-0.0112 m 0,0 0.0491,-0.0151 m 0,0 0.0471,-0.019 m 0,0 0.0451,-0.0229 m 0,0 0.0429,-0.0267 m 0,0 0.0406,-0.0304 m 0,0 0.0383,-0.0341 m 0,0 0.0358,-0.0376 m 0,0 0.0332,-0.0411 m 0,0 0.0306,-0.0445 m 0,0 0.0278,-0.0477 m 0,0 0.025,-0.0509 m 0,0 0.0222,-0.0539 m 0,0 0.0193,-0.0568 m 0,0 0.0163,-0.0595 m 0,0 0.0133,-0.0621 m 0,0 0.0103,-0.0645 m 0,0 0.007,-0.0668 m 0,0 0.004,-0.0689 m 0,0 8.9e-4,-0.0344"
       style="fill:none;stroke:#000000;stroke-width:0.15;stroke-linecap:round;stroke-linejoin:round;stroke-miterlimit:4;stroke-dasharray:none"
       id="path1498" />
    <path
       d="m 67.22993,210.80525 -4.8e-4,-0.0717 m 0,0 -0.004,-0.0734 m 0,0 -0.007,-0.0749 m 0,0 -0.01,-0.0762 m 0,0 -0.0128,-0.0773 m 0,0 -0.0158,-0.0782 m 0,0 -0.0188,-0.0789 m 0,0 -0.0217,-0.0794 m 0,0 -0.0245,-0.0797 m 0,0 -0.0273,-0.0799 m 0,0 -0.0301,-0.0798 m 0,0 -0.0327,-0.0795 m 0,0 -0.0353,-0.079 m 0,0 -0.0378,-0.0784 m 0,0 -0.0402,-0.0775 m 0,0 -0.0425,-0.0764 m 0,0 -0.0447,-0.0752 m 0,0 -0.0468,-0.0737 m 0,0 -0.0488,-0.0721 m 0,0 -0.0506,-0.0703 m 0,0 -0.0523,-0.0683 m 0,0 -0.0539,-0.0662 m 0,0 -0.0554,-0.0639 m 0,0 -0.0567,-0.0614 m 0,0 -0.0578,-0.0588 m 0,0 -0.0589,-0.056 m 0,0 -0.0597,-0.0531 m 0,0 -0.0605,-0.05 m 0,0 -0.061,-0.0468 m 0,0 -0.0615,-0.0435 m 0,0 -0.0617,-0.0401 m 0,0 -0.0619,-0.0366 m 0,0 -0.006,-0.004"
       style="fill:none;stroke:#000000;stroke-width:0.15;stroke-linecap:round;stroke-linejoin:round;stroke-miterlimit:4;stroke-dasharray:none"
       id="path1500" />
    <path
       d="m 65.97145,208.6255 -0.0618,-0.0327 m 0,0 -0.0616,-0.029 m 0,0 -0.0612,-0.0252 m 0,0 -0.0607,-0.0214 m 0,0 -0.0601,-0.0175 m 0,0 -0.0592,-0.0136 m 0,0 -0.0583,-0.01 m 0,0 -0.0572,-0.006 m 0,0 -0.0559,-0.002 m 0,0 -0.0545,0.002 m 0,0 -0.053,0.006 m 0,0 -0.0513,0.0102 m 0,0 -0.0495,0.0142 m 0,0 -0.0476,0.0181 m 0,0 -0.0456,0.022 m 0,0 -0.0434,0.0258 m 0,0 -0.0412,0.0295 m 0,0 -0.0388,0.0332 m 0,0 -0.0364,0.0368 m 0,0 -0.0338,0.0403 m 0,0 -0.0312,0.0437 m 0,0 -0.0285,0.047 m 0,0 -0.0257,0.0501 m 0,0 -0.0229,0.0532 m 0,0 -0.02,0.0561 m 0,0 -0.017,0.0589 m 0,0 -0.014,0.0615 m 0,0 -0.011,0.0639 m 0,0 -0.008,0.0663 m 0,0 -0.005,0.0684 m 0,0 -0.002,0.0704 m 0,0 -1e-5,0.005"
       style="fill:none;stroke:#000000;stroke-width:0.15;stroke-linecap:round;stroke-linejoin:round;stroke-miterlimit:4;stroke-dasharray:none"
       id="path1502" />
    <path
       d="m 73.02839,214.12848 0.002,0.0723 m 0,0 0.005,0.0739 m 0,0 0.008,0.0753 m 0,0 0.0108,0.0766 m 0,0 0.0138,0.0776 m 0,0 0.0168,0.0785 m 0,0 0.0197,0.0791 m 0,0 0.0227,0.0795 m 0,0 0.0255,0.0798 m 0,0 0.0283,0.0799 m 0,0 0.031,0.0797 m 0,0 0.0337,0.0794 m 0,0 0.0362,0.0788 m 0,0 0.0387,0.0781 m 0,0 0.041,0.0772 m 0,0 0.0433,0.076 m 0,0 0.0454,0.0747 m 0,0 0.0475,0.0732 m 0,0 0.0494,0.0715 m 0,0 0.0512,0.0696 m 0,0 0.0529,0.0676 m 0,0 0.0544,0.0654 m 0,0 0.0558,0.063 m 0,0 0.0571,0.0605 m 0,0 0.0582,0.0578 m 0,0 0.0592,0.055 m 0,0 0.06,0.052 m 0,0 0.0607,0.0489 m 0,0 0.0612,0.0457 m 0,0 0.0616,0.0424 m 0,0 0.0618,0.0389 m 0,0 0.0619,0.0354 m 0,0 0.0618,0.0318 m 0,0 0.0615,0.0281 m 0,0 0.0611,0.0243 m 0,0 0.0606,0.0205 m 0,0 0.0599,0.0166 m 0,0 0.059,0.0127 m 0,0 0.058,0.009 m 0,0 0.0569,0.005 m 0,0 0.0556,7.6e-4 m 0,0 0.0542,-0.003 m 0,0 0.0526,-0.007 m 0,0 0.0509,-0.0112 m 0,0 0.0491,-0.0151 m 0,0 0.0472,-0.019 m 0,0 0.0451,-0.0229 m 0,0 0.0429,-0.0267 m 0,0 0.0406,-0.0304 m 0,0 0.0383,-0.0341 m 0,0 0.0358,-0.0376 m 0,0 0.0332,-0.0411 m 0,0 0.0306,-0.0445 m 0,0 0.0278,-0.0477 m 0,0 0.025,-0.0509 m 0,0 0.0222,-0.0539 m 0,0 0.0193,-0.0568 m 0,0 0.0163,-0.0595 m 0,0 0.0133,-0.0621 m 0,0 0.0103,-0.0645 m 0,0 0.007,-0.0668 m 0,0 0.004,-0.0689 m 0,0 8.9e-4,-0.0344"
       style="fill:none;stroke:#000000;stroke-width:0.15;stroke-linecap:round;stroke-linejoin:round;stroke-miterlimit:4;stroke-dasharray:none"
       id="path1504" />
    <path
       d="m 75.50308,215.58176 -4.8e-4,-0.0717 m 0,0 -0.004,-0.0734 m 0,0 -0.007,-0.0749 m 0,0 -0.01,-0.0762 m 0,0 -0.0128,-0.0773 m 0,0 -0.0158,-0.0782 m 0,0 -0.0188,-0.0789 m 0,0 -0.0217,-0.0794 m 0,0 -0.0245,-0.0797 m 0,0 -0.0273,-0.0799 m 0,0 -0.0301,-0.0798 m 0,0 -0.0328,-0.0795 m 0,0 -0.0353,-0.079 m 0,0 -0.0378,-0.0784 m 0,0 -0.0402,-0.0775 m 0,0 -0.0425,-0.0764 m 0,0 -0.0447,-0.0752 m 0,0 -0.0468,-0.0737 m 0,0 -0.0488,-0.0721 m 0,0 -0.0506,-0.0703 m 0,0 -0.0523,-0.0683 m 0,0 -0.0539,-0.0662 m 0,0 -0.0553,-0.0639 m 0,0 -0.0567,-0.0614 m 0,0 -0.0578,-0.0588 m 0,0 -0.0589,-0.056 m 0,0 -0.0597,-0.0531 m 0,0 -0.0605,-0.05 m 0,0 -0.061,-0.0468 m 0,0 -0.0615,-0.0435 m 0,0 -0.0617,-0.0401 m 0,0 -0.0619,-0.0366 m 0,0 -0.006,-0.004"
       style="fill:none;stroke:#000000;stroke-width:0.15;stroke-linecap:round;stroke-linejoin:round;stroke-miterlimit:4;stroke-dasharray:none"
       id="path1506" />
    <path
       d="m 74.2446,213.402 -0.0618,-0.0327 m 0,0 -0.0616,-0.029 m 0,0 -0.0613,-0.0252 m 0,0 -0.0607,-0.0214 m 0,0 -0.0601,-0.0175 m 0,0 -0.0593,-0.0136 m 0,0 -0.0583,-0.01 m 0,0 -0.0572,-0.006 m 0,0 -0.0559,-0.002 m 0,0 -0.0545,0.002 m 0,0 -0.053,0.006 m 0,0 -0.0513,0.0102 m 0,0 -0.0495,0.0142 m 0,0 -0.0476,0.0181 m 0,0 -0.0456,0.022 m 0,0 -0.0435,0.0258 m 0,0 -0.0412,0.0295 m 0,0 -0.0388,0.0332 m 0,0 -0.0364,0.0368 m 0,0 -0.0338,0.0403 m 0,0 -0.0312,0.0437 m 0,0 -0.0285,0.047 m 0,0 -0.0257,0.0501 m 0,0 -0.0229,0.0532 m 0,0 -0.02,0.0561 m 0,0 -0.017,0.0589 m 0,0 -0.014,0.0615 m 0,0 -0.011,0.064 m 0,0 -0.008,0.0663 m 0,0 -0.005,0.0684 m 0,0 -0.002,0.0704 m 0,0 -1e-5,0.005"
       style="fill:none;stroke:#000000;stroke-width:0.15;stroke-linecap:round;stroke-linejoin:round;stroke-miterlimit:4;stroke-dasharray:none"
       id="path1508" />
    <path
       d="m 68.03814,201.84867 c 0.0445,-0.0268 0.0908,-0.0424 0.13648,-0.0461 0.003,-2.5e-4 0.006,-4.4e-4 0.009,-5.8e-4"
       style="fill:none;stroke:#000000;stroke-width:0.15;stroke-linecap:round;stroke-linejoin:round;stroke-miterlimit:4;stroke-dasharray:none"
       id="path1510" />
    <path
       d="m 68.03814,201.84867 -2.74066,1.6518"
       style="fill:none;stroke:#000000;stroke-width:0.15;stroke-linecap:round;stroke-linejoin:round;stroke-miterlimit:4;stroke-dasharray:none"
       id="path1514" />
    <path
       d="m 77.86488,207.52214 -2.7649,1.63781"
       style="fill:none;stroke:#000000;stroke-width:0.15;stroke-linecap:round;stroke-linejoin:round;stroke-miterlimit:4;stroke-dasharray:none"
       id="path1518" />
    <path
       d="m 68.50106,210.72093 -0.0421,0.0281 m 0,0 -0.0398,0.0318 m 0,0 -0.0373,0.0354 m 0,0 -0.0348,0.0389 m 0,0 -0.0125,0.0156"
       style="fill:none;stroke:#000000;stroke-width:0.15;stroke-linecap:round;stroke-linejoin:round;stroke-miterlimit:4;stroke-dasharray:none"
       id="path1520" />
    <path
       d="m 69.38679,210.80126 -0.0619,-0.0339 m 0,0 -0.0617,-0.0303 m 0,0 -0.0614,-0.0265 m 0,0 -0.0609,-0.0227 m 0,0 -0.0603,-0.0189 m 0,0 -0.0595,-0.015 m 0,0 -0.0586,-0.011 m 0,0 -0.0576,-0.007 m 0,0 -0.0564,-0.003 m 0,0 -0.055,9.1e-4 m 0,0 -0.0535,0.005 m 0,0 -0.0519,0.009 m 0,0 -0.0502,0.0128 m 0,0 -0.0483,0.0168 m 0,0 -0.0463,0.0206 m 0,0 -0.0423,0.0233"
       style="fill:none;stroke:#000000;stroke-width:0.15;stroke-linecap:round;stroke-linejoin:round;stroke-miterlimit:4;stroke-dasharray:none"
       id="path1522" />
    <path
       d="m 72.121192,213.68203 -0.02024,-0.0938 m 0,0 -0.02329,-0.0944 m 0,0 -0.02635,-0.0948 m 0,0 -0.0293,-0.0949 m 0,0 -0.03215,-0.0948 m 0,0 -0.03499,-0.0944 m 0,0 -0.03763,-0.0937 m 0,0 -0.04026,-0.0929 m 0,0 -0.04279,-0.0918 m 0,0 -0.04521,-0.0905 m 0,0 -0.04753,-0.0891 m 0,0 -0.04964,-0.0873 m 0,0 -0.05175,-0.0853 m 0,0 -0.05365,-0.0831 m 0,0 -0.05544,-0.0808 m 0,0 -0.05702,-0.0782 m 0,0 -0.0586,-0.0754 m 0,0 -0.05997,-0.0725 m 0,0 -0.06113,-0.0693 m 0,0 -0.06218,-0.0659 m 0,0 -0.06313,-0.0625 m 0,0 -0.06387,-0.0588 m 0,0 -0.0644,-0.055 m 0,0 -0.06482,-0.0511 m 0,0 -0.06514,-0.047 m 0,0 -0.0391,-0.0262"
       style="fill:none;stroke:#000000;stroke-width:0.15;stroke-linecap:round;stroke-linejoin:round;stroke-miterlimit:4;stroke-dasharray:none"
       id="path1524" />
    <path
       d="m 77.86488,207.52214 c 0.0449,-0.0266 0.0873,-0.0444 0.12507,-0.0527 0.0383,-0.008 0.0709,-0.007 0.0963,0.005 0.003,0.001 0.006,0.003 0.009,0.004"
       style="fill:none;stroke:#000000;stroke-width:0.15;stroke-linecap:round;stroke-linejoin:round;stroke-miterlimit:4;stroke-dasharray:none"
       id="path1526" />
    <path
       d="m 63.85545,212.01123 c -0.0375,-0.0216 -0.0731,-0.049 -0.10637,-0.0806 -0.0332,-0.0317 -0.0641,-0.0677 -0.0915,-0.10662 -0.0275,-0.0389 -0.0517,-0.0808 -0.0717,-0.12414 -0.02,-0.0433 -0.0358,-0.088 -0.0466,-0.1326 -0.0108,-0.0446 -0.0166,-0.0892 -0.0166,-0.13243"
       style="fill:none;stroke:#000000;stroke-width:0.15;stroke-linecap:round;stroke-linejoin:round;stroke-miterlimit:4;stroke-dasharray:none"
       id="path1528" />
    <path
       d="m 76.7383,219.30276 c -0.0182,0.01 -0.0377,0.0171 -0.0577,0.0219 -0.02,0.005 -0.0404,0.007 -0.0608,0.007 -0.0203,-9e-5 -0.0406,-0.002 -0.0605,-0.007 -0.0199,-0.004 -0.0395,-0.0103 -0.0586,-0.0179 -0.0192,-0.008 -0.0379,-0.0169 -0.0562,-0.0274"
       style="fill:none;stroke:#000000;stroke-width:0.15;stroke-linecap:round;stroke-linejoin:round;stroke-miterlimit:4;stroke-dasharray:none"
       id="path1530" />
    <path
       d="m 63.52265,202.94026 v 8.49454"
       style="fill:none;stroke:#000000;stroke-width:0.15;stroke-linecap:round;stroke-linejoin:round;stroke-miterlimit:4;stroke-dasharray:none"
       id="path1532" />
    <path
       d="m 63.85545,212.01123 1.25182,0.72273"
       style="fill:none;stroke:#000000;stroke-width:0.15;stroke-linecap:round;stroke-linejoin:round;stroke-miterlimit:4;stroke-dasharray:none"
       id="path1534" />
    <path
       d="m 70.05916,215.59294 6.38532,3.68657"
       style="fill:none;stroke:#000000;stroke-width:0.15;stroke-linecap:round;stroke-linejoin:round;stroke-miterlimit:4;stroke-dasharray:none"
       id="path1536" />
    <path
       d="m 78.10892,207.48675 c -0.59173,-0.71119 -1.21578,-1.37399 -1.86102,-1.97596 -0.64899,-0.60549 -1.31938,-1.14943 -1.9994,-1.62126 -0.68002,-0.47182 -1.36965,-0.87156 -2.05722,-1.19075 -0.68758,-0.31919 -1.37314,-0.55788 -2.04507,-0.70933 -0.67194,-0.15146 -1.33041,-0.21561 -1.9623,-0.18744"
       style="fill:none;stroke:#000000;stroke-width:0.15;stroke-linecap:round;stroke-linejoin:round;stroke-miterlimit:4;stroke-dasharray:none"
       id="path1538" />
    <path
       d="m 79.53705,217.79778 a 0.5,0.5 0 0 0 0.2632,-0.44037"
       style="fill:none;stroke:#000000;stroke-width:0.15;stroke-linecap:round;stroke-linejoin:round;stroke-miterlimit:4;stroke-dasharray:none"
       id="path1540" />
    <path
       d="m 68.2577,201.79914 -1.39259,-0.80401"
       style="fill:none;stroke:#000000;stroke-width:0.15;stroke-linecap:round;stroke-linejoin:round;stroke-miterlimit:4;stroke-dasharray:none"
       id="path1542" />
    <path
       d="m 79.80025,217.35741 v -8.6055"
       style="fill:none;stroke:#000000;stroke-width:0.15;stroke-linecap:round;stroke-linejoin:round;stroke-miterlimit:4;stroke-dasharray:none"
       id="path1544" />
    <path
       d="m 76.7383,219.30276 2.79875,-1.50498"
       style="fill:none;stroke:#000000;stroke-width:0.15;stroke-linecap:round;stroke-linejoin:round;stroke-miterlimit:4;stroke-dasharray:none"
       id="path1546" />
    <path
       d="m 79.80025,208.75191 a 0.5,0.5 0 0 0 -0.25,-0.43301"
       style="fill:none;stroke:#000000;stroke-width:0.15;stroke-linecap:round;stroke-linejoin:round;stroke-miterlimit:4;stroke-dasharray:none"
       id="path1548" />
    <path
       d="m 66.86511,200.99513 a 0.5,0.5 0 0 0 -0.51297,0.008"
       style="fill:none;stroke:#000000;stroke-width:0.15;stroke-linecap:round;stroke-linejoin:round;stroke-miterlimit:4;stroke-dasharray:none"
       id="path1550" />
    <path
       d="m 63.64942,202.67419 2.70272,-1.6713"
       style="fill:none;stroke:#000000;stroke-width:0.15;stroke-linecap:round;stroke-linejoin:round;stroke-miterlimit:4;stroke-dasharray:none"
       id="path1552" />
    <path
       d="m 63.52265,202.94026 c 0,-0.0212 0.001,-0.042 0.004,-0.0624 0.003,-0.0204 0.007,-0.0404 0.0138,-0.0597 0.006,-0.0193 0.0144,-0.038 0.0245,-0.0557 0.0101,-0.0177 0.0222,-0.0343 0.0363,-0.0492 0.0141,-0.0149 0.0302,-0.0282 0.0478,-0.0391"
       style="fill:none;stroke:#000000;stroke-width:0.15;stroke-linecap:round;stroke-linejoin:round;stroke-miterlimit:4;stroke-dasharray:none"
       id="path1554" />
    <path
       d="m 79.55025,208.3189 -1.45534,-0.84024"
       style="fill:none;stroke:#000000;stroke-width:0.15;stroke-linecap:round;stroke-linejoin:round;stroke-miterlimit:4;stroke-dasharray:none"
       id="path1556" />
    <path
       d="m 65.85126,210.14806 -0.56569,-0.3266"
       style="fill:none;stroke:#000000;stroke-width:0.15;stroke-linecap:round;stroke-linejoin:round;stroke-miterlimit:4;stroke-dasharray:none"
       id="path1558" />
    <path
       d="m 65.28557,209.49486 0.56569,0.3266"
       style="fill:none;stroke:#000000;stroke-width:0.15;stroke-linecap:round;stroke-linejoin:round;stroke-miterlimit:4;stroke-dasharray:none"
       id="path1560" />
    <path
       d="m 65.85126,210.80126 v -0.6532"
       style="fill:none;stroke:#000000;stroke-width:0.15;stroke-linecap:round;stroke-linejoin:round;stroke-miterlimit:4;stroke-dasharray:none"
       id="path1564" />
    <path
       d="m 66.1341,210.96456 -0.28284,-0.1633"
       style="fill:none;stroke:#000000;stroke-width:0.15;stroke-linecap:round;stroke-linejoin:round;stroke-miterlimit:4;stroke-dasharray:none"
       id="path1566" />
    <path
       d="m 66.69978,210.63796 -0.56568,-0.3266"
       style="fill:none;stroke:#000000;stroke-width:0.15;stroke-linecap:round;stroke-linejoin:round;stroke-miterlimit:4;stroke-dasharray:none"
       id="path1568" />
    <path
       d="m 66.1341,209.33156 v 0.6532"
       style="fill:none;stroke:#000000;stroke-width:0.15;stroke-linecap:round;stroke-linejoin:round;stroke-miterlimit:4;stroke-dasharray:none"
       id="path1570" />
    <path
       d="m 66.1341,210.31136 v 0.6532"
       style="fill:none;stroke:#000000;stroke-width:0.15;stroke-linecap:round;stroke-linejoin:round;stroke-miterlimit:4;stroke-dasharray:none"
       id="path1572" />
    <path
       d="m 65.85126,209.82146 v -0.65319"
       style="fill:none;stroke:#000000;stroke-width:0.15;stroke-linecap:round;stroke-linejoin:round;stroke-miterlimit:4;stroke-dasharray:none"
       id="path1574" />
    <path
       d="m 66.69978,210.31136 v 0.3266"
       style="fill:none;stroke:#000000;stroke-width:0.15;stroke-linecap:round;stroke-linejoin:round;stroke-miterlimit:4;stroke-dasharray:none"
       id="path1580" />
    <path
       d="m 65.85126,209.16827 0.28284,0.16329"
       style="fill:none;stroke:#000000;stroke-width:0.15;stroke-linecap:round;stroke-linejoin:round;stroke-miterlimit:4;stroke-dasharray:none"
       id="path1582" />
    <path
       d="m 65.28557,209.82146 v -0.3266"
       style="fill:none;stroke:#000000;stroke-width:0.15;stroke-linecap:round;stroke-linejoin:round;stroke-miterlimit:4;stroke-dasharray:none"
       id="path1584" />
    <path
       d="m 66.1341,209.98476 0.56568,0.3266"
       style="fill:none;stroke:#000000;stroke-width:0.15;stroke-linecap:round;stroke-linejoin:round;stroke-miterlimit:4;stroke-dasharray:none"
       id="path1586" />
    <path
       d="m 74.12441,214.92457 -0.56569,-0.3266"
       style="fill:none;stroke:#000000;stroke-width:0.15;stroke-linecap:round;stroke-linejoin:round;stroke-miterlimit:4;stroke-dasharray:none"
       id="path1598" />
    <path
       d="m 73.55872,214.27137 0.56569,0.3266"
       style="fill:none;stroke:#000000;stroke-width:0.15;stroke-linecap:round;stroke-linejoin:round;stroke-miterlimit:4;stroke-dasharray:none"
       id="path1600" />
    <path
       d="m 74.12441,215.57776 v -0.65319"
       style="fill:none;stroke:#000000;stroke-width:0.15;stroke-linecap:round;stroke-linejoin:round;stroke-miterlimit:4;stroke-dasharray:none"
       id="path1604" />
    <path
       d="m 74.40725,215.74106 -0.28284,-0.1633"
       style="fill:none;stroke:#000000;stroke-width:0.15;stroke-linecap:round;stroke-linejoin:round;stroke-miterlimit:4;stroke-dasharray:none"
       id="path1606" />
    <path
       d="m 74.97293,215.41446 -0.56568,-0.32659"
       style="fill:none;stroke:#000000;stroke-width:0.15;stroke-linecap:round;stroke-linejoin:round;stroke-miterlimit:4;stroke-dasharray:none"
       id="path1608" />
    <path
       d="m 74.40725,214.10807 v 0.6532"
       style="fill:none;stroke:#000000;stroke-width:0.15;stroke-linecap:round;stroke-linejoin:round;stroke-miterlimit:4;stroke-dasharray:none"
       id="path1610" />
    <path
       d="m 74.40725,215.08787 v 0.65319"
       style="fill:none;stroke:#000000;stroke-width:0.15;stroke-linecap:round;stroke-linejoin:round;stroke-miterlimit:4;stroke-dasharray:none"
       id="path1612" />
    <path
       d="m 74.12441,214.59797 v -0.6532"
       style="fill:none;stroke:#000000;stroke-width:0.15;stroke-linecap:round;stroke-linejoin:round;stroke-miterlimit:4;stroke-dasharray:none"
       id="path1614" />
    <path
       d="m 74.97293,215.08787 v 0.32659"
       style="fill:none;stroke:#000000;stroke-width:0.15;stroke-linecap:round;stroke-linejoin:round;stroke-miterlimit:4;stroke-dasharray:none"
       id="path1620" />
    <path
       d="m 74.12441,213.94477 0.28284,0.1633"
       style="fill:none;stroke:#000000;stroke-width:0.15;stroke-linecap:round;stroke-linejoin:round;stroke-miterlimit:4;stroke-dasharray:none"
       id="path1622" />
    <path
       d="m 73.55872,214.59797 v -0.3266"
       style="fill:none;stroke:#000000;stroke-width:0.15;stroke-linecap:round;stroke-linejoin:round;stroke-miterlimit:4;stroke-dasharray:none"
       id="path1624" />
    <path
       d="m 74.40725,214.76127 0.56568,0.3266"
       style="fill:none;stroke:#000000;stroke-width:0.15;stroke-linecap:round;stroke-linejoin:round;stroke-miterlimit:4;stroke-dasharray:none"
       id="path1626" />
    <path
       d="m 28.42569,239.02127 -0.12943,-0.0747"
       style="fill:none;stroke:#000000;stroke-width:0.15;stroke-linecap:round;stroke-linejoin:round;stroke-miterlimit:4;stroke-dasharray:none"
       id="path1638" />
    <path
       d="m 26.06773,235.27345 -0.0438,0.0279 m 0,0 -0.0415,0.0317 m 0,0 -0.039,0.0355 m 0,0 -0.0365,0.0392 m 0,0 -0.0338,0.0427 m 0,0 -0.0311,0.0462 m 0,0 -0.0283,0.0495 m 0,0 -0.0254,0.0527 m 0,0 -0.0224,0.0558 m 0,0 -0.0194,0.0587 m 0,0 -0.0164,0.0615 m 0,0 -0.0133,0.0642 m 0,0 -0.006,0.0374"
       style="fill:none;stroke:#000000;stroke-width:0.15;stroke-linecap:round;stroke-linejoin:round;stroke-miterlimit:4;stroke-dasharray:none"
       id="path1640" />
    <path
       d="m 26.96773,235.3626 -0.0636,-0.0349 m 0,0 -0.0635,-0.0311 m 0,0 -0.0631,-0.0273 m 0,0 -0.0627,-0.0234 m 0,0 -0.062,-0.0194 m 0,0 -0.0612,-0.0154 m 0,0 -0.0603,-0.0114 m 0,0 -0.0592,-0.007 m 0,0 -0.058,-0.003 m 0,0 -0.0566,9.3e-4 m 0,0 -0.0551,0.005 m 0,0 -0.0534,0.009 m 0,0 -0.0516,0.0132 m 0,0 -0.0497,0.0172 m 0,0 -0.0476,0.0212 m 0,0 -0.0324,0.0174"
       style="fill:none;stroke:#000000;stroke-width:0.15;stroke-linecap:round;stroke-linejoin:round;stroke-miterlimit:4;stroke-dasharray:none"
       id="path1642" />
    <path
       d="m 25.71062,235.87649 -0.003,0.0716 m 0,0 1.1e-4,0.0735 m 0,0 0.003,0.0753 m 0,0 0.006,0.0768 m 0,0 0.008,0.0695"
       style="fill:none;stroke:#000000;stroke-width:0.15;stroke-linecap:round;stroke-linejoin:round;stroke-miterlimit:4;stroke-dasharray:none"
       id="path1646" />
    <path
       d="m 26.96773,235.3626 1.47023,0.84884"
       style="fill:none;stroke:#000000;stroke-width:0.15;stroke-linecap:round;stroke-linejoin:round;stroke-miterlimit:4;stroke-dasharray:none"
       id="path1648" />
    <path
       d="m 29.69507,238.17691 -0.0115,-0.0789 m 0,0 -0.0146,-0.08 m 0,0 -0.0177,-0.0808 m 0,0 -0.0207,-0.0814 m 0,0 -0.0237,-0.0819 m 0,0 -0.0267,-0.0821 m 0,0 -0.0295,-0.0821 m 0,0 -0.0323,-0.082 m 0,0 -0.035,-0.0816 m 0,0 -0.0376,-0.081 m 0,0 -0.0401,-0.0802 m 0,0 -0.0425,-0.0792 m 0,0 -0.0449,-0.078 m 0,0 -0.047,-0.0766 m 0,0 -0.0491,-0.0751 m 0,0 -0.0511,-0.0733 m 0,0 -0.0529,-0.0713 m 0,0 -0.0546,-0.0692 m 0,0 -0.0562,-0.0669 m 0,0 -0.0576,-0.0645 m 0,0 -0.0589,-0.0618 m 0,0 -0.06,-0.0591 m 0,0 -0.061,-0.0561 m 0,0 -0.0618,-0.0531 m 0,0 -0.0625,-0.0499 m 0,0 -0.063,-0.0465 m 0,0 -0.0634,-0.0431 m 0,0 -0.0636,-0.0396 m 0,0 -0.0174,-0.0102"
       style="fill:none;stroke:#000000;stroke-width:0.15;stroke-linecap:round;stroke-linejoin:round;stroke-miterlimit:4;stroke-dasharray:none"
       id="path1650" />
    <path
       d="m 29.32569,239.11042 0.0439,-0.0279 m 0,0 0.0415,-0.0317 m 0,0 0.039,-0.0355 m 0,0 0.0365,-0.0391 m 0,0 0.0338,-0.0427 m 0,0 0.0311,-0.0462 m 0,0 0.0283,-0.0495 m 0,0 0.0254,-0.0527 m 0,0 0.0224,-0.0558 m 0,0 0.0194,-0.0587 m 0,0 0.0164,-0.0615 m 0,0 0.0133,-0.0642 m 0,0 0.0102,-0.0667 m 0,0 0.007,-0.069 m 0,0 0.004,-0.0711 m 0,0 6.6e-4,-0.0731 m 0,0 -0.003,-0.0749 m 0,0 -7.5e-4,-0.0131"
       style="fill:none;stroke:#000000;stroke-width:0.15;stroke-linecap:round;stroke-linejoin:round;stroke-miterlimit:4;stroke-dasharray:none"
       id="path1652" />
    <path
       d="m 28.42569,239.02127 0.0636,0.0349 m 0,0 0.0635,0.0311 m 0,0 0.0631,0.0273 m 0,0 0.0627,0.0234 m 0,0 0.062,0.0194 m 0,0 0.0612,0.0154 m 0,0 0.0603,0.0114 m 0,0 0.0592,0.007 m 0,0 0.058,0.003 m 0,0 0.0566,-9.3e-4 m 0,0 0.0551,-0.005 m 0,0 0.0534,-0.009 m 0,0 0.0516,-0.0132 m 0,0 0.0497,-0.0172 m 0,0 0.0476,-0.0212 m 0,0 0.0324,-0.0174"
       style="fill:none;stroke:#000000;stroke-width:0.15;stroke-linecap:round;stroke-linejoin:round;stroke-miterlimit:4;stroke-dasharray:none"
       id="path1654" />
    <path
       d="m 71.75209,214.61552 -42.4264,24.4949"
       style="fill:none;stroke:#000000;stroke-width:0.15;stroke-linecap:round;stroke-linejoin:round;stroke-miterlimit:4;stroke-dasharray:none"
       id="path1656" />
    <path
       d="m 68.49414,210.77855 c 0.0566,-0.0327 0.12249,-0.0763 0.19332,-0.13099"
       style="fill:none;stroke:#000000;stroke-width:0.15;stroke-linecap:round;stroke-linejoin:round;stroke-miterlimit:4;stroke-dasharray:none"
       id="path1658" />
    <path
       d="m 26.06773,235.27345 42.42641,-24.4949"
       style="fill:none;stroke:#000000;stroke-width:0.15;stroke-linecap:round;stroke-linejoin:round;stroke-miterlimit:4;stroke-dasharray:none"
       id="path1660" />
    <path
       d="m 20.11861,241.32809 0.0146,-0.009 m 0,0 0.0138,-0.0106 m 0,0 0.013,-0.0118 m 0,0 0.0122,-0.013 m 0,0 0.0113,-0.0142 m 0,0 0.0104,-0.0154 m 0,0 0.009,-0.0165 m 0,0 0.008,-0.0176 m 0,0 0.007,-0.0186 m 0,0 0.006,-0.0196 m 0,0 0.005,-0.0205 m 0,0 0.004,-0.0214 m 0,0 0.003,-0.0222 m 0,0 0.002,-0.023 m 0,0 0.001,-0.0237 m 0,0 2.2e-4,-0.0244 m 0,0 -8.4e-4,-0.025 m 0,0 -0.002,-0.0255 m 0,0 -0.003,-0.026 m 0,0 -0.004,-0.0264 m 0,0 -0.005,-0.0267 m 0,0 -0.006,-0.027 m 0,0 -0.007,-0.0272 m 0,0 -0.008,-0.0273 m 0,0 -0.009,-0.0274 m 0,0 -0.01,-0.0274 m 0,0 -0.0109,-0.0273 m 0,0 -0.0118,-0.0272 m 0,0 -0.0127,-0.027 m 0,0 -0.0135,-0.0267 m 0,0 -0.0143,-0.0264 m 0,0 -0.0151,-0.0259 m 0,0 -0.0158,-0.0255 m 0,0 -0.0165,-0.0249 m 0,0 -0.0171,-0.0243 m 0,0 -0.0177,-0.0237 m 0,0 -0.0183,-0.023 m 0,0 -0.0188,-0.0222 m 0,0 -0.0193,-0.0214 m 0,0 -0.0197,-0.0205 m 0,0 -0.0201,-0.0196 m 0,0 -0.0204,-0.0186 m 0,0 -0.0206,-0.0175 m 0,0 -0.0209,-0.0165 m 0,0 -0.021,-0.0154 m 0,0 -0.0212,-0.0142 m 0,0 -0.0212,-0.013 m 0,0 -0.0212,-0.0118 m 0,0 -0.0212,-0.0105 m 0,0 -0.0211,-0.009 m 0,0 -0.0209,-0.008 m 0,0 -0.0207,-0.007 m 0,0 -0.0204,-0.005 m 0,0 -0.0201,-0.004 m 0,0 -0.0198,-0.003 m 0,0 -0.0194,-0.001 m 0,0 -0.0189,1.4e-4 m 0,0 -0.0184,0.001 m 0,0 -0.0179,0.003 m 0,0 -0.0173,0.004 m 0,0 -0.0166,0.006 m 0,0 -0.016,0.007 m 0,0 -0.0127,0.007"
       style="fill:none;stroke:#000000;stroke-width:0.15;stroke-linecap:round;stroke-linejoin:round;stroke-miterlimit:4;stroke-dasharray:none"
       id="path1662" />
    <path
       d="m 15.98307,242.3301 -0.0146,0.009 m 0,0 -0.0138,0.0106 m 0,0 -0.013,0.0118 m 0,0 -0.0122,0.0131 m 0,0 -0.0113,0.0142 m 0,0 -0.0104,0.0154 m 0,0 -0.009,0.0165 m 0,0 -0.008,0.0176 m 0,0 -0.007,0.0186 m 0,0 -0.006,0.0196 m 0,0 -0.005,0.0205 m 0,0 -0.004,0.0214 m 0,0 -0.003,0.0222 m 0,0 -0.002,0.023 m 0,0 -0.001,0.0237 m 0,0 -2.6e-4,0.0172"
       style="fill:none;stroke:#000000;stroke-width:0.15;stroke-linecap:round;stroke-linejoin:round;stroke-miterlimit:4;stroke-dasharray:none"
       id="path1664" />
    <path
       d="m 16.58307,243.36933 0.0146,-0.009 m 0,0 0.0138,-0.0106 m 0,0 0.013,-0.0118 m 0,0 0.0122,-0.013 m 0,0 0.0113,-0.0142 m 0,0 0.0104,-0.0154 m 0,0 0.009,-0.0165 m 0,0 0.008,-0.0176 m 0,0 0.007,-0.0186 m 0,0 0.006,-0.0196 m 0,0 0.005,-0.0205 m 0,0 0.004,-0.0214 m 0,0 0.003,-0.0222 m 0,0 0.002,-0.023 m 0,0 0.001,-0.0237 m 0,0 2.2e-4,-0.0244 m 0,0 -8.4e-4,-0.025 m 0,0 -0.002,-0.0255 m 0,0 -0.003,-0.026 m 0,0 -0.004,-0.0264 m 0,0 -0.005,-0.0267 m 0,0 -0.006,-0.027 m 0,0 -0.007,-0.0272 m 0,0 -0.008,-0.0273 m 0,0 -0.009,-0.0274 m 0,0 -0.01,-0.0274 m 0,0 -0.0109,-0.0273 m 0,0 -0.0118,-0.0272 m 0,0 -0.0127,-0.027 m 0,0 -0.0135,-0.0267 m 0,0 -0.0143,-0.0264 m 0,0 -0.0151,-0.0259 m 0,0 -0.0158,-0.0255 m 0,0 -0.0165,-0.0249 m 0,0 -0.0171,-0.0243 m 0,0 -0.0177,-0.0237 m 0,0 -0.0183,-0.023 m 0,0 -0.0188,-0.0222 m 0,0 -0.0193,-0.0214 m 0,0 -0.0197,-0.0205 m 0,0 -0.0201,-0.0196 m 0,0 -0.0204,-0.0186 m 0,0 -0.0207,-0.0175 m 0,0 -0.0209,-0.0165 m 0,0 -0.021,-0.0154 m 0,0 -0.0211,-0.0142 m 0,0 -0.0212,-0.013 m 0,0 -0.0212,-0.0118 m 0,0 -0.0212,-0.0105 m 0,0 -0.0211,-0.009 m 0,0 -0.0209,-0.008 m 0,0 -0.0207,-0.007 m 0,0 -0.0204,-0.005 m 0,0 -0.0202,-0.004 m 0,0 -0.0198,-0.003 m 0,0 -0.0194,-0.001 m 0,0 -0.0189,1.4e-4 m 0,0 -0.0184,10e-4 m 0,0 -0.0179,0.003 m 0,0 -0.0173,0.004 m 0,0 -0.0166,0.006 m 0,0 -0.016,0.007 m 0,0 -0.0127,0.007"
       style="fill:none;stroke:#000000;stroke-width:0.15;stroke-linecap:round;stroke-linejoin:round;stroke-miterlimit:4;stroke-dasharray:none"
       id="path1666" />
    <path
       d="m 15.85881,242.60477 5.3e-4,0.0248 m 0,0 0.002,0.0253 m 0,0 0.003,0.0258 m 0,0 0.004,0.0262 m 0,0 0.005,0.0266 m 0,0 0.006,0.0269 m 0,0 0.007,0.0271 m 0,0 0.008,0.0273 m 0,0 0.009,0.0274 m 0,0 0.01,0.0274 m 0,0 0.0106,0.0273 m 0,0 0.0115,0.0272 m 0,0 0.0124,0.027 m 0,0 0.0133,0.0268 m 0,0 0.0141,0.0265 m 0,0 0.0148,0.0261 m 0,0 0.0156,0.0256 m 0,0 0.0163,0.0251 m 0,0 0.0169,0.0245 m 0,0 0.0176,0.0239 m 0,0 0.0181,0.0232 m 0,0 0.0187,0.0224 m 0,0 0.0191,0.0216 m 0,0 0.0196,0.0207 m 0,0 0.0199,0.0198 m 0,0 0.0203,0.0189 m 0,0 0.0206,0.0178 m 0,0 0.0208,0.0168 m 0,0 0.021,0.0157 m 0,0 0.0211,0.0145 m 0,0 0.0212,0.0134 m 0,0 0.0212,0.0121 m 0,0 0.0212,0.0109 m 0,0 0.0211,0.01 m 0,0 0.0209,0.008 m 0,0 0.0208,0.007 m 0,0 0.0205,0.006 m 0,0 0.0202,0.004 m 0,0 0.0199,0.003 m 0,0 0.0195,0.002 m 0,0 0.0191,2.5e-4 m 0,0 0.0186,-10e-4 m 0,0 0.018,-0.002 m 0,0 0.0174,-0.004 m 0,0 0.0168,-0.005 m 0,0 0.0162,-0.007 m 0,0 0.0155,-0.008 m 0,0 0.002,-0.001"
       style="fill:none;stroke:#000000;stroke-width:0.15;stroke-linecap:round;stroke-linejoin:round;stroke-miterlimit:4;stroke-dasharray:none"
       id="path1668" />
    <path
       d="m 19.31861,239.94245 -0.0244,0.0155 m 0,0 -0.0231,0.0176 m 0,0 -0.0217,0.0197 m 0,0 -0.0203,0.0217 m 0,0 -0.0188,0.0237 m 0,0 -0.0173,0.0257 m 0,0 -0.0157,0.0275 m 0,0 -0.0141,0.0293 m 0,0 -0.0125,0.031 m 0,0 -0.0108,0.0326 m 0,0 -0.009,0.0342 m 0,0 -0.007,0.0357 m 0,0 -0.006,0.037 m 0,0 -0.004,0.0383 m 0,0 -0.002,0.0395 m 0,0 -4.4e-4,0.0286"
       style="fill:none;stroke:#000000;stroke-width:0.15;stroke-linecap:round;stroke-linejoin:round;stroke-miterlimit:4;stroke-dasharray:none"
       id="path1670" />
    <path
       d="m 20.31861,241.6745 0.0244,-0.0155 m 0,0 0.0231,-0.0176 m 0,0 0.0217,-0.0197 m 0,0 0.0203,-0.0217 m 0,0 0.0188,-0.0237 m 0,0 0.0173,-0.0257 m 0,0 0.0157,-0.0275 m 0,0 0.0141,-0.0293 m 0,0 0.0125,-0.031 m 0,0 0.0108,-0.0326 m 0,0 0.009,-0.0342 m 0,0 0.007,-0.0357 m 0,0 0.006,-0.037 m 0,0 0.004,-0.0383 m 0,0 0.002,-0.0395 m 0,0 3.7e-4,-0.0406 m 0,0 -0.001,-0.0416 m 0,0 -0.003,-0.0425 m 0,0 -0.005,-0.0433 m 0,0 -0.007,-0.0439 m 0,0 -0.008,-0.0445 m 0,0 -0.0101,-0.045 m 0,0 -0.0118,-0.0453 m 0,0 -0.0134,-0.0455 m 0,0 -0.015,-0.0456 m 0,0 -0.0166,-0.0456 m 0,0 -0.0182,-0.0455 m 0,0 -0.0197,-0.0453 m 0,0 -0.0211,-0.0449 m 0,0 -0.0225,-0.0445 m 0,0 -0.0238,-0.0439 m 0,0 -0.0251,-0.0432 m 0,0 -0.0263,-0.0425 m 0,0 -0.0275,-0.0416 m 0,0 -0.0285,-0.0406 m 0,0 -0.0296,-0.0395 m 0,0 -0.0305,-0.0383 m 0,0 -0.0313,-0.037 m 0,0 -0.0321,-0.0356 m 0,0 -0.0328,-0.0341 m 0,0 -0.0334,-0.0326 m 0,0 -0.034,-0.0309 m 0,0 -0.0344,-0.0292 m 0,0 -0.0348,-0.0274 m 0,0 -0.035,-0.0256 m 0,0 -0.0352,-0.0237 m 0,0 -0.0353,-0.0217 m 0,0 -0.0354,-0.0196 m 0,0 -0.0353,-0.0176 m 0,0 -0.0351,-0.0154 m 0,0 -0.0349,-0.0133 m 0,0 -0.0345,-0.0111 m 0,0 -0.0341,-0.009 m 0,0 -0.0336,-0.007 m 0,0 -0.033,-0.004 m 0,0 -0.0323,-0.002 m 0,0 -0.0315,2.3e-4 m 0,0 -0.0307,0.002 m 0,0 -0.0298,0.005 m 0,0 -0.0288,0.007 m 0,0 -0.0277,0.009 m 0,0 -0.0266,0.0115 m 0,0 -0.0212,0.0113"
       style="fill:none;stroke:#000000;stroke-width:0.15;stroke-linecap:round;stroke-linejoin:round;stroke-miterlimit:4;stroke-dasharray:none"
       id="path1672" />
    <path
       d="m 19.71861,241.55903 0.0351,0.025 m 0,0 0.0353,0.0231 m 0,0 0.0353,0.0211 m 0,0 0.0353,0.019 m 0,0 0.0352,0.017 m 0,0 0.035,0.0148 m 0,0 0.0348,0.0126 m 0,0 0.0344,0.0104 m 0,0 0.034,0.008 m 0,0 0.0334,0.006 m 0,0 0.0328,0.004 m 0,0 0.0321,0.001 m 0,0 0.0313,-8.9e-4 m 0,0 0.0304,-0.003 m 0,0 0.0295,-0.005 m 0,0 0.0285,-0.008 m 0,0 0.0274,-0.01 m 0,0 0.0263,-0.0122 m 0,0 0.0138,-0.008"
       style="fill:none;stroke:#000000;stroke-width:0.15;stroke-linecap:round;stroke-linejoin:round;stroke-miterlimit:4;stroke-dasharray:none"
       id="path1674" />
    <path
       d="m 19.1115,240.40022 8.8e-4,0.0413 m 0,0 0.003,0.0422 m 0,0 0.004,0.036"
       style="fill:none;stroke:#000000;stroke-width:0.15;stroke-linecap:round;stroke-linejoin:round;stroke-miterlimit:4;stroke-dasharray:none"
       id="path1676" />
    <path
       d="m 21.74495,242.26706 0.0146,-0.009 m 0,0 0.0138,-0.0106 m 0,0 0.013,-0.0118 m 0,0 0.0122,-0.0131 m 0,0 0.0113,-0.0142 m 0,0 0.0104,-0.0154 m 0,0 0.009,-0.0165 m 0,0 0.008,-0.0176 m 0,0 0.007,-0.0186 m 0,0 0.006,-0.0196 m 0,0 0.005,-0.0205 m 0,0 0.004,-0.0214 m 0,0 0.003,-0.0222 m 0,0 0.002,-0.023 m 0,0 0.001,-0.0237 m 0,0 2.2e-4,-0.0244 m 0,0 -8.4e-4,-0.025 m 0,0 -0.002,-0.0255 m 0,0 -0.003,-0.026 m 0,0 -0.004,-0.0264 m 0,0 -0.005,-0.0267 m 0,0 -0.006,-0.027 m 0,0 -0.007,-0.0272 m 0,0 -0.008,-0.0273 m 0,0 -0.009,-0.0274 m 0,0 -0.01,-0.0274 m 0,0 -0.0109,-0.0273 m 0,0 -0.0118,-0.0272 m 0,0 -0.0127,-0.027 m 0,0 -0.0135,-0.0267 m 0,0 -0.0143,-0.0263 m 0,0 -0.0151,-0.0259 m 0,0 -0.0158,-0.0255 m 0,0 -0.0165,-0.0249 m 0,0 -0.0171,-0.0243 m 0,0 -0.0177,-0.0237 m 0,0 -0.0183,-0.023 m 0,0 -0.0188,-0.0222 m 0,0 -0.0193,-0.0214 m 0,0 -0.0197,-0.0205 m 0,0 -0.0201,-0.0195 m 0,0 -0.0204,-0.0186 m 0,0 -0.0207,-0.0175 m 0,0 -0.0209,-0.0165 m 0,0 -0.021,-0.0153 m 0,0 -0.0211,-0.0142 m 0,0 -0.0212,-0.013 m 0,0 -0.0212,-0.0118 m 0,0 -0.0212,-0.0105 m 0,0 -0.0211,-0.009 m 0,0 -0.0209,-0.008 m 0,0 -0.0207,-0.007 m 0,0 -0.0204,-0.005 m 0,0 -0.0202,-0.004 m 0,0 -0.0198,-0.003 m 0,0 -0.0194,-0.001 m 0,0 -0.0189,1.4e-4 m 0,0 -0.0184,10e-4 m 0,0 -0.0179,0.003 m 0,0 -0.0173,0.004 m 0,0 -0.0166,0.006 m 0,0 -0.016,0.007 m 0,0 -0.0127,0.007"
       style="fill:none;stroke:#000000;stroke-width:0.15;stroke-linecap:round;stroke-linejoin:round;stroke-miterlimit:4;stroke-dasharray:none"
       id="path1678" />
    <path
       d="m 20.94495,240.88142 -0.0244,0.0155 m 0,0 -0.0231,0.0176 m 0,0 -0.0217,0.0197 m 0,0 -0.0203,0.0217 m 0,0 -0.0188,0.0237 m 0,0 -0.0173,0.0257 m 0,0 -0.0157,0.0275 m 0,0 -0.0141,0.0293 m 0,0 -0.0125,0.031 m 0,0 -0.0108,0.0326 m 0,0 -0.009,0.0342 m 0,0 -0.007,0.0357 m 0,0 -0.006,0.037 m 0,0 -0.004,0.0383 m 0,0 -0.002,0.0395 m 0,0 -4.5e-4,0.0286"
       style="fill:none;stroke:#000000;stroke-width:0.15;stroke-linecap:round;stroke-linejoin:round;stroke-miterlimit:4;stroke-dasharray:none"
       id="path1680" />
    <path
       d="m 21.94495,242.61347 0.0244,-0.0155 m 0,0 0.0231,-0.0176 m 0,0 0.0217,-0.0197 m 0,0 0.0203,-0.0217 m 0,0 0.0188,-0.0237 m 0,0 0.0173,-0.0256 m 0,0 0.0157,-0.0275 m 0,0 0.0141,-0.0293 m 0,0 0.0125,-0.031 m 0,0 0.0108,-0.0326 m 0,0 0.009,-0.0342 m 0,0 0.007,-0.0357 m 0,0 0.006,-0.037 m 0,0 0.004,-0.0383 m 0,0 0.002,-0.0395 m 0,0 3.7e-4,-0.0406 m 0,0 -0.001,-0.0416 m 0,0 -0.003,-0.0425 m 0,0 -0.005,-0.0433 m 0,0 -0.007,-0.0439 m 0,0 -0.008,-0.0445 m 0,0 -0.0101,-0.045 m 0,0 -0.0118,-0.0453 m 0,0 -0.0134,-0.0455 m 0,0 -0.0151,-0.0456 m 0,0 -0.0166,-0.0456 m 0,0 -0.0182,-0.0455 m 0,0 -0.0197,-0.0453 m 0,0 -0.0211,-0.0449 m 0,0 -0.0225,-0.0445 m 0,0 -0.0238,-0.0439 m 0,0 -0.0251,-0.0432 m 0,0 -0.0263,-0.0425 m 0,0 -0.0275,-0.0416 m 0,0 -0.0285,-0.0406 m 0,0 -0.0296,-0.0395 m 0,0 -0.0305,-0.0383 m 0,0 -0.0313,-0.037 m 0,0 -0.0321,-0.0356 m 0,0 -0.0328,-0.0341 m 0,0 -0.0334,-0.0326 m 0,0 -0.034,-0.0309 m 0,0 -0.0344,-0.0292 m 0,0 -0.0348,-0.0274 m 0,0 -0.0351,-0.0256 m 0,0 -0.0352,-0.0237 m 0,0 -0.0353,-0.0217 m 0,0 -0.0353,-0.0196 m 0,0 -0.0353,-0.0176 m 0,0 -0.0351,-0.0154 m 0,0 -0.0349,-0.0133 m 0,0 -0.0345,-0.0111 m 0,0 -0.0341,-0.009 m 0,0 -0.0336,-0.007 m 0,0 -0.033,-0.004 m 0,0 -0.0323,-0.002 m 0,0 -0.0315,2.3e-4 m 0,0 -0.0307,0.002 m 0,0 -0.0298,0.005 m 0,0 -0.0288,0.007 m 0,0 -0.0277,0.009 m 0,0 -0.0266,0.0115 m 0,0 -0.0212,0.0112"
       style="fill:none;stroke:#000000;stroke-width:0.15;stroke-linecap:round;stroke-linejoin:round;stroke-miterlimit:4;stroke-dasharray:none"
       id="path1682" />
    <path
       d="m 21.34495,242.498 0.0351,0.025 m 0,0 0.0353,0.0231 m 0,0 0.0354,0.0211 m 0,0 0.0353,0.0191 m 0,0 0.0352,0.0169 m 0,0 0.035,0.0148 m 0,0 0.0348,0.0126 m 0,0 0.0344,0.0104 m 0,0 0.0339,0.008 m 0,0 0.0334,0.006 m 0,0 0.0328,0.004 m 0,0 0.0321,0.001 m 0,0 0.0313,-8.9e-4 m 0,0 0.0304,-0.003 m 0,0 0.0295,-0.005 m 0,0 0.0285,-0.008 m 0,0 0.0274,-0.01 m 0,0 0.0263,-0.0121 m 0,0 0.0138,-0.008"
       style="fill:none;stroke:#000000;stroke-width:0.15;stroke-linecap:round;stroke-linejoin:round;stroke-miterlimit:4;stroke-dasharray:none"
       id="path1684" />
    <path
       d="m 20.73784,241.3392 8.9e-4,0.0413 m 0,0 0.003,0.0422 m 0,0 0.004,0.036"
       style="fill:none;stroke:#000000;stroke-width:0.15;stroke-linecap:round;stroke-linejoin:round;stroke-miterlimit:4;stroke-dasharray:none"
       id="path1686" />
    <path
       d="m 29.01602,238.53099 0.0244,-0.0155 m 0,0 0.0231,-0.0176 m 0,0 0.0217,-0.0197 m 0,0 0.0203,-0.0217 m 0,0 0.0188,-0.0237 m 0,0 0.0173,-0.0256 m 0,0 0.0157,-0.0275 m 0,0 0.0141,-0.0293 m 0,0 0.0125,-0.031 m 0,0 0.0108,-0.0326 m 0,0 0.009,-0.0342 m 0,0 0.007,-0.0357 m 0,0 0.006,-0.037 m 0,0 0.004,-0.0383 m 0,0 0.002,-0.0395 m 0,0 3.7e-4,-0.0406 m 0,0 -10e-4,-0.0416 m 0,0 -0.003,-0.0425 m 0,0 -0.005,-0.0433 m 0,0 -0.007,-0.0439 m 0,0 -0.008,-0.0445 m 0,0 -0.0101,-0.045 m 0,0 -0.0118,-0.0453 m 0,0 -0.0134,-0.0455 m 0,0 -0.0151,-0.0456 m 0,0 -0.0166,-0.0456 m 0,0 -0.0182,-0.0455 m 0,0 -0.0196,-0.0453 m 0,0 -0.0211,-0.0449 m 0,0 -0.0225,-0.0445 m 0,0 -0.0238,-0.0439 m 0,0 -0.0251,-0.0432 m 0,0 -0.0263,-0.0425 m 0,0 -0.0275,-0.0416 m 0,0 -0.0285,-0.0406 m 0,0 -0.0296,-0.0395 m 0,0 -0.0305,-0.0383 m 0,0 -0.0313,-0.037 m 0,0 -0.0321,-0.0356 m 0,0 -0.0328,-0.0341 m 0,0 -0.0334,-0.0326 m 0,0 -0.034,-0.0309 m 0,0 -0.0344,-0.0292 m 0,0 -0.0348,-0.0274 m 0,0 -0.035,-0.0256 m 0,0 -0.0352,-0.0237 m 0,0 -0.0353,-0.0217 m 0,0 -0.0353,-0.0196 m 0,0 -0.0353,-0.0176 m 0,0 -0.0351,-0.0154 m 0,0 -0.0349,-0.0133 m 0,0 -0.0345,-0.0111 m 0,0 -0.0341,-0.009 m 0,0 -0.0336,-0.007 m 0,0 -0.033,-0.004 m 0,0 -0.0323,-0.002 m 0,0 -0.0315,2.3e-4 m 0,0 -0.0307,0.002 m 0,0 -0.0298,0.005 m 0,0 -0.0288,0.007 m 0,0 -0.0277,0.009 m 0,0 -0.0266,0.0115 m 0,0 -0.0212,0.0113"
       style="fill:none;stroke:#000000;stroke-width:0.15;stroke-linecap:round;stroke-linejoin:round;stroke-miterlimit:4;stroke-dasharray:none"
       id="path1688" />
    <path
       d="m 17.60942,243.26907 -0.0146,0.009 m 0,0 -0.0138,0.0106 m 0,0 -0.013,0.0118 m 0,0 -0.0121,0.013 m 0,0 -0.0113,0.0142 m 0,0 -0.0104,0.0154 m 0,0 -0.009,0.0165 m 0,0 -0.008,0.0176 m 0,0 -0.007,0.0186 m 0,0 -0.006,0.0196 m 0,0 -0.005,0.0205 m 0,0 -0.004,0.0214 m 0,0 -0.003,0.0222 m 0,0 -0.002,0.023 m 0,0 -0.001,0.0237 m 0,0 -2.7e-4,0.0172"
       style="fill:none;stroke:#000000;stroke-width:0.15;stroke-linecap:round;stroke-linejoin:round;stroke-miterlimit:4;stroke-dasharray:none"
       id="path1690" />
    <path
       d="m 18.20942,244.3083 0.0146,-0.009 m 0,0 0.0138,-0.0106 m 0,0 0.013,-0.0118 m 0,0 0.0122,-0.013 m 0,0 0.0113,-0.0142 m 0,0 0.0104,-0.0154 m 0,0 0.009,-0.0165 m 0,0 0.008,-0.0176 m 0,0 0.007,-0.0186 m 0,0 0.006,-0.0196 m 0,0 0.005,-0.0205 m 0,0 0.004,-0.0214 m 0,0 0.003,-0.0222 m 0,0 0.002,-0.023 m 0,0 10e-4,-0.0237 m 0,0 2.2e-4,-0.0244 m 0,0 -8.4e-4,-0.025 m 0,0 -0.002,-0.0255 m 0,0 -0.003,-0.026 m 0,0 -0.004,-0.0264 m 0,0 -0.005,-0.0267 m 0,0 -0.006,-0.027 m 0,0 -0.007,-0.0272 m 0,0 -0.008,-0.0273 m 0,0 -0.009,-0.0274 m 0,0 -0.01,-0.0274 m 0,0 -0.0109,-0.0273 m 0,0 -0.0118,-0.0272 m 0,0 -0.0127,-0.027 m 0,0 -0.0135,-0.0267 m 0,0 -0.0143,-0.0264 m 0,0 -0.0151,-0.0259 m 0,0 -0.0158,-0.0255 m 0,0 -0.0165,-0.0249 m 0,0 -0.0171,-0.0243 m 0,0 -0.0177,-0.0237 m 0,0 -0.0183,-0.023 m 0,0 -0.0188,-0.0222 m 0,0 -0.0193,-0.0214 m 0,0 -0.0197,-0.0205 m 0,0 -0.0201,-0.0196 m 0,0 -0.0204,-0.0186 m 0,0 -0.0207,-0.0175 m 0,0 -0.0209,-0.0165 m 0,0 -0.021,-0.0153 m 0,0 -0.0211,-0.0142 m 0,0 -0.0212,-0.013 m 0,0 -0.0212,-0.0118 m 0,0 -0.0212,-0.0105 m 0,0 -0.0211,-0.009 m 0,0 -0.0209,-0.008 m 0,0 -0.0207,-0.007 m 0,0 -0.0204,-0.005 m 0,0 -0.0201,-0.004 m 0,0 -0.0198,-0.003 m 0,0 -0.0194,-10e-4 m 0,0 -0.0189,1.4e-4 m 0,0 -0.0184,0.001 m 0,0 -0.0179,0.003 m 0,0 -0.0173,0.004 m 0,0 -0.0166,0.006 m 0,0 -0.016,0.007 m 0,0 -0.0127,0.007"
       style="fill:none;stroke:#000000;stroke-width:0.15;stroke-linecap:round;stroke-linejoin:round;stroke-miterlimit:4;stroke-dasharray:none"
       id="path1692" />
    <path
       d="m 17.48515,243.54374 5.3e-4,0.0248 m 0,0 0.002,0.0253 m 0,0 0.003,0.0258 m 0,0 0.004,0.0263 m 0,0 0.005,0.0266 m 0,0 0.006,0.0269 m 0,0 0.007,0.0271 m 0,0 0.008,0.0273 m 0,0 0.009,0.0274 m 0,0 0.01,0.0274 m 0,0 0.0106,0.0273 m 0,0 0.0115,0.0272 m 0,0 0.0124,0.027 m 0,0 0.0132,0.0268 m 0,0 0.0141,0.0264 m 0,0 0.0148,0.0261 m 0,0 0.0156,0.0256 m 0,0 0.0163,0.0251 m 0,0 0.0169,0.0245 m 0,0 0.0176,0.0239 m 0,0 0.0181,0.0232 m 0,0 0.0187,0.0224 m 0,0 0.0191,0.0216 m 0,0 0.0196,0.0207 m 0,0 0.02,0.0198 m 0,0 0.0203,0.0188 m 0,0 0.0206,0.0178 m 0,0 0.0208,0.0168 m 0,0 0.021,0.0157 m 0,0 0.0211,0.0145 m 0,0 0.0212,0.0134 m 0,0 0.0212,0.0121 m 0,0 0.0212,0.0109 m 0,0 0.0211,0.01 m 0,0 0.021,0.008 m 0,0 0.0208,0.007 m 0,0 0.0205,0.006 m 0,0 0.0202,0.004 m 0,0 0.0199,0.003 m 0,0 0.0195,0.002 m 0,0 0.0191,2.6e-4 m 0,0 0.0186,-0.001 m 0,0 0.018,-0.002 m 0,0 0.0175,-0.004 m 0,0 0.0168,-0.005 m 0,0 0.0162,-0.006 m 0,0 0.0155,-0.008 m 0,0 0.002,-10e-4"
       style="fill:none;stroke:#000000;stroke-width:0.15;stroke-linecap:round;stroke-linejoin:round;stroke-miterlimit:4;stroke-dasharray:none"
       id="path1694" />
    <path
       d="m 27.59262,237.04339 -0.005,-0.0432 m 0,0 -0.006,-0.0439 m 0,0 -0.008,-0.0444 m 0,0 -0.01,-0.0449 m 0,0 -0.0116,-0.0452 m 0,0 -0.0132,-0.0455 m 0,0 -0.0148,-0.0456 m 0,0 -0.0164,-0.0456 m 0,0 -0.018,-0.0455 m 0,0 -0.0195,-0.0453 m 0,0 -0.0209,-0.045 m 0,0 -0.0223,-0.0445 m 0,0 -0.0237,-0.044 m 0,0 -0.0249,-0.0433 m 0,0 -0.0262,-0.0426 m 0,0 -0.0273,-0.0417 m 0,0 -0.0284,-0.0407 m 0,0 -0.0294,-0.0396 m 0,0 -0.0304,-0.0384 m 0,0 -0.0312,-0.0372 m 0,0 -0.032,-0.0358 m 0,0 -0.0327,-0.0343 m 0,0 -0.0334,-0.0328 m 0,0 -0.0339,-0.0311 m 0,0 -0.0344,-0.0294 m 0,0 -0.0347,-0.0277 m 0,0 -0.035,-0.0258 m 0,0 -0.0352,-0.0239 m 0,0 -0.0353,-0.0219 m 0,0 -0.0353,-0.0199 m 0,0 -0.0353,-0.0178 m 0,0 -0.0351,-0.0157 m 0,0 -0.0349,-0.0135 m 0,0 -0.0346,-0.0113 m 0,0 -0.0341,-0.009 m 0,0 -0.0336,-0.007 m 0,0 -0.0331,-0.005 m 0,0 -0.0324,-0.002 m 0,0 -0.0316,-5e-5 m 0,0 -0.0308,0.002 m 0,0 -0.0299,0.004 m 0,0 -0.0289,0.007 m 0,0 -0.0279,0.009 m 0,0 -0.0267,0.0112 m 0,0 -0.0244,0.0128"
       style="fill:none;stroke:#000000;stroke-width:0.15;stroke-linecap:round;stroke-linejoin:round;stroke-miterlimit:4;stroke-dasharray:none"
       id="path1696" />
    <path
       d="m 21.74495,242.26706 -3.53553,2.04124"
       style="fill:none;stroke:#000000;stroke-width:0.15;stroke-linecap:round;stroke-linejoin:round;stroke-miterlimit:4;stroke-dasharray:none"
       id="path1698" />
    <path
       d="m 26.38967,235.85996 -7.07106,4.08249"
       style="fill:none;stroke:#000000;stroke-width:0.15;stroke-linecap:round;stroke-linejoin:round;stroke-miterlimit:4;stroke-dasharray:none"
       id="path1700" />
    <path
       d="m 21.14495,241.22783 -3.53553,2.04124"
       style="fill:none;stroke:#000000;stroke-width:0.15;stroke-linecap:round;stroke-linejoin:round;stroke-miterlimit:4;stroke-dasharray:none"
       id="path1702" />
    <path
       d="m 29.01602,238.53099 -7.07107,4.08248"
       style="fill:none;stroke:#000000;stroke-width:0.15;stroke-linecap:round;stroke-linejoin:round;stroke-miterlimit:4;stroke-dasharray:none"
       id="path1704" />
    <path
       d="m 28.01602,236.79894 -7.07107,4.08248"
       style="fill:none;stroke:#000000;stroke-width:0.15;stroke-linecap:round;stroke-linejoin:round;stroke-miterlimit:4;stroke-dasharray:none"
       id="path1706" />
    <path
       d="m 19.51861,240.28886 -3.53554,2.04124"
       style="fill:none;stroke:#000000;stroke-width:0.15;stroke-linecap:round;stroke-linejoin:round;stroke-miterlimit:4;stroke-dasharray:none"
       id="path1708" />
    <path
       d="m 20.74201,241.43005 -0.4234,0.24445"
       style="fill:none;stroke:#000000;stroke-width:0.15;stroke-linecap:round;stroke-linejoin:round;stroke-miterlimit:4;stroke-dasharray:none"
       id="path1710" />
    <path
       d="m 20.11861,241.32809 -3.53554,2.04124"
       style="fill:none;stroke:#000000;stroke-width:0.15;stroke-linecap:round;stroke-linejoin:round;stroke-miterlimit:4;stroke-dasharray:none"
       id="path1712" />
    <path
       d="M 79.80024,208.74906 216.59292,129.77177"
       style="fill:none;stroke:#000000;stroke-width:0.15;stroke-linecap:round;stroke-linejoin:round;stroke-miterlimit:4;stroke-dasharray:none"
       id="path1714" />
    <path
       d="M 216.24977,129.09614 79.340671,208.1979"
       style="fill:none;stroke:#000000;stroke-width:0.15;stroke-linecap:round;stroke-linejoin:round;stroke-miterlimit:4;stroke-dasharray:none"
       id="path1716" />
    <path
       d="m 219.79457,127.22929 -2.60233,1.50245"
       style="fill:none;stroke:#000000;stroke-width:0.15;stroke-linecap:round;stroke-linejoin:round;stroke-miterlimit:4;stroke-dasharray:none"
       id="path1724" />
    <path
       d="m 216.83251,129.34762 v 8.6055"
       style="fill:none;stroke:#000000;stroke-width:0.15;stroke-linecap:round;stroke-linejoin:round;stroke-miterlimit:4;stroke-dasharray:none"
       id="path1726" />
    <path
       d="m 217.54574,137.94953 v -8.60551"
       style="fill:none;stroke:#000000;stroke-width:0.15;stroke-linecap:round;stroke-linejoin:round;stroke-miterlimit:4;stroke-dasharray:none"
       id="path1734" />
    <path
       d="m 216.83251,129.34762 0.0181,0.01 m 0,0 0.019,0.009 m 0,0 0.0197,0.009 m 0,0 0.0205,0.008 m 0,0 0.0212,0.008 m 0,0 0.0218,0.007 m 0,0 0.0224,0.006 m 0,0 0.0229,0.006 m 0,0 0.0234,0.005 m 0,0 0.0238,0.004 m 0,0 0.0242,0.004 m 0,0 0.0245,0.003 m 0,0 0.0247,0.002 m 0,0 0.0248,0.002 m 0,0 0.0249,8.7e-4 m 0,0 0.025,1.5e-4 m 0,0 0.025,-5.7e-4 m 0,0 0.0249,-0.001 m 0,0 0.0248,-0.002 m 0,0 0.0246,-0.003 m 0,0 0.0243,-0.003 m 0,0 0.024,-0.004 m 0,0 0.0236,-0.005 m 0,0 0.0231,-0.005 m 0,0 0.0226,-0.006 m 0,0 0.0221,-0.007 m 0,0 0.0214,-0.007 m 0,0 0.0208,-0.008 m 0,0 0.0201,-0.009 m 0,0 0.0193,-0.009 m 0,0 0.0185,-0.01 m 0,0 0.0135,-0.008"
       style="fill:none;stroke:#000000;stroke-width:0.15;stroke-linecap:round;stroke-linejoin:round;stroke-miterlimit:4;stroke-dasharray:none"
       id="path1746" />
    <path
       d="m 217.54574,129.34402 -1.5e-4,-0.0208 m 0,0 -0.001,-0.0213 m 0,0 -0.002,-0.0217 m 0,0 -0.003,-0.022 m 0,0 -0.004,-0.0223 m 0,0 -0.005,-0.0225 m 0,0 -0.005,-0.0227 m 0,0 -0.006,-0.0228 m 0,0 -0.007,-0.0229 m 0,0 -0.008,-0.0229 m 0,0 -0.009,-0.0228 m 0,0 -0.01,-0.0227 m 0,0 -0.0103,-0.0226 m 0,0 -0.011,-0.0223 m 0,0 -0.0117,-0.0221 m 0,0 -0.0124,-0.0217 m 0,0 -0.013,-0.0213 m 0,0 -0.0136,-0.0209 m 0,0 -0.0142,-0.0204 m 0,0 -0.0147,-0.0199 m 0,0 -0.0152,-0.0192 m 0,0 -0.0157,-0.0186 m 0,0 -0.0161,-0.0179 m 0,0 -0.0165,-0.0172 m 0,0 -0.0168,-0.0164 m 0,0 -0.0171,-0.0156 m 0,0 -0.0174,-0.0147 m 0,0 -0.0176,-0.0138 m 0,0 -0.0177,-0.0129 m 0,0 -0.0179,-0.012 m 0,0 -0.0179,-0.011 m 0,0 -0.007,-0.004"
       style="fill:none;stroke:#000000;stroke-width:0.15;stroke-linecap:round;stroke-linejoin:round;stroke-miterlimit:4;stroke-dasharray:none"
       id="path1748" />
    <path
       d="m 215.31347,128.4706 -0.44498,-0.52261 m 0,0 -0.45592,-0.50291 m 0,0 -0.46572,-0.48196 m 0,0 -0.47437,-0.4598 m 0,0 -0.48182,-0.4365 m 0,0 -0.48807,-0.41211 m 0,0 -0.4931,-0.38667 m 0,0 -0.4969,-0.36029 m 0,0 -0.49946,-0.333 m 0,0 -0.50076,-0.30487 m 0,0 -0.50082,-0.27598 m 0,0 -0.49962,-0.2464 m 0,0 -0.49718,-0.21622 m 0,0 -0.4935,-0.18548 m 0,0 -0.48857,-0.15428 m 0,0 -0.48243,-0.1227 m 0,0 -0.47508,-0.0908 m 0,0 -0.46654,-0.0587 m 0,0 -0.45685,-0.0264 m 0,0 -0.446,0.006 m 0,0 -0.0394,0.002"
       style="fill:none;stroke:#000000;stroke-width:0.15;stroke-linecap:round;stroke-linejoin:round;stroke-miterlimit:4;stroke-dasharray:none"
       id="path1750" />
    <path
       d="m 217.19224,128.73174 -0.0177,0.0104 m 0,0 -0.0176,0.0114 m 0,0 -0.0176,0.0123 m 0,0 -0.0174,0.0133 m 0,0 -0.0173,0.0142 m 0,0 -0.0171,0.0151 m 0,0 -0.0168,0.0159 m 0,0 -0.0166,0.0167 m 0,0 -0.0162,0.0175 m 0,0 -0.0159,0.0182 m 0,0 -0.0154,0.0188 m 0,0 -0.015,0.0195 m 0,0 -0.0145,0.02 m 0,0 -0.014,0.0206 m 0,0 -0.0134,0.021 m 0,0 -0.0128,0.0214 m 0,0 -0.0122,0.0218 m 0,0 -0.0116,0.0221 m 0,0 -0.0109,0.0224 m 0,0 -0.0102,0.0226 m 0,0 -0.009,0.0227 m 0,0 -0.009,0.0228 m 0,0 -0.008,0.0228 m 0,0 -0.007,0.0228 m 0,0 -0.006,0.0227 m 0,0 -0.005,0.0226 m 0,0 -0.005,0.0224 m 0,0 -0.004,0.0221 m 0,0 -0.003,0.0218 m 0,0 -0.002,0.0214 m 0,0 -10e-4,0.021 m 0,0 -2.6e-4,0.0158"
       style="fill:none;stroke:#000000;stroke-width:0.15;stroke-linecap:round;stroke-linejoin:round;stroke-miterlimit:4;stroke-dasharray:none"
       id="path1752" />
    <path
       d="m 217.19224,128.73174 -1.4292,-0.82514"
       style="fill:none;stroke:#000000;stroke-width:0.15;stroke-linecap:round;stroke-linejoin:round;stroke-miterlimit:4;stroke-dasharray:none"
       id="path1756" />
    <path
       d="m 204.00093,121.81973 6.3e-4,0.0144 m 0,0 0.002,0.0144 m 0,0 0.003,0.0143 m 0,0 0.004,0.0142 m 0,0 0.006,0.0141 m 0,0 0.007,0.0139 m 0,0 0.008,0.0137 m 0,0 0.009,0.0134 m 0,0 0.0103,0.0132 m 0,0 0.0114,0.0128 m 0,0 0.0125,0.0125 m 0,0 0.0136,0.0121 m 0,0 0.0146,0.0117 m 0,0 0.0156,0.0113 m 0,0 0.0166,0.0108 m 0,0 0.0123,0.007"
       style="fill:none;stroke:#000000;stroke-width:0.15;stroke-linecap:round;stroke-linejoin:round;stroke-miterlimit:4;stroke-dasharray:none"
       id="path1758" />
    <path
       d="m 205.9363,122.23313 -1.4292,-0.82515"
       style="fill:none;stroke:#000000;stroke-width:0.15;stroke-linecap:round;stroke-linejoin:round;stroke-miterlimit:4;stroke-dasharray:none"
       id="path1760" />
    <path
       d="m 204.5071,121.40798 -0.0174,-0.01 m 0,0 -0.0173,-0.009 m 0,0 -0.0173,-0.008 m 0,0 -0.0172,-0.007 m 0,0 -0.017,-0.006 m 0,0 -0.0168,-0.004 m 0,0 -0.0166,-0.003 m 0,0 -0.0163,-0.002 m 0,0 -0.0159,-9.7e-4 m 0,0 -0.0156,1.9e-4 m 0,0 -0.0152,0.001 m 0,0 -0.0147,0.002 m 0,0 -0.0143,0.004 m 0,0 -0.0137,0.005 m 0,0 -0.0132,0.006 m 0,0 -0.005,0.002"
       style="fill:none;stroke:#000000;stroke-width:0.15;stroke-linecap:round;stroke-linejoin:round;stroke-miterlimit:4;stroke-dasharray:none"
       id="path1764" />
    <path
       d="m 216.83251,137.95312 4.5e-4,0.0202 m 0,0 10e-4,0.0196 m 0,0 0.002,0.019 m 0,0 0.003,0.0183 m 0,0 0.004,0.0176 m 0,0 0.005,0.0169 m 0,0 0.006,0.0161 m 0,0 0.006,0.0153 m 0,0 0.007,0.0144 m 0,0 0.008,0.0135 m 0,0 0.009,0.0125 m 0,0 0.01,0.0116 m 0,0 0.0103,0.0106 m 0,0 0.0111,0.01 m 0,0 0.0117,0.009 m 0,0 0.009,0.005"
       style="fill:none;stroke:#000000;stroke-width:0.15;stroke-linecap:round;stroke-linejoin:round;stroke-miterlimit:4;stroke-dasharray:none"
       id="path1766" />
    <path
       d="m 215.76304,127.9066 -0.46276,-0.53755 m 0,0 -0.47388,-0.51692 m 0,0 -0.48382,-0.49501 m 0,0 -0.49255,-0.47186 m 0,0 -0.50005,-0.44752 m 0,0 -0.5063,-0.42208 m 0,0 -0.51128,-0.39558 m 0,0 -0.51499,-0.36808 m 0,0 -0.51741,-0.33967 m 0,0 -0.51854,-0.31041 m 0,0 -0.51836,-0.28037 m 0,0 -0.5169,-0.24964 m 0,0 -0.51414,-0.21827 m 0,0 -0.51009,-0.18636 m 0,0 -0.50478,-0.15399 m 0,0 -0.4982,-0.12124 m 0,0 -0.49037,-0.0882 m 0,0 -0.48133,-0.0549 m 0,0 -0.47106,-0.0215 m 0,0 -0.33993,0.006"
       style="fill:none;stroke:#000000;stroke-width:0.15;stroke-linecap:round;stroke-linejoin:round;stroke-miterlimit:4;stroke-dasharray:none"
       id="path1768" />
    <path
       d="m 215.31347,128.4706 1.51904,0.87702"
       style="fill:none;stroke:#000000;stroke-width:0.15;stroke-linecap:round;stroke-linejoin:round;stroke-miterlimit:4;stroke-dasharray:none"
       id="path1770" />
    <path
       d="m 220.14807,127.84157 0.008,-0.005 m 0,0 0.008,-0.006 m 0,0 0.007,-0.006 m 0,0 0.007,-0.006 m 0,0 0.006,-0.006 m 0,0 0.006,-0.006 m 0,0 0.005,-0.007 m 0,0 0.005,-0.007 m 0,0 0.004,-0.007 m 0,0 0.004,-0.007 m 0,0 0.003,-0.007 m 0,0 0.002,-0.007 m 0,0 0.002,-0.007 m 0,0 0.001,-0.007 m 0,0 5.4e-4,-0.007 m 0,0 4e-5,-0.003"
       style="fill:none;stroke:#000000;stroke-width:0.15;stroke-linecap:round;stroke-linejoin:round;stroke-miterlimit:4;stroke-dasharray:none"
       id="path1772" />
    <path
       d="m 217.44904,138.17425 0.0119,-0.008 m 0,0 0.0112,-0.009 m 0,0 0.0105,-0.0102 m 0,0 0.01,-0.0112 m 0,0 0.009,-0.0121 m 0,0 0.008,-0.0131 m 0,0 0.007,-0.014 m 0,0 0.007,-0.0149 m 0,0 0.006,-0.0157 m 0,0 0.005,-0.0165 m 0,0 0.004,-0.0172 m 0,0 0.003,-0.0179 m 0,0 0.002,-0.0186 m 0,0 10e-4,-0.0192 m 0,0 4.7e-4,-0.0198 m 0,0 -5e-5,-0.007"
       style="fill:none;stroke:#000000;stroke-width:0.15;stroke-linecap:round;stroke-linejoin:round;stroke-miterlimit:4;stroke-dasharray:none"
       id="path1776" />
    <path
       d="m 217.54574,129.34402 2.60233,-1.50245"
       style="fill:none;stroke:#000000;stroke-width:0.15;stroke-linecap:round;stroke-linejoin:round;stroke-miterlimit:4;stroke-dasharray:none"
       id="path1778" />
    <path
       d="m 204.14738,122.02385 1.51905,0.87702"
       style="fill:none;stroke:#000000;stroke-width:0.15;stroke-linecap:round;stroke-linejoin:round;stroke-miterlimit:4;stroke-dasharray:none"
       id="path1780" />
    <path
       d="m 219.91649,127.21865 -0.006,-0.003 m 0,0 -0.007,-0.003 m 0,0 -0.007,-0.002 m 0,0 -0.007,-0.002 m 0,0 -0.007,-0.001 m 0,0 -0.008,-5.3e-4 m 0,0 -0.008,3e-5 m 0,0 -0.008,6.1e-4 m 0,0 -0.008,0.001 m 0,0 -0.008,0.002 m 0,0 -0.009,0.002 m 0,0 -0.009,0.003 m 0,0 -0.009,0.003 m 0,0 -0.009,0.004 m 0,0 -0.009,0.004 m 0,0 -0.003,0.002"
       style="fill:none;stroke:#000000;stroke-width:0.15;stroke-linecap:round;stroke-linejoin:round;stroke-miterlimit:4;stroke-dasharray:none"
       id="path1788" />
    <path
       d="m 76.84675,219.07116 v -8.49453"
       style="fill:none;stroke:#000000;stroke-width:0.15;stroke-linecap:round;stroke-linejoin:round;stroke-miterlimit:4;stroke-dasharray:none"
       id="path1792" />
    <path
       d="m 76.84675,210.57663 -5.1e-4,-0.0206 m 0,0 -10e-4,-0.0211 m 0,0 -0.002,-0.0215 m 0,0 -0.003,-0.0219 m 0,0 -0.004,-0.0221 m 0,0 -0.005,-0.0224 m 0,0 -0.006,-0.0226 m 0,0 -0.007,-0.0227 m 0,0 -0.007,-0.0228 m 0,0 -0.008,-0.0228 m 0,0 -0.009,-0.0228 m 0,0 -0.01,-0.0227 m 0,0 -0.0104,-0.0225 m 0,0 -0.0111,-0.0223 m 0,0 -0.0117,-0.022 m 0,0 -0.0124,-0.0217 m 0,0 -0.013,-0.0213 m 0,0 -0.0136,-0.0209 m 0,0 -0.0141,-0.0204 m 0,0 -0.0146,-0.0199 m 0,0 -0.0151,-0.0193 m 0,0 -0.0155,-0.0187 m 0,0 -0.0159,-0.018 m 0,0 -0.0163,-0.0173 m 0,0 -0.0166,-0.0165 m 0,0 -0.0169,-0.0157 m 0,0 -0.0171,-0.0149 m 0,0 -0.0173,-0.014 m 0,0 -0.0174,-0.0131 m 0,0 -0.0175,-0.0121 m 0,0 -0.0176,-0.0112 m 0,0 -0.007,-0.004"
       style="fill:none;stroke:#000000;stroke-width:0.15;stroke-linecap:round;stroke-linejoin:round;stroke-miterlimit:4;stroke-dasharray:none"
       id="path1796" />
    <path
       d="m 79.64758,208.95957 0.0175,-0.0103 m 0,0 0.0166,-0.0108 m 0,0 0.0157,-0.0112 m 0,0 0.0147,-0.0117 m 0,0 0.0136,-0.0121 m 0,0 0.0126,-0.0125 m 0,0 0.0115,-0.0128 m 0,0 0.0104,-0.0131 m 0,0 0.009,-0.0134 m 0,0 0.008,-0.0137 m 0,0 0.007,-0.0139 m 0,0 0.006,-0.0141 m 0,0 0.004,-0.0142 m 0,0 0.003,-0.0143 m 0,0 0.002,-0.0144 m 0,0 7e-4,-0.0144 m 0,0 v -8.3e-4"
       style="fill:none;stroke:#000000;stroke-width:0.15;stroke-linecap:round;stroke-linejoin:round;stroke-miterlimit:4;stroke-dasharray:none"
       id="path1800" />
    <path
       d="m 75.09998,209.15995 -0.46034,-0.53552 m 0,0 -0.47144,-0.51503 m 0,0 -0.48136,-0.49324 m 0,0 -0.49008,-0.47022 m 0,0 -0.49757,-0.44604 m 0,0 -0.50382,-0.42073 m 0,0 -0.50882,-0.39437 m 0,0 -0.51253,-0.36703 m 0,0 -0.51497,-0.33877 m 0,0 -0.51612,-0.30966 m 0,0 -0.51598,-0.27978 m 0,0 -0.51456,-0.2492 m 0,0 -0.51183,-0.218 m 0,0 -0.50785,-0.18625 m 0,0 -0.50257,-0.15404 m 0,0 -0.49606,-0.12144 m 0,0 -0.4883,-0.0885 m 0,0 -0.47932,-0.0554 m 0,0 -0.46914,-0.0222 m 0,0 -0.35984,0.006"
       style="fill:none;stroke:#000000;stroke-width:0.15;stroke-linecap:round;stroke-linejoin:round;stroke-miterlimit:4;stroke-dasharray:none"
       id="path1802" />
    <path
       d="m 63.83474,211.96545 9e-5,0.004 m 0,0 2.6e-4,0.004 m 0,0 4.4e-4,0.004 m 0,0 6.2e-4,0.004 m 0,0 7.9e-4,0.004 m 0,0 9.5e-4,0.003 m 0,0 10e-4,0.003 m 0,0 10e-4,0.003 m 0,0 0.001,0.003 m 0,0 0.002,0.003 m 0,0 0.002,0.002 m 0,0 0.002,0.002 m 0,0 0.002,0.002 m 0,0 0.002,0.002 m 0,0 0.002,0.002 m 0,0 0.002,0.001"
       style="fill:none;stroke:#000000;stroke-width:0.15;stroke-linecap:round;stroke-linejoin:round;stroke-miterlimit:4;stroke-dasharray:none"
       id="path1822" />
    <path
       d="m 79.29408,208.34729 -2.80083,1.61706"
       style="fill:none;stroke:#000000;stroke-width:0.15;stroke-linecap:round;stroke-linejoin:round;stroke-miterlimit:4;stroke-dasharray:none"
       id="path1824" />
    <path
       d="m 63.52265,211.4348 1.2e-4,0.003 m 0,0 3.8e-4,0.003 m 0,0 6.2e-4,0.003 m 0,0 8.7e-4,0.003 m 0,0 0.001,0.003 m 0,0 10e-4,0.003 m 0,0 0.002,0.003 m 0,0 0.002,0.003 m 0,0 0.002,0.003 m 0,0 0.002,0.003 m 0,0 0.003,0.002 m 0,0 0.003,0.002 m 0,0 0.003,0.002 m 0,0 0.003,0.002 m 0,0 0.003,0.002 m 0,0 0.002,0.001"
       style="fill:none;stroke:#000000;stroke-width:0.15;stroke-linecap:round;stroke-linejoin:round;stroke-miterlimit:4;stroke-dasharray:none"
       id="path1826" />
    <path
       d="m 76.7383,219.30276 0.0124,-0.007 m 0,0 0.0118,-0.008 m 0,0 0.0111,-0.01 m 0,0 0.0104,-0.0105 m 0,0 0.01,-0.0115 m 0,0 0.009,-0.0125 m 0,0 0.008,-0.0135 m 0,0 0.007,-0.0144 m 0,0 0.007,-0.0152 m 0,0 0.006,-0.0161 m 0,0 0.005,-0.0169 m 0,0 0.004,-0.0176 m 0,0 0.003,-0.0183 m 0,0 0.002,-0.019 m 0,0 0.001,-0.0196 m 0,0 5.5e-4,-0.0202 m 0,0 1e-5,-0.001"
       style="fill:none;stroke:#000000;stroke-width:0.15;stroke-linecap:round;stroke-linejoin:round;stroke-miterlimit:4;stroke-dasharray:none"
       id="path1828" />
    <path
       d="m 63.90421,202.69607 -0.0177,-0.01 m 0,0 -0.0177,-0.009 m 0,0 -0.0176,-0.008 m 0,0 -0.0174,-0.007 m 0,0 -0.0173,-0.005 m 0,0 -0.017,-0.004 m 0,0 -0.0168,-0.003 m 0,0 -0.0165,-0.002 m 0,0 -0.0161,-8.7e-4 m 0,0 -0.0157,2.8e-4 m 0,0 -0.0153,0.001 m 0,0 -0.0149,0.002 m 0,0 -0.0143,0.004 m 0,0 -0.0138,0.005 m 0,0 -0.0132,0.006 m 0,0 -0.0126,0.007 m 0,0 -6.6e-4,4.1e-4"
       style="fill:none;stroke:#000000;stroke-width:0.15;stroke-linecap:round;stroke-linejoin:round;stroke-miterlimit:4;stroke-dasharray:none"
       id="path1832" />
    <path
       d="m 65.13656,212.71705 -1.30182,-0.7516"
       style="fill:none;stroke:#000000;stroke-width:0.15;stroke-linecap:round;stroke-linejoin:round;stroke-miterlimit:4;stroke-dasharray:none"
       id="path1840" />
    <path
       d="m 63.55194,211.47562 3.5e-4,0.0165 m 0,0 10e-4,0.0169 m 0,0 0.002,0.0172 m 0,0 0.002,0.0175 m 0,0 0.003,0.0177 m 0,0 0.004,0.0179 m 0,0 0.005,0.0181 m 0,0 0.005,0.0182 m 0,0 0.006,0.0182 m 0,0 0.006,0.0182 m 0,0 0.007,0.0182 m 0,0 0.008,0.0181 m 0,0 0.008,0.018 m 0,0 0.009,0.0179 m 0,0 0.009,0.0176 m 0,0 0.01,0.0174 m 0,0 0.0104,0.0171 m 0,0 0.0109,0.0167 m 0,0 0.0113,0.0163 m 0,0 0.0117,0.0159 m 0,0 0.0121,0.0154 m 0,0 0.0124,0.0149 m 0,0 0.0128,0.0144 m 0,0 0.0131,0.0138 m 0,0 0.0133,0.0132 m 0,0 0.0135,0.0126 m 0,0 0.0137,0.0119 m 0,0 0.0139,0.0112 m 0,0 0.014,0.0105 m 0,0 0.0141,0.01 m 0,0 0.0141,0.009 m 0,0 0.006,0.003"
       style="fill:none;stroke:#000000;stroke-width:0.15;stroke-linecap:round;stroke-linejoin:round;stroke-miterlimit:4;stroke-dasharray:none"
       id="path1844" />
    <path
       d="m 79.55025,208.3189 -0.0128,-0.007 m 0,0 -0.0134,-0.006 m 0,0 -0.014,-0.005 m 0,0 -0.0145,-0.003 m 0,0 -0.015,-0.002 m 0,0 -0.0154,-10e-4 m 0,0 -0.0158,7e-5 m 0,0 -0.0162,0.001 m 0,0 -0.0165,0.002 m 0,0 -0.0168,0.004 m 0,0 -0.0171,0.005 m 0,0 -0.0173,0.006 m 0,0 -0.0174,0.007 m 0,0 -0.0176,0.008 m 0,0 -0.0176,0.009 m 0,0 -0.0177,0.01 m 0,0 -0.001,6e-4"
       style="fill:none;stroke:#000000;stroke-width:0.15;stroke-linecap:round;stroke-linejoin:round;stroke-miterlimit:4;stroke-dasharray:none"
       id="path1852" />
    <path
       d="m 76.84675,210.57663 2.80083,-1.61706"
       style="fill:none;stroke:#000000;stroke-width:0.15;stroke-linecap:round;stroke-linejoin:round;stroke-miterlimit:4;stroke-dasharray:none"
       id="path1860" />
    <path
       d="m 76.49325,209.96435 -1.39327,-0.8044"
       style="fill:none;stroke:#000000;stroke-width:0.15;stroke-linecap:round;stroke-linejoin:round;stroke-miterlimit:4;stroke-dasharray:none"
       id="path1864" />
    <path
       d="m 65.29748,203.50047 -1.39327,-0.8044"
       style="fill:none;stroke:#000000;stroke-width:0.15;stroke-linecap:round;stroke-linejoin:round;stroke-miterlimit:4;stroke-dasharray:none"
       id="path1866" />
    <path
       d="m 71.75209,214.61552 0.0439,-0.0279 m 0,0 0.0415,-0.0317 m 0,0 0.039,-0.0355 m 0,0 0.0365,-0.0392 m 0,0 0.0338,-0.0427 m 0,0 0.0311,-0.0462 m 0,0 0.0283,-0.0495 m 0,0 0.0254,-0.0527 m 0,0 0.0224,-0.0558 m 0,0 0.0194,-0.0587 m 0,0 0.0164,-0.0615 m 0,0 0.0133,-0.0642 m 0,0 0.0102,-0.0667 m 0,0 0.007,-0.069 m 0,0 0.004,-0.0711 m 0,0 6.6e-4,-0.0731 m 0,0 -0.003,-0.0749 m 0,0 -7.6e-4,-0.0131"
       style="fill:none;stroke:#000000;stroke-width:0.15;stroke-linecap:round;stroke-linejoin:round;stroke-miterlimit:4;stroke-dasharray:none"
       id="path1894" />
  </g>
</svg>
