<?xml version="1.0" encoding="UTF-8" standalone="no"?>
<!-- Created with Inkscape (http://www.inkscape.org/) -->

<svg
   width="212.21111mm"
   height="130.25113mm"
   viewBox="0 0 212.2111 130.25115"
   version="1.1"
   id="svg4586"
   inkscape:version="1.1 (c68e22c387, 2021-05-23)"
   sodipodi:docname="STopo ASQC2.svg"
   xmlns:inkscape="http://www.inkscape.org/namespaces/inkscape"
   xmlns:sodipodi="http://sodipodi.sourceforge.net/DTD/sodipodi-0.dtd"
   xmlns="http://www.w3.org/2000/svg"
   xmlns:svg="http://www.w3.org/2000/svg">
  <sodipodi:namedview
     id="namedview4588"
     pagecolor="#505050"
     bordercolor="#ffffff"
     borderopacity="1"
     inkscape:pageshadow="0"
     inkscape:pageopacity="0"
     inkscape:pagecheckerboard="1"
     inkscape:document-units="mm"
     showgrid="false"
     inkscape:zoom="0.8516629"
     inkscape:cx="406.85112"
     inkscape:cy="163.21012"
     inkscape:window-width="1680"
     inkscape:window-height="987"
     inkscape:window-x="1912"
     inkscape:window-y="18"
     inkscape:window-maximized="1"
     inkscape:current-layer="layer1" />
  <defs
     id="defs4583" />
  <g
     inkscape:label="Camada 1"
     inkscape:groupmode="layer"
     id="layer1"
     transform="translate(15.723209,-123.95136)">
    <path
       d="M 192.73731,136.52922 55.944629,215.50651"
       style="fill:none;stroke:#000000;stroke-width:0.15;stroke-linecap:round;stroke-linejoin:round;stroke-miterlimit:4;stroke-dasharray:none"
       id="path858" />
    <path
       d="M 191.37195,132.8676 54.565811,211.85266"
       style="fill:none;stroke:#000000;stroke-width:0.15;stroke-linecap:round;stroke-linejoin:round;stroke-miterlimit:4;stroke-dasharray:none"
       id="path860" />
    <path
       d="M 181.89671,127.39707 45.653712,206.05701"
       style="fill:none;stroke:#000000;stroke-width:0.15;stroke-linecap:round;stroke-linejoin:round;stroke-miterlimit:4;stroke-dasharray:none"
       id="path862" />
    <path
       d="M 180.81757,126.78957 44.024894,205.76686"
       style="fill:none;stroke:#000000;stroke-width:0.15;stroke-linecap:round;stroke-linejoin:round;stroke-miterlimit:4;stroke-dasharray:none"
       id="path864" />
    <path
       d="M 192.70374,140.26637 55.944629,219.22428"
       style="fill:none;stroke:#000000;stroke-width:0.15;stroke-linecap:round;stroke-linejoin:round;stroke-miterlimit:4;stroke-dasharray:none"
       id="path866" />
    <path
       d="M 192.73731,137.79207 55.944629,216.76936"
       style="fill:none;stroke:#000000;stroke-width:0.15;stroke-linecap:round;stroke-linejoin:round;stroke-miterlimit:4;stroke-dasharray:none"
       id="path870" />
    <path
       d="M 192.73731,141.39027 55.944629,220.36756"
       style="fill:none;stroke:#000000;stroke-width:0.15;stroke-linecap:round;stroke-linejoin:round;stroke-miterlimit:4;stroke-dasharray:none"
       id="path872" />
    <path
       d="m 192.73731,133.67143 v 4.28148"
       style="fill:none;stroke:#000000;stroke-width:0.15;stroke-linecap:round;stroke-linejoin:round;stroke-miterlimit:4;stroke-dasharray:none"
       id="path874" />
    <path
       d="m 182.08068,126.41861 c -0.0449,0.0248 -0.0873,0.0604 -0.12507,0.10493 -0.0383,0.0451 -0.0709,0.0984 -0.0963,0.15677 -0.0262,0.0602 -0.0442,0.12463 -0.0532,0.18963 -0.005,0.0366 -0.007,0.0732 -0.007,0.109 7e-4,0.0359 0.004,0.071 0.0107,0.10447 1.8e-4,9.9e-4 3.7e-4,0.002 5.7e-4,0.003"
       style="fill:none;stroke:#000000;stroke-width:0.15;stroke-linecap:round;stroke-linejoin:round;stroke-miterlimit:4;stroke-dasharray:none"
       id="path876" />
    <path
       d="m 192.73731,140.29993 v 1.42369"
       style="fill:none;stroke:#000000;stroke-width:0.15;stroke-linecap:round;stroke-linejoin:round;stroke-miterlimit:4;stroke-dasharray:none"
       id="path878" />
    <path
       d="m 192.73731,137.95291 -0.0504,-0.007 m 0,0 -0.0493,-0.004 m 0,0 -0.0482,-3.1e-4 m 0,0 -0.047,0.003 m 0,0 -0.0456,0.007 m 0,0 -0.0441,0.0101 m 0,0 -0.0177,0.005"
       style="fill:none;stroke:#000000;stroke-width:0.15;stroke-linecap:round;stroke-linejoin:round;stroke-miterlimit:4;stroke-dasharray:none"
       id="path880" />
    <path
       d="m 192.23692,138.08096 -0.0317,0.0319 m 0,0 -0.0295,0.0349 m 0,0 -0.0272,0.0379 m 0,0 -0.0248,0.0408 m 0,0 -0.0224,0.0435 m 0,0 -0.0199,0.0462 m 0,0 -0.0174,0.0487 m 0,0 -0.0149,0.0511 m 0,0 -0.0122,0.0534 m 0,0 -0.01,0.0555 m 0,0 -0.007,0.0576 m 0,0 -0.004,0.0594 m 0,0 -0.002,0.0612 m 0,0 10e-4,0.0627 m 0,0 0.004,0.0641 m 0,0 0.006,0.0654 m 0,0 0.009,0.0665 m 0,0 0.0117,0.0674 m 0,0 0.0144,0.0682 m 0,0 0.0169,0.0687 m 0,0 0.0195,0.0691 m 0,0 0.0219,0.0694 m 0,0 0.0244,0.0694 m 0,0 0.0267,0.0693 m 0,0 0.029,0.0691 m 0,0 0.0313,0.0686 m 0,0 0.0334,0.068 m 0,0 0.0355,0.0672 m 0,0 0.0375,0.0662 m 0,0 0.0393,0.0651 m 0,0 0.0411,0.0638 m 0,0 0.0428,0.0623 m 0,0 0.0444,0.0607 m 0,0 0.0458,0.059 m 0,0 0.0472,0.0571 m 0,0 0.0484,0.055 m 0,0 0.0495,0.0528 m 0,0 0.0418,0.042"
       style="fill:none;stroke:#000000;stroke-width:0.15;stroke-linecap:round;stroke-linejoin:round;stroke-miterlimit:4;stroke-dasharray:none"
       id="path882" />
    <path
       d="m 184.7409,124.94958 c 0.0219,-0.0121 0.0444,-0.0187 0.0665,-0.0198"
       style="fill:none;stroke:#000000;stroke-width:0.15;stroke-linecap:round;stroke-linejoin:round;stroke-miterlimit:4;stroke-dasharray:none"
       id="path884" />
    <path
       d="m 182.08068,126.41861 2.66022,-1.46903"
       style="fill:none;stroke:#000000;stroke-width:0.15;stroke-linecap:round;stroke-linejoin:round;stroke-miterlimit:4;stroke-dasharray:none"
       id="path886" />
    <path
       d="m 191.90742,132.09208 c -0.0445,0.025 -0.0908,0.0584 -0.13648,0.0983 -0.0463,0.0405 -0.091,0.0868 -0.13164,0.13637 -0.042,0.0511 -0.0789,0.10459 -0.1089,0.15746 -0.0169,0.0298 -0.0315,0.0592 -0.0436,0.0876 -0.0121,0.0285 -0.0216,0.056 -0.0284,0.0819 -2e-4,7.6e-4 -4e-4,0.002 -5.9e-4,0.002"
       style="fill:none;stroke:#000000;stroke-width:0.15;stroke-linecap:round;stroke-linejoin:round;stroke-miterlimit:4;stroke-dasharray:none"
       id="path888" />
    <path
       d="m 192.3878,133.46964 0.34951,0.20179"
       style="fill:none;stroke:#000000;stroke-width:0.15;stroke-linecap:round;stroke-linejoin:round;stroke-miterlimit:4;stroke-dasharray:none"
       id="path890" />
    <path
       d="m 194.65316,130.5914 c -2.9e-4,-1.6e-4 -5.8e-4,-3.3e-4 -8.7e-4,-4.9e-4 -0.012,-0.007 -0.0277,-0.008 -0.0465,-0.005 -0.0184,0.003 -0.0392,0.0113 -0.0615,0.0238"
       style="fill:none;stroke:#000000;stroke-width:0.15;stroke-linecap:round;stroke-linejoin:round;stroke-miterlimit:4;stroke-dasharray:none"
       id="path892" />
    <path
       d="m 191.90742,132.09208 2.63691,-1.48249"
       style="fill:none;stroke:#000000;stroke-width:0.15;stroke-linecap:round;stroke-linejoin:round;stroke-miterlimit:4;stroke-dasharray:none"
       id="path894" />
    <path
       d="m 192.73731,141.72362 -0.28869,-0.16667"
       style="fill:none;stroke:#000000;stroke-width:0.15;stroke-linecap:round;stroke-linejoin:round;stroke-miterlimit:4;stroke-dasharray:none"
       id="path896" />
    <path
       d="m 180.53135,126.95482 v -0.3305"
       style="fill:none;stroke:#000000;stroke-width:0.15;stroke-linecap:round;stroke-linejoin:round;stroke-miterlimit:4;stroke-dasharray:none"
       id="path898" />
    <path
       d="m 180.53135,126.62432 0.34951,0.20179"
       style="fill:none;stroke:#000000;stroke-width:0.15;stroke-linecap:round;stroke-linejoin:round;stroke-miterlimit:4;stroke-dasharray:none"
       id="path900" />
    <path
       d="m 196.1945,140.75129 c 0.0251,-0.0155 0.048,-0.0344 0.0676,-0.0552 0.0196,-0.0208 0.0359,-0.0433 0.0491,-0.0664 0.0132,-0.023 0.0232,-0.0465 0.0308,-0.0697 0.008,-0.0232 0.0127,-0.0461 0.0159,-0.0686 0.003,-0.0224 0.005,-0.0444 0.005,-0.066"
       style="fill:none;stroke:#000000;stroke-width:0.15;stroke-linecap:round;stroke-linejoin:round;stroke-miterlimit:4;stroke-dasharray:none"
       id="path902" />
    <path
       d="m 196.1945,140.75129 -2.60108,1.60845"
       style="fill:none;stroke:#000000;stroke-width:0.15;stroke-linecap:round;stroke-linejoin:round;stroke-miterlimit:4;stroke-dasharray:none"
       id="path904" />
    <path
       d="m 196.36262,131.92679 c 0,-0.044 -0.006,-0.0862 -0.0157,-0.12688 -0.01,-0.0407 -0.0238,-0.0798 -0.0411,-0.11734 -0.0173,-0.0375 -0.038,-0.0734 -0.0619,-0.10716 -0.0238,-0.0338 -0.0508,-0.0654 -0.0811,-0.0943 -0.0303,-0.0289 -0.0639,-0.055 -0.10205,-0.077"
       style="fill:none;stroke:#000000;stroke-width:0.15;stroke-linecap:round;stroke-linejoin:round;stroke-miterlimit:4;stroke-dasharray:none"
       id="path906" />
    <path
       d="m 183.4682,124.13376 c -0.0187,-0.0108 -0.0384,-0.0205 -0.0595,-0.0289 -0.0211,-0.008 -0.0435,-0.0154 -0.0673,-0.0205 -0.0239,-0.005 -0.0492,-0.008 -0.0757,-0.008 -0.0265,-1.1e-4 -0.0543,0.003 -0.082,0.009 -0.0278,0.007 -0.0556,0.017 -0.0816,0.031"
       style="fill:none;stroke:#000000;stroke-width:0.15;stroke-linecap:round;stroke-linejoin:round;stroke-miterlimit:4;stroke-dasharray:none"
       id="path908" />
    <path
       d="m 196.36262,131.92679 v 8.49873"
       style="fill:none;stroke:#000000;stroke-width:0.15;stroke-linecap:round;stroke-linejoin:round;stroke-miterlimit:4;stroke-dasharray:none"
       id="path910" />
    <path
       d="m 193.08045,142.36749 -1.01787,-0.58766"
       style="fill:none;stroke:#000000;stroke-width:0.15;stroke-linecap:round;stroke-linejoin:round;stroke-miterlimit:4;stroke-dasharray:none"
       id="path912" />
    <path
       d="m 193.08045,142.36749 a 0.5,0.5 0 0 0 0.51297,-0.008"
       style="fill:none;stroke:#000000;stroke-width:0.15;stroke-linecap:round;stroke-linejoin:round;stroke-miterlimit:4;stroke-dasharray:none"
       id="path914" />
    <path
       d="m 194.65316,130.5914 1.40771,0.81274"
       style="fill:none;stroke:#000000;stroke-width:0.15;stroke-linecap:round;stroke-linejoin:round;stroke-miterlimit:4;stroke-dasharray:none"
       id="path916" />
    <path
       d="m 180.14531,127.1777 v -1.17249"
       style="fill:none;stroke:#000000;stroke-width:0.15;stroke-linecap:round;stroke-linejoin:round;stroke-miterlimit:4;stroke-dasharray:none"
       id="path918" />
    <path
       d="m 180.40851,125.56484 a 0.5,0.5 0 0 0 -0.2632,0.44037"
       style="fill:none;stroke:#000000;stroke-width:0.15;stroke-linecap:round;stroke-linejoin:round;stroke-miterlimit:4;stroke-dasharray:none"
       id="path920" />
    <path
       d="m 183.4682,124.13376 1.37609,0.79448"
       style="fill:none;stroke:#000000;stroke-width:0.15;stroke-linecap:round;stroke-linejoin:round;stroke-miterlimit:4;stroke-dasharray:none"
       id="path922" />
    <path
       d="m 183.10201,124.11647 -2.6935,1.44837"
       style="fill:none;stroke:#000000;stroke-width:0.15;stroke-linecap:round;stroke-linejoin:round;stroke-miterlimit:4;stroke-dasharray:none"
       id="path924" />
    <path
       d="m 184.80745,124.92982 c 0.61483,-0.0281 1.25901,0.0335 1.91983,0.18177 0.66081,0.1483 1.33834,0.38324 2.02022,0.6992 0.68188,0.31596 1.36811,0.71295 2.04621,1.18288 0.67809,0.46994 1.34801,1.01282 1.99734,1.61806 0.64745,0.6035 1.2744,1.26899 1.86912,1.98371"
       style="fill:none;stroke:#000000;stroke-width:0.15;stroke-linecap:round;stroke-linejoin:round;stroke-miterlimit:4;stroke-dasharray:none"
       id="path926" />
    <path
       d="m 45.531172,214.98674 1.484924,0.85733"
       style="fill:none;stroke:#000000;stroke-width:0.15;stroke-linecap:round;stroke-linejoin:round;stroke-miterlimit:4;stroke-dasharray:none"
       id="path928" />
    <path
       d="m 40.899623,213.53746 0.0015,0.0723 m 0,0 0.0046,0.0739 m 0,0 0.0077,0.0753 m 0,0 0.01077,0.0766 m 0,0 0.0138,0.0776 m 0,0 0.0168,0.0784 m 0,0 0.01975,0.0791 m 0,0 0.02266,0.0796 m 0,0 0.02551,0.0798 m 0,0 0.02829,0.0799 m 0,0 0.03101,0.0797 m 0,0 0.03364,0.0794 m 0,0 0.0362,0.0788 m 0,0 0.03866,0.0781 m 0,0 0.04102,0.0772 m 0,0 0.04329,0.076 m 0,0 0.04544,0.0747 m 0,0 0.04748,0.0732 m 0,0 0.04941,0.0715 m 0,0 0.05121,0.0697 m 0,0 0.05288,0.0676 m 0,0 0.05442,0.0654 m 0,0 0.05582,0.063 m 0,0 0.05708,0.0605 m 0,0 0.0582,0.0578 m 0,0 0.05918,0.055 m 0,0 0.06,0.052 m 0,0 0.06068,0.0489 m 0,0 0.06121,0.0457 m 0,0 0.06158,0.0424 m 0,0 0.0618,0.0389 m 0,0 0.06186,0.0354 m 0,0 0.06178,0.0318 m 0,0 0.06153,0.0281 m 0,0 0.06113,0.0243 m 0,0 0.06058,0.0205 m 0,0 0.05988,0.0166 m 0,0 0.05903,0.0127 m 0,0 0.05803,0.009 m 0,0 0.05688,0.005 m 0,0 0.05559,7.6e-4 m 0,0 0.05417,-0.003 m 0,0 0.0526,-0.007 m 0,0 0.05091,-0.0112 m 0,0 0.04909,-0.0151 m 0,0 0.04715,-0.019 m 0,0 0.04509,-0.0229 m 0,0 0.04292,-0.0267 m 0,0 0.04063,-0.0304 m 0,0 0.03825,-0.0341 m 0,0 0.03577,-0.0376 m 0,0 0.03321,-0.0411 m 0,0 0.03056,-0.0445 m 0,0 0.02783,-0.0477 m 0,0 0.02503,-0.0509 m 0,0 0.02218,-0.0539 m 0,0 0.01926,-0.0568 m 0,0 0.0163,-0.0595 m 0,0 0.0133,-0.0621 m 0,0 0.01026,-0.0645 m 0,0 0.0072,-0.0668 m 0,0 0.0041,-0.0689 m 0,0 8.88e-4,-0.0344"
       style="fill:none;stroke:#000000;stroke-width:0.15;stroke-linecap:round;stroke-linejoin:round;stroke-miterlimit:4;stroke-dasharray:none"
       id="path930" />
    <path
       d="m 43.374314,214.99074 -4.85e-4,-0.0717 m 0,0 -0.0036,-0.0734 m 0,0 -0.0067,-0.0749 m 0,0 -0.0097,-0.0762 m 0,0 -0.01277,-0.0773 m 0,0 -0.01577,-0.0782 m 0,0 -0.01875,-0.0789 m 0,0 -0.02167,-0.0794 m 0,0 -0.02454,-0.0797 m 0,0 -0.02735,-0.0799 m 0,0 -0.03008,-0.0798 m 0,0 -0.03275,-0.0795 m 0,0 -0.03533,-0.079 m 0,0 -0.03783,-0.0784 m 0,0 -0.04022,-0.0775 m 0,0 -0.04252,-0.0764 m 0,0 -0.04472,-0.0752 m 0,0 -0.0468,-0.0738 m 0,0 -0.04876,-0.0721 m 0,0 -0.0506,-0.0703 m 0,0 -0.05232,-0.0683 m 0,0 -0.0539,-0.0662 m 0,0 -0.05535,-0.0639 m 0,0 -0.05666,-0.0614 m 0,0 -0.05784,-0.0587 m 0,0 -0.05886,-0.056 m 0,0 -0.05974,-0.0531 m 0,0 -0.06047,-0.05 m 0,0 -0.06105,-0.0468 m 0,0 -0.06147,-0.0435 m 0,0 -0.06174,-0.0401 m 0,0 -0.06186,-0.0366 m 0,0 -0.0063,-0.004"
       style="fill:none;stroke:#000000;stroke-width:0.15;stroke-linecap:round;stroke-linejoin:round;stroke-miterlimit:4;stroke-dasharray:none"
       id="path932" />
    <path
       d="m 42.115831,212.81098 -0.06181,-0.0327 m 0,0 -0.0616,-0.029 m 0,0 -0.06124,-0.0252 m 0,0 -0.06073,-0.0214 m 0,0 -0.06006,-0.0175 m 0,0 -0.05924,-0.0136 m 0,0 -0.05828,-0.01 m 0,0 -0.05717,-0.006 m 0,0 -0.05592,-0.002 m 0,0 -0.05452,0.002 m 0,0 -0.05299,0.006 m 0,0 -0.05133,0.0102 m 0,0 -0.04954,0.0142 m 0,0 -0.04763,0.0181 m 0,0 -0.04559,0.022 m 0,0 -0.04345,0.0258 m 0,0 -0.04119,0.0295 m 0,0 -0.03884,0.0332 m 0,0 -0.03638,0.0368 m 0,0 -0.03383,0.0403 m 0,0 -0.0312,0.0437 m 0,0 -0.02849,0.0469 m 0,0 -0.02571,0.0501 m 0,0 -0.02287,0.0532 m 0,0 -0.01997,0.0561 m 0,0 -0.01702,0.0589 m 0,0 -0.01402,0.0615 m 0,0 -0.01099,0.0639 m 0,0 -0.0079,0.0663 m 0,0 -0.0049,0.0684 m 0,0 -0.0018,0.0704 m 0,0 -8e-6,0.005"
       style="fill:none;stroke:#000000;stroke-width:0.15;stroke-linecap:round;stroke-linejoin:round;stroke-miterlimit:4;stroke-dasharray:none"
       id="path934" />
    <path
       d="m 49.172772,218.31397 0.0015,0.0723 m 0,0 0.0046,0.0739 m 0,0 0.0077,0.0753 m 0,0 0.01077,0.0766 m 0,0 0.0138,0.0776 m 0,0 0.0168,0.0785 m 0,0 0.01975,0.0791 m 0,0 0.02266,0.0795 m 0,0 0.02551,0.0798 m 0,0 0.02829,0.0799 m 0,0 0.03101,0.0797 m 0,0 0.03364,0.0794 m 0,0 0.0362,0.0788 m 0,0 0.03866,0.0781 m 0,0 0.04102,0.0771 m 0,0 0.04329,0.076 m 0,0 0.04544,0.0747 m 0,0 0.04748,0.0732 m 0,0 0.04941,0.0715 m 0,0 0.05121,0.0697 m 0,0 0.05288,0.0676 m 0,0 0.05442,0.0654 m 0,0 0.05582,0.063 m 0,0 0.05708,0.0605 m 0,0 0.0582,0.0578 m 0,0 0.05918,0.055 m 0,0 0.06001,0.052 m 0,0 0.06068,0.0489 m 0,0 0.06121,0.0457 m 0,0 0.06158,0.0424 m 0,0 0.0618,0.039 m 0,0 0.06186,0.0354 m 0,0 0.06178,0.0318 m 0,0 0.06153,0.0281 m 0,0 0.06113,0.0243 m 0,0 0.06058,0.0205 m 0,0 0.05988,0.0166 m 0,0 0.05903,0.0127 m 0,0 0.05803,0.009 m 0,0 0.05688,0.005 m 0,0 0.05559,7.5e-4 m 0,0 0.05417,-0.003 m 0,0 0.0526,-0.007 m 0,0 0.05091,-0.0112 m 0,0 0.04909,-0.0151 m 0,0 0.04715,-0.019 m 0,0 0.04509,-0.0229 m 0,0 0.04292,-0.0267 m 0,0 0.04063,-0.0304 m 0,0 0.03825,-0.034 m 0,0 0.03577,-0.0376 m 0,0 0.03321,-0.0411 m 0,0 0.03056,-0.0445 m 0,0 0.02783,-0.0477 m 0,0 0.02503,-0.0509 m 0,0 0.02217,-0.0539 m 0,0 0.01926,-0.0568 m 0,0 0.0163,-0.0595 m 0,0 0.0133,-0.0621 m 0,0 0.01026,-0.0645 m 0,0 0.0072,-0.0668 m 0,0 0.0041,-0.0689 m 0,0 8.89e-4,-0.0344"
       style="fill:none;stroke:#000000;stroke-width:0.15;stroke-linecap:round;stroke-linejoin:round;stroke-miterlimit:4;stroke-dasharray:none"
       id="path936" />
    <path
       d="m 51.647464,219.76724 -4.86e-4,-0.0717 m 0,0 -0.0036,-0.0734 m 0,0 -0.0067,-0.0749 m 0,0 -0.0097,-0.0762 m 0,0 -0.01277,-0.0773 m 0,0 -0.01577,-0.0782 m 0,0 -0.01875,-0.0789 m 0,0 -0.02167,-0.0794 m 0,0 -0.02454,-0.0797 m 0,0 -0.02735,-0.0799 m 0,0 -0.03008,-0.0798 m 0,0 -0.03275,-0.0795 m 0,0 -0.03533,-0.079 m 0,0 -0.03783,-0.0784 m 0,0 -0.04022,-0.0775 m 0,0 -0.04252,-0.0764 m 0,0 -0.04472,-0.0752 m 0,0 -0.0468,-0.0737 m 0,0 -0.04876,-0.0721 m 0,0 -0.0506,-0.0703 m 0,0 -0.05232,-0.0683 m 0,0 -0.0539,-0.0662 m 0,0 -0.05535,-0.0639 m 0,0 -0.05666,-0.0614 m 0,0 -0.05784,-0.0588 m 0,0 -0.05886,-0.056 m 0,0 -0.05974,-0.0531 m 0,0 -0.06047,-0.05 m 0,0 -0.06105,-0.0468 m 0,0 -0.06147,-0.0435 m 0,0 -0.06174,-0.0401 m 0,0 -0.06186,-0.0366 m 0,0 -0.0063,-0.004"
       style="fill:none;stroke:#000000;stroke-width:0.15;stroke-linecap:round;stroke-linejoin:round;stroke-miterlimit:4;stroke-dasharray:none"
       id="path938" />
    <path
       d="m 50.38898,217.58749 -0.06181,-0.0327 m 0,0 -0.0616,-0.029 m 0,0 -0.06124,-0.0252 m 0,0 -0.06073,-0.0214 m 0,0 -0.06006,-0.0175 m 0,0 -0.05924,-0.0136 m 0,0 -0.05828,-0.01 m 0,0 -0.05717,-0.006 m 0,0 -0.05592,-0.002 m 0,0 -0.05452,0.002 m 0,0 -0.05299,0.006 m 0,0 -0.05133,0.0102 m 0,0 -0.04954,0.0142 m 0,0 -0.04763,0.0181 m 0,0 -0.0456,0.022 m 0,0 -0.04345,0.0258 m 0,0 -0.04119,0.0295 m 0,0 -0.03883,0.0332 m 0,0 -0.03638,0.0368 m 0,0 -0.03383,0.0403 m 0,0 -0.0312,0.0437 m 0,0 -0.02849,0.047 m 0,0 -0.02571,0.0501 m 0,0 -0.02287,0.0532 m 0,0 -0.01997,0.0561 m 0,0 -0.01702,0.0589 m 0,0 -0.01402,0.0615 m 0,0 -0.01099,0.0639 m 0,0 -0.0079,0.0663 m 0,0 -0.0049,0.0684 m 0,0 -0.0018,0.0704 m 0,0 -8e-6,0.005"
       style="fill:none;stroke:#000000;stroke-width:0.15;stroke-linecap:round;stroke-linejoin:round;stroke-miterlimit:4;stroke-dasharray:none"
       id="path940" />
    <path
       d="m 44.182523,206.03416 c 0.04452,-0.0268 0.09083,-0.0424 0.13648,-0.0461 0.0031,-2.5e-4 0.0062,-4.4e-4 0.0093,-5.8e-4"
       style="fill:none;stroke:#000000;stroke-width:0.15;stroke-linecap:round;stroke-linejoin:round;stroke-miterlimit:4;stroke-dasharray:none"
       id="path942" />
    <path
       d="m 44.182523,206.03416 -2.740664,1.65179"
       style="fill:none;stroke:#000000;stroke-width:0.15;stroke-linecap:round;stroke-linejoin:round;stroke-miterlimit:4;stroke-dasharray:none"
       id="path946" />
    <path
       d="m 54.009261,211.70763 -2.764896,1.6378"
       style="fill:none;stroke:#000000;stroke-width:0.15;stroke-linecap:round;stroke-linejoin:round;stroke-miterlimit:4;stroke-dasharray:none"
       id="path950" />
    <path
       d="m 44.645439,214.90642 -0.04208,0.0281 m 0,0 -0.03976,0.0318 m 0,0 -0.03734,0.0354 m 0,0 -0.03483,0.0389 m 0,0 -0.01248,0.0156"
       style="fill:none;stroke:#000000;stroke-width:0.15;stroke-linecap:round;stroke-linejoin:round;stroke-miterlimit:4;stroke-dasharray:none"
       id="path952" />
    <path
       d="m 45.531172,214.98674 -0.06185,-0.0339 m 0,0 -0.06169,-0.0303 m 0,0 -0.06138,-0.0265 m 0,0 -0.06092,-0.0227 m 0,0 -0.06031,-0.0189 m 0,0 -0.05954,-0.015 m 0,0 -0.05863,-0.011 m 0,0 -0.05757,-0.007 m 0,0 -0.05636,-0.003 m 0,0 -0.05502,9e-4 m 0,0 -0.05353,0.005 m 0,0 -0.05192,0.009 m 0,0 -0.05017,0.0128 m 0,0 -0.0483,0.0168 m 0,0 -0.04631,0.0206 m 0,0 -0.04225,0.0233"
       style="fill:none;stroke:#000000;stroke-width:0.15;stroke-linecap:round;stroke-linejoin:round;stroke-miterlimit:4;stroke-dasharray:none"
       id="path954" />
    <path
       d="m 48.265821,217.8674 -0.02025,-0.0938 m 0,0 -0.02333,-0.0944 m 0,0 -0.02634,-0.0948 m 0,0 -0.0293,-0.0949 m 0,0 -0.03216,-0.0948 m 0,0 -0.03497,-0.0944 m 0,0 -0.03767,-0.0937 m 0,0 -0.04028,-0.0929 m 0,0 -0.0428,-0.0918 m 0,0 -0.0452,-0.0906 m 0,0 -0.04749,-0.0891 m 0,0 -0.04967,-0.0873 m 0,0 -0.05172,-0.0853 m 0,0 -0.05365,-0.0831 m 0,0 -0.05543,-0.0808 m 0,0 -0.05707,-0.0781 m 0,0 -0.05858,-0.0754 m 0,0 -0.05994,-0.0725 m 0,0 -0.06115,-0.0692 m 0,0 -0.06221,-0.0659 m 0,0 -0.0631,-0.0625 m 0,0 -0.06385,-0.0588 m 0,0 -0.06443,-0.055 m 0,0 -0.06485,-0.0511 m 0,0 -0.06512,-0.047 m 0,0 -0.03912,-0.0263"
       style="fill:none;stroke:#000000;stroke-width:0.15;stroke-linecap:round;stroke-linejoin:round;stroke-miterlimit:4;stroke-dasharray:none"
       id="path956" />
    <path
       d="m 54.009261,211.70763 c 0.04491,-0.0266 0.08734,-0.0444 0.125074,-0.0527 0.03829,-0.008 0.07092,-0.007 0.09631,0.005 0.003,0.001 0.0059,0.003 0.0087,0.004"
       style="fill:none;stroke:#000000;stroke-width:0.15;stroke-linecap:round;stroke-linejoin:round;stroke-miterlimit:4;stroke-dasharray:none"
       id="path958" />
    <path
       d="m 39.667029,207.12575 c 0,-0.0211 0.0014,-0.042 0.0044,-0.0624 0.003,-0.0204 0.0075,-0.0404 0.01381,-0.0597 0.0063,-0.0193 0.01441,-0.038 0.02451,-0.0557 0.01009,-0.0177 0.0222,-0.0343 0.0363,-0.0492 0.0141,-0.0149 0.03019,-0.0282 0.04779,-0.0391"
       style="fill:none;stroke:#000000;stroke-width:0.15;stroke-linecap:round;stroke-linejoin:round;stroke-miterlimit:4;stroke-dasharray:none"
       id="path960" />
    <path
       d="m 55.944629,212.9374 a 0.5,0.5 0 0 0 -0.25,-0.43302"
       style="fill:none;stroke:#000000;stroke-width:0.15;stroke-linecap:round;stroke-linejoin:round;stroke-miterlimit:4;stroke-dasharray:none"
       id="path962" />
    <path
       d="m 39.999829,216.19671 c -0.03747,-0.0216 -0.07312,-0.049 -0.106366,-0.0806 -0.03324,-0.0317 -0.06405,-0.0677 -0.09155,-0.10663 -0.0275,-0.0389 -0.05169,-0.0808 -0.07167,-0.12413 -0.01998,-0.0433 -0.03576,-0.088 -0.04656,-0.1326 -0.0108,-0.0446 -0.01665,-0.0892 -0.01665,-0.13243"
       style="fill:none;stroke:#000000;stroke-width:0.15;stroke-linecap:round;stroke-linejoin:round;stroke-miterlimit:4;stroke-dasharray:none"
       id="path964" />
    <path
       d="m 43.009495,205.18062 a 0.5,0.5 0 0 0 -0.512971,0.008"
       style="fill:none;stroke:#000000;stroke-width:0.15;stroke-linecap:round;stroke-linejoin:round;stroke-miterlimit:4;stroke-dasharray:none"
       id="path966" />
    <path
       d="m 55.68143,221.98327 a 0.5,0.5 0 0 0 0.263199,-0.44037"
       style="fill:none;stroke:#000000;stroke-width:0.15;stroke-linecap:round;stroke-linejoin:round;stroke-miterlimit:4;stroke-dasharray:none"
       id="path968" />
    <path
       d="m 52.882678,223.48824 c -0.01822,0.01 -0.03773,0.0171 -0.05772,0.0219 -0.01999,0.005 -0.04043,0.007 -0.06077,0.007 -0.02034,-9e-5 -0.04057,-0.002 -0.06047,-0.007 -0.01989,-0.004 -0.03946,-0.0103 -0.05862,-0.0179 -0.01916,-0.008 -0.03792,-0.0168 -0.05624,-0.0274"
       style="fill:none;stroke:#000000;stroke-width:0.15;stroke-linecap:round;stroke-linejoin:round;stroke-miterlimit:4;stroke-dasharray:none"
       id="path970" />
    <path
       d="m 39.667029,207.12575 v 8.49454"
       style="fill:none;stroke:#000000;stroke-width:0.15;stroke-linecap:round;stroke-linejoin:round;stroke-miterlimit:4;stroke-dasharray:none"
       id="path972" />
    <path
       d="m 55.694629,212.50438 -1.455333,-0.84023"
       style="fill:none;stroke:#000000;stroke-width:0.15;stroke-linecap:round;stroke-linejoin:round;stroke-miterlimit:4;stroke-dasharray:none"
       id="path974" />
    <path
       d="m 39.999829,216.19671 1.251819,0.72274"
       style="fill:none;stroke:#000000;stroke-width:0.15;stroke-linecap:round;stroke-linejoin:round;stroke-miterlimit:4;stroke-dasharray:none"
       id="path976" />
    <path
       d="m 46.203537,219.77842 6.385326,3.68657"
       style="fill:none;stroke:#000000;stroke-width:0.15;stroke-linecap:round;stroke-linejoin:round;stroke-miterlimit:4;stroke-dasharray:none"
       id="path978" />
    <path
       d="m 44.402085,205.98463 -1.39259,-0.80401"
       style="fill:none;stroke:#000000;stroke-width:0.15;stroke-linecap:round;stroke-linejoin:round;stroke-miterlimit:4;stroke-dasharray:none"
       id="path980" />
    <path
       d="m 54.253302,211.67223 c -0.59173,-0.71119 -1.215785,-1.37398 -1.861017,-1.97596 -0.648996,-0.60548 -1.319381,-1.14942 -1.999401,-1.62125 -0.68002,-0.47183 -1.36965,-0.87156 -2.057226,-1.19075 -0.687576,-0.3192 -1.373137,-0.55789 -2.04507,-0.70934 -0.671933,-0.15145 -1.330405,-0.2156 -1.962298,-0.18743"
       style="fill:none;stroke:#000000;stroke-width:0.15;stroke-linecap:round;stroke-linejoin:round;stroke-miterlimit:4;stroke-dasharray:none"
       id="path982" />
    <path
       d="m 39.793801,206.85967 2.702723,-1.6713"
       style="fill:none;stroke:#000000;stroke-width:0.15;stroke-linecap:round;stroke-linejoin:round;stroke-miterlimit:4;stroke-dasharray:none"
       id="path984" />
    <path
       d="m 52.882678,223.48824 2.798752,-1.50497"
       style="fill:none;stroke:#000000;stroke-width:0.15;stroke-linecap:round;stroke-linejoin:round;stroke-miterlimit:4;stroke-dasharray:none"
       id="path986" />
    <path
       d="m 55.944629,221.5429 v -8.6055"
       style="fill:none;stroke:#000000;stroke-width:0.15;stroke-linecap:round;stroke-linejoin:round;stroke-miterlimit:4;stroke-dasharray:none"
       id="path988" />
    <path
       d="m 41.995638,214.33355 -0.565685,-0.3266"
       style="fill:none;stroke:#000000;stroke-width:0.15;stroke-linecap:round;stroke-linejoin:round;stroke-miterlimit:4;stroke-dasharray:none"
       id="path990" />
    <path
       d="m 41.429953,213.68035 0.565685,0.3266"
       style="fill:none;stroke:#000000;stroke-width:0.15;stroke-linecap:round;stroke-linejoin:round;stroke-miterlimit:4;stroke-dasharray:none"
       id="path992" />
    <path
       d="m 41.995638,214.98674 v -0.65319"
       style="fill:none;stroke:#000000;stroke-width:0.15;stroke-linecap:round;stroke-linejoin:round;stroke-miterlimit:4;stroke-dasharray:none"
       id="path996" />
    <path
       d="m 42.278481,215.15004 -0.282843,-0.1633"
       style="fill:none;stroke:#000000;stroke-width:0.15;stroke-linecap:round;stroke-linejoin:round;stroke-miterlimit:4;stroke-dasharray:none"
       id="path998" />
    <path
       d="m 42.844166,214.82345 -0.565685,-0.3266"
       style="fill:none;stroke:#000000;stroke-width:0.15;stroke-linecap:round;stroke-linejoin:round;stroke-miterlimit:4;stroke-dasharray:none"
       id="path1000" />
    <path
       d="m 42.278481,213.51705 v 0.6532"
       style="fill:none;stroke:#000000;stroke-width:0.15;stroke-linecap:round;stroke-linejoin:round;stroke-miterlimit:4;stroke-dasharray:none"
       id="path1002" />
    <path
       d="m 42.278481,214.49685 v 0.65319"
       style="fill:none;stroke:#000000;stroke-width:0.15;stroke-linecap:round;stroke-linejoin:round;stroke-miterlimit:4;stroke-dasharray:none"
       id="path1004" />
    <path
       d="m 41.995638,214.00695 v -0.6532"
       style="fill:none;stroke:#000000;stroke-width:0.15;stroke-linecap:round;stroke-linejoin:round;stroke-miterlimit:4;stroke-dasharray:none"
       id="path1006" />
    <path
       d="m 42.844166,214.49685 v 0.3266"
       style="fill:none;stroke:#000000;stroke-width:0.15;stroke-linecap:round;stroke-linejoin:round;stroke-miterlimit:4;stroke-dasharray:none"
       id="path1012" />
    <path
       d="m 41.995638,213.35375 0.282843,0.1633"
       style="fill:none;stroke:#000000;stroke-width:0.15;stroke-linecap:round;stroke-linejoin:round;stroke-miterlimit:4;stroke-dasharray:none"
       id="path1014" />
    <path
       d="m 41.429953,214.00695 v -0.3266"
       style="fill:none;stroke:#000000;stroke-width:0.15;stroke-linecap:round;stroke-linejoin:round;stroke-miterlimit:4;stroke-dasharray:none"
       id="path1016" />
    <path
       d="m 42.278481,214.17025 0.565685,0.3266"
       style="fill:none;stroke:#000000;stroke-width:0.15;stroke-linecap:round;stroke-linejoin:round;stroke-miterlimit:4;stroke-dasharray:none"
       id="path1018" />
    <path
       d="m 50.268787,219.11005 -0.565685,-0.3266"
       style="fill:none;stroke:#000000;stroke-width:0.15;stroke-linecap:round;stroke-linejoin:round;stroke-miterlimit:4;stroke-dasharray:none"
       id="path1030" />
    <path
       d="m 49.703102,218.45685 0.565685,0.3266"
       style="fill:none;stroke:#000000;stroke-width:0.15;stroke-linecap:round;stroke-linejoin:round;stroke-miterlimit:4;stroke-dasharray:none"
       id="path1032" />
    <path
       d="m 50.268787,219.76325 v -0.6532"
       style="fill:none;stroke:#000000;stroke-width:0.15;stroke-linecap:round;stroke-linejoin:round;stroke-miterlimit:4;stroke-dasharray:none"
       id="path1036" />
    <path
       d="m 50.55163,219.92655 -0.282843,-0.1633"
       style="fill:none;stroke:#000000;stroke-width:0.15;stroke-linecap:round;stroke-linejoin:round;stroke-miterlimit:4;stroke-dasharray:none"
       id="path1038" />
    <path
       d="m 51.117316,219.59995 -0.565686,-0.3266"
       style="fill:none;stroke:#000000;stroke-width:0.15;stroke-linecap:round;stroke-linejoin:round;stroke-miterlimit:4;stroke-dasharray:none"
       id="path1040" />
    <path
       d="m 50.55163,218.29356 v 0.65319"
       style="fill:none;stroke:#000000;stroke-width:0.15;stroke-linecap:round;stroke-linejoin:round;stroke-miterlimit:4;stroke-dasharray:none"
       id="path1042" />
    <path
       d="m 50.55163,219.27335 v 0.6532"
       style="fill:none;stroke:#000000;stroke-width:0.15;stroke-linecap:round;stroke-linejoin:round;stroke-miterlimit:4;stroke-dasharray:none"
       id="path1044" />
    <path
       d="m 50.268787,218.78345 v -0.65319"
       style="fill:none;stroke:#000000;stroke-width:0.15;stroke-linecap:round;stroke-linejoin:round;stroke-miterlimit:4;stroke-dasharray:none"
       id="path1046" />
    <path
       d="m 51.117316,219.27335 v 0.3266"
       style="fill:none;stroke:#000000;stroke-width:0.15;stroke-linecap:round;stroke-linejoin:round;stroke-miterlimit:4;stroke-dasharray:none"
       id="path1052" />
    <path
       d="m 50.268787,218.13026 0.282843,0.1633"
       style="fill:none;stroke:#000000;stroke-width:0.15;stroke-linecap:round;stroke-linejoin:round;stroke-miterlimit:4;stroke-dasharray:none"
       id="path1054" />
    <path
       d="m 49.703102,218.78345 v -0.3266"
       style="fill:none;stroke:#000000;stroke-width:0.15;stroke-linecap:round;stroke-linejoin:round;stroke-miterlimit:4;stroke-dasharray:none"
       id="path1056" />
    <path
       d="m 50.55163,218.94675 0.565686,0.3266"
       style="fill:none;stroke:#000000;stroke-width:0.15;stroke-linecap:round;stroke-linejoin:round;stroke-miterlimit:4;stroke-dasharray:none"
       id="path1058" />
    <path
       d="M 47.896476,218.80101 6.322101,242.80398"
       style="fill:none;stroke:#000000;stroke-width:0.15;stroke-linecap:round;stroke-linejoin:round;stroke-miterlimit:4;stroke-dasharray:none"
       id="path1072" />
    <path
       d="M 2.637939,239.21308 44.63852,214.96404"
       style="fill:none;stroke:#000000;stroke-width:0.15;stroke-linecap:round;stroke-linejoin:round;stroke-miterlimit:4;stroke-dasharray:none"
       id="path1074" />
    <path
       d="m 44.63852,214.96404 c 0.05659,-0.0327 0.12249,-0.0763 0.193322,-0.13099"
       style="fill:none;stroke:#000000;stroke-width:0.15;stroke-linecap:round;stroke-linejoin:round;stroke-miterlimit:4;stroke-dasharray:none"
       id="path1076" />
    <path
       d="m -2.16318,242.40158 -0.919239,0.53073"
       style="fill:none;stroke:#000000;stroke-width:0.15;stroke-linecap:round;stroke-linejoin:round;stroke-miterlimit:4;stroke-dasharray:none"
       id="path1078" />
    <path
       d="m -0.466124,243.38138 0.565685,0.3266"
       style="fill:none;stroke:#000000;stroke-width:0.15;stroke-linecap:round;stroke-linejoin:round;stroke-miterlimit:4;stroke-dasharray:none"
       id="path1080" />
    <path
       d="m -15.244656,246.85149 3.181981,1.83712"
       style="fill:none;stroke:#000000;stroke-width:0.15;stroke-linecap:round;stroke-linejoin:round;stroke-miterlimit:4;stroke-dasharray:none"
       id="path1082" />
    <path
       d="m -0.179599,244.52235 0.494975,0.28577"
       style="fill:none;stroke:#000000;stroke-width:0.15;stroke-linecap:round;stroke-linejoin:round;stroke-miterlimit:4;stroke-dasharray:none"
       id="path1084" />
    <path
       d="M -11.355568,252.44449 V 249.99"
       style="fill:none;stroke:#000000;stroke-width:0.15;stroke-linecap:round;stroke-linejoin:round;stroke-miterlimit:4;stroke-dasharray:none"
       id="path1086" />
    <path
       d="m 4.907887,240.93189 -0.919238,0.53072"
       style="fill:none;stroke:#000000;stroke-width:0.15;stroke-linecap:round;stroke-linejoin:round;stroke-miterlimit:4;stroke-dasharray:none"
       id="path1088" />
    <path
       d="m -11.355568,250.40325 -1.767767,1.02062"
       style="fill:none;stroke:#000000;stroke-width:0.15;stroke-linecap:round;stroke-linejoin:round;stroke-miterlimit:4;stroke-dasharray:none"
       id="path1090" />
    <path
       d="m -14.537549,248.15288 v 2.45449"
       style="fill:none;stroke:#000000;stroke-width:0.15;stroke-linecap:round;stroke-linejoin:round;stroke-miterlimit:4;stroke-dasharray:none"
       id="path1092" />
    <path
       d="m 1.725907,240.15622 -0.565685,-0.3266"
       style="fill:none;stroke:#000000;stroke-width:0.15;stroke-linecap:round;stroke-linejoin:round;stroke-miterlimit:4;stroke-dasharray:none"
       id="path1094" />
    <path
       d="M 6.322101,241.34014 1.372354,238.4824"
       style="fill:none;stroke:#000000;stroke-width:0.15;stroke-linecap:round;stroke-linejoin:round;stroke-miterlimit:4;stroke-dasharray:none"
       id="path1096" />
    <path
       d="m -10.43633,248.40283 1.064343,-0.6145"
       style="fill:none;stroke:#000000;stroke-width:0.15;stroke-linecap:round;stroke-linejoin:round;stroke-miterlimit:4;stroke-dasharray:none"
       id="path1098" />
    <path
       d="m -13.476889,251.21975 v -0.36453"
       style="fill:none;stroke:#000000;stroke-width:0.15;stroke-linecap:round;stroke-linejoin:round;stroke-miterlimit:4;stroke-dasharray:none"
       id="path1100" />
    <path
       d="m -13.476889,250.27787 v -1.58926"
       style="fill:none;stroke:#000000;stroke-width:0.15;stroke-linecap:round;stroke-linejoin:round;stroke-miterlimit:4;stroke-dasharray:none"
       id="path1102" />
    <path
       d="m -12.062675,248.68861 v 0.89314"
       style="fill:none;stroke:#000000;stroke-width:0.15;stroke-linecap:round;stroke-linejoin:round;stroke-miterlimit:4;stroke-dasharray:none"
       id="path1104" />
    <path
       d="m -13.476889,248.68861 0.707107,-0.40825"
       style="fill:none;stroke:#000000;stroke-width:0.15;stroke-linecap:round;stroke-linejoin:round;stroke-miterlimit:4;stroke-dasharray:none"
       id="path1106" />
    <path
       d="m -11.709122,247.66799 3.535534,-2.04125"
       style="fill:none;stroke:#000000;stroke-width:0.15;stroke-linecap:round;stroke-linejoin:round;stroke-miterlimit:4;stroke-dasharray:none"
       id="path1108" />
    <path
       d="m -13.476889,247.87211 v 0.0766"
       style="fill:none;stroke:#000000;stroke-width:0.15;stroke-linecap:round;stroke-linejoin:round;stroke-miterlimit:4;stroke-dasharray:none"
       id="path1110" />
    <path
       d="m -7.713551,247.1991 -0.0072,-0.0101 m 0,0 -0.0074,-0.01 m 0,0 -0.0077,-0.01 m 0,0 -0.0079,-0.009 m 0,0 -0.0081,-0.009 m 0,0 -0.0082,-0.008 m 0,0 -0.0084,-0.008 m 0,0 -0.0085,-0.008 m 0,0 -0.0086,-0.007 m 0,0 -0.0087,-0.007 m 0,0 -0.0088,-0.006 m 0,0 -0.0088,-0.006 m 0,0 -0.0088,-0.005 m 0,0 -0.0088,-0.005 m 0,0 -0.0088,-0.004 m 0,0 -0.0088,-0.004 m 0,0 -0.0087,-0.003 m 0,0 -0.0086,-0.003 m 0,0 -0.0085,-0.002 m 0,0 -0.0084,-0.002 m 0,0 -0.0082,-9.7e-4 m 0,0 -0.008,-4e-4 m 0,0 -0.0078,1.7e-4 m 0,0 -0.0076,7.4e-4 m 0,0 -0.0074,0.001 m 0,0 -0.0071,0.002 m 0,0 -0.0069,0.002 m 0,0 -0.0066,0.003 m 0,0 -0.004,0.002"
       style="fill:none;stroke:#000000;stroke-width:0.15;stroke-linecap:round;stroke-linejoin:round;stroke-miterlimit:4;stroke-dasharray:none"
       id="path1114" />
    <path
       d="m -15.598209,251.21975 v -4.98063"
       style="fill:none;stroke:#000000;stroke-width:0.15;stroke-linecap:round;stroke-linejoin:round;stroke-miterlimit:4;stroke-dasharray:none"
       id="path1116" />
    <path
       d="m 3.422963,241.13601 0.919239,-0.53072"
       style="fill:none;stroke:#000000;stroke-width:0.15;stroke-linecap:round;stroke-linejoin:round;stroke-miterlimit:4;stroke-dasharray:none"
       id="path1118" />
    <path
       d="m 3.988649,241.46261 -0.565686,-0.3266"
       style="fill:none;stroke:#000000;stroke-width:0.15;stroke-linecap:round;stroke-linejoin:round;stroke-miterlimit:4;stroke-dasharray:none"
       id="path1120" />
    <path
       d="m -8.173588,245.62674 1.861171,1.07455"
       style="fill:none;stroke:#000000;stroke-width:0.15;stroke-linecap:round;stroke-linejoin:round;stroke-miterlimit:4;stroke-dasharray:none"
       id="path1122" />
    <path
       d="m -8.877012,248.07411 9.192388,-3.26599"
       style="fill:none;stroke:#000000;stroke-width:0.15;stroke-linecap:round;stroke-linejoin:round;stroke-miterlimit:4;stroke-dasharray:none"
       id="path1126" />
    <path
       d="m -4.634371,241.95038 0.494974,0.28578"
       style="fill:none;stroke:#000000;stroke-width:0.15;stroke-linecap:round;stroke-linejoin:round;stroke-miterlimit:4;stroke-dasharray:none"
       id="path1128" />
    <path
       d="m -14.396128,246.11664 3.959798,2.28619"
       style="fill:none;stroke:#000000;stroke-width:0.15;stroke-linecap:round;stroke-linejoin:round;stroke-miterlimit:4;stroke-dasharray:none"
       id="path1130" />
    <path
       d="m 4.342202,240.60529 0.565685,0.3266"
       style="fill:none;stroke:#000000;stroke-width:0.15;stroke-linecap:round;stroke-linejoin:round;stroke-miterlimit:4;stroke-dasharray:none"
       id="path1132" />
    <path
       d="m -4.139397,242.23616 -8.488964,4.9011"
       style="fill:none;stroke:#000000;stroke-width:0.15;stroke-linecap:round;stroke-linejoin:round;stroke-miterlimit:4;stroke-dasharray:none"
       id="path1134" />
    <path
       d="M 1.160222,239.82962 2.07946,239.2989"
       style="fill:none;stroke:#000000;stroke-width:0.15;stroke-linecap:round;stroke-linejoin:round;stroke-miterlimit:4;stroke-dasharray:none"
       id="path1136" />
    <path
       d="m 1.372354,238.4824 -6.006725,3.46798"
       style="fill:none;stroke:#000000;stroke-width:0.15;stroke-linecap:round;stroke-linejoin:round;stroke-miterlimit:4;stroke-dasharray:none"
       id="path1138" />
    <path
       d="m -11.355568,252.44449 0.353553,0.20412"
       style="fill:none;stroke:#000000;stroke-width:0.15;stroke-linecap:round;stroke-linejoin:round;stroke-miterlimit:4;stroke-dasharray:none"
       id="path1140" />
    <path
       d="m -15.244656,251.01562 0.707107,-0.40825"
       style="fill:none;stroke:#000000;stroke-width:0.15;stroke-linecap:round;stroke-linejoin:round;stroke-miterlimit:4;stroke-dasharray:none"
       id="path1142" />
    <path
       d="m -8.877012,248.07411 -1.77145,1.02274"
       style="fill:none;stroke:#000000;stroke-width:0.15;stroke-linecap:round;stroke-linejoin:round;stroke-miterlimit:4;stroke-dasharray:none"
       id="path1144" />
    <path
       d="m -10.648462,254.07748 -4.949747,-2.85773"
       style="fill:none;stroke:#000000;stroke-width:0.15;stroke-linecap:round;stroke-linejoin:round;stroke-miterlimit:4;stroke-dasharray:none"
       id="path1146" />
    <path
       d="m -14.183996,248.357 0.707107,-0.40824"
       style="fill:none;stroke:#000000;stroke-width:0.15;stroke-linecap:round;stroke-linejoin:round;stroke-miterlimit:4;stroke-dasharray:none"
       id="path1148" />
    <path
       d="m -0.819677,244.2387 -0.565686,-0.3266"
       style="fill:none;stroke:#000000;stroke-width:0.15;stroke-linecap:round;stroke-linejoin:round;stroke-miterlimit:4;stroke-dasharray:none"
       id="path1150" />
    <path
       d="m -12.062675,249.58175 1.06066,0.61237"
       style="fill:none;stroke:#000000;stroke-width:0.15;stroke-linecap:round;stroke-linejoin:round;stroke-miterlimit:4;stroke-dasharray:none"
       id="path1152" />
    <path
       d="m 6.322101,244.27952 v -2.93938"
       style="fill:none;stroke:#000000;stroke-width:0.15;stroke-linecap:round;stroke-linejoin:round;stroke-miterlimit:4;stroke-dasharray:none"
       id="path1154" />
    <path
       d="m -13.331785,245.50214 9.192388,-3.26598"
       style="fill:none;stroke:#000000;stroke-width:0.15;stroke-linecap:round;stroke-linejoin:round;stroke-miterlimit:4;stroke-dasharray:none"
       id="path1156" />
    <path
       d="m 6.322101,241.34014 -6.006725,3.46798"
       style="fill:none;stroke:#000000;stroke-width:0.15;stroke-linecap:round;stroke-linejoin:round;stroke-miterlimit:4;stroke-dasharray:none"
       id="path1158" />
    <path
       d="m -9.371987,247.78833 0.494975,0.28578"
       style="fill:none;stroke:#000000;stroke-width:0.15;stroke-linecap:round;stroke-linejoin:round;stroke-miterlimit:4;stroke-dasharray:none"
       id="path1160" />
    <path
       d="m 2.645146,239.62549 -0.919239,0.53073"
       style="fill:none;stroke:#000000;stroke-width:0.15;stroke-linecap:round;stroke-linejoin:round;stroke-miterlimit:4;stroke-dasharray:none"
       id="path1162" />
    <path
       d="m -4.634371,241.95038 -9.192389,3.26599"
       style="fill:none;stroke:#000000;stroke-width:0.15;stroke-linecap:round;stroke-linejoin:round;stroke-miterlimit:4;stroke-dasharray:none"
       id="path1164" />
    <path
       d="m -11.002015,250.19412 v 3.27099"
       style="fill:none;stroke:#000000;stroke-width:0.15;stroke-linecap:round;stroke-linejoin:round;stroke-miterlimit:4;stroke-dasharray:none"
       id="path1166" />
    <path
       d="m -14.183996,247.94876 0.419931,-0.24245"
       style="fill:none;stroke:#000000;stroke-width:0.15;stroke-linecap:round;stroke-linejoin:round;stroke-miterlimit:4;stroke-dasharray:none"
       id="path1168" />
    <path
       d="m -15.244656,251.01562 v -3.27099"
       style="fill:none;stroke:#000000;stroke-width:0.15;stroke-linecap:round;stroke-linejoin:round;stroke-miterlimit:4;stroke-dasharray:none"
       id="path1170" />
    <path
       d="m 2.07946,239.2989 0.565686,0.32659"
       style="fill:none;stroke:#000000;stroke-width:0.15;stroke-linecap:round;stroke-linejoin:round;stroke-miterlimit:4;stroke-dasharray:none"
       id="path1172" />
    <path
       d="m -3.648105,242.60571 0.919239,-0.53073"
       style="fill:none;stroke:#000000;stroke-width:0.15;stroke-linecap:round;stroke-linejoin:round;stroke-miterlimit:4;stroke-dasharray:none"
       id="path1174" />
    <path
       d="m -13.82676,245.21637 0.494975,0.28577"
       style="fill:none;stroke:#000000;stroke-width:0.15;stroke-linecap:round;stroke-linejoin:round;stroke-miterlimit:4;stroke-dasharray:none"
       id="path1176" />
    <path
       d="m -15.244656,247.33638 v -0.48489"
       style="fill:none;stroke:#000000;stroke-width:0.15;stroke-linecap:round;stroke-linejoin:round;stroke-miterlimit:4;stroke-dasharray:none"
       id="path1178" />
    <path
       d="m -10.648462,249.09685 -4.949747,-2.85773"
       style="fill:none;stroke:#000000;stroke-width:0.15;stroke-linecap:round;stroke-linejoin:round;stroke-miterlimit:4;stroke-dasharray:none"
       id="path1180" />
    <path
       d="m -3.082419,242.93231 -0.565686,-0.3266"
       style="fill:none;stroke:#000000;stroke-width:0.15;stroke-linecap:round;stroke-linejoin:round;stroke-miterlimit:4;stroke-dasharray:none"
       id="path1182" />
    <path
       d="m -10.648462,254.07748 v -4.98063"
       style="fill:none;stroke:#000000;stroke-width:0.15;stroke-linecap:round;stroke-linejoin:round;stroke-miterlimit:4;stroke-dasharray:none"
       id="path1184" />
    <path
       d="m -0.179599,244.52235 -9.192388,3.26598"
       style="fill:none;stroke:#000000;stroke-width:0.15;stroke-linecap:round;stroke-linejoin:round;stroke-miterlimit:4;stroke-dasharray:none"
       id="path1186" />
    <path
       d="m -1.385363,243.9121 0.919239,-0.53072"
       style="fill:none;stroke:#000000;stroke-width:0.15;stroke-linecap:round;stroke-linejoin:round;stroke-miterlimit:4;stroke-dasharray:none"
       id="path1188" />
    <path
       d="m -15.244656,247.74463 1.06066,0.61237"
       style="fill:none;stroke:#000000;stroke-width:0.15;stroke-linecap:round;stroke-linejoin:round;stroke-miterlimit:4;stroke-dasharray:none"
       id="path1190" />
    <path
       d="m -14.183996,247.94876 -1.06066,-0.61238"
       style="fill:none;stroke:#000000;stroke-width:0.15;stroke-linecap:round;stroke-linejoin:round;stroke-miterlimit:4;stroke-dasharray:none"
       id="path1192" />
    <path
       d="m -14.117619,248.31868 0.64073,0.36993"
       style="fill:none;stroke:#000000;stroke-width:0.15;stroke-linecap:round;stroke-linejoin:round;stroke-miterlimit:4;stroke-dasharray:none"
       id="path1194" />
    <path
       d="m -15.244656,247.33638 0.419931,-0.24244"
       style="fill:none;stroke:#000000;stroke-width:0.15;stroke-linecap:round;stroke-linejoin:round;stroke-miterlimit:4;stroke-dasharray:none"
       id="path1196" />
    <path
       d="m -8.173588,247.21601 v -1.58927"
       style="fill:none;stroke:#000000;stroke-width:0.15;stroke-linecap:round;stroke-linejoin:round;stroke-miterlimit:4;stroke-dasharray:none"
       id="path1198" />
    <path
       d="m -13.331785,245.50214 -1.064343,0.6145"
       style="fill:none;stroke:#000000;stroke-width:0.15;stroke-linecap:round;stroke-linejoin:round;stroke-miterlimit:4;stroke-dasharray:none"
       id="path1204" />
    <path
       d="m -2.728866,242.07498 0.565686,0.3266"
       style="fill:none;stroke:#000000;stroke-width:0.15;stroke-linecap:round;stroke-linejoin:round;stroke-miterlimit:4;stroke-dasharray:none"
       id="path1206" />
    <path
       d="m -15.598209,246.23912 1.771449,-1.02275"
       style="fill:none;stroke:#000000;stroke-width:0.15;stroke-linecap:round;stroke-linejoin:round;stroke-miterlimit:4;stroke-dasharray:none"
       id="path1208" />
    <path
       d="m -11.002015,253.46511 -4.242641,-2.44949"
       style="fill:none;stroke:#000000;stroke-width:0.15;stroke-linecap:round;stroke-linejoin:round;stroke-miterlimit:4;stroke-dasharray:none"
       id="path1210" />
    <path
       d="m -14.183996,248.357 v -0.40824"
       style="fill:none;stroke:#000000;stroke-width:0.15;stroke-linecap:round;stroke-linejoin:round;stroke-miterlimit:4;stroke-dasharray:none"
       id="path1212" />
    <path
       d="m 6.322101,244.27952 -16.970563,9.79796"
       style="fill:none;stroke:#000000;stroke-width:0.15;stroke-linecap:round;stroke-linejoin:round;stroke-miterlimit:4;stroke-dasharray:none"
       id="path1214" />
    <path
       d="m -14.537549,250.60737 1.06066,0.61238"
       style="fill:none;stroke:#000000;stroke-width:0.15;stroke-linecap:round;stroke-linejoin:round;stroke-miterlimit:4;stroke-dasharray:none"
       id="path1216" />
    <path
       d="m -13.476889,251.21975 2.121321,1.22474"
       style="fill:none;stroke:#000000;stroke-width:0.15;stroke-linecap:round;stroke-linejoin:round;stroke-miterlimit:4;stroke-dasharray:none"
       id="path1218" />
    <path
       d="m 0.099561,243.70798 -0.919238,0.53072"
       style="fill:none;stroke:#000000;stroke-width:0.15;stroke-linecap:round;stroke-linejoin:round;stroke-miterlimit:4;stroke-dasharray:none"
       id="path1220" />
    <path
       d="m -12.149807,251.72203 c -0.02013,0.0116 -0.04214,0.0198 -0.0636,0.0244 -0.02293,0.005 -0.04511,0.006 -0.06509,0.004 -0.02398,-0.002 -0.04486,-0.008 -0.0629,-0.0147 -0.02371,-0.009 -0.04274,-0.0207 -0.05897,-0.033 -0.02197,-0.0165 -0.03896,-0.0345 -0.05328,-0.0534 -0.01698,-0.0225 -0.03018,-0.0465 -0.04004,-0.0734 -0.0097,-0.0265 -0.01654,-0.0557 -0.01648,-0.0912 4.7e-5,-0.0266 0.004,-0.0572 0.01821,-0.0909 0.0094,-0.0223 0.02374,-0.0459 0.04404,-0.067 0.01372,-0.0143 0.03012,-0.0273 0.04811,-0.0377"
       style="fill:none;stroke:#000000;stroke-width:0.15;stroke-linecap:round;stroke-linejoin:round;stroke-miterlimit:4;stroke-dasharray:none"
       id="path1222" />
    <path
       d="m -11.66692,249.81024 -1.897101,1.09529"
       style="fill:none;stroke:#000000;stroke-width:0.15;stroke-linecap:round;stroke-linejoin:round;stroke-miterlimit:4;stroke-dasharray:none"
       id="path1224" />
    <path
       d="m -13.564021,250.90553 c -0.02013,0.0116 -0.04214,0.0198 -0.0636,0.0244 -0.02293,0.005 -0.04511,0.006 -0.06509,0.004 -0.02398,-0.002 -0.04486,-0.008 -0.0629,-0.0147 -0.02371,-0.009 -0.04274,-0.0207 -0.05897,-0.033 -0.02197,-0.0165 -0.03896,-0.0345 -0.05328,-0.0534 -0.01698,-0.0225 -0.03018,-0.0465 -0.04004,-0.0734 -0.0097,-0.0265 -0.01654,-0.0557 -0.01648,-0.0911 4.7e-5,-0.0266 0.004,-0.0572 0.01821,-0.0909 0.0094,-0.0223 0.02374,-0.0459 0.04404,-0.067 0.01372,-0.0143 0.03012,-0.0273 0.04811,-0.0377"
       style="fill:none;stroke:#000000;stroke-width:0.15;stroke-linecap:round;stroke-linejoin:round;stroke-miterlimit:4;stroke-dasharray:none"
       id="path1226" />
    <path
       d="m -11.355568,250.68612 -1.044239,0.60289"
       style="fill:none;stroke:#000000;stroke-width:0.15;stroke-linecap:round;stroke-linejoin:round;stroke-miterlimit:4;stroke-dasharray:none"
       id="path1228" />
    <path
       d="m -11.355568,251.26347 -0.794239,0.45856"
       style="fill:none;stroke:#000000;stroke-width:0.15;stroke-linecap:round;stroke-linejoin:round;stroke-miterlimit:4;stroke-dasharray:none"
       id="path1230" />
    <path
       d="m -7.945035,247.08406 -0.888474,0.51296"
       style="fill:none;stroke:#000000;stroke-width:0.15;stroke-linecap:round;stroke-linejoin:round;stroke-miterlimit:4;stroke-dasharray:none"
       id="path1232" />
    <path
       d="m -12.062675,249.46138 -1.751346,1.01114"
       style="fill:none;stroke:#000000;stroke-width:0.15;stroke-linecap:round;stroke-linejoin:round;stroke-miterlimit:4;stroke-dasharray:none"
       id="path1234" />
    <path
       d="M 55.944621,212.93455 192.73731,133.95725"
       style="fill:none;stroke:#000000;stroke-width:0.15;stroke-linecap:round;stroke-linejoin:round;stroke-miterlimit:4;stroke-dasharray:none"
       id="path1236" />
    <path
       d="M 192.29118,133.39832 55.485049,212.38338"
       style="fill:none;stroke:#000000;stroke-width:0.15;stroke-linecap:round;stroke-linejoin:round;stroke-miterlimit:4;stroke-dasharray:none"
       id="path1238" />
    <path
       d="m 195.93895,131.41477 -2.60233,1.50246"
       style="fill:none;stroke:#000000;stroke-width:0.15;stroke-linecap:round;stroke-linejoin:round;stroke-miterlimit:4;stroke-dasharray:none"
       id="path1246" />
    <path
       d="m 192.9769,133.5331 v 8.60551"
       style="fill:none;stroke:#000000;stroke-width:0.15;stroke-linecap:round;stroke-linejoin:round;stroke-miterlimit:4;stroke-dasharray:none"
       id="path1248" />
    <path
       d="m 193.69012,142.13501 v -8.6055"
       style="fill:none;stroke:#000000;stroke-width:0.15;stroke-linecap:round;stroke-linejoin:round;stroke-miterlimit:4;stroke-dasharray:none"
       id="path1256" />
    <path
       d="m 192.9769,133.5331 0.0181,0.01 m 0,0 0.0189,0.009 m 0,0 0.0197,0.009 m 0,0 0.0205,0.008 m 0,0 0.0212,0.008 m 0,0 0.0218,0.007 m 0,0 0.0224,0.006 m 0,0 0.0229,0.006 m 0,0 0.0234,0.005 m 0,0 0.0238,0.004 m 0,0 0.0241,0.004 m 0,0 0.0245,0.003 m 0,0 0.0247,0.002 m 0,0 0.0248,0.002 m 0,0 0.025,8.7e-4 m 0,0 0.025,1.5e-4 m 0,0 0.025,-5.7e-4 m 0,0 0.0249,-10e-4 m 0,0 0.0248,-0.002 m 0,0 0.0246,-0.003 m 0,0 0.0243,-0.003 m 0,0 0.024,-0.004 m 0,0 0.0236,-0.005 m 0,0 0.0231,-0.005 m 0,0 0.0226,-0.006 m 0,0 0.0221,-0.007 m 0,0 0.0215,-0.007 m 0,0 0.0208,-0.008 m 0,0 0.0201,-0.009 m 0,0 0.0193,-0.009 m 0,0 0.0185,-0.01 m 0,0 0.0136,-0.008"
       style="fill:none;stroke:#000000;stroke-width:0.15;stroke-linecap:round;stroke-linejoin:round;stroke-miterlimit:4;stroke-dasharray:none"
       id="path1268" />
    <path
       d="m 193.69012,133.52951 -1.5e-4,-0.0208 m 0,0 -10e-4,-0.0213 m 0,0 -0.002,-0.0217 m 0,0 -0.003,-0.022 m 0,0 -0.004,-0.0223 m 0,0 -0.005,-0.0225 m 0,0 -0.005,-0.0227 m 0,0 -0.006,-0.0228 m 0,0 -0.007,-0.0229 m 0,0 -0.008,-0.0229 m 0,0 -0.009,-0.0228 m 0,0 -0.01,-0.0227 m 0,0 -0.0103,-0.0226 m 0,0 -0.011,-0.0223 m 0,0 -0.0117,-0.0221 m 0,0 -0.0124,-0.0217 m 0,0 -0.013,-0.0213 m 0,0 -0.0136,-0.0209 m 0,0 -0.0142,-0.0204 m 0,0 -0.0147,-0.0199 m 0,0 -0.0152,-0.0193 m 0,0 -0.0157,-0.0186 m 0,0 -0.0161,-0.0179 m 0,0 -0.0165,-0.0172 m 0,0 -0.0168,-0.0164 m 0,0 -0.0171,-0.0156 m 0,0 -0.0174,-0.0147 m 0,0 -0.0176,-0.0138 m 0,0 -0.0177,-0.0129 m 0,0 -0.0179,-0.012 m 0,0 -0.0179,-0.011 m 0,0 -0.007,-0.004"
       style="fill:none;stroke:#000000;stroke-width:0.15;stroke-linecap:round;stroke-linejoin:round;stroke-miterlimit:4;stroke-dasharray:none"
       id="path1270" />
    <path
       d="m 191.45785,132.65608 -0.44498,-0.5226 m 0,0 -0.45592,-0.50291 m 0,0 -0.46572,-0.48196 m 0,0 -0.47437,-0.45981 m 0,0 -0.48182,-0.43649 m 0,0 -0.48807,-0.41211 m 0,0 -0.4931,-0.38668 m 0,0 -0.4969,-0.36028 m 0,0 -0.49946,-0.333 m 0,0 -0.50076,-0.30487 m 0,0 -0.50082,-0.27598 m 0,0 -0.49962,-0.24641 m 0,0 -0.49718,-0.21621 m 0,0 -0.49349,-0.18548 m 0,0 -0.48858,-0.15428 m 0,0 -0.48243,-0.12271 m 0,0 -0.47508,-0.0908 m 0,0 -0.46654,-0.0587 m 0,0 -0.45685,-0.0264 m 0,0 -0.446,0.006 m 0,0 -0.0393,0.002"
       style="fill:none;stroke:#000000;stroke-width:0.15;stroke-linecap:round;stroke-linejoin:round;stroke-miterlimit:4;stroke-dasharray:none"
       id="path1272" />
    <path
       d="m 193.33662,132.91723 -0.0177,0.0104 m 0,0 -0.0176,0.0114 m 0,0 -0.0176,0.0123 m 0,0 -0.0174,0.0133 m 0,0 -0.0173,0.0142 m 0,0 -0.0171,0.0151 m 0,0 -0.0169,0.0159 m 0,0 -0.0166,0.0167 m 0,0 -0.0162,0.0175 m 0,0 -0.0159,0.0182 m 0,0 -0.0155,0.0188 m 0,0 -0.015,0.0195 m 0,0 -0.0145,0.02 m 0,0 -0.014,0.0205 m 0,0 -0.0134,0.021 m 0,0 -0.0128,0.0214 m 0,0 -0.0122,0.0218 m 0,0 -0.0116,0.0221 m 0,0 -0.0109,0.0224 m 0,0 -0.0102,0.0226 m 0,0 -0.009,0.0227 m 0,0 -0.009,0.0228 m 0,0 -0.008,0.0228 m 0,0 -0.007,0.0228 m 0,0 -0.006,0.0227 m 0,0 -0.005,0.0226 m 0,0 -0.005,0.0224 m 0,0 -0.004,0.0221 m 0,0 -0.003,0.0218 m 0,0 -0.002,0.0214 m 0,0 -0.001,0.021 m 0,0 -2.5e-4,0.0158"
       style="fill:none;stroke:#000000;stroke-width:0.15;stroke-linecap:round;stroke-linejoin:round;stroke-miterlimit:4;stroke-dasharray:none"
       id="path1274" />
    <path
       d="m 193.33662,132.91723 -1.4292,-0.82515"
       style="fill:none;stroke:#000000;stroke-width:0.15;stroke-linecap:round;stroke-linejoin:round;stroke-miterlimit:4;stroke-dasharray:none"
       id="path1278" />
    <path
       d="m 180.14531,126.00521 6.3e-4,0.0144 m 0,0 0.002,0.0144 m 0,0 0.003,0.0143 m 0,0 0.004,0.0142 m 0,0 0.006,0.0141 m 0,0 0.007,0.0139 m 0,0 0.008,0.0137 m 0,0 0.009,0.0134 m 0,0 0.0103,0.0131 m 0,0 0.0114,0.0128 m 0,0 0.0125,0.0125 m 0,0 0.0136,0.0121 m 0,0 0.0146,0.0117 m 0,0 0.0156,0.0113 m 0,0 0.0166,0.0108 m 0,0 0.0123,0.007"
       style="fill:none;stroke:#000000;stroke-width:0.15;stroke-linecap:round;stroke-linejoin:round;stroke-miterlimit:4;stroke-dasharray:none"
       id="path1280" />
    <path
       d="m 182.08068,126.41861 -1.42919,-0.82514"
       style="fill:none;stroke:#000000;stroke-width:0.15;stroke-linecap:round;stroke-linejoin:round;stroke-miterlimit:4;stroke-dasharray:none"
       id="path1282" />
    <path
       d="m 180.65149,125.59347 -0.0174,-0.01 m 0,0 -0.0173,-0.009 m 0,0 -0.0173,-0.008 m 0,0 -0.0172,-0.007 m 0,0 -0.017,-0.006 m 0,0 -0.0168,-0.004 m 0,0 -0.0166,-0.003 m 0,0 -0.0163,-0.002 m 0,0 -0.016,-9.6e-4 m 0,0 -0.0156,1.9e-4 m 0,0 -0.0152,0.001 m 0,0 -0.0147,0.002 m 0,0 -0.0143,0.004 m 0,0 -0.0138,0.005 m 0,0 -0.0132,0.006 m 0,0 -0.005,0.002"
       style="fill:none;stroke:#000000;stroke-width:0.15;stroke-linecap:round;stroke-linejoin:round;stroke-miterlimit:4;stroke-dasharray:none"
       id="path1286" />
    <path
       d="m 192.9769,142.13861 4.4e-4,0.0201 m 0,0 0.001,0.0196 m 0,0 0.002,0.019 m 0,0 0.003,0.0183 m 0,0 0.004,0.0176 m 0,0 0.005,0.0169 m 0,0 0.006,0.0161 m 0,0 0.006,0.0153 m 0,0 0.007,0.0144 m 0,0 0.008,0.0135 m 0,0 0.009,0.0125 m 0,0 0.01,0.0116 m 0,0 0.0103,0.0106 m 0,0 0.011,0.01 m 0,0 0.0117,0.009 m 0,0 0.009,0.005"
       style="fill:none;stroke:#000000;stroke-width:0.15;stroke-linecap:round;stroke-linejoin:round;stroke-miterlimit:4;stroke-dasharray:none"
       id="path1288" />
    <path
       d="m 191.90742,132.09208 -0.46276,-0.53754 m 0,0 -0.47388,-0.51692 m 0,0 -0.48382,-0.49501 m 0,0 -0.49255,-0.47186 m 0,0 -0.50005,-0.44753 m 0,0 -0.5063,-0.42208 m 0,0 -0.51128,-0.39557 m 0,0 -0.51499,-0.36809 m 0,0 -0.51741,-0.33967 m 0,0 -0.51853,-0.31041 m 0,0 -0.51837,-0.28037 m 0,0 -0.5169,-0.24963 m 0,0 -0.51414,-0.21827 m 0,0 -0.51009,-0.18637 m 0,0 -0.50478,-0.15399 m 0,0 -0.4982,-0.12123 m 0,0 -0.49037,-0.0882 m 0,0 -0.48132,-0.0549 m 0,0 -0.47107,-0.0215 m 0,0 -0.33993,0.006"
       style="fill:none;stroke:#000000;stroke-width:0.15;stroke-linecap:round;stroke-linejoin:round;stroke-miterlimit:4;stroke-dasharray:none"
       id="path1290" />
    <path
       d="m 191.45785,132.65608 1.51905,0.87702"
       style="fill:none;stroke:#000000;stroke-width:0.15;stroke-linecap:round;stroke-linejoin:round;stroke-miterlimit:4;stroke-dasharray:none"
       id="path1292" />
    <path
       d="m 196.29245,132.02705 0.008,-0.005 m 0,0 0.008,-0.006 m 0,0 0.007,-0.006 m 0,0 0.007,-0.006 m 0,0 0.006,-0.006 m 0,0 0.006,-0.006 m 0,0 0.005,-0.007 m 0,0 0.005,-0.007 m 0,0 0.004,-0.007 m 0,0 0.004,-0.007 m 0,0 0.003,-0.007 m 0,0 0.002,-0.007 m 0,0 0.002,-0.007 m 0,0 10e-4,-0.007 m 0,0 5.4e-4,-0.007 m 0,0 4e-5,-0.003"
       style="fill:none;stroke:#000000;stroke-width:0.15;stroke-linecap:round;stroke-linejoin:round;stroke-miterlimit:4;stroke-dasharray:none"
       id="path1294" />
    <path
       d="m 193.59342,142.35974 0.0119,-0.008 m 0,0 0.0113,-0.009 m 0,0 0.0105,-0.0102 m 0,0 0.01,-0.0112 m 0,0 0.009,-0.0121 m 0,0 0.008,-0.0131 m 0,0 0.007,-0.014 m 0,0 0.007,-0.0148 m 0,0 0.006,-0.0157 m 0,0 0.005,-0.0165 m 0,0 0.004,-0.0172 m 0,0 0.003,-0.0179 m 0,0 0.002,-0.0186 m 0,0 0.001,-0.0192 m 0,0 4.7e-4,-0.0198 m 0,0 -5e-5,-0.007"
       style="fill:none;stroke:#000000;stroke-width:0.15;stroke-linecap:round;stroke-linejoin:round;stroke-miterlimit:4;stroke-dasharray:none"
       id="path1298" />
    <path
       d="m 193.69012,133.52951 2.60233,-1.50246"
       style="fill:none;stroke:#000000;stroke-width:0.15;stroke-linecap:round;stroke-linejoin:round;stroke-miterlimit:4;stroke-dasharray:none"
       id="path1300" />
    <path
       d="m 180.29176,126.20934 1.51905,0.87702"
       style="fill:none;stroke:#000000;stroke-width:0.15;stroke-linecap:round;stroke-linejoin:round;stroke-miterlimit:4;stroke-dasharray:none"
       id="path1302" />
    <path
       d="m 196.06087,131.40414 -0.006,-0.003 m 0,0 -0.007,-0.003 m 0,0 -0.007,-0.002 m 0,0 -0.007,-0.002 m 0,0 -0.007,-0.001 m 0,0 -0.008,-5.4e-4 m 0,0 -0.008,4e-5 m 0,0 -0.008,6.1e-4 m 0,0 -0.008,0.001 m 0,0 -0.008,0.002 m 0,0 -0.009,0.002 m 0,0 -0.009,0.003 m 0,0 -0.009,0.003 m 0,0 -0.009,0.004 m 0,0 -0.009,0.004 m 0,0 -0.003,0.002"
       style="fill:none;stroke:#000000;stroke-width:0.15;stroke-linecap:round;stroke-linejoin:round;stroke-miterlimit:4;stroke-dasharray:none"
       id="path1310" />
    <path
       d="m 52.991128,223.33364 v -8.57153"
       style="fill:none;stroke:#000000;stroke-width:0.15;stroke-linecap:round;stroke-linejoin:round;stroke-miterlimit:4;stroke-dasharray:none"
       id="path1314" />
    <path
       d="m 52.991128,214.76211 -5.03e-4,-0.0206 m 0,0 -0.0014,-0.0211 m 0,0 -0.0023,-0.0215 m 0,0 -0.0031,-0.0218 m 0,0 -0.004,-0.0221 m 0,0 -0.0048,-0.0224 m 0,0 -0.0057,-0.0226 m 0,0 -0.0065,-0.0227 m 0,0 -0.0073,-0.0228 m 0,0 -0.0081,-0.0228 m 0,0 -0.0089,-0.0228 m 0,0 -0.0096,-0.0227 m 0,0 -0.01036,-0.0225 m 0,0 -0.01106,-0.0223 m 0,0 -0.01173,-0.022 m 0,0 -0.01237,-0.0217 m 0,0 -0.01298,-0.0213 m 0,0 -0.01356,-0.0209 m 0,0 -0.01411,-0.0204 m 0,0 -0.01462,-0.0199 m 0,0 -0.01509,-0.0193 m 0,0 -0.01553,-0.0187 m 0,0 -0.01592,-0.018 m 0,0 -0.01628,-0.0173 m 0,0 -0.01659,-0.0165 m 0,0 -0.01687,-0.0157 m 0,0 -0.0171,-0.0149 m 0,0 -0.01729,-0.014 m 0,0 -0.01744,-0.0131 m 0,0 -0.01754,-0.0121 m 0,0 -0.0176,-0.0112 m 0,0 -0.0072,-0.004"
       style="fill:none;stroke:#000000;stroke-width:0.15;stroke-linecap:round;stroke-linejoin:round;stroke-miterlimit:4;stroke-dasharray:none"
       id="path1318" />
    <path
       d="m 55.791958,213.14505 0.01754,-0.0103 m 0,0 0.01663,-0.0108 m 0,0 0.01568,-0.0113 m 0,0 0.01468,-0.0117 m 0,0 0.01365,-0.0121 m 0,0 0.01259,-0.0125 m 0,0 0.0115,-0.0128 m 0,0 0.01037,-0.0131 m 0,0 0.0092,-0.0134 m 0,0 0.008,-0.0137 m 0,0 0.0069,-0.0139 m 0,0 0.0056,-0.0141 m 0,0 0.0044,-0.0142 m 0,0 0.0032,-0.0143 m 0,0 0.0019,-0.0144 m 0,0 6.96e-4,-0.0144 m 0,0 2e-6,-8.2e-4"
       style="fill:none;stroke:#000000;stroke-width:0.15;stroke-linecap:round;stroke-linejoin:round;stroke-miterlimit:4;stroke-dasharray:none"
       id="path1322" />
    <path
       d="m 51.244365,213.34543 -0.46034,-0.53552 m 0,0 -0.47144,-0.51502 m 0,0 -0.481362,-0.49324 m 0,0 -0.49008,-0.47023 m 0,0 -0.497573,-0.44603 m 0,0 -0.503824,-0.42073 m 0,0 -0.508813,-0.39437 m 0,0 -0.512533,-0.36703 m 0,0 -0.514971,-0.33877 m 0,0 -0.51612,-0.30966 m 0,0 -0.515982,-0.27979 m 0,0 -0.514552,-0.2492 m 0,0 -0.511837,-0.218 m 0,0 -0.507843,-0.18624 m 0,0 -0.502578,-0.15404 m 0,0 -0.496059,-0.12144 m 0,0 -0.488298,-0.0885 m 0,0 -0.479318,-0.0554 m 0,0 -0.469139,-0.0222 m 0,0 -0.359844,0.006"
       style="fill:none;stroke:#000000;stroke-width:0.15;stroke-linecap:round;stroke-linejoin:round;stroke-miterlimit:4;stroke-dasharray:none"
       id="path1324" />
    <path
       d="m 39.979118,216.15093 8.9e-5,0.004 m 0,0 2.64e-4,0.004 m 0,0 4.41e-4,0.004 m 0,0 6.16e-4,0.004 m 0,0 7.88e-4,0.004 m 0,0 9.6e-4,0.003 m 0,0 0.0011,0.003 m 0,0 0.0013,0.003 m 0,0 0.0015,0.003 m 0,0 0.0016,0.003 m 0,0 0.0018,0.003 m 0,0 0.0019,0.002 m 0,0 0.0021,0.002 m 0,0 0.0022,0.002 m 0,0 0.0023,0.002 m 0,0 0.0017,0.001"
       style="fill:none;stroke:#000000;stroke-width:0.15;stroke-linecap:round;stroke-linejoin:round;stroke-miterlimit:4;stroke-dasharray:none"
       id="path1344" />
    <path
       d="m 55.438459,212.53277 -2.80083,1.61706"
       style="fill:none;stroke:#000000;stroke-width:0.15;stroke-linecap:round;stroke-linejoin:round;stroke-miterlimit:4;stroke-dasharray:none"
       id="path1346" />
    <path
       d="m 39.667029,215.62029 1.25e-4,0.003 m 0,0 3.75e-4,0.003 m 0,0 6.23e-4,0.003 m 0,0 8.71e-4,0.003 m 0,0 0.0011,0.003 m 0,0 0.0014,0.003 m 0,0 0.0016,0.003 m 0,0 0.0018,0.003 m 0,0 0.0021,0.003 m 0,0 0.0023,0.003 m 0,0 0.0025,0.002 m 0,0 0.0027,0.002 m 0,0 0.0029,0.002 m 0,0 0.0031,0.002 m 0,0 0.0033,0.002 m 0,0 0.0025,0.001"
       style="fill:none;stroke:#000000;stroke-width:0.15;stroke-linecap:round;stroke-linejoin:round;stroke-miterlimit:4;stroke-dasharray:none"
       id="path1348" />
    <path
       d="m 40.048595,206.88155 -0.01773,-0.01 m 0,0 -0.01768,-0.009 m 0,0 -0.01759,-0.008 m 0,0 -0.01746,-0.006 m 0,0 -0.01728,-0.005 m 0,0 -0.01706,-0.004 m 0,0 -0.01679,-0.003 m 0,0 -0.01648,-0.002 m 0,0 -0.01613,-8.6e-4 m 0,0 -0.01574,2.7e-4 m 0,0 -0.01532,0.001 m 0,0 -0.01485,0.003 m 0,0 -0.01435,0.004 m 0,0 -0.01381,0.005 m 0,0 -0.01323,0.006 m 0,0 -0.01263,0.007 m 0,0 -6.62e-4,4e-4"
       style="fill:none;stroke:#000000;stroke-width:0.15;stroke-linecap:round;stroke-linejoin:round;stroke-miterlimit:4;stroke-dasharray:none"
       id="path1354" />
    <path
       d="m 41.280937,216.90254 -1.301819,-0.75161"
       style="fill:none;stroke:#000000;stroke-width:0.15;stroke-linecap:round;stroke-linejoin:round;stroke-miterlimit:4;stroke-dasharray:none"
       id="path1362" />
    <path
       d="m 39.696319,215.66111 3.53e-4,0.0165 m 0,0 0.0011,0.0169 m 0,0 0.0018,0.0172 m 0,0 0.0025,0.0175 m 0,0 0.0032,0.0177 m 0,0 0.0038,0.0179 m 0,0 0.0045,0.0181 m 0,0 0.0052,0.0182 m 0,0 0.0058,0.0182 m 0,0 0.0065,0.0183 m 0,0 0.0071,0.0182 m 0,0 0.0077,0.0181 m 0,0 0.0083,0.018 m 0,0 0.0088,0.0178 m 0,0 0.0094,0.0176 m 0,0 0.0099,0.0174 m 0,0 0.01039,0.0171 m 0,0 0.01086,0.0167 m 0,0 0.01129,0.0163 m 0,0 0.01171,0.0159 m 0,0 0.01209,0.0154 m 0,0 0.01244,0.0149 m 0,0 0.01276,0.0144 m 0,0 0.01305,0.0138 m 0,0 0.01331,0.0132 m 0,0 0.01353,0.0126 m 0,0 0.01372,0.0119 m 0,0 0.01387,0.0112 m 0,0 0.01399,0.0104 m 0,0 0.01408,0.01 m 0,0 0.01413,0.009 m 0,0 0.0058,0.003"
       style="fill:none;stroke:#000000;stroke-width:0.15;stroke-linecap:round;stroke-linejoin:round;stroke-miterlimit:4;stroke-dasharray:none"
       id="path1366" />
    <path
       d="m 55.694629,212.50438 -0.01281,-0.007 m 0,0 -0.0134,-0.006 m 0,0 -0.01396,-0.004 m 0,0 -0.01448,-0.003 m 0,0 -0.01497,-0.002 m 0,0 -0.01542,-0.001 m 0,0 -0.01583,7e-5 m 0,0 -0.01621,0.001 m 0,0 -0.01654,0.002 m 0,0 -0.01683,0.003 m 0,0 -0.01708,0.005 m 0,0 -0.01729,0.006 m 0,0 -0.01745,0.007 m 0,0 -0.01757,0.008 m 0,0 -0.01764,0.009 m 0,0 -0.01767,0.01 m 0,0 -10e-4,6e-4"
       style="fill:none;stroke:#000000;stroke-width:0.15;stroke-linecap:round;stroke-linejoin:round;stroke-miterlimit:4;stroke-dasharray:none"
       id="path1374" />
    <path
       d="m 52.991128,214.76211 2.80083,-1.61706"
       style="fill:none;stroke:#000000;stroke-width:0.15;stroke-linecap:round;stroke-linejoin:round;stroke-miterlimit:4;stroke-dasharray:none"
       id="path1382" />
    <path
       d="m 52.637629,214.14983 -1.393264,-0.8044"
       style="fill:none;stroke:#000000;stroke-width:0.15;stroke-linecap:round;stroke-linejoin:round;stroke-miterlimit:4;stroke-dasharray:none"
       id="path1386" />
    <path
       d="m 41.441859,207.68595 -1.393264,-0.8044"
       style="fill:none;stroke:#000000;stroke-width:0.15;stroke-linecap:round;stroke-linejoin:round;stroke-miterlimit:4;stroke-dasharray:none"
       id="path1388" />
    <path
       d="m 47.896476,218.80101 0.04386,-0.0279 m 0,0 0.0415,-0.0318 m 0,0 0.03903,-0.0355 m 0,0 0.03647,-0.0392 m 0,0 0.03382,-0.0427 m 0,0 0.03109,-0.0462 m 0,0 0.02827,-0.0495 m 0,0 0.02539,-0.0527 m 0,0 0.02244,-0.0558 m 0,0 0.01944,-0.0587 m 0,0 0.01638,-0.0615 m 0,0 0.01329,-0.0642 m 0,0 0.01016,-0.0667 m 0,0 0.007,-0.069 m 0,0 0.0038,-0.0711 m 0,0 6.61e-4,-0.0731 m 0,0 -0.0025,-0.0749 m 0,0 -7.57e-4,-0.0131"
       style="fill:none;stroke:#000000;stroke-width:0.15;stroke-linecap:round;stroke-linejoin:round;stroke-miterlimit:4;stroke-dasharray:none"
       id="path1416" />
    <path
       d="m -12.391229,251.63047 0.0012,-7.8e-4 m 0,0 0.0012,-8.8e-4 m 0,0 0.0011,-9.8e-4 m 0,0 10e-4,-10e-4 m 0,0 9.39e-4,-0.001 m 0,0 8.64e-4,-0.001 m 0,0 7.85e-4,-0.001 m 0,0 7.05e-4,-0.001 m 0,0 6.24e-4,-0.002 m 0,0 5.4e-4,-0.002 m 0,0 4.55e-4,-0.002 m 0,0 3.69e-4,-0.002 m 0,0 2.82e-4,-0.002 m 0,0 1.95e-4,-0.002 m 0,0 1.07e-4,-0.002 m 0,0 1.8e-5,-0.002 m 0,0 -7e-5,-0.002 m 0,0 -1.58e-4,-0.002 m 0,0 -2.46e-4,-0.002 m 0,0 -3.33e-4,-0.002 m 0,0 -4.2e-4,-0.002 m 0,0 -5.05e-4,-0.002 m 0,0 -5.88e-4,-0.002 m 0,0 -6.72e-4,-0.002 m 0,0 -7.52e-4,-0.002 m 0,0 -8.31e-4,-0.002 m 0,0 -9.08e-4,-0.002 m 0,0 -9.83e-4,-0.002 m 0,0 -0.0011,-0.002 m 0,0 -0.0011,-0.002 m 0,0 -0.0012,-0.002 m 0,0 -0.0013,-0.002 m 0,0 -0.0013,-0.002 m 0,0 -0.0014,-0.002 m 0,0 -0.0014,-0.002 m 0,0 -0.0015,-0.002 m 0,0 -0.0015,-0.002 m 0,0 -0.0016,-0.002 m 0,0 -0.0016,-0.002 m 0,0 -0.0016,-0.002 m 0,0 -0.0017,-0.002 m 0,0 -0.0017,-0.002 m 0,0 -0.0017,-0.001 m 0,0 -0.0017,-0.001 m 0,0 -0.0018,-0.001 m 0,0 -0.0018,-0.001 m 0,0 -0.0018,-0.001 m 0,0 -0.0018,-9.8e-4 m 0,0 -0.0018,-8.8e-4 m 0,0 -0.0018,-7.7e-4 m 0,0 -0.0017,-6.6e-4 m 0,0 -0.0017,-5.6e-4 m 0,0 -0.0017,-4.4e-4 m 0,0 -0.0017,-3.3e-4 m 0,0 -0.0016,-2.1e-4 m 0,0 -0.0016,-1.1e-4 m 0,0 -0.0016,2e-5 m 0,0 -0.0015,1.2e-4 m 0,0 -0.0015,2.4e-4 m 0,0 -0.0014,3.5e-4 m 0,0 -0.0014,4.7e-4 m 0,0 -0.0013,5.8e-4 m 0,0 -0.0013,6.8e-4 m 0,0 -0.0012,7.9e-4 m 0,0 -0.0011,9e-4 m 0,0 -0.0011,0.001 m 0,0 -10e-4,0.001 m 0,0 -9.27e-4,0.001 m 0,0 -8.51e-4,0.001 m 0,0 -7.72e-4,10e-4 m 0,0 -6.91e-4,0.001 m 0,0 -6.1e-4,0.002 m 0,0 -5.25e-4,0.002 m 0,0 -4.41e-4,0.002 m 0,0 -3.55e-4,0.002 m 0,0 -2.67e-4,0.002 m 0,0 -1.8e-4,0.002 m 0,0 -9.2e-5,0.002 m 0,0 -4e-6,0.002 m 0,0 8.5e-5,0.002 m 0,0 1.73e-4,0.002 m 0,0 2.61e-4,0.002 m 0,0 3.48e-4,0.002 m 0,0 4.33e-4,0.002 m 0,0 5.19e-4,0.002 m 0,0 6.03e-4,0.002 m 0,0 6.85e-4,0.002 m 0,0 7.66e-4,0.002 m 0,0 8.44e-4,0.002 m 0,0 9.21e-4,0.002 m 0,0 9.95e-4,0.002 m 0,0 0.0011,0.002 m 0,0 0.0011,0.002 m 0,0 0.0012,0.002 m 0,0 0.0013,0.002 m 0,0 0.0013,0.002 m 0,0 0.0014,0.002 m 0,0 0.0014,0.002 m 0,0 0.0015,0.002 m 0,0 0.0015,0.002 m 0,0 0.0016,0.002 m 0,0 0.0016,0.002 m 0,0 0.0016,0.002 m 0,0 0.0017,0.002 m 0,0 0.0017,0.002 m 0,0 0.0017,0.001 m 0,0 0.0017,0.001 m 0,0 0.0018,10e-4 m 0,0 0.0018,0.001 m 0,0 0.0018,0.001 m 0,0 0.0018,9.6e-4 m 0,0 0.0018,8.6e-4 m 0,0 0.0018,7.6e-4 m 0,0 0.0017,6.4e-4 m 0,0 0.0017,5.4e-4 m 0,0 0.0017,4.2e-4 m 0,0 0.0017,3.1e-4 m 0,0 0.0016,2e-4 m 0,0 0.0016,8e-5 m 0,0 0.0016,-3e-5 m 0,0 0.0015,-1.5e-4 m 0,0 0.0015,-2.5e-4 m 0,0 0.0014,-3.8e-4 m 0,0 0.0014,-4.8e-4 m 0,0 0.0013,-5.9e-4 m 0,0 8.43e-4,-4.6e-4"
       style="fill:none;stroke:#000000;stroke-width:0.15;stroke-linecap:round;stroke-linejoin:round;stroke-miterlimit:4;stroke-dasharray:none"
       id="path1418" />
    <path
       d="m -13.564021,250.90553 0.0061,-0.004 m 0,0 0.0058,-0.004 m 0,0 0.0054,-0.005 m 0,0 0.0051,-0.005 m 0,0 0.0047,-0.006 m 0,0 0.0043,-0.006 m 0,0 0.0039,-0.007 m 0,0 0.0035,-0.007 m 0,0 0.0031,-0.008 m 0,0 0.0027,-0.008 m 0,0 0.0023,-0.009 m 0,0 0.0018,-0.009 m 0,0 0.0014,-0.009 m 0,0 9.74e-4,-0.01 m 0,0 5.33e-4,-0.01 m 0,0 9.2e-5,-0.0102 m 0,0 -3.5e-4,-0.0104 m 0,0 -7.91e-4,-0.0106 m 0,0 -0.0012,-0.0108 m 0,0 -0.0017,-0.011 m 0,0 -0.0021,-0.0111 m 0,0 -0.0025,-0.0112 m 0,0 -0.0029,-0.0113 m 0,0 -0.0034,-0.0114 m 0,0 -0.0038,-0.0114 m 0,0 -0.0042,-0.0114 m 0,0 -0.0045,-0.0114 m 0,0 -0.0049,-0.0113 m 0,0 -0.0053,-0.0112 m 0,0 -0.0056,-0.0111 m 0,0 -0.006,-0.011 m 0,0 -0.0063,-0.0108 m 0,0 -0.0066,-0.0106 m 0,0 -0.0069,-0.0104 m 0,0 -0.0071,-0.0101 m 0,0 -0.0074,-0.01 m 0,0 -0.0076,-0.01 m 0,0 -0.0078,-0.009 m 0,0 -0.008,-0.009 m 0,0 -0.0082,-0.009 m 0,0 -0.0084,-0.008 m 0,0 -0.0085,-0.008 m 0,0 -0.0086,-0.007 m 0,0 -0.0087,-0.007 m 0,0 -0.0088,-0.006 m 0,0 -0.0088,-0.006 m 0,0 -0.0088,-0.005 m 0,0 -0.0088,-0.005 m 0,0 -0.0088,-0.004 m 0,0 -0.0088,-0.004 m 0,0 -0.0087,-0.003 m 0,0 -0.0086,-0.003 m 0,0 -0.0085,-0.002 m 0,0 -0.0084,-0.002 m 0,0 -0.0082,-0.001 m 0,0 -0.0081,-5.1e-4 m 0,0 -0.0079,6e-5 m 0,0 -0.0077,6.3e-4 m 0,0 -0.0074,0.001 m 0,0 -0.0072,0.002 m 0,0 -0.0069,0.002 m 0,0 -0.0067,0.003 m 0,0 -0.0053,0.003"
       style="fill:none;stroke:#000000;stroke-width:0.15;stroke-linecap:round;stroke-linejoin:round;stroke-miterlimit:4;stroke-dasharray:none"
       id="path1420" />
    <path
       d="m -13.805442,250.81397 0.0012,-7.7e-4 m 0,0 0.0012,-8.8e-4 m 0,0 0.0011,-9.9e-4 m 0,0 0.001,-0.001 m 0,0 9.4e-4,-0.001 m 0,0 8.63e-4,-10e-4 m 0,0 7.86e-4,-0.001 m 0,0 7.05e-4,-0.001 m 0,0 6.23e-4,-0.002 m 0,0 5.4e-4,-0.002 m 0,0 4.55e-4,-0.002 m 0,0 3.69e-4,-0.002 m 0,0 2.83e-4,-0.002 m 0,0 1.94e-4,-0.002 m 0,0 1.07e-4,-0.002 m 0,0 1.8e-5,-0.002 m 0,0 -7e-5,-0.002 m 0,0 -1.58e-4,-0.002 m 0,0 -2.46e-4,-0.002 m 0,0 -3.33e-4,-0.002 m 0,0 -4.19e-4,-0.002 m 0,0 -5.05e-4,-0.002 m 0,0 -5.89e-4,-0.002 m 0,0 -6.71e-4,-0.002 m 0,0 -7.53e-4,-0.002 m 0,0 -8.31e-4,-0.002 m 0,0 -9.08e-4,-0.002 m 0,0 -9.83e-4,-0.002 m 0,0 -0.0011,-0.002 m 0,0 -0.0011,-0.002 m 0,0 -0.0012,-0.002 m 0,0 -0.0013,-0.002 m 0,0 -0.0013,-0.002 m 0,0 -0.0014,-0.002 m 0,0 -0.0014,-0.002 m 0,0 -0.0015,-0.002 m 0,0 -0.0015,-0.002 m 0,0 -0.0016,-0.002 m 0,0 -0.0016,-0.002 m 0,0 -0.0016,-0.002 m 0,0 -0.0017,-0.002 m 0,0 -0.0017,-0.002 m 0,0 -0.0017,-0.001 m 0,0 -0.0017,-10e-4 m 0,0 -0.0018,-0.001 m 0,0 -0.0018,-0.001 m 0,0 -0.0018,-0.001 m 0,0 -0.0018,-9.9e-4 m 0,0 -0.0018,-8.7e-4 m 0,0 -0.0018,-7.8e-4 m 0,0 -0.0017,-6.6e-4 m 0,0 -0.0017,-5.5e-4 m 0,0 -0.0017,-4.4e-4 m 0,0 -0.0017,-3.3e-4 m 0,0 -0.0016,-2.2e-4 m 0,0 -0.0016,-1e-4 m 0,0 -0.0016,1e-5 m 0,0 -0.0015,1.3e-4 m 0,0 -0.0015,2.4e-4 m 0,0 -0.0014,3.5e-4 m 0,0 -0.0014,4.6e-4 m 0,0 -0.0013,5.8e-4 m 0,0 -0.0013,6.8e-4 m 0,0 -0.0012,8e-4 m 0,0 -0.0011,9e-4 m 0,0 -0.0011,0.001 m 0,0 -10e-4,0.001 m 0,0 -9.27e-4,10e-4 m 0,0 -8.5e-4,0.001 m 0,0 -7.72e-4,0.001 m 0,0 -6.92e-4,0.001 m 0,0 -6.09e-4,0.002 m 0,0 -5.26e-4,0.002 m 0,0 -4.41e-4,0.002 m 0,0 -3.54e-4,0.002 m 0,0 -2.68e-4,0.002 m 0,0 -1.8e-4,0.002 m 0,0 -9.2e-5,0.002 m 0,0 -3e-6,0.002 m 0,0 8.5e-5,0.002 m 0,0 1.73e-4,0.002 m 0,0 2.6e-4,0.002 m 0,0 3.48e-4,0.002 m 0,0 4.34e-4,0.002 m 0,0 5.19e-4,0.002 m 0,0 6.03e-4,0.002 m 0,0 6.85e-4,0.002 m 0,0 7.65e-4,0.002 m 0,0 8.45e-4,0.002 m 0,0 9.21e-4,0.002 m 0,0 9.95e-4,0.002 m 0,0 0.0011,0.002 m 0,0 0.0011,0.002 m 0,0 0.0012,0.002 m 0,0 0.0013,0.002 m 0,0 0.0013,0.002 m 0,0 0.0014,0.002 m 0,0 0.0014,0.002 m 0,0 0.0015,0.002 m 0,0 0.0015,0.002 m 0,0 0.0016,0.002 m 0,0 0.0016,0.002 m 0,0 0.0016,0.002 m 0,0 0.0017,0.002 m 0,0 0.0017,0.002 m 0,0 0.0017,10e-4 m 0,0 0.0017,0.001 m 0,0 0.0018,0.001 m 0,0 0.0018,0.001 m 0,0 0.0018,0.001 m 0,0 0.0018,9.7e-4 m 0,0 0.0018,8.6e-4 m 0,0 0.0018,7.5e-4 m 0,0 0.0017,6.5e-4 m 0,0 0.0017,5.3e-4 m 0,0 0.0017,4.2e-4 m 0,0 0.0017,3.1e-4 m 0,0 0.0016,2e-4 m 0,0 0.0016,8e-5 m 0,0 0.0016,-3e-5 m 0,0 0.0015,-1.4e-4 m 0,0 0.0015,-2.6e-4 m 0,0 0.0014,-3.7e-4 m 0,0 0.0014,-4.9e-4 m 0,0 0.0013,-5.9e-4 m 0,0 8.43e-4,-4.6e-4"
       style="fill:none;stroke:#000000;stroke-width:0.15;stroke-linecap:round;stroke-linejoin:round;stroke-miterlimit:4;stroke-dasharray:none"
       id="path1422" />
    <path
       d="m -12.149807,251.72203 0.0061,-0.004 m 0,0 0.0058,-0.004 m 0,0 0.0054,-0.005 m 0,0 0.0051,-0.005 m 0,0 0.0047,-0.006 m 0,0 0.0043,-0.006 m 0,0 0.0039,-0.007 m 0,0 0.0035,-0.007 m 0,0 0.0031,-0.008 m 0,0 0.0027,-0.008 m 0,0 0.0023,-0.009 m 0,0 0.0018,-0.009 m 0,0 0.0014,-0.009 m 0,0 9.74e-4,-0.01 m 0,0 5.34e-4,-0.01 m 0,0 9.2e-5,-0.0102 m 0,0 -3.5e-4,-0.0104 m 0,0 -7.91e-4,-0.0106 m 0,0 -0.0012,-0.0108 m 0,0 -0.0017,-0.011 m 0,0 -0.0021,-0.0111 m 0,0 -0.0025,-0.0112 m 0,0 -0.0029,-0.0113 m 0,0 -0.0034,-0.0114 m 0,0 -0.0038,-0.0114 m 0,0 -0.0042,-0.0114 m 0,0 -0.0045,-0.0114 m 0,0 -0.0049,-0.0113 m 0,0 -0.0053,-0.0112 m 0,0 -0.0056,-0.0111 m 0,0 -0.006,-0.011 m 0,0 -0.0063,-0.0108 m 0,0 -0.0066,-0.0106 m 0,0 -0.0069,-0.0104 m 0,0 -0.0071,-0.0101 m 0,0 -0.0074,-0.01 m 0,0 -0.0076,-0.01 m 0,0 -0.0078,-0.009 m 0,0 -0.008,-0.009 m 0,0 -0.0082,-0.009 m 0,0 -0.0084,-0.008 m 0,0 -0.0085,-0.008 m 0,0 -0.0086,-0.007 m 0,0 -0.0087,-0.007 m 0,0 -0.0088,-0.006 m 0,0 -0.0088,-0.006 m 0,0 -0.0088,-0.005 m 0,0 -0.0088,-0.005 m 0,0 -0.0088,-0.004 m 0,0 -0.0088,-0.004 m 0,0 -0.0087,-0.003 m 0,0 -0.0086,-0.003 m 0,0 -0.0085,-0.002 m 0,0 -0.0084,-0.002 m 0,0 -0.0082,-10e-4 m 0,0 -0.0081,-5.1e-4 m 0,0 -0.0079,6e-5 m 0,0 -0.0077,6.2e-4 m 0,0 -0.0074,0.001 m 0,0 -0.0072,0.002 m 0,0 -0.0069,0.002 m 0,0 -0.0067,0.003 m 0,0 -0.0053,0.003"
       style="fill:none;stroke:#000000;stroke-width:0.15;stroke-linecap:round;stroke-linejoin:round;stroke-miterlimit:4;stroke-dasharray:none"
       id="path1424" />
  </g>
</svg>
