<?xml version="1.0" encoding="UTF-8" standalone="no"?>
<!-- Created with Inkscape (http://www.inkscape.org/) -->

<svg
   width="18.326696mm"
   height="15.766236mm"
   viewBox="0 0 18.326696 15.766236"
   version="1.1"
   id="svg13588"
   inkscape:version="1.2.2 (732a01da63, 2022-12-09)"
   sodipodi:docname="Barra I45 VTopo I45.svg"
   xmlns:inkscape="http://www.inkscape.org/namespaces/inkscape"
   xmlns:sodipodi="http://sodipodi.sourceforge.net/DTD/sodipodi-0.dtd"
   xmlns="http://www.w3.org/2000/svg"
   xmlns:svg="http://www.w3.org/2000/svg">
  <sodipodi:namedview
     id="namedview13590"
     pagecolor="#505050"
     bordercolor="#ffffff"
     borderopacity="1"
     inkscape:showpageshadow="0"
     inkscape:pageopacity="0"
     inkscape:pagecheckerboard="1"
     inkscape:deskcolor="#505050"
     inkscape:document-units="mm"
     showgrid="false"
     inkscape:zoom="11.313709"
     inkscape:cx="22.627417"
     inkscape:cy="41.7193"
     inkscape:window-width="1680"
     inkscape:window-height="979"
     inkscape:window-x="1912"
     inkscape:window-y="-8"
     inkscape:window-maximized="1"
     inkscape:current-layer="layer1" />
  <defs
     id="defs13585" />
  <g
     inkscape:label="Layer 1"
     inkscape:groupmode="layer"
     id="layer1"
     transform="translate(-91.471329,-44.905508)">
    <g
       id="g15356"
       transform="translate(0,-26.458334)"
       style="stroke:#000000;stroke-opacity:1">
      <path
         style="fill:none;stroke:#000000;stroke-width:0.100475;stroke-linecap:round;stroke-dasharray:none;stroke-opacity:1"
         d="m 94.41964,127.87747 1.01918,-1.48669"
         id="path1111"
         transform="matrix(0.99527533,0,0,-0.99527111,14.7079,199.74599)" />
      <path
         style="fill:none;stroke:#000000;stroke-width:0.100475;stroke-linecap:round;stroke-dasharray:none;stroke-opacity:1"
         d="m 77.17807,119.10812 v 9.63375"
         id="path1113"
         transform="matrix(0.99527533,0,0,-0.99527111,14.7079,199.74599)" />
      <path
         style="fill:none;stroke:#000000;stroke-width:0.100475;stroke-linecap:round;stroke-dasharray:none;stroke-opacity:1"
         d="M 95.29118,128.19048 H 94.58474"
         id="path1115"
         transform="matrix(0.99527533,0,0,-0.99527111,14.7079,199.74599)" />
      <path
         d="m 95.49129,128.3906 a 0.20000013,0.20000013 0 0 0 -0.20001,-0.2"
         style="fill:none;stroke:#000000;stroke-width:0.100475;stroke-linecap:round;stroke-dasharray:none;stroke-opacity:1"
         id="path1117"
         transform="matrix(0.99527533,0,0,-0.99527111,14.7079,199.74599)" />
      <path
         style="fill:none;stroke:#000000;stroke-width:0.100475;stroke-linecap:round;stroke-dasharray:none;stroke-opacity:1"
         d="M 77.3781,128.94189 H 95.29118"
         id="path1121"
         transform="matrix(0.99527533,0,0,-0.99527111,14.7079,199.74599)" />
      <path
         style="fill:none;stroke:#000000;stroke-width:0.100475;stroke-linecap:round;stroke-dasharray:none;stroke-opacity:1"
         d="M 95.49121,128.74187 V 128.3905"
         id="path1127"
         transform="matrix(0.99527533,0,0,-0.99527111,14.7079,199.74599)" />
      <path
         style="fill:none;stroke:#000000;stroke-width:0.100475;stroke-linecap:round;stroke-dasharray:none;stroke-opacity:1"
         d="m 78.4396,116.19956 v 2.50851"
         id="path1129"
         transform="matrix(0.99527533,0,0,-0.99527111,14.7079,199.74599)" />
      <path
         d="m 95.29128,128.9419 a 0.20000013,0.20000013 0 0 0 0.20001,-0.2"
         style="fill:none;stroke:#000000;stroke-width:0.100475;stroke-linecap:round;stroke-dasharray:none;stroke-opacity:1"
         id="path1137"
         transform="matrix(0.99527533,0,0,-0.99527111,14.7079,199.74599)" />
      <path
         d="m 78.23973,118.90805 a 0.20000013,0.20000013 0 0 0 0.2,-0.2"
         style="fill:none;stroke:#000000;stroke-width:0.100475;stroke-linecap:round;stroke-dasharray:none;stroke-opacity:1"
         id="path1139"
         transform="matrix(0.99527533,0,0,-0.99527111,14.7079,199.74599)" />
      <path
         style="fill:none;stroke:#000000;stroke-width:0.100475;stroke-linecap:round;stroke-dasharray:none;stroke-opacity:1"
         d="m 80.04536,113.5098 -0.80671,0.7755"
         id="path1145"
         transform="matrix(0.99527533,0,0,-0.99527111,14.7079,199.74599)" />
      <path
         d="m 79.23865,114.2853 c -0.487213,0.50247 -0.79892,1.21431 -0.79892,1.9142"
         style="fill:none;stroke:#000000;stroke-width:0.100475;stroke-linecap:round;stroke-dasharray:none;stroke-opacity:1"
         id="path1151"
         transform="matrix(0.99527533,0,0,-0.99527111,14.7079,199.74599)"
         sodipodi:nodetypes="cc" />
      <path
         d="m 77.37812,118.90805 a 0.20000013,0.20000013 0 0 0 -0.2,0.2"
         style="fill:none;stroke:#000000;stroke-width:0.100475;stroke-linecap:round;stroke-dasharray:none;stroke-opacity:1"
         id="path1165"
         transform="matrix(0.99527533,0,0,-0.99527111,14.7079,199.74599)" />
      <path
         style="fill:none;stroke:#000000;stroke-width:0.100475;stroke-linecap:round;stroke-dasharray:none;stroke-opacity:1"
         d="M 78.23984,118.9081 H 77.3781"
         id="path1167"
         transform="matrix(0.99527533,0,0,-0.99527111,14.7079,199.74599)" />
      <path
         d="m 94.41967,127.87753 a 0.20000013,0.20000013 0 0 0 0.16497,0.31307"
         style="fill:none;stroke:#000000;stroke-width:0.100475;stroke-linecap:round;stroke-dasharray:none;stroke-opacity:1"
         id="path1169"
         transform="matrix(0.99527533,0,0,-0.99527111,14.7079,199.74599)" />
      <path
         d="m 80.44471,113.24747 a 1.3,1.3 0 0 0 -0.39946,0.26224"
         style="fill:none;stroke:#000000;stroke-width:0.100475;stroke-linecap:round;stroke-dasharray:none;stroke-opacity:1"
         id="path1179"
         transform="matrix(0.99527533,0,0,-0.99527111,14.7079,199.74599)" />
      <path
         d="m 77.37812,118.90805 a 0.20000013,0.20000013 0 0 0 -0.2,0.2"
         style="fill:none;stroke:#000000;stroke-width:0.100475;stroke-linecap:round;stroke-dasharray:none;stroke-opacity:1"
         id="path1187"
         transform="matrix(0.99527533,0,0,-0.99527111,14.7079,199.74599)" />
      <path
         d="m 95.43874,126.39077 a 0.29999993,0.29999993 0 0 0 -0.0426,-0.3888"
         style="fill:none;stroke:#000000;stroke-width:0.100475;stroke-linecap:round;stroke-dasharray:none;stroke-opacity:1"
         id="path1209"
         transform="matrix(0.99527533,0,0,-0.99527111,14.7079,199.74599)" />
      <path
         d="m 77.17812,128.7419 a 0.20000013,0.20000013 0 0 0 0.2,0.2"
         style="fill:none;stroke:#000000;stroke-width:0.100475;stroke-linecap:round;stroke-dasharray:none;stroke-opacity:1"
         id="path1223"
         transform="matrix(0.99527533,0,0,-0.99527111,14.7079,199.74599)" />
      <path
         d="m 81.9125,113.40105 a 2.5468162,2.5468162 0 0 0 -1.46779,-0.15358"
         style="fill:none;stroke:#000000;stroke-width:0.100475;stroke-linecap:round;stroke-dasharray:none;stroke-opacity:1"
         id="path1217"
         transform="matrix(0.99527533,0,0,-0.99527111,14.7079,199.74599)" />
    </g>
    <g
       id="g16393"
       transform="matrix(1,0,0,-1,9.0326088,137.32793)"
       style="stroke:#000000;stroke-opacity:1">
      <path
         style="fill:none;stroke:#000000;stroke-width:0.1;stroke-linecap:round;stroke-dasharray:none;stroke-opacity:1"
         d="m 86.02468,82.203514 -2.8784,-2.690019"
         id="path909"
         transform="translate(5.0581042,-2.3737161)" />
      <path
         d="m 86.02477,82.203394 a 0.29854154,0.29652357 7.115661 0 0 0.35349,0.0414"
         style="fill:none;stroke:#000000;stroke-width:0.1;stroke-linecap:round;stroke-dasharray:none;stroke-opacity:1"
         id="path931"
         transform="translate(5.0581042,-2.3737161)" />
      <path
         d="M 82.38454,79.384992 A 2.5468162,2.5468162 0 0 0 80.69563,79.125589"
         style="fill:none;stroke:#000000;stroke-width:0.1;stroke-linecap:round;stroke-dasharray:none;stroke-opacity:1"
         id="path945"
         transform="translate(5.0581042,-2.3737161)" />
      <path
         d="M 83.14636,79.513415 A 0.69999991,0.69999991 0 0 0 82.38454,79.384992"
         style="fill:none;stroke:#000000;stroke-width:0.1;stroke-linecap:round;stroke-dasharray:none;stroke-opacity:1"
         id="path973"
         transform="translate(5.0581042,-2.3737161)" />
      <path
         d="m 94.47593,91.047132 a 0.50895779,0.50895779 0 0 0 -0.0304,-0.712766"
         style="fill:none;stroke:#000000;stroke-width:0.1;stroke-linecap:round;stroke-dasharray:none;stroke-opacity:1"
         id="path1873"
         transform="translate(5.2901742,-2.457057)" />
      <path
         style="fill:none;stroke:#000000;stroke-width:0.1;stroke-linecap:round;stroke-dasharray:none;stroke-opacity:1"
         d="m 93.62034,89.563163 0.82523,0.771261"
         id="path1903"
         transform="translate(5.2901342,-2.457115)" />
      <path
         d="m 93.53848,88.945496 c -0.02,0.03218 -0.0364,0.067 -0.0484,0.103066 -0.0117,0.03498 -0.0194,0.07115 -0.023,0.107921 -0.002,0.02299 -0.003,0.04611 -0.002,0.06905 5.2e-4,0.01434 0.002,0.02871 0.004,0.04303 0.002,0.01431 0.004,0.0286 0.008,0.04274 0.005,0.02262 0.0117,0.04491 0.0198,0.06651 0.013,0.03457 0.0299,0.06747 0.0504,0.09836 0.0211,0.03184 0.0461,0.06123 0.0737,0.08707"
         style="fill:none;stroke:#000000;stroke-width:0.1;stroke-linecap:round;stroke-dasharray:none;stroke-opacity:1"
         id="path1959"
         transform="translate(5.2676314,-2.4835784)" />
      <path
         d="m 86.39861,82.280462 c 0.32463,-0.185187 0.66238,-0.355253 1.01367,-0.49444 0.70785,-0.280471 1.48408,-0.404365 2.24458,-0.377613 0.56108,0.01974 1.11942,0.100568 1.66251,0.234595 0.4131,0.101952 0.82102,0.237874 1.21395,0.419825 0.28782,0.133276 0.56267,0.28965 0.82049,0.47081 0.25782,0.181163 0.50153,0.390282 0.71826,0.621602 0.30863,0.329411 0.57125,0.705914 0.75476,1.126593 0.23107,0.529738 0.29782,1.13542 0.20205,1.701025 -0.0919,0.54266 -0.29068,1.041929 -0.52056,1.526106 -0.24881,0.524057 -0.458843,0.892416 -0.760313,1.378286"
         style="fill:none;stroke:#000000;stroke-width:0.1;stroke-linecap:round;stroke-dasharray:none;stroke-opacity:1"
         id="path1979"
         transform="translate(5.0581042,-2.4253332)"
         sodipodi:nodetypes="ccscssscccc" />
      <path
         style="fill:none;stroke:#000000;stroke-width:0.1;stroke-linecap:round;stroke-dasharray:none;stroke-opacity:1"
         d="m 94.476,91.047211 0.854612,0.85632"
         id="path2033"
         transform="translate(5.2901042,-2.457136)"
         sodipodi:nodetypes="cc" />
    </g>
  </g>
</svg>
