<?xml version="1.0" encoding="UTF-8" standalone="no"?>
<!-- Created with Inkscape (http://www.inkscape.org/) -->

<svg
   width="26.386084mm"
   height="22.698837mm"
   viewBox="0 0 26.386083 22.698837"
   version="1.1"
   id="svg1902"
   sodipodi:docname="Barra I45 VTopo Clear.svg"
   inkscape:version="1.2.2 (732a01da63, 2022-12-09)"
   xmlns:inkscape="http://www.inkscape.org/namespaces/inkscape"
   xmlns:sodipodi="http://sodipodi.sourceforge.net/DTD/sodipodi-0.dtd"
   xmlns="http://www.w3.org/2000/svg"
   xmlns:svg="http://www.w3.org/2000/svg">
  <sodipodi:namedview
     id="namedview1904"
     pagecolor="#505050"
     bordercolor="#ffffff"
     borderopacity="1"
     inkscape:showpageshadow="0"
     inkscape:pageopacity="0"
     inkscape:pagecheckerboard="1"
     inkscape:deskcolor="#505050"
     inkscape:document-units="mm"
     showgrid="false"
     inkscape:zoom="8"
     inkscape:cx="57.1875"
     inkscape:cy="26"
     inkscape:window-width="1920"
     inkscape:window-height="1009"
     inkscape:window-x="-8"
     inkscape:window-y="-8"
     inkscape:window-maximized="1"
     inkscape:current-layer="layer1" />
  <defs
     id="defs1899" />
  <g
     inkscape:label="Layer 1"
     inkscape:groupmode="layer"
     id="layer1"
     transform="translate(140.25916,326.08961)">
    <path
       style="fill:none;stroke:#000000;stroke-width:0.0696595;stroke-linecap:round;stroke-dasharray:none"
       d="m 94.41964,127.87747 1.01918,-1.48669"
       id="path1111"
       transform="matrix(1.4353618,0,0,-1.4357469,-250.98762,-140.91167)" />
    <path
       style="fill:none;stroke:#000000;stroke-width:0.0696595;stroke-linecap:round;stroke-dasharray:none"
       d="m 77.17807,119.10812 v 9.63375"
       id="path1113"
       transform="matrix(1.4353618,0,0,-1.4357469,-250.98762,-140.91167)" />
    <path
       style="fill:none;stroke:#000000;stroke-width:0.0696595;stroke-linecap:round;stroke-dasharray:none"
       d="M 95.29118,128.19048 H 94.58474"
       id="path1115"
       transform="matrix(1.4353618,0,0,-1.4357469,-250.98762,-140.91167)" />
    <path
       d="m 95.49129,128.3906 a 0.20000013,0.20000013 0 0 0 -0.20001,-0.2"
       style="fill:none;stroke:#000000;stroke-width:0.0696595;stroke-linecap:round;stroke-dasharray:none"
       id="path1117"
       transform="matrix(1.4353618,0,0,-1.4357469,-250.98762,-140.91167)" />
    <path
       style="fill:none;stroke:#000000;stroke-width:0.0696595;stroke-linecap:round;stroke-dasharray:none"
       d="M 77.3781,128.94189 H 95.29118"
       id="path1121"
       transform="matrix(1.4353618,0,0,-1.4357469,-250.98762,-140.91167)" />
    <path
       d="m 93.12488,123.79508 a 13.700714,13.700714 0 0 0 -9.62791,-8.99762"
       style="fill:none;stroke:#000000;stroke-width:0.0696595;stroke-linecap:round;stroke-dasharray:none"
       id="path1123"
       transform="matrix(1.4353618,0,0,-1.4357469,-250.98762,-140.91167)" />
    <path
       style="fill:none;stroke:#000000;stroke-width:0.0696595;stroke-linecap:round;stroke-dasharray:none"
       d="M 95.49121,128.74187 V 128.3905"
       id="path1127"
       transform="matrix(1.4353618,0,0,-1.4357469,-250.98762,-140.91167)" />
    <path
       style="fill:none;stroke:#000000;stroke-width:0.0696595;stroke-linecap:round;stroke-dasharray:none"
       d="m 78.4396,116.19956 v 2.50851"
       id="path1129"
       transform="matrix(1.4353618,0,0,-1.4357469,-250.98762,-140.91167)" />
    <path
       d="m 95.29128,128.9419 a 0.20000013,0.20000013 0 0 0 0.20001,-0.2"
       style="fill:none;stroke:#000000;stroke-width:0.0696595;stroke-linecap:round;stroke-dasharray:none"
       id="path1137"
       transform="matrix(1.4353618,0,0,-1.4357469,-250.98762,-140.91167)" />
    <path
       d="m 78.23973,118.90805 a 0.20000013,0.20000013 0 0 0 0.2,-0.2"
       style="fill:none;stroke:#000000;stroke-width:0.0696595;stroke-linecap:round;stroke-dasharray:none"
       id="path1139"
       transform="matrix(1.4353618,0,0,-1.4357469,-250.98762,-140.91167)" />
    <path
       style="fill:none;stroke:#000000;stroke-width:0.0696595;stroke-linecap:round;stroke-dasharray:none"
       d="m 80.04536,113.5098 -0.80671,0.7755"
       id="path1145"
       transform="matrix(1.4353618,0,0,-1.4357469,-250.98762,-140.91167)" />
    <path
       style="fill:none;stroke:#000000;stroke-width:0.0696595;stroke-linecap:round;stroke-dasharray:none"
       d="m 95.39622,126.00184 -2.13783,-1.9976"
       id="path1147"
       transform="matrix(1.4353618,0,0,-1.4357469,-250.98762,-140.91167)" />
    <path
       d="m 79.23865,114.2853 c -0.487213,0.50247 -0.79892,1.21431 -0.79892,1.9142"
       style="fill:none;stroke:#000000;stroke-width:0.0696595;stroke-linecap:round;stroke-dasharray:none"
       id="path1151"
       transform="matrix(1.4353618,0,0,-1.4357469,-250.98762,-140.91167)"
       sodipodi:nodetypes="cc" />
    <path
       d="m 77.37812,118.90805 a 0.20000013,0.20000013 0 0 0 -0.2,0.2"
       style="fill:none;stroke:#000000;stroke-width:0.0696595;stroke-linecap:round;stroke-dasharray:none"
       id="path1165"
       transform="matrix(1.4353618,0,0,-1.4357469,-250.98762,-140.91167)" />
    <path
       style="fill:none;stroke:#000000;stroke-width:0.0696595;stroke-linecap:round;stroke-dasharray:none"
       d="M 78.23984,118.9081 H 77.3781"
       id="path1167"
       transform="matrix(1.4353618,0,0,-1.4357469,-250.98762,-140.91167)" />
    <path
       d="m 94.41967,127.87753 a 0.20000013,0.20000013 0 0 0 0.16497,0.31307"
       style="fill:none;stroke:#000000;stroke-width:0.0696595;stroke-linecap:round;stroke-dasharray:none"
       id="path1169"
       transform="matrix(1.4353618,0,0,-1.4357469,-250.98762,-140.91167)" />
    <path
       d="m 80.44471,113.24747 a 1.3,1.3 0 0 0 -0.39946,0.26224"
       style="fill:none;stroke:#000000;stroke-width:0.0696595;stroke-linecap:round;stroke-dasharray:none"
       id="path1179"
       transform="matrix(1.4353618,0,0,-1.4357469,-250.98762,-140.91167)" />
    <path
       d="m 83.27922,114.67829 a 0.50000005,0.50000005 0 0 0 0.21775,0.11917"
       style="fill:none;stroke:#000000;stroke-width:0.0696595;stroke-linecap:round;stroke-dasharray:none"
       id="path1185"
       transform="matrix(1.4353618,0,0,-1.4357469,-250.98762,-140.91167)" />
    <path
       d="m 77.37812,118.90805 a 0.20000013,0.20000013 0 0 0 -0.2,0.2"
       style="fill:none;stroke:#000000;stroke-width:0.0696595;stroke-linecap:round;stroke-dasharray:none"
       id="path1187"
       transform="matrix(1.4353618,0,0,-1.4357469,-250.98762,-140.91167)" />
    <path
       style="fill:none;stroke:#000000;stroke-width:0.0696595;stroke-linecap:round;stroke-dasharray:none"
       d="m 81.91253,113.40106 1.36657,1.27714"
       id="path1197"
       transform="matrix(1.4353618,0,0,-1.4357469,-250.98762,-140.91167)" />
    <path
       d="m 95.43874,126.39077 a 0.29999993,0.29999993 0 0 0 -0.0426,-0.3888"
       style="fill:none;stroke:#000000;stroke-width:0.0696595;stroke-linecap:round;stroke-dasharray:none"
       id="path1209"
       transform="matrix(1.4353618,0,0,-1.4357469,-250.98762,-140.91167)" />
    <path
       d="m 77.17812,128.7419 a 0.20000013,0.20000013 0 0 0 0.2,0.2"
       style="fill:none;stroke:#000000;stroke-width:0.0696595;stroke-linecap:round;stroke-dasharray:none"
       id="path1223"
       transform="matrix(1.4353618,0,0,-1.4357469,-250.98762,-140.91167)" />
    <path
       d="m 93.12488,123.79508 a 0.50000005,0.50000005 0 0 0 0.13362,0.2092"
       style="fill:none;stroke:#000000;stroke-width:0.0696595;stroke-linecap:round;stroke-dasharray:none"
       id="path1229"
       transform="matrix(1.4353618,0,0,-1.4357469,-250.98762,-140.91167)" />
    <path
       d="m 81.9125,113.40105 a 2.5468162,2.5468162 0 0 0 -1.46779,-0.15358"
       style="fill:none;stroke:#000000;stroke-width:0.0696595;stroke-linecap:round;stroke-dasharray:none"
       id="path1217"
       transform="matrix(1.4353618,0,0,-1.4357469,-250.98762,-140.91167)" />
  </g>
</svg>
