<?xml version="1.0" encoding="UTF-8" standalone="no"?>
<svg
   width="640"
   height="455"
   version="1.1"
   viewBox="0 0 169.33 120.38268"
   id="svg1777"
   sodipodi:docname="diagrama 24v 2x55.svg"
   inkscape:version="1.4.2 (f4327f4, 2025-05-13)"
   xmlns:inkscape="http://www.inkscape.org/namespaces/inkscape"
   xmlns:sodipodi="http://sodipodi.sourceforge.net/DTD/sodipodi-0.dtd"
   xmlns="http://www.w3.org/2000/svg"
   xmlns:svg="http://www.w3.org/2000/svg">
  <sodipodi:namedview
     id="namedview1779"
     pagecolor="#505050"
     bordercolor="#ffffff"
     borderopacity="1"
     inkscape:showpageshadow="0"
     inkscape:pageopacity="0"
     inkscape:pagecheckerboard="1"
     inkscape:deskcolor="#505050"
     showgrid="false"
     inkscape:zoom="1.3763068"
     inkscape:cx="263.02275"
     inkscape:cy="222.69744"
     inkscape:window-width="1920"
     inkscape:window-height="1009"
     inkscape:window-x="1912"
     inkscape:window-y="-8"
     inkscape:window-maximized="1"
     inkscape:current-layer="svg1777" />
  <defs
     id="defs1687" />
  <path
     transform="matrix(0.17125,0,0,0.17129,84.644,21.371)"
     d="m 0,296.03 -5.1698,0.142 -5.1796,0.193 -5.1965,0.265 -5.2251,0.407 -5.2442,0.315 -5.2956,0.547 -5.3398,0.593 -5.3928,0.659 -5.4451,0.677 -5.51,0.738 -5.5814,0.798 -5.6836,0.969 -5.751,0.93 -5.8199,0.889 -5.8963,0.868 -5.9817,0.866 -6.1119,0.996 -6.1587,0.831 -6.307,0.974 -6.428,1 -6.553,1.023 -6.632,0.908 -6.782,0.965 -6.815,0.736 -7,0.847 -7.194,0.95 -7.325,0.898 -7.512,0.943 -7.627,0.838 -7.778,0.788 -7.858,0.612 -7.947,0.454 -8.084,0.371 -8.119,0.127 -8.279,0.073 -8.429,-0.005 -8.679,0.039 -8.708,-0.222 -8.846,-0.339 -9.105,-0.318 -9.048,-0.682 -8.933,-1.093 -8.851,-1.445 -8.805,-1.743 -8.469,-2.319 -8.345,-2.649 -8.159,-3.023 -7.558,-3.746 -7.368,-4.055 -7.096,-4.417 -6.79,-4.779 -6.288,-5.274 -5.894,-5.644 -5.543,-5.956 -4.968,-6.401 -4.509,-6.727 -3.959,-7.083 -3.452,-7.378 -2.59,-7.855 -2.072,-8.082 -1.42,-8.353 -0.732,-8.607 0.008,-8.852 0.889,-9.126 1.826,-9.377 2.673,-9.54 3.809,-9.782 5.136,-10.043 5.736,-9.954 6.997,-10.082 8.116,-10.097 9.065,-10.003 9.836,-9.811 10.922,-9.6768 12.258,-9.5593 12.418,-9.0841 13.408,-8.8023 13.204,-8.2223 13.673,-7.7932 13.463,-7.2277 13.143,-6.6642 12.761,-6.1162 11.921,-5.5388 12.017,-5.1099 11.03,-4.586 10.19,-4.1289 9.852,-3.7458 9.268,-3.3749 8.581,-3.0355 8.119,-2.7342 7.065,-2.4691 6.683,-2.2372 6.038,-2.0403 5.833,-1.8474 5.507,-1.6765 5.224,-1.519 4.821,-1.3912 4.835,-1.2266 4.2191,-1.161 4.0659,-1.0467 3.9796,-0.9276 3.7074,-0.8524 3.3439,-0.8127 3.6401,-0.6282 3.1836,-0.6285 3.1355,-0.5364 2.9511,-0.4882 2.767,-0.4497 2.6278,-0.4057 2.5108,-0.3608 2.4811,-0.2886 2.2112,-0.3143 2.0956,-0.2902 1.9167,-0.3004 1.8038,-0.2903 1.713,-0.276 1.6022,-0.2767 1.5962,-0.2285 1.5072,-0.2259 1.5207,-0.1694 1.5124,-0.1241 1.5031,-0.0793 1.5122,-0.0221 1.4808,0.0097 1.4682,0.0533 1.4355,0.0829 1.3464,0.0686 1.2778,0.0644 0.974,-0.1345 0.7716,-0.2738 0.7891,-0.2394 0.8054,-0.204 0.7862,-0.2 0.8179,-0.148 0.8309,-0.1111 0.8751,-0.0398 0.8203,-0.0688 0.8461,-0.0136 0.8543,0.0253 0.8609,0.0648 0.8367,0.0683 0.8707,0.1446 0.8167,0.1107 0.7514,0.0553 0.9313,0.3417 0.861,0.2884 0.8708,0.3496 1.0888,0.7491 1.648,1.7618 2.5408,3.4731 2.4148,3.5536 1.5068,2.164 1.6513,2.6489 2.7358,5.1202 2.8019,5.741 0.039557,0.08483 0.039557,-0.08483 2.8019,-5.741 2.7358,-5.1202 1.6513,-2.6489 1.5068,-2.164 2.4148,-3.5536 2.5408,-3.4731 1.648,-1.7618 1.0888,-0.7491 0.8708,-0.3496 0.861,-0.2884 0.9313,-0.3417 0.7514,-0.0553 0.8167,-0.1107 0.8707,-0.1446 0.8367,-0.0683 0.8609,-0.0648 0.8543,-0.0253 0.8461,0.0136 0.8203,0.0688 0.8751,0.0398 0.8309,0.1111 0.8179,0.148 0.7862,0.2 0.8054,0.204 0.7891,0.2394 0.7716,0.2738 0.974,0.1345 1.2778,-0.0644 1.3464,-0.0686 1.4355,-0.0829 1.4682,-0.0533 1.4808,-0.0097 1.5122,0.0221 1.5031,0.0793 1.5124,0.1241 1.5207,0.1694 1.5072,0.2259 1.5962,0.2285 1.6022,0.2767 1.713,0.276 1.8038,0.2903 1.9167,0.3004 2.0956,0.2902 2.2112,0.3143 2.4811,0.2886 2.5108,0.3608 2.6278,0.4057 2.767,0.4497 2.9511,0.4882 3.1355,0.5364 3.1836,0.6285 3.6401,0.6282 3.3439,0.8127 3.7074,0.8524 3.9796,0.9276 4.0659,1.0467 4.219096,1.161 4.835,1.2266 4.821,1.3912 5.224,1.519 5.507,1.6765 5.833,1.8474 6.038,2.0403 6.683,2.2372 7.065,2.4691 8.119,2.7342 8.581,3.0355 9.268,3.3749 9.852,3.7458 10.19,4.1289 11.03,4.586 12.017,5.1099 11.921,5.5388 12.761,6.1162 13.143,6.6642 13.463,7.2277 13.673,7.7932 13.204,8.2223 13.408,8.8023 12.418,9.0841 12.258,9.5593 10.922,9.6768 9.836,9.811 9.065,10.003 8.116,10.097 6.997,10.082 5.736,9.954 5.136,10.043 3.809,9.782 2.673,9.54 1.826,9.377 0.889,9.126 0.008,8.852 -0.732,8.607 -1.42,8.353 -2.072,8.082 -2.59,7.855 -3.452,7.378 -3.959,7.083 -4.509,6.727 -4.968,6.401 -5.543,5.956 -5.894,5.644 -6.288,5.274 -6.79,4.779 -7.096,4.417 -7.368,4.055 -7.558,3.746 -8.159,3.023 -8.345,2.649 -8.469,2.319 -8.805,1.743 -8.851,1.445 -8.933,1.093 -9.048,0.682 -9.105,0.318 -8.846,0.339 -8.708,0.222 -8.679,-0.039 -8.429,0.005 -8.279,-0.073 -8.119,-0.127 -8.084,-0.371 -7.947,-0.454 -7.858,-0.612 -7.778,-0.788 -7.627,-0.838 -7.512,-0.943 -7.325,-0.898 -7.194,-0.95 -7,-0.847 -6.815,-0.736 -6.782,-0.965 -6.632,-0.908 -6.553,-1.023 -6.428,-1 -6.306996,-0.974 -6.1587,-0.831 -6.1119,-0.996 -5.9817,-0.866 -5.8963,-0.868 -5.8199,-0.889 -5.751,-0.93 -5.6836,-0.969 -5.5814,-0.798 -5.51,-0.738 -5.4451,-0.677 -5.3928,-0.659 -5.3398,-0.593 -5.2956,-0.547 -5.2442,-0.315 -5.2251,-0.407 -5.1965,-0.265 -5.1796,-0.193 -5.1698,-0.142"
     fill="#fcff5c"
     fill-opacity="0.68235"
     fill-rule="evenodd"
     id="path1689" />
  <path
     transform="matrix(0.17125,0,0,0.17129,84.644,21.37088)"
     d="m 0,296.03 -5.1698,0.142 -5.1796,0.193 -5.1965,0.265 -5.2251,0.407 -5.2442,0.315 -5.2956,0.547 -5.3398,0.593 -5.3928,0.659 -5.4451,0.677 -5.51,0.738 -5.5814,0.798 -5.6836,0.969 -5.751,0.93 -5.8199,0.889 -5.8963,0.868 -5.9817,0.866 -6.1119,0.996 -6.1587,0.831 -6.307,0.974 -6.428,1 -6.553,1.023 -6.632,0.908 -6.782,0.965 -6.815,0.736 -7,0.847 -7.194,0.95 -7.325,0.898 -7.512,0.943 -7.627,0.838 -7.778,0.788 -7.858,0.612 -7.947,0.454 -8.084,0.371 -8.119,0.127 -8.279,0.073 -8.429,-0.005 -8.679,0.039 -8.708,-0.222 -8.846,-0.339 -9.105,-0.318 -9.048,-0.682 -8.933,-1.093 -8.851,-1.445 -8.805,-1.743 -8.469,-2.319 -8.345,-2.649 -8.159,-3.023 -7.558,-3.746 -7.368,-4.055 -7.096,-4.417 -6.79,-4.779 -6.288,-5.274 -5.894,-5.644 -5.543,-5.956 -4.968,-6.401 -4.509,-6.727 -3.959,-7.083 -3.452,-7.378 -2.59,-7.855 -2.072,-8.082 -1.42,-8.353 -0.732,-8.607 0.008,-8.852 0.889,-9.126 1.826,-9.377 2.673,-9.54 3.809,-9.782 5.136,-10.043 5.736,-9.954 6.997,-10.082 8.116,-10.097 9.065,-10.003 9.836,-9.811 10.922,-9.6768 12.258,-9.5593 12.418,-9.0841 13.408,-8.8023 13.204,-8.2223 13.673,-7.7932 13.463,-7.2277 13.143,-6.6642 12.761,-6.1162 11.921,-5.5388 12.017,-5.1099 11.03,-4.586 10.19,-4.1289 9.852,-3.7458 9.268,-3.3749 8.581,-3.0355 8.119,-2.7342 7.065,-2.4691 6.683,-2.2372 6.038,-2.0403 5.833,-1.8474 5.507,-1.6765 5.224,-1.519 4.821,-1.3912 4.835,-1.2266 4.2191,-1.161 4.0659,-1.0467 3.9796,-0.9276 3.7074,-0.8524 3.3439,-0.8127 3.6401,-0.6282 3.1836,-0.6285 3.1355,-0.5364 2.9511,-0.4882 2.767,-0.4497 2.6278,-0.4057 2.5108,-0.3608 2.4811,-0.2886 2.2112,-0.3143 2.0956,-0.2902 1.9167,-0.3004 1.8038,-0.2903 1.713,-0.276 1.6022,-0.2767 1.5962,-0.2285 1.5072,-0.2259 1.5207,-0.1694 1.5124,-0.1241 1.5031,-0.0793 1.5122,-0.0221 1.4808,0.0097 1.4682,0.0533 1.4355,0.0829 1.3464,0.0686 1.2778,0.0644 0.974,-0.1345 0.7716,-0.2738 0.7891,-0.2394 0.8054,-0.204 0.7862,-0.2 0.8179,-0.148 0.8309,-0.1111 0.8751,-0.0398 0.8203,-0.0688 0.8461,-0.0136 0.8543,0.0253 0.8609,0.0648 0.8367,0.0683 0.8707,0.1446 0.8167,0.1107 0.7514,0.0553 0.9313,0.3417 0.861,0.2884 0.8708,0.3496 1.0888,0.7491 1.648,1.7618 2.5408,3.4731 2.4148,3.5536 1.5068,2.164 1.6513,2.6489 2.7358,5.1202 2.8019,5.741 0.039557,0.08483 0.039557,-0.08483 2.8019,-5.741 2.7358,-5.1202 1.6513,-2.6489 1.5068,-2.164 2.4148,-3.5536 2.5408,-3.4731 1.648,-1.7618 1.0888,-0.7491 0.8708,-0.3496 0.861,-0.2884 0.9313,-0.3417 0.7514,-0.0553 0.8167,-0.1107 0.8707,-0.1446 0.8367,-0.0683 0.8609,-0.0648 0.8543,-0.0253 0.8461,0.0136 0.8203,0.0688 0.8751,0.0398 0.8309,0.1111 0.8179,0.148 0.7862,0.2 0.8054,0.204 0.7891,0.2394 0.7716,0.2738 0.974,0.1345 1.2778,-0.0644 1.3464,-0.0686 1.4355,-0.0829 1.4682,-0.0533 1.4808,-0.0097 1.5122,0.0221 1.5031,0.0793 1.5124,0.1241 1.5207,0.1694 1.5072,0.2259 1.5962,0.2285 1.6022,0.2767 1.713,0.276 1.8038,0.2903 1.9167,0.3004 2.0956,0.2902 2.2112,0.3143 2.4811,0.2886 2.5108,0.3608 2.6278,0.4057 2.767,0.4497 2.9511,0.4882 3.1355,0.5364 3.1836,0.6285 3.6401,0.6282 3.3439,0.8127 3.7074,0.8524 3.9796,0.9276 4.0659,1.0467 4.219096,1.161 4.835,1.2266 4.821,1.3912 5.224,1.519 5.507,1.6765 5.833,1.8474 6.038,2.0403 6.683,2.2372 7.065,2.4691 8.119,2.7342 8.581,3.0355 9.268,3.3749 9.852,3.7458 10.19,4.1289 11.03,4.586 12.017,5.1099 11.921,5.5388 12.761,6.1162 13.143,6.6642 13.463,7.2277 13.673,7.7932 13.204,8.2223 13.408,8.8023 12.418,9.0841 12.258,9.5593 10.922,9.6768 9.836,9.811 9.065,10.003 8.116,10.097 6.997,10.082 5.736,9.954 5.136,10.043 3.809,9.782 2.673,9.54 1.826,9.377 0.889,9.126 0.008,8.852 -0.732,8.607 -1.42,8.353 -2.072,8.082 -2.59,7.855 -3.452,7.378 -3.959,7.083 -4.509,6.727 -4.968,6.401 -5.543,5.956 -5.894,5.644 -6.288,5.274 -6.79,4.779 -7.096,4.417 -7.368,4.055 -7.558,3.746 -8.159,3.023 -8.345,2.649 -8.469,2.319 -8.805,1.743 -8.851,1.445 -8.933,1.093 -9.048,0.682 -9.105,0.318 -8.846,0.339 -8.708,0.222 -8.679,-0.039 -8.429,0.005 -8.279,-0.073 -8.119,-0.127 -8.084,-0.371 -7.947,-0.454 -7.858,-0.612 -7.778,-0.788 -7.627,-0.838 -7.512,-0.943 -7.325,-0.898 -7.194,-0.95 -7,-0.847 -6.815,-0.736 -6.782,-0.965 -6.632,-0.908 -6.553,-1.023 -6.428,-1 -6.306996,-0.974 -6.1587,-0.831 -6.1119,-0.996 -5.9817,-0.866 -5.8963,-0.868 -5.8199,-0.889 -5.751,-0.93 -5.6836,-0.969 -5.5814,-0.798 -5.51,-0.738 -5.4451,-0.677 -5.3928,-0.659 -5.3398,-0.593 -5.2956,-0.547 -5.2442,-0.315 -5.2251,-0.407 -5.1965,-0.265 -5.1796,-0.193 -5.1698,-0.142"
     fill-rule="evenodd"
     stroke="#fcff5c"
     stroke-linecap="round"
     stroke-linejoin="round"
     stroke-width="6.1811"
     id="path1693"
     style="fill:none" />
  <path
     transform="matrix(0.32026,0,0,0.32033,-7.9267,0.27623)"
     d="m 320.33,65.864 a 31.291,31.291 0 0 1 -15.646,27.099 31.291,31.291 0 0 1 -31.292,-10e-7 31.291,31.291 0 0 1 -15.646,-27.099"
     clip-path="none"
     stroke-width="0.41303"
     id="path1697"
     style="fill:none;stroke:#858585" />
  <path
     transform="matrix(0.64053,0,0,0.64024,-100.5,-20.79412)"
     d="m 320.33,65.864 a 31.291,31.291 0 0 1 -15.646,27.099 31.291,31.291 0 0 1 -31.292,-10e-7 31.291,31.291 0 0 1 -15.646,-27.099"
     clip-path="none"
     stroke-width="0.20658"
     id="path1699"
     style="fill:none;stroke:#858585" />
  <path
     transform="matrix(0.96079,0,0,0.96036,-193.07,-41.87812)"
     d="m 320.33,65.864 a 31.291,31.291 0 0 1 -15.646,27.099 31.291,31.291 0 0 1 -31.292,-10e-7 31.291,31.291 0 0 1 -15.646,-27.099"
     clip-path="none"
     stroke-width="0.13772"
     id="path1701"
     style="fill:none;stroke:#858585" />
  <path
     transform="matrix(1.2811,0,0,1.2805,-285.64,-62.96212)"
     d="m 320.33,65.864 a 31.291,31.291 0 0 1 -15.646,27.099 31.291,31.291 0 0 1 -31.292,-10e-7 31.291,31.291 0 0 1 -15.646,-27.099"
     clip-path="none"
     stroke-width="0.10329"
     id="path1703"
     style="fill:none;stroke:#858585" />
  <path
     transform="matrix(1.6013,0,0,1.6006,-378.21,-84.04712)"
     d="m 320.33,65.864 a 31.291,31.291 0 0 1 -15.646,27.099 31.291,31.291 0 0 1 -31.292,-10e-7 31.291,31.291 0 0 1 -15.646,-27.099"
     clip-path="none"
     stroke-width="0.082633"
     id="path1705"
     style="fill:none;stroke:#858585" />
  <path
     transform="matrix(1.9215,0,0,1.9207,-470.76,-105.13512)"
     d="m 320.33,65.864 a 31.291,31.291 0 0 1 -15.646,27.099 31.291,31.291 0 0 1 -31.292,-10e-7 31.291,31.291 0 0 1 -15.646,-27.099"
     clip-path="none"
     stroke-width="0.068862"
     id="path1707"
     style="fill:none;stroke:#858585" />
  <path
     transform="matrix(2.2418,0,0,2.2408,-563.34,-126.21512)"
     d="m 320.33,65.864 a 31.291,31.291 0 0 1 -15.646,27.099 31.291,31.291 0 0 1 -31.292,-10e-7 31.291,31.291 0 0 1 -15.646,-27.099"
     clip-path="none"
     stroke-width="0.059024"
     id="path1709"
     style="fill:none;stroke:#858585" />
  <path
     transform="matrix(2.5566,0,0,2.5555,-654.5,-146.94512)"
     d="m 320.33,65.864 a 31.291,31.291 0 0 1 -15.646,27.099 31.291,31.291 0 0 1 -31.292,-10e-7 31.291,31.291 0 0 1 -15.646,-27.099"
     clip-path="none"
     stroke-width="0.051756"
     id="path1711"
     style="fill:none;stroke:#858585" />
  <path
     transform="matrix(0.16019,0,0,0.16023,33.328,15.80388)"
     d="m 320.33,34.764 v 499.07"
     clip-path="none"
     stroke-width="0.82574"
     id="path1713"
     style="fill:none;stroke:#858585" />
  <path
     transform="matrix(0,0.29991,-0.29985,0,169.87,-74.69412)"
     d="m 320.33,40.455 v 487.98"
     clip-path="none"
     stroke-width="0.44115"
     id="path1715"
     style="fill:none;stroke:#858585" />
  <path
     transform="matrix(0.16019,0,0,0.16023,33.328,15.80388)"
     d="m 320.33,34.764 129.11,481.86"
     clip-path="none"
     id="path1717"
     style="fill:none;stroke:#858585;stroke-width:0.82574" />
  <path
     transform="matrix(0.16019,0,0,0.16023,33.328,15.80388)"
     d="m 320.33,34.764 249.34,431.88"
     clip-path="none"
     id="path1719"
     style="fill:none;stroke:#858585;stroke-width:0.82574" />
  <path
     transform="matrix(0.16019,0,0,0.16023,33.328,15.80388)"
     d="m 320.33,34.764 352.39,352.39"
     clip-path="none"
     id="path1721"
     style="fill:none;stroke:#858585;stroke-width:0.82574" />
  <path
     transform="matrix(0.16019,0,0,0.16023,33.328,15.80388)"
     d="m 320.33,34.764 431.6,249.1"
     clip-path="none"
     id="path1723"
     style="fill:none;stroke:#858585;stroke-width:0.82574" />
  <path
     transform="matrix(0.16019,0,0,0.16023,33.328,15.80388)"
     d="m 320.33,34.764 481.51,128.94"
     clip-path="none"
     id="path1725"
     style="fill:none;stroke:#858585;stroke-width:0.82574" />
  <path
     transform="matrix(0.16019,0,0,0.16023,33.328,15.80388)"
     d="M 320.33,34.764 191.1,517.074"
     clip-path="none"
     id="path1727"
     style="fill:none;stroke:#858585;stroke-width:0.82574" />
  <path
     transform="matrix(0.16019,0,0,0.16023,33.328,15.80388)"
     d="M 320.33,34.764 70.48,467.524"
     clip-path="none"
     id="path1729"
     style="fill:none;stroke:#858585;stroke-width:0.82574" />
  <path
     transform="matrix(0.16019,0,0,0.16023,33.328,15.80388)"
     d="M 320.33,34.764 -33.24,388.334"
     clip-path="none"
     id="path1731"
     style="fill:none;stroke:#858585;stroke-width:0.82574" />
  <path
     transform="matrix(0.16019,0,0,0.16023,33.328,15.80388)"
     d="m 320.33,34.764 -433.42,250.24"
     clip-path="none"
     id="path1733"
     style="fill:none;stroke:#858585;stroke-width:0.82574" />
  <path
     transform="matrix(0.16019,0,0,0.16023,33.328,15.80388)"
     d="m 320.33,34.764 -483.42,129.53"
     clip-path="none"
     id="path1735"
     style="fill:none;stroke:#858585;stroke-width:0.82574" />
  <text
     transform="matrix(0.28341,0,0,0.28341,23.833,20.18888)"
     x="472"
     y="6.5"
     style="font-size:14.93684062px;font-family:Lato;font-variant-ligatures:normal;font-variant-caps:normal;font-variant-numeric:normal;font-variant-east-asian:normal;fill:#848484;fill-rule:evenodd;stroke-width:1.2448;stroke-linejoin:round;-inkscape-font-specification:'Lato, Normal';font-weight:normal;font-style:normal;font-stretch:normal;font-variant:normal"
     xml:space="preserve"
     id="text1743">90°</text>
  <text
     transform="matrix(0.28341,0,0,0.28341,145.55,20.18888)"
     x="-496"
     y="6.5"
     style="font-size:14.93684062px;font-family:Lato;font-variant-ligatures:normal;font-variant-caps:normal;font-variant-numeric:normal;font-variant-east-asian:normal;fill:#848484;fill-rule:evenodd;stroke-width:1.2448;stroke-linejoin:round;-inkscape-font-specification:'Lato, Normal';font-weight:normal;font-style:normal;font-stretch:normal;font-variant:normal"
     xml:space="preserve"
     id="text1745">90°</text>
  <text
     transform="matrix(0.28341,0,0,0.28341,58.33,-24.09912)"
     x="233.98399"
     y="421.297"
     style="font-size:14.93684062px;font-family:Lato;font-variant-ligatures:normal;font-variant-caps:normal;font-variant-numeric:normal;font-variant-east-asian:normal;fill:#848484;fill-rule:evenodd;stroke-width:1.2448;stroke-linejoin:round;-inkscape-font-specification:'Lato, Normal';font-weight:normal;font-style:normal;font-stretch:normal;font-variant:normal"
     xml:space="preserve"
     id="text1747"> 30°</text>
  <text
     transform="matrix(0.28341,0,0,0.28341,41.92,-6.48822)"
     x="405.297"
     y="250"
     style="font-size:14.93684062px;font-family:Lato;font-variant-ligatures:normal;font-variant-caps:normal;font-variant-numeric:normal;font-variant-east-asian:normal;fill:#848484;fill-rule:evenodd;stroke-width:1.2448;stroke-linejoin:round;-inkscape-font-specification:'Lato, Normal';font-weight:normal;font-style:normal;font-stretch:normal;font-variant:normal"
     xml:space="preserve"
     id="text1749"> 60°</text>
  <text
     transform="matrix(0.28341,0,0,0.28341,111.94,-24.09912)"
     x="-260.98401"
     y="421.297"
     style="font-size:14.93684062px;font-family:Lato;font-variant-ligatures:normal;font-variant-caps:normal;font-variant-numeric:normal;font-variant-east-asian:normal;fill:#848484;fill-rule:evenodd;stroke-width:1.2448;stroke-linejoin:round;-inkscape-font-specification:'Lato, Normal';font-weight:normal;font-style:normal;font-stretch:normal;font-variant:normal"
     xml:space="preserve"
     id="text1751">30° </text>
  <text
     transform="matrix(0.28341,0,0,0.28341,127.58,-6.48822)"
     x="-432.297"
     y="250"
     style="font-size:14.93684062px;font-family:Lato;font-variant-ligatures:normal;font-variant-caps:normal;font-variant-numeric:normal;font-variant-east-asian:normal;fill:#848484;fill-rule:evenodd;stroke-width:1.2448;stroke-linejoin:round;-inkscape-font-specification:'Lato, Normal';font-weight:normal;font-style:normal;font-stretch:normal;font-variant:normal"
     xml:space="preserve"
     id="text1753">60° </text>
  <text
     transform="matrix(0.28319,0,0,0.28319,-50.867,104.21488)"
     x="472"
     y="6.5"
     font-size="14.948px"
     stroke-width="1.6"
     style="font-family:Lato;font-variant-ligatures:normal;font-variant-caps:normal;font-variant-numeric:normal;font-variant-east-asian:normal;fill:#848484;fill-rule:evenodd;stroke-linejoin:round;-inkscape-font-specification:'Lato, Normal';font-weight:normal;font-style:normal;font-stretch:normal;font-variant:normal;font-size:14.94844451px"
     xml:space="preserve"
     id="text1757">0º</text>
  <text
     transform="matrix(0.28319,0,0,0.28319,-54.958,108.95488)"
     x="472"
     y="6.5"
     font-size="14.948px"
     stroke-width="1.6"
     style="font-family:Lato;font-variant-ligatures:normal;font-variant-caps:normal;font-variant-numeric:normal;font-variant-east-asian:normal;fill:#848484;fill-rule:evenodd;stroke-linejoin:round;-inkscape-font-specification:'Lato, Normal';font-weight:normal;font-style:normal;font-stretch:normal;font-variant:normal;font-size:14.94844451px"
     xml:space="preserve"
     id="text1759">cd.klm</text>
  <rect
     transform="matrix(0.26283,0,0,0.26283,10.824,109.35488)"
     y="6.5"
     width="11.2"
     height="15.2"
     fill="#fcff5c"
     fill-opacity="0.68235"
     stroke="#fcff5c"
     stroke-linecap="round"
     stroke-width="1.8336"
     id="rect1763"
     x="0"
     style="fill-rule:evenodd;stroke-linejoin:round" />
  <text
     transform="matrix(0.26283,0,0,0.26283,10.824,108.80488)"
     x="16"
     y="22.5"
     fill="#848484"
     font-family="Lato"
     font-size="17.569px"
     stroke-width="0.91678"
     style="font-variant-ligatures:normal;font-variant-caps:normal;font-variant-numeric:normal;font-variant-east-asian:normal;fill-rule:evenodd;stroke-linejoin:round;-inkscape-font-specification:'Lato, Normal';font-family:Lato;font-weight:normal;font-style:normal;font-stretch:normal;font-variant:normal;font-size:16.1064186px;fill:#848484;stroke-width:0.91678"
     xml:space="preserve"
     id="text1765">C0-C180</text>
  <path
     transform="matrix(-1.5359,0,0,-1.533,1053.2,412.61)"
     d="m 629.79,256.24 c 0,0 0.54767,-1.0341 0.85253,-1.0269 0.2738,0.006 0.84609,1.0269 0.84609,1.0269 m 5.4499,4.2878 h -0.94933 m -11.085,1.5499 a 0.65,0.65 0 1 0 0,0.99999 m 7.9958,-4.6879 a 0.5,0.5 0 0 0 0.77117,-0.11644 m 4.1666,1.5544 v -1.0001 m -5.7888,0.3261 v -0.70008 m -1.5264,-4.2742 a 6.4153,6.4153 0 0 0 -7.4905,1.8982 m 12.957,6.0001 h 0.38577 m -0.38577,-3.0501 h 0.94933 m -13.849,-1.9999 a 0.15,0.15 0 0 0 -0.15,0.15 m 9.8796,1.1289 a 0.5,0.5 0 0 0 0.0672,0.0832 m -9.8537,-2.312 h -0.59055 m -0.30248,8.0032 a 1.63,1.63 0 0 0 0,-3.0066 m 16.107,-4.9967 a 6.4153,6.4153 0 0 0 -7.4905,-1.8982 m 6.183,4.8482 v 1.5002 m -12.034,1.5499 h 0.38471 m 12.901,-5.0501 h -0.85196 m -8.1087,2.1261 v -0.70008 m -3.9402,6.1242 v -1.5002 m -2.0463,-6.2838 a 0.4,0.4 0 0 0 -0.30124,0.38762 m 1.3976,3.2724 h 12.599 m -2.1835,-3.7202 a 0.5,0.5 0 0 0 -0.3267,0.2375 m -10.989,1.8564 v 1.0001 m -0.50006,-1.0001 h 0.50006 m 4.939,-0.43788 h 0.0143 m 7.9814,4.688 a 0.65,0.65 0 1 0 0,-0.99999 m -3.488,-3.688 h 0.0145 m 6.2364,-2.012 a 0.3,0.3 0 0 0 -0.30002,-0.30001 m -6.7875,2.3759 h -2.8199 m -6.7877,-2.3759 a 0.3,0.3 0 0 0 -0.3,0.30001 m 11.53,1.8956 0.75671,-1.302 m -9.139,2.0563 -1.3499,-2 m 12.436,6.05 h -0.38577 m -4.5006,-6.8376 1.3301,2.0667 m 5.0194,0.52096 h 0.50006 m -0.50006,0.05 v 0.70009 m -12.549,0.95012 h -0.94986 m 4.0532,-2.138 a 0.5,0.5 0 0 0 0.0672,-0.0832 m -4.5204,-1.279 h -0.8501 m -0.94992,8.3501 a 0.25,0.25 0 0 0 0.25,0.25 m -0.24994,-1.5468 v 1.2967 m 5.4676,-7.1043 a 0.5,0.5 0 0 0 0.77116,0.11644 m -4.0388,2.138 v -1.5002 m 14.801,2.0468 v -1.2467 m -13.851,4.75 a 0.25,0.25 0 0 0 0.24999,0.25001 m -1.1999,-5.8001 h 0.94986 m 1.561,-2.0563 0.75671,1.302 m -5.4652,-1.8957 -0.002,3.4502 m 1.3019,-0.25003 v -0.70009 m 15.698,0.95012 -0.003,-3.4502 m 0.003,9.0001 v -1.2967 m -3.4006,0.74679 a 0.25,0.25 0 0 0 0.25,-0.25001 m -0.25008,0.25014 h -10.2 m -2.1,-5.0001 h -1.2999 m 0.25004,5.7999 h 16.499 m -13.599,-2.55 h -0.38471 m -0.56515,-3.85 v 1.3002 m 13.999,-1.7002 v -1.6499 m -1.3996,3.3502 v -1.3002 m 1.0971,-2.4338 a 7.1614,7.1614 0 0 0 -3.2806,-0.0602 m 4.3843,4.3407 a 1.63,1.63 0 0 0 0,3.0067 m -0.30366,-8.0032 h -0.59002 m -1.307,3.0759 h -12.599 m 11.65,1.3741 v 1.5499 m -9.139,-5.1066 a 0.5,0.5 0 0 0 -0.32671,-0.2375 m 12.616,3.0941 h -1.3018 m 0.49871,-2.6463 a 0.4,0.4 0 0 0 -0.30122,-0.38762 m -15.896,3.0339 v 1.2467 m 4.3842,-4.3408 a 7.1614,7.1614 0 0 0 -3.2806,0.0602 m -0.30376,0.38379 v 1.6499 m 13.05,4.25 v 1.5002 m 2.3501,-7.4001 a 0.15,0.15 0 0 0 -0.14999,-0.15 m -0.85122,-5e-5 -1.3488,2 m 2.9,6.6001 a 0.25,0.25 0 0 0 0.25,-0.25 m -13.85,-3.3 v -1.5499 m 3.1705,-2.2212 1.3303,-2.0667 m 0.73292,-2.0605 a 0.3,0.3 0 0 0 0.23262,0"
     fill="none"
     stroke="#000000"
     stroke-width="0.15088"
     id="path1775" />
</svg>
