<svg width="640" height="655" version="1.1" viewBox="0 0 169.33 173.3" xmlns="http://www.w3.org/2000/svg"><g fill-rule="evenodd"><path transform="matrix(.27967 0 0 .27963 84.745 21.986)" d="m0 391.69-6.753-4.812-6.5468-6.024-6.3322-6.255-6.1609-5.744-5.87-6.947-5.6445-6.953-5.3517-7.526-5.1142-7.505-4.8406-7.734-4.6047-7.688-4.3199-7.915-4.0281-8.121-3.7417-8.26-3.3428-8.819-3.2383-8.165-2.9014-8.447-2.6446-8.413-2.3072-8.63-2.0314-8.627-1.984-7.993-1.7627-7.904-1.3667-8.255-1.3329-7.697-1.2379-7.346-0.9479-7.457-1.0246-6.792-0.7668-6.864-0.7941-6.383-0.7864-6.019-0.7114-5.807-0.8499-5.261-0.7297-5.184-0.888-4.684-1.176-4.042-0.868-4.318-1.176-3.713-0.945-3.885-1.084-3.564-0.806-3.789-0.929-3.51-0.927-3.4-0.892-3.338-1.053-3.069-0.816-3.237-0.973-2.993-0.956-2.941-0.914-2.914-0.784-2.97-0.827-2.867-0.838-2.8016-0.709-2.8538-0.693-2.8105-0.238-3.1019 0.053-3.2411-0.183-2.9926-0.024-3.0345 0.449-3.2713 0.391-3.146 0.833-3.3307 0.838-3.2357 1.098-3.2862 1.297-3.2906 1.057-3.0634 1.815-3.3425 1.528-3.0894 1.838-3.1244 2.015-3.0878 2.1-3.007 2.345-2.9859 2.5086-2.9247 2.7423-2.8811 2.8354-2.7817 2.9846-2.6976 3.1204-2.6042 3.2066-2.4929 3.1823-2.3523 4.2099-2.4585 2.9086-2.0158 3.2448-1.9651 3.5204-1.8875 3.357-1.7275 3.4325-1.6118 3.2605-1.4632 3.1454-1.3312 3.051-1.2085 2.8547-1.0848 2.901-0.98499 2.7353-0.87623 2.6037-0.77743 2.6419-0.68609 2.727-0.59238 3.0925-0.48474 2.2496-0.42148 1.6154-0.388 1.3375-0.35679 1.2312-0.3223 1.0386-0.30406 0.9928-0.27549 0.9462-0.24945 0.8752-0.23026 0.8643-0.20314 0.8528-0.17668 0.8168-0.15645 0.8163-0.1292 0.7912-0.10841 0.8015-0.07877 0.7989-0.05219 0.749-0.04096 0.7573-0.01226 0.7069-0.00413 0.7604 0.04115 0.6863 0.03853 0.7039 0.07065 0.6866 0.08875 0.68012 0.11129 0.67307 0.13362 0.65448 0.15014 0.62476 0.16008 0.64895 0.1985 0.61834 0.20759-0.07724-0.18433 0.97189 0.46462 0.2409 0.03444 0.01349-0.10964 0.07643-0.06771 0.07734-0.06602 0.07823-0.06431 0.1179-0.03227 0.07936-0.0602 0.09899-0.04264 0.09916-0.04025 0.09928-0.03787 0.10835-0.0271 0.35612 0.21512-0.1055-0.22648 0.08104-0.0451 0.1403 0.01966 0.13027 0.01426 0.12064 0.00838-0.11026-0.26214 0.37852 0.32638 0.14616 0.05684 0.15808 0.0805 0.16165 0.09487 0.15046 0.08933 0.17411 0.13437 0.19553 0.18073 0.2277 0.24919 0.28814 0.37229 0.35461 0.52007 0.34789 0.55311 0.36864 0.64066 0.318 0.59808 0.10407-0.19574 0.42733-0.76294 0.31223-0.50254 0.17761-0.23842 0.2253-0.29525 0.30293-0.39109 0.45462-0.58521 0.6308-0.79183 0.68783-0.81032 0.77602-0.86588 0.85254-0.89814 0.92366-0.91759 0.90945-0.83038 0.93998-0.80055 0.92855-0.72417 0.96433-0.70316 0.98275-0.6634 1.0172-0.6406 1.0604-0.6254 1.0494-0.558 1.0908-0.5414 1.0764-0.4746 1.1067-0.4488 1.1173-0.4064 1.0685-0.3185 1.1636-0.3448 1.1115-0.2578 1.1566-0.2447 1.0694-0.14 1.1532-0.1543 1.1446-0.1057 1.1029-0.0388 1.1012 0.0011 1.0984 0.0407 1.1379 0.0568 1.0459 0.1421 1.0609 0.1684 1.1426 0.1642 1.3603 0.1042 0.7771 0.3973 1.0592 0.3044 1.0592 0.3368 1.0237 0.382 1.0683 0.3973 0.9723 0.4608 1.0507 0.4655 0.9283 0.5321 0.9341 0.5574 0.9157 0.5893 0.9562 0.6067 0.9003 0.64699 0.8552 0.68225 0.9181 0.6963 0.7378 0.75253 0.8846 0.75344 0.7142 0.80148 0.9095 0.8024 0.7372 0.84623 0.7232 0.87033 0.8193 0.88838 0.6935 0.91973 0.85 0.94008 0.6982 0.96916 0.7303 0.9941 0.6509 1.0174 0.7555 1.0469 0.6995 1.0713 0.8145 1.1084 0.6957 1.1278 0.7598 1.1642 0.9446 1.2217 0.7866 1.2358 0.9198 1.2936 0.9419 1.3381 1.0709 1.4076 1.0892 1.4599 1.0818 1.508 1.2276 1.5982 1.3223 1.6835 1.508 1.8035 1.4661 1.8622 1.3991 1.9119 1.7247 2.1026 2.2598 2.3955 1.468 2.1874 1.9593 2.4785 1.9865 2.5966 2.11 2.7647 2.5143 3.0816 2.3664 3.1477 2.4784 3.347 2.8192 3.6861 2.9635 3.9407 2.7482 3.9963 3.359 4.5595 3.561 4.9092 3.46 5.0803 3.658 5.4619 3.72 5.771 3.857 6.1543 3.813 6.4205 4.046 6.9215 3.813 7.068 4.572 8.073 3.954 7.928 4.511 8.84 4.43 9.214 4.457 9.715 4.504 10.267 4.033 10.299 4.049 10.855 3.695 11.021 3.637 11.534 3.557 12.055 3.438 12.561 2.659 12.225 2.389 12.527 2.324 13.136 2.058 13.499 1.054 12.742 0.915 13.26 0.236 12.927-0.539 12.366-1.264 11.809-2.186 10.8-2.649 10.543-3.608 9.229-3.925 9.104-4.834 7.63-5.439 6.649-5.729 6.305-6.466 4.745-6.906 3.752-7.092 3.335-7.292 2.816-7.591 1.89-7.893 0.784-7.938 0.424-7.962 0.088-7.9335-0.071-8.0159-0.771-7.9775-1.016-7.9762-1.515-7.9615-2.065-7.7772-1.577-7.7827-2.379-7.7459-3.133-7.553-2.502-7.6259-5.119-7.289-2.454-7.2613-4.491-7.1123-5.443-6.9181-4.645" fill="none" stroke="#fcff5c" stroke-linecap="round" stroke-linejoin="round" stroke-width="3.7846"/><path transform="matrix(.27967 0 0 .27963 84.745 21.986)" d="m0 391.69-6.753-4.812-6.5468-6.024-6.3322-6.255-6.1609-5.744-5.87-6.947-5.6445-6.953-5.3517-7.526-5.1142-7.505-4.8406-7.734-4.6047-7.688-4.3199-7.915-4.0281-8.121-3.7417-8.26-3.3428-8.819-3.2383-8.165-2.9014-8.447-2.6446-8.413-2.3072-8.63-2.0314-8.627-1.984-7.993-1.7627-7.904-1.3667-8.255-1.3329-7.697-1.2379-7.346-0.9479-7.457-1.0246-6.792-0.7668-6.864-0.7941-6.383-0.7864-6.019-0.7114-5.807-0.8499-5.261-0.7297-5.184-0.888-4.684-1.176-4.042-0.868-4.318-1.176-3.713-0.945-3.885-1.084-3.564-0.806-3.789-0.929-3.51-0.927-3.4-0.892-3.338-1.053-3.069-0.816-3.237-0.973-2.993-0.956-2.941-0.914-2.914-0.784-2.97-0.827-2.867-0.838-2.8016-0.709-2.8538-0.693-2.8105-0.238-3.1019 0.053-3.2411-0.183-2.9926-0.024-3.0345 0.449-3.2713 0.391-3.146 0.833-3.3307 0.838-3.2357 1.098-3.2862 1.297-3.2906 1.057-3.0634 1.815-3.3425 1.528-3.0894 1.838-3.1244 2.015-3.0878 2.1-3.007 2.345-2.9859 2.5086-2.9247 2.7423-2.8811 2.8354-2.7817 2.9846-2.6976 3.1204-2.6042 3.2066-2.4929 3.1823-2.3523 4.2099-2.4585 2.9086-2.0158 3.2448-1.9651 3.5204-1.8875 3.357-1.7275 3.4325-1.6118 3.2605-1.4632 3.1454-1.3312 3.051-1.2085 2.8547-1.0848 2.901-0.98499 2.7353-0.87623 2.6037-0.77743 2.6419-0.68609 2.727-0.59238 3.0925-0.48474 2.2496-0.42148 1.6154-0.388 1.3375-0.35679 1.2312-0.3223 1.0386-0.30406 0.9928-0.27549 0.9462-0.24945 0.8752-0.23026 0.8643-0.20314 0.8528-0.17668 0.8168-0.15645 0.8163-0.1292 0.7912-0.10841 0.8015-0.07877 0.7989-0.05219 0.749-0.04096 0.7573-0.01226 0.7069-0.00413 0.7604 0.04115 0.6863 0.03853 0.7039 0.07065 0.6866 0.08875 0.68012 0.11129 0.67307 0.13362 0.65448 0.15014 0.62476 0.16008 0.64895 0.1985 0.61834 0.20759-0.07724-0.18433 0.97189 0.46462 0.2409 0.03444 0.01349-0.10964 0.07643-0.06771 0.07734-0.06602 0.07823-0.06431 0.1179-0.03227 0.07936-0.0602 0.09899-0.04264 0.09916-0.04025 0.09928-0.03787 0.10835-0.0271 0.35612 0.21512-0.1055-0.22648 0.08104-0.0451 0.1403 0.01966 0.13027 0.01426 0.12064 0.00838-0.11026-0.26214 0.37852 0.32638 0.14616 0.05684 0.15808 0.0805 0.16165 0.09487 0.15046 0.08933 0.17411 0.13437 0.19553 0.18073 0.2277 0.24919 0.28814 0.37229 0.35461 0.52007 0.34789 0.55311 0.36864 0.64066 0.318 0.59808 0.10407-0.19574 0.42733-0.76294 0.31223-0.50254 0.17761-0.23842 0.2253-0.29525 0.30293-0.39109 0.45462-0.58521 0.6308-0.79183 0.68783-0.81032 0.77602-0.86588 0.85254-0.89814 0.92366-0.91759 0.90945-0.83038 0.93998-0.80055 0.92855-0.72417 0.96433-0.70316 0.98275-0.6634 1.0172-0.6406 1.0604-0.6254 1.0494-0.558 1.0908-0.5414 1.0764-0.4746 1.1067-0.4488 1.1173-0.4064 1.0685-0.3185 1.1636-0.3448 1.1115-0.2578 1.1566-0.2447 1.0694-0.14 1.1532-0.1543 1.1446-0.1057 1.1029-0.0388 1.1012 0.0011 1.0984 0.0407 1.1379 0.0568 1.0459 0.1421 1.0609 0.1684 1.1426 0.1642 1.3603 0.1042 0.7771 0.3973 1.0592 0.3044 1.0592 0.3368 1.0237 0.382 1.0683 0.3973 0.9723 0.4608 1.0507 0.4655 0.9283 0.5321 0.9341 0.5574 0.9157 0.5893 0.9562 0.6067 0.9003 0.64699 0.8552 0.68225 0.9181 0.6963 0.7378 0.75253 0.8846 0.75344 0.7142 0.80148 0.9095 0.8024 0.7372 0.84623 0.7232 0.87033 0.8193 0.88838 0.6935 0.91973 0.85 0.94008 0.6982 0.96916 0.7303 0.9941 0.6509 1.0174 0.7555 1.0469 0.6995 1.0713 0.8145 1.1084 0.6957 1.1278 0.7598 1.1642 0.9446 1.2217 0.7866 1.2358 0.9198 1.2936 0.9419 1.3381 1.0709 1.4076 1.0892 1.4599 1.0818 1.508 1.2276 1.5982 1.3223 1.6835 1.508 1.8035 1.4661 1.8622 1.3991 1.9119 1.7247 2.1026 2.2598 2.3955 1.468 2.1874 1.9593 2.4785 1.9865 2.5966 2.11 2.7647 2.5143 3.0816 2.3664 3.1477 2.4784 3.347 2.8192 3.6861 2.9635 3.9407 2.7482 3.9963 3.359 4.5595 3.561 4.9092 3.46 5.0803 3.658 5.4619 3.72 5.771 3.857 6.1543 3.813 6.4205 4.046 6.9215 3.813 7.068 4.572 8.073 3.954 7.928 4.511 8.84 4.43 9.214 4.457 9.715 4.504 10.267 4.033 10.299 4.049 10.855 3.695 11.021 3.637 11.534 3.557 12.055 3.438 12.561 2.659 12.225 2.389 12.527 2.324 13.136 2.058 13.499 1.054 12.742 0.915 13.26 0.236 12.927-0.539 12.366-1.264 11.809-2.186 10.8-2.649 10.543-3.608 9.229-3.925 9.104-4.834 7.63-5.439 6.649-5.729 6.305-6.466 4.745-6.906 3.752-7.092 3.335-7.292 2.816-7.591 1.89-7.893 0.784-7.938 0.424-7.962 0.088-7.9335-0.071-8.0159-0.771-7.9775-1.016-7.9762-1.515-7.9615-2.065-7.7772-1.577-7.7827-2.379-7.7459-3.133-7.553-2.502-7.6259-5.119-7.289-2.454-7.2613-4.491-7.1123-5.443-6.9181-4.645" fill="#fcff5c" fill-opacity=".70588"/><g stroke-linejoin="round"><g fill="#848484" font-family="Lato"><g font-size="14.937px" stroke-width="1.2448"><text transform="matrix(.28341 0 0 .28341 23.833 22)" x="472" y="6.5" style="font-variant-caps:normal;font-variant-east-asian:normal;font-variant-ligatures:normal;font-variant-numeric:normal" xml:space="preserve">90°</text><text transform="matrix(.28341 0 0 .28341 145.55 22)" x="-496" y="6.5" style="font-variant-caps:normal;font-variant-east-asian:normal;font-variant-ligatures:normal;font-variant-numeric:normal" xml:space="preserve">90°</text><text transform="matrix(.28341 0 0 .28341 83.593 20.859)" x="233.98399" y="421.297" style="font-variant-caps:normal;font-variant-east-asian:normal;font-variant-ligatures:normal;font-variant-numeric:normal" xml:space="preserve"> 30°</text><text transform="matrix(.28341 0 0 .28341 41.92 -4.6775)" x="405.297" y="250" style="font-variant-caps:normal;font-variant-east-asian:normal;font-variant-ligatures:normal;font-variant-numeric:normal" xml:space="preserve"> 60°</text><text transform="matrix(.28341 0 0 .28341 85.908 20.859)" x="-260.98401" y="421.297" style="font-variant-caps:normal;font-variant-east-asian:normal;font-variant-ligatures:normal;font-variant-numeric:normal" xml:space="preserve">30° </text><text transform="matrix(.28341 0 0 .28341 127.58 -4.6775)" x="-432.297" y="250" style="font-variant-caps:normal;font-variant-east-asian:normal;font-variant-ligatures:normal;font-variant-numeric:normal" xml:space="preserve">60° </text></g><text transform="matrix(.28319 0 0 .28319 -50.867 156.98)" x="472" y="6.5" font-size="14.948px" stroke-width="1.6" style="font-variant-caps:normal;font-variant-east-asian:normal;font-variant-ligatures:normal;font-variant-numeric:normal" xml:space="preserve">0º</text><text transform="matrix(.28319 0 0 .28319 -54.958 161.72)" x="472" y="6.5" font-size="14.948px" stroke-width="1.6" style="font-variant-caps:normal;font-variant-east-asian:normal;font-variant-ligatures:normal;font-variant-numeric:normal" xml:space="preserve">cd.klm</text></g><rect transform="matrix(.26283 0 0 .26283 10.824 162.12)" y="6.5" width="11.2" height="15.2" fill="#fcff5c" fill-opacity=".68235" stroke="#fcff5c" stroke-linecap="round" stroke-width="1.8336"/><text transform="matrix(.26283 0 0 .26283 10.824 161.56)" x="16" y="22.5" fill="#848484" font-family="Lato" font-size="17.569px" stroke-width=".91678" style="font-variant-caps:normal;font-variant-east-asian:normal;font-variant-ligatures:normal;font-variant-numeric:normal" xml:space="preserve">C0-C180</text></g></g><g transform="translate(.00382 12.834)" fill="none" stroke="#858585"><path transform="matrix(.52917 0 0 .52917 -68.201 -25.683)" d="m320.33 65.864a31.291 31.291 0 0 1-15.646 27.099 31.291 31.291 0 0 1-31.292-1e-6 31.291 31.291 0 0 1-15.646-27.099" stroke-width=".15"/><path transform="matrix(1.0583 0 0 1.0576 -221.15 -60.49)" d="m320.33 65.864a31.291 31.291 0 0 1-15.646 27.099 31.291 31.291 0 0 1-31.292-1e-6 31.291 31.291 0 0 1-15.646-27.099" stroke-width=".075027"/><path transform="matrix(1.5875 0 0 1.5865 -374.1 -95.32)" d="m320.33 65.864a31.291 31.291 0 0 1-15.646 27.099 31.291 31.291 0 0 1-31.292-1e-6 31.291 31.291 0 0 1-15.646-27.099" stroke-width=".050016"/><path transform="matrix(2.1167 0 0 2.1153 -527.05 -130.15)" d="m320.33 65.864a31.291 31.291 0 0 1-15.646 27.099 31.291 31.291 0 0 1-31.292-1e-6 31.291 31.291 0 0 1-15.646-27.099" stroke-width=".037512"/><path transform="matrix(2.6458 0 0 2.6441 -680 -164.98)" d="m316.1 81.579c-2.6998 4.6487-6.5966 8.6031-11.414 11.384-9.6817 5.59-21.61 5.59-31.292-1e-6 -4.8457-2.7976-8.7602-6.7827-11.462-11.467" stroke-width=".03001"/><path transform="matrix(3.1749 0 0 3.1729 -832.93 -199.8)" d="m311.59 87.561c-2.0089 2.088-4.324 3.9131-6.9028 5.4019-9.6817 5.59-21.61 5.59-31.292-1e-6 -2.5964-1.499-4.9254-3.3389-6.9438-5.4447" stroke-width=".025009"/><path transform="matrix(3.7041 0 0 3.7017 -985.9 -234.64)" d="m308.37 90.473c-1.1574 0.90884-2.3869 1.7421-3.683 2.4903-9.6817 5.59-21.61 5.59-31.292-1e-6 -1.3089-0.75568-2.5499-1.598-3.7174-2.5174" stroke-width=".021436"/><path transform="matrix(4.2243 0 0 4.2215 -1136.5 -268.87)" d="m306.04 92.132c-0.44425 0.28747-0.89718 0.5646-1.3586 0.83096-9.6817 5.59-21.61 5.59-31.292-1e-6 -0.43229-0.24957-0.85718-0.5086-1.2744-0.77673" stroke-width=".018796"/><path transform="matrix(.26469 0 0 .26469 -.036694 -.031725)" d="m320.33 34.764v499.07" stroke-width=".29988"/><path transform="matrix(0 .29371 -.29371 0 168.21 -84.937)" d="m320.33 40.455v487.98" stroke-width=".27025"/><g stroke-width=".29988"><path transform="matrix(.26469 0 0 .26469 -.036694 -.031725)" d="m320.33 34.764 129.11 481.86"/><path transform="matrix(.26469 0 0 .26469 -.036694 -.031725)" d="m320.33 34.764 249.34 431.88"/><path transform="matrix(.26469 0 0 .26469 -.036694 -.031725)" d="m320.33 34.764 270.38 270.38"/><path transform="matrix(.26469 0 0 .26469 -.036694 -.031725)" d="m320.33 34.764 270.39 156.06"/><path transform="matrix(.26469 0 0 .26469 -.036694 -.031725)" d="m320.33 34.764 270.39 72.405"/><path transform="matrix(.26469 0 0 .26469 -.036694 -.031725)" d="m320.33 34.764-129.23 482.31"/><path transform="matrix(.26469 0 0 .26469 -.036694 -.031725)" d="m320.33 34.764-249.85 432.76"/><path transform="matrix(.26469 0 0 .26469 -.036694 -.031725)" d="m320.33 34.764-271.08 271.08"/><path transform="matrix(.26469 0 0 .26469 -.036694 -.031725)" d="m320.33 34.764-271.08 156.51"/><path transform="matrix(.26469 0 0 .26469 -.036694 -.031725)" d="m320.33 34.764-271.06 72.627"/></g></g><g transform="matrix(1.536 0 0 -1.5356 -882.13 476.86)" stroke-width="1.2118"><g transform="translate(3.3468,36.257)" fill="none" stroke="#000" stroke-width=".18178"><g stroke-linecap="round"><path d="m618.92 264.96h-1.3002"/><path d="m618.57 262.16h4.3318"/><path d="m624.71 264.27h-4.89"/><path d="m619.82 265.66v-1.5002"/><path d="m620.77 268.21h-0.3847"/><path d="m618.92 263.96v1.0001"/><path d="m618.42 263.96h0.50006"/><path d="m618.3 260.66a0.7 0.7 0 0 0-0.6961 0.77378"/><path d="m631.47 264.16h0.94986"/><path d="m620.77 269.71a0.25 0.25 0 0 0 0.25 0.25"/><path d="m620.77 264.16-1.3499-2"/><path d="m620.77 265.66h-0.95011"/><path d="m619.82 264.16h0.95011"/><path d="m633.32 263.96h0.50006"/><path d="m634.37 270.76a0.25 0.25 0 0 0 0.25001-0.25"/><path d="m631.47 265.66v1.5499"/><path d="m621.73 260.66a1 1 0 0 0 0.93914-0.65647"/><path d="m632.42 264.16v1.5002"/><path d="m633.94 260.66h-0.56091"/><path d="m627.53 264.27v-0.69982"/><path d="m619.42 262.16h-0.85011"/><path d="m633.67 262.16h-0.85196"/><path d="m619.82 264.36v1.3002"/><path d="m632.4 259.88a1 1 0 0 0 0.97543 0.77972"/><path d="m631.22 269.96h-10.201"/><path d="m632.42 265.66h-0.94986"/><path d="m617.62 264.96v1.2467"/><path d="m631.47 267.21h0.38365"/><path d="m632.42 264.27h-4.8895"/><path d="m620.77 269.71v-1.5002"/><path d="m629.31 262.16h4.3611"/><path d="m631.85 268.21h-0.38365"/><path d="m633.32 264.96v-1.0001"/><path d="m619.82 265.57h12.6"/><path d="m631.22 269.96a0.25 0.25 0 0 0 0.25-0.25"/><path d="m633.82 263.96v-1.6499"/><path d="m617.62 269.21a1.63 1.63 0 0 0 0-3.0066"/><path d="m634.62 270.51v-1.2965"/><path d="m634.62 264.96 0.0159-3.5261"/><path d="m617.62 269.21v1.2965"/><path d="m634.64 261.43a0.7 0.7 0 0 0-0.69609-0.77378"/><path d="m618.57 262.16a0.15 0.15 0 0 0-0.15 0.15"/><path d="m627.53 263.57h-2.8202"/><path d="m633.82 262.31a0.15 0.15 0 0 0-0.14999-0.15"/><path d="m617.62 270.51a0.25 0.25 0 0 0 0.25 0.25"/><path d="m632.82 262.16-1.3494 2"/><path d="m617.6 261.43 0.018 3.5261"/><path d="m624.71 263.57v0.69982"/><path d="m620.38 267.21a0.65 0.65 0 1 0 0 1"/><path d="m631.47 268.21v1.5002"/><path d="m621.73 260.66h-3.4372"/><path d="m618.42 262.31v1.6499"/><path d="m634.62 264.96h-1.3018"/><path d="m632.42 265.66v-1.3002"/><path d="m634.62 266.2v-1.2467"/><path d="m617.87 270.76h16.5"/><path d="m631.85 268.21a0.65 0.65 0 1 0 0-1"/><path d="m620.38 267.21h0.3847"/><path d="m634.62 266.2a1.63 1.63 0 0 0 0 3.0067"/><path d="m620.77 267.21v-1.5499"/></g><path d="m622.9 262.16c0.23709-0.26659 0.56819-0.61904 1.4366-1.1205 0 0 0.38936-0.13639 1.2419-0.26113 0 0 0.44013 0.0224 1.3428 0.1869 0 0 0.47299 0.1554 1.5725 0.62883 0 0 0.42341 0.2846 0.64339 0.44281 0 1e-5 0.10694 0.0769 0.10694 0.0769 0.0214 0.0154 0.0428 0.0308 0.0642 0.0461"/><path d="m622.67 260c0.23276-0.63589 0.49348-1.1122 0.78293-1.5073 0.22283-0.30413 0.57473-0.71322 1.1637-1.1753 0.60833-0.47723 1.4824-1.0242 2.4597-1.3072 0.80516-0.23308 1.4396-0.22574 1.8819-0.1771 0.45624 0.0502 0.91704 0.17305 1.3253 0.38033 0.37338 0.18957 0.65405 0.42513 0.87825 0.6832 0.2921 0.33619 0.54827 0.77985 0.77851 1.3894 0.16748 0.44333 0.30237 0.92511 0.41172 1.384 0.0164 0.0686 0.0323 0.13749 0.0479 0.20663"/></g></g></svg>
