<svg width="960" height="400" version="1.1" viewBox="0 0 960 400" xml:space="preserve" xmlns="http://www.w3.org/2000/svg"><g><text transform="matrix(1.8495 0 0 1.8506 29.504 330.91)" font-family="Verdana" font-size="8.6484px" stroke="#000000" stroke-linecap="round" stroke-linejoin="round" stroke-miterlimit="10" stroke-width=".2" style="font-variant-caps:normal;font-variant-east-asian:normal;font-variant-ligatures:normal;font-variant-numeric:normal;line-height:0%"><tspan x="0" y="0" font-family="Lato" font-size="8.6484px" font-weight="bold" stroke="none" style="font-variant-caps:normal;font-variant-east-asian:normal;font-variant-ligatures:normal;font-variant-numeric:normal;line-height:1.25">CIE Colorimetric Parameters</tspan></text><text transform="matrix(1.8495 0 0 1.8506 29.319 352.82)" font-family="Lato" font-size="8.6484px" style="font-variant-caps:normal;font-variant-east-asian:normal;font-variant-ligatures:normal;font-variant-numeric:normal;line-height:0%"><tspan x="0" y="0" font-family="Lato" font-size="8.6484px" style="font-variant-caps:normal;font-variant-east-asian:normal;font-variant-ligatures:normal;font-variant-numeric:normal;line-height:1.25">Chromaticity coordinates: x=0.3447 y=0.3553 u'=0.2097 v'=0.4864</tspan></text><g font-family="Verdana"><text transform="matrix(1.8501 0 0 1.8512 -6.2379 1495.8)" x="19.2194" y="-605.67859" font-size="8.6458px" stroke-width=".9997" style="font-variant-caps:normal;font-variant-east-asian:normal;font-variant-ligatures:normal;font-variant-numeric:normal;line-height:0%"><tspan x="19.2194" y="-605.67859" dy="0 0 0 0 0 0 0 0" font-family="Lato" font-size="8.6458px" stroke-width=".9997" style="font-variant-caps:normal;font-variant-east-asian:normal;font-variant-ligatures:normal;font-variant-numeric:normal;line-height:1.25">CCT: Tc=5029K</tspan></text><text transform="matrix(1.8495 0 0 1.8506 453.42 374.82)" font-size="8.6484px" style="font-variant-caps:normal;font-variant-east-asian:normal;font-variant-ligatures:normal;font-variant-numeric:normal;line-height:0%"><tspan x="0" y="0" font-family="Lato" font-size="8.6484px" style="font-variant-caps:normal;font-variant-east-asian:normal;font-variant-ligatures:normal;font-variant-numeric:normal;line-height:1.25">Color Ratio: R=0.162 G=0.789 B=0.049 </tspan></text><text transform="matrix(1.8495 0 0 1.8506 253.09 374.55)" font-size="8.6484px" style="font-variant-caps:normal;font-variant-east-asian:normal;font-variant-ligatures:normal;font-variant-numeric:normal;line-height:0%"><tspan x="0" y="0" font-family="Lato" font-size="8.6484px" style="font-variant-caps:normal;font-variant-east-asian:normal;font-variant-ligatures:normal;font-variant-numeric:normal;line-height:1.25">CRI: Ra= 82</tspan></text></g></g><path transform="matrix(.8931 0 0 .8931 2.1878 -9.5807)" d="m137.74 265.3 0.93 0.26 0.94 0.24 1.92 0.44 0.98 0.21 0.99 0.2 1.01 0.19 1.01 0.18 1.03 0.17 1.04 0.16 1.05 0.14 1.06 0.14 1.07 0.13 1.09 0.12 1.09 0.1 1.11 0.1 1.11 0.08 1.13 0.08 1.14 0.06 1.15 0.06 1.16 0.04 1.17 0.04 1.18 0.02 1.19 0.01h1.2l1.21-0.01 1.22-0.01 1.23-0.03 1.24-0.04 1.25-0.05 1.26-0.06 1.27-0.07 1.27-0.08 1.29-0.09 1.29-0.11 1.3-0.11 1.32-0.12 1.32-0.13 1.32-0.14 2.68-0.32 1.35-0.18 1.36-0.18 1.37-0.19 2.76-0.42 1.38-0.23 1.4-0.23 1.4-0.25 1.41-0.25 1.42-0.27 1.42-0.28 1.43-0.28 2.88-0.6 1.44-0.32 1.46-0.32 2.92-0.68 2.94-0.72 1.48-0.38 1.49-0.38 1.49-0.39 1.49-0.41 1.5-0.41 1.5-0.42 1.5-0.43 1.51-0.45 1.52-0.45 1.52-0.46 1.52-0.47 1.52-0.48 1.53-0.48 1.53-0.5 1.53-0.51 1.54-0.51 3.08-1.06 1.55-0.54 1.54-0.55 1.55-0.56 1.55-0.57 1.55-0.58 1.55-0.59 1.56-0.59 1.55-0.6 1.56-0.61 1.56-0.63 1.55-0.62 1.56-0.64 3.12-1.3 1.56-0.66 1.56-0.67 3.12-1.36 1.56-0.69 1.56-0.7 1.55-0.71 1.56-0.72 1.55-0.72 1.56-0.73 1.55-0.74 3.1-1.5 1.55-0.76 1.54-0.76 3.08-1.56 3.08-1.58 1.53-0.8 1.53-0.81 1.52-0.81 1.53-0.83 1.51-0.82 1.52-0.84 3.02-1.68 1.5-0.85 3-1.72 1.49-0.87 1.49-0.88 2.96-1.76 1.47-0.9 1.46-0.89 1.46-0.91 1.46-0.9 1.45-0.92 1.44-0.91 1.44-0.93 1.43-0.92 1.43-0.93 1.42-0.94 1.41-0.94 4.2-2.85 2.76-1.92 1.37-0.97 2.72-1.94 2.68-1.96 1.33-0.98 1.33-0.99 2.62-1.98 1.3-1 1.28-1 1.29-1 1.27-1.01 1.26-1.01 2.5-2.02 2.46-2.04 1.21-1.02 2.4-2.04 2.36-2.06 1.16-1.02 1.16-1.04 1.14-1.03 1.13-1.03 1.13-1.04 1.11-1.03 1.1-1.04 1.09-1.04 1.07-1.03 1.07-1.04 2.1-2.08 1.03-1.04 1.02-1.05 1.01-1.04 1.98-2.08 0.97-1.04 0.96-1.04 0.95-1.04 1.86-2.08 0.91-1.04 1.78-2.08 0.87-1.03 0.86-1.04 0.84-1.04 0.84-1.03 1.62-2.06 0.79-1.03 0.78-1.03 0.77-1.02 0.75-1.02 0.74-1.03 0.72-1.02 0.71-1.01 0.7-1.02 0.68-1.01 0.67-1.01 0.66-1.01 0.64-1 0.62-1 0.61-1 0.6-1 0.58-0.99 0.57-0.99 0.56-0.99 1.06-1.96 0.51-0.97 0.97-1.94 0.47-0.97 0.45-0.96 0.44-0.95 0.42-0.96 0.4-0.95 0.39-0.94 0.38-0.94 0.36-0.93 0.34-0.93 0.33-0.93 0.32-0.92 0.3-0.91 0.28-0.91 0.27-0.91 0.25-0.9 0.24-0.89 0.22-0.9 0.21-0.88 0.19-0.88 0.18-0.87 0.15-0.87 0.15-0.86 0.13-0.85 0.11-0.85 0.1-0.85 0.08-0.83 0.07-0.84 0.05-0.82 0.04-0.818 0.02-0.812v-0.805l-0.01-0.799-0.02-0.792-0.05-0.785-0.05-0.778-0.08-0.771-0.09-0.765-0.1-0.757-0.12-0.749-0.14-0.743-0.15-0.735-0.16-0.728-0.19-0.721-0.19-0.712-0.22-0.706-0.23-0.697-0.24-0.69-0.26-0.682-0.27-0.674-0.29-0.666-0.31-0.658-0.32-0.649-0.33-0.643-0.36-0.633-0.36-0.625-0.38-0.617-0.4-0.608-0.41-0.6-0.43-0.592-0.44-0.582-0.46-0.574-0.47-0.566-0.48-0.556-0.5-0.548-0.52-0.539-0.53-0.53-0.54-0.521-0.56-0.512-0.58-0.503-0.59-0.494-0.6-0.484-0.62-0.475-0.63-0.466-0.64-0.457-0.66-0.447-0.68-0.438-0.69-0.428-0.7-0.42-0.71-0.408-0.73-0.4-0.75-0.39-0.76-0.381-0.77-0.37-0.78-0.361-0.8-0.352-0.81-0.341-0.82-0.331-0.84-0.322-0.85-0.311-0.87-0.302-0.87-0.291-0.89-0.282-0.9-0.272-0.92-0.262-0.93-0.251-0.94-0.241-0.95-0.232-0.96-0.221-0.98-0.211-0.99-0.2-1-0.19-1.01-0.181-1.03-0.17-1.04-0.16-1.04-0.148-1.06-0.14-1.07-0.128-1.09-0.119-1.09-0.108-1.1-0.098-1.12-0.086-1.13-0.078-1.13-0.066-1.15-0.056-1.16-0.046-1.17-0.035-1.18-0.025-1.19-0.015-1.2-3e-3 -1.2 6e-3 -1.22 0.017-1.23 0.027-1.24 0.038-1.25 0.048-1.25 0.058-1.27 0.069-1.27 0.079-1.29 0.089-1.29 0.101-1.3 0.11-1.31 0.12-1.32 0.131-1.33 0.142-1.33 0.151-1.34 0.162-1.35 0.172-1.36 0.183-1.37 0.192-1.37 0.204-1.38 0.213-1.39 0.223-1.39 0.233-1.41 0.244-1.4 0.254-1.42 0.264-1.42 0.273-1.43 0.284-1.43 0.294-1.44 0.304-1.45 0.314-1.45 0.324-1.46 0.334-1.46 0.343-1.47 0.353-1.47 0.363-1.48 0.373-1.49 0.383-1.48 0.392-1.5 0.402-1.49 0.411-1.51 0.421-1.5 0.43-1.51 0.44-1.51 0.45-1.52 0.459-1.52 0.467-1.52 0.478-1.53 0.486-1.53 0.496-1.54 0.505-1.53 0.514-1.54 0.523-1.54 0.532-1.55 0.54-1.54 0.551-1.55 0.558-1.55 0.567-1.55 0.576-1.55 0.585-1.56 0.593-1.55 0.602-1.56 0.61-1.55 0.619-1.56 0.627-1.56 0.636-1.56 0.643-1.56 0.652-1.56 0.66-1.56 0.667-1.56 0.676-1.56 0.684-1.56 0.691-1.55 0.7-1.56 0.707-1.56 0.714-1.55 0.722-1.56 0.729-1.55 0.737-1.55 0.745-1.55 0.752-1.55 0.758-1.54 0.766-1.54 0.773-1.54 0.779-1.54 0.787-1.54 0.794-1.53 0.799-1.53 0.807-1.53 0.813-1.52 0.817-3.04 1.66-3.02 1.68-1.5 0.86-1.5 0.85-1.5 0.87-1.49 0.86-1.49 0.88-2.96 1.76-1.47 0.89-1.46 0.9-1.47 0.9-2.9 1.82-1.45 0.92-1.44 0.92-1.43 0.92-1.43 0.93-1.42 0.94-2.82 1.88-1.4 0.95-1.39 0.96-1.39 0.95-1.38 0.97-1.37 0.96-2.72 1.94-1.35 0.98-1.34 0.98-1.33 0.98-2.64 1.98-1.31 0.99-1.3 1-1.29 1-1.28 1-1.27 1.01-2.52 2.02-2.48 2.02-1.23 1.02-2.42 2.04-1.2 1.03-1.18 1.02-1.18 1.03-2.32 2.06-1.15 1.03-1.13 1.04-2.24 2.06-1.1 1.04-1.09 1.04-1.08 1.04-1.07 1.04-2.1 2.08-1.03 1.04-2.04 2.08-1.98 2.08-0.97 1.04-0.97 1.05-1.88 2.08-0.93 1.04-0.91 1.04-0.9 1.03-1.76 2.08-0.86 1.04-0.85 1.03-0.83 1.03-0.82 1.03-0.81 1.03-1.58 2.06-0.76 1.03-0.76 1.02-0.74 1.02-1.44 2.04-0.7 1.01-0.68 1.02-0.67 1.01-0.66 1.01-0.64 1-0.63 1-0.61 1-0.6 1-0.59 0.99-0.57 0.99-0.56 0.99-0.54 0.98-1.04 1.96-0.49 0.97-0.48 0.97-0.47 0.96-0.46 0.97-0.86 1.9-0.8 1.9-0.37 0.94-0.37 0.93-0.68 1.86-0.62 1.84-0.28 0.91-0.27 0.9-0.26 0.91-0.24 0.89-0.22 0.89-0.21 0.89-0.2 0.88-0.34 1.74-0.28 1.72-0.11 0.85-0.1 0.84-0.09 0.84-0.07 0.83-0.05 0.83-0.04 0.82-0.02 0.81-0.01 0.81 0.01 0.8 0.02 0.79 0.04 0.78 0.06 0.78 0.07 0.78 0.09 0.76 0.1 0.76 0.12 0.75 0.13 0.75 0.15 0.73 0.16 0.73 0.18 0.72 0.2 0.72 0.21 0.7 0.22 0.7 0.24 0.69 0.26 0.69 0.27 0.67 0.29 0.67 0.3 0.66 0.32 0.65 0.33 0.64 0.35 0.64 0.37 0.62 0.38 0.62 0.39 0.61 0.41 0.6 0.42 0.6 0.44 0.58 0.46 0.58 0.46 0.56 0.49 0.56 0.5 0.55 0.51 0.54 0.53 0.53 0.54 0.52 0.56 0.52 0.57 0.5 0.59 0.5 0.6 0.48 0.61 0.48 0.63 0.47 0.64 0.45 0.66 0.45 0.67 0.44 0.69 0.43 0.7 0.42 0.71 0.41 0.73 0.4 0.74 0.4 0.76 0.38 0.77 0.37 0.78 0.36 0.79 0.36 0.81 0.34 0.82 0.33 0.84 0.32 0.85 0.32 0.86 0.3 1.76 0.58 0.91 0.27 0.91 0.26" fill="#c2cccc" stroke-linejoin="round" stroke-width=".74684"/><g font-family="Lato" font-size="11.943px" stroke-width="1.4929"><text transform="matrix(.8931 0 0 .8931 42.868 282.33)" style="font-variant-caps:normal;font-variant-east-asian:normal;font-variant-ligatures:normal;font-variant-numeric:normal" xml:space="preserve">0.338</text><text transform="matrix(.8931 0 0 .8931 99.87 282.05)" style="font-variant-caps:normal;font-variant-east-asian:normal;font-variant-ligatures:normal;font-variant-numeric:normal" xml:space="preserve">0.34</text><text transform="matrix(.8931 0 0 .8931 150.88 282.3)" style="font-variant-caps:normal;font-variant-east-asian:normal;font-variant-ligatures:normal;font-variant-numeric:normal" xml:space="preserve">0.342</text><text transform="matrix(.8931 0 0 .8931 204.71 282.3)" style="font-variant-caps:normal;font-variant-east-asian:normal;font-variant-ligatures:normal;font-variant-numeric:normal" xml:space="preserve">0.344</text><text transform="matrix(.8931 0 0 .8931 258.85 282.3)" style="font-variant-caps:normal;font-variant-east-asian:normal;font-variant-ligatures:normal;font-variant-numeric:normal" xml:space="preserve">0.346</text><text transform="matrix(.8931 0 0 .8931 315.88 282.3)" x="11.587553" text-align="center" text-anchor="middle" style="font-variant-caps:normal;font-variant-east-asian:normal;font-variant-ligatures:normal;font-variant-numeric:normal" xml:space="preserve">0.34</text><text transform="matrix(.8931 0 0 .8931 370.31 282.16)" x="11.117998" style="font-variant-caps:normal;font-variant-east-asian:normal;font-variant-ligatures:normal;font-variant-numeric:normal" xml:space="preserve"><tspan font-family="Lato" font-size="11.943px" text-align="center" text-anchor="middle" style="font-variant-caps:normal;font-variant-east-asian:normal;font-variant-ligatures:normal;font-variant-numeric:normal">0.35</tspan></text><text transform="matrix(.8931 0 0 .8931 23.489 271.98)" style="font-variant-caps:normal;font-variant-east-asian:normal;font-variant-ligatures:normal;font-variant-numeric:normal" xml:space="preserve">0.345</text><text transform="matrix(.8931 0 0 .8931 29.8 208.42)" style="font-variant-caps:normal;font-variant-east-asian:normal;font-variant-ligatures:normal;font-variant-numeric:normal" xml:space="preserve">0.35</text><text transform="matrix(.8931 0 0 .8931 23.489 144.88)" style="font-variant-caps:normal;font-variant-east-asian:normal;font-variant-ligatures:normal;font-variant-numeric:normal" xml:space="preserve">0.355</text><text transform="matrix(.8931 0 0 .8931 29.517 81.257)" style="font-variant-caps:normal;font-variant-east-asian:normal;font-variant-ligatures:normal;font-variant-numeric:normal" xml:space="preserve">0.36</text><text transform="matrix(.8931 0 0 .8931 23.489 17.728)" style="font-variant-caps:normal;font-variant-east-asian:normal;font-variant-ligatures:normal;font-variant-numeric:normal" xml:space="preserve">0.365</text><text transform="matrix(0 -.8931 .8931 0 17.728 156.18)" style="font-variant-caps:normal;font-variant-east-asian:normal;font-variant-ligatures:normal;font-variant-numeric:normal" xml:space="preserve">CIE-Y</text></g><g fill="none" stroke="#858585" stroke-dasharray="7.45661, 0" stroke-width=".33591"><polyline transform="matrix(.8931 0 0 .8931 2.1878 -9.5807)" points="121.33 311 121.33 26.208"/><polyline transform="matrix(.8931 0 0 .8931 2.1878 -9.5807)" points="181.8 311 181.8 26.208"/><polyline transform="matrix(.8931 0 0 .8931 2.1878 -9.5807)" points="242.26 311 242.26 26.208"/><polyline transform="matrix(.8931 0 0 .8931 2.1878 -9.5807)" points="302.73 311 302.73 26.208"/><polyline transform="matrix(.8931 0 0 .8931 2.1878 -9.5807)" points="363.2 311 363.2 26.208"/><polyline transform="matrix(.8931 0 0 .8931 2.1878 -9.5807)" points="423.67 311 423.67 26.208"/><polyline transform="matrix(.8931 0 0 .8931 2.1878 -9.5807)" points="60.859 239.8 423.67 239.8"/><polyline transform="matrix(.8931 0 0 .8931 2.1878 -9.5807)" points="60.859 168.6 423.67 168.6"/><polyline transform="matrix(.8931 0 0 .8931 2.1878 -9.5807)" points="60.859 97.404 423.67 97.404"/><polyline transform="matrix(.8931 0 0 .8931 2.1878 -9.5807)" points="60.859 26.208 423.67 26.208"/><polyline transform="matrix(.8931 0 0 .8931 2.1878 -9.5807)" points="60.859 311 423.67 311" stroke-linecap="square"/><polyline transform="matrix(.8931 0 0 .8931 2.1878 -9.5807)" points="60.859 311 60.859 26.208" stroke-linecap="square"/></g><polygon transform="matrix(2.3832 0 0 2.3832 -390.34 -254.45)" points="263.93 165.2 262.93 165.2 262.43 164.33 262.93 163.46 263.93 163.46 264.43 164.33" fill="#f0f" shape-rendering="crispEdges" stroke-width=".55947"/><text transform="matrix(.8931 0 0 .8931 238.66 135.11)" font-family="Lato" font-size="11.944px" stroke-width="1.4929" style="font-variant-caps:normal;font-variant-east-asian:normal;font-variant-ligatures:normal;font-variant-numeric:normal" xml:space="preserve">CCT=5029 K</text><text transform="matrix(.8931 0 0 .8931 204.56 296.27)" font-family="Lato" font-size="11.943px" stroke-width="1.4929" style="font-variant-caps:normal;font-variant-east-asian:normal;font-variant-ligatures:normal;font-variant-numeric:normal" xml:space="preserve">CIE-X</text><g fill="none" stroke-linejoin="round" stroke-miterlimit="2" stroke-width="24.339"><path transform="matrix(.10949 0 0 .10973 354.72 585.89)" d="m941.55-2867.5v-21.33" stroke="#640065"/><path transform="matrix(.10949 0 0 .10973 354.72 585.89)" d="m952.2-2867.5v-14.59" stroke="#67006a"/><path transform="matrix(.10949 0 0 .10973 354.72 585.89)" d="m962.85-2867.5v-22.78" stroke="#6a006e"/><path transform="matrix(.10949 0 0 .10973 354.72 585.89)" d="m973.49-2867.5v-12.02" stroke="#6c0073"/><path transform="matrix(.10949 0 0 .10973 354.72 585.89)" d="m984.15-2867.5v-13.41" stroke="#6f0077"/><path transform="matrix(.10949 0 0 .10973 354.72 585.89)" d="m994.79-2867.5v-6.67" stroke="#71007b"/><path transform="matrix(.10949 0 0 .10973 354.72 585.89)" d="m1005.4-2867.5v-7.02" stroke="#73007f"/><path transform="matrix(.10949 0 0 .10973 354.72 585.89)" d="m1016.1-2867.5v-6.6" stroke="#750084"/><path transform="matrix(.10949 0 0 .10973 354.72 585.89)" d="m1026.7-2867.5v-5.97" stroke="#708"/><path transform="matrix(.10949 0 0 .10973 354.72 585.89)" d="m1037.4-2867.5v-5.21" stroke="#79008c"/><path transform="matrix(.10949 0 0 .10973 354.72 585.89)" d="m1048-2867.5v-6.32" stroke="#7b0090"/><path transform="matrix(.10949 0 0 .10973 354.72 585.89)" d="m1058.7-2867.5v-3.26" stroke="#7c0094"/><path transform="matrix(.10949 0 0 .10973 354.72 585.89)" d="m1069.3-2867.5v-4.52" stroke="#7d0098"/><path transform="matrix(.10949 0 0 .10973 354.72 585.89)" d="m1080-2867.5v-3.33" stroke="#7e009c"/><path transform="matrix(.10949 0 0 .10973 354.72 585.89)" d="m1090.6-2867.5v-1.39" stroke="#7f00a0"/><path transform="matrix(.10949 0 0 .10973 354.72 585.89)" d="m1101.3-2867.5v-8.61" stroke="#8000a4"/><path transform="matrix(.10949 0 0 .10973 354.72 585.89)" d="m1111.9-2867.5v-3.33" stroke="#8100a8"/><path transform="matrix(.10949 0 0 .10973 354.72 585.89)" d="m1122.6-2867.5v-4.52" stroke="#8100ac"/><path transform="matrix(.10949 0 0 .10973 354.72 585.89)" d="m1133.2-2867.5v-2.15" stroke="#8200b0"/><path transform="matrix(.10949 0 0 .10973 354.72 585.89)" d="m1143.9-2867.5v-4.24" stroke="#8200b4"/><path transform="matrix(.10949 0 0 .10973 354.72 585.89)" d="m1154.5-2867.5v-5.9" stroke="#8200b8"/><path transform="matrix(.10949 0 0 .10973 354.72 585.89)" d="m1165.2-2867.5v-6.6" stroke="#8200bc"/><path transform="matrix(.10949 0 0 .10973 354.72 585.89)" d="m1175.8-2867.5v-4.1" stroke="#8200c0"/><path transform="matrix(.10949 0 0 .10973 354.72 585.89)" d="m1186.5-2867.5v-8.68" stroke="#8200c4"/><path transform="matrix(.10949 0 0 .10973 354.72 585.89)" d="m1197.1-2867.5v-7.02" stroke="#8100c7"/><path transform="matrix(.10949 0 0 .10973 354.72 585.89)" d="m1207.8-2867.5v-9.24" stroke="#8100cb"/><path transform="matrix(.10949 0 0 .10973 354.72 585.89)" d="m1218.4-2867.5v-3.26" stroke="#8000cf"/><path transform="matrix(.10949 0 0 .10973 354.72 585.89)" d="m1229-2867.5v-5.9" stroke="#7f00d3"/><path transform="matrix(.10949 0 0 .10973 354.72 585.89)" d="m1239.7-2867.5v-11.18" stroke="#7e00d6"/><path transform="matrix(.10949 0 0 .10973 354.72 585.89)" d="m1250.4-2867.5v-14.86" stroke="#7d00da"/><path transform="matrix(.10949 0 0 .10973 354.72 585.89)" d="m1261-2867.5v-17.09" stroke="#7c00de"/><path transform="matrix(.10949 0 0 .10973 354.72 585.89)" d="m1271.6-2867.5v-20.07" stroke="#7a00e2"/><path transform="matrix(.10949 0 0 .10973 354.72 585.89)" d="m1282.3-2867.5v-21.53" stroke="#7900e5"/><path transform="matrix(.10949 0 0 .10973 354.72 585.89)" d="m1292.9-2867.5v-22.78" stroke="#7700e9"/><path transform="matrix(.10949 0 0 .10973 354.72 585.89)" d="m1303.6-2867.5v-31.34" stroke="#7500ec"/><path transform="matrix(.10949 0 0 .10973 354.72 585.89)" d="m1314.2-2867.5v-33.98" stroke="#7300f0"/><path transform="matrix(.10949 0 0 .10973 354.72 585.89)" d="m1324.9-2867.5v-39.88" stroke="#7100f4"/><path transform="matrix(.10949 0 0 .10973 354.72 585.89)" d="m1335.5-2867.5v-47.24" stroke="#6f00f7"/><path transform="matrix(.10949 0 0 .10973 354.72 585.89)" d="m1346.2-2867.5v-56.5" stroke="#6c00fb"/><path transform="matrix(.10949 0 0 .10973 354.72 585.89)" d="m1356.8-2867.5v-62.33" stroke="#6900ff"/><path transform="matrix(.10949 0 0 .10973 354.72 585.89)" d="m1367.5-2867.5v-70.95" stroke="#6500ff"/><path transform="matrix(.10949 0 0 .10973 354.72 585.89)" d="m1378.1-2867.5v-84.57" stroke="#6100ff"/><path transform="matrix(.10949 0 0 .10973 354.72 585.89)" d="m1388.8-2867.5v-96.45" stroke="#5c00ff"/><path transform="matrix(.10949 0 0 .10973 354.72 585.89)" d="m1399.4-2867.5v-107.37" stroke="#5800ff"/><path transform="matrix(.10949 0 0 .10973 354.72 585.89)" d="m1410.1-2867.5v-125.44" stroke="#5400ff"/><path transform="matrix(.10949 0 0 .10973 354.72 585.89)" d="m1420.7-2867.5v-142.18" stroke="#4f00ff"/><path transform="matrix(.10949 0 0 .10973 354.72 585.89)" d="m1431.4-2867.5v-165.19" stroke="#4b00ff"/><path transform="matrix(.10949 0 0 .10973 354.72 585.89)" d="m1442-2867.5v-188.2" stroke="#4600ff"/><path transform="matrix(.10949 0 0 .10973 354.72 585.89)" d="m1452.7-2867.5v-214.82" stroke="#4100ff"/><path transform="matrix(.10949 0 0 .10973 354.72 585.89)" d="m1463.3-2867.5v-246.16" stroke="#3c00ff"/><path transform="matrix(.10949 0 0 .10973 354.72 585.89)" d="m1474-2867.5v-278.34" stroke="#3700ff"/><path transform="matrix(.10949 0 0 .10973 354.72 585.89)" d="m1484.6-2867.5v-317.33" stroke="#3200ff"/><path transform="matrix(.10949 0 0 .10973 354.72 585.89)" d="m1495.2-2867.5v-358.68" stroke="#2d00ff"/><path transform="matrix(.10949 0 0 .10973 354.72 585.89)" d="m1505.9-2867.5v-407.54" stroke="#2800ff"/><path transform="matrix(.10949 0 0 .10973 354.72 585.89)" d="m1516.6-2867.5v-463.34" stroke="#20f"/><path transform="matrix(.10949 0 0 .10973 354.72 585.89)" d="m1527.2-2867.5v-527.01" stroke="#1d00ff"/><path transform="matrix(.10949 0 0 .10973 354.72 585.89)" d="m1537.8-2867.5v-596.09" stroke="#1700ff"/><path transform="matrix(.10949 0 0 .10973 354.72 585.89)" d="m1548.5-2867.5v-684.08" stroke="#1000ff"/><path transform="matrix(.10949 0 0 .10973 354.72 585.89)" d="m1559.2-2867.5v-788.54" stroke="#0900ff"/><path transform="matrix(.10949 0 0 .10973 354.72 585.89)" d="m1569.8-2867.5v-911.21" stroke="#00f"/><path transform="matrix(.10949 0 0 .10973 354.72 585.89)" d="m1580.4-2867.5v-1056.5" stroke="#000bff"/><path transform="matrix(.10949 0 0 .10973 354.72 585.89)" d="m1591.1-2867.5v-1216.8" stroke="#0013ff"/><path transform="matrix(.10949 0 0 .10973 354.72 585.89)" d="m1601.7-2867.5v-1389.6" stroke="#001aff"/><path transform="matrix(.10949 0 0 .10973 354.72 585.89)" d="m1612.4-2867.5v-1573.4" stroke="#0021ff"/><path transform="matrix(.10949 0 0 .10973 354.72 585.89)" d="m1623-2867.5v-1766.6" stroke="#0028ff"/><path transform="matrix(.10949 0 0 .10973 354.72 585.89)" d="m1633.7-2867.5v-1942.4" stroke="#002eff"/><path transform="matrix(.10949 0 0 .10973 354.72 585.89)" d="m1644.3-2867.5v-2099.6" stroke="#0034ff"/><path transform="matrix(.10949 0 0 .10973 354.72 585.89)" d="m1655-2867.5v-2208.9" stroke="#003aff"/><path transform="matrix(.10949 0 0 .10973 354.72 585.89)" d="m1665.6-2867.5v-2266.4" stroke="#0040ff"/><path transform="matrix(.10949 0 0 .10973 354.72 585.89)" d="m1676.3-2867.5v-2290.1" stroke="#0046ff"/><path transform="matrix(.10949 0 0 .10973 354.72 585.89)" d="m1686.9-2867.5v-2255.3" stroke="#004bff"/><path transform="matrix(.10949 0 0 .10973 354.72 585.89)" d="m1697.6-2867.5v-2182.8" stroke="#0051ff"/><path transform="matrix(.10949 0 0 .10973 354.72 585.89)" d="m1708.2-2867.5v-2062.5" stroke="#0056ff"/><path transform="matrix(.10949 0 0 .10973 354.72 585.89)" d="m1718.9-2867.5v-1917.2" stroke="#005cff"/><path transform="matrix(.10949 0 0 .10973 354.72 585.89)" d="m1729.5-2867.5v-1777.9" stroke="#0061ff"/><path transform="matrix(.10949 0 0 .10973 354.72 585.89)" d="m1740.2-2867.5v-1652.4" stroke="#06f"/><path transform="matrix(.10949 0 0 .10973 354.72 585.89)" d="m1750.8-2867.5v-1528.6" stroke="#006bff"/><path transform="matrix(.10949 0 0 .10973 354.72 585.89)" d="m1761.5-2867.5v-1432.1" stroke="#0070ff"/><path transform="matrix(.10949 0 0 .10973 354.72 585.89)" d="m1772.1-2867.5v-1352.2" stroke="#0075ff"/><path transform="matrix(.10949 0 0 .10973 354.72 585.89)" d="m1782.8-2867.5v-1284.5" stroke="#007aff"/><path transform="matrix(.10949 0 0 .10973 354.72 585.89)" d="m1793.4-2867.5v-1226.7" stroke="#007fff"/><path transform="matrix(.10949 0 0 .10973 354.72 585.89)" d="m1804.1-2867.5v-1189.8" stroke="#0084ff"/><path transform="matrix(.10949 0 0 .10973 354.72 585.89)" d="m1814.7-2867.5v-1149.5" stroke="#0089ff"/><path transform="matrix(.10949 0 0 .10973 354.72 585.89)" d="m1825.4-2867.5v-1118.5" stroke="#008dff"/><path transform="matrix(.10949 0 0 .10973 354.72 585.89)" d="m1836-2867.5v-1079.3" stroke="#0092ff"/><path transform="matrix(.10949 0 0 .10973 354.72 585.89)" d="m1846.6-2867.5v-1036.6" stroke="#0097ff"/><path transform="matrix(.10949 0 0 .10973 354.72 585.89)" d="m1857.3-2867.5v-991.34" stroke="#009bff"/><path transform="matrix(.10949 0 0 .10973 354.72 585.89)" d="m1868-2867.5v-936.85" stroke="#00a0ff"/><path transform="matrix(.10949 0 0 .10973 354.72 585.89)" d="m1878.6-2867.5v-887.23" stroke="#00a4ff"/><path transform="matrix(.10949 0 0 .10973 354.72 585.89)" d="m1889.2-2867.5v-836.92" stroke="#00a9ff"/><path transform="matrix(.10949 0 0 .10973 354.72 585.89)" d="m1899.9-2867.5v-788.47" stroke="#00adff"/><path transform="matrix(.10949 0 0 .10973 354.72 585.89)" d="m1910.5-2867.5v-748.3" stroke="#00b2ff"/><path transform="matrix(.10949 0 0 .10973 354.72 585.89)" d="m1921.2-2867.5v-714.45" stroke="#00b6ff"/><path transform="matrix(.10949 0 0 .10973 354.72 585.89)" d="m1931.8-2867.5v-688.25" stroke="#0bf"/><path transform="matrix(.10949 0 0 .10973 354.72 585.89)" d="m1942.5-2867.5v-671.36" stroke="#00bfff"/><path transform="matrix(.10949 0 0 .10973 354.72 585.89)" d="m1953.1-2867.5v-657.32" stroke="#00c4ff"/><path transform="matrix(.10949 0 0 .10973 354.72 585.89)" d="m1963.8-2867.5v-649.88" stroke="#00c8ff"/><path transform="matrix(.10949 0 0 .10973 354.72 585.89)" d="m1974.4-2867.5v-644.6" stroke="#0cf"/><path transform="matrix(.10949 0 0 .10973 354.72 585.89)" d="m1985.1-2867.5v-646.83" stroke="#00d1ff"/><path transform="matrix(.10949 0 0 .10973 354.72 585.89)" d="m1995.7-2867.5v-647.38" stroke="#00d5ff"/><path transform="matrix(.10949 0 0 .10973 354.72 585.89)" d="m2006.4-2867.5v-653.99" stroke="#00d9ff"/><path transform="matrix(.10949 0 0 .10973 354.72 585.89)" d="m2017-2867.5v-659.83" stroke="#0df"/><path transform="matrix(.10949 0 0 .10973 354.72 585.89)" d="m2027.7-2867.5v-662.12" stroke="#00e2ff"/><path transform="matrix(.10949 0 0 .10973 354.72 585.89)" d="m2038.3-2867.5v-672.89" stroke="#00e6ff"/><path transform="matrix(.10949 0 0 .10973 354.72 585.89)" d="m2049-2867.5v-677" stroke="#00eaff"/><path transform="matrix(.10949 0 0 .10973 354.72 585.89)" d="m2059.6-2867.5v-692.63" stroke="#0ef"/><path transform="matrix(.10949 0 0 .10973 354.72 585.89)" d="m2070.3-2867.5v-702.15" stroke="#00f2ff"/><path transform="matrix(.10949 0 0 .10973 354.72 585.89)" d="m2080.9-2867.5v-712.57" stroke="#00f6ff"/><path transform="matrix(.10949 0 0 .10973 354.72 585.89)" d="m2091.6-2867.5v-724.74" stroke="#00faff"/><path transform="matrix(.10949 0 0 .10973 354.72 585.89)" d="m2102.2-2867.5v-745.51" stroke="#0ff"/><path transform="matrix(.10949 0 0 .10973 354.72 585.89)" d="m2112.8-2867.5v-758.24" stroke="#00fff4"/><path transform="matrix(.10949 0 0 .10973 354.72 585.89)" d="m2123.5-2867.5v-776.31" stroke="#00ffea"/><path transform="matrix(.10949 0 0 .10973 354.72 585.89)" d="m2134.2-2867.5v-791.81" stroke="#00ffdf"/><path transform="matrix(.10949 0 0 .10973 354.72 585.89)" d="m2144.8-2867.5v-810.98" stroke="#00ffd5"/><path transform="matrix(.10949 0 0 .10973 354.72 585.89)" d="m2155.4-2867.5v-830.1" stroke="#00ffca"/><path transform="matrix(.10949 0 0 .10973 354.72 585.89)" d="m2166.1-2867.5v-849.63" stroke="#00ffbf"/><path transform="matrix(.10949 0 0 .10973 354.72 585.89)" d="m2176.7-2867.5v-868.54" stroke="#00ffb4"/><path transform="matrix(.10949 0 0 .10973 354.72 585.89)" d="m2187.4-2867.5v-889.88" stroke="#00ffa9"/><path transform="matrix(.10949 0 0 .10973 354.72 585.89)" d="m2198-2867.5v-907.6" stroke="#00ff9e"/><path transform="matrix(.10949 0 0 .10973 354.72 585.89)" d="m2208.7-2867.5v-924.97" stroke="#00ff92"/><path transform="matrix(.10949 0 0 .10973 354.72 585.89)" d="m2219.3-2867.5v-941.65" stroke="#00ff86"/><path transform="matrix(.10949 0 0 .10973 354.72 585.89)" d="m2230-2867.5v-961.95" stroke="#00ff7a"/><path transform="matrix(.10949 0 0 .10973 354.72 585.89)" d="m2240.6-2867.5v-974.31" stroke="#00ff6e"/><path transform="matrix(.10949 0 0 .10973 354.72 585.89)" d="m2251.3-2867.5v-985.3" stroke="#00ff61"/><path transform="matrix(.10949 0 0 .10973 354.72 585.89)" d="m2261.9-2867.5v-1007.4" stroke="#00ff54"/><path transform="matrix(.10949 0 0 .10973 354.72 585.89)" d="m2272.6-2867.5v-1018" stroke="#00ff46"/><path transform="matrix(.10949 0 0 .10973 354.72 585.89)" d="m2283.2-2867.5v-1033.3" stroke="#00ff37"/><path transform="matrix(.10949 0 0 .10973 354.72 585.89)" d="m2293.9-2867.5v-1042.6" stroke="#00ff28"/><path transform="matrix(.10949 0 0 .10973 354.72 585.89)" d="m2304.5-2867.5v-1055.6" stroke="#00ff17"/><path transform="matrix(.10949 0 0 .10973 354.72 585.89)" d="m2315.2-2867.5v-1067.4" stroke="#0f0"/><path transform="matrix(.10949 0 0 .10973 354.72 585.89)" d="m2325.8-2867.5v-1075.6" stroke="#08ff00"/><path transform="matrix(.10949 0 0 .10973 354.72 585.89)" d="m2336.5-2867.5v-1086.4" stroke="#0eff00"/><path transform="matrix(.10949 0 0 .10973 354.72 585.89)" d="m2347.1-2867.5v-1096.8" stroke="#14ff00"/><path transform="matrix(.10949 0 0 .10973 354.72 585.89)" d="m2357.8-2867.5v-1105.7" stroke="#19ff00"/><path transform="matrix(.10949 0 0 .10973 354.72 585.89)" d="m2368.4-2867.5v-1112.9" stroke="#1eff00"/><path transform="matrix(.10949 0 0 .10973 354.72 585.89)" d="m2379.1-2867.5v-1116.2" stroke="#23ff00"/><path transform="matrix(.10949 0 0 .10973 354.72 585.89)" d="m2389.7-2867.5v-1125.3" stroke="#28ff00"/><path transform="matrix(.10949 0 0 .10973 354.72 585.89)" d="m2400.4-2867.5v-1130.8" stroke="#2cff00"/><path transform="matrix(.10949 0 0 .10973 354.72 585.89)" d="m2411-2867.5v-1143.3" stroke="#31ff00"/><path transform="matrix(.10949 0 0 .10973 354.72 585.89)" d="m2421.6-2867.5v-1149.8" stroke="#35ff00"/><path transform="matrix(.10949 0 0 .10973 354.72 585.89)" d="m2432.3-2867.5v-1150.6" stroke="#3aff00"/><path transform="matrix(.10949 0 0 .10973 354.72 585.89)" d="m2442.9-2867.5v-1152.3" stroke="#3eff00"/><path transform="matrix(.10949 0 0 .10973 354.72 585.89)" d="m2453.6-2867.5v-1157.7" stroke="#42ff00"/><path transform="matrix(.10949 0 0 .10973 354.72 585.89)" d="m2464.2-2867.5v-1161.3" stroke="#46ff00"/><path transform="matrix(.10949 0 0 .10973 354.72 585.89)" d="m2474.9-2867.5v-1169.1" stroke="#4aff00"/><path transform="matrix(.10949 0 0 .10973 354.72 585.89)" d="m2485.5-2867.5v-1171.4" stroke="#4eff00"/><path transform="matrix(.10949 0 0 .10973 354.72 585.89)" d="m2496.2-2867.5v-1177.9" stroke="#52ff00"/><path transform="matrix(.10949 0 0 .10973 354.72 585.89)" d="m2506.8-2867.5v-1179.2" stroke="#56ff00"/><path transform="matrix(.10949 0 0 .10973 354.72 585.89)" d="m2517.5-2867.5v-1184" stroke="#59ff00"/><path transform="matrix(.10949 0 0 .10973 354.72 585.89)" d="m2528.1-2867.5v-1186.8" stroke="#5dff00"/><path transform="matrix(.10949 0 0 .10973 354.72 585.89)" d="m2538.8-2867.5v-1192.8" stroke="#61ff00"/><path transform="matrix(.10949 0 0 .10973 354.72 585.89)" d="m2549.4-2867.5v-1194.8" stroke="#65ff00"/><path transform="matrix(.10949 0 0 .10973 354.72 585.89)" d="m2560.1-2867.5v-1200.5" stroke="#68ff00"/><path transform="matrix(.10949 0 0 .10973 354.72 585.89)" d="m2570.7-2867.5v-1203" stroke="#6cff00"/><path transform="matrix(.10949 0 0 .10973 354.72 585.89)" d="m2581.4-2867.5v-1207.1" stroke="#6fff00"/><path transform="matrix(.10949 0 0 .10973 354.72 585.89)" d="m2592-2867.5v-1213.4" stroke="#73ff00"/><path transform="matrix(.10949 0 0 .10973 354.72 585.89)" d="m2602.7-2867.5v-1216.5" stroke="#7f0"/><path transform="matrix(.10949 0 0 .10973 354.72 585.89)" d="m2613.3-2867.5v-1220" stroke="#7aff00"/><path transform="matrix(.10949 0 0 .10973 354.72 585.89)" d="m2624-2867.5v-1220.9" stroke="#7eff00"/><path transform="matrix(.10949 0 0 .10973 354.72 585.89)" d="m2634.6-2867.5v-1225.8" stroke="#81ff00"/><path transform="matrix(.10949 0 0 .10973 354.72 585.89)" d="m2645.3-2867.5v-1230.2" stroke="#84ff00"/><path transform="matrix(.10949 0 0 .10973 354.72 585.89)" d="m2655.9-2867.5v-1234.4" stroke="#8f0"/><path transform="matrix(.10949 0 0 .10973 354.72 585.89)" d="m2666.6-2867.5v-1241.3" stroke="#8bff00"/><path transform="matrix(.10949 0 0 .10973 354.72 585.89)" d="m2677.2-2867.5v-1241.1" stroke="#8fff00"/><path transform="matrix(.10949 0 0 .10973 354.72 585.89)" d="m2687.8-2867.5v-1247.9" stroke="#92ff00"/><path transform="matrix(.10949 0 0 .10973 354.72 585.89)" d="m2698.5-2867.5v-1253.3" stroke="#95ff00"/><path transform="matrix(.10949 0 0 .10973 354.72 585.89)" d="m2709.2-2867.5v-1257" stroke="#9f0"/><path transform="matrix(.10949 0 0 .10973 354.72 585.89)" d="m2719.8-2867.5v-1257.9" stroke="#9cff00"/><path transform="matrix(.10949 0 0 .10973 354.72 585.89)" d="m2730.4-2867.5v-1263.2" stroke="#9fff00"/><path transform="matrix(.10949 0 0 .10973 354.72 585.89)" d="m2741.1-2867.5v-1267.4" stroke="#a2ff00"/><path transform="matrix(.10949 0 0 .10973 354.72 585.89)" d="m2751.7-2867.5v-1271.4" stroke="#a6ff00"/><path transform="matrix(.10949 0 0 .10973 354.72 585.89)" d="m2762.4-2867.5v-1272.3" stroke="#a9ff00"/><path transform="matrix(.10949 0 0 .10973 354.72 585.89)" d="m2773-2867.5v-1279.5" stroke="#acff00"/><path transform="matrix(.10949 0 0 .10973 354.72 585.89)" d="m2783.7-2867.5v-1280.7" stroke="#afff00"/><path transform="matrix(.10949 0 0 .10973 354.72 585.89)" d="m2794.3-2867.5v-1289.4" stroke="#b3ff00"/><path transform="matrix(.10949 0 0 .10973 354.72 585.89)" d="m2805-2867.5v-1288.5" stroke="#b6ff00"/><path transform="matrix(.10949 0 0 .10973 354.72 585.89)" d="m2815.6-2867.5v-1296.6" stroke="#b9ff00"/><path transform="matrix(.10949 0 0 .10973 354.72 585.89)" d="m2826.3-2867.5v-1297.4" stroke="#bcff00"/><path transform="matrix(.10949 0 0 .10973 354.72 585.89)" d="m2836.9-2867.5v-1301.3" stroke="#bfff00"/><path transform="matrix(.10949 0 0 .10973 354.72 585.89)" d="m2847.6-2867.5v-1305.7" stroke="#c2ff00"/><path transform="matrix(.10949 0 0 .10973 354.72 585.89)" d="m2858.2-2867.5v-1309" stroke="#c5ff00"/><path transform="matrix(.10949 0 0 .10973 354.72 585.89)" d="m2868.9-2867.5v-1309.7" stroke="#c9ff00"/><path transform="matrix(.10949 0 0 .10973 354.72 585.89)" d="m2879.5-2867.5v-1318.3" stroke="#cf0"/><path transform="matrix(.10949 0 0 .10973 354.72 585.89)" d="m2890.2-2867.5v-1318.3" stroke="#cfff00"/><path transform="matrix(.10949 0 0 .10973 354.72 585.89)" d="m2900.8-2867.5v-1323.6" stroke="#d2ff00"/><path transform="matrix(.10949 0 0 .10973 354.72 585.89)" d="m2911.5-2867.5v-1325.6" stroke="#d5ff00"/><path transform="matrix(.10949 0 0 .10973 354.72 585.89)" d="m2922.1-2867.5v-1331.6" stroke="#d8ff00"/><path transform="matrix(.10949 0 0 .10973 354.72 585.89)" d="m2932.8-2867.5v-1339.2" stroke="#dbff00"/><path transform="matrix(.10949 0 0 .10973 354.72 585.89)" d="m2943.4-2867.5v-1337.4" stroke="#deff00"/><path transform="matrix(.10949 0 0 .10973 354.72 585.89)" d="m2954-2867.5v-1340.6" stroke="#e1ff00"/><path transform="matrix(.10949 0 0 .10973 354.72 585.89)" d="m2964.7-2867.5v-1345.6" stroke="#e4ff00"/><path transform="matrix(.10949 0 0 .10973 354.72 585.89)" d="m2975.4-2867.5v-1347.7" stroke="#e7ff00"/><path transform="matrix(.10949 0 0 .10973 354.72 585.89)" d="m2986-2867.5v-1350.7" stroke="#eaff00"/><path transform="matrix(.10949 0 0 .10973 354.72 585.89)" d="m2996.6-2867.5v-1354.7" stroke="#edff00"/><path transform="matrix(.10949 0 0 .10973 354.72 585.89)" d="m3007.3-2867.5v-1355.8" stroke="#f0ff00"/><path transform="matrix(.10949 0 0 .10973 354.72 585.89)" d="m3018-2867.5v-1358.5" stroke="#f3ff00"/><path transform="matrix(.10949 0 0 .10973 354.72 585.89)" d="m3028.6-2867.5v-1359.6" stroke="#f6ff00"/><path transform="matrix(.10949 0 0 .10973 354.72 585.89)" d="m3039.2-2867.5v-1365.4" stroke="#f9ff00"/><path transform="matrix(.10949 0 0 .10973 354.72 585.89)" d="m3049.9-2867.5v-1366.7" stroke="#fcff00"/><path transform="matrix(.10949 0 0 .10973 354.72 585.89)" d="m3060.5-2867.5v-1368" stroke="#ff0"/><path transform="matrix(.10949 0 0 .10973 354.72 585.89)" d="m3071.2-2867.5v-1371.4" stroke="#fffb00"/><path transform="matrix(.10949 0 0 .10973 354.72 585.89)" d="m3081.8-2867.5v-1370.7" stroke="#fff800"/><path transform="matrix(.10949 0 0 .10973 354.72 585.89)" d="m3092.5-2867.5v-1373.2" stroke="#fff500"/><path transform="matrix(.10949 0 0 .10973 354.72 585.89)" d="m3103.1-2867.5v-1373.5" stroke="#fff200"/><path transform="matrix(.10949 0 0 .10973 354.72 585.89)" d="m3113.8-2867.5v-1374.7" stroke="#ffef00"/><path transform="matrix(.10949 0 0 .10973 354.72 585.89)" d="m3124.4-2867.5v-1375.5" stroke="#ffeb00"/><path transform="matrix(.10949 0 0 .10973 354.72 585.89)" d="m3135.1-2867.5v-1379.2" stroke="#ffe800"/><path transform="matrix(.10949 0 0 .10973 354.72 585.89)" d="m3145.7-2867.5v-1379.8" stroke="#ffe500"/><path transform="matrix(.10949 0 0 .10973 354.72 585.89)" d="m3156.4-2867.5v-1374.8" stroke="#ffe200"/><path transform="matrix(.10949 0 0 .10973 354.72 585.89)" d="m3167-2867.5v-1376.8" stroke="#ffdf00"/><path transform="matrix(.10949 0 0 .10973 354.72 585.89)" d="m3177.7-2867.5v-1373.4" stroke="#ffdb00"/><path transform="matrix(.10949 0 0 .10973 354.72 585.89)" d="m3188.3-2867.5v-1368.4" stroke="#ffd800"/><path transform="matrix(.10949 0 0 .10973 354.72 585.89)" d="m3199-2867.5v-1371.4" stroke="#ffd500"/><path transform="matrix(.10949 0 0 .10973 354.72 585.89)" d="m3209.6-2867.5v-1366.2" stroke="#ffd200"/><path transform="matrix(.10949 0 0 .10973 354.72 585.89)" d="m3220.3-2867.5v-1365.9" stroke="#ffce00"/><path transform="matrix(.10949 0 0 .10973 354.72 585.89)" d="m3230.9-2867.5v-1361.8" stroke="#ffcb00"/><path transform="matrix(.10949 0 0 .10973 354.72 585.89)" d="m3241.6-2867.5v-1355.5" stroke="#ffc800"/><path transform="matrix(.10949 0 0 .10973 354.72 585.89)" d="m3252.2-2867.5v-1351.1" stroke="#ffc400"/><path transform="matrix(.10949 0 0 .10973 354.72 585.89)" d="m3262.9-2867.5v-1349.6" stroke="#ffc100"/><path transform="matrix(.10949 0 0 .10973 354.72 585.89)" d="m3273.5-2867.5v-1341.3" stroke="#ffbe00"/><path transform="matrix(.10949 0 0 .10973 354.72 585.89)" d="m3284.2-2867.5v-1338.1" stroke="#ffba00"/><path transform="matrix(.10949 0 0 .10973 354.72 585.89)" d="m3294.8-2867.5v-1330.4" stroke="#ffb700"/><path transform="matrix(.10949 0 0 .10973 354.72 585.89)" d="m3305.4-2867.5v-1327.5" stroke="#ffb300"/><path transform="matrix(.10949 0 0 .10973 354.72 585.89)" d="m3316.1-2867.5v-1319.2" stroke="#ffb000"/><path transform="matrix(.10949 0 0 .10973 354.72 585.89)" d="m3326.7-2867.5v-1311.3" stroke="#ffac00"/><path transform="matrix(.10949 0 0 .10973 354.72 585.89)" d="m3337.4-2867.5v-1302.8" stroke="#ffa900"/><path transform="matrix(.10949 0 0 .10973 354.72 585.89)" d="m3348-2867.5v-1296.4" stroke="#ffa500"/><path transform="matrix(.10949 0 0 .10973 354.72 585.89)" d="m3358.7-2867.5v-1286" stroke="#ffa200"/><path transform="matrix(.10949 0 0 .10973 354.72 585.89)" d="m3369.3-2867.5v-1281.4" stroke="#ff9e00"/><path transform="matrix(.10949 0 0 .10973 354.72 585.89)" d="m3380-2867.5v-1265" stroke="#ff9b00"/><path transform="matrix(.10949 0 0 .10973 354.72 585.89)" d="m3390.6-2867.5v-1262.5" stroke="#ff9700"/><path transform="matrix(.10949 0 0 .10973 354.72 585.89)" d="m3401.3-2867.5v-1248.5" stroke="#ff9400"/><path transform="matrix(.10949 0 0 .10973 354.72 585.89)" d="m3411.9-2867.5v-1236" stroke="#ff9000"/><path transform="matrix(.10949 0 0 .10973 354.72 585.89)" d="m3422.6-2867.5v-1222.6" stroke="#ff8d00"/><path transform="matrix(.10949 0 0 .10973 354.72 585.89)" d="m3433.2-2867.5v-1211.7" stroke="#ff8900"/><path transform="matrix(.10949 0 0 .10973 354.72 585.89)" d="m3443.9-2867.5v-1201.9" stroke="#ff8500"/><path transform="matrix(.10949 0 0 .10973 354.72 585.89)" d="m3454.5-2867.5v-1188.4" stroke="#ff8100"/><path transform="matrix(.10949 0 0 .10973 354.72 585.89)" d="m3465.2-2867.5v-1177.7" stroke="#ff7e00"/><path transform="matrix(.10949 0 0 .10973 354.72 585.89)" d="m3475.8-2867.5v-1163.2" stroke="#ff7a00"/><path transform="matrix(.10949 0 0 .10973 354.72 585.89)" d="m3486.5-2867.5v-1151.3" stroke="#ff7600"/><path transform="matrix(.10949 0 0 .10973 354.72 585.89)" d="m3497.1-2867.5v-1137.8" stroke="#ff7200"/><path transform="matrix(.10949 0 0 .10973 354.72 585.89)" d="m3507.8-2867.5v-1122" stroke="#ff6f00"/><path transform="matrix(.10949 0 0 .10973 354.72 585.89)" d="m3518.4-2867.5v-1103.7" stroke="#ff6b00"/><path transform="matrix(.10949 0 0 .10973 354.72 585.89)" d="m3529.1-2867.5v-1092.2" stroke="#ff6700"/><path transform="matrix(.10949 0 0 .10973 354.72 585.89)" d="m3539.7-2867.5v-1081.1" stroke="#ff6300"/><path transform="matrix(.10949 0 0 .10973 354.72 585.89)" d="m3550.4-2867.5v-1060.7" stroke="#ff5f00"/><path transform="matrix(.10949 0 0 .10973 354.72 585.89)" d="m3561-2867.5v-1048.5" stroke="#ff5b00"/><path transform="matrix(.10949 0 0 .10973 354.72 585.89)" d="m3571.6-2867.5v-1033.9" stroke="#ff5700"/><path transform="matrix(.10949 0 0 .10973 354.72 585.89)" d="m3582.3-2867.5v-1015.7" stroke="#ff5300"/><path transform="matrix(.10949 0 0 .10973 354.72 585.89)" d="m3593-2867.5v-1000.1" stroke="#ff4e00"/><path transform="matrix(.10949 0 0 .10973 354.72 585.89)" d="m3603.6-2867.5v-982.24" stroke="#ff4a00"/><path transform="matrix(.10949 0 0 .10973 354.72 585.89)" d="m3614.2-2867.5v-965.7" stroke="#ff4600"/><path transform="matrix(.10949 0 0 .10973 354.72 585.89)" d="m3624.9-2867.5v-951.73" stroke="#ff4200"/><path transform="matrix(.10949 0 0 .10973 354.72 585.89)" d="m3635.5-2867.5v-935.6" stroke="#ff3d00"/><path transform="matrix(.10949 0 0 .10973 354.72 585.89)" d="m3646.2-2867.5v-920.31" stroke="#ff3900"/><path transform="matrix(.10949 0 0 .10973 354.72 585.89)" d="m3656.8-2867.5v-899.39" stroke="#ff3400"/><path transform="matrix(.10949 0 0 .10973 354.72 585.89)" d="m3667.5-2867.5v-882.51" stroke="#ff2f00"/><path transform="matrix(.10949 0 0 .10973 354.72 585.89)" d="m3678.1-2867.5v-871.66" stroke="#ff2a00"/><path transform="matrix(.10949 0 0 .10973 354.72 585.89)" d="m3688.8-2867.5v-852.97" stroke="#ff2500"/><path transform="matrix(.10949 0 0 .10973 354.72 585.89)" d="m3699.4-2867.5v-837.54" stroke="#ff2000"/><path transform="matrix(.10949 0 0 .10973 354.72 585.89)" d="m3710.1-2867.5v-815.86" stroke="#ff1b00"/><path transform="matrix(.10949 0 0 .10973 354.72 585.89)" d="m3720.7-2867.5v-798.76" stroke="#ff1500"/><path transform="matrix(.10949 0 0 .10973 354.72 585.89)" d="m3731.4-2867.5v-784.23" stroke="#ff0f00"/><path transform="matrix(.10949 0 0 .10973 354.72 585.89)" d="m3742-2867.5v-767.13" stroke="#ff0900"/><g stroke="#f00"><path transform="matrix(.10949 0 0 .10973 354.72 585.89)" d="m3752.7-2867.5v-752.19"/><path transform="matrix(.10949 0 0 .10973 354.72 585.89)" d="m3763.3-2867.5v-732.87"/><path transform="matrix(.10949 0 0 .10973 354.72 585.89)" d="m3774-2867.5v-718.34"/><path transform="matrix(.10949 0 0 .10973 354.72 585.89)" d="m3784.6-2867.5v-703.55"/><path transform="matrix(.10949 0 0 .10973 354.72 585.89)" d="m3795.3-2867.5v-688.6"/><path transform="matrix(.10949 0 0 .10973 354.72 585.89)" d="m3805.9-2867.5v-669.9"/><path transform="matrix(.10949 0 0 .10973 354.72 585.89)" d="m3816.6-2867.5v-653.64"/><path transform="matrix(.10949 0 0 .10973 354.72 585.89)" d="m3827.2-2867.5v-639.18"/><path transform="matrix(.10949 0 0 .10973 354.72 585.89)" d="m3837.8-2867.5v-626.05"/><path transform="matrix(.10949 0 0 .10973 354.72 585.89)" d="m3848.5-2867.5v-608.75"/><path transform="matrix(.10949 0 0 .10973 354.72 585.89)" d="m3859.2-2867.5v-590.4"/><path transform="matrix(.10949 0 0 .10973 354.72 585.89)" d="m3869.8-2867.5v-576.07"/><path transform="matrix(.10949 0 0 .10973 354.72 585.89)" d="m3880.4-2867.5v-568.36"/><path transform="matrix(.10949 0 0 .10973 354.72 585.89)" d="m3891.1-2867.5v-552.03"/><path transform="matrix(.10949 0 0 .10973 354.72 585.89)" d="m3901.7-2867.5v-539.32"/><path transform="matrix(.10949 0 0 .10973 354.72 585.89)" d="m3912.4-2867.5v-524.23"/><path transform="matrix(.10949 0 0 .10973 354.72 585.89)" d="m3923-2867.5v-507.69"/><path transform="matrix(.10949 0 0 .10973 354.72 585.89)" d="m3933.7-2867.5v-495.25"/><path transform="matrix(.10949 0 0 .10973 354.72 585.89)" d="m3944.3-2867.5v-483.15"/><path transform="matrix(.10949 0 0 .10973 354.72 585.89)" d="m3955-2867.5v-468"/><path transform="matrix(.10949 0 0 .10973 354.72 585.89)" d="m3965.6-2867.5v-454.38"/><path transform="matrix(.10949 0 0 .10973 354.72 585.89)" d="m3976.3-2867.5v-446.39"/><path transform="matrix(.10949 0 0 .10973 354.72 585.89)" d="m3986.9-2867.5v-433.12"/><path transform="matrix(.10949 0 0 .10973 354.72 585.89)" d="m3997.6-2867.5v-419.35"/><path transform="matrix(.10949 0 0 .10973 354.72 585.89)" d="m4008.2-2867.5v-413.03"/><path transform="matrix(.10949 0 0 .10973 354.72 585.89)" d="m4018.9-2867.5v-399"/><path transform="matrix(.10949 0 0 .10973 354.72 585.89)" d="m4029.5-2867.5v-387.04"/><path transform="matrix(.10949 0 0 .10973 354.72 585.89)" d="m4040.2-2867.5v-376.13"/><path transform="matrix(.10949 0 0 .10973 354.72 585.89)" d="m4050.8-2867.5v-369.31"/><path transform="matrix(.10949 0 0 .10973 354.72 585.89)" d="m4061.5-2867.5v-354.38"/><path transform="matrix(.10949 0 0 .10973 354.72 585.89)" d="m4072.1-2867.5v-343.11"/><path transform="matrix(.10949 0 0 .10973 354.72 585.89)" d="m4082.8-2867.5v-332.9"/><path transform="matrix(.10949 0 0 .10973 354.72 585.89)" d="m4093.4-2867.5v-329.15"/><path transform="matrix(.10949 0 0 .10973 354.72 585.89)" d="m4104.1-2867.5v-317.75"/><path transform="matrix(.10949 0 0 .10973 354.72 585.89)" d="m4114.7-2867.5v-303.49"/><path transform="matrix(.10949 0 0 .10973 354.72 585.89)" d="m4125.4-2867.5v-298.77"/><path transform="matrix(.10949 0 0 .10973 354.72 585.89)" d="m4136-2867.5v-291.61"/><path transform="matrix(.10949 0 0 .10973 354.72 585.89)" d="m4146.7-2867.5v-281.26"/><path transform="matrix(.10949 0 0 .10973 354.72 585.89)" d="m4157.3-2867.5v-268.82"/><path transform="matrix(.10949 0 0 .10973 354.72 585.89)" d="m4167.9-2867.5v-265.55"/><path transform="matrix(.10949 0 0 .10973 354.72 585.89)" d="m4178.6-2867.5v-257.08"/><path transform="matrix(.10949 0 0 .10973 354.72 585.89)" d="m4189.2-2867.5v-249.29"/><path transform="matrix(.10949 0 0 .10973 354.72 585.89)" d="m4199.9-2867.5v-242.69"/><path transform="matrix(.10949 0 0 .10973 354.72 585.89)" d="m4210.5-2867.5v-234.98"/><path transform="matrix(.10949 0 0 .10973 354.72 585.89)" d="m4221.2-2867.5v-227.46"/><path transform="matrix(.10949 0 0 .10973 354.72 585.89)" d="m4231.8-2867.5v-220.87"/><path transform="matrix(.10949 0 0 .10973 354.72 585.89)" d="m4242.5-2867.5v-214.75"/><path transform="matrix(.10949 0 0 .10973 354.72 585.89)" d="m4253.1-2867.5v-205.5"/><path transform="matrix(.10949 0 0 .10973 354.72 585.89)" d="m4263.8-2867.5v-200.78"/><path transform="matrix(.10949 0 0 .10973 354.72 585.89)" d="m4274.4-2867.5v-195.91"/><path transform="matrix(.10949 0 0 .10973 354.72 585.89)" d="m4285.1-2867.5v-190.57"/><path transform="matrix(.10949 0 0 .10973 354.72 585.89)" d="m4295.7-2867.5v-182.29"/><path transform="matrix(.10949 0 0 .10973 354.72 585.89)" d="m4306.4-2867.5v-178.33"/><path transform="matrix(.10949 0 0 .10973 354.72 585.89)" d="m4317-2867.5v-169.64"/><path transform="matrix(.10949 0 0 .10973 354.72 585.89)" d="m4327.7-2867.5v-168.95"/><path transform="matrix(.10949 0 0 .10973 354.72 585.89)" d="m4338.3-2867.5v-161.38"/></g><path transform="matrix(.10949 0 0 .10973 354.72 585.89)" d="m4349-2867.5v-157.96" stroke="#fd0000"/><path transform="matrix(.10949 0 0 .10973 354.72 585.89)" d="m4359.6-2867.5v-151.43" stroke="#fc0000"/><path transform="matrix(.10949 0 0 .10973 354.72 585.89)" d="m4370.3-2867.5v-144.77" stroke="#fa0000"/><path transform="matrix(.10949 0 0 .10973 354.72 585.89)" d="m4380.9-2867.5v-141.56" stroke="#f90000"/><path transform="matrix(.10949 0 0 .10973 354.72 585.89)" d="m4391.6-2867.5v-137.39" stroke="#f70000"/><path transform="matrix(.10949 0 0 .10973 354.72 585.89)" d="m4402.2-2867.5v-132.53" stroke="#f60000"/><path transform="matrix(.10949 0 0 .10973 354.72 585.89)" d="m4412.9-2867.5v-123.91" stroke="#f40000"/><path transform="matrix(.10949 0 0 .10973 354.72 585.89)" d="m4423.5-2867.5v-126.34" stroke="#f30000"/><path transform="matrix(.10949 0 0 .10973 354.72 585.89)" d="m4434.2-2867.5v-118.21" stroke="#f20000"/><path transform="matrix(.10949 0 0 .10973 354.72 585.89)" d="m4444.8-2867.5v-112.23" stroke="#f00000"/><path transform="matrix(.10949 0 0 .10973 354.72 585.89)" d="m4455.4-2867.5v-112.65" stroke="#ef0000"/><path transform="matrix(.10949 0 0 .10973 354.72 585.89)" d="m4466.1-2867.5v-105.21" stroke="#ed0000"/><path transform="matrix(.10949 0 0 .10973 354.72 585.89)" d="m4476.8-2867.5v-106.95" stroke="#ec0000"/><path transform="matrix(.10949 0 0 .10973 354.72 585.89)" d="m4487.4-2867.5v-98.41" stroke="#ea0000"/><path transform="matrix(.10949 0 0 .10973 354.72 585.89)" d="m4498-2867.5v-97.57" stroke="#e90000"/><path transform="matrix(.10949 0 0 .10973 354.72 585.89)" d="m4508.7-2867.5v-94.72" stroke="#e70000"/><path transform="matrix(.10949 0 0 .10973 354.72 585.89)" d="m4519.3-2867.5v-91.18" stroke="#e60000"/><path transform="matrix(.10949 0 0 .10973 354.72 585.89)" d="m4530-2867.5v-89.85" stroke="#e40000"/><path transform="matrix(.10949 0 0 .10973 354.72 585.89)" d="m4540.6-2867.5v-83.39" stroke="#e30000"/><path transform="matrix(.10949 0 0 .10973 354.72 585.89)" d="m4551.3-2867.5v-80.54" stroke="#e20000"/><path transform="matrix(.10949 0 0 .10973 354.72 585.89)" d="m4561.9-2867.5v-80.61" stroke="#e00000"/><path transform="matrix(.10949 0 0 .10973 354.72 585.89)" d="m4572.6-2867.5v-81.31" stroke="#df0000"/><path transform="matrix(.10949 0 0 .10973 354.72 585.89)" d="m4583.2-2867.5v-69.15" stroke="#d00"/><path transform="matrix(.10949 0 0 .10973 354.72 585.89)" d="m4593.9-2867.5v-71.57" stroke="#dc0000"/><path transform="matrix(.10949 0 0 .10973 354.72 585.89)" d="m4604.5-2867.5v-68.45" stroke="#da0000"/><path transform="matrix(.10949 0 0 .10973 354.72 585.89)" d="m4615.2-2867.5v-68.24" stroke="#d90000"/><path transform="matrix(.10949 0 0 .10973 354.72 585.89)" d="m4625.8-2867.5v-65.53" stroke="#d70000"/><path transform="matrix(.10949 0 0 .10973 354.72 585.89)" d="m4636.5-2867.5v-61.71" stroke="#d60000"/><path transform="matrix(.10949 0 0 .10973 354.72 585.89)" d="m4647.1-2867.5v-62.47" stroke="#d40000"/><path transform="matrix(.10949 0 0 .10973 354.72 585.89)" d="m4657.8-2867.5v-59.9" stroke="#d30000"/><path transform="matrix(.10949 0 0 .10973 354.72 585.89)" d="m4668.4-2867.5v-60.25" stroke="#d10000"/><path transform="matrix(.10949 0 0 .10973 354.72 585.89)" d="m4679.1-2867.5v-57.19" stroke="#d00000"/><path transform="matrix(.10949 0 0 .10973 354.72 585.89)" d="m4689.7-2867.5v-49.27" stroke="#ce0000"/><path transform="matrix(.10949 0 0 .10973 354.72 585.89)" d="m4700.4-2867.5v-57.33" stroke="#cd0000"/><path transform="matrix(.10949 0 0 .10973 354.72 585.89)" d="m4711-2867.5v-50.04" stroke="#cb0000"/><path transform="matrix(.10949 0 0 .10973 354.72 585.89)" d="m4721.7-2867.5v-50.87" stroke="#ca0000"/><path transform="matrix(.10949 0 0 .10973 354.72 585.89)" d="m4732.3-2867.5v-45.59" stroke="#c80000"/><path transform="matrix(.10949 0 0 .10973 354.72 585.89)" d="m4743-2867.5v-46.34" stroke="#c70000"/><path transform="matrix(.10949 0 0 .10973 354.72 585.89)" d="m4753.6-2867.5v-41.41" stroke="#c50000"/><path transform="matrix(.10949 0 0 .10973 354.72 585.89)" d="m4764.2-2867.5v-38.5" stroke="#c40000"/><path transform="matrix(.10949 0 0 .10973 354.72 585.89)" d="m4774.9-2867.5v-38.22" stroke="#c20000"/><path transform="matrix(.10949 0 0 .10973 354.72 585.89)" d="m4785.5-2867.5v-34.26" stroke="#c10000"/><path transform="matrix(.10949 0 0 .10973 354.72 585.89)" d="m4796.2-2867.5v-31.48" stroke="#bf0000"/><path transform="matrix(.10949 0 0 .10973 354.72 585.89)" d="m4806.8-2867.5v-37.38" stroke="#bd0000"/><path transform="matrix(.10949 0 0 .10973 354.72 585.89)" d="m4817.5-2867.5v-34.47" stroke="#bc0000"/><path transform="matrix(.10949 0 0 .10973 354.72 585.89)" d="m4828.1-2867.5v-36.48" stroke="#ba0000"/><path transform="matrix(.10949 0 0 .10973 354.72 585.89)" d="m4838.8-2867.5v-32.1" stroke="#b90000"/><path transform="matrix(.10949 0 0 .10973 354.72 585.89)" d="m4849.4-2867.5v-35.58" stroke="#b70000"/><path transform="matrix(.10949 0 0 .10973 354.72 585.89)" d="m4860.1-2867.5v-29.18" stroke="#b60000"/><path transform="matrix(.10949 0 0 .10973 354.72 585.89)" d="m4870.7-2867.5v-27.51" stroke="#b40000"/><path transform="matrix(.10949 0 0 .10973 354.72 585.89)" d="m4881.4-2867.5v-26.34" stroke="#b30000"/><path transform="matrix(.10949 0 0 .10973 354.72 585.89)" d="m4892-2867.5v-25.43" stroke="#b10000"/><path transform="matrix(.10949 0 0 .10973 354.72 585.89)" d="m4902.7-2867.5v-22.99" stroke="#af0000"/><path transform="matrix(.10949 0 0 .10973 354.72 585.89)" d="m4913.3-2867.5v-18.69" stroke="#ae0000"/><path transform="matrix(.10949 0 0 .10973 354.72 585.89)" d="m4924-2867.5v-23.27" stroke="#ac0000"/><path transform="matrix(.10949 0 0 .10973 354.72 585.89)" d="m4934.6-2867.5v-22.17" stroke="#ab0000"/><path transform="matrix(.10949 0 0 .10973 354.72 585.89)" d="m4945.3-2867.5v-20.84" stroke="#a90000"/><path transform="matrix(.10949 0 0 .10973 354.72 585.89)" d="m4955.9-2867.5v-12.71" stroke="#a80000"/><path transform="matrix(.10949 0 0 .10973 354.72 585.89)" d="m4966.6-2867.5v-22.92" stroke="#a60000"/><path transform="matrix(.10949 0 0 .10973 354.72 585.89)" d="m4977.2-2867.5v-16.12" stroke="#a40000"/><path transform="matrix(.10949 0 0 .10973 354.72 585.89)" d="m4987.9-2867.5v-19.73" stroke="#a30000"/><path transform="matrix(.10949 0 0 .10973 354.72 585.89)" d="m4998.5-2867.5v-23.56" stroke="#a10000"/><path transform="matrix(.10949 0 0 .10973 354.72 585.89)" d="m5009.2-2867.5v-26.41" stroke="#a00000"/><path transform="matrix(.10949 0 0 .10973 354.72 585.89)" d="m5019.8-2867.5v-20.28" stroke="#9e0000"/><path transform="matrix(.10949 0 0 .10973 354.72 585.89)" d="m5030.5-2867.5v-20.84" stroke="#9c0000"/><path transform="matrix(.10949 0 0 .10973 354.72 585.89)" d="m5041.1-2867.5v-18.62" stroke="#9b0000"/><path transform="matrix(.10949 0 0 .10973 354.72 585.89)" d="m5051.8-2867.5v-8.33" stroke="#900"/><path transform="matrix(.10949 0 0 .10973 354.72 585.89)" d="m5062.4-2867.5v-17.37" stroke="#980000"/><path transform="matrix(.10949 0 0 .10973 354.72 585.89)" d="m5073-2867.5v-12.16" stroke="#960000"/><path transform="matrix(.10949 0 0 .10973 354.72 585.89)" d="m5083.7-2867.5v-10.56" stroke="#940000"/><path transform="matrix(.10949 0 0 .10973 354.72 585.89)" d="m5094.3-2867.5v-16.12" stroke="#930000"/><path transform="matrix(.10949 0 0 .10973 354.72 585.89)" d="m5105-2867.5v-14.73" stroke="#910000"/><path transform="matrix(.10949 0 0 .10973 354.72 585.89)" d="m5115.6-2867.5v-9.79" stroke="#8f0000"/><path transform="matrix(.10949 0 0 .10973 354.72 585.89)" d="m5126.3-2867.5v-17.16" stroke="#8e0000"/><path transform="matrix(.10949 0 0 .10973 354.72 585.89)" d="m5136.9-2867.5v-9.93" stroke="#8c0000"/><path transform="matrix(.10949 0 0 .10973 354.72 585.89)" d="m5147.6-2867.5v-11.18" stroke="#8a0000"/><path transform="matrix(.10949 0 0 .10973 354.72 585.89)" d="m5158.2-2867.5v-9.86" stroke="#890000"/><path transform="matrix(.10949 0 0 .10973 354.72 585.89)" d="m5168.9-2867.5v-10.28" stroke="#870000"/><path transform="matrix(.10949 0 0 .10973 354.72 585.89)" d="m5179.5-2867.5v-8.68" stroke="#850000"/><path transform="matrix(.10949 0 0 .10973 354.72 585.89)" d="m5190.2-2867.5v-9.93" stroke="#840000"/><path transform="matrix(.10949 0 0 .10973 354.72 585.89)" d="m5200.8-2867.5v-6.11" stroke="#820000"/><path transform="matrix(.10949 0 0 .10973 354.72 585.89)" d="m5211.5-2867.5v-2.71" stroke="#800000"/><path transform="matrix(.10949 0 0 .10973 354.72 585.89)" d="m5222.1-2867.5v-7.64" stroke="#7f0000"/><path transform="matrix(.10949 0 0 .10973 354.72 585.89)" d="m5232.8-2867.5v-8.82" stroke="#7d0000"/><path transform="matrix(.10949 0 0 .10973 354.72 585.89)" d="m5243.4-2867.5v-8.89" stroke="#7b0000"/><path transform="matrix(.10949 0 0 .10973 354.72 585.89)" d="m5254.1-2867.5v-5.21" stroke="#7a0000"/><path transform="matrix(.10949 0 0 .10973 354.72 585.89)" d="m5264.7-2867.5v-5.83" stroke="#780000"/><path transform="matrix(.10949 0 0 .10973 354.72 585.89)" d="m5275.4-2867.5v-8.27" stroke="#760000"/><path transform="matrix(.10949 0 0 .10973 354.72 585.89)" d="m5286-2867.5v-11.81" stroke="#740000"/><path transform="matrix(.10949 0 0 .10973 354.72 585.89)" d="m5296.7-2867.5v-2.9" stroke="#730000"/><path transform="matrix(.10949 0 0 .10973 354.72 585.89)" d="m5307.3-2867.5v-2.99" stroke="#710000"/><path transform="matrix(.10949 0 0 .10973 354.72 585.89)" d="m5318-2867.5v-3.88" stroke="#6f0000"/><path transform="matrix(.10949 0 0 .10973 354.72 585.89)" d="m5328.6-2867.5v-4.31" stroke="#6d0000"/><path transform="matrix(.10949 0 0 .10973 354.72 585.89)" d="m5339.2-2867.5v-7.99" stroke="#6c0000"/><path transform="matrix(.10949 0 0 .10973 354.72 585.89)" d="m5349.9-2867.5v-5.9" stroke="#6a0000"/><path transform="matrix(.10949 0 0 .10973 354.72 585.89)" d="m5360.6-2867.5v-7.78" stroke="#680000"/><path transform="matrix(.10949 0 0 .10973 354.72 585.89)" d="m5371.2-2867.5v-5.97" stroke="#600"/><path transform="matrix(.10949 0 0 .10973 354.72 585.89)" d="m5381.8-2867.5v-1.25" stroke="#640000"/></g><path transform="matrix(.10949 0 0 .10973 354.72 585.89)" d="m930.9-2867.5v-3.75" fill="none" stroke="#610061" stroke-linejoin="round" stroke-miterlimit="2" stroke-width="24.339"/><g font-family="Lato" font-size="9.7293px" stroke-width="1.2162"><text transform="matrix(1.0949 0 0 1.0968 444.06 23.64)" x="5.3358564" style="font-variant-caps:normal;font-variant-east-asian:normal;font-variant-ligatures:normal;font-variant-numeric:normal" xml:space="preserve"><tspan x="5.3358564" y="0" fill="#000000" font-family="Lato" font-size="9.7293px" stroke-width="1.2162" text-align="end" text-anchor="end" style="font-variant-caps:normal;font-variant-east-asian:normal;font-variant-ligatures:normal;font-variant-numeric:normal">1</tspan></text><text transform="matrix(1.0949 0 0 1.0968 444.02 74.032)" x="5.3358564" style="font-variant-caps:normal;font-variant-east-asian:normal;font-variant-ligatures:normal;font-variant-numeric:normal" xml:space="preserve"><tspan x="5.3358564" y="0" fill="#000000" font-family="Lato" font-size="9.7293px" stroke-width="1.2162" text-align="end" text-anchor="end" style="font-variant-caps:normal;font-variant-east-asian:normal;font-variant-ligatures:normal;font-variant-numeric:normal">0.8</tspan></text><text transform="matrix(1.0949 0 0 1.0968 443.95 124.25)" x="5.3358564" style="font-variant-caps:normal;font-variant-east-asian:normal;font-variant-ligatures:normal;font-variant-numeric:normal" xml:space="preserve"><tspan x="5.3358564" y="0" fill="#000000" font-family="Lato" font-size="9.7293px" stroke-width="1.2162" text-align="end" text-anchor="end" style="font-variant-caps:normal;font-variant-east-asian:normal;font-variant-ligatures:normal;font-variant-numeric:normal">0.6</tspan></text><text transform="matrix(1.0949 0 0 1.0968 443.72 174.55)" x="5.3358564" style="font-variant-caps:normal;font-variant-east-asian:normal;font-variant-ligatures:normal;font-variant-numeric:normal" xml:space="preserve"><tspan x="5.3358564" y="0" fill="#000000" font-family="Lato" font-size="9.7293px" stroke-width="1.2162" text-align="end" text-anchor="end" style="font-variant-caps:normal;font-variant-east-asian:normal;font-variant-ligatures:normal;font-variant-numeric:normal">0.4</tspan></text><text transform="matrix(1.0949 0 0 1.0968 444.03 224.78)" x="5.3358564" style="font-variant-caps:normal;font-variant-east-asian:normal;font-variant-ligatures:normal;font-variant-numeric:normal" xml:space="preserve"><tspan x="5.3358564" y="0" fill="#000000" font-family="Lato" font-size="9.7293px" stroke-width="1.2162" text-align="end" text-anchor="end" style="font-variant-caps:normal;font-variant-east-asian:normal;font-variant-ligatures:normal;font-variant-numeric:normal">0.2</tspan></text><text transform="matrix(1.0949 0 0 1.0968 443.79 275.07)" x="5.3358564" style="font-variant-caps:normal;font-variant-east-asian:normal;font-variant-ligatures:normal;font-variant-numeric:normal" xml:space="preserve"><tspan x="5.3358564" y="0" fill="#000000" font-family="Lato" font-size="9.7293px" stroke-width="1.2162" text-align="end" text-anchor="end" style="font-variant-caps:normal;font-variant-east-asian:normal;font-variant-ligatures:normal;font-variant-numeric:normal">0</tspan></text><text transform="matrix(1.0949 0 0 1.0968 461.46 285.12)" x="15.907482" style="font-variant-caps:normal;font-variant-east-asian:normal;font-variant-ligatures:normal;font-variant-numeric:normal" xml:space="preserve"><tspan x="15.907481" y="0" fill="#000000" font-family="Lato" font-size="9.7293px" stroke-width="1.2162" text-align="center" text-anchor="middle" style="font-variant-caps:normal;font-variant-east-asian:normal;font-variant-ligatures:normal;font-variant-numeric:normal">400</tspan></text><text transform="matrix(1.0949 0 0 1.0968 578.1 285.12)" x="15.907482" style="font-variant-caps:normal;font-variant-east-asian:normal;font-variant-ligatures:normal;font-variant-numeric:normal" xml:space="preserve"><tspan x="15.907481" y="0" fill="#000000" font-family="Lato" font-size="9.7293px" stroke-width="1.2162" text-align="center" text-anchor="middle" style="font-variant-caps:normal;font-variant-east-asian:normal;font-variant-ligatures:normal;font-variant-numeric:normal">500</tspan></text><text transform="matrix(1.0949 0 0 1.0968 694.55 285.12)" x="15.907482" style="font-variant-caps:normal;font-variant-east-asian:normal;font-variant-ligatures:normal;font-variant-numeric:normal" xml:space="preserve"><tspan x="15.907481" y="0" fill="#000000" font-family="Lato" font-size="9.7293px" stroke-width="1.2162" text-align="center" text-anchor="middle" style="font-variant-caps:normal;font-variant-east-asian:normal;font-variant-ligatures:normal;font-variant-numeric:normal">600</tspan></text><text transform="matrix(1.0949 0 0 1.0968 811.19 285.12)" x="15.907482" style="font-variant-caps:normal;font-variant-east-asian:normal;font-variant-ligatures:normal;font-variant-numeric:normal" xml:space="preserve"><tspan x="15.907481" y="0" fill="#000000" font-family="Lato" font-size="9.7293px" stroke-width="1.2162" text-align="center" text-anchor="middle" style="font-variant-caps:normal;font-variant-east-asian:normal;font-variant-ligatures:normal;font-variant-numeric:normal">700</tspan></text><text transform="matrix(1.0949 0 0 1.0968 927.79 285.12)" x="15.907482" style="font-variant-caps:normal;font-variant-east-asian:normal;font-variant-ligatures:normal;font-variant-numeric:normal" xml:space="preserve"><tspan x="15.907481" y="0" fill="#000000" font-family="Lato" font-size="9.7293px" stroke-width="1.2162" text-align="center" text-anchor="middle" style="font-variant-caps:normal;font-variant-east-asian:normal;font-variant-ligatures:normal;font-variant-numeric:normal">800</tspan></text><text transform="matrix(0 -1.0968 1.0949 0 428 188.47)" style="font-variant-caps:normal;font-variant-east-asian:normal;font-variant-ligatures:normal;font-variant-numeric:normal" xml:space="preserve"><tspan x="0" y="0" fill="#000000" font-family="Lato" font-size="9.7293px" stroke-width="1.2162" style="font-variant-caps:normal;font-variant-east-asian:normal;font-variant-ligatures:normal;font-variant-numeric:normal">Relative Spectrum</tspan></text></g><g fill="none" stroke="#858585" stroke-width=".27518"><path transform="matrix(1.0897 0 0 1.0906 -212.26 343.61)" d="m617.27-296.75h-4.496v230.4h449.56v-4.4972"/><path transform="matrix(1.0897 0 0 1.0906 -212.26 343.61)" d="m612.77-250.67h4.496"/><path transform="matrix(1.0897 0 0 1.0906 -212.26 343.61)" d="m612.77-204.59h4.496"/><path transform="matrix(1.0897 0 0 1.0906 -212.26 343.61)" d="m612.77-158.5h4.496"/><path transform="matrix(1.0897 0 0 1.0906 -212.26 343.61)" d="m612.77-112.42h4.496"/><path transform="matrix(1.0897 0 0 1.0906 -212.26 343.61)" d="m634.18-66.344v-4.4972"/><path transform="matrix(1.0897 0 0 1.0906 -212.26 343.61)" d="m741.22-66.344 2e-5 -4.4972"/><path transform="matrix(1.0897 0 0 1.0906 -212.26 343.61)" d="m848.25-66.344 2e-5 -4.4972"/><path transform="matrix(1.0897 0 0 1.0906 -212.26 343.61)" d="m955.29-66.344v-4.4972"/></g><text transform="matrix(1.0938 0 0 1.0968 671.74 299.48)" x="36.944557" fill="#000000" font-family="Lato" font-size="9.7293px" stroke-width="1.2168" style="font-variant-caps:normal;font-variant-east-asian:normal;font-variant-ligatures:normal;font-variant-numeric:normal" xml:space="preserve"><tspan x="36.944557" y="0" fill="#000000" font-family="Lato" font-size="9.7293px" stroke-width="1.2168" text-align="center" text-anchor="middle" style="font-variant-caps:normal;font-variant-east-asian:normal;font-variant-ligatures:normal;font-variant-numeric:normal">WaveLength (nm)</tspan></text></svg>
