<?xml version="1.0" encoding="UTF-8" standalone="no"?>
<svg
   width="960"
   height="410"
   version="1.1"
   viewBox="0 0 254 108.48"
   xml:space="preserve"
   id="svg2193"
   sodipodi:docname="NW403HEPRO.svg"
   inkscape:version="1.2.2 (732a01da63, 2022-12-09)"
   xmlns:inkscape="http://www.inkscape.org/namespaces/inkscape"
   xmlns:sodipodi="http://sodipodi.sourceforge.net/DTD/sodipodi-0.dtd"
   xmlns="http://www.w3.org/2000/svg"
   xmlns:svg="http://www.w3.org/2000/svg"><defs
     id="defs2197" /><sodipodi:namedview
     id="namedview2195"
     pagecolor="#505050"
     bordercolor="#ffffff"
     borderopacity="1"
     inkscape:showpageshadow="0"
     inkscape:pageopacity="0"
     inkscape:pagecheckerboard="1"
     inkscape:deskcolor="#505050"
     showgrid="false"
     inkscape:zoom="3.2561405"
     inkscape:cx="571.53554"
     inkscape:cy="363.31356"
     inkscape:window-width="1680"
     inkscape:window-height="979"
     inkscape:window-x="1912"
     inkscape:window-y="-8"
     inkscape:window-maximized="1"
     inkscape:current-layer="g2051" /><g
     fill="none"
     stroke-linejoin="round"
     stroke-miterlimit="2"
     stroke-width="24.402"
     id="g2029"><path
       transform="matrix(.0289 0 0 .028953 93.92 154.83)"
       d="m930.9-2867.5v-7.5"
       stroke="#610061"
       id="path1187" /><path
       transform="matrix(.0289 0 0 .028953 93.92 154.83)"
       d="m941.55-2867.5v-24.15"
       stroke="#640065"
       id="path1189" /><path
       transform="matrix(.0289 0 0 .028953 93.92 154.83)"
       d="m952.2-2867.5v-15.97"
       stroke="#67006a"
       id="path1191" /><path
       transform="matrix(.0289 0 0 .028953 93.92 154.83)"
       d="m962.85-2867.5v-24.73"
       stroke="#6a006e"
       id="path1193" /><path
       transform="matrix(.0289 0 0 .028953 93.92 154.83)"
       d="m973.49-2867.5v-16.56"
       stroke="#6c0073"
       id="path1195" /><path
       transform="matrix(.0289 0 0 .028953 93.92 154.83)"
       d="m984.15-2867.5v-17.37"
       stroke="#6f0077"
       id="path1197" /><path
       transform="matrix(.0289 0 0 .028953 93.92 154.83)"
       d="m994.79-2867.5v-3.68"
       stroke="#71007b"
       id="path1199" /><path
       transform="matrix(.0289 0 0 .028953 93.92 154.83)"
       d="m1005.4-2867.5v-6.11"
       stroke="#73007f"
       id="path1201" /><path
       transform="matrix(.0289 0 0 .028953 93.92 154.83)"
       d="m1016.1-2867.5v-8.24"
       stroke="#750084"
       id="path1203" /><path
       transform="matrix(.0289 0 0 .028953 93.92 154.83)"
       d="m1026.7-2867.5v-9.49"
       stroke="#708"
       id="path1205" /><path
       transform="matrix(.0289 0 0 .028953 93.92 154.83)"
       d="m1037.4-2867.5v-3.75"
       stroke="#79008c"
       id="path1207" /><path
       transform="matrix(.0289 0 0 .028953 93.92 154.83)"
       d="m1048-2867.5v-5.89"
       stroke="#7b0090"
       id="path1209" /><path
       transform="matrix(.0289 0 0 .028953 93.92 154.83)"
       d="m1058.7-2867.5v-1.6"
       stroke="#7c0094"
       id="path1211" /><path
       transform="matrix(.0289 0 0 .028953 93.92 154.83)"
       d="m1069.3-2867.5v-5.52"
       stroke="#7d0098"
       id="path1213" /><path
       transform="matrix(.0289 0 0 .028953 93.92 154.83)"
       d="m1080-2867.5v-4.19"
       stroke="#7e009c"
       id="path1215" /><path
       transform="matrix(.0289 0 0 .028953 93.92 154.83)"
       d="m1090.6-2867.5v-2.35"
       stroke="#7f00a0"
       id="path1217" /><path
       transform="matrix(.0289 0 0 .028953 93.92 154.83)"
       d="m1101.3-2867.5v-5.22"
       stroke="#8000a4"
       id="path1219" /><path
       transform="matrix(.0289 0 0 .028953 93.92 154.83)"
       d="m1111.9-2867.5v-4.7"
       stroke="#8100a8"
       id="path1221" /><path
       transform="matrix(.0289 0 0 .028953 93.92 154.83)"
       d="m1122.6-2867.5v-7.8"
       stroke="#8100ac"
       id="path1223" /><path
       transform="matrix(.0289 0 0 .028953 93.92 154.83)"
       d="m1133.2-2867.5v-2.35"
       stroke="#8200b0"
       id="path1225" /><path
       transform="matrix(.0289 0 0 .028953 93.92 154.83)"
       d="m1143.9-2867.5v-4.34"
       stroke="#8200b4"
       id="path1227" /><path
       transform="matrix(.0289 0 0 .028953 93.92 154.83)"
       d="m1154.5-2867.5v-3.75"
       stroke="#8200b8"
       id="path1229" /><path
       transform="matrix(.0289 0 0 .028953 93.92 154.83)"
       d="m1165.2-2867.5v-6.11"
       stroke="#8200bc"
       id="path1231" /><path
       transform="matrix(.0289 0 0 .028953 93.92 154.83)"
       d="m1175.8-2867.5v-4.11"
       stroke="#8200c0"
       id="path1233" /><path
       transform="matrix(.0289 0 0 .028953 93.92 154.83)"
       d="m1186.5-2867.5v-7.14"
       stroke="#8200c4"
       id="path1235" /><path
       transform="matrix(.0289 0 0 .028953 93.92 154.83)"
       d="m1197.1-2867.5v-5.37"
       stroke="#8100c7"
       id="path1237" /><path
       transform="matrix(.0289 0 0 .028953 93.92 154.83)"
       d="m1207.8-2867.5v-4.64"
       stroke="#8100cb"
       id="path1239" /><path
       transform="matrix(.0289 0 0 .028953 93.92 154.83)"
       d="m1218.4-2867.5v-1.1"
       stroke="#8000cf"
       id="path1241" /><path
       transform="matrix(.0289 0 0 .028953 93.92 154.83)"
       d="m1229-2867.5v-3.38"
       stroke="#7f00d3"
       id="path1243" /><path
       transform="matrix(.0289 0 0 .028953 93.92 154.83)"
       d="m1239.7-2867.5v-5.74"
       stroke="#7e00d6"
       id="path1245" /><path
       transform="matrix(.0289 0 0 .028953 93.92 154.83)"
       d="m1250.4-2867.5v-6.84"
       stroke="#7d00da"
       id="path1247" /><path
       transform="matrix(.0289 0 0 .028953 93.92 154.83)"
       d="m1261-2867.5v-8.02"
       stroke="#7c00de"
       id="path1249" /><path
       transform="matrix(.0289 0 0 .028953 93.92 154.83)"
       d="m1271.6-2867.5v-7.36"
       stroke="#7a00e2"
       id="path1251" /><path
       transform="matrix(.0289 0 0 .028953 93.92 154.83)"
       d="m1282.3-2867.5v-9.94"
       stroke="#7900e5"
       id="path1253" /><path
       transform="matrix(.0289 0 0 .028953 93.92 154.83)"
       d="m1292.9-2867.5v-8.31"
       stroke="#7700e9"
       id="path1255" /><path
       transform="matrix(.0289 0 0 .028953 93.92 154.83)"
       d="m1303.6-2867.5v-13.69"
       stroke="#7500ec"
       id="path1257" /><path
       transform="matrix(.0289 0 0 .028953 93.92 154.83)"
       d="m1314.2-2867.5v-13.76"
       stroke="#7300f0"
       id="path1259" /><path
       transform="matrix(.0289 0 0 .028953 93.92 154.83)"
       d="m1324.9-2867.5v-16.41"
       stroke="#7100f4"
       id="path1261" /><path
       transform="matrix(.0289 0 0 .028953 93.92 154.83)"
       d="m1335.5-2867.5v-20.54"
       stroke="#6f00f7"
       id="path1263" /><path
       transform="matrix(.0289 0 0 .028953 93.92 154.83)"
       d="m1346.2-2867.5v-25.39"
       stroke="#6c00fb"
       id="path1265" /><path
       transform="matrix(.0289 0 0 .028953 93.92 154.83)"
       d="m1356.8-2867.5v-27.1"
       stroke="#6900ff"
       id="path1267" /><path
       transform="matrix(.0289 0 0 .028953 93.92 154.83)"
       d="m1367.5-2867.5v-26.87"
       stroke="#6500ff"
       id="path1269" /><path
       transform="matrix(.0289 0 0 .028953 93.92 154.83)"
       d="m1378.1-2867.5v-36.59"
       stroke="#6100ff"
       id="path1271" /><path
       transform="matrix(.0289 0 0 .028953 93.92 154.83)"
       d="m1388.8-2867.5v-44.04"
       stroke="#5c00ff"
       id="path1273" /><path
       transform="matrix(.0289 0 0 .028953 93.92 154.83)"
       d="m1399.4-2867.5v-46.16"
       stroke="#5800ff"
       id="path1275" /><path
       transform="matrix(.0289 0 0 .028953 93.92 154.83)"
       d="m1410.1-2867.5v-53.97"
       stroke="#5400ff"
       id="path1277" /><path
       transform="matrix(.0289 0 0 .028953 93.92 154.83)"
       d="m1420.7-2867.5v-60.38"
       stroke="#4f00ff"
       id="path1279" /><path
       transform="matrix(.0289 0 0 .028953 93.92 154.83)"
       d="m1431.4-2867.5v-72.23"
       stroke="#4b00ff"
       id="path1281" /><path
       transform="matrix(.0289 0 0 .028953 93.92 154.83)"
       d="m1442-2867.5v-84.39"
       stroke="#4600ff"
       id="path1283" /><path
       transform="matrix(.0289 0 0 .028953 93.92 154.83)"
       d="m1452.7-2867.5v-97.87"
       stroke="#4100ff"
       id="path1285" /><path
       transform="matrix(.0289 0 0 .028953 93.92 154.83)"
       d="m1463.3-2867.5v-112.37"
       stroke="#3c00ff"
       id="path1287" /><path
       transform="matrix(.0289 0 0 .028953 93.92 154.83)"
       d="m1474-2867.5v-132.99"
       stroke="#3700ff"
       id="path1289" /><path
       transform="matrix(.0289 0 0 .028953 93.92 154.83)"
       d="m1484.6-2867.5v-151.48"
       stroke="#3200ff"
       id="path1291" /><path
       transform="matrix(.0289 0 0 .028953 93.92 154.83)"
       d="m1495.2-2867.5v-173.2"
       stroke="#2d00ff"
       id="path1293" /><path
       transform="matrix(.0289 0 0 .028953 93.92 154.83)"
       d="m1505.9-2867.5v-199.57"
       stroke="#2800ff"
       id="path1295" /><path
       transform="matrix(.0289 0 0 .028953 93.92 154.83)"
       d="m1516.6-2867.5v-229.98"
       stroke="#20f"
       id="path1297" /><path
       transform="matrix(.0289 0 0 .028953 93.92 154.83)"
       d="m1527.2-2867.5v-262.39"
       stroke="#1d00ff"
       id="path1299" /><path
       transform="matrix(.0289 0 0 .028953 93.92 154.83)"
       d="m1537.8-2867.5v-301.78"
       stroke="#1700ff"
       id="path1301" /><path
       transform="matrix(.0289 0 0 .028953 93.92 154.83)"
       d="m1548.5-2867.5v-346.55"
       stroke="#1000ff"
       id="path1303" /><path
       transform="matrix(.0289 0 0 .028953 93.92 154.83)"
       d="m1559.2-2867.5v-396.79"
       stroke="#0900ff"
       id="path1305" /><path
       transform="matrix(.0289 0 0 .028953 93.92 154.83)"
       d="m1569.8-2867.5v-454.37"
       stroke="#00f"
       id="path1307" /><path
       transform="matrix(.0289 0 0 .028953 93.92 154.83)"
       d="m1580.4-2867.5v-523.6"
       stroke="#000bff"
       id="path1309" /><path
       transform="matrix(.0289 0 0 .028953 93.92 154.83)"
       d="m1591.1-2867.5v-603.2"
       stroke="#0013ff"
       id="path1311" /><path
       transform="matrix(.0289 0 0 .028953 93.92 154.83)"
       d="m1601.7-2867.5v-701.45"
       stroke="#001aff"
       id="path1313" /><path
       transform="matrix(.0289 0 0 .028953 93.92 154.83)"
       d="m1612.4-2867.5v-812.42"
       stroke="#0021ff"
       id="path1315" /><path
       transform="matrix(.0289 0 0 .028953 93.92 154.83)"
       d="m1623-2867.5v-942.63"
       stroke="#0028ff"
       id="path1317" /><path
       transform="matrix(.0289 0 0 .028953 93.92 154.83)"
       d="m1633.7-2867.5v-1094.6"
       stroke="#002eff"
       id="path1319" /><path
       transform="matrix(.0289 0 0 .028953 93.92 154.83)"
       d="m1644.3-2867.5v-1267.9"
       stroke="#0034ff"
       id="path1321" /><path
       transform="matrix(.0289 0 0 .028953 93.92 154.83)"
       d="m1655-2867.5v-1455.6"
       stroke="#003aff"
       id="path1323" /><path
       transform="matrix(.0289 0 0 .028953 93.92 154.83)"
       d="m1665.6-2867.5v-1640.3"
       stroke="#0040ff"
       id="path1325" /><path
       transform="matrix(.0289 0 0 .028953 93.92 154.83)"
       d="m1676.3-2867.5v-1830.8"
       stroke="#0046ff"
       id="path1327" /><path
       transform="matrix(.0289 0 0 .028953 93.92 154.83)"
       d="m1686.9-2867.5v-2004.3"
       stroke="#004bff"
       id="path1329" /><path
       transform="matrix(.0289 0 0 .028953 93.92 154.83)"
       d="m1697.6-2867.5v-2149.4"
       stroke="#0051ff"
       id="path1331" /><path
       transform="matrix(.0289 0 0 .028953 93.92 154.83)"
       d="m1708.2-2867.5v-2249.1"
       stroke="#0056ff"
       id="path1333" /><path
       transform="matrix(.0289 0 0 .028953 93.92 154.83)"
       d="m1718.9-2867.5v-2290.1"
       stroke="#005cff"
       id="path1335" /><path
       transform="matrix(.0289 0 0 .028953 93.92 154.83)"
       d="m1729.5-2867.5v-2286.6"
       stroke="#0061ff"
       id="path1337" /><path
       transform="matrix(.0289 0 0 .028953 93.92 154.83)"
       d="m1740.2-2867.5v-2243.7"
       stroke="#06f"
       id="path1339" /><path
       transform="matrix(.0289 0 0 .028953 93.92 154.83)"
       d="m1750.8-2867.5v-2132"
       stroke="#006bff"
       id="path1341" /><path
       transform="matrix(.0289 0 0 .028953 93.92 154.83)"
       d="m1761.5-2867.5v-2018.1"
       stroke="#0070ff"
       id="path1343" /><path
       transform="matrix(.0289 0 0 .028953 93.92 154.83)"
       d="m1772.1-2867.5v-1880"
       stroke="#0075ff"
       id="path1345" /><path
       transform="matrix(.0289 0 0 .028953 93.92 154.83)"
       d="m1782.8-2867.5v-1737.8"
       stroke="#007aff"
       id="path1347" /><path
       transform="matrix(.0289 0 0 .028953 93.92 154.83)"
       d="m1793.4-2867.5v-1603.7"
       stroke="#007fff"
       id="path1349" /><path
       transform="matrix(.0289 0 0 .028953 93.92 154.83)"
       d="m1804.1-2867.5v-1499.6"
       stroke="#0084ff"
       id="path1351" /><path
       transform="matrix(.0289 0 0 .028953 93.92 154.83)"
       d="m1814.7-2867.5v-1426.3"
       stroke="#0089ff"
       id="path1353" /><path
       transform="matrix(.0289 0 0 .028953 93.92 154.83)"
       d="m1825.4-2867.5v-1362.6"
       stroke="#008dff"
       id="path1355" /><path
       transform="matrix(.0289 0 0 .028953 93.92 154.83)"
       d="m1836-2867.5v-1328.4"
       stroke="#0092ff"
       id="path1357" /><path
       transform="matrix(.0289 0 0 .028953 93.92 154.83)"
       d="m1846.6-2867.5v-1297.2"
       stroke="#0097ff"
       id="path1359" /><path
       transform="matrix(.0289 0 0 .028953 93.92 154.83)"
       d="m1857.3-2867.5v-1274.5"
       stroke="#009bff"
       id="path1361" /><path
       transform="matrix(.0289 0 0 .028953 93.92 154.83)"
       d="m1868-2867.5v-1252.5"
       stroke="#00a0ff"
       id="path1363" /><path
       transform="matrix(.0289 0 0 .028953 93.92 154.83)"
       d="m1878.6-2867.5v-1217.2"
       stroke="#00a4ff"
       id="path1365" /><path
       transform="matrix(.0289 0 0 .028953 93.92 154.83)"
       d="m1889.2-2867.5v-1187.8"
       stroke="#00a9ff"
       id="path1367" /><path
       transform="matrix(.0289 0 0 .028953 93.92 154.83)"
       d="m1899.9-2867.5v-1136.3"
       stroke="#00adff"
       id="path1369" /><path
       transform="matrix(.0289 0 0 .028953 93.92 154.83)"
       d="m1910.5-2867.5v-1087.3"
       stroke="#00b2ff"
       id="path1371" /><path
       transform="matrix(.0289 0 0 .028953 93.92 154.83)"
       d="m1921.2-2867.5v-1034.2"
       stroke="#00b6ff"
       id="path1373" /><path
       transform="matrix(.0289 0 0 .028953 93.92 154.83)"
       d="m1931.8-2867.5v-982.69"
       stroke="#0bf"
       id="path1375" /><path
       transform="matrix(.0289 0 0 .028953 93.92 154.83)"
       d="m1942.5-2867.5v-927.62"
       stroke="#00bfff"
       id="path1377" /><path
       transform="matrix(.0289 0 0 .028953 93.92 154.83)"
       d="m1953.1-2867.5v-882.9"
       stroke="#00c4ff"
       id="path1379" /><path
       transform="matrix(.0289 0 0 .028953 93.92 154.83)"
       d="m1963.8-2867.5v-843.58"
       stroke="#00c8ff"
       id="path1381" /><path
       transform="matrix(.0289 0 0 .028953 93.92 154.83)"
       d="m1974.4-2867.5v-814.79"
       stroke="#0cf"
       id="path1383" /><path
       transform="matrix(.0289 0 0 .028953 93.92 154.83)"
       d="m1985.1-2867.5v-796.01"
       stroke="#00d1ff"
       id="path1385" /><path
       transform="matrix(.0289 0 0 .028953 93.92 154.83)"
       d="m1995.7-2867.5v-786.06"
       stroke="#00d5ff"
       id="path1387" /><path
       transform="matrix(.0289 0 0 .028953 93.92 154.83)"
       d="m2006.4-2867.5v-780.03"
       stroke="#00d9ff"
       id="path1389" /><path
       transform="matrix(.0289 0 0 .028953 93.92 154.83)"
       d="m2017-2867.5v-785.4"
       stroke="#0df"
       id="path1391" /><path
       transform="matrix(.0289 0 0 .028953 93.92 154.83)"
       d="m2027.7-2867.5v-787.31"
       stroke="#00e2ff"
       id="path1393" /><path
       transform="matrix(.0289 0 0 .028953 93.92 154.83)"
       d="m2038.3-2867.5v-799.91"
       stroke="#00e6ff"
       id="path1395" /><path
       transform="matrix(.0289 0 0 .028953 93.92 154.83)"
       d="m2049-2867.5v-811.69"
       stroke="#00eaff"
       id="path1397" /><path
       transform="matrix(.0289 0 0 .028953 93.92 154.83)"
       d="m2059.6-2867.5v-821.34"
       stroke="#0ef"
       id="path1399" /><path
       transform="matrix(.0289 0 0 .028953 93.92 154.83)"
       d="m2070.3-2867.5v-829.59"
       stroke="#00f2ff"
       id="path1401" /><path
       transform="matrix(.0289 0 0 .028953 93.92 154.83)"
       d="m2080.9-2867.5v-843.81"
       stroke="#00f6ff"
       id="path1403" /><path
       transform="matrix(.0289 0 0 .028953 93.92 154.83)"
       d="m2091.6-2867.5v-853.6"
       stroke="#00faff"
       id="path1405" /><path
       transform="matrix(.0289 0 0 .028953 93.92 154.83)"
       d="m2102.2-2867.5v-862.07"
       stroke="#0ff"
       id="path1407" /><path
       transform="matrix(.0289 0 0 .028953 93.92 154.83)"
       d="m2112.8-2867.5v-875.98"
       stroke="#00fff4"
       id="path1409" /><path
       transform="matrix(.0289 0 0 .028953 93.92 154.83)"
       d="m2123.5-2867.5v-894.1"
       stroke="#00ffea"
       id="path1411" /><path
       transform="matrix(.0289 0 0 .028953 93.92 154.83)"
       d="m2134.2-2867.5v-910.16"
       stroke="#00ffdf"
       id="path1413" /><path
       transform="matrix(.0289 0 0 .028953 93.92 154.83)"
       d="m2144.8-2867.5v-927.01"
       stroke="#00ffd5"
       id="path1415" /><path
       transform="matrix(.0289 0 0 .028953 93.92 154.83)"
       d="m2155.4-2867.5v-945.35"
       stroke="#00ffca"
       id="path1417" /><path
       transform="matrix(.0289 0 0 .028953 93.92 154.83)"
       d="m2166.1-2867.5v-966.71"
       stroke="#00ffbf"
       id="path1419" /><path
       transform="matrix(.0289 0 0 .028953 93.92 154.83)"
       d="m2176.7-2867.5v-989.69"
       stroke="#00ffb4"
       id="path1421" /><path
       transform="matrix(.0289 0 0 .028953 93.92 154.83)"
       d="m2187.4-2867.5v-1012.7"
       stroke="#00ffa9"
       id="path1423" /><path
       transform="matrix(.0289 0 0 .028953 93.92 154.83)"
       d="m2198-2867.5v-1034.3"
       stroke="#00ff9e"
       id="path1425" /><path
       transform="matrix(.0289 0 0 .028953 93.92 154.83)"
       d="m2208.7-2867.5v-1057.9"
       stroke="#00ff92"
       id="path1427" /><path
       transform="matrix(.0289 0 0 .028953 93.92 154.83)"
       d="m2219.3-2867.5v-1081.8"
       stroke="#00ff86"
       id="path1429" /><path
       transform="matrix(.0289 0 0 .028953 93.92 154.83)"
       d="m2230-2867.5v-1106.6"
       stroke="#00ff7a"
       id="path1431" /><path
       transform="matrix(.0289 0 0 .028953 93.92 154.83)"
       d="m2240.6-2867.5v-1131.4"
       stroke="#00ff6e"
       id="path1433" /><path
       transform="matrix(.0289 0 0 .028953 93.92 154.83)"
       d="m2251.3-2867.5v-1155.2"
       stroke="#00ff61"
       id="path1435" /><path
       transform="matrix(.0289 0 0 .028953 93.92 154.83)"
       d="m2261.9-2867.5v-1175.2"
       stroke="#00ff54"
       id="path1437" /><path
       transform="matrix(.0289 0 0 .028953 93.92 154.83)"
       d="m2272.6-2867.5v-1195.4"
       stroke="#00ff46"
       id="path1439" /><path
       transform="matrix(.0289 0 0 .028953 93.92 154.83)"
       d="m2283.2-2867.5v-1216.2"
       stroke="#00ff37"
       id="path1441" /><path
       transform="matrix(.0289 0 0 .028953 93.92 154.83)"
       d="m2293.9-2867.5v-1235.7"
       stroke="#00ff28"
       id="path1443" /><path
       transform="matrix(.0289 0 0 .028953 93.92 154.83)"
       d="m2304.5-2867.5v-1251.9"
       stroke="#00ff17"
       id="path1445" /><path
       transform="matrix(.0289 0 0 .028953 93.92 154.83)"
       d="m2315.2-2867.5v-1271"
       stroke="#0f0"
       id="path1447" /><path
       transform="matrix(.0289 0 0 .028953 93.92 154.83)"
       d="m2325.8-2867.5v-1282.5"
       stroke="#08ff00"
       id="path1449" /><path
       transform="matrix(.0289 0 0 .028953 93.92 154.83)"
       d="m2336.5-2867.5v-1298.6"
       stroke="#0eff00"
       id="path1451" /><path
       transform="matrix(.0289 0 0 .028953 93.92 154.83)"
       d="m2347.1-2867.5v-1319.6"
       stroke="#14ff00"
       id="path1453" /><path
       transform="matrix(.0289 0 0 .028953 93.92 154.83)"
       d="m2357.8-2867.5v-1329.3"
       stroke="#19ff00"
       id="path1455" /><path
       transform="matrix(.0289 0 0 .028953 93.92 154.83)"
       d="m2368.4-2867.5v-1345.4"
       stroke="#1eff00"
       id="path1457" /><path
       transform="matrix(.0289 0 0 .028953 93.92 154.83)"
       d="m2379.1-2867.5v-1360.8"
       stroke="#23ff00"
       id="path1459" /><path
       transform="matrix(.0289 0 0 .028953 93.92 154.83)"
       d="m2389.7-2867.5v-1374.6"
       stroke="#28ff00"
       id="path1461" /><path
       transform="matrix(.0289 0 0 .028953 93.92 154.83)"
       d="m2400.4-2867.5v-1380.2"
       stroke="#2cff00"
       id="path1463" /><path
       transform="matrix(.0289 0 0 .028953 93.92 154.83)"
       d="m2411-2867.5v-1397.9"
       stroke="#31ff00"
       id="path1465" /><path
       transform="matrix(.0289 0 0 .028953 93.92 154.83)"
       d="m2421.6-2867.5v-1408.9"
       stroke="#35ff00"
       id="path1467" /><path
       transform="matrix(.0289 0 0 .028953 93.92 154.83)"
       d="m2432.3-2867.5v-1417.3"
       stroke="#3aff00"
       id="path1469" /><path
       transform="matrix(.0289 0 0 .028953 93.92 154.83)"
       d="m2442.9-2867.5v-1429.4"
       stroke="#3eff00"
       id="path1471" /><path
       transform="matrix(.0289 0 0 .028953 93.92 154.83)"
       d="m2453.6-2867.5v-1440.2"
       stroke="#42ff00"
       id="path1473" /><path
       transform="matrix(.0289 0 0 .028953 93.92 154.83)"
       d="m2464.2-2867.5v-1452.5"
       stroke="#46ff00"
       id="path1475" /><path
       transform="matrix(.0289 0 0 .028953 93.92 154.83)"
       d="m2474.9-2867.5v-1464.4"
       stroke="#4aff00"
       id="path1477" /><path
       transform="matrix(.0289 0 0 .028953 93.92 154.83)"
       d="m2485.5-2867.5v-1468.3"
       stroke="#4eff00"
       id="path1479" /><path
       transform="matrix(.0289 0 0 .028953 93.92 154.83)"
       d="m2496.2-2867.5v-1479.2"
       stroke="#52ff00"
       id="path1481" /><path
       transform="matrix(.0289 0 0 .028953 93.92 154.83)"
       d="m2506.8-2867.5v-1491.2"
       stroke="#56ff00"
       id="path1483" /><path
       transform="matrix(.0289 0 0 .028953 93.92 154.83)"
       d="m2517.5-2867.5v-1498"
       stroke="#59ff00"
       id="path1485" /><path
       transform="matrix(.0289 0 0 .028953 93.92 154.83)"
       d="m2528.1-2867.5v-1506.2"
       stroke="#5dff00"
       id="path1487" /><path
       transform="matrix(.0289 0 0 .028953 93.92 154.83)"
       d="m2538.8-2867.5v-1515.3"
       stroke="#61ff00"
       id="path1489" /><path
       transform="matrix(.0289 0 0 .028953 93.92 154.83)"
       d="m2549.4-2867.5v-1523.2"
       stroke="#65ff00"
       id="path1491" /><path
       transform="matrix(.0289 0 0 .028953 93.92 154.83)"
       d="m2560.1-2867.5v-1532.2"
       stroke="#68ff00"
       id="path1493" /><path
       transform="matrix(.0289 0 0 .028953 93.92 154.83)"
       d="m2570.7-2867.5v-1540.5"
       stroke="#6cff00"
       id="path1495" /><path
       transform="matrix(.0289 0 0 .028953 93.92 154.83)"
       d="m2581.4-2867.5v-1547.1"
       stroke="#6fff00"
       id="path1497" /><path
       transform="matrix(.0289 0 0 .028953 93.92 154.83)"
       d="m2592-2867.5v-1550.5"
       stroke="#73ff00"
       id="path1499" /><path
       transform="matrix(.0289 0 0 .028953 93.92 154.83)"
       d="m2602.7-2867.5v-1562.1"
       stroke="#7f0"
       id="path1501" /><path
       transform="matrix(.0289 0 0 .028953 93.92 154.83)"
       d="m2613.3-2867.5v-1567.8"
       stroke="#7aff00"
       id="path1503" /><path
       transform="matrix(.0289 0 0 .028953 93.92 154.83)"
       d="m2624-2867.5v-1576.3"
       stroke="#7eff00"
       id="path1505" /><path
       transform="matrix(.0289 0 0 .028953 93.92 154.83)"
       d="m2634.6-2867.5v-1584.7"
       stroke="#81ff00"
       id="path1507" /><path
       transform="matrix(.0289 0 0 .028953 93.92 154.83)"
       d="m2645.3-2867.5v-1591.2"
       stroke="#84ff00"
       id="path1509" /><path
       transform="matrix(.0289 0 0 .028953 93.92 154.83)"
       d="m2655.9-2867.5v-1588.4"
       stroke="#8f0"
       id="path1511" /><path
       transform="matrix(.0289 0 0 .028953 93.92 154.83)"
       d="m2666.6-2867.5v-1600.5"
       stroke="#8bff00"
       id="path1513" /><path
       transform="matrix(.0289 0 0 .028953 93.92 154.83)"
       d="m2677.2-2867.5v-1606.2"
       stroke="#8fff00"
       id="path1515" /><path
       transform="matrix(.0289 0 0 .028953 93.92 154.83)"
       d="m2687.8-2867.5v-1607"
       stroke="#92ff00"
       id="path1517" /><path
       transform="matrix(.0289 0 0 .028953 93.92 154.83)"
       d="m2698.5-2867.5v-1614.4"
       stroke="#95ff00"
       id="path1519" /><path
       transform="matrix(.0289 0 0 .028953 93.92 154.83)"
       d="m2709.2-2867.5v-1626"
       stroke="#9f0"
       id="path1521" /><path
       transform="matrix(.0289 0 0 .028953 93.92 154.83)"
       d="m2719.8-2867.5v-1626.6"
       stroke="#9cff00"
       id="path1523" /><path
       transform="matrix(.0289 0 0 .028953 93.92 154.83)"
       d="m2730.4-2867.5v-1631.5"
       stroke="#9fff00"
       id="path1525" /><path
       transform="matrix(.0289 0 0 .028953 93.92 154.83)"
       d="m2741.1-2867.5v-1636.4"
       stroke="#a2ff00"
       id="path1527" /><path
       transform="matrix(.0289 0 0 .028953 93.92 154.83)"
       d="m2751.7-2867.5v-1637.4"
       stroke="#a6ff00"
       id="path1529" /><path
       transform="matrix(.0289 0 0 .028953 93.92 154.83)"
       d="m2762.4-2867.5v-1646.8"
       stroke="#a9ff00"
       id="path1531" /><path
       transform="matrix(.0289 0 0 .028953 93.92 154.83)"
       d="m2773-2867.5v-1650.7"
       stroke="#acff00"
       id="path1533" /><path
       transform="matrix(.0289 0 0 .028953 93.92 154.83)"
       d="m2783.7-2867.5v-1650"
       stroke="#afff00"
       id="path1535" /><path
       transform="matrix(.0289 0 0 .028953 93.92 154.83)"
       d="m2794.3-2867.5v-1656.2"
       stroke="#b3ff00"
       id="path1537" /><path
       transform="matrix(.0289 0 0 .028953 93.92 154.83)"
       d="m2805-2867.5v-1658.6"
       stroke="#b6ff00"
       id="path1539" /><path
       transform="matrix(.0289 0 0 .028953 93.92 154.83)"
       d="m2815.6-2867.5v-1659.3"
       stroke="#b9ff00"
       id="path1541" /><path
       transform="matrix(.0289 0 0 .028953 93.92 154.83)"
       d="m2826.3-2867.5v-1667.4"
       stroke="#bcff00"
       id="path1543" /><path
       transform="matrix(.0289 0 0 .028953 93.92 154.83)"
       d="m2836.9-2867.5v-1668"
       stroke="#bfff00"
       id="path1545" /><path
       transform="matrix(.0289 0 0 .028953 93.92 154.83)"
       d="m2847.6-2867.5v-1668.9"
       stroke="#c2ff00"
       id="path1547" /><path
       transform="matrix(.0289 0 0 .028953 93.92 154.83)"
       d="m2858.2-2867.5v-1672"
       stroke="#c5ff00"
       id="path1549" /><path
       transform="matrix(.0289 0 0 .028953 93.92 154.83)"
       d="m2868.9-2867.5v-1671"
       stroke="#c9ff00"
       id="path1551" /><path
       transform="matrix(.0289 0 0 .028953 93.92 154.83)"
       d="m2879.5-2867.5v-1675.1"
       stroke="#cf0"
       id="path1553" /><path
       transform="matrix(.0289 0 0 .028953 93.92 154.83)"
       d="m2890.2-2867.5v-1679.2"
       stroke="#cfff00"
       id="path1555" /><path
       transform="matrix(.0289 0 0 .028953 93.92 154.83)"
       d="m2900.8-2867.5v-1680.8"
       stroke="#d2ff00"
       id="path1557" /><path
       transform="matrix(.0289 0 0 .028953 93.92 154.83)"
       d="m2911.5-2867.5v-1679.1"
       stroke="#d5ff00"
       id="path1559" /><path
       transform="matrix(.0289 0 0 .028953 93.92 154.83)"
       d="m2922.1-2867.5v-1682.9"
       stroke="#d8ff00"
       id="path1561" /><path
       transform="matrix(.0289 0 0 .028953 93.92 154.83)"
       d="m2932.8-2867.5v-1684.8"
       stroke="#dbff00"
       id="path1563" /><path
       transform="matrix(.0289 0 0 .028953 93.92 154.83)"
       d="m2943.4-2867.5v-1687.2"
       stroke="#deff00"
       id="path1565" /><path
       transform="matrix(.0289 0 0 .028953 93.92 154.83)"
       d="m2954-2867.5v-1688"
       stroke="#e1ff00"
       id="path1567" /><path
       transform="matrix(.0289 0 0 .028953 93.92 154.83)"
       d="m2964.7-2867.5v-1694.5"
       stroke="#e4ff00"
       id="path1569" /><path
       transform="matrix(.0289 0 0 .028953 93.92 154.83)"
       d="m2975.4-2867.5v-1693.1"
       stroke="#e7ff00"
       id="path1571" /><path
       transform="matrix(.0289 0 0 .028953 93.92 154.83)"
       d="m2986-2867.5v-1693.2"
       stroke="#eaff00"
       id="path1573" /><path
       transform="matrix(.0289 0 0 .028953 93.92 154.83)"
       d="m2996.6-2867.5v-1699.5"
       stroke="#edff00"
       id="path1575" /><path
       transform="matrix(.0289 0 0 .028953 93.92 154.83)"
       d="m3007.3-2867.5v-1699.1"
       stroke="#f0ff00"
       id="path1577" /><path
       transform="matrix(.0289 0 0 .028953 93.92 154.83)"
       d="m3018-2867.5v-1700.1"
       stroke="#f3ff00"
       id="path1579" /><path
       transform="matrix(.0289 0 0 .028953 93.92 154.83)"
       d="m3028.6-2867.5v-1703.7"
       stroke="#f6ff00"
       id="path1581" /><path
       transform="matrix(.0289 0 0 .028953 93.92 154.83)"
       d="m3039.2-2867.5v-1705.7"
       stroke="#f9ff00"
       id="path1583" /><path
       transform="matrix(.0289 0 0 .028953 93.92 154.83)"
       d="m3049.9-2867.5v-1706.5"
       stroke="#fcff00"
       id="path1585" /><path
       transform="matrix(.0289 0 0 .028953 93.92 154.83)"
       d="m3060.5-2867.5v-1711.8"
       stroke="#ff0"
       id="path1587" /><path
       transform="matrix(.0289 0 0 .028953 93.92 154.83)"
       d="m3071.2-2867.5v-1713.4"
       stroke="#fffb00"
       id="path1589" /><path
       transform="matrix(.0289 0 0 .028953 93.92 154.83)"
       d="m3081.8-2867.5v-1713"
       stroke="#fff800"
       id="path1591" /><path
       transform="matrix(.0289 0 0 .028953 93.92 154.83)"
       d="m3092.5-2867.5v-1715.6"
       stroke="#fff500"
       id="path1593" /><path
       transform="matrix(.0289 0 0 .028953 93.92 154.83)"
       d="m3103.1-2867.5v-1719.5"
       stroke="#fff200"
       id="path1595" /><path
       transform="matrix(.0289 0 0 .028953 93.92 154.83)"
       d="m3113.8-2867.5v-1727.4"
       stroke="#ffef00"
       id="path1597" /><path
       transform="matrix(.0289 0 0 .028953 93.92 154.83)"
       d="m3124.4-2867.5v-1722.7"
       stroke="#ffeb00"
       id="path1599" /><path
       transform="matrix(.0289 0 0 .028953 93.92 154.83)"
       d="m3135.1-2867.5v-1728.8"
       stroke="#ffe800"
       id="path1601" /><path
       transform="matrix(.0289 0 0 .028953 93.92 154.83)"
       d="m3145.7-2867.5v-1734.6"
       stroke="#ffe500"
       id="path1603" /><path
       transform="matrix(.0289 0 0 .028953 93.92 154.83)"
       d="m3156.4-2867.5v-1739.6"
       stroke="#ffe200"
       id="path1605" /><path
       transform="matrix(.0289 0 0 .028953 93.92 154.83)"
       d="m3167-2867.5v-1742"
       stroke="#ffdf00"
       id="path1607" /><path
       transform="matrix(.0289 0 0 .028953 93.92 154.83)"
       d="m3177.7-2867.5v-1742.3"
       stroke="#ffdb00"
       id="path1609" /><path
       transform="matrix(.0289 0 0 .028953 93.92 154.83)"
       d="m3188.3-2867.5v-1748.5"
       stroke="#ffd800"
       id="path1611" /><path
       transform="matrix(.0289 0 0 .028953 93.92 154.83)"
       d="m3199-2867.5v-1751.8"
       stroke="#ffd500"
       id="path1613" /><path
       transform="matrix(.0289 0 0 .028953 93.92 154.83)"
       d="m3209.6-2867.5v-1757.1"
       stroke="#ffd200"
       id="path1615" /><path
       transform="matrix(.0289 0 0 .028953 93.92 154.83)"
       d="m3220.3-2867.5v-1760.7"
       stroke="#ffce00"
       id="path1617" /><path
       transform="matrix(.0289 0 0 .028953 93.92 154.83)"
       d="m3230.9-2867.5v-1766.6"
       stroke="#ffcb00"
       id="path1619" /><path
       transform="matrix(.0289 0 0 .028953 93.92 154.83)"
       d="m3241.6-2867.5v-1771.9"
       stroke="#ffc800"
       id="path1621" /><path
       transform="matrix(.0289 0 0 .028953 93.92 154.83)"
       d="m3252.2-2867.5v-1777.3"
       stroke="#ffc400"
       id="path1623" /><path
       transform="matrix(.0289 0 0 .028953 93.92 154.83)"
       d="m3262.9-2867.5v-1783.8"
       stroke="#ffc100"
       id="path1625" /><path
       transform="matrix(.0289 0 0 .028953 93.92 154.83)"
       d="m3273.5-2867.5v-1791.3"
       stroke="#ffbe00"
       id="path1627" /><path
       transform="matrix(.0289 0 0 .028953 93.92 154.83)"
       d="m3284.2-2867.5v-1799.7"
       stroke="#ffba00"
       id="path1629" /><path
       transform="matrix(.0289 0 0 .028953 93.92 154.83)"
       d="m3294.8-2867.5v-1799.9"
       stroke="#ffb700"
       id="path1631" /><path
       transform="matrix(.0289 0 0 .028953 93.92 154.83)"
       d="m3305.4-2867.5v-1808.5"
       stroke="#ffb300"
       id="path1633" /><path
       transform="matrix(.0289 0 0 .028953 93.92 154.83)"
       d="m3316.1-2867.5v-1816.7"
       stroke="#ffb000"
       id="path1635" /><path
       transform="matrix(.0289 0 0 .028953 93.92 154.83)"
       d="m3326.7-2867.5v-1824.2"
       stroke="#ffac00"
       id="path1637" /><path
       transform="matrix(.0289 0 0 .028953 93.92 154.83)"
       d="m3337.4-2867.5v-1826.5"
       stroke="#ffa900"
       id="path1639" /><path
       transform="matrix(.0289 0 0 .028953 93.92 154.83)"
       d="m3348-2867.5v-1833.4"
       stroke="#ffa500"
       id="path1641" /><path
       transform="matrix(.0289 0 0 .028953 93.92 154.83)"
       d="m3358.7-2867.5v-1837.2"
       stroke="#ffa200"
       id="path1643" /><path
       transform="matrix(.0289 0 0 .028953 93.92 154.83)"
       d="m3369.3-2867.5v-1849.2"
       stroke="#ff9e00"
       id="path1645" /><path
       transform="matrix(.0289 0 0 .028953 93.92 154.83)"
       d="m3380-2867.5v-1857.7"
       stroke="#ff9b00"
       id="path1647" /><path
       transform="matrix(.0289 0 0 .028953 93.92 154.83)"
       d="m3390.6-2867.5v-1857"
       stroke="#ff9700"
       id="path1649" /><path
       transform="matrix(.0289 0 0 .028953 93.92 154.83)"
       d="m3401.3-2867.5v-1865.5"
       stroke="#ff9400"
       id="path1651" /><path
       transform="matrix(.0289 0 0 .028953 93.92 154.83)"
       d="m3411.9-2867.5v-1873.5"
       stroke="#ff9000"
       id="path1653" /><path
       transform="matrix(.0289 0 0 .028953 93.92 154.83)"
       d="m3422.6-2867.5v-1882"
       stroke="#ff8d00"
       id="path1655" /><path
       transform="matrix(.0289 0 0 .028953 93.92 154.83)"
       d="m3433.2-2867.5v-1885"
       stroke="#ff8900"
       id="path1657" /><path
       transform="matrix(.0289 0 0 .028953 93.92 154.83)"
       d="m3443.9-2867.5v-1887.5"
       stroke="#ff8500"
       id="path1659" /><path
       transform="matrix(.0289 0 0 .028953 93.92 154.83)"
       d="m3454.5-2867.5v-1887.1"
       stroke="#ff8100"
       id="path1661" /><path
       transform="matrix(.0289 0 0 .028953 93.92 154.83)"
       d="m3465.2-2867.5v-1897.4"
       stroke="#ff7e00"
       id="path1663" /><path
       transform="matrix(.0289 0 0 .028953 93.92 154.83)"
       d="m3475.8-2867.5v-1900.7"
       stroke="#ff7a00"
       id="path1665" /><path
       transform="matrix(.0289 0 0 .028953 93.92 154.83)"
       d="m3486.5-2867.5v-1903"
       stroke="#ff7600"
       id="path1667" /><path
       transform="matrix(.0289 0 0 .028953 93.92 154.83)"
       d="m3497.1-2867.5v-1911"
       stroke="#ff7200"
       id="path1669" /><path
       transform="matrix(.0289 0 0 .028953 93.92 154.83)"
       d="m3507.8-2867.5v-1916.8"
       stroke="#ff6f00"
       id="path1671" /><path
       transform="matrix(.0289 0 0 .028953 93.92 154.83)"
       d="m3518.4-2867.5v-1911.1"
       stroke="#ff6b00"
       id="path1673" /><path
       transform="matrix(.0289 0 0 .028953 93.92 154.83)"
       d="m3529.1-2867.5v-1916.9"
       stroke="#ff6700"
       id="path1675" /><path
       transform="matrix(.0289 0 0 .028953 93.92 154.83)"
       d="m3539.7-2867.5v-1920.1"
       stroke="#ff6300"
       id="path1677" /><path
       transform="matrix(.0289 0 0 .028953 93.92 154.83)"
       d="m3550.4-2867.5v-1918.3"
       stroke="#ff5f00"
       id="path1679" /><path
       transform="matrix(.0289 0 0 .028953 93.92 154.83)"
       d="m3561-2867.5v-1917"
       stroke="#ff5b00"
       id="path1681" /><path
       transform="matrix(.0289 0 0 .028953 93.92 154.83)"
       d="m3571.6-2867.5v-1917.8"
       stroke="#ff5700"
       id="path1683" /><path
       transform="matrix(.0289 0 0 .028953 93.92 154.83)"
       d="m3582.3-2867.5v-1913.3"
       stroke="#ff5300"
       id="path1685" /><path
       transform="matrix(.0289 0 0 .028953 93.92 154.83)"
       d="m3593-2867.5v-1912.2"
       stroke="#ff4e00"
       id="path1687" /><path
       transform="matrix(.0289 0 0 .028953 93.92 154.83)"
       d="m3603.6-2867.5v-1914"
       stroke="#ff4a00"
       id="path1689" /><path
       transform="matrix(.0289 0 0 .028953 93.92 154.83)"
       d="m3614.2-2867.5v-1906.6"
       stroke="#ff4600"
       id="path1691" /><path
       transform="matrix(.0289 0 0 .028953 93.92 154.83)"
       d="m3624.9-2867.5v-1908.1"
       stroke="#ff4200"
       id="path1693" /><path
       transform="matrix(.0289 0 0 .028953 93.92 154.83)"
       d="m3635.5-2867.5v-1901.5"
       stroke="#ff3d00"
       id="path1695" /><path
       transform="matrix(.0289 0 0 .028953 93.92 154.83)"
       d="m3646.2-2867.5v-1898.4"
       stroke="#ff3900"
       id="path1697" /><path
       transform="matrix(.0289 0 0 .028953 93.92 154.83)"
       d="m3656.8-2867.5v-1890.9"
       stroke="#ff3400"
       id="path1699" /><path
       transform="matrix(.0289 0 0 .028953 93.92 154.83)"
       d="m3667.5-2867.5v-1885.8"
       stroke="#ff2f00"
       id="path1701" /><path
       transform="matrix(.0289 0 0 .028953 93.92 154.83)"
       d="m3678.1-2867.5v-1877.8"
       stroke="#ff2a00"
       id="path1703" /><path
       transform="matrix(.0289 0 0 .028953 93.92 154.83)"
       d="m3688.8-2867.5v-1872.4"
       stroke="#ff2500"
       id="path1705" /><path
       transform="matrix(.0289 0 0 .028953 93.92 154.83)"
       d="m3699.4-2867.5v-1866.3"
       stroke="#ff2000"
       id="path1707" /><path
       transform="matrix(.0289 0 0 .028953 93.92 154.83)"
       d="m3710.1-2867.5v-1856.8"
       stroke="#ff1b00"
       id="path1709" /><path
       transform="matrix(.0289 0 0 .028953 93.92 154.83)"
       d="m3720.7-2867.5v-1843.4"
       stroke="#ff1500"
       id="path1711" /><path
       transform="matrix(.0289 0 0 .028953 93.92 154.83)"
       d="m3731.4-2867.5v-1833.4"
       stroke="#ff0f00"
       id="path1713" /><path
       transform="matrix(.0289 0 0 .028953 93.92 154.83)"
       d="m3742-2867.5v-1823.5"
       stroke="#ff0900"
       id="path1715" /><g
       stroke="#f00"
       id="g1829"><path
         transform="matrix(.0289 0 0 .028953 93.92 154.83)"
         d="m3752.7-2867.5v-1805"
         id="path1717" /><path
         transform="matrix(.0289 0 0 .028953 93.92 154.83)"
         d="m3763.3-2867.5v-1795.4"
         id="path1719" /><path
         transform="matrix(.0289 0 0 .028953 93.92 154.83)"
         d="m3774-2867.5v-1785.8"
         id="path1721" /><path
         transform="matrix(.0289 0 0 .028953 93.92 154.83)"
         d="m3784.6-2867.5v-1768.8"
         id="path1723" /><path
         transform="matrix(.0289 0 0 .028953 93.92 154.83)"
         d="m3795.3-2867.5v-1754"
         id="path1725" /><path
         transform="matrix(.0289 0 0 .028953 93.92 154.83)"
         d="m3805.9-2867.5v-1736.2"
         id="path1727" /><path
         transform="matrix(.0289 0 0 .028953 93.92 154.83)"
         d="m3816.6-2867.5v-1724.7"
         id="path1729" /><path
         transform="matrix(.0289 0 0 .028953 93.92 154.83)"
         d="m3827.2-2867.5v-1709.2"
         id="path1731" /><path
         transform="matrix(.0289 0 0 .028953 93.92 154.83)"
         d="m3837.8-2867.5v-1688.1"
         id="path1733" /><path
         transform="matrix(.0289 0 0 .028953 93.92 154.83)"
         d="m3848.5-2867.5v-1671.9"
         id="path1735" /><path
         transform="matrix(.0289 0 0 .028953 93.92 154.83)"
         d="m3859.2-2867.5v-1651"
         id="path1737" /><path
         transform="matrix(.0289 0 0 .028953 93.92 154.83)"
         d="m3869.8-2867.5v-1632.8"
         id="path1739" /><path
         transform="matrix(.0289 0 0 .028953 93.92 154.83)"
         d="m3880.4-2867.5v-1616.7"
         id="path1741" /><path
         transform="matrix(.0289 0 0 .028953 93.92 154.83)"
         d="m3891.1-2867.5v-1596.2"
         id="path1743" /><path
         transform="matrix(.0289 0 0 .028953 93.92 154.83)"
         d="m3901.7-2867.5v-1581"
         id="path1745" /><path
         transform="matrix(.0289 0 0 .028953 93.92 154.83)"
         d="m3912.4-2867.5v-1557.8"
         id="path1747" /><path
         transform="matrix(.0289 0 0 .028953 93.92 154.83)"
         d="m3923-2867.5v-1536.1"
         id="path1749" /><path
         transform="matrix(.0289 0 0 .028953 93.92 154.83)"
         d="m3933.7-2867.5v-1516.6"
         id="path1751" /><path
         transform="matrix(.0289 0 0 .028953 93.92 154.83)"
         d="m3944.3-2867.5v-1496.2"
         id="path1753" /><path
         transform="matrix(.0289 0 0 .028953 93.92 154.83)"
         d="m3955-2867.5v-1472.8"
         id="path1755" /><path
         transform="matrix(.0289 0 0 .028953 93.92 154.83)"
         d="m3965.6-2867.5v-1445.7"
         id="path1757" /><path
         transform="matrix(.0289 0 0 .028953 93.92 154.83)"
         d="m3976.3-2867.5v-1430.6"
         id="path1759" /><path
         transform="matrix(.0289 0 0 .028953 93.92 154.83)"
         d="m3986.9-2867.5v-1411.3"
         id="path1761" /><path
         transform="matrix(.0289 0 0 .028953 93.92 154.83)"
         d="m3997.6-2867.5v-1386.3"
         id="path1763" /><path
         transform="matrix(.0289 0 0 .028953 93.92 154.83)"
         d="m4008.2-2867.5v-1360.3"
         id="path1765" /><path
         transform="matrix(.0289 0 0 .028953 93.92 154.83)"
         d="m4018.9-2867.5v-1342.6"
         id="path1767" /><path
         transform="matrix(.0289 0 0 .028953 93.92 154.83)"
         d="m4029.5-2867.5v-1319.8"
         id="path1769" /><path
         transform="matrix(.0289 0 0 .028953 93.92 154.83)"
         d="m4040.2-2867.5v-1296.9"
         id="path1771" /><path
         transform="matrix(.0289 0 0 .028953 93.92 154.83)"
         d="m4050.8-2867.5v-1276.5"
         id="path1773" /><path
         transform="matrix(.0289 0 0 .028953 93.92 154.83)"
         d="m4061.5-2867.5v-1254.9"
         id="path1775" /><path
         transform="matrix(.0289 0 0 .028953 93.92 154.83)"
         d="m4072.1-2867.5v-1232.1"
         id="path1777" /><path
         transform="matrix(.0289 0 0 .028953 93.92 154.83)"
         d="m4082.8-2867.5v-1208.6"
         id="path1779" /><path
         transform="matrix(.0289 0 0 .028953 93.92 154.83)"
         d="m4093.4-2867.5v-1187"
         id="path1781" /><path
         transform="matrix(.0289 0 0 .028953 93.92 154.83)"
         d="m4104.1-2867.5v-1171.4"
         id="path1783" /><path
         transform="matrix(.0289 0 0 .028953 93.92 154.83)"
         d="m4114.7-2867.5v-1144"
         id="path1785" /><path
         transform="matrix(.0289 0 0 .028953 93.92 154.83)"
         d="m4125.4-2867.5v-1121.8"
         id="path1787" /><path
         transform="matrix(.0289 0 0 .028953 93.92 154.83)"
         d="m4136-2867.5v-1100.5"
         id="path1789" /><path
         transform="matrix(.0289 0 0 .028953 93.92 154.83)"
         d="m4146.7-2867.5v-1079.5"
         id="path1791" /><path
         transform="matrix(.0289 0 0 .028953 93.92 154.83)"
         d="m4157.3-2867.5v-1055.2"
         id="path1793" /><path
         transform="matrix(.0289 0 0 .028953 93.92 154.83)"
         d="m4167.9-2867.5v-1034.9"
         id="path1795" /><path
         transform="matrix(.0289 0 0 .028953 93.92 154.83)"
         d="m4178.6-2867.5v-1014.2"
         id="path1797" /><path
         transform="matrix(.0289 0 0 .028953 93.92 154.83)"
         d="m4189.2-2867.5v-994.25"
         id="path1799" /><path
         transform="matrix(.0289 0 0 .028953 93.92 154.83)"
         d="m4199.9-2867.5v-972.82"
         id="path1801" /><path
         transform="matrix(.0289 0 0 .028953 93.92 154.83)"
         d="m4210.5-2867.5v-949.92"
         id="path1803" /><path
         transform="matrix(.0289 0 0 .028953 93.92 154.83)"
         d="m4221.2-2867.5v-932.46"
         id="path1805" /><path
         transform="matrix(.0289 0 0 .028953 93.92 154.83)"
         d="m4231.8-2867.5v-906.69"
         id="path1807" /><path
         transform="matrix(.0289 0 0 .028953 93.92 154.83)"
         d="m4242.5-2867.5v-887.77"
         id="path1809" /><path
         transform="matrix(.0289 0 0 .028953 93.92 154.83)"
         d="m4253.1-2867.5v-871.42"
         id="path1811" /><path
         transform="matrix(.0289 0 0 .028953 93.92 154.83)"
         d="m4263.8-2867.5v-849.1"
         id="path1813" /><path
         transform="matrix(.0289 0 0 .028953 93.92 154.83)"
         d="m4274.4-2867.5v-826.79"
         id="path1815" /><path
         transform="matrix(.0289 0 0 .028953 93.92 154.83)"
         d="m4285.1-2867.5v-811.26"
         id="path1817" /><path
         transform="matrix(.0289 0 0 .028953 93.92 154.83)"
         d="m4295.7-2867.5v-791.51"
         id="path1819" /><path
         transform="matrix(.0289 0 0 .028953 93.92 154.83)"
         d="m4306.4-2867.5v-772"
         id="path1821" /><path
         transform="matrix(.0289 0 0 .028953 93.92 154.83)"
         d="m4317-2867.5v-751.16"
         id="path1823" /><path
         transform="matrix(.0289 0 0 .028953 93.92 154.83)"
         d="m4327.7-2867.5v-737.53"
         id="path1825" /><path
         transform="matrix(.0289 0 0 .028953 93.92 154.83)"
         d="m4338.3-2867.5v-717.06"
         id="path1827" /></g><path
       transform="matrix(.0289 0 0 .028953 93.92 154.83)"
       d="m4349-2867.5v-701.67"
       stroke="#fd0000"
       id="path1831" /><path
       transform="matrix(.0289 0 0 .028953 93.92 154.83)"
       d="m4359.6-2867.5v-681.57"
       stroke="#fc0000"
       id="path1833" /><path
       transform="matrix(.0289 0 0 .028953 93.92 154.83)"
       d="m4370.3-2867.5v-659.47"
       stroke="#fa0000"
       id="path1835" /><path
       transform="matrix(.0289 0 0 .028953 93.92 154.83)"
       d="m4380.9-2867.5v-644.59"
       stroke="#f90000"
       id="path1837" /><path
       transform="matrix(.0289 0 0 .028953 93.92 154.83)"
       d="m4391.6-2867.5v-627.96"
       stroke="#f70000"
       id="path1839" /><path
       transform="matrix(.0289 0 0 .028953 93.92 154.83)"
       d="m4402.2-2867.5v-612.78"
       stroke="#f60000"
       id="path1841" /><path
       transform="matrix(.0289 0 0 .028953 93.92 154.83)"
       d="m4412.9-2867.5v-594.74"
       stroke="#f40000"
       id="path1843" /><path
       transform="matrix(.0289 0 0 .028953 93.92 154.83)"
       d="m4423.5-2867.5v-583.84"
       stroke="#f30000"
       id="path1845" /><path
       transform="matrix(.0289 0 0 .028953 93.92 154.83)"
       d="m4434.2-2867.5v-566.46"
       stroke="#f20000"
       id="path1847" /><path
       transform="matrix(.0289 0 0 .028953 93.92 154.83)"
       d="m4444.8-2867.5v-546.8"
       stroke="#f00000"
       id="path1849" /><path
       transform="matrix(.0289 0 0 .028953 93.92 154.83)"
       d="m4455.4-2867.5v-535.37"
       stroke="#ef0000"
       id="path1851" /><path
       transform="matrix(.0289 0 0 .028953 93.92 154.83)"
       d="m4466.1-2867.5v-519.99"
       stroke="#ed0000"
       id="path1853" /><path
       transform="matrix(.0289 0 0 .028953 93.92 154.83)"
       d="m4476.8-2867.5v-512.26"
       stroke="#ec0000"
       id="path1855" /><path
       transform="matrix(.0289 0 0 .028953 93.92 154.83)"
       d="m4487.4-2867.5v-491.79"
       stroke="#ea0000"
       id="path1857" /><path
       transform="matrix(.0289 0 0 .028953 93.92 154.83)"
       d="m4498-2867.5v-482.72"
       stroke="#e90000"
       id="path1859" /><path
       transform="matrix(.0289 0 0 .028953 93.92 154.83)"
       d="m4508.7-2867.5v-466.31"
       stroke="#e70000"
       id="path1861" /><path
       transform="matrix(.0289 0 0 .028953 93.92 154.83)"
       d="m4519.3-2867.5v-450.69"
       stroke="#e60000"
       id="path1863" /><path
       transform="matrix(.0289 0 0 .028953 93.92 154.83)"
       d="m4530-2867.5v-439.86"
       stroke="#e40000"
       id="path1865" /><path
       transform="matrix(.0289 0 0 .028953 93.92 154.83)"
       d="m4540.6-2867.5v-428.89"
       stroke="#e30000"
       id="path1867" /><path
       transform="matrix(.0289 0 0 .028953 93.92 154.83)"
       d="m4551.3-2867.5v-413.5"
       stroke="#e20000"
       id="path1869" /><path
       transform="matrix(.0289 0 0 .028953 93.92 154.83)"
       d="m4561.9-2867.5v-406.8"
       stroke="#e00000"
       id="path1871" /><path
       transform="matrix(.0289 0 0 .028953 93.92 154.83)"
       d="m4572.6-2867.5v-398.33"
       stroke="#df0000"
       id="path1873" /><path
       transform="matrix(.0289 0 0 .028953 93.92 154.83)"
       d="m4583.2-2867.5v-378.89"
       stroke="#d00"
       id="path1875" /><path
       transform="matrix(.0289 0 0 .028953 93.92 154.83)"
       d="m4593.9-2867.5v-370.49"
       stroke="#dc0000"
       id="path1877" /><path
       transform="matrix(.0289 0 0 .028953 93.92 154.83)"
       d="m4604.5-2867.5v-358.57"
       stroke="#da0000"
       id="path1879" /><path
       transform="matrix(.0289 0 0 .028953 93.92 154.83)"
       d="m4615.2-2867.5v-354.96"
       stroke="#d90000"
       id="path1881" /><path
       transform="matrix(.0289 0 0 .028953 93.92 154.83)"
       d="m4625.8-2867.5v-341.62"
       stroke="#d70000"
       id="path1883" /><path
       transform="matrix(.0289 0 0 .028953 93.92 154.83)"
       d="m4636.5-2867.5v-330.2"
       stroke="#d60000"
       id="path1885" /><path
       transform="matrix(.0289 0 0 .028953 93.92 154.83)"
       d="m4647.1-2867.5v-323.06"
       stroke="#d40000"
       id="path1887" /><path
       transform="matrix(.0289 0 0 .028953 93.92 154.83)"
       d="m4657.8-2867.5v-309.15"
       stroke="#d30000"
       id="path1889" /><path
       transform="matrix(.0289 0 0 .028953 93.92 154.83)"
       d="m4668.4-2867.5v-303.56"
       stroke="#d10000"
       id="path1891" /><path
       transform="matrix(.0289 0 0 .028953 93.92 154.83)"
       d="m4679.1-2867.5v-293.54"
       stroke="#d00000"
       id="path1893" /><path
       transform="matrix(.0289 0 0 .028953 93.92 154.83)"
       d="m4689.7-2867.5v-282.72"
       stroke="#ce0000"
       id="path1895" /><path
       transform="matrix(.0289 0 0 .028953 93.92 154.83)"
       d="m4700.4-2867.5v-278.43"
       stroke="#cd0000"
       id="path1897" /><path
       transform="matrix(.0289 0 0 .028953 93.92 154.83)"
       d="m4711-2867.5v-266.73"
       stroke="#cb0000"
       id="path1899" /><path
       transform="matrix(.0289 0 0 .028953 93.92 154.83)"
       d="m4721.7-2867.5v-257.31"
       stroke="#ca0000"
       id="path1901" /><path
       transform="matrix(.0289 0 0 .028953 93.92 154.83)"
       d="m4732.3-2867.5v-249.42"
       stroke="#c80000"
       id="path1903" /><path
       transform="matrix(.0289 0 0 .028953 93.92 154.83)"
       d="m4743-2867.5v-241.84"
       stroke="#c70000"
       id="path1905" /><path
       transform="matrix(.0289 0 0 .028953 93.92 154.83)"
       d="m4753.6-2867.5v-232.41"
       stroke="#c50000"
       id="path1907" /><path
       transform="matrix(.0289 0 0 .028953 93.92 154.83)"
       d="m4764.2-2867.5v-227.4"
       stroke="#c40000"
       id="path1909" /><path
       transform="matrix(.0289 0 0 .028953 93.92 154.83)"
       d="m4774.9-2867.5v-222.54"
       stroke="#c20000"
       id="path1911" /><path
       transform="matrix(.0289 0 0 .028953 93.92 154.83)"
       d="m4785.5-2867.5v-211.65"
       stroke="#c10000"
       id="path1913" /><path
       transform="matrix(.0289 0 0 .028953 93.92 154.83)"
       d="m4796.2-2867.5v-201.7"
       stroke="#bf0000"
       id="path1915" /><path
       transform="matrix(.0289 0 0 .028953 93.92 154.83)"
       d="m4806.8-2867.5v-202.95"
       stroke="#bd0000"
       id="path1917" /><path
       transform="matrix(.0289 0 0 .028953 93.92 154.83)"
       d="m4817.5-2867.5v-197.36"
       stroke="#bc0000"
       id="path1919" /><path
       transform="matrix(.0289 0 0 .028953 93.92 154.83)"
       d="m4828.1-2867.5v-192.72"
       stroke="#ba0000"
       id="path1921" /><path
       transform="matrix(.0289 0 0 .028953 93.92 154.83)"
       d="m4838.8-2867.5v-183.43"
       stroke="#b90000"
       id="path1923" /><path
       transform="matrix(.0289 0 0 .028953 93.92 154.83)"
       d="m4849.4-2867.5v-180.49"
       stroke="#b70000"
       id="path1925" /><path
       transform="matrix(.0289 0 0 .028953 93.92 154.83)"
       d="m4860.1-2867.5v-170.63"
       stroke="#b60000"
       id="path1927" /><path
       transform="matrix(.0289 0 0 .028953 93.92 154.83)"
       d="m4870.7-2867.5v-167.98"
       stroke="#b40000"
       id="path1929" /><path
       transform="matrix(.0289 0 0 .028953 93.92 154.83)"
       d="m4881.4-2867.5v-158.62"
       stroke="#b30000"
       id="path1931" /><path
       transform="matrix(.0289 0 0 .028953 93.92 154.83)"
       d="m4892-2867.5v-153.39"
       stroke="#b10000"
       id="path1933" /><path
       transform="matrix(.0289 0 0 .028953 93.92 154.83)"
       d="m4902.7-2867.5v-146.03"
       stroke="#af0000"
       id="path1935" /><path
       transform="matrix(.0289 0 0 .028953 93.92 154.83)"
       d="m4913.3-2867.5v-140.06"
       stroke="#ae0000"
       id="path1937" /><path
       transform="matrix(.0289 0 0 .028953 93.92 154.83)"
       d="m4924-2867.5v-140.42"
       stroke="#ac0000"
       id="path1939" /><path
       transform="matrix(.0289 0 0 .028953 93.92 154.83)"
       d="m4934.6-2867.5v-132.77"
       stroke="#ab0000"
       id="path1941" /><path
       transform="matrix(.0289 0 0 .028953 93.92 154.83)"
       d="m4945.3-2867.5v-129.97"
       stroke="#a90000"
       id="path1943" /><path
       transform="matrix(.0289 0 0 .028953 93.92 154.83)"
       d="m4955.9-2867.5v-120.24"
       stroke="#a80000"
       id="path1945" /><path
       transform="matrix(.0289 0 0 .028953 93.92 154.83)"
       d="m4966.6-2867.5v-125.56"
       stroke="#a60000"
       id="path1947" /><path
       transform="matrix(.0289 0 0 .028953 93.92 154.83)"
       d="m4977.2-2867.5v-116.05"
       stroke="#a40000"
       id="path1949" /><path
       transform="matrix(.0289 0 0 .028953 93.92 154.83)"
       d="m4987.9-2867.5v-114.14"
       stroke="#a30000"
       id="path1951" /><path
       transform="matrix(.0289 0 0 .028953 93.92 154.83)"
       d="m4998.5-2867.5v-114.88"
       stroke="#a10000"
       id="path1953" /><path
       transform="matrix(.0289 0 0 .028953 93.92 154.83)"
       d="m5009.2-2867.5v-117.16"
       stroke="#a00000"
       id="path1955" /><path
       transform="matrix(.0289 0 0 .028953 93.92 154.83)"
       d="m5019.8-2867.5v-108.91"
       stroke="#9e0000"
       id="path1957" /><path
       transform="matrix(.0289 0 0 .028953 93.92 154.83)"
       d="m5030.5-2867.5v-105.45"
       stroke="#9c0000"
       id="path1959" /><path
       transform="matrix(.0289 0 0 .028953 93.92 154.83)"
       d="m5041.1-2867.5v-100.88"
       stroke="#9b0000"
       id="path1961" /><path
       transform="matrix(.0289 0 0 .028953 93.92 154.83)"
       d="m5051.8-2867.5v-92.05"
       stroke="#900"
       id="path1963" /><path
       transform="matrix(.0289 0 0 .028953 93.92 154.83)"
       d="m5062.4-2867.5v-92.64"
       stroke="#980000"
       id="path1965" /><path
       transform="matrix(.0289 0 0 .028953 93.92 154.83)"
       d="m5073-2867.5v-89.54"
       stroke="#960000"
       id="path1967" /><path
       transform="matrix(.0289 0 0 .028953 93.92 154.83)"
       d="m5083.7-2867.5v-84.09"
       stroke="#940000"
       id="path1969" /><path
       transform="matrix(.0289 0 0 .028953 93.92 154.83)"
       d="m5094.3-2867.5v-86.52"
       stroke="#930000"
       id="path1971" /><path
       transform="matrix(.0289 0 0 .028953 93.92 154.83)"
       d="m5105-2867.5v-83.28"
       stroke="#910000"
       id="path1973" /><path
       transform="matrix(.0289 0 0 .028953 93.92 154.83)"
       d="m5115.6-2867.5v-74.67"
       stroke="#8f0000"
       id="path1975" /><path
       transform="matrix(.0289 0 0 .028953 93.92 154.83)"
       d="m5126.3-2867.5v-78.65"
       stroke="#8e0000"
       id="path1977" /><path
       transform="matrix(.0289 0 0 .028953 93.92 154.83)"
       d="m5136.9-2867.5v-72.46"
       stroke="#8c0000"
       id="path1979" /><path
       transform="matrix(.0289 0 0 .028953 93.92 154.83)"
       d="m5147.6-2867.5v-72.3"
       stroke="#8a0000"
       id="path1981" /><path
       transform="matrix(.0289 0 0 .028953 93.92 154.83)"
       d="m5158.2-2867.5v-70.11"
       stroke="#890000"
       id="path1983" /><path
       transform="matrix(.0289 0 0 .028953 93.92 154.83)"
       d="m5168.9-2867.5v-64.79"
       stroke="#870000"
       id="path1985" /><path
       transform="matrix(.0289 0 0 .028953 93.92 154.83)"
       d="m5179.5-2867.5v-65.02"
       stroke="#850000"
       id="path1987" /><path
       transform="matrix(.0289 0 0 .028953 93.92 154.83)"
       d="m5190.2-2867.5v-63.4"
       stroke="#840000"
       id="path1989" /><path
       transform="matrix(.0289 0 0 .028953 93.92 154.83)"
       d="m5200.8-2867.5v-58.47"
       stroke="#820000"
       id="path1991" /><path
       transform="matrix(.0289 0 0 .028953 93.92 154.83)"
       d="m5211.5-2867.5v-50.15"
       stroke="#800000"
       id="path1993" /><path
       transform="matrix(.0289 0 0 .028953 93.92 154.83)"
       d="m5222.1-2867.5v-53.24"
       stroke="#7f0000"
       id="path1995" /><path
       transform="matrix(.0289 0 0 .028953 93.92 154.83)"
       d="m5232.8-2867.5v-53.02"
       stroke="#7d0000"
       id="path1997" /><path
       transform="matrix(.0289 0 0 .028953 93.92 154.83)"
       d="m5243.4-2867.5v-53.31"
       stroke="#7b0000"
       id="path1999" /><path
       transform="matrix(.0289 0 0 .028953 93.92 154.83)"
       d="m5254.1-2867.5v-48.97"
       stroke="#7a0000"
       id="path2001" /><path
       transform="matrix(.0289 0 0 .028953 93.92 154.83)"
       d="m5264.7-2867.5v-51.98"
       stroke="#780000"
       id="path2003" /><path
       transform="matrix(.0289 0 0 .028953 93.92 154.83)"
       d="m5275.4-2867.5v-44.32"
       stroke="#760000"
       id="path2005" /><path
       transform="matrix(.0289 0 0 .028953 93.92 154.83)"
       d="m5286-2867.5v-49.85"
       stroke="#740000"
       id="path2007" /><path
       transform="matrix(.0289 0 0 .028953 93.92 154.83)"
       d="m5296.7-2867.5v-39.98"
       stroke="#730000"
       id="path2009" /><path
       transform="matrix(.0289 0 0 .028953 93.92 154.83)"
       d="m5307.3-2867.5v-40.86"
       stroke="#710000"
       id="path2011" /><path
       transform="matrix(.0289 0 0 .028953 93.92 154.83)"
       d="m5318-2867.5v-41.16"
       stroke="#6f0000"
       id="path2013" /><path
       transform="matrix(.0289 0 0 .028953 93.92 154.83)"
       d="m5328.6-2867.5v-36.74"
       stroke="#6d0000"
       id="path2015" /><path
       transform="matrix(.0289 0 0 .028953 93.92 154.83)"
       d="m5339.2-2867.5v-40.13"
       stroke="#6c0000"
       id="path2017" /><path
       transform="matrix(.0289 0 0 .028953 93.92 154.83)"
       d="m5349.9-2867.5v-36.89"
       stroke="#6a0000"
       id="path2019" /><path
       transform="matrix(.0289 0 0 .028953 93.92 154.83)"
       d="m5360.6-2867.5v-36.08"
       stroke="#680000"
       id="path2021" /><path
       transform="matrix(.0289 0 0 .028953 93.92 154.83)"
       d="m5371.2-2867.5v-34.75"
       stroke="#600"
       id="path2023" /><path
       transform="matrix(.0289 0 0 .028953 93.92 154.83)"
       d="m5381.8-2867.5v-27.83"
       stroke="#640000"
       id="path2025" /><path
       transform="matrix(.0289 0 0 .028953 93.92 154.83)"
       d="m5392.5-2867.5v-29.74"
       stroke="#630000"
       id="path2027" /></g><g
     fill="#000000"
     font-family="Lato"
     id="g2053"><text
       transform="matrix(.5025 0 0 .50279 7.7801 87.923)"
       font-size="8.4221px"
       font-weight="bold"
       stroke-linecap="round"
       stroke-linejoin="round"
       stroke-miterlimit="10"
       stroke-width=".13156"
       style="font-variant-caps:normal;font-variant-east-asian:normal;font-variant-ligatures:normal;font-variant-numeric:normal;line-height:0%"
       id="text2033"><tspan
         x="0"
         y="0"
         font-family="Lato"
         font-size="8.4221px"
         font-weight="bold"
         stroke-width=".13156"
         style="font-variant-caps:normal;font-variant-east-asian:normal;font-variant-ligatures:normal;font-variant-numeric:normal;line-height:1.25"
         id="tspan2031">CIE Colorimetric Parameters</tspan></text><g
       id="g2051"><text
         transform="matrix(.5025 0 0 .50279 7.7471 93.804)"
         font-size="8.4222px"
         stroke-width=".65778"
         style="font-variant-caps:normal;font-variant-east-asian:normal;font-variant-ligatures:normal;font-variant-numeric:normal;line-height:0%"
         id="text2037"><tspan
           x="0"
           y="0"
           font-family="Lato"
           font-size="8.4222px"
           stroke-width=".65778"
           style="font-variant-caps:normal;font-variant-east-asian:normal;font-variant-ligatures:normal;font-variant-numeric:normal;line-height:1.25"
           id="tspan2035">Chromaticity coordinates: x=0.3818 y=0.3797 u'=0.2248 v'=0.5031</tspan></text><text
         transform="matrix(.50265 0 0 .50294 -1.9136 404.13)"
         x="19.2194"
         y="-605.67859"
         font-size="8.4196px"
         stroke-width=".65758"
         style="font-variant-caps:normal;font-variant-east-asian:normal;font-variant-ligatures:normal;font-variant-numeric:normal;line-height:0%"
         id="text2041"><tspan
           x="19.2194"
           y="-605.67859"
           font-family="Lato"
           font-size="8.4196px"
           stroke-width=".65758"
           style="font-variant-caps:normal;font-variant-east-asian:normal;font-variant-ligatures:normal;font-variant-numeric:normal;line-height:1.25"
           id="tspan2039">CCT: Tc=3986K</tspan></text><text
         transform="matrix(0.5025,0,0,0.50279,62.611,99.566)"
         font-size="8.4222px"
         stroke-width="0.65778"
         style="line-height:0%;font-variant-ligatures:normal;font-variant-caps:normal;font-variant-numeric:normal;font-variant-east-asian:normal"
         id="text2045"><tspan
           x="0"
           y="0"
           font-family="Lato"
           font-size="8.4222px"
           stroke-width="0.65778"
           style="line-height:1.25;font-variant-ligatures:normal;font-variant-caps:normal;font-variant-numeric:normal;font-variant-east-asian:normal"
           id="tspan2043">CRI: Ra= 92</tspan></text><text
         transform="matrix(.5025 0 0 .50279 111.45 99.625)"
         font-size="8.4222px"
         stroke-width=".65778"
         style="font-variant-caps:normal;font-variant-east-asian:normal;font-variant-ligatures:normal;font-variant-numeric:normal;line-height:0%"
         id="text2049"><tspan
           x="0"
           y="0"
           dominant-baseline="auto"
           fill="#000000"
           font-family="Lato"
           font-size="8.4222px"
           letter-spacing="0px"
           stop-color="#000000"
           stroke-width=".65778"
           style="-inkscape-stroke:none;font-variant-alternates:normal;font-variant-caps:normal;font-variant-east-asian:normal;font-variant-ligatures:normal;font-variant-numeric:normal;font-variant-position:normal;line-height:1.25;text-decoration-color:#000000;text-decoration-line:none;text-decoration-style:solid;text-indent:0;text-orientation:mixed;text-transform:none;white-space:normal"
           id="tspan2047">Color Ratio: R=0.203 G=0.755 B=0.042</tspan></text></g></g><g
     id="g2191"><path
       transform="matrix(.23794 0 0 .23794 .10342 -2.8342)"
       d="m174.12 280.66 0.593 0.333 0.602 0.322 0.613 0.312 0.623 0.301 0.633 0.29 0.642 0.279 0.652 0.268 0.662 0.257 0.671 0.246 0.681 0.235 0.691 0.224 0.699 0.213 0.709 0.201 0.718 0.191 0.728 0.179 0.736 0.168 0.746 0.157 0.754 0.146 0.763 0.135 0.772 0.123 0.781 0.113 0.789 0.101 0.798 0.089 0.806 0.079 0.815 0.067 0.823 0.056 0.831 0.044 0.84 0.033 0.848 0.022 0.855 0.011h0.864l0.871-0.012 0.879-0.023 0.886-0.035 0.895-0.046 0.901-0.057 0.909-0.068 0.916-0.08 0.924-0.091 0.93-0.102 0.937-0.113 0.945-0.124 0.951-0.136 0.958-0.147 0.965-0.159 0.97-0.169 0.978-0.181 0.984-0.191 0.989-0.203 0.997-0.214 1.002-0.225 1.007-0.236 1.015-0.247 1.019-0.259 1.026-0.269 1.031-0.28 1.035-0.291 1.042-0.302 1.047-0.312 1.052-0.324 1.056-0.335 1.062-0.345 1.067-0.356 1.07-0.366 1.076-0.378 1.081-0.388 1.084-0.398 1.089-0.409 1.093-0.42 1.097-0.43 1.101-0.441 1.104-0.451 1.109-0.461 1.112-0.471 1.115-0.482 1.12-0.492 1.121-0.502 1.126-0.512 1.128-0.523 1.131-0.532 1.134-0.542 1.137-0.552 1.139-0.562 1.142-0.571 1.144-0.582 1.146-0.591 1.149-0.601 1.15-0.61 1.153-0.62 1.154-0.629 1.156-0.638 1.157-0.648 1.159-0.657 1.159-0.666 1.162-0.675 1.162-0.684 1.163-0.693 1.165-0.703 1.164-0.711 1.166-0.719 1.166-0.728 1.167-0.738 1.166-0.745 1.167-0.754 1.167-0.762 1.167-0.771 1.166-0.779 1.166-0.786 1.166-0.795 1.166-0.803 1.164-0.811 1.164-0.819 1.163-0.826 1.162-0.835 1.16-0.841 1.16-0.849 1.158-0.857 1.157-0.864 1.155-0.871 1.153-0.879 1.152-0.885 1.149-0.892 1.148-0.899 1.145-0.906 1.143-0.913 1.141-0.919 1.138-0.927 1.136-0.932 1.132-0.939 1.13-0.944 1.128-0.952 1.123-0.957 1.121-0.962 1.118-0.969 1.113-0.975 1.111-0.98 1.106-0.987 1.104-0.991 1.099-0.996 1.095-1.003 1.091-1.007 1.087-1.012 1.083-1.017 1.078-1.022 1.074-1.027 1.069-1.031 1.064-1.037 1.06-1.04 1.055-1.045 1.049-1.049 1.044-1.053 1.039-1.057 1.034-1.062 1.028-1.065 1.023-1.069 1.018-1.072 1.011-1.076 1.005-1.079 1-1.083 0.993-1.085 0.987-1.089 0.981-1.092 0.975-1.095 0.968-1.097 0.962-1.1 0.955-1.103 0.948-1.105 0.941-1.107 0.935-1.11 0.927-1.111 0.92-1.114 0.913-1.115 0.906-1.117 0.898-1.118 0.891-1.12 0.883-1.122 0.876-1.123 0.868-1.124 0.86-1.125 0.852-1.127 0.844-1.127 0.835-1.128 0.828-1.128 0.819-1.129 0.811-1.129 0.803-1.13 0.794-1.13 0.786-1.129 0.777-1.13 0.768-1.13 0.759-1.129 0.751-1.129 0.741-1.129 0.733-1.128 0.723-1.127 0.714-1.126 0.705-1.125 0.696-1.124 0.686-1.123 0.676-1.122 0.667-1.12 0.658-1.119 0.648-1.117 0.638-1.116 0.628-1.113 0.619-1.112 0.608-1.11 0.598-1.107 0.589-1.105 0.578-1.103 0.568-1.1 0.559-1.097 0.547-1.095 0.538-1.092 0.527-1.089 0.516-1.086 0.506-1.083 0.496-1.079 0.484-1.076 0.475-1.073 0.464-1.069 0.453-1.065 0.441-1.061 0.432-1.058 0.42-1.054 0.41-1.049 0.398-1.045 0.388-1.041 0.376-1.036 0.366-1.032 0.354-1.027 0.343-1.022 0.333-1.018 0.32-1.012 0.31-1.007 0.299-1.003 0.287-0.997 0.276-0.991 0.264-0.987 0.253-0.98 0.241-0.976 0.231-0.969 0.219-0.963 0.207-0.958 0.195-0.951 0.185-0.945 0.173-0.939 0.161-0.933 0.149-0.926 0.138-0.92 0.127-0.913 0.115-0.906 0.103-0.9 0.092-0.893 0.08-0.885 0.068-0.879 0.057-0.872 0.044-0.8637 0.034-0.8574 0.022-0.8497 0.01-0.8417-2e-3 -0.8348-0.013-0.8271-0.025-0.8191-0.037-0.8114-0.048-0.8032-0.061-0.7954-0.071-0.7875-0.083-0.7792-0.095-0.7711-0.106-0.7626-0.119-0.7545-0.13-0.7459-0.141-0.7372-0.152-0.7292-0.165-0.7196-0.176-0.7116-0.188-0.7023-0.199-0.6939-0.21-0.6846-0.222-0.676-0.234-0.6667-0.245-0.6573-0.256-0.6481-0.267-0.639-0.279-0.6297-0.29-0.6201-0.302-0.6107-0.313-0.6011-0.324-0.5918-0.335-0.5818-0.346-0.5718-0.358-0.5628-0.369-0.5525-0.379-0.5429-0.391-0.5329-0.402-0.5225-0.412-0.5129-0.424-0.5026-0.434-0.4925-0.445-0.4826-0.456-0.472-0.467-0.4616-0.477-0.4517-0.488-0.4407-0.498-0.4307-0.509-0.4207-0.52-0.4093-0.53-0.3994-0.54-0.3885-0.551-0.3781-0.561-0.3671-0.57-0.3564-0.582-0.3459-0.591-0.3351-0.601-0.3242-0.612-0.3132-0.621-0.3025-0.631-0.2916-0.641-0.2809-0.65-0.2699-0.66-0.2586-0.67-0.2477-0.68-0.237-0.689-0.2256-0.698-0.2144-0.707-0.2037-0.716-0.1923-0.727-0.1811-0.735-0.1701-0.744-0.1587-0.753-0.1478-0.762-0.1361-0.77-0.1255-0.78-0.1138-0.787-0.1029-0.797-0.0915-0.805-0.0802-0.814-0.0689-0.821-0.0576-0.83-0.0466-0.838-0.0349-0.847-0.0243-0.854-0.0124-0.863-1e-3 -0.869 0.01-0.877 0.0213-0.886 0.0326-0.894 0.0443-0.899 0.0553-0.908 0.0665-0.916 0.0776-0.922 0.0892-0.929 0.1005-0.937 0.1115-0.942 0.1228-0.951 0.1341-0.956 0.1452-0.964 0.1564-0.97 0.1677-0.976 0.1788-0.983 0.19-0.989 0.2011-0.995 0.2123-1.002 0.223-1.007 0.2343-1.012 0.2453-1.019 0.257-1.024 0.2672-1.03 0.2783-1.036 0.2889-1.04 0.3005-1.046 0.3112-1.051 0.3215-1.056 0.3329-1.061 0.3438-1.066 0.3541-1.07 0.3651-1.075 0.3755-1.08 0.386-1.084 0.3971-1.088 0.4074-1.092 0.4177-1.097 0.4287-1.1 0.439-1.104 0.4493-1.108 0.4597-1.111 0.4696-1.115 0.4799-1.118 0.4906-1.122 0.5003-1.124 0.5105-1.129 0.5209-1.13 0.5309-1.134 0.5405-1.136 0.5505-1.139 0.5602-1.142 0.5701-1.143 0.5798-1.146 0.5895-1.148 0.5991-1.151 0.6087-1.151 0.6181-1.154 0.6277-1.156 0.637-1.157 0.6464-1.159 0.655-1.159 0.665-1.162 0.6736-1.162 0.6827-1.162 0.692-1.164 0.7006-1.166 0.7092-1.165 0.7186-1.166 0.7269-1.167 0.7356-1.166 0.7439-1.167 0.7528-1.167 0.7609-1.166 0.7688-1.167 0.7779-1.166 0.7854-1.166 0.7939-1.166 0.8018-1.164 0.8094-1.164 0.8177-1.163 0.8248-1.163 0.8331-1.16 0.8407-1.16 0.8481-1.158 0.8554-1.158 0.8624-1.155 0.87-1.153 0.877-1.152 0.885-1.15 0.891-1.147 0.898-1.147 0.905-1.143 0.912-1.141 0.918-1.138 0.925-1.137 0.931-1.133 0.938-1.131 0.944-1.126 0.95-1.125 0.956-1.121 0.962-1.118 0.968-1.114 0.974-1.112 0.979-1.107 0.985-1.104 0.991-1.099 0.996-1.096 1.001-1.092 1.006-1.088 1.012-1.083 1.016-1.079 1.021-1.075 1.027-1.07 1.03-1.065 1.035-1.06 1.041-1.055 1.044-1.051 1.048-1.045 1.052-1.04 1.057-1.034 1.061-1.03 1.064-1.023 1.069-1.018 1.071-1.013 1.076-1.006 1.079-1.001 1.081-0.994 1.086-0.988 1.088-0.982 1.091-0.976 1.094-0.969 1.097-0.962 1.1-0.957 1.102-0.949 1.105-0.942 1.107-0.936 1.109-0.929 1.111-0.921 1.113-0.914 1.115-0.906 1.117-0.9 1.119-0.892 1.12-0.884 1.121-0.877 1.123-0.869 1.124-0.861 1.125-0.854 1.126-0.845 1.127-0.837 1.127-0.829 1.128-0.821 1.129-0.813 1.13-0.804 1.129-0.795 1.13-0.787 1.13-0.779 1.13-0.769 1.13-0.761 1.128-0.752 1.13-0.742 1.128-0.734 1.128-0.725 1.127-0.716 1.127-0.706 1.125-0.697 1.125-0.688 1.123-0.678 1.122-0.668 1.12-0.659 1.119-0.65 1.118-0.639 1.116-0.63 1.114-0.62 1.111-0.61 1.11-0.6 1.108-0.591 1.106-0.579 1.103-0.57 1.1-0.56 1.098-0.549 1.095-0.539 1.093-0.529 1.089-0.518 1.087-0.508 1.083-0.497 1.08-0.486 1.076-0.477 1.073-0.465 1.07-0.454 1.066-0.444 1.062-0.433 1.058-0.423 1.054-0.411 1.051-0.4 1.045-0.389 1.041-0.379 1.038-0.367 1.032-0.356 1.028-0.345 1.023-0.334 1.018-0.323 1.013-0.311 1.009-0.3 1.003-0.289 0.998-0.278 0.992-0.266 0.987-0.255 0.982-0.243 0.976-0.232 0.97-0.221 0.964-0.209 0.959-0.198 0.952-0.186 0.946-0.174 0.94-0.163 0.934-0.152 0.927-0.14 0.921-0.128 0.914-0.117 0.907-0.105 0.901-0.093 0.894-0.082 0.887-0.07 0.88-0.059 0.873-0.047 0.865-0.035 0.859-0.024 0.85-0.011 0.844v0.835l0.011 0.828 0.023 0.821 0.035 0.812 0.046 0.805 0.059 0.797 0.069 0.788 0.081 0.781 0.093 0.772 0.105 0.765 0.116 0.755 0.129 0.747 0.139 0.739 0.151 0.73 0.163 0.722 0.174 0.713 0.185 0.703 0.197 0.696 0.209 0.686 0.22 0.677 0.232 0.668 0.243 0.659 0.255 0.649 0.266 0.641 0.276 0.631 0.289 0.622 0.3 0.612 0.311 0.603 0.322 0.593 0.333 0.583 0.345 0.574 0.356 0.564 0.367 0.554 0.378 0.544 0.389 0.535 0.4 0.524 0.411 0.515 0.421 0.504 0.432 0.494 0.444 0.484 0.454 0.474 0.465 0.463 0.476 0.454 0.486 0.442 0.497 0.433 0.507 0.421 0.518 0.412 0.528 0.401 0.539 0.39 0.548 0.379 0.56 0.369 0.569 0.359 0.58 0.347"
       fill="#c2cccc"
       id="path2055" /><polygon
       transform="matrix(.62961 0 0 .62961 -107.57 -70.543)"
       points="273.92 172.87 274.42 172.01 275.42 172.01 275.92 172.87 275.42 173.74 274.42 173.74"
       fill="#f0f"
       shape-rendering="crispEdges"
       stroke-width=".56031"
       id="polygon2057" /><g
       font-family="Lato"
       stroke-width="1.4826"
       id="g2087"><g
         font-size="11.861px"
         id="g2083"><text
           transform="matrix(.23794 0 0 .23794 11.729 75.684)"
           style="font-variant-caps:normal;font-variant-east-asian:normal;font-variant-ligatures:normal;font-variant-numeric:normal"
           xml:space="preserve"
           id="text2059">0.37</text><text
           transform="matrix(.23794 0 0 .23794 32.478 75.684)"
           style="font-variant-caps:normal;font-variant-east-asian:normal;font-variant-ligatures:normal;font-variant-numeric:normal"
           xml:space="preserve"
           id="text2061">0.375</text><text
           transform="matrix(.23794 0 0 .23794 55.158 75.684)"
           style="font-variant-caps:normal;font-variant-east-asian:normal;font-variant-ligatures:normal;font-variant-numeric:normal"
           xml:space="preserve"
           id="text2063">0.38</text><text
           transform="matrix(.23794 0 0 .23794 75.641 75.684)"
           style="font-variant-caps:normal;font-variant-east-asian:normal;font-variant-ligatures:normal;font-variant-numeric:normal"
           xml:space="preserve"
           id="text2065">0.385</text><text
           transform="matrix(.23794 0 0 .23794 98.056 75.684)"
           style="font-variant-caps:normal;font-variant-east-asian:normal;font-variant-ligatures:normal;font-variant-numeric:normal"
           xml:space="preserve"
           id="text2067">0.39</text><text
           transform="matrix(.23794 0 0 .23794 7.4466 72.354)"
           style="font-variant-caps:normal;font-variant-east-asian:normal;font-variant-ligatures:normal;font-variant-numeric:normal"
           xml:space="preserve"
           id="text2069">0.37</text><text
           transform="matrix(.23794 0 0 .23794 5.781 55.413)"
           style="font-variant-caps:normal;font-variant-east-asian:normal;font-variant-ligatures:normal;font-variant-numeric:normal"
           xml:space="preserve"
           id="text2071">0.375</text><text
           transform="matrix(.23794 0 0 .23794 7.4466 38.473)"
           style="font-variant-caps:normal;font-variant-east-asian:normal;font-variant-ligatures:normal;font-variant-numeric:normal"
           xml:space="preserve"
           id="text2073">0.38</text><text
           transform="matrix(.23794 0 0 .23794 5.781 21.532)"
           style="font-variant-caps:normal;font-variant-east-asian:normal;font-variant-ligatures:normal;font-variant-numeric:normal"
           xml:space="preserve"
           id="text2075">0.385</text><text
           transform="matrix(.23794 0 0 .23794 7.4466 4.5913)"
           style="font-variant-caps:normal;font-variant-east-asian:normal;font-variant-ligatures:normal;font-variant-numeric:normal"
           xml:space="preserve"
           id="text2077">0.39</text><text
           transform="matrix(.23794 0 0 .23794 54.304 79.491)"
           style="font-variant-caps:normal;font-variant-east-asian:normal;font-variant-ligatures:normal;font-variant-numeric:normal"
           xml:space="preserve"
           id="text2079">CIE-X</text><text
           transform="matrix(0 -.23794 .23794 0 4.5913 40.654)"
           style="font-variant-caps:normal;font-variant-east-asian:normal;font-variant-ligatures:normal;font-variant-numeric:normal"
           xml:space="preserve"
           id="text2081">CIE-Y</text></g><text
         transform="matrix(.23794 0 0 .23794 65.832 37.754)"
         font-size="11.285px"
         style="font-variant-caps:normal;font-variant-east-asian:normal;font-variant-ligatures:normal;font-variant-numeric:normal"
         xml:space="preserve"
         id="text2085">CCT=3986 K</text></g><g
       fill="none"
       stroke="#858585"
       stroke-dasharray="10.6749, 0"
       stroke-width=".33359"
       id="g2111"><g
         id="g2105"><polyline
           transform="matrix(.23794 0 0 .23794 .10342 -2.8342)"
           points="151.56 311 151.56 26.208"
           id="polyline2089" /><polyline
           transform="matrix(.23794 0 0 .23794 .10342 -2.8342)"
           points="242.26 311 242.26 26.208"
           id="polyline2091" /><polyline
           transform="matrix(.23794 0 0 .23794 .10342 -2.8342)"
           points="332.96 311 332.96 26.208"
           id="polyline2093" /><polyline
           transform="matrix(.23794 0 0 .23794 .10342 -2.8342)"
           points="423.66 311 423.66 26.208"
           id="polyline2095" /><polyline
           transform="matrix(.23794 0 0 .23794 .10342 -2.8342)"
           points="60.858 239.8 423.66 239.8"
           id="polyline2097" /><polyline
           transform="matrix(.23794 0 0 .23794 .10342 -2.8342)"
           points="60.858 168.6 423.66 168.6"
           id="polyline2099" /><polyline
           transform="matrix(.23794 0 0 .23794 .10342 -2.8342)"
           points="60.858 97.405 423.66 97.405"
           id="polyline2101" /><polyline
           transform="matrix(.23794 0 0 .23794 .10342 -2.8342)"
           points="60.858 26.208 423.66 26.208"
           id="polyline2103" /></g><polyline
         transform="matrix(.23794 0 0 .23794 .10342 -2.8342)"
         points="60.858 311 423.66 311"
         stroke-linecap="square"
         id="polyline2107" /><polyline
         transform="matrix(.23794 0 0 .23794 .10342 -2.8342)"
         points="60.858 311 60.858 26.208"
         stroke-linecap="square"
         id="polyline2109" /></g><g
       fill="#000000"
       font-family="Lato"
       id="g2169"><g
         font-size="9.7293px"
         id="g2163"><text
           transform="matrix(.28941 0 0 .2902 177.73 79.236)"
           x="36.944557"
           stroke-width="1.2168"
           style="font-variant-caps:normal;font-variant-east-asian:normal;font-variant-ligatures:normal;font-variant-numeric:normal"
           xml:space="preserve"
           id="text2115"><tspan
             x="36.944557"
             y="0"
             fill="#000000"
             font-family="Lato"
             font-size="9.7293px"
             stroke-width="1.2168"
             text-align="center"
             text-anchor="middle"
             style="font-variant-caps:normal;font-variant-east-asian:normal;font-variant-ligatures:normal;font-variant-numeric:normal"
             id="tspan2113">WaveLength (nm)</tspan></text><g
           stroke-width="1.2162"
           id="g2161"><text
             transform="matrix(.2897 0 0 .2902 117.49 6.2541)"
             x="5.3358564"
             style="font-variant-caps:normal;font-variant-east-asian:normal;font-variant-ligatures:normal;font-variant-numeric:normal"
             xml:space="preserve"
             id="text2119"><tspan
               x="5.3358564"
               y="0"
               fill="#000000"
               font-family="Lato"
               font-size="9.7293px"
               stroke-width="1.2162"
               text-align="end"
               text-anchor="end"
               style="font-variant-caps:normal;font-variant-east-asian:normal;font-variant-ligatures:normal;font-variant-numeric:normal"
               id="tspan2117">1</tspan></text><text
             transform="matrix(.2897 0 0 .2902 117.48 19.587)"
             x="5.3358564"
             style="font-variant-caps:normal;font-variant-east-asian:normal;font-variant-ligatures:normal;font-variant-numeric:normal"
             xml:space="preserve"
             id="text2123"><tspan
               x="5.3358564"
               y="0"
               fill="#000000"
               font-family="Lato"
               font-size="9.7293px"
               stroke-width="1.2162"
               text-align="end"
               text-anchor="end"
               style="font-variant-caps:normal;font-variant-east-asian:normal;font-variant-ligatures:normal;font-variant-numeric:normal"
               id="tspan2121">0.8</tspan></text><text
             transform="matrix(.2897 0 0 .2902 117.46 32.874)"
             x="5.3358564"
             style="font-variant-caps:normal;font-variant-east-asian:normal;font-variant-ligatures:normal;font-variant-numeric:normal"
             xml:space="preserve"
             id="text2127"><tspan
               x="5.3358564"
               y="0"
               fill="#000000"
               font-family="Lato"
               font-size="9.7293px"
               stroke-width="1.2162"
               text-align="end"
               text-anchor="end"
               style="font-variant-caps:normal;font-variant-east-asian:normal;font-variant-ligatures:normal;font-variant-numeric:normal"
               id="tspan2125">0.6</tspan></text><text
             transform="matrix(.2897 0 0 .2902 117.4 46.182)"
             x="5.3358564"
             style="font-variant-caps:normal;font-variant-east-asian:normal;font-variant-ligatures:normal;font-variant-numeric:normal"
             xml:space="preserve"
             id="text2131"><tspan
               x="5.3358564"
               y="0"
               fill="#000000"
               font-family="Lato"
               font-size="9.7293px"
               stroke-width="1.2162"
               text-align="end"
               text-anchor="end"
               style="font-variant-caps:normal;font-variant-east-asian:normal;font-variant-ligatures:normal;font-variant-numeric:normal"
               id="tspan2129">0.4</tspan></text><text
             transform="matrix(.2897 0 0 .2902 117.48 59.473)"
             x="5.3358564"
             style="font-variant-caps:normal;font-variant-east-asian:normal;font-variant-ligatures:normal;font-variant-numeric:normal"
             xml:space="preserve"
             id="text2135"><tspan
               x="5.3358564"
               y="0"
               fill="#000000"
               font-family="Lato"
               font-size="9.7293px"
               stroke-width="1.2162"
               text-align="end"
               text-anchor="end"
               style="font-variant-caps:normal;font-variant-east-asian:normal;font-variant-ligatures:normal;font-variant-numeric:normal"
               id="tspan2133">0.2</tspan></text><text
             transform="matrix(.2897 0 0 .2902 117.42 72.779)"
             x="5.3358564"
             style="font-variant-caps:normal;font-variant-east-asian:normal;font-variant-ligatures:normal;font-variant-numeric:normal"
             xml:space="preserve"
             id="text2139"><tspan
               x="5.3358564"
               y="0"
               fill="#000000"
               font-family="Lato"
               font-size="9.7293px"
               stroke-width="1.2162"
               text-align="end"
               text-anchor="end"
               style="font-variant-caps:normal;font-variant-east-asian:normal;font-variant-ligatures:normal;font-variant-numeric:normal"
               id="tspan2137">0</tspan></text><text
             transform="matrix(.2897 0 0 .2902 122.09 75.436)"
             x="15.907482"
             style="font-variant-caps:normal;font-variant-east-asian:normal;font-variant-ligatures:normal;font-variant-numeric:normal"
             xml:space="preserve"
             id="text2143"><tspan
               x="15.907481"
               y="0"
               fill="#000000"
               font-family="Lato"
               font-size="9.7293px"
               stroke-width="1.2162"
               text-align="center"
               text-anchor="middle"
               style="font-variant-caps:normal;font-variant-east-asian:normal;font-variant-ligatures:normal;font-variant-numeric:normal"
               id="tspan2141">400</tspan></text><text
             transform="matrix(.2897 0 0 .2902 152.95 75.436)"
             x="15.907482"
             style="font-variant-caps:normal;font-variant-east-asian:normal;font-variant-ligatures:normal;font-variant-numeric:normal"
             xml:space="preserve"
             id="text2147"><tspan
               x="15.907481"
               y="0"
               fill="#000000"
               font-family="Lato"
               font-size="9.7293px"
               stroke-width="1.2162"
               text-align="center"
               text-anchor="middle"
               style="font-variant-caps:normal;font-variant-east-asian:normal;font-variant-ligatures:normal;font-variant-numeric:normal"
               id="tspan2145">500</tspan></text><text
             transform="matrix(.2897 0 0 .2902 183.76 75.436)"
             x="15.907482"
             style="font-variant-caps:normal;font-variant-east-asian:normal;font-variant-ligatures:normal;font-variant-numeric:normal"
             xml:space="preserve"
             id="text2151"><tspan
               x="15.907481"
               y="0"
               fill="#000000"
               font-family="Lato"
               font-size="9.7293px"
               stroke-width="1.2162"
               text-align="center"
               text-anchor="middle"
               style="font-variant-caps:normal;font-variant-east-asian:normal;font-variant-ligatures:normal;font-variant-numeric:normal"
               id="tspan2149">600</tspan></text><text
             transform="matrix(.2897 0 0 .2902 214.62 75.436)"
             x="15.907482"
             style="font-variant-caps:normal;font-variant-east-asian:normal;font-variant-ligatures:normal;font-variant-numeric:normal"
             xml:space="preserve"
             id="text2155"><tspan
               x="15.907481"
               y="0"
               fill="#000000"
               font-family="Lato"
               font-size="9.7293px"
               stroke-width="1.2162"
               text-align="center"
               text-anchor="middle"
               style="font-variant-caps:normal;font-variant-east-asian:normal;font-variant-ligatures:normal;font-variant-numeric:normal"
               id="tspan2153">700</tspan></text><text
             transform="matrix(.2897 0 0 .2902 245.47 75.436)"
             x="15.907482"
             style="font-variant-caps:normal;font-variant-east-asian:normal;font-variant-ligatures:normal;font-variant-numeric:normal"
             xml:space="preserve"
             id="text2159"><tspan
               x="15.907481"
               y="0"
               fill="#000000"
               font-family="Lato"
               font-size="9.7293px"
               stroke-width="1.2162"
               text-align="center"
               text-anchor="middle"
               style="font-variant-caps:normal;font-variant-east-asian:normal;font-variant-ligatures:normal;font-variant-numeric:normal"
               id="tspan2157">800</tspan></text></g></g><text
         transform="matrix(0 -.2902 .2897 0 113.24 49.865)"
         font-size="9.7293px"
         stroke-width="1.2162"
         style="font-variant-caps:normal;font-variant-east-asian:normal;font-variant-ligatures:normal;font-variant-numeric:normal"
         xml:space="preserve"
         id="text2167"><tspan
           x="0"
           y="0"
           fill="#000000"
           font-family="Lato"
           font-size="9.7293px"
           stroke-width="1.2162"
           style="font-variant-caps:normal;font-variant-east-asian:normal;font-variant-ligatures:normal;font-variant-numeric:normal"
           id="tspan2165">Relative Spectrum</tspan></text></g><g
       fill="none"
       stroke="#858585"
       stroke-width=".27518"
       id="g2189"><path
         transform="matrix(.28832 0 0 .28857 -56.163 90.912)"
         d="m617.27-296.75h-4.496v230.4h449.56v-4.4972"
         id="path2171" /><path
         transform="matrix(.28832 0 0 .28857 -56.163 90.912)"
         d="m612.77-250.67h4.496"
         id="path2173" /><path
         transform="matrix(.28832 0 0 .28857 -56.163 90.912)"
         d="m612.77-204.59h4.496"
         id="path2175" /><path
         transform="matrix(.28832 0 0 .28857 -56.163 90.912)"
         d="m612.77-158.5h4.496"
         id="path2177" /><path
         transform="matrix(.28832 0 0 .28857 -56.163 90.912)"
         d="m612.77-112.42h4.496"
         id="path2179" /><path
         transform="matrix(.28832 0 0 .28857 -56.163 90.912)"
         d="m634.18-66.344v-4.4972"
         id="path2181" /><path
         transform="matrix(.28832 0 0 .28857 -56.163 90.912)"
         d="m741.22-66.344 2e-5 -4.4972"
         id="path2183" /><path
         transform="matrix(.28832 0 0 .28857 -56.163 90.912)"
         d="m848.25-66.344 2e-5 -4.4972"
         id="path2185" /><path
         transform="matrix(.28832 0 0 .28857 -56.163 90.912)"
         d="m955.29-66.344v-4.4972"
         id="path2187" /></g></g></svg>
