<svg width="1e3" height="400" version="1.1" viewBox="0 0 1e3 400" xml:space="preserve" xmlns="http://www.w3.org/2000/svg"><g transform="matrix(.82153 0 0 .82233 354.73 -282.45)" fill="none" stroke-linejoin="round" stroke-miterlimit="2" stroke-width="24.343"><path transform="matrix(.13328 0 0 .13339 0 1056)" d="m930.9-2867.5v-2.51" stroke="#610061"/><path transform="matrix(.13328 0 0 .13339 0 1056)" d="m941.55-2867.5v-22.03" stroke="#640065"/><path transform="matrix(.13328 0 0 .13339 0 1056)" d="m952.2-2867.5v-21.35" stroke="#67006a"/><path transform="matrix(.13328 0 0 .13339 0 1056)" d="m962.85-2867.5v-30.1" stroke="#6a006e"/><path transform="matrix(.13328 0 0 .13339 0 1056)" d="m973.49-2867.5v-19" stroke="#6c0073"/><path transform="matrix(.13328 0 0 .13339 0 1056)" d="m984.15-2867.5v-21.53" stroke="#6f0077"/><path transform="matrix(.13328 0 0 .13339 0 1056)" d="m994.79-2867.5v-6.22" stroke="#71007b"/><path transform="matrix(.13328 0 0 .13339 0 1056)" d="m1005.4-2867.5v-2.01" stroke="#73007f"/><path transform="matrix(.13328 0 0 .13339 0 1056)" d="m1016.1-2867.5v-12.27" stroke="#750084"/><path transform="matrix(.13328 0 0 .13339 0 1056)" d="m1026.7-2867.5v-9.75" stroke="#708"/><path transform="matrix(.13328 0 0 .13339 0 1056)" d="m1037.4-2867.5v-4.36" stroke="#79008c"/><path transform="matrix(.13328 0 0 .13339 0 1056)" d="m1048-2867.5v-7.9" stroke="#7b0090"/><path transform="matrix(.13328 0 0 .13339 0 1056)" d="m1058.7-2867.5v-2.69" stroke="#7c0094"/><path transform="matrix(.13328 0 0 .13339 0 1056)" d="m1069.3-2867.5v-8.91" stroke="#7d0098"/><path transform="matrix(.13328 0 0 .13339 0 1056)" d="m1080-2867.5v-2.51" stroke="#7e009c"/><path transform="matrix(.13328 0 0 .13339 0 1056)" d="m1090.6-2867.5v-2.51" stroke="#7f00a0"/><path transform="matrix(.13328 0 0 .13339 0 1056)" d="m1101.3-2867.5v-9.25" stroke="#8000a4"/><path transform="matrix(.13328 0 0 .13339 0 1056)" d="m1111.9-2867.5v-5.88" stroke="#8100a8"/><path transform="matrix(.13328 0 0 .13339 0 1056)" d="m1122.6-2867.5v-9.25" stroke="#8100ac"/><path transform="matrix(.13328 0 0 .13339 0 1056)" d="m1133.2-2867.5v-3.19" stroke="#8200b0"/><path transform="matrix(.13328 0 0 .13339 0 1056)" d="m1143.9-2867.5v-5.21" stroke="#8200b4"/><path transform="matrix(.13328 0 0 .13339 0 1056)" d="m1154.5-2867.5v-4.2" stroke="#8200b8"/><path transform="matrix(.13328 0 0 .13339 0 1056)" d="m1165.2-2867.5v-3.53" stroke="#8200bc"/><path transform="matrix(.13328 0 0 .13339 0 1056)" d="m1175.8-2867.5v-4.7" stroke="#8200c0"/><path transform="matrix(.13328 0 0 .13339 0 1056)" d="m1186.5-2867.5v-7.73" stroke="#8200c4"/><path transform="matrix(.13328 0 0 .13339 0 1056)" d="m1197.1-2867.5v-3.69" stroke="#8100c7"/><path transform="matrix(.13328 0 0 .13339 0 1056)" d="m1207.8-2867.5v-6.56" stroke="#8100cb"/><path transform="matrix(.13328 0 0 .13339 0 1056)" d="m1218.4-2867.5v-1.83" stroke="#8000cf"/><path transform="matrix(.13328 0 0 .13339 0 1056)" d="m1229-2867.5v-8.24" stroke="#7f00d3"/><path transform="matrix(.13328 0 0 .13339 0 1056)" d="m1239.7-2867.5v-12.44" stroke="#7e00d6"/><path transform="matrix(.13328 0 0 .13339 0 1056)" d="m1250.4-2867.5v-14.46" stroke="#7d00da"/><path transform="matrix(.13328 0 0 .13339 0 1056)" d="m1261-2867.5v-20.51" stroke="#7c00de"/><path transform="matrix(.13328 0 0 .13339 0 1056)" d="m1271.6-2867.5v-23.38" stroke="#7a00e2"/><path transform="matrix(.13328 0 0 .13339 0 1056)" d="m1282.3-2867.5v-26.57" stroke="#7900e5"/><path transform="matrix(.13328 0 0 .13339 0 1056)" d="m1292.9-2867.5v-28.58" stroke="#7700e9"/><path transform="matrix(.13328 0 0 .13339 0 1056)" d="m1303.6-2867.5v-42.38" stroke="#7500ec"/><path transform="matrix(.13328 0 0 .13339 0 1056)" d="m1314.2-2867.5v-47.92" stroke="#7300f0"/><path transform="matrix(.13328 0 0 .13339 0 1056)" d="m1324.9-2867.5v-53.99" stroke="#7100f4"/><path transform="matrix(.13328 0 0 .13339 0 1056)" d="m1335.5-2867.5v-67.44" stroke="#6f00f7"/><path transform="matrix(.13328 0 0 .13339 0 1056)" d="m1346.2-2867.5v-82.75" stroke="#6c00fb"/><path transform="matrix(.13328 0 0 .13339 0 1056)" d="m1356.8-2867.5v-91.5" stroke="#6900ff"/><path transform="matrix(.13328 0 0 .13339 0 1056)" d="m1367.5-2867.5v-104.45" stroke="#6500ff"/><path transform="matrix(.13328 0 0 .13339 0 1056)" d="m1378.1-2867.5v-125.31" stroke="#6100ff"/><path transform="matrix(.13328 0 0 .13339 0 1056)" d="m1388.8-2867.5v-147.85" stroke="#5c00ff"/><path transform="matrix(.13328 0 0 .13339 0 1056)" d="m1399.4-2867.5v-168.37" stroke="#5800ff"/><path transform="matrix(.13328 0 0 .13339 0 1056)" d="m1410.1-2867.5v-193.77" stroke="#5400ff"/><path transform="matrix(.13328 0 0 .13339 0 1056)" d="m1420.7-2867.5v-224.04" stroke="#4f00ff"/><path transform="matrix(.13328 0 0 .13339 0 1056)" d="m1431.4-2867.5v-261.05" stroke="#4b00ff"/><path transform="matrix(.13328 0 0 .13339 0 1056)" d="m1442-2867.5v-297.54" stroke="#4600ff"/><path transform="matrix(.13328 0 0 .13339 0 1056)" d="m1452.7-2867.5v-338.08" stroke="#4100ff"/><path transform="matrix(.13328 0 0 .13339 0 1056)" d="m1463.3-2867.5v-389.72" stroke="#3c00ff"/><path transform="matrix(.13328 0 0 .13339 0 1056)" d="m1474-2867.5v-443.05" stroke="#3700ff"/><path transform="matrix(.13328 0 0 .13339 0 1056)" d="m1484.6-2867.5v-506.62" stroke="#3200ff"/><path transform="matrix(.13328 0 0 .13339 0 1056)" d="m1495.2-2867.5v-584.51" stroke="#2d00ff"/><path transform="matrix(.13328 0 0 .13339 0 1056)" d="m1505.9-2867.5v-669.27" stroke="#2800ff"/><path transform="matrix(.13328 0 0 .13339 0 1056)" d="m1516.6-2867.5v-776.76" stroke="#20f"/><path transform="matrix(.13328 0 0 .13339 0 1056)" d="m1527.2-2867.5v-902.74" stroke="#1d00ff"/><path transform="matrix(.13328 0 0 .13339 0 1056)" d="m1537.8-2867.5v-1045.9" stroke="#1700ff"/><path transform="matrix(.13328 0 0 .13339 0 1056)" d="m1548.5-2867.5v-1215.6" stroke="#1000ff"/><path transform="matrix(.13328 0 0 .13339 0 1056)" d="m1559.2-2867.5v-1405" stroke="#0900ff"/><path transform="matrix(.13328 0 0 .13339 0 1056)" d="m1569.8-2867.5v-1614.4" stroke="#00f"/><path transform="matrix(.13328 0 0 .13339 0 1056)" d="m1580.4-2867.5v-1816.1" stroke="#000bff"/><path transform="matrix(.13328 0 0 .13339 0 1056)" d="m1591.1-2867.5v-2001.6" stroke="#0013ff"/><path transform="matrix(.13328 0 0 .13339 0 1056)" d="m1601.7-2867.5v-2145.3" stroke="#001aff"/><path transform="matrix(.13328 0 0 .13339 0 1056)" d="m1612.4-2867.5v-2241.6" stroke="#0021ff"/><path transform="matrix(.13328 0 0 .13339 0 1056)" d="m1623-2867.5v-2290.1" stroke="#0028ff"/><path transform="matrix(.13328 0 0 .13339 0 1056)" d="m1633.7-2867.5v-2255.8" stroke="#002eff"/><path transform="matrix(.13328 0 0 .13339 0 1056)" d="m1644.3-2867.5v-2170.7" stroke="#0034ff"/><path transform="matrix(.13328 0 0 .13339 0 1056)" d="m1655-2867.5v-2032.4" stroke="#003aff"/><path transform="matrix(.13328 0 0 .13339 0 1056)" d="m1665.6-2867.5v-1857.3" stroke="#0040ff"/><path transform="matrix(.13328 0 0 .13339 0 1056)" d="m1676.3-2867.5v-1689.3" stroke="#0046ff"/><path transform="matrix(.13328 0 0 .13339 0 1056)" d="m1686.9-2867.5v-1519.9" stroke="#004bff"/><path transform="matrix(.13328 0 0 .13339 0 1056)" d="m1697.6-2867.5v-1372.7" stroke="#0051ff"/><path transform="matrix(.13328 0 0 .13339 0 1056)" d="m1708.2-2867.5v-1252.4" stroke="#0056ff"/><path transform="matrix(.13328 0 0 .13339 0 1056)" d="m1718.9-2867.5v-1149.8" stroke="#005cff"/><path transform="matrix(.13328 0 0 .13339 0 1056)" d="m1729.5-2867.5v-1082.9" stroke="#0061ff"/><path transform="matrix(.13328 0 0 .13339 0 1056)" d="m1740.2-2867.5v-1031.8" stroke="#06f"/><path transform="matrix(.13328 0 0 .13339 0 1056)" d="m1750.8-2867.5v-986.34" stroke="#006bff"/><path transform="matrix(.13328 0 0 .13339 0 1056)" d="m1761.5-2867.5v-956.07" stroke="#0070ff"/><path transform="matrix(.13328 0 0 .13339 0 1056)" d="m1772.1-2867.5v-920.74" stroke="#0075ff"/><path transform="matrix(.13328 0 0 .13339 0 1056)" d="m1782.8-2867.5v-881.71" stroke="#007aff"/><path transform="matrix(.13328 0 0 .13339 0 1056)" d="m1793.4-2867.5v-835.64" stroke="#007fff"/><path transform="matrix(.13328 0 0 .13339 0 1056)" d="m1804.1-2867.5v-790.05" stroke="#0084ff"/><path transform="matrix(.13328 0 0 .13339 0 1056)" d="m1814.7-2867.5v-736.22" stroke="#0089ff"/><path transform="matrix(.13328 0 0 .13339 0 1056)" d="m1825.4-2867.5v-685.25" stroke="#008dff"/><path transform="matrix(.13328 0 0 .13339 0 1056)" d="m1836-2867.5v-633.62" stroke="#0092ff"/><path transform="matrix(.13328 0 0 .13339 0 1056)" d="m1846.6-2867.5v-584.17" stroke="#0097ff"/><path transform="matrix(.13328 0 0 .13339 0 1056)" d="m1857.3-2867.5v-541.95" stroke="#009bff"/><path transform="matrix(.13328 0 0 .13339 0 1056)" d="m1868-2867.5v-504.77" stroke="#00a0ff"/><path transform="matrix(.13328 0 0 .13339 0 1056)" d="m1878.6-2867.5v-480.55" stroke="#00a4ff"/><path transform="matrix(.13328 0 0 .13339 0 1056)" d="m1889.2-2867.5v-460.36" stroke="#00a9ff"/><path transform="matrix(.13328 0 0 .13339 0 1056)" d="m1899.9-2867.5v-441.86" stroke="#00adff"/><path transform="matrix(.13328 0 0 .13339 0 1056)" d="m1910.5-2867.5v-435.3" stroke="#00b2ff"/><path transform="matrix(.13328 0 0 .13339 0 1056)" d="m1921.2-2867.5v-430.76" stroke="#00b6ff"/><path transform="matrix(.13328 0 0 .13339 0 1056)" d="m1931.8-2867.5v-433.96" stroke="#0bf"/><path transform="matrix(.13328 0 0 .13339 0 1056)" d="m1942.5-2867.5v-433.28" stroke="#00bfff"/><path transform="matrix(.13328 0 0 .13339 0 1056)" d="m1953.1-2867.5v-436.99" stroke="#00c4ff"/><path transform="matrix(.13328 0 0 .13339 0 1056)" d="m1963.8-2867.5v-440.18" stroke="#00c8ff"/><path transform="matrix(.13328 0 0 .13339 0 1056)" d="m1974.4-2867.5v-444.55" stroke="#0cf"/><path transform="matrix(.13328 0 0 .13339 0 1056)" d="m1985.1-2867.5v-450.78" stroke="#00d1ff"/><path transform="matrix(.13328 0 0 .13339 0 1056)" d="m1995.7-2867.5v-455.66" stroke="#00d5ff"/><path transform="matrix(.13328 0 0 .13339 0 1056)" d="m2006.4-2867.5v-470.46" stroke="#00d9ff"/><path transform="matrix(.13328 0 0 .13339 0 1056)" d="m2017-2867.5v-481.05" stroke="#0df"/><path transform="matrix(.13328 0 0 .13339 0 1056)" d="m2027.7-2867.5v-494.18" stroke="#00e2ff"/><path transform="matrix(.13328 0 0 .13339 0 1056)" d="m2038.3-2867.5v-514.02" stroke="#00e6ff"/><path transform="matrix(.13328 0 0 .13339 0 1056)" d="m2049-2867.5v-532.86" stroke="#00eaff"/><path transform="matrix(.13328 0 0 .13339 0 1056)" d="m2059.6-2867.5v-552.04" stroke="#0ef"/><path transform="matrix(.13328 0 0 .13339 0 1056)" d="m2070.3-2867.5v-579.45" stroke="#00f2ff"/><path transform="matrix(.13328 0 0 .13339 0 1056)" d="m2080.9-2867.5v-606.54" stroke="#00f6ff"/><path transform="matrix(.13328 0 0 .13339 0 1056)" d="m2091.6-2867.5v-630.26" stroke="#00faff"/><path transform="matrix(.13328 0 0 .13339 0 1056)" d="m2102.2-2867.5v-660.02" stroke="#0ff"/><path transform="matrix(.13328 0 0 .13339 0 1056)" d="m2112.8-2867.5v-686.27" stroke="#00fff4"/><path transform="matrix(.13328 0 0 .13339 0 1056)" d="m2123.5-2867.5v-717.04" stroke="#00ffea"/><path transform="matrix(.13328 0 0 .13339 0 1056)" d="m2134.2-2867.5v-745.47" stroke="#00ffdf"/><path transform="matrix(.13328 0 0 .13339 0 1056)" d="m2144.8-2867.5v-775.75" stroke="#00ffd5"/><path transform="matrix(.13328 0 0 .13339 0 1056)" d="m2155.4-2867.5v-803.17" stroke="#00ffca"/><path transform="matrix(.13328 0 0 .13339 0 1056)" d="m2166.1-2867.5v-832.77" stroke="#00ffbf"/><path transform="matrix(.13328 0 0 .13339 0 1056)" d="m2176.7-2867.5v-857.83" stroke="#00ffb4"/><path transform="matrix(.13328 0 0 .13339 0 1056)" d="m2187.4-2867.5v-887.27" stroke="#00ffa9"/><path transform="matrix(.13328 0 0 .13339 0 1056)" d="m2198-2867.5v-915.19" stroke="#00ff9e"/><path transform="matrix(.13328 0 0 .13339 0 1056)" d="m2208.7-2867.5v-942.1" stroke="#00ff92"/><path transform="matrix(.13328 0 0 .13339 0 1056)" d="m2219.3-2867.5v-967" stroke="#00ff86"/><path transform="matrix(.13328 0 0 .13339 0 1056)" d="m2230-2867.5v-992.56" stroke="#00ff7a"/><path transform="matrix(.13328 0 0 .13339 0 1056)" d="m2240.6-2867.5v-1014.6" stroke="#00ff6e"/><path transform="matrix(.13328 0 0 .13339 0 1056)" d="m2251.3-2867.5v-1037" stroke="#00ff61"/><path transform="matrix(.13328 0 0 .13339 0 1056)" d="m2261.9-2867.5v-1061.5" stroke="#00ff54"/><path transform="matrix(.13328 0 0 .13339 0 1056)" d="m2272.6-2867.5v-1081.5" stroke="#00ff46"/><path transform="matrix(.13328 0 0 .13339 0 1056)" d="m2283.2-2867.5v-1101.6" stroke="#00ff37"/><path transform="matrix(.13328 0 0 .13339 0 1056)" d="m2293.9-2867.5v-1118.5" stroke="#00ff28"/><path transform="matrix(.13328 0 0 .13339 0 1056)" d="m2304.5-2867.5v-1138.6" stroke="#00ff17"/><path transform="matrix(.13328 0 0 .13339 0 1056)" d="m2315.2-2867.5v-1151.7" stroke="#0f0"/><path transform="matrix(.13328 0 0 .13339 0 1056)" d="m2325.8-2867.5v-1167.3" stroke="#08ff00"/><path transform="matrix(.13328 0 0 .13339 0 1056)" d="m2336.5-2867.5v-1182.8" stroke="#0eff00"/><path transform="matrix(.13328 0 0 .13339 0 1056)" d="m2347.1-2867.5v-1195.6" stroke="#14ff00"/><path transform="matrix(.13328 0 0 .13339 0 1056)" d="m2357.8-2867.5v-1205.5" stroke="#19ff00"/><path transform="matrix(.13328 0 0 .13339 0 1056)" d="m2368.4-2867.5v-1219.1" stroke="#1eff00"/><path transform="matrix(.13328 0 0 .13339 0 1056)" d="m2379.1-2867.5v-1229.6" stroke="#23ff00"/><path transform="matrix(.13328 0 0 .13339 0 1056)" d="m2389.7-2867.5v-1239.7" stroke="#28ff00"/><path transform="matrix(.13328 0 0 .13339 0 1056)" d="m2400.4-2867.5v-1246.2" stroke="#2cff00"/><path transform="matrix(.13328 0 0 .13339 0 1056)" d="m2411-2867.5v-1256.8" stroke="#31ff00"/><path transform="matrix(.13328 0 0 .13339 0 1056)" d="m2421.6-2867.5v-1265.2" stroke="#35ff00"/><path transform="matrix(.13328 0 0 .13339 0 1056)" d="m2432.3-2867.5v-1273" stroke="#3aff00"/><path transform="matrix(.13328 0 0 .13339 0 1056)" d="m2442.9-2867.5v-1278.4" stroke="#3eff00"/><path transform="matrix(.13328 0 0 .13339 0 1056)" d="m2453.6-2867.5v-1286.2" stroke="#42ff00"/><path transform="matrix(.13328 0 0 .13339 0 1056)" d="m2464.2-2867.5v-1291.3" stroke="#46ff00"/><path transform="matrix(.13328 0 0 .13339 0 1056)" d="m2474.9-2867.5v-1299.4" stroke="#4aff00"/><path transform="matrix(.13328 0 0 .13339 0 1056)" d="m2485.5-2867.5v-1300.7" stroke="#4eff00"/><path transform="matrix(.13328 0 0 .13339 0 1056)" d="m2496.2-2867.5v-1306.3" stroke="#52ff00"/><path transform="matrix(.13328 0 0 .13339 0 1056)" d="m2506.8-2867.5v-1318.2" stroke="#56ff00"/><path transform="matrix(.13328 0 0 .13339 0 1056)" d="m2517.5-2867.5v-1319.6" stroke="#59ff00"/><path transform="matrix(.13328 0 0 .13339 0 1056)" d="m2528.1-2867.5v-1328.3" stroke="#5dff00"/><path transform="matrix(.13328 0 0 .13339 0 1056)" d="m2538.8-2867.5v-1330.8" stroke="#61ff00"/><path transform="matrix(.13328 0 0 .13339 0 1056)" d="m2549.4-2867.5v-1340.1" stroke="#65ff00"/><path transform="matrix(.13328 0 0 .13339 0 1056)" d="m2560.1-2867.5v-1346.6" stroke="#68ff00"/><path transform="matrix(.13328 0 0 .13339 0 1056)" d="m2570.7-2867.5v-1349.7" stroke="#6cff00"/><path transform="matrix(.13328 0 0 .13339 0 1056)" d="m2581.4-2867.5v-1358.1" stroke="#6fff00"/><path transform="matrix(.13328 0 0 .13339 0 1056)" d="m2592-2867.5v-1363.8" stroke="#73ff00"/><path transform="matrix(.13328 0 0 .13339 0 1056)" d="m2602.7-2867.5v-1367.8" stroke="#7f0"/><path transform="matrix(.13328 0 0 .13339 0 1056)" d="m2613.3-2867.5v-1375.2" stroke="#7aff00"/><path transform="matrix(.13328 0 0 .13339 0 1056)" d="m2624-2867.5v-1381.1" stroke="#7eff00"/><path transform="matrix(.13328 0 0 .13339 0 1056)" d="m2634.6-2867.5v-1389.2" stroke="#81ff00"/><path transform="matrix(.13328 0 0 .13339 0 1056)" d="m2645.3-2867.5v-1395.8" stroke="#84ff00"/><path transform="matrix(.13328 0 0 .13339 0 1056)" d="m2655.9-2867.5v-1404.2" stroke="#8f0"/><path transform="matrix(.13328 0 0 .13339 0 1056)" d="m2666.6-2867.5v-1410.7" stroke="#8bff00"/><path transform="matrix(.13328 0 0 .13339 0 1056)" d="m2677.2-2867.5v-1419" stroke="#8fff00"/><path transform="matrix(.13328 0 0 .13339 0 1056)" d="m2687.8-2867.5v-1426.2" stroke="#92ff00"/><path transform="matrix(.13328 0 0 .13339 0 1056)" d="m2698.5-2867.5v-1431.2" stroke="#95ff00"/><path transform="matrix(.13328 0 0 .13339 0 1056)" d="m2709.2-2867.5v-1438.1" stroke="#9f0"/><path transform="matrix(.13328 0 0 .13339 0 1056)" d="m2719.8-2867.5v-1445.9" stroke="#9cff00"/><path transform="matrix(.13328 0 0 .13339 0 1056)" d="m2730.4-2867.5v-1455.5" stroke="#9fff00"/><path transform="matrix(.13328 0 0 .13339 0 1056)" d="m2741.1-2867.5v-1462.7" stroke="#a2ff00"/><path transform="matrix(.13328 0 0 .13339 0 1056)" d="m2751.7-2867.5v-1468.9" stroke="#a6ff00"/><path transform="matrix(.13328 0 0 .13339 0 1056)" d="m2762.4-2867.5v-1478.2" stroke="#a9ff00"/><path transform="matrix(.13328 0 0 .13339 0 1056)" d="m2773-2867.5v-1490.3" stroke="#acff00"/><path transform="matrix(.13328 0 0 .13339 0 1056)" d="m2783.7-2867.5v-1494.8" stroke="#afff00"/><path transform="matrix(.13328 0 0 .13339 0 1056)" d="m2794.3-2867.5v-1506.4" stroke="#b3ff00"/><path transform="matrix(.13328 0 0 .13339 0 1056)" d="m2805-2867.5v-1509.6" stroke="#b6ff00"/><path transform="matrix(.13328 0 0 .13339 0 1056)" d="m2815.6-2867.5v-1520.2" stroke="#b9ff00"/><path transform="matrix(.13328 0 0 .13339 0 1056)" d="m2826.3-2867.5v-1527.3" stroke="#bcff00"/><path transform="matrix(.13328 0 0 .13339 0 1056)" d="m2836.9-2867.5v-1536" stroke="#bfff00"/><path transform="matrix(.13328 0 0 .13339 0 1056)" d="m2847.6-2867.5v-1542.6" stroke="#c2ff00"/><path transform="matrix(.13328 0 0 .13339 0 1056)" d="m2858.2-2867.5v-1554.4" stroke="#c5ff00"/><path transform="matrix(.13328 0 0 .13339 0 1056)" d="m2868.9-2867.5v-1565.1" stroke="#c9ff00"/><path transform="matrix(.13328 0 0 .13339 0 1056)" d="m2879.5-2867.5v-1570" stroke="#cf0"/><path transform="matrix(.13328 0 0 .13339 0 1056)" d="m2890.2-2867.5v-1578.2" stroke="#cfff00"/><path transform="matrix(.13328 0 0 .13339 0 1056)" d="m2900.8-2867.5v-1590.4" stroke="#d2ff00"/><path transform="matrix(.13328 0 0 .13339 0 1056)" d="m2911.5-2867.5v-1599.8" stroke="#d5ff00"/><path transform="matrix(.13328 0 0 .13339 0 1056)" d="m2922.1-2867.5v-1607.2" stroke="#d8ff00"/><path transform="matrix(.13328 0 0 .13339 0 1056)" d="m2932.8-2867.5v-1617.1" stroke="#dbff00"/><path transform="matrix(.13328 0 0 .13339 0 1056)" d="m2943.4-2867.5v-1627" stroke="#deff00"/><path transform="matrix(.13328 0 0 .13339 0 1056)" d="m2954-2867.5v-1631.4" stroke="#e1ff00"/><path transform="matrix(.13328 0 0 .13339 0 1056)" d="m2964.7-2867.5v-1643.4" stroke="#e4ff00"/><path transform="matrix(.13328 0 0 .13339 0 1056)" d="m2975.4-2867.5v-1650.8" stroke="#e7ff00"/><path transform="matrix(.13328 0 0 .13339 0 1056)" d="m2986-2867.5v-1665.2" stroke="#eaff00"/><path transform="matrix(.13328 0 0 .13339 0 1056)" d="m2996.6-2867.5v-1671.4" stroke="#edff00"/><path transform="matrix(.13328 0 0 .13339 0 1056)" d="m3007.3-2867.5v-1679" stroke="#f0ff00"/><path transform="matrix(.13328 0 0 .13339 0 1056)" d="m3018-2867.5v-1688.8" stroke="#f3ff00"/><path transform="matrix(.13328 0 0 .13339 0 1056)" d="m3028.6-2867.5v-1693" stroke="#f6ff00"/><path transform="matrix(.13328 0 0 .13339 0 1056)" d="m3039.2-2867.5v-1706.4" stroke="#f9ff00"/><path transform="matrix(.13328 0 0 .13339 0 1056)" d="m3049.9-2867.5v-1715" stroke="#fcff00"/><path transform="matrix(.13328 0 0 .13339 0 1056)" d="m3060.5-2867.5v-1722.7" stroke="#ff0"/><path transform="matrix(.13328 0 0 .13339 0 1056)" d="m3071.2-2867.5v-1733.2" stroke="#fffb00"/><path transform="matrix(.13328 0 0 .13339 0 1056)" d="m3081.8-2867.5v-1741.9" stroke="#fff800"/><path transform="matrix(.13328 0 0 .13339 0 1056)" d="m3092.5-2867.5v-1753" stroke="#fff500"/><path transform="matrix(.13328 0 0 .13339 0 1056)" d="m3103.1-2867.5v-1760.1" stroke="#fff200"/><path transform="matrix(.13328 0 0 .13339 0 1056)" d="m3113.8-2867.5v-1763.6" stroke="#ffef00"/><path transform="matrix(.13328 0 0 .13339 0 1056)" d="m3124.4-2867.5v-1770.5" stroke="#ffeb00"/><path transform="matrix(.13328 0 0 .13339 0 1056)" d="m3135.1-2867.5v-1782.4" stroke="#ffe800"/><path transform="matrix(.13328 0 0 .13339 0 1056)" d="m3145.7-2867.5v-1791.7" stroke="#ffe500"/><path transform="matrix(.13328 0 0 .13339 0 1056)" d="m3156.4-2867.5v-1796.4" stroke="#ffe200"/><path transform="matrix(.13328 0 0 .13339 0 1056)" d="m3167-2867.5v-1804.8" stroke="#ffdf00"/><path transform="matrix(.13328 0 0 .13339 0 1056)" d="m3177.7-2867.5v-1805.2" stroke="#ffdb00"/><path transform="matrix(.13328 0 0 .13339 0 1056)" d="m3188.3-2867.5v-1810" stroke="#ffd800"/><path transform="matrix(.13328 0 0 .13339 0 1056)" d="m3199-2867.5v-1813.9" stroke="#ffd500"/><path transform="matrix(.13328 0 0 .13339 0 1056)" d="m3209.6-2867.5v-1815.6" stroke="#ffd200"/><path transform="matrix(.13328 0 0 .13339 0 1056)" d="m3220.3-2867.5v-1819.8" stroke="#ffce00"/><path transform="matrix(.13328 0 0 .13339 0 1056)" d="m3230.9-2867.5v-1822.8" stroke="#ffcb00"/><path transform="matrix(.13328 0 0 .13339 0 1056)" d="m3241.6-2867.5v-1830" stroke="#ffc800"/><path transform="matrix(.13328 0 0 .13339 0 1056)" d="m3252.2-2867.5v-1825.2" stroke="#ffc400"/><path transform="matrix(.13328 0 0 .13339 0 1056)" d="m3262.9-2867.5v-1822.3" stroke="#ffc100"/><path transform="matrix(.13328 0 0 .13339 0 1056)" d="m3273.5-2867.5v-1819.6" stroke="#ffbe00"/><path transform="matrix(.13328 0 0 .13339 0 1056)" d="m3284.2-2867.5v-1820.6" stroke="#ffba00"/><path transform="matrix(.13328 0 0 .13339 0 1056)" d="m3294.8-2867.5v-1816.9" stroke="#ffb700"/><path transform="matrix(.13328 0 0 .13339 0 1056)" d="m3305.4-2867.5v-1814.9" stroke="#ffb300"/><path transform="matrix(.13328 0 0 .13339 0 1056)" d="m3316.1-2867.5v-1807.5" stroke="#ffb000"/><path transform="matrix(.13328 0 0 .13339 0 1056)" d="m3326.7-2867.5v-1804" stroke="#ffac00"/><path transform="matrix(.13328 0 0 .13339 0 1056)" d="m3337.4-2867.5v-1797.2" stroke="#ffa900"/><path transform="matrix(.13328 0 0 .13339 0 1056)" d="m3348-2867.5v-1793.7" stroke="#ffa500"/><path transform="matrix(.13328 0 0 .13339 0 1056)" d="m3358.7-2867.5v-1785.6" stroke="#ffa200"/><path transform="matrix(.13328 0 0 .13339 0 1056)" d="m3369.3-2867.5v-1778.1" stroke="#ff9e00"/><path transform="matrix(.13328 0 0 .13339 0 1056)" d="m3380-2867.5v-1769.2" stroke="#ff9b00"/><path transform="matrix(.13328 0 0 .13339 0 1056)" d="m3390.6-2867.5v-1757" stroke="#ff9700"/><path transform="matrix(.13328 0 0 .13339 0 1056)" d="m3401.3-2867.5v-1751.3" stroke="#ff9400"/><path transform="matrix(.13328 0 0 .13339 0 1056)" d="m3411.9-2867.5v-1741.1" stroke="#ff9000"/><path transform="matrix(.13328 0 0 .13339 0 1056)" d="m3422.6-2867.5v-1730" stroke="#ff8d00"/><path transform="matrix(.13328 0 0 .13339 0 1056)" d="m3433.2-2867.5v-1717.2" stroke="#ff8900"/><path transform="matrix(.13328 0 0 .13339 0 1056)" d="m3443.9-2867.5v-1701.2" stroke="#ff8500"/><path transform="matrix(.13328 0 0 .13339 0 1056)" d="m3454.5-2867.5v-1689.1" stroke="#ff8100"/><path transform="matrix(.13328 0 0 .13339 0 1056)" d="m3465.2-2867.5v-1673.1" stroke="#ff7e00"/><path transform="matrix(.13328 0 0 .13339 0 1056)" d="m3475.8-2867.5v-1657.8" stroke="#ff7a00"/><path transform="matrix(.13328 0 0 .13339 0 1056)" d="m3486.5-2867.5v-1642.3" stroke="#ff7600"/><path transform="matrix(.13328 0 0 .13339 0 1056)" d="m3497.1-2867.5v-1629.7" stroke="#ff7200"/><path transform="matrix(.13328 0 0 .13339 0 1056)" d="m3507.8-2867.5v-1613.4" stroke="#ff6f00"/><path transform="matrix(.13328 0 0 .13339 0 1056)" d="m3518.4-2867.5v-1594.4" stroke="#ff6b00"/><path transform="matrix(.13328 0 0 .13339 0 1056)" d="m3529.1-2867.5v-1576.4" stroke="#ff6700"/><path transform="matrix(.13328 0 0 .13339 0 1056)" d="m3539.7-2867.5v-1559.9" stroke="#ff6300"/><path transform="matrix(.13328 0 0 .13339 0 1056)" d="m3550.4-2867.5v-1539.1" stroke="#ff5f00"/><path transform="matrix(.13328 0 0 .13339 0 1056)" d="m3561-2867.5v-1517.7" stroke="#ff5b00"/><path transform="matrix(.13328 0 0 .13339 0 1056)" d="m3571.6-2867.5v-1500.7" stroke="#ff5700"/><path transform="matrix(.13328 0 0 .13339 0 1056)" d="m3582.3-2867.5v-1476.3" stroke="#ff5300"/><path transform="matrix(.13328 0 0 .13339 0 1056)" d="m3593-2867.5v-1454.6" stroke="#ff4e00"/><path transform="matrix(.13328 0 0 .13339 0 1056)" d="m3603.6-2867.5v-1438.5" stroke="#ff4a00"/><path transform="matrix(.13328 0 0 .13339 0 1056)" d="m3614.2-2867.5v-1416.1" stroke="#ff4600"/><path transform="matrix(.13328 0 0 .13339 0 1056)" d="m3624.9-2867.5v-1397.4" stroke="#ff4200"/><path transform="matrix(.13328 0 0 .13339 0 1056)" d="m3635.5-2867.5v-1376.9" stroke="#ff3d00"/><path transform="matrix(.13328 0 0 .13339 0 1056)" d="m3646.2-2867.5v-1356.4" stroke="#ff3900"/><path transform="matrix(.13328 0 0 .13339 0 1056)" d="m3656.8-2867.5v-1335.2" stroke="#ff3400"/><path transform="matrix(.13328 0 0 .13339 0 1056)" d="m3667.5-2867.5v-1309.6" stroke="#ff2f00"/><path transform="matrix(.13328 0 0 .13339 0 1056)" d="m3678.1-2867.5v-1293.1" stroke="#ff2a00"/><path transform="matrix(.13328 0 0 .13339 0 1056)" d="m3688.8-2867.5v-1272" stroke="#ff2500"/><path transform="matrix(.13328 0 0 .13339 0 1056)" d="m3699.4-2867.5v-1245.2" stroke="#ff2000"/><path transform="matrix(.13328 0 0 .13339 0 1056)" d="m3710.1-2867.5v-1217.6" stroke="#ff1b00"/><path transform="matrix(.13328 0 0 .13339 0 1056)" d="m3720.7-2867.5v-1196.9" stroke="#ff1500"/><path transform="matrix(.13328 0 0 .13339 0 1056)" d="m3731.4-2867.5v-1173.4" stroke="#ff0f00"/><path transform="matrix(.13328 0 0 .13339 0 1056)" d="m3742-2867.5v-1149.7" stroke="#ff0900"/><g stroke="#f00"><path transform="matrix(.13328 0 0 .13339 0 1056)" d="m3752.7-2867.5v-1128.5"/><path transform="matrix(.13328 0 0 .13339 0 1056)" d="m3763.3-2867.5v-1105.9"/><path transform="matrix(.13328 0 0 .13339 0 1056)" d="m3774-2867.5v-1085.8"/><path transform="matrix(.13328 0 0 .13339 0 1056)" d="m3784.6-2867.5v-1059.3"/><path transform="matrix(.13328 0 0 .13339 0 1056)" d="m3795.3-2867.5v-1038.5"/><path transform="matrix(.13328 0 0 .13339 0 1056)" d="m3805.9-2867.5v-1010.7"/><path transform="matrix(.13328 0 0 .13339 0 1056)" d="m3816.6-2867.5v-989.53"/><path transform="matrix(.13328 0 0 .13339 0 1056)" d="m3827.2-2867.5v-965.32"/><path transform="matrix(.13328 0 0 .13339 0 1056)" d="m3837.8-2867.5v-947.65"/><path transform="matrix(.13328 0 0 .13339 0 1056)" d="m3848.5-2867.5v-925.78"/><path transform="matrix(.13328 0 0 .13339 0 1056)" d="m3859.2-2867.5v-906.44"/><path transform="matrix(.13328 0 0 .13339 0 1056)" d="m3869.8-2867.5v-887.44"/><path transform="matrix(.13328 0 0 .13339 0 1056)" d="m3880.4-2867.5v-865.24"/><path transform="matrix(.13328 0 0 .13339 0 1056)" d="m3891.1-2867.5v-840"/><path transform="matrix(.13328 0 0 .13339 0 1056)" d="m3901.7-2867.5v-820.16"/><path transform="matrix(.13328 0 0 .13339 0 1056)" d="m3912.4-2867.5v-795.6"/><path transform="matrix(.13328 0 0 .13339 0 1056)" d="m3923-2867.5v-775.92"/><path transform="matrix(.13328 0 0 .13339 0 1056)" d="m3933.7-2867.5v-758.76"/><path transform="matrix(.13328 0 0 .13339 0 1056)" d="m3944.3-2867.5v-740.42"/><path transform="matrix(.13328 0 0 .13339 0 1056)" d="m3955-2867.5v-717.54"/><path transform="matrix(.13328 0 0 .13339 0 1056)" d="m3965.6-2867.5v-697.04"/><path transform="matrix(.13328 0 0 .13339 0 1056)" d="m3976.3-2867.5v-683.91"/><path transform="matrix(.13328 0 0 .13339 0 1056)" d="m3986.9-2867.5v-664.9"/><path transform="matrix(.13328 0 0 .13339 0 1056)" d="m3997.6-2867.5v-643.88"/><path transform="matrix(.13328 0 0 .13339 0 1056)" d="m4008.2-2867.5v-631.94"/><path transform="matrix(.13328 0 0 .13339 0 1056)" d="m4018.9-2867.5v-613.1"/><path transform="matrix(.13328 0 0 .13339 0 1056)" d="m4029.5-2867.5v-593.58"/><path transform="matrix(.13328 0 0 .13339 0 1056)" d="m4040.2-2867.5v-579.45"/><path transform="matrix(.13328 0 0 .13339 0 1056)" d="m4050.8-2867.5v-566"/><path transform="matrix(.13328 0 0 .13339 0 1056)" d="m4061.5-2867.5v-545.81"/><path transform="matrix(.13328 0 0 .13339 0 1056)" d="m4072.1-2867.5v-533.54"/><path transform="matrix(.13328 0 0 .13339 0 1056)" d="m4082.8-2867.5v-513.52"/><path transform="matrix(.13328 0 0 .13339 0 1056)" d="m4093.4-2867.5v-503.43"/><path transform="matrix(.13328 0 0 .13339 0 1056)" d="m4104.1-2867.5v-484.75"/><path transform="matrix(.13328 0 0 .13339 0 1056)" d="m4114.7-2867.5v-468.61"/><path transform="matrix(.13328 0 0 .13339 0 1056)" d="m4125.4-2867.5v-460.7"/><path transform="matrix(.13328 0 0 .13339 0 1056)" d="m4136-2867.5v-449.94"/><path transform="matrix(.13328 0 0 .13339 0 1056)" d="m4146.7-2867.5v-432.78"/><path transform="matrix(.13328 0 0 .13339 0 1056)" d="m4157.3-2867.5v-415.79"/><path transform="matrix(.13328 0 0 .13339 0 1056)" d="m4167.9-2867.5v-410.58"/><path transform="matrix(.13328 0 0 .13339 0 1056)" d="m4178.6-2867.5v-400.15"/><path transform="matrix(.13328 0 0 .13339 0 1056)" d="m4189.2-2867.5v-382.82"/><path transform="matrix(.13328 0 0 .13339 0 1056)" d="m4199.9-2867.5v-374.92"/><path transform="matrix(.13328 0 0 .13339 0 1056)" d="m4210.5-2867.5v-363.48"/><path transform="matrix(.13328 0 0 .13339 0 1056)" d="m4221.2-2867.5v-351.21"/><path transform="matrix(.13328 0 0 .13339 0 1056)" d="m4231.8-2867.5v-343.13"/><path transform="matrix(.13328 0 0 .13339 0 1056)" d="m4242.5-2867.5v-332.37"/><path transform="matrix(.13328 0 0 .13339 0 1056)" d="m4253.1-2867.5v-318.4"/><path transform="matrix(.13328 0 0 .13339 0 1056)" d="m4263.8-2867.5v-312.68"/><path transform="matrix(.13328 0 0 .13339 0 1056)" d="m4274.4-2867.5v-303.44"/><path transform="matrix(.13328 0 0 .13339 0 1056)" d="m4285.1-2867.5v-293.34"/><path transform="matrix(.13328 0 0 .13339 0 1056)" d="m4295.7-2867.5v-284.09"/><path transform="matrix(.13328 0 0 .13339 0 1056)" d="m4306.4-2867.5v-275"/><path transform="matrix(.13328 0 0 .13339 0 1056)" d="m4317-2867.5v-267.94"/><path transform="matrix(.13328 0 0 .13339 0 1056)" d="m4327.7-2867.5v-260.21"/><path transform="matrix(.13328 0 0 .13339 0 1056)" d="m4338.3-2867.5v-248.93"/></g><path transform="matrix(.13328 0 0 .13339 0 1056)" d="m4349-2867.5v-245.74" stroke="#fd0000"/><path transform="matrix(.13328 0 0 .13339 0 1056)" d="m4359.6-2867.5v-232.79" stroke="#fc0000"/><path transform="matrix(.13328 0 0 .13339 0 1056)" d="m4370.3-2867.5v-224.54" stroke="#fa0000"/><path transform="matrix(.13328 0 0 .13339 0 1056)" d="m4380.9-2867.5v-218.16" stroke="#f90000"/><path transform="matrix(.13328 0 0 .13339 0 1056)" d="m4391.6-2867.5v-210.58" stroke="#f70000"/><path transform="matrix(.13328 0 0 .13339 0 1056)" d="m4402.2-2867.5v-205.87" stroke="#f60000"/><path transform="matrix(.13328 0 0 .13339 0 1056)" d="m4412.9-2867.5v-194.1" stroke="#f40000"/><path transform="matrix(.13328 0 0 .13339 0 1056)" d="m4423.5-2867.5v-195.95" stroke="#f30000"/><path transform="matrix(.13328 0 0 .13339 0 1056)" d="m4434.2-2867.5v-180.64" stroke="#f20000"/><path transform="matrix(.13328 0 0 .13339 0 1056)" d="m4444.8-2867.5v-175.09" stroke="#f00000"/><path transform="matrix(.13328 0 0 .13339 0 1056)" d="m4455.4-2867.5v-174.08" stroke="#ef0000"/><path transform="matrix(.13328 0 0 .13339 0 1056)" d="m4466.1-2867.5v-164.83" stroke="#ed0000"/><path transform="matrix(.13328 0 0 .13339 0 1056)" d="m4476.8-2867.5v-166.01" stroke="#ec0000"/><path transform="matrix(.13328 0 0 .13339 0 1056)" d="m4487.4-2867.5v-152.22" stroke="#ea0000"/><path transform="matrix(.13328 0 0 .13339 0 1056)" d="m4498-2867.5v-151.38" stroke="#e90000"/><path transform="matrix(.13328 0 0 .13339 0 1056)" d="m4508.7-2867.5v-147.17" stroke="#e70000"/><path transform="matrix(.13328 0 0 .13339 0 1056)" d="m4519.3-2867.5v-140.77" stroke="#e60000"/><path transform="matrix(.13328 0 0 .13339 0 1056)" d="m4530-2867.5v-135.73" stroke="#e40000"/><path transform="matrix(.13328 0 0 .13339 0 1056)" d="m4540.6-2867.5v-129.68" stroke="#e30000"/><path transform="matrix(.13328 0 0 .13339 0 1056)" d="m4551.3-2867.5v-125.31" stroke="#e20000"/><path transform="matrix(.13328 0 0 .13339 0 1056)" d="m4561.9-2867.5v-123.96" stroke="#e00000"/><path transform="matrix(.13328 0 0 .13339 0 1056)" d="m4572.6-2867.5v-127.15" stroke="#df0000"/><path transform="matrix(.13328 0 0 .13339 0 1056)" d="m4583.2-2867.5v-111.85" stroke="#d00"/><path transform="matrix(.13328 0 0 .13339 0 1056)" d="m4593.9-2867.5v-109.99" stroke="#dc0000"/><path transform="matrix(.13328 0 0 .13339 0 1056)" d="m4604.5-2867.5v-109.83" stroke="#da0000"/><path transform="matrix(.13328 0 0 .13339 0 1056)" d="m4615.2-2867.5v-105.96" stroke="#d90000"/><path transform="matrix(.13328 0 0 .13339 0 1056)" d="m4625.8-2867.5v-101.08" stroke="#d70000"/><path transform="matrix(.13328 0 0 .13339 0 1056)" d="m4636.5-2867.5v-95.7" stroke="#d60000"/><path transform="matrix(.13328 0 0 .13339 0 1056)" d="m4647.1-2867.5v-97.89" stroke="#d40000"/><path transform="matrix(.13328 0 0 .13339 0 1056)" d="m4657.8-2867.5v-92.16" stroke="#d30000"/><path transform="matrix(.13328 0 0 .13339 0 1056)" d="m4668.4-2867.5v-92.67" stroke="#d10000"/><path transform="matrix(.13328 0 0 .13339 0 1056)" d="m4679.1-2867.5v-84.26" stroke="#d00000"/><path transform="matrix(.13328 0 0 .13339 0 1056)" d="m4689.7-2867.5v-79.89" stroke="#ce0000"/><path transform="matrix(.13328 0 0 .13339 0 1056)" d="m4700.4-2867.5v-86.95" stroke="#cd0000"/><path transform="matrix(.13328 0 0 .13339 0 1056)" d="m4711-2867.5v-77.87" stroke="#cb0000"/><path transform="matrix(.13328 0 0 .13339 0 1056)" d="m4721.7-2867.5v-73.67" stroke="#ca0000"/><path transform="matrix(.13328 0 0 .13339 0 1056)" d="m4732.3-2867.5v-68.78" stroke="#c80000"/><path transform="matrix(.13328 0 0 .13339 0 1056)" d="m4743-2867.5v-70.13" stroke="#c70000"/><path transform="matrix(.13328 0 0 .13339 0 1056)" d="m4753.6-2867.5v-62.9" stroke="#c50000"/><path transform="matrix(.13328 0 0 .13339 0 1056)" d="m4764.2-2867.5v-61.55" stroke="#c40000"/><path transform="matrix(.13328 0 0 .13339 0 1056)" d="m4774.9-2867.5v-58.7" stroke="#c20000"/><path transform="matrix(.13328 0 0 .13339 0 1056)" d="m4785.5-2867.5v-57.02" stroke="#c10000"/><path transform="matrix(.13328 0 0 .13339 0 1056)" d="m4796.2-2867.5v-49.77" stroke="#bf0000"/><path transform="matrix(.13328 0 0 .13339 0 1056)" d="m4806.8-2867.5v-54.99" stroke="#bd0000"/><path transform="matrix(.13328 0 0 .13339 0 1056)" d="m4817.5-2867.5v-56.68" stroke="#bc0000"/><path transform="matrix(.13328 0 0 .13339 0 1056)" d="m4828.1-2867.5v-57.02" stroke="#ba0000"/><path transform="matrix(.13328 0 0 .13339 0 1056)" d="m4838.8-2867.5v-49.45" stroke="#b90000"/><path transform="matrix(.13328 0 0 .13339 0 1056)" d="m4849.4-2867.5v-50.61" stroke="#b70000"/><path transform="matrix(.13328 0 0 .13339 0 1056)" d="m4860.1-2867.5v-46.41" stroke="#b60000"/><path transform="matrix(.13328 0 0 .13339 0 1056)" d="m4870.7-2867.5v-46.07" stroke="#b40000"/><path transform="matrix(.13328 0 0 .13339 0 1056)" d="m4881.4-2867.5v-37" stroke="#b30000"/><path transform="matrix(.13328 0 0 .13339 0 1056)" d="m4892-2867.5v-40.36" stroke="#b10000"/><path transform="matrix(.13328 0 0 .13339 0 1056)" d="m4902.7-2867.5v-35.65" stroke="#af0000"/><path transform="matrix(.13328 0 0 .13339 0 1056)" d="m4913.3-2867.5v-27.75" stroke="#ae0000"/><path transform="matrix(.13328 0 0 .13339 0 1056)" d="m4924-2867.5v-35.15" stroke="#ac0000"/><path transform="matrix(.13328 0 0 .13339 0 1056)" d="m4934.6-2867.5v-31.11" stroke="#ab0000"/><path transform="matrix(.13328 0 0 .13339 0 1056)" d="m4945.3-2867.5v-31.62" stroke="#a90000"/><path transform="matrix(.13328 0 0 .13339 0 1056)" d="m4955.9-2867.5v-21.35" stroke="#a80000"/><path transform="matrix(.13328 0 0 .13339 0 1056)" d="m4966.6-2867.5v-30.1" stroke="#a60000"/><path transform="matrix(.13328 0 0 .13339 0 1056)" d="m4977.2-2867.5v-22.86" stroke="#a40000"/><path transform="matrix(.13328 0 0 .13339 0 1056)" d="m4987.9-2867.5v-27.75" stroke="#a30000"/><path transform="matrix(.13328 0 0 .13339 0 1056)" d="m4998.5-2867.5v-35.82" stroke="#a10000"/><path transform="matrix(.13328 0 0 .13339 0 1056)" d="m5009.2-2867.5v-35.48" stroke="#a00000"/><path transform="matrix(.13328 0 0 .13339 0 1056)" d="m5019.8-2867.5v-29.76" stroke="#9e0000"/><path transform="matrix(.13328 0 0 .13339 0 1056)" d="m5030.5-2867.5v-25.23" stroke="#9c0000"/><path transform="matrix(.13328 0 0 .13339 0 1056)" d="m5041.1-2867.5v-27.08" stroke="#9b0000"/><path transform="matrix(.13328 0 0 .13339 0 1056)" d="m5051.8-2867.5v-15.63" stroke="#900"/><path transform="matrix(.13328 0 0 .13339 0 1056)" d="m5062.4-2867.5v-23.03" stroke="#980000"/><path transform="matrix(.13328 0 0 .13339 0 1056)" d="m5073-2867.5v-20.34" stroke="#960000"/><path transform="matrix(.13328 0 0 .13339 0 1056)" d="m5083.7-2867.5v-17.48" stroke="#940000"/><path transform="matrix(.13328 0 0 .13339 0 1056)" d="m5094.3-2867.5v-22.03" stroke="#930000"/><path transform="matrix(.13328 0 0 .13339 0 1056)" d="m5105-2867.5v-21.69" stroke="#910000"/><path transform="matrix(.13328 0 0 .13339 0 1056)" d="m5115.6-2867.5v-13.62" stroke="#8f0000"/><path transform="matrix(.13328 0 0 .13339 0 1056)" d="m5126.3-2867.5v-23.03" stroke="#8e0000"/><path transform="matrix(.13328 0 0 .13339 0 1056)" d="m5136.9-2867.5v-15.13" stroke="#8c0000"/><path transform="matrix(.13328 0 0 .13339 0 1056)" d="m5147.6-2867.5v-15.47" stroke="#8a0000"/><path transform="matrix(.13328 0 0 .13339 0 1056)" d="m5158.2-2867.5v-14.79" stroke="#890000"/><path transform="matrix(.13328 0 0 .13339 0 1056)" d="m5168.9-2867.5v-15.47" stroke="#870000"/><path transform="matrix(.13328 0 0 .13339 0 1056)" d="m5179.5-2867.5v-13.28" stroke="#850000"/><path transform="matrix(.13328 0 0 .13339 0 1056)" d="m5190.2-2867.5v-14.62" stroke="#840000"/><path transform="matrix(.13328 0 0 .13339 0 1056)" d="m5200.8-2867.5v-8.91" stroke="#820000"/><path transform="matrix(.13328 0 0 .13339 0 1056)" d="m5211.5-2867.5v-5.21" stroke="#800000"/><path transform="matrix(.13328 0 0 .13339 0 1056)" d="m5222.1-2867.5v-8.91" stroke="#7f0000"/><path transform="matrix(.13328 0 0 .13339 0 1056)" d="m5232.8-2867.5v-6.05" stroke="#7d0000"/><path transform="matrix(.13328 0 0 .13339 0 1056)" d="m5243.4-2867.5v-14.29" stroke="#7b0000"/><path transform="matrix(.13328 0 0 .13339 0 1056)" d="m5254.1-2867.5v-7.56" stroke="#7a0000"/><path transform="matrix(.13328 0 0 .13339 0 1056)" d="m5264.7-2867.5v-9.41" stroke="#780000"/><path transform="matrix(.13328 0 0 .13339 0 1056)" d="m5275.4-2867.5v-11.09" stroke="#760000"/><path transform="matrix(.13328 0 0 .13339 0 1056)" d="m5286-2867.5v-17.15" stroke="#740000"/><path transform="matrix(.13328 0 0 .13339 0 1056)" d="m5296.7-2867.5v-5.04" stroke="#730000"/><path transform="matrix(.13328 0 0 .13339 0 1056)" d="m5307.3-2867.5v-4.52" stroke="#710000"/><path transform="matrix(.13328 0 0 .13339 0 1056)" d="m5318-2867.5v-8.24" stroke="#6f0000"/><path transform="matrix(.13328 0 0 .13339 0 1056)" d="m5328.6-2867.5v-7.9" stroke="#6d0000"/><path transform="matrix(.13328 0 0 .13339 0 1056)" d="m5339.2-2867.5v-8.57" stroke="#6c0000"/><path transform="matrix(.13328 0 0 .13339 0 1056)" d="m5349.9-2867.5v-16.64" stroke="#6a0000"/><path transform="matrix(.13328 0 0 .13339 0 1056)" d="m5360.6-2867.5v-8.24" stroke="#680000"/><path transform="matrix(.13328 0 0 .13339 0 1056)" d="m5371.2-2867.5v-9.08" stroke="#600"/><path transform="matrix(.13328 0 0 .13339 0 1056)" d="m5381.8-2867.5v-1.51" stroke="#640000"/></g><g fill="#000000" font-family="Lato"><text transform="matrix(1.8992 0 0 1.9003 39.149 332.31)" font-size="8.4221px" font-weight="bold" stroke-linecap="round" stroke-linejoin="round" stroke-miterlimit="10" stroke-width=".13156" style="font-variant-caps:normal;font-variant-east-asian:normal;font-variant-ligatures:normal;font-variant-numeric:normal;line-height:0%"><tspan x="0" y="0" font-family="Lato" font-size="8.4221px" font-weight="bold" stroke-width=".13156" style="font-variant-caps:normal;font-variant-east-asian:normal;font-variant-ligatures:normal;font-variant-numeric:normal;line-height:1.25">CIE Colorimetric Parameters</tspan></text><g><text transform="matrix(1.8992 0 0 1.9003 39.024 353.98)" font-size="8.4222px" stroke-width=".65778" style="font-variant-caps:normal;font-variant-east-asian:normal;font-variant-ligatures:normal;font-variant-numeric:normal;line-height:0%"><tspan x="0" y="0" font-family="Lato" font-size="8.4222px" stroke-width=".65778" style="font-variant-caps:normal;font-variant-east-asian:normal;font-variant-ligatures:normal;font-variant-numeric:normal;line-height:1.25">Chromaticity coordinates: x=0.3818 y=0.3797 u'=0.2248 v'=0.5031</tspan></text><text transform="matrix(1.8998 0 0 1.9009 2.5115 1526.9)" x="19.2194" y="-605.67859" font-size="8.4196px" stroke-width=".65758" style="font-variant-caps:normal;font-variant-east-asian:normal;font-variant-ligatures:normal;font-variant-numeric:normal;line-height:0%"><tspan x="19.2194" y="-605.67859" font-family="Lato" font-size="8.4196px" stroke-width=".65758" style="font-variant-caps:normal;font-variant-east-asian:normal;font-variant-ligatures:normal;font-variant-numeric:normal;line-height:1.25">CCT: Tc=3986K</tspan></text><text transform="matrix(1.8992 0 0 1.9003 247.36 375.82)" font-size="8.4222px" stroke-width=".65778" style="font-variant-caps:normal;font-variant-east-asian:normal;font-variant-ligatures:normal;font-variant-numeric:normal;line-height:0%"><tspan x="0" y="0" font-family="Lato" font-size="8.4222px" stroke-width=".65778" style="font-variant-caps:normal;font-variant-east-asian:normal;font-variant-ligatures:normal;font-variant-numeric:normal;line-height:1.25">CRI: Ra= 82</tspan></text><text transform="matrix(1.8992 0 0 1.9003 430.99 376.04)" font-size="8.4222px" stroke-width=".65778" style="font-variant-caps:normal;font-variant-east-asian:normal;font-variant-ligatures:normal;font-variant-numeric:normal;line-height:0%"><tspan x="0" y="0" dominant-baseline="auto" fill="#000000" font-family="Lato" font-size="8.4222px" letter-spacing="0px" stop-color="#000000" stroke-width=".65778" style="-inkscape-stroke:none;font-variant-alternates:normal;font-variant-caps:normal;font-variant-east-asian:normal;font-variant-ligatures:normal;font-variant-numeric:normal;font-variant-position:normal;line-height:1.25;text-decoration-color:#000000;text-decoration-line:none;text-decoration-style:solid;text-indent:0;text-orientation:mixed;text-transform:none;white-space:normal">Color Ratio: R=0.186 G=0.777 B=0.037 </tspan></text></g></g><g transform="matrix(1.3636 0 0 -1.3636 -202.01 970.47)" stroke-width=".91672"><g fill="#000000" font-family="Lato"><g font-size="9.7293px"><text transform="matrix(.80219 0 0 -.80438 640.78 492.09)" x="36.944557" stroke-width="1.2168" style="font-variant-caps:normal;font-variant-east-asian:normal;font-variant-ligatures:normal;font-variant-numeric:normal" xml:space="preserve"><tspan x="36.944557" y="0" fill="#000000" font-family="Lato" font-size="9.7293px" stroke-width="1.2168" text-align="center" text-anchor="middle" style="font-variant-caps:normal;font-variant-east-asian:normal;font-variant-ligatures:normal;font-variant-numeric:normal">WaveLength (nm)</tspan></text><g stroke-width="1.2162"><text transform="matrix(.803 0 0 -.80438 473.81 694.38)" x="5.3358564" style="font-variant-caps:normal;font-variant-east-asian:normal;font-variant-ligatures:normal;font-variant-numeric:normal" xml:space="preserve"><tspan x="5.3358564" y="0" fill="#000000" font-family="Lato" font-size="9.7293px" stroke-width="1.2162" text-align="end" text-anchor="end" style="font-variant-caps:normal;font-variant-east-asian:normal;font-variant-ligatures:normal;font-variant-numeric:normal">1</tspan></text><text transform="matrix(.803 0 0 -.80438 473.78 657.43)" x="5.3358564" style="font-variant-caps:normal;font-variant-east-asian:normal;font-variant-ligatures:normal;font-variant-numeric:normal" xml:space="preserve"><tspan x="5.3358564" y="0" fill="#000000" font-family="Lato" font-size="9.7293px" stroke-width="1.2162" text-align="end" text-anchor="end" style="font-variant-caps:normal;font-variant-east-asian:normal;font-variant-ligatures:normal;font-variant-numeric:normal">0.8</tspan></text><text transform="matrix(.803 0 0 -.80438 473.73 620.6)" x="5.3358564" style="font-variant-caps:normal;font-variant-east-asian:normal;font-variant-ligatures:normal;font-variant-numeric:normal" xml:space="preserve"><tspan x="5.3358564" y="0" fill="#000000" font-family="Lato" font-size="9.7293px" stroke-width="1.2162" text-align="end" text-anchor="end" style="font-variant-caps:normal;font-variant-east-asian:normal;font-variant-ligatures:normal;font-variant-numeric:normal">0.6</tspan></text><text transform="matrix(.803 0 0 -.80438 473.55 583.71)" x="5.3358564" style="font-variant-caps:normal;font-variant-east-asian:normal;font-variant-ligatures:normal;font-variant-numeric:normal" xml:space="preserve"><tspan x="5.3358564" y="0" fill="#000000" font-family="Lato" font-size="9.7293px" stroke-width="1.2162" text-align="end" text-anchor="end" style="font-variant-caps:normal;font-variant-east-asian:normal;font-variant-ligatures:normal;font-variant-numeric:normal">0.4</tspan></text><text transform="matrix(.803 0 0 -.80438 473.78 546.87)" x="5.3358564" style="font-variant-caps:normal;font-variant-east-asian:normal;font-variant-ligatures:normal;font-variant-numeric:normal" xml:space="preserve"><tspan x="5.3358564" y="0" fill="#000000" font-family="Lato" font-size="9.7293px" stroke-width="1.2162" text-align="end" text-anchor="end" style="font-variant-caps:normal;font-variant-east-asian:normal;font-variant-ligatures:normal;font-variant-numeric:normal">0.2</tspan></text><text transform="matrix(.803 0 0 -.80438 473.61 509.99)" x="5.3358564" style="font-variant-caps:normal;font-variant-east-asian:normal;font-variant-ligatures:normal;font-variant-numeric:normal" xml:space="preserve"><tspan x="5.3358564" y="0" fill="#000000" font-family="Lato" font-size="9.7293px" stroke-width="1.2162" text-align="end" text-anchor="end" style="font-variant-caps:normal;font-variant-east-asian:normal;font-variant-ligatures:normal;font-variant-numeric:normal">0</tspan></text><text transform="matrix(.803 0 0 -.80438 486.57 502.62)" x="15.907482" style="font-variant-caps:normal;font-variant-east-asian:normal;font-variant-ligatures:normal;font-variant-numeric:normal" xml:space="preserve"><tspan x="15.907481" y="0" fill="#000000" font-family="Lato" font-size="9.7293px" stroke-width="1.2162" text-align="center" text-anchor="middle" style="font-variant-caps:normal;font-variant-east-asian:normal;font-variant-ligatures:normal;font-variant-numeric:normal">400</tspan></text><text transform="matrix(.803 0 0 -.80438 572.11 502.62)" x="15.907482" style="font-variant-caps:normal;font-variant-east-asian:normal;font-variant-ligatures:normal;font-variant-numeric:normal" xml:space="preserve"><tspan x="15.907481" y="0" fill="#000000" font-family="Lato" font-size="9.7293px" stroke-width="1.2162" text-align="center" text-anchor="middle" style="font-variant-caps:normal;font-variant-east-asian:normal;font-variant-ligatures:normal;font-variant-numeric:normal">500</tspan></text><text transform="matrix(.803 0 0 -.80438 657.51 502.62)" x="15.907482" style="font-variant-caps:normal;font-variant-east-asian:normal;font-variant-ligatures:normal;font-variant-numeric:normal" xml:space="preserve"><tspan x="15.907481" y="0" fill="#000000" font-family="Lato" font-size="9.7293px" stroke-width="1.2162" text-align="center" text-anchor="middle" style="font-variant-caps:normal;font-variant-east-asian:normal;font-variant-ligatures:normal;font-variant-numeric:normal">600</tspan></text><text transform="matrix(.803 0 0 -.80438 743.05 502.62)" x="15.907482" style="font-variant-caps:normal;font-variant-east-asian:normal;font-variant-ligatures:normal;font-variant-numeric:normal" xml:space="preserve"><tspan x="15.907481" y="0" fill="#000000" font-family="Lato" font-size="9.7293px" stroke-width="1.2162" text-align="center" text-anchor="middle" style="font-variant-caps:normal;font-variant-east-asian:normal;font-variant-ligatures:normal;font-variant-numeric:normal">700</tspan></text><text transform="matrix(.803 0 0 -.80438 828.56 502.62)" x="15.907482" style="font-variant-caps:normal;font-variant-east-asian:normal;font-variant-ligatures:normal;font-variant-numeric:normal" xml:space="preserve"><tspan x="15.907481" y="0" fill="#000000" font-family="Lato" font-size="9.7293px" stroke-width="1.2162" text-align="center" text-anchor="middle" style="font-variant-caps:normal;font-variant-east-asian:normal;font-variant-ligatures:normal;font-variant-numeric:normal">800</tspan></text></g></g><text transform="matrix(0 .80438 .803 0 462.03 573.5)" font-size="9.7293px" stroke-width="1.2162" style="font-variant-caps:normal;font-variant-east-asian:normal;font-variant-ligatures:normal;font-variant-numeric:normal" xml:space="preserve"><tspan x="0" y="0" fill="#000000" font-family="Lato" font-size="9.7293px" stroke-width="1.2162" style="font-variant-caps:normal;font-variant-east-asian:normal;font-variant-ligatures:normal;font-variant-numeric:normal">Relative Spectrum</tspan></text></g><g fill="none" stroke="#858585" stroke-width=".27518"><path transform="matrix(.79917 0 0 -.79985 -7.5232 459.73)" d="m617.27-296.75h-4.496v230.4h449.56v-4.4972"/><path transform="matrix(.79917 0 0 -.79985 -7.5232 459.73)" d="m612.77-250.67h4.496"/><path transform="matrix(.79917 0 0 -.79985 -7.5232 459.73)" d="m612.77-204.59h4.496"/><path transform="matrix(.79917 0 0 -.79985 -7.5232 459.73)" d="m612.77-158.5h4.496"/><path transform="matrix(.79917 0 0 -.79985 -7.5232 459.73)" d="m612.77-112.42h4.496"/><path transform="matrix(.79917 0 0 -.79985 -7.5232 459.73)" d="m634.18-66.344v-4.4972"/><path transform="matrix(.79917 0 0 -.79985 -7.5232 459.73)" d="m741.22-66.344 2e-5 -4.4972"/><path transform="matrix(.79917 0 0 -.79985 -7.5232 459.73)" d="m848.25-66.344 2e-5 -4.4972"/><path transform="matrix(.79917 0 0 -.79985 -7.5232 459.73)" d="m955.29-66.344v-4.4972"/></g></g><path transform="matrix(.89931 0 0 .89931 .39086 -10.712)" d="m174.12 280.66 0.593 0.333 0.602 0.322 0.613 0.312 0.623 0.301 0.633 0.29 0.642 0.279 0.652 0.268 0.662 0.257 0.671 0.246 0.681 0.235 0.691 0.224 0.699 0.213 0.709 0.201 0.718 0.191 0.728 0.179 0.736 0.168 0.746 0.157 0.754 0.146 0.763 0.135 0.772 0.123 0.781 0.113 0.789 0.101 0.798 0.089 0.806 0.079 0.815 0.067 0.823 0.056 0.831 0.044 0.84 0.033 0.848 0.022 0.855 0.011h0.864l0.871-0.012 0.879-0.023 0.886-0.035 0.895-0.046 0.901-0.057 0.909-0.068 0.916-0.08 0.924-0.091 0.93-0.102 0.937-0.113 0.945-0.124 0.951-0.136 0.958-0.147 0.965-0.159 0.97-0.169 0.978-0.181 0.984-0.191 0.989-0.203 0.997-0.214 1.002-0.225 1.007-0.236 1.015-0.247 1.019-0.259 1.026-0.269 1.031-0.28 1.035-0.291 1.042-0.302 1.047-0.312 1.052-0.324 1.056-0.335 1.062-0.345 1.067-0.356 1.07-0.366 1.076-0.378 1.081-0.388 1.084-0.398 1.089-0.409 1.093-0.42 1.097-0.43 1.101-0.441 1.104-0.451 1.109-0.461 1.112-0.471 1.115-0.482 1.12-0.492 1.121-0.502 1.126-0.512 1.128-0.523 1.131-0.532 1.134-0.542 1.137-0.552 1.139-0.562 1.142-0.571 1.144-0.582 1.146-0.591 1.149-0.601 1.15-0.61 1.153-0.62 1.154-0.629 1.156-0.638 1.157-0.648 1.159-0.657 1.159-0.666 1.162-0.675 1.162-0.684 1.163-0.693 1.165-0.703 1.164-0.711 1.166-0.719 1.166-0.728 1.167-0.738 1.166-0.745 1.167-0.754 1.167-0.762 1.167-0.771 1.166-0.779 1.166-0.786 1.166-0.795 1.166-0.803 1.164-0.811 1.164-0.819 1.163-0.826 1.162-0.835 1.16-0.841 1.16-0.849 1.158-0.857 1.157-0.864 1.155-0.871 1.153-0.879 1.152-0.885 1.149-0.892 1.148-0.899 1.145-0.906 1.143-0.913 1.141-0.919 1.138-0.927 1.136-0.932 1.132-0.939 1.13-0.944 1.128-0.952 1.123-0.957 1.121-0.962 1.118-0.969 1.113-0.975 1.111-0.98 1.106-0.987 1.104-0.991 1.099-0.996 1.095-1.003 1.091-1.007 1.087-1.012 1.083-1.017 1.078-1.022 1.074-1.027 1.069-1.031 1.064-1.037 1.06-1.04 1.055-1.045 1.049-1.049 1.044-1.053 1.039-1.057 1.034-1.062 1.028-1.065 1.023-1.069 1.018-1.072 1.011-1.076 1.005-1.079 1-1.083 0.993-1.085 0.987-1.089 0.981-1.092 0.975-1.095 0.968-1.097 0.962-1.1 0.955-1.103 0.948-1.105 0.941-1.107 0.935-1.11 0.927-1.111 0.92-1.114 0.913-1.115 0.906-1.117 0.898-1.118 0.891-1.12 0.883-1.122 0.876-1.123 0.868-1.124 0.86-1.125 0.852-1.127 0.844-1.127 0.835-1.128 0.828-1.128 0.819-1.129 0.811-1.129 0.803-1.13 0.794-1.13 0.786-1.129 0.777-1.13 0.768-1.13 0.759-1.129 0.751-1.129 0.741-1.129 0.733-1.128 0.723-1.127 0.714-1.126 0.705-1.125 0.696-1.124 0.686-1.123 0.676-1.122 0.667-1.12 0.658-1.119 0.648-1.117 0.638-1.116 0.628-1.113 0.619-1.112 0.608-1.11 0.598-1.107 0.589-1.105 0.578-1.103 0.568-1.1 0.559-1.097 0.547-1.095 0.538-1.092 0.527-1.089 0.516-1.086 0.506-1.083 0.496-1.079 0.484-1.076 0.475-1.073 0.464-1.069 0.453-1.065 0.441-1.061 0.432-1.058 0.42-1.054 0.41-1.049 0.398-1.045 0.388-1.041 0.376-1.036 0.366-1.032 0.354-1.027 0.343-1.022 0.333-1.018 0.32-1.012 0.31-1.007 0.299-1.003 0.287-0.997 0.276-0.991 0.264-0.987 0.253-0.98 0.241-0.976 0.231-0.969 0.219-0.963 0.207-0.958 0.195-0.951 0.185-0.945 0.173-0.939 0.161-0.933 0.149-0.926 0.138-0.92 0.127-0.913 0.115-0.906 0.103-0.9 0.092-0.893 0.08-0.885 0.068-0.879 0.057-0.872 0.044-0.8637 0.034-0.8574 0.022-0.8497 0.01-0.8417-2e-3 -0.8348-0.013-0.8271-0.025-0.8191-0.037-0.8114-0.048-0.8032-0.061-0.7954-0.071-0.7875-0.083-0.7792-0.095-0.7711-0.106-0.7626-0.119-0.7545-0.13-0.7459-0.141-0.7372-0.152-0.7292-0.165-0.7196-0.176-0.7116-0.188-0.7023-0.199-0.6939-0.21-0.6846-0.222-0.676-0.234-0.6667-0.245-0.6573-0.256-0.6481-0.267-0.639-0.279-0.6297-0.29-0.6201-0.302-0.6107-0.313-0.6011-0.324-0.5918-0.335-0.5818-0.346-0.5718-0.358-0.5628-0.369-0.5525-0.379-0.5429-0.391-0.5329-0.402-0.5225-0.412-0.5129-0.424-0.5026-0.434-0.4925-0.445-0.4826-0.456-0.472-0.467-0.4616-0.477-0.4517-0.488-0.4407-0.498-0.4307-0.509-0.4207-0.52-0.4093-0.53-0.3994-0.54-0.3885-0.551-0.3781-0.561-0.3671-0.57-0.3564-0.582-0.3459-0.591-0.3351-0.601-0.3242-0.612-0.3132-0.621-0.3025-0.631-0.2916-0.641-0.2809-0.65-0.2699-0.66-0.2586-0.67-0.2477-0.68-0.237-0.689-0.2256-0.698-0.2144-0.707-0.2037-0.716-0.1923-0.727-0.1811-0.735-0.1701-0.744-0.1587-0.753-0.1478-0.762-0.1361-0.77-0.1255-0.78-0.1138-0.787-0.1029-0.797-0.0915-0.805-0.0802-0.814-0.0689-0.821-0.0576-0.83-0.0466-0.838-0.0349-0.847-0.0243-0.854-0.0124-0.863-1e-3 -0.869 0.01-0.877 0.0213-0.886 0.0326-0.894 0.0443-0.899 0.0553-0.908 0.0665-0.916 0.0776-0.922 0.0892-0.929 0.1005-0.937 0.1115-0.942 0.1228-0.951 0.1341-0.956 0.1452-0.964 0.1564-0.97 0.1677-0.976 0.1788-0.983 0.19-0.989 0.2011-0.995 0.2123-1.002 0.223-1.007 0.2343-1.012 0.2453-1.019 0.257-1.024 0.2672-1.03 0.2783-1.036 0.2889-1.04 0.3005-1.046 0.3112-1.051 0.3215-1.056 0.3329-1.061 0.3438-1.066 0.3541-1.07 0.3651-1.075 0.3755-1.08 0.386-1.084 0.3971-1.088 0.4074-1.092 0.4177-1.097 0.4287-1.1 0.439-1.104 0.4493-1.108 0.4597-1.111 0.4696-1.115 0.4799-1.118 0.4906-1.122 0.5003-1.124 0.5105-1.129 0.5209-1.13 0.5309-1.134 0.5405-1.136 0.5505-1.139 0.5602-1.142 0.5701-1.143 0.5798-1.146 0.5895-1.148 0.5991-1.151 0.6087-1.151 0.6181-1.154 0.6277-1.156 0.637-1.157 0.6464-1.159 0.655-1.159 0.665-1.162 0.6736-1.162 0.6827-1.162 0.692-1.164 0.7006-1.166 0.7092-1.165 0.7186-1.166 0.7269-1.167 0.7356-1.166 0.7439-1.167 0.7528-1.167 0.7609-1.166 0.7688-1.167 0.7779-1.166 0.7854-1.166 0.7939-1.166 0.8018-1.164 0.8094-1.164 0.8177-1.163 0.8248-1.163 0.8331-1.16 0.8407-1.16 0.8481-1.158 0.8554-1.158 0.8624-1.155 0.87-1.153 0.877-1.152 0.885-1.15 0.891-1.147 0.898-1.147 0.905-1.143 0.912-1.141 0.918-1.138 0.925-1.137 0.931-1.133 0.938-1.131 0.944-1.126 0.95-1.125 0.956-1.121 0.962-1.118 0.968-1.114 0.974-1.112 0.979-1.107 0.985-1.104 0.991-1.099 0.996-1.096 1.001-1.092 1.006-1.088 1.012-1.083 1.016-1.079 1.021-1.075 1.027-1.07 1.03-1.065 1.035-1.06 1.041-1.055 1.044-1.051 1.048-1.045 1.052-1.04 1.057-1.034 1.061-1.03 1.064-1.023 1.069-1.018 1.071-1.013 1.076-1.006 1.079-1.001 1.081-0.994 1.086-0.988 1.088-0.982 1.091-0.976 1.094-0.969 1.097-0.962 1.1-0.957 1.102-0.949 1.105-0.942 1.107-0.936 1.109-0.929 1.111-0.921 1.113-0.914 1.115-0.906 1.117-0.9 1.119-0.892 1.12-0.884 1.121-0.877 1.123-0.869 1.124-0.861 1.125-0.854 1.126-0.845 1.127-0.837 1.127-0.829 1.128-0.821 1.129-0.813 1.13-0.804 1.129-0.795 1.13-0.787 1.13-0.779 1.13-0.769 1.13-0.761 1.128-0.752 1.13-0.742 1.128-0.734 1.128-0.725 1.127-0.716 1.127-0.706 1.125-0.697 1.125-0.688 1.123-0.678 1.122-0.668 1.12-0.659 1.119-0.65 1.118-0.639 1.116-0.63 1.114-0.62 1.111-0.61 1.11-0.6 1.108-0.591 1.106-0.579 1.103-0.57 1.1-0.56 1.098-0.549 1.095-0.539 1.093-0.529 1.089-0.518 1.087-0.508 1.083-0.497 1.08-0.486 1.076-0.477 1.073-0.465 1.07-0.454 1.066-0.444 1.062-0.433 1.058-0.423 1.054-0.411 1.051-0.4 1.045-0.389 1.041-0.379 1.038-0.367 1.032-0.356 1.028-0.345 1.023-0.334 1.018-0.323 1.013-0.311 1.009-0.3 1.003-0.289 0.998-0.278 0.992-0.266 0.987-0.255 0.982-0.243 0.976-0.232 0.97-0.221 0.964-0.209 0.959-0.198 0.952-0.186 0.946-0.174 0.94-0.163 0.934-0.152 0.927-0.14 0.921-0.128 0.914-0.117 0.907-0.105 0.901-0.093 0.894-0.082 0.887-0.07 0.88-0.059 0.873-0.047 0.865-0.035 0.859-0.024 0.85-0.011 0.844v0.835l0.011 0.828 0.023 0.821 0.035 0.812 0.046 0.805 0.059 0.797 0.069 0.788 0.081 0.781 0.093 0.772 0.105 0.765 0.116 0.755 0.129 0.747 0.139 0.739 0.151 0.73 0.163 0.722 0.174 0.713 0.185 0.703 0.197 0.696 0.209 0.686 0.22 0.677 0.232 0.668 0.243 0.659 0.255 0.649 0.266 0.641 0.276 0.631 0.289 0.622 0.3 0.612 0.311 0.603 0.322 0.593 0.333 0.583 0.345 0.574 0.356 0.564 0.367 0.554 0.378 0.544 0.389 0.535 0.4 0.524 0.411 0.515 0.421 0.504 0.432 0.494 0.444 0.484 0.454 0.474 0.465 0.463 0.476 0.454 0.486 0.442 0.497 0.433 0.507 0.421 0.518 0.412 0.528 0.401 0.539 0.39 0.548 0.379 0.56 0.369 0.569 0.359 0.58 0.347" fill="#c2cccc"/><polygon transform="matrix(2.3796 0 0 2.3796 -406.57 -266.62)" points="273.92 172.87 274.42 172.01 275.42 172.01 275.92 172.87 275.42 173.74 274.42 173.74" fill="#f0f" shape-rendering="crispEdges" stroke-width=".56031"/><g font-family="Lato" font-size="11.285px" stroke-width="1.4826"><text transform="matrix(.89931 0 0 .89931 44.329 286.05)" style="font-variant-caps:normal;font-variant-east-asian:normal;font-variant-ligatures:normal;font-variant-numeric:normal" xml:space="preserve">0.37</text><text transform="matrix(.89931 0 0 .89931 122.75 286.05)" style="font-variant-caps:normal;font-variant-east-asian:normal;font-variant-ligatures:normal;font-variant-numeric:normal" xml:space="preserve">0.375</text><text transform="matrix(.89931 0 0 .89931 208.47 286.05)" style="font-variant-caps:normal;font-variant-east-asian:normal;font-variant-ligatures:normal;font-variant-numeric:normal" xml:space="preserve">0.38</text><text transform="matrix(.89931 0 0 .89931 285.89 286.05)" style="font-variant-caps:normal;font-variant-east-asian:normal;font-variant-ligatures:normal;font-variant-numeric:normal" xml:space="preserve">0.385</text><text transform="matrix(.89931 0 0 .89931 370.61 286.05)" style="font-variant-caps:normal;font-variant-east-asian:normal;font-variant-ligatures:normal;font-variant-numeric:normal" xml:space="preserve">0.39</text><text transform="matrix(.89931 0 0 .89931 28.145 273.46)" style="font-variant-caps:normal;font-variant-east-asian:normal;font-variant-ligatures:normal;font-variant-numeric:normal" xml:space="preserve">0.37</text><text transform="matrix(.89931 0 0 .89931 21.849 209.44)" style="font-variant-caps:normal;font-variant-east-asian:normal;font-variant-ligatures:normal;font-variant-numeric:normal" xml:space="preserve">0.375</text><text transform="matrix(.89931 0 0 .89931 28.145 145.41)" style="font-variant-caps:normal;font-variant-east-asian:normal;font-variant-ligatures:normal;font-variant-numeric:normal" xml:space="preserve">0.38</text><text transform="matrix(.89931 0 0 .89931 21.849 81.381)" style="font-variant-caps:normal;font-variant-east-asian:normal;font-variant-ligatures:normal;font-variant-numeric:normal" xml:space="preserve">0.385</text><text transform="matrix(.89931 0 0 .89931 28.145 17.353)" style="font-variant-caps:normal;font-variant-east-asian:normal;font-variant-ligatures:normal;font-variant-numeric:normal" xml:space="preserve">0.39</text><text transform="matrix(.89931 0 0 .89931 205.24 300.44)" style="font-variant-caps:normal;font-variant-east-asian:normal;font-variant-ligatures:normal;font-variant-numeric:normal" xml:space="preserve">CIE-X</text><text transform="matrix(0 -.89931 .89931 0 17.353 153.65)" style="font-variant-caps:normal;font-variant-east-asian:normal;font-variant-ligatures:normal;font-variant-numeric:normal" xml:space="preserve">CIE-Y</text></g><g fill="none" stroke="#858585" stroke-dasharray="10.6749, 0" stroke-width=".33359"><g><polyline transform="matrix(.89931 0 0 .89931 .39086 -10.712)" points="151.56 311 151.56 26.208"/><polyline transform="matrix(.89931 0 0 .89931 .39086 -10.712)" points="242.26 311 242.26 26.208"/><polyline transform="matrix(.89931 0 0 .89931 .39086 -10.712)" points="332.96 311 332.96 26.208"/><polyline transform="matrix(.89931 0 0 .89931 .39086 -10.712)" points="423.66 311 423.66 26.208"/><polyline transform="matrix(.89931 0 0 .89931 .39086 -10.712)" points="60.858 239.8 423.66 239.8"/><polyline transform="matrix(.89931 0 0 .89931 .39086 -10.712)" points="60.858 168.6 423.66 168.6"/><polyline transform="matrix(.89931 0 0 .89931 .39086 -10.712)" points="60.858 97.405 423.66 97.405"/><polyline transform="matrix(.89931 0 0 .89931 .39086 -10.712)" points="60.858 26.208 423.66 26.208"/></g><polyline transform="matrix(.89931 0 0 .89931 .39086 -10.712)" points="60.858 311 423.66 311" stroke-linecap="square"/><polyline transform="matrix(.89931 0 0 .89931 .39086 -10.712)" points="60.858 311 60.858 26.208" stroke-linecap="square"/></g><text transform="matrix(.89931 0 0 .89931 248.81 142.69)" font-family="Lato" font-size="11.861px" stroke-width="1.4826" style="font-variant-caps:normal;font-variant-east-asian:normal;font-variant-ligatures:normal;font-variant-numeric:normal" xml:space="preserve">CCT=3986 K</text></svg>
