<svg width="960" height="400" version="1.1" viewBox="0 0 960 400" xml:space="preserve" xmlns="http://www.w3.org/2000/svg"><g transform="matrix(1.3636 0 0 -1.3636 -202.01 970.47)" stroke-width=".91672"><g fill="#000000" font-family="Lato"><g font-size="9.7293px"><text transform="matrix(.80219 0 0 -.80438 640.78 492.09)" x="36.944557" stroke-width="1.2168" style="font-variant-caps:normal;font-variant-east-asian:normal;font-variant-ligatures:normal;font-variant-numeric:normal" xml:space="preserve"><tspan x="36.944557" y="0" fill="#000000" font-family="Lato" font-size="9.7293px" stroke-width="1.2168" text-align="center" text-anchor="middle" style="font-variant-caps:normal;font-variant-east-asian:normal;font-variant-ligatures:normal;font-variant-numeric:normal">WaveLength (nm)</tspan></text><g stroke-width="1.2162"><text transform="matrix(.803 0 0 -.80438 473.81 694.38)" x="5.3358564" style="font-variant-caps:normal;font-variant-east-asian:normal;font-variant-ligatures:normal;font-variant-numeric:normal" xml:space="preserve"><tspan x="5.3358564" y="0" fill="#000000" font-family="Lato" font-size="9.7293px" stroke-width="1.2162" text-align="end" text-anchor="end" style="font-variant-caps:normal;font-variant-east-asian:normal;font-variant-ligatures:normal;font-variant-numeric:normal">1</tspan></text><text transform="matrix(.803 0 0 -.80438 473.78 657.43)" x="5.3358564" style="font-variant-caps:normal;font-variant-east-asian:normal;font-variant-ligatures:normal;font-variant-numeric:normal" xml:space="preserve"><tspan x="5.3358564" y="0" fill="#000000" font-family="Lato" font-size="9.7293px" stroke-width="1.2162" text-align="end" text-anchor="end" style="font-variant-caps:normal;font-variant-east-asian:normal;font-variant-ligatures:normal;font-variant-numeric:normal">0.8</tspan></text><text transform="matrix(.803 0 0 -.80438 473.73 620.6)" x="5.3358564" style="font-variant-caps:normal;font-variant-east-asian:normal;font-variant-ligatures:normal;font-variant-numeric:normal" xml:space="preserve"><tspan x="5.3358564" y="0" fill="#000000" font-family="Lato" font-size="9.7293px" stroke-width="1.2162" text-align="end" text-anchor="end" style="font-variant-caps:normal;font-variant-east-asian:normal;font-variant-ligatures:normal;font-variant-numeric:normal">0.6</tspan></text><text transform="matrix(.803 0 0 -.80438 473.55 583.71)" x="5.3358564" style="font-variant-caps:normal;font-variant-east-asian:normal;font-variant-ligatures:normal;font-variant-numeric:normal" xml:space="preserve"><tspan x="5.3358564" y="0" fill="#000000" font-family="Lato" font-size="9.7293px" stroke-width="1.2162" text-align="end" text-anchor="end" style="font-variant-caps:normal;font-variant-east-asian:normal;font-variant-ligatures:normal;font-variant-numeric:normal">0.4</tspan></text><text transform="matrix(.803 0 0 -.80438 473.78 546.87)" x="5.3358564" style="font-variant-caps:normal;font-variant-east-asian:normal;font-variant-ligatures:normal;font-variant-numeric:normal" xml:space="preserve"><tspan x="5.3358564" y="0" fill="#000000" font-family="Lato" font-size="9.7293px" stroke-width="1.2162" text-align="end" text-anchor="end" style="font-variant-caps:normal;font-variant-east-asian:normal;font-variant-ligatures:normal;font-variant-numeric:normal">0.2</tspan></text><text transform="matrix(.803 0 0 -.80438 473.61 509.99)" x="5.3358564" style="font-variant-caps:normal;font-variant-east-asian:normal;font-variant-ligatures:normal;font-variant-numeric:normal" xml:space="preserve"><tspan x="5.3358564" y="0" fill="#000000" font-family="Lato" font-size="9.7293px" stroke-width="1.2162" text-align="end" text-anchor="end" style="font-variant-caps:normal;font-variant-east-asian:normal;font-variant-ligatures:normal;font-variant-numeric:normal">0</tspan></text><text transform="matrix(.803 0 0 -.80438 486.57 502.62)" x="15.907482" style="font-variant-caps:normal;font-variant-east-asian:normal;font-variant-ligatures:normal;font-variant-numeric:normal" xml:space="preserve"><tspan x="15.907481" y="0" fill="#000000" font-family="Lato" font-size="9.7293px" stroke-width="1.2162" text-align="center" text-anchor="middle" style="font-variant-caps:normal;font-variant-east-asian:normal;font-variant-ligatures:normal;font-variant-numeric:normal">400</tspan></text><text transform="matrix(.803 0 0 -.80438 572.11 502.62)" x="15.907482" style="font-variant-caps:normal;font-variant-east-asian:normal;font-variant-ligatures:normal;font-variant-numeric:normal" xml:space="preserve"><tspan x="15.907481" y="0" fill="#000000" font-family="Lato" font-size="9.7293px" stroke-width="1.2162" text-align="center" text-anchor="middle" style="font-variant-caps:normal;font-variant-east-asian:normal;font-variant-ligatures:normal;font-variant-numeric:normal">500</tspan></text><text transform="matrix(.803 0 0 -.80438 657.51 502.62)" x="15.907482" style="font-variant-caps:normal;font-variant-east-asian:normal;font-variant-ligatures:normal;font-variant-numeric:normal" xml:space="preserve"><tspan x="15.907481" y="0" fill="#000000" font-family="Lato" font-size="9.7293px" stroke-width="1.2162" text-align="center" text-anchor="middle" style="font-variant-caps:normal;font-variant-east-asian:normal;font-variant-ligatures:normal;font-variant-numeric:normal">600</tspan></text><text transform="matrix(.803 0 0 -.80438 743.05 502.62)" x="15.907482" style="font-variant-caps:normal;font-variant-east-asian:normal;font-variant-ligatures:normal;font-variant-numeric:normal" xml:space="preserve"><tspan x="15.907481" y="0" fill="#000000" font-family="Lato" font-size="9.7293px" stroke-width="1.2162" text-align="center" text-anchor="middle" style="font-variant-caps:normal;font-variant-east-asian:normal;font-variant-ligatures:normal;font-variant-numeric:normal">700</tspan></text><text transform="matrix(.803 0 0 -.80438 828.56 502.62)" x="15.907482" style="font-variant-caps:normal;font-variant-east-asian:normal;font-variant-ligatures:normal;font-variant-numeric:normal" xml:space="preserve"><tspan x="15.907481" y="0" fill="#000000" font-family="Lato" font-size="9.7293px" stroke-width="1.2162" text-align="center" text-anchor="middle" style="font-variant-caps:normal;font-variant-east-asian:normal;font-variant-ligatures:normal;font-variant-numeric:normal">800</tspan></text></g></g><text transform="matrix(0 .80438 .803 0 462.03 573.5)" font-size="9.7293px" stroke-width="1.2162" style="font-variant-caps:normal;font-variant-east-asian:normal;font-variant-ligatures:normal;font-variant-numeric:normal" xml:space="preserve"><tspan x="0" y="0" fill="#000000" font-family="Lato" font-size="9.7293px" stroke-width="1.2162" style="font-variant-caps:normal;font-variant-east-asian:normal;font-variant-ligatures:normal;font-variant-numeric:normal">Relative Spectrum</tspan></text></g><g fill="none" stroke="#858585" stroke-width=".27518"><path transform="matrix(.79917 0 0 -.79985 -7.5232 459.73)" d="m617.27-296.75h-4.496v230.4h449.56v-4.4972"/><path transform="matrix(.79917 0 0 -.79985 -7.5232 459.73)" d="m612.77-250.67h4.496"/><path transform="matrix(.79917 0 0 -.79985 -7.5232 459.73)" d="m612.77-204.59h4.496"/><path transform="matrix(.79917 0 0 -.79985 -7.5232 459.73)" d="m612.77-158.5h4.496"/><path transform="matrix(.79917 0 0 -.79985 -7.5232 459.73)" d="m612.77-112.42h4.496"/><path transform="matrix(.79917 0 0 -.79985 -7.5232 459.73)" d="m634.18-66.344v-4.4972"/><path transform="matrix(.79917 0 0 -.79985 -7.5232 459.73)" d="m741.22-66.344 2e-5 -4.4972"/><path transform="matrix(.79917 0 0 -.79985 -7.5232 459.73)" d="m848.25-66.344 2e-5 -4.4972"/><path transform="matrix(.79917 0 0 -.79985 -7.5232 459.73)" d="m955.29-66.344v-4.4972"/></g></g><g transform="matrix(1.0955 0 0 -1.0957 354.72 585.56)" fill="none" stroke-linejoin="round" stroke-miterlimit="2" stroke-width="24.35"><path transform="scale(.099957 -.10004)" d="m930.9-2867.5v-2.71" stroke="#610061"/><path transform="scale(.099957 -.10004)" d="m941.55-2867.5v-16.4" stroke="#640065"/><path transform="scale(.099957 -.10004)" d="m952.2-2867.5v-8.36" stroke="#67006a"/><path transform="scale(.099957 -.10004)" d="m962.85-2867.5v-14.76" stroke="#6a006e"/><path transform="scale(.099957 -.10004)" d="m973.49-2867.5v-7.38" stroke="#6c0073"/><path transform="scale(.099957 -.10004)" d="m984.15-2867.5v-10.32" stroke="#6f0077"/><path transform="scale(.099957 -.10004)" d="m994.79-2867.5v-4.11" stroke="#71007b"/><path transform="scale(.099957 -.10004)" d="m1005.4-2867.5v-2.92" stroke="#73007f"/><path transform="scale(.099957 -.10004)" d="m1016.1-2867.5v-4.67" stroke="#750084"/><path transform="scale(.099957 -.10004)" d="m1026.7-2867.5v-4.89" stroke="#708"/><path transform="scale(.099957 -.10004)" d="m1037.4-2867.5v-4.77" stroke="#79008c"/><path transform="scale(.099957 -.10004)" d="m1048-2867.5v-2.71" stroke="#7b0090"/><path transform="scale(.099957 -.10004)" d="m1058.7-2867.5v-0.75" stroke="#7c0094"/><path transform="scale(.099957 -.10004)" d="m1069.3-2867.5v-3.36" stroke="#7d0098"/><path transform="scale(.099957 -.10004)" d="m1080-2867.5v-1.74" stroke="#7e009c"/><path transform="scale(.099957 -.10004)" d="m1090.6-2867.5v-1.74" stroke="#7f00a0"/><path transform="scale(.099957 -.10004)" d="m1101.3-2867.5v-2.28" stroke="#8000a4"/><path transform="scale(.099957 -.10004)" d="m1111.9-2867.5v-3.04" stroke="#8100a8"/><path transform="scale(.099957 -.10004)" d="m1122.6-2867.5v-4.99" stroke="#8100ac"/><path transform="scale(.099957 -.10004)" d="m1133.2-2867.5v-1.07" stroke="#8200b0"/><path transform="scale(.099957 -.10004)" d="m1143.9-2867.5v-3.69" stroke="#8200b4"/><path transform="scale(.099957 -.10004)" d="m1154.5-2867.5v-3.26" stroke="#8200b8"/><path transform="scale(.099957 -.10004)" d="m1165.2-2867.5v-3.47" stroke="#8200bc"/><path transform="scale(.099957 -.10004)" d="m1175.8-2867.5v-3.58" stroke="#8200c0"/><path transform="scale(.099957 -.10004)" d="m1186.5-2867.5v-5.75" stroke="#8200c4"/><path transform="scale(.099957 -.10004)" d="m1197.1-2867.5v-1.74" stroke="#8100c7"/><path transform="scale(.099957 -.10004)" d="m1207.8-2867.5v-6.3" stroke="#8100cb"/><path transform="scale(.099957 -.10004)" d="m1218.4-2867.5v-2.49" stroke="#8000cf"/><path transform="scale(.099957 -.10004)" d="m1229-2867.5v-5.32" stroke="#7f00d3"/><path transform="scale(.099957 -.10004)" d="m1239.7-2867.5v-6.84" stroke="#7e00d6"/><path transform="scale(.099957 -.10004)" d="m1250.4-2867.5v-9.33" stroke="#7d00da"/><path transform="scale(.099957 -.10004)" d="m1261-2867.5v-12.7" stroke="#7c00de"/><path transform="scale(.099957 -.10004)" d="m1271.6-2867.5v-13.79" stroke="#7a00e2"/><path transform="scale(.099957 -.10004)" d="m1282.3-2867.5v-16.5" stroke="#7900e5"/><path transform="scale(.099957 -.10004)" d="m1292.9-2867.5v-19.54" stroke="#7700e9"/><path transform="scale(.099957 -.10004)" d="m1303.6-2867.5v-26.62" stroke="#7500ec"/><path transform="scale(.099957 -.10004)" d="m1314.2-2867.5v-30.85" stroke="#7300f0"/><path transform="scale(.099957 -.10004)" d="m1324.9-2867.5v-34.76" stroke="#7100f4"/><path transform="scale(.099957 -.10004)" d="m1335.5-2867.5v-42.8" stroke="#6f00f7"/><path transform="scale(.099957 -.10004)" d="m1346.2-2867.5v-52.58" stroke="#6c00fb"/><path transform="scale(.099957 -.10004)" d="m1356.8-2867.5v-58.77" stroke="#6900ff"/><path transform="scale(.099957 -.10004)" d="m1367.5-2867.5v-66.26" stroke="#6500ff"/><path transform="scale(.099957 -.10004)" d="m1378.1-2867.5v-77.24" stroke="#6100ff"/><path transform="scale(.099957 -.10004)" d="m1388.8-2867.5v-88.75" stroke="#5c00ff"/><path transform="scale(.099957 -.10004)" d="m1399.4-2867.5v-100.6" stroke="#5800ff"/><path transform="scale(.099957 -.10004)" d="m1410.1-2867.5v-114.61" stroke="#5400ff"/><path transform="scale(.099957 -.10004)" d="m1420.7-2867.5v-128.3" stroke="#4f00ff"/><path transform="scale(.099957 -.10004)" d="m1431.4-2867.5v-145.03" stroke="#4b00ff"/><path transform="scale(.099957 -.10004)" d="m1442-2867.5v-164.69" stroke="#4600ff"/><path transform="scale(.099957 -.10004)" d="m1452.7-2867.5v-183.59" stroke="#4100ff"/><path transform="scale(.099957 -.10004)" d="m1463.3-2867.5v-202.5" stroke="#3c00ff"/><path transform="scale(.099957 -.10004)" d="m1474-2867.5v-230.64" stroke="#3700ff"/><path transform="scale(.099957 -.10004)" d="m1484.6-2867.5v-255.3" stroke="#3200ff"/><path transform="scale(.099957 -.10004)" d="m1495.2-2867.5v-281.05" stroke="#2d00ff"/><path transform="scale(.099957 -.10004)" d="m1505.9-2867.5v-312.78" stroke="#2800ff"/><path transform="scale(.099957 -.10004)" d="m1516.6-2867.5v-347.32" stroke="#20f"/><path transform="scale(.099957 -.10004)" d="m1527.2-2867.5v-379.59" stroke="#1d00ff"/><path transform="scale(.099957 -.10004)" d="m1537.8-2867.5v-424.57" stroke="#1700ff"/><path transform="scale(.099957 -.10004)" d="m1548.5-2867.5v-467.82" stroke="#1000ff"/><path transform="scale(.099957 -.10004)" d="m1559.2-2867.5v-517.36" stroke="#0900ff"/><path transform="scale(.099957 -.10004)" d="m1569.8-2867.5v-575.59" stroke="#00f"/><path transform="scale(.099957 -.10004)" d="m1580.4-2867.5v-637.51" stroke="#000bff"/><path transform="scale(.099957 -.10004)" d="m1591.1-2867.5v-707.37" stroke="#0013ff"/><path transform="scale(.099957 -.10004)" d="m1601.7-2867.5v-781.03" stroke="#001aff"/><path transform="scale(.099957 -.10004)" d="m1612.4-2867.5v-861.11" stroke="#0021ff"/><path transform="scale(.099957 -.10004)" d="m1623-2867.5v-949.86" stroke="#0028ff"/><path transform="scale(.099957 -.10004)" d="m1633.7-2867.5v-1032.6" stroke="#002eff"/><path transform="scale(.099957 -.10004)" d="m1644.3-2867.5v-1106.6" stroke="#0034ff"/><path transform="scale(.099957 -.10004)" d="m1655-2867.5v-1175" stroke="#003aff"/><path transform="scale(.099957 -.10004)" d="m1665.6-2867.5v-1224.3" stroke="#0040ff"/><path transform="scale(.099957 -.10004)" d="m1676.3-2867.5v-1260.4" stroke="#0046ff"/><path transform="scale(.099957 -.10004)" d="m1686.9-2867.5v-1279.9" stroke="#004bff"/><path transform="scale(.099957 -.10004)" d="m1697.6-2867.5v-1277" stroke="#0051ff"/><path transform="scale(.099957 -.10004)" d="m1708.2-2867.5v-1251.2" stroke="#0056ff"/><path transform="scale(.099957 -.10004)" d="m1718.9-2867.5v-1205.2" stroke="#005cff"/><path transform="scale(.099957 -.10004)" d="m1729.5-2867.5v-1150.6" stroke="#0061ff"/><path transform="scale(.099957 -.10004)" d="m1740.2-2867.5v-1086.8" stroke="#06f"/><path transform="scale(.099957 -.10004)" d="m1750.8-2867.5v-1023.5" stroke="#006bff"/><path transform="scale(.099957 -.10004)" d="m1761.5-2867.5v-961.71" stroke="#0070ff"/><path transform="scale(.099957 -.10004)" d="m1772.1-2867.5v-902.27" stroke="#0075ff"/><path transform="scale(.099957 -.10004)" d="m1782.8-2867.5v-855.99" stroke="#007aff"/><path transform="scale(.099957 -.10004)" d="m1793.4-2867.5v-810.05" stroke="#007fff"/><path transform="scale(.099957 -.10004)" d="m1804.1-2867.5v-776.14" stroke="#0084ff"/><path transform="scale(.099957 -.10004)" d="m1814.7-2867.5v-746.59" stroke="#0089ff"/><path transform="scale(.099957 -.10004)" d="m1825.4-2867.5v-719.64" stroke="#008dff"/><path transform="scale(.099957 -.10004)" d="m1836-2867.5v-694.65" stroke="#0092ff"/><path transform="scale(.099957 -.10004)" d="m1846.6-2867.5v-671.41" stroke="#0097ff"/><path transform="scale(.099957 -.10004)" d="m1857.3-2867.5v-648.81" stroke="#009bff"/><path transform="scale(.099957 -.10004)" d="m1868-2867.5v-623.17" stroke="#00a0ff"/><path transform="scale(.099957 -.10004)" d="m1878.6-2867.5v-602.42" stroke="#00a4ff"/><path transform="scale(.099957 -.10004)" d="m1889.2-2867.5v-575.04" stroke="#00a9ff"/><path transform="scale(.099957 -.10004)" d="m1899.9-2867.5v-547.56" stroke="#00adff"/><path transform="scale(.099957 -.10004)" d="m1910.5-2867.5v-522.24" stroke="#00b2ff"/><path transform="scale(.099957 -.10004)" d="m1921.2-2867.5v-502.14" stroke="#00b6ff"/><path transform="scale(.099957 -.10004)" d="m1931.8-2867.5v-481.93" stroke="#0bf"/><path transform="scale(.099957 -.10004)" d="m1942.5-2867.5v-467.49" stroke="#00bfff"/><path transform="scale(.099957 -.10004)" d="m1953.1-2867.5v-452.06" stroke="#00c4ff"/><path transform="scale(.099957 -.10004)" d="m1963.8-2867.5v-446.84" stroke="#00c8ff"/><path transform="scale(.099957 -.10004)" d="m1974.4-2867.5v-438.37" stroke="#0cf"/><path transform="scale(.099957 -.10004)" d="m1985.1-2867.5v-435.33" stroke="#00d1ff"/><path transform="scale(.099957 -.10004)" d="m1995.7-2867.5v-435.54" stroke="#00d5ff"/><path transform="scale(.099957 -.10004)" d="m2006.4-2867.5v-438.04" stroke="#00d9ff"/><path transform="scale(.099957 -.10004)" d="m2017-2867.5v-443.14" stroke="#0df"/><path transform="scale(.099957 -.10004)" d="m2027.7-2867.5v-446.09" stroke="#00e2ff"/><path transform="scale(.099957 -.10004)" d="m2038.3-2867.5v-452.39" stroke="#00e6ff"/><path transform="scale(.099957 -.10004)" d="m2049-2867.5v-459.77" stroke="#00eaff"/><path transform="scale(.099957 -.10004)" d="m2059.6-2867.5v-468.25" stroke="#0ef"/><path transform="scale(.099957 -.10004)" d="m2070.3-2867.5v-476.39" stroke="#00f2ff"/><path transform="scale(.099957 -.10004)" d="m2080.9-2867.5v-490.85" stroke="#00f6ff"/><path transform="scale(.099957 -.10004)" d="m2091.6-2867.5v-500.62" stroke="#00faff"/><path transform="scale(.099957 -.10004)" d="m2102.2-2867.5v-512.24" stroke="#0ff"/><path transform="scale(.099957 -.10004)" d="m2112.8-2867.5v-527.45" stroke="#00fff4"/><path transform="scale(.099957 -.10004)" d="m2123.5-2867.5v-542.34" stroke="#00ffea"/><path transform="scale(.099957 -.10004)" d="m2134.2-2867.5v-557.01" stroke="#00ffdf"/><path transform="scale(.099957 -.10004)" d="m2144.8-2867.5v-575.47" stroke="#00ffd5"/><path transform="scale(.099957 -.10004)" d="m2155.4-2867.5v-592.32" stroke="#00ffca"/><path transform="scale(.099957 -.10004)" d="m2166.1-2867.5v-616.33" stroke="#00ffbf"/><path transform="scale(.099957 -.10004)" d="m2176.7-2867.5v-633.6" stroke="#00ffb4"/><path transform="scale(.099957 -.10004)" d="m2187.4-2867.5v-651.75" stroke="#00ffa9"/><path transform="scale(.099957 -.10004)" d="m2198-2867.5v-671.09" stroke="#00ff9e"/><path transform="scale(.099957 -.10004)" d="m2208.7-2867.5v-692.7" stroke="#00ff92"/><path transform="scale(.099957 -.10004)" d="m2219.3-2867.5v-713.67" stroke="#00ff86"/><path transform="scale(.099957 -.10004)" d="m2230-2867.5v-733.66" stroke="#00ff7a"/><path transform="scale(.099957 -.10004)" d="m2240.6-2867.5v-754.09" stroke="#00ff6e"/><path transform="scale(.099957 -.10004)" d="m2251.3-2867.5v-772.89" stroke="#00ff61"/><path transform="scale(.099957 -.10004)" d="m2261.9-2867.5v-791.24" stroke="#00ff54"/><path transform="scale(.099957 -.10004)" d="m2272.6-2867.5v-810.69" stroke="#00ff46"/><path transform="scale(.099957 -.10004)" d="m2283.2-2867.5v-831.98" stroke="#00ff37"/><path transform="scale(.099957 -.10004)" d="m2293.9-2867.5v-851.32" stroke="#00ff28"/><path transform="scale(.099957 -.10004)" d="m2304.5-2867.5v-866.32" stroke="#00ff17"/><path transform="scale(.099957 -.10004)" d="m2315.2-2867.5v-884.24" stroke="#0f0"/><path transform="scale(.099957 -.10004)" d="m2325.8-2867.5v-904.45" stroke="#08ff00"/><path transform="scale(.099957 -.10004)" d="m2336.5-2867.5v-919.23" stroke="#0eff00"/><path transform="scale(.099957 -.10004)" d="m2347.1-2867.5v-936.61" stroke="#14ff00"/><path transform="scale(.099957 -.10004)" d="m2357.8-2867.5v-953.55" stroke="#19ff00"/><path transform="scale(.099957 -.10004)" d="m2368.4-2867.5v-970.94" stroke="#1eff00"/><path transform="scale(.099957 -.10004)" d="m2379.1-2867.5v-983.87" stroke="#23ff00"/><path transform="scale(.099957 -.10004)" d="m2389.7-2867.5v-1003.9" stroke="#28ff00"/><path transform="scale(.099957 -.10004)" d="m2400.4-2867.5v-1018.3" stroke="#2cff00"/><path transform="scale(.099957 -.10004)" d="m2411-2867.5v-1034.5" stroke="#31ff00"/><path transform="scale(.099957 -.10004)" d="m2421.6-2867.5v-1053.9" stroke="#35ff00"/><path transform="scale(.099957 -.10004)" d="m2432.3-2867.5v-1066.6" stroke="#3aff00"/><path transform="scale(.099957 -.10004)" d="m2442.9-2867.5v-1081.9" stroke="#3eff00"/><path transform="scale(.099957 -.10004)" d="m2453.6-2867.5v-1097.8" stroke="#42ff00"/><path transform="scale(.099957 -.10004)" d="m2464.2-2867.5v-1114.2" stroke="#46ff00"/><path transform="scale(.099957 -.10004)" d="m2474.9-2867.5v-1129.1" stroke="#4aff00"/><path transform="scale(.099957 -.10004)" d="m2485.5-2867.5v-1144.7" stroke="#4eff00"/><path transform="scale(.099957 -.10004)" d="m2496.2-2867.5v-1162.4" stroke="#52ff00"/><path transform="scale(.099957 -.10004)" d="m2506.8-2867.5v-1180.7" stroke="#56ff00"/><path transform="scale(.099957 -.10004)" d="m2517.5-2867.5v-1196.9" stroke="#59ff00"/><path transform="scale(.099957 -.10004)" d="m2528.1-2867.5v-1211" stroke="#5dff00"/><path transform="scale(.099957 -.10004)" d="m2538.8-2867.5v-1227.7" stroke="#61ff00"/><path transform="scale(.099957 -.10004)" d="m2549.4-2867.5v-1247.1" stroke="#65ff00"/><path transform="scale(.099957 -.10004)" d="m2560.1-2867.5v-1267.1" stroke="#68ff00"/><path transform="scale(.099957 -.10004)" d="m2570.7-2867.5v-1283.5" stroke="#6cff00"/><path transform="scale(.099957 -.10004)" d="m2581.4-2867.5v-1297.5" stroke="#6fff00"/><path transform="scale(.099957 -.10004)" d="m2592-2867.5v-1315.4" stroke="#73ff00"/><path transform="scale(.099957 -.10004)" d="m2602.7-2867.5v-1337" stroke="#7f0"/><path transform="scale(.099957 -.10004)" d="m2613.3-2867.5v-1352.4" stroke="#7aff00"/><path transform="scale(.099957 -.10004)" d="m2624-2867.5v-1373.6" stroke="#7eff00"/><path transform="scale(.099957 -.10004)" d="m2634.6-2867.5v-1390.1" stroke="#81ff00"/><path transform="scale(.099957 -.10004)" d="m2645.3-2867.5v-1408.1" stroke="#84ff00"/><path transform="scale(.099957 -.10004)" d="m2655.9-2867.5v-1426.7" stroke="#8f0"/><path transform="scale(.099957 -.10004)" d="m2666.6-2867.5v-1444" stroke="#8bff00"/><path transform="scale(.099957 -.10004)" d="m2677.2-2867.5v-1460" stroke="#8fff00"/><path transform="scale(.099957 -.10004)" d="m2687.8-2867.5v-1484.1" stroke="#92ff00"/><path transform="scale(.099957 -.10004)" d="m2698.5-2867.5v-1500.8" stroke="#95ff00"/><path transform="scale(.099957 -.10004)" d="m2709.2-2867.5v-1517" stroke="#9f0"/><path transform="scale(.099957 -.10004)" d="m2719.8-2867.5v-1537.4" stroke="#9cff00"/><path transform="scale(.099957 -.10004)" d="m2730.4-2867.5v-1561.8" stroke="#9fff00"/><path transform="scale(.099957 -.10004)" d="m2741.1-2867.5v-1574.9" stroke="#a2ff00"/><path transform="scale(.099957 -.10004)" d="m2751.7-2867.5v-1597" stroke="#a6ff00"/><path transform="scale(.099957 -.10004)" d="m2762.4-2867.5v-1621" stroke="#a9ff00"/><path transform="scale(.099957 -.10004)" d="m2773-2867.5v-1637.4" stroke="#acff00"/><path transform="scale(.099957 -.10004)" d="m2783.7-2867.5v-1653.3" stroke="#afff00"/><path transform="scale(.099957 -.10004)" d="m2794.3-2867.5v-1669.2" stroke="#b3ff00"/><path transform="scale(.099957 -.10004)" d="m2805-2867.5v-1690.2" stroke="#b6ff00"/><path transform="scale(.099957 -.10004)" d="m2815.6-2867.5v-1708.2" stroke="#b9ff00"/><path transform="scale(.099957 -.10004)" d="m2826.3-2867.5v-1725.5" stroke="#bcff00"/><path transform="scale(.099957 -.10004)" d="m2836.9-2867.5v-1743.4" stroke="#bfff00"/><path transform="scale(.099957 -.10004)" d="m2847.6-2867.5v-1765.2" stroke="#c2ff00"/><path transform="scale(.099957 -.10004)" d="m2858.2-2867.5v-1782.2" stroke="#c5ff00"/><path transform="scale(.099957 -.10004)" d="m2868.9-2867.5v-1804" stroke="#c9ff00"/><path transform="scale(.099957 -.10004)" d="m2879.5-2867.5v-1816.3" stroke="#cf0"/><path transform="scale(.099957 -.10004)" d="m2890.2-2867.5v-1832.5" stroke="#cfff00"/><path transform="scale(.099957 -.10004)" d="m2900.8-2867.5v-1855.5" stroke="#d2ff00"/><path transform="scale(.099957 -.10004)" d="m2911.5-2867.5v-1872.9" stroke="#d5ff00"/><path transform="scale(.099957 -.10004)" d="m2922.1-2867.5v-1886.9" stroke="#d8ff00"/><path transform="scale(.099957 -.10004)" d="m2932.8-2867.5v-1902.1" stroke="#dbff00"/><path transform="scale(.099957 -.10004)" d="m2943.4-2867.5v-1921.9" stroke="#deff00"/><path transform="scale(.099957 -.10004)" d="m2954-2867.5v-1939.5" stroke="#e1ff00"/><path transform="scale(.099957 -.10004)" d="m2964.7-2867.5v-1955.1" stroke="#e4ff00"/><path transform="scale(.099957 -.10004)" d="m2975.4-2867.5v-1969.5" stroke="#e7ff00"/><path transform="scale(.099957 -.10004)" d="m2986-2867.5v-1985.4" stroke="#eaff00"/><path transform="scale(.099957 -.10004)" d="m2996.6-2867.5v-2000.1" stroke="#edff00"/><path transform="scale(.099957 -.10004)" d="m3007.3-2867.5v-2015.3" stroke="#f0ff00"/><path transform="scale(.099957 -.10004)" d="m3018-2867.5v-2029.7" stroke="#f3ff00"/><path transform="scale(.099957 -.10004)" d="m3028.6-2867.5v-2047.7" stroke="#f6ff00"/><path transform="scale(.099957 -.10004)" d="m3039.2-2867.5v-2060" stroke="#f9ff00"/><path transform="scale(.099957 -.10004)" d="m3049.9-2867.5v-2078.4" stroke="#fcff00"/><path transform="scale(.099957 -.10004)" d="m3060.5-2867.5v-2091.1" stroke="#ff0"/><path transform="scale(.099957 -.10004)" d="m3071.2-2867.5v-2101.3" stroke="#fffb00"/><path transform="scale(.099957 -.10004)" d="m3081.8-2867.5v-2112.6" stroke="#fff800"/><path transform="scale(.099957 -.10004)" d="m3092.5-2867.5v-2129.2" stroke="#fff500"/><path transform="scale(.099957 -.10004)" d="m3103.1-2867.5v-2144.5" stroke="#fff200"/><path transform="scale(.099957 -.10004)" d="m3113.8-2867.5v-2156.1" stroke="#ffef00"/><path transform="scale(.099957 -.10004)" d="m3124.4-2867.5v-2173.3" stroke="#ffeb00"/><path transform="scale(.099957 -.10004)" d="m3135.1-2867.5v-2184.7" stroke="#ffe800"/><path transform="scale(.099957 -.10004)" d="m3145.7-2867.5v-2193.3" stroke="#ffe500"/><path transform="scale(.099957 -.10004)" d="m3156.4-2867.5v-2203" stroke="#ffe200"/><path transform="scale(.099957 -.10004)" d="m3167-2867.5v-2216.2" stroke="#ffdf00"/><path transform="scale(.099957 -.10004)" d="m3177.7-2867.5v-2224.8" stroke="#ffdb00"/><path transform="scale(.099957 -.10004)" d="m3188.3-2867.5v-2234" stroke="#ffd800"/><path transform="scale(.099957 -.10004)" d="m3199-2867.5v-2244.4" stroke="#ffd500"/><path transform="scale(.099957 -.10004)" d="m3209.6-2867.5v-2250.1" stroke="#ffd200"/><path transform="scale(.099957 -.10004)" d="m3220.3-2867.5v-2259.7" stroke="#ffce00"/><path transform="scale(.099957 -.10004)" d="m3230.9-2867.5v-2260.9" stroke="#ffcb00"/><path transform="scale(.099957 -.10004)" d="m3241.6-2867.5v-2269.1" stroke="#ffc800"/><path transform="scale(.099957 -.10004)" d="m3252.2-2867.5v-2272.6" stroke="#ffc400"/><path transform="scale(.099957 -.10004)" d="m3262.9-2867.5v-2276.3" stroke="#ffc100"/><path transform="scale(.099957 -.10004)" d="m3273.5-2867.5v-2278.7" stroke="#ffbe00"/><path transform="scale(.099957 -.10004)" d="m3284.2-2867.5v-2283" stroke="#ffba00"/><path transform="scale(.099957 -.10004)" d="m3294.8-2867.5v-2290" stroke="#ffb700"/><path transform="scale(.099957 -.10004)" d="m3305.4-2867.5v-2290.1" stroke="#ffb300"/><path transform="scale(.099957 -.10004)" d="m3316.1-2867.5v-2282.4" stroke="#ffb000"/><path transform="scale(.099957 -.10004)" d="m3326.7-2867.5v-2283.5" stroke="#ffac00"/><path transform="scale(.099957 -.10004)" d="m3337.4-2867.5v-2279.6" stroke="#ffa900"/><path transform="scale(.099957 -.10004)" d="m3348-2867.5v-2277.3" stroke="#ffa500"/><path transform="scale(.099957 -.10004)" d="m3358.7-2867.5v-2273.7" stroke="#ffa200"/><path transform="scale(.099957 -.10004)" d="m3369.3-2867.5v-2268.6" stroke="#ff9e00"/><path transform="scale(.099957 -.10004)" d="m3380-2867.5v-2268.9" stroke="#ff9b00"/><path transform="scale(.099957 -.10004)" d="m3390.6-2867.5v-2259.4" stroke="#ff9700"/><path transform="scale(.099957 -.10004)" d="m3401.3-2867.5v-2262.4" stroke="#ff9400"/><path transform="scale(.099957 -.10004)" d="m3411.9-2867.5v-2248.9" stroke="#ff9000"/><path transform="scale(.099957 -.10004)" d="m3422.6-2867.5v-2238.8" stroke="#ff8d00"/><path transform="scale(.099957 -.10004)" d="m3433.2-2867.5v-2228.7" stroke="#ff8900"/><path transform="scale(.099957 -.10004)" d="m3443.9-2867.5v-2218" stroke="#ff8500"/><path transform="scale(.099957 -.10004)" d="m3454.5-2867.5v-2207.7" stroke="#ff8100"/><path transform="scale(.099957 -.10004)" d="m3465.2-2867.5v-2199.4" stroke="#ff7e00"/><path transform="scale(.099957 -.10004)" d="m3475.8-2867.5v-2186.7" stroke="#ff7a00"/><path transform="scale(.099957 -.10004)" d="m3486.5-2867.5v-2174.3" stroke="#ff7600"/><path transform="scale(.099957 -.10004)" d="m3497.1-2867.5v-2162.9" stroke="#ff7200"/><path transform="scale(.099957 -.10004)" d="m3507.8-2867.5v-2148.4" stroke="#ff6f00"/><path transform="scale(.099957 -.10004)" d="m3518.4-2867.5v-2131.5" stroke="#ff6b00"/><path transform="scale(.099957 -.10004)" d="m3529.1-2867.5v-2116" stroke="#ff6700"/><path transform="scale(.099957 -.10004)" d="m3539.7-2867.5v-2102.1" stroke="#ff6300"/><path transform="scale(.099957 -.10004)" d="m3550.4-2867.5v-2084.4" stroke="#ff5f00"/><path transform="scale(.099957 -.10004)" d="m3561-2867.5v-2068.9" stroke="#ff5b00"/><path transform="scale(.099957 -.10004)" d="m3571.6-2867.5v-2046.1" stroke="#ff5700"/><path transform="scale(.099957 -.10004)" d="m3582.3-2867.5v-2026.6" stroke="#ff5300"/><path transform="scale(.099957 -.10004)" d="m3593-2867.5v-2011.3" stroke="#ff4e00"/><path transform="scale(.099957 -.10004)" d="m3603.6-2867.5v-1989.6" stroke="#ff4a00"/><path transform="scale(.099957 -.10004)" d="m3614.2-2867.5v-1971.9" stroke="#ff4600"/><path transform="scale(.099957 -.10004)" d="m3624.9-2867.5v-1950.6" stroke="#ff4200"/><path transform="scale(.099957 -.10004)" d="m3635.5-2867.5v-1929.2" stroke="#ff3d00"/><path transform="scale(.099957 -.10004)" d="m3646.2-2867.5v-1906.2" stroke="#ff3900"/><path transform="scale(.099957 -.10004)" d="m3656.8-2867.5v-1885.7" stroke="#ff3400"/><path transform="scale(.099957 -.10004)" d="m3667.5-2867.5v-1863" stroke="#ff2f00"/><path transform="scale(.099957 -.10004)" d="m3678.1-2867.5v-1843.1" stroke="#ff2a00"/><path transform="scale(.099957 -.10004)" d="m3688.8-2867.5v-1815.9" stroke="#ff2500"/><path transform="scale(.099957 -.10004)" d="m3699.4-2867.5v-1795.7" stroke="#ff2000"/><path transform="scale(.099957 -.10004)" d="m3710.1-2867.5v-1767.3" stroke="#ff1b00"/><path transform="scale(.099957 -.10004)" d="m3720.7-2867.5v-1740.7" stroke="#ff1500"/><path transform="scale(.099957 -.10004)" d="m3731.4-2867.5v-1717.9" stroke="#ff0f00"/><path transform="scale(.099957 -.10004)" d="m3742-2867.5v-1690.8" stroke="#ff0900"/><g stroke="#f00"><path transform="scale(.099957 -.10004)" d="m3752.7-2867.5v-1667.7"/><path transform="scale(.099957 -.10004)" d="m3763.3-2867.5v-1639.3"/><path transform="scale(.099957 -.10004)" d="m3774-2867.5v-1611.8"/><path transform="scale(.099957 -.10004)" d="m3784.6-2867.5v-1589.6"/><path transform="scale(.099957 -.10004)" d="m3795.3-2867.5v-1560.3"/><path transform="scale(.099957 -.10004)" d="m3805.9-2867.5v-1536.2"/><path transform="scale(.099957 -.10004)" d="m3816.6-2867.5v-1507.8"/><path transform="scale(.099957 -.10004)" d="m3827.2-2867.5v-1483.7"/><path transform="scale(.099957 -.10004)" d="m3837.8-2867.5v-1453.8"/><path transform="scale(.099957 -.10004)" d="m3848.5-2867.5v-1430.1"/><path transform="scale(.099957 -.10004)" d="m3859.2-2867.5v-1401.7"/><path transform="scale(.099957 -.10004)" d="m3869.8-2867.5v-1375.1"/><path transform="scale(.099957 -.10004)" d="m3880.4-2867.5v-1349.7"/><path transform="scale(.099957 -.10004)" d="m3891.1-2867.5v-1323"/><path transform="scale(.099957 -.10004)" d="m3901.7-2867.5v-1292.2"/><path transform="scale(.099957 -.10004)" d="m3912.4-2867.5v-1268"/><path transform="scale(.099957 -.10004)" d="m3923-2867.5v-1241.9"/><path transform="scale(.099957 -.10004)" d="m3933.7-2867.5v-1215.2"/><path transform="scale(.099957 -.10004)" d="m3944.3-2867.5v-1186"/><path transform="scale(.099957 -.10004)" d="m3955-2867.5v-1163.4"/><path transform="scale(.099957 -.10004)" d="m3965.6-2867.5v-1140.6"/><path transform="scale(.099957 -.10004)" d="m3976.3-2867.5v-1117.4"/><path transform="scale(.099957 -.10004)" d="m3986.9-2867.5v-1090.6"/><path transform="scale(.099957 -.10004)" d="m3997.6-2867.5v-1066.1"/><path transform="scale(.099957 -.10004)" d="m4008.2-2867.5v-1042.1"/><path transform="scale(.099957 -.10004)" d="m4018.9-2867.5v-1019.6"/><path transform="scale(.099957 -.10004)" d="m4029.5-2867.5v-994.73"/><path transform="scale(.099957 -.10004)" d="m4040.2-2867.5v-972.67"/><path transform="scale(.099957 -.10004)" d="m4050.8-2867.5v-952.37"/><path transform="scale(.099957 -.10004)" d="m4061.5-2867.5v-929.43"/><path transform="scale(.099957 -.10004)" d="m4072.1-2867.5v-904.66"/><path transform="scale(.099957 -.10004)" d="m4082.8-2867.5v-882.51"/><path transform="scale(.099957 -.10004)" d="m4093.4-2867.5v-866.32"/><path transform="scale(.099957 -.10004)" d="m4104.1-2867.5v-840.03"/><path transform="scale(.099957 -.10004)" d="m4114.7-2867.5v-820.04"/><path transform="scale(.099957 -.10004)" d="m4125.4-2867.5v-806.45"/><path transform="scale(.099957 -.10004)" d="m4136-2867.5v-783.96"/><path transform="scale(.099957 -.10004)" d="m4146.7-2867.5v-764.08"/><path transform="scale(.099957 -.10004)" d="m4157.3-2867.5v-740.5"/><path transform="scale(.099957 -.10004)" d="m4167.9-2867.5v-726.28"/><path transform="scale(.099957 -.10004)" d="m4178.6-2867.5v-706.5"/><path transform="scale(.099957 -.10004)" d="m4189.2-2867.5v-690.09"/><path transform="scale(.099957 -.10004)" d="m4199.9-2867.5v-672.39"/><path transform="scale(.099957 -.10004)" d="m4210.5-2867.5v-651.43"/><path transform="scale(.099957 -.10004)" d="m4221.2-2867.5v-636.65"/><path transform="scale(.099957 -.10004)" d="m4231.8-2867.5v-617.2"/><path transform="scale(.099957 -.10004)" d="m4242.5-2867.5v-603.08"/><path transform="scale(.099957 -.10004)" d="m4253.1-2867.5v-584.5"/><path transform="scale(.099957 -.10004)" d="m4263.8-2867.5v-568.42"/><path transform="scale(.099957 -.10004)" d="m4274.4-2867.5v-553.85"/><path transform="scale(.099957 -.10004)" d="m4285.1-2867.5v-538.31"/><path transform="scale(.099957 -.10004)" d="m4295.7-2867.5v-525.94"/><path transform="scale(.099957 -.10004)" d="m4306.4-2867.5v-509.96"/><path transform="scale(.099957 -.10004)" d="m4317-2867.5v-493.78"/><path transform="scale(.099957 -.10004)" d="m4327.7-2867.5v-483.89"/><path transform="scale(.099957 -.10004)" d="m4338.3-2867.5v-464.76"/></g><path transform="scale(.099957 -.10004)" d="m4349-2867.5v-453.9" stroke="#fd0000"/><path transform="scale(.099957 -.10004)" d="m4359.6-2867.5v-438.8" stroke="#fc0000"/><path transform="scale(.099957 -.10004)" d="m4370.3-2867.5v-427.18" stroke="#fa0000"/><path transform="scale(.099957 -.10004)" d="m4380.9-2867.5v-412.51" stroke="#f90000"/><path transform="scale(.099957 -.10004)" d="m4391.6-2867.5v-400.89" stroke="#f70000"/><path transform="scale(.099957 -.10004)" d="m4402.2-2867.5v-391.11" stroke="#f60000"/><path transform="scale(.099957 -.10004)" d="m4412.9-2867.5v-377.97" stroke="#f40000"/><path transform="scale(.099957 -.10004)" d="m4423.5-2867.5v-369.92" stroke="#f30000"/><path transform="scale(.099957 -.10004)" d="m4434.2-2867.5v-354.39" stroke="#f20000"/><path transform="scale(.099957 -.10004)" d="m4444.8-2867.5v-343.41" stroke="#f00000"/><path transform="scale(.099957 -.10004)" d="m4455.4-2867.5v-335.05" stroke="#ef0000"/><path transform="scale(.099957 -.10004)" d="m4466.1-2867.5v-320.92" stroke="#ed0000"/><path transform="scale(.099957 -.10004)" d="m4476.8-2867.5v-313.32" stroke="#ec0000"/><path transform="scale(.099957 -.10004)" d="m4487.4-2867.5v-301.58" stroke="#ea0000"/><path transform="scale(.099957 -.10004)" d="m4498-2867.5v-294.85" stroke="#e90000"/><path transform="scale(.099957 -.10004)" d="m4508.7-2867.5v-284.86" stroke="#e70000"/><path transform="scale(.099957 -.10004)" d="m4519.3-2867.5v-274.43" stroke="#e60000"/><path transform="scale(.099957 -.10004)" d="m4530-2867.5v-266.82" stroke="#e40000"/><path transform="scale(.099957 -.10004)" d="m4540.6-2867.5v-255.64" stroke="#e30000"/><path transform="scale(.099957 -.10004)" d="m4551.3-2867.5v-246.83" stroke="#e20000"/><path transform="scale(.099957 -.10004)" d="m4561.9-2867.5v-240.64" stroke="#e00000"/><path transform="scale(.099957 -.10004)" d="m4572.6-2867.5v-232.7" stroke="#df0000"/><path transform="scale(.099957 -.10004)" d="m4583.2-2867.5v-219.78" stroke="#d00"/><path transform="scale(.099957 -.10004)" d="m4593.9-2867.5v-215.76" stroke="#dc0000"/><path transform="scale(.099957 -.10004)" d="m4604.5-2867.5v-209.57" stroke="#da0000"/><path transform="scale(.099957 -.10004)" d="m4615.2-2867.5v-201.31" stroke="#d90000"/><path transform="scale(.099957 -.10004)" d="m4625.8-2867.5v-195.12" stroke="#d70000"/><path transform="scale(.099957 -.10004)" d="m4636.5-2867.5v-190.66" stroke="#d60000"/><path transform="scale(.099957 -.10004)" d="m4647.1-2867.5v-187.95" stroke="#d40000"/><path transform="scale(.099957 -.10004)" d="m4657.8-2867.5v-176.97" stroke="#d30000"/><path transform="scale(.099957 -.10004)" d="m4668.4-2867.5v-173.39" stroke="#d10000"/><path transform="scale(.099957 -.10004)" d="m4679.1-2867.5v-165.89" stroke="#d00000"/><path transform="scale(.099957 -.10004)" d="m4689.7-2867.5v-160.02" stroke="#ce0000"/><path transform="scale(.099957 -.10004)" d="m4700.4-2867.5v-158.39" stroke="#cd0000"/><path transform="scale(.099957 -.10004)" d="m4711-2867.5v-147.21" stroke="#cb0000"/><path transform="scale(.099957 -.10004)" d="m4721.7-2867.5v-143.62" stroke="#ca0000"/><path transform="scale(.099957 -.10004)" d="m4732.3-2867.5v-136.55" stroke="#c80000"/><path transform="scale(.099957 -.10004)" d="m4743-2867.5v-133.19" stroke="#c70000"/><path transform="scale(.099957 -.10004)" d="m4753.6-2867.5v-124.93" stroke="#c50000"/><path transform="scale(.099957 -.10004)" d="m4764.2-2867.5v-123.52" stroke="#c40000"/><path transform="scale(.099957 -.10004)" d="m4774.9-2867.5v-117" stroke="#c20000"/><path transform="scale(.099957 -.10004)" d="m4785.5-2867.5v-112.44" stroke="#c10000"/><path transform="scale(.099957 -.10004)" d="m4796.2-2867.5v-108.85" stroke="#bf0000"/><path transform="scale(.099957 -.10004)" d="m4806.8-2867.5v-109.94" stroke="#bd0000"/><path transform="scale(.099957 -.10004)" d="m4817.5-2867.5v-102.45" stroke="#bc0000"/><path transform="scale(.099957 -.10004)" d="m4828.1-2867.5v-106.14" stroke="#ba0000"/><path transform="scale(.099957 -.10004)" d="m4838.8-2867.5v-99.51" stroke="#b90000"/><path transform="scale(.099957 -.10004)" d="m4849.4-2867.5v-96.36" stroke="#b70000"/><path transform="scale(.099957 -.10004)" d="m4860.1-2867.5v-91.91" stroke="#b60000"/><path transform="scale(.099957 -.10004)" d="m4870.7-2867.5v-88.97" stroke="#b40000"/><path transform="scale(.099957 -.10004)" d="m4881.4-2867.5v-82.45" stroke="#b30000"/><path transform="scale(.099957 -.10004)" d="m4892-2867.5v-81.8" stroke="#b10000"/><path transform="scale(.099957 -.10004)" d="m4902.7-2867.5v-78.65" stroke="#af0000"/><path transform="scale(.099957 -.10004)" d="m4913.3-2867.5v-71.48" stroke="#ae0000"/><path transform="scale(.099957 -.10004)" d="m4924-2867.5v-72.03" stroke="#ac0000"/><path transform="scale(.099957 -.10004)" d="m4934.6-2867.5v-67.78" stroke="#ab0000"/><path transform="scale(.099957 -.10004)" d="m4945.3-2867.5v-67.56" stroke="#a90000"/><path transform="scale(.099957 -.10004)" d="m4955.9-2867.5v-58.77" stroke="#a80000"/><path transform="scale(.099957 -.10004)" d="m4966.6-2867.5v-61.81" stroke="#a60000"/><path transform="scale(.099957 -.10004)" d="m4977.2-2867.5v-57.14" stroke="#a40000"/><path transform="scale(.099957 -.10004)" d="m4987.9-2867.5v-60.4" stroke="#a30000"/><path transform="scale(.099957 -.10004)" d="m4998.5-2867.5v-55.73" stroke="#a10000"/><path transform="scale(.099957 -.10004)" d="m5009.2-2867.5v-59.64" stroke="#a00000"/><path transform="scale(.099957 -.10004)" d="m5019.8-2867.5v-52.47" stroke="#9e0000"/><path transform="scale(.099957 -.10004)" d="m5030.5-2867.5v-52.9" stroke="#9c0000"/><path transform="scale(.099957 -.10004)" d="m5041.1-2867.5v-51.27" stroke="#9b0000"/><path transform="scale(.099957 -.10004)" d="m5051.8-2867.5v-43.34" stroke="#900"/><path transform="scale(.099957 -.10004)" d="m5062.4-2867.5v-45.52" stroke="#980000"/><path transform="scale(.099957 -.10004)" d="m5073-2867.5v-43.55" stroke="#960000"/><path transform="scale(.099957 -.10004)" d="m5083.7-2867.5v-41.17" stroke="#940000"/><path transform="scale(.099957 -.10004)" d="m5094.3-2867.5v-45.62" stroke="#930000"/><path transform="scale(.099957 -.10004)" d="m5105-2867.5v-39.75" stroke="#910000"/><path transform="scale(.099957 -.10004)" d="m5115.6-2867.5v-34.43" stroke="#8f0000"/><path transform="scale(.099957 -.10004)" d="m5126.3-2867.5v-38.34" stroke="#8e0000"/><path transform="scale(.099957 -.10004)" d="m5136.9-2867.5v-30.2" stroke="#8c0000"/><path transform="scale(.099957 -.10004)" d="m5147.6-2867.5v-33.67" stroke="#8a0000"/><path transform="scale(.099957 -.10004)" d="m5158.2-2867.5v-33.35" stroke="#890000"/><path transform="scale(.099957 -.10004)" d="m5168.9-2867.5v-30.09" stroke="#870000"/><path transform="scale(.099957 -.10004)" d="m5179.5-2867.5v-30.85" stroke="#850000"/><path transform="scale(.099957 -.10004)" d="m5190.2-2867.5v-29.98" stroke="#840000"/><path transform="scale(.099957 -.10004)" d="m5200.8-2867.5v-24.54" stroke="#820000"/><path transform="scale(.099957 -.10004)" d="m5211.5-2867.5v-21.94" stroke="#800000"/><path transform="scale(.099957 -.10004)" d="m5222.1-2867.5v-25.41" stroke="#7f0000"/><path transform="scale(.099957 -.10004)" d="m5232.8-2867.5v-25.09" stroke="#7d0000"/><path transform="scale(.099957 -.10004)" d="m5243.4-2867.5v-25.2" stroke="#7b0000"/><path transform="scale(.099957 -.10004)" d="m5254.1-2867.5v-19.33" stroke="#7a0000"/><path transform="scale(.099957 -.10004)" d="m5264.7-2867.5v-26.83" stroke="#780000"/><path transform="scale(.099957 -.10004)" d="m5275.4-2867.5v-21.5" stroke="#760000"/><path transform="scale(.099957 -.10004)" d="m5286-2867.5v-24.43" stroke="#740000"/><path transform="scale(.099957 -.10004)" d="m5296.7-2867.5v-13.25" stroke="#730000"/><path transform="scale(.099957 -.10004)" d="m5307.3-2867.5v-12.6" stroke="#710000"/><path transform="scale(.099957 -.10004)" d="m5318-2867.5v-18.9" stroke="#6f0000"/><path transform="scale(.099957 -.10004)" d="m5328.6-2867.5v-14.22" stroke="#6d0000"/><path transform="scale(.099957 -.10004)" d="m5339.2-2867.5v-16.83" stroke="#6c0000"/><path transform="scale(.099957 -.10004)" d="m5349.9-2867.5v-16.72" stroke="#6a0000"/><path transform="scale(.099957 -.10004)" d="m5360.6-2867.5v-20.19" stroke="#680000"/><path transform="scale(.099957 -.10004)" d="m5371.2-2867.5v-10.64" stroke="#600"/><path transform="scale(.099957 -.10004)" d="m5381.8-2867.5v-12.7" stroke="#640000"/></g><g fill="#000000" font-family="Lato"><text transform="matrix(1.8992 0 0 1.9003 29.405 331.44)" font-size="8.4222px" stroke="#000000" stroke-linecap="round" stroke-linejoin="round" stroke-miterlimit="10" stroke-width=".13156" style="font-variant-caps:normal;font-variant-east-asian:normal;font-variant-ligatures:normal;font-variant-numeric:normal;line-height:0%"><tspan x="0" y="0" font-family="Lato" font-size="8.4222px" stroke-width=".13156" style="font-variant-caps:normal;font-variant-east-asian:normal;font-variant-ligatures:normal;font-variant-numeric:normal;line-height:1.25">CIE Colorimetric Parameters</tspan></text><g><text transform="matrix(1.8992 0 0 1.9003 29.28 353.89)" font-size="8.4222px" stroke-width=".65778" style="font-variant-caps:normal;font-variant-east-asian:normal;font-variant-ligatures:normal;font-variant-numeric:normal;line-height:0%"><tspan x="0" y="0" font-family="Lato" font-size="8.4222px" stroke-width=".65778" style="font-variant-caps:normal;font-variant-east-asian:normal;font-variant-ligatures:normal;font-variant-numeric:normal;line-height:1.25">Chromaticity coordinates: x=0.4338 y=0.4030 u'=0.2490 v'=0.5205</tspan></text><text transform="matrix(1.8998 0 0 1.9009 -7.2325 1527.7)" x="19.2194" y="-605.67859" font-size="8.4196px" stroke-width=".65758" style="font-variant-caps:normal;font-variant-east-asian:normal;font-variant-ligatures:normal;font-variant-numeric:normal;line-height:0%"><tspan x="19.2194" y="-605.67859" font-family="Lato" font-size="8.4196px" stroke-width=".65758" style="font-variant-caps:normal;font-variant-east-asian:normal;font-variant-ligatures:normal;font-variant-numeric:normal;line-height:1.25">CCT: Tc=3045K</tspan></text><text transform="matrix(1.8992 0 0 1.9003 420.02 376.35)" font-size="8.4222px" stroke-width=".65778" style="font-variant-caps:normal;font-variant-east-asian:normal;font-variant-ligatures:normal;font-variant-numeric:normal;line-height:0%"><tspan x="0" y="0" font-family="Lato" font-size="8.4222px" stroke-width=".65778" style="font-variant-caps:normal;font-variant-east-asian:normal;font-variant-ligatures:normal;font-variant-numeric:normal;line-height:1.25">Color Ratio: R=0.229 G=0.739 B=0.032 </tspan></text><text transform="matrix(1.8992 0 0 1.9003 238.92 376.35)" font-size="8.4222px" stroke-width=".65778" style="font-variant-caps:normal;font-variant-east-asian:normal;font-variant-ligatures:normal;font-variant-numeric:normal;line-height:0%"><tspan x="0" y="0" font-family="Lato" font-size="8.4222px" stroke-width=".65778" style="font-variant-caps:normal;font-variant-east-asian:normal;font-variant-ligatures:normal;font-variant-numeric:normal;line-height:1.25">CRI: Ra= 82</tspan></text></g></g><path transform="matrix(.89479 0 0 .89479 .85124 -10.196)" d="m133.59 239 0.853 0.275 0.866 0.266 0.879 0.26 0.892 0.251 0.903 0.244 0.917 0.236 0.929 0.228 0.942 0.221 0.954 0.212 0.966 0.205 0.978 0.197 0.989 0.189 1.002 0.181 1.013 0.174 1.025 0.165 1.036 0.158 1.048 0.149 1.059 0.142 1.07 0.133 1.083 0.126 1.092 0.117 1.103 0.11 1.115 0.101 1.125 0.094 1.135 0.085 1.146 0.078 1.156 0.069 1.167 0.061 1.176 0.053 1.187 0.045 1.196 0.037 1.206 0.029 1.216 0.021 1.225 0.012 1.235 5e-3 1.244-4e-3 1.252-0.011 1.263-0.02 1.27-0.028 1.28-0.036 1.288-0.044 1.297-0.052 1.305-0.06 1.313-0.069 1.321-0.076 1.33-0.084 1.337-0.093 1.346-0.1 1.352-0.109 1.36-0.116 1.367-0.125 1.374-0.133 1.382-0.141 1.389-0.148 1.394-0.156 1.402-0.165 1.408-0.173 1.414-0.18 1.421-0.188 1.426-0.196 1.433-0.204 1.438-0.211 1.444-0.22 1.449-0.227 1.455-0.235 1.46-0.243 1.465-0.251 1.47-0.258 1.474-0.266 1.479-0.274 1.484-0.281 1.488-0.288 1.492-0.297 1.496-0.304 1.5-0.311 1.503-0.319 1.508-0.326 1.509-0.334 1.514-0.341 1.517-0.348 1.52-0.356 1.523-0.363 1.525-0.369 1.528-0.378 1.529-0.384 1.533-0.392 1.534-0.398 1.536-0.406 1.538-0.413 1.539-0.42 1.541-0.426 1.542-0.434 1.544-0.44 1.543-0.447 1.545-0.454 1.545-0.46 1.546-0.467 1.546-0.473 1.547-0.481 1.547-0.486 1.546-0.493 1.546-0.5 1.546-0.506 1.545-0.512 1.544-0.519 1.544-0.524 1.542-0.531 1.541-0.537 1.54-0.543 1.538-0.549 1.537-0.555 1.534-0.56 1.534-0.567 1.53-0.572 1.528-0.579 1.526-0.583 1.523-0.59 1.52-0.595 1.518-0.6 1.514-0.605 1.512-0.612 1.508-0.616 1.505-0.621 1.501-0.627 1.497-0.632 1.493-0.637 1.488-0.641 1.485-0.648 1.481-0.651 1.475-0.657 1.471-0.661 1.467-0.666 1.461-0.67 1.456-0.675 1.45-0.679 1.446-0.683 1.44-0.688 1.434-0.693 1.428-0.696 1.423-0.701 1.416-0.705 1.41-0.708 1.403-0.712 1.396-0.717 1.39-0.72 1.384-0.723 1.376-0.728 1.37-0.73 1.361-0.735 1.355-0.737 1.347-0.741 1.339-0.745 1.332-0.747 1.323-0.75 1.315-0.754 1.308-0.756 1.299-0.76 1.29-0.762 1.281-0.765 1.274-0.767 1.264-0.77 1.255-0.772 1.247-0.775 1.237-0.778 1.228-0.779 1.218-0.782 1.209-0.784 1.199-0.785 1.189-0.788 1.179-0.789 1.169-0.792 1.159-0.793 1.149-0.794 1.138-0.797 1.127-0.797 1.117-0.799 1.107-0.801 1.095-0.801 1.085-0.803 1.073-0.804 1.063-0.804 1.05-0.806 1.039-0.806 1.029-0.808 1.016-0.807 1.005-0.809 0.993-0.809 0.981-0.809 0.969-0.81 0.957-0.81 0.945-0.81 0.932-0.81 0.919-0.81 0.908-0.811 0.895-0.81 0.882-0.809 0.87-0.81 0.858-0.809 0.842-0.808 0.831-0.808 0.819-0.808 0.803-0.806 0.792-0.806 0.777-0.805 0.765-0.805 0.752-0.802 0.737-0.802 0.724-0.801 0.711-0.799 0.695-0.799 0.683-0.796 0.669-0.795 0.655-0.793 0.64-0.792 0.626-0.79 0.613-0.789 0.599-0.786 0.584-0.784 0.568-0.783 0.556-0.78 0.54-0.777 0.526-0.776 0.512-0.773 0.497-0.771 0.482-0.768 0.468-0.765 0.453-0.763 0.437-0.76 0.424-0.758 0.407-0.754 0.394-0.751 0.379-0.749 0.363-0.745 0.348-0.741 0.333-0.739 0.319-0.735 0.302-0.732 0.288-0.729 0.272-0.724 0.257-0.721 0.243-0.718 0.226-0.713 0.211-0.71 0.197-0.705 0.181-0.702 0.165-0.698 0.15-0.693 0.134-0.689 0.119-0.685 0.104-0.681 0.088-0.676 0.074-0.671 0.057-0.667 0.042-0.663 0.025-0.657 0.012-0.654-4e-3 -0.648-0.02-0.643-0.036-0.638-0.051-0.633-0.066-0.629-0.082-0.623-0.097-0.618-0.113-0.612-0.128-0.607-0.143-0.602-0.159-0.597-0.174-0.59-0.189-0.585-0.205-0.58-0.22-0.574-0.236-0.568-0.25-0.563-0.267-0.556-0.282-0.551-0.296-0.544-0.311-0.539-0.327-0.533-0.342-0.526-0.357-0.52-0.371-0.514-0.387-0.5078-0.402-0.5016-0.416-0.4949-0.432-0.4886-0.447-0.4816-0.462-0.4756-0.476-0.469-0.49-0.4623-0.506-0.4556-0.52-0.4487-0.534-0.442-0.549-0.4357-0.564-0.4283-0.577-0.4214-0.592-0.4147-0.607-0.4074-0.62-0.4007-0.635-0.3937-0.648-0.3865-0.664-0.3791-0.677-0.3721-0.69-0.3651-0.704-0.3578-0.719-0.3505-0.731-0.3428-0.745-0.3358-0.76-0.3282-0.772-0.3208-0.785-0.3132-0.799-0.3059-0.812-0.2985-0.825-0.2909-0.839-0.2836-0.851-0.2756-0.864-0.2679-0.878-0.2603-0.889-0.2529-0.902-0.245-0.914-0.2373-0.928-0.2293-0.94-0.2217-0.951-0.214-0.963-0.206-0.977-0.1984-0.988-0.1904-0.999-0.1827-1.012-0.1744-1.023-0.1668-1.034-0.1584-1.047-0.1511-1.057-0.1425-1.069-0.1348-1.079-0.1271-1.091-0.1188-1.102-0.1105-1.113-0.1028-1.123-0.0949-1.133-0.0869-1.145-0.0785-1.154-0.0706-1.165-0.0626-1.175-0.0542-1.184-0.0463-1.195-0.0383-1.205-0.0302-1.214-0.022-1.224-0.014-1.233-0.0057-1.243 0.0024-1.251 0.0103-1.261 0.0186-1.269 0.0263-1.278 0.0347-1.287 0.0429-1.295 0.0509-1.305 0.0586-1.312 0.0672-1.32 0.0752-1.328 0.0832-1.336 0.0913-1.343 0.0991-1.351 0.1072-1.359 0.1155-1.367 0.1231-1.373 0.1315-1.38 0.1391-1.387 0.1475-1.394 0.1551-1.401 0.1634-1.407 0.1711-1.413 0.1787-1.42 0.187-1.426 0.1951-1.432 0.2027-1.437 0.2103-1.443 0.2184-1.448 0.226-1.453 0.2336-1.46 0.2416-1.464 0.2497-1.469 0.2569-1.474 0.2646-1.479 0.2726-1.483 0.2796-1.486 0.2875-1.492 0.2953-1.495 0.3029-1.499 0.3098-1.504 0.3179-1.505 0.3248-1.511 0.3325-1.514 0.3398-1.515 0.3472-1.52 0.3545-1.522 0.3617-1.524 0.3692-1.528 0.3761-1.53 0.3834-1.531 0.3904-1.535 0.3974-1.535 0.4044-1.537 0.4117-1.54 0.4184-1.541 0.4253-1.541 0.4324-1.543 0.439-1.544 0.4463-1.544 0.4523-1.546 0.4593-1.546 0.4663-1.546 0.4727-1.547 0.4789-1.546 0.4859-1.547 0.4923-1.546 0.4982-1.546 0.505-1.545 0.5115-1.544 0.517-1.543 0.524-1.544 0.53-1.54 0.536-1.54 0.542-1.539 0.548-1.536 0.554-1.536 0.56-1.533 0.565-1.531 0.571-1.528 0.578-1.527 0.582-1.524 0.589-1.521 0.594-1.517 0.599-1.516 0.605-1.512 0.61-1.508 0.616-1.505 0.621-1.502 0.625-1.498 0.631-1.493 0.637-1.49 0.641-1.485 0.646-1.481 0.651-1.477 0.655-1.472 0.66-1.466 0.665-1.462 0.67-1.457 0.674-1.452 0.679-1.446 0.683-1.441 0.687-1.436 0.692-1.428 0.695-1.424 0.701-1.416 0.703-1.411 0.708-1.405 0.712-1.397 0.716-1.391 0.719-1.385 0.723-1.377 0.727-1.37 0.73-1.363 0.734-1.356 0.737-1.349 0.74-1.34 0.744-1.333 0.747-1.324 0.75-1.317 0.753-1.309 0.756-1.3 0.759-1.292 0.762-1.282 0.764-1.276 0.767-1.266 0.77-1.257 0.772-1.247 0.774-1.239 0.777-1.229 0.779-1.219 0.781-1.21 0.784-1.202 0.785-1.19 0.788-1.181 0.789-1.17 0.791-1.161 0.793-1.15 0.794-1.14 0.796-1.129 0.798-1.12 0.799-1.106 0.799-1.098 0.802-1.087 0.803-1.075 0.803-1.064 0.805-1.052 0.805-1.043 0.806-1.029 0.808-1.018 0.807-1.006 0.808-0.996 0.81-0.982 0.809-0.972 0.809-0.958 0.81-0.946 0.81-0.935 0.811-0.921 0.81-0.911 0.81-0.896 0.81-0.885 0.81-0.872 0.809-0.858 0.81-0.846 0.808-0.833 0.808-0.82 0.808-0.806 0.807-0.793 0.805-0.781 0.806-0.766 0.804-0.754 0.803-0.74 0.802-0.726 0.801-0.712 0.8-0.699 0.798-0.684 0.797-0.671 0.795-0.658 0.794-0.642 0.792-0.629 0.79-0.615 0.788-0.6 0.787-0.586 0.785-0.572 0.782-0.556 0.781-0.544 0.778-0.528 0.776-0.515 0.774-0.499 0.771-0.484 0.768-0.47 0.766-0.456 0.763-0.44 0.761-0.425 0.758-0.411 0.755-0.396 0.751-0.379 0.749-0.367 0.746-0.35 0.742-0.336 0.739-0.32 0.736-0.306 0.732-0.29 0.729-0.274 0.726-0.26 0.721-0.245 0.718-0.229 0.714-0.214 0.711-0.198 0.706-0.184 0.702-0.167 0.698-0.152 0.694-0.138 0.69-0.121 0.686-0.106 0.681-0.091 0.677-0.075 0.672-0.06 0.668-0.045 0.663-0.028 0.659-0.015 0.654 3e-3 0.648 0.018 0.644 0.032 0.64 0.048 0.633 0.065 0.629 0.079 0.624 0.095 0.619 0.11 0.613 0.125 0.608 0.141 0.603 0.157 0.597 0.171 0.592 0.187 0.586 0.203 0.581 0.218 0.575 0.233 0.569 0.248 0.563 0.264 0.557 0.279 0.552 0.293 0.546 0.31 0.539 0.324 0.534 0.339 0.527 0.355 0.521 0.37 0.515 0.385 0.509 0.399 0.502 0.414 0.496 0.429 0.49 0.444 0.483 0.46 0.476 0.473 0.47 0.488 0.463 0.504 0.457 0.517 0.45 0.532 0.443 0.548 0.437 0.56 0.429 0.575 0.423 0.59 0.415 0.604 0.41 0.619 0.401 0.633 0.395 0.646 0.387 0.661 0.381 0.674 0.373 0.688 0.366 0.702 0.359 0.716 0.352 0.729 0.344 0.744 0.337 0.756 0.329 0.771 0.322 0.783 0.315 0.797 0.307 0.811 0.3 0.823 0.291 0.835 0.285" fill="#c2cccc"/><polygon transform="matrix(2.4098 0 0 2.4098 -397.59 -257)" points="262.49 162.04 263.49 162.04 263.99 162.9 263.49 163.77 262.49 163.77 261.99 162.9" fill="#f0f" shape-rendering="crispEdges" stroke-width=".55329"/><g fill="#000000" font-family="Lato" font-size="11.921px" stroke-width="1.4901"><text transform="matrix(.89479 0 0 .89479 41.437 285.07)" style="font-variant-caps:normal;font-variant-east-asian:normal;font-variant-ligatures:normal;font-variant-numeric:normal" xml:space="preserve">0.426</text><text transform="matrix(.89479 0 0 .89479 87.813 285.07)" style="font-variant-caps:normal;font-variant-east-asian:normal;font-variant-ligatures:normal;font-variant-numeric:normal" xml:space="preserve">0.428</text><text transform="matrix(.89479 0 0 .89479 137.32 285.07)" style="font-variant-caps:normal;font-variant-east-asian:normal;font-variant-ligatures:normal;font-variant-numeric:normal" xml:space="preserve">0.43</text><text transform="matrix(.89479 0 0 .89479 180.57 285.07)" style="font-variant-caps:normal;font-variant-east-asian:normal;font-variant-ligatures:normal;font-variant-numeric:normal" xml:space="preserve">0.432</text><text transform="matrix(.89479 0 0 .89479 226.94 285.07)" style="font-variant-caps:normal;font-variant-east-asian:normal;font-variant-ligatures:normal;font-variant-numeric:normal" xml:space="preserve">0.434</text><text transform="matrix(.89479 0 0 .89479 273.32 285.07)" style="font-variant-caps:normal;font-variant-east-asian:normal;font-variant-ligatures:normal;font-variant-numeric:normal" xml:space="preserve">0.436</text><text transform="matrix(.89479 0 0 .89479 319.7 285.07)" style="font-variant-caps:normal;font-variant-east-asian:normal;font-variant-ligatures:normal;font-variant-numeric:normal" xml:space="preserve">0.438</text><text transform="matrix(.89479 0 0 .89479 369.2 285.07)" style="font-variant-caps:normal;font-variant-east-asian:normal;font-variant-ligatures:normal;font-variant-numeric:normal" xml:space="preserve">0.44</text><text transform="matrix(.89479 0 0 .89479 28.465 272.55)" style="font-variant-caps:normal;font-variant-east-asian:normal;font-variant-ligatures:normal;font-variant-numeric:normal" xml:space="preserve">0.39</text><text transform="matrix(.89479 0 0 .89479 22.202 221.59)" style="font-variant-caps:normal;font-variant-east-asian:normal;font-variant-ligatures:normal;font-variant-numeric:normal" xml:space="preserve">0.395</text><text transform="matrix(.89479 0 0 .89479 34.729 170.62)" style="font-variant-caps:normal;font-variant-east-asian:normal;font-variant-ligatures:normal;font-variant-numeric:normal" xml:space="preserve">0.4</text><text transform="matrix(.89479 0 0 .89479 22.202 119.66)" style="font-variant-caps:normal;font-variant-east-asian:normal;font-variant-ligatures:normal;font-variant-numeric:normal" xml:space="preserve">0.405</text><text transform="matrix(.89479 0 0 .89479 28.465 68.693)" style="font-variant-caps:normal;font-variant-east-asian:normal;font-variant-ligatures:normal;font-variant-numeric:normal" xml:space="preserve">0.41</text><text transform="matrix(.89479 0 0 .89479 22.202 17.728)" style="font-variant-caps:normal;font-variant-east-asian:normal;font-variant-ligatures:normal;font-variant-numeric:normal" xml:space="preserve">0.415</text><text transform="matrix(.89479 0 0 .89479 203.83 299.39)" style="font-variant-caps:normal;font-variant-east-asian:normal;font-variant-ligatures:normal;font-variant-numeric:normal" xml:space="preserve">CIE-X</text><text transform="matrix(0 -.89479 .89479 0 17.728 157.3)" style="font-variant-caps:normal;font-variant-east-asian:normal;font-variant-ligatures:normal;font-variant-numeric:normal" xml:space="preserve">     <tspan x="0 9 13 21 25" y="0" fill="#000000" font-family="Lato" font-size="11.921px" stroke-width="2.1363" style="font-variant-caps:normal;font-variant-east-asian:normal;font-variant-ligatures:normal;font-variant-numeric:normal">CIE-Y</tspan>   </text></g><g fill="none" stroke="#858585" stroke-dasharray="10.7288, 0" stroke-width=".33528"><polyline transform="matrix(.89479 0 0 .89479 .85124 -10.196)" points="112.69 311 112.69 26.208"/><polyline transform="matrix(.89479 0 0 .89479 .85124 -10.196)" points="164.52 311 164.52 26.208"/><polyline transform="matrix(.89479 0 0 .89479 .85124 -10.196)" points="216.35 311 216.35 26.208"/><polyline transform="matrix(.89479 0 0 .89479 .85124 -10.196)" points="268.18 311 268.18 26.208"/></g><text transform="matrix(.89479 0 0 .89479 237.38 133.48)" fill="#000000" font-family="Lato" font-size="11.921px" stroke-width="1.4901" style="font-variant-caps:normal;font-variant-east-asian:normal;font-variant-ligatures:normal;font-variant-numeric:normal" xml:space="preserve">CCT=3045 K</text><g fill="none" stroke="#858585" stroke-dasharray="10.7288, 0" stroke-width=".33528"><g><polyline transform="matrix(.89479 0 0 .89479 .85124 -10.196)" points="320.01 311 320.01 26.208"/><polyline transform="matrix(.89479 0 0 .89479 .85124 -10.196)" points="371.84 311 371.84 26.208"/><polyline transform="matrix(.89479 0 0 .89479 .85124 -10.196)" points="423.67 311 423.67 26.208"/><polyline transform="matrix(.89479 0 0 .89479 .85124 -10.196)" points="60.858 254.04 423.67 254.04"/><polyline transform="matrix(.89479 0 0 .89479 .85124 -10.196)" points="60.858 197.08 423.67 197.08"/><polyline transform="matrix(.89479 0 0 .89479 .85124 -10.196)" points="60.858 140.12 423.67 140.12"/><polyline transform="matrix(.89479 0 0 .89479 .85124 -10.196)" points="60.858 83.166 423.67 83.166"/><polyline transform="matrix(.89479 0 0 .89479 .85124 -10.196)" points="60.858 26.208 423.67 26.208"/></g><polyline transform="matrix(.89479 0 0 .89479 .85124 -10.196)" points="60.858 311 423.67 311" stroke-linecap="square"/><polyline transform="matrix(.89479 0 0 .89479 .85124 -10.196)" points="60.858 311 60.858 26.208" stroke-linecap="square"/></g></svg>
