<svg width="1e3" height="400" version="1.1" viewBox="0 0 264.58 105.83" xml:space="preserve" xmlns="http://www.w3.org/2000/svg"><g fill="none" stroke-linejoin="round" stroke-miterlimit="2" stroke-width="2.4402"><path transform="matrix(.28913 0 0 -.28941 93.92 154.83)" d="m93.05 286.87v0.11605" stroke="#610061"/><path transform="matrix(.28913 0 0 -.28941 93.92 154.83)" d="m94.115 286.87v2.9423" stroke="#640065"/><path transform="matrix(.28913 0 0 -.28941 93.92 154.83)" d="m95.178 286.87v2.8752" stroke="#67006a"/><path transform="matrix(.28913 0 0 -.28941 93.92 154.83)" d="m96.243 286.87v3.4745" stroke="#6a006e"/><path transform="matrix(.28913 0 0 -.28941 93.92 154.83)" d="m97.307 286.87v2.4941" stroke="#6c0073"/><path transform="matrix(.28913 0 0 -.28941 93.92 154.83)" d="m98.372 286.87v2.211" stroke="#6f0077"/><path transform="matrix(.28913 0 0 -.28941 93.92 154.83)" d="m99.436 286.87v1.0635" stroke="#71007b"/><path transform="matrix(.28913 0 0 -.28941 93.92 154.83)" d="m100.5 286.87v1.2125" stroke="#73007f"/><path transform="matrix(.28913 0 0 -.28941 93.92 154.83)" d="m101.57 286.87v1.7117" stroke="#750084"/><path transform="matrix(.28913 0 0 -.28941 93.92 154.83)" d="m102.63 286.87v1.2796" stroke="#708"/><path transform="matrix(.28913 0 0 -.28941 93.92 154.83)" d="m103.69 286.87v0.39717" stroke="#79008c"/><path transform="matrix(.28913 0 0 -.28941 93.92 154.83)" d="m104.76 286.87v0.76433" stroke="#7b0090"/><path transform="matrix(.28913 0 0 -.28941 93.92 154.83)" d="m105.82 286.87v0.18208" stroke="#7c0094"/><path transform="matrix(.28913 0 0 -.28941 93.92 154.83)" d="m106.89 286.87v1.2465" stroke="#7d0098"/><path transform="matrix(.28913 0 0 -.28941 93.92 154.83)" d="m107.95 286.87v0.19909" stroke="#7e009c"/><path transform="matrix(.28913 0 0 -.28941 93.92 154.83)" d="m109.02 286.87v0.26512" stroke="#7f00a0"/><path transform="matrix(.28913 0 0 -.28941 93.92 154.83)" d="m110.08 286.87v0.99643" stroke="#8000a4"/><path transform="matrix(.28913 0 0 -.28941 93.92 154.83)" d="m111.14 286.87v0.84737" stroke="#8100a8"/><path transform="matrix(.28913 0 0 -.28941 93.92 154.83)" d="m112.21 286.87v0.64828" stroke="#8100ac"/><path transform="matrix(.28913 0 0 -.28941 93.92 154.83)" d="m113.27 286.87v0.16607" stroke="#8200b0"/><path transform="matrix(.28913 0 0 -.28941 93.92 154.83)" d="m114.34 286.87v0.39717" stroke="#8200b4"/><path transform="matrix(.28913 0 0 -.28941 93.92 154.83)" d="m115.4 286.87v0.53123" stroke="#8200b8"/><path transform="matrix(.28913 0 0 -.28941 93.92 154.83)" d="m116.47 286.87v0.53123" stroke="#8200bc"/><path transform="matrix(.28913 0 0 -.28941 93.92 154.83)" d="m117.53 286.87v0.34915" stroke="#8200c0"/><path transform="matrix(.28913 0 0 -.28941 93.92 154.83)" d="m118.59 286.87v0.74732" stroke="#8200c4"/><path transform="matrix(.28913 0 0 -.28941 93.92 154.83)" d="m119.66 286.87v0.24911" stroke="#8100c7"/><path transform="matrix(.28913 0 0 -.28941 93.92 154.83)" d="m120.72 286.87v0.58125" stroke="#8100cb"/><path transform="matrix(.28913 0 0 -.28941 93.92 154.83)" d="m121.79 286.87v0.098" stroke="#8000cf"/><path transform="matrix(.28913 0 0 -.28941 93.92 154.83)" d="m122.85 286.87v0.13206" stroke="#7f00d3"/><path transform="matrix(.28913 0 0 -.28941 93.92 154.83)" d="m123.92 286.87v0.54824" stroke="#7e00d6"/><path transform="matrix(.28913 0 0 -.28941 93.92 154.83)" d="m124.98 286.87v0.53123" stroke="#7d00da"/><path transform="matrix(.28913 0 0 -.28941 93.92 154.83)" d="m126.04 286.87v0.96342" stroke="#7c00de"/><path transform="matrix(.28913 0 0 -.28941 93.92 154.83)" d="m127.11 286.87v0.78134" stroke="#7a00e2"/><path transform="matrix(.28913 0 0 -.28941 93.92 154.83)" d="m128.17 286.87v0.68129" stroke="#7900e5"/><path transform="matrix(.28913 0 0 -.28941 93.92 154.83)" d="m129.24 286.87v0.098" stroke="#7700e9"/><path transform="matrix(.28913 0 0 -.28941 93.92 154.83)" d="m130.3 286.87v0.86437" stroke="#7500ec"/><path transform="matrix(.28913 0 0 -.28941 93.92 154.83)" d="m131.37 286.87v0.84737" stroke="#7300f0"/><path transform="matrix(.28913 0 0 -.28941 93.92 154.83)" d="m132.43 286.87v0.63127" stroke="#7100f4"/><path transform="matrix(.28913 0 0 -.28941 93.92 154.83)" d="m133.5 286.87v1.1135" stroke="#6f00f7"/><path transform="matrix(.28913 0 0 -.28941 93.92 154.83)" d="m134.56 286.87v1.6287" stroke="#6c00fb"/><path transform="matrix(.28913 0 0 -.28941 93.92 154.83)" d="m135.62 286.87v1.0134" stroke="#6900ff"/><path transform="matrix(.28913 0 0 -.28941 93.92 154.83)" d="m136.69 286.87v0.79734" stroke="#6500ff"/><path transform="matrix(.28913 0 0 -.28941 93.92 154.83)" d="m137.75 286.87v1.5787" stroke="#6100ff"/><path transform="matrix(.28913 0 0 -.28941 93.92 154.83)" d="m138.82 286.87v2.211" stroke="#5c00ff"/><path transform="matrix(.28913 0 0 -.28941 93.92 154.83)" d="m139.88 286.87v1.8778" stroke="#5800ff"/><path transform="matrix(.28913 0 0 -.28941 93.92 154.83)" d="m140.95 286.87v1.9778" stroke="#5400ff"/><path transform="matrix(.28913 0 0 -.28941 93.92 154.83)" d="m142.01 286.87v2.195" stroke="#4f00ff"/><path transform="matrix(.28913 0 0 -.28941 93.92 154.83)" d="m143.08 286.87v2.7432" stroke="#4b00ff"/><path transform="matrix(.28913 0 0 -.28941 93.92 154.83)" d="m144.14 286.87v3.1754" stroke="#4600ff"/><path transform="matrix(.28913 0 0 -.28941 93.92 154.83)" d="m145.2 286.87v3.8236" stroke="#4100ff"/><path transform="matrix(.28913 0 0 -.28941 93.92 154.83)" d="m146.27 286.87v4.621" stroke="#3c00ff"/><path transform="matrix(.28913 0 0 -.28941 93.92 154.83)" d="m147.33 286.87v5.2372" stroke="#3700ff"/><path transform="matrix(.28913 0 0 -.28941 93.92 154.83)" d="m148.4 286.87v5.7195" stroke="#3200ff"/><path transform="matrix(.28913 0 0 -.28941 93.92 154.83)" d="m149.46 286.87v6.849" stroke="#2d00ff"/><path transform="matrix(.28913 0 0 -.28941 93.92 154.83)" d="m150.53 286.87v8.1295" stroke="#2800ff"/><path transform="matrix(.28913 0 0 -.28941 93.92 154.83)" d="m151.59 286.87v9.244" stroke="#20f"/><path transform="matrix(.28913 0 0 -.28941 93.92 154.83)" d="m152.65 286.87v10.175" stroke="#1d00ff"/><path transform="matrix(.28913 0 0 -.28941 93.92 154.83)" d="m153.72 286.87v12.07" stroke="#1700ff"/><path transform="matrix(.28913 0 0 -.28941 93.92 154.83)" d="m154.78 286.87v13.932" stroke="#1000ff"/><path transform="matrix(.28913 0 0 -.28941 93.92 154.83)" d="m155.85 286.87v15.945" stroke="#0900ff"/><path transform="matrix(.28913 0 0 -.28941 93.92 154.83)" d="m156.91 286.87v17.658" stroke="#00f"/><path transform="matrix(.28913 0 0 -.28941 93.92 154.83)" d="m157.98 286.87v20.385" stroke="#000bff"/><path transform="matrix(.28913 0 0 -.28941 93.92 154.83)" d="m159.04 286.87v23.577" stroke="#0013ff"/><path transform="matrix(.28913 0 0 -.28941 93.92 154.83)" d="m160.1 286.87v27.301" stroke="#001aff"/><path transform="matrix(.28913 0 0 -.28941 93.92 154.83)" d="m161.17 286.87v32.123" stroke="#0021ff"/><path transform="matrix(.28913 0 0 -.28941 93.92 154.83)" d="m162.23 286.87v37.394" stroke="#0028ff"/><path transform="matrix(.28913 0 0 -.28941 93.92 154.83)" d="m163.3 286.87v43.963" stroke="#002eff"/><path transform="matrix(.28913 0 0 -.28941 93.92 154.83)" d="m164.36 286.87v50.929" stroke="#0034ff"/><path transform="matrix(.28913 0 0 -.28941 93.92 154.83)" d="m165.43 286.87v58.893" stroke="#003aff"/><path transform="matrix(.28913 0 0 -.28941 93.92 154.83)" d="m166.49 286.87v67.906" stroke="#0040ff"/><path transform="matrix(.28913 0 0 -.28941 93.92 154.83)" d="m167.55 286.87v76.817" stroke="#0046ff"/><path transform="matrix(.28913 0 0 -.28941 93.92 154.83)" d="m168.62 286.87v85.131" stroke="#004bff"/><path transform="matrix(.28913 0 0 -.28941 93.92 154.83)" d="m169.68 286.87v92.597" stroke="#0051ff"/><path transform="matrix(.28913 0 0 -.28941 93.92 154.83)" d="m170.75 286.87v98.782" stroke="#0056ff"/><path transform="matrix(.28913 0 0 -.28941 93.92 154.83)" d="m171.81 286.87v102.29" stroke="#005cff"/><path transform="matrix(.28913 0 0 -.28941 93.92 154.83)" d="m172.88 286.87v103.45" stroke="#0061ff"/><path transform="matrix(.28913 0 0 -.28941 93.92 154.83)" d="m173.94 286.87v102.36" stroke="#06f"/><path transform="matrix(.28913 0 0 -.28941 93.92 154.83)" d="m175.01 286.87v98.882" stroke="#006bff"/><path transform="matrix(.28913 0 0 -.28941 93.92 154.83)" d="m176.07 286.87v94.076" stroke="#0070ff"/><path transform="matrix(.28913 0 0 -.28941 93.92 154.83)" d="m177.14 286.87v88.357" stroke="#0075ff"/><path transform="matrix(.28913 0 0 -.28941 93.92 154.83)" d="m178.2 286.87v82.854" stroke="#007aff"/><path transform="matrix(.28913 0 0 -.28941 93.92 154.83)" d="m179.26 286.87v77.566" stroke="#007fff"/><path transform="matrix(.28913 0 0 -.28941 93.92 154.83)" d="m180.33 286.87v73.825" stroke="#0084ff"/><path transform="matrix(.28913 0 0 -.28941 93.92 154.83)" d="m181.39 286.87v70.466" stroke="#0089ff"/><path transform="matrix(.28913 0 0 -.28941 93.92 154.83)" d="m182.46 286.87v68.687" stroke="#008dff"/><path transform="matrix(.28913 0 0 -.28941 93.92 154.83)" d="m183.52 286.87v67.773" stroke="#0092ff"/><path transform="matrix(.28913 0 0 -.28941 93.92 154.83)" d="m184.59 286.87v67.223" stroke="#0097ff"/><path transform="matrix(.28913 0 0 -.28941 93.92 154.83)" d="m185.65 286.87v66.526" stroke="#009bff"/><path transform="matrix(.28913 0 0 -.28941 93.92 154.83)" d="m186.71 286.87v66.175" stroke="#00a0ff"/><path transform="matrix(.28913 0 0 -.28941 93.92 154.83)" d="m187.78 286.87v65.661" stroke="#00a4ff"/><path transform="matrix(.28913 0 0 -.28941 93.92 154.83)" d="m188.84 286.87v64.198" stroke="#00a9ff"/><path transform="matrix(.28913 0 0 -.28941 93.92 154.83)" d="m189.91 286.87v62.335" stroke="#00adff"/><path transform="matrix(.28913 0 0 -.28941 93.92 154.83)" d="m190.97 286.87v60.024" stroke="#00b2ff"/><path transform="matrix(.28913 0 0 -.28941 93.92 154.83)" d="m192.04 286.87v57.646" stroke="#00b6ff"/><path transform="matrix(.28913 0 0 -.28941 93.92 154.83)" d="m193.1 286.87v55.269" stroke="#0bf"/><path transform="matrix(.28913 0 0 -.28941 93.92 154.83)" d="m194.17 286.87v52.924" stroke="#00bfff"/><path transform="matrix(.28913 0 0 -.28941 93.92 154.83)" d="m195.23 286.87v50.746" stroke="#00c4ff"/><path transform="matrix(.28913 0 0 -.28941 93.92 154.83)" d="m196.29 286.87v49.133" stroke="#00c8ff"/><path transform="matrix(.28913 0 0 -.28941 93.92 154.83)" d="m197.36 286.87v47.57" stroke="#0cf"/><path transform="matrix(.28913 0 0 -.28941 93.92 154.83)" d="m198.42 286.87v46.804" stroke="#00d1ff"/><path transform="matrix(.28913 0 0 -.28941 93.92 154.83)" d="m199.49 286.87v46.439" stroke="#00d5ff"/><path transform="matrix(.28913 0 0 -.28941 93.92 154.83)" d="m200.55 286.87v46.623" stroke="#00d9ff"/><path transform="matrix(.28913 0 0 -.28941 93.92 154.83)" d="m201.62 286.87v47.271" stroke="#0df"/><path transform="matrix(.28913 0 0 -.28941 93.92 154.83)" d="m202.68 286.87v47.77" stroke="#00e2ff"/><path transform="matrix(.28913 0 0 -.28941 93.92 154.83)" d="m203.74 286.87v48.668" stroke="#00e6ff"/><path transform="matrix(.28913 0 0 -.28941 93.92 154.83)" d="m204.81 286.87v49.349" stroke="#00eaff"/><path transform="matrix(.28913 0 0 -.28941 93.92 154.83)" d="m205.87 286.87v50.496" stroke="#0ef"/><path transform="matrix(.28913 0 0 -.28941 93.92 154.83)" d="m206.94 286.87v51.344" stroke="#00f2ff"/><path transform="matrix(.28913 0 0 -.28941 93.92 154.83)" d="m208 286.87v52.774" stroke="#00f6ff"/><path transform="matrix(.28913 0 0 -.28941 93.92 154.83)" d="m209.06 286.87v53.407" stroke="#00faff"/><path transform="matrix(.28913 0 0 -.28941 93.92 154.83)" d="m210.13 286.87v54.787" stroke="#0ff"/><path transform="matrix(.28913 0 0 -.28941 93.92 154.83)" d="m211.19 286.87v55.567" stroke="#00fff4"/><path transform="matrix(.28913 0 0 -.28941 93.92 154.83)" d="m212.26 286.87v56.35" stroke="#00ffea"/><path transform="matrix(.28913 0 0 -.28941 93.92 154.83)" d="m213.32 286.87v57.762" stroke="#00ffdf"/><path transform="matrix(.28913 0 0 -.28941 93.92 154.83)" d="m214.39 286.87v59.309" stroke="#00ffd5"/><path transform="matrix(.28913 0 0 -.28941 93.92 154.83)" d="m215.45 286.87v60.473" stroke="#00ffca"/><path transform="matrix(.28913 0 0 -.28941 93.92 154.83)" d="m216.52 286.87v62.252" stroke="#00ffbf"/><path transform="matrix(.28913 0 0 -.28941 93.92 154.83)" d="m217.58 286.87v63.765" stroke="#00ffb4"/><path transform="matrix(.28913 0 0 -.28941 93.92 154.83)" d="m218.64 286.87v65.528" stroke="#00ffa9"/><path transform="matrix(.28913 0 0 -.28941 93.92 154.83)" d="m219.71 286.87v67.257" stroke="#00ff9e"/><path transform="matrix(.28913 0 0 -.28941 93.92 154.83)" d="m220.77 286.87v69.418" stroke="#00ff92"/><path transform="matrix(.28913 0 0 -.28941 93.92 154.83)" d="m221.84 286.87v71.181" stroke="#00ff86"/><path transform="matrix(.28913 0 0 -.28941 93.92 154.83)" d="m222.9 286.87v72.611" stroke="#00ff7a"/><path transform="matrix(.28913 0 0 -.28941 93.92 154.83)" d="m223.97 286.87v74.074" stroke="#00ff6e"/><path transform="matrix(.28913 0 0 -.28941 93.92 154.83)" d="m225.03 286.87v76.602" stroke="#00ff61"/><path transform="matrix(.28913 0 0 -.28941 93.92 154.83)" d="m226.09 286.87v78.098" stroke="#00ff54"/><path transform="matrix(.28913 0 0 -.28941 93.92 154.83)" d="m227.16 286.87v79.794" stroke="#00ff46"/><path transform="matrix(.28913 0 0 -.28941 93.92 154.83)" d="m228.22 286.87v81.506" stroke="#00ff37"/><path transform="matrix(.28913 0 0 -.28941 93.92 154.83)" d="m229.29 286.87v82.97" stroke="#00ff28"/><path transform="matrix(.28913 0 0 -.28941 93.92 154.83)" d="m230.35 286.87v84.616" stroke="#00ff17"/><path transform="matrix(.28913 0 0 -.28941 93.92 154.83)" d="m231.42 286.87v85.713" stroke="#0f0"/><path transform="matrix(.28913 0 0 -.28941 93.92 154.83)" d="m232.48 286.87v87.26" stroke="#08ff00"/><path transform="matrix(.28913 0 0 -.28941 93.92 154.83)" d="m233.55 286.87v88.54" stroke="#0eff00"/><path transform="matrix(.28913 0 0 -.28941 93.92 154.83)" d="m234.61 286.87v89.821" stroke="#14ff00"/><path transform="matrix(.28913 0 0 -.28941 93.92 154.83)" d="m235.67 286.87v90.951" stroke="#19ff00"/><path transform="matrix(.28913 0 0 -.28941 93.92 154.83)" d="m236.74 286.87v92.597" stroke="#1eff00"/><path transform="matrix(.28913 0 0 -.28941 93.92 154.83)" d="m237.8 286.87v93.827" stroke="#23ff00"/><path transform="matrix(.28913 0 0 -.28941 93.92 154.83)" d="m238.87 286.87v95.456" stroke="#28ff00"/><path transform="matrix(.28913 0 0 -.28941 93.92 154.83)" d="m239.93 286.87v96.504" stroke="#2cff00"/><path transform="matrix(.28913 0 0 -.28941 93.92 154.83)" d="m241 286.87v97.336" stroke="#31ff00"/><path transform="matrix(.28913 0 0 -.28941 93.92 154.83)" d="m242.06 286.87v98.665" stroke="#35ff00"/><path transform="matrix(.28913 0 0 -.28941 93.92 154.83)" d="m243.13 286.87v99.497" stroke="#3aff00"/><path transform="matrix(.28913 0 0 -.28941 93.92 154.83)" d="m244.19 286.87v100.91" stroke="#3eff00"/><path transform="matrix(.28913 0 0 -.28941 93.92 154.83)" d="m245.25 286.87v101.92" stroke="#42ff00"/><path transform="matrix(.28913 0 0 -.28941 93.92 154.83)" d="m246.32 286.87v102.76" stroke="#46ff00"/><path transform="matrix(.28913 0 0 -.28941 93.92 154.83)" d="m247.38 286.87v103.92" stroke="#4aff00"/><path transform="matrix(.28913 0 0 -.28941 93.92 154.83)" d="m248.45 286.87v104.67" stroke="#4eff00"/><path transform="matrix(.28913 0 0 -.28941 93.92 154.83)" d="m249.51 286.87v105.77" stroke="#52ff00"/><path transform="matrix(.28913 0 0 -.28941 93.92 154.83)" d="m250.57 286.87v106.83" stroke="#56ff00"/><path transform="matrix(.28913 0 0 -.28941 93.92 154.83)" d="m251.64 286.87v107.74" stroke="#59ff00"/><path transform="matrix(.28913 0 0 -.28941 93.92 154.83)" d="m252.7 286.87v108.69" stroke="#5dff00"/><path transform="matrix(.28913 0 0 -.28941 93.92 154.83)" d="m253.77 286.87v109.94" stroke="#61ff00"/><path transform="matrix(.28913 0 0 -.28941 93.92 154.83)" d="m254.83 286.87v110.89" stroke="#65ff00"/><path transform="matrix(.28913 0 0 -.28941 93.92 154.83)" d="m255.9 286.87v111.9" stroke="#68ff00"/><path transform="matrix(.28913 0 0 -.28941 93.92 154.83)" d="m256.96 286.87v112.87" stroke="#6cff00"/><path transform="matrix(.28913 0 0 -.28941 93.92 154.83)" d="m258.03 286.87v113.83" stroke="#6fff00"/><path transform="matrix(.28913 0 0 -.28941 93.92 154.83)" d="m259.09 286.87v114.68" stroke="#73ff00"/><path transform="matrix(.28913 0 0 -.28941 93.92 154.83)" d="m260.15 286.87v115.71" stroke="#7f0"/><path transform="matrix(.28913 0 0 -.28941 93.92 154.83)" d="m261.22 286.87v117.24" stroke="#7aff00"/><path transform="matrix(.28913 0 0 -.28941 93.92 154.83)" d="m262.28 286.87v118.17" stroke="#7eff00"/><path transform="matrix(.28913 0 0 -.28941 93.92 154.83)" d="m263.35 286.87v119.08" stroke="#81ff00"/><path transform="matrix(.28913 0 0 -.28941 93.92 154.83)" d="m264.41 286.87v120.12" stroke="#84ff00"/><path transform="matrix(.28913 0 0 -.28941 93.92 154.83)" d="m265.48 286.87v121.06" stroke="#8f0"/><path transform="matrix(.28913 0 0 -.28941 93.92 154.83)" d="m266.54 286.87v122.48" stroke="#8bff00"/><path transform="matrix(.28913 0 0 -.28941 93.92 154.83)" d="m267.6 286.87v123.66" stroke="#8fff00"/><path transform="matrix(.28913 0 0 -.28941 93.92 154.83)" d="m268.67 286.87v124.75" stroke="#92ff00"/><path transform="matrix(.28913 0 0 -.28941 93.92 154.83)" d="m269.73 286.87v125.97" stroke="#95ff00"/><path transform="matrix(.28913 0 0 -.28941 93.92 154.83)" d="m270.8 286.87v126.5" stroke="#9f0"/><path transform="matrix(.28913 0 0 -.28941 93.92 154.83)" d="m271.86 286.87v127.75" stroke="#9cff00"/><path transform="matrix(.28913 0 0 -.28941 93.92 154.83)" d="m272.93 286.87v128.94" stroke="#9fff00"/><path transform="matrix(.28913 0 0 -.28941 93.92 154.83)" d="m273.99 286.87v130.09" stroke="#a2ff00"/><path transform="matrix(.28913 0 0 -.28941 93.92 154.83)" d="m275.06 286.87v131.74" stroke="#a6ff00"/><path transform="matrix(.28913 0 0 -.28941 93.92 154.83)" d="m276.12 286.87v132.45" stroke="#a9ff00"/><path transform="matrix(.28913 0 0 -.28941 93.92 154.83)" d="m277.19 286.87v132.97" stroke="#acff00"/><path transform="matrix(.28913 0 0 -.28941 93.92 154.83)" d="m278.25 286.87v134.65" stroke="#afff00"/><path transform="matrix(.28913 0 0 -.28941 93.92 154.83)" d="m279.31 286.87v135.71" stroke="#b3ff00"/><path transform="matrix(.28913 0 0 -.28941 93.92 154.83)" d="m280.38 286.87v137.21" stroke="#b6ff00"/><path transform="matrix(.28913 0 0 -.28941 93.92 154.83)" d="m281.44 286.87v138.21" stroke="#b9ff00"/><path transform="matrix(.28913 0 0 -.28941 93.92 154.83)" d="m282.51 286.87v138.97" stroke="#bcff00"/><path transform="matrix(.28913 0 0 -.28941 93.92 154.83)" d="m283.57 286.87v140.23" stroke="#bfff00"/><path transform="matrix(.28913 0 0 -.28941 93.92 154.83)" d="m284.64 286.87v141.66" stroke="#c2ff00"/><path transform="matrix(.28913 0 0 -.28941 93.92 154.83)" d="m285.7 286.87v142.68" stroke="#c5ff00"/><path transform="matrix(.28913 0 0 -.28941 93.92 154.83)" d="m286.76 286.87v144.57" stroke="#c9ff00"/><path transform="matrix(.28913 0 0 -.28941 93.92 154.83)" d="m287.83 286.87v145.49" stroke="#cf0"/><path transform="matrix(.28913 0 0 -.28941 93.92 154.83)" d="m288.89 286.87v146.72" stroke="#cfff00"/><path transform="matrix(.28913 0 0 -.28941 93.92 154.83)" d="m289.96 286.87v148.23" stroke="#d2ff00"/><path transform="matrix(.28913 0 0 -.28941 93.92 154.83)" d="m291.02 286.87v149.3" stroke="#d5ff00"/><path transform="matrix(.28913 0 0 -.28941 93.92 154.83)" d="m292.09 286.87v150.29" stroke="#d8ff00"/><path transform="matrix(.28913 0 0 -.28941 93.92 154.83)" d="m293.15 286.87v151.77" stroke="#dbff00"/><path transform="matrix(.28913 0 0 -.28941 93.92 154.83)" d="m294.21 286.87v153.15" stroke="#deff00"/><path transform="matrix(.28913 0 0 -.28941 93.92 154.83)" d="m295.28 286.87v154.67" stroke="#e1ff00"/><path transform="matrix(.28913 0 0 -.28941 93.92 154.83)" d="m296.34 286.87v155.83" stroke="#e4ff00"/><path transform="matrix(.28913 0 0 -.28941 93.92 154.83)" d="m297.41 286.87v157.53" stroke="#e7ff00"/><path transform="matrix(.28913 0 0 -.28941 93.92 154.83)" d="m298.47 286.87v158.81" stroke="#eaff00"/><path transform="matrix(.28913 0 0 -.28941 93.92 154.83)" d="m299.54 286.87v160.47" stroke="#edff00"/><path transform="matrix(.28913 0 0 -.28941 93.92 154.83)" d="m300.6 286.87v161.65" stroke="#f0ff00"/><path transform="matrix(.28913 0 0 -.28941 93.92 154.83)" d="m301.66 286.87v163.11" stroke="#f3ff00"/><path transform="matrix(.28913 0 0 -.28941 93.92 154.83)" d="m302.73 286.87v165.29" stroke="#f6ff00"/><path transform="matrix(.28913 0 0 -.28941 93.92 154.83)" d="m303.79 286.87v166.62" stroke="#f9ff00"/><path transform="matrix(.28913 0 0 -.28941 93.92 154.83)" d="m304.86 286.87v168.27" stroke="#fcff00"/><path transform="matrix(.28913 0 0 -.28941 93.92 154.83)" d="m305.92 286.87v169.9" stroke="#ff0"/><path transform="matrix(.28913 0 0 -.28941 93.92 154.83)" d="m306.99 286.87v171.81" stroke="#fffb00"/><path transform="matrix(.28913 0 0 -.28941 93.92 154.83)" d="m308.05 286.87v173.44" stroke="#fff800"/><path transform="matrix(.28913 0 0 -.28941 93.92 154.83)" d="m309.11 286.87v175.12" stroke="#fff500"/><path transform="matrix(.28913 0 0 -.28941 93.92 154.83)" d="m310.18 286.87v176.85" stroke="#fff200"/><path transform="matrix(.28913 0 0 -.28941 93.92 154.83)" d="m311.24 286.87v178.09" stroke="#ffef00"/><path transform="matrix(.28913 0 0 -.28941 93.92 154.83)" d="m312.31 286.87v180.67" stroke="#ffeb00"/><path transform="matrix(.28913 0 0 -.28941 93.92 154.83)" d="m313.37 286.87v181.94" stroke="#ffe800"/><path transform="matrix(.28913 0 0 -.28941 93.92 154.83)" d="m314.44 286.87v183.96" stroke="#ffe500"/><path transform="matrix(.28913 0 0 -.28941 93.92 154.83)" d="m315.5 286.87v185.78" stroke="#ffe200"/><path transform="matrix(.28913 0 0 -.28941 93.92 154.83)" d="m316.56 286.87v187.57" stroke="#ffdf00"/><path transform="matrix(.28913 0 0 -.28941 93.92 154.83)" d="m317.63 286.87v189.12" stroke="#ffdb00"/><path transform="matrix(.28913 0 0 -.28941 93.92 154.83)" d="m318.69 286.87v191.08" stroke="#ffd800"/><path transform="matrix(.28913 0 0 -.28941 93.92 154.83)" d="m319.76 286.87v192.94" stroke="#ffd500"/><path transform="matrix(.28913 0 0 -.28941 93.92 154.83)" d="m320.82 286.87v194.76" stroke="#ffd200"/><path transform="matrix(.28913 0 0 -.28941 93.92 154.83)" d="m321.89 286.87v196.73" stroke="#ffce00"/><path transform="matrix(.28913 0 0 -.28941 93.92 154.83)" d="m322.95 286.87v198.68" stroke="#ffcb00"/><path transform="matrix(.28913 0 0 -.28941 93.92 154.83)" d="m324.02 286.87v200.16" stroke="#ffc800"/><path transform="matrix(.28913 0 0 -.28941 93.92 154.83)" d="m325.08 286.87v202.05" stroke="#ffc400"/><path transform="matrix(.28913 0 0 -.28941 93.92 154.83)" d="m326.15 286.87v204.05" stroke="#ffc100"/><path transform="matrix(.28913 0 0 -.28941 93.92 154.83)" d="m327.21 286.87v205.4" stroke="#ffbe00"/><path transform="matrix(.28913 0 0 -.28941 93.92 154.83)" d="m328.27 286.87v207.03" stroke="#ffba00"/><path transform="matrix(.28913 0 0 -.28941 93.92 154.83)" d="m329.34 286.87v209.09" stroke="#ffb700"/><path transform="matrix(.28913 0 0 -.28941 93.92 154.83)" d="m330.4 286.87v211.03" stroke="#ffb300"/><path transform="matrix(.28913 0 0 -.28941 93.92 154.83)" d="m331.47 286.87v211.72" stroke="#ffb000"/><path transform="matrix(.28913 0 0 -.28941 93.92 154.83)" d="m332.53 286.87v213.48" stroke="#ffac00"/><path transform="matrix(.28913 0 0 -.28941 93.92 154.83)" d="m333.6 286.87v214.71" stroke="#ffa900"/><path transform="matrix(.28913 0 0 -.28941 93.92 154.83)" d="m334.66 286.87v216.17" stroke="#ffa500"/><path transform="matrix(.28913 0 0 -.28941 93.92 154.83)" d="m335.72 286.87v218.03" stroke="#ffa200"/><path transform="matrix(.28913 0 0 -.28941 93.92 154.83)" d="m336.79 286.87v218.52" stroke="#ff9e00"/><path transform="matrix(.28913 0 0 -.28941 93.92 154.83)" d="m337.85 286.87v220.05" stroke="#ff9b00"/><path transform="matrix(.28913 0 0 -.28941 93.92 154.83)" d="m338.92 286.87v221.76" stroke="#ff9700"/><path transform="matrix(.28913 0 0 -.28941 93.92 154.83)" d="m339.98 286.87v222.54" stroke="#ff9400"/><path transform="matrix(.28913 0 0 -.28941 93.92 154.83)" d="m341.05 286.87v223.69" stroke="#ff9000"/><path transform="matrix(.28913 0 0 -.28941 93.92 154.83)" d="m342.11 286.87v224.75" stroke="#ff8d00"/><path transform="matrix(.28913 0 0 -.28941 93.92 154.83)" d="m343.18 286.87v225.47" stroke="#ff8900"/><path transform="matrix(.28913 0 0 -.28941 93.92 154.83)" d="m344.24 286.87v225.37" stroke="#ff8500"/><path transform="matrix(.28913 0 0 -.28941 93.92 154.83)" d="m345.3 286.87v226.45" stroke="#ff8100"/><path transform="matrix(.28913 0 0 -.28941 93.92 154.83)" d="m346.37 286.87v226.81" stroke="#ff7e00"/><path transform="matrix(.28913 0 0 -.28941 93.92 154.83)" d="m347.43 286.87v227.94" stroke="#ff7a00"/><path transform="matrix(.28913 0 0 -.28941 93.92 154.83)" d="m348.5 286.87v227.88" stroke="#ff7600"/><path transform="matrix(.28913 0 0 -.28941 93.92 154.83)" d="m349.56 286.87v228.06" stroke="#ff7200"/><path transform="matrix(.28913 0 0 -.28941 93.92 154.83)" d="m350.62 286.87v228.58" stroke="#ff6f00"/><path transform="matrix(.28913 0 0 -.28941 93.92 154.83)" d="m351.69 286.87v228.51" stroke="#ff6b00"/><path transform="matrix(.28913 0 0 -.28941 93.92 154.83)" d="m352.75 286.87v229.11" stroke="#ff6700"/><path transform="matrix(.28913 0 0 -.28941 93.92 154.83)" d="m353.82 286.87v228.56" stroke="#ff6300"/><path transform="matrix(.28913 0 0 -.28941 93.92 154.83)" d="m354.88 286.87v228.26" stroke="#ff5f00"/><path transform="matrix(.28913 0 0 -.28941 93.92 154.83)" d="m355.95 286.87v228.51" stroke="#ff5b00"/><path transform="matrix(.28913 0 0 -.28941 93.92 154.83)" d="m357.01 286.87v228.18" stroke="#ff5700"/><path transform="matrix(.28913 0 0 -.28941 93.92 154.83)" d="m358.08 286.87v227.98" stroke="#ff5300"/><path transform="matrix(.28913 0 0 -.28941 93.92 154.83)" d="m359.14 286.87v227.05" stroke="#ff4e00"/><path transform="matrix(.28913 0 0 -.28941 93.92 154.83)" d="m360.2 286.87v226.66" stroke="#ff4a00"/><path transform="matrix(.28913 0 0 -.28941 93.92 154.83)" d="m361.27 286.87v225.98" stroke="#ff4600"/><path transform="matrix(.28913 0 0 -.28941 93.92 154.83)" d="m362.33 286.87v224.98" stroke="#ff4200"/><path transform="matrix(.28913 0 0 -.28941 93.92 154.83)" d="m363.4 286.87v224.47" stroke="#ff3d00"/><path transform="matrix(.28913 0 0 -.28941 93.92 154.83)" d="m364.46 286.87v223.87" stroke="#ff3900"/><path transform="matrix(.28913 0 0 -.28941 93.92 154.83)" d="m365.53 286.87v221.74" stroke="#ff3400"/><path transform="matrix(.28913 0 0 -.28941 93.92 154.83)" d="m366.59 286.87v221.61" stroke="#ff2f00"/><path transform="matrix(.28913 0 0 -.28941 93.92 154.83)" d="m367.66 286.87v219.88" stroke="#ff2a00"/><path transform="matrix(.28913 0 0 -.28941 93.92 154.83)" d="m368.72 286.87v219.28" stroke="#ff2500"/><path transform="matrix(.28913 0 0 -.28941 93.92 154.83)" d="m369.78 286.87v217.17" stroke="#ff2000"/><path transform="matrix(.28913 0 0 -.28941 93.92 154.83)" d="m370.85 286.87v215.86" stroke="#ff1b00"/><path transform="matrix(.28913 0 0 -.28941 93.92 154.83)" d="m371.91 286.87v214.38" stroke="#ff1500"/><path transform="matrix(.28913 0 0 -.28941 93.92 154.83)" d="m372.98 286.87v212.7" stroke="#ff0f00"/><path transform="matrix(.28913 0 0 -.28941 93.92 154.83)" d="m374.04 286.87v211.05" stroke="#ff0900"/><g stroke="#f00"><path transform="matrix(.28913 0 0 -.28941 93.92 154.83)" d="m375.11 286.87v209.25"/><path transform="matrix(.28913 0 0 -.28941 93.92 154.83)" d="m376.17 286.87v206.96"/><path transform="matrix(.28913 0 0 -.28941 93.92 154.83)" d="m377.23 286.87v205.45"/><path transform="matrix(.28913 0 0 -.28941 93.92 154.83)" d="m378.3 286.87v203.57"/><path transform="matrix(.28913 0 0 -.28941 93.92 154.83)" d="m379.36 286.87v201.29"/><path transform="matrix(.28913 0 0 -.28941 93.92 154.83)" d="m380.43 286.87v198.81"/><path transform="matrix(.28913 0 0 -.28941 93.92 154.83)" d="m381.49 286.87v196.5"/><path transform="matrix(.28913 0 0 -.28941 93.92 154.83)" d="m382.56 286.87v194.27"/><path transform="matrix(.28913 0 0 -.28941 93.92 154.83)" d="m383.62 286.87v192.06"/><path transform="matrix(.28913 0 0 -.28941 93.92 154.83)" d="m384.69 286.87v189.39"/><path transform="matrix(.28913 0 0 -.28941 93.92 154.83)" d="m385.75 286.87v187.36"/><path transform="matrix(.28913 0 0 -.28941 93.92 154.83)" d="m386.81 286.87v184.91"/><path transform="matrix(.28913 0 0 -.28941 93.92 154.83)" d="m387.88 286.87v182.5"/><path transform="matrix(.28913 0 0 -.28941 93.92 154.83)" d="m388.94 286.87v179.69"/><path transform="matrix(.28913 0 0 -.28941 93.92 154.83)" d="m390.01 286.87v177.73"/><path transform="matrix(.28913 0 0 -.28941 93.92 154.83)" d="m391.07 286.87v174.14"/><path transform="matrix(.28913 0 0 -.28941 93.92 154.83)" d="m392.13 286.87v171.89"/><path transform="matrix(.28913 0 0 -.28941 93.92 154.83)" d="m393.2 286.87v169.61"/><path transform="matrix(.28913 0 0 -.28941 93.92 154.83)" d="m394.26 286.87v166.51"/><path transform="matrix(.28913 0 0 -.28941 93.92 154.83)" d="m395.33 286.87v163.83"/><path transform="matrix(.28913 0 0 -.28941 93.92 154.83)" d="m396.39 286.87v160.99"/><path transform="matrix(.28913 0 0 -.28941 93.92 154.83)" d="m397.46 286.87v158.67"/><path transform="matrix(.28913 0 0 -.28941 93.92 154.83)" d="m398.52 286.87v155.83"/><path transform="matrix(.28913 0 0 -.28941 93.92 154.83)" d="m399.59 286.87v152.36"/><path transform="matrix(.28913 0 0 -.28941 93.92 154.83)" d="m400.65 286.87v150.43"/><path transform="matrix(.28913 0 0 -.28941 93.92 154.83)" d="m401.71 286.87v147.9"/><path transform="matrix(.28913 0 0 -.28941 93.92 154.83)" d="m402.78 286.87v145.34"/><path transform="matrix(.28913 0 0 -.28941 93.92 154.83)" d="m403.84 286.87v141.93"/><path transform="matrix(.28913 0 0 -.28941 93.92 154.83)" d="m404.91 286.87v139.79"/><path transform="matrix(.28913 0 0 -.28941 93.92 154.83)" d="m405.97 286.87v136.97"/><path transform="matrix(.28913 0 0 -.28941 93.92 154.83)" d="m407.04 286.87v134.51"/><path transform="matrix(.28913 0 0 -.28941 93.92 154.83)" d="m408.1 286.87v131.46"/><path transform="matrix(.28913 0 0 -.28941 93.92 154.83)" d="m409.16 286.87v128.88"/><path transform="matrix(.28913 0 0 -.28941 93.92 154.83)" d="m410.23 286.87v126.33"/><path transform="matrix(.28913 0 0 -.28941 93.92 154.83)" d="m411.29 286.87v123.19"/><path transform="matrix(.28913 0 0 -.28941 93.92 154.83)" d="m412.36 286.87v120.9"/><path transform="matrix(.28913 0 0 -.28941 93.92 154.83)" d="m413.42 286.87v118.82"/><path transform="matrix(.28913 0 0 -.28941 93.92 154.83)" d="m414.49 286.87v115.97"/><path transform="matrix(.28913 0 0 -.28941 93.92 154.83)" d="m415.55 286.87v112.93"/><path transform="matrix(.28913 0 0 -.28941 93.92 154.83)" d="m416.61 286.87v111.04"/><path transform="matrix(.28913 0 0 -.28941 93.92 154.83)" d="m417.68 286.87v108.73"/><path transform="matrix(.28913 0 0 -.28941 93.92 154.83)" d="m418.74 286.87v106.03"/><path transform="matrix(.28913 0 0 -.28941 93.92 154.83)" d="m419.81 286.87v103.7"/><path transform="matrix(.28913 0 0 -.28941 93.92 154.83)" d="m420.87 286.87v101.06"/><path transform="matrix(.28913 0 0 -.28941 93.92 154.83)" d="m421.94 286.87v99.049"/><path transform="matrix(.28913 0 0 -.28941 93.92 154.83)" d="m423 286.87v96.437"/><path transform="matrix(.28913 0 0 -.28941 93.92 154.83)" d="m424.07 286.87v94.277"/><path transform="matrix(.28913 0 0 -.28941 93.92 154.83)" d="m425.13 286.87v91.716"/><path transform="matrix(.28913 0 0 -.28941 93.92 154.83)" d="m426.2 286.87v89.621"/><path transform="matrix(.28913 0 0 -.28941 93.92 154.83)" d="m427.26 286.87v87.742"/><path transform="matrix(.28913 0 0 -.28941 93.92 154.83)" d="m428.32 286.87v85.414"/><path transform="matrix(.28913 0 0 -.28941 93.92 154.83)" d="m429.39 286.87v83.036"/><path transform="matrix(.28913 0 0 -.28941 93.92 154.83)" d="m430.45 286.87v81.889"/><path transform="matrix(.28913 0 0 -.28941 93.92 154.83)" d="m431.52 286.87v79.279"/><path transform="matrix(.28913 0 0 -.28941 93.92 154.83)" d="m432.58 286.87v77.217"/><path transform="matrix(.28913 0 0 -.28941 93.92 154.83)" d="m433.65 286.87v75.188"/></g><path transform="matrix(.28913 0 0 -.28941 93.92 154.83)" d="m434.71 286.87v73.509" stroke="#fd0000"/><path transform="matrix(.28913 0 0 -.28941 93.92 154.83)" d="m435.77 286.87v71.081" stroke="#fc0000"/><path transform="matrix(.28913 0 0 -.28941 93.92 154.83)" d="m436.84 286.87v69.236" stroke="#fa0000"/><path transform="matrix(.28913 0 0 -.28941 93.92 154.83)" d="m437.9 286.87v67.606" stroke="#f90000"/><path transform="matrix(.28913 0 0 -.28941 93.92 154.83)" d="m438.97 286.87v65.81" stroke="#f70000"/><path transform="matrix(.28913 0 0 -.28941 93.92 154.83)" d="m440.03 286.87v63.898" stroke="#f60000"/><path transform="matrix(.28913 0 0 -.28941 93.92 154.83)" d="m441.1 286.87v61.986" stroke="#f40000"/><path transform="matrix(.28913 0 0 -.28941 93.92 154.83)" d="m442.16 286.87v60.407" stroke="#f30000"/><path transform="matrix(.28913 0 0 -.28941 93.92 154.83)" d="m443.22 286.87v58.194" stroke="#f20000"/><path transform="matrix(.28913 0 0 -.28941 93.92 154.83)" d="m444.29 286.87v56.682" stroke="#f00000"/><path transform="matrix(.28913 0 0 -.28941 93.92 154.83)" d="m445.35 286.87v55.451" stroke="#ef0000"/><path transform="matrix(.28913 0 0 -.28941 93.92 154.83)" d="m446.42 286.87v53.623" stroke="#ed0000"/><path transform="matrix(.28913 0 0 -.28941 93.92 154.83)" d="m447.48 286.87v52.974" stroke="#ec0000"/><path transform="matrix(.28913 0 0 -.28941 93.92 154.83)" d="m448.55 286.87v50.48" stroke="#ea0000"/><path transform="matrix(.28913 0 0 -.28941 93.92 154.83)" d="m449.61 286.87v49.399" stroke="#e90000"/><path transform="matrix(.28913 0 0 -.28941 93.92 154.83)" d="m450.67 286.87v47.72" stroke="#e70000"/><path transform="matrix(.28913 0 0 -.28941 93.92 154.83)" d="m451.74 286.87v46.539" stroke="#e60000"/><path transform="matrix(.28913 0 0 -.28941 93.92 154.83)" d="m452.8 286.87v45.009" stroke="#e40000"/><path transform="matrix(.28913 0 0 -.28941 93.92 154.83)" d="m453.87 286.87v43.596" stroke="#e30000"/><path transform="matrix(.28913 0 0 -.28941 93.92 154.83)" d="m454.93 286.87v42.399" stroke="#e20000"/><path transform="matrix(.28913 0 0 -.28941 93.92 154.83)" d="m456 286.87v42.033" stroke="#e00000"/><path transform="matrix(.28913 0 0 -.28941 93.92 154.83)" d="m457.06 286.87v40.92" stroke="#df0000"/><path transform="matrix(.28913 0 0 -.28941 93.92 154.83)" d="m458.12 286.87v38.591" stroke="#d00"/><path transform="matrix(.28913 0 0 -.28941 93.92 154.83)" d="m459.19 286.87v37.943" stroke="#dc0000"/><path transform="matrix(.28913 0 0 -.28941 93.92 154.83)" d="m460.25 286.87v36.796" stroke="#da0000"/><path transform="matrix(.28913 0 0 -.28941 93.92 154.83)" d="m461.32 286.87v36.247" stroke="#d90000"/><path transform="matrix(.28913 0 0 -.28941 93.92 154.83)" d="m462.38 286.87v34.617" stroke="#d70000"/><path transform="matrix(.28913 0 0 -.28941 93.92 154.83)" d="m463.45 286.87v33.387" stroke="#d60000"/><path transform="matrix(.28913 0 0 -.28941 93.92 154.83)" d="m464.51 286.87v32.954" stroke="#d40000"/><path transform="matrix(.28913 0 0 -.28941 93.92 154.83)" d="m465.58 286.87v30.893" stroke="#d30000"/><path transform="matrix(.28913 0 0 -.28941 93.92 154.83)" d="m466.64 286.87v31.076" stroke="#d10000"/><path transform="matrix(.28913 0 0 -.28941 93.92 154.83)" d="m467.71 286.87v29.297" stroke="#d00000"/><path transform="matrix(.28913 0 0 -.28941 93.92 154.83)" d="m468.77 286.87v28.498" stroke="#ce0000"/><path transform="matrix(.28913 0 0 -.28941 93.92 154.83)" d="m469.83 286.87v29.247" stroke="#cd0000"/><path transform="matrix(.28913 0 0 -.28941 93.92 154.83)" d="m470.9 286.87v27.119" stroke="#cb0000"/><path transform="matrix(.28913 0 0 -.28941 93.92 154.83)" d="m471.96 286.87v25.954" stroke="#ca0000"/><path transform="matrix(.28913 0 0 -.28941 93.92 154.83)" d="m473.03 286.87v25.256" stroke="#c80000"/><path transform="matrix(.28913 0 0 -.28941 93.92 154.83)" d="m474.09 286.87v24.625" stroke="#c70000"/><path transform="matrix(.28913 0 0 -.28941 93.92 154.83)" d="m475.16 286.87v23.31" stroke="#c50000"/><path transform="matrix(.28913 0 0 -.28941 93.92 154.83)" d="m476.22 286.87v22.53" stroke="#c40000"/><path transform="matrix(.28913 0 0 -.28941 93.92 154.83)" d="m477.28 286.87v21.98" stroke="#c20000"/><path transform="matrix(.28913 0 0 -.28941 93.92 154.83)" d="m478.35 286.87v21.432" stroke="#c10000"/><path transform="matrix(.28913 0 0 -.28941 93.92 154.83)" d="m479.41 286.87v19.952" stroke="#bf0000"/><path transform="matrix(.28913 0 0 -.28941 93.92 154.83)" d="m480.48 286.87v20.102" stroke="#bd0000"/><path transform="matrix(.28913 0 0 -.28941 93.92 154.83)" d="m481.54 286.87v19.969" stroke="#bc0000"/><path transform="matrix(.28913 0 0 -.28941 93.92 154.83)" d="m482.6 286.87v19.519" stroke="#ba0000"/><path transform="matrix(.28913 0 0 -.28941 93.92 154.83)" d="m483.67 286.87v17.99" stroke="#b90000"/><path transform="matrix(.28913 0 0 -.28941 93.92 154.83)" d="m484.73 286.87v18.156" stroke="#b70000"/><path transform="matrix(.28913 0 0 -.28941 93.92 154.83)" d="m485.8 286.87v17.275" stroke="#b60000"/><path transform="matrix(.28913 0 0 -.28941 93.92 154.83)" d="m486.86 286.87v16.676" stroke="#b40000"/><path transform="matrix(.28913 0 0 -.28941 93.92 154.83)" d="m487.93 286.87v15.679" stroke="#b30000"/><path transform="matrix(.28913 0 0 -.28941 93.92 154.83)" d="m488.99 286.87v15.529" stroke="#b10000"/><path transform="matrix(.28913 0 0 -.28941 93.92 154.83)" d="m490.06 286.87v14.614" stroke="#af0000"/><path transform="matrix(.28913 0 0 -.28941 93.92 154.83)" d="m491.12 286.87v13.118" stroke="#ae0000"/><path transform="matrix(.28913 0 0 -.28941 93.92 154.83)" d="m492.18 286.87v14" stroke="#ac0000"/><path transform="matrix(.28913 0 0 -.28941 93.92 154.83)" d="m493.25 286.87v13.251" stroke="#ab0000"/><path transform="matrix(.28913 0 0 -.28941 93.92 154.83)" d="m494.31 286.87v12.619" stroke="#a90000"/><path transform="matrix(.28913 0 0 -.28941 93.92 154.83)" d="m495.38 286.87v11.406" stroke="#a80000"/><path transform="matrix(.28913 0 0 -.28941 93.92 154.83)" d="m496.44 286.87v12.104" stroke="#a60000"/><path transform="matrix(.28913 0 0 -.28941 93.92 154.83)" d="m497.51 286.87v11.006" stroke="#a40000"/><path transform="matrix(.28913 0 0 -.28941 93.92 154.83)" d="m498.57 286.87v11.538" stroke="#a30000"/><path transform="matrix(.28913 0 0 -.28941 93.92 154.83)" d="m499.64 286.87v11.689" stroke="#a10000"/><path transform="matrix(.28913 0 0 -.28941 93.92 154.83)" d="m500.7 286.87v11.671" stroke="#a00000"/><path transform="matrix(.28913 0 0 -.28941 93.92 154.83)" d="m501.76 286.87v10.907" stroke="#9e0000"/><path transform="matrix(.28913 0 0 -.28941 93.92 154.83)" d="m502.83 286.87v9.9593" stroke="#9c0000"/><path transform="matrix(.28913 0 0 -.28941 93.92 154.83)" d="m503.89 286.87v10.125" stroke="#9b0000"/><path transform="matrix(.28913 0 0 -.28941 93.92 154.83)" d="m504.96 286.87v8.0965" stroke="#900"/><path transform="matrix(.28913 0 0 -.28941 93.92 154.83)" d="m506.02 286.87v8.9608" stroke="#980000"/><path transform="matrix(.28913 0 0 -.28941 93.92 154.83)" d="m507.09 286.87v8.6947" stroke="#960000"/><path transform="matrix(.28913 0 0 -.28941 93.92 154.83)" d="m508.15 286.87v7.4482" stroke="#940000"/><path transform="matrix(.28913 0 0 -.28941 93.92 154.83)" d="m509.21 286.87v8.3296" stroke="#930000"/><path transform="matrix(.28913 0 0 -.28941 93.92 154.83)" d="m510.28 286.87v8.4296" stroke="#910000"/><path transform="matrix(.28913 0 0 -.28941 93.92 154.83)" d="m511.34 286.87v6.966" stroke="#8f0000"/><path transform="matrix(.28913 0 0 -.28941 93.92 154.83)" d="m512.41 286.87v7.7974" stroke="#8e0000"/><path transform="matrix(.28913 0 0 -.28941 93.92 154.83)" d="m513.47 286.87v6.4338" stroke="#8c0000"/><path transform="matrix(.28913 0 0 -.28941 93.92 154.83)" d="m514.54 286.87v7.099" stroke="#8a0000"/><path transform="matrix(.28913 0 0 -.28941 93.92 154.83)" d="m515.6 286.87v6.5998" stroke="#890000"/><path transform="matrix(.28913 0 0 -.28941 93.92 154.83)" d="m516.67 286.87v6.1176" stroke="#870000"/><path transform="matrix(.28913 0 0 -.28941 93.92 154.83)" d="m517.73 286.87v6.0016" stroke="#850000"/><path transform="matrix(.28913 0 0 -.28941 93.92 154.83)" d="m518.79 286.87v5.6194" stroke="#840000"/><path transform="matrix(.28913 0 0 -.28941 93.92 154.83)" d="m519.86 286.87v5.0862" stroke="#820000"/><path transform="matrix(.28913 0 0 -.28941 93.92 154.83)" d="m520.92 286.87v4.1558" stroke="#800000"/><path transform="matrix(.28913 0 0 -.28941 93.92 154.83)" d="m521.99 286.87v4.705" stroke="#7f0000"/><path transform="matrix(.28913 0 0 -.28941 93.92 154.83)" d="m523.05 286.87v4.3719" stroke="#7d0000"/><path transform="matrix(.28913 0 0 -.28941 93.92 154.83)" d="m524.12 286.87v5.2533" stroke="#7b0000"/><path transform="matrix(.28913 0 0 -.28941 93.92 154.83)" d="m525.18 286.87v3.6576" stroke="#7a0000"/><path transform="matrix(.28913 0 0 -.28941 93.92 154.83)" d="m526.24 286.87v4.1728" stroke="#780000"/><path transform="matrix(.28913 0 0 -.28941 93.92 154.83)" d="m527.31 286.87v4.0557" stroke="#760000"/><path transform="matrix(.28913 0 0 -.28941 93.92 154.83)" d="m528.37 286.87v5.4864" stroke="#740000"/><path transform="matrix(.28913 0 0 -.28941 93.92 154.83)" d="m529.44 286.87v3.0923" stroke="#730000"/><path transform="matrix(.28913 0 0 -.28941 93.92 154.83)" d="m530.5 286.87v3.1424" stroke="#710000"/><path transform="matrix(.28913 0 0 -.28941 93.92 154.83)" d="m531.57 286.87v4.3058" stroke="#6f0000"/><path transform="matrix(.28913 0 0 -.28941 93.92 154.83)" d="m532.63 286.87v3.0093" stroke="#6d0000"/><path transform="matrix(.28913 0 0 -.28941 93.92 154.83)" d="m533.69 286.87v3.6076" stroke="#6c0000"/><path transform="matrix(.28913 0 0 -.28941 93.92 154.83)" d="m534.76 286.87v3.4415" stroke="#6a0000"/><path transform="matrix(.28913 0 0 -.28941 93.92 154.83)" d="m535.82 286.87v3.1083" stroke="#680000"/><path transform="matrix(.28913 0 0 -.28941 93.92 154.83)" d="m536.89 286.87v2.9263" stroke="#600"/><path transform="matrix(.28913 0 0 -.28941 93.92 154.83)" d="m537.95 286.87v1.8278" stroke="#640000"/><path transform="matrix(.28913 0 0 -.28941 93.92 154.83)" d="m539.02 286.87v2.211" stroke="#630000"/></g><g><g fill="#000000" font-family="Lato"><text transform="matrix(.50268 0 0 .50297 7.8063 87.069)" font-size="8.4191px" font-weight="bold" stroke-linecap="round" stroke-linejoin="round" stroke-miterlimit="10" stroke-width=".13151" style="font-variant-caps:normal;font-variant-east-asian:normal;font-variant-ligatures:normal;font-variant-numeric:normal;line-height:0%"><tspan x="0" y="0" font-family="Lato" font-size="8.4191px" font-weight="bold" stroke-width=".13151" style="font-variant-caps:normal;font-variant-east-asian:normal;font-variant-ligatures:normal;font-variant-numeric:normal;line-height:1.25">CIE Colorimetric Parameters</tspan></text><g><text transform="matrix(.50268 0 0 .50297 7.797 92.816)" font-size="8.4191px" stroke-width=".65754" style="font-variant-caps:normal;font-variant-east-asian:normal;font-variant-ligatures:normal;font-variant-numeric:normal;line-height:0%"><tspan x="0" y="0" font-family="Lato" font-size="8.4191px" stroke-width=".65754" style="font-variant-caps:normal;font-variant-east-asian:normal;font-variant-ligatures:normal;font-variant-numeric:normal;line-height:1.25">Chromaticity coordinates: x=0.4578 y=0.4101 u'=0.2614 v'=0.5268</tspan></text><text transform="matrix(.50283 0 0 .50312 -1.8672 403.25)" x="19.2194" y="-605.67859" font-size="8.4166px" stroke-width=".65734" style="font-variant-caps:normal;font-variant-east-asian:normal;font-variant-ligatures:normal;font-variant-numeric:normal;line-height:0%"><tspan x="19.2194" y="-605.67859" font-family="Lato" font-size="8.4166px" stroke-width=".65734" style="font-variant-caps:normal;font-variant-east-asian:normal;font-variant-ligatures:normal;font-variant-numeric:normal;line-height:1.25">CCT: Tc=2725K</tspan></text><text transform="matrix(.50268 0 0 .50297 111.33 98.52)" font-size="8.4191px" stroke-width=".65754" style="font-variant-caps:normal;font-variant-east-asian:normal;font-variant-ligatures:normal;font-variant-numeric:normal;line-height:0%"><tspan x="0" y="0" font-family="Lato" font-size="8.4191px" stroke-width=".65754" style="font-variant-caps:normal;font-variant-east-asian:normal;font-variant-ligatures:normal;font-variant-numeric:normal;line-height:1.25">Color Ratio: R=0.262 G=0.711 B=0.026</tspan></text><text transform="matrix(.50268 0 0 .50297 63.228 98.52)" font-size="8.4191px" stroke-width=".65754" style="font-variant-caps:normal;font-variant-east-asian:normal;font-variant-ligatures:normal;font-variant-numeric:normal;line-height:0%"><tspan x="0" y="0" dy="0 0 0 0 0 0 0 0 0 0" font-family="Lato" font-size="8.4191px" stroke-width=".65754" style="font-variant-caps:normal;font-variant-east-asian:normal;font-variant-ligatures:normal;font-variant-numeric:normal;line-height:1.25">CRI: Ra= 92</tspan></text></g></g><path transform="matrix(.23483 0 0 .23483 .25824 -2.641)" d="m138.72 260.13 0.884 0.349 0.896 0.34 0.907 0.331 0.921 0.321 0.932 0.312 0.944 0.302 0.956 0.293 0.967 0.284 0.98 0.274 0.991 0.264 1.003 0.255 1.014 0.245 1.025 0.235 1.037 0.226 1.048 0.216 1.057 0.206 1.07 0.196 1.081 0.188 1.091 0.177 1.1 0.167 1.112 0.157 1.122 0.147 1.133 0.138 1.142 0.128 1.152 0.119 1.163 0.107 1.171 0.098 1.183 0.09 1.191 0.077 1.2 0.069 1.21 0.059 1.219 0.049 1.228 0.038 1.237 0.029 1.246 0.019 1.254 8e-3 1.263-1e-3 1.272-0.011 1.28-0.02 1.287-0.032 1.296-0.04 1.304-0.051 1.311-0.061 1.32-0.071 1.326-0.08 1.335-0.091 1.34-0.1 1.349-0.11 1.355-0.121 1.363-0.129 1.369-0.14 1.375-0.15 1.382-0.159 1.388-0.17 1.394-0.179 1.401-0.189 1.406-0.198 1.413-0.209 1.416-0.218 1.424-0.228 1.428-0.237 1.433-0.248 1.438-0.256 1.444-0.266 1.448-0.277 1.453-0.285 1.457-0.294 1.462-0.305 1.464-0.314 1.471-0.323 1.473-0.333 1.477-0.342 1.481-0.352 1.483-0.361 1.488-0.369 1.491-0.379 1.492-0.389 1.497-0.398 1.498-0.406 1.502-0.416 1.504-0.424 1.506-0.434 1.508-0.442 1.51-0.452 1.512-0.46 1.513-0.469 1.515-0.478 1.515-0.487 1.519-0.495 1.518-0.503 1.518-0.513 1.52-0.521 1.521-0.529 1.521-0.537 1.52-0.547 1.522-0.554 1.52-0.563 1.521-0.57 1.52-0.579 1.52-0.587 1.52-0.595 1.518-0.602 1.518-0.611 1.516-0.619 1.515-0.626 1.514-0.634 1.512-0.642 1.51-0.649 1.509-0.657 1.506-0.663 1.505-0.672 1.502-0.679 1.499-0.686 1.498-0.693 1.493-0.7 1.492-0.707 1.487-0.715 1.485-0.721 1.481-0.728 1.478-0.735 1.475-0.741 1.47-0.748 1.467-0.755 1.462-0.761 1.458-0.767 1.454-0.774 1.448-0.78 1.445-0.786 1.44-0.791 1.435-0.798 1.429-0.805 1.425-0.809 1.418-0.815 1.413-0.822 1.408-0.827 1.401-0.832 1.395-0.837 1.39-0.843 1.384-0.849 1.376-0.853 1.371-0.858 1.364-0.863 1.357-0.868 1.351-0.874 1.341-0.878 1.337-0.882 1.328-0.886 1.321-0.892 1.313-0.896 1.306-0.9 1.297-0.904 1.29-0.909 1.282-0.912 1.273-0.917 1.265-0.92 1.256-0.923 1.248-0.928 1.238-0.93 1.231-0.936 1.221-0.937 1.212-0.941 1.203-0.944 1.193-0.948 1.184-0.95 1.174-0.953 1.165-0.956 1.154-0.959 1.145-0.961 1.135-0.964 1.124-0.967 1.115-0.968 1.103-0.971 1.093-0.973 1.083-0.975 1.072-0.977 1.061-0.978 1.049-0.98 1.04-0.983 1.028-0.983 1.016-0.985 1.006-0.987 0.993-0.987 0.983-0.988 0.969-0.991 0.96-0.99 0.947-0.991 0.935-0.993 0.923-0.993 0.91-0.993 0.899-0.994 0.885-0.995 0.875-0.994 0.861-0.995 0.849-0.994 0.835-0.995 0.824-0.994 0.811-0.995 0.797-0.994 0.784-0.993 0.772-0.993 0.758-0.992 0.746-0.992 0.731-0.99 0.719-0.99 0.704-0.988 0.692-0.988 0.679-0.986 0.664-0.985 0.65-0.983 0.637-0.982 0.623-0.981 0.609-0.978 0.594-0.978 0.581-0.974 0.567-0.973 0.554-0.97 0.539-0.969 0.524-0.966 0.509-0.964 0.497-0.961 0.481-0.958 0.466-0.956 0.452-0.953 0.439-0.95 0.423-0.948 0.409-0.944 0.393-0.941 0.38-0.938 0.364-0.934 0.349-0.931 0.336-0.927 0.319-0.924 0.305-0.919 0.291-0.916 0.274-0.912 0.261-0.909 0.246-0.904 0.229-0.9 0.215-0.895 0.2-0.891 0.186-0.887 0.169-0.882 0.155-0.877 0.14-0.874 0.124-0.867 0.11-0.864 0.094-0.858 0.079-0.852 0.064-0.848 0.048-0.843 0.033-0.838 0.018-0.831 4e-3 -0.827-0.013-0.82-0.027-0.815-0.043-0.81-0.058-0.803-0.072-0.798-0.09-0.792-0.103-0.786-0.118-0.779-0.134-0.773-0.149-0.767-0.164-0.761-0.18-0.754-0.193-0.748-0.209-0.741-0.225-0.7338-0.239-0.7282-0.255-0.7202-0.269-0.7136-0.284-0.7077-0.3-0.6996-0.314-0.6929-0.33-0.6857-0.344-0.6783-0.358-0.671-0.373-0.6636-0.389-0.6564-0.402-0.649-0.418-0.641-0.433-0.6337-0.446-0.6257-0.461-0.6178-0.476-0.6104-0.491-0.6024-0.504-0.5951-0.519-0.5858-0.533-0.5785-0.547-0.5705-0.561-0.5618-0.576-0.5538-0.589-0.5452-0.604-0.5379-0.618-0.5285-0.631-0.5199-0.646-0.5126-0.658-0.5032-0.673-0.4946-0.686-0.4859-0.7-0.4773-0.713-0.4686-0.728-0.46-0.739-0.4507-0.753-0.4419-0.767-0.4334-0.779-0.424-0.793-0.4154-0.805-0.4061-0.818-0.3967-0.831-0.3881-0.844-0.3781-0.857-0.3701-0.869-0.3594-0.881-0.3515-0.894-0.3415-0.906-0.3322-0.918-0.3228-0.931-0.3135-0.942-0.3036-0.954-0.2942-0.966-0.2856-0.978-0.2749-0.99-0.2663-0.999-0.2562-1.013-0.2464-1.024-0.2369-1.034-0.2277-1.046-0.217-1.056-0.2077-1.069-0.1983-1.078-0.1884-1.089-0.1784-1.1-0.1691-1.11-0.1591-1.12-0.1484-1.131-0.1398-1.14-0.1298-1.152-0.1192-1.16-0.1098-1.171-0.0999-1.18-0.0898-1.19-0.0799-1.198-0.0699-1.209-0.0606-1.218-0.0499-1.226-0.0406-1.235-0.0299-1.246-0.0207-1.252-0.0107h-1.262l-1.271 0.0094-1.278 0.0193-1.286 0.0293-1.294 0.0392-1.304 0.0493-1.309 0.0586-1.319 0.0692-1.325 0.0792-1.333 0.0892-1.34 0.0985-1.348 0.1085-1.354 0.1185-1.361 0.1285-1.368 0.1385-1.374 0.1484-1.381 0.1577-1.386 0.1678-1.394 0.1777-1.399 0.1871-1.406 0.197-1.412 0.207-1.415 0.2164-1.423 0.2263-1.428 0.2363-1.432 0.245-1.437 0.2556-1.443 0.265-1.448 0.2742-1.451 0.2836-1.457 0.2935-1.46 0.3036-1.466 0.3122-1.468 0.3215-1.473 0.3315-1.477 0.3408-1.48 0.3495-1.483 0.3594-1.487 0.3688-1.49 0.3775-1.493 0.3867-1.496 0.3961-1.499 0.4047-1.501 0.4147-1.502 0.4234-1.506 0.432-1.508 0.4413-1.51 0.4494-1.511 0.4592-1.513 0.468-1.515 0.476-1.516 0.4852-1.516 0.4939-1.519 0.5026-1.518 0.5106-1.52 0.5199-1.521 0.5279-1.52 0.5358-1.522 0.5445-1.521 0.5539-1.521 0.5605-1.521 0.5698-1.52 0.5777-1.52 0.5852-1.519 0.5937-1.519 0.6018-1.517 0.6091-1.517 0.6177-1.516 0.6251-1.514 0.6324-1.513 0.6403-1.51 0.6484-1.508 0.655-1.507 0.663-1.504 0.6703-1.503 0.6777-1.5 0.685-1.497 0.6922-1.494 0.699-1.493 0.7063-1.488 0.7129-1.485 0.7202-1.482 0.7269-1.478 0.7337-1.476 0.74-1.471 0.748-1.466 0.753-1.464 0.76-1.458 0.767-1.454 0.772-1.451 0.779-1.445 0.784-1.44 0.792-1.435 0.797-1.43 0.802-1.426 0.809-1.42 0.815-1.414 0.82-1.407 0.826-1.404 0.832-1.397 0.836-1.39 0.842-1.384 0.848-1.378 0.852-1.372 0.857-1.364 0.863-1.358 0.867-1.352 0.873-1.344 0.877-1.337 0.882-1.33 0.886-1.321 0.89-1.315 0.896-1.307 0.899-1.298 0.903-1.291 0.908-1.284 0.912-1.274 0.915-1.266 0.92-1.258 0.924-1.25 0.926-1.24 0.931-1.231 0.934-1.222 0.937-1.214 0.941-1.205 0.943-1.194 0.947-1.185 0.95-1.176 0.953-1.167 0.956-1.156 0.958-1.146 0.961-1.136 0.964-1.126 0.965-1.116 0.968-1.106 0.971-1.094 0.972-1.084 0.975-1.074 0.976-1.063 0.979-1.052 0.98-1.04 0.982-1.03 0.984-1.018 0.984-1.007 0.986-0.996 0.988-0.984 0.988-0.972 0.989-0.961 0.991-0.949 0.991-0.936 0.993-0.926 0.992-0.912 0.994-0.901 0.994-0.888 0.994-0.875 0.994-0.864 0.995-0.85 0.995-0.839 0.994-0.825 0.995-0.813 0.994-0.799 0.994-0.787 0.993-0.773 0.993-0.761 0.993-0.746 0.991-0.735 0.991-0.72 0.99-0.707 0.989-0.694 0.988-0.68 0.986-0.667 0.985-0.653 0.983-0.638 0.983-0.626 0.98-0.611 0.98-0.597 0.976-0.584 0.975-0.569 0.974-0.555 0.971-0.541 0.968-0.526 0.967-0.513 0.964-0.498 0.962-0.483 0.958-0.469 0.957-0.455 0.954-0.44 0.95-0.426 0.947-0.41 0.946-0.396 0.941-0.383 0.938-0.366 0.934-0.352 0.932-0.337 0.928-0.322 0.924-0.308 0.921-0.292 0.917-0.278 0.912-0.263 0.909-0.247 0.905-0.233 0.9-0.217 0.897-0.203 0.891-0.187 0.888-0.172 0.883-0.158 0.878-0.142 0.874-0.127 0.868-0.111 0.864-0.097 0.859-0.081 0.854-0.067 0.848-0.051 0.844-0.036 0.838-0.02 0.833-5e-3 0.827 9e-3 0.821 0.025 0.816 0.041 0.811 0.055 0.804 0.071 0.799 0.086 0.793 0.101 0.787 0.116 0.78 0.131 0.774 0.146 0.768 0.162 0.762 0.177 0.755 0.193 0.749 0.207 0.742 0.221 0.735 0.238 0.729 0.251 0.722 0.267 0.715 0.282 0.708 0.297 0.701 0.312 0.694 0.327 0.687 0.342 0.679 0.356 0.673 0.371 0.664 0.386 0.658 0.4 0.65 0.416 0.642 0.429 0.635 0.445 0.627 0.459 0.619 0.473 0.611 0.488 0.604 0.502 0.596 0.516 0.588 0.531 0.58 0.545 0.571 0.56 0.564 0.573 0.555 0.587 0.547 0.602 0.538 0.615 0.53 0.63 0.521 0.642 0.514 0.657 0.505 0.671 0.496 0.684 0.487 0.698 0.479 0.711 0.47 0.724 0.461 0.738 0.453 0.751 0.443 0.764 0.435 0.777 0.425 0.791 0.417 0.804 0.407 0.817 0.398 0.828 0.39 0.842 0.38 0.855 0.37 0.867 0.363" fill="#c2cccc"/><g fill="#000000" font-family="Lato" font-size="12px" stroke-width="1.5022"><text transform="matrix(.23483 0 0 .23483 11.732 74.851)" style="font-variant-caps:normal;font-variant-east-asian:normal;font-variant-ligatures:normal;font-variant-numeric:normal" xml:space="preserve">0.45</text><text transform="matrix(.23483 0 0 .23483 23.081 74.851)" style="font-variant-caps:normal;font-variant-east-asian:normal;font-variant-ligatures:normal;font-variant-numeric:normal" xml:space="preserve">0.452</text><text transform="matrix(.23483 0 0 .23483 35.252 74.851)" style="font-variant-caps:normal;font-variant-east-asian:normal;font-variant-ligatures:normal;font-variant-numeric:normal" xml:space="preserve">0.454</text><text transform="matrix(.23483 0 0 .23483 47.424 74.851)" style="font-variant-caps:normal;font-variant-east-asian:normal;font-variant-ligatures:normal;font-variant-numeric:normal" xml:space="preserve">0.456</text><text transform="matrix(.23483 0 0 .23483 59.595 74.851)" style="font-variant-caps:normal;font-variant-east-asian:normal;font-variant-ligatures:normal;font-variant-numeric:normal" xml:space="preserve">0.458</text><text transform="matrix(.23483 0 0 .23483 72.588 74.851)" style="font-variant-caps:normal;font-variant-east-asian:normal;font-variant-ligatures:normal;font-variant-numeric:normal" xml:space="preserve">0.46</text><text transform="matrix(.23483 0 0 .23483 83.937 74.851)" style="font-variant-caps:normal;font-variant-east-asian:normal;font-variant-ligatures:normal;font-variant-numeric:normal" xml:space="preserve">0.462</text><text transform="matrix(.23483 0 0 .23483 96.109 74.851)" style="font-variant-caps:normal;font-variant-east-asian:normal;font-variant-ligatures:normal;font-variant-numeric:normal" xml:space="preserve">0.464</text><text transform="matrix(.23483 0 0 .23483 53.53 78.608)" style="font-variant-caps:normal;font-variant-east-asian:normal;font-variant-ligatures:normal;font-variant-numeric:normal" xml:space="preserve">CIE-X</text><text transform="matrix(0 -.23483 .23483 0 4.6875 41.481)" style="font-variant-caps:normal;font-variant-east-asian:normal;font-variant-ligatures:normal;font-variant-numeric:normal" xml:space="preserve">CIE-Y</text><text transform="matrix(.23483 0 0 .23483 9.1493 71.565)" style="font-variant-caps:normal;font-variant-east-asian:normal;font-variant-ligatures:normal;font-variant-numeric:normal" xml:space="preserve">0.4</text><text transform="matrix(.23483 0 0 .23483 5.8616 54.845)" style="font-variant-caps:normal;font-variant-east-asian:normal;font-variant-ligatures:normal;font-variant-numeric:normal" xml:space="preserve">0.405</text><text transform="matrix(.23483 0 0 .23483 7.5054 38.126)" style="font-variant-caps:normal;font-variant-east-asian:normal;font-variant-ligatures:normal;font-variant-numeric:normal" xml:space="preserve">0.41</text><text transform="matrix(.23483 0 0 .23483 5.8616 21.407)" style="font-variant-caps:normal;font-variant-east-asian:normal;font-variant-ligatures:normal;font-variant-numeric:normal" xml:space="preserve">0.415</text><text transform="matrix(.23483 0 0 .23483 7.5054 4.6875)" style="font-variant-caps:normal;font-variant-east-asian:normal;font-variant-ligatures:normal;font-variant-numeric:normal" xml:space="preserve">0.42</text></g><g fill="none" stroke="#858585" stroke-dasharray="10.81627348,0" stroke-width=".33801"><g><polyline transform="matrix(.23483 0 0 .23483 .25824 -2.641)" points="112.69 311 112.69 26.207"/><polyline transform="matrix(.23483 0 0 .23483 .25824 -2.641)" points="164.52 311 164.52 26.207"/><polyline transform="matrix(.23483 0 0 .23483 .25824 -2.641)" points="216.35 311 216.35 26.207"/><polyline transform="matrix(.23483 0 0 .23483 .25824 -2.641)" points="268.18 311 268.18 26.207"/><polyline transform="matrix(.23483 0 0 .23483 .25824 -2.641)" points="320.01 311 320.01 26.207"/><polyline transform="matrix(.23483 0 0 .23483 .25824 -2.641)" points="371.84 311 371.84 26.207"/><polyline transform="matrix(.23483 0 0 .23483 .25824 -2.641)" points="423.67 311 423.67 26.207"/><polyline transform="matrix(.23483 0 0 .23483 .25824 -2.641)" points="60.859 239.8 423.67 239.8"/><polyline transform="matrix(.23483 0 0 .23483 .25824 -2.641)" points="60.859 168.6 423.67 168.6"/><polyline transform="matrix(.23483 0 0 .23483 .25824 -2.641)" points="60.859 97.404 423.67 97.404"/><polyline transform="matrix(.23483 0 0 .23483 .25824 -2.641)" points="60.859 26.207 423.67 26.207"/></g><polyline transform="matrix(.23483 0 0 .23483 .25824 -2.641)" points="60.859 311 423.67 311" stroke-linecap="square"/><polyline transform="matrix(.23483 0 0 .23483 .25824 -2.641)" points="60.859 311 60.859 26.207" stroke-linecap="square"/></g><text transform="matrix(.23483 0 0 .23483 62.337 36.065)" fill="#000000" font-family="Lato" font-size="12px" stroke-width="1.5022" style="font-variant-caps:normal;font-variant-east-asian:normal;font-variant-ligatures:normal;font-variant-numeric:normal" xml:space="preserve">CCT=2725 K</text><polygon transform="matrix(.63782 0 0 .63782 -105.73 -70.011)" points="263.49 166.31 263.99 167.18 263.49 168.04 262.49 168.04 261.99 167.18 262.49 166.31" fill="#f0f" shape-rendering="crispEdges" stroke-width=".5531"/><g fill="#000000" font-family="Lato"><g font-size="9.7293px"><text transform="matrix(.28941 0 0 .2902 177.73 79.236)" x="36.944557" stroke-width="1.2168" style="font-variant-caps:normal;font-variant-east-asian:normal;font-variant-ligatures:normal;font-variant-numeric:normal" xml:space="preserve"><tspan x="36.944557" y="0" fill="#000000" font-family="Lato" font-size="9.7293px" stroke-width="1.2168" text-align="center" text-anchor="middle" style="font-variant-caps:normal;font-variant-east-asian:normal;font-variant-ligatures:normal;font-variant-numeric:normal">WaveLength (nm)</tspan></text><g stroke-width="1.2162"><text transform="matrix(.2897 0 0 .2902 117.49 6.2541)" x="5.3358564" style="font-variant-caps:normal;font-variant-east-asian:normal;font-variant-ligatures:normal;font-variant-numeric:normal" xml:space="preserve"><tspan x="5.3358564" y="0" fill="#000000" font-family="Lato" font-size="9.7293px" stroke-width="1.2162" text-align="end" text-anchor="end" style="font-variant-caps:normal;font-variant-east-asian:normal;font-variant-ligatures:normal;font-variant-numeric:normal">1</tspan></text><text transform="matrix(.2897 0 0 .2902 117.48 19.587)" x="5.3358564" style="font-variant-caps:normal;font-variant-east-asian:normal;font-variant-ligatures:normal;font-variant-numeric:normal" xml:space="preserve"><tspan x="5.3358564" y="0" fill="#000000" font-family="Lato" font-size="9.7293px" stroke-width="1.2162" text-align="end" text-anchor="end" style="font-variant-caps:normal;font-variant-east-asian:normal;font-variant-ligatures:normal;font-variant-numeric:normal">0.8</tspan></text><text transform="matrix(.2897 0 0 .2902 117.46 32.874)" x="5.3358564" style="font-variant-caps:normal;font-variant-east-asian:normal;font-variant-ligatures:normal;font-variant-numeric:normal" xml:space="preserve"><tspan x="5.3358564" y="0" fill="#000000" font-family="Lato" font-size="9.7293px" stroke-width="1.2162" text-align="end" text-anchor="end" style="font-variant-caps:normal;font-variant-east-asian:normal;font-variant-ligatures:normal;font-variant-numeric:normal">0.6</tspan></text><text transform="matrix(.2897 0 0 .2902 117.4 46.182)" x="5.3358564" style="font-variant-caps:normal;font-variant-east-asian:normal;font-variant-ligatures:normal;font-variant-numeric:normal" xml:space="preserve"><tspan x="5.3358564" y="0" fill="#000000" font-family="Lato" font-size="9.7293px" stroke-width="1.2162" text-align="end" text-anchor="end" style="font-variant-caps:normal;font-variant-east-asian:normal;font-variant-ligatures:normal;font-variant-numeric:normal">0.4</tspan></text><text transform="matrix(.2897 0 0 .2902 117.48 59.473)" x="5.3358564" style="font-variant-caps:normal;font-variant-east-asian:normal;font-variant-ligatures:normal;font-variant-numeric:normal" xml:space="preserve"><tspan x="5.3358564" y="0" fill="#000000" font-family="Lato" font-size="9.7293px" stroke-width="1.2162" text-align="end" text-anchor="end" style="font-variant-caps:normal;font-variant-east-asian:normal;font-variant-ligatures:normal;font-variant-numeric:normal">0.2</tspan></text><text transform="matrix(.2897 0 0 .2902 117.42 72.779)" x="5.3358564" style="font-variant-caps:normal;font-variant-east-asian:normal;font-variant-ligatures:normal;font-variant-numeric:normal" xml:space="preserve"><tspan x="5.3358564" y="0" fill="#000000" font-family="Lato" font-size="9.7293px" stroke-width="1.2162" text-align="end" text-anchor="end" style="font-variant-caps:normal;font-variant-east-asian:normal;font-variant-ligatures:normal;font-variant-numeric:normal">0</tspan></text><text transform="matrix(.2897 0 0 .2902 122.09 75.436)" x="15.907482" style="font-variant-caps:normal;font-variant-east-asian:normal;font-variant-ligatures:normal;font-variant-numeric:normal" xml:space="preserve"><tspan x="15.907481" y="0" fill="#000000" font-family="Lato" font-size="9.7293px" stroke-width="1.2162" text-align="center" text-anchor="middle" style="font-variant-caps:normal;font-variant-east-asian:normal;font-variant-ligatures:normal;font-variant-numeric:normal">400</tspan></text><text transform="matrix(.2897 0 0 .2902 152.95 75.436)" x="15.907482" style="font-variant-caps:normal;font-variant-east-asian:normal;font-variant-ligatures:normal;font-variant-numeric:normal" xml:space="preserve"><tspan x="15.907481" y="0" fill="#000000" font-family="Lato" font-size="9.7293px" stroke-width="1.2162" text-align="center" text-anchor="middle" style="font-variant-caps:normal;font-variant-east-asian:normal;font-variant-ligatures:normal;font-variant-numeric:normal">500</tspan></text><text transform="matrix(.2897 0 0 .2902 183.76 75.436)" x="15.907482" style="font-variant-caps:normal;font-variant-east-asian:normal;font-variant-ligatures:normal;font-variant-numeric:normal" xml:space="preserve"><tspan x="15.907481" y="0" fill="#000000" font-family="Lato" font-size="9.7293px" stroke-width="1.2162" text-align="center" text-anchor="middle" style="font-variant-caps:normal;font-variant-east-asian:normal;font-variant-ligatures:normal;font-variant-numeric:normal">600</tspan></text><text transform="matrix(.2897 0 0 .2902 214.62 75.436)" x="15.907482" style="font-variant-caps:normal;font-variant-east-asian:normal;font-variant-ligatures:normal;font-variant-numeric:normal" xml:space="preserve"><tspan x="15.907481" y="0" fill="#000000" font-family="Lato" font-size="9.7293px" stroke-width="1.2162" text-align="center" text-anchor="middle" style="font-variant-caps:normal;font-variant-east-asian:normal;font-variant-ligatures:normal;font-variant-numeric:normal">700</tspan></text><text transform="matrix(.2897 0 0 .2902 245.47 75.436)" x="15.907482" style="font-variant-caps:normal;font-variant-east-asian:normal;font-variant-ligatures:normal;font-variant-numeric:normal" xml:space="preserve"><tspan x="15.907481" y="0" fill="#000000" font-family="Lato" font-size="9.7293px" stroke-width="1.2162" text-align="center" text-anchor="middle" style="font-variant-caps:normal;font-variant-east-asian:normal;font-variant-ligatures:normal;font-variant-numeric:normal">800</tspan></text></g></g><text transform="matrix(0 -.2902 .2897 0 113.24 49.865)" font-size="9.7293px" stroke-width="1.2162" style="font-variant-caps:normal;font-variant-east-asian:normal;font-variant-ligatures:normal;font-variant-numeric:normal" xml:space="preserve"><tspan x="0" y="0" fill="#000000" font-family="Lato" font-size="9.7293px" stroke-width="1.2162" style="font-variant-caps:normal;font-variant-east-asian:normal;font-variant-ligatures:normal;font-variant-numeric:normal">Relative Spectrum</tspan></text></g><g fill="none" stroke="#858585" stroke-width=".27518"><path transform="matrix(.28832 0 0 .28857 -56.163 90.912)" d="m617.27-296.75h-4.496v230.4h449.56v-4.4972"/><path transform="matrix(.28832 0 0 .28857 -56.163 90.912)" d="m612.77-250.67h4.496"/><path transform="matrix(.28832 0 0 .28857 -56.163 90.912)" d="m612.77-204.59h4.496"/><path transform="matrix(.28832 0 0 .28857 -56.163 90.912)" d="m612.77-158.5h4.496"/><path transform="matrix(.28832 0 0 .28857 -56.163 90.912)" d="m612.77-112.42h4.496"/><path transform="matrix(.28832 0 0 .28857 -56.163 90.912)" d="m634.18-66.344v-4.4972"/><path transform="matrix(.28832 0 0 .28857 -56.163 90.912)" d="m741.22-66.344 2e-5 -4.4972"/><path transform="matrix(.28832 0 0 .28857 -56.163 90.912)" d="m848.25-66.344 2e-5 -4.4972"/><path transform="matrix(.28832 0 0 .28857 -56.163 90.912)" d="m955.29-66.344v-4.4972"/></g></g></svg>
