<?xml version="1.0" encoding="UTF-8" standalone="no"?>
<svg
   width="934.25958"
   height="428.80026"
   version="1.1"
   viewBox="0 0 247.1864 113.45369"
   xml:space="preserve"
   id="svg74"
   sodipodi:docname="desenhotecnico.svg"
   inkscape:version="1.2.2 (732a01da63, 2022-12-09)"
   xmlns:inkscape="http://www.inkscape.org/namespaces/inkscape"
   xmlns:sodipodi="http://sodipodi.sourceforge.net/DTD/sodipodi-0.dtd"
   xmlns="http://www.w3.org/2000/svg"
   xmlns:svg="http://www.w3.org/2000/svg"><defs
     id="defs78" /><sodipodi:namedview
     id="namedview76"
     pagecolor="#505050"
     bordercolor="#ffffff"
     borderopacity="1"
     inkscape:showpageshadow="0"
     inkscape:pageopacity="0"
     inkscape:pagecheckerboard="1"
     inkscape:deskcolor="#505050"
     showgrid="false"
     inkscape:zoom="0.66540614"
     inkscape:cx="801.76597"
     inkscape:cy="33.062514"
     inkscape:window-width="1920"
     inkscape:window-height="1009"
     inkscape:window-x="-8"
     inkscape:window-y="-8"
     inkscape:window-maximized="1"
     inkscape:current-layer="g72"
     inkscape:lockguides="true" /><g
     stroke="#000000"
     id="g72"
     transform="translate(-0.12881752,-10.150106)"><path
       transform="matrix(1.3169,0,0,1.3169,-46.668,-73.663)"
       d="m 121.26,149.72 v -0.35004 m 0,0 h -85.3 m 0,-85.3 h -0.35004 m 0.35004,0 h 85.3 m 0,-0.34978 h -85.3 m 0,85.65 v -85.3 m 0,85.65 h 85.3 m 0,-86 0.35004,0.34978 m -85.65,-0.34978 v 0.34978 m 85.3,0 v 85.3 m -85.65,-85.3 0.35004,-0.34978 m -0.35004,85.65 h 0.35004 m 0,0 v 0.35004 m 85.65,-0.35004 v -85.3 m 0,0 h -0.35004 m 0.35004,85.3 -0.35004,0.35004 m 0,-0.35004 h 0.35004 m -0.35004,-85.3 V 63.7204 m -85.3,86 -0.35004,-0.35004 m 0,-85.3 v 85.3"
       fill="none"
       stroke-linecap="round"
       stroke-width="0.15187"
       id="path68" /><path
       transform="matrix(1.3166,0,0,1.3179,87.096445,-162.01)"
       d="m 104.47,186.74 h 0.14658 m -49.5,0 h 47 m 2.3535,0 v 18.9 m -51.854,-18.9 h 0.14658 m 49.354,0 h 2.3535 m -51.707,18.9 v -18.9 m 0,0 h 2.3535 m -19.15,27.25 h 85.3 m -85.3,0 h -0.35004 m 85.65,0 v -0.34925 m -85.3,2.9977 -0.35004,-0.34925 m 0,-2.2992 v 2.2992 m 0.35004,0.34925 h 85.3 m 0,-0.34925 h -85.3 m 85.3,-2.6485 0.35004,0.34925 m -0.35004,2.2992 h 0.35004 m -85.65,0 v 0.34925 m 85.65,-0.34925 v -2.2992 m -0.35004,0 v 2.2992 m 0,-2.6485 h -85.3 m -0.35004,2.6485 h 0.35004 m 85.65,-2.2992 h -0.35004 m 0.35004,2.2992 -0.35004,0.34925 m -85.3,-2.9977 v 0.34925 m -0.35004,0 0.35004,-0.34925 m 85.3,2.9977 v -0.34925 m -85.3,0 v -2.2992 m 0.15002,-0.34925 v -8.0013 m 68.5,0 v -18.9 m -51.5,-0.50005 a 0.5,0.5 0 0 0 -0.5,0.5 m 51.5,-0.50001 h -2.2072 m 19.207,27.401 v -8.0013 m -65.793,-19.4 h -2.2072 m 51.5,0.50001 a 0.5,0.5 0 0 0 -0.5,-0.5 m 17,19.4 h -85 m 16.5,-18.9 v 18.9 m 49.293,-19.4 h -46.586"
       fill="none"
       stroke-linecap="round"
       stroke-width="0.15184"
       id="path70" /></g></svg>
