<?xml version="1.0" encoding="UTF-8" standalone="no"?>
<!-- Created with Inkscape (http://www.inkscape.org/) -->

<svg
   width="19.350739mm"
   height="17.312637mm"
   viewBox="0 0 19.350739 17.312638"
   version="1.1"
   id="svg12850"
   inkscape:version="1.2.2 (732a01da63, 2022-12-09)"
   sodipodi:docname="20_VTopo_TampaEncaixe.svg"
   xmlns:inkscape="http://www.inkscape.org/namespaces/inkscape"
   xmlns:sodipodi="http://sodipodi.sourceforge.net/DTD/sodipodi-0.dtd"
   xmlns="http://www.w3.org/2000/svg"
   xmlns:svg="http://www.w3.org/2000/svg">
  <sodipodi:namedview
     id="namedview12852"
     pagecolor="#ffffff"
     bordercolor="#000000"
     borderopacity="1"
     inkscape:pageshadow="0"
     inkscape:pageopacity="1"
     inkscape:pagecheckerboard="false"
     inkscape:document-units="mm"
     showgrid="false"
     fit-margin-top="0"
     fit-margin-left="0"
     fit-margin-right="0"
     fit-margin-bottom="0"
     inkscape:zoom="3.7193858"
     inkscape:cx="11.023325"
     inkscape:cy="79.851893"
     inkscape:window-width="1920"
     inkscape:window-height="1009"
     inkscape:window-x="-8"
     inkscape:window-y="-8"
     inkscape:window-maximized="1"
     inkscape:current-layer="layer1"
     inkscape:showpageshadow="0"
     inkscape:deskcolor="#ffffff" />
  <defs
     id="defs12847" />
  <g
     inkscape:label="Camada 1"
     inkscape:groupmode="layer"
     id="layer1"
     transform="translate(-109.90289,-104.70323)">
    <path
       d="m 385.8599,581.35959 a 1.0000001,1.0001218 45 0 0 -0.99985,-0.99984"
       style="fill:none;stroke:#000000;stroke-width:0.50254;stroke-dasharray:none;stroke-opacity:1"
       id="path17602-7-9-5"
       transform="matrix(0.99494568,0,0,0.99494568,-254.90602,-467.64729)" />
    <path
       d="m 366.91346,591.40634 a 1.0000001,1.0001218 45 0 0 0.99985,0.99984"
       style="fill:none;stroke:#000000;stroke-width:0.50254;stroke-dasharray:none;stroke-opacity:1"
       id="path17608-2-4-8"
       transform="matrix(0.99494568,0,0,0.99494568,-254.90602,-467.64729)" />
    <path
       d="m 384.02084,580.35975 c -0.0282,0 -0.0567,-0.003 -0.0848,-0.007 -0.045,-0.008 -0.0886,-0.0217 -0.12959,-0.041 -0.0656,-0.0311 -0.12453,-0.077 -0.17082,-0.13298 -0.0477,-0.0577 -0.0822,-0.12636 -0.1001,-0.19875"
       style="fill:none;stroke:#000000;stroke-width:0.50254;stroke-dasharray:none;stroke-opacity:1"
       id="path17616-1-7-9"
       transform="matrix(0.99494568,0,0,0.99494568,-254.90602,-467.64729)" />
    <path
       d="m 367.91331,580.35975 a 1.0001218,1.0000001 45 0 0 -0.99985,0.99984"
       style="fill:none;stroke:#000000;stroke-width:0.50254;stroke-dasharray:none;stroke-opacity:1"
       id="path17618-1-9-8"
       transform="matrix(0.99494568,0,0,0.99494568,-254.90602,-467.64729)" />
    <path
       d="m 384.86005,592.40618 a 1.0001218,1.0000001 45 0 0 0.99985,-0.99984"
       style="fill:none;stroke:#000000;stroke-width:0.50254;stroke-dasharray:none;stroke-opacity:1"
       id="path17620-2-4-5"
       transform="matrix(0.99494568,0,0,0.99494568,-254.90602,-467.64729)" />
    <path
       d="m 372.14043,580.04805 c -0.01,0.0233 -0.0208,0.0461 -0.0338,0.068 -0.0208,0.0349 -0.046,0.0673 -0.0744,0.096 -0.0455,0.0458 -0.10085,0.0832 -0.16027,0.10835 -0.0613,0.0259 -0.12809,0.0394 -0.1946,0.0394"
       style="fill:none;stroke:#000000;stroke-width:0.50254;stroke-dasharray:none;stroke-opacity:1"
       id="path17632-4-2-7"
       transform="matrix(0.99494568,0,0,0.99494568,-254.90602,-467.64729)" />
    <path
       d="m 383.53551,579.97973 c -0.1546,-0.62569 -0.34556,-1.26331 -0.62529,-1.86727 -0.22378,-0.48318 -0.51047,-0.94922 -0.89772,-1.34588 -0.38725,-0.39664 -0.86188,-0.7007 -1.36982,-0.90355 -0.6767,-0.27025 -1.40018,-0.37746 -2.1187,-0.34936 -0.909,0.0356 -1.78794,0.29207 -2.59133,0.68128 -1.14299,0.55369 -2.18067,1.31582 -2.95117,2.34185 -0.34848,0.46403 -0.62663,0.98367 -0.84105,1.51125"
       style="fill:none;stroke:#000000;stroke-width:0.50254;stroke-dasharray:none;stroke-opacity:1"
       id="path17634-8-6-0"
       transform="matrix(0.99494568,0,0,0.99494568,-254.90602,-467.64729)" />
    <path
       style="fill:none;stroke:#000000;stroke-width:0.50254;stroke-dasharray:none;stroke-opacity:1"
       d="M 371.67729,580.36089 H 367.9133"
       id="path17638-0-9-2"
       transform="matrix(0.99494568,0,0,0.99494568,-254.90602,-467.64729)" />
    <path
       style="fill:none;stroke:#000000;stroke-width:0.50254;stroke-dasharray:none;stroke-opacity:1"
       d="m 366.91341,581.35837 v 10.04887"
       id="path17644-3-4-0"
       transform="matrix(0.99494568,0,0,0.99494568,-254.90602,-467.64729)" />
    <path
       style="fill:none;stroke:#000000;stroke-width:0.50254;stroke-dasharray:none;stroke-opacity:1"
       d="M 384.86005,592.40737 H 367.9133"
       id="path21056-1-4-6"
       transform="matrix(0.99494568,0,0,0.99494568,-254.90602,-467.64729)" />
    <path
       style="fill:none;stroke:#000000;stroke-width:0.50254;stroke-dasharray:none;stroke-opacity:1"
       d="m 384.02084,580.36089 h 0.83921"
       id="path21104-3-9-5"
       transform="matrix(0.99494568,0,0,0.99494568,-254.90602,-467.64729)" />
    <path
       style="fill:none;stroke:#000000;stroke-width:0.50254;stroke-dasharray:none;stroke-opacity:1"
       d="m 385.85991,581.35837 v 10.04887"
       id="path21142-7-2-2"
       transform="matrix(0.99494568,0,0,0.99494568,-254.90602,-467.64729)" />
  </g>
</svg>
