<?xml version="1.0" encoding="UTF-8" standalone="no"?>
<!-- Created with Inkscape (http://www.inkscape.org/) -->

<svg
   width="19.639589mm"
   height="14.38906mm"
   viewBox="0 0 19.639589 14.38906"
   version="1.1"
   id="svg12850"
   inkscape:version="1.2.2 (732a01da63, 2022-12-09)"
   sodipodi:docname="2x55_VTopo_TampaEncaixe.svg"
   xmlns:inkscape="http://www.inkscape.org/namespaces/inkscape"
   xmlns:sodipodi="http://sodipodi.sourceforge.net/DTD/sodipodi-0.dtd"
   xmlns="http://www.w3.org/2000/svg"
   xmlns:svg="http://www.w3.org/2000/svg">
  <sodipodi:namedview
     id="namedview12852"
     pagecolor="#ffffff"
     bordercolor="#ffffff"
     borderopacity="1"
     inkscape:pageshadow="0"
     inkscape:pageopacity="0"
     inkscape:pagecheckerboard="false"
     inkscape:document-units="mm"
     showgrid="false"
     fit-margin-top="0"
     fit-margin-left="0"
     fit-margin-right="0"
     fit-margin-bottom="0"
     inkscape:zoom="32"
     inkscape:cx="72.734375"
     inkscape:cy="6.84375"
     inkscape:window-width="1920"
     inkscape:window-height="1009"
     inkscape:window-x="-8"
     inkscape:window-y="-8"
     inkscape:window-maximized="1"
     inkscape:current-layer="g97991"
     inkscape:showpageshadow="0"
     inkscape:deskcolor="#d1d1d1" />
  <defs
     id="defs12847" />
  <g
     inkscape:label="Camada 1"
     inkscape:groupmode="layer"
     id="layer1"
     transform="translate(-95.184642,-141.30542)">
    <g
       id="g97991"
       transform="translate(175.97638,14.232355)">
      <path
         d="m -62.504488,129.47266 c -0.157833,-0.57149 -0.536692,-1.10819 -1.02026,-1.45081 -0.498353,-0.35309 -1.070529,-0.52163 -1.609623,-0.60826 -0.903851,-0.14526 -1.780887,-0.0919 -2.649699,-0.004 -0.543007,0.0551 -1.081018,0.13088 -1.604647,0.20678 -0.327268,0.0474 -0.650378,0.0963 -0.96425,0.13365 -0.216998,0.0258 -0.442073,0.0476 -0.618928,0.0476"
         style="fill:none;stroke:#000000;stroke-width:0.5;stroke-linejoin:round;stroke-miterlimit:4;stroke-dasharray:none;paint-order:stroke markers fill"
         id="path4079" />
      <path
         d="m -70.971895,127.79795 c -0.192762,0 -0.43951,-0.0257 -0.677276,-0.0551 -0.237766,-0.0295 -0.481269,-0.0649 -0.72602,-0.10028 -0.474669,-0.0686 -0.962638,-0.13978 -1.456425,-0.19716 -0.308617,-0.0359 -0.619431,-0.0665 -0.931547,-0.0877 -0.195071,-0.0133 -0.390658,-0.0229 -0.586894,-0.0276 -0.196236,-0.005 -0.393115,-0.005 -0.59101,0.002 -0.316632,0.011 -0.636075,0.0387 -0.959693,0.0964 -0.517787,0.0924 -1.06408,0.26639 -1.53743,0.6068 -0.473445,0.34048 -0.845814,0.87433 -1.001117,1.43702"
         style="fill:none;stroke:#000000;stroke-width:0.5;stroke-linejoin:round;stroke-miterlimit:4;stroke-dasharray:none;paint-order:stroke markers fill"
         id="path4087" />
      <path
         style="fill:none;stroke:#000000;stroke-width:0.5;stroke-linejoin:round;stroke-miterlimit:4;stroke-dasharray:none;paint-order:stroke markers fill"
         d="M -61.40215,140.91206 V 129.77258"
         id="path4093" />
      <path
         d="m -61.702149,141.21213 a 0.29999993,0.29999993 0 0 0 0.3,-0.3"
         style="fill:none;stroke:#000000;stroke-width:0.5;stroke-linejoin:round;stroke-miterlimit:4;stroke-dasharray:none;paint-order:stroke markers fill"
         id="path4097" />
      <path
         d="m -80.241637,129.47258 a 0.29999993,0.29999993 0 0 0 -0.300001,0.3"
         style="fill:none;stroke:#000000;stroke-width:0.5;stroke-linejoin:round;stroke-miterlimit:4;stroke-dasharray:none;paint-order:stroke markers fill"
         id="path4099" />
      <path
         style="fill:none;stroke:#000000;stroke-width:0.5;stroke-linejoin:round;stroke-miterlimit:4;stroke-dasharray:none;paint-order:stroke markers fill"
         d="m -80.541738,129.77258 v 11.13948"
         id="path4101" />
      <path
         style="fill:none;stroke:#000000;stroke-width:0.5;stroke-linejoin:round;stroke-miterlimit:4;stroke-dasharray:none;paint-order:stroke markers fill"
         d="m -80.241701,141.2121 h 18.539539"
         id="path4105" />
      <path
         d="m -61.402149,129.77258 a 0.29999993,0.29999993 0 0 0 -0.3,-0.3"
         style="fill:none;stroke:#000000;stroke-width:0.5;stroke-linejoin:round;stroke-miterlimit:4;stroke-dasharray:none;paint-order:stroke markers fill"
         id="path4107" />
      <path
         style="fill:none;stroke:#000000;stroke-width:0.5;stroke-linejoin:round;stroke-miterlimit:4;stroke-dasharray:none;paint-order:stroke markers fill"
         d="m -61.702162,129.47254 h -1.041976"
         id="path4109"
         sodipodi:nodetypes="cc" />
      <path
         d="m -70.971895,127.79795 c 0.192762,0 0.43951,-0.0257 0.677276,-0.0551 0.237767,-0.0295 0.481269,-0.0649 0.72602,-0.10028 0.47467,-0.0686 0.962638,-0.13978 1.456425,-0.19716 0.308617,-0.0359 0.619432,-0.0665 0.931547,-0.0877 0.195072,-0.0133 0.390659,-0.0229 0.586895,-0.0276 0.196236,-0.005 0.393115,-0.005 0.591009,0.002 0.316632,0.011 0.636076,0.0387 0.959693,0.0964 0.06265,0.0112 0.125713,0.0236 0.189016,0.0373"
         style="fill:none;stroke:#000000;stroke-width:0.5;stroke-linejoin:round;stroke-miterlimit:4;stroke-dasharray:none;paint-order:stroke markers fill"
         id="path4113" />
      <path
         style="fill:none;stroke:#000000;stroke-width:0.5;stroke-linejoin:round;stroke-miterlimit:4;stroke-dasharray:none;paint-order:stroke markers fill"
         d="m -80.241701,141.2121 v 0"
         id="path6643" />
      <path
         d="m -80.241608,129.47266 a 0.29995442,0.29995442 0 0 0 -0.299953,0.29995"
         style="fill:none;stroke:#000000;stroke-width:0.5;stroke-linejoin:round;stroke-miterlimit:4;stroke-dasharray:none;paint-order:stroke markers fill"
         id="path6649" />
      <path
         style="fill:none;stroke:#000000;stroke-width:0.5;stroke-linejoin:round;stroke-miterlimit:4;stroke-dasharray:none;paint-order:stroke markers fill"
         d="m -80.241701,129.47254 v 0"
         id="path6669" />
      <path
         style="fill:none;stroke:#000000;stroke-width:0.5;stroke-linejoin:round;stroke-miterlimit:4;stroke-dasharray:none;paint-order:stroke markers fill"
         d="m -80.541738,129.77258 h 2.64e-4"
         id="path6685" />
      <path
         style="fill:none;stroke:#000000;stroke-width:0.5;stroke-linejoin:round;stroke-miterlimit:4;stroke-dasharray:none;paint-order:stroke markers fill"
         d="m -61.40223,129.77258 h 8e-5"
         id="path6697" />
      <path
         style="fill:none;stroke:#000000;stroke-width:0.5;stroke-linejoin:round;stroke-miterlimit:4;stroke-dasharray:none;paint-order:stroke markers fill"
         d="m -61.702162,129.47254 h -2.6e-5"
         id="path6703" />
      <path
         d="m -80.541638,140.91213 a 0.29999993,0.29999993 0 0 0 0.300001,0.3"
         style="fill:none;stroke:#000000;stroke-width:0.5;stroke-linejoin:round;stroke-miterlimit:4;stroke-dasharray:none;paint-order:stroke markers fill"
         id="path4103" />
      <path
         style="fill:none;stroke:#000000;stroke-width:0.5;stroke-linejoin:round;stroke-miterlimit:4;stroke-dasharray:none;paint-order:stroke markers fill"
         d="m -79.195392,129.47254 h -1.046309"
         id="path4095"
         sodipodi:nodetypes="cc" />
    </g>
  </g>
</svg>
