<?xml version="1.0" encoding="UTF-8" standalone="no"?>
<!-- Created with Inkscape (http://www.inkscape.org/) -->

<svg
   width="17.207867mm"
   height="11.583652mm"
   viewBox="0 0 17.207866 11.583652"
   version="1.1"
   id="svg12204"
   inkscape:version="1.2.2 (732a01da63, 2022-12-09)"
   sodipodi:docname="CF tampa fricon.svg"
   xmlns:inkscape="http://www.inkscape.org/namespaces/inkscape"
   xmlns:sodipodi="http://sodipodi.sourceforge.net/DTD/sodipodi-0.dtd"
   xmlns="http://www.w3.org/2000/svg"
   xmlns:svg="http://www.w3.org/2000/svg">
  <sodipodi:namedview
     id="namedview12206"
     pagecolor="#505050"
     bordercolor="#ffffff"
     borderopacity="1"
     inkscape:pageshadow="0"
     inkscape:pageopacity="0"
     inkscape:pagecheckerboard="1"
     inkscape:document-units="mm"
     showgrid="false"
     inkscape:zoom="4"
     inkscape:cx="17.875"
     inkscape:cy="-1.75"
     inkscape:window-width="1920"
     inkscape:window-height="1009"
     inkscape:window-x="-8"
     inkscape:window-y="-8"
     inkscape:window-maximized="1"
     inkscape:current-layer="g65772"
     fit-margin-top="0"
     fit-margin-left="0"
     fit-margin-right="0"
     fit-margin-bottom="0"
     inkscape:showpageshadow="0"
     inkscape:deskcolor="#505050" />
  <defs
     id="defs12201" />
  <g
     inkscape:label="Camada 1"
     inkscape:groupmode="layer"
     id="layer1"
     transform="translate(-170.75114,-204.04443)">
    <g
       id="g65772"
       style="fill:none;stroke-linecap:round;stroke-linejoin:round"
       transform="translate(121.91988,230.30558)">
      <path
         style="fill:none;stroke:#000000;stroke-width:0.26458333;stroke-linejoin:round;stroke-miterlimit:4;stroke-dasharray:none;paint-order:stroke markers fill"
         d="m 44.546889,-14.809788 c 0.138072,4.7e-5 0.193278,-0.111928 0.19328,-0.250061 l 10e-7,-1.285593 c -0.542572,-0.258606 -1.014217,-0.86775 -1.014217,-1.521475 0,-0.662916 0.459312,-1.27036 1.014217,-1.523859 l -10e-7,-4.518965 c -1e-6,-0.276189 -0.223859,-0.500048 -0.500005,-0.500032 l -1.242487,1.6e-5 c -4.140239,-2.291519 -9.32552,-2.291519 -13.458298,0 l -1.242487,-1.6e-5 c -0.276146,-1.6e-5 -0.500004,0.223843 -0.500005,0.500032 l -1e-6,4.518965 c 0.554905,0.253499 1.014217,0.860943 1.014217,1.523859 0,0.653725 -0.471645,1.262869 -1.014217,1.521475 l 1e-6,1.285593 c 2e-6,0.138133 0.111931,0.250062 0.250003,0.250015 z"
         id="path2937"
         transform="translate(21.166667)"
         sodipodi:nodetypes="cccsccccccccscccc" />
    </g>
  </g>
</svg>
