<?xml version="1.0" encoding="UTF-8" standalone="no"?>
<!-- 2024-12-11 10:48:21 Generated by QCAD SVG Exporter -->

<svg
   width="821.7703533273261mm"
   height="486.45768000123076mm"
   viewBox="-445.8592622706592 -154.771401793941 821.7703533273261 486.45768000123076"
   version="1.1"
   style="stroke-linecap:round;stroke-linejoin:round;fill:none"
   id="svg3899"
   sodipodi:docname="AREM-02_Perspectiva.svg"
   inkscape:version="1.2.2 (732a01da63, 2022-12-09)"
   xmlns:inkscape="http://www.inkscape.org/namespaces/inkscape"
   xmlns:sodipodi="http://sodipodi.sourceforge.net/DTD/sodipodi-0.dtd"
   xmlns="http://www.w3.org/2000/svg"
   xmlns:svg="http://www.w3.org/2000/svg">
  <defs
     id="defs3903" />
  <sodipodi:namedview
     id="namedview3901"
     pagecolor="#ffffff"
     bordercolor="#666666"
     borderopacity="1.0"
     inkscape:showpageshadow="2"
     inkscape:pageopacity="0.0"
     inkscape:pagecheckerboard="0"
     inkscape:deskcolor="#d1d1d1"
     inkscape:document-units="mm"
     showgrid="false"
     inkscape:zoom="0.25671983"
     inkscape:cx="1153.0079"
     inkscape:cy="1036.149"
     inkscape:window-width="1680"
     inkscape:window-height="987"
     inkscape:window-x="-8"
     inkscape:window-y="-7"
     inkscape:window-maximized="1"
     inkscape:current-layer="svg3899" />
  <path
     d="m -437.67405,-140.62166 1.8e-4,0.008 m 0,0 5.3e-4,0.008 m 0,0 8.8e-4,0.008 m 0,0 10e-4,0.007 m 0,0 0.002,0.007 m 0,0 0.002,0.007 m 0,0 0.002,0.006 m 0,0 0.003,0.006 m 0,0 0.003,0.006 m 0,0 0.003,0.005 m 0,0 0.004,0.005 m 0,0 0.004,0.005 m 0,0 0.004,0.004 m 0,0 0.004,0.004 m 0,0 0.005,0.003 m 0,0 0.003,0.002"
     style="stroke:#000000;stroke-width:0.2;stroke-dasharray:none"
     id="path3611" />
  <path
     d="M -437.67405,-142.09135 269.43273,266.15694"
     style="stroke:#000000;stroke-width:0.2;stroke-dasharray:none"
     id="path3613" />
  <path
     d="m 269.43273,282.97677 v 1.46969"
     style="stroke:#000000;stroke-width:0.2;stroke-dasharray:none"
     id="path3615" />
  <path
     d="M -437.67405,-123.80183 269.43273,284.44646"
     style="stroke:#000000;stroke-width:0.2;stroke-dasharray:none"
     id="path3617" />
  <path
     d="M -436.40126,-149.60312 270.70553,258.64517"
     style="stroke:#000000;stroke-width:0.2;stroke-dasharray:none"
     id="path3619" />
  <path
     d="m -437.67405,-140.62166 v -1.46969"
     style="stroke:#000000;stroke-width:0.2;stroke-dasharray:none"
     id="path3621" />
  <path
     d="m 269.43273,266.15694 v 1.46969"
     style="stroke:#000000;stroke-width:0.2;stroke-dasharray:none"
     id="path3623" />
  <path
     d="m -437.67405,-123.80183 0.71061,5.93954"
     style="stroke:#000000;stroke-width:0.2;stroke-dasharray:none"
     id="path3625" />
  <path
     d="m -435.76989,-126.53419 -1.76274,1.01772"
     style="stroke:#000000;stroke-width:0.2;stroke-dasharray:none"
     id="path3627" />
  <path
     d="m 270.70553,258.64517 -0.14143,0.0816"
     style="stroke:#000000;stroke-width:0.2;stroke-dasharray:none"
     id="path3629" />
  <path
     d="m 270.14334,259.39686 -0.71061,6.76008"
     style="stroke:#000000;stroke-width:0.2;stroke-dasharray:none"
     id="path3631" />
  <path
     d="m -437.67405,-125.27152 v 1.46969"
     style="stroke:#000000;stroke-width:0.2;stroke-dasharray:none"
     id="path3633" />
  <path
     d="m -436.54268,-149.52147 -0.0212,0.0128 m 0,0 -0.0212,0.014 m 0,0 -0.0211,0.0152 m 0,0 -0.0209,0.0163 m 0,0 -0.0207,0.0174 m 0,0 -0.0204,0.0184 m 0,0 -0.0201,0.0194 m 0,0 -0.0197,0.0204 m 0,0 -0.0193,0.0212 m 0,0 -0.0189,0.0221 m 0,0 -0.0183,0.0229 m 0,0 -0.0178,0.0236 m 0,0 -0.0172,0.0243 m 0,0 -0.0166,0.0249 m 0,0 -0.0159,0.0254 m 0,0 -0.0152,0.0259 m 0,0 -0.0144,0.0263 m 0,0 -0.0136,0.0267 m 0,0 -0.0128,0.0269 m 0,0 -0.0119,0.0271 m 0,0 -0.011,0.0273 m 0,0 -0.0101,0.0274 m 0,0 -0.009,0.0274 m 0,0 -0.008,0.0273 m 0,0 -0.007,0.0272 m 0,0 -0.006,0.027 m 0,0 -0.005,0.0267 m 0,0 -0.004,0.0264 m 0,0 -0.003,0.022"
     style="stroke:#000000;stroke-width:0.2;stroke-dasharray:none"
     id="path3635" />
  <path
     d="m 269.43273,284.44646 0.71061,5.93954"
     style="stroke:#000000;stroke-width:0.2;stroke-dasharray:none"
     id="path3637" />
  <path
     d="m -437.53263,-125.51647 -0.007,0.004 m 0,0 -0.007,0.005 m 0,0 -0.007,0.005 m 0,0 -0.007,0.005 m 0,0 -0.007,0.006 m 0,0 -0.007,0.006 m 0,0 -0.007,0.006 m 0,0 -0.007,0.007 m 0,0 -0.006,0.007 m 0,0 -0.006,0.007 m 0,0 -0.006,0.008 m 0,0 -0.006,0.008 m 0,0 -0.006,0.008 m 0,0 -0.006,0.008 m 0,0 -0.005,0.008 m 0,0 -0.005,0.009 m 0,0 -0.005,0.009 m 0,0 -0.005,0.009 m 0,0 -0.004,0.009 m 0,0 -0.004,0.009 m 0,0 -0.004,0.009 m 0,0 -0.003,0.009 m 0,0 -0.003,0.009 m 0,0 -0.003,0.009 m 0,0 -0.002,0.009 m 0,0 -0.002,0.009 m 0,0 -0.002,0.009 m 0,0 -0.001,0.009 m 0,0 -10e-4,0.009 m 0,0 -6.7e-4,0.009 m 0,0 -3.3e-4,0.008 m 0,0 -3e-5,0.003"
     style="stroke:#000000;stroke-width:0.2;stroke-dasharray:none"
     id="path3639" />
  <path
     d="m -436.96344,-117.86229 0.003,0.0223 m 0,0 0.004,0.0215 m 0,0 0.005,0.0206 m 0,0 0.006,0.0197 m 0,0 0.007,0.0187 m 0,0 0.008,0.0177 m 0,0 0.009,0.0166 m 0,0 0.0102,0.0156 m 0,0 0.0111,0.0144 m 0,0 0.012,0.0132 m 0,0 0.0129,0.012 m 0,0 0.0137,0.0108 m 0,0 0.0145,0.009 m 0,0 0.002,10e-4"
     style="stroke:#000000;stroke-width:0.2;stroke-dasharray:none"
     id="path3641" />
  <path
     d="m 270.14334,290.386 0.003,0.0223 m 0,0 0.004,0.0215 m 0,0 0.005,0.0206 m 0,0 0.006,0.0197 m 0,0 0.007,0.0187 m 0,0 0.008,0.0177 m 0,0 0.009,0.0167 m 0,0 0.0102,0.0156 m 0,0 0.0112,0.0144 m 0,0 0.012,0.0132 m 0,0 0.0129,0.012 m 0,0 0.0137,0.0108 m 0,0 0.0145,0.009 m 0,0 0.002,10e-4"
     style="stroke:#000000;stroke-width:0.2;stroke-dasharray:none"
     id="path3643" />
  <path
     d="m 270.2641,290.5999 0.002,0.001"
     style="stroke:#000000;stroke-width:0.2;stroke-dasharray:none"
     id="path3645" />
  <path
     d="m 270.5641,258.72682 -0.0212,0.0129 m 0,0 -0.0211,0.014 m 0,0 -0.0211,0.0152 m 0,0 -0.0209,0.0163 m 0,0 -0.0207,0.0174 m 0,0 -0.0204,0.0184 m 0,0 -0.0201,0.0194 m 0,0 -0.0197,0.0204 m 0,0 -0.0193,0.0213 m 0,0 -0.0189,0.0221 m 0,0 -0.0183,0.0229 m 0,0 -0.0178,0.0236 m 0,0 -0.0172,0.0243 m 0,0 -0.0166,0.0249 m 0,0 -0.0159,0.0254 m 0,0 -0.0151,0.0259 m 0,0 -0.0144,0.0263 m 0,0 -0.0136,0.0266 m 0,0 -0.0128,0.0269 m 0,0 -0.0119,0.0271 m 0,0 -0.011,0.0273 m 0,0 -0.0101,0.0274 m 0,0 -0.009,0.0274 m 0,0 -0.008,0.0273 m 0,0 -0.007,0.0272 m 0,0 -0.006,0.027 m 0,0 -0.005,0.0267 m 0,0 -0.004,0.0264 m 0,0 -0.003,0.022"
     style="stroke:#000000;stroke-width:0.2;stroke-dasharray:none"
     id="path3647" />
  <path
     d="m -437.67405,-142.09135 0.71061,-6.76008"
     style="stroke:#000000;stroke-width:0.2;stroke-dasharray:none"
     id="path3649" />
  <path
     d="m -436.54268,-149.52147 0.14142,-0.0816"
     style="stroke:#000000;stroke-width:0.2;stroke-dasharray:none"
     id="path3651" />
  <path
     d="M -436.84268,-117.64839 270.2641,290.5999"
     style="stroke:#000000;stroke-width:0.2;stroke-dasharray:none"
     id="path3653" />
  <path
     d="M -437.63263,-140.5301 269.43273,267.69427"
     style="stroke:#000000;stroke-width:0.2;stroke-dasharray:none"
     id="path3655" />
  <path
     d="m -436.51554,-138.99526 -0.22224,0.62523 m 0,0 -0.20045,0.62486 m 0,0 -0.17817,0.62292 m 0,0 -0.15543,0.61943 m 0,0 -0.13232,0.61439 m 0,0 -0.10886,0.60781 m 0,0 -0.0851,0.59972 m 0,0 -0.0612,0.59012 m 0,0 -0.0371,0.57905 m 0,0 -0.0129,0.56654 m 0,0 0.0113,0.5526 m 0,0 0.0355,0.53729 m 0,0 0.0596,0.52064 m 0,0 0.0835,0.50267 m 0,0 0.10726,0.48346 m 0,0 0.13073,0.46304 m 0,0 0.15387,0.44146 m 0,0 0.17664,0.41877 m 0,0 0.19896,0.39504 m 0,0 0.22077,0.37032 m 0,0 0.0158,0.0242"
     style="stroke:#000000;stroke-width:0.2;stroke-dasharray:none"
     id="path3657" />
  <path
     d="m -436.47197,-128.06447 v 0.95583"
     style="stroke:#000000;stroke-width:0.2;stroke-dasharray:none"
     id="path3659" />
  <path
     d="m -436.51554,-138.99526 0.008,-0.0228 m 0,0 0.007,-0.0228 m 0,0 0.007,-0.0227 m 0,0 0.006,-0.0226 m 0,0 0.005,-0.0224 m 0,0 0.004,-0.0222 m 0,0 0.003,-0.0219 m 0,0 0.002,-0.0215 m 0,0 0.001,-0.0211 m 0,0 4.7e-4,-0.0207 m 0,0 v -6.9e-4"
     style="stroke:#000000;stroke-width:0.2;stroke-dasharray:none"
     id="path3661" />
  <path
     d="m -436.47197,-127.10864 4.5e-4,0.0202 m 0,0 10e-4,0.0196 m 0,0 0.002,0.019 m 0,0 0.003,0.0183 m 0,0 0.004,0.0176 m 0,0 0.005,0.0169 m 0,0 0.006,0.0161 m 0,0 0.006,0.0153 m 0,0 0.007,0.0144 m 0,0 0.008,0.0135 m 0,0 0.009,0.0125 m 0,0 0.01,0.0116 m 0,0 0.0103,0.0106 m 0,0 0.011,0.01 m 0,0 0.0117,0.009 m 0,0 0.009,0.005"
     style="stroke:#000000;stroke-width:0.2;stroke-dasharray:none"
     id="path3663" />
  <path
     d="m -436.47197,-139.85999 v 0.64324"
     style="stroke:#000000;stroke-width:0.2;stroke-dasharray:none"
     id="path3665" />
  <path
     d="m -436.47197,-128.06447 -4.4e-4,-0.0202 m 0,0 -10e-4,-0.0196 m 0,0 -0.002,-0.019 m 0,0 -0.003,-0.0183 m 0,0 -0.004,-0.0176 m 0,0 -0.005,-0.0169 m 0,0 -0.006,-0.0161 m 0,0 -0.006,-0.0153 m 0,0 -0.007,-0.0144 m 0,0 -0.008,-0.0135 m 0,0 -2.9e-4,-4.4e-4"
     style="stroke:#000000;stroke-width:0.2;stroke-dasharray:none"
     id="path3667" />
  <path
     d="m 269.43273,274.34686 -0.0293,0.57515 m 0,0 -0.005,0.56216 m 0,0 0.0192,0.54778 m 0,0 0.0152,0.22459"
     style="stroke:#000000;stroke-width:0.2;stroke-dasharray:none"
     id="path3669" />
  <path
     d="M 269.43273,280.61473 -436.36841,-126.87975"
     style="stroke:#000000;stroke-width:0.2;stroke-dasharray:none"
     id="path3671" />
  <path
     d="m 279.75649,264.12668 0.0612,-0.0353"
     style="stroke:#000000;stroke-width:0.2;stroke-dasharray:none"
     id="path3673" />
  <path
     d="m 270.70553,258.64517 -0.14143,0.0816"
     style="stroke:#000000;stroke-width:0.2;stroke-dasharray:none"
     id="path3675" />
  <path
     d="m 269.43273,266.15694 v 18.28952"
     style="stroke:#000000;stroke-width:0.2;stroke-dasharray:none"
     id="path3677" />
  <path
     d="m 270.14334,290.386 0.003,0.0223 m 0,0 0.004,0.0215 m 0,0 0.005,0.0206 m 0,0 0.006,0.0197 m 0,0 0.007,0.0187 m 0,0 0.008,0.0177 m 0,0 0.009,0.0167 m 0,0 0.0102,0.0156 m 0,0 0.0112,0.0144 m 0,0 0.012,0.0132 m 0,0 0.0129,0.012 m 0,0 0.0137,0.0108 m 0,0 0.0145,0.009 m 0,0 0.004,0.002"
     style="stroke:#000000;stroke-width:0.2;stroke-dasharray:none"
     id="path3679" />
  <path
     d="m 279.0463,264.46018 0.0238,-0.009 m 0,0 0.0244,-0.01 m 0,0 0.025,-0.0102 m 0,0 0.0256,-0.0105 m 0,0 0.026,-0.0109 m 0,0 0.0264,-0.0112 m 0,0 0.0268,-0.0115 m 0,0 0.027,-0.0117 m 0,0 0.0272,-0.012 m 0,0 0.0274,-0.0122 m 0,0 0.0274,-0.0123 m 0,0 0.0274,-0.0125 m 0,0 0.0274,-0.0126 m 0,0 0.0272,-0.0127 m 0,0 0.027,-0.0127 m 0,0 0.0267,-0.0127 m 0,0 0.0264,-0.0127 m 0,0 0.026,-0.0127 m 0,0 0.0255,-0.0126 m 0,0 0.025,-0.0125 m 0,0 0.0244,-0.0123 m 0,0 0.0237,-0.0121 m 0,0 0.023,-0.0119 m 0,0 0.0222,-0.0117 m 0,0 0.0214,-0.0114 m 0,0 0.0205,-0.0111 m 0,0 0.0196,-0.0108 m 0,0 0.0186,-0.0105 m 0,0 0.0112,-0.006"
     style="stroke:#000000;stroke-width:0.2;stroke-dasharray:none"
     id="path3681" />
  <path
     d="m 270.14334,259.39686 -0.71061,6.76008"
     style="stroke:#000000;stroke-width:0.2;stroke-dasharray:none"
     id="path3683" />
  <path
     d="m 279.81769,295.74945 -0.0612,0.0353"
     style="stroke:#000000;stroke-width:0.2;stroke-dasharray:none"
     id="path3685" />
  <path
     d="m 269.43273,284.44646 2.13984,1.21268"
     style="stroke:#000000;stroke-width:0.2;stroke-dasharray:none"
     id="path3687" />
  <path
     d="m 279.0463,295.42652 -7.47373,-9.76738"
     style="stroke:#000000;stroke-width:0.2;stroke-dasharray:none"
     id="path3689" />
  <path
     d="m 270.5641,258.72682 -0.0212,0.0129 m 0,0 -0.0211,0.014 m 0,0 -0.0211,0.0152 m 0,0 -0.0209,0.0163 m 0,0 -0.0207,0.0174 m 0,0 -0.0204,0.0184 m 0,0 -0.0201,0.0194 m 0,0 -0.0197,0.0204 m 0,0 -0.0193,0.0213 m 0,0 -0.0189,0.0221 m 0,0 -0.0183,0.0229 m 0,0 -0.0178,0.0236 m 0,0 -0.0172,0.0243 m 0,0 -0.0166,0.0249 m 0,0 -0.0159,0.0254 m 0,0 -0.0151,0.0259 m 0,0 -0.0144,0.0263 m 0,0 -0.0136,0.0266 m 0,0 -0.0128,0.0269 m 0,0 -0.0119,0.0271 m 0,0 -0.011,0.0273 m 0,0 -0.0101,0.0274 m 0,0 -0.009,0.0274 m 0,0 -0.008,0.0273 m 0,0 -0.007,0.0272 m 0,0 -0.006,0.027 m 0,0 -0.005,0.0267 m 0,0 -0.004,0.0264 m 0,0 -0.003,0.022"
     style="stroke:#000000;stroke-width:0.2;stroke-dasharray:none"
     id="path3691" />
  <path
     d="m 279.39366,295.74156 0.0272,0.0146 m 0,0 0.027,0.013 m 0,0 0.0267,0.0115 m 0,0 0.0263,0.01 m 0,0 0.0259,0.008 m 0,0 0.0254,0.007 m 0,0 0.0248,0.005 m 0,0 0.0242,0.003 m 0,0 0.0236,0.002 m 0,0 0.0228,-1.4e-4 m 0,0 0.022,-0.002 m 0,0 0.0212,-0.004 m 0,0 0.0203,-0.005 m 0,0 0.0194,-0.007 m 0,0 0.0183,-0.009 m 0,0 0.008,-0.004"
     style="stroke:#000000;stroke-width:0.2;stroke-dasharray:none"
     id="path3693" />
  <path
     d="m 279.0463,295.42652 0.0238,0.0303 m 0,0 0.0244,0.0295 m 0,0 0.025,0.0286 m 0,0 0.0256,0.0276 m 0,0 0.026,0.0266 m 0,0 0.0264,0.0256 m 0,0 0.0268,0.0244 m 0,0 0.027,0.0232 m 0,0 0.0272,0.022 m 0,0 0.0274,0.0206 m 0,0 0.0274,0.0193 m 0,0 0.0274,0.0179 m 0,0 0.0274,0.0164 m 0,0 0.005,0.003"
     style="stroke:#000000;stroke-width:0.2;stroke-dasharray:none"
     id="path3695" />
  <path
     d="m 270.70553,258.64517 9.11216,5.44617"
     style="stroke:#000000;stroke-width:0.2;stroke-dasharray:none"
     id="path3697" />
  <path
     d="M 279.81769,295.74945 V 264.09134"
     style="stroke:#000000;stroke-width:0.2;stroke-dasharray:none"
     id="path3699" />
  <path
     d="m 269.43273,266.15694 2.13984,1.21543"
     style="stroke:#000000;stroke-width:0.2;stroke-dasharray:none"
     id="path3701" />
  <path
     d="m 271.57257,267.37237 7.47373,-2.91219"
     style="stroke:#000000;stroke-width:0.2;stroke-dasharray:none"
     id="path3703" />
  <path
     d="M 271.57257,285.65914 V 267.37237"
     style="stroke:#000000;stroke-width:0.2;stroke-dasharray:none"
     id="path3705" />
  <path
     d="m 269.43273,284.44646 0.71061,5.93954"
     style="stroke:#000000;stroke-width:0.2;stroke-dasharray:none"
     id="path3707" />
  <path
     d="m 279.39366,295.74156 -9.1277,-5.1406"
     style="stroke:#000000;stroke-width:0.2;stroke-dasharray:none"
     id="path3709" />
  <path
     d="m -445.67386,-154.7714 -0.0612,0.0353"
     style="stroke:#000000;stroke-width:0.2;stroke-dasharray:none"
     id="path3711" />
  <path
     d="m -436.96344,-117.86229 -0.71061,-5.93954"
     style="stroke:#000000;stroke-width:0.2;stroke-dasharray:none"
     id="path3713" />
  <path
     d="m -437.67405,-123.80183 v -8.18992"
     style="stroke:#000000;stroke-width:0.2;stroke-dasharray:none"
     id="path3715" />
  <path
     d="m -437.67405,-133.90143 v -8.18992"
     style="stroke:#000000;stroke-width:0.2;stroke-dasharray:none"
     id="path3717" />
  <path
     d="m -436.84268,-117.64839 -0.002,-10e-4"
     style="stroke:#000000;stroke-width:0.2;stroke-dasharray:none"
     id="path3719" />
  <path
     d="m -436.96344,-117.86229 0.003,0.0223 m 0,0 0.004,0.0215 m 0,0 0.005,0.0206 m 0,0 0.006,0.0197 m 0,0 0.007,0.0187 m 0,0 0.008,0.0177 m 0,0 0.009,0.0166 m 0,0 0.0102,0.0156 m 0,0 0.0111,0.0144 m 0,0 0.012,0.0132 m 0,0 0.0129,0.012 m 0,0 0.0137,0.0108 m 0,0 0.0145,0.009 m 0,0 2.2e-4,1.2e-4"
     style="stroke:#000000;stroke-width:0.2;stroke-dasharray:none"
     id="path3721" />
  <path
     d="m -436.54268,-149.52147 0.14142,-0.0816"
     style="stroke:#000000;stroke-width:0.2;stroke-dasharray:none"
     id="path3723" />
  <path
     d="m -437.67405,-123.80183 -2.10281,-1.23681"
     style="stroke:#000000;stroke-width:0.2;stroke-dasharray:none"
     id="path3725" />
  <path
     d="m -436.40126,-149.60312 -9.2726,-5.16828"
     style="stroke:#000000;stroke-width:0.2;stroke-dasharray:none"
     id="path3727" />
  <path
     d="m -445.71362,-153.98016 5.93676,10.65475"
     style="stroke:#000000;stroke-width:0.2;stroke-dasharray:none"
     id="path3729" />
  <path
     d="m -437.67405,-142.09135 -2.10281,-1.23406"
     style="stroke:#000000;stroke-width:0.2;stroke-dasharray:none"
     id="path3731" />
  <path
     d="m -437.67405,-142.09135 0.71061,-6.76008"
     style="stroke:#000000;stroke-width:0.2;stroke-dasharray:none"
     id="path3733" />
  <path
     d="m -445.85663,-122.98184 0.003,0.001 m 0,0 0.005,6.4e-4 m 0,0 h 0.006 m 0,0 0.007,-6.3e-4 m 0,0 0.009,-0.001 m 0,0 0.01,-0.002 m 0,0 0.0113,-0.003 m 0,0 0.0125,-0.003 m 0,0 0.0137,-0.004 m 0,0 0.0149,-0.004 m 0,0 0.016,-0.005 m 0,0 0.0171,-0.006 m 0,0 0.0173,-0.006"
     style="stroke:#000000;stroke-width:0.2;stroke-dasharray:none"
     id="path3735" />
  <path
     d="m -445.85926,-122.98615 6.8e-4,0.002 m 0,0 0.002,0.002"
     style="stroke:#000000;stroke-width:0.2;stroke-dasharray:none"
     id="path3737" />
  <path
     d="m -436.54268,-149.52147 -0.0212,0.0128 m 0,0 -0.0212,0.014 m 0,0 -0.0211,0.0152 m 0,0 -0.0209,0.0163 m 0,0 -0.0207,0.0174 m 0,0 -0.0204,0.0184 m 0,0 -0.0201,0.0194 m 0,0 -0.0197,0.0204 m 0,0 -0.0193,0.0212 m 0,0 -0.0189,0.0221 m 0,0 -0.0183,0.0229 m 0,0 -0.0178,0.0236 m 0,0 -0.0172,0.0243 m 0,0 -0.0166,0.0249 m 0,0 -0.0159,0.0254 m 0,0 -0.0152,0.0259 m 0,0 -0.0144,0.0263 m 0,0 -0.0136,0.0267 m 0,0 -0.0128,0.0269 m 0,0 -0.0119,0.0271 m 0,0 -0.011,0.0273 m 0,0 -0.0101,0.0274 m 0,0 -0.009,0.0274 m 0,0 -0.008,0.0273 m 0,0 -0.007,0.0272 m 0,0 -0.006,0.027 m 0,0 -0.005,0.0267 m 0,0 -0.004,0.0264 m 0,0 -0.003,0.022"
     style="stroke:#000000;stroke-width:0.2;stroke-dasharray:none"
     id="path3739" />
  <path
     d="m -439.77686,-125.03864 -5.93676,2.02483"
     style="stroke:#000000;stroke-width:0.2;stroke-dasharray:none"
     id="path3741" />
  <path
     d="m -439.77686,-143.32541 v 18.28677"
     style="stroke:#000000;stroke-width:0.2;stroke-dasharray:none"
     id="path3743" />
  <path
     d="m -445.73507,-154.73607 -0.0168,0.0108 m 0,0 -0.0157,0.0124 m 0,0 -0.0146,0.014 m 0,0 -0.0134,0.0155 m 0,0 -0.0122,0.017 m 0,0 -0.011,0.0184 m 0,0 -0.01,0.0198 m 0,0 -0.008,0.0212 m 0,0 -0.007,0.0225 m 0,0 -0.006,0.0237 m 0,0 -0.004,0.0249 m 0,0 -0.003,0.026 m 0,0 -0.002,0.0271 m 0,0 -3.6e-4,0.0202"
     style="stroke:#000000;stroke-width:0.2;stroke-dasharray:none"
     id="path3745" />
  <path
     d="m -445.85926,-154.46254 6.8e-4,0.0287 m 0,0 0.002,0.0296 m 0,0 0.003,0.0304 m 0,0 0.005,0.0311 m 0,0 0.006,0.0317 m 0,0 0.007,0.0323 m 0,0 0.009,0.0327 m 0,0 0.0101,0.0331 m 0,0 0.0113,0.0334 m 0,0 0.0125,0.0337 m 0,0 0.0138,0.0338 m 0,0 0.0149,0.0339 m 0,0 0.0161,0.0338 m 0,0 0.0171,0.0337 m 0,0 0.0166,0.0306"
     style="stroke:#000000;stroke-width:0.2;stroke-dasharray:none"
     id="path3747" />
  <path
     d="m -445.85926,-122.98615 v -31.47639"
     style="stroke:#000000;stroke-width:0.2;stroke-dasharray:none"
     id="path3749" />
  <path
     d="m -445.85663,-122.98184 9.01211,5.33237"
     style="stroke:#000000;stroke-width:0.2;stroke-dasharray:none"
     id="path3751" />
  <path
     d="m 279.81769,295.74945 -0.0612,0.0353"
     style="stroke:#000000;stroke-width:0.2;stroke-dasharray:none"
     id="path3753" />
  <path
     d="m 270.14334,259.39686 -0.71061,6.76008"
     style="stroke:#000000;stroke-width:0.2;stroke-dasharray:none"
     id="path3755" />
  <path
     d="m 269.43273,266.15694 v 18.28952"
     style="stroke:#000000;stroke-width:0.2;stroke-dasharray:none"
     id="path3757" />
  <path
     d="m 270.5641,258.72682 -0.0212,0.0129 m 0,0 -0.0211,0.014 m 0,0 -0.0211,0.0152 m 0,0 -0.0209,0.0163 m 0,0 -0.0207,0.0174 m 0,0 -0.0204,0.0184 m 0,0 -0.0201,0.0194 m 0,0 -0.0197,0.0204 m 0,0 -0.0193,0.0213 m 0,0 -0.0189,0.0221 m 0,0 -0.0183,0.0229 m 0,0 -0.0178,0.0236 m 0,0 -0.0172,0.0243 m 0,0 -0.0166,0.0249 m 0,0 -0.0159,0.0254 m 0,0 -0.0151,0.0259 m 0,0 -0.0144,0.0263 m 0,0 -0.0136,0.0266 m 0,0 -0.0128,0.0269 m 0,0 -0.0119,0.0271 m 0,0 -0.011,0.0273 m 0,0 -0.0101,0.0274 m 0,0 -0.009,0.0274 m 0,0 -0.008,0.0273 m 0,0 -0.007,0.0272 m 0,0 -0.006,0.027 m 0,0 -0.005,0.0267 m 0,0 -0.004,0.0264 m 0,0 -0.003,0.022"
     style="stroke:#000000;stroke-width:0.2;stroke-dasharray:none"
     id="path3759" />
  <path
     d="m 269.43273,266.15694 2.13984,1.21543"
     style="stroke:#000000;stroke-width:0.2;stroke-dasharray:none"
     id="path3761" />
  <path
     d="m 270.70553,258.64517 9.11216,5.44617"
     style="stroke:#000000;stroke-width:0.2;stroke-dasharray:none"
     id="path3763" />
  <path
     d="M 279.81769,295.74945 V 264.09134"
     style="stroke:#000000;stroke-width:0.2;stroke-dasharray:none"
     id="path3765" />
  <path
     d="m 279.0463,295.42652 -7.47373,-9.76738"
     style="stroke:#000000;stroke-width:0.2;stroke-dasharray:none"
     id="path3767" />
  <path
     d="m 269.43273,284.44646 2.13984,1.21268"
     style="stroke:#000000;stroke-width:0.2;stroke-dasharray:none"
     id="path3769" />
  <path
     d="m 270.70553,258.64517 -0.14143,0.0816"
     style="stroke:#000000;stroke-width:0.2;stroke-dasharray:none"
     id="path3771" />
  <path
     d="m 269.43273,284.44646 0.71061,5.93954"
     style="stroke:#000000;stroke-width:0.2;stroke-dasharray:none"
     id="path3773" />
  <path
     d="m 279.0463,264.46018 0.0238,-0.009 m 0,0 0.0244,-0.01 m 0,0 0.025,-0.0102 m 0,0 0.0256,-0.0105 m 0,0 0.026,-0.0109 m 0,0 0.0264,-0.0112 m 0,0 0.0268,-0.0115 m 0,0 0.027,-0.0117 m 0,0 0.0272,-0.012 m 0,0 0.0274,-0.0122 m 0,0 0.0274,-0.0123 m 0,0 0.0274,-0.0125 m 0,0 0.0274,-0.0126 m 0,0 0.0272,-0.0127 m 0,0 0.027,-0.0127 m 0,0 0.0267,-0.0127 m 0,0 0.0264,-0.0127 m 0,0 0.026,-0.0127 m 0,0 0.0255,-0.0126 m 0,0 0.025,-0.0125 m 0,0 0.0244,-0.0123 m 0,0 0.0237,-0.0121 m 0,0 0.023,-0.0119 m 0,0 0.0222,-0.0117 m 0,0 0.0214,-0.0114 m 0,0 0.0205,-0.0111 m 0,0 0.0196,-0.0108 m 0,0 0.0186,-0.0105 m 0,0 0.0112,-0.006"
     style="stroke:#000000;stroke-width:0.2;stroke-dasharray:none"
     id="path3775" />
  <path
     d="m 270.14334,290.386 0.003,0.0223 m 0,0 0.004,0.0215 m 0,0 0.005,0.0206 m 0,0 0.006,0.0197 m 0,0 0.007,0.0187 m 0,0 0.008,0.0177 m 0,0 0.009,0.0167 m 0,0 0.0102,0.0156 m 0,0 0.0112,0.0144 m 0,0 0.012,0.0132 m 0,0 0.0129,0.012 m 0,0 0.0137,0.0108 m 0,0 0.0145,0.009 m 0,0 0.004,0.002"
     style="stroke:#000000;stroke-width:0.2;stroke-dasharray:none"
     id="path3777" />
  <path
     d="m 271.57257,267.37237 7.47373,-2.91219"
     style="stroke:#000000;stroke-width:0.2;stroke-dasharray:none"
     id="path3779" />
  <path
     d="M 271.57257,285.65914 V 267.37237"
     style="stroke:#000000;stroke-width:0.2;stroke-dasharray:none"
     id="path3781" />
  <path
     d="m 279.75649,264.12668 0.0612,-0.0353"
     style="stroke:#000000;stroke-width:0.2;stroke-dasharray:none"
     id="path3783" />
  <path
     d="m 279.39366,295.74156 0.0272,0.0146 m 0,0 0.027,0.013 m 0,0 0.0267,0.0115 m 0,0 0.0263,0.01 m 0,0 0.0259,0.008 m 0,0 0.0254,0.007 m 0,0 0.0248,0.005 m 0,0 0.0242,0.003 m 0,0 0.0236,0.002 m 0,0 0.0228,-1.4e-4 m 0,0 0.022,-0.002 m 0,0 0.0212,-0.004 m 0,0 0.0203,-0.005 m 0,0 0.0194,-0.007 m 0,0 0.0183,-0.009 m 0,0 0.008,-0.004"
     style="stroke:#000000;stroke-width:0.2;stroke-dasharray:none"
     id="path3785" />
  <path
     d="m 279.0463,295.42652 0.0238,0.0303 m 0,0 0.0244,0.0295 m 0,0 0.025,0.0286 m 0,0 0.0256,0.0276 m 0,0 0.026,0.0266 m 0,0 0.0264,0.0256 m 0,0 0.0268,0.0244 m 0,0 0.027,0.0232 m 0,0 0.0272,0.022 m 0,0 0.0274,0.0206 m 0,0 0.0274,0.0193 m 0,0 0.0274,0.0179 m 0,0 0.0274,0.0164 m 0,0 0.005,0.003"
     style="stroke:#000000;stroke-width:0.2;stroke-dasharray:none"
     id="path3787" />
  <path
     d="m 279.39366,295.74156 -9.1277,-5.1406"
     style="stroke:#000000;stroke-width:0.2;stroke-dasharray:none"
     id="path3789" />
  <path
     d="m 366.8052,328.44895 0.0704,0.0367 m 0,0 0.0737,0.0306 m 0,0 0.0768,0.0245 m 0,0 0.0797,0.0183 m 0,0 0.0824,0.0121 m 0,0 0.0848,0.006 m 0,0 0.0871,-4.1e-4 m 0,0 0.0891,-0.007 m 0,0 0.091,-0.0129 m 0,0 0.0926,-0.0192 m 0,0 0.0939,-0.0253 m 0,0 0.0951,-0.0315 m 0,0 0.096,-0.0375 m 0,0 0.0966,-0.0434 m 0,0 0.097,-0.0493 m 0,0 0.0688,-0.0383"
     style="stroke:#000000;stroke-width:0.2;stroke-dasharray:none"
     id="path3791" />
  <path
     d="m 369.5552,323.68581 -0.0704,-0.0367 m 0,0 -0.0737,-0.0307 m 0,0 -0.0768,-0.0245 m 0,0 -0.0797,-0.0184 m 0,0 -0.0823,-0.0121 m 0,0 -0.0848,-0.006 m 0,0 -0.0871,4.1e-4 m 0,0 -0.0892,0.007 m 0,0 -0.091,0.0129 m 0,0 -0.0926,0.0192 m 0,0 -0.0939,0.0253 m 0,0 -0.0951,0.0315 m 0,0 -0.096,0.0375 m 0,0 -0.0966,0.0434 m 0,0 -0.097,0.0493 m 0,0 -0.0972,0.055 m 0,0 -0.0971,0.0605 m 0,0 -0.0968,0.0659 m 0,0 -0.0963,0.0712 m 0,0 -0.0955,0.0763 m 0,0 -0.0944,0.0812 m 0,0 -0.0932,0.0858 m 0,0 -0.0917,0.0903 m 0,0 -0.0899,0.0946 m 0,0 -0.088,0.0986 m 0,0 -0.0858,0.10232 m 0,0 -0.0834,0.10583 m 0,0 -0.0808,0.10907 m 0,0 -0.078,0.11204 m 0,0 -0.075,0.11472 m 0,0 -0.0718,0.11713 m 0,0 -0.0685,0.11923 m 0,0 -0.0649,0.12104 m 0,0 -0.0612,0.12255 m 0,0 -0.0574,0.12375 m 0,0 -0.0534,0.12464 m 0,0 -0.0492,0.12522 m 0,0 -0.045,0.12549 m 0,0 -0.0406,0.12544 m 0,0 -0.0362,0.12508 m 0,0 -0.0316,0.1244 m 0,0 -0.027,0.12343 m 0,0 -0.0223,0.12213 m 0,0 -0.0175,0.12053 m 0,0 -0.0127,0.11864 m 0,0 -0.008,0.11644 m 0,0 -0.003,0.11395 m 0,0 0.002,0.11118 m 0,0 0.007,0.10813 m 0,0 0.0115,0.10481 m 0,0 0.0163,0.10123 m 0,0 0.0211,0.0974 m 0,0 0.0258,0.0933 m 0,0 0.0305,0.089 m 0,0 0.0351,0.0845 m 0,0 0.0395,0.0797 m 0,0 0.0439,0.0748 m 0,0 0.0482,0.0696 m 0,0 0.0524,0.0644 m 0,0 0.0564,0.0589 m 0,0 0.0603,0.0533 m 0,0 0.064,0.0475 m 0,0 0.056,0.0351"
     style="stroke:#000000;stroke-width:0.2;stroke-dasharray:none"
     id="path3793" />
  <path
     d="m 370.07403,325.48338 0.0197,-0.1213 m 0,0 0.0149,-0.11953 m 0,0 0.0101,-0.11747 m 0,0 0.005,-0.11512 m 0,0 3.7e-4,-0.11247 m 0,0 -0.004,-0.10955 m 0,0 -0.009,-0.10635 m 0,0 -0.0142,-0.10289 m 0,0 -0.0189,-0.0992 m 0,0 -0.0237,-0.0952 m 0,0 -0.0284,-0.091 m 0,0 -0.033,-0.0866 m 0,0 -0.0375,-0.0819 m 0,0 -0.0419,-0.077 m 0,0 -0.0463,-0.072 m 0,0 -0.0505,-0.0668 m 0,0 -0.0546,-0.0614 m 0,0 -0.0585,-0.0558 m 0,0 -0.0623,-0.0502 m 0,0 -0.066,-0.0443 m 0,0 -0.0195,-0.0116"
     style="stroke:#000000;stroke-width:0.2;stroke-dasharray:none"
     id="path3795" />
  <path
     d="m 368.1802,328.31274 0.0972,-0.0589 m 0,0 0.0969,-0.0644 m 0,0 0.0965,-0.0697 m 0,0 0.0957,-0.0748 m 0,0 0.0494,-0.0409"
     style="stroke:#000000;stroke-width:0.2;stroke-dasharray:none"
     id="path3797" />
  <path
     d="m 279.81769,278.22669 86.98751,50.22226"
     style="stroke:#000000;stroke-width:0.2;stroke-dasharray:none"
     id="path3799" />
  <path
     d="m 279.81769,271.87583 89.73751,51.80998"
     style="stroke:#000000;stroke-width:0.2;stroke-dasharray:none"
     id="path3801" />
  <path
     d="m 373.08053,328.99865 0.0194,0.0104 m 0,0 0.0203,0.009 m 0,0 0.0211,0.007 m 0,0 0.022,0.005 m 0,0 0.0227,0.004 m 0,0 0.0234,0.002 m 0,0 0.024,3.8e-4 m 0,0 0.0246,-10e-4 m 0,0 0.0251,-0.003 m 0,0 0.0256,-0.005 m 0,0 0.026,-0.006 m 0,0 0.0263,-0.008 m 0,0 0.0265,-0.01 m 0,0 0.0267,-0.0113 m 0,0 0.0269,-0.0129 m 0,0 0.0234,-0.0125"
     style="stroke:#000000;stroke-width:0.2;stroke-dasharray:none"
     id="path3803" />
  <path
     d="m 373.84837,327.71008 -0.0194,-0.0104 m 0,0 -0.0203,-0.009 m 0,0 -0.0211,-0.007 m 0,0 -0.0219,-0.005 m 0,0 -0.0227,-0.004 m 0,0 -0.0234,-0.002 m 0,0 -0.024,-3.8e-4 m 0,0 -0.0246,10e-4 m 0,0 -0.0251,0.003 m 0,0 -0.0256,0.005 m 0,0 -0.026,0.006 m 0,0 -0.0263,0.008 m 0,0 -0.0265,0.01 m 0,0 -0.0267,0.0113 m 0,0 -0.0269,0.0129 m 0,0 -0.0269,0.0145 m 0,0 -0.0269,0.016 m 0,0 -0.0268,0.0175 m 0,0 -0.0267,0.019 m 0,0 -0.0265,0.0204 m 0,0 -0.0262,0.0217 m 0,0 -0.0259,0.023 m 0,0 -0.0255,0.0242 m 0,0 -0.025,0.0254 m 0,0 -0.0245,0.0265 m 0,0 -0.0239,0.0275 m 0,0 -0.0232,0.0285 m 0,0 -0.0225,0.0294 m 0,0 -0.0217,0.0302 m 0,0 -0.0209,0.031 m 0,0 -0.02,0.0317 m 0,0 -0.0191,0.0323 m 0,0 -0.0181,0.0328 m 0,0 -0.0171,0.0332 m 0,0 -0.0161,0.0336 m 0,0 -0.015,0.0338 m 0,0 -0.0138,0.034 m 0,0 -0.0127,0.0341 m 0,0 -0.0115,0.0341 m 0,0 -0.0102,0.034 m 0,0 -0.009,0.0339 m 0,0 -0.008,0.0336 m 0,0 -0.006,0.0333 m 0,0 -0.005,0.0329 m 0,0 -0.004,0.0324 m 0,0 -0.002,0.0318 m 0,0 -10e-4,0.0312 m 0,0 2.9e-4,0.0305 m 0,0 0.002,0.0297 m 0,0 0.003,0.0288 m 0,0 0.004,0.0278 m 0,0 0.006,0.0268 m 0,0 0.007,0.0257 m 0,0 0.008,0.0245 m 0,0 0.01,0.0233 m 0,0 0.0108,0.022 m 0,0 0.012,0.0207 m 0,0 0.0132,0.0194 m 0,0 0.0143,0.0179 m 0,0 0.0154,0.0164 m 0,0 0.0165,0.0149 m 0,0 0.0176,0.0134 m 0,0 0.0154,0.01"
     style="stroke:#000000;stroke-width:0.2;stroke-dasharray:none"
     id="path3805" />
  <path
     d="m 374.002,328.09264 10e-4,-0.0312 m 0,0 -3e-4,-0.0304 m 0,0 -0.002,-0.0296 m 0,0 -0.003,-0.0288 m 0,0 -0.004,-0.0278 m 0,0 -0.006,-0.0268 m 0,0 -0.007,-0.0257 m 0,0 -0.008,-0.0245 m 0,0 -0.01,-0.0233 m 0,0 -0.0108,-0.022 m 0,0 -0.012,-0.0207 m 0,0 -0.0132,-0.0193 m 0,0 -0.0143,-0.0179 m 0,0 -0.0155,-0.0164 m 0,0 -0.0165,-0.0149 m 0,0 -0.0176,-0.0134 m 0,0 -0.0152,-0.01"
     style="stroke:#000000;stroke-width:0.2;stroke-dasharray:none"
     id="path3807" />
  <path
     d="m 373.46445,328.96674 0.0257,-0.0151"
     style="stroke:#000000;stroke-width:0.2;stroke-dasharray:none"
     id="path3809" />
  <path
     d="m 368.55461,324.60195 c 0.46423,0.26865 0.91587,0.53045 1.34639,0.78077 0.53452,0.31079 1.03358,0.6023 1.49145,0.87139 0.45787,0.2691 0.87956,0.51851 1.28292,0.75793 0.40336,0.23942 0.78838,0.46885 1.173,0.69804"
     style="stroke:#000000;stroke-width:0.2;stroke-dasharray:none"
     id="path3811" />
  <path
     d="m 367.80417,325.90074 c 0.46331,0.26812 0.91381,0.52925 1.34287,0.77872 0.53304,0.30993 1.02972,0.60005 1.48538,0.86785 0.45567,0.2678 0.87537,0.51603 1.27732,0.75462 0.40195,0.23858 0.78617,0.46753 1.17079,0.69672"
     style="stroke:#000000;stroke-width:0.2;stroke-dasharray:none"
     id="path3813" />
  <path
     d="m 373.08053,330.63165 0.0194,0.0104 m 0,0 0.0203,0.009 m 0,0 0.0211,0.007 m 0,0 0.022,0.005 m 0,0 0.0227,0.004 m 0,0 0.0234,0.002 m 0,0 0.024,3.8e-4 m 0,0 0.0246,-10e-4 m 0,0 0.0251,-0.003 m 0,0 0.0256,-0.005 m 0,0 0.026,-0.006 m 0,0 0.0263,-0.008 m 0,0 0.0265,-0.01 m 0,0 0.0267,-0.0113 m 0,0 0.0269,-0.0129 m 0,0 0.0234,-0.0125"
     style="stroke:#000000;stroke-width:0.2;stroke-dasharray:none"
     id="path3815" />
  <path
     d="m 373.84837,329.34307 -0.0194,-0.0104 m 0,0 -0.0203,-0.009 m 0,0 -0.0211,-0.007 m 0,0 -0.0219,-0.005 m 0,0 -0.0227,-0.004 m 0,0 -0.0234,-0.002 m 0,0 -0.024,-3.8e-4 m 0,0 -0.0246,10e-4 m 0,0 -0.0251,0.003 m 0,0 -0.0256,0.005 m 0,0 -0.026,0.006 m 0,0 -0.0263,0.008 m 0,0 -0.0265,0.01 m 0,0 -0.0267,0.0113 m 0,0 -0.0269,0.0129 m 0,0 -0.0269,0.0145 m 0,0 -0.0269,0.016 m 0,0 -0.0268,0.0175 m 0,0 -0.0267,0.019 m 0,0 -0.0265,0.0204 m 0,0 -0.0262,0.0217 m 0,0 -0.0259,0.023 m 0,0 -0.0255,0.0242 m 0,0 -0.025,0.0254 m 0,0 -0.0245,0.0265 m 0,0 -0.0239,0.0275 m 0,0 -0.0232,0.0285 m 0,0 -0.0225,0.0294 m 0,0 -0.0217,0.0302 m 0,0 -0.0209,0.031 m 0,0 -0.02,0.0317 m 0,0 -0.0191,0.0323 m 0,0 -0.0181,0.0328 m 0,0 -0.0171,0.0332 m 0,0 -0.0161,0.0336 m 0,0 -0.015,0.0338 m 0,0 -0.0138,0.034 m 0,0 -0.0127,0.0341 m 0,0 -0.0115,0.0341 m 0,0 -0.0102,0.034 m 0,0 -0.009,0.0339 m 0,0 -0.008,0.0336 m 0,0 -0.006,0.0333 m 0,0 -0.005,0.0329 m 0,0 -0.004,0.0324 m 0,0 -0.002,0.0318 m 0,0 -10e-4,0.0312 m 0,0 2.9e-4,0.0305 m 0,0 0.002,0.0297 m 0,0 0.003,0.0288 m 0,0 0.004,0.0278 m 0,0 0.006,0.0268 m 0,0 0.007,0.0257 m 0,0 0.008,0.0245 m 0,0 0.01,0.0233 m 0,0 0.0108,0.022 m 0,0 0.012,0.0207 m 0,0 0.0132,0.0193 m 0,0 0.0143,0.0179 m 0,0 0.0154,0.0164 m 0,0 0.0165,0.0149 m 0,0 0.0176,0.0134 m 0,0 0.0154,0.01"
     style="stroke:#000000;stroke-width:0.2;stroke-dasharray:none"
     id="path3817" />
  <path
     d="m 374.002,329.72564 10e-4,-0.0312 m 0,0 -3e-4,-0.0304 m 0,0 -0.002,-0.0296 m 0,0 -0.003,-0.0288 m 0,0 -0.004,-0.0278 m 0,0 -0.006,-0.0268 m 0,0 -0.007,-0.0257 m 0,0 -0.008,-0.0245 m 0,0 -0.01,-0.0233 m 0,0 -0.0108,-0.022 m 0,0 -0.012,-0.0207 m 0,0 -0.0132,-0.0193 m 0,0 -0.0143,-0.0179 m 0,0 -0.0155,-0.0164 m 0,0 -0.0165,-0.0149 m 0,0 -0.0176,-0.0134 m 0,0 -0.0152,-0.01"
     style="stroke:#000000;stroke-width:0.2;stroke-dasharray:none"
     id="path3819" />
  <path
     d="m 373.46445,330.59973 0.0257,-0.0151"
     style="stroke:#000000;stroke-width:0.2;stroke-dasharray:none"
     id="path3821" />
  <path
     d="m 367.80417,327.53373 c 0.46331,0.26812 0.91381,0.52926 1.34287,0.77873 0.53304,0.30992 1.02972,0.60004 1.48538,0.86784 0.45567,0.2678 0.87537,0.51603 1.27732,0.75462 0.40195,0.23859 0.78617,0.46754 1.17079,0.69673"
     style="stroke:#000000;stroke-width:0.2;stroke-dasharray:none"
     id="path3823" />
  <path
     d="m 373.31616,329.02603 0.53221,0.31704"
     style="stroke:#000000;stroke-width:0.2;stroke-dasharray:none"
     id="path3825" />
  <path
     d="m 375.29606,330.02783 0.0129,0.007 m 0,0 0.0135,0.006 m 0,0 0.0141,0.005 m 0,0 0.0146,0.004 m 0,0 0.0151,0.003 m 0,0 0.0156,0.001 m 0,0 0.016,2.5e-4 m 0,0 0.0164,-8.8e-4 m 0,0 0.0168,-0.002 m 0,0 0.0171,-0.003 m 0,0 0.0173,-0.004 m 0,0 0.0175,-0.005 m 0,0 0.0177,-0.006 m 0,0 0.0178,-0.008 m 0,0 0.0179,-0.009 m 0,0 0.0179,-0.01 m 0,0 0.0179,-0.0107 m 0,0 0.0179,-0.0117 m 0,0 0.0178,-0.0126 m 0,0 0.0177,-0.0136 m 0,0 0.0175,-0.0145 m 0,0 0.0172,-0.0153 m 0,0 0.017,-0.0161 m 0,0 0.0167,-0.0169 m 0,0 0.0163,-0.0177 m 0,0 0.0159,-0.0183 m 0,0 0.0155,-0.019 m 0,0 0.015,-0.0196 m 0,0 0.0145,-0.0202 m 0,0 0.0139,-0.0207 m 0,0 0.0134,-0.0211 m 0,0 0.0127,-0.0215 m 0,0 0.0121,-0.0218 m 0,0 0.0114,-0.0221 m 0,0 0.0107,-0.0224 m 0,0 0.01,-0.0226 m 0,0 0.009,-0.0227 m 0,0 0.008,-0.0227 m 0,0 0.008,-0.0228 m 0,0 0.007,-0.0227 m 0,0 0.006,-0.0226 m 0,0 0.005,-0.0224 m 0,0 0.004,-0.0222 m 0,0 0.003,-0.0177"
     style="stroke:#000000;stroke-width:0.2;stroke-dasharray:none"
     id="path3827" />
  <path
     d="m 375.80795,329.16878 -0.0129,-0.007 m 0,0 -0.0135,-0.006 m 0,0 -0.0141,-0.005 m 0,0 -0.0146,-0.004 m 0,0 -0.0151,-0.003 m 0,0 -0.0156,-10e-4 m 0,0 -0.016,-2.6e-4 m 0,0 -0.0164,8.9e-4 m 0,0 -0.0168,0.002 m 0,0 -0.017,0.003 m 0,0 -0.0173,0.004 m 0,0 -0.0175,0.005 m 0,0 -0.0177,0.006 m 0,0 -0.0178,0.008 m 0,0 -0.0179,0.009 m 0,0 -0.0179,0.01 m 0,0 -0.0179,0.0107 m 0,0 -0.0179,0.0117 m 0,0 -0.0178,0.0126 m 0,0 -0.0177,0.0136 m 0,0 -0.0175,0.0145 m 0,0 -0.0172,0.0153 m 0,0 -0.017,0.0161 m 0,0 -0.0167,0.0169 m 0,0 -0.0163,0.0177 m 0,0 -0.0159,0.0184 m 0,0 -0.0155,0.019 m 0,0 -0.015,0.0196 m 0,0 -0.0145,0.0202 m 0,0 -0.0139,0.0207 m 0,0 -0.0134,0.0211 m 0,0 -0.0127,0.0215 m 0,0 -0.0121,0.0218 m 0,0 -0.0114,0.0221 m 0,0 -0.0107,0.0224 m 0,0 -0.01,0.0226 m 0,0 -0.009,0.0227 m 0,0 -0.008,0.0227 m 0,0 -0.008,0.0227 m 0,0 -0.007,0.0227 m 0,0 -0.006,0.0226 m 0,0 -0.005,0.0224 m 0,0 -0.004,0.0222 m 0,0 -0.003,0.0219 m 0,0 -0.002,0.0216 m 0,0 -0.002,0.0212 m 0,0 -7e-4,0.0208 m 0,0 1.9e-4,0.0203 m 0,0 0.001,0.0198 m 0,0 0.002,0.0192 m 0,0 0.003,0.0185 m 0,0 0.004,0.0179 m 0,0 0.005,0.0171 m 0,0 0.005,0.0164 m 0,0 0.006,0.0156 m 0,0 0.007,0.0147 m 0,0 0.008,0.0138 m 0,0 0.009,0.0129 m 0,0 0.01,0.012 m 0,0 0.0103,0.011 m 0,0 0.011,0.01 m 0,0 0.0117,0.009 m 0,0 0.0102,0.007"
     style="stroke:#000000;stroke-width:0.2;stroke-dasharray:none"
     id="path3829" />
  <path
     d="m 375.90568,329.47112 0.003,-0.0217 m 0,0 0.002,-0.0213 m 0,0 8.7e-4,-0.0209 m 0,0 -10e-6,-0.0204 m 0,0 -9.2e-4,-0.0199 m 0,0 -0.002,-0.0193 m 0,0 -0.003,-0.0187 m 0,0 -0.004,-0.018 m 0,0 -0.004,-0.0173 m 0,0 -0.005,-0.0165 m 0,0 -0.006,-0.0157 m 0,0 -0.007,-0.0149 m 0,0 -0.008,-0.014 m 0,0 -0.009,-0.0131 m 0,0 -0.009,-0.0121 m 0,0 -0.0102,-0.0112 m 0,0 -0.0109,-0.0102 m 0,0 -0.0116,-0.009 m 0,0 -0.0122,-0.008 m 0,0 -3.4e-4,-2e-4"
     style="stroke:#000000;stroke-width:0.2;stroke-dasharray:none"
     id="path3831" />
  <path
     d="m 373.20851,328.78389 2.08755,1.24394"
     style="stroke:#000000;stroke-width:0.2;stroke-dasharray:none"
     id="path3833" />
  <path
     d="m 373.7204,327.92484 2.08755,1.24394"
     style="stroke:#000000;stroke-width:0.2;stroke-dasharray:none"
     id="path3835" />
  <path
     d="m 375.80795,330.80177 -0.0129,-0.007 m 0,0 -0.0135,-0.006 m 0,0 -0.0141,-0.005 m 0,0 -0.0146,-0.004 m 0,0 -0.0151,-0.003 m 0,0 -0.0156,-10e-4 m 0,0 -0.016,-2.5e-4 m 0,0 -0.0164,8.8e-4 m 0,0 -0.0168,0.002 m 0,0 -0.017,0.003 m 0,0 -0.0173,0.004 m 0,0 -0.0175,0.005 m 0,0 -0.0177,0.006 m 0,0 -0.0178,0.008 m 0,0 -0.0179,0.009 m 0,0 -0.0179,0.01 m 0,0 -0.0179,0.0107 m 0,0 -0.0179,0.0117 m 0,0 -0.0178,0.0126 m 0,0 -0.0177,0.0136 m 0,0 -0.0175,0.0145 m 0,0 -0.0172,0.0153 m 0,0 -0.017,0.0161 m 0,0 -0.0167,0.0169 m 0,0 -0.0163,0.0177 m 0,0 -0.0159,0.0183 m 0,0 -0.0155,0.019 m 0,0 -0.015,0.0196 m 0,0 -0.0145,0.0202 m 0,0 -0.0139,0.0207 m 0,0 -0.0134,0.0211 m 0,0 -0.0127,0.0215 m 0,0 -0.0121,0.0218 m 0,0 -0.0114,0.0221 m 0,0 -0.0107,0.0224 m 0,0 -0.01,0.0226 m 0,0 -0.009,0.0227 m 0,0 -0.008,0.0227 m 0,0 -0.008,0.0227 m 0,0 -0.007,0.0227 m 0,0 -0.006,0.0226 m 0,0 -0.005,0.0224 m 0,0 -0.004,0.0222 m 0,0 -0.003,0.0219 m 0,0 -0.002,0.0216 m 0,0 -0.002,0.0212 m 0,0 -7e-4,0.0208 m 0,0 1.9e-4,0.0203 m 0,0 0.001,0.0198 m 0,0 0.002,0.0192 m 0,0 0.003,0.0185 m 0,0 0.004,0.0179 m 0,0 0.005,0.0171 m 0,0 0.005,0.0164 m 0,0 0.006,0.0155 m 0,0 0.007,0.0147 m 0,0 0.008,0.0138 m 0,0 0.009,0.0129 m 0,0 0.01,0.0119 m 0,0 0.008,0.008"
     style="stroke:#000000;stroke-width:0.2;stroke-dasharray:none"
     id="path3837" />
  <path
     d="m 375.29606,331.66082 0.0129,0.007 m 0,0 0.0135,0.006 m 0,0 0.0141,0.005 m 0,0 0.0146,0.004 m 0,0 0.0151,0.003 m 0,0 0.0156,0.001 m 0,0 0.016,2.5e-4 m 0,0 0.0164,-8.8e-4 m 0,0 0.0168,-0.002 m 0,0 0.0171,-0.003 m 0,0 0.0173,-0.004 m 0,0 0.0175,-0.005 m 0,0 0.0177,-0.006 m 0,0 0.0178,-0.008 m 0,0 0.0179,-0.009 m 0,0 0.0179,-0.01 m 0,0 0.0179,-0.0107 m 0,0 0.0179,-0.0117 m 0,0 0.0178,-0.0126 m 0,0 0.0177,-0.0136 m 0,0 0.0175,-0.0145 m 0,0 0.0172,-0.0153 m 0,0 0.017,-0.0161 m 0,0 0.0167,-0.0169 m 0,0 0.0163,-0.0177 m 0,0 0.0159,-0.0183 m 0,0 0.0155,-0.019 m 0,0 0.015,-0.0196 m 0,0 0.0145,-0.0202 m 0,0 0.0139,-0.0207 m 0,0 0.0134,-0.0211 m 0,0 0.0127,-0.0215 m 0,0 0.0121,-0.0219 m 0,0 0.0114,-0.0221 m 0,0 0.0107,-0.0224 m 0,0 0.01,-0.0225 m 0,0 0.009,-0.0227 m 0,0 0.008,-0.0227 m 0,0 0.008,-0.0227 m 0,0 0.007,-0.0227 m 0,0 0.006,-0.0226 m 0,0 0.005,-0.0224 m 0,0 0.004,-0.0222 m 0,0 0.003,-0.0219 m 0,0 0.002,-0.0216 m 0,0 0.002,-0.0212 m 0,0 7e-4,-0.0208 m 0,0 -1.9e-4,-0.0203 m 0,0 -0.001,-0.0198 m 0,0 -0.002,-0.0192 m 0,0 -0.003,-0.0185 m 0,0 -0.004,-0.0179 m 0,0 -0.005,-0.0171 m 0,0 -0.005,-0.0164 m 0,0 -0.006,-0.0156 m 0,0 -0.007,-0.0147 m 0,0 -0.008,-0.0138 m 0,0 -0.009,-0.0129 m 0,0 -0.01,-0.0119 m 0,0 -0.0103,-0.011 m 0,0 -0.011,-0.01 m 0,0 -0.0117,-0.009 m 0,0 -0.0102,-0.007"
     style="stroke:#000000;stroke-width:0.2;stroke-dasharray:none"
     id="path3839" />
  <path
     d="m 375.2605,331.63276 0.0108,0.0102 m 0,0 0.0115,0.009 m 0,0 0.0122,0.008 m 0,0 9.5e-4,5.7e-4"
     style="stroke:#000000;stroke-width:0.2;stroke-dasharray:none"
     id="path3841" />
  <path
     d="m 373.7204,329.55783 2.08755,1.24394"
     style="stroke:#000000;stroke-width:0.2;stroke-dasharray:none"
     id="path3843" />
  <path
     d="m 373.20851,330.41688 2.08755,1.24394"
     style="stroke:#000000;stroke-width:0.2;stroke-dasharray:none"
     id="path3845" />
  <path
     d="M 269.43273,282.65017 -437.53263,-125.51647"
     style="stroke:#000000;stroke-width:0.2;stroke-dasharray:none"
     id="path3847" />
  <path
     d="M -436.54268,-149.52147 270.5641,258.72682"
     style="stroke:#000000;stroke-width:0.2;stroke-dasharray:none"
     id="path3849" />
  <path
     d="M -436.96344,-117.86229 270.14334,290.386"
     style="stroke:#000000;stroke-width:0.2;stroke-dasharray:none"
     id="path3851" />
  <path
     d="M -437.67405,-125.27152 269.43273,282.97677"
     style="stroke:#000000;stroke-width:0.2;stroke-dasharray:none"
     id="path3853" />
  <path
     d="M 269.43273,267.62663 -437.67405,-140.62166"
     style="stroke:#000000;stroke-width:0.2;stroke-dasharray:none"
     id="path3855" />
  <path
     d="M -436.96344,-148.85143 270.14334,259.39686"
     style="stroke:#000000;stroke-width:0.2;stroke-dasharray:none"
     id="path3857" />
  <path
     d="M 269.43273,279.34377 -436.51554,-128.23565"
     style="stroke:#000000;stroke-width:0.2;stroke-dasharray:none"
     id="path3859" />
  <path
     d="M -436.47197,-128.06447 269.43273,279.4898"
     style="stroke:#000000;stroke-width:0.2;stroke-dasharray:none"
     id="path3861" />
  <path
     d="m 269.43273,268.33752 -705.9047,-407.55427"
     style="stroke:#000000;stroke-width:0.2;stroke-dasharray:none"
     id="path3863" />
  <path
     d="M -436.51554,-138.99526 269.43273,268.58416"
     style="stroke:#000000;stroke-width:0.2;stroke-dasharray:none"
     id="path3865" />
  <path
     d="m 269.43273,280.44563 -705.9047,-407.55427"
     style="stroke:#000000;stroke-width:0.2;stroke-dasharray:none"
     id="path3867" />
  <path
     d="m 270.14334,259.39686 8.90296,5.06332"
     style="stroke:#000000;stroke-width:0.2;stroke-dasharray:none"
     id="path3869" />
  <path
     d="m 270.14334,290.386 8.90296,5.04052"
     style="stroke:#000000;stroke-width:0.2;stroke-dasharray:none"
     id="path3871" />
  <path
     d="m 270.5641,258.72682 9.19239,5.39986"
     style="stroke:#000000;stroke-width:0.2;stroke-dasharray:none"
     id="path3873" />
  <path
     d="M 279.0463,295.42652 V 264.46018"
     style="stroke:#000000;stroke-width:0.2;stroke-dasharray:none"
     id="path3875" />
  <path
     d="m 279.75649,295.78478 v -31.6581"
     style="stroke:#000000;stroke-width:0.2;stroke-dasharray:none"
     id="path3877" />
  <path
     d="m -445.71362,-153.98016 v 30.96635"
     style="stroke:#000000;stroke-width:0.2;stroke-dasharray:none"
     id="path3879" />
  <path
     d="m -436.96344,-148.85143 -8.75018,-5.12873"
     style="stroke:#000000;stroke-width:0.2;stroke-dasharray:none"
     id="path3881" />
  <path
     d="m -436.96344,-117.86229 -8.75018,-5.15152"
     style="stroke:#000000;stroke-width:0.2;stroke-dasharray:none"
     id="path3883" />
  <path
     d="m -436.54268,-149.52147 -9.19239,-5.2146"
     style="stroke:#000000;stroke-width:0.2;stroke-dasharray:none"
     id="path3885" />
  <path
     d="M 279.0463,295.42652 V 264.46018"
     style="stroke:#000000;stroke-width:0.2;stroke-dasharray:none"
     id="path3887" />
  <path
     d="m 270.5641,258.72682 9.19239,5.39986"
     style="stroke:#000000;stroke-width:0.2;stroke-dasharray:none"
     id="path3889" />
  <path
     d="m 270.14334,290.386 8.90296,5.04052"
     style="stroke:#000000;stroke-width:0.2;stroke-dasharray:none"
     id="path3891" />
  <path
     d="m 279.75649,295.78478 v -31.6581"
     style="stroke:#000000;stroke-width:0.2;stroke-dasharray:none"
     id="path3893" />
  <path
     d="m 270.14334,259.39686 8.90296,5.06332"
     style="stroke:#000000;stroke-width:0.2;stroke-dasharray:none"
     id="path3895" />
  <path
     style="fill:none;stroke:#000000;stroke-width:0.2;stroke-linecap:round;stroke-linejoin:round;stroke-dasharray:none;stroke-opacity:1"
     d="m 373.19622,328.76146 c -0.0725,-0.14929 0.0326,-0.71023 0.50522,-0.84143 m -0.3462,0.31202"
     id="path5714"
     sodipodi:nodetypes="cc" />
  <path
     style="fill:none;stroke:#000000;stroke-width:0.2;stroke-linecap:round;stroke-linejoin:round;stroke-dasharray:none;stroke-opacity:1"
     d="m 373.20903,330.40855 c -0.0725,-0.14929 0.0241,-0.71308 0.49668,-0.84428"
     id="path5714-1"
     sodipodi:nodetypes="cc" />
  <path
     style="fill:none;stroke:#000000;stroke-width:0.2;stroke-linecap:round;stroke-linejoin:round;stroke-dasharray:none;stroke-opacity:1"
     d="m 367.78808,325.88329 c -0.29265,-0.20983 -0.11201,-1.26398 0.73866,-1.29122"
     id="path5714-0"
     sodipodi:nodetypes="cc" />
  <path
     style="fill:none;stroke:#000000;stroke-width:0.2;stroke-linecap:round;stroke-linejoin:round;stroke-dasharray:none;stroke-opacity:1"
     d="m 367.77173,327.51926 c -0.27862,-0.19977 -0.10664,-1.2034 0.70326,-1.22933"
     id="path5714-0-4"
     sodipodi:nodetypes="cc" />
</svg>
