<?xml version="1.0" encoding="UTF-8" standalone="no"?>
<!-- 2023-06-28 17:27:42 Generated by QCAD SVG Exporter -->

<svg
   width="215.90131065673359mm"
   height="183.11982631683352mm"
   viewBox="-1.8505685073805789 -181.86982631683352 215.90131065673359 183.11982631683352"
   version="1.1"
   style="stroke-linecap:round;stroke-linejoin:round;fill:none"
   id="svg30136"
   sodipodi:docname="Tampa_calha_Magnetica.svg"
   inkscape:version="1.2.2 (732a01da63, 2022-12-09)"
   xmlns:inkscape="http://www.inkscape.org/namespaces/inkscape"
   xmlns:sodipodi="http://sodipodi.sourceforge.net/DTD/sodipodi-0.dtd"
   xmlns="http://www.w3.org/2000/svg"
   xmlns:svg="http://www.w3.org/2000/svg">
  <defs
     id="defs30140" />
  <sodipodi:namedview
     id="namedview30138"
     pagecolor="#ffffff"
     bordercolor="#666666"
     borderopacity="1.0"
     inkscape:showpageshadow="2"
     inkscape:pageopacity="0.0"
     inkscape:pagecheckerboard="0"
     inkscape:deskcolor="#d1d1d1"
     inkscape:document-units="mm"
     showgrid="false"
     inkscape:zoom="0.96445975"
     inkscape:cx="382.59761"
     inkscape:cy="288.24427"
     inkscape:window-width="1680"
     inkscape:window-height="987"
     inkscape:window-x="-8"
     inkscape:window-y="-7"
     inkscape:window-maximized="1"
     inkscape:current-layer="svg30136" />
  <g
     id="g34245"
     transform="translate(-23.961081,76.627035)">
    <path
       d="m 103.166,-167.45532 v -6.85"
       style="stroke:#000000;stroke-width:0.15;stroke-dasharray:none"
       id="path29516" />
    <path
       d="m 87.266004,-167.45532 h 1"
       style="stroke:#000000;stroke-width:0.15;stroke-dasharray:none"
       id="path29518" />
    <path
       d="m 102.466,-175.30532 0.7,1"
       style="stroke:#000000;stroke-width:0.15;stroke-dasharray:none"
       id="path29520" />
    <path
       d="m 102.166,-174.30532 v 6.85"
       style="stroke:#000000;stroke-width:0.15;stroke-dasharray:none"
       id="path29522" />
    <path
       d="m 88.266004,-167.45532 v -6.85"
       style="stroke:#000000;stroke-width:0.15;stroke-dasharray:none"
       id="path29524" />
    <path
       d="m 88.555954,-175.30532 -0.28995,1"
       style="stroke:#000000;stroke-width:0.15;stroke-dasharray:none"
       id="path29526" />
    <path
       d="m 102.166,-174.30532 -0.28995,-1"
       style="stroke:#000000;stroke-width:0.15;stroke-dasharray:none"
       id="path29528" />
    <path
       d="m 87.266004,-174.30532 v 6.85"
       style="stroke:#000000;stroke-width:0.15;stroke-dasharray:none"
       id="path29530" />
    <path
       d="M 101.87605,-175.30532 H 88.555954"
       style="stroke:#000000;stroke-width:0.15;stroke-dasharray:none"
       id="path29532" />
    <path
       d="M 88.266004,-174.30532 H 102.166"
       style="stroke:#000000;stroke-width:0.15;stroke-dasharray:none"
       id="path29534" />
    <path
       d="m 102.166,-174.30532 h 1"
       style="stroke:#000000;stroke-width:0.15;stroke-dasharray:none"
       id="path29536" />
    <path
       d="m 87.266004,-174.30532 h 1"
       style="stroke:#000000;stroke-width:0.15;stroke-dasharray:none"
       id="path29538" />
    <path
       d="m 88.555954,-175.30532 h -0.58995"
       style="stroke:#000000;stroke-width:0.15;stroke-dasharray:none"
       id="path29540" />
    <path
       d="m 102.466,-175.30532 h -0.58995"
       style="stroke:#000000;stroke-width:0.15;stroke-dasharray:none"
       id="path29542" />
    <path
       d="m 102.166,-167.45532 h 1"
       style="stroke:#000000;stroke-width:0.15;stroke-dasharray:none"
       id="path29544" />
    <path
       d="m 87.266004,-174.30532 0.7,-1"
       style="stroke:#000000;stroke-width:0.15;stroke-dasharray:none"
       id="path29546" />
    <path
       d="M 88.266004,-167.45532 H 102.166"
       style="stroke:#000000;stroke-width:0.15;stroke-dasharray:none"
       id="path29548" />
  </g>
  <g
     id="g34594"
     transform="translate(21.39799,0.17683457)">
    <path
       d="m 117.23715,-73.639984 h -0.3071"
       style="stroke:#000000;stroke-width:0.15;stroke-dasharray:none"
       id="path29964" />
    <path
       d="M 135.62294,-73.639984 H 117.23715"
       style="stroke:#000000;stroke-width:0.15;stroke-dasharray:none"
       id="path29966" />
    <path
       d="m 117.23715,-73.639984 -0.2071,0.5"
       style="stroke:#000000;stroke-width:0.15;stroke-dasharray:none"
       id="path29968" />
    <path
       d="m 135.83005,-73.139984 h 0.6"
       style="stroke:#000000;stroke-width:0.15;stroke-dasharray:none"
       id="path29970" />
    <path
       d="m 120.28933,-63.137364 a 0.5,0.5 0 0 0 0.49999,0.49738"
       style="stroke:#000000;stroke-width:0.15;stroke-dasharray:none"
       id="path29972" />
    <path
       d="m 122.13005,-70.639984 0.0393,7.50262"
       style="stroke:#000000;stroke-width:0.15;stroke-dasharray:none"
       id="path29974" />
    <path
       d="m 130.19077,-62.639984 h 1.88"
       style="stroke:#000000;stroke-width:0.15;stroke-dasharray:none"
       id="path29976" />
    <path
       d="m 122.13005,-70.639984 h 8.6"
       style="stroke:#000000;stroke-width:0.15;stroke-dasharray:none"
       id="path29978" />
    <path
       d="m 116.93005,-73.639984 -0.5,0.5"
       style="stroke:#000000;stroke-width:0.15;stroke-dasharray:none"
       id="path29980" />
    <path
       d="m 116.43005,-73.139984 h 0.6"
       style="stroke:#000000;stroke-width:0.15;stroke-dasharray:none"
       id="path29982" />
    <path
       d="m 135.93005,-73.639984 h -0.30711"
       style="stroke:#000000;stroke-width:0.15;stroke-dasharray:none"
       id="path29984" />
    <path
       d="m 130.73005,-70.639984 h 5.1"
       style="stroke:#000000;stroke-width:0.15;stroke-dasharray:none"
       id="path29986" />
    <path
       d="m 117.03005,-70.639984 h 5.1"
       style="stroke:#000000;stroke-width:0.15;stroke-dasharray:none"
       id="path29988" />
    <path
       d="m 116.43005,-70.639984 v -2.5"
       style="stroke:#000000;stroke-width:0.15;stroke-dasharray:none"
       id="path29990" />
    <path
       d="m 116.43005,-70.639984 h 0.6"
       style="stroke:#000000;stroke-width:0.15;stroke-dasharray:none"
       id="path29992" />
    <path
       d="m 120.78932,-62.639984 h 1.88"
       style="stroke:#000000;stroke-width:0.15;stroke-dasharray:none"
       id="path29994" />
    <path
       d="m 117.03005,-70.639984 v -2.5"
       style="stroke:#000000;stroke-width:0.15;stroke-dasharray:none"
       id="path29996" />
    <path
       d="m 132.07077,-62.639984 a 0.5,0.5 0 0 0 0.49999,-0.49738"
       style="stroke:#000000;stroke-width:0.15;stroke-dasharray:none"
       id="path29998" />
    <path
       d="m 135.83005,-70.639984 h 0.6"
       style="stroke:#000000;stroke-width:0.15;stroke-dasharray:none"
       id="path30000" />
    <path
       d="m 122.66932,-62.639984 h 7.52145"
       style="stroke:#000000;stroke-width:0.15;stroke-dasharray:none"
       id="path30002" />
    <path
       d="m 130.19077,-62.639984 a 0.5,0.5 0 0 0 0.49999,-0.49738"
       style="stroke:#000000;stroke-width:0.15;stroke-dasharray:none"
       id="path30004" />
    <path
       d="m 117.03005,-73.139984 h 18.8"
       style="stroke:#000000;stroke-width:0.15;stroke-dasharray:none"
       id="path30006" />
    <path
       d="m 135.93005,-73.639984 0.5,0.5"
       style="stroke:#000000;stroke-width:0.15;stroke-dasharray:none"
       id="path30008" />
    <path
       d="m 136.43005,-70.639984 v -2.5"
       style="stroke:#000000;stroke-width:0.15;stroke-dasharray:none"
       id="path30010" />
    <path
       d="m 130.73005,-70.639984 -0.0393,7.50262"
       style="stroke:#000000;stroke-width:0.15;stroke-dasharray:none"
       id="path30012" />
    <path
       d="m 135.62294,-73.639984 0.20711,0.5"
       style="stroke:#000000;stroke-width:0.15;stroke-dasharray:none"
       id="path30014" />
    <path
       d="m 122.16933,-63.137364 a 0.5,0.5 0 0 0 0.49999,0.49738"
       style="stroke:#000000;stroke-width:0.15;stroke-dasharray:none"
       id="path30016" />
    <path
       d="m 132.57076,-63.137364 0.0393,-7.50262"
       style="stroke:#000000;stroke-width:0.15;stroke-dasharray:none"
       id="path30018" />
    <path
       d="m 120.25005,-70.639984 0.0393,7.50262"
       style="stroke:#000000;stroke-width:0.15;stroke-dasharray:none"
       id="path30020" />
    <path
       d="m 135.83005,-70.639984 v -2.5"
       style="stroke:#000000;stroke-width:0.15;stroke-dasharray:none"
       id="path30022" />
    <path
       d="m 132.07077,-63.137364 v 0.49738"
       style="stroke:#000000;stroke-width:0.15;stroke-dasharray:none"
       id="path30024" />
    <path
       d="m 132.07077,-63.137364 0.025,1.3e-4 m 0,0 0.0249,1.2e-4 m 0,0 0.0248,1.1e-4 m 0,0 0.0246,1.1e-4 m 0,0 0.0244,9e-5 m 0,0 0.0241,9e-5 m 0,0 0.0237,9e-5 m 0,0 0.0233,7e-5 m 0,0 0.0228,7e-5 m 0,0 0.0222,5e-5 m 0,0 0.0216,5e-5 m 0,0 0.021,4e-5 m 0,0 0.0203,3e-5 m 0,0 0.0195,2e-5 m 0,0 0.0187,10e-6 m 0,0 h 0.0179 m 0,0 0.017,-10e-6 m 0,0 0.016,-1e-5 m 0,0 0.015,-3e-5 m 0,0 0.014,-3e-5 m 0,0 0.013,-5e-5 m 0,0 0.0119,-5e-5 m 0,0 0.0108,-6e-5 m 0,0 0.01,-7e-5 m 0,0 0.008,-8e-5 m 0,0 0.007,-9e-5 m 0,0 0.006,-9e-5 m 0,0 0.005,-1.1e-4 m 0,0 0.004,-1.1e-4 m 0,0 0.002,-1.1e-4 m 0,0 0.001,-1.3e-4 m 0,0 1.1e-4,-5e-5"
       style="stroke:#000000;stroke-width:0.15;stroke-dasharray:none"
       id="path30026" />
    <path
       d="m 132.11005,-70.639984 -0.0393,7.50262"
       style="stroke:#000000;stroke-width:0.15;stroke-dasharray:none"
       id="path30028" />
    <path
       d="m 130.69076,-63.137364 h -8.52143"
       style="stroke:#000000;stroke-width:0.15;stroke-dasharray:none"
       id="path30030" />
    <path
       d="m 120.28933,-63.137364 6.2e-4,1.3e-4 m 0,0 0.002,1.2e-4 m 0,0 0.003,1.1e-4 m 0,0 0.004,1.1e-4 m 0,0 0.006,9e-5 m 0,0 0.007,9e-5 m 0,0 0.008,9e-5 m 0,0 0.009,7e-5 m 0,0 0.0103,7e-5 m 0,0 0.0114,5e-5 m 0,0 0.0125,5e-5 m 0,0 0.0136,4e-5 m 0,0 0.0146,3e-5 m 0,0 0.0156,2e-5 m 0,0 0.0166,10e-6 m 0,0 h 0.0175 m 0,0 0.0184,-10e-6 m 0,0 0.0192,-1e-5 m 0,0 0.02,-3e-5 m 0,0 0.0207,-3e-5 m 0,0 0.0214,-5e-5 m 0,0 0.022,-5e-5 m 0,0 0.0226,-6e-5 m 0,0 0.0231,-7e-5 m 0,0 0.0235,-8e-5 m 0,0 0.0239,-9e-5 m 0,0 0.0242,-9e-5 m 0,0 0.0245,-1.1e-4 m 0,0 0.0247,-1.1e-4 m 0,0 0.0249,-1.1e-4 m 0,0 0.025,-1.3e-4 m 0,0 0.0104,-5e-5"
       style="stroke:#000000;stroke-width:0.15;stroke-dasharray:none"
       id="path30032" />
    <path
       d="m 120.78932,-63.137364 -0.0393,-7.50262"
       style="stroke:#000000;stroke-width:0.15;stroke-dasharray:none"
       id="path30034" />
    <path
       d="m 122.16933,-63.137364 h -1.38001"
       style="stroke:#000000;stroke-width:0.15;stroke-dasharray:none"
       id="path30036" />
    <path
       d="m 120.78932,-62.639984 v -0.49738"
       style="stroke:#000000;stroke-width:0.15;stroke-dasharray:none"
       id="path30038" />
    <path
       d="m 132.07077,-63.137364 h -1.38001"
       style="stroke:#000000;stroke-width:0.15;stroke-dasharray:none"
       id="path30040" />
  </g>
  <g
     id="g34357"
     transform="translate(21.39799,-2.4689988)">
    <path
       d="m 149.28143,-96.636201 v 0.30711"
       style="stroke:#000000;stroke-width:0.15;stroke-dasharray:none"
       id="path30056" />
    <path
       d="m 149.78143,-91.736201 v -4.8"
       style="stroke:#000000;stroke-width:0.15;stroke-dasharray:none"
       id="path30058" />
    <path
       d="m 149.78143,-91.136201 v -0.6"
       style="stroke:#000000;stroke-width:0.15;stroke-dasharray:none"
       id="path30060" />
    <path
       d="m 149.28143,-96.636201 0.5,-0.5"
       style="stroke:#000000;stroke-width:0.15;stroke-dasharray:none"
       id="path30062" />
    <path
       d="m 160.28143,-95.026921 v -1.57"
       style="stroke:#000000;stroke-width:0.15;stroke-dasharray:none"
       id="path30064" />
    <path
       d="m 152.28143,-97.136201 7.50262,0.0393"
       style="stroke:#000000;stroke-width:0.15;stroke-dasharray:none"
       id="path30066" />
    <path
       d="m 159.78405,-95.526911 -7.50262,-0.0393"
       style="stroke:#000000;stroke-width:0.15;stroke-dasharray:none"
       id="path30068" />
    <path
       d="m 152.28143,-91.136201 v -0.6"
       style="stroke:#000000;stroke-width:0.15;stroke-dasharray:none"
       id="path30070" />
    <path
       d="m 149.28143,-91.943301 0.5,0.2071"
       style="stroke:#000000;stroke-width:0.15;stroke-dasharray:none"
       id="path30072" />
    <path
       d="m 149.28143,-96.329091 0.5,-0.20711"
       style="stroke:#000000;stroke-width:0.15;stroke-dasharray:none"
       id="path30074" />
    <path
       d="m 160.28143,-93.645471 v -1.38145"
       style="stroke:#000000;stroke-width:0.15;stroke-dasharray:none"
       id="path30076" />
    <path
       d="m 149.78143,-96.536201 v -0.6"
       style="stroke:#000000;stroke-width:0.15;stroke-dasharray:none"
       id="path30078" />
    <path
       d="m 149.28143,-96.329091 v 4.38579"
       style="stroke:#000000;stroke-width:0.15;stroke-dasharray:none"
       id="path30080" />
    <path
       d="m 152.28143,-96.536201 h -2.5"
       style="stroke:#000000;stroke-width:0.15;stroke-dasharray:none"
       id="path30082" />
    <path
       d="m 152.28143,-96.536201 v -0.6"
       style="stroke:#000000;stroke-width:0.15;stroke-dasharray:none"
       id="path30084" />
    <path
       d="m 152.28143,-97.136201 h -2.5"
       style="stroke:#000000;stroke-width:0.15;stroke-dasharray:none"
       id="path30086" />
    <path
       d="m 159.78405,-93.145481 a 0.5,0.5 0 0 0 0.49738,-0.49999"
       style="stroke:#000000;stroke-width:0.15;stroke-dasharray:none"
       id="path30088" />
    <path
       d="m 149.28143,-91.636201 0.5,0.5"
       style="stroke:#000000;stroke-width:0.15;stroke-dasharray:none"
       id="path30090" />
    <path
       d="m 160.28143,-96.596921 a 0.5,0.5 0 0 0 -0.49738,-0.49999"
       style="stroke:#000000;stroke-width:0.15;stroke-dasharray:none"
       id="path30092" />
    <path
       d="m 152.28143,-91.136201 h -2.5"
       style="stroke:#000000;stroke-width:0.15;stroke-dasharray:none"
       id="path30094" />
    <path
       d="m 152.28143,-91.736201 h -2.5"
       style="stroke:#000000;stroke-width:0.15;stroke-dasharray:none"
       id="path30096" />
    <path
       d="m 160.28143,-95.026921 a 0.5,0.5 0 0 0 -0.49738,-0.49999"
       style="stroke:#000000;stroke-width:0.15;stroke-dasharray:none"
       id="path30098" />
    <path
       d="m 149.28143,-91.943301 v 0.3071"
       style="stroke:#000000;stroke-width:0.15;stroke-dasharray:none"
       id="path30100" />
    <path
       d="m 152.28143,-93.106201 7.50262,-0.0393"
       style="stroke:#000000;stroke-width:0.15;stroke-dasharray:none"
       id="path30102" />
    <path
       d="m 152.28143,-91.736201 v -4.8"
       style="stroke:#000000;stroke-width:0.15;stroke-dasharray:none"
       id="path30104" />
    <path
       d="m 159.78405,-97.096911 v 1.57"
       style="stroke:#000000;stroke-width:0.15;stroke-dasharray:none"
       id="path30106" />
    <path
       d="m 159.78405,-93.145481 1.3e-4,-6.3e-4 m 0,0 1.2e-4,-0.002 m 0,0 1.1e-4,-0.003 m 0,0 1.1e-4,-0.004 m 0,0 1e-4,-0.006 m 0,0 9e-5,-0.007 m 0,0 8e-5,-0.008 m 0,0 7e-5,-0.009 m 0,0 7e-5,-0.0103 m 0,0 5e-5,-0.0114 m 0,0 5e-5,-0.0125 m 0,0 4e-5,-0.0136 m 0,0 3e-5,-0.0146 m 0,0 2e-5,-0.0156 m 0,0 1e-5,-0.0166 m 0,0 v -0.0175 m 0,0 v -0.0184 m 0,0 -2e-5,-0.0192 m 0,0 -3e-5,-0.02 m 0,0 -3e-5,-0.0207 m 0,0 -4e-5,-0.0214 m 0,0 -6e-5,-0.022 m 0,0 -6e-5,-0.0226 m 0,0 -7e-5,-0.0231 m 0,0 -8e-5,-0.0235 m 0,0 -9e-5,-0.0239 m 0,0 -9e-5,-0.0242 m 0,0 -1e-4,-0.0245 m 0,0 -1.1e-4,-0.0247 m 0,0 -1.2e-4,-0.0249 m 0,0 -1.3e-4,-0.025 m 0,0 -5e-5,-0.0104"
       style="stroke:#000000;stroke-width:0.15;stroke-dasharray:none"
       id="path30108" />
    <path
       d="m 159.78405,-95.026921 1.3e-4,-0.025 m 0,0 1.2e-4,-0.0249 m 0,0 1.1e-4,-0.0248 m 0,0 1.1e-4,-0.0246 m 0,0 1e-4,-0.0244 m 0,0 9e-5,-0.0241 m 0,0 8e-5,-0.0237 m 0,0 7e-5,-0.0233 m 0,0 7e-5,-0.0228 m 0,0 5e-5,-0.0222 m 0,0 5e-5,-0.0216 m 0,0 4e-5,-0.021 m 0,0 3e-5,-0.0203 m 0,0 2e-5,-0.0195 m 0,0 1e-5,-0.0187 m 0,0 v -0.0179 m 0,0 v -0.017 m 0,0 -2e-5,-0.016 m 0,0 -3e-5,-0.015 m 0,0 -3e-5,-0.014 m 0,0 -4e-5,-0.013 m 0,0 -6e-5,-0.0119 m 0,0 -6e-5,-0.0108 m 0,0 -7e-5,-0.01 m 0,0 -8e-5,-0.008 m 0,0 -9e-5,-0.007 m 0,0 -9e-5,-0.006 m 0,0 -1e-4,-0.005 m 0,0 -1.1e-4,-0.004 m 0,0 -1.2e-4,-0.002 m 0,0 -1.3e-4,-0.001 m 0,0 -5e-5,-1.1e-4"
       style="stroke:#000000;stroke-width:0.15;stroke-dasharray:none"
       id="path30110" />
    <path
       d="m 159.78405,-95.026921 h 0.49738"
       style="stroke:#000000;stroke-width:0.15;stroke-dasharray:none"
       id="path30112" />
    <path
       d="m 160.28143,-93.645471 h -0.49738"
       style="stroke:#000000;stroke-width:0.15;stroke-dasharray:none"
       id="path30114" />
    <path
       d="m 159.78405,-95.026921 v 1.38145"
       style="stroke:#000000;stroke-width:0.15;stroke-dasharray:none"
       id="path30116" />
    <path
       d="m 159.78405,-93.645471 -7.50262,0.0393"
       style="stroke:#000000;stroke-width:0.15;stroke-dasharray:none"
       id="path30118" />
    <path
       d="m 152.28143,-95.066201 7.50262,0.0393"
       style="stroke:#000000;stroke-width:0.15;stroke-dasharray:none"
       id="path30120" />
  </g>
  <path
     style="fill:#000000;stroke:#000000;stroke-width:0.15;stroke-linecap:round;stroke-linejoin:miter;stroke-miterlimit:4;stroke-dasharray:none;stroke-opacity:1"
     d="m 19.902854,-88.740619 v 8.79316"
     id="path3670-1-6-4-2-8-7" />
  <path
     style="fill:#000000;stroke:#000000;stroke-width:0.15;stroke-linecap:round;stroke-linejoin:miter;stroke-miterlimit:4;stroke-dasharray:none;stroke-opacity:1"
     d="m 19.916799,-81.534959 h 6.228028"
     id="path3826-29-4-29-1-9-4"
     sodipodi:nodetypes="cc" />
  <path
     style="fill:#000000;stroke:#000000;stroke-width:0.15;stroke-linecap:round;stroke-linejoin:miter;stroke-miterlimit:4;stroke-dasharray:none;stroke-opacity:1"
     d="m 38.420742,-81.534959 h 6.246501"
     id="path3826-29-9-0-1-1-5-1"
     sodipodi:nodetypes="cc" />
  <path
     style="fill:#000000;stroke:#000000;stroke-width:0.15;stroke-linecap:round;stroke-linejoin:miter;stroke-miterlimit:4;stroke-dasharray:none;stroke-opacity:1"
     d="m 44.702855,-88.740619 v 8.79316"
     id="path3670-5-3-1-3-0-7-6" />
  <text
     xml:space="preserve"
     style="font-size:5.29167px;line-height:1.25;font-family:sans-serif;fill:#000000;stroke-width:0.264583;stroke-linecap:round;stroke-linejoin:round"
     x="27.058805"
     y="-79.606133"
     id="text4889-9-9-4-2-6-2-2"><tspan
       sodipodi:role="line"
       id="tspan4887-0-2-9-29-2-1-6"
       style="font-size:5.29167px;fill:#000000;stroke-width:0.264583"
       x="27.058805"
       y="-79.606133">24,8</tspan></text>
  <path
     style="fill:#000000;stroke:#000000;stroke-width:0.15;stroke-linecap:round;stroke-linejoin:miter;stroke-miterlimit:4;stroke-dasharray:none;stroke-opacity:1"
     d="m 63.304924,-88.740619 v 8.79316"
     id="path3670-1-6-4-2-8-7-7" />
  <path
     style="fill:#000000;stroke:#000000;stroke-width:0.15;stroke-linecap:round;stroke-linejoin:miter;stroke-miterlimit:4;stroke-dasharray:none;stroke-opacity:1"
     d="m 63.304924,-81.534959 h 1.86342"
     id="path3826-29-4-29-1-9-4-4"
     sodipodi:nodetypes="cc" />
  <path
     style="fill:#000000;stroke:#000000;stroke-width:0.15;stroke-linecap:round;stroke-linejoin:miter;stroke-miterlimit:4;stroke-dasharray:none;stroke-opacity:1"
     d="m 77.341494,-81.534959 h 1.86342"
     id="path3826-29-4-29-1-9-4-4-4"
     sodipodi:nodetypes="cc" />
  <path
     style="fill:#000000;stroke:#000000;stroke-width:0.15;stroke-linecap:round;stroke-linejoin:miter;stroke-miterlimit:4;stroke-dasharray:none;stroke-opacity:1"
     d="m 79.204914,-88.740619 v 8.79316"
     id="path3670-5-3-1-3-0-7-6-4" />
  <text
     xml:space="preserve"
     style="font-size:5.29167px;line-height:1.25;font-family:sans-serif;fill:#000000;stroke-width:0.264583;stroke-linecap:round;stroke-linejoin:round"
     x="65.907684"
     y="-79.960686"
     id="text4889-9-9-4-2-6-2-2-4"><tspan
       sodipodi:role="line"
       id="tspan4887-0-2-9-29-2-1-6-6"
       style="font-size:5.29167px;fill:#000000;stroke-width:0.264583"
       x="65.907684"
       y="-79.960686">15,9</tspan></text>
  <path
     style="fill:#000000;stroke:#000000;stroke-width:0.15;stroke-linecap:round;stroke-linejoin:miter;stroke-miterlimit:4;stroke-dasharray:none;stroke-opacity:1"
     d="m 137.85298,-90.935285 v 8.79316"
     id="path3670-1-6-4-2-8-7-7-3" />
  <path
     style="fill:#000000;stroke:#000000;stroke-width:0.15;stroke-linecap:round;stroke-linejoin:miter;stroke-miterlimit:4;stroke-dasharray:none;stroke-opacity:1"
     d="m 137.86335,-83.47849 h 5.59759"
     id="path3826-29-4-29-1-9-4-4-6"
     sodipodi:nodetypes="cc" />
  <path
     style="fill:#000000;stroke:#000000;stroke-width:0.15;stroke-linecap:round;stroke-linejoin:miter;stroke-miterlimit:4;stroke-dasharray:none;stroke-opacity:1"
     d="m 151.97867,-83.47849 h 5.8037"
     id="path3826-29-4-29-1-9-4-4-4-3"
     sodipodi:nodetypes="cc" />
  <path
     style="fill:#000000;stroke:#000000;stroke-width:0.15;stroke-linecap:round;stroke-linejoin:miter;stroke-miterlimit:4;stroke-dasharray:none;stroke-opacity:1"
     d="m 157.8031,-90.935285 v 8.79316"
     id="path3670-5-3-1-3-0-7-6-4-2" />
  <text
     xml:space="preserve"
     style="font-size:5.29167px;line-height:1.25;font-family:sans-serif;fill:#000000;stroke-width:0.264583;stroke-linecap:round;stroke-linejoin:round"
     x="144.80385"
     y="-81.904221"
     id="text4889-9-9-4-2-6-2-2-4-7"><tspan
       sodipodi:role="line"
       id="tspan4887-0-2-9-29-2-1-6-6-2"
       style="font-size:5.29167px;fill:#000000;stroke-width:0.264583"
       x="144.80385"
       y="-81.904221">20</tspan></text>
  <g
     id="g34253"
     transform="translate(-39.048066,4.7692214)">
    <text
       xml:space="preserve"
       style="font-size:5.29167px;line-height:1.25;font-family:sans-serif;fill:#000000;stroke-width:0.264583;stroke-linecap:round;stroke-linejoin:round"
       x="41.432697"
       y="-97.633377"
       id="text4889-9-5-0-5-7-3-0-3-8"><tspan
         sodipodi:role="line"
         id="tspan4887-0-21-9-0-8-8-6-1-1"
         style="font-size:5.29167px;fill:#000000;stroke-width:0.264583"
         x="41.432697"
         y="-97.633377">7,8</tspan></text>
    <path
       style="fill:#000000;stroke:#000000;stroke-width:0.15;stroke-linecap:round;stroke-linejoin:miter;stroke-miterlimit:4;stroke-dasharray:none;stroke-opacity:1"
       d="m 49.457287,-103.4475 v 1.42496"
       id="path7444-8-1-0-7-4-2-0-7-1"
       sodipodi:nodetypes="cc" />
    <path
       style="fill:#000000;stroke:#000000;stroke-width:0.15;stroke-linecap:round;stroke-linejoin:miter;stroke-miterlimit:4;stroke-dasharray:none;stroke-opacity:1"
       d="m 49.457287,-97.022473 v 1.42497"
       id="path7444-8-1-0-7-4-2-0-7-3-6"
       sodipodi:nodetypes="cc" />
    <path
       style="fill:#000000;stroke:#000000;stroke-width:0.15;stroke-linecap:round;stroke-linejoin:miter;stroke-miterlimit:4;stroke-dasharray:none;stroke-opacity:1"
       d="m 47.989996,-95.597503 h 9.189579"
       id="path7444-46-22-1-7-2-4" />
    <path
       style="fill:#000000;stroke:#000000;stroke-width:0.15;stroke-linecap:round;stroke-linejoin:miter;stroke-miterlimit:4;stroke-dasharray:none;stroke-opacity:1"
       d="m 47.989996,-103.4475 h 9.189579"
       id="path7444-46-22-1-7-2-2-8" />
  </g>
  <text
     xml:space="preserve"
     style="font-size:5.29167px;line-height:1.25;font-family:sans-serif;fill:#000000;stroke-width:0.264583;stroke-linecap:round;stroke-linejoin:round"
     x="126.0517"
     y="-66.074028"
     id="text4889-9-5-0-5-7-3-0-3-8-7"><tspan
       sodipodi:role="line"
       id="tspan4887-0-21-9-0-8-8-6-1-1-0"
       style="font-size:5.29167px;fill:#000000;stroke-width:0.264583"
       x="126.0517"
       y="-66.074028">11</tspan></text>
  <path
     style="fill:#000000;stroke:#000000;stroke-width:0.15;stroke-linecap:round;stroke-linejoin:miter;stroke-miterlimit:4;stroke-dasharray:none;stroke-opacity:1"
     d="m 128.73987,-73.46315 v 2.661601"
     id="path7444-8-1-0-7-4-2-0-7-1-1"
     sodipodi:nodetypes="cc" />
  <path
     style="fill:#000000;stroke:#000000;stroke-width:0.15;stroke-linecap:round;stroke-linejoin:miter;stroke-miterlimit:4;stroke-dasharray:none;stroke-opacity:1"
     d="m 128.73987,-65.246 v 2.78285"
     id="path7444-8-1-0-7-4-2-0-7-3-6-7"
     sodipodi:nodetypes="cc" />
  <path
     style="fill:#000000;stroke:#000000;stroke-width:0.15;stroke-linecap:round;stroke-linejoin:miter;stroke-miterlimit:4;stroke-dasharray:none;stroke-opacity:1"
     d="m 127.27258,-62.46315 h 12.82676"
     id="path7444-46-22-1-7-2-4-9"
     sodipodi:nodetypes="cc" />
  <path
     style="fill:#000000;stroke:#000000;stroke-width:0.15;stroke-linecap:round;stroke-linejoin:miter;stroke-miterlimit:4;stroke-dasharray:none;stroke-opacity:1"
     d="m 127.27258,-73.46315 h 9.18958"
     id="path7444-46-22-1-7-2-2-8-0" />
  <g
     id="g31919"
     transform="translate(-56.238755,-72.245915)"
     style="fill:none;stroke-linecap:round;stroke-linejoin:round">
    <path
       d="m 77.141609,-18.58237 v -6.85"
       style="fill:none;stroke:#000000;stroke-width:0.15;stroke-linecap:round;stroke-linejoin:round;stroke-dasharray:none"
       id="path29236-9" />
    <path
       d="m 100.94161,-18.58237 v -6.85"
       style="fill:none;stroke:#000000;stroke-width:0.15;stroke-linecap:round;stroke-linejoin:round;stroke-dasharray:none"
       id="path29238-7" />
    <path
       d="m 84.541609,-18.58237 h 3"
       style="fill:none;stroke:#000000;stroke-width:0.15;stroke-linecap:round;stroke-linejoin:round;stroke-dasharray:none"
       id="path29240-5" />
    <path
       d="m 100.24161,-26.43237 0.7,1"
       style="fill:none;stroke:#000000;stroke-width:0.15;stroke-linecap:round;stroke-linejoin:round;stroke-dasharray:none"
       id="path29242-7" />
    <path
       d="m 84.541609,-18.58237 h -2"
       style="fill:none;stroke:#000000;stroke-width:0.15;stroke-linecap:round;stroke-linejoin:round;stroke-dasharray:none"
       id="path29244-9" />
    <path
       d="m 77.141609,-18.58237 h 5.4"
       style="fill:none;stroke:#000000;stroke-width:0.15;stroke-linecap:round;stroke-linejoin:round;stroke-dasharray:none"
       id="path29246-5" />
    <path
       d="m 94.541609,-18.58237 h -2"
       style="fill:none;stroke:#000000;stroke-width:0.15;stroke-linecap:round;stroke-linejoin:round;stroke-dasharray:none"
       id="path29248-0" />
    <path
       d="m 92.541609,-26.43237 h -3"
       style="fill:none;stroke:#000000;stroke-width:0.15;stroke-linecap:round;stroke-linejoin:round;stroke-dasharray:none"
       id="path29250-9" />
    <path
       d="m 77.431559,-26.43237 -0.28995,1"
       style="fill:none;stroke:#000000;stroke-width:0.15;stroke-linecap:round;stroke-linejoin:round;stroke-dasharray:none"
       id="path29252-5" />
    <path
       d="m 94.541609,-18.58237 h 5.4"
       style="fill:none;stroke:#000000;stroke-width:0.15;stroke-linecap:round;stroke-linejoin:round;stroke-dasharray:none"
       id="path29254-6" />
    <path
       d="m 76.141609,-25.43237 v 6.85"
       style="fill:none;stroke:#000000;stroke-width:0.15;stroke-linecap:round;stroke-linejoin:round;stroke-dasharray:none"
       id="path29256-1" />
    <path
       d="m 82.541609,-26.43237 h -5.11005"
       style="fill:none;stroke:#000000;stroke-width:0.15;stroke-linecap:round;stroke-linejoin:round;stroke-dasharray:none"
       id="path29258-4" />
    <path
       d="m 82.541609,-18.58237 v -6.85"
       style="fill:none;stroke:#000000;stroke-width:0.15;stroke-linecap:round;stroke-linejoin:round;stroke-dasharray:none"
       id="path29260-7" />
    <path
       d="m 89.541609,-18.58237 h 3"
       style="fill:none;stroke:#000000;stroke-width:0.15;stroke-linecap:round;stroke-linejoin:round;stroke-dasharray:none"
       id="path29262-4" />
    <path
       d="m 89.541609,-25.27476 h -2"
       style="fill:none;stroke:#000000;stroke-width:0.15;stroke-linecap:round;stroke-linejoin:round;stroke-dasharray:none"
       id="path29264-2" />
    <path
       d="m 89.541609,-25.43237 h 3"
       style="fill:none;stroke:#000000;stroke-width:0.15;stroke-linecap:round;stroke-linejoin:round;stroke-dasharray:none"
       id="path29266-3" />
    <path
       d="m 94.541609,-25.27476 h -2"
       style="fill:none;stroke:#000000;stroke-width:0.15;stroke-linecap:round;stroke-linejoin:round;stroke-dasharray:none"
       id="path29268-5" />
    <path
       d="m 76.141609,-25.43237 0.7,-1"
       style="fill:none;stroke:#000000;stroke-width:0.15;stroke-linecap:round;stroke-linejoin:round;stroke-dasharray:none"
       id="path29270-1" />
    <path
       d="m 99.941609,-25.43237 v 6.85"
       style="fill:none;stroke:#000000;stroke-width:0.15;stroke-linecap:round;stroke-linejoin:round;stroke-dasharray:none"
       id="path29272-1" />
    <path
       d="m 84.541609,-25.27476 h -2"
       style="fill:none;stroke:#000000;stroke-width:0.15;stroke-linecap:round;stroke-linejoin:round;stroke-dasharray:none"
       id="path29274-1" />
    <path
       d="m 89.541609,-25.93237 h -2"
       style="fill:none;stroke:#000000;stroke-width:0.15;stroke-linecap:round;stroke-linejoin:round;stroke-dasharray:none"
       id="path29276-6" />
    <path
       d="m 94.541609,-25.43237 h 5.4"
       style="fill:none;stroke:#000000;stroke-width:0.15;stroke-linecap:round;stroke-linejoin:round;stroke-dasharray:none"
       id="path29278-2" />
    <path
       d="m 84.541609,-25.43237 v 6.85"
       style="fill:none;stroke:#000000;stroke-width:0.15;stroke-linecap:round;stroke-linejoin:round;stroke-dasharray:none"
       id="path29280-0" />
    <path
       d="m 87.541609,-25.43237 v -1"
       style="fill:none;stroke:#000000;stroke-width:0.15;stroke-linecap:round;stroke-linejoin:round;stroke-dasharray:none"
       id="path29282-3" />
    <path
       d="m 99.941609,-18.58237 h 1.000001"
       style="fill:none;stroke:#000000;stroke-width:0.15;stroke-linecap:round;stroke-linejoin:round;stroke-dasharray:none"
       id="path29284-0" />
    <path
       d="m 84.541609,-25.43237 h 3"
       style="fill:none;stroke:#000000;stroke-width:0.15;stroke-linecap:round;stroke-linejoin:round;stroke-dasharray:none"
       id="path29286-1" />
    <path
       d="m 94.541609,-25.93237 h -2"
       style="fill:none;stroke:#000000;stroke-width:0.15;stroke-linecap:round;stroke-linejoin:round;stroke-dasharray:none"
       id="path29288-4" />
    <path
       d="m 89.541609,-18.58237 h -2"
       style="fill:none;stroke:#000000;stroke-width:0.15;stroke-linecap:round;stroke-linejoin:round;stroke-dasharray:none"
       id="path29290-1" />
    <path
       d="M 99.65166,-26.43237 H 94.541609"
       style="fill:none;stroke:#000000;stroke-width:0.15;stroke-linecap:round;stroke-linejoin:round;stroke-dasharray:none"
       id="path29292-6" />
    <path
       d="m 92.541609,-18.58237 v -6.85"
       style="fill:none;stroke:#000000;stroke-width:0.15;stroke-linecap:round;stroke-linejoin:round;stroke-dasharray:none"
       id="path29294-7" />
    <path
       d="M 100.24161,-26.43237 H 99.65166"
       style="fill:none;stroke:#000000;stroke-width:0.15;stroke-linecap:round;stroke-linejoin:round;stroke-dasharray:none"
       id="path29296-7" />
    <path
       d="m 77.141609,-25.43237 h 5.4"
       style="fill:none;stroke:#000000;stroke-width:0.15;stroke-linecap:round;stroke-linejoin:round;stroke-dasharray:none"
       id="path29298-9" />
    <path
       d="m 89.541609,-25.43237 v 6.85"
       style="fill:none;stroke:#000000;stroke-width:0.15;stroke-linecap:round;stroke-linejoin:round;stroke-dasharray:none"
       id="path29300-6" />
    <path
       d="m 76.141609,-25.43237 h 1"
       style="fill:none;stroke:#000000;stroke-width:0.15;stroke-linecap:round;stroke-linejoin:round;stroke-dasharray:none"
       id="path29302-1" />
    <path
       d="m 99.941609,-25.43237 h 1.000001"
       style="fill:none;stroke:#000000;stroke-width:0.15;stroke-linecap:round;stroke-linejoin:round;stroke-dasharray:none"
       id="path29304-8" />
    <path
       d="m 99.941609,-25.43237 -0.289949,-1"
       style="fill:none;stroke:#000000;stroke-width:0.15;stroke-linecap:round;stroke-linejoin:round;stroke-dasharray:none"
       id="path29306-1" />
    <path
       d="m 77.431559,-26.43237 h -0.58995"
       style="fill:none;stroke:#000000;stroke-width:0.15;stroke-linecap:round;stroke-linejoin:round;stroke-dasharray:none"
       id="path29308-4" />
    <path
       d="m 84.541609,-26.43237 v 1"
       style="fill:none;stroke:#000000;stroke-width:0.15;stroke-linecap:round;stroke-linejoin:round;stroke-dasharray:none"
       id="path29310-2" />
    <path
       d="m 87.541609,-18.58237 v -6.85"
       style="fill:none;stroke:#000000;stroke-width:0.15;stroke-linecap:round;stroke-linejoin:round;stroke-dasharray:none"
       id="path29312-8" />
    <path
       d="m 82.541609,-25.43237 v -1"
       style="fill:none;stroke:#000000;stroke-width:0.15;stroke-linecap:round;stroke-linejoin:round;stroke-dasharray:none"
       id="path29314-8" />
    <path
       d="m 76.141609,-18.58237 h 1"
       style="fill:none;stroke:#000000;stroke-width:0.15;stroke-linecap:round;stroke-linejoin:round;stroke-dasharray:none"
       id="path29316-1" />
    <path
       d="m 94.541609,-26.43237 v 1"
       style="fill:none;stroke:#000000;stroke-width:0.15;stroke-linecap:round;stroke-linejoin:round;stroke-dasharray:none"
       id="path29318-8" />
    <path
       d="m 87.541609,-26.43237 h -3"
       style="fill:none;stroke:#000000;stroke-width:0.15;stroke-linecap:round;stroke-linejoin:round;stroke-dasharray:none"
       id="path29320-4" />
    <path
       d="m 89.541609,-26.43237 v 1"
       style="fill:none;stroke:#000000;stroke-width:0.15;stroke-linecap:round;stroke-linejoin:round;stroke-dasharray:none"
       id="path29322-9" />
    <path
       d="m 94.541609,-25.43237 v 6.85"
       style="fill:none;stroke:#000000;stroke-width:0.15;stroke-linecap:round;stroke-linejoin:round;stroke-dasharray:none"
       id="path29324-7" />
    <path
       d="m 92.541609,-25.43237 v -1"
       style="fill:none;stroke:#000000;stroke-width:0.15;stroke-linecap:round;stroke-linejoin:round;stroke-dasharray:none"
       id="path29326-4" />
    <path
       d="m 84.541609,-25.93237 h -2"
       style="fill:none;stroke:#000000;stroke-width:0.15;stroke-linecap:round;stroke-linejoin:round;stroke-dasharray:none"
       id="path29328-2" />
  </g>
  <g
     id="g7099"
     transform="translate(42.258663,-41.49085)"
     style="fill:none;stroke-linecap:round;stroke-linejoin:round">
    <path
       d="m 114.94593,-57.558202 0.59851,0.598504"
       style="fill:none;stroke:#000000;stroke-width:0.15;stroke-linecap:round;stroke-linejoin:round;stroke-dasharray:none"
       id="path174-7" />
    <path
       d="m 96.192816,-51.573165 -0.598503,-0.598504"
       style="fill:none;stroke:#000000;stroke-width:0.15;stroke-linecap:round;stroke-linejoin:round;stroke-dasharray:none"
       id="path182-5" />
    <path
       d="m 115.54444,-56.959698 v 4.788029"
       style="fill:none;stroke:#000000;stroke-width:0.15;stroke-linecap:round;stroke-linejoin:round;stroke-dasharray:none"
       id="path196-5" />
    <path
       d="M 96.192816,-57.558202 H 114.93873"
       style="fill:none;stroke:#000000;stroke-width:0.15;stroke-linecap:round;stroke-linejoin:round;stroke-dasharray:none"
       id="path202-7"
       sodipodi:nodetypes="cc" />
    <path
       d="M 114.94305,-51.573165 H 96.192816"
       style="fill:none;stroke:#000000;stroke-width:0.15;stroke-linecap:round;stroke-linejoin:round;stroke-dasharray:none"
       id="path208-7"
       sodipodi:nodetypes="cc" />
    <path
       d="m 115.54444,-52.171669 -0.59851,0.598504"
       style="fill:none;stroke:#000000;stroke-width:0.15;stroke-linecap:round;stroke-linejoin:round;stroke-dasharray:none"
       id="path212-3" />
    <path
       d="m 95.594313,-56.959698 0.598503,-0.598504"
       style="fill:none;stroke:#000000;stroke-width:0.15;stroke-linecap:round;stroke-linejoin:round;stroke-dasharray:none"
       id="path214-0" />
    <path
       d="m 95.594313,-52.171669 v -4.788029"
       style="fill:none;stroke:#000000;stroke-width:0.15;stroke-linecap:round;stroke-linejoin:round;stroke-dasharray:none"
       id="path220-6" />
    <path
       d="m 114.4781,-57.159552 0.56864,0.518773"
       style="fill:none;stroke:#000000;stroke-width:0.15;stroke-linecap:round;stroke-linejoin:round;stroke-dasharray:none"
       id="path174-7-5" />
    <path
       d="m 96.660648,-51.971814 -0.568642,-0.518774"
       style="fill:none;stroke:#000000;stroke-width:0.15;stroke-linecap:round;stroke-linejoin:round;stroke-dasharray:none"
       id="path182-5-0" />
    <path
       d="m 115.04674,-56.640779 v 4.150191"
       style="fill:none;stroke:#000000;stroke-width:0.15;stroke-linecap:round;stroke-linejoin:round;stroke-dasharray:none"
       id="path196-5-1" />
    <path
       d="M 96.660648,-57.159552 H 114.47126"
       style="fill:none;stroke:#000000;stroke-width:0.15;stroke-linecap:round;stroke-linejoin:round;stroke-dasharray:none"
       id="path202-7-0"
       sodipodi:nodetypes="cc" />
    <path
       d="M 114.47537,-51.971814 H 96.660648"
       style="fill:none;stroke:#000000;stroke-width:0.15;stroke-linecap:round;stroke-linejoin:round;stroke-dasharray:none"
       id="path208-7-5"
       sodipodi:nodetypes="cc" />
    <path
       d="m 115.04674,-52.490588 -0.56864,0.518774"
       style="fill:none;stroke:#000000;stroke-width:0.15;stroke-linecap:round;stroke-linejoin:round;stroke-dasharray:none"
       id="path212-3-4" />
    <path
       d="m 96.092006,-56.640779 0.568642,-0.518773"
       style="fill:none;stroke:#000000;stroke-width:0.15;stroke-linecap:round;stroke-linejoin:round;stroke-dasharray:none"
       id="path214-0-7" />
    <path
       d="m 96.092006,-52.490588 v -4.150191"
       style="fill:none;stroke:#000000;stroke-width:0.15;stroke-linecap:round;stroke-linejoin:round;stroke-dasharray:none"
       id="path220-6-2" />
  </g>
</svg>
