<?xml version="1.0" encoding="UTF-8" standalone="no"?>
<svg
   width="904.62518"
   height="195.9818"
   version="1.1"
   id="svg110"
   sodipodi:docname="desenho cabo asqc2.svg"
   inkscape:version="1.2.2 (732a01da63, 2022-12-09)"
   xmlns:inkscape="http://www.inkscape.org/namespaces/inkscape"
   xmlns:sodipodi="http://sodipodi.sourceforge.net/DTD/sodipodi-0.dtd"
   xmlns="http://www.w3.org/2000/svg"
   xmlns:svg="http://www.w3.org/2000/svg">
  <defs
     id="defs114" />
  <sodipodi:namedview
     id="namedview112"
     pagecolor="#505050"
     bordercolor="#ffffff"
     borderopacity="1"
     inkscape:showpageshadow="0"
     inkscape:pageopacity="0"
     inkscape:pagecheckerboard="1"
     inkscape:deskcolor="#505050"
     showgrid="false"
     inkscape:zoom="1.3929396"
     inkscape:cx="836.71969"
     inkscape:cy="19.383468"
     inkscape:window-width="1920"
     inkscape:window-height="1009"
     inkscape:window-x="-8"
     inkscape:window-y="-8"
     inkscape:window-maximized="1"
     inkscape:current-layer="g20" />
  <path
     transform="matrix(0.99997,0,0,0.99997,272.28894,-211.28167)"
     d="m 0.73756,228.85 h -97.351"
     fill="#666666"
     fill-rule="evenodd"
     stroke="#000000"
     stroke-width="10.028"
     id="path2" />
  <path
     transform="matrix(0.99997,0,0,0.99997,272.28894,-211.28167)"
     d="m 0.68245,252.69 h -97.296"
     fill="#666666"
     fill-rule="evenodd"
     stroke="#000000"
     stroke-width="10.028"
     id="path4" />
  <g
     fill="none"
     stroke="#000000"
     stroke-linejoin="round"
     id="g20"
     transform="translate(-48.311059,-67.501671)">
    <path
       transform="matrix(0.99997,0,0,0.99997,320.6,-143.78)"
       d="m -249.09,226.28 -1.8537,0.46742 -0.46341,1.8697 m -20.383,38.793 0.92683,1.4023 1.3902,0.93483 m -0.007,-57.957 -1.3902,0.46742 -0.92683,1.4022 m 35.687,56.09 v -14.49 m -15.29,-26.64 v 41.133 m 84.34,-10.753 h 17.146 m -17.146,-0.46742 h 17.146 m -17.146,-35.991 h 17.146 m -96.39,47.209 v -41.133 m 94.074,38.792 v 2.3371 m 0,-10.747 v 8.4135 m 2.3171,0 v -8.8809 m -14.827,0.4674 v 10.751 m -2.32,-2.341 v -8.8809 m 0,8.8809 0.46342,1.4023 1.8537,0.93483 m 0.003,0.003 h 12.512 l 1.8537,-0.93483 0.4634,-1.4023 m 17.611,-12.153 v 8.4135 m 0,-46.274 v 8.8809 m -32.439,-14.49 h 12.512 m -56.543,20.1 1.3902,-1.8697 2.3171,-0.46742 m 0.003,21.967 -2.3171,-0.46744 -1.3902,-1.8696 m 79.707,14.497 0.46342,1.8697 1.8536,0.46742 m 0.003,-50.957 v -3.2719 m -2.3171,41.133 -3.2439,2.3371 m 5.561,10.751 v 3.7393 m 0,-54.688 -1.8536,0.46744 -0.46342,1.8696 m -3.243,8.883 h 0.46342 l 2.7805,2.3371 m 2.3161,-16.827 -2.7805,0.46742 -2.3171,2.3371 -0.46342,2.8045 m -17.609,-3.269 -0.4634,-1.8697 -1.8537,-0.46742 m -40.783,20.097 -0.46342,-1.4022 -1.8536,-0.93484 m 26.417,23.377 0.92683,1.4022 1.3902,0.93484 m -0.007,-28.987 -1.3902,0.46742 -0.92683,1.8697 m -26.413,22.903 1.8536,-0.46744 0.46342,-1.8696 m 60.713,14.497 0.46342,3.2719 2.3171,1.8697 2.7805,0.93483 m -38.001,-57.966 -1.8537,0.46742 -0.46342,1.8697 m -25.953,35.063 v -17.294 m -5.561,0 v 17.294 m -10.195,-17.294 v 17.294 m 10.196,-17.3 v -0.46742 l 0.4634,-0.93483 v -0.46742 l 0.46341,-0.46742 h 0.46342 m 70.44,36.457 h 30.122 m -3.7073,3.7393 h -26.415 m -70.44,-18.229 h -0.46342 l -0.46341,-0.46744 v -0.4674 l -0.4634,-0.46742 v -0.93483 m 29.66,3.7471 v -24.306 m 4.1707,-14.49 v 7.9461 m -2.3171,-7.9461 v 8.4135 m 2.3164,-8.4175 v -2.3371 m 35.68,51.887 h -3.2439 m -103.81,-8.42 h 103.8 m -60.7,-6.07 h -15.756 m 3.7073,2.3371 h 9.7317 m -50.976,1.4022 h 117.24 m -36.607,-24.309 v 25.708 l 0.46341,0.46742 v 0.46742 m 15.297,-41.133 v 8.4135 m -2.3171,-0.46744 v -7.9461 m -0.003,4e-5 v -2.3371 m -12.98,14.487 v 0.46742 l -0.46341,0.46743 v 1.4022 m -80.626,0.003 h 117.24 m -66.268,0.93484 h -9.7317 m 12.049,2.3371 h -15.756 m -40.323,-5.6119 h 116.78 m 3.25,26.65 v 10.751 m -38,-41.6 h 17.146 m 17.614,-4.681 h 3.2439 v 11.218 m 32.434,41.132 v -57.96 h -172.85 m 172.88,57.978 h -172.85 m -2.3171,-2.3371 v -53.753"
       stroke-linecap="round"
       stroke-miterlimit="10"
       id="path6" />
    <path
       transform="matrix(0.82338,0,0,0.823,466.13962,-69.80412)"
       d="m 508.29,339.73 -0.94083,55.947 v 0.48231 m 3.7608,6.2707 h 31.047 m 0,1.9292 h -26.343 m 66.798,0 h -26.343 m -14.109,-1.9292 h 45.159 m -73.389,-68.49 -0.47041,27.009 v 5.7876 m 8.9404,0.9634 h 23.05 m 30.106,0 h -23.05 m 38.103,-0.96462 h -6.1153 m -39.044,0.96462 v 21.704 m -3.2928,14.951 v -1.9292 m -12.231,-28.938 h 8.4673 m 29.636,0 h -7.9969 m -21.639,0 v 9.646 m 21.639,0 h 7.9969 m -29.636,0 h -8.4673 m 1.8816,-26.527 v -14.469 m -1.8816,40.996 v -9.646 m -5.1745,-5.7876 v 21.704 m 27.754,0 h 23.05 m -30.106,0 h -23.05 m -8.9377,0.48229 h 71.502 m -62.564,-0.48229 v -21.704 m 68.209,27.974 h -83.262 m 9.4081,-34.726 v -27.009 m -3.2928,27.009 h 0.47041 m -0.47041,5.7876 v 23.151 m -5.642,-23.147 h 76.676 m -3.296,-5.79 h 3.2928 -71.031 m 0.4682,-27.01 h 2.8224 m 58.801,55.465 v -21.704 m -2.352,0 v 21.704 m 7.9969,-47.266 h -49.393 m 36.221,40.996 v -9.646 m -1.4112,-16.881 v -1.4469 m -6.5857,18.328 v 9.646 m -28.224,-27.974 h -15.053 m 64.446,0 h -14.583 m -34.81,0.96459 h -15.053 m 64.446,0 h -14.583 m 0,0.48231 h -34.81 m 24.461,45.819 v 1.9292 m -3.7632,-36.655 v 21.704 m -35.751,-28.456 h -3.2928 m 0.4706,-27.009 h 70.561 -3.2928 m 3.7618,55.95 -0.47041,-23.151 m -3.2928,-32.797 v 27.009 m 3.2932,-27.011 v 27.009 m 0,0.001 v 5.7876 m 6.12,29.422 v -0.48231 l -0.47042,-55.947 m 0.47042,56.429 -0.47042,2.8938 -1.8816,2.8938 -2.8224,1.4469 -2.8224,0.96459 m -66.803,9.1e-4 -3.2928,-0.96459 -2.352,-1.4469 -1.8816,-2.8938 -0.94083,-2.8938 m 0.47723,-29.421 0.94082,-2.8938 1.8816,-1.9292 2.8224,-0.9646 m 71.025,-0.002 2.8224,0.9646 2.352,1.9292 0.94082,2.8938 m -82.315,-27.008 0.47042,-2.8938 2.352,-2.4115 2.8224,-0.48231 m 70.555,-0.002 2.8224,0.48231 1.8816,2.4115 0.9408,2.8938 m -81.845,0.002 1.4112,-4.3407 4.2336,-1.4469 m 76.675,61.738 -5.6449,-5.7876 m 5.1749,-25.082 0.47042,1.9292 m -0.47042,-1.9292 -1.8816,-2.8938 -3.7633,-0.9646 m 5.6449,-21.222 -1.8816,-4.3407 -3.7633,-1.4469 m -71.035,27.008 -3.2928,0.9646 -1.8816,2.8938 m -0.4656,1.9316 v -0.4823 l 0.4704,-1.4469"
       stroke-linecap="round"
       stroke-miterlimit="10"
       stroke-width="1.2148"
       id="path8" />
    <path
       transform="matrix(-1.2438,0.0050524,-0.0050089,-1.2546,374.1,435.8)"
       d="m -389.82,258.99 -62.164,0.21566"
       stroke-width="8.0272"
       id="path10" />
    <path
       transform="matrix(-1.2438,0.0050524,-0.0050089,-1.2546,374.1,435.8)"
       d="m -429.48,259.01 h -35.714"
       stroke-linecap="round"
       stroke-width="2.4526"
       id="path12" />
    <path
       transform="matrix(-1.2438,0.0050524,-0.0050089,-1.2546,374.04,412.54)"
       d="m -390.04,258.99 -61.941,0.21655"
       stroke-width="8.0272"
       id="path14" />
    <path
       transform="matrix(-1.2438,0.0050524,-0.0050089,-1.2546,374.04,412.54)"
       d="m -429.48,259.01 h -35.714"
       stroke-linecap="round"
       stroke-width="2.4526"
       id="path16" />
    <rect
       transform="matrix(0.99997,0,0,0.99997,320.6,-143.78)"
       x="0.45677"
       y="211.82001"
       width="536.95001"
       height="55.995998"
       stroke-linecap="round"
       style="paint-order:markers stroke fill"
       id="rect18" />
  </g>
  <path
     transform="matrix(0.99997,0,0,0.99997,272.28894,-211.28167)"
     d="m 273.47,198.92 h 24.781 l -32.709,84.795 h -24.781 z"
     fill="#ffffff"
     stroke="#000000"
     stroke-miterlimit="0"
     id="path22" />
  <rect
     transform="matrix(0.44871,0,0,0.99997,430.89894,-211.28167)"
     x="251.5"
     y="195.92"
     width="60.713001"
     height="4.8369002"
     fill="#ffffff"
     stroke-width="1.4928"
     id="rect24" />
  <rect
     transform="matrix(0.4736,0,0,0.99997,392.39894,-125.88867)"
     x="251.5"
     y="195.92"
     width="60.713001"
     height="4.8369002"
     fill="#ffffff"
     stroke-width="1.4531"
     id="rect102" />
</svg>
