<?xml version="1.0" encoding="UTF-8" standalone="no"?>
<svg
   width="996.08405"
   height="278.62637"
   fill="none"
   stroke-linecap="round"
   stroke-linejoin="round"
   version="1.1"
   viewBox="15 -292 263.54391 73.719287"
   id="svg2718"
   sodipodi:docname="desenho DL Q 220.svg"
   inkscape:version="1.2.2 (732a01da63, 2022-12-09)"
   xmlns:inkscape="http://www.inkscape.org/namespaces/inkscape"
   xmlns:sodipodi="http://sodipodi.sourceforge.net/DTD/sodipodi-0.dtd"
   xmlns="http://www.w3.org/2000/svg"
   xmlns:svg="http://www.w3.org/2000/svg"
   xmlns:rdf="http://www.w3.org/1999/02/22-rdf-syntax-ns#"
   xmlns:cc="http://creativecommons.org/ns#"
   xmlns:dc="http://purl.org/dc/elements/1.1/">
  <sodipodi:namedview
     id="namedview2720"
     pagecolor="#505050"
     bordercolor="#ffffff"
     borderopacity="1"
     inkscape:showpageshadow="0"
     inkscape:pageopacity="0"
     inkscape:pagecheckerboard="1"
     inkscape:deskcolor="#505050"
     showgrid="false"
     inkscape:zoom="3.0938648"
     inkscape:cx="881.26024"
     inkscape:cy="36.523898"
     inkscape:window-width="1680"
     inkscape:window-height="979"
     inkscape:window-x="1912"
     inkscape:window-y="-8"
     inkscape:window-maximized="1"
     inkscape:current-layer="svg2718" />
  <metadata
     id="metadata2378">
    <rdf:RDF>
      <cc:Work
         rdf:about="">
        <dc:format>image/svg+xml</dc:format>
        <dc:type
           rdf:resource="http://purl.org/dc/dcmitype/StillImage" />
      </cc:Work>
    </rdf:RDF>
  </metadata>
  <defs
     id="defs2392">
    <clipPath
       id="clipPath3297">
      <path
         d="m 67.666,-280.52 v 0.17828 c 0.0068,-0.002 0.014,-0.003 0.02222,-0.004 0.0095,-4e-4 0.01969,5e-4 0.031,0.003 0.02691,0.005 0.05452,0.002 0.08165,10e-4 0.01302,0.001 0.02627,-10e-4 0.03927,5.3e-4 0.008,10e-4 0.0163,0.002 0.02429,0.003 0.0041,0 0.0083,0.002 0.01241,0.002 7.94e-4,9e-5 0.0043,5.8e-4 0.0072,5.3e-4 7.94e-4,-1.7e-4 0.0021,-4e-4 0.0026,-5.3e-4 0.0016,-3.5e-4 0.0035,-8e-4 0.0052,-0.001 0.01614,-3.1e-4 0.03241,1e-4 0.04857,0 0.01823,-8.9e-4 0.03577,0.004 0.05375,0.006 h 5.29e-4 c 0.0016,1.5e-4 0.0035,-9e-5 0.0052,0 -0.0016,-6.1e-4 -0.0019,-7.4e-4 -0.0036,-5.3e-4 0.0024,-5e-4 0.0044,-10e-4 0.0067,-0.002 0.0024,-4e-4 0.01516,-3e-5 0.01704,0 0.009,2.6e-4 0.01008,1e-4 0.01498,0 0.0024,-10e-6 0.0052,-10e-6 0.0078,0 0.01241,5e-5 0.02368,0.002 0.03359,0.004 v -0.19017 z m 0.32246,0.18914 c -0.0044,9.5e-4 -0.0097,0.002 -0.01138,0.003 l 5.29e-4,5.3e-4 c 0.0036,-8.5e-4 0.0074,-0.002 0.01085,-0.003 z"
         fill="#ff0000"
         id="path2380" />
    </clipPath>
    <clipPath
       id="clipPath3297-7-5">
      <path
         d="m 67.666,-280.52 v 0.17828 c 0.0068,-0.002 0.014,-0.003 0.02222,-0.004 0.0095,-4e-4 0.01969,5e-4 0.031,0.003 0.02691,0.005 0.05452,0.002 0.08165,10e-4 0.01302,0.001 0.02627,-10e-4 0.03927,5.3e-4 0.008,10e-4 0.0163,0.002 0.02429,0.003 0.0041,0 0.0083,0.002 0.01241,0.002 7.94e-4,9e-5 0.0043,5.8e-4 0.0072,5.3e-4 7.94e-4,-1.7e-4 0.0021,-4e-4 0.0026,-5.3e-4 0.0016,-3.5e-4 0.0035,-8e-4 0.0052,-0.001 0.01614,-3.1e-4 0.03241,1e-4 0.04857,0 0.01823,-8.9e-4 0.03577,0.004 0.05375,0.006 h 5.29e-4 c 0.0016,1.5e-4 0.0035,-9e-5 0.0052,0 -0.0016,-6.1e-4 -0.0019,-7.4e-4 -0.0036,-5.3e-4 0.0024,-5e-4 0.0044,-10e-4 0.0067,-0.002 0.0024,-4e-4 0.01516,-3e-5 0.01704,0 0.009,2.6e-4 0.01008,1e-4 0.01498,0 0.0024,-10e-6 0.0052,-10e-6 0.0078,0 0.01241,5e-5 0.02368,0.002 0.03359,0.004 v -0.19017 z m 0.32246,0.18914 c -0.0044,9.5e-4 -0.0097,0.002 -0.01138,0.003 l 5.29e-4,5.3e-4 c 0.0036,-8.5e-4 0.0074,-0.002 0.01085,-0.003 z"
         fill="#ff0000"
         id="path2383" />
    </clipPath>
    <clipPath
       id="clipPath3297-7-5-9">
      <path
         d="m 67.666,-280.52 v 0.17828 c 0.0068,-0.002 0.014,-0.003 0.02222,-0.004 0.0095,-4e-4 0.01969,5e-4 0.031,0.003 0.02691,0.005 0.05452,0.002 0.08165,10e-4 0.01302,0.001 0.02627,-10e-4 0.03927,5.3e-4 0.008,10e-4 0.0163,0.002 0.02429,0.003 0.0041,0 0.0083,0.002 0.01241,0.002 7.94e-4,9e-5 0.0043,5.8e-4 0.0072,5.3e-4 7.94e-4,-1.7e-4 0.0021,-4e-4 0.0026,-5.3e-4 0.0016,-3.5e-4 0.0035,-8e-4 0.0052,-0.001 0.01614,-3.1e-4 0.03241,1e-4 0.04857,0 0.01823,-8.9e-4 0.03577,0.004 0.05375,0.006 h 5.29e-4 c 0.0016,1.5e-4 0.0035,-9e-5 0.0052,0 -0.0016,-6.1e-4 -0.0019,-7.4e-4 -0.0036,-5.3e-4 0.0024,-5e-4 0.0044,-10e-4 0.0067,-0.002 0.0024,-4e-4 0.01516,-3e-5 0.01704,0 0.009,2.6e-4 0.01008,1e-4 0.01498,0 0.0024,-10e-6 0.0052,-10e-6 0.0078,0 0.01241,5e-5 0.02368,0.002 0.03359,0.004 v -0.19017 z m 0.32246,0.18914 c -0.0044,9.5e-4 -0.0097,0.002 -0.01138,0.003 l 5.29e-4,5.3e-4 c 0.0036,-8.5e-4 0.0074,-0.002 0.01085,-0.003 z"
         fill="#ff0000"
         id="path2386" />
    </clipPath>
    <clipPath
       id="clipPath3297-7-5-9-8-6">
      <path
         d="m 67.666,-280.52 v 0.17828 c 0.0068,-0.002 0.014,-0.003 0.02222,-0.004 0.0095,-4e-4 0.01969,5e-4 0.031,0.003 0.02691,0.005 0.05452,0.002 0.08165,10e-4 0.01302,0.001 0.02627,-10e-4 0.03927,5.3e-4 0.008,10e-4 0.0163,0.002 0.02429,0.003 0.0041,0 0.0083,0.002 0.01241,0.002 7.94e-4,9e-5 0.0043,5.8e-4 0.0072,5.3e-4 7.94e-4,-1.7e-4 0.0021,-4e-4 0.0026,-5.3e-4 0.0016,-3.5e-4 0.0035,-8e-4 0.0052,-0.001 0.01614,-3.1e-4 0.03241,1e-4 0.04857,0 0.01823,-8.9e-4 0.03577,0.004 0.05375,0.006 h 5.29e-4 c 0.0016,1.5e-4 0.0035,-9e-5 0.0052,0 -0.0016,-6.1e-4 -0.0019,-7.4e-4 -0.0036,-5.3e-4 0.0024,-5e-4 0.0044,-10e-4 0.0067,-0.002 0.0024,-4e-4 0.01516,-3e-5 0.01704,0 0.009,2.6e-4 0.01008,1e-4 0.01498,0 0.0024,-10e-6 0.0052,-10e-6 0.0078,0 0.01241,5e-5 0.02368,0.002 0.03359,0.004 v -0.19017 z m 0.32246,0.18914 c -0.0044,9.5e-4 -0.0097,0.002 -0.01138,0.003 l 5.29e-4,5.3e-4 c 0.0036,-8.5e-4 0.0074,-0.002 0.01085,-0.003 z"
         fill="#ff0000"
         id="path2389" />
    </clipPath>
    <clipPath
       id="clipPath3297-0">
      <path
         d="m 67.666,-280.52 v 0.17828 c 0.0068,-0.002 0.014,-0.003 0.02222,-0.004 0.0095,-4e-4 0.01969,5e-4 0.031,0.003 0.02691,0.005 0.05452,0.002 0.08165,10e-4 0.01302,0.001 0.02627,-10e-4 0.03927,5.3e-4 0.008,10e-4 0.0163,0.002 0.02429,0.003 0.0041,0 0.0083,0.002 0.01241,0.002 7.94e-4,9e-5 0.0043,5.8e-4 0.0072,5.3e-4 7.94e-4,-1.7e-4 0.0021,-4e-4 0.0026,-5.3e-4 0.0016,-3.5e-4 0.0035,-8e-4 0.0052,-0.001 0.01614,-3.1e-4 0.03241,1e-4 0.04857,0 0.01823,-8.9e-4 0.03577,0.004 0.05375,0.006 h 5.29e-4 c 0.0016,1.5e-4 0.0035,-9e-5 0.0052,0 -0.0016,-6.1e-4 -0.0019,-7.4e-4 -0.0036,-5.3e-4 0.0024,-5e-4 0.0044,-10e-4 0.0067,-0.002 0.0024,-4e-4 0.01516,-3e-5 0.01704,0 0.009,2.6e-4 0.01008,1e-4 0.01498,0 0.0024,-10e-6 0.0052,-10e-6 0.0078,0 0.01241,5e-5 0.02368,0.002 0.03359,0.004 v -0.19017 z m 0.32246,0.18914 c -0.0044,9.5e-4 -0.0097,0.002 -0.01138,0.003 l 5.29e-4,5.3e-4 c 0.0036,-8.5e-4 0.0074,-0.002 0.01085,-0.003 z"
         fill="#ff0000"
         id="path521" />
    </clipPath>
    <clipPath
       id="clipPath3297-7-5-2">
      <path
         d="m 67.666,-280.52 v 0.17828 c 0.0068,-0.002 0.014,-0.003 0.02222,-0.004 0.0095,-4e-4 0.01969,5e-4 0.031,0.003 0.02691,0.005 0.05452,0.002 0.08165,10e-4 0.01302,0.001 0.02627,-10e-4 0.03927,5.3e-4 0.008,10e-4 0.0163,0.002 0.02429,0.003 0.0041,0 0.0083,0.002 0.01241,0.002 7.94e-4,9e-5 0.0043,5.8e-4 0.0072,5.3e-4 7.94e-4,-1.7e-4 0.0021,-4e-4 0.0026,-5.3e-4 0.0016,-3.5e-4 0.0035,-8e-4 0.0052,-0.001 0.01614,-3.1e-4 0.03241,1e-4 0.04857,0 0.01823,-8.9e-4 0.03577,0.004 0.05375,0.006 h 5.29e-4 c 0.0016,1.5e-4 0.0035,-9e-5 0.0052,0 -0.0016,-6.1e-4 -0.0019,-7.4e-4 -0.0036,-5.3e-4 0.0024,-5e-4 0.0044,-10e-4 0.0067,-0.002 0.0024,-4e-4 0.01516,-3e-5 0.01704,0 0.009,2.6e-4 0.01008,1e-4 0.01498,0 0.0024,-10e-6 0.0052,-10e-6 0.0078,0 0.01241,5e-5 0.02368,0.002 0.03359,0.004 v -0.19017 z m 0.32246,0.18914 c -0.0044,9.5e-4 -0.0097,0.002 -0.01138,0.003 l 5.29e-4,5.3e-4 c 0.0036,-8.5e-4 0.0074,-0.002 0.01085,-0.003 z"
         fill="#ff0000"
         id="path524" />
    </clipPath>
    <clipPath
       id="clipPath3297-7-5-9-4">
      <path
         d="m 67.666,-280.52 v 0.17828 c 0.0068,-0.002 0.014,-0.003 0.02222,-0.004 0.0095,-4e-4 0.01969,5e-4 0.031,0.003 0.02691,0.005 0.05452,0.002 0.08165,10e-4 0.01302,0.001 0.02627,-10e-4 0.03927,5.3e-4 0.008,10e-4 0.0163,0.002 0.02429,0.003 0.0041,0 0.0083,0.002 0.01241,0.002 7.94e-4,9e-5 0.0043,5.8e-4 0.0072,5.3e-4 7.94e-4,-1.7e-4 0.0021,-4e-4 0.0026,-5.3e-4 0.0016,-3.5e-4 0.0035,-8e-4 0.0052,-0.001 0.01614,-3.1e-4 0.03241,1e-4 0.04857,0 0.01823,-8.9e-4 0.03577,0.004 0.05375,0.006 h 5.29e-4 c 0.0016,1.5e-4 0.0035,-9e-5 0.0052,0 -0.0016,-6.1e-4 -0.0019,-7.4e-4 -0.0036,-5.3e-4 0.0024,-5e-4 0.0044,-10e-4 0.0067,-0.002 0.0024,-4e-4 0.01516,-3e-5 0.01704,0 0.009,2.6e-4 0.01008,1e-4 0.01498,0 0.0024,-10e-6 0.0052,-10e-6 0.0078,0 0.01241,5e-5 0.02368,0.002 0.03359,0.004 v -0.19017 z m 0.32246,0.18914 c -0.0044,9.5e-4 -0.0097,0.002 -0.01138,0.003 l 5.29e-4,5.3e-4 c 0.0036,-8.5e-4 0.0074,-0.002 0.01085,-0.003 z"
         fill="#ff0000"
         id="path527" />
    </clipPath>
    <clipPath
       id="clipPath3297-7-5-9-8-6-6">
      <path
         d="m 67.666,-280.52 v 0.17828 c 0.0068,-0.002 0.014,-0.003 0.02222,-0.004 0.0095,-4e-4 0.01969,5e-4 0.031,0.003 0.02691,0.005 0.05452,0.002 0.08165,10e-4 0.01302,0.001 0.02627,-10e-4 0.03927,5.3e-4 0.008,10e-4 0.0163,0.002 0.02429,0.003 0.0041,0 0.0083,0.002 0.01241,0.002 7.94e-4,9e-5 0.0043,5.8e-4 0.0072,5.3e-4 7.94e-4,-1.7e-4 0.0021,-4e-4 0.0026,-5.3e-4 0.0016,-3.5e-4 0.0035,-8e-4 0.0052,-0.001 0.01614,-3.1e-4 0.03241,1e-4 0.04857,0 0.01823,-8.9e-4 0.03577,0.004 0.05375,0.006 h 5.29e-4 c 0.0016,1.5e-4 0.0035,-9e-5 0.0052,0 -0.0016,-6.1e-4 -0.0019,-7.4e-4 -0.0036,-5.3e-4 0.0024,-5e-4 0.0044,-10e-4 0.0067,-0.002 0.0024,-4e-4 0.01516,-3e-5 0.01704,0 0.009,2.6e-4 0.01008,1e-4 0.01498,0 0.0024,-10e-6 0.0052,-10e-6 0.0078,0 0.01241,5e-5 0.02368,0.002 0.03359,0.004 v -0.19017 z m 0.32246,0.18914 c -0.0044,9.5e-4 -0.0097,0.002 -0.01138,0.003 l 5.29e-4,5.3e-4 c 0.0036,-8.5e-4 0.0074,-0.002 0.01085,-0.003 z"
         fill="#ff0000"
         id="path530" />
    </clipPath>
  </defs>
  <g
     id="g1890"
     transform="matrix(0.99997489,0,0,0.99997489,-12.785176,-6.3883141)">
    <path
       transform="matrix(2.3703,0,0,2.3727,231.48,-906.09229)"
       d="m 15.775,267.47 0.74597,-0.35891 -0.86174,-0.24233 0.76748,-0.31178 -0.82376,-0.24069 0.69804,-0.28366 -0.73276,-0.18525 0.60539,-0.3399 -0.66078,-0.18195 0.56648,-0.34354 -0.63431,-0.26088 0.47717,-0.2638 -0.53341,-0.20558 0.4383,-0.31957 -0.4383,-0.23323 0.31263,-0.29196 -0.3581,-0.21913 0.23238,-0.33499 -0.23238,-0.23818 0.16954,-0.21253 -1.0727,0.0132 -0.66573,5.0546 h 2.0006"
       fill="#000000"
       stroke="#000000"
       stroke-linecap="round"
       stroke-linejoin="round"
       stroke-width="0.11157"
       id="path537" />
    <path
       transform="matrix(2.3703,0,0,2.3727,231.48,-906.09229)"
       d="m 9.0818,273.6 h 11.545 v 3.787 H 9.0818"
       id="path541"
       style="fill:none;stroke:#000000;stroke-width:0.11157;stroke-linecap:butt;stroke-linejoin:miter" />
    <path
       transform="matrix(2.3703,0,0,2.3727,231.48,-906.09229)"
       d="m 8.7097,277.39 5.1449,-3.787"
       id="path543"
       style="fill:none;stroke:#000000;stroke-width:0.11157;stroke-linecap:butt;stroke-linejoin:miter" />
    <path
       transform="matrix(2.3703,0,0,2.3727,231.48,-906.09229)"
       d="m 10.232,277.4 5.1449,-3.787"
       id="path545"
       style="fill:none;stroke:#000000;stroke-width:0.11157;stroke-linecap:butt;stroke-linejoin:miter" />
    <path
       transform="matrix(2.3703,0,0,2.3727,231.48,-906.09229)"
       d="m 11.782,277.39 5.145,-3.787"
       id="path547"
       style="fill:none;stroke:#000000;stroke-width:0.11157;stroke-linecap:butt;stroke-linejoin:miter" />
    <path
       transform="matrix(2.3703,0,0,2.3727,231.48,-906.09229)"
       d="m 8.952,275.01 1.8443,-1.4117"
       id="path549"
       style="fill:none;stroke:#000000;stroke-width:0.11157;stroke-linecap:butt;stroke-linejoin:miter" />
    <path
       transform="matrix(2.3703,0,0,2.3727,231.48,-906.09229)"
       d="m 8.899,276.13 3.4206,-2.5092"
       id="path551"
       style="fill:none;stroke:#000000;stroke-width:0.11157;stroke-linecap:butt;stroke-linejoin:miter" />
    <path
       transform="matrix(2.3703,0,0,2.3727,231.48,-906.09229)"
       d="m 14.894,277.38 5.1458,-3.787"
       id="path553"
       style="fill:none;stroke:#000000;stroke-width:0.11157;stroke-linecap:butt;stroke-linejoin:miter" />
    <path
       transform="matrix(2.3703,0,0,2.3727,231.48,-906.09229)"
       d="m 13.268,277.44 5.145,-3.787"
       id="path555"
       style="fill:none;stroke:#000000;stroke-width:0.11157;stroke-linecap:butt;stroke-linejoin:miter" />
    <path
       transform="matrix(2.3703,0,0,2.3727,231.48,-906.09229)"
       d="m 16.435,277.4 4.2063,-3.1113"
       id="path557"
       style="fill:none;stroke:#000000;stroke-width:0.11157;stroke-linecap:butt;stroke-linejoin:miter" />
    <path
       transform="matrix(2.3703,0,0,2.3727,231.48,-906.09229)"
       d="m 17.96,277.39 2.6556,-1.9659"
       id="path559"
       style="fill:none;stroke:#000000;stroke-width:0.11157;stroke-linecap:butt;stroke-linejoin:miter" />
    <path
       transform="matrix(2.3703,0,0,2.3727,231.48,-906.09229)"
       d="m 19.496,277.39 1.1264,-0.82702"
       id="path561"
       style="fill:none;stroke:#000000;stroke-width:0.11157;stroke-linecap:butt;stroke-linejoin:miter" />
    <path
       transform="matrix(2.3703,0,0,2.3727,231.48,-906.09229)"
       d="m 11.379,263.65 8.3615,0.005 1.8731,3.6902 H 9.3306 Z"
       id="path581"
       style="fill:none;stroke:#000000;stroke-width:0.11157;stroke-linecap:butt;stroke-linejoin:miter" />
    <g
       id="g605"
       style="fill:none;stroke:#000000;stroke-width:0.11157;stroke-linecap:butt;stroke-linejoin:miter"
       transform="translate(0,-3.3822943)">
      <path
         transform="matrix(2.3703,0,0,2.3727,231.48,-902.71)"
         d="m 8.7874,289 1.5871,-0.0182 v 2.2198 l -1.6226,0.004"
         id="path585" />
      <path
         transform="matrix(2.3703,0,0,2.3727,231.48,-902.71)"
         d="M 8.7519,290.19 9.918,288.9834"
         id="path587" />
      <path
         transform="matrix(2.3703,0,0,2.3727,231.48,-902.71)"
         d="m 8.8089,291.22 1.5763,-1.5441"
         id="path589" />
      <path
         transform="matrix(2.3703,0,0,2.3727,231.48,-902.71)"
         d="m 22.192,289 -5.2574,-0.0182 v 2.2198 l 5.4187,-0.0455"
         id="path591" />
      <path
         transform="matrix(2.3703,0,0,2.3727,231.48,-902.71)"
         d="m 19.698,291.2 -2.3074,-2.2198"
         id="path593" />
      <path
         transform="matrix(2.3703,0,0,2.3727,231.48,-902.71)"
         d="m 20.912,291.19 -2.2553,-2.1412"
         id="path595" />
      <path
         transform="matrix(2.3703,0,0,2.3727,231.48,-902.71)"
         d="m 18.5,291.22 -1.5763,-1.5441"
         id="path597" />
      <path
         transform="matrix(2.3703,0,0,2.3727,231.48,-902.71)"
         d="m 22.065,291.19 -2.3066,-2.2198"
         id="path599" />
      <path
         transform="matrix(2.3703,0,0,2.3727,231.48,-902.71)"
         d="m 22.2,290.1 -1.1769,-1.0702"
         id="path601" />
      <path
         transform="matrix(2.3703,0,0,2.3727,231.48,-902.71)"
         d="m 10.394,291.41 6.5228,-0.0157"
         id="path603" />
    </g>
    <g
       stroke-linejoin="round"
       id="g639"
       style="fill:none;stroke:#000000;stroke-width:0.11157;stroke-linecap:butt"
       transform="translate(0,-3.3822943)">
      <path
         transform="matrix(2.3703,0,0,2.3727,231.48,-902.71)"
         d="m 16.346,282.82 -0.67403,0.11247 0.05623,0.39282 c 0,0 0.39282,0.16874 0.56157,0.16874 0.1687,0 0.84273,-0.50533 0.84273,-0.50533 0,0 0,-0.1687 -0.1687,-0.1687 h -0.4491 z"
         id="path615" />
      <path
         transform="matrix(2.3703,0,0,2.3727,231.48,-902.71)"
         d="m 19.154,282.79 c -0.01736,0.004 -0.02977,0.0314 -0.03887,0.0711 -0.03057,0.13482 -0.01901,0.41268 -0.01901,0.41268 0,0 -0.13563,0.0579 0.27045,0.19352 0.40688,0.13567 0.50368,0.54255 0.73607,0.19436 0.23238,-0.349 0.38702,-0.75508 0.38702,-0.81377 0,-0.0579 -0.44491,-0.13567 -0.77409,-0.13567 -0.32914,0 -0.56157,0.0777 -0.56157,0.0777 z"
         id="path617" />
      <path
         transform="matrix(2.3703,0,0,2.3727,231.48,-902.71)"
         d="m 22.481,284.36 -0.57148,-0.17035 -1.1835,-0.68314 0.38127,-0.69719 c 0,0 1.0586,0.0199 1.3737,0.13893"
         id="path619" />
      <path
         transform="matrix(2.3703,0,0,2.3727,231.48,-902.71)"
         d="m 14.236,283.87 1.1314,0.76749 0.46066,-0.64757 c 0,0 -0.33659,-0.78569 -0.58058,-1.0189 -0.24399,-0.23243 -1.9171,-0.43009 -1.9171,-0.43009 0,0 -0.23238,0.24399 0.0116,0.47637 0.24399,0.23243 0.65002,0.6203 0.65002,0.6203 z"
         id="path621" />
      <path
         transform="matrix(2.3703,0,0,2.3727,231.48,-902.71)"
         d="m 11.962,283.44 c 0,0 0.52269,-0.46477 0.3482,-0.48383 -0.1745,-0.0198 -0.32918,-0.31012 -0.67734,-0.29026 -0.34902,0.019 -0.65833,0.25139 -0.6972,0.30932 -0.03887,0.0579 -0.05789,0.38702 0.13563,0.38702 0.19352,0 0.89071,0.0777 0.89071,0.0777 z"
         id="path623" />
      <path
         transform="matrix(2.3703,0,0,2.3727,231.48,-902.71)"
         d="m 10.91,283.73 -1.3481,0.15379 0.11247,0.53925 c 0,0 0.78568,0.23158 1.1231,0.23158 0.3366,0 1.6847,-0.69389 1.6847,-0.69389 0,0 0,-0.23073 -0.33659,-0.23073 h -0.899 z"
         id="path625" />
      <path
         transform="matrix(2.3703,0,0,2.3727,231.48,-902.71)"
         d="m 8.0447,284.53 c 0.349,-0.0198 0.99657,-0.33659 1.0354,-0.39447 0.038868,-0.0579 0.057893,-0.38707 -0.13563,-0.38707 -0.19353,0 -0.89071,-0.0777 -0.89071,-0.0777"
         id="path627" />
      <path
         transform="matrix(2.3703,0,0,2.3727,231.48,-902.71)"
         d="m 10.001,283.54 c 0.01819,-0.003 0.03225,-0.0298 0.04383,-0.0686 0.0397,-0.13233 0.04714,-0.41019 0.04714,-0.41019 0,0 0.13977,-0.0488 -0.25638,-0.21172 -0.39698,-0.16294 -0.46561,-0.57563 -0.72117,-0.24399 -0.25555,0.33164 -0.43833,0.72696 -0.44164,0.78485 -0.00414,0.0587 0.43502,0.16624 0.76335,0.18856 0.32834,0.0223 0.56486,-0.0389 0.56486,-0.0389 z"
         id="path629" />
      <path
         transform="matrix(2.3703,0,0,2.3727,231.48,-902.71)"
         d="m 12.669,284.65 c -0.01736,-0.004 -0.02977,-0.0314 -0.03887,-0.0711 -0.03057,-0.13478 -0.01901,-0.41268 -0.01901,-0.41268 0,0 -0.13563,-0.0579 0.27126,-0.19352 0.40608,-0.13562 0.50284,-0.54255 0.73526,-0.19435 0.23238,0.34899 0.38787,0.75507 0.38787,0.8138 0,0.0579 -0.44576,0.13563 -0.77494,0.13563 -0.32914,0 -0.56157,-0.0777 -0.56157,-0.0777 z"
         id="path631" />
      <path
         transform="matrix(2.3703,0,0,2.3727,231.48,-902.71)"
         d="m 17.814,284.56 1.3481,-0.22497 -0.11251,-0.7865 c 0,0 -0.7865,-0.33659 -1.1231,-0.33659 -0.33744,0 -1.6855,1.0106 -1.6855,1.0106 0,0 0,0.33744 0.33744,0.33744 h 0.89816 z"
         id="path633" />
      <path
         transform="matrix(2.3703,0,0,2.3727,231.48,-902.71)"
         d="m 20.854,284.61 c 0,0 0.5227,-0.46477 0.3482,-0.48378 -0.1745,-0.0199 -0.32918,-0.31017 -0.67733,-0.29031 -0.349,0.019 -0.65832,0.25144 -0.69719,0.30932 -0.03887,0.0579 -0.05788,0.38703 0.13563,0.38703 0.19351,0 0.8907,0.0777 0.8907,0.0777 z"
         id="path635" />
      <path
         transform="matrix(2.3703,0,0,2.3727,231.48,-902.71)"
         d="m 8.0605,284.92 14.375,-0.014"
         id="path637" />
    </g>
    <path
       transform="matrix(2.3703,0,0,2.3727,231.48,-906.09229)"
       d="m 10.394,291.41 -0.93541,0.007 0.00249,0.19601 4.1305,0.247 4.2324,-0.2776 -0.0016,-0.19519 -0.90561,0.007 0.01567,-2.9586 -6.5155,0.008 z"
       stroke-linejoin="miter"
       id="path641"
       style="fill:none;stroke:#000000;stroke-width:0.11157;stroke-linecap:butt" />
  </g>
  <rect
     transform="matrix(0.99859492,0,0,0.99859492,-8.4071481,-6.8032776)"
     x="23.572001"
     y="-284.48001"
     width="73.203003"
     height="71.586998"
     fill="none"
     stroke-linecap="round"
     stroke-width="0.26495"
     style="stroke:#000000;stroke-linejoin:miter;paint-order:markers stroke fill"
     id="rect779" />
  <rect
     transform="matrix(0.99859492,0,0,0.99859492,-8.4071481,-6.8032776)"
     x="36.400002"
     y="-271.42999"
     width="47.592999"
     height="46.542"
     fill="none"
     stroke-linecap="round"
     stroke-width="0.26495"
     style="stroke:#000000;stroke-linejoin:miter;paint-order:markers stroke fill"
     id="rect781" />
  <g
     id="g1847"
     transform="matrix(0.99997489,0,0,0.99997489,-6.6841961,-2.7840673)">
    <path
       transform="matrix(0.99862,0,0,0.99862,0.16483,-0.39923)"
       d="m 143.86,-256.84 h -0.24611"
       id="path653"
       style="fill:none;stroke:#000000;stroke-width:0.26495;stroke-linecap:round;stroke-linejoin:round" />
    <path
       transform="matrix(0.99862,0,0,0.99862,0.16483,-0.39923)"
       d="m 146.32,-250.2 h -0.44536"
       id="path655"
       style="fill:none;stroke:#000000;stroke-width:0.26495;stroke-linecap:round;stroke-linejoin:round" />
    <path
       transform="matrix(0.99862,0,0,0.99862,0.16483,-0.39923)"
       d="m 211.65,-251.05 h -1.1641"
       id="path657"
       style="fill:none;stroke:#000000;stroke-width:0.26495;stroke-linecap:round;stroke-linejoin:round" />
    <path
       transform="matrix(0.99862,0,0,0.99862,0.16483,-0.39923)"
       d="m 141.49,-256.84 h -0.0144"
       id="path659"
       style="fill:none;stroke:#000000;stroke-width:0.26495;stroke-linecap:round;stroke-linejoin:round" />
    <path
       transform="matrix(0.99862,0,0,0.99862,0.16483,-0.39923)"
       d="m 149.6,-251.05 h -3.2663"
       id="path661"
       style="fill:none;stroke:#000000;stroke-width:0.26495;stroke-linecap:round;stroke-linejoin:round" />
    <path
       transform="matrix(0.99862,0,0,0.99862,0.16483,-0.39923)"
       d="m 132.43,-244.49 h 86.281"
       id="path663"
       style="fill:none;stroke:#000000;stroke-width:0.26495;stroke-linecap:round;stroke-linejoin:round" />
    <path
       transform="matrix(0.99862,0,0,0.99862,0.16483,-0.39923)"
       d="m 141.34,-251.05 h -0.67474"
       id="path665"
       style="fill:none;stroke:#000000;stroke-width:0.26495;stroke-linecap:round;stroke-linejoin:round" />
    <path
       transform="matrix(0.99862,0,0,0.99862,0.16483,-0.39923)"
       d="m 210.48,-251.05 0.0954,5.79"
       id="path667"
       style="fill:none;stroke:#000000;stroke-width:0.26495;stroke-linecap:round;stroke-linejoin:round" />
    <path
       transform="matrix(0.99862,0,0,0.99862,0.16483,-0.39923)"
       d="M 218.9,-245.26 H 132.243"
       id="path669"
       style="fill:none;stroke:#000000;stroke-width:0.26495;stroke-linecap:round;stroke-linejoin:round" />
    <path
       transform="matrix(0.99862,0,0,0.99862,0.16483,-0.39923)"
       d="m 140.67,-251.05 -0.0954,5.79"
       id="path671"
       style="fill:none;stroke:#000000;stroke-width:0.26495;stroke-linecap:round;stroke-linejoin:round" />
    <path
       transform="matrix(0.99862,0,0,0.99862,0.16483,-0.39923)"
       d="m 140.67,-251.05 h -1.1642"
       id="path673"
       style="fill:none;stroke:#000000;stroke-width:0.26495;stroke-linecap:round;stroke-linejoin:round" />
    <path
       transform="matrix(0.99862,0,0,0.99862,0.16483,-0.39923)"
       d="m 210.48,-251.05 h -8.9293"
       id="path675"
       style="fill:none;stroke:#000000;stroke-width:0.26495;stroke-linecap:round;stroke-linejoin:round" />
    <path
       transform="matrix(0.99862,0,0,0.99862,0.16483,-0.39923)"
       d="m 177.11,-251.05 h -3.0742"
       id="path677"
       style="fill:none;stroke:#000000;stroke-width:0.26495;stroke-linecap:round;stroke-linejoin:round" />
    <path
       transform="matrix(0.99862,0,0,0.99862,0.16483,-0.39923)"
       d="m 151.97,-251.05 h -2.3775"
       id="path679"
       style="fill:none;stroke:#000000;stroke-width:0.26495;stroke-linecap:round;stroke-linejoin:round" />
    <path
       transform="matrix(0.99862,0,0,0.99862,0.16483,-0.39923)"
       d="m 145.88,-251.05 h -1.2938"
       id="path681"
       style="fill:none;stroke:#000000;stroke-width:0.26495;stroke-linecap:round;stroke-linejoin:round" />
    <path
       transform="matrix(0.99862,0,0,0.99862,0.16483,-0.39923)"
       d="m 145.88,-251.05 h 0.44537"
       id="path683"
       style="fill:none;stroke:#000000;stroke-width:0.26495;stroke-linecap:round;stroke-linejoin:round" />
    <path
       transform="matrix(0.99862,0,0,0.99862,0.16483,-0.39923)"
       d="M 199.17,-251.05 H 177.107"
       id="path685"
       style="fill:none;stroke:#000000;stroke-width:0.26495;stroke-linecap:round;stroke-linejoin:round" />
    <path
       transform="matrix(0.99862,0,0,0.99862,0.16483,-0.39923)"
       d="M 174.04,-251.05 H 151.977"
       id="path687"
       style="fill:none;stroke:#000000;stroke-width:0.26495;stroke-linecap:round;stroke-linejoin:round" />
    <path
       transform="matrix(0.99862,0,0,0.99862,0.16483,-0.39923)"
       d="m 146.33,-251.05 -0.0122,0.84918"
       id="path689"
       style="fill:none;stroke:#000000;stroke-width:0.26495;stroke-linecap:round;stroke-linejoin:round" />
    <path
       transform="matrix(0.99862,0,0,0.99862,0.16483,-0.39923)"
       d="m 145.87,-250.2 0.0122,-0.84918"
       id="path691"
       style="fill:none;stroke:#000000;stroke-width:0.26495;stroke-linecap:round;stroke-linejoin:round" />
    <path
       transform="matrix(0.99862,0,0,0.99862,0.16483,-0.39923)"
       d="m 201.55,-251.05 h -2.3775"
       id="path693"
       style="fill:none;stroke:#000000;stroke-width:0.26495;stroke-linecap:round;stroke-linejoin:round" />
    <path
       transform="matrix(0.99862,0,0,0.99862,0.16483,-0.39923)"
       d="m 218.71,-244.49 a 0.18839,0.193 0 0 0 0.18839,-0.19315"
       id="path695"
       style="fill:none;stroke:#000000;stroke-width:0.26495;stroke-linecap:round;stroke-linejoin:round" />
    <path
       transform="matrix(0.99862,0,0,0.99862,0.16483,-0.39923)"
       d="m 139.5,-251.05 -0.0986,5.79"
       id="path697"
       style="fill:none;stroke:#000000;stroke-width:0.26495;stroke-linecap:round;stroke-linejoin:round" />
    <path
       transform="matrix(0.99862,0,0,0.99862,0.16483,-0.39923)"
       d="m 218.9,-245.26 v 0.57901"
       id="path699"
       style="fill:none;stroke:#000000;stroke-width:0.26495;stroke-linecap:round;stroke-linejoin:round" />
    <path
       transform="matrix(0.99862,0,0,0.99862,0.16483,-0.39923)"
       d="m 211.65,-251.05 0.0987,5.79"
       id="path701"
       style="fill:none;stroke:#000000;stroke-width:0.26495;stroke-linecap:round;stroke-linejoin:round" />
    <path
       transform="matrix(0.99862,0,0,0.99862,0.16483,-0.39923)"
       d="m 132.25,-245.26 v 0.57901"
       id="path703"
       style="fill:none;stroke:#000000;stroke-width:0.26495;stroke-linecap:round;stroke-linejoin:round" />
    <path
       transform="matrix(0.99862,0,0,0.99862,0.16483,-0.39923)"
       d="m 132.25,-244.68 a 0.18839,0.193 0 0 0 0.18839,0.19315"
       id="path705"
       style="fill:none;stroke:#000000;stroke-width:0.26495;stroke-linecap:round;stroke-linejoin:round" />
    <path
       transform="matrix(0.99862,0,0,0.99862,0.16483,-0.39923)"
       d="m 141.21,-245.26 0.25779,-11.58"
       id="path707"
       style="fill:none;stroke:#000000;stroke-width:0.26495;stroke-linecap:round;stroke-linejoin:round" />
    <path
       transform="matrix(0.99862,0,0,0.99862,0.16483,-0.39923)"
       d="m 209.68,-256.84 h -0.11628"
       id="path709"
       style="fill:none;stroke:#000000;stroke-width:0.26495;stroke-linecap:round;stroke-linejoin:round" />
    <path
       transform="matrix(0.99862,0,0,0.99862,0.16483,-0.39923)"
       d="m 206.25,-256.84 h 0.70062"
       id="path711"
       style="fill:none;stroke:#000000;stroke-width:0.26495;stroke-linecap:round;stroke-linejoin:round" />
    <path
       transform="matrix(0.99862,0,0,0.99862,0.16483,-0.39923)"
       d="m 206.95,-256.84 v 5.018"
       id="path713"
       style="fill:none;stroke:#000000;stroke-width:0.26495;stroke-linecap:round;stroke-linejoin:round" />
    <path
       transform="matrix(0.99862,0,0,0.99862,0.16483,-0.39923)"
       d="m 206.95,-256.84 h 0.84974"
       id="path715"
       style="fill:none;stroke:#000000;stroke-width:0.26495;stroke-linecap:round;stroke-linejoin:round" />
    <path
       transform="matrix(0.99862,0,0,0.99862,0.16483,-0.39923)"
       d="m 207.8,-256.84 -0.0791,5.018"
       id="path717"
       style="fill:none;stroke:#000000;stroke-width:0.26495;stroke-linecap:round;stroke-linejoin:round" />
    <path
       transform="matrix(0.99862,0,0,0.99862,0.16483,-0.39923)"
       d="m 209.56,-256.84 h -1.4607"
       id="path719"
       style="fill:none;stroke:#000000;stroke-width:0.26495;stroke-linecap:round;stroke-linejoin:round" />
    <path
       transform="matrix(0.99862,0,0,0.99862,0.16483,-0.39923)"
       d="m 207.73,-251.82 h -1.5504"
       id="path721"
       style="fill:none;stroke:#000000;stroke-width:0.26495;stroke-linecap:round;stroke-linejoin:round" />
    <path
       transform="matrix(0.99862,0,0,0.99862,0.16483,-0.39923)"
       d="m 208.04,-251.84 c 0.0207,-1.6639 0.0414,-3.3304 0.0618,-4.9995"
       id="path723"
       style="fill:none;stroke:#000000;stroke-width:0.26495;stroke-linecap:round;stroke-linejoin:round" />
    <path
       transform="matrix(0.99862,0,0,0.99862,0.16483,-0.39923)"
       d="m 206.17,-251.82 0.0791,-5.018"
       id="path725"
       style="fill:none;stroke:#000000;stroke-width:0.26495;stroke-linecap:round;stroke-linejoin:round" />
    <path
       transform="matrix(0.99862,0,0,0.99862,0.16483,-0.39923)"
       d="m 208.1,-256.84 h -0.2966"
       id="path727"
       style="fill:none;stroke:#000000;stroke-width:0.26495;stroke-linecap:round;stroke-linejoin:round" />
    <path
       transform="matrix(0.99862,0,0,0.99862,0.16483,-0.39923)"
       d="m 205.69,-251.82 c 0.0458,-1.6701 0.0916,-3.3429 0.13735,-5.0183"
       id="path729"
       style="fill:none;stroke:#000000;stroke-width:0.26495;stroke-linecap:round;stroke-linejoin:round" />
    <path
       transform="matrix(0.99862,0,0,0.99862,0.16483,-0.39923)"
       d="m 206.25,-256.84 h -0.42434"
       id="path731"
       style="fill:none;stroke:#000000;stroke-width:0.26495;stroke-linecap:round;stroke-linejoin:round" />
    <path
       transform="matrix(0.99862,0,0,0.99862,0.16483,-0.39923)"
       d="m 209.81,-251.94 -0.1289,-4.9007"
       id="path733"
       style="fill:none;stroke:#000000;stroke-width:0.26495;stroke-linecap:round;stroke-linejoin:round" />
    <path
       transform="matrix(0.99862,0,0,0.99862,0.16483,-0.39923)"
       d="m 209.56,-256.84 0.1289,4.9054"
       id="path735"
       style="fill:none;stroke:#000000;stroke-width:0.26495;stroke-linecap:round;stroke-linejoin:round" />
    <path
       transform="matrix(0.99862,0,0,0.99862,0.16483,-0.39923)"
       d="M 218.9,-244.68 H 132.243"
       id="path737"
       style="fill:none;stroke:#000000;stroke-width:0.26495;stroke-linecap:round;stroke-linejoin:round" />
    <path
       transform="matrix(0.99862,0,0,0.99862,0.16483,-0.39923)"
       d="m 143.61,-256.84 h -2.1271"
       id="path739"
       style="fill:none;stroke:#000000;stroke-width:0.26495;stroke-linecap:round;stroke-linejoin:round" />
    <path
       transform="matrix(0.99862,0,0,0.99862,0.16483,-0.39923)"
       d="m 145.32,-256.84 h -1.4607"
       id="path741"
       style="fill:none;stroke:#000000;stroke-width:0.26495;stroke-linecap:round;stroke-linejoin:round" />
    <path
       transform="matrix(0.99862,0,0,0.99862,0.16483,-0.39923)"
       d="m 145.46,-251.86 c -0.0458,-1.6576 -0.0916,-3.3178 -0.13734,-4.9807"
       id="path743"
       style="fill:none;stroke:#000000;stroke-width:0.26495;stroke-linecap:round;stroke-linejoin:round" />
    <path
       transform="matrix(0.99862,0,0,0.99862,0.16483,-0.39923)"
       d="m 141.23,-245.26 0.25779,-11.58"
       id="path745"
       style="fill:none;stroke:#000000;stroke-width:0.26495;stroke-linecap:round;stroke-linejoin:round" />
    <rect
       transform="matrix(4.2162,0,0,4.2206,-75.679,931.3)"
       x="67.688004"
       y="-280.5"
       width="0.366"
       height="0.20959"
       rx="0.082014002"
       ry="0.082014002"
       clip-path="url(#clipPath3297-0)"
       fill="#000000"
       stroke-width="0.062721"
       id="rect749"
       style="fill-rule:evenodd;stroke:#000000;stroke-linecap:butt;stroke-linejoin:miter" />
    <rect
       transform="matrix(0.99862,0,0,0.99862,0.16483,-0.39923)"
       x="139.73"
       y="-252.63"
       width="1.5472"
       height="0.88581002"
       rx="0.34663001"
       ry="0.34663001"
       fill="#000000"
       stroke-width="0.26495"
       id="rect751"
       style="fill-rule:evenodd;stroke:#000000;stroke-linecap:butt;stroke-linejoin:miter" />
    <g
       transform="matrix(4.2162,0,0,4.2206,-75.679,931.3)"
       fill="#000000"
       stroke-width="0.062721"
       id="g763"
       style="fill-rule:evenodd;stroke:#000000;stroke-linecap:butt;stroke-linejoin:miter">
      <rect
         x="67.158997"
         y="-282.42999"
         width="0.33364999"
         height="2.0644"
         id="rect755" />
      <path
         d="m 67.195,-282.67 3.2925,3.8376 v 0.49921 l -3.2925,-3.8376 z"
         id="path757" />
      <ellipse
         cx="67.236"
         cy="-282.39999"
         rx="0.32495001"
         ry="0.33256999"
         id="ellipse759" />
      <path
         d="m 66.917,-282.47 h 0.33534 l -0.02155,0.73259 -0.31379,-0.17098 z"
         id="path761" />
    </g>
    <g
       transform="matrix(4.2162,0,0,4.2206,-76.355,931.51)"
       fill="#000000"
       stroke-width="0.062721"
       id="g775"
       style="fill-rule:evenodd;stroke:#000000;stroke-linecap:butt;stroke-linejoin:miter">
      <rect
         x="51.846001"
         y="-282.10999"
         width="0.38541001"
         height="1.9798"
         ry="0"
         id="rect765" />
      <path
         d="m 52.211,-282.5 v 0.0203 l 0.0016,0.83837 0.34179,-0.20959 v -0.64912 h -0.34336 z"
         color="#000000"
         color-rendering="auto"
         image-rendering="auto"
         shape-rendering="auto"
         solid-color="#000000"
         style="text-indent:0;text-decoration-line:none;text-decoration-style:solid;text-decoration-color:#000000;text-transform:none;white-space:normal;isolation:auto;mix-blend-mode:normal"
         id="path767" />
      <path
         d="m 50.137,-278.94 1.8482,-3.6579 0.15112,0.4069 -1.9284,3.8973 z"
         id="path769" />
      <ellipse
         cx="52.221001"
         cy="-282.42999"
         rx="0.32495001"
         ry="0.33256999"
         id="ellipse771" />
      <path
         d="m 51.514,-281.57 h 0.47255 v 1.4465 l -0.49921,-0.0176 z"
         id="path773" />
    </g>
    <g
       stroke-linecap="butt"
       id="g791"
       style="stroke:#000000;stroke-linejoin:miter">
      <rect
         transform="matrix(4.2162,0,0,4.2206,-85.936,931.29)"
         x="67.688004"
         y="-280.5"
         width="0.366"
         height="0.20959"
         rx="0.082014002"
         ry="0.082014002"
         clip-path="url(#clipPath3297-7-5-2)"
         fill="#000000"
         fill-rule="evenodd"
         stroke-width="0.062721"
         id="rect783" />
      <rect
         transform="matrix(4.2162,0,0,4.2206,-110.6,931.25)"
         x="67.688004"
         y="-280.5"
         width="0.366"
         height="0.20959"
         rx="0.082014002"
         ry="0.082014002"
         clip-path="url(#clipPath3297-7-5-9-4)"
         fill="#000000"
         fill-rule="evenodd"
         stroke-width="0.062721"
         id="rect785" />
      <rect
         transform="matrix(0.99862,0,0,0.99862,0.16483,-0.39923)"
         x="143.91"
         y="-251.82001"
         width="67.681"
         height="0.75019997"
         ry="0"
         fill="none"
         stroke-width="0.26495"
         id="rect787" />
      <rect
         transform="matrix(4.2162,0,0,4.2206,-135.33,931.34)"
         x="67.688004"
         y="-280.5"
         width="0.366"
         height="0.20959"
         rx="0.082014002"
         ry="0.082014002"
         clip-path="url(#clipPath3297-7-5-9-8-6-6)"
         fill="#000000"
         fill-rule="evenodd"
         stroke-width="0.062721"
         id="rect789" />
    </g>
  </g>
  <path
     style="fill:none;stroke:#000000;stroke-width:1px;stroke-linecap:butt;stroke-linejoin:miter;stroke-opacity:1"
     d="M 818.44217,-5.2566797 H 997.28532"
     id="path5496"
     transform="matrix(0.26458116,0,0,0.26458116,14.349012,-290.47138)"
     sodipodi:nodetypes="cc" />
  <path
     style="fill:none;stroke:#000000;stroke-width:1px;stroke-linecap:butt;stroke-linejoin:miter;stroke-opacity:1"
     d="M 818.44217,-5.2566797 H 997.28532"
     id="path5496-9"
     transform="matrix(0.26458116,0,0,0.26458116,14.500188,-266.04041)"
     sodipodi:nodetypes="cc" />
  <path
     style="fill:none;stroke:#000000;stroke-width:1px;stroke-linecap:butt;stroke-linejoin:miter;stroke-opacity:1"
     d="M 818.44217,-5.2566797 H 997.28532"
     id="path5496-9-5"
     transform="matrix(0.26458116,0,0,0.26458116,14.6816,-241.48851)"
     sodipodi:nodetypes="cc" />
  <path
     style="fill:none;stroke:#000000;stroke-width:1px;stroke-linecap:butt;stroke-linejoin:miter;stroke-opacity:1"
     d="M 818.44217,-5.2566797 H 997.28532"
     id="path5496-9-5-4"
     transform="matrix(0.26458116,0,0,0.26458116,14.553323,-217.02219)"
     sodipodi:nodetypes="cc" />
  <path
     style="fill:none;stroke:#000000;stroke-width:1px;stroke-linecap:butt;stroke-linejoin:miter;stroke-opacity:1"
     d="M 718.65895,-5.2566797 H 997.28532"
     id="path5496-9-5-4-7"
     transform="matrix(0,0.26458116,-0.26458116,0,229.64481,-482.14362)"
     sodipodi:nodetypes="cc" />
  <path
     style="fill:none;stroke:#000000;stroke-width:1px;stroke-linecap:butt;stroke-linejoin:miter;stroke-opacity:1"
     d="M 718.65895,-5.2566797 H 997.28532"
     id="path5496-9-5-4-7-5"
     transform="matrix(0,0.26458116,-0.26458116,0,276.86128,-482.14362)"
     sodipodi:nodetypes="cc" />
</svg>
