<?xml version="1.0" encoding="UTF-8"?>
<svg width="500" height="47.032" version="1.1" xmlns="http://www.w3.org/2000/svg" xmlns:cc="http://creativecommons.org/ns#" xmlns:dc="http://purl.org/dc/elements/1.1/" xmlns:rdf="http://www.w3.org/1999/02/22-rdf-syntax-ns#">
	<metadata>
		<rdf:RDF>
			<cc:Work rdf:about="">
				<dc:format>image/svg+xml</dc:format>
				<dc:type rdf:resource="http://purl.org/dc/dcmitype/StillImage"/>
			</cc:Work>
		</rdf:RDF>
	</metadata>
	<g transform="translate(188.27 -20.005)">
		<g>
			<g transform="matrix(1.699 0 0 1.59 118.01 -24.404)" stroke-width=".61626" aria-label="P3">
				<path d="m106.03 44.002q1.2579 0 1.8329 0.49417t0.57504 1.3927q0 0.53011-0.2426 0.99733-0.23361 0.45823-0.79966 0.74575-0.55707 0.28752-1.5185 0.28752h-0.73677v2.4978h-0.80864v-6.4153zm-0.0719 0.69184h-0.81764v2.5338h0.64692q0.91647 0 1.3657-0.2965 0.44924-0.2965 0.44924-1.0063 0-0.61996-0.40432-0.92545-0.39534-0.30549-1.2399-0.30549z"/>
				<path d="m113.34 45.503q0 0.64692-0.36838 1.0333-0.3594 0.37737-0.96139 0.50316v0.03594q0.76372 0.08985 1.1411 0.48519 0.38635 0.39534 0.38635 1.0333 0 0.56605-0.26056 0.99733-0.26057 0.43128-0.80865 0.67387-0.5391 0.24259-1.3927 0.24259-0.50316 0-0.93444-0.08087-0.43127-0.07188-0.82661-0.26955v-0.73677q0.40432 0.20665 0.87154 0.31447 0.46722 0.10782 0.8985 0.10782 0.86255 0 1.2399-0.33244 0.38636-0.34143 0.38636-0.93444 0-0.60199-0.47621-0.86256-0.46722-0.26955-1.3208-0.26955h-0.61996v-0.67387h0.62895q0.79067 0 1.195-0.33244 0.41331-0.33244 0.41331-0.88053 0-0.46722-0.31448-0.7188-0.31447-0.26056-0.85357-0.26056-0.52113 0-0.88951 0.15274-0.36839 0.15274-0.72778 0.38635l-0.39534-0.5391q0.34143-0.26955 0.84458-0.46722 0.51215-0.19767 1.1591-0.19767 1.0063 0 1.4915 0.44925 0.49417 0.44925 0.49417 1.1411z"/>
			</g>
			<g transform="matrix(1.668 0 0 1.6195 118.14 -24.51)" stroke-width=".62771" aria-label="P4">
				<path d="m107.93 34.409q1.2579 0 1.8329 0.49417 0.57504 0.49417 0.57504 1.3927 0 0.53011-0.2426 0.99733-0.23361 0.45823-0.79966 0.74575-0.55707 0.28752-1.5185 0.28752h-0.73677v2.4978h-0.80865v-6.4153zm-0.0719 0.69184h-0.81763v2.5338h0.64692q0.91647 0 1.3657-0.2965 0.44925-0.2965 0.44925-1.0063 0-0.61996-0.40432-0.92545-0.39534-0.30549-1.2399-0.30549z"/>
				<path d="m115.76 39.369h-0.93443v1.4556h-0.76373v-1.4556h-3.0729v-0.67387l3.019-4.3218h0.81764v4.2858h0.93443zm-1.6982-0.70981v-2.0216q0-0.46722 9e-3 -0.79068 0.018-0.33244 0.0359-0.62895h-0.0359q-0.0719 0.17071-0.1797 0.36838-0.10782 0.19767-0.20666 0.33244l-1.9228 2.7404z"/>
			</g>
			<g transform="matrix(1.668 0 0 1.6195 140.14 -25.051)" stroke-width=".62771" aria-label="P1">
				<path d="m-193.33 34.409q1.2579 0 1.8329 0.49417 0.57504 0.49417 0.57504 1.3927 0 0.53011-0.24259 0.99733-0.23361 0.45823-0.79966 0.74575-0.55707 0.28752-1.5185 0.28752h-0.73677v2.4978h-0.80865v-6.4153zm-0.0719 0.69184h-0.81763v2.5338h0.64692q0.91646 0 1.3657-0.2965t0.44925-1.0063q0-0.61996-0.40432-0.92545-0.39534-0.30549-1.2399-0.30549z"/>
				<path d="m-187.26 40.825h-0.77271v-4.4835q0-0.38635 9e-3 -0.61996t0.0269-0.48519q-0.14376 0.14376-0.26955 0.2426-0.1168 0.09883-0.28752 0.25158l-0.68285 0.55707-0.41331-0.53011 1.7341-1.3477h0.6559z"/>
			</g>
			<g transform="matrix(1.683 0 0 1.6051 137.53 -24.797)" stroke-width=".62211" aria-label="P2">
				<path d="m-191.59 43.671q1.2579 0 1.8329 0.49417 0.57504 0.49417 0.57504 1.3927 0 0.53011-0.24259 0.99733-0.23361 0.45823-0.79967 0.74575-0.55706 0.28752-1.5185 0.28752h-0.73676v2.4978h-0.80865v-6.4153zm-0.0719 0.69184h-0.81763v2.5338h0.64691q0.91647 0 1.3657-0.2965t0.44925-1.0063q0-0.61996-0.40433-0.92545-0.39533-0.30549-1.2399-0.30549z"/>
				<path d="m-184.04 50.087h-4.2409v-0.6559l1.6802-1.6982q0.4762-0.48519 0.80865-0.86256 0.34143-0.37737 0.51214-0.73677 0.17072-0.3594 0.17072-0.79966 0-0.53011-0.31448-0.79966-0.31447-0.27853-0.81763-0.27853-0.4762 0-0.82662 0.16173-0.35041 0.16173-0.7188 0.44925l-0.42229-0.53011q0.37737-0.31447 0.86256-0.53011 0.49417-0.22462 1.1052-0.22462 0.8985 0 1.4196 0.45823 0.52113 0.45823 0.52113 1.2489 0 0.50316-0.20665 0.94342-0.20666 0.44026-0.57504 0.87154-0.36838 0.43128-0.86256 0.90748l-1.3388 1.3208v0.03594h3.2436z"/>
			</g>
		</g>
		<g fill="#fff" fill-rule="evenodd" stroke="#000" stroke-miterlimit=".88889" stroke-width=".60843">
			<rect transform="matrix(-1.6419 0 0 1.6453 127.85 -23.582)" x="166.36" y="43.349" width="12.536" height="3.5487" rx=".86031" ry=".85851"/>
			<rect transform="matrix(-1.6419 0 0 1.6453 127.85 -23.582)" x="166.36" y="34.672" width="12.536" height="3.5487" rx=".86031" ry=".85851"/>
			<rect transform="matrix(1.6419 0 0 1.6453 127.85 -23.582)" x="85.658" y="43.349" width="12.536" height="3.5487" rx=".86031" ry=".85851"/>
			<rect transform="matrix(1.6419 0 0 1.6453 127.85 -23.582)" x="85.658" y="34.672" width="12.536" height="3.5487" rx=".86031" ry=".85851"/>
			<rect transform="matrix(-1.6419 0 0 1.6453 127.85 -23.582)" x="-63.522" y="28.576" width="208.04" height="24.418" ry="0"/>
		</g>
		<rect transform="matrix(-1.6419 0 0 1.6453 127.85 -23.582)" x="143.22" y="27.073" width="24.035" height="27.423" rx="1.404" ry="1.4011" fill="#e6e6e6" fill-rule="evenodd" stroke="#000" stroke-miterlimit=".88889" stroke-width=".60843"/>
		<rect transform="matrix(1.6419 0 0 1.6453 127.85 -23.582)" x="62.52" y="27.073" width="24.035" height="27.423" rx="1.404" ry="1.4011" fill="#e6e6e6" fill-rule="evenodd" stroke="#000" stroke-miterlimit=".88889" stroke-width=".60843"/>
		<g fill="none">
			<path transform="matrix(1.6419 0 0 1.6453 127.85 -23.582)" d="m-55.413 28.363 16.009 0.38034" stroke="#fff" stroke-width="1.9967"/>
			<path transform="matrix(1.6419 0 0 1.6453 127.85 -23.582)" d="m-41.723 52.577 16.009 0.38035" stroke="#fff" stroke-width="1.9967"/>
			<path transform="matrix(1.6419 0 0 1.6453 127.85 -23.582)" d="m-56.543 26.642 16.038 28.286" stroke="#000" stroke-miterlimit=".88889" stroke-width=".60843"/>
			<path transform="matrix(1.6419 0 0 1.6453 127.85 -23.582)" d="m-40.493 26.642 16.038 28.286" stroke="#000" stroke-miterlimit=".88889" stroke-width=".60843"/>
			<path transform="matrix(1.3403 0 0 1.3431 67.789 -6.9482)" d="m-172.79 32.323h15.893v10.24l-15.714-0.01663" stroke="#f00" stroke-width=".74533"/>
			<path transform="matrix(1.3403 0 0 1.3431 67.789 -6.9482)" d="m163.74 43.455h-17.832v-11.489l17.631 0.01863" stroke="#f00" stroke-width=".74533"/>
		</g>
	</g>
</svg>
