<?xml version="1.0" encoding="UTF-8" standalone="no"?>
<svg
   width="373.38843"
   height="79.91172"
   version="1.1"
   id="svg1201"
   sodipodi:docname="desenhotecnico.svg"
   inkscape:version="1.2.2 (732a01da63, 2022-12-09)"
   xmlns:inkscape="http://www.inkscape.org/namespaces/inkscape"
   xmlns:sodipodi="http://sodipodi.sourceforge.net/DTD/sodipodi-0.dtd"
   xmlns="http://www.w3.org/2000/svg"
   xmlns:svg="http://www.w3.org/2000/svg">
  <defs
     id="defs1205" />
  <sodipodi:namedview
     id="namedview1203"
     pagecolor="#505050"
     bordercolor="#ffffff"
     borderopacity="1"
     inkscape:showpageshadow="0"
     inkscape:pageopacity="0"
     inkscape:pagecheckerboard="1"
     inkscape:deskcolor="#505050"
     showgrid="false"
     inkscape:zoom="1.18"
     inkscape:cx="187.28814"
     inkscape:cy="61.016949"
     inkscape:window-width="1920"
     inkscape:window-height="1009"
     inkscape:window-x="-8"
     inkscape:window-y="-8"
     inkscape:window-maximized="1"
     inkscape:current-layer="svg1201" />
  <g
     transform="matrix(8.4088,0,0,8.4716,-3356.8051,404.57249)"
     fill="none"
     stroke="#000000"
     stroke-linecap="round"
     stroke-linejoin="round"
     stroke-width="0.11848"
     id="g887">
    <path
       d="m 436.85,-47.572 v 0.0894"
       id="path727" />
    <path
       d="m 434.54,-40.633 h 6.8238"
       id="path729" />
    <path
       d="m 437.73,-47.574 v 0.0918"
       id="path731" />
    <path
       d="m 441.36,-40.633 a 0.5,0.5 0 0 0 0.49348,-0.58046"
       id="path733" />
    <path
       d="m 434.63,-44.813 -0.58696,3.6"
       id="path735" />
    <circle
       transform="scale(1,-1)"
       cx="439.79999"
       cy="42.932999"
       r="0.55000001"
       id="circle737" />
    <path
       d="m 438.25,-47.549 c -0.0703,0 -0.14305,-4.7e-4 -0.21105,-0.002 -0.0515,-10e-4 -0.10116,-0.003 -0.14516,-0.005 -0.0395,-0.002 -0.0725,-0.004 -0.0986,-0.007 -0.0311,-0.004 -0.0501,-0.007 -0.0609,-0.0116"
       id="path739" />
    <path
       d="m 440.34,-47.501 v 0.0186"
       id="path741" />
    <path
       d="m 441.9,-46.899 c 0.78057,0.77787 1.3238,1.7921 1.5386,2.8718 0.21488,1.0796 0.10143,2.2246 -0.31981,3.2424 -0.28082,0.67855 -0.69844,1.3006 -1.2188,1.8192"
       id="path743" />
    <path
       d="m 434,-38.966 c -0.52038,-0.51858 -0.93727,-1.1408 -1.2189,-1.8192 -0.28167,-0.67839 -0.42812,-1.413 -0.42812,-2.1475 0,-0.73457 0.14646,-1.4691 0.42813,-2.1475 0.28167,-0.67837 0.69855,-1.3006 1.2189,-1.8191 0.37007,-0.36878 0.88932,-0.58333 1.4118,-0.58333"
       id="path745" />
    <path
       d="m 440.49,-47.483 c 0.52244,0 1.0417,0.21455 1.4118,0.58333"
       id="path747" />
    <path
       d="m 435.56,-47.572 v 0.0894"
       id="path749" />
    <path
       d="m 438.25,-47.549 v 0.0661"
       id="path751" />
    <circle
       transform="scale(1,-1)"
       cx="436.10001"
       cy="42.932999"
       r="0.80000001"
       id="circle753" />
    <path
       d="m 437.73,-47.574 h -0.18847"
       id="path755" />
    <path
       d="m 436.85,-47.572 h -1.2881"
       id="path757" />
    <path
       d="m 441.27,-44.813 a 0.5,0.5 0 0 0 -0.49348,-0.41954"
       id="path759" />
    <path
       d="m 435.13,-45.233 a 0.5,0.5 0 0 0 -0.49348,0.41954"
       id="path761" />
    <path
       d="m 438.68,-47.529 v 0.0465"
       id="path763" />
    <path
       d="m 441.86,-41.213 -0.58696,-3.6"
       id="path765" />
    <path
       d="m 440.78,-45.233 h -5.6498"
       id="path767" />
    <path
       d="m 439.46,-47.574 c -0.0981,0 -0.19536,9.3e-4 -0.2888,0.003 -0.0879,0.002 -0.16841,0.005 -0.24147,0.009"
       id="path769" />
    <circle
       transform="scale(1,-1)"
       cx="436.10001"
       cy="42.932999"
       r="0.55000001"
       id="circle771" />
    <path
       d="m 437.54,-47.574 v 0.0918"
       id="path773" />
    <path
       d="m 440.34,-47.501 c 0,-0.011 -0.0193,-0.0221 -0.0712,-0.0325 -0.0391,-0.008 -0.0951,-0.0148 -0.17051,-0.0209"
       id="path775" />
    <path
       d="m 434.05,-41.213 a 0.5,0.5 0 0 0 0.49348,0.58046"
       id="path777" />
    <circle
       transform="scale(1,-1)"
       cx="439.79999"
       cy="42.932999"
       r="0.80000001"
       id="circle779" />
    <path
       d="m 440.1,-47.555 c -0.0395,-0.003 -0.083,-0.006 -0.13097,-0.009 -0.0473,-0.002 -0.0978,-0.005 -0.15144,-0.006 -0.11534,-0.004 -0.23884,-0.005 -0.36359,-0.005"
       id="path781" />
    <path
       d="m 438.93,-47.562 c -0.0363,0.002 -0.0698,0.004 -0.0998,0.007 -0.0287,0.002 -0.0537,0.005 -0.0745,0.008 -0.0407,0.006 -0.0633,0.0116 -0.0718,0.0179"
       id="path783" />
    <path
       d="m 441.47,-44.845 a 0.7,0.7 0 0 0 -0.69088,-0.58736"
       id="path785" />
    <path
       d="m 433.85,-41.245 a 0.7,0.7 0 0 0 0.69087,0.81264"
       id="path787" />
    <path
       d="m 433.85,-41.245 0.58695,-3.6"
       id="path789" />
    <path
       d="m 435.13,-45.433 a 0.7,0.7 0 0 0 -0.69088,0.58736"
       id="path791" />
    <path
       d="m 441.47,-44.845 0.58695,3.6"
       id="path793" />
    <path
       d="m 441.36,-40.433 h -6.8238"
       id="path795" />
    <path
       d="m 435.13,-45.433 h 5.6498"
       id="path797" />
    <path
       d="m 441.36,-40.433 a 0.7,0.7 0 0 0 0.69087,-0.81264"
       id="path799" />
    <path
       d="m 434,-38.966 a 2,2 0 0 0 1.4118,0.58333"
       id="path801" />
    <path
       d="m 440.49,-38.383 a 2,2 0 0 0 1.4118,-0.58333"
       id="path803" />
    <path
       d="m 435.41,-47.483 a 2,2 0 0 0 -1.4118,0.58333"
       id="path805" />
    <path
       d="m 440.49,-47.483 h -5.0823"
       id="path807" />
    <path
       d="m 434,-46.899 a 5.6,5.6 0 0 0 0,7.9333"
       id="path809" />
    <path
       d="m 435.41,-38.383 h 5.0823"
       id="path811" />
    <path
       d="m 441.9,-46.899 a 2,2 0 0 0 -1.4118,-0.58333"
       id="path813" />
    <path
       d="m 441.9,-38.966 a 5.6,5.6 0 0 0 0,-7.9333"
       id="path815" />
    <path
       d="m 438.93,-47.562 v 0.0793"
       id="path817" />
    <path
       d="m 434,-41.221 a 0.55,0.55 0 0 0 0.54283,0.6385"
       id="path819" />
    <path
       d="m 434.54,-40.633 v -0.3"
       id="path821" />
    <path
       d="m 441.47,-44.845 -0.14805,0.0241"
       id="path823" />
    <path
       d="m 435.13,-45.283 h 5.6498"
       id="path825" />
    <path
       d="m 441.36,-40.583 a 0.55,0.55 0 0 0 0.54283,-0.6385"
       id="path827" />
    <path
       d="m 440.1,-47.555 v 0.072"
       id="path829" />
    <path
       d="m 441.91,-41.221 0.14804,-0.0241"
       id="path831" />
    <path
       d="m 434.54,-40.583 v 0.15"
       id="path833" />
    <path
       d="m 434.34,-41.165 0.58696,-3.6"
       id="path835" />
    <path
       d="m 435.13,-45.283 a 0.55,0.55 0 0 0 -0.54283,0.4615"
       id="path837" />
    <path
       d="m 441.56,-41.165 0.29609,-0.0483"
       id="path839" />
    <path
       d="m 441.36,-40.933 a 0.2,0.2 0 0 0 0.19739,-0.23218"
       id="path841" />
    <path
       d="m 435.13,-44.933 v -0.3"
       id="path843" />
    <path
       d="m 441.36,-40.583 h -6.8238"
       id="path845" />
    <path
       d="m 440.97,-44.765 0.58696,3.6"
       id="path847" />
    <path
       d="m 435.13,-45.283 v -0.15"
       id="path849" />
    <path
       d="m 441.36,-40.633 v -0.3"
       id="path851" />
    <path
       d="m 435.13,-44.933 h 5.6498"
       id="path853" />
    <path
       d="m 434.34,-41.165 a 0.2,0.2 0 0 0 0.19739,0.23218"
       id="path855" />
    <path
       d="m 441.32,-44.821 a 0.55,0.55 0 0 0 -0.54283,-0.4615"
       id="path857" />
    <path
       d="m 440.78,-45.283 v -0.15"
       id="path859" />
    <path
       d="m 441.36,-40.583 v 0.15"
       id="path861" />
    <path
       d="m 440.97,-44.765 0.29609,-0.0483"
       id="path863" />
    <path
       d="m 434.63,-44.813 0.29609,0.0483"
       id="path865" />
    <path
       d="m 434,-41.221 0.58696,-3.6"
       id="path867" />
    <path
       d="m 439.46,-47.574 v 0.0918"
       id="path869" />
    <path
       d="m 441.36,-40.933 h -6.8238"
       id="path871" />
    <path
       d="m 434,-41.221 -0.14804,-0.0241"
       id="path873" />
    <path
       d="m 440.78,-44.933 v -0.3"
       id="path875" />
    <path
       d="m 440.97,-44.765 a 0.2,0.2 0 0 0 -0.19739,-0.16782"
       id="path877" />
    <path
       d="m 441.32,-44.821 0.58696,3.6"
       id="path879" />
    <path
       d="m 435.13,-44.933 a 0.2,0.2 0 0 0 -0.19739,0.16782"
       id="path881" />
    <path
       d="m 434.05,-41.213 0.29609,0.0483"
       id="path883" />
    <path
       d="m 434.58,-44.821 -0.14805,-0.0241"
       id="path885" />
  </g>
  <g
     transform="matrix(8.4088,0,0,8.4716,-3256.3142,405.24314)"
     fill="none"
     stroke="#000000"
     stroke-linecap="round"
     stroke-linejoin="round"
     stroke-width="0.11848"
     id="g1183">
    <path
       d="m 399.06,-47.776 h -0.75682"
       id="path889" />
    <path
       d="m 398.22,-47.776 h -0.28121"
       id="path891" />
    <path
       d="m 391.06,-41.314 v -3.6"
       id="path893" />
    <path
       d="m 403.11,-44.914 v -0.46149"
       id="path895" />
    <path
       d="m 387.31,-41.258 v 0.23218"
       id="path897" />
    <path
       d="m 391.06,-40.676 v -0.63851"
       id="path899" />
    <path
       d="m 406.96,-40.726 h -1.85"
       id="path901" />
    <path
       d="m 399.02,-47.701 0.0252,-0.0035"
       id="path903" />
    <path
       d="m 399.05,-47.704 c 0.002,0 0.003,5.5e-5 0.005,1.7e-4 0.009,5e-4 0.0186,0.0025 0.0272,0.0067 0.009,0.004 0.0177,0.01045 0.0248,0.0191 0.005,0.0065 0.01,0.01425 0.0127,0.0233 0.002,0.0078 0.004,0.0164 0.004,0.0255"
       id="path905" />
    <path
       d="m 405.11,-41.314 v -3.6"
       id="path907" />
    <path
       d="m 396.74,-47.424 0.002,-0.11026"
       id="path909" />
    <path
       d="m 404.81,-40.676 a 0.15,0.15 0 0 0 0.3,0"
       id="path911" />
    <path
       d="m 392.76,-44.914 v 3.6"
       id="path913" />
    <path
       d="m 404.81,-45.326 h -1.7"
       id="path915" />
    <path
       d="m 398.4,-47.704 a 0.1,0.1 0 0 0 -0.0959,-0.07168"
       id="path917" />
    <path
       d="m 405.11,-44.914 v -0.46149"
       id="path919" />
    <path
       d="m 391.06,-44.914 v -0.46149"
       id="path921" />
    <path
       d="m 399.12,-47.571 0.006,0.03625"
       id="path923" />
    <path
       d="m 402.81,-40.676 a 0.15,0.15 0 0 0 0.3,0"
       id="path925" />
    <path
       d="m 390.76,-45.376 v 0.46149"
       id="path927" />
    <path
       d="m 394.76,-45.326 h -1.7"
       id="path929" />
    <path
       d="m 387.61,-45.326 a 0.3,0.3 0 0 0 -0.3,0.3"
       id="path931" />
    <path
       d="m 396.7,-47.576 0.002,-0.10175"
       id="path933" />
    <path
       d="m 396.43,-47.576 v 0.58333"
       id="path935" />
    <path
       d="m 393.06,-41.314 v -3.6"
       id="path937" />
    <path
       d="m 402.81,-45.376 v 0.46149"
       id="path939" />
    <path
       d="m 396.74,-47.629 -0.002,0.09478"
       id="path941" />
    <path
       d="m 404.81,-40.726 h -1.7"
       id="path943" />
    <path
       d="m 403.11,-45.376 a 0.15,0.15 0 0 0 -0.3,0"
       id="path945" />
    <path
       d="m 390.76,-45.326 h -1.85"
       id="path947" />
    <path
       d="m 402.81,-40.726 h -1.7"
       id="path949" />
    <path
       d="m 391.06,-45.376 a 0.15,0.15 0 0 0 -0.3,0"
       id="path951" />
    <path
       d="m 390.76,-44.914 v 3.6"
       id="path953" />
    <path
       d="m 393.06,-40.676 v -0.63851"
       id="path955" />
    <path
       d="m 399.43,-38.476 v -0.58334"
       id="path957" />
    <path
       d="m 393.06,-45.376 a 0.15,0.15 0 0 0 -0.3,0"
       id="path959" />
    <path
       d="m 392.76,-40.676 a 0.150005,0.150005 0 0 0 0.30001,0"
       id="path961" />
    <path
       d="m 399.43,-39.059 v -7.9333"
       id="path963" />
    <path
       d="m 390.76,-40.726 h -1.85"
       id="path965" />
    <path
       d="m 399.43,-47.576 h -0.30676"
       id="path967" />
    <path
       d="m 396.74,-47.576 h -0.30676"
       id="path969" />
    <path
       d="m 405.11,-45.376 a 0.15,0.15 0 0 0 -0.3,0"
       id="path971" />
    <path
       d="m 396.84,-47.664 c -2.5e-4,8e-5 -4.9e-4,1.55e-4 -5e-4,2.35e-4 -0.0175,0.0057 -0.0345,0.0158 -0.0496,0.02915 -0.0104,0.0092 -0.0202,0.0203 -0.0286,0.03315 -0.006,0.0094 -0.0114,0.0197 -0.0153,0.03065"
       id="path973" />
    <path
       d="m 408.56,-41.026 v -0.23218"
       id="path975" />
    <path
       d="m 399.13,-47.535 -0.002,-0.09478"
       id="path977" />
    <path
       d="m 408.26,-40.726 h -1.3"
       id="path979" />
    <path
       d="m 396.74,-47.535 0.006,-0.03625"
       id="path981" />
    <path
       d="m 402.81,-44.914 v 3.6"
       id="path983" />
    <path
       d="m 402.81,-45.326 h -1.7"
       id="path985" />
    <path
       d="m 398.31,-47.776 h -0.0907"
       id="path987" />
    <path
       d="m 403.11,-41.314 v -3.6"
       id="path989" />
    <path
       d="m 399.17,-47.576 -0.002,-0.10175"
       id="path991" />
    <path
       d="m 404.81,-44.914 v 3.6"
       id="path993" />
    <path
       d="m 396.43,-46.992 v 7.9333"
       id="path995" />
    <path
       d="m 404.81,-41.314 v 0.63851"
       id="path997" />
    <path
       d="m 396.84,-47.701 -0.0252,-0.0035"
       id="path999" />
    <path
       d="m 396.81,-47.704 c -0.002,0 -0.004,5.5e-5 -0.005,1.7e-4 -0.009,5e-4 -0.0186,0.0025 -0.0272,0.0067 -0.009,0.004 -0.0177,0.01045 -0.0248,0.0191 -0.005,0.0065 -0.01,0.01425 -0.0127,0.0233 -0.002,0.0078 -0.004,0.0164 -0.005,0.0255"
       id="path1001" />
    <path
       d="m 397.93,-47.776 h -1.1348"
       id="path1003" />
    <path
       d="m 392.76,-45.376 v 0.46149"
       id="path1005" />
    <path
       d="m 396.43,-39.059 v 0.58334"
       id="path1007" />
    <path
       d="m 394.76,-40.726 h -1.7"
       id="path1009" />
    <path
       d="m 392.76,-45.326 h -1.7"
       id="path1011" />
    <path
       d="m 405.11,-40.676 v -0.63851"
       id="path1013" />
    <path
       d="m 399.13,-47.424 -0.002,-0.11026"
       id="path1015" />
    <path
       d="m 408.56,-45.026 a 0.3,0.3 0 0 0 -0.3,-0.3"
       id="path1017" />
    <path
       d="m 387.31,-45.026 v 0.16782"
       id="path1019" />
    <path
       d="m 408.56,-41.258 v -3.6"
       id="path1021" />
    <path
       d="m 393.06,-44.914 v -0.46149"
       id="path1023" />
    <path
       d="m 399.13,-47.424 h -2.3918"
       id="path1025" />
    <path
       d="m 399.43,-46.992 v -0.58333"
       id="path1027" />
    <path
       d="m 404.81,-45.376 v 0.46149"
       id="path1029" />
    <path
       d="m 408.26,-45.326 h -1.3"
       id="path1031" />
    <path
       d="m 387.31,-41.026 a 0.3,0.3 0 0 0 0.3,0.3"
       id="path1033" />
    <path
       d="m 402.81,-41.314 v 0.63851"
       id="path1035" />
    <path
       d="m 408.56,-44.858 v -0.16782"
       id="path1037" />
    <path
       d="m 390.76,-40.676 a 0.150005,0.150005 0 0 0 0.30001,0"
       id="path1039" />
    <path
       d="m 392.76,-40.726 h -1.7"
       id="path1041" />
    <path
       d="m 396.8,-47.776 a 0.1,0.1 0 0 0 -0.1,0.09825"
       id="path1043" />
    <path
       d="m 403.11,-40.676 v -0.63851"
       id="path1045" />
    <path
       d="m 387.31,-44.858 v 3.6"
       id="path1047" />
    <path
       d="m 399.43,-38.476 h -3"
       id="path1049" />
    <path
       d="m 392.76,-41.314 v 0.63851"
       id="path1051" />
    <path
       d="m 388.91,-45.326 h -1.3"
       id="path1053" />
    <path
       d="m 408.26,-40.726 a 0.3,0.3 0 0 0 0.30001,-0.3"
       id="path1055" />
    <path
       d="m 390.76,-41.314 v 0.63851"
       id="path1057" />
    <path
       d="m 388.91,-40.726 h -1.3"
       id="path1059" />
    <path
       d="m 399.16,-47.678 a 0.1,0.1 0 0 0 -0.1,-0.09825"
       id="path1061" />
    <path
       d="m 398.22,-47.776 a 0.1,0.1 0 0 0 -0.0959,0.07168"
       id="path1063" />
    <path
       d="m 406.96,-45.326 h -1.85"
       id="path1065" />
    <path
       d="m 399.12,-47.571 c -0.004,-0.01095 -0.009,-0.0213 -0.0152,-0.03065 -0.008,-0.01285 -0.0182,-0.02395 -0.0286,-0.03315 -0.0151,-0.01335 -0.0322,-0.02345 -0.0496,-0.02915 -2.4e-4,-8e-5 -4.8e-4,-1.55e-4 -5e-4,-2.35e-4"
       id="path1067" />
    <path
       d="m 396.81,-47.704 h 2.2359"
       id="path1069" />
    <path
       d="m 403.11,-41.314 -1.8e-4,-10e-4 -5e-4,-0.001 -0.001,-10e-4 -0.002,-10e-4 -10e-4,-0.001 -0.006,-0.003 -0.003,-10e-4 -0.012,-0.003 -0.025,-0.005 -0.006,-10e-4 -0.018,-0.0015 -0.014,-10e-4 -0.007,-4.65e-4 -0.007,-4.1e-4 -0.007,-3.5e-4 -0.007,-2.95e-4 -0.007,-2.35e-4 -0.007,-1.75e-4 -0.007,-1.15e-4 -0.007,-5.5e-5 -0.007,5e-6 -0.007,6.5e-5 -0.007,1.25e-4 -0.007,1.85e-4 -0.007,2.45e-4 -0.007,3.05e-4 -0.007,3.6e-4 -0.007,4.2e-4 -0.007,4.75e-4 -0.014,10e-4 -0.018,0.0015 -0.006,0.001 -0.025,0.005 -0.008,0.002 -0.006,0.002 -0.006,0.003 -0.003,0.003 -5e-4,10e-4 -1.3e-4,10e-4"
       id="path1071" />
    <path
       d="m 396.7,-47.583 -10e-4,5e-5"
       id="path1073" />
    <path
       d="m 387.61,-44.906 -0.015,6e-5 -0.0149,1.8e-4 -0.0149,3e-4 -0.0147,4.2e-4 -0.0146,5e-4 -0.0145,5e-4 -0.0142,0.001 -0.014,10e-4 -0.0136,10e-4 -0.0134,0.001 -0.013,10e-4 -0.0126,0.0015 -0.0122,0.0015 -0.0117,0.0015 -0.0112,0.0015 -0.0107,0.0015 -0.0102,0.002 -0.01,0.002 -0.009,0.002 -0.016,0.004 -0.007,0.002 -0.012,0.004 -0.01,0.005 -0.006,0.005 -0.004,0.005 -4.9e-4,0.0025 -7e-5,0.001"
       id="path1075" />
    <path
       d="m 405.11,-44.914 -1.8e-4,-10e-4 -5e-4,-10e-4 -0.001,-0.001 -0.002,-10e-4 -10e-4,-10e-4 -0.006,-0.003 -0.003,-0.001 -0.012,-0.003 -0.025,-0.005 -0.006,-0.001 -0.018,-0.0015 -0.014,-10e-4 -0.007,-4.65e-4 -0.007,-4.1e-4 -0.007,-3.5e-4 -0.007,-2.95e-4 -0.007,-2.35e-4 -0.007,-1.75e-4 -0.007,-1.15e-4 -0.007,-5.5e-5 -0.007,5e-6 -0.007,6.5e-5 -0.007,1.25e-4 -0.007,1.85e-4 -0.007,2.45e-4 -0.007,3.05e-4 -0.007,3.6e-4 -0.007,4.2e-4 -0.007,4.75e-4 -0.014,0.001 -0.018,0.0015 -0.006,10e-4 -0.025,0.005 -0.008,0.002 -0.006,0.002 -0.006,0.003 -0.003,0.003 -5e-4,10e-4 -1.3e-4,10e-4"
       id="path1077" />
    <path
       d="m 399.02,-47.701 5e-4,0.0367"
       id="path1079" />
    <path
       d="m 399.16,-47.678 h -0.0565"
       id="path1081" />
    <path
       d="m 403.11,-44.914 -1.8e-4,-10e-4 -5e-4,-10e-4 -0.001,-0.001 -0.002,-10e-4 -10e-4,-10e-4 -0.006,-0.003 -0.003,-0.001 -0.012,-0.003 -0.025,-0.005 -0.006,-0.001 -0.018,-0.0015 -0.014,-10e-4 -0.007,-4.65e-4 -0.007,-4.1e-4 -0.007,-3.5e-4 -0.007,-2.95e-4 -0.007,-2.35e-4 -0.007,-1.75e-4 -0.007,-1.15e-4 -0.007,-5.5e-5 -0.007,5e-6 -0.007,6.5e-5 -0.007,1.25e-4 -0.007,1.85e-4 -0.007,2.45e-4 -0.007,3.05e-4 -0.007,3.6e-4 -0.007,4.2e-4 -0.007,4.75e-4 -0.014,0.001 -0.018,0.0015 -0.006,10e-4 -0.025,0.005 -0.008,0.002 -0.006,0.002 -0.006,0.003 -0.003,0.003 -5e-4,10e-4 -1.3e-4,10e-4"
       id="path1083" />
    <path
       d="m 396.74,-47.571 h 2.375"
       id="path1085" />
    <path
       d="m 408.26,-41.306 v 0.58046"
       id="path1087" />
    <path
       d="m 387.61,-44.906 v -0.41954"
       id="path1089" />
    <path
       d="m 387.61,-40.726 v -0.58046"
       id="path1091" />
    <path
       d="m 396.84,-47.664 5e-4,-0.0367"
       id="path1093" />
    <path
       d="m 396.76,-47.678 h -0.0559"
       id="path1095" />
    <path
       d="m 402.81,-41.306 h -1.7"
       id="path1097" />
    <path
       d="m 406.96,-44.906 h -1.85"
       id="path1099" />
    <path
       d="m 408.26,-44.906 h -1.3"
       id="path1101" />
    <path
       d="m 408.56,-44.858 -3.7e-4,-0.0025 -0.001,-0.0025 -0.004,-0.005 -0.003,-0.0025 -0.004,-0.0025 -0.005,-0.0025 -0.005,-0.002 -0.006,-0.002 -0.014,-0.004 -0.008,-0.002 -0.018,-0.004 -0.01,-0.002 -0.0105,-0.0015 -0.011,-0.0015 -0.0115,-0.0015 -0.0119,-0.0015 -0.0124,-0.0015 -0.0128,-10e-4 -0.0132,-0.001 -0.0136,-10e-4 -0.0138,-10e-4 -0.0141,-0.001 -0.0144,-5e-4 -0.0145,-5e-4 -0.0147,-4.7e-4 -0.0148,-3.5e-4 -0.0149,-2.3e-4 -0.015,-1.1e-4 -0.006,-1e-5"
       id="path1103" />
    <path
       d="m 394.76,-41.306 h -1.7"
       id="path1105" />
    <path
       d="m 408.26,-41.306 h -1.3"
       id="path1107" />
    <path
       d="m 408.26,-44.906 v 3.6"
       id="path1109" />
    <path
       d="m 388.91,-44.906 h -1.3"
       id="path1111" />
    <path
       d="m 405.11,-41.314 -1.8e-4,-10e-4 -5e-4,-0.001 -0.001,-10e-4 -0.002,-10e-4 -10e-4,-0.001 -0.006,-0.003 -0.003,-10e-4 -0.012,-0.003 -0.025,-0.005 -0.006,-10e-4 -0.018,-0.0015 -0.014,-10e-4 -0.007,-4.65e-4 -0.007,-4.1e-4 -0.007,-3.5e-4 -0.007,-2.95e-4 -0.007,-2.35e-4 -0.007,-1.75e-4 -0.007,-1.15e-4 -0.007,-5.5e-5 -0.007,5e-6 -0.007,6.5e-5 -0.007,1.25e-4 -0.007,1.85e-4 -0.007,2.45e-4 -0.007,3.05e-4 -0.007,3.6e-4 -0.007,4.2e-4 -0.007,4.75e-4 -0.014,10e-4 -0.018,0.0015 -0.006,0.001 -0.025,0.005 -0.008,0.002 -0.006,0.002 -0.006,0.003 -0.003,0.003 -5e-4,10e-4 -1.3e-4,10e-4"
       id="path1113" />
    <path
       d="m 406.96,-41.306 h -1.85"
       id="path1115" />
    <path
       d="m 390.76,-44.906 h -1.85"
       id="path1117" />
    <path
       d="m 392.76,-41.306 h -1.7"
       id="path1119" />
    <path
       d="m 394.76,-44.906 h -1.7"
       id="path1121" />
    <path
       d="m 391.06,-44.914 -1.9e-4,-10e-4 -5e-4,-10e-4 -0.002,-0.002 -0.008,-0.004 -0.006,-0.002 -0.008,-0.002 -0.02,-0.004 -0.012,-0.002 -0.018,-0.0015 -0.014,-10e-4 -0.007,-4.65e-4 -0.007,-4.1e-4 -0.007,-3.5e-4 -0.007,-2.95e-4 -0.007,-2.35e-4 -0.007,-1.75e-4 -0.007,-1.15e-4 -0.007,-5.5e-5 -0.007,5e-6 -0.007,6.5e-5 -0.007,1.25e-4 -0.007,1.85e-4 -0.007,2.45e-4 -0.007,3.05e-4 -0.007,3.6e-4 -0.007,4.2e-4 -0.007,4.75e-4 -0.014,0.001 -0.018,0.0015 -0.006,10e-4 -0.025,0.005 -0.004,0.001 -0.009,0.003 -0.002,10e-4 -0.003,10e-4 -0.006,0.003 -10e-4,0.001 -4.9e-4,10e-4 -1.4e-4,10e-4"
       id="path1123" />
    <path
       d="m 392.76,-44.906 h -1.7"
       id="path1125" />
    <path
       d="m 387.61,-41.306 v -3.6"
       id="path1127" />
    <path
       d="m 387.61,-41.306 -0.015,6e-5 -0.0149,1.8e-4 -0.0149,3e-4 -0.0147,4.2e-4 -0.0146,5e-4 -0.0145,5e-4 -0.0142,10e-4 -0.014,0.001 -0.0136,10e-4 -0.0134,10e-4 -0.013,0.001 -0.0126,0.0015 -0.0122,0.0015 -0.0117,0.0015 -0.0112,0.0015 -0.0107,0.0015 -0.0102,0.002 -0.01,0.002 -0.009,0.002 -0.016,0.004 -0.007,0.002 -0.012,0.004 -0.01,0.005 -0.006,0.005 -0.004,0.005 -4.9e-4,0.0025 -7e-5,10e-4"
       id="path1129" />
    <path
       d="m 402.81,-44.906 h -1.7"
       id="path1131" />
    <path
       d="m 399.43,-39.059 h -3"
       id="path1133" />
    <path
       d="m 404.81,-41.306 h -1.7"
       id="path1135" />
    <path
       d="m 390.76,-41.306 h -1.85"
       id="path1137" />
    <path
       d="m 393.06,-44.914 -1.9e-4,-10e-4 -5e-4,-10e-4 -0.002,-0.002 -0.008,-0.004 -0.006,-0.002 -0.008,-0.002 -0.02,-0.004 -0.012,-0.002 -0.018,-0.0015 -0.014,-10e-4 -0.007,-4.65e-4 -0.007,-4.1e-4 -0.007,-3.5e-4 -0.007,-2.95e-4 -0.007,-2.35e-4 -0.007,-1.75e-4 -0.007,-1.15e-4 -0.007,-5.5e-5 -0.007,5e-6 -0.007,6.5e-5 -0.007,1.25e-4 -0.007,1.85e-4 -0.007,2.45e-4 -0.007,3.05e-4 -0.007,3.6e-4 -0.007,4.2e-4 -0.007,4.75e-4 -0.014,0.001 -0.018,0.0015 -0.006,10e-4 -0.025,0.005 -0.004,0.001 -0.009,0.003 -0.002,10e-4 -0.003,10e-4 -0.006,0.003 -10e-4,0.001 -4.9e-4,10e-4 -1.4e-4,10e-4"
       id="path1139" />
    <path
       d="m 399.43,-46.992 h -3"
       id="path1141" />
    <path
       d="m 396.84,-47.701 h 2.1855"
       id="path1143" />
    <path
       d="m 408.26,-45.326 v 0.41954"
       id="path1145" />
    <path
       d="m 391.06,-41.314 -1.9e-4,-10e-4 -5e-4,-0.001 -0.002,-0.002 -0.008,-0.004 -0.006,-0.002 -0.008,-0.002 -0.02,-0.004 -0.012,-0.002 -0.018,-0.0015 -0.014,-10e-4 -0.007,-4.65e-4 -0.007,-4.1e-4 -0.007,-3.5e-4 -0.007,-2.95e-4 -0.007,-2.35e-4 -0.007,-1.75e-4 -0.007,-1.15e-4 -0.007,-5.5e-5 -0.007,5e-6 -0.007,6.5e-5 -0.007,1.25e-4 -0.007,1.85e-4 -0.007,2.45e-4 -0.007,3.05e-4 -0.007,3.6e-4 -0.007,4.2e-4 -0.007,4.75e-4 -0.014,10e-4 -0.018,0.0015 -0.006,0.001 -0.025,0.005 -0.004,0.001 -0.009,0.003 -0.002,10e-4 -0.003,10e-4 -0.006,0.003 -10e-4,0.001 -4.9e-4,10e-4 -1.4e-4,10e-4"
       id="path1147" />
    <path
       d="m 399.03,-47.664 h -2.1867"
       id="path1149" />
    <path
       d="m 393.06,-41.314 -1.9e-4,-10e-4 -5e-4,-0.001 -0.002,-0.002 -0.008,-0.004 -0.006,-0.002 -0.008,-0.002 -0.02,-0.004 -0.012,-0.002 -0.018,-0.0015 -0.014,-10e-4 -0.007,-4.65e-4 -0.007,-4.1e-4 -0.007,-3.5e-4 -0.007,-2.95e-4 -0.007,-2.35e-4 -0.007,-1.75e-4 -0.007,-1.15e-4 -0.007,-5.5e-5 -0.007,5e-6 -0.007,6.5e-5 -0.007,1.25e-4 -0.007,1.85e-4 -0.007,2.45e-4 -0.007,3.05e-4 -0.007,3.6e-4 -0.007,4.2e-4 -0.007,4.75e-4 -0.014,10e-4 -0.018,0.0015 -0.006,0.001 -0.025,0.005 -0.004,0.001 -0.009,0.003 -0.002,10e-4 -0.003,10e-4 -0.006,0.003 -10e-4,0.001 -4.9e-4,10e-4 -1.4e-4,10e-4"
       id="path1151" />
    <path
       d="m 388.91,-41.306 h -1.3"
       id="path1153" />
    <path
       d="m 408.56,-41.258 -3.7e-4,-0.0025 -0.001,-0.0025 -0.004,-0.005 -0.003,-0.0025 -0.004,-0.0025 -0.005,-0.0025 -0.005,-0.002 -0.006,-0.002 -0.014,-0.004 -0.008,-0.002 -0.018,-0.004 -0.01,-0.002 -0.0105,-0.0015 -0.011,-0.0015 -0.0115,-0.0015 -0.0119,-0.0015 -0.0124,-0.0015 -0.0128,-10e-4 -0.0132,-0.001 -0.0136,-10e-4 -0.0138,-10e-4 -0.0141,-0.001 -0.0144,-5e-4 -0.0145,-5e-4 -0.0147,-4.7e-4 -0.0148,-3.5e-4 -0.0149,-2.3e-4 -0.015,-1.1e-4 -0.006,-1e-5"
       id="path1155" />
    <path
       d="m 397.93,-47.776 v 0.07168"
       id="path1157" />
    <path
       d="m 404.81,-44.906 h -1.7"
       id="path1159" />
    <path
       d="m 401.11,-38.485 h -1.6"
       id="path1161" />
    <path
       d="m 401.11,-47.576 h -1.6"
       id="path1163" />
    <path
       d="m 401.11,-47.562 v 9.079"
       id="path1165" />
    <path
       d="m 401.11,-39.068 h -1.6"
       id="path1167" />
    <path
       d="m 401.11,-46.992 h -1.6"
       id="path1169" />
    <g
       transform="matrix(-1,0,0,1,788.77,6.8694)"
       id="g1181">
      <path
         d="m 394,-45.347 h -1.6"
         id="path1171" />
      <path
         d="m 394,-54.438 h -1.6"
         id="path1173" />
      <path
         d="m 394,-54.424 v 9.079"
         id="path1175" />
      <path
         d="m 394,-45.931 h -1.6"
         id="path1177" />
      <path
         d="m 394,-53.855 h -1.6"
         id="path1179" />
    </g>
  </g>
</svg>
