<?xml version="1.0" encoding="UTF-8" standalone="no"?>
<!-- Created with Inkscape (http://www.inkscape.org/) -->

<svg
   width="1000"
   height="119.57487"
   viewBox="0 0 264.58329 31.63752"
   version="1.1"
   id="svg2764"
   inkscape:version="1.2.2 (732a01da63, 2022-12-09)"
   sodipodi:docname="Barra HOT.svg"
   inkscape:export-filename="C:\Users\Comercial\Desktop\Barra HOT.png"
   inkscape:export-xdpi="300.13531"
   inkscape:export-ydpi="300.13531"
   xmlns:inkscape="http://www.inkscape.org/namespaces/inkscape"
   xmlns:sodipodi="http://sodipodi.sourceforge.net/DTD/sodipodi-0.dtd"
   xmlns="http://www.w3.org/2000/svg"
   xmlns:svg="http://www.w3.org/2000/svg">
  <sodipodi:namedview
     id="namedview2766"
     pagecolor="#ffffff"
     bordercolor="#010101"
     borderopacity="1"
     inkscape:pageshadow="0"
     inkscape:pageopacity="0"
     inkscape:pagecheckerboard="false"
     inkscape:document-units="mm"
     showgrid="false"
     units="px"
     showguides="true"
     inkscape:guide-bbox="true"
     inkscape:zoom="1.0571246"
     inkscape:cx="505.14386"
     inkscape:cy="-1.8919246"
     inkscape:window-width="1920"
     inkscape:window-height="1009"
     inkscape:window-x="-8"
     inkscape:window-y="-8"
     inkscape:window-maximized="1"
     inkscape:current-layer="layer2"
     fit-margin-top="0"
     fit-margin-left="0"
     fit-margin-right="0"
     fit-margin-bottom="0"
     inkscape:showpageshadow="0"
     inkscape:deskcolor="#d1d1d1" />
  <defs
     id="defs2761" />
  <g
     inkscape:label="Barras"
     inkscape:groupmode="layer"
     id="layer1"
     transform="translate(-1.0529415,-7.8386891)">
    <g
       style="display:inline;fill:none;stroke:#000000;stroke-width:0.246217;stroke-linecap:round;stroke-linejoin:round;stroke-miterlimit:4;stroke-dasharray:none;stroke-opacity:1"
       transform="matrix(1.0734269,0,0,-1.0748394,64.425424,144.67573)"
       id="g1735">
      <g
         id="g1658"
         transform="matrix(0.84439466,0,0,0.84349824,-9.7696837,118.47859)"
         style="display:inline;fill:none;stroke:#000000;stroke-width:0.291745;stroke-linecap:round;stroke-linejoin:round;stroke-miterlimit:4;stroke-dasharray:none;stroke-opacity:1">
        <g
           id="g1901"
           transform="translate(4.2333335,0.34620835)"
           style="stroke:#000000;stroke-width:0.291745;stroke-miterlimit:4;stroke-dasharray:none;stroke-opacity:1">
          <path
             d="m 29.680116,-5.5125549 h -47.52784"
             style="stroke:#000000;stroke-width:0.291745;stroke-miterlimit:4;stroke-dasharray:none;stroke-opacity:1"
             id="path4"
             inkscape:connector-curvature="0" />
          <path
             d="m -17.910464,-11.312555 h 45.37829"
             style="stroke:#000000;stroke-width:0.291745;stroke-miterlimit:4;stroke-dasharray:none;stroke-opacity:1"
             id="path8"
             inkscape:connector-curvature="0" />
          <path
             d="m 31.688256,0.03744506 h -49.53598"
             style="stroke:#000000;stroke-width:0.291745;stroke-miterlimit:4;stroke-dasharray:none;stroke-opacity:1"
             id="path14-8"
             inkscape:connector-curvature="0" />
          <path
             d="M -17.847724,-1.2427549 V 0.03744506"
             style="stroke:#000000;stroke-width:0.291745;stroke-miterlimit:4;stroke-dasharray:none;stroke-opacity:1"
             id="path20-9"
             inkscape:connector-curvature="0" />
          <path
             d="m -18.347284,-10.800355 a 0.5,0.5 0 0 1 0.49992,-0.50873"
             style="stroke:#000000;stroke-width:0.291745;stroke-miterlimit:4;stroke-dasharray:none;stroke-opacity:1"
             id="path26-72"
             inkscape:connector-curvature="0" />
          <path
             d="M -17.847724,-11.312555 V -1.2427549"
             style="stroke:#000000;stroke-width:0.291745;stroke-miterlimit:4;stroke-dasharray:none;stroke-opacity:1"
             id="path28-0"
             inkscape:connector-curvature="0" />
          <path
             d="m -17.859334,0.04226506 a 0.5,0.5 0 0 1 -0.49993,-0.50873"
             style="stroke:#000000;stroke-width:0.291745;stroke-miterlimit:4;stroke-dasharray:none;stroke-opacity:1"
             id="path36-0"
             inkscape:connector-curvature="0" />
          <path
             d="M 76.152276,0.03744506 V -1.2427549"
             style="stroke:#000000;stroke-width:0.291745;stroke-miterlimit:4;stroke-dasharray:none;stroke-opacity:1"
             id="path44-7"
             inkscape:connector-curvature="0" />
          <path
             d="M 76.152276,-1.2427549 V -11.312555"
             style="stroke:#000000;stroke-width:0.291745;stroke-miterlimit:4;stroke-dasharray:none;stroke-opacity:1"
             id="path46-44"
             inkscape:connector-curvature="0" />
          <path
             d="m 76.164656,-11.317365 a 0.5,0.5 0 0 1 0.49992,0.50873"
             style="stroke:#000000;stroke-width:0.291745;stroke-miterlimit:4;stroke-dasharray:none;stroke-opacity:1"
             id="path52-8"
             inkscape:connector-curvature="0" />
          <path
             d="m 76.660106,-0.46755494 a 0.5,0.5 0 0 1 -0.49993,0.50873"
             style="stroke:#000000;stroke-width:0.291745;stroke-miterlimit:4;stroke-dasharray:none;stroke-opacity:1"
             id="path60-9"
             inkscape:connector-curvature="0" />
          <path
             d="m -18.356454,-0.74283494 -4.2e-4,-6.3e-4 m 0,0 -4e-4,-0.002 m 0,0 -3.8e-4,-0.003 m 0,0 -3.5e-4,-0.004 m 0,0 -3.3e-4,-0.006 m 0,0 -3e-4,-0.007 m 0,0 -2.8e-4,-0.008 m 0,0 -2.4e-4,-0.009 m 0,0 -2.2e-4,-0.0103 m 0,0 -1.9e-4,-0.0114 m 0,0 -1.6e-4,-0.0125 m 0,0 -1.3e-4,-0.0136 m 0,0 -9e-5,-0.0146 m 0,0 -7e-5,-0.0156 m 0,0 -4e-5,-0.0166 m 0,0 -10e-6,-0.0175 m 0,0 3e-5,-0.0184 m 0,0 5e-5,-0.0192 m 0,0 9e-5,-0.02 m 0,0 1.2e-4,-0.0207 m 0,0 1.4e-4,-0.0214 m 0,0 1.8e-4,-0.022 m 0,0 2e-4,-0.0226 m 0,0 2.4e-4,-0.0231 m 0,0 2.6e-4,-0.0235 m 0,0 2.9e-4,-0.0239 m 0,0 3.2e-4,-0.0243 m 0,0 3.4e-4,-0.0245 m 0,0 3.7e-4,-0.0247 m 0,0 3.9e-4,-0.0249 m 0,0 4.2e-4,-0.025 m 0,0 1.7e-4,-0.0102"
             style="stroke:#000000;stroke-width:0.291745;stroke-miterlimit:4;stroke-dasharray:none;stroke-opacity:1"
             id="path306-7"
             inkscape:connector-curvature="0" />
          <path
             d="m -18.356454,-0.42383494 v -0.42695"
             style="stroke:#000000;stroke-width:0.291745;stroke-miterlimit:4;stroke-dasharray:none;stroke-opacity:1"
             id="path310-5"
             inkscape:connector-curvature="0" />
          <path
             d="M -18.356454,-1.2323549 V -10.867975"
             style="stroke:#000000;stroke-width:0.291745;stroke-miterlimit:4;stroke-dasharray:none;stroke-opacity:1"
             id="path314-1"
             inkscape:connector-curvature="0" />
          <path
             d="m 76.661006,-10.837055 v 9.5943001"
             style="stroke:#000000;stroke-width:0.291745;stroke-miterlimit:4;stroke-dasharray:none;stroke-opacity:1"
             id="path320-5"
             inkscape:connector-curvature="0" />
          <path
             d="m 76.661006,-0.84650494 v 0.46864"
             style="stroke:#000000;stroke-width:0.291745;stroke-miterlimit:4;stroke-dasharray:none;stroke-opacity:1"
             id="path322-7"
             inkscape:connector-curvature="0" />
          <path
             d="m 76.661006,-1.2427549 4.2e-4,0.025 m 0,0 4e-4,0.0249 m 0,0 3.8e-4,0.0248 m 0,0 3.6e-4,0.0246 m 0,0 3.2e-4,0.0244 m 0,0 3.1e-4,0.0241 m 0,0 2.7e-4,0.0237 m 0,0 2.4e-4,0.0233 m 0,0 2.2e-4,0.0228 m 0,0 1.9e-4,0.0222 m 0,0 1.6e-4,0.0216 m 0,0 1.3e-4,0.021 m 0,0 1e-4,0.0203 m 0,0 6e-5,0.0195 m 0,0 4e-5,0.0187 m 0,0 10e-6,0.0179 m 0,0 -3e-5,0.017 m 0,0 -5e-5,0.016 m 0,0 -9e-5,0.015 m 0,0 -1.1e-4,0.014 m 0,0 -1.5e-4,0.013 m 0,0 -1.8e-4,0.0119 m 0,0 -2e-4,0.0108 m 0,0 -2.4e-4,0.01 m 0,0 -2.6e-4,0.008 m 0,0 -2.9e-4,0.007 m 0,0 -3.2e-4,0.006 m 0,0 -3.4e-4,0.005 m 0,0 -3.7e-4,0.004 m 0,0 -3.9e-4,0.002 m 0,0 -4.2e-4,0.001 m 0,0 -1.7e-4,1.1e-4"
             style="stroke:#000000;stroke-width:0.291745;stroke-miterlimit:4;stroke-dasharray:none;stroke-opacity:1"
             id="path324-8"
             inkscape:connector-curvature="0" />
          <path
             d="m 32.140626,-11.312555 h 44.01165"
             style="stroke:#000000;stroke-width:0.291745;stroke-miterlimit:4;stroke-dasharray:none;stroke-opacity:1"
             id="path7762"
             inkscape:connector-curvature="0" />
          <path
             d="M 76.110416,-5.5125549 H 34.312496"
             style="stroke:#000000;stroke-width:0.291745;stroke-miterlimit:4;stroke-dasharray:none;stroke-opacity:1"
             id="path7764"
             inkscape:connector-curvature="0" />
          <path
             d="M 76.152276,0.03744506 H 36.389896"
             style="stroke:#000000;stroke-width:0.291745;stroke-miterlimit:4;stroke-dasharray:none;stroke-opacity:1"
             id="path7766"
             inkscape:connector-curvature="0" />
        </g>
        <path
           d="M -14.236313,-6.3323249 H -47.101544"
           style="fill:none;stroke:#000000;stroke-width:0.291745;stroke-linecap:round;stroke-linejoin:round;stroke-miterlimit:4;stroke-dasharray:none;stroke-opacity:1"
           id="path2"
           sodipodi:nodetypes="cc"
           inkscape:connector-curvature="0" />
        <path
           d="m -47.104524,-9.7823249 h 32.919461"
           style="fill:none;stroke:#000000;stroke-width:0.291745;stroke-linecap:round;stroke-linejoin:round;stroke-miterlimit:4;stroke-dasharray:none;stroke-opacity:1"
           id="path10-8"
           sodipodi:nodetypes="cc"
           inkscape:connector-curvature="0" />
        <g
           id="g1300"
           style="stroke:#000000;stroke-width:0.291745;stroke-miterlimit:4;stroke-dasharray:none;stroke-opacity:1"
           transform="translate(-133.9441,-130.10044)">
          <rect
             style="opacity:1;fill:none;fill-opacity:1;stroke:#000000;stroke-width:0.291745;stroke-linecap:round;stroke-linejoin:round;stroke-miterlimit:4;stroke-dasharray:none;stroke-dashoffset:0;stroke-opacity:1;paint-order:normal"
             id="rect1372-4-6"
             width="8.0463772"
             height="1.3964982"
             x="78.794823"
             y="-122.78175"
             transform="matrix(1,0,-1.1181928e-5,-1,0,0)"
             ry="0.10349341"
             rx="0.10349341" />
          <rect
             style="opacity:1;fill:none;fill-opacity:1;stroke:#000000;stroke-width:0.291745;stroke-linecap:round;stroke-linejoin:round;stroke-miterlimit:4;stroke-dasharray:none;stroke-dashoffset:0;stroke-opacity:1;paint-order:normal"
             id="rect1372-4-0-4"
             width="3.0531702"
             height="0.59473801"
             x="75.741806"
             y="-122.38087"
             transform="matrix(1,0,-9.9628136e-6,-1,0,0)"
             ry="0.044075571"
             rx="0.044075571" />
        </g>
        <path
           inkscape:connector-curvature="0"
           sodipodi:nodetypes="cc"
           id="path1302"
           style="fill:none;stroke:#000000;stroke-width:0.291745;stroke-linecap:round;stroke-linejoin:round;stroke-miterlimit:4;stroke-dasharray:none;stroke-opacity:1"
           d="m -47.101554,-6.3382549 v -3.44407" />
      </g>
    </g>
    <g
       id="g1957"
       transform="matrix(3.0021309,0,0,3.0060812,-44.983773,-32.274014)"
       style="fill:none;stroke:#000000;stroke-width:0.0880362;stroke-linecap:round;stroke-linejoin:round;stroke-miterlimit:4;stroke-dasharray:none;stroke-opacity:1">
      <g
         id="g1491"
         transform="matrix(0.51200002,0,0,-0.51200002,12.750197,18.986792)"
         style="display:inline;fill:none;stroke:#000000;stroke-width:0.171946;stroke-linecap:round;stroke-linejoin:round;stroke-miterlimit:4;stroke-dasharray:none;stroke-opacity:1">
        <g
           id="g1468"
           transform="translate(0.55011081,-52.213829)"
           style="stroke:#000000;stroke-width:0.171946;stroke-miterlimit:4;stroke-dasharray:none;stroke-opacity:1">
          <rect
             ry="0.055737961"
             transform="matrix(1,0,-1.1181928e-5,-1,0,0)"
             y="-53.618053"
             x="96.280136"
             height="0.75210559"
             width="4.3335004"
             id="rect1464"
             style="opacity:1;fill:none;fill-opacity:1;stroke:#000000;stroke-width:0.171946;stroke-linecap:round;stroke-linejoin:round;stroke-miterlimit:4;stroke-dasharray:none;stroke-dashoffset:0;stroke-opacity:1;paint-order:normal"
             rx="0.055737961" />
          <rect
             ry="0.023737576"
             transform="matrix(1,0,-9.9628133e-6,-1,0,0)"
             y="-53.402153"
             x="94.635872"
             height="0.32030529"
             width="1.6443317"
             id="rect1466"
             style="opacity:1;fill:none;fill-opacity:1;stroke:#000000;stroke-width:0.171946;stroke-linecap:round;stroke-linejoin:round;stroke-miterlimit:4;stroke-dasharray:none;stroke-dashoffset:0;stroke-opacity:1;paint-order:normal"
             rx="0.023737576" />
        </g>
        <g
           style="stroke:#000000;stroke-width:0.171946;stroke-miterlimit:4;stroke-dasharray:none;stroke-opacity:1"
           transform="translate(0.55011081,-50.761183)"
           id="g1483">
          <rect
             style="opacity:1;fill:none;fill-opacity:1;stroke:#000000;stroke-width:0.171946;stroke-linecap:round;stroke-linejoin:round;stroke-miterlimit:4;stroke-dasharray:none;stroke-dashoffset:0;stroke-opacity:1;paint-order:normal"
             id="rect1479"
             width="4.3335004"
             height="0.75210559"
             x="96.280144"
             y="-53.190109"
             transform="matrix(1,0,-1.1181928e-5,-1,0,0)"
             ry="0.055737961"
             rx="0.055737961" />
          <rect
             style="opacity:1;fill:none;fill-opacity:1;stroke:#000000;stroke-width:0.171946;stroke-linecap:round;stroke-linejoin:round;stroke-miterlimit:4;stroke-dasharray:none;stroke-dashoffset:0;stroke-opacity:1;paint-order:normal"
             id="rect1481"
             width="1.6443317"
             height="0.32030529"
             x="94.63588"
             y="-52.974209"
             transform="matrix(1,0,-9.9628133e-6,-1,0,0)"
             ry="0.023737576"
             rx="0.023737576" />
        </g>
      </g>
      <path
         d="M 64.546341,17.365128 V 18.9836"
         style="display:inline;fill:none;stroke:#000000;stroke-width:0.0880362;stroke-linecap:round;stroke-linejoin:round;stroke-miterlimit:4;stroke-dasharray:none;stroke-opacity:1"
         id="path1322"
         sodipodi:nodetypes="cc"
         inkscape:connector-curvature="0" />
      <path
         inkscape:connector-curvature="0"
         id="path336"
         style="display:inline;fill:none;stroke:#000000;stroke-width:0.0880362;stroke-linecap:round;stroke-linejoin:round;stroke-miterlimit:4;stroke-dasharray:none;stroke-opacity:1"
         d="M 90.226134,15.625713 H 74.931457" />
      <path
         inkscape:connector-curvature="0"
         id="path342"
         style="display:inline;fill:none;stroke:#000000;stroke-width:0.0880362;stroke-linecap:round;stroke-linejoin:round;stroke-miterlimit:4;stroke-dasharray:none;stroke-opacity:1"
         d="M 74.944499,20.748518 H 88.353211" />
      <path
         inkscape:connector-curvature="0"
         id="path348"
         style="display:inline;fill:none;stroke:#000000;stroke-width:0.0880362;stroke-linecap:round;stroke-linejoin:round;stroke-miterlimit:4;stroke-dasharray:none;stroke-opacity:1"
         d="m 74.930222,15.624393 a 0.15083088,0.15051078 0 0 0 -0.150807,0.15314" />
      <path
         inkscape:connector-curvature="0"
         id="path352"
         style="display:inline;fill:none;stroke:#000000;stroke-width:0.292148;stroke-linecap:round;stroke-linejoin:round;stroke-miterlimit:4;stroke-dasharray:none;stroke-opacity:1"
         d="M 134.82156,66.955857 V 80.598835"
         transform="matrix(0.30134149,0,0,-0.30134149,34.304128,40.419291)" />
      <path
         inkscape:connector-curvature="0"
         id="path358"
         style="display:inline;fill:none;stroke:#000000;stroke-width:0.0880362;stroke-linecap:round;stroke-linejoin:round;stroke-miterlimit:4;stroke-dasharray:none;stroke-opacity:1"
         d="M 74.931458,16.131518 V 15.625713" />
      <path
         inkscape:connector-curvature="0"
         id="path364"
         style="display:inline;fill:none;stroke:#000000;stroke-width:0.0880362;stroke-linecap:round;stroke-linejoin:round;stroke-miterlimit:4;stroke-dasharray:none;stroke-opacity:1"
         d="m 74.776279,20.596982 a 0.15083087,0.15051079 0 0 0 0.150808,0.153139" />
      <path
         inkscape:connector-curvature="0"
         id="path366"
         style="display:inline;fill:none;stroke:#000000;stroke-width:0.0880362;stroke-linecap:round;stroke-linejoin:round;stroke-miterlimit:4;stroke-dasharray:none;stroke-opacity:1"
         d="M 74.931458,20.745265 V 20.242713" />
      <path
         inkscape:connector-curvature="0"
         id="path384-0"
         style="display:inline;fill:none;stroke:#000000;stroke-width:0.292148;stroke-linecap:round;stroke-linejoin:round;stroke-miterlimit:4;stroke-dasharray:none;stroke-opacity:1"
         d="M 228.82156,80.598838 V 66.95586"
         transform="matrix(0.30134149,0,0,-0.30134149,34.304128,40.419291)" />
      <path
         inkscape:connector-curvature="0"
         id="path394"
         style="display:inline;fill:none;stroke:#000000;stroke-width:0.0880362;stroke-linecap:round;stroke-linejoin:round;stroke-miterlimit:4;stroke-dasharray:none;stroke-opacity:1"
         d="m 103.25756,20.23987 v 0.498083" />
      <path
         inkscape:connector-curvature="0"
         id="path396"
         style="display:inline;fill:none;stroke:#000000;stroke-width:0.0880362;stroke-linecap:round;stroke-linejoin:round;stroke-miterlimit:4;stroke-dasharray:none;stroke-opacity:1"
         d="m 103.25756,15.627393 v 0.511789" />
      <path
         inkscape:connector-curvature="0"
         id="path640"
         style="display:inline;fill:none;stroke:#000000;stroke-width:0.0880362;stroke-linecap:round;stroke-linejoin:round;stroke-miterlimit:4;stroke-dasharray:none;stroke-opacity:1"
         d="M 74.95479,15.776384 H 90.170078" />
      <path
         inkscape:connector-curvature="0"
         id="path642"
         style="display:inline;fill:none;stroke:#000000;stroke-width:0.0880362;stroke-linecap:round;stroke-linejoin:round;stroke-miterlimit:4;stroke-dasharray:none;stroke-opacity:1"
         d="M 88.399027,20.597848 H 74.931458" />
      <path
         inkscape:connector-curvature="0"
         id="path644"
         style="display:inline;fill:none;stroke:#000000;stroke-width:0.0880362;stroke-linecap:round;stroke-linejoin:round;stroke-miterlimit:4;stroke-dasharray:none;stroke-opacity:1"
         d="m 74.778156,20.264652 v 0.35596" />
      <path
         inkscape:connector-curvature="0"
         id="path650"
         style="display:inline;fill:none;stroke:#000000;stroke-width:0.0880362;stroke-linecap:round;stroke-linejoin:round;stroke-miterlimit:4;stroke-dasharray:none;stroke-opacity:1"
         d="m 74.778157,15.762341 v 0.338332" />
      <path
         inkscape:connector-curvature="0"
         id="path656"
         style="display:inline;fill:none;stroke:#000000;stroke-width:0.292148;stroke-linecap:round;stroke-linejoin:round;stroke-miterlimit:4;stroke-dasharray:none;stroke-opacity:1"
         d="M 134.31283,80.725899 V 66.828793"
         transform="matrix(0.30134149,0,0,-0.30134149,34.304128,40.419291)" />
      <g
         id="g4268"
         transform="matrix(1,0,0,0.86388518,0,2.5413653)"
         style="stroke:#000000;stroke-width:0.0947182;stroke-miterlimit:4;stroke-dasharray:none;stroke-opacity:1">
        <path
           inkscape:connector-curvature="0"
           id="path664-5"
           style="display:inline;fill:none;stroke:#000000;stroke-width:0.314322;stroke-linecap:round;stroke-linejoin:round;stroke-miterlimit:4;stroke-dasharray:none;stroke-opacity:1"
           d="m 229.33029,82.747093 4.2e-4,0.02499 m 0,0 4e-4,0.02492 m 0,0 3.8e-4,0.0248 m 0,0 3.6e-4,0.02461 m 0,0 3.2e-4,0.02436 m 0,0 3.1e-4,0.02405 m 0,0 2.7e-4,0.02369 m 0,0 2.4e-4,0.02326 m 0,0 2.2e-4,0.02277 m 0,0 1.9e-4,0.02223 m 0,0 1.6e-4,0.02163 m 0,0 1.3e-4,0.02097 m 0,0 1e-4,0.02027 m 0,0 6e-5,0.01951 m 0,0 4e-5,0.01871 m 0,0 1e-5,0.01786 m 0,0 -3e-5,0.01696 m 0,0 -5e-5,0.01602 m 0,0 -9e-5,0.01504 m 0,0 -1.1e-4,0.01403 m 0,0 -1.5e-4,0.01297 m 0,0 -1.8e-4,0.01189 m 0,0 -2e-4,0.01078 m 0,0 -2.4e-4,0.0096 m 0,0 -2.6e-4,0.0085 m 0,0 -2.9e-4,0.0073 m 0,0 -3.2e-4,0.0061 m 0,0 -3.4e-4,0.0049 m 0,0 -3.7e-4,0.0036 m 0,0 -3.9e-4,0.0024 m 0,0 -4.2e-4,0.0011 m 0,0 -1.7e-4,1.08e-4"
           transform="matrix(0.30134149,0,0,-0.30134149,34.304128,40.419291)" />
        <path
           inkscape:connector-curvature="0"
           id="path666-2"
           style="display:inline;fill:none;stroke:#000000;stroke-width:0.314322;stroke-linecap:round;stroke-linejoin:round;stroke-miterlimit:4;stroke-dasharray:none;stroke-opacity:1"
           d="M 229.33029,66.828796 V 80.725902"
           transform="matrix(0.30134149,0,0,-0.30134149,34.304128,40.419291)" />
        <path
           inkscape:connector-curvature="0"
           id="path678-7"
           style="display:inline;fill:none;stroke:#000000;stroke-width:0.314322;stroke-linecap:round;stroke-linejoin:round;stroke-miterlimit:4;stroke-dasharray:none;stroke-opacity:1"
           d="m 229.33029,64.807605 v 2.021191"
           transform="matrix(0.30134149,0,0,-0.30134149,34.304128,40.419291)" />
        <path
           inkscape:connector-curvature="0"
           id="path682-3"
           style="display:inline;fill:none;stroke:#000000;stroke-width:0.314322;stroke-linecap:round;stroke-linejoin:round;stroke-miterlimit:4;stroke-dasharray:none;stroke-opacity:1"
           d="m 229.33029,80.725902 v 2.021191"
           transform="matrix(0.30134149,0,0,-0.30134149,34.304128,40.419291)" />
      </g>
      <path
         inkscape:connector-curvature="0"
         id="path5794"
         style="display:inline;fill:none;stroke:#000000;stroke-width:0.0880362;stroke-linecap:round;stroke-linejoin:round;stroke-miterlimit:4;stroke-dasharray:none;stroke-opacity:1"
         d="m 90.04546,20.748518 h 13.19341" />
      <path
         inkscape:connector-curvature="0"
         id="path5796"
         style="display:inline;fill:none;stroke:#000000;stroke-width:0.0880362;stroke-linecap:round;stroke-linejoin:round;stroke-miterlimit:4;stroke-dasharray:none;stroke-opacity:1"
         d="M 103.22865,20.597848 H 90.100057" />
      <path
         inkscape:connector-curvature="0"
         id="path5798"
         style="display:inline;fill:none;stroke:#000000;stroke-width:0.0880362;stroke-linecap:round;stroke-linejoin:round;stroke-miterlimit:4;stroke-dasharray:none;stroke-opacity:1"
         d="M 103.24833,15.625713 H 91.920908" />
      <path
         inkscape:connector-curvature="0"
         id="path5800"
         style="display:inline;fill:none;stroke:#000000;stroke-width:0.0880362;stroke-linecap:round;stroke-linejoin:round;stroke-miterlimit:4;stroke-dasharray:none;stroke-opacity:1"
         d="M 91.870649,15.776384 H 103.22938" />
      <g
         style="display:inline;fill:none;stroke:#000000;stroke-width:0.326655;stroke-linecap:round;stroke-linejoin:round;stroke-miterlimit:4;stroke-dasharray:none;stroke-opacity:1"
         transform="matrix(0.24103861,0,0,0.3013415,46.168093,21.268221)"
         id="g1316">
        <path
           inkscape:connector-curvature="0"
           sodipodi:nodetypes="cc"
           id="path78-3-9"
           style="fill:none;stroke:#000000;stroke-width:0.326655;stroke-linecap:round;stroke-linejoin:round;stroke-miterlimit:4;stroke-dasharray:none;stroke-opacity:1"
           d="M 118.67248,-13.011701 H 76.232968" />
        <path
           inkscape:connector-curvature="0"
           sodipodi:nodetypes="cc"
           id="path84-7"
           style="fill:none;stroke:#000000;stroke-width:0.326655;stroke-linecap:round;stroke-linejoin:round;stroke-miterlimit:4;stroke-dasharray:none;stroke-opacity:1"
           d="M 118.67248,-7.4670478 H 76.232968" />
      </g>
      <path
         inkscape:connector-curvature="0"
         id="path4272"
         style="display:inline;fill:none;stroke:#000000;stroke-width:0.0880362;stroke-linecap:round;stroke-linejoin:round;stroke-miterlimit:4;stroke-dasharray:none;stroke-opacity:1"
         d="m 103.41086,15.778043 a 0.15067074,0.15067075 0 0 0 -0.1533,-0.15065" />
      <path
         inkscape:connector-curvature="0"
         id="path4436"
         style="display:inline;fill:none;stroke:#000000;stroke-width:0.0880362;stroke-linecap:round;stroke-linejoin:round;stroke-miterlimit:4;stroke-dasharray:none;stroke-opacity:1"
         d="m 103.25879,20.746613 a 0.15083088,0.15051078 0 0 0 0.15081,-0.153137" />
    </g>
  </g>
  <g
     inkscape:groupmode="layer"
     id="layer4"
     inkscape:label="Cortes"
     style="display:inline"
     transform="translate(-1.0529415,-7.8386891)">
    <path
       inkscape:connector-curvature="0"
       sodipodi:nodetypes="cccc"
       d="m 231.946,12.343979 -7.27323,19.601278 m -4.95415,0 7.27323,-19.601278"
       style="fill:none;fill-opacity:1;stroke:#000000;stroke-width:0.264583;stroke-linecap:round;stroke-linejoin:round;stroke-miterlimit:4;stroke-dasharray:none;stroke-opacity:1"
       id="path5712"
       transform="matrix(0.99957236,0,0,0.99957236,4.5028124e-4,0.00335214)" />
    <path
       inkscape:connector-curvature="0"
       sodipodi:nodetypes="cccc"
       d="M 91.729763,14.383241 85.76473,30.455834 m -4.123478,0 5.965034,-16.072593"
       style="fill:none;fill-opacity:1;stroke:#000000;stroke-width:0.264583;stroke-linecap:round;stroke-linejoin:round;stroke-miterlimit:4;stroke-dasharray:none;stroke-opacity:1"
       id="path7461"
       transform="matrix(0.99957236,0,0,0.99957236,4.5028124e-4,0.00335214)" />
  </g>
  <g
     inkscape:groupmode="layer"
     id="layer3"
     inkscape:label="Setas"
     style="display:inline"
     transform="translate(-1.0529415,-7.8386891)">
    <path
       inkscape:connector-curvature="0"
       style="display:inline;fill:#4d4d4d;fill-opacity:1;stroke:#000000;stroke-width:0.264583;stroke-linecap:butt;stroke-linejoin:miter;stroke-miterlimit:4;stroke-dasharray:none;stroke-opacity:1"
       d="m 264.61608,38.544932 h -83.7997"
       id="path9208"
       sodipodi:nodetypes="cc"
       transform="matrix(0.99957236,0,0,0.99957236,4.5028124e-4,0.00335214)" />
    <path
       style="display:inline;fill:#000000;fill-opacity:1;stroke:#000000;stroke-width:0.264583;stroke-linecap:round;stroke-linejoin:round;stroke-miterlimit:4;stroke-dasharray:none;stroke-opacity:1"
       d="m 181.1848,37.819174 v 1.469974 l -1.8707,-0.731916 1.8707,-0.744211"
       id="path9210"
       inkscape:connector-curvature="0"
       transform="matrix(0.99957236,0,0,0.99957236,4.5028124e-4,0.00335214)" />
    <path
       inkscape:connector-curvature="0"
       id="path9212"
       d="m 263.74646,39.282994 v -1.469965 l 1.87072,0.731901 -1.87072,0.74421"
       style="display:inline;fill:#000000;fill-opacity:1;stroke:#000000;stroke-width:0.264583;stroke-linecap:round;stroke-linejoin:round;stroke-miterlimit:4;stroke-dasharray:none;stroke-opacity:1"
       transform="matrix(0.99957236,0,0,0.99957236,4.5028124e-4,0.00335214)" />
    <path
       sodipodi:nodetypes="cc"
       id="path9214"
       d="m 265.61718,36.021084 v 3.46866"
       style="display:inline;fill:#4d4d4d;fill-opacity:1;stroke:#000000;stroke-width:0.264583;stroke-linecap:butt;stroke-linejoin:miter;stroke-miterlimit:4;stroke-dasharray:none;stroke-opacity:1"
       inkscape:connector-curvature="0"
       transform="matrix(0.99957236,0,0,0.99957236,4.5028124e-4,0.00335214)" />
    <path
       inkscape:connector-curvature="0"
       style="display:inline;fill:#4d4d4d;fill-opacity:1;stroke:#000000;stroke-width:0.264583;stroke-linecap:butt;stroke-linejoin:miter;stroke-miterlimit:4;stroke-dasharray:none;stroke-opacity:1"
       d="m 179.3141,36.021084 v 3.46866"
       id="path9216"
       sodipodi:nodetypes="cc"
       transform="matrix(0.99957236,0,0,0.99957236,4.5028124e-4,0.00335214)" />
    <g
       id="g8714"
       transform="matrix(0.83178938,0,0,-0.82824008,174.00734,119.52902)"
       style="fill:none;stroke:#000000;stroke-width:0.318634;stroke-linecap:round;stroke-linejoin:round;stroke-dasharray:none;stroke-opacity:1">
      <path
         sodipodi:nodetypes="cc"
         id="path8710"
         d="m -85.051629,131.96885 v -7.12584"
         style="fill:#4d4d4d;fill-opacity:1;stroke:#000000;stroke-width:0.318634;stroke-linecap:butt;stroke-linejoin:miter;stroke-miterlimit:4;stroke-dasharray:none;stroke-opacity:1"
         inkscape:connector-curvature="0" />
      <path
         inkscape:connector-curvature="0"
         id="path8712"
         d="m -86.011166,127.18616 h 1.94918 l -0.970513,-2.47929 -0.986822,2.47929"
         style="fill:#000000;fill-opacity:1;stroke:#000000;stroke-width:0.318634;stroke-linecap:round;stroke-linejoin:round;stroke-miterlimit:4;stroke-dasharray:none;stroke-opacity:1" />
    </g>
    <g
       id="g7884"
       transform="matrix(-0.83178938,0,0,0.82824008,32.505782,-75.012383)"
       style="fill:none;stroke:#000000;stroke-width:0.318634;stroke-linecap:round;stroke-linejoin:round;stroke-dasharray:none;stroke-opacity:1">
      <path
         sodipodi:nodetypes="cc"
         id="path7880"
         d="m -85.051629,131.96885 v -7.12584"
         style="fill:#4d4d4d;fill-opacity:1;stroke:#000000;stroke-width:0.318634;stroke-linecap:butt;stroke-linejoin:miter;stroke-miterlimit:4;stroke-dasharray:none;stroke-opacity:1"
         inkscape:connector-curvature="0" />
      <path
         inkscape:connector-curvature="0"
         id="path7882"
         d="m -86.011166,127.18616 h 1.94918 l -0.970513,-2.47929 -0.986822,2.47929"
         style="fill:#000000;fill-opacity:1;stroke:#000000;stroke-width:0.318634;stroke-linecap:round;stroke-linejoin:round;stroke-miterlimit:4;stroke-dasharray:none;stroke-opacity:1" />
    </g>
    <g
       id="g9491"
       transform="matrix(0.83178938,0,0,-0.82824008,312.8457,117.14058)"
       style="fill:none;stroke:#000000;stroke-width:0.318634;stroke-linecap:round;stroke-linejoin:round;stroke-dasharray:none;stroke-opacity:1">
      <path
         sodipodi:nodetypes="cc"
         id="path9487"
         d="m -85.051629,131.96885 v -7.12584"
         style="fill:#4d4d4d;fill-opacity:1;stroke:#000000;stroke-width:0.318634;stroke-linecap:butt;stroke-linejoin:miter;stroke-miterlimit:4;stroke-dasharray:none;stroke-opacity:1"
         inkscape:connector-curvature="0" />
      <path
         inkscape:connector-curvature="0"
         id="path9489"
         d="m -86.011166,127.18616 h 1.94918 l -0.970513,-2.47929 -0.986822,2.47929"
         style="fill:#000000;fill-opacity:1;stroke:#000000;stroke-width:0.318634;stroke-linecap:round;stroke-linejoin:round;stroke-miterlimit:4;stroke-dasharray:none;stroke-opacity:1" />
    </g>
    <g
       id="g9497"
       transform="matrix(-0.83178938,0,0,0.82824008,171.34415,-72.32539)"
       style="fill:none;stroke:#000000;stroke-width:0.318634;stroke-linecap:round;stroke-linejoin:round;stroke-dasharray:none;stroke-opacity:1">
      <path
         sodipodi:nodetypes="cc"
         id="path9493"
         d="m -85.051629,131.96885 v -7.12584"
         style="fill:#4d4d4d;fill-opacity:1;stroke:#000000;stroke-width:0.318634;stroke-linecap:butt;stroke-linejoin:miter;stroke-miterlimit:4;stroke-dasharray:none;stroke-opacity:1"
         inkscape:connector-curvature="0" />
      <path
         inkscape:connector-curvature="0"
         id="path9495"
         d="m -86.011166,127.18616 h 1.94918 l -0.970513,-2.47929 -0.986822,2.47929"
         style="fill:#000000;fill-opacity:1;stroke:#000000;stroke-width:0.318634;stroke-linecap:round;stroke-linejoin:round;stroke-miterlimit:4;stroke-dasharray:none;stroke-opacity:1" />
    </g>
  </g>
  <g
     inkscape:groupmode="layer"
     id="layer2"
     inkscape:label="Legenda"
     style="display:inline"
     transform="translate(-1.0529415,-7.8386891)">
    <text
       xml:space="preserve"
       style="font-style:normal;font-variant:normal;font-weight:normal;font-stretch:normal;font-size:4.23228px;line-height:1.25;font-family:Lato;-inkscape-font-specification:'Lato, Normal';font-variant-ligatures:normal;font-variant-caps:normal;font-variant-numeric:normal;font-variant-east-asian:normal;fill:#000000;stroke:none;stroke-width:0.264583;stroke-linecap:round;stroke-linejoin:round;stroke-dasharray:none;stroke-opacity:1"
       x="225.46835"
       y="37.208324"
       id="text12618"
       transform="matrix(0.98402351,0,0,1.0153669,4.5028124e-4,0.00335214)"><tspan
         sodipodi:role="line"
         id="tspan12616"
         style="font-style:normal;font-variant:normal;font-weight:normal;font-stretch:normal;font-size:4.23228px;font-family:Lato;-inkscape-font-specification:'Lato, Normal';font-variant-ligatures:normal;font-variant-caps:normal;font-variant-numeric:normal;font-variant-east-asian:normal;fill:#000000;stroke:none;stroke-width:0.264583;stroke-dasharray:none;stroke-opacity:1"
         x="225.46835"
         y="37.208324">C</tspan></text>
    <text
       xml:space="preserve"
       style="font-style:normal;font-variant:normal;font-weight:normal;font-stretch:normal;font-size:4.23228px;line-height:1.25;font-family:Lato;-inkscape-font-specification:'Lato, Normal';font-variant-ligatures:normal;font-variant-caps:normal;font-variant-numeric:normal;font-variant-east-asian:normal;fill:#000000;stroke:none;stroke-width:0.264583;stroke-linecap:round;stroke-linejoin:round;stroke-dasharray:none;stroke-opacity:1"
       x="100.72163"
       y="14.450379"
       id="text9097"
       transform="matrix(0.98402355,0,0,1.0153669,4.5028124e-4,0.00335214)"><tspan
         sodipodi:role="line"
         id="tspan9095"
         style="font-style:normal;font-variant:normal;font-weight:normal;font-stretch:normal;font-size:4.23228px;font-family:Lato;-inkscape-font-specification:'Lato, Normal';font-variant-ligatures:normal;font-variant-caps:normal;font-variant-numeric:normal;font-variant-east-asian:normal;fill:#000000;stroke:none;stroke-width:0.264583;stroke-dasharray:none;stroke-opacity:1"
         x="100.72163"
         y="14.450379">A</tspan></text>
    <text
       xml:space="preserve"
       style="font-style:normal;font-variant:normal;font-weight:normal;font-stretch:normal;font-size:4.23228px;line-height:1.25;font-family:Lato;-inkscape-font-specification:'Lato, Normal';font-variant-ligatures:normal;font-variant-caps:normal;font-variant-numeric:normal;font-variant-east-asian:normal;fill:#000000;stroke:none;stroke-width:0.264583;stroke-linecap:round;stroke-linejoin:round;stroke-dasharray:none;stroke-opacity:1"
       x="241.81415"
       y="12.098089"
       id="text9485"
       transform="matrix(0.98402355,0,0,1.0153669,4.5028124e-4,0.00335214)"><tspan
         sodipodi:role="line"
         id="tspan9483"
         style="font-style:normal;font-variant:normal;font-weight:normal;font-stretch:normal;font-size:4.23228px;font-family:Lato;-inkscape-font-specification:'Lato, Normal';font-variant-ligatures:normal;font-variant-caps:normal;font-variant-numeric:normal;font-variant-east-asian:normal;fill:#000000;stroke:none;stroke-width:0.264583;stroke-dasharray:none;stroke-opacity:1"
         x="241.81415"
         y="12.098089">B</tspan></text>
  </g>
</svg>
