<?xml version="1.0" encoding="UTF-8" standalone="no"?>
<svg
   version="1.1"
   id="svg2"
   xml:space="preserve"
   width="220"
   height="450"
   viewBox="0 0 220 449.99997"
   sodipodi:docname="1.svg"
   inkscape:version="1.2.2 (732a01da63, 2022-12-09)"
   xmlns:inkscape="http://www.inkscape.org/namespaces/inkscape"
   xmlns:sodipodi="http://sodipodi.sourceforge.net/DTD/sodipodi-0.dtd"
   xmlns="http://www.w3.org/2000/svg"
   xmlns:svg="http://www.w3.org/2000/svg"
   xmlns:rdf="http://www.w3.org/1999/02/22-rdf-syntax-ns#"
   xmlns:cc="http://creativecommons.org/ns#"
   xmlns:dc="http://purl.org/dc/elements/1.1/"><metadata
     id="metadata8"><rdf:RDF><cc:Work
         rdf:about=""><dc:format>image/svg+xml</dc:format><dc:type
           rdf:resource="http://purl.org/dc/dcmitype/StillImage" /></cc:Work></rdf:RDF></metadata><defs
     id="defs6"><clipPath
       clipPathUnits="userSpaceOnUse"
       id="clipPath338"><path
         d="m 3603,2426.67 1,-1 v 1 z m -1,-2 v -697 l 48,4 24,4 20,5 24,8 2,1 3,1 4,2 3,1 4,2 3,1 12,6 1,1 6,3 1,1 6,3 1,1 6,3 1,1 6,3 1,1 6,3 1,1 2,1 1,1 2,1 1,1 2,1 2,2 2,1 1,1 2,1 1,1 2,1 2,2 2,1 2,2 2,1 3,3 2,1 3,3 2,1 3,3 2,1 21,21 1,2 4,4 1,2 4,4 1,2 1,1 1,2 1,1 1,2 1,1 1,2 1,1 1,2 1,1 1,2 1,1 1,2 1,1 1,2 2,2 1,2 1,1 1,2 1,1 1,2 2,2 1,2 1,1 1,2 1,1 1,2 1,1 2,4 1,1 2,4 1,1 2,4 1,1 2,4 1,1 3,6 1,1 3,6 1,1 12,24 1,3 2,4 1,3 1,2 1,3 1,2 1,3 1,2 1,3 7,28 1,5 1,4 2,10 1,12 1,13 2,24 2,22 1,10 1,14 h -1 v 4 h -1 v 5 h -1 v 4 h -1 v 5 h -1 v 4 h -1 v 3 h -1 v 2 h -1 v 2 h -1 v 2 h -1 v 2 h -1 v 2 h -1 v 2 h -1 v 2 h -1 v 2 h -1 v 2 h -1 v 2 h -1 v 2 h -1 v 2 h -1 v 2 h -1 v 2 h -1 v 3 h -1 v 2 h -1 v 2 h -1 v 2 h -1 v 2 h -1 v 2 h -1 v 3 h -1 v 2 h -1 v 2 h -1 v 2 h -1 v 2 h -1 v 2 h -1 v 2 h -1 v 2 h -1 v 2 l -1,1 h -1 v 2 l -1,1 h -1 v 2 l -1,1 h -1 v 2 l -1,1 h -1 v 2 h -1 v 2 l -1,1 h -1 v 2 l -1,1 h -1 v 2 l -1,1 h -1 v 2 l -1,1 h -1 v 2 l -3,3 h -1 v 2 l -3,3 h -1 v 2 l -3,3 h -1 v 2 l -3,3 h -1 v 2 l -3,3 h -1 v 2 l -15,15 -2,1 -10,10 -2,1 -10,10 -2,1 -2,2 -2,1 -2,2 -2,1 -2,2 -2,1 -2,2 -2,1 -2,2 -2,1 -2,2 -2,1 -2,2 -2,1 -2,2 -2,1 -2,2 -2,1 -2,2 -2,1 -2,2 -2,1 -2,2 -2,1 -1,1 -2,1 -1,1 -2,1 -1,1 -2,1 -1,1 -2,1 -1,1 -2,1 -1,1 -2,1 -1,1 -4,2 -1,1 -2,1 -1,1 -2,1 -1,1 -2,1 -1,1 -2,1 -1,1 -2,1 -1,1 -2,1 -1,1 -4,2 -1,1 -2,1 -1,1 -2,1 -1,1 -4,2 -1,1 -2,1 -1,1 -4,2 -1,1 -2,1 -1,1 -4,2 -1,1 -2,1 -1,1 -4,2 -1,1 -2,1 -1,1 -4,2 -1,1 -2,1 -1,1 -4,2 -1,1 -4,2 -1,1 -4,2 -1,1 -4,2 -1,1 -10,5 -3,1 -4,2 -3,1 -12,6 -15,5 -2,1 -6,2 -4,1 -3,1 -2,1 -6,1 z"
         clip-rule="evenodd"
         id="path336" /></clipPath><clipPath
       clipPathUnits="userSpaceOnUse"
       id="clipPath348"><path
         d="m 3599,2424.67 -10,-1 -4,-1 -4,-2 -18,-6 -8,-4 -1,-1 -2,-1 -1,-1 -4,-2 -1,-1 -8,-4 -1,-1 -20,-10 -1,-1 -18,-9 -1,-1 -20,-10 -1,-1 -2,-1 -1,-1 -4,-2 -1,-1 -4,-2 -1,-1 -2,-1 -1,-1 -4,-2 -1,-1 -4,-2 -1,-1 -4,-2 -1,-1 -2,-1 -1,-1 -4,-2 -1,-1 -4,-2 -1,-1 -4,-2 -2,-2 -2,-1 -1,-1 -2,-1 -1,-1 -2,-1 -1,-1 -2,-1 -2,-2 -2,-1 -1,-1 -2,-1 -1,-1 -2,-1 -1,-1 -2,-1 -1,-1 -2,-1 -2,-2 -2,-1 -1,-1 -2,-1 -1,-1 -2,-1 -1,-1 -2,-1 -1,-1 -2,-1 -6,-6 -2,-1 -5,-5 -2,-1 -5,-5 -2,-1 -5,-5 -2,-1 -5,-5 -2,-1 -1,-2 -12,-12 -1,-2 -13,-13 -1,-2 -4,-4 -1,-2 -4,-4 -1,-2 -4,-4 -1,-2 -4,-4 -1,-2 -5,-5 -1,-2 -1,-1 -1,-2 -1,-1 -1,-2 -2,-2 -1,-2 -1,-1 -1,-2 -2,-2 -1,-2 -1,-1 -1,-2 -1,-1 -1,-2 -2,-2 -1,-2 -1,-1 -1,-2 -2,-2 -2,-4 -1,-1 -1,-2 -1,-1 -2,-4 -1,-1 -1,-2 -1,-1 -2,-4 -1,-1 -1,-2 -1,-1 -2,-4 -1,-1 -1,-2 -1,-1 -1,-2 -1,-1 -4,-24 -1,-9 -2,-16 -1,-25 v -25 h 1 v -4 h 1 v -4 h 1 v -5 h 1 v -4 h 1 v -5 h 1 v -3 h 1 v -4 h 1 v -4 h 1 v -3 h 1 v -4 h 1 v -4 h 1 v -3 h 1 v -3 h 1 v -3 h 1 v -4 h 1 v -3 h 1 v -3 h 1 v -4 h 1 v -2 h 1 v -3 h 1 v -2 h 1 v -3 h 1 v -3 h 1 v -2 h 1 v -3 h 1 v -3 h 1 v -2 h 1 v -2 h 1 v -2 h 1 v -2 h 1 v -3 h 1 v -2 h 1 v -2 h 1 v -2 h 1 v -2 h 1 v -3 h 1 v -2 h 1 v -2 h 1 v -2 h 1 v -2 h 1 v -3 h 1 v -2 h 1 v -2 h 1 v -2 h 1 v -2 h 1 v -3 h 1 l 1,-1 v -2 h 1 v -2 h 1 l 1,-1 v -2 h 1 v -2 h 1 l 1,-1 v -2 h 1 v -2 h 1 l 1,-1 v -2 h 1 v -2 h 1 l 1,-1 v -2 h 1 l 1,-1 v -2 h 1 l 1,-1 v -2 h 1 l 1,-1 v -2 h 1 l 1,-1 v -2 h 1 l 1,-1 v -2 h 1 l 1,-1 v -2 h 1 l 4,-4 v -2 h 1 l 4,-4 v -2 h 1 l 4,-4 v -2 h 1 l 15,-15 v -2 h 2 l 7,-7 2,-1 7,-7 2,-1 7,-7 2,-1 7,-7 2,-1 2,-2 2,-1 3,-3 2,-1 3,-3 2,-1 3,-3 2,-1 1,-1 2,-1 1,-1 2,-1 2,-2 2,-1 1,-1 2,-1 1,-1 2,-1 2,-2 4,-2 1,-1 4,-2 1,-1 2,-1 1,-1 4,-2 1,-1 2,-1 1,-1 3,-1 8,-4 3,-1 8,-4 4,-1 6,-2 4,-1 9,-3 4,-1 6,-2 4,-1 9,-3 20,-5 3,-1 20,-4 4,-1 24,-3 24,-2 v 697 z"
         clip-rule="evenodd"
         id="path346" /></clipPath><clipPath
       clipPathUnits="userSpaceOnUse"
       id="clipPath358"><path
         d="m 3602,2423.67 v -694 l 32,1 16,2 24,4 20,5 24,8 2,1 6,2 2,1 3,1 2,1 3,1 2,1 3,1 2,1 3,1 8,4 3,1 14,7 1,1 6,3 1,1 6,3 1,1 4,2 1,1 2,1 1,1 2,1 1,1 2,1 1,1 2,1 1,1 2,1 1,1 2,1 2,2 2,1 3,3 2,1 3,3 2,1 3,3 2,1 7,7 2,1 7,7 2,1 20,20 1,2 4,4 1,2 4,4 1,2 2,2 1,2 2,2 1,2 2,2 1,2 2,2 1,2 2,2 1,2 1,1 1,2 1,1 1,2 1,1 1,2 1,1 1,2 1,1 1,2 1,1 14,28 1,3 1,2 1,3 1,2 1,3 1,2 10,30 6,24 2,16 1,9 1,13 1,51 h -1 v 13 h -1 v 7 h -1 v 6 h -1 v 7 h -1 v 6 h -1 v 4 h -1 v 4 h -1 v 3 h -1 v 4 h -1 v 3 h -1 v 4 h -1 v 3 h -1 v 4 h -1 v 3 h -1 v 3 h -1 v 3 h -1 v 4 h -1 v 3 h -1 v 3 h -1 v 3 h -1 v 3 h -1 v 2 h -1 v 3 h -1 v 2 h -1 v 2 h -1 v 3 h -1 v 2 h -1 v 2 h -1 v 3 h -1 v 2 h -1 v 2 h -1 v 2 h -1 v 2 h -1 v 2 h -1 v 2 h -1 v 2 h -1 v 2 h -1 v 2 h -1 v 2 h -1 v 2 h -1 v 2 h -1 v 2 h -1 v 2 l -1,1 h -1 v 2 l -1,1 h -1 v 2 l -1,1 h -1 v 2 l -1,1 h -1 v 2 l -1,1 h -1 v 2 l -1,1 h -1 v 2 l -1,1 h -1 v 2 l -1,1 h -1 v 2 l -1,1 h -1 v 2 l -2,2 h -1 v 2 l -2,2 h -1 v 2 l -2,2 h -1 v 2 l -2,2 h -1 v 2 l -2,2 h -1 v 2 l -2,2 h -1 v 2 l -9,9 h -1 v 2 l -37,37 -2,1 -6,6 -2,1 -5,5 -2,1 -2,2 -2,1 -2,2 -2,1 -2,2 -2,1 -2,2 -2,1 -2,2 -2,1 -2,2 -2,1 -1,1 -2,1 -1,1 -2,1 -1,1 -2,1 -1,1 -2,1 -1,1 -2,1 -1,1 -2,1 -1,1 -2,1 -1,1 -2,1 -1,1 -12,6 -1,1 -34,17 -3,1 -4,2 -3,1 -2,1 -3,1 -4,2 -3,1 -2,1 -27,9 -16,4 -3,1 -4,1 -3,1 -4,1 -11,1 -8,1 z"
         clip-rule="evenodd"
         id="path356" /></clipPath><clipPath
       clipPathUnits="userSpaceOnUse"
       id="clipPath368"><path
         d="m 3600,2423.67 -8,-1 -11,-1 -3,-1 -4,-1 -3,-1 -4,-1 -3,-1 -16,-4 -21,-7 -4,-2 -3,-1 -2,-1 -3,-1 -4,-2 -3,-1 -2,-1 -3,-1 -22,-11 -3,-1 -1,-1 -12,-6 -1,-1 -12,-6 -1,-1 -2,-1 -1,-1 -2,-1 -1,-1 -2,-1 -1,-1 -2,-1 -1,-1 -2,-1 -1,-1 -2,-1 -1,-1 -2,-1 -1,-1 -2,-1 -2,-2 -2,-1 -2,-2 -2,-1 -2,-2 -2,-1 -2,-2 -2,-1 -2,-2 -2,-1 -2,-2 -2,-1 -6,-6 -2,-1 -6,-6 -2,-1 -5,-5 -2,-1 -21,-21 -1,-2 -9,-9 -1,-2 -9,-9 -1,-2 -2,-2 -1,-2 -2,-2 -1,-2 -2,-2 -1,-2 -2,-2 -1,-2 -2,-2 -1,-2 -2,-2 -1,-2 -1,-1 -1,-2 -1,-1 -1,-2 -1,-1 -1,-2 -1,-1 -1,-2 -1,-1 -1,-2 -1,-1 -1,-2 -1,-1 -1,-2 -1,-1 -12,-24 -1,-1 -1,-3 -1,-2 -1,-3 -2,-4 -1,-3 -2,-4 -1,-3 -2,-4 -1,-4 -3,-9 -1,-4 -3,-9 -2,-8 -1,-3 -1,-4 -1,-3 -1,-4 -1,-3 -1,-7 -1,-6 -1,-7 -1,-6 -2,-26 v -27 h 1 v -13 h 1 v -13 h 1 v -8 h 1 v -8 h 1 v -9 h 1 v -4 h 1 v -4 h 1 v -4 h 1 v -4 h 1 v -4 h 1 v -4 h 1 v -3 h 1 v -3 h 1 v -3 h 1 v -3 h 1 v -3 h 1 v -3 h 1 v -3 h 1 v -3 h 1 v -2 h 1 v -3 h 1 v -2 h 1 v -3 h 1 v -2 h 1 v -3 h 1 v -2 h 1 v -3 h 1 v -3 h 1 v -2 h 1 v -2 h 1 v -2 h 1 v -2 h 1 v -2 h 1 v -2 h 1 v -2 h 1 v -2 h 1 v -2 h 1 v -2 h 1 v -2 h 1 l 1,-1 v -2 h 1 l 1,-1 v -2 h 1 l 1,-1 v -2 h 1 l 1,-1 v -2 h 1 l 1,-1 v -2 h 1 l 1,-1 v -2 h 1 v -2 h 1 l 2,-2 v -2 h 1 l 2,-2 v -2 h 1 l 2,-2 v -2 h 1 l 2,-2 v -2 h 1 l 2,-2 v -2 h 1 l 4,-4 v -2 h 1 l 4,-4 v -2 h 1 l 4,-4 v -2 h 2 l 16,-16 2,-1 7,-7 2,-1 7,-7 2,-1 2,-2 2,-1 3,-3 2,-1 3,-3 2,-1 3,-3 4,-2 1,-1 2,-1 1,-1 2,-1 1,-1 2,-1 1,-1 2,-1 1,-1 2,-1 1,-1 6,-3 1,-1 6,-3 1,-1 6,-3 1,-1 3,-1 8,-4 3,-1 8,-4 6,-2 2,-1 3,-1 2,-1 3,-1 2,-1 3,-1 2,-1 21,-7 2,-1 20,-5 3,-1 24,-4 16,-2 32,-1 v 694 z"
         clip-rule="evenodd"
         id="path366" /></clipPath><clipPath
       clipPathUnits="userSpaceOnUse"
       id="clipPath54"><path
         d="m 1239,5256.67 -1,-4 -4,-16 -1,-5 -4,-16 -1,-5 -5,-20 -1,-5 -4,-16 -1,-5 -4,-16 -1,-5 -5,-20 -1,-5 -4,-16 -1,-5 -5,-20 -1,-5 -4,-16 -1,-5 -4,-16 -1,-5 -5,-20 -1,-5 -4,-16 -1,-5 -4,-16 -1,-5 -5,-20 -1,-5 -4,-16 -1,-5 -5,-20 -1,-5 -4,-16 -1,-5 -4,-16 -1,-5 -5,-20 -1,-5 -4,-16 -1,-5 -4,-16 -1,-5 -5,-20 -1,-5 -4,-16 -1,-5 -5,-20 -1,-5 -4,-16 -1,-5 -4,-16 -1,-5 -5,-20 -1,-5 -4,-16 -1,-5 -4,-16 -1,-5 -5,-20 -1,-5 -4,-16 -1,-5 -5,-20 -1,-5 -4,-16 -1,-5 -4,-16 -1,-5 -5,-20 -1,-5 -4,-16 -1,-5 -4,-16 -1,-5 -5,-20 -1,-5 -4,-16 -1,-5 -5,-20 -1,-5 -4,-16 -1,-5 -4,-16 -1,-5 -5,-20 -1,-5 -4,-16 -1,-5 -4,-16 -1,-5 -5,-20 -1,-5 -4,-16 -1,-5 -5,-20 -1,-5 -4,-16 -1,-5 -4,-16 -1,-5 -5,-20 -1,-5 -4,-16 -1,-5 -4,-16 -1,-5 -5,-20 -1,-5 -4,-16 -1,-5 -5,-20 -1,-5 -4,-16 -1,-5 -4,-16 -1,-5 -5,-20 -1,-5 -4,-16 -1,-5 -4,-16 -1,-5 -5,-20 -1,-5 -4,-16 -1,-5 -5,-20 -1,-5 -4,-16 -1,-5 -4,-16 -1,-5 -5,-20 -1,-5 -4,-16 -1,-5 -4,-16 -1,-5 -5,-20 -1,-5 -4,-16 -1,-5 -5,-20 -1,-5 -4,-16 -1,-5 -4,-16 -1,-5 -5,-20 -1,-5 -4,-16 -1,-5 -4,-16 -1,-5 -5,-20 -1,-5 -4,-16 -1,-5 -5,-20 -1,-5 -4,-16 -1,-5 -4,-16 -1,-5 -5,-20 -1,-5 -4,-16 -1,-5 -4,-16 -1,-5 -5,-20 -1,-5 -4,-16 -1,-5 -5,-20 -1,-5 -4,-16 -1,-5 -4,-16 -1,-5 -5,-20 -1,-5 -4,-16 -1,-5 -4,-16 -1,-5 -5,-20 -1,-5 -4,-16 -1,-5 -5,-20 -1,-5 -4,-16 -1,-5 -4,-16 -1,-5 -5,-20 -1,-5 -4,-16 -1,-5 -4,-16 -1,-5 -5,-20 -1,-5 -4,-16 -1,-5 -5,-20 -1,-5 -4,-16 -1,-5 -4,-16 -1,-5 -5,-20 -1,-5 -4,-16 -1,-5 -4,-16 -1,-5 -5,-20 -1,-5 -4,-16 -1,-5 -5,-20 -1,-5 -4,-16 -1,-5 -4,-16 -1,-5 -5,-20 -1,-5 -4,-16 -1,-5 -4,-16 -1,-5 -5,-20 -1,-5 -4,-16 -1,-5 -5,-20 -1,-5 -4,-16 -1,-5 -4,-16 -1,-5 -5,-20 -1,-5 -4,-16 -1,-5 -4,-16 -1,-5 -5,-20 -1,-5 -4,-16 -1,-5 -4,-16 v -4 h 1375 v 4 h -1 v 4 h -1 v 4 h -1 v 4 h -1 v 4 h -1 v 5 h -1 v 4 h -1 v 4 h -1 v 4 h -1 v 4 h -1 v 5 h -1 v 4 h -1 v 4 h -1 v 4 h -1 v 4 h -1 v 4 h -1 v 5 h -1 v 4 h -1 v 4 h -1 v 4 h -1 v 4 h -1 v 5 h -1 v 4 h -1 v 4 h -1 v 4 h -1 v 4 h -1 v 5 h -1 v 4 h -1 v 4 h -1 v 4 h -1 v 4 h -1 v 4 h -1 v 5 h -1 v 4 h -1 v 4 h -1 v 4 h -1 v 4 h -1 v 5 h -1 v 4 h -1 v 4 h -1 v 4 h -1 v 4 h -1 v 4 h -1 v 5 h -1 v 4 h -1 v 4 h -1 v 4 h -1 v 4 h -1 v 5 h -1 v 4 h -1 v 4 h -1 v 4 h -1 v 4 h -1 v 5 h -1 v 4 h -1 v 4 h -1 v 4 h -1 v 4 h -1 v 4 h -1 v 5 h -1 v 4 h -1 v 4 h -1 v 4 h -1 v 4 h -1 v 5 h -1 v 4 h -1 v 4 h -1 v 4 h -1 v 4 h -1 v 5 h -1 v 4 h -1 v 4 h -1 v 4 h -1 v 4 h -1 v 4 h -1 v 5 h -1 v 4 h -1 v 4 h -1 v 4 h -1 v 4 h -1 v 5 h -1 v 4 h -1 v 4 h -1 v 4 h -1 v 4 h -1 v 4 h -1 v 5 h -1 v 4 h -1 v 4 h -1 v 4 h -1 v 4 h -1 v 5 h -1 v 4 h -1 v 4 h -1 v 4 h -1 v 4 h -1 v 5 h -1 v 4 h -1 v 4 h -1 v 4 h -1 v 4 h -1 v 4 h -1 v 5 h -1 v 4 h -1 v 4 h -1 v 4 h -1 v 4 h -1 v 5 h -1 v 4 h -1 v 4 h -1 v 4 h -1 v 4 h -1 v 5 h -1 v 4 h -1 v 4 h -1 v 4 h -1 v 4 h -1 v 4 h -1 v 5 h -1 v 4 h -1 v 4 h -1 v 4 h -1 v 4 h -1 v 5 h -1 v 4 h -1 v 4 h -1 v 4 h -1 v 4 h -1 v 4 h -1 v 5 h -1 v 4 h -1 v 4 h -1 v 4 h -1 v 4 h -1 v 5 h -1 v 4 h -1 v 4 h -1 v 4 h -1 v 4 h -1 v 5 h -1 v 4 h -1 v 4 h -1 v 4 h -1 v 4 h -1 v 4 h -1 v 5 h -1 v 4 h -1 v 4 h -1 v 4 h -1 v 4 h -1 v 5 h -1 v 4 h -1 v 4 h -1 v 4 h -1 v 4 h -1 v 5 h -1 v 4 h -1 v 4 h -1 v 4 h -1 v 4 h -1 v 4 h -1 v 5 h -1 v 4 h -1 v 4 h -1 v 4 h -1 v 4 h -1 v 5 h -1 v 4 h -1 v 4 h -1 v 4 h -1 v 4 h -1 v 4 h -1 v 5 h -1 v 4 h -1 v 4 h -1 v 4 h -1 v 4 h -1 v 5 h -1 v 4 h -1 v 4 h -1 v 4 h -1 v 4 h -1 v 5 h -1 v 4 h -1 v 4 h -1 v 4 h -1 v 4 h -1 v 4 h -1 v 5 h -1 v 4 h -1 v 4 h -1 v 4 h -1 v 4 h -1 v 5 h -1 v 4 h -1 v 4 h -1 v 4 h -1 v 4 h -1 v 5 h -1 v 4 h -1 v 4 h -1 v 4 h -1 v 4 h -1 v 4 h -1 v 5 h -1 v 4 h -1 v 4 h -1 v 4 h -1 v 4 h -1 v 5 h -1 v 4 h -1 v 4 h -1 v 4 h -1 v 4 h -1 v 4 h -1 v 5 h -1 v 4 h -1 v 4 h -1 v 4 h -1 v 4 h -1 v 5 h -1 v 4 h -1 v 4 h -1 v 4 h -1 v 4 h -1 v 5 h -1 v 4 h -1 v 4 h -1 v 4 h -1 v 4 h -1 v 4 h -1 v 5 h -1 v 4 h -1 v 4 h -1 v 4 h -1 v 4 h -1 v 5 h -1 v 4 h -1 v 4 h -1 v 4 h -1 v 4 h -1 v 5 h -1 v 4 h -1 v 4 h -1 v 4 h -1 v 4 h -1 v 4 h -1 v 5 h -1 v 4 h -1 v 4 h -1 v 4 h -1 v 4 h -1 v 5 h -1 v 4 h -1 v 4 h -1 v 4 h -1 v 4 h -1 v 4 h -1 v 5 h -1 v 4 h -1 v 4 h -1 v 4 h -1 v 4 h -1 v 5 h -1 v 4 h -1 v 4 h -1 v 4 h -1 v 4 h -1 v 5 h -1 v 4 h -1 v 4 h -1 v 4 h -1 v 4 h -1 v 4 h -1 v 5 h -1 v 4 h -1 v 4 h -1 v 4 h -1 v 4 h -1 v 5 h -1 v 4 h -1 v 4 h -1 v 4 h -1 v 4 h -1 v 5 h -1 v 4 h -1 v 4 h -1 v 4 h -1 v 4 h -1 v 4 h -1 v 5 h -1 v 4 h -1 v 4 h -1 v 4 h -1 v 4 h -1 v 5 h -1 v 4 h -1 v 4 h -1 v 4 h -1 v 4 h -1 v 4 h -1 v 5 h -1 v 4 h -1 v 4 h -1 v 4 h -1 v 4 h -1 v 5 h -1 v 4 h -1 v 4 h -1 v 4 h -1 v 4 h -1 v 5 h -1 v 4 h -1 v 4 h -1 v 4 h -1 v 4 h -1 v 4 h -1 v 5 h -1 v 4 h -1 v 4 h -1 v 4 h -1 v 4 h -1 v 5 h -1 v 4 h -1 v 4 h -1 v 4 h -1 v 4 h -1 v 5 h -1 v 4 h -1 v 4 h -1 v 4 h -1 v 4 h -1 v 4 h -1 v 5 h -1 v 4 h -1 v 4 h -1 v 4 h -1 v 4 h -1 v 5 h -1 v 4 h -1 v 4 h -1 v 4 h -1 v 4 h -1 v 4 h -1 v 5 h -1 v 4 h -1 v 4 h -1 v 4 h -1 v 4 h -1 v 5 h -1 v 4 h -1 v 4 h -1 v 4 h -1 v 4 h -1 v 5 h -1 v 4 h -1 v 4 h -1 v 4 h -1 v 4 h -1 v 4 h -1 v 5 h -1 v 4 h -1 v 4 h -1 v 4 h -1 v 4 h -1 v 5 h -1 v 4 h -1 v 4 h -1 v 4 h -1 v 4 h -1 v 5 h -1 v 4 h -1 v 4 h -1 v 4 h -1 v 4 h -1 v 4 h -1 v 5 h -1 v 4 h -1 v 4 h -1 v 4 h -1 v 4 h -1 v 5 h -1 v 4 h -1 v 4 h -1 v 4 h -1 v 4 h -1 v 4 h -1 v 5 h -1 v 4 h -1 v 4 h -1 v 4 h -1 v 4 h -1 v 5 h -1 v 4 h -1 v 4 h -1 v 4 h -1 v 4 h -1 v 5 h -1 v 4 h -1 v 4 h -1 v 4 h -1 v 4 h -1 v 4 h -1 v 5 h -1 v 4 h -1 v 4 h -1 v 4 h -1 v 4 h -1 v 5 h -1 v 4 h -1 v 4 h -1 v 4 h -1 v 4 h -1 v 5 h -1 v 4 h -1 v 4 h -1 v 4 h -1 v 4 h -1 v 4 h -1 v 5 h -1 v 4 h -1 v 4 h -1 v 4 h -1 v 4 h -1 v 5 h -1 v 4 h -1 v 4 h -1 v 4 h -1 v 4 h -1 v 4 h -1 v 5 h -1 v 4 h -1 v 4 h -1 v 4 h -1 v 4 h -1 v 5 h -1 v 4 h -1 v 4 h -1 v 4 h -1 v 4 h -1 v 5 h -1 v 4 h -1 v 4 h -1 v 4 h -1 v 4 h -1 v 4 h -1 v 5 h -1 v 4 h -1 v 4 h -1 v 4 h -1 v 4 h -1 v 5 h -1 v 4 h -1 v 4 h -1 v 4 h -1 v 4 h -1 v 5 h -1 v 4 h -1 v 4 h -1 v 4 h -1 v 4 h -1 v 4 h -1 v 5 h -1 v 4 h -1 v 4 h -1 v 4 h -1 v 4 h -1 v 5 h -1 v 4 h -1 v 4 h -1 v 4 h -1 v 4 h -1 v 4 h -1 v 5 h -1 v 4 h -1 v 4 h -1 v 4 h -1 v 4 h -1 v 5 h -1 v 4 h -1 v 4 h -1 v 4 h -1 v 4 h -1 v 5 h -1 v 4 h -1 v 4 h -1 v 4 h -1 v 4 h -1 v 4 h -1 v 5 h -1 v 4 h -1 v 4 h -1 v 4 h -1 v 4 h -1 v 5 h -1 v 4 h -1 v 4 h -1 v 4 h -1 v 4 h -1 v 5 h -1 v 4 h -1 v 4 h -1 v 4 h -1 v 4 h -1 v 4 h -1 v 5 h -1 v 4 h -1 v 4 h -1 v 4 h -1 v 4 h -1 v 5 h -1 v 4 h -1 v 4 h -1 v 4 h -1 v 4 h -1 v 4 h -1 v 5 h -1 v 4 h -1 v 4 h -1 v 4 h -1 v 4 h -1 v 5 h -1 v 4 h -1 v 4 h -1 v 4 h -1 v 4 h -1 v 5 h -1 v 4 h -1 v 4 h -1 v 4 h -1 v 4 h -1 v 4 h -1 v 5 h -1 v 4 h -1 v 4 h -1 v 4 h -1 v 4 h -1 v 5 h -1 v 4 h -1 v 4 h -1 v 4 h -1 v 4 h -1 v 5 h -1 v 4 h -1 v 4 h -1 v 4 h -1 v 4 h -1 v 4 h -1 v 5 h -1 v 4 h -1 v 4 h -1 v 4 h -1 v 4 h -1 v 5 h -1 v 4 h -1 v 4 h -1 v 4 h -1 v 4 h -1 v 4 h -1 v 5 h -1 v 4 h -1 v 4 h -1 v 4 h -1 v 4 h -1 v 5 h -1 v 4 h -1 v 4 h -1 v 4 h -1 v 4 h -1 v 5 h -1 v 4 h -1 v 4 h -1 v 4 h -1 v 4 h -1 v 4 h -1 v 5 h -1 v 4 h -1 v 4 h -1 v 4 h -1 v 4 h -1 v 5 h -1 v 4 h -1 v 4 h -1 v 4 h -1 v 4 h -1 v 5 h -1 v 4 h -1 v 4 h -1 v 4 h -1 v 4 h -1 v 4 h -1 v 5 h -1 v 4 h -1 v 4 h -1 v 4 h -1 v 4 h -1 v 5 h -1 v 4 h -1 v 4 h -1 v 4 h -1 v 4 h -1 v 4 h -1 v 5 h -1 v 4 h -1 v 4 h -1 v 4 h -1 v 4 h -1 v 5 h -1 v 4 h -1 v 4 h -1 v 4 h -1 v 4 h -1 v 5 h -1 v 4 h -1 v 4 h -1 v 4 h -1 v 4 h -1 v 4 h -1 v 5 h -1 v 4 h -1 v 4 h -1 v 4 h -1 v 4 h -1 v 5 h -1 v 4 h -1 v 4 h -1 v 4 h -1 v 4 h -1 v 5 h -1 v 4 h -1 v 4 h -1 v 4 h -1 v 4 h -1 v 4 h -1 v 5 h -1 v 4 h -1 v 4 h -1 v 4 h -1 v 4 h -1 v 5 h -1 v 4 h -1 v 4 h -1 v 4 h -1 v 4 h -1 v 4 h -1 v 5 h -1 v 4 h -1 v 4 h -1 v 4 h -1 v 4 h -1 v 5 h -1 v 4 h -1 v 4 h -1 v 4 h -1 v 4 h -1 v 5 h -1 v 4 h -1 v 4 h -1 v 4 h -1 v 4 h -1 v 4 h -1 v 5 h -1 v 4 h -1 v 4 h -1 v 4 h -1 v 4 h -1 v 5 h -1 v 4 h -1 v 4 h -1 v 4 h -1 v 4 h -1 v 5 h -1 v 4 h -1 v 4 h -1 v 4 h -1 v 4 h -1 v 4 h -1 v 5 h -1 v 4 h -1 v 4 h -1 v 4 h -1 v 4 h -1 v 5 h -1 v 4 h -1 v 4 h -1 v 4 h -1 v 4 h -1 v 4 z"
         clip-rule="evenodd"
         id="path52" /></clipPath><clipPath
       clipPathUnits="userSpaceOnUse"
       id="clipPath64"><path
         d="m 1207,2491.67 -66,-1 -39,-1 -24,-1 -46,-2 -17,-1 -16,-1 -17,-1 -15,-1 -13,-1 -12,-1 -26,-2 -11,-1 -50,-5 -8,-1 -18,-2 -7,-1 -16,-2 -35,-5 -12,-2 -7,-1 -6,-1 -5,-1 -12,-2 -10,-2 -6,-1 -10,-2 -4,-1 -10,-2 -4,-1 -5,-1 -8,-2 -5,-1 -3,-1 -16,-4 -3,-1 -4,-1 -3,-1 -4,-1 -21,-7 -2,-1 -6,-2 -2,-1 -3,-1 -2,-1 -3,-1 -18,-9 -1,-1 -4,-2 -2,-2 -2,-1 -1,-1 -2,-1 -8,-8 -1,-2 -1,-1 -3,-6 -1,-5 v -3 h 1 v -5 h 1 v -2 h 1 v -2 h 1 v -2 h 1 l 1,-1 v -2 h 1 l 7,-7 2,-1 1,-1 2,-1 2,-2 4,-2 1,-1 18,-9 3,-1 2,-1 3,-1 2,-1 6,-2 2,-1 21,-7 4,-1 3,-1 4,-1 3,-1 16,-4 3,-1 5,-1 8,-2 5,-1 4,-1 10,-2 4,-1 10,-2 6,-1 10,-2 12,-2 5,-1 6,-1 7,-1 12,-2 35,-5 16,-2 7,-1 18,-2 8,-1 50,-5 11,-1 26,-2 12,-1 13,-1 15,-1 17,-1 16,-1 17,-1 46,-2 24,-1 39,-1 66,-1 63,-1 v 1 l 66,1 39,1 24,1 46,2 34,2 32,2 12,1 13,1 12,1 13,1 11,1 50,5 8,1 18,2 7,1 16,2 35,5 12,2 7,1 6,1 5,1 12,2 10,2 6,1 10,2 4,1 10,2 4,1 5,1 8,2 5,1 3,1 16,4 3,1 4,1 3,1 4,1 21,7 2,1 6,2 2,1 3,1 2,1 3,1 16,8 1,1 6,3 2,2 2,1 1,1 2,1 7,7 1,2 1,1 3,6 1,5 1,3 h -1 v 5 h -1 v 2 h -1 v 2 h -1 v 2 l -1,1 h -1 v 2 l -8,8 -2,1 -1,1 -2,1 -2,2 -6,3 -1,1 -16,8 -3,1 -2,1 -3,1 -2,1 -6,2 -2,1 -21,7 -4,1 -3,1 -4,1 -3,1 -16,4 -3,1 -5,1 -8,2 -5,1 -4,1 -10,2 -4,1 -10,2 -6,1 -10,2 -12,2 -5,1 -6,1 -7,1 -12,2 -35,5 -16,2 -7,1 -18,2 -8,1 -50,5 -11,1 -13,1 -12,1 -13,1 -12,1 -32,2 -34,2 -46,2 -24,1 -39,1 -66,1 z"
         clip-rule="evenodd"
         id="path62" /></clipPath><clipPath
       clipPathUnits="userSpaceOnUse"
       id="clipPath86"><path
         d="m 1222,4754.67 -26,-1 -14,-1 -12,-1 -16,-2 -6,-1 -15,-3 -3,-1 -4,-1 -2,-1 -3,-1 -1,-1 -2,-1 -2,-2 -1,-2 1,-1 v -2 h 1 l 1,-1 2,-1 1,-1 3,-1 2,-1 4,-1 3,-1 15,-3 6,-1 16,-2 12,-1 14,-1 26,-1 33,-1 v 1 l 26,1 14,1 12,1 16,2 6,1 15,3 3,1 4,1 2,1 3,1 1,1 2,1 1,1 1,2 1,1 h -1 v 2 l -2,2 -2,1 -1,1 -3,1 -2,1 -4,1 -3,1 -15,3 -6,1 -16,2 -12,1 -14,1 -26,1 z"
         clip-rule="evenodd"
         id="path84" /></clipPath><clipPath
       clipPathUnits="userSpaceOnUse"
       id="clipPath108"><path
         d="m 1223,4503.67 -35,-1 -20,-1 -13,-1 -11,-1 -10,-1 -16,-2 -7,-1 -12,-2 -10,-2 -16,-4 -2,-1 -6,-2 -6,-3 -1,-1 -2,-1 -3,-3 -1,-3 1,-1 v -3 h 1 l 2,-2 2,-1 1,-1 6,-3 6,-2 2,-1 16,-4 10,-2 12,-2 7,-1 16,-2 10,-1 11,-1 13,-1 20,-1 35,-1 31,-1 v 1 l 35,1 20,1 13,1 11,1 10,1 16,2 7,1 12,2 10,2 16,4 2,1 6,2 6,3 1,1 2,1 2,2 1,3 1,1 h -1 v 3 l -3,3 -2,1 -1,1 -6,3 -6,2 -2,1 -16,4 -10,2 -12,2 -7,1 -16,2 -10,1 -11,1 -13,1 -20,1 -35,1 z"
         clip-rule="evenodd"
         id="path106" /></clipPath><clipPath
       clipPathUnits="userSpaceOnUse"
       id="clipPath130"><path
         d="m 1223,4251.67 -45,-1 -21,-1 -16,-1 -13,-1 -12,-1 -20,-2 -16,-2 -14,-2 -12,-2 -20,-4 -12,-3 -15,-5 -10,-5 -1,-1 -2,-1 -3,-3 -1,-2 -1,-3 1,-1 v -3 h 1 v -2 h 1 l 2,-2 2,-1 1,-1 10,-5 15,-5 12,-3 20,-4 12,-2 14,-2 16,-2 20,-2 12,-1 13,-1 16,-1 21,-1 45,-1 31,-1 v 1 l 45,1 21,1 16,1 13,1 12,1 20,2 16,2 14,2 12,2 20,4 12,3 15,5 10,5 1,1 2,1 2,2 1,2 1,3 1,1 h -1 v 3 h -1 v 2 l -3,3 -2,1 -1,1 -10,5 -15,5 -12,3 -20,4 -12,2 -14,2 -16,2 -20,2 -12,1 -13,1 -16,1 -21,1 -45,1 z"
         clip-rule="evenodd"
         id="path128" /></clipPath><clipPath
       clipPathUnits="userSpaceOnUse"
       id="clipPath152"><path
         d="m 1207,4000.67 -36,-1 -24,-1 -32,-2 -26,-2 -20,-2 -9,-1 -16,-2 -14,-2 -6,-1 -7,-1 -5,-1 -6,-1 -15,-3 -4,-1 -5,-1 -8,-2 -3,-1 -4,-1 -15,-5 -2,-1 -3,-1 -8,-4 -1,-1 -2,-1 -1,-1 -2,-1 -3,-3 -1,-2 -1,-1 -1,-4 1,-1 v -4 h 1 l 1,-1 v -2 h 1 l 2,-2 2,-1 1,-1 2,-1 1,-1 8,-4 3,-1 2,-1 15,-5 4,-1 3,-1 8,-2 5,-1 4,-1 15,-3 6,-1 5,-1 6,-1 21,-3 16,-2 9,-1 20,-2 26,-2 32,-2 24,-1 36,-1 63,-1 v 1 l 36,1 24,1 32,2 26,2 20,2 9,1 16,2 21,3 6,1 5,1 6,1 15,3 4,1 5,1 8,2 3,1 4,1 15,5 2,1 3,1 8,4 1,1 2,1 1,1 2,1 2,2 1,2 1,1 1,4 1,1 h -1 v 4 l -1,1 h -1 v 2 l -3,3 -2,1 -1,1 -2,1 -1,1 -8,4 -3,1 -2,1 -15,5 -4,1 -3,1 -8,2 -5,1 -4,1 -15,3 -6,1 -5,1 -7,1 -6,1 -14,2 -16,2 -9,1 -20,2 -26,2 -32,2 -24,1 -36,1 z"
         clip-rule="evenodd"
         id="path150" /></clipPath><clipPath
       clipPathUnits="userSpaceOnUse"
       id="clipPath174"><path
         d="m 1208,3749.67 -45,-1 -24,-1 -20,-1 -17,-1 -15,-1 -13,-1 -12,-1 -11,-1 -20,-2 -32,-4 -14,-2 -6,-1 -7,-1 -5,-1 -6,-1 -5,-1 -6,-1 -5,-1 -4,-1 -5,-1 -4,-1 -5,-1 -3,-1 -12,-3 -18,-6 -4,-2 -3,-1 -8,-4 -1,-1 -2,-1 -1,-1 -2,-1 -7,-7 -1,-2 -1,-4 1,-1 v -4 h 1 v -2 h 1 l 6,-6 2,-1 1,-1 2,-1 1,-1 8,-4 3,-1 4,-2 18,-6 12,-3 3,-1 5,-1 4,-1 5,-1 4,-1 5,-1 6,-1 5,-1 6,-1 5,-1 7,-1 6,-1 14,-2 32,-4 20,-2 11,-1 12,-1 13,-1 15,-1 17,-1 20,-1 24,-1 45,-1 61,-1 v 1 l 45,1 24,1 20,1 17,1 15,1 13,1 12,1 11,1 20,2 32,4 21,3 6,1 5,1 6,1 5,1 6,1 5,1 4,1 5,1 4,1 5,1 3,1 12,3 18,6 4,2 3,1 8,4 1,1 2,1 1,1 2,1 6,6 1,2 1,4 1,1 h -1 v 4 h -1 v 2 l -7,7 -2,1 -1,1 -2,1 -1,1 -8,4 -3,1 -4,2 -18,6 -12,3 -3,1 -5,1 -4,1 -5,1 -4,1 -5,1 -6,1 -5,1 -6,1 -5,1 -6,1 -21,3 -32,4 -20,2 -11,1 -12,1 -13,1 -15,1 -17,1 -20,1 -24,1 -45,1 z"
         clip-rule="evenodd"
         id="path172" /></clipPath><clipPath
       clipPathUnits="userSpaceOnUse"
       id="clipPath196"><path
         d="m 1209,3497.67 -51,-1 -27,-1 -23,-1 -17,-1 -16,-1 -14,-1 -26,-2 -11,-1 -30,-3 -32,-4 -28,-4 -12,-2 -5,-1 -6,-1 -5,-1 -6,-1 -4,-1 -5,-1 -4,-1 -5,-1 -16,-4 -3,-1 -8,-2 -18,-6 -4,-2 -3,-1 -14,-7 -1,-1 -2,-1 -4,-4 -2,-1 -1,-2 -2,-2 -1,-2 -1,-4 v -3 h 1 v -4 h 1 v -2 h 1 l 2,-2 v -2 h 2 l 4,-4 2,-1 1,-1 14,-7 3,-1 4,-2 18,-6 8,-2 3,-1 16,-4 5,-1 4,-1 5,-1 4,-1 6,-1 5,-1 6,-1 5,-1 12,-2 28,-4 32,-4 30,-3 11,-1 26,-2 14,-1 16,-1 17,-1 23,-1 27,-1 51,-1 59,-1 v 1 l 51,1 27,1 23,1 17,1 16,1 14,1 26,2 11,1 30,3 32,4 28,4 12,2 5,1 6,1 5,1 6,1 4,1 5,1 4,1 5,1 16,4 3,1 8,2 18,6 4,2 3,1 14,7 1,1 2,1 4,4 h 2 v 2 l 2,2 1,2 1,4 1,3 h -1 v 4 h -1 v 2 l -2,2 h -1 v 2 l -2,1 -4,4 -2,1 -1,1 -14,7 -3,1 -4,2 -18,6 -8,2 -3,1 -16,4 -5,1 -4,1 -5,1 -4,1 -6,1 -5,1 -6,1 -5,1 -12,2 -14,2 -6,1 -7,1 -8,1 -9,1 -16,2 -30,3 -11,1 -26,2 -14,1 -16,1 -17,1 -23,1 -27,1 -51,1 z"
         clip-rule="evenodd"
         id="path194" /></clipPath><clipPath
       clipPathUnits="userSpaceOnUse"
       id="clipPath218"><path
         d="m 1209,3246.67 -54,-1 -31,-1 -24,-1 -19,-1 -16,-1 -17,-1 -39,-3 -12,-1 -30,-3 -9,-1 -24,-3 -9,-1 -14,-2 -6,-1 -14,-2 -12,-2 -5,-1 -6,-1 -5,-1 -6,-1 -10,-2 -4,-1 -5,-1 -4,-1 -5,-1 -12,-3 -3,-1 -8,-2 -3,-1 -4,-1 -21,-7 -4,-2 -3,-1 -14,-7 -1,-1 -2,-1 -1,-1 -2,-1 -9,-9 -2,-4 -1,-4 v -3 h 1 v -4 h 1 v -2 h 1 v -2 h 1 l 8,-8 2,-1 1,-1 2,-1 1,-1 14,-7 3,-1 4,-2 21,-7 4,-1 3,-1 8,-2 3,-1 12,-3 5,-1 4,-1 5,-1 4,-1 10,-2 6,-1 5,-1 6,-1 5,-1 12,-2 14,-2 6,-1 14,-2 9,-1 24,-3 9,-1 30,-3 12,-1 39,-3 17,-1 16,-1 19,-1 24,-1 31,-1 54,-1 59,-1 v 1 l 54,1 31,1 24,1 19,1 16,1 17,1 39,3 12,1 30,3 9,1 24,3 9,1 14,2 6,1 14,2 12,2 5,1 6,1 5,1 6,1 10,2 4,1 5,1 4,1 5,1 12,3 3,1 8,2 3,1 4,1 18,6 2,1 3,1 2,1 3,1 14,7 1,1 2,1 1,1 2,1 8,8 2,4 1,4 1,3 h -1 v 4 h -1 v 2 h -1 v 2 l -9,9 -2,1 -1,1 -2,1 -1,1 -14,7 -3,1 -2,1 -3,1 -2,1 -18,6 -4,1 -3,1 -8,2 -3,1 -12,3 -5,1 -4,1 -5,1 -4,1 -10,2 -6,1 -5,1 -6,1 -5,1 -12,2 -14,2 -6,1 -14,2 -9,1 -24,3 -9,1 -30,3 -12,1 -39,3 -17,1 -16,1 -19,1 -24,1 -31,1 -54,1 z"
         clip-rule="evenodd"
         id="path216" /></clipPath><clipPath
       clipPathUnits="userSpaceOnUse"
       id="clipPath240"><path
         d="m 1210,2994.67 -59,-1 -35,-1 -24,-1 -23,-1 -16,-1 -17,-1 -16,-1 -13,-1 -12,-1 -13,-1 -12,-1 -40,-4 -18,-2 -32,-4 -6,-1 -21,-3 -6,-1 -7,-1 -5,-1 -6,-1 -5,-1 -6,-1 -5,-1 -6,-1 -10,-2 -4,-1 -5,-1 -4,-1 -5,-1 -20,-5 -3,-1 -4,-1 -3,-1 -4,-1 -21,-7 -2,-1 -3,-1 -2,-1 -3,-1 -16,-8 -1,-1 -4,-2 -2,-2 -2,-1 -8,-8 -1,-2 -1,-1 -1,-3 -1,-4 v -3 h 1 v -4 h 1 v -3 h 1 l 1,-1 v -2 h 1 l 7,-7 2,-1 2,-2 4,-2 1,-1 16,-8 3,-1 2,-1 3,-1 2,-1 21,-7 4,-1 3,-1 4,-1 3,-1 20,-5 5,-1 4,-1 5,-1 4,-1 10,-2 6,-1 5,-1 6,-1 5,-1 6,-1 5,-1 7,-1 6,-1 21,-3 6,-1 32,-4 18,-2 40,-4 12,-1 13,-1 12,-1 13,-1 51,-3 22,-1 24,-1 34,-1 59,-1 57,-1 v 1 l 59,1 35,1 24,1 22,1 17,1 16,1 17,1 13,1 12,1 13,1 12,1 40,4 18,2 32,4 6,1 21,3 6,1 7,1 5,1 6,1 5,1 6,1 5,1 6,1 10,2 4,1 5,1 4,1 5,1 20,5 3,1 4,1 3,1 4,1 21,7 2,1 3,1 2,1 3,1 16,8 1,1 4,2 2,2 2,1 7,7 1,2 1,1 1,3 1,4 1,3 h -1 v 4 h -1 v 3 l -1,1 h -1 v 2 l -8,8 -2,1 -2,2 -4,2 -1,1 -16,8 -3,1 -2,1 -3,1 -2,1 -21,7 -4,1 -3,1 -4,1 -3,1 -20,5 -5,1 -4,1 -5,1 -4,1 -10,2 -6,1 -5,1 -6,1 -5,1 -6,1 -5,1 -7,1 -6,1 -21,3 -6,1 -32,4 -18,2 -40,4 -12,1 -13,1 -12,1 -13,1 -17,1 -16,1 -17,1 -22,1 -24,1 -34,1 -56,1 z"
         clip-rule="evenodd"
         id="path238" /></clipPath><clipPath
       clipPathUnits="userSpaceOnUse"
       id="clipPath262"><path
         d="m 1210,2743.67 -63,-1 -37,-1 -48,-2 -19,-1 -17,-1 -32,-2 -13,-1 -12,-1 -26,-2 -50,-5 -9,-1 -40,-5 -28,-4 -6,-1 -7,-1 -18,-3 -5,-1 -6,-1 -10,-2 -6,-1 -4,-1 -15,-3 -8,-2 -5,-1 -16,-4 -3,-1 -8,-2 -3,-1 -4,-1 -24,-8 -2,-1 -6,-2 -4,-2 -3,-1 -14,-7 -1,-1 -4,-2 -1,-1 -2,-1 -2,-2 -2,-1 -8,-8 -1,-2 -1,-1 -2,-4 -1,-5 v -3 h 1 v -5 h 1 v -2 h 1 v -2 h 1 l 1,-1 v -2 h 1 l 7,-7 2,-1 2,-2 2,-1 1,-1 4,-2 1,-1 14,-7 3,-1 4,-2 6,-2 2,-1 24,-8 4,-1 3,-1 8,-2 3,-1 16,-4 5,-1 8,-2 15,-3 4,-1 6,-1 10,-2 6,-1 5,-1 18,-3 7,-1 6,-1 28,-4 40,-5 9,-1 50,-5 26,-2 12,-1 13,-1 32,-2 17,-1 19,-1 48,-2 37,-1 63,-1 57,-1 v 1 l 63,1 37,1 48,2 19,1 17,1 32,2 13,1 12,1 26,2 50,5 9,1 40,5 28,4 6,1 7,1 18,3 5,1 6,1 10,2 6,1 4,1 15,3 8,2 5,1 16,4 3,1 8,2 3,1 4,1 24,8 2,1 6,2 4,2 3,1 14,7 1,1 4,2 1,1 2,1 2,2 2,1 7,7 1,2 1,1 2,4 1,5 1,3 h -1 v 5 h -1 v 2 h -1 v 2 l -1,1 h -1 v 2 l -8,8 -2,1 -2,2 -2,1 -1,1 -4,2 -1,1 -14,7 -3,1 -4,2 -6,2 -2,1 -24,8 -4,1 -3,1 -8,2 -3,1 -16,4 -5,1 -8,2 -15,3 -4,1 -6,1 -10,2 -6,1 -5,1 -18,3 -7,1 -6,1 -28,4 -40,5 -9,1 -50,5 -26,2 -12,1 -13,1 -32,2 -17,1 -19,1 -48,2 -37,1 -63,1 z"
         clip-rule="evenodd"
         id="path260" /></clipPath><clipPath
       clipPathUnits="userSpaceOnUse"
       id="clipPath54-0"><path
         d="m 1239,5256.67 -1,-4 -4,-16 -1,-5 -4,-16 -1,-5 -5,-20 -1,-5 -4,-16 -1,-5 -4,-16 -1,-5 -5,-20 -1,-5 -4,-16 -1,-5 -5,-20 -1,-5 -4,-16 -1,-5 -4,-16 -1,-5 -5,-20 -1,-5 -4,-16 -1,-5 -4,-16 -1,-5 -5,-20 -1,-5 -4,-16 -1,-5 -5,-20 -1,-5 -4,-16 -1,-5 -4,-16 -1,-5 -5,-20 -1,-5 -4,-16 -1,-5 -4,-16 -1,-5 -5,-20 -1,-5 -4,-16 -1,-5 -5,-20 -1,-5 -4,-16 -1,-5 -4,-16 -1,-5 -5,-20 -1,-5 -4,-16 -1,-5 -4,-16 -1,-5 -5,-20 -1,-5 -4,-16 -1,-5 -5,-20 -1,-5 -4,-16 -1,-5 -4,-16 -1,-5 -5,-20 -1,-5 -4,-16 -1,-5 -4,-16 -1,-5 -5,-20 -1,-5 -4,-16 -1,-5 -5,-20 -1,-5 -4,-16 -1,-5 -4,-16 -1,-5 -5,-20 -1,-5 -4,-16 -1,-5 -4,-16 -1,-5 -5,-20 -1,-5 -4,-16 -1,-5 -5,-20 -1,-5 -4,-16 -1,-5 -4,-16 -1,-5 -5,-20 -1,-5 -4,-16 -1,-5 -4,-16 -1,-5 -5,-20 -1,-5 -4,-16 -1,-5 -5,-20 -1,-5 -4,-16 -1,-5 -4,-16 -1,-5 -5,-20 -1,-5 -4,-16 -1,-5 -4,-16 -1,-5 -5,-20 -1,-5 -4,-16 -1,-5 -5,-20 -1,-5 -4,-16 -1,-5 -4,-16 -1,-5 -5,-20 -1,-5 -4,-16 -1,-5 -4,-16 -1,-5 -5,-20 -1,-5 -4,-16 -1,-5 -5,-20 -1,-5 -4,-16 -1,-5 -4,-16 -1,-5 -5,-20 -1,-5 -4,-16 -1,-5 -4,-16 -1,-5 -5,-20 -1,-5 -4,-16 -1,-5 -5,-20 -1,-5 -4,-16 -1,-5 -4,-16 -1,-5 -5,-20 -1,-5 -4,-16 -1,-5 -4,-16 -1,-5 -5,-20 -1,-5 -4,-16 -1,-5 -5,-20 -1,-5 -4,-16 -1,-5 -4,-16 -1,-5 -5,-20 -1,-5 -4,-16 -1,-5 -4,-16 -1,-5 -5,-20 -1,-5 -4,-16 -1,-5 -5,-20 -1,-5 -4,-16 -1,-5 -4,-16 -1,-5 -5,-20 -1,-5 -4,-16 -1,-5 -4,-16 -1,-5 -5,-20 -1,-5 -4,-16 -1,-5 -5,-20 -1,-5 -4,-16 -1,-5 -4,-16 -1,-5 -5,-20 -1,-5 -4,-16 -1,-5 -4,-16 -1,-5 -5,-20 -1,-5 -4,-16 -1,-5 -5,-20 -1,-5 -4,-16 -1,-5 -4,-16 -1,-5 -5,-20 -1,-5 -4,-16 -1,-5 -4,-16 -1,-5 -5,-20 -1,-5 -4,-16 -1,-5 -5,-20 -1,-5 -4,-16 -1,-5 -4,-16 -1,-5 -5,-20 -1,-5 -4,-16 -1,-5 -4,-16 -1,-5 -5,-20 -1,-5 -4,-16 -1,-5 -4,-16 v -4 h 1375 v 4 h -1 v 4 h -1 v 4 h -1 v 4 h -1 v 4 h -1 v 5 h -1 v 4 h -1 v 4 h -1 v 4 h -1 v 4 h -1 v 5 h -1 v 4 h -1 v 4 h -1 v 4 h -1 v 4 h -1 v 4 h -1 v 5 h -1 v 4 h -1 v 4 h -1 v 4 h -1 v 4 h -1 v 5 h -1 v 4 h -1 v 4 h -1 v 4 h -1 v 4 h -1 v 5 h -1 v 4 h -1 v 4 h -1 v 4 h -1 v 4 h -1 v 4 h -1 v 5 h -1 v 4 h -1 v 4 h -1 v 4 h -1 v 4 h -1 v 5 h -1 v 4 h -1 v 4 h -1 v 4 h -1 v 4 h -1 v 4 h -1 v 5 h -1 v 4 h -1 v 4 h -1 v 4 h -1 v 4 h -1 v 5 h -1 v 4 h -1 v 4 h -1 v 4 h -1 v 4 h -1 v 5 h -1 v 4 h -1 v 4 h -1 v 4 h -1 v 4 h -1 v 4 h -1 v 5 h -1 v 4 h -1 v 4 h -1 v 4 h -1 v 4 h -1 v 5 h -1 v 4 h -1 v 4 h -1 v 4 h -1 v 4 h -1 v 5 h -1 v 4 h -1 v 4 h -1 v 4 h -1 v 4 h -1 v 4 h -1 v 5 h -1 v 4 h -1 v 4 h -1 v 4 h -1 v 4 h -1 v 5 h -1 v 4 h -1 v 4 h -1 v 4 h -1 v 4 h -1 v 4 h -1 v 5 h -1 v 4 h -1 v 4 h -1 v 4 h -1 v 4 h -1 v 5 h -1 v 4 h -1 v 4 h -1 v 4 h -1 v 4 h -1 v 5 h -1 v 4 h -1 v 4 h -1 v 4 h -1 v 4 h -1 v 4 h -1 v 5 h -1 v 4 h -1 v 4 h -1 v 4 h -1 v 4 h -1 v 5 h -1 v 4 h -1 v 4 h -1 v 4 h -1 v 4 h -1 v 5 h -1 v 4 h -1 v 4 h -1 v 4 h -1 v 4 h -1 v 4 h -1 v 5 h -1 v 4 h -1 v 4 h -1 v 4 h -1 v 4 h -1 v 5 h -1 v 4 h -1 v 4 h -1 v 4 h -1 v 4 h -1 v 4 h -1 v 5 h -1 v 4 h -1 v 4 h -1 v 4 h -1 v 4 h -1 v 5 h -1 v 4 h -1 v 4 h -1 v 4 h -1 v 4 h -1 v 5 h -1 v 4 h -1 v 4 h -1 v 4 h -1 v 4 h -1 v 4 h -1 v 5 h -1 v 4 h -1 v 4 h -1 v 4 h -1 v 4 h -1 v 5 h -1 v 4 h -1 v 4 h -1 v 4 h -1 v 4 h -1 v 5 h -1 v 4 h -1 v 4 h -1 v 4 h -1 v 4 h -1 v 4 h -1 v 5 h -1 v 4 h -1 v 4 h -1 v 4 h -1 v 4 h -1 v 5 h -1 v 4 h -1 v 4 h -1 v 4 h -1 v 4 h -1 v 4 h -1 v 5 h -1 v 4 h -1 v 4 h -1 v 4 h -1 v 4 h -1 v 5 h -1 v 4 h -1 v 4 h -1 v 4 h -1 v 4 h -1 v 5 h -1 v 4 h -1 v 4 h -1 v 4 h -1 v 4 h -1 v 4 h -1 v 5 h -1 v 4 h -1 v 4 h -1 v 4 h -1 v 4 h -1 v 5 h -1 v 4 h -1 v 4 h -1 v 4 h -1 v 4 h -1 v 5 h -1 v 4 h -1 v 4 h -1 v 4 h -1 v 4 h -1 v 4 h -1 v 5 h -1 v 4 h -1 v 4 h -1 v 4 h -1 v 4 h -1 v 5 h -1 v 4 h -1 v 4 h -1 v 4 h -1 v 4 h -1 v 4 h -1 v 5 h -1 v 4 h -1 v 4 h -1 v 4 h -1 v 4 h -1 v 5 h -1 v 4 h -1 v 4 h -1 v 4 h -1 v 4 h -1 v 5 h -1 v 4 h -1 v 4 h -1 v 4 h -1 v 4 h -1 v 4 h -1 v 5 h -1 v 4 h -1 v 4 h -1 v 4 h -1 v 4 h -1 v 5 h -1 v 4 h -1 v 4 h -1 v 4 h -1 v 4 h -1 v 5 h -1 v 4 h -1 v 4 h -1 v 4 h -1 v 4 h -1 v 4 h -1 v 5 h -1 v 4 h -1 v 4 h -1 v 4 h -1 v 4 h -1 v 5 h -1 v 4 h -1 v 4 h -1 v 4 h -1 v 4 h -1 v 4 h -1 v 5 h -1 v 4 h -1 v 4 h -1 v 4 h -1 v 4 h -1 v 5 h -1 v 4 h -1 v 4 h -1 v 4 h -1 v 4 h -1 v 5 h -1 v 4 h -1 v 4 h -1 v 4 h -1 v 4 h -1 v 4 h -1 v 5 h -1 v 4 h -1 v 4 h -1 v 4 h -1 v 4 h -1 v 5 h -1 v 4 h -1 v 4 h -1 v 4 h -1 v 4 h -1 v 5 h -1 v 4 h -1 v 4 h -1 v 4 h -1 v 4 h -1 v 4 h -1 v 5 h -1 v 4 h -1 v 4 h -1 v 4 h -1 v 4 h -1 v 5 h -1 v 4 h -1 v 4 h -1 v 4 h -1 v 4 h -1 v 4 h -1 v 5 h -1 v 4 h -1 v 4 h -1 v 4 h -1 v 4 h -1 v 5 h -1 v 4 h -1 v 4 h -1 v 4 h -1 v 4 h -1 v 5 h -1 v 4 h -1 v 4 h -1 v 4 h -1 v 4 h -1 v 4 h -1 v 5 h -1 v 4 h -1 v 4 h -1 v 4 h -1 v 4 h -1 v 5 h -1 v 4 h -1 v 4 h -1 v 4 h -1 v 4 h -1 v 5 h -1 v 4 h -1 v 4 h -1 v 4 h -1 v 4 h -1 v 4 h -1 v 5 h -1 v 4 h -1 v 4 h -1 v 4 h -1 v 4 h -1 v 5 h -1 v 4 h -1 v 4 h -1 v 4 h -1 v 4 h -1 v 4 h -1 v 5 h -1 v 4 h -1 v 4 h -1 v 4 h -1 v 4 h -1 v 5 h -1 v 4 h -1 v 4 h -1 v 4 h -1 v 4 h -1 v 5 h -1 v 4 h -1 v 4 h -1 v 4 h -1 v 4 h -1 v 4 h -1 v 5 h -1 v 4 h -1 v 4 h -1 v 4 h -1 v 4 h -1 v 5 h -1 v 4 h -1 v 4 h -1 v 4 h -1 v 4 h -1 v 5 h -1 v 4 h -1 v 4 h -1 v 4 h -1 v 4 h -1 v 4 h -1 v 5 h -1 v 4 h -1 v 4 h -1 v 4 h -1 v 4 h -1 v 5 h -1 v 4 h -1 v 4 h -1 v 4 h -1 v 4 h -1 v 4 h -1 v 5 h -1 v 4 h -1 v 4 h -1 v 4 h -1 v 4 h -1 v 5 h -1 v 4 h -1 v 4 h -1 v 4 h -1 v 4 h -1 v 5 h -1 v 4 h -1 v 4 h -1 v 4 h -1 v 4 h -1 v 4 h -1 v 5 h -1 v 4 h -1 v 4 h -1 v 4 h -1 v 4 h -1 v 5 h -1 v 4 h -1 v 4 h -1 v 4 h -1 v 4 h -1 v 5 h -1 v 4 h -1 v 4 h -1 v 4 h -1 v 4 h -1 v 4 h -1 v 5 h -1 v 4 h -1 v 4 h -1 v 4 h -1 v 4 h -1 v 5 h -1 v 4 h -1 v 4 h -1 v 4 h -1 v 4 h -1 v 4 h -1 v 5 h -1 v 4 h -1 v 4 h -1 v 4 h -1 v 4 h -1 v 5 h -1 v 4 h -1 v 4 h -1 v 4 h -1 v 4 h -1 v 5 h -1 v 4 h -1 v 4 h -1 v 4 h -1 v 4 h -1 v 4 h -1 v 5 h -1 v 4 h -1 v 4 h -1 v 4 h -1 v 4 h -1 v 5 h -1 v 4 h -1 v 4 h -1 v 4 h -1 v 4 h -1 v 5 h -1 v 4 h -1 v 4 h -1 v 4 h -1 v 4 h -1 v 4 h -1 v 5 h -1 v 4 h -1 v 4 h -1 v 4 h -1 v 4 h -1 v 5 h -1 v 4 h -1 v 4 h -1 v 4 h -1 v 4 h -1 v 4 h -1 v 5 h -1 v 4 h -1 v 4 h -1 v 4 h -1 v 4 h -1 v 5 h -1 v 4 h -1 v 4 h -1 v 4 h -1 v 4 h -1 v 5 h -1 v 4 h -1 v 4 h -1 v 4 h -1 v 4 h -1 v 4 h -1 v 5 h -1 v 4 h -1 v 4 h -1 v 4 h -1 v 4 h -1 v 5 h -1 v 4 h -1 v 4 h -1 v 4 h -1 v 4 h -1 v 5 h -1 v 4 h -1 v 4 h -1 v 4 h -1 v 4 h -1 v 4 h -1 v 5 h -1 v 4 h -1 v 4 h -1 v 4 h -1 v 4 h -1 v 5 h -1 v 4 h -1 v 4 h -1 v 4 h -1 v 4 h -1 v 4 h -1 v 5 h -1 v 4 h -1 v 4 h -1 v 4 h -1 v 4 h -1 v 5 h -1 v 4 h -1 v 4 h -1 v 4 h -1 v 4 h -1 v 5 h -1 v 4 h -1 v 4 h -1 v 4 h -1 v 4 h -1 v 4 h -1 v 5 h -1 v 4 h -1 v 4 h -1 v 4 h -1 v 4 h -1 v 5 h -1 v 4 h -1 v 4 h -1 v 4 h -1 v 4 h -1 v 5 h -1 v 4 h -1 v 4 h -1 v 4 h -1 v 4 h -1 v 4 h -1 v 5 h -1 v 4 h -1 v 4 h -1 v 4 h -1 v 4 h -1 v 5 h -1 v 4 h -1 v 4 h -1 v 4 h -1 v 4 h -1 v 4 h -1 v 5 h -1 v 4 h -1 v 4 h -1 v 4 h -1 v 4 h -1 v 5 h -1 v 4 h -1 v 4 h -1 v 4 h -1 v 4 h -1 v 5 h -1 v 4 h -1 v 4 h -1 v 4 h -1 v 4 h -1 v 4 h -1 v 5 h -1 v 4 h -1 v 4 h -1 v 4 h -1 v 4 h -1 v 5 h -1 v 4 h -1 v 4 h -1 v 4 h -1 v 4 h -1 v 5 h -1 v 4 h -1 v 4 h -1 v 4 h -1 v 4 h -1 v 4 h -1 v 5 h -1 v 4 h -1 v 4 h -1 v 4 h -1 v 4 h -1 v 5 h -1 v 4 h -1 v 4 h -1 v 4 h -1 v 4 h -1 v 4 h -1 v 5 h -1 v 4 h -1 v 4 h -1 v 4 h -1 v 4 h -1 v 5 h -1 v 4 h -1 v 4 h -1 v 4 h -1 v 4 h -1 v 5 h -1 v 4 h -1 v 4 h -1 v 4 h -1 v 4 h -1 v 4 h -1 v 5 h -1 v 4 h -1 v 4 h -1 v 4 h -1 v 4 h -1 v 5 h -1 v 4 h -1 v 4 h -1 v 4 h -1 v 4 h -1 v 5 h -1 v 4 h -1 v 4 h -1 v 4 h -1 v 4 h -1 v 4 h -1 v 5 h -1 v 4 h -1 v 4 h -1 v 4 h -1 v 4 h -1 v 5 h -1 v 4 h -1 v 4 h -1 v 4 h -1 v 4 h -1 v 4 h -1 v 5 h -1 v 4 h -1 v 4 h -1 v 4 h -1 v 4 h -1 v 5 h -1 v 4 h -1 v 4 h -1 v 4 h -1 v 4 h -1 v 5 h -1 v 4 h -1 v 4 h -1 v 4 h -1 v 4 h -1 v 4 h -1 v 5 h -1 v 4 h -1 v 4 h -1 v 4 h -1 v 4 h -1 v 5 h -1 v 4 h -1 v 4 h -1 v 4 h -1 v 4 h -1 v 5 h -1 v 4 h -1 v 4 h -1 v 4 h -1 v 4 h -1 v 4 h -1 v 5 h -1 v 4 h -1 v 4 h -1 v 4 h -1 v 4 h -1 v 5 h -1 v 4 h -1 v 4 h -1 v 4 h -1 v 4 h -1 v 4 z"
         clip-rule="evenodd"
         id="path52-1" /></clipPath><clipPath
       clipPathUnits="userSpaceOnUse"
       id="clipPath64-9"><path
         d="m 1207,2491.67 -66,-1 -39,-1 -24,-1 -46,-2 -17,-1 -16,-1 -17,-1 -15,-1 -13,-1 -12,-1 -26,-2 -11,-1 -50,-5 -8,-1 -18,-2 -7,-1 -16,-2 -35,-5 -12,-2 -7,-1 -6,-1 -5,-1 -12,-2 -10,-2 -6,-1 -10,-2 -4,-1 -10,-2 -4,-1 -5,-1 -8,-2 -5,-1 -3,-1 -16,-4 -3,-1 -4,-1 -3,-1 -4,-1 -21,-7 -2,-1 -6,-2 -2,-1 -3,-1 -2,-1 -3,-1 -18,-9 -1,-1 -4,-2 -2,-2 -2,-1 -1,-1 -2,-1 -8,-8 -1,-2 -1,-1 -3,-6 -1,-5 v -3 h 1 v -5 h 1 v -2 h 1 v -2 h 1 v -2 h 1 l 1,-1 v -2 h 1 l 7,-7 2,-1 1,-1 2,-1 2,-2 4,-2 1,-1 18,-9 3,-1 2,-1 3,-1 2,-1 6,-2 2,-1 21,-7 4,-1 3,-1 4,-1 3,-1 16,-4 3,-1 5,-1 8,-2 5,-1 4,-1 10,-2 4,-1 10,-2 6,-1 10,-2 12,-2 5,-1 6,-1 7,-1 12,-2 35,-5 16,-2 7,-1 18,-2 8,-1 50,-5 11,-1 26,-2 12,-1 13,-1 15,-1 17,-1 16,-1 17,-1 46,-2 24,-1 39,-1 66,-1 63,-1 v 1 l 66,1 39,1 24,1 46,2 34,2 32,2 12,1 13,1 12,1 13,1 11,1 50,5 8,1 18,2 7,1 16,2 35,5 12,2 7,1 6,1 5,1 12,2 10,2 6,1 10,2 4,1 10,2 4,1 5,1 8,2 5,1 3,1 16,4 3,1 4,1 3,1 4,1 21,7 2,1 6,2 2,1 3,1 2,1 3,1 16,8 1,1 6,3 2,2 2,1 1,1 2,1 7,7 1,2 1,1 3,6 1,5 1,3 h -1 v 5 h -1 v 2 h -1 v 2 h -1 v 2 l -1,1 h -1 v 2 l -8,8 -2,1 -1,1 -2,1 -2,2 -6,3 -1,1 -16,8 -3,1 -2,1 -3,1 -2,1 -6,2 -2,1 -21,7 -4,1 -3,1 -4,1 -3,1 -16,4 -3,1 -5,1 -8,2 -5,1 -4,1 -10,2 -4,1 -10,2 -6,1 -10,2 -12,2 -5,1 -6,1 -7,1 -12,2 -35,5 -16,2 -7,1 -18,2 -8,1 -50,5 -11,1 -13,1 -12,1 -13,1 -12,1 -32,2 -34,2 -46,2 -24,1 -39,1 -66,1 z"
         clip-rule="evenodd"
         id="path62-5" /></clipPath><clipPath
       clipPathUnits="userSpaceOnUse"
       id="clipPath86-2"><path
         d="m 1224,4980.67 -17,-1 -10,-1 -7,-1 -6,-1 -8,-2 -2,-1 -3,-3 3,-3 2,-1 8,-2 6,-1 7,-1 10,-1 17,-1 29,-1 v 1 l 17,1 10,1 7,1 6,1 4,1 3,1 4,2 2,2 -2,2 -4,2 -3,1 -4,1 -6,1 -7,1 -10,1 -17,1 z"
         clip-rule="evenodd"
         id="path84-1" /></clipPath><clipPath
       clipPathUnits="userSpaceOnUse"
       id="clipPath108-2"><path
         d="m 1223,4703.67 -29,-1 -15,-1 -12,-1 -9,-1 -16,-2 -6,-1 -10,-2 -8,-2 -6,-2 -6,-3 -3,-3 -1,-2 1,-1 v -2 h 1 l 2,-2 6,-3 6,-2 8,-2 10,-2 6,-1 16,-2 9,-1 12,-1 15,-1 29,-1 31,-1 v 1 l 29,1 15,1 12,1 9,1 16,2 6,1 10,2 8,2 6,2 6,3 2,2 1,2 1,1 h -1 v 2 l -3,3 -6,3 -6,2 -8,2 -10,2 -6,1 -16,2 -9,1 -12,1 -15,1 -29,1 z"
         clip-rule="evenodd"
         id="path106-7" /></clipPath><clipPath
       clipPathUnits="userSpaceOnUse"
       id="clipPath130-8"><path
         d="m 1223,4427.67 -37,-1 -20,-1 -16,-1 -12,-1 -10,-1 -9,-1 -8,-1 -14,-2 -12,-2 -15,-3 -8,-2 -15,-5 -6,-3 -1,-1 -2,-1 -4,-4 -1,-3 1,-1 v -3 h 1 l 3,-3 2,-1 1,-1 6,-3 15,-5 8,-2 15,-3 12,-2 14,-2 8,-1 9,-1 10,-1 12,-1 16,-1 20,-1 37,-1 31,-1 v 1 l 37,1 20,1 16,1 12,1 10,1 9,1 8,1 14,2 12,2 15,3 8,2 15,5 6,3 1,1 2,1 3,3 1,3 1,1 h -1 v 3 l -4,4 -2,1 -1,1 -6,3 -15,5 -8,2 -15,3 -12,2 -14,2 -8,1 -9,1 -10,1 -12,1 -16,1 -20,1 -37,1 z"
         clip-rule="evenodd"
         id="path128-6" /></clipPath><clipPath
       clipPathUnits="userSpaceOnUse"
       id="clipPath152-5"><path
         d="m 1223,4150.67 -49,-1 -21,-1 -17,-1 -14,-1 -13,-1 -11,-1 -10,-1 -9,-1 -16,-2 -14,-2 -12,-2 -5,-1 -6,-1 -4,-1 -10,-2 -4,-1 -3,-1 -8,-2 -12,-4 -4,-2 -3,-1 -2,-1 -1,-1 -4,-2 -5,-5 -1,-2 -1,-3 1,-1 v -3 h 1 v -2 h 1 l 4,-4 4,-2 1,-1 2,-1 3,-1 4,-2 12,-4 8,-2 3,-1 4,-1 10,-2 4,-1 6,-1 5,-1 12,-2 14,-2 16,-2 9,-1 10,-1 11,-1 13,-1 14,-1 17,-1 21,-1 49,-1 31,-1 v 1 l 49,1 21,1 17,1 14,1 13,1 11,1 10,1 9,1 16,2 14,2 12,2 5,1 6,1 4,1 10,2 4,1 3,1 8,2 12,4 4,2 3,1 2,1 1,1 2,1 1,1 2,1 3,3 1,2 1,3 1,1 h -1 v 3 h -1 v 2 l -4,4 -2,1 -1,1 -2,1 -1,1 -2,1 -3,1 -4,2 -12,4 -8,2 -3,1 -4,1 -10,2 -4,1 -6,1 -5,1 -12,2 -14,2 -16,2 -9,1 -10,1 -11,1 -13,1 -14,1 -17,1 -21,1 -49,1 z"
         clip-rule="evenodd"
         id="path150-3" /></clipPath><clipPath
       clipPathUnits="userSpaceOnUse"
       id="clipPath174-2"><path
         d="m 1210,3874.67 -44,-1 -24,-1 -18,-1 -16,-1 -26,-2 -12,-1 -20,-2 -9,-1 -16,-2 -28,-4 -5,-1 -6,-1 -5,-1 -6,-1 -5,-1 -4,-1 -10,-2 -4,-1 -3,-1 -12,-3 -12,-4 -2,-1 -3,-1 -4,-2 -3,-1 -2,-1 -1,-1 -4,-2 -1,-1 -2,-1 -6,-6 -1,-2 -1,-4 1,-1 v -4 h 1 v -2 h 1 l 5,-5 2,-1 1,-1 4,-2 1,-1 2,-1 3,-1 4,-2 3,-1 2,-1 12,-4 12,-3 3,-1 4,-1 10,-2 4,-1 5,-1 6,-1 5,-1 6,-1 5,-1 28,-4 16,-2 9,-1 20,-2 12,-1 26,-2 16,-1 18,-1 24,-1 44,-1 57,-1 v 1 l 44,1 24,1 18,1 16,1 26,2 12,1 20,2 9,1 16,2 28,4 5,1 6,1 5,1 6,1 5,1 4,1 10,2 4,1 3,1 12,3 12,4 2,1 3,1 4,2 3,1 2,1 1,1 4,2 1,1 2,1 5,5 1,2 1,4 1,1 h -1 v 4 h -1 v 2 l -6,6 -2,1 -1,1 -4,2 -1,1 -2,1 -3,1 -4,2 -3,1 -2,1 -12,4 -12,3 -3,1 -4,1 -10,2 -4,1 -5,1 -6,1 -5,1 -6,1 -5,1 -28,4 -16,2 -9,1 -20,2 -12,1 -26,2 -16,1 -18,1 -24,1 -44,1 z"
         clip-rule="evenodd"
         id="path172-1" /></clipPath><clipPath
       clipPathUnits="userSpaceOnUse"
       id="clipPath196-1"><path
         d="m 1210,3597.67 -49,-1 -27,-1 -22,-1 -16,-1 -17,-1 -13,-1 -12,-1 -13,-1 -30,-3 -9,-1 -24,-3 -21,-3 -18,-3 -5,-1 -6,-1 -15,-3 -4,-1 -10,-2 -4,-1 -3,-1 -12,-3 -21,-7 -4,-2 -3,-1 -8,-4 -1,-1 -4,-2 -1,-1 -2,-1 -7,-7 -2,-6 v -3 h 1 v -3 h 1 v -3 h 1 l 6,-6 2,-1 1,-1 4,-2 1,-1 8,-4 3,-1 4,-2 21,-7 12,-3 3,-1 4,-1 10,-2 4,-1 15,-3 6,-1 5,-1 18,-3 21,-3 24,-3 9,-1 30,-3 13,-1 12,-1 13,-1 17,-1 16,-1 22,-1 27,-1 49,-1 57,-1 v 1 l 49,1 27,1 22,1 16,1 17,1 13,1 12,1 13,1 30,3 9,1 24,3 21,3 18,3 5,1 6,1 15,3 4,1 10,2 4,1 3,1 12,3 21,7 4,2 3,1 8,4 1,1 4,2 1,1 2,1 6,6 3,9 h -1 v 3 h -1 v 3 l -7,7 -2,1 -1,1 -4,2 -1,1 -8,4 -3,1 -4,2 -21,7 -12,3 -3,1 -4,1 -10,2 -4,1 -15,3 -6,1 -5,1 -18,3 -21,3 -24,3 -9,1 -30,3 -13,1 -12,1 -13,1 -17,1 -16,1 -22,1 -27,1 -49,1 z"
         clip-rule="evenodd"
         id="path194-4" /></clipPath><clipPath
       clipPathUnits="userSpaceOnUse"
       id="clipPath218-2"><path
         d="m 1210,3321.67 -53,-1 -30,-1 -24,-1 -19,-1 -32,-2 -26,-2 -12,-1 -11,-1 -30,-3 -9,-1 -32,-4 -6,-1 -14,-2 -6,-1 -7,-1 -6,-1 -5,-1 -6,-1 -5,-1 -6,-1 -5,-1 -4,-1 -5,-1 -4,-1 -10,-2 -8,-2 -3,-1 -8,-2 -3,-1 -4,-1 -18,-6 -2,-1 -3,-1 -2,-1 -3,-1 -14,-7 -1,-1 -2,-1 -1,-1 -2,-1 -8,-8 -2,-4 -1,-4 v -3 h 1 v -4 h 1 v -2 h 1 v -2 h 1 l 7,-7 2,-1 1,-1 2,-1 1,-1 14,-7 3,-1 2,-1 3,-1 2,-1 18,-6 4,-1 3,-1 8,-2 3,-1 8,-2 10,-2 4,-1 5,-1 4,-1 5,-1 6,-1 5,-1 6,-1 5,-1 6,-1 7,-1 6,-1 14,-2 6,-1 32,-4 9,-1 30,-3 11,-1 12,-1 26,-2 32,-2 19,-1 24,-1 30,-1 53,-1 57,-1 v 1 l 53,1 30,1 24,1 19,1 32,2 26,2 12,1 11,1 30,3 9,1 32,4 7,1 6,1 14,2 12,2 5,1 6,1 5,1 6,1 5,1 4,1 5,1 4,1 10,2 8,2 3,1 8,2 3,1 4,1 18,6 2,1 3,1 2,1 3,1 14,7 1,1 2,1 1,1 2,1 7,7 2,4 1,4 1,3 h -1 v 4 h -1 v 2 h -1 v 2 l -8,8 -2,1 -1,1 -2,1 -1,1 -14,7 -3,1 -2,1 -3,1 -2,1 -18,6 -4,1 -3,1 -8,2 -3,1 -8,2 -10,2 -4,1 -5,1 -4,1 -5,1 -6,1 -5,1 -6,1 -5,1 -6,1 -7,1 -6,1 -14,2 -6,1 -32,4 -9,1 -30,3 -11,1 -12,1 -26,2 -32,2 -19,1 -24,1 -30,1 -53,1 z"
         clip-rule="evenodd"
         id="path216-5" /></clipPath><clipPath
       clipPathUnits="userSpaceOnUse"
       id="clipPath240-3"><path
         d="m 1206,3044.67 -56,-1 -32,-1 -24,-1 -22,-1 -16,-1 -17,-1 -16,-1 -26,-2 -24,-2 -40,-4 -16,-2 -9,-1 -16,-2 -14,-2 -6,-1 -21,-3 -5,-1 -6,-1 -5,-1 -6,-1 -5,-1 -6,-1 -20,-4 -8,-2 -5,-1 -16,-4 -3,-1 -4,-1 -6,-2 -4,-1 -12,-4 -2,-1 -6,-2 -2,-1 -3,-1 -6,-3 -3,-1 -4,-2 -1,-1 -6,-3 -1,-1 -2,-1 -2,-2 -2,-1 -7,-7 -1,-2 -1,-1 -1,-3 -1,-4 v -3 h 1 v -4 h 1 v -3 h 1 l 1,-1 v -2 h 1 l 6,-6 2,-1 2,-2 2,-1 1,-1 6,-3 1,-1 4,-2 3,-1 6,-3 3,-1 2,-1 6,-2 2,-1 12,-4 4,-1 6,-2 4,-1 3,-1 16,-4 5,-1 8,-2 20,-4 6,-1 5,-1 6,-1 5,-1 6,-1 5,-1 21,-3 6,-1 14,-2 16,-2 9,-1 16,-2 40,-4 24,-2 26,-2 16,-1 17,-1 16,-1 23,-1 24,-1 34,-1 57,-1 61,-1 v 1 l 56,1 32,1 24,1 22,1 16,1 17,1 16,1 26,2 24,2 40,4 16,2 9,1 16,2 14,2 6,1 21,3 5,1 6,1 5,1 6,1 5,1 6,1 20,4 8,2 5,1 16,4 3,1 4,1 6,2 4,1 12,4 2,1 6,2 2,1 3,1 6,3 3,1 4,2 1,1 6,3 1,1 2,1 2,2 2,1 6,6 1,2 1,1 1,3 1,4 1,3 h -1 v 4 h -1 v 3 l -1,1 h -1 v 2 l -7,7 -2,1 -2,2 -2,1 -1,1 -6,3 -1,1 -4,2 -3,1 -6,3 -3,1 -2,1 -6,2 -2,1 -12,4 -4,1 -6,2 -4,1 -3,1 -16,4 -5,1 -8,2 -20,4 -6,1 -5,1 -6,1 -5,1 -6,1 -5,1 -21,3 -6,1 -14,2 -16,2 -9,1 -16,2 -40,4 -24,2 -13,1 -12,1 -16,1 -34,2 -22,1 -24,1 -32,1 -56,1 z"
         clip-rule="evenodd"
         id="path238-6" /></clipPath><clipPath
       clipPathUnits="userSpaceOnUse"
       id="clipPath262-9"><path
         d="m 1207,2768.67 -61,-1 -36,-1 -24,-1 -23,-1 -19,-1 -16,-1 -17,-1 -16,-1 -12,-1 -13,-1 -12,-1 -13,-1 -50,-5 -24,-3 -9,-1 -16,-2 -28,-4 -36,-6 -15,-3 -6,-1 -4,-1 -15,-3 -12,-3 -5,-1 -4,-1 -3,-1 -12,-3 -3,-1 -4,-1 -6,-2 -4,-1 -9,-3 -2,-1 -9,-3 -4,-2 -3,-1 -2,-1 -3,-1 -10,-5 -1,-1 -6,-3 -2,-2 -2,-1 -1,-1 -2,-1 -8,-8 -1,-2 -1,-1 -2,-4 -1,-5 v -3 h 1 v -5 h 1 v -2 h 1 v -2 h 1 l 1,-1 v -2 h 1 l 7,-7 2,-1 1,-1 2,-1 2,-2 6,-3 1,-1 10,-5 3,-1 2,-1 3,-1 4,-2 9,-3 2,-1 9,-3 4,-1 6,-2 4,-1 3,-1 12,-3 3,-1 4,-1 5,-1 12,-3 15,-3 4,-1 6,-1 15,-3 36,-6 28,-4 16,-2 9,-1 24,-3 50,-5 13,-1 12,-1 13,-1 12,-1 16,-1 17,-1 16,-1 19,-1 23,-1 24,-1 37,-1 63,-1 60,-1 v 1 l 61,1 36,1 24,1 23,1 19,1 16,1 17,1 16,1 12,1 13,1 12,1 13,1 50,5 24,3 9,1 16,2 28,4 36,6 15,3 6,1 4,1 15,3 12,3 5,1 4,1 3,1 12,3 3,1 4,1 6,2 4,1 9,3 2,1 9,3 4,2 3,1 2,1 3,1 10,5 1,1 6,3 2,2 2,1 1,1 2,1 7,7 1,2 1,1 2,4 1,5 1,3 h -1 v 5 h -1 v 2 h -1 v 2 l -1,1 h -1 v 2 l -8,8 -2,1 -1,1 -2,1 -2,2 -6,3 -1,1 -10,5 -3,1 -2,1 -3,1 -4,2 -9,3 -2,1 -9,3 -4,1 -6,2 -4,1 -3,1 -12,3 -3,1 -4,1 -5,1 -12,3 -15,3 -4,1 -6,1 -15,3 -36,6 -28,4 -40,5 -9,1 -30,3 -9,1 -11,1 -12,1 -26,2 -12,1 -48,3 -19,1 -24,1 -23,1 -37,1 -61,1 z"
         clip-rule="evenodd"
         id="path260-7" /></clipPath></defs><sodipodi:namedview
     pagecolor="#ffffff"
     bordercolor="#666666"
     borderopacity="1"
     objecttolerance="10"
     gridtolerance="10"
     guidetolerance="10"
     inkscape:pageopacity="0"
     inkscape:pageshadow="2"
     inkscape:window-width="1920"
     inkscape:window-height="1009"
     id="namedview4"
     showgrid="false"
     fit-margin-top="0"
     fit-margin-left="0"
     fit-margin-right="0"
     fit-margin-bottom="0"
     inkscape:zoom="2.6187646"
     inkscape:cx="69.689348"
     inkscape:cy="329.5447"
     inkscape:window-x="-8"
     inkscape:window-y="-8"
     inkscape:window-maximized="1"
     inkscape:current-layer="g6023"
     inkscape:showpageshadow="0"
     inkscape:pagecheckerboard="1"
     inkscape:deskcolor="#d1d1d1" /><g
     id="g10"
     inkscape:groupmode="layer"
     inkscape:label="Barra24V115NW403HEClear2C2M"
     transform="matrix(1.3333333,0,0,-1.3333333,-508.20953,1041.1022)"><g
       id="g2310"
       transform="matrix(1.1778273,0,0,1.1778273,7.2297855,-155.06348)"><g
         id="g12"
         transform="matrix(0.12,0,0,0.12,-296.47691,383.96191)"><g
           id="g434"
           transform="scale(8.33333)"><g
             aria-label="0 180 9090 1515 165165 3030 150150 4545 135135 6060 120120 7575 105105"
             transform="matrix(0.9994,0,0,-1,429,174.2)"
             style="font-variant:normal;font-weight:normal;font-size:10.2px;font-family:Verdana;-inkscape-font-specification:Verdana;writing-mode:lr-tb;fill:#000000;fill-opacity:1;fill-rule:nonzero;stroke:none"
             id="text462" /></g></g><g
         id="g3310"><g
           transform="matrix(0.0847868,0,0,0.0847868,269.94939,348.76688)"
           id="g12-7"><g
             transform="matrix(8.33333,0,0,8.33333,-101.25578,-155.25886)"
             id="g36" /><g
             id="g6023"
             transform="translate(140.28878,-6.0154405)"><g
               id="g48"
               transform="translate(7.3380443)"><g
                 clip-path="url(#clipPath54)"
                 id="g50"><path
                   id="path56"
                   style="fill:#ffffff;fill-opacity:1;fill-rule:nonzero;stroke:none"
                   d="m 552,2377.67 h 1375 v 2879 H 552 Z" /></g></g><g
               id="g58"
               transform="translate(7.3380443)"><g
                 clip-path="url(#clipPath64)"
                 id="g60"><path
                   id="path66"
                   style="fill:#ffff80;fill-opacity:1;fill-rule:nonzero;stroke:none"
                   d="m 551,2264.67 h 1375 v 227 H 551 Z" /></g></g><path
               id="path68"
               style="fill:none;stroke:#000000;stroke-width:1;stroke-linecap:round;stroke-linejoin:round;stroke-miterlimit:10;stroke-dasharray:144, 48;stroke-dashoffset:0;stroke-opacity:1"
               d="m 1925,2377.67 c 1,-1 1,-1 1,1 0,63 -308,113 -688,113 -380,0 -687,-50 -687,-113 0,-2 0,-2 0,-1"
               transform="translate(7.3380443)" /><path
               id="path70"
               style="fill:none;stroke:#000000;stroke-width:1;stroke-linecap:round;stroke-linejoin:round;stroke-miterlimit:10;stroke-dasharray:none;stroke-opacity:1"
               d="m 551,2377.67 c 1,-62 308,-113 687,-113 379,0 686,51 687,113"
               transform="translate(7.3380443)" /><path
               id="path72"
               style="fill:none;stroke:#000000;stroke-width:1;stroke-linecap:round;stroke-linejoin:round;stroke-miterlimit:10;stroke-dasharray:none;stroke-opacity:1"
               d="m 1239,5257.67 -688,-2880"
               transform="translate(7.3380443)" /><path
               id="path74"
               style="fill:none;stroke:#000000;stroke-width:1;stroke-linecap:round;stroke-linejoin:round;stroke-miterlimit:10;stroke-dasharray:none;stroke-opacity:1"
               d="m 1239,5257.67 688,-2880"
               transform="translate(7.3380443)" /><g
               id="g80"
               transform="translate(7.3380443)"><g
                 clip-path="url(#clipPath86)"
                 id="g82"><path
                   id="path88"
                   style="fill:#ffff80;fill-opacity:1;fill-rule:nonzero;stroke:none"
                   d="m 1115,4715.67 h 247 v 39 h -247 z" /></g></g><path
               id="path90"
               style="fill:none;stroke:#000000;stroke-width:1;stroke-linecap:round;stroke-linejoin:round;stroke-miterlimit:10;stroke-dasharray:144, 48;stroke-dashoffset:0;stroke-opacity:1"
               d="m 1361,4734.67 c 1,0 1,1 1,1 0,11 -56,19 -124,19 -68,0 -123,-8 -123,-19 v -1"
               transform="translate(7.3380443)" /><path
               id="path92"
               style="fill:none;stroke:#000000;stroke-width:1;stroke-linecap:round;stroke-linejoin:round;stroke-miterlimit:10;stroke-dasharray:none;stroke-opacity:1"
               d="m 1115,4734.67 c 1,-10 56,-19 123,-19 67,0 122,9 123,19"
               transform="translate(7.3380443)" /><g
               id="g102"
               transform="translate(7.3380443)"><g
                 clip-path="url(#clipPath108)"
                 id="g104"><path
                   id="path110"
                   style="fill:#ffff80;fill-opacity:1;fill-rule:nonzero;stroke:none"
                   d="m 1052,4442.67 h 373 v 61 h -373 z" /></g></g><path
               id="path112"
               style="fill:none;stroke:#000000;stroke-width:1;stroke-linecap:round;stroke-linejoin:round;stroke-miterlimit:10;stroke-dasharray:144, 48;stroke-dashoffset:0;stroke-opacity:1"
               d="m 1424,4472.67 c 1,0 1,0 1,1 0,17 -84,30 -187,30 -103,0 -186,-13 -186,-30 0,-1 0,-1 0,-1"
               transform="translate(7.3380443)" /><path
               id="path114"
               style="fill:none;stroke:#000000;stroke-width:1;stroke-linecap:round;stroke-linejoin:round;stroke-miterlimit:10;stroke-dasharray:none;stroke-opacity:1"
               d="m 1052,4472.67 c 1,-16 84,-30 186,-30 102,0 185,14 186,30"
               transform="translate(7.3380443)" /><g
               id="g124"
               transform="translate(7.3380443)"><g
                 clip-path="url(#clipPath130)"
                 id="g126"><path
                   id="path132"
                   style="fill:#ffff80;fill-opacity:1;fill-rule:nonzero;stroke:none"
                   d="m 989,4170.67 h 499 v 81 H 989 Z" /></g></g><path
               id="path134"
               style="fill:none;stroke:#000000;stroke-width:1;stroke-linecap:round;stroke-linejoin:round;stroke-miterlimit:10;stroke-dasharray:144, 48;stroke-dashoffset:0;stroke-opacity:1"
               d="m 1487,4210.67 c 1,0 1,0 1,1 0,22 -112,40 -250,40 -138,0 -249,-18 -249,-40 0,-1 0,-1 0,-1"
               transform="translate(7.3380443)" /><path
               id="path136"
               style="fill:none;stroke:#000000;stroke-width:1;stroke-linecap:round;stroke-linejoin:round;stroke-miterlimit:10;stroke-dasharray:none;stroke-opacity:1"
               d="m 989,4210.67 c 1,-22 112,-40 249,-40 137,0 248,18 249,40"
               transform="translate(7.3380443)" /><g
               id="g146"
               transform="translate(7.3380443)"><g
                 clip-path="url(#clipPath152)"
                 id="g148"><path
                   id="path154"
                   style="fill:#ffff80;fill-opacity:1;fill-rule:nonzero;stroke:none"
                   d="m 927,3897.67 h 623 v 103 H 927 Z" /></g></g><path
               id="path156"
               style="fill:none;stroke:#000000;stroke-width:1;stroke-linecap:round;stroke-linejoin:round;stroke-miterlimit:10;stroke-dasharray:144, 48;stroke-dashoffset:0;stroke-opacity:1"
               d="m 1549,3948.67 c 1,0 1,0 1,1 0,28 -140,51 -312,51 -172,0 -311,-23 -311,-51 0,-1 0,-1 0,-1"
               transform="translate(7.3380443)" /><path
               id="path158"
               style="fill:none;stroke:#000000;stroke-width:1;stroke-linecap:round;stroke-linejoin:round;stroke-miterlimit:10;stroke-dasharray:none;stroke-opacity:1"
               d="m 927,3948.67 c 1,-28 140,-51 311,-51 171,0 310,23 311,51"
               transform="translate(7.3380443)" /><g
               id="g168"
               transform="translate(7.3380443)"><g
                 clip-path="url(#clipPath174)"
                 id="g170"><path
                   id="path176"
                   style="fill:#ffff80;fill-opacity:1;fill-rule:nonzero;stroke:none"
                   d="m 864,3626.67 h 749 v 123 H 864 Z" /></g></g><path
               id="path178"
               style="fill:none;stroke:#000000;stroke-width:1;stroke-linecap:round;stroke-linejoin:round;stroke-miterlimit:10;stroke-dasharray:144, 48;stroke-dashoffset:0;stroke-opacity:1"
               d="m 1612,3687.67 c 1,0 1,0 1,1 0,34 -168,61 -375,61 -207,0 -374,-27 -374,-61 0,-1 0,-1 0,-1"
               transform="translate(7.3380443)" /><path
               id="path180"
               style="fill:none;stroke:#000000;stroke-width:1;stroke-linecap:round;stroke-linejoin:round;stroke-miterlimit:10;stroke-dasharray:none;stroke-opacity:1"
               d="m 864,3687.67 c 1,-33 168,-61 374,-61 206,0 373,28 374,61"
               transform="translate(7.3380443)" /><g
               id="g190"
               transform="translate(7.3380443)"><g
                 clip-path="url(#clipPath196)"
                 id="g192"><path
                   id="path198"
                   style="fill:#ffff80;fill-opacity:1;fill-rule:nonzero;stroke:none"
                   d="m 802,3354.67 h 873 v 143 H 802 Z" /></g></g><path
               id="path200"
               style="fill:none;stroke:#000000;stroke-width:1;stroke-linecap:round;stroke-linejoin:round;stroke-miterlimit:10;stroke-dasharray:144, 48;stroke-dashoffset:0;stroke-opacity:1"
               d="m 1674,3425.67 c 1,0 1,0 1,1 0,39 -196,71 -437,71 -241,0 -436,-32 -436,-71 0,-1 0,-1 0,-1"
               transform="translate(7.3380443)" /><path
               id="path202"
               style="fill:none;stroke:#000000;stroke-width:1;stroke-linecap:round;stroke-linejoin:round;stroke-miterlimit:10;stroke-dasharray:none;stroke-opacity:1"
               d="m 802,3425.67 c 1,-39 196,-71 436,-71 240,0 435,32 436,71"
               transform="translate(7.3380443)" /><g
               id="g212"
               transform="translate(7.3380443)"><g
                 clip-path="url(#clipPath218)"
                 id="g214"><path
                   id="path220"
                   style="fill:#ffff80;fill-opacity:1;fill-rule:nonzero;stroke:none"
                   d="m 739,3081.67 h 999 v 165 H 739 Z" /></g></g><path
               id="path222"
               style="fill:none;stroke:#000000;stroke-width:1;stroke-linecap:round;stroke-linejoin:round;stroke-miterlimit:10;stroke-dasharray:144, 48;stroke-dashoffset:0;stroke-opacity:1"
               d="m 1737,3163.67 c 1,-1 1,0 1,1 0,46 -224,82 -500,82 -276,0 -499,-36 -499,-82 0,-1 0,-2 0,-1"
               transform="translate(7.3380443)" /><path
               id="path224"
               style="fill:none;stroke:#000000;stroke-width:1;stroke-linecap:round;stroke-linejoin:round;stroke-miterlimit:10;stroke-dasharray:none;stroke-opacity:1"
               d="m 739,3163.67 c 1,-45 224,-82 499,-82 275,0 498,37 499,82"
               transform="translate(7.3380443)" /><g
               id="g234"
               transform="translate(7.3380443)"><g
                 clip-path="url(#clipPath240)"
                 id="g236"><path
                   id="path242"
                   style="fill:#ffff80;fill-opacity:1;fill-rule:nonzero;stroke:none"
                   d="m 677,2809.67 h 1123 v 185 H 677 Z" /></g></g><path
               id="path244"
               style="fill:none;stroke:#000000;stroke-width:1;stroke-linecap:round;stroke-linejoin:round;stroke-miterlimit:10;stroke-dasharray:144, 48;stroke-dashoffset:0;stroke-opacity:1"
               d="m 1799,2901.67 c 1,-1 1,-1 1,1 0,51 -252,92 -562,92 -310,0 -561,-41 -561,-92 0,-2 0,-2 0,-1"
               transform="translate(7.3380443)" /><path
               id="path246"
               style="fill:none;stroke:#000000;stroke-width:1;stroke-linecap:round;stroke-linejoin:round;stroke-miterlimit:10;stroke-dasharray:none;stroke-opacity:1"
               d="m 677,2901.67 c 1,-50 252,-92 561,-92 309,0 560,42 561,92"
               transform="translate(7.3380443)" /><g
               id="g256"
               transform="translate(7.3380443)"><g
                 clip-path="url(#clipPath262)"
                 id="g258"><path
                   id="path264"
                   style="fill:#ffff80;fill-opacity:1;fill-rule:nonzero;stroke:none"
                   d="m 614,2536.67 h 1249 v 207 H 614 Z" /></g></g><path
               id="path266"
               style="fill:none;stroke:#000000;stroke-width:1;stroke-linecap:round;stroke-linejoin:round;stroke-miterlimit:10;stroke-dasharray:144, 48;stroke-dashoffset:0;stroke-opacity:1"
               d="m 1862,2639.67 c 1,-1 1,-1 1,1 0,57 -280,103 -625,103 -345,0 -624,-46 -624,-103 0,-2 0,-2 0,-1"
               transform="translate(7.3380443)" /><path
               id="path268"
               style="fill:none;stroke:#000000;stroke-width:1;stroke-linecap:round;stroke-linejoin:round;stroke-miterlimit:10;stroke-dasharray:none;stroke-opacity:1"
               d="m 614,2639.67 c 1,-56 280,-103 624,-103 344,0 623,47 624,103"
               transform="translate(7.3380443)" /><path
               id="path278"
               style="fill:none;stroke:#000000;stroke-width:1;stroke-linecap:round;stroke-linejoin:round;stroke-miterlimit:10;stroke-dasharray:none;stroke-opacity:1"
               d="m 1239,5257.67 v -2880"
               transform="translate(7.3380443)" /><g
               transform="scale(8.33333)"
               id="g280"><g
                 id="text284"
                 style="font-variant:normal;font-weight:normal;font-size:10.9167px;font-family:Verdana;-inkscape-font-specification:Verdana;writing-mode:lr-tb;fill:#000000;fill-opacity:1;fill-rule:nonzero;stroke:none;stroke-width:0.999698"
                 transform="scale(0.99969795,-1.0003021)"
                 aria-label="Beam Angle(B): H113.6 V113.5 Field Angle(F): H140.3 V153.5"><path
                   id="path1477"
                   style="stroke-width:0.999698"
                   d="m 80.238341,-245.14698 q 0,0.59168 -0.223877,1.04477 -0.223878,0.45308 -0.602338,0.74626 -0.447755,0.3518 -0.986128,0.50106 -0.533042,0.14925 -1.359257,0.14925 h -2.814462 v -7.937 h 2.350716 q 0.868858,0 1.300622,0.064 0.431764,0.064 0.826215,0.26652 0.437095,0.22921 0.63432,0.59167 0.197226,0.35714 0.197226,0.8582 0,0.56503 -0.287843,0.96481 -0.287843,0.39445 -0.76758,0.63432 v 0.0426 q 0.804893,0.16524 1.26864,0.70895 0.463746,0.53837 0.463746,1.36458 z m -1.77503,-3.57671 q 0,-0.28784 -0.09595,-0.48507 -0.09595,-0.19722 -0.309165,-0.31982 -0.250529,-0.14392 -0.607668,-0.1759 -0.357138,-0.0373 -0.884849,-0.0373 H 75.3077 v 2.29208 h 1.364587 q 0.495729,0 0.788902,-0.048 0.293173,-0.0533 0.543703,-0.21322 0.25053,-0.15991 0.351808,-0.41044 0.106608,-0.25586 0.106608,-0.60234 z m 0.676964,3.61936 q 0,-0.47974 -0.143922,-0.76225 -0.143921,-0.28251 -0.522381,-0.47974 -0.25586,-0.13326 -0.623659,-0.17057 -0.362469,-0.0427 -0.88485,-0.0427 h -1.65776 v 2.95306 h 1.39657 q 0.692954,0 1.135379,-0.0693 0.442425,-0.0746 0.724937,-0.26652 0.298504,-0.20789 0.437095,-0.47441 0.138591,-0.26652 0.138591,-0.68762 z" /><path
                   id="path1479"
                   style="stroke-width:0.999698"
                   d="M 86.640175,-245.57874 H 82.25324 q 0,0.54903 0.165243,0.95948 0.165243,0.40511 0.453085,0.6663 0.277182,0.25586 0.655642,0.38379 0.38379,0.12793 0.842207,0.12793 0.607667,0 1.220666,-0.23987 0.618328,-0.2452 0.879519,-0.47974 h 0.0533 v 1.09274 q -0.50639,0.21322 -1.034101,0.35714 -0.527712,0.14392 -1.108728,0.14392 -1.481856,0 -2.313402,-0.79956 -0.831545,-0.8049 -0.831545,-2.28142 0,-1.46054 0.794232,-2.31874 0.799563,-0.85819 2.100186,-0.85819 1.204675,0 1.854986,0.70361 0.655641,0.70362 0.655641,1.99891 z m -0.975466,-0.76758 q -0.0053,-0.7889 -0.399782,-1.22067 -0.389121,-0.43176 -1.188684,-0.43176 -0.804893,0 -1.284631,0.47441 -0.474407,0.4744 -0.538372,1.17802 z" /><path
                   id="path1481"
                   style="stroke-width:0.999698"
                   d="m 92.78615,-242.70564 h -0.996788 v -0.63432 q -0.133261,0.0906 -0.362469,0.25586 -0.223878,0.15991 -0.437094,0.25586 -0.25053,0.1226 -0.575686,0.20255 -0.325155,0.0853 -0.76225,0.0853 -0.804893,0 -1.364587,-0.53304 -0.559695,-0.53304 -0.559695,-1.35926 0,-0.67696 0.287843,-1.09273 0.293173,-0.42111 0.831546,-0.66098 0.543703,-0.23987 1.305953,-0.32515 0.76225,-0.0853 1.636439,-0.12793 v -0.15458 q 0,-0.34115 -0.1226,-0.56503 -0.117269,-0.22388 -0.341147,-0.35181 -0.213217,-0.1226 -0.51172,-0.16524 -0.298504,-0.0426 -0.623659,-0.0426 -0.394452,0 -0.87952,0.1066 -0.485068,0.10128 -1.002119,0.29851 h -0.0533 v -1.01811 q 0.293173,-0.08 0.847537,-0.17591 0.554364,-0.0959 1.092736,-0.0959 0.62899,0 1.092736,0.10661 0.469077,0.10127 0.810224,0.3518 0.335816,0.2452 0.51172,0.63432 0.175904,0.38912 0.175904,0.96481 z m -0.996788,-1.46587 v -1.65776 q -0.458417,0.0267 -1.082076,0.08 -0.618328,0.0533 -0.980797,0.15458 -0.431764,0.1226 -0.698285,0.38379 -0.266521,0.25586 -0.266521,0.70895 0,0.51172 0.309164,0.77291 0.309165,0.25586 0.943485,0.25586 0.527711,0 0.964806,-0.20256 0.437094,-0.20789 0.810224,-0.49573 z" /><path
                   id="path1483"
                   style="stroke-width:0.999698"
                   d="m 103.41501,-242.70564 h -1.00212 v -3.39015 q 0,-0.38379 -0.0373,-0.74093 -0.032,-0.35714 -0.14393,-0.57035 -0.1226,-0.22921 -0.3518,-0.34648 -0.22921,-0.11727 -0.66098,-0.11727 -0.4211,0 -0.8422,0.21322 -0.421105,0.20788 -0.842208,0.53304 0.01599,0.1226 0.02665,0.28784 0.01066,0.15991 0.01066,0.31983 v 3.81125 h -1.002119 v -3.39015 q 0,-0.39445 -0.03731,-0.74626 -0.03198,-0.35714 -0.143921,-0.57035 -0.1226,-0.22921 -0.351808,-0.34115 -0.229208,-0.11727 -0.660972,-0.11727 -0.410442,0 -0.826215,0.20256 -0.410443,0.20255 -0.820885,0.51705 v 4.44557 h -1.002119 v -5.95408 h 1.002119 v 0.66097 q 0.469077,-0.38912 0.932824,-0.60767 0.469077,-0.21854 0.996788,-0.21854 0.607668,0 1.028771,0.25586 0.426434,0.25586 0.63432,0.70894 0.607668,-0.51172 1.108725,-0.7356 0.50106,-0.2292 1.07142,-0.2292 0.98079,0 1.44454,0.597 0.46908,0.59168 0.46908,1.65776 z" /><path
                   id="path1485"
                   style="stroke-width:0.999698"
                   d="m 115.52039,-242.70564 h -1.12472 l -0.77824,-2.21213 h -3.43279 l -0.77824,2.21213 h -1.07141 l 2.88908,-7.937 h 1.40724 z m -2.22811,-3.1183 -1.39124,-3.89654 -1.39657,3.89654 z" /><path
                   id="path1487"
                   style="stroke-width:0.999698"
                   d="m 121.62372,-242.70564 h -1.00212 v -3.39015 q 0,-0.41044 -0.048,-0.76758 -0.048,-0.36247 -0.17591,-0.56502 -0.13326,-0.22388 -0.38379,-0.33049 -0.25053,-0.11194 -0.65031,-0.11194 -0.41044,0 -0.85819,0.20256 -0.44776,0.20255 -0.8582,0.51705 v 4.44557 h -1.00212 v -5.95408 h 1.00212 v 0.66097 q 0.46907,-0.38912 0.97013,-0.60767 0.50106,-0.21854 1.02878,-0.21854 0.9648,0 1.47119,0.58101 0.50639,0.58102 0.50639,1.67375 z" /><path
                   id="path1489"
                   style="stroke-width:0.999698"
                   d="m 128.3827,-243.38261 q 0,1.51384 -0.68763,2.22279 -0.68762,0.70895 -2.11618,0.70895 -0.4744,0 -0.92749,-0.0693 -0.44775,-0.064 -0.88485,-0.18657 v -1.02344 h 0.0533 q 0.2452,0.0959 0.77824,0.23454 0.53304,0.14392 1.06608,0.14392 0.51172,0 0.84754,-0.1226 0.33581,-0.1226 0.52238,-0.34114 0.18656,-0.20789 0.26652,-0.50106 0.08,-0.29318 0.08,-0.65564 v -0.54371 q -0.45309,0.36247 -0.86886,0.54371 -0.41044,0.1759 -1.05009,0.1759 -1.06609,0 -1.69508,-0.76758 -0.62366,-0.77291 -0.62366,-2.17481 0,-0.76758 0.21322,-1.32195 0.21855,-0.55969 0.59168,-0.9648 0.34647,-0.37846 0.8422,-0.58635 0.49573,-0.21321 0.98613,-0.21321 0.51705,0 0.86353,0.1066 0.35181,0.10128 0.74093,0.3145 l 0.064,-0.25586 h 0.93816 z m -1.00212,-0.95947 v -3.24623 q -0.39978,-0.18123 -0.74626,-0.25586 -0.34115,-0.0799 -0.6823,-0.0799 -0.82621,0 -1.30062,0.55436 -0.47441,0.55436 -0.47441,1.60979 0,1.00212 0.35181,1.51917 0.35181,0.51705 1.16736,0.51705 0.4371,0 0.87419,-0.16525 0.44243,-0.17057 0.81023,-0.45308 z" /><path
                   id="path1491"
                   style="stroke-width:0.999698"
                   d="m 131.36773,-242.70564 h -1.00212 v -8.29414 h 1.00212 z" /><path
                   id="path1493"
                   style="stroke-width:0.999698"
                   d="m 138.34525,-245.57874 h -4.38694 q 0,0.54903 0.16525,0.95948 0.16524,0.40511 0.45308,0.6663 0.27718,0.25586 0.65564,0.38379 0.38379,0.12793 0.84221,0.12793 0.60767,0 1.22067,-0.23987 0.61833,-0.2452 0.87952,-0.47974 h 0.0533 v 1.09274 q -0.50639,0.21322 -1.0341,0.35714 -0.52771,0.14392 -1.10873,0.14392 -1.48186,0 -2.3134,-0.79956 -0.83155,-0.8049 -0.83155,-2.28142 0,-1.46054 0.79424,-2.31874 0.79956,-0.85819 2.10018,-0.85819 1.20468,0 1.85499,0.70361 0.65564,0.70362 0.65564,1.99891 z m -0.97547,-0.76758 q -0.005,-0.7889 -0.39978,-1.22067 -0.38912,-0.43176 -1.18868,-0.43176 -0.8049,0 -1.28463,0.47441 -0.47441,0.4744 -0.53838,1.17802 z" /><path
                   id="path1495"
                   style="stroke-width:0.999698"
                   d="m 143.05201,-240.50951 h -1.22066 q -0.94349,-1.08207 -1.46587,-2.36138 -0.52238,-1.2793 -0.52238,-2.88375 0,-1.60446 0.52238,-2.88376 0.52238,-1.2793 1.46587,-2.36138 h 1.22066 v 0.0533 q -0.43176,0.38912 -0.82621,0.90084 -0.38912,0.50639 -0.72494,1.18335 -0.31982,0.65564 -0.52238,1.44455 -0.19722,0.7889 -0.19722,1.66309 0,0.9115 0.19189,1.66842 0.19723,0.75692 0.52771,1.43921 0.31983,0.65564 0.73027,1.18336 0.41044,0.53304 0.82088,0.90084 z" /><path
                   id="path1497"
                   style="stroke-width:0.999698"
                   d="m 150.89839,-245.14698 q 0,0.59168 -0.22388,1.04477 -0.22387,0.45308 -0.60233,0.74626 -0.44776,0.3518 -0.98613,0.50106 -0.53304,0.14925 -1.35926,0.14925 h -2.81446 v -7.937 h 2.35071 q 0.86886,0 1.30063,0.064 0.43176,0.064 0.82621,0.26652 0.4371,0.22921 0.63432,0.59167 0.19723,0.35714 0.19723,0.8582 0,0.56503 -0.28785,0.96481 -0.28784,0.39445 -0.76758,0.63432 v 0.0426 q 0.8049,0.16524 1.26864,0.70895 0.46375,0.53837 0.46375,1.36458 z m -1.77503,-3.57671 q 0,-0.28784 -0.0959,-0.48507 -0.0959,-0.19722 -0.30916,-0.31982 -0.25053,-0.14392 -0.60767,-0.1759 -0.35714,-0.0373 -0.88485,-0.0373 h -1.25798 v 2.29208 h 1.36459 q 0.49573,0 0.7889,-0.048 0.29317,-0.0533 0.5437,-0.21322 0.25053,-0.15991 0.35181,-0.41044 0.10661,-0.25586 0.10661,-0.60234 z m 0.67696,3.61936 q 0,-0.47974 -0.14392,-0.76225 -0.14392,-0.28251 -0.52238,-0.47974 -0.25586,-0.13326 -0.62366,-0.17057 -0.36247,-0.0427 -0.88485,-0.0427 h -1.65776 v 2.95306 h 1.39657 q 0.69296,0 1.13538,-0.0693 0.44243,-0.0746 0.72494,-0.26652 0.2985,-0.20789 0.43709,-0.47441 0.13859,-0.26652 0.13859,-0.68762 z" /><path
                   id="path1499"
                   style="stroke-width:0.999698"
                   d="m 155.32264,-245.75464 q 0,1.60445 -0.52238,2.88375 -0.52238,1.27931 -1.46587,2.36138 h -1.22066 v -0.0533 q 0.41044,-0.3678 0.82088,-0.90084 0.41577,-0.52772 0.73027,-1.18336 0.33048,-0.68229 0.52238,-1.43921 0.19723,-0.75692 0.19723,-1.66842 0,-0.87419 -0.19723,-1.66309 -0.19723,-0.78891 -0.52238,-1.44455 -0.33582,-0.67696 -0.73027,-1.18335 -0.38912,-0.51172 -0.82088,-0.90084 v -0.0533 h 1.22066 q 0.94349,1.08208 1.46587,2.36138 0.52238,1.2793 0.52238,2.88376 z" /><path
                   id="path1501"
                   style="stroke-width:0.999698"
                   d="m 159.4164,-247.14055 h -1.27397 v -1.51917 h 1.27397 z m 0,4.43491 h -1.27397 v -1.51917 h 1.27397 z" /><path
                   id="path1503"
                   style="stroke-width:0.999698"
                   d="m 172.24139,-242.70564 h -1.05542 v -3.88588 h -3.9605 v 3.88588 h -1.05543 v -7.937 h 1.05543 v 3.11297 h 3.9605 v -3.11297 h 1.05542 z" /><path
                   id="path1505"
                   style="stroke-width:0.999698"
                   d="m 179.09098,-242.70564 h -4.29632 v -0.81023 h 1.65243 v -5.31976 h -1.65243 v -0.72493 q 0.33582,0 0.71961,-0.0533 0.38379,-0.0586 0.58101,-0.16524 0.2452,-0.13326 0.38379,-0.33582 0.14393,-0.20788 0.16525,-0.55436 h 0.82621 v 7.15342 h 1.62045 z" /><path
                   id="path1507"
                   style="stroke-width:0.999698"
                   d="m 186.04185,-242.70564 h -4.29632 v -0.81023 h 1.65243 v -5.31976 h -1.65243 v -0.72493 q 0.33582,0 0.71961,-0.0533 0.38379,-0.0586 0.58101,-0.16524 0.2452,-0.13326 0.38379,-0.33582 0.14392,-0.20788 0.16524,-0.55436 h 0.82622 v 7.15342 h 1.62045 z" /><path
                   id="path1509"
                   style="stroke-width:0.999698"
                   d="m 192.74751,-246.52755 q 0.25586,0.2292 0.42111,0.57568 0.16524,0.34648 0.16524,0.89551 0,0.5437 -0.19722,0.99679 -0.19723,0.45309 -0.55437,0.7889 -0.39978,0.37313 -0.94348,0.55437 -0.53838,0.1759 -1.18336,0.1759 -0.66097,0 -1.30062,-0.15991 -0.63965,-0.15458 -1.05009,-0.34115 v -1.11406 h 0.08 q 0.45308,0.29851 1.06608,0.49573 0.613,0.19723 1.18335,0.19723 0.33582,0 0.71428,-0.11194 0.37846,-0.11194 0.613,-0.33049 0.2452,-0.23454 0.36247,-0.51705 0.1226,-0.28251 0.1226,-0.71427 0,-0.42644 -0.1386,-0.70362 -0.13326,-0.28251 -0.37313,-0.44242 -0.23986,-0.16525 -0.58101,-0.22388 -0.34115,-0.064 -0.7356,-0.064 h -0.47974 v -0.88485 h 0.37313 q 0.81023,0 1.28996,-0.33581 0.48507,-0.34115 0.48507,-0.99146 0,-0.28784 -0.1226,-0.50106 -0.1226,-0.21855 -0.34114,-0.35714 -0.22921,-0.13859 -0.4904,-0.19189 -0.26119,-0.0533 -0.59168,-0.0533 -0.50639,0 -1.07674,0.18124 -0.57036,0.18123 -1.07675,0.51172 h -0.0533 v -1.11406 q 0.37846,-0.18657 1.00745,-0.34115 0.63432,-0.15991 1.22599,-0.15991 0.58102,0 1.02344,0.10661 0.44243,0.10661 0.79957,0.34114 0.38379,0.25586 0.58101,0.61833 0.19723,0.36247 0.19723,0.84754 0,0.66097 -0.46908,1.1567 -0.46375,0.4904 -1.09807,0.61833 v 0.0746 q 0.25586,0.0426 0.58635,0.18123 0.33049,0.13326 0.55969,0.33582 z" /><path
                   id="path1511"
                   style="stroke-width:0.999698"
                   d="M 196.78797,-242.70564 H 195.514 v -1.51917 h 1.27397 z" /><path
                   id="path1513"
                   style="stroke-width:0.999698"
                   d="m 204.47977,-245.28024 q 0,1.21001 -0.79956,1.97759 -0.79423,0.76225 -1.95094,0.76225 -0.58634,0 -1.06608,-0.18123 -0.47974,-0.18124 -0.84754,-0.53838 -0.45841,-0.44242 -0.70894,-1.17269 -0.2452,-0.73027 -0.2452,-1.75904 0,-1.05542 0.22388,-1.87097 0.2292,-0.81556 0.72493,-1.44988 0.46908,-0.60234 1.21001,-0.93815 0.74093,-0.34115 1.72705,-0.34115 0.3145,0 0.52772,0.0266 0.21321,0.0267 0.43176,0.096 v 1.01811 h -0.0533 q -0.14926,-0.08 -0.45309,-0.14925 -0.2985,-0.0746 -0.613,-0.0746 -1.14604,0 -1.82833,0.71961 -0.6823,0.71428 -0.79423,1.93494 0.44775,-0.27185 0.87951,-0.41044 0.4371,-0.14392 1.00745,-0.14392 0.50639,0 0.89018,0.0959 0.38912,0.0906 0.79424,0.37312 0.46907,0.32516 0.70361,0.82089 0.23987,0.49573 0.23987,1.20467 z m -1.08207,0.0426 q 0,-0.49573 -0.14926,-0.82089 -0.14392,-0.32515 -0.47973,-0.56502 -0.2452,-0.17057 -0.54371,-0.22388 -0.2985,-0.0533 -0.62366,-0.0533 -0.45308,0 -0.8422,0.10661 -0.38912,0.1066 -0.79957,0.33048 -0.0107,0.11727 -0.016,0.22921 -0.005,0.10661 -0.005,0.27185 0,0.84221 0.17058,1.33261 0.1759,0.48506 0.47973,0.76758 0.2452,0.23453 0.52772,0.34647 0.28784,0.10661 0.62366,0.10661 0.77291,0 1.21533,-0.46908 0.44243,-0.4744 0.44243,-1.35925 z" /><path
                   id="path1515"
                   style="stroke-width:0.999698"
                   d="m 216.244,-250.64264 -2.88908,7.937 h -1.40724 l -2.88908,-7.937 h 1.13005 l 2.4893,6.98285 2.48931,-6.98285 z" /><path
                   id="path1517"
                   style="stroke-width:0.999698"
                   d="m 222.16078,-242.70564 h -4.29632 v -0.81023 h 1.65243 v -5.31976 h -1.65243 v -0.72493 q 0.33582,0 0.71961,-0.0533 0.38379,-0.0586 0.58102,-0.16524 0.2452,-0.13326 0.38379,-0.33582 0.14392,-0.20788 0.16524,-0.55436 h 0.82621 v 7.15342 h 1.62045 z" /><path
                   id="path1519"
                   style="stroke-width:0.999698"
                   d="m 229.11165,-242.70564 h -4.29632 v -0.81023 h 1.65243 v -5.31976 h -1.65243 v -0.72493 q 0.33582,0 0.71961,-0.0533 0.38379,-0.0586 0.58101,-0.16524 0.2452,-0.13326 0.38379,-0.33582 0.14392,-0.20788 0.16525,-0.55436 h 0.82621 v 7.15342 h 1.62045 z" /><path
                   id="path1521"
                   style="stroke-width:0.999698"
                   d="m 235.81732,-246.52755 q 0.25586,0.2292 0.4211,0.57568 0.16524,0.34648 0.16524,0.89551 0,0.5437 -0.19722,0.99679 -0.19723,0.45309 -0.55437,0.7889 -0.39978,0.37313 -0.94348,0.55437 -0.53837,0.1759 -1.18335,0.1759 -0.66098,0 -1.30063,-0.15991 -0.63965,-0.15458 -1.05009,-0.34115 v -1.11406 h 0.08 q 0.45308,0.29851 1.06608,0.49573 0.613,0.19723 1.18335,0.19723 0.33582,0 0.71428,-0.11194 0.37846,-0.11194 0.613,-0.33049 0.2452,-0.23454 0.36247,-0.51705 0.1226,-0.28251 0.1226,-0.71427 0,-0.42644 -0.13859,-0.70362 -0.13326,-0.28251 -0.37313,-0.44242 -0.23987,-0.16525 -0.58102,-0.22388 -0.34115,-0.064 -0.7356,-0.064 h -0.47974 v -0.88485 h 0.37313 q 0.81023,0 1.28997,-0.33581 0.48506,-0.34115 0.48506,-0.99146 0,-0.28784 -0.1226,-0.50106 -0.1226,-0.21855 -0.34114,-0.35714 -0.22921,-0.13859 -0.4904,-0.19189 -0.26119,-0.0533 -0.59168,-0.0533 -0.50639,0 -1.07674,0.18124 -0.57036,0.18123 -1.07675,0.51172 h -0.0533 v -1.11406 q 0.37846,-0.18657 1.00745,-0.34115 0.63432,-0.15991 1.22599,-0.15991 0.58102,0 1.02344,0.10661 0.44243,0.10661 0.79957,0.34114 0.38379,0.25586 0.58101,0.61833 0.19723,0.36247 0.19723,0.84754 0,0.66097 -0.46908,1.1567 -0.46374,0.4904 -1.09806,0.61833 v 0.0746 q 0.25586,0.0426 0.58634,0.18123 0.33049,0.13326 0.5597,0.33582 z" /><path
                   id="path1523"
                   style="stroke-width:0.999698"
                   d="m 239.85777,-242.70564 h -1.27397 v -1.51917 h 1.27397 z" /><path
                   id="path1525"
                   style="stroke-width:0.999698"
                   d="m 247.36834,-245.22693 q 0,0.55436 -0.20256,1.06075 -0.20255,0.50639 -0.55436,0.85287 -0.38379,0.37313 -0.91683,0.57568 -0.52772,0.19723 -1.226,0.19723 -0.65031,0 -1.25265,-0.13859 -0.60234,-0.13326 -1.01811,-0.32516 v -1.12471 h 0.0746 q 0.43709,0.27718 1.02344,0.4744 0.58634,0.1919 1.15137,0.1919 0.37846,0 0.73027,-0.10661 0.35713,-0.10661 0.63432,-0.37313 0.23453,-0.22921 0.3518,-0.54903 0.1226,-0.31983 0.1226,-0.74093 0,-0.41044 -0.14392,-0.69296 -0.13859,-0.28251 -0.38912,-0.45308 -0.27718,-0.20256 -0.67696,-0.28251 -0.39445,-0.0853 -0.88485,-0.0853 -0.46908,0 -0.90617,0.064 -0.43177,0.064 -0.74626,0.12793 v -4.08843 h 4.77605 v 0.93283 h -3.74728 v 2.11084 q 0.22921,-0.0213 0.46908,-0.032 0.23986,-0.0107 0.41577,-0.0107 0.64498,0 1.13005,0.11194 0.48507,0.10661 0.89018,0.38379 0.42643,0.29317 0.66097,0.75692 0.23454,0.46374 0.23454,1.16203 z" /><path
                   id="path1527"
                   style="stroke-width:0.999698"
                   d="m 79.321509,-236.05861 h -4.013806 v 2.23878 h 3.448781 v 0.93815 h -3.448781 v 3.82191 h -1.055424 v -7.93699 h 5.06923 z" /><path
                   id="path1529"
                   style="stroke-width:0.999698"
                   d="m 81.517642,-236.01064 h -1.130049 v -1.03943 h 1.130049 z m -0.06396,6.95087 h -1.002119 v -5.95408 h 1.002119 z" /><path
                   id="path1531"
                   style="stroke-width:0.999698"
                   d="m 88.431197,-231.93286 h -4.386936 q 0,0.54903 0.165243,0.95947 0.165243,0.40511 0.453086,0.6663 0.277182,0.25586 0.655642,0.38379 0.38379,0.12793 0.842206,0.12793 0.607668,0 1.220666,-0.23986 0.618329,-0.2452 0.879519,-0.47974 h 0.05331 v 1.09273 q -0.50639,0.21322 -1.034102,0.35714 -0.527711,0.14392 -1.108727,0.14392 -1.481857,0 -2.313403,-0.79956 -0.831545,-0.80489 -0.831545,-2.28142 0,-1.46053 0.794232,-2.31873 0.799563,-0.8582 2.100186,-0.8582 1.204675,0 1.854986,0.70362 0.655642,0.70361 0.655642,1.9989 z m -0.975467,-0.76758 q -0.0053,-0.78891 -0.399782,-1.22067 -0.38912,-0.43176 -1.188683,-0.43176 -0.804894,0 -1.284631,0.4744 -0.474408,0.47441 -0.538373,1.17803 z" /><path
                   id="path1533"
                   style="stroke-width:0.999698"
                   d="m 90.963147,-229.05977 h -1.002119 v -8.29413 h 1.002119 z" /><path
                   id="path1535"
                   style="stroke-width:0.999698"
                   d="m 97.786085,-229.05977 h -1.002119 v -0.62366 q -0.431764,0.37313 -0.900841,0.58102 -0.469077,0.20789 -1.018111,0.20789 -1.066084,0 -1.695073,-0.82089 -0.623659,-0.82088 -0.623659,-2.27609 0,-0.75692 0.213216,-1.34859 0.218548,-0.59168 0.586347,-1.00745 0.362468,-0.40512 0.842206,-0.61833 0.485068,-0.21322 1.002119,-0.21322 0.469077,0 0.831546,0.10128 0.362468,0.0959 0.76225,0.30383 v -2.57992 h 1.002119 z m -1.002119,-1.46586 v -3.4168 q -0.405112,-0.18124 -0.724937,-0.25053 -0.319826,-0.0693 -0.698286,-0.0693 -0.842206,0 -1.311283,0.58635 -0.469077,0.58635 -0.469077,1.66309 0,1.06075 0.362469,1.61512 0.362468,0.54903 1.162031,0.54903 0.426434,0 0.863528,-0.18656 0.437095,-0.1919 0.815555,-0.4904 z" /><path
                   id="path1537"
                   style="stroke-width:0.999698"
                   d="m 109.93411,-229.05977 h -1.12472 l -0.77824,-2.21212 h -3.43279 l -0.77824,2.21212 h -1.07141 l 2.88908,-7.93699 h 1.40723 z m -2.22811,-3.11829 -1.39124,-3.89654 -1.39657,3.89654 z" /><path
                   id="path1539"
                   style="stroke-width:0.999698"
                   d="m 116.03744,-229.05977 h -1.00211 v -3.39014 q 0,-0.41045 -0.048,-0.76758 -0.048,-0.36247 -0.1759,-0.56503 -0.13326,-0.22388 -0.38379,-0.33049 -0.25053,-0.11193 -0.65031,-0.11193 -0.41045,0 -0.8582,0.20255 -0.44776,0.20256 -0.8582,0.51705 v 4.44557 h -1.00212 v -5.95408 h 1.00212 v 0.66098 q 0.46908,-0.38913 0.97014,-0.60767 0.50106,-0.21855 1.02877,-0.21855 0.9648,0 1.47119,0.58102 0.50639,0.58101 0.50639,1.67375 z" /><path
                   id="path1541"
                   style="stroke-width:0.999698"
                   d="m 122.79641,-229.73673 q 0,1.51384 -0.68762,2.22278 -0.68762,0.70895 -2.11618,0.70895 -0.4744,0 -0.92749,-0.0693 -0.44775,-0.064 -0.88485,-0.18656 v -1.02344 h 0.0533 q 0.24519,0.096 0.77824,0.23454 0.53304,0.14392 1.06608,0.14392 0.51172,0 0.84754,-0.1226 0.33581,-0.1226 0.52238,-0.34115 0.18656,-0.20788 0.26652,-0.50106 0.08,-0.29317 0.08,-0.65564 v -0.5437 q -0.45309,0.36247 -0.86886,0.5437 -0.41044,0.17591 -1.0501,0.17591 -1.06608,0 -1.69507,-0.76758 -0.62366,-0.77292 -0.62366,-2.17482 0,-0.76758 0.21322,-1.32194 0.21855,-0.55969 0.59168,-0.96481 0.34647,-0.37846 0.8422,-0.58634 0.49573,-0.21322 0.98613,-0.21322 0.51705,0 0.86353,0.10661 0.35181,0.10128 0.74093,0.31449 l 0.064,-0.25586 h 0.93815 z m -1.00211,-0.95948 v -3.24622 q -0.39979,-0.18124 -0.74626,-0.25586 -0.34115,-0.08 -0.6823,-0.08 -0.82621,0 -1.30062,0.55437 -0.47441,0.55436 -0.47441,1.60978 0,1.00212 0.35181,1.51917 0.35181,0.51705 1.16736,0.51705 0.4371,0 0.87419,-0.16524 0.44243,-0.17057 0.81023,-0.45309 z" /><path
                   id="path1543"
                   style="stroke-width:0.999698"
                   d="m 125.78145,-229.05977 h -1.00212 v -8.29413 h 1.00212 z" /><path
                   id="path1545"
                   style="stroke-width:0.999698"
                   d="m 132.75897,-231.93286 h -4.38693 q 0,0.54903 0.16524,0.95947 0.16524,0.40511 0.45309,0.6663 0.27718,0.25586 0.65564,0.38379 0.38379,0.12793 0.8422,0.12793 0.60767,0 1.22067,-0.23986 0.61833,-0.2452 0.87952,-0.47974 h 0.0533 v 1.09273 q -0.50639,0.21322 -1.0341,0.35714 -0.52771,0.14392 -1.10873,0.14392 -1.48185,0 -2.3134,-0.79956 -0.83154,-0.80489 -0.83154,-2.28142 0,-1.46053 0.79423,-2.31873 0.79956,-0.8582 2.10018,-0.8582 1.20468,0 1.85499,0.70362 0.65564,0.70361 0.65564,1.9989 z m -0.97546,-0.76758 q -0.005,-0.78891 -0.39979,-1.22067 -0.38912,-0.43176 -1.18868,-0.43176 -0.80489,0 -1.28463,0.4744 -0.47441,0.47441 -0.53837,1.17803 z" /><path
                   id="path1547"
                   style="stroke-width:0.999698"
                   d="m 137.46573,-226.86363 h -1.22067 q -0.94348,-1.08208 -1.46586,-2.36138 -0.52238,-1.2793 -0.52238,-2.88376 0,-1.60445 0.52238,-2.88375 0.52238,-1.27931 1.46586,-2.36138 h 1.22067 v 0.0533 q -0.43176,0.38912 -0.82621,0.90084 -0.38913,0.50639 -0.72494,1.18336 -0.31983,0.65564 -0.52238,1.44454 -0.19723,0.7889 -0.19723,1.66309 0,0.9115 0.1919,1.66842 0.19722,0.75692 0.52771,1.43922 0.31982,0.65564 0.73027,1.18335 0.41044,0.53304 0.82088,0.90084 z" /><path
                   id="path1549"
                   style="stroke-width:0.999698"
                   d="m 144.39528,-236.05861 h -4.01381 v 2.23878 h 3.44878 v 0.93815 h -3.44878 v 3.82191 h -1.05542 v -7.93699 h 5.06923 z" /><path
                   id="path1551"
                   style="stroke-width:0.999698"
                   d="m 148.52103,-232.10877 q 0,1.60446 -0.52238,2.88376 -0.52239,1.2793 -1.46587,2.36138 h -1.22067 v -0.0533 q 0.41045,-0.3678 0.82089,-0.90084 0.41577,-0.52771 0.73027,-1.18335 0.33048,-0.6823 0.52238,-1.43922 0.19722,-0.75692 0.19722,-1.66842 0,-0.87419 -0.19722,-1.66309 -0.19723,-0.7889 -0.52238,-1.44454 -0.33582,-0.67697 -0.73027,-1.18336 -0.38912,-0.51172 -0.82089,-0.90084 v -0.0533 h 1.22067 q 0.94348,1.08207 1.46587,2.36138 0.52238,1.2793 0.52238,2.88375 z" /><path
                   id="path1553"
                   style="stroke-width:0.999698"
                   d="m 152.61479,-233.49468 h -1.27397 v -1.51917 h 1.27397 z m 0,4.43491 h -1.27397 v -1.51917 h 1.27397 z" /><path
                   id="path1555"
                   style="stroke-width:0.999698"
                   d="m 165.43978,-229.05977 h -1.05543 v -3.88587 h -3.9605 v 3.88587 h -1.05542 v -7.93699 h 1.05542 v 3.11296 h 3.9605 v -3.11296 h 1.05543 z" /><path
                   id="path1557"
                   style="stroke-width:0.999698"
                   d="m 172.28937,-229.05977 h -4.29632 v -0.81022 h 1.65243 v -5.31976 h -1.65243 v -0.72494 q 0.33582,0 0.71961,-0.0533 0.38379,-0.0586 0.58101,-0.16524 0.2452,-0.13327 0.38379,-0.33582 0.14392,-0.20789 0.16524,-0.55436 h 0.82622 v 7.15342 h 1.62045 z" /><path
                   id="path1559"
                   style="stroke-width:0.999698"
                   d="m 179.87455,-231.29321 h -1.17802 v 2.23344 h -1.02344 v -2.23344 h -3.80059 v -1.226 l 3.84323,-4.47755 h 0.9808 v 4.85068 h 1.17802 z m -2.20146,-0.85287 v -3.58204 l -3.07565,3.58204 z" /><path
                   id="path1561"
                   style="stroke-width:0.999698"
                   d="m 186.63353,-233.03093 q 0,2.1375 -0.67164,3.13962 -0.6663,0.99679 -2.07353,0.99679 -1.42855,0 -2.08953,-1.01278 -0.65564,-1.01278 -0.65564,-3.11297 0,-2.11618 0.66631,-3.12363 0.6663,-1.01278 2.07886,-1.01278 1.42855,0 2.08419,1.02878 0.66098,1.02344 0.66098,3.09697 z m -1.4019,2.42001 q 0.18656,-0.43176 0.25053,-1.01278 0.0693,-0.58635 0.0693,-1.40723 0,-0.81022 -0.0693,-1.40723 -0.064,-0.59701 -0.25586,-1.01278 -0.18657,-0.41044 -0.51173,-0.61833 -0.31982,-0.20789 -0.82621,-0.20789 -0.50106,0 -0.83155,0.20789 -0.32515,0.20789 -0.51705,0.62899 -0.18123,0.39445 -0.25053,1.02877 -0.064,0.63432 -0.064,1.39124 0,0.83155 0.0586,1.39124 0.0586,0.55969 0.25053,1.00212 0.17591,0.41577 0.49573,0.63432 0.32516,0.21855 0.8582,0.21855 0.50106,0 0.83155,-0.20789 0.33048,-0.20789 0.51172,-0.62899 z" /><path
                   id="path1563"
                   style="stroke-width:0.999698"
                   d="m 189.98636,-229.05977 h -1.27397 v -1.51917 h 1.27397 z" /><path
                   id="path1565"
                   style="stroke-width:0.999698"
                   d="m 196.8626,-232.88168 q 0.25586,0.22921 0.42111,0.57569 0.16524,0.34647 0.16524,0.89551 0,0.5437 -0.19723,0.99679 -0.19722,0.45308 -0.55436,0.7889 -0.39978,0.37313 -0.94348,0.55436 -0.53838,0.17591 -1.18336,0.17591 -0.66097,0 -1.30062,-0.15992 -0.63965,-0.15458 -1.05009,-0.34114 v -1.11406 h 0.0799 q 0.45309,0.2985 1.06609,0.49573 0.613,0.19722 1.18335,0.19722 0.33582,0 0.71428,-0.11194 0.37846,-0.11193 0.613,-0.33048 0.2452,-0.23454 0.36246,-0.51705 0.1226,-0.28251 0.1226,-0.71428 0,-0.42643 -0.13859,-0.70361 -0.13326,-0.28252 -0.37313,-0.44243 -0.23986,-0.16524 -0.58101,-0.22388 -0.34115,-0.064 -0.7356,-0.064 h -0.47974 v -0.88485 h 0.37313 q 0.81023,0 1.28996,-0.33582 0.48507,-0.34114 0.48507,-0.99146 0,-0.28784 -0.1226,-0.50106 -0.1226,-0.21854 -0.34114,-0.35713 -0.22921,-0.13859 -0.4904,-0.1919 -0.26119,-0.0533 -0.59168,-0.0533 -0.50639,0 -1.07674,0.18123 -0.57036,0.18124 -1.07675,0.51172 h -0.0533 v -1.11406 q 0.37846,-0.18656 1.00745,-0.34114 0.63432,-0.15992 1.22599,-0.15992 0.58102,0 1.02344,0.10661 0.44243,0.10661 0.79957,0.34115 0.38379,0.25586 0.58101,0.61833 0.19723,0.36247 0.19723,0.84754 0,0.66097 -0.46908,1.1567 -0.46375,0.49039 -1.09807,0.61832 v 0.0746 q 0.25586,0.0426 0.58635,0.18124 0.33049,0.13326 0.55969,0.33581 z" /><path
                   id="path1567"
                   style="stroke-width:0.999698"
                   d="m 209.4424,-236.99676 -2.88909,7.93699 h -1.40723 l -2.88909,-7.93699 h 1.13005 l 2.48931,6.98285 2.4893,-6.98285 z" /><path
                   id="path1569"
                   style="stroke-width:0.999698"
                   d="m 215.35916,-229.05977 h -4.29632 v -0.81022 h 1.65243 v -5.31976 h -1.65243 v -0.72494 q 0.33582,0 0.71961,-0.0533 0.38379,-0.0586 0.58102,-0.16524 0.24519,-0.13327 0.38379,-0.33582 0.14392,-0.20789 0.16524,-0.55436 h 0.82621 v 7.15342 h 1.62045 z" /><path
                   id="path1571"
                   style="stroke-width:0.999698"
                   d="m 222.69915,-231.58106 q 0,0.55437 -0.20256,1.06076 -0.20255,0.50639 -0.55436,0.85286 -0.38379,0.37313 -0.91683,0.57569 -0.52771,0.19723 -1.226,0.19723 -0.65031,0 -1.25265,-0.1386 -0.60234,-0.13326 -1.01811,-0.32515 v -1.12472 h 0.0746 q 0.43709,0.27718 1.02344,0.47441 0.58634,0.19189 1.15137,0.19189 0.37846,0 0.73027,-0.10661 0.35713,-0.1066 0.63432,-0.37312 0.23453,-0.22921 0.3518,-0.54904 0.1226,-0.31982 0.1226,-0.74093 0,-0.41044 -0.14392,-0.69295 -0.13859,-0.28251 -0.38912,-0.45309 -0.27718,-0.20255 -0.67696,-0.28251 -0.39445,-0.0853 -0.88485,-0.0853 -0.46908,0 -0.90617,0.064 -0.43177,0.064 -0.74626,0.12793 v -4.08843 h 4.77605 v 0.93282 h -3.74728 v 2.11085 q 0.22921,-0.0213 0.46908,-0.032 0.23987,-0.0107 0.41577,-0.0107 0.64498,0 1.13005,0.11194 0.48507,0.10661 0.89018,0.38379 0.42643,0.29318 0.66097,0.75692 0.23454,0.46375 0.23454,1.16203 z" /><path
                   id="path1573"
                   style="stroke-width:0.999698"
                   d="m 229.0157,-232.88168 q 0.25586,0.22921 0.4211,0.57569 0.16524,0.34647 0.16524,0.89551 0,0.5437 -0.19722,0.99679 -0.19723,0.45308 -0.55437,0.7889 -0.39978,0.37313 -0.94348,0.55436 -0.53837,0.17591 -1.18336,0.17591 -0.66097,0 -1.30062,-0.15992 -0.63965,-0.15458 -1.05009,-0.34114 v -1.11406 h 0.08 q 0.45308,0.2985 1.06608,0.49573 0.613,0.19722 1.18335,0.19722 0.33582,0 0.71428,-0.11194 0.37846,-0.11193 0.613,-0.33048 0.2452,-0.23454 0.36247,-0.51705 0.1226,-0.28251 0.1226,-0.71428 0,-0.42643 -0.13859,-0.70361 -0.13327,-0.28252 -0.37313,-0.44243 -0.23987,-0.16524 -0.58102,-0.22388 -0.34115,-0.064 -0.7356,-0.064 h -0.47974 v -0.88485 h 0.37313 q 0.81023,0 1.28997,-0.33582 0.48506,-0.34114 0.48506,-0.99146 0,-0.28784 -0.1226,-0.50106 -0.1226,-0.21854 -0.34114,-0.35713 -0.22921,-0.13859 -0.4904,-0.1919 -0.26119,-0.0533 -0.59168,-0.0533 -0.50639,0 -1.07674,0.18123 -0.57036,0.18124 -1.07675,0.51172 h -0.0533 v -1.11406 q 0.37846,-0.18656 1.00745,-0.34114 0.63432,-0.15992 1.22599,-0.15992 0.58102,0 1.02344,0.10661 0.44243,0.10661 0.79957,0.34115 0.38379,0.25586 0.58101,0.61833 0.19723,0.36247 0.19723,0.84754 0,0.66097 -0.46908,1.1567 -0.46374,0.49039 -1.09806,0.61832 v 0.0746 q 0.25586,0.0426 0.58634,0.18124 0.33049,0.13326 0.5597,0.33581 z" /><path
                   id="path1575"
                   style="stroke-width:0.999698"
                   d="m 233.05615,-229.05977 h -1.27397 v -1.51917 h 1.27397 z" /><path
                   id="path1577"
                   style="stroke-width:0.999698"
                   d="m 240.56672,-231.58106 q 0,0.55437 -0.20256,1.06076 -0.20255,0.50639 -0.55436,0.85286 -0.38379,0.37313 -0.91683,0.57569 -0.52772,0.19723 -1.226,0.19723 -0.65031,0 -1.25265,-0.1386 -0.60234,-0.13326 -1.01811,-0.32515 v -1.12472 h 0.0746 q 0.43709,0.27718 1.02344,0.47441 0.58634,0.19189 1.15137,0.19189 0.37846,0 0.73027,-0.10661 0.35713,-0.1066 0.63432,-0.37312 0.23453,-0.22921 0.3518,-0.54904 0.1226,-0.31982 0.1226,-0.74093 0,-0.41044 -0.14392,-0.69295 -0.13859,-0.28251 -0.38912,-0.45309 -0.27718,-0.20255 -0.67696,-0.28251 -0.39445,-0.0853 -0.88485,-0.0853 -0.46908,0 -0.90617,0.064 -0.43177,0.064 -0.74626,0.12793 v -4.08843 h 4.77605 v 0.93282 h -3.74728 v 2.11085 q 0.22921,-0.0213 0.46908,-0.032 0.23986,-0.0107 0.41577,-0.0107 0.64498,0 1.13005,0.11194 0.48507,0.10661 0.89018,0.38379 0.42643,0.29318 0.66097,0.75692 0.23454,0.46375 0.23454,1.16203 z" /></g></g><path
               id="path286"
               style="fill:none;stroke:#0000ff;stroke-width:1;stroke-linecap:round;stroke-linejoin:round;stroke-miterlimit:10;stroke-dasharray:none;stroke-opacity:1"
               d="M 551,2377.67 H 1927"
               transform="translate(7.3380443)" /><path
               id="path288"
               style="fill:none;stroke:#ff0000;stroke-width:1;stroke-linecap:round;stroke-linejoin:round;stroke-miterlimit:10;stroke-dasharray:none;stroke-opacity:1"
               d="m 1331,2491.67 -184,-228"
               transform="translate(7.3380443)" /><g
               transform="scale(8.33333)"
               id="g290"><g
                 id="text296"
                 style="font-variant:normal;font-weight:normal;font-size:10.92px;font-family:Verdana;-inkscape-font-specification:Verdana;writing-mode:lr-tb;fill:#000000;fill-opacity:1;fill-rule:nonzero;stroke:none"
                 transform="matrix(0.999396,0,0,-1,50.76,287.12)"
                 aria-label="Dh Dv"><path
                   id="path1580"
                   d="m 7.7741016,-3.9616992 q 0,1.0824023 -0.4745508,1.9621875 Q 6.8303321,-1.1197266 6.0465235,-0.63451172 5.5026563,-0.29859375 4.8308203,-0.14929688 4.1643164,0 3.07125,0 H 1.0664063 v -7.9393946 h 1.9835156 q 1.1623828,0 1.8448828,0.170625 0.6878321,0.165293 1.1623828,0.4585547 0.8104688,0.506543 1.2636915,1.3490039 0.4532226,0.842461 0.4532226,1.9995118 z m -1.1037305,-0.015996 q 0,-0.9331055 -0.3252539,-1.5729493 Q 6.0198633,-6.1904883 5.3746875,-6.5583985 4.9054688,-6.825 4.3775977,-6.9263086 3.8497266,-7.0329493 3.1139063,-7.0329493 H 2.1221485 v 6.12650398 h 0.9917578 q 0.7624804,0 1.3276758,-0.11197268 0.5705273,-0.1119726 1.0450781,-0.4158984 0.5918555,-0.3785742 0.8851172,-0.9970899 0.2985937,-0.6185156 0.2985937,-1.5462889 z" /><path
                   id="path1582"
                   d="m 14.385863,0 h -1.002422 v -3.3911719 q 0,-0.4105664 -0.04799,-0.7678125 -0.04799,-0.3625781 -0.175957,-0.5651953 -0.133301,-0.2239453 -0.383906,-0.330586 -0.250606,-0.1119726 -0.650508,-0.1119726 -0.410567,0 -0.858457,0.2026172 -0.447891,0.2026172 -0.858457,0.517207 V 0 H 9.4057459 v -8.2966407 h 1.0024221 v 3.0019336 q 0.469219,-0.3892383 0.970429,-0.6078515 0.501211,-0.2186133 1.029083,-0.2186133 0.965097,0 1.47164,0.5811914 0.506543,0.5811914 0.506543,1.6742578 z" /><path
                   id="path1584"
                   d="m 96.507698,22.558301 q 0,1.082403 -0.47455,1.962188 -0.469219,0.879785 -1.253028,1.365 -0.543867,0.335918 -1.215703,0.485215 Q 92.897913,26.52 91.804847,26.52 h -2.004844 v -7.939394 h 1.983516 q 1.162383,0 1.844883,0.170625 0.687832,0.165293 1.162382,0.458555 0.810469,0.506543 1.263692,1.349003 0.453222,0.842461 0.453222,1.999512 z m -1.10373,-0.016 q 0,-0.933105 -0.325254,-1.572949 -0.325254,-0.639844 -0.97043,-1.007754 -0.469218,-0.266602 -0.99709,-0.36791 -0.527871,-0.106641 -1.263691,-0.106641 h -0.991758 v 6.126504 h 0.991758 q 0.762481,0 1.327676,-0.111973 0.570527,-0.111972 1.045078,-0.415898 0.591855,-0.378574 0.885117,-0.99709 0.298594,-0.618515 0.298594,-1.546289 z" /><path
                   id="path1586"
                   d="M 103.29009,20.564122 100.88001,26.52 h -1.00775 l -2.394083,-5.955878 h 1.087735 l 1.844878,4.740175 1.82889,-4.740175 z" /></g></g></g></g></g></g></g></svg>
