<?xml version="1.0" encoding="UTF-8" standalone="no"?>
<svg
   width="799.97479"
   height="333.00702"
   version="1.1"
   viewBox="0 0 211.66333 88.109146"
   id="svg297"
   sodipodi:docname="desenho suporte.svg"
   inkscape:version="1.2.2 (732a01da63, 2022-12-09)"
   xmlns:inkscape="http://www.inkscape.org/namespaces/inkscape"
   xmlns:sodipodi="http://sodipodi.sourceforge.net/DTD/sodipodi-0.dtd"
   xmlns="http://www.w3.org/2000/svg"
   xmlns:svg="http://www.w3.org/2000/svg">
  <defs
     id="defs301" />
  <sodipodi:namedview
     id="namedview299"
     pagecolor="#505050"
     bordercolor="#ffffff"
     borderopacity="1"
     inkscape:showpageshadow="0"
     inkscape:pageopacity="0"
     inkscape:pagecheckerboard="1"
     inkscape:deskcolor="#505050"
     showgrid="false"
     inkscape:zoom="1.0023256"
     inkscape:cx="461.42689"
     inkscape:cy="167.6102"
     inkscape:window-width="1680"
     inkscape:window-height="979"
     inkscape:window-x="1912"
     inkscape:window-y="-8"
     inkscape:window-maximized="1"
     inkscape:current-layer="svg297" />
  <g
     id="g253"
     transform="translate(-0.00689182,0.0018266)"
     style="stroke:#000000;stroke-opacity:1" />
  <path
     style="fill:none;stroke:#000000;stroke-width:1px;stroke-linecap:butt;stroke-linejoin:miter;stroke-opacity:1"
     d="m 479.18717,179.45844 c 0,0 58.65982,-73.85342 163.88075,-72.32895 63.60172,0.92148 117.40399,28.45025 156.43528,72.32295"
     id="path678"
     transform="matrix(0.2645875,0,0,0.2645875,-0.00689182,-14.043685)"
     sodipodi:nodetypes="csc" />
  <path
     style="fill:none;stroke:#000000;stroke-width:14.6443;stroke-linecap:butt;stroke-linejoin:miter;stroke-dasharray:none;stroke-opacity:1"
     d="M 484.61811,577.90225 V -19.361627 c 17.88248,-92.279973 94.84914,-132.155093 158.45051,-133.076573 63.60137,0.92149 140.56733,40.79661 158.44981,133.076583 L 801.5181,577.9027 C 783.63595,670.18221 706.66999,710.05733 643.06862,710.97882 579.46725,710.05734 502.50059,670.18222 484.61811,577.90225"
     id="path678-07-8-9-4"
     transform="matrix(-0.01806762,0,0,-0.01806762,149.66834,49.099869)"
     sodipodi:nodetypes="ccccccc" />
  <path
     style="fill:none;stroke:#000000;stroke-width:1px;stroke-linecap:butt;stroke-linejoin:miter;stroke-opacity:1"
     d="m 799.5032,179.45244 c -39.03129,-43.8727 -92.83356,-71.40147 -156.43528,-72.32295 -105.22093,-1.52447 -163.88075,72.32895 -163.88075,72.32895 l -0.006,80.23094"
     id="path678-0"
     transform="matrix(0.2645875,0,0,-0.2645875,-0.00543497,102.14934)"
     sodipodi:nodetypes="csc" />
  <path
     style="fill:none;stroke:#000000;stroke-width:14.6443;stroke-linecap:butt;stroke-linejoin:miter;stroke-dasharray:none;stroke-opacity:1"
     d="M 484.61811,577.90225 V -19.361627 c 17.88248,-92.279973 94.84914,-132.155093 158.45051,-133.076573 63.60137,0.92149 140.56733,40.79661 158.44981,133.076583 L 801.5181,577.9027 C 783.63595,670.18221 706.66999,710.05733 643.06862,710.97882 579.46725,710.05734 502.50059,670.18222 484.61811,577.90225"
     id="path678-07-8-9-4-5"
     transform="matrix(-0.01806762,0,0,-0.01806762,211.94227,49.099869)"
     sodipodi:nodetypes="ccccccc" />
  <path
     style="fill:none;stroke:#000000;stroke-width:1;stroke-linecap:butt;stroke-linejoin:miter;stroke-dasharray:none;stroke-opacity:1"
     d="m 799.50084,179.45232 v 80.2519"
     id="path1256"
     transform="matrix(0.2645875,0,0,0.2645875,-0.00689182,-14.043685)" />
  <circle
     style="fill:none;fill-rule:evenodd;stroke:#000000;stroke-width:1.75621;stroke-dasharray:none;stroke-opacity:1"
     id="path294"
     cx="556.20648"
     cy="80.812057"
     r="54.872387"
     transform="matrix(0.15065851,0,0,0.15065851,85.34255,31.878956)" />
  <path
     style="fill:none;stroke:#000000;stroke-width:1;stroke-linecap:butt;stroke-linejoin:miter;stroke-dasharray:none;stroke-opacity:1"
     d="m 211.7394,209.95033 10.75928,22.74588 c 1.763,4.43463 8.79031,3.41692 8.79031,3.41692 L 228.45807,118.30594 231.28899,0.50372534 h -3.5005 c -3.83195,-0.26801253 -5.43297,4.56236706 -5.43297,4.56236706 l -4.95307,11.5032106 c -13.46133,28.385859 -30.82691,30.604134 -30.82691,30.604134 -28.67387,5.021467 -41.70961,18.820059 -41.70961,18.820059 l -2.40709,2.068473"
     id="path1076"
     transform="matrix(0.2645875,0,0,0.2645875,-0.00689182,0.0016523)"
     sodipodi:nodetypes="ccccccccccc" />
  <path
     style="fill:none;stroke:#000000;stroke-width:1;stroke-linecap:butt;stroke-linejoin:miter;stroke-dasharray:none;stroke-opacity:1"
     d="M 87.364724,305.73706 H 234.40542 l -22.66517,-90.5019 -101.58933,-6.1e-4 z"
     id="path1082"
     transform="matrix(0.2645875,0,0,0.2645875,-0.00689182,0.00165227)" />
  <path
     id="path1084-4"
     style="fill:none;fill-rule:evenodd;stroke:#000000;stroke-width:0.839002;stroke-dasharray:none;stroke-opacity:1"
     transform="matrix(0.30730308,0,0,0.3236277,12.770034,-11.483792)"
     d="m 53.263216,211.45797 -5.21e-4,-77.06667 c -2e-6,-24.15633 19.582571,-43.738904 43.7389,-43.738903 24.156325,2e-6 43.738895,19.582573 43.738895,43.738903 l -0.0101,77.06766"
     sodipodi:nodetypes="csc" />
  <path
     style="fill:none;stroke:#000000;stroke-width:1;stroke-linecap:butt;stroke-linejoin:miter;stroke-dasharray:none;stroke-opacity:1"
     d="m 149.67926,97.974441 22.53325,6.05e-4 11.98098,20.355194 -11.98037,20.34065 h -22.53386 l -11.97614,-20.34187 z"
     id="path1134"
     transform="matrix(0.2645875,0,0,0.2645875,-0.00689182,0.00165227)" />
  <path
     style="fill:none;stroke:#000000;stroke-width:1;stroke-linecap:butt;stroke-linejoin:miter;stroke-dasharray:none;stroke-opacity:1"
     d="m 150.44215,100.09307 h 21.00287 l 10.48268,18.21863 -10.48268,18.20469 H 150.44215 L 139.95887,118.3117 Z"
     id="path1136"
     transform="matrix(0.2645875,0,0,0.2645875,-0.00689182,0.00165227)" />
  <circle
     style="fill:none;fill-rule:evenodd;stroke:#000000;stroke-width:1.22936;stroke-dasharray:none;stroke-opacity:1"
     id="path1138"
     cx="160.56409"
     cy="101.07743"
     r="13.281611"
     transform="matrix(0.21522329,0,0,0.21522329,8.0195744,9.549388)" />
  <circle
     style="fill:none;fill-rule:evenodd;stroke:#000000;stroke-width:1.51206;stroke-dasharray:none;stroke-opacity:1"
     id="path1138-9"
     cx="160.56409"
     cy="101.07743"
     r="13.281611"
     transform="matrix(0.17582712,0,0,0.17414697,14.345184,13.701277)" />
  <path
     style="fill:none;stroke:#000000;stroke-width:1;stroke-linecap:butt;stroke-linejoin:miter;stroke-dasharray:none;stroke-opacity:1"
     d="M 0.52666383,305.73645 0.5260587,332.50012 H 321.36632 l 6e-4,-26.76367 z"
     id="path1175"
     transform="matrix(0.2645875,0,0,0.2645875,-0.00689182,0.00165227)" />
  <path
     style="fill:none;stroke:#000000;stroke-width:1;stroke-linecap:butt;stroke-linejoin:miter;stroke-dasharray:none;stroke-opacity:1"
     d="m 228.45807,106.52093 10.68552,0.0113 -7.3e-4,23.56057 -10.68225,0.004"
     id="path1177"
     transform="matrix(0.2645875,0,0,0.2645875,-0.00689182,0.00165227)" />
  <path
     style="fill:none;stroke:#000000;stroke-width:1;stroke-linecap:butt;stroke-linejoin:miter;stroke-dasharray:none;stroke-opacity:1"
     d="m 239.14359,106.5322 9.7e-4,-18.74129 h 18.72516 v 61.03164 l -18.72873,-3e-4 0.002,-18.72945"
     id="path1179"
     transform="matrix(0.2645875,0,0,0.2645875,-0.00689182,0.00165227)" />
  <path
     id="path1084"
     style="fill:none;fill-rule:evenodd;stroke:#000000;stroke-width:0.821199;stroke-dasharray:none;stroke-opacity:1"
     transform="matrix(0.32073337,0,0,0.32366683,11.465889,-12.18148)"
     d="m 55.225559,147.38649 c -1.275689,-4.10546 -1.962864,-8.47008 -1.962864,-12.99519 -2e-6,-18.80116 11.86252,-34.831673 28.511245,-41.01523 1.029169,-0.382247 1.305036,-1.599828 2.356252,-1.790457 1.057752,-0.191814 2.865887,0.202562 3.928563,-0.01822 2.88689,-0.59978 5.878054,-0.914996 8.94284,-0.914996 24.156325,1e-6 43.738895,19.582573 43.738895,43.738903 l 0.37463,79.51175"
     sodipodi:nodetypes="cssssscc" />
</svg>
