<?xml version="1.0" encoding="UTF-8" standalone="no"?>
<!-- Created with Inkscape (http://www.inkscape.org/) -->

<svg
   width="500"
   height="344.1554"
   viewBox="0 0 132.29166 91.057785"
   version="1.1"
   id="svg8883"
   inkscape:version="1.2.2 (732a01da63, 2022-12-09)"
   sodipodi:docname="desenho vistas com medidas.svg"
   inkscape:export-filename="C:\Users\Comercial\Desktop\Imagens Produto\Armaduras\acessorios\desenho vistas.png"
   inkscape:export-xdpi="300"
   inkscape:export-ydpi="300"
   xmlns:inkscape="http://www.inkscape.org/namespaces/inkscape"
   xmlns:sodipodi="http://sodipodi.sourceforge.net/DTD/sodipodi-0.dtd"
   xmlns="http://www.w3.org/2000/svg"
   xmlns:svg="http://www.w3.org/2000/svg">
  <sodipodi:namedview
     id="namedview8885"
     pagecolor="#ffffff"
     bordercolor="#000000"
     borderopacity="1"
     inkscape:pageshadow="0"
     inkscape:pageopacity="0"
     inkscape:pagecheckerboard="false"
     inkscape:document-units="mm"
     showgrid="false"
     fit-margin-top="0"
     fit-margin-left="0"
     fit-margin-right="0"
     fit-margin-bottom="0"
     inkscape:showpageshadow="false"
     inkscape:zoom="4.8177328"
     inkscape:cx="116.5486"
     inkscape:cy="64.760752"
     inkscape:window-width="1680"
     inkscape:window-height="979"
     inkscape:window-x="1912"
     inkscape:window-y="-8"
     inkscape:window-maximized="1"
     inkscape:current-layer="layer1"
     units="px"
     inkscape:deskcolor="#d1d1d1" />
  <defs
     id="defs8880">
    <marker
       inkscape:stockid="Arrow1Lstart"
       orient="auto"
       refY="0"
       refX="0"
       id="marker11073"
       style="overflow:visible"
       inkscape:isstock="true">
      <path
         inkscape:connector-curvature="0"
         id="path11071"
         d="M 0,0 5,-5 -12.5,0 5,5 Z"
         style="fill:#000000;fill-opacity:1;fill-rule:evenodd;stroke:#000000;stroke-width:1pt;stroke-opacity:1"
         transform="matrix(0.8,0,0,0.8,10,0)" />
    </marker>
    <marker
       inkscape:stockid="Arrow2Lend"
       orient="auto"
       refY="0"
       refX="0"
       id="Arrow2Lend"
       style="overflow:visible"
       inkscape:isstock="true">
      <path
         inkscape:connector-curvature="0"
         id="path10546"
         style="fill:#000000;fill-opacity:1;fill-rule:evenodd;stroke:#000000;stroke-width:0.625;stroke-linejoin:round;stroke-opacity:1"
         d="M 8.7185878,4.0337352 -2.2072895,0.01601326 8.7185884,-4.0017078 c -1.7454984,2.3720609 -1.7354408,5.6174519 -6e-7,8.035443 z"
         transform="matrix(-1.1,0,0,-1.1,-1.1,0)" />
    </marker>
  </defs>
  <g
     inkscape:label="Camada 1"
     inkscape:groupmode="layer"
     id="layer1"
     transform="translate(-1.2682718,-45.461548)"
     style="display:inline">
    <text
       transform="matrix(0.83855355,0.54471503,-0.54456305,0.83878761,0,0)"
       id="text10523"
       y="55.4771"
       x="96.206017"
       style="font-style:normal;font-weight:normal;font-size:4.09837px;line-height:1.25;font-family:sans-serif;letter-spacing:0px;word-spacing:0px;fill:#000000;fill-opacity:1;stroke:none;stroke-width:0.26458333;stroke-dasharray:none"
       xml:space="preserve"
       inkscape:export-filename="C:\Users\Comercial\Desktop\vistas.png"
       inkscape:export-xdpi="300"
       inkscape:export-ydpi="300"><tspan
         style="font-style:normal;font-variant:normal;font-weight:normal;font-stretch:normal;font-size:5.33112px;font-family:Lato;-inkscape-font-specification:'Lato, Normal';font-variant-ligatures:normal;font-variant-caps:normal;font-variant-numeric:normal;font-variant-east-asian:normal;stroke-width:0.26458333;stroke-dasharray:none"
         y="55.4771"
         x="96.206017"
         id="tspan10521"
         sodipodi:role="line">104</tspan></text>
    <text
       transform="matrix(0.8570477,-0.51510994,0.51496622,0.85728692,0,0)"
       id="text10523-0"
       y="52.530571"
       x="-19.562592"
       style="font-style:normal;font-weight:normal;font-size:4.09837px;line-height:1.25;font-family:sans-serif;letter-spacing:0px;word-spacing:0px;display:inline;fill:#000000;fill-opacity:1;stroke:none;stroke-width:0.26458333;stroke-dasharray:none"
       xml:space="preserve"
       inkscape:export-filename="C:\Users\Comercial\Desktop\vistas.png"
       inkscape:export-xdpi="300"
       inkscape:export-ydpi="300"><tspan
         style="font-style:normal;font-variant:normal;font-weight:normal;font-stretch:normal;font-size:5.33112px;font-family:Lato;-inkscape-font-specification:'Lato, Normal';font-variant-ligatures:normal;font-variant-caps:normal;font-variant-numeric:normal;font-variant-east-asian:normal;stroke-width:0.26458333;stroke-dasharray:none"
         y="52.530571"
         x="-19.562592"
         id="tspan10521-5"
         sodipodi:role="line">15</tspan></text>
    <path
       d="M 9.9016758,58.187246 19.862568,52.247734"
       style="display:inline;fill:none;stroke:#000000;stroke-width:0.26458333;stroke-linecap:butt;stroke-linejoin:miter;stroke-miterlimit:9.98343;stroke-dasharray:none;stroke-opacity:1"
       id="path5421-4-1"
       inkscape:connector-curvature="0"
       inkscape:export-filename="C:\Users\Comercial\Desktop\vistas.png"
       inkscape:export-xdpi="300"
       inkscape:export-ydpi="300" />
    <path
       style="display:inline;fill:#000000;fill-opacity:1;stroke:#000000;stroke-width:0.26458333;stroke-linecap:round;stroke-linejoin:round;stroke-miterlimit:4;stroke-dasharray:none;stroke-opacity:1"
       d="M 11.673934,58.710094 9.907002,56.676902 8.2007399,59.937888 11.681333,58.718607"
       id="path4048-9-9-3-0-7-5"
       inkscape:connector-curvature="0"
       inkscape:export-filename="C:\Users\Comercial\Desktop\vistas.png"
       inkscape:export-xdpi="300"
       inkscape:export-ydpi="300" />
    <g
       id="g3296"
       transform="translate(-14.693832,39.131162)"
       style="display:inline">
      <g
         stroke="#000000"
         stroke-width="0.26459"
         id="g3565"
         transform="matrix(0.99998429,0,0,0.99998429,59.265393,53.132518)"
         style="stroke:#000000;stroke-opacity:1" />
      <path
         style="fill:none;stroke:#000000;stroke-width:1px;stroke-linecap:butt;stroke-linejoin:miter;stroke-opacity:1"
         d="M 365.15032,171.27839 136.6417,39.384058"
         id="path4183"
         transform="matrix(0.26458334,0,0,0.26458334,26.255762,6.3242902)" />
      <path
         style="fill:none;stroke:#000000;stroke-width:1px;stroke-linecap:butt;stroke-linejoin:miter;stroke-opacity:1"
         d="m 133.62502,52.593512 c 0,0 2.78941,14.163781 17.4986,19.125067"
         id="path4226"
         transform="matrix(0.26458334,0,0,0.26458334,26.255762,6.3242902)" />
      <path
         style="fill:none;stroke:#000000;stroke-width:1px;stroke-linecap:round;stroke-linejoin:round;stroke-opacity:1"
         d="M 56.791485,28.048334 1.6271801,60.041794 c 0,0 -3.5394192,1.760163 -0.4608795,3.940663 L 396.74426,292.55305 c 0,0 3.58865,2.18029 7.43862,-0.0208 l 55.15243,-31.97275 -61.8612,-35.68904 1e-5,-15.53017 c 0,0 -0.25434,-4.56816 -3.97464,-6.72713 l -10.39776,-6.2644 -7.88072,4.6353 10.66666,6.02755 c 0,0 3.92177,1.8181 3.93881,6.73312 l -0.01,15.50507 L 111.01936,68.38615 V 59.343199 L 56.791366,28.048334"
         id="path4087"
         transform="matrix(0.26458334,0,0,0.26458334,26.41207,6.4398133)"
         sodipodi:nodetypes="ccccccccccccccccc" />
      <path
         style="fill:none;stroke:#000000;stroke-width:1px;stroke-linecap:round;stroke-linejoin:round;stroke-opacity:1"
         d="m 0.59710745,62.451221 0.002941,7.408344 c 0,0 -0.29677044,2.496515 2.78420395,4.305702 L 397.34853,301.32152 c 0,0 3.38784,2.57568 7.20502,-0.005 l 54.20069,-31.06259 c 0,0 1.22061,-0.72182 1.18101,-2.53092 l -0.006,-6.74428"
         id="path4093"
         transform="matrix(0.26458334,0,0,0.26458334,26.255762,6.3242902)"
         sodipodi:nodetypes="cccccccc" />
      <path
         style="fill:none;stroke:#000000;stroke-width:1px;stroke-linecap:round;stroke-linejoin:round;stroke-opacity:1"
         d="m 397.11704,292.98226 0.0361,8.22659"
         id="path4099"
         transform="matrix(0.26458334,0,0,0.26458334,26.255762,6.3242902)" />
      <path
         style="fill:none;stroke:#000000;stroke-width:1px;stroke-linecap:round;stroke-linejoin:round;stroke-opacity:1"
         d="m 397.11704,292.98226 0.0361,8.22659"
         id="path4099-2"
         transform="matrix(0.26458334,0,0,0.26458334,28.280019,6.3262534)" />
      <path
         style="fill:none;stroke:#000000;stroke-width:1px;stroke-linecap:round;stroke-linejoin:round;stroke-opacity:1"
         d="m 390.40647,229.71591 7.65842,-4.40882"
         id="path4123"
         transform="matrix(0.26458334,0,0,0.26458334,26.255762,6.3242902)" />
      <path
         style="fill:none;stroke:#000000;stroke-width:1px;stroke-linecap:round;stroke-linejoin:round;stroke-opacity:1"
         d="m 390.41725,214.18136 7.64765,-4.40444"
         id="path4125"
         transform="matrix(0.26458334,0,0,0.26458334,26.255762,6.3242902)" />
      <path
         style="fill:none;stroke:#000000;stroke-width:1px;stroke-linecap:round;stroke-linejoin:round;stroke-opacity:1"
         d="m 390.41725,214.18136 7.64765,-4.40444"
         id="path4125-1"
         transform="matrix(0.26458334,0,0,0.26458334,25.208328,4.5416193)" />
      <path
         style="fill:none;stroke:#000000;stroke-width:1px;stroke-linecap:round;stroke-linejoin:round;stroke-opacity:1"
         d="m 375.81328,201.65361 c 0,0 -8.68894,14.59877 -23.07188,-9.39421 -0.21035,-0.3509 -0.67865,-1.39123 -0.67865,-1.39123 -6.85474,-18.31796 2.84602,-21.05213 7.52281,-19.58488 2.94143,0.92282 5.32632,2.20509 5.32632,2.20509 0,0 -0.003,-10.06658 8.45803,-14.94721"
         id="path4149"
         transform="matrix(0.26458334,0,0,0.26458334,26.255762,6.3242902)"
         sodipodi:nodetypes="cssscc" />
      <path
         style="fill:none;stroke:#000000;stroke-width:1px;stroke-linecap:butt;stroke-linejoin:miter;stroke-opacity:1"
         d="m 367.85694,206.02941 c -3.8363,-0.29485 -8.95332,-3.49047 -15.11554,-13.77001 -0.21035,-0.3509 -0.67865,-1.39123 -0.67865,-1.39123 -2.81412,-7.52021 -2.83797,-12.41391 -1.56467,-15.46868"
         id="path4149-5"
         transform="matrix(0.26458334,0,0,0.26458334,28.279102,5.0993832)"
         sodipodi:nodetypes="cssc" />
      <path
         style="fill:none;stroke:#000000;stroke-width:1px;stroke-linecap:round;stroke-linejoin:round;stroke-opacity:1"
         d="m 364.91188,173.48838 7.65481,-4.05769 0.80323,-10.88952"
         id="path4173"
         transform="matrix(0.26458334,0,0,0.26458334,26.255762,6.3242902)"
         sodipodi:nodetypes="ccc" />
      <path
         style="fill:none;stroke:#000000;stroke-width:1px;stroke-linecap:round;stroke-linejoin:round;stroke-opacity:1"
         d="m 373.01912,164.91118 8.80678,-5.21212 c 0,0 7.09261,-3.93384 8.12067,-10.8997 l 0.21731,-15.52735 -11.57258,-6.72868 -5.80126,3.24821 -0.003,15.76371 -10.8787,6.25581 11.57251,6.73011 10.89725,-6.26365 5.56894,-3.47816"
         id="path4175"
         transform="matrix(0.26458334,0,0,0.26458334,26.255762,6.3242902)" />
      <path
         style="fill:none;stroke:#000000;stroke-width:1px;stroke-linecap:round;stroke-linejoin:round;stroke-opacity:1"
         d="m 372.79004,129.79155 11.58759,6.72241 5.80089,-3.24821"
         id="path4177"
         transform="matrix(0.26458334,0,0,0.26458334,26.255762,6.3242902)" />
      <path
         style="fill:none;stroke:#000000;stroke-width:1px;stroke-linecap:round;stroke-linejoin:round;stroke-opacity:1"
         d="m 384.37764,136.51396 4.7e-4,15.76356 -11.57525,-6.72046"
         id="path4179"
         transform="matrix(0.26458334,0,0,0.26458334,26.255762,6.3242902)" />
      <path
         style="fill:none;stroke:#000000;stroke-width:1px;stroke-linecap:round;stroke-linejoin:round;stroke-opacity:1"
         d="m 384.36195,152.27579 -0.43675,6.02898"
         id="path4181"
         transform="matrix(0.26458334,0,0,0.26458334,26.255762,6.3242902)" />
      <path
         style="fill:none;stroke:#000000;stroke-width:1px;stroke-linecap:round;stroke-linejoin:round;stroke-opacity:1"
         d="m 378.73626,161.5276 3.08964,-1.82854 c 0,0 7.09261,-3.93384 8.12067,-10.8997 l 0.21731,-15.52735 -11.57258,-6.72868 -5.80126,3.24821 -0.003,15.76371 -10.8787,6.25581 11.57251,6.73011 10.89725,-6.26365 5.56894,-3.47816"
         id="path4175-0"
         transform="matrix(0.26458334,0,0,0.26458334,-31.50563,-27.040999)"
         sodipodi:nodetypes="ccccccccccc" />
      <path
         style="fill:none;stroke:#000000;stroke-width:1px;stroke-linecap:round;stroke-linejoin:round;stroke-opacity:1"
         d="m 372.79004,129.79155 11.58759,6.72241 5.80089,-3.24821"
         id="path4177-8"
         transform="matrix(0.26458334,0,0,0.26458334,-31.50563,-27.040999)"
         sodipodi:nodetypes="ccc" />
      <path
         style="fill:none;stroke:#000000;stroke-width:1px;stroke-linecap:round;stroke-linejoin:round;stroke-opacity:1"
         d="m 384.37764,136.51396 4.7e-4,15.76356 -11.57525,-6.72046"
         id="path4179-4"
         transform="matrix(0.26458334,0,0,0.26458334,-31.50563,-27.040999)"
         sodipodi:nodetypes="ccc" />
      <path
         style="fill:none;stroke:#000000;stroke-width:1px;stroke-linecap:round;stroke-linejoin:round;stroke-opacity:1"
         d="m 384.36195,152.27579 -0.43675,6.02898"
         id="path4181-3"
         transform="matrix(0.26458334,0,0,0.26458334,-31.50563,-27.040999)"
         sodipodi:nodetypes="cc" />
      <path
         style="fill:none;stroke:#000000;stroke-width:1px;stroke-linecap:butt;stroke-linejoin:miter;stroke-opacity:1"
         d="M 361.90835,151.81106 143.5941,25.705467"
         id="path4185"
         transform="matrix(0.26458334,0,0,0.26458334,26.255762,6.3242902)" />
      <path
         style="fill:none;stroke:#000000;stroke-width:1px;stroke-linecap:butt;stroke-linejoin:miter;stroke-opacity:1"
         d="m 143.59758,25.706035 c 0,0 -7.59882,4.57122 -6.95588,13.678023 l 0.0287,2.672079 c 0,0 14.36677,7.37674 15.4965,23.054189 0,0 1.60427,17.677134 -14.82695,8.352875 0,0 -8.56865,-5.793984 -11.35609,-16.461097"
         id="path4224"
         transform="matrix(0.26458334,0,0,0.26458334,26.255762,6.3242902)" />
      <path
         style="fill:none;stroke:#000000;stroke-width:1px;stroke-linecap:round;stroke-linejoin:round;stroke-opacity:1"
         d="m 125.98386,57.002105 7.63618,-4.405841 -10.41639,-6.265081 c 0,0 -0.85686,-0.648712 -2.78134,-0.222522 l -7.18578,4.170913 z"
         id="path4228"
         transform="matrix(0.26458334,0,0,0.26458334,26.255762,6.3242902)" />
      <path
         style="fill:none;stroke:#000000;stroke-width:1px;stroke-linecap:round;stroke-linejoin:round;stroke-opacity:1"
         d="m 123.20365,46.331184 -7.89482,4.644009"
         id="path4230"
         transform="matrix(0.26458334,0,0,0.26458334,26.255762,6.3242902)" />
      <path
         style="fill:none;stroke:#000000;stroke-width:1px;stroke-linecap:butt;stroke-linejoin:miter;stroke-opacity:1"
         d="m 113.12074,50.395398 c 0,0 -1.49616,0.288615 -1.51667,1.966844 l 0.006,7.41758"
         id="path4232"
         transform="matrix(0.26458334,0,0,0.26458334,26.255762,6.3242902)" />
    </g>
  </g>
  <g
     inkscape:groupmode="layer"
     id="layer2"
     inkscape:label="quota"
     transform="translate(2.1022359)">
    <g
       id="g17644"
       transform="matrix(1.5109706,0,0,1.5113923,1.0291158,-0.05359647)"
       style="stroke-width:0.661734"
       inkscape:export-filename="C:\Users\Comercial\Desktop\vistas.png"
       inkscape:export-xdpi="300"
       inkscape:export-ydpi="300">
      <path
         style="display:inline;fill:#000000;fill-opacity:1;stroke:#000000;stroke-width:0.116723;stroke-linecap:round;stroke-linejoin:round;stroke-miterlimit:4;stroke-dasharray:none;stroke-opacity:1"
         d="m 73.104739,54.174222 -0.891233,1.543661 2.407702,0.365279 -1.512737,-1.915404"
         id="path4048-9-9-3-0"
         inkscape:connector-curvature="0" />
      <path
         sodipodi:nodetypes="cc"
         d="M 0.2197084,19.095334 3.4953388,13.36628"
         style="display:inline;fill:none;fill-opacity:1;stroke:#000000;stroke-width:0.116723;stroke-linecap:round;stroke-linejoin:round;stroke-miterlimit:4;stroke-dasharray:none;stroke-opacity:1"
         id="path118-0-65-27"
         inkscape:connector-curvature="0"
         inkscape:export-filename="C:\Users\Comercial\Desktop\ARIP Doublee.png"
         inkscape:export-xdpi="300"
         inkscape:export-ydpi="300" />
      <path
         inkscape:connector-curvature="0"
         style="display:inline;fill:#4d4d4d;fill-opacity:1;stroke:#000000;stroke-width:0.116723;stroke-linecap:butt;stroke-linejoin:miter;stroke-miterlimit:4;stroke-dasharray:none;stroke-opacity:1"
         d="M 3.6520866,15.126082 72.860063,55.134899"
         id="path4046-4-7-1-9"
         sodipodi:nodetypes="cc" />
      <path
         inkscape:connector-curvature="0"
         id="path4054-4-6-1"
         d="M 4.4190675,16.609289 5.310296,15.065636 2.9026329,14.700357 4.4153415,16.615743"
         style="display:inline;fill:#000000;fill-opacity:1;stroke:#000000;stroke-width:0.116723;stroke-linecap:round;stroke-linejoin:round;stroke-miterlimit:4;stroke-dasharray:none;stroke-opacity:1" />
      <path
         sodipodi:nodetypes="cc"
         d="m 72.403911,60.224715 3.275631,-5.729054"
         style="display:inline;fill:none;fill-opacity:1;stroke:#000000;stroke-width:0.116723;stroke-linecap:round;stroke-linejoin:round;stroke-miterlimit:4;stroke-dasharray:none;stroke-opacity:1"
         id="path118-0-65-27-6"
         inkscape:connector-curvature="0"
         inkscape:export-filename="C:\Users\Comercial\Desktop\ARIP Doublee.png"
         inkscape:export-xdpi="300"
         inkscape:export-ydpi="300" />
    </g>
    <path
       style="display:inline;fill:#000000;fill-opacity:1;stroke:#000000;stroke-width:0.17639;stroke-linecap:round;stroke-linejoin:round;stroke-miterlimit:4;stroke-dasharray:none;stroke-opacity:1"
       d="m 15.203986,5.9710572 1.766933,2.0331916 1.706262,-3.2609857 -3.480594,1.21928"
       id="path4048-9-9-3-0-7"
       inkscape:connector-curvature="0"
       inkscape:export-filename="C:\Users\Comercial\Desktop\vistas.png"
       inkscape:export-xdpi="300"
       inkscape:export-ydpi="300" />
    <path
       sodipodi:nodetypes="cc"
       d="M 22.501394,6.7446178 13.844961,1.7938547"
       style="display:inline;fill:none;fill-opacity:1;stroke:#000000;stroke-width:0.17639;stroke-linecap:round;stroke-linejoin:round;stroke-miterlimit:4;stroke-dasharray:none;stroke-opacity:1"
       id="path118-0-65-27-6-4"
       inkscape:connector-curvature="0"
       inkscape:export-filename="C:\Users\Comercial\Desktop\vistas.png"
       inkscape:export-xdpi="300"
       inkscape:export-ydpi="300" />
    <path
       sodipodi:nodetypes="cc"
       d="M 6.6423918,15.782763 -2.0140409,10.832"
       style="display:inline;fill:none;fill-opacity:1;stroke:#000000;stroke-width:0.17639;stroke-linecap:round;stroke-linejoin:round;stroke-miterlimit:4;stroke-dasharray:none;stroke-opacity:1"
       id="path118-0-65-27-6-4-2"
       inkscape:connector-curvature="0"
       inkscape:export-filename="C:\Users\Comercial\Desktop\vistas.png"
       inkscape:export-xdpi="300"
       inkscape:export-ydpi="300" />
  </g>
</svg>
