<?xml version="1.0" encoding="UTF-8" standalone="no"?>
<svg
   width="460.43613"
   height="303.00909"
   version="1.1"
   viewBox="0 0 121.82564 80.170881"
   id="svg3579"
   sodipodi:docname="desenho vistas.svg"
   inkscape:version="1.2.2 (732a01da63, 2022-12-09)"
   xmlns:inkscape="http://www.inkscape.org/namespaces/inkscape"
   xmlns:sodipodi="http://sodipodi.sourceforge.net/DTD/sodipodi-0.dtd"
   xmlns="http://www.w3.org/2000/svg"
   xmlns:svg="http://www.w3.org/2000/svg">
  <defs
     id="defs3583" />
  <sodipodi:namedview
     id="namedview3581"
     pagecolor="#505050"
     bordercolor="#ffffff"
     borderopacity="1"
     inkscape:showpageshadow="0"
     inkscape:pageopacity="0"
     inkscape:pagecheckerboard="1"
     inkscape:deskcolor="#505050"
     showgrid="false"
     inkscape:zoom="1.3739703"
     inkscape:cx="276.20685"
     inkscape:cy="179.04318"
     inkscape:window-width="1920"
     inkscape:window-height="1009"
     inkscape:window-x="-8"
     inkscape:window-y="-8"
     inkscape:window-maximized="1"
     inkscape:current-layer="svg3579" />
  <g
     stroke="#000000"
     stroke-width="0.26459"
     id="g3565"
     transform="translate(33.01015,46.824516)"
     style="stroke:#000000;stroke-opacity:1" />
  <path
     style="fill:none;stroke:#000000;stroke-width:1px;stroke-linecap:butt;stroke-linejoin:miter;stroke-opacity:1"
     d="M 365.15032,171.27839 136.6417,39.384058"
     id="path4183"
     transform="matrix(0.2645875,0,0,0.2645875,0,0.01555245)" />
  <path
     style="fill:none;stroke:#000000;stroke-width:1px;stroke-linecap:butt;stroke-linejoin:miter;stroke-opacity:1"
     d="m 133.62502,52.593512 c 0,0 2.78941,14.163781 17.4986,19.125067"
     id="path4226"
     transform="matrix(0.2645875,0,0,0.2645875,0,0.01555245)" />
  <path
     style="fill:none;stroke:#000000;stroke-width:1px;stroke-linecap:round;stroke-linejoin:round;stroke-opacity:1"
     d="M 56.791485,28.048334 1.6271801,60.041794 c 0,0 -3.5394192,1.760163 -0.4608795,3.940663 L 396.74426,292.55305 c 0,0 3.58865,2.18029 7.43862,-0.0208 l 55.15243,-31.97275 -61.8612,-35.68904 1e-5,-15.53017 c 0,0 -0.25434,-4.56816 -3.97464,-6.72713 l -10.39776,-6.2644 -7.88072,4.6353 10.66666,6.02755 c 0,0 3.92177,1.8181 3.93881,6.73312 l -0.01,15.50507 L 111.01936,68.38615 V 59.343199 L 56.791366,28.048334"
     id="path4087"
     transform="matrix(0.2645875,0,0,0.2645875,0.15631065,0.13107736)"
     sodipodi:nodetypes="ccccccccccccccccc" />
  <path
     style="fill:none;stroke:#000000;stroke-width:1px;stroke-linecap:round;stroke-linejoin:round;stroke-opacity:1"
     d="m 0.59710745,62.451221 0.002941,7.408344 c 0,0 -0.29677044,2.496515 2.78420395,4.305702 L 397.34853,301.32152 c 0,0 3.38784,2.57568 7.20502,-0.005 l 54.20069,-31.06259 c 0,0 1.22061,-0.72182 1.18101,-2.53092 l -0.006,-6.74428"
     id="path4093"
     transform="matrix(0.2645875,0,0,0.2645875,0,0.01555245)"
     sodipodi:nodetypes="cccccccc" />
  <path
     style="fill:none;stroke:#000000;stroke-width:1px;stroke-linecap:round;stroke-linejoin:round;stroke-opacity:1"
     d="m 397.11704,292.98226 0.0361,8.22659"
     id="path4099"
     transform="matrix(0.2645875,0,0,0.2645875,0,0.01555245)" />
  <path
     style="fill:none;stroke:#000000;stroke-width:1px;stroke-linecap:round;stroke-linejoin:round;stroke-opacity:1"
     d="m 397.11704,292.98226 0.0361,8.22659"
     id="path4099-2"
     transform="matrix(0.2645875,0,0,0.2645875,2.0242888,0.01751563)" />
  <path
     style="fill:none;stroke:#000000;stroke-width:1px;stroke-linecap:round;stroke-linejoin:round;stroke-opacity:1"
     d="m 390.40647,229.71591 7.65842,-4.40882"
     id="path4123"
     transform="matrix(0.2645875,0,0,0.2645875,0,0.01555245)" />
  <path
     style="fill:none;stroke:#000000;stroke-width:1px;stroke-linecap:round;stroke-linejoin:round;stroke-opacity:1"
     d="m 390.41725,214.18136 7.64765,-4.40444"
     id="path4125"
     transform="matrix(0.2645875,0,0,0.2645875,0,0.01555245)" />
  <path
     style="fill:none;stroke:#000000;stroke-width:1px;stroke-linecap:round;stroke-linejoin:round;stroke-opacity:1"
     d="m 390.41725,214.18136 7.64765,-4.40444"
     id="path4125-1"
     transform="matrix(0.2645875,0,0,0.2645875,-1.0474507,-1.7671465)" />
  <path
     style="fill:none;stroke:#000000;stroke-width:1px;stroke-linecap:round;stroke-linejoin:round;stroke-opacity:1"
     d="m 375.81328,201.65361 c 0,0 -8.68894,14.59877 -23.07188,-9.39421 -0.21035,-0.3509 -0.67865,-1.39123 -0.67865,-1.39123 -6.85474,-18.31796 2.84602,-21.05213 7.52281,-19.58488 2.94143,0.92282 5.32632,2.20509 5.32632,2.20509 0,0 -0.003,-10.06658 8.45803,-14.94721"
     id="path4149"
     transform="matrix(0.2645875,0,0,0.2645875,0,0.01555245)"
     sodipodi:nodetypes="cssscc" />
  <path
     style="fill:none;stroke:#000000;stroke-width:1px;stroke-linecap:butt;stroke-linejoin:miter;stroke-opacity:1"
     d="m 367.85694,206.02941 c -3.8363,-0.29485 -8.95332,-3.49047 -15.11554,-13.77001 -0.21035,-0.3509 -0.67865,-1.39123 -0.67865,-1.39123 -2.81412,-7.52021 -2.83797,-12.41391 -1.56467,-15.46868"
     id="path4149-5"
     transform="matrix(0.2645875,0,0,0.2645875,2.0233714,-1.2093738)"
     sodipodi:nodetypes="cssc" />
  <path
     style="fill:none;stroke:#000000;stroke-width:1px;stroke-linecap:round;stroke-linejoin:round;stroke-opacity:1"
     d="m 364.91188,173.48838 7.65481,-4.05769 0.80323,-10.88952"
     id="path4173"
     transform="matrix(0.2645875,0,0,0.2645875,0,0.01555245)"
     sodipodi:nodetypes="ccc" />
  <path
     style="fill:none;stroke:#000000;stroke-width:1px;stroke-linecap:round;stroke-linejoin:round;stroke-opacity:1"
     d="m 373.01912,164.91118 8.80678,-5.21212 c 0,0 7.09261,-3.93384 8.12067,-10.8997 l 0.21731,-15.52735 -11.57258,-6.72868 -5.80126,3.24821 -0.003,15.76371 -10.8787,6.25581 11.57251,6.73011 10.89725,-6.26365 5.56894,-3.47816"
     id="path4175"
     transform="matrix(0.2645875,0,0,0.2645875,0,0.01555245)" />
  <path
     style="fill:none;stroke:#000000;stroke-width:1px;stroke-linecap:round;stroke-linejoin:round;stroke-opacity:1"
     d="m 372.79004,129.79155 11.58759,6.72241 5.80089,-3.24821"
     id="path4177"
     transform="matrix(0.2645875,0,0,0.2645875,0,0.01555245)" />
  <path
     style="fill:none;stroke:#000000;stroke-width:1px;stroke-linecap:round;stroke-linejoin:round;stroke-opacity:1"
     d="m 384.37764,136.51396 4.7e-4,15.76356 -11.57525,-6.72046"
     id="path4179"
     transform="matrix(0.2645875,0,0,0.2645875,0,0.01555245)" />
  <path
     style="fill:none;stroke:#000000;stroke-width:1px;stroke-linecap:round;stroke-linejoin:round;stroke-opacity:1"
     d="m 384.36195,152.27579 -0.43675,6.02898"
     id="path4181"
     transform="matrix(0.2645875,0,0,0.2645875,0,0.01555245)" />
  <path
     style="fill:none;stroke:#000000;stroke-width:1px;stroke-linecap:round;stroke-linejoin:round;stroke-opacity:1"
     d="m 378.73626,161.5276 3.08964,-1.82854 c 0,0 7.09261,-3.93384 8.12067,-10.8997 l 0.21731,-15.52735 -11.57258,-6.72868 -5.80126,3.24821 -0.003,15.76371 -10.8787,6.25581 11.57251,6.73011 10.89725,-6.26365 5.56894,-3.47816"
     id="path4175-0"
     transform="matrix(0.2645875,0,0,0.2645875,-57.762299,-33.350261)"
     sodipodi:nodetypes="ccccccccccc" />
  <path
     style="fill:none;stroke:#000000;stroke-width:1px;stroke-linecap:round;stroke-linejoin:round;stroke-opacity:1"
     d="m 372.79004,129.79155 11.58759,6.72241 5.80089,-3.24821"
     id="path4177-8"
     transform="matrix(0.2645875,0,0,0.2645875,-57.762299,-33.350261)"
     sodipodi:nodetypes="ccc" />
  <path
     style="fill:none;stroke:#000000;stroke-width:1px;stroke-linecap:round;stroke-linejoin:round;stroke-opacity:1"
     d="m 384.37764,136.51396 4.7e-4,15.76356 -11.57525,-6.72046"
     id="path4179-4"
     transform="matrix(0.2645875,0,0,0.2645875,-57.762299,-33.350261)"
     sodipodi:nodetypes="ccc" />
  <path
     style="fill:none;stroke:#000000;stroke-width:1px;stroke-linecap:round;stroke-linejoin:round;stroke-opacity:1"
     d="m 384.36195,152.27579 -0.43675,6.02898"
     id="path4181-3"
     transform="matrix(0.2645875,0,0,0.2645875,-57.762299,-33.350261)"
     sodipodi:nodetypes="cc" />
  <path
     style="fill:none;stroke:#000000;stroke-width:1px;stroke-linecap:butt;stroke-linejoin:miter;stroke-opacity:1"
     d="M 361.90835,151.81106 143.5941,25.705467"
     id="path4185"
     transform="matrix(0.2645875,0,0,0.2645875,0,0.01555245)" />
  <path
     style="fill:none;stroke:#000000;stroke-width:1px;stroke-linecap:butt;stroke-linejoin:miter;stroke-opacity:1"
     d="m 143.59758,25.706035 c 0,0 -7.59882,4.57122 -6.95588,13.678023 l 0.0287,2.672079 c 0,0 14.36677,7.37674 15.4965,23.054189 0,0 1.60427,17.677134 -14.82695,8.352875 0,0 -8.56865,-5.793984 -11.35609,-16.461097"
     id="path4224"
     transform="matrix(0.2645875,0,0,0.2645875,0,0.01555245)" />
  <path
     style="fill:none;stroke:#000000;stroke-width:1px;stroke-linecap:round;stroke-linejoin:round;stroke-opacity:1"
     d="m 125.98386,57.002105 7.63618,-4.405841 -10.41639,-6.265081 c 0,0 -0.85686,-0.648712 -2.78134,-0.222522 l -7.18578,4.170913 z"
     id="path4228"
     transform="matrix(0.2645875,0,0,0.2645875,0,0.01555245)" />
  <path
     style="fill:none;stroke:#000000;stroke-width:1px;stroke-linecap:round;stroke-linejoin:round;stroke-opacity:1"
     d="m 123.20365,46.331184 -7.89482,4.644009"
     id="path4230"
     transform="matrix(0.2645875,0,0,0.2645875,0,0.01555245)" />
  <path
     style="fill:none;stroke:#000000;stroke-width:1px;stroke-linecap:butt;stroke-linejoin:miter;stroke-opacity:1"
     d="m 113.12074,50.395398 c 0,0 -1.49616,0.288615 -1.51667,1.966844 l 0.006,7.41758"
     id="path4232"
     transform="matrix(0.2645875,0,0,0.2645875,0,0.01555245)" />
</svg>
