<?xml version="1.0" encoding="UTF-8" standalone="no"?>
<svg
   width="659.06415"
   height="75"
   version="1.1"
   viewBox="0 0 659.06413 74.999999"
   xml:space="preserve"
   id="svg203"
   sodipodi:docname="desenho bt XX00ZZ.svg"
   inkscape:version="1.2.2 (732a01da63, 2022-12-09)"
   xmlns:inkscape="http://www.inkscape.org/namespaces/inkscape"
   xmlns:sodipodi="http://sodipodi.sourceforge.net/DTD/sodipodi-0.dtd"
   xmlns="http://www.w3.org/2000/svg"
   xmlns:svg="http://www.w3.org/2000/svg"><defs
     id="defs207" /><sodipodi:namedview
     id="namedview205"
     pagecolor="#505050"
     bordercolor="#ffffff"
     borderopacity="1"
     inkscape:showpageshadow="0"
     inkscape:pageopacity="0"
     inkscape:pagecheckerboard="1"
     inkscape:deskcolor="#505050"
     showgrid="false"
     inkscape:zoom="1.1680144"
     inkscape:cx="259.84269"
     inkscape:cy="94.176921"
     inkscape:window-width="1920"
     inkscape:window-height="1009"
     inkscape:window-x="-8"
     inkscape:window-y="-8"
     inkscape:window-maximized="1"
     inkscape:current-layer="svg203" /><g
     id="g859"
     transform="rotate(180,329.55838,37.500002)"><path
       d="m 443.2095,35.406566 h -546.37907 m 546.37907,37.4647 h -546.37907 m 9.2e-4,0 v 1.629095 m 0,-32.252545 V 66.030081 M 443.21041,42.247816 h -546.37906 m 9.1e-4,23.78194 v 6.84138 m 546.37907,-30.62332 v -6.84138 m 0,30.62332 h -546.37907 m 546.37907,-32.25222 h -546.37907 m 546.37907,39.0936 V 42.24749 m 0,-6.841054 v -1.628249 m -546.37907,1.628249 v 6.84138 m 546.37907,32.25222 V 72.87094 m -546.37907,-39.0936 v 1.628249 m 546.37907,39.0936 h -546.37907 m 9.1e-4,-1.6289 v 1.629095 m 0,-32.252546 v 23.782266 m 0,-3.26e-4 v 6.84138 m 546.37907,-30.62332 v -6.84138 m 0,37.4647 V 42.246513 m 0,-6.841055 V 33.77721 m -546.37907,1.628248 v 6.84138 m 546.37907,32.25222 v -1.629095 m -546.37907,-39.0936 v 1.628248 m 546.36817,30.613612 v -22.85477"
       style="stroke:#000000;stroke-width:1;stroke-dasharray:none;stroke-opacity:1"
       id="path886"
       transform="translate(103.66865,-16.522816)"
       sodipodi:nodetypes="cccccccccccccccccccccccccccccccccccccccccccccccccc" /><g
       fill="none"
       stroke="#000000"
       stroke-linecap="round"
       stroke-width="0.30674"
       id="g193"
       transform="matrix(0.89784388,0,0,0.89784388,317.08069,0.03322743)"><path
         transform="matrix(3.2625,0,0,3.2578,-315.63,-340)"
         d="m 213.01792,127.2314 -1.7111,0.57336 m -10e-4,-21.255 1.7111,0.5724 m -1.4306,-0.47964 0.57357,-1.7191 m 0.57179,2.1019 0.57453,-1.7191 m -38.114,9.3329 h 22.306 m -22.306,1.8129 h 22.306 m 15.807,-11.146 c 0.25291,-0.76414 -0.88754,-1.1467 -1.1414,-0.38255 m -14.666,9.7156 c 0.9801,0 4.5908,-0.12369 5.5414,-0.36721 0.95053,-0.24353 1.8715,-0.60693 2.7323,-1.0786 0.8608,-0.47167 1.6625,-1.0518 2.3821,-1.7258 0.71959,-0.67115 1.3533,-1.4315 1.883,-2.2589 0.53253,-0.83125 0.95819,-1.7268 1.2712,-2.6587 m 0.85768,22.879 c 0.10497,0.31831 0.44377,0.48707 0.76061,0.3816 0.31303,-0.10451 0.48482,-0.44872 0.38079,-0.76415 m -38.114,-11.145 h 22.306 m -5.9e-4,1.8129 c 0.98011,0 4.5909,0.12369 5.5414,0.36722 0.9505,0.24353 1.8715,0.60692 2.7323,1.0786 0.86083,0.47556 1.6625,1.0528 2.3821,1.7268 0.71959,0.67022 1.3533,1.4305 1.883,2.2579 0.53253,0.83125 0.95818,1.7268 1.2712,2.6597 m 0.27915,-0.0942 0.57357,1.7191 m -14.663,-11.528 c 1.1328,0 4.8924,0.14286 5.988,0.42378 1.0966,0.28093 2.1588,0.69992 3.1503,1.2436 0.99155,0.54651 1.9164,1.2129 2.7476,1.9885 0.82741,0.77566 1.5584,1.652 2.1702,2.607 0.61458,0.95495 1.107,1.9885 1.465,3.0672 m -0.28664,0.0968 0.57452,1.7191 m -38.114,-9.3329 h 22.306 m -5.9e-4,-3.2618 c 1.1328,0 4.8924,-0.14286 5.988,-0.42378 1.0966,-0.28093 2.1588,-0.69992 3.1503,-1.2436 0.99155,-0.54651 1.9164,-1.2129 2.7476,-1.9885 0.8274,-0.77472 1.5584,-1.6511 2.1702,-2.607 0.61458,-0.95495 1.107,-1.9885 1.465,-3.0672"
         id="path191"
         sodipodi:nodetypes="ccccccccccccccccscccccccccscccccccccccccccccccccc" /></g><g
       id="g758"
       transform="matrix(3.6861136,0,0,3.6861136,-190.37801,-969.92661)"
       style="stroke:#000000;stroke-width:0.330729;stroke-dasharray:none;stroke-opacity:1"><path
         style="fill:#ffffff;fill-opacity:1;stroke:#000000;stroke-width:1;stroke-linecap:butt;stroke-linejoin:miter;stroke-dasharray:none;stroke-opacity:1"
         d="m 377.18611,-36.53778 h 17.61937 L 367.05675,38.855262 H 349.4374 Z"
         id="path19061-3"
         transform="matrix(0.36168679,0,0,0.36168679,-8.6950027,272.88409)"
         sodipodi:nodetypes="ccccc" /></g></g></svg>
