<?xml version="1.0" encoding="UTF-8" standalone="no"?>
<!-- Created with Inkscape (http://www.inkscape.org/) -->

<svg
   width="189.03076mm"
   height="115.5204mm"
   viewBox="0 0 189.03076 115.5204"
   version="1.1"
   id="svg4586"
   inkscape:version="1.1 (c68e22c387, 2021-05-23)"
   sodipodi:docname="STopo RGB.svg"
   xmlns:inkscape="http://www.inkscape.org/namespaces/inkscape"
   xmlns:sodipodi="http://sodipodi.sourceforge.net/DTD/sodipodi-0.dtd"
   xmlns="http://www.w3.org/2000/svg"
   xmlns:svg="http://www.w3.org/2000/svg">
  <sodipodi:namedview
     id="namedview4588"
     pagecolor="#505050"
     bordercolor="#ffffff"
     borderopacity="1"
     inkscape:pageshadow="0"
     inkscape:pageopacity="0"
     inkscape:pagecheckerboard="1"
     inkscape:document-units="mm"
     showgrid="false"
     inkscape:zoom="0.60221661"
     inkscape:cx="135.33336"
     inkscape:cy="249.07981"
     inkscape:window-width="1680"
     inkscape:window-height="987"
     inkscape:window-x="1912"
     inkscape:window-y="18"
     inkscape:window-maximized="1"
     inkscape:current-layer="layer1" />
  <defs
     id="defs4583" />
  <g
     inkscape:label="Camada 1"
     inkscape:groupmode="layer"
     id="layer1"
     transform="translate(55.029275,-36.494387)">
    <path
       d="M 128.88553,45.41063 -7.920608,124.39569"
       style="fill:none;stroke:#000000;stroke-width:0.15;stroke-linecap:round;stroke-linejoin:round;stroke-miterlimit:4;stroke-dasharray:none"
       id="path6630" />
    <path
       d="M 119.4103,39.94011 -16.832706,118.60004"
       style="fill:none;stroke:#000000;stroke-width:0.15;stroke-linecap:round;stroke-linejoin:round;stroke-miterlimit:4;stroke-dasharray:none"
       id="path6632" />
    <path
       d="M 118.33116,39.3326 -18.461524,118.30989"
       style="fill:none;stroke:#000000;stroke-width:0.15;stroke-linecap:round;stroke-linejoin:round;stroke-miterlimit:4;stroke-dasharray:none"
       id="path6634" />
    <path
       d="M 130.21733,52.8094 -6.541789,131.76732"
       style="fill:none;stroke:#000000;stroke-width:0.15;stroke-linecap:round;stroke-linejoin:round;stroke-miterlimit:4;stroke-dasharray:none"
       id="path6636" />
    <path
       d="M 130.25089,49.3172 -6.541789,128.29449"
       style="fill:none;stroke:#000000;stroke-width:0.15;stroke-linecap:round;stroke-linejoin:round;stroke-miterlimit:4;stroke-dasharray:none"
       id="path6638" />
    <path
       d="M 130.25089,50.3351 -6.541789,129.31239"
       style="fill:none;stroke:#000000;stroke-width:0.15;stroke-linecap:round;stroke-linejoin:round;stroke-miterlimit:4;stroke-dasharray:none"
       id="path6640" />
    <path
       d="M 130.25089,53.93331 -6.541789,132.91059"
       style="fill:none;stroke:#000000;stroke-width:0.15;stroke-linecap:round;stroke-linejoin:round;stroke-miterlimit:4;stroke-dasharray:none"
       id="path6642" />
    <path
       d="m 130.25089,46.21446 v 4.28148"
       style="fill:none;stroke:#000000;stroke-width:0.15;stroke-linecap:round;stroke-linejoin:round;stroke-miterlimit:4;stroke-dasharray:none"
       id="path6644" />
    <path
       d="m 119.59427,38.96165 c -0.0449,0.0248 -0.0873,0.0604 -0.12508,0.10493 -0.0383,0.0451 -0.0709,0.0984 -0.0963,0.15677 -0.0262,0.0602 -0.0442,0.12462 -0.0532,0.18963 -0.005,0.0366 -0.007,0.0732 -0.007,0.10899 6.9e-4,0.0359 0.004,0.071 0.0107,0.10448 1.9e-4,9.8e-4 3.8e-4,0.002 5.7e-4,0.003"
       style="fill:none;stroke:#000000;stroke-width:0.15;stroke-linecap:round;stroke-linejoin:round;stroke-miterlimit:4;stroke-dasharray:none"
       id="path6646" />
    <path
       d="m 130.25089,52.84296 v 1.4237"
       style="fill:none;stroke:#000000;stroke-width:0.15;stroke-linecap:round;stroke-linejoin:round;stroke-miterlimit:4;stroke-dasharray:none"
       id="path6648" />
    <path
       d="m 130.25089,50.49594 -0.0503,-0.007 m 0,0 -0.0494,-0.004 m 0,0 -0.0482,-3e-4 m 0,0 -0.047,0.003 m 0,0 -0.0456,0.007 m 0,0 -0.0441,0.0101 m 0,0 -0.0177,0.005"
       style="fill:none;stroke:#000000;stroke-width:0.15;stroke-linecap:round;stroke-linejoin:round;stroke-miterlimit:4;stroke-dasharray:none"
       id="path6650" />
    <path
       d="m 129.75051,50.624 -0.0317,0.0319 m 0,0 -0.0295,0.0349 m 0,0 -0.0272,0.0379 m 0,0 -0.0248,0.0408 m 0,0 -0.0224,0.0435 m 0,0 -0.0199,0.0462 m 0,0 -0.0174,0.0487 m 0,0 -0.0148,0.0511 m 0,0 -0.0123,0.0534 m 0,0 -0.01,0.0556 m 0,0 -0.007,0.0576 m 0,0 -0.004,0.0594 m 0,0 -0.002,0.0611 m 0,0 0.001,0.0627 m 0,0 0.004,0.0641 m 0,0 0.006,0.0654 m 0,0 0.009,0.0665 m 0,0 0.0117,0.0674 m 0,0 0.0144,0.0681 m 0,0 0.0169,0.0687 m 0,0 0.0195,0.0691 m 0,0 0.0219,0.0694 m 0,0 0.0244,0.0694 m 0,0 0.0267,0.0693 m 0,0 0.029,0.069 m 0,0 0.0313,0.0686 m 0,0 0.0334,0.068 m 0,0 0.0355,0.0672 m 0,0 0.0375,0.0662 m 0,0 0.0393,0.0651 m 0,0 0.0411,0.0638 m 0,0 0.0428,0.0623 m 0,0 0.0444,0.0607 m 0,0 0.0458,0.0589 m 0,0 0.0472,0.0571 m 0,0 0.0484,0.055 m 0,0 0.0495,0.0528 m 0,0 0.0418,0.042"
       style="fill:none;stroke:#000000;stroke-width:0.15;stroke-linecap:round;stroke-linejoin:round;stroke-miterlimit:4;stroke-dasharray:none"
       id="path6652" />
    <path
       d="m 122.25449,37.49261 c 0.0219,-0.0121 0.0444,-0.0187 0.0666,-0.0198"
       style="fill:none;stroke:#000000;stroke-width:0.15;stroke-linecap:round;stroke-linejoin:round;stroke-miterlimit:4;stroke-dasharray:none"
       id="path6654" />
    <path
       d="m 119.59427,38.96165 2.66022,-1.46904"
       style="fill:none;stroke:#000000;stroke-width:0.15;stroke-linecap:round;stroke-linejoin:round;stroke-miterlimit:4;stroke-dasharray:none"
       id="path6656" />
    <path
       d="m 129.421,44.63512 c -0.0445,0.025 -0.0908,0.0584 -0.13648,0.0983 -0.0463,0.0405 -0.091,0.0868 -0.13164,0.13637 -0.042,0.0511 -0.0789,0.10459 -0.10889,0.15746 -0.0169,0.0298 -0.0315,0.0592 -0.0436,0.0876 -0.0121,0.0285 -0.0216,0.056 -0.0284,0.0819 -2e-4,7.6e-4 -3.9e-4,0.002 -5.9e-4,0.002"
       style="fill:none;stroke:#000000;stroke-width:0.15;stroke-linecap:round;stroke-linejoin:round;stroke-miterlimit:4;stroke-dasharray:none"
       id="path6658" />
    <path
       d="m 129.90138,46.01268 0.34951,0.20178"
       style="fill:none;stroke:#000000;stroke-width:0.15;stroke-linecap:round;stroke-linejoin:round;stroke-miterlimit:4;stroke-dasharray:none"
       id="path6660" />
    <path
       d="m 132.16675,43.13443 c -2.9e-4,-1.6e-4 -5.8e-4,-3.3e-4 -8.8e-4,-4.9e-4 -0.012,-0.007 -0.0277,-0.008 -0.0464,-0.005 -0.0184,0.003 -0.0392,0.0113 -0.0615,0.0238"
       style="fill:none;stroke:#000000;stroke-width:0.15;stroke-linecap:round;stroke-linejoin:round;stroke-miterlimit:4;stroke-dasharray:none"
       id="path6662" />
    <path
       d="m 129.421,44.63512 2.63691,-1.4825"
       style="fill:none;stroke:#000000;stroke-width:0.15;stroke-linecap:round;stroke-linejoin:round;stroke-miterlimit:4;stroke-dasharray:none"
       id="path6664" />
    <path
       d="M 130.25089,54.26666 129.9622,54.09998"
       style="fill:none;stroke:#000000;stroke-width:0.15;stroke-linecap:round;stroke-linejoin:round;stroke-miterlimit:4;stroke-dasharray:none"
       id="path6666" />
    <path
       d="m 118.04493,39.49785 v -0.3305"
       style="fill:none;stroke:#000000;stroke-width:0.15;stroke-linecap:round;stroke-linejoin:round;stroke-miterlimit:4;stroke-dasharray:none"
       id="path6668" />
    <path
       d="m 118.04493,39.16735 0.34951,0.20179"
       style="fill:none;stroke:#000000;stroke-width:0.15;stroke-linecap:round;stroke-linejoin:round;stroke-miterlimit:4;stroke-dasharray:none"
       id="path6670" />
    <path
       d="m 120.98178,36.67679 c -0.0187,-0.0108 -0.0384,-0.0205 -0.0595,-0.0289 -0.0211,-0.008 -0.0435,-0.0154 -0.0673,-0.0205 -0.0239,-0.005 -0.0492,-0.008 -0.0757,-0.008 -0.0265,-1.2e-4 -0.0542,0.003 -0.082,0.009 -0.0278,0.007 -0.0556,0.017 -0.0816,0.031"
       style="fill:none;stroke:#000000;stroke-width:0.15;stroke-linecap:round;stroke-linejoin:round;stroke-miterlimit:4;stroke-dasharray:none"
       id="path6672" />
    <path
       d="m 120.98178,36.67679 1.37609,0.79449"
       style="fill:none;stroke:#000000;stroke-width:0.15;stroke-linecap:round;stroke-linejoin:round;stroke-miterlimit:4;stroke-dasharray:none"
       id="path6674" />
    <path
       d="M 117.6589,39.72073 V 38.54825"
       style="fill:none;stroke:#000000;stroke-width:0.15;stroke-linecap:round;stroke-linejoin:round;stroke-miterlimit:4;stroke-dasharray:none"
       id="path6676" />
    <path
       d="m 130.59403,54.91053 a 0.5,0.5 0 0 0 0.51297,-0.008"
       style="fill:none;stroke:#000000;stroke-width:0.15;stroke-linecap:round;stroke-linejoin:round;stroke-miterlimit:4;stroke-dasharray:none"
       id="path6678" />
    <path
       d="m 122.32104,37.47285 c 0.61482,-0.0282 1.259,0.0335 1.91982,0.18177 0.66082,0.1483 1.33834,0.38324 2.02022,0.6992 0.68188,0.31596 1.36812,0.71295 2.04621,1.18289 0.6781,0.46993 1.34801,1.01281 1.99734,1.61806 0.64746,0.60349 1.2744,1.26898 1.86912,1.98371"
       style="fill:none;stroke:#000000;stroke-width:0.15;stroke-linecap:round;stroke-linejoin:round;stroke-miterlimit:4;stroke-dasharray:none"
       id="path6680" />
    <path
       d="m 130.59403,54.91053 -1.01787,-0.58767"
       style="fill:none;stroke:#000000;stroke-width:0.15;stroke-linecap:round;stroke-linejoin:round;stroke-miterlimit:4;stroke-dasharray:none"
       id="path6682" />
    <path
       d="m 133.8762,44.46982 c 0,-0.044 -0.006,-0.0862 -0.0157,-0.12688 -0.01,-0.0407 -0.0238,-0.0798 -0.0411,-0.11734 -0.0173,-0.0375 -0.038,-0.0734 -0.0619,-0.10716 -0.0238,-0.0338 -0.0508,-0.0654 -0.0811,-0.0943 -0.0303,-0.0288 -0.0639,-0.055 -0.10205,-0.077"
       style="fill:none;stroke:#000000;stroke-width:0.15;stroke-linecap:round;stroke-linejoin:round;stroke-miterlimit:4;stroke-dasharray:none"
       id="path6684" />
    <path
       d="m 133.8762,44.46982 v 8.49873"
       style="fill:none;stroke:#000000;stroke-width:0.15;stroke-linecap:round;stroke-linejoin:round;stroke-miterlimit:4;stroke-dasharray:none"
       id="path6686" />
    <path
       d="m 117.9221,38.10788 a 0.5,0.5 0 0 0 -0.2632,0.44037"
       style="fill:none;stroke:#000000;stroke-width:0.15;stroke-linecap:round;stroke-linejoin:round;stroke-miterlimit:4;stroke-dasharray:none"
       id="path6688" />
    <path
       d="m 133.70808,53.29433 c 0.0251,-0.0155 0.048,-0.0344 0.0676,-0.0552 0.0196,-0.0208 0.0359,-0.0434 0.0491,-0.0664 0.0132,-0.023 0.0232,-0.0465 0.0308,-0.0697 0.008,-0.0232 0.0127,-0.0461 0.0159,-0.0685 0.003,-0.0225 0.005,-0.0444 0.005,-0.066"
       style="fill:none;stroke:#000000;stroke-width:0.15;stroke-linecap:round;stroke-linejoin:round;stroke-miterlimit:4;stroke-dasharray:none"
       id="path6690" />
    <path
       d="M 133.70808,53.29433 131.107,54.90277"
       style="fill:none;stroke:#000000;stroke-width:0.15;stroke-linecap:round;stroke-linejoin:round;stroke-miterlimit:4;stroke-dasharray:none"
       id="path6692" />
    <path
       d="m 120.61559,36.6595 -2.69349,1.44838"
       style="fill:none;stroke:#000000;stroke-width:0.15;stroke-linecap:round;stroke-linejoin:round;stroke-miterlimit:4;stroke-dasharray:none"
       id="path6694" />
    <path
       d="m 132.16675,43.13443 1.4077,0.81274"
       style="fill:none;stroke:#000000;stroke-width:0.15;stroke-linecap:round;stroke-linejoin:round;stroke-miterlimit:4;stroke-dasharray:none"
       id="path6696" />
    <path
       d="m -20.49078,126.87658 -0.565685,-0.3266"
       style="fill:none;stroke:#000000;stroke-width:0.15;stroke-linecap:round;stroke-linejoin:round;stroke-miterlimit:4;stroke-dasharray:none"
       id="path6698" />
    <path
       d="m -21.056465,126.22338 0.565685,0.3266"
       style="fill:none;stroke:#000000;stroke-width:0.15;stroke-linecap:round;stroke-linejoin:round;stroke-miterlimit:4;stroke-dasharray:none"
       id="path6700" />
    <path
       d="m -20.49078,127.52978 v -0.6532"
       style="fill:none;stroke:#000000;stroke-width:0.15;stroke-linecap:round;stroke-linejoin:round;stroke-miterlimit:4;stroke-dasharray:none"
       id="path6704" />
    <path
       d="m -20.207937,127.69308 -0.282843,-0.1633"
       style="fill:none;stroke:#000000;stroke-width:0.15;stroke-linecap:round;stroke-linejoin:round;stroke-miterlimit:4;stroke-dasharray:none"
       id="path6706" />
    <path
       d="m -19.642252,127.36648 -0.565685,-0.3266"
       style="fill:none;stroke:#000000;stroke-width:0.15;stroke-linecap:round;stroke-linejoin:round;stroke-miterlimit:4;stroke-dasharray:none"
       id="path6708" />
    <path
       d="m -20.207937,126.06008 v 0.6532"
       style="fill:none;stroke:#000000;stroke-width:0.15;stroke-linecap:round;stroke-linejoin:round;stroke-miterlimit:4;stroke-dasharray:none"
       id="path6710" />
    <path
       d="m -20.207937,127.03988 v 0.6532"
       style="fill:none;stroke:#000000;stroke-width:0.15;stroke-linecap:round;stroke-linejoin:round;stroke-miterlimit:4;stroke-dasharray:none"
       id="path6712" />
    <path
       d="m -20.49078,126.54998 v -0.6532"
       style="fill:none;stroke:#000000;stroke-width:0.15;stroke-linecap:round;stroke-linejoin:round;stroke-miterlimit:4;stroke-dasharray:none"
       id="path6714" />
    <path
       d="m -19.642252,127.03988 v 0.3266"
       style="fill:none;stroke:#000000;stroke-width:0.15;stroke-linecap:round;stroke-linejoin:round;stroke-miterlimit:4;stroke-dasharray:none"
       id="path6720" />
    <path
       d="m -20.49078,125.89678 0.282843,0.1633"
       style="fill:none;stroke:#000000;stroke-width:0.15;stroke-linecap:round;stroke-linejoin:round;stroke-miterlimit:4;stroke-dasharray:none"
       id="path6722" />
    <path
       d="m -21.056465,126.54998 v -0.3266"
       style="fill:none;stroke:#000000;stroke-width:0.15;stroke-linecap:round;stroke-linejoin:round;stroke-miterlimit:4;stroke-dasharray:none"
       id="path6724" />
    <path
       d="m -20.207937,126.71328 0.565685,0.3266"
       style="fill:none;stroke:#000000;stroke-width:0.15;stroke-linecap:round;stroke-linejoin:round;stroke-miterlimit:4;stroke-dasharray:none"
       id="path6726" />
    <path
       d="m -12.217631,131.65308 -0.565685,-0.32659"
       style="fill:none;stroke:#000000;stroke-width:0.15;stroke-linecap:round;stroke-linejoin:round;stroke-miterlimit:4;stroke-dasharray:none"
       id="path6736" />
    <path
       d="m -12.783316,130.99989 0.565685,0.3266"
       style="fill:none;stroke:#000000;stroke-width:0.15;stroke-linecap:round;stroke-linejoin:round;stroke-miterlimit:4;stroke-dasharray:none"
       id="path6738" />
    <path
       d="m -12.217631,132.30628 v -0.6532"
       style="fill:none;stroke:#000000;stroke-width:0.15;stroke-linecap:round;stroke-linejoin:round;stroke-miterlimit:4;stroke-dasharray:none"
       id="path6742" />
    <path
       d="m -11.934788,132.46958 -0.282843,-0.1633"
       style="fill:none;stroke:#000000;stroke-width:0.15;stroke-linecap:round;stroke-linejoin:round;stroke-miterlimit:4;stroke-dasharray:none"
       id="path6744" />
    <path
       d="m -11.369103,132.14298 -0.565685,-0.3266"
       style="fill:none;stroke:#000000;stroke-width:0.15;stroke-linecap:round;stroke-linejoin:round;stroke-miterlimit:4;stroke-dasharray:none"
       id="path6746" />
    <path
       d="m -11.934788,130.83659 v 0.6532"
       style="fill:none;stroke:#000000;stroke-width:0.15;stroke-linecap:round;stroke-linejoin:round;stroke-miterlimit:4;stroke-dasharray:none"
       id="path6748" />
    <path
       d="m -11.934788,131.81638 v 0.6532"
       style="fill:none;stroke:#000000;stroke-width:0.15;stroke-linecap:round;stroke-linejoin:round;stroke-miterlimit:4;stroke-dasharray:none"
       id="path6750" />
    <path
       d="m -12.217631,131.32649 v -0.6532"
       style="fill:none;stroke:#000000;stroke-width:0.15;stroke-linecap:round;stroke-linejoin:round;stroke-miterlimit:4;stroke-dasharray:none"
       id="path6752" />
    <path
       d="m -11.369103,131.81638 v 0.3266"
       style="fill:none;stroke:#000000;stroke-width:0.15;stroke-linecap:round;stroke-linejoin:round;stroke-miterlimit:4;stroke-dasharray:none"
       id="path6758" />
    <path
       d="m -12.217631,130.67329 0.282843,0.1633"
       style="fill:none;stroke:#000000;stroke-width:0.15;stroke-linecap:round;stroke-linejoin:round;stroke-miterlimit:4;stroke-dasharray:none"
       id="path6760" />
    <path
       d="m -12.783316,131.32649 v -0.3266"
       style="fill:none;stroke:#000000;stroke-width:0.15;stroke-linecap:round;stroke-linejoin:round;stroke-miterlimit:4;stroke-dasharray:none"
       id="path6762" />
    <path
       d="m -11.934788,131.48979 0.565685,0.32659"
       style="fill:none;stroke:#000000;stroke-width:0.15;stroke-linecap:round;stroke-linejoin:round;stroke-miterlimit:4;stroke-dasharray:none"
       id="path6764" />
    <path
       d="m -44.122148,144.93778 c 0.09797,-0.0564 0.155423,-0.18291 0.155423,-0.34322"
       style="fill:none;stroke:#000000;stroke-width:0.15;stroke-linecap:round;stroke-linejoin:round;stroke-miterlimit:4;stroke-dasharray:none"
       id="path6776" />
    <path
       d="m -43.966725,144.59456 c 0,-0.16032 -0.05746,-0.35318 -0.155422,-0.52269 -0.09796,-0.16951 -0.236433,-0.31569 -0.374904,-0.39564 -0.138471,-0.0799 -0.276944,-0.0937 -0.374859,-0.0371"
       style="fill:none;stroke:#000000;stroke-width:0.15;stroke-linecap:round;stroke-linejoin:round;stroke-miterlimit:4;stroke-dasharray:none"
       id="path6778" />
    <path
       d="m -43.2228,146.17341 0.01745,-0.013 m 0,0 0.01643,-0.0145 m 0,0 0.01537,-0.0161 m 0,0 0.01427,-0.0176 m 0,0 0.01314,-0.019 m 0,0 0.01197,-0.0204 m 0,0 0.01078,-0.0217 m 0,0 0.0096,-0.0231 m 0,0 0.0083,-0.0243 m 0,0 0.007,-0.0255 m 0,0 0.0057,-0.0266 m 0,0 0.0044,-0.0276 m 0,0 0.0031,-0.0286 m 0,0 0.0018,-0.0295 m 0,0 5.02e-4,-0.0264"
       style="fill:none;stroke:#000000;stroke-width:0.15;stroke-linecap:round;stroke-linejoin:round;stroke-miterlimit:4;stroke-dasharray:none"
       id="path6780" />
    <path
       d="m -43.082842,145.83971 -6.62e-4,-0.031 m 0,0 -0.002,-0.0317 m 0,0 -0.0033,-0.0323 m 0,0 -0.0046,-0.0328 m 0,0 -0.0059,-0.0333 m 0,0 -0.0072,-0.0336 m 0,0 -0.0085,-0.0339 m 0,0 -0.0097,-0.0341 m 0,0 -0.01093,-0.0342 m 0,0 -0.01212,-0.0342 m 0,0 -0.01329,-0.0342 m 0,0 -0.01442,-0.034 m 0,0 -0.01551,-0.0338 m 0,0 -0.01657,-0.0335 m 0,0 -0.01758,-0.0331 m 0,0 -0.01855,-0.0326 m 0,0 -0.01948,-0.032 m 0,0 -0.02035,-0.0314 m 0,0 -0.02118,-0.0307 m 0,0 -0.02194,-0.0298 m 0,0 -0.02266,-0.029 m 0,0 -0.02332,-0.028 m 0,0 -0.02392,-0.027 m 0,0 -0.02446,-0.0259 m 0,0 -0.02494,-0.0248 m 0,0 -0.02536,-0.0236 m 0,0 -0.02572,-0.0223 m 0,0 -0.02601,-0.021 m 0,0 -0.02623,-0.0196 m 0,0 -0.02639,-0.0182 m 0,0 -0.02649,-0.0167 m 0,0 -0.02651,-0.0152 m 0,0 -0.02647,-0.0136 m 0,0 -0.02637,-0.012 m 0,0 -0.0262,-0.0104 m 0,0 -0.02596,-0.009 m 0,0 -0.02566,-0.007 m 0,0 -0.0253,-0.005 m 0,0 -0.02487,-0.004 m 0,0 -0.02438,-0.002 m 0,0 -0.02383,-3.2e-4 m 0,0 -0.02322,10e-4 m 0,0 -0.02254,0.003 m 0,0 -0.02182,0.005 m 0,0 -0.02104,0.006 m 0,0 -0.02021,0.008 m 0,0 -0.01932,0.01 m 0,0 -0.01613,0.01"
       style="fill:none;stroke:#000000;stroke-width:0.15;stroke-linecap:round;stroke-linejoin:round;stroke-miterlimit:4;stroke-dasharray:none"
       id="path6782" />
    <path
       d="m -46.369506,151.49469 0.01446,0.0263 m 0,0 0.01613,0.0255 m 0,0 0.01775,0.0245 m 0,0 0.01933,0.0236 m 0,0 0.02086,0.0225 m 0,0 0.02234,0.0214 m 0,0 0.02376,0.0203 m 0,0 0.02513,0.0191 m 0,0 0.02643,0.0179 m 0,0 0.02766,0.0166 m 0,0 0.02883,0.0153 m 0,0 0.02992,0.0139 m 0,0 0.03094,0.0125 m 0,0 0.03188,0.0111 m 0,0 0.03274,0.01 m 0,0 0.03353,0.008 m 0,0 0.03422,0.007 m 0,0 0.03483,0.005 m 0,0 0.03535,0.004 m 0,0 0.03579,0.002 m 0,0 0.03614,4.7e-4 m 0,0 0.03639,-0.001 m 0,0 0.03655,-0.003 m 0,0 0.03663,-0.004 m 0,0 0.03661,-0.006 m 0,0 0.0365,-0.007 m 0,0 0.0363,-0.009 m 0,0 0.03601,-0.0102 m 0,0 0.03562,-0.0116 m 0,0 0.03515,-0.013 m 0,0 0.03459,-0.0144 m 0,0 0.03395,-0.0158 m 0,0 0.03322,-0.0171 m 0,0 0.03241,-0.0184 m 0,0 0.03151,-0.0196 m 0,0 0.03054,-0.0208 m 0,0 0.02949,-0.0219 m 0,0 0.02837,-0.0229 m 0,0 0.02717,-0.024 m 0,0 0.02591,-0.0249 m 0,0 0.02458,-0.0258 m 0,0 0.0232,-0.0266 m 0,0 0.02175,-0.0274 m 0,0 0.02025,-0.0281 m 0,0 0.0187,-0.0287 m 0,0 0.0171,-0.0292 m 0,0 0.01546,-0.0297 m 0,0 0.01378,-0.0301 m 0,0 0.01207,-0.0304 m 0,0 0.01032,-0.0307 m 0,0 0.0086,-0.0308 m 0,0 0.0068,-0.0309 m 0,0 0.005,-0.031 m 0,0 0.0031,-0.0309 m 0,0 0.0013,-0.0308 m 0,0 4.2e-5,-0.007"
       style="fill:none;stroke:#000000;stroke-width:0.15;stroke-linecap:round;stroke-linejoin:round;stroke-miterlimit:4;stroke-dasharray:none"
       id="path6784" />
    <path
       d="m -45.012454,150.86133 -0.01487,-0.0261 m 0,0 -0.01653,-0.0252 m 0,0 -0.01814,-0.0243 m 0,0 -0.01971,-0.0233 m 0,0 -0.02123,-0.0223 m 0,0 -0.02269,-0.0212 m 0,0 -0.0241,-0.02 m 0,0 -0.02545,-0.0188 m 0,0 -0.02673,-0.0176 m 0,0 -0.02795,-0.0163 m 0,0 -0.0291,-0.0149 m 0,0 -0.03018,-0.0136 m 0,0 -0.03118,-0.0121 m 0,0 -0.0321,-0.0107 m 0,0 -0.03294,-0.009 m 0,0 -0.0337,-0.008 m 0,0 -0.03438,-0.006 m 0,0 -0.03497,-0.005 m 0,0 -0.03547,-0.003 m 0,0 -0.03588,-0.002 m 0,0 -0.0362,-9e-5 m 0,0 -0.03644,0.001 m 0,0 -0.03658,0.003 m 0,0 -0.03663,0.005 m 0,0 -0.03659,0.006 m 0,0 -0.03646,0.008 m 0,0 -0.03624,0.009 m 0,0 -0.03592,0.0105 m 0,0 -0.03552,0.012 m 0,0 -0.03503,0.0134 m 0,0 -0.03445,0.0148 m 0,0 -0.03378,0.0161 m 0,0 -0.03303,0.0174 m 0,0 -0.0322,0.0187 m 0,0 -0.03128,0.0199 m 0,0 -0.03029,0.021 m 0,0 -0.02922,0.0222 m 0,0 -0.02808,0.0232 m 0,0 -0.02687,0.0242 m 0,0 -0.02559,0.0251 m 0,0 -0.02425,0.026 m 0,0 -0.02285,0.0268 m 0,0 -0.02139,0.0276 m 0,0 -0.01988,0.0282 m 0,0 -0.01832,0.0288 m 0,0 -0.01671,0.0294 m 0,0 -0.01506,0.0298 m 0,0 -0.01337,0.0302 m 0,0 -0.01165,0.0305 m 0,0 -0.0099,0.0307 m 0,0 -0.0081,0.0309 m 0,0 -0.0063,0.031 m 0,0 -0.0045,0.031 m 0,0 -0.0027,0.0309 m 0,0 -8.64e-4,0.0307 m 0,0 9.68e-4,0.0305 m 0,0 0.0028,0.0302 m 0,0 0.0046,0.0298 m 0,0 0.0064,0.0293 m 0,0 0.0082,0.0288 m 0,0 0.01,0.0282 m 0,0 0.01175,0.0275 m 0,0 0.0077,0.0159"
       style="fill:none;stroke:#000000;stroke-width:0.15;stroke-linecap:round;stroke-linejoin:round;stroke-miterlimit:4;stroke-dasharray:none"
       id="path6786" />
    <path
       d="m -44.956589,151.08881 -9.15e-4,-0.0305 m 0,0 -0.0027,-0.0302 m 0,0 -0.0046,-0.0298 m 0,0 -0.0064,-0.0293 m 0,0 -0.0082,-0.0288 m 0,0 -0.0099,-0.0282 m 0,0 -0.0117,-0.0275 m 0,0 -0.01144,-0.0231"
       style="fill:none;stroke:#000000;stroke-width:0.15;stroke-linecap:round;stroke-linejoin:round;stroke-miterlimit:4;stroke-dasharray:none"
       id="path6788" />
    <path
       d="m -43.122055,147.40479 0.067,-0.0427 m 0,0 0.0634,-0.0485 m 0,0 0.05964,-0.0542 m 0,0 0.05572,-0.0598 m 0,0 0.05167,-0.0652 m 0,0 0.04749,-0.0705 m 0,0 0.04319,-0.0756 m 0,0 0.03879,-0.0806 m 0,0 0.03428,-0.0852 m 0,0 0.02969,-0.0897 m 0,0 0.02503,-0.094 m 0,0 0.0203,-0.0981 m 0,0 0.01553,-0.10186 m 0,0 0.01071,-0.10539 m 0,0 0.0059,-0.10866 m 0,0 0.0012,-0.0788"
       style="fill:none;stroke:#000000;stroke-width:0.15;stroke-linecap:round;stroke-linejoin:round;stroke-miterlimit:4;stroke-dasharray:none"
       id="path6790" />
    <path
       d="m -44.4825,147.27692 0.09717,0.0525 m 0,0 0.09689,0.0467 m 0,0 0.09636,0.0408 m 0,0 0.0956,0.0348 m 0,0 0.0946,0.0288 m 0,0 0.09336,0.0226 m 0,0 0.09189,0.0164 m 0,0 0.09019,0.0102 m 0,0 0.08827,0.004 m 0,0 0.08612,-0.002 m 0,0 0.08376,-0.009 m 0,0 0.08119,-0.0149 m 0,0 0.07841,-0.0211 m 0,0 0.07544,-0.0273 m 0,0 0.07228,-0.0333 m 0,0 0.03891,-0.0212"
       style="fill:none;stroke:#000000;stroke-width:0.15;stroke-linecap:round;stroke-linejoin:round;stroke-miterlimit:4;stroke-dasharray:none"
       id="path6792" />
    <path
       d="m -45.872055,142.64165 -0.067,0.0427 m 0,0 -0.0634,0.0485 m 0,0 -0.05964,0.0542 m 0,0 -0.05572,0.0598 m 0,0 -0.05167,0.0653 m 0,0 -0.04749,0.0705 m 0,0 -0.04319,0.0756 m 0,0 -0.03879,0.0805 m 0,0 -0.03428,0.0853 m 0,0 -0.02969,0.0897 m 0,0 -0.02503,0.094 m 0,0 -0.0203,0.0981 m 0,0 -0.01553,0.10185 m 0,0 -0.01071,0.10539 m 0,0 -0.0059,0.10866 m 0,0 -10e-4,0.11167 m 0,0 0.0038,0.11439 m 0,0 0.0087,0.11683 m 0,0 0.0056,0.0544"
       style="fill:none;stroke:#000000;stroke-width:0.15;stroke-linecap:round;stroke-linejoin:round;stroke-miterlimit:4;stroke-dasharray:none"
       id="path6794" />
    <path
       d="m -42.552512,146.1459 -0.0024,-0.11363 m 0,0 -0.0073,-0.11614 m 0,0 -0.01212,-0.11838 m 0,0 -0.01693,-0.12032 m 0,0 -0.02169,-0.12194 m 0,0 -0.0264,-0.12328 m 0,0 -0.03104,-0.12431 m 0,0 -0.03561,-0.12501 m 0,0 -0.04008,-0.12541 m 0,0 -0.04446,-0.1255 m 0,0 -0.04873,-0.12527 m 0,0 -0.05287,-0.12473 m 0,0 -0.05688,-0.12388 m 0,0 -0.06075,-0.12271 m 0,0 -0.06447,-0.12125 m 0,0 -0.06803,-0.11947 m 0,0 -0.07141,-0.1174 m 0,0 -0.07462,-0.11504 m 0,0 -0.07764,-0.11238 m 0,0 -0.08047,-0.10946 m 0,0 -0.08309,-0.10624 m 0,0 -0.08551,-0.10278 m 0,0 -0.08772,-0.099 m 0,0 -0.0897,-0.0951 m 0,0 -0.09146,-0.0908 m 0,0 -0.093,-0.0864 m 0,0 -0.0943,-0.0817 m 0,0 -0.09536,-0.0769 m 0,0 -0.09619,-0.0718 m 0,0 -0.09677,-0.0666 m 0,0 -0.09712,-0.0612 m 0,0 -0.09722,-0.0557 m 0,0 -0.09707,-0.05 m 0,0 -0.09669,-0.0442 m 0,0 -0.09606,-0.0382 m 0,0 -0.0952,-0.0322 m 0,0 -0.09409,-0.0261 m 0,0 -0.09275,-0.0199 m 0,0 -0.09118,-0.0137 m 0,0 -0.08938,-0.007 m 0,0 -0.08736,-0.001 m 0,0 -0.08512,0.005 m 0,0 -0.08266,0.0113 m 0,0 -0.08,0.0176 m 0,0 -0.07715,0.0238 m 0,0 -0.07409,0.0299 m 0,0 -0.07085,0.0359 m 0,0 -0.0085,0.005"
       style="fill:none;stroke:#000000;stroke-width:0.15;stroke-linecap:round;stroke-linejoin:round;stroke-miterlimit:4;stroke-dasharray:none"
       id="path6796" />
    <path
       d="m -45.354022,143.91686 -0.02651,-0.0161 m 0,0 -0.02651,-0.0146 m 0,0 -0.02644,-0.013 m 0,0 -0.02631,-0.0114 m 0,0 -0.02611,-0.01 m 0,0 -0.02585,-0.008 m 0,0 -0.02552,-0.006 m 0,0 -0.02513,-0.005 m 0,0 -0.02468,-0.003 m 0,0 -0.02416,-0.001 m 0,0 -0.02359,3.7e-4 m 0,0 -0.02295,0.002 m 0,0 -0.02226,0.004 m 0,0 -0.02151,0.005 m 0,0 -0.02071,0.007 m 0,0 -0.01986,0.009 m 0,0 -0.01434,0.008"
       style="fill:none;stroke:#000000;stroke-width:0.15;stroke-linecap:round;stroke-linejoin:round;stroke-miterlimit:4;stroke-dasharray:none"
       id="path6798" />
    <path
       d="m -51.464064,151.85917 0.0083,-0.01 m 0,0 0.0069,-0.011 m 0,0 0.0056,-0.0122 m 0,0 0.0042,-0.0135 m 0,0 0.0028,-0.0147 m 0,0 0.0014,-0.0159 m 0,0 -1.8e-5,-0.017 m 0,0 -0.0014,-0.0181 m 0,0 -0.0028,-0.0191 m 0,0 -0.0042,-0.0201 m 0,0 -0.0056,-0.021 m 0,0 -0.007,-0.0219 m 0,0 -0.0083,-0.0228 m 0,0 -0.002,-0.005"
       style="fill:none;stroke:#000000;stroke-width:0.15;stroke-linecap:round;stroke-linejoin:round;stroke-miterlimit:4;stroke-dasharray:none"
       id="path6800" />
    <path
       d="m -52.529089,150.80289 -0.0083,0.01 m 0,0 -0.0069,0.011 m 0,0 -0.0056,0.0123 m 0,0 -0.0042,0.0135 m 0,0 -0.0028,0.0147 m 0,0 -0.0014,0.0159 m 0,0 1.8e-5,0.017 m 0,0 0.0014,0.0181 m 0,0 0.0028,0.0191 m 0,0 0.0042,0.0201 m 0,0 0.0056,0.0211 m 0,0 0.007,0.0219 m 0,0 0.0083,0.0228 m 0,0 0.0096,0.0236 m 0,0 0.01095,0.0243 m 0,0 0.01223,0.0249 m 0,0 0.01348,0.0255 m 0,0 0.01469,0.0261 m 0,0 0.01587,0.0265 m 0,0 0.01701,0.0269 m 0,0 0.01811,0.0273 m 0,0 0.01916,0.0275 m 0,0 0.02016,0.0277 m 0,0 0.02111,0.0279 m 0,0 0.02201,0.0279 m 0,0 0.02286,0.0279 m 0,0 0.02364,0.0278 m 0,0 0.02437,0.0277 m 0,0 0.02504,0.0274 m 0,0 0.02565,0.0272 m 0,0 0.02618,0.0268 m 0,0 0.02666,0.0264 m 0,0 0.02707,0.0259 m 0,0 0.02741,0.0253 m 0,0 0.02768,0.0247 m 0,0 0.02788,0.024 m 0,0 0.02802,0.0233 m 0,0 0.02808,0.0225 m 0,0 0.02808,0.0216 m 0,0 0.028,0.0207 m 0,0 0.02785,0.0198 m 0,0 0.02764,0.0188 m 0,0 0.02735,0.0177 m 0,0 0.02699,0.0166 m 0,0 0.02657,0.0155 m 0,0 0.02609,0.0143 m 0,0 0.02553,0.0131 m 0,0 0.02492,0.0118 m 0,0 0.02424,0.0105 m 0,0 0.0235,0.009 m 0,0 0.0227,0.008 m 0,0 0.02184,0.007 m 0,0 0.02093,0.005 m 0,0 0.01997,0.004 m 0,0 0.01896,0.002 m 0,0 0.0179,0.001 m 0,0 0.0168,-3.6e-4 m 0,0 0.01565,-0.002 m 0,0 0.01446,-0.003 m 0,0 0.01324,-0.005 m 0,0 0.01199,-0.006 m 0,0 0.0107,-0.007 m 0,0 0.0079,-0.007"
       style="fill:none;stroke:#000000;stroke-width:0.15;stroke-linecap:round;stroke-linejoin:round;stroke-miterlimit:4;stroke-dasharray:none"
       id="path6802" />
    <path
       d="m -51.466246,151.63721 -0.0099,-0.0237 m 0,0 -0.01123,-0.0244 m 0,0 -0.0125,-0.0251 m 0,0 -0.01375,-0.0256 m 0,0 -0.01495,-0.0262 m 0,0 -0.01612,-0.0266 m 0,0 -0.01725,-0.027 m 0,0 -0.01834,-0.0273 m 0,0 -0.01938,-0.0276 m 0,0 -0.02037,-0.0278 m 0,0 -0.02131,-0.0279 m 0,0 -0.0222,-0.0279 m 0,0 -0.02303,-0.0279 m 0,0 -0.0238,-0.0278 m 0,0 -0.02452,-0.0276 m 0,0 -0.02517,-0.0274 m 0,0 -0.02577,-0.0271 m 0,0 -0.02629,-0.0267 m 0,0 -0.02675,-0.0263 m 0,0 -0.02715,-0.0258 m 0,0 -0.02747,-0.0252 m 0,0 -0.02773,-0.0246 m 0,0 -0.02792,-0.0239 m 0,0 -0.02804,-0.0231 m 0,0 -0.02809,-0.0223 m 0,0 -0.02806,-0.0215 m 0,0 -0.02797,-0.0205 m 0,0 -0.02781,-0.0196 m 0,0 -0.02758,-0.0185 m 0,0 -0.02728,-0.0175 m 0,0 -0.02691,-0.0164 m 0,0 -0.02647,-0.0152 m 0,0 -0.02597,-0.014 m 0,0 -0.0254,-0.0128 m 0,0 -0.02478,-0.0115 m 0,0 -0.02408,-0.0103 m 0,0 -0.02333,-0.009 m 0,0 -0.02252,-0.008 m 0,0 -0.02165,-0.006 m 0,0 -0.02073,-0.005 m 0,0 -0.01976,-0.004 m 0,0 -0.01874,-0.002 m 0,0 -0.01767,-7.4e-4 m 0,0 -0.01655,6.6e-4 m 0,0 -0.0154,0.002 m 0,0 -0.01421,0.003 m 0,0 -0.01298,0.005 m 0,0 -0.01172,0.006 m 0,0 -0.01042,0.008 m 0,0 -0.0058,0.005"
       style="fill:none;stroke:#000000;stroke-width:0.15;stroke-linecap:round;stroke-linejoin:round;stroke-miterlimit:4;stroke-dasharray:none"
       id="path6804" />
    <path
       d="m -54.904275,146.85384 1.09e-4,0.0301 m 0,0 3.26e-4,0.0289 m 0,0 5.41e-4,0.0277 m 0,0 7.57e-4,0.0264 m 0,0 9.69e-4,0.0251 m 0,0 0.0012,0.0236 m 0,0 0.0014,0.0221 m 0,0 0.0016,0.0206 m 0,0 0.0018,0.019 m 0,0 0.002,0.0174 m 0,0 0.0022,0.0157 m 0,0 0.0024,0.014 m 0,0 0.0025,0.0122 m 0,0 0.0027,0.0105 m 0,0 0.0029,0.009 m 0,0 0.003,0.007 m 0,0 0.0032,0.005 m 0,0 0.0033,0.003 m 0,0 0.0035,0.001 m 0,0 1.6e-4,2e-5"
       style="fill:none;stroke:#000000;stroke-width:0.15;stroke-linecap:round;stroke-linejoin:round;stroke-miterlimit:4;stroke-dasharray:none"
       id="path6806" />
    <path
       d="m -54.766971,145.67544 -0.0036,7e-4 m 0,0 -0.0037,0.003 m 0,0 -0.0038,0.004 m 0,0 -0.0039,0.006 m 0,0 -0.004,0.008 m 0,0 -0.0041,0.01 m 0,0 -0.0042,0.0117 m 0,0 -0.0042,0.0135 m 0,0 -0.0043,0.0152 m 0,0 -0.0043,0.0169 m 0,0 -0.0043,0.0186 m 0,0 -0.0043,0.0202 m 0,0 -0.0043,0.0217 m 0,0 -0.0043,0.0232 m 0,0 -0.0043,0.0246 m 0,0 -0.0043,0.026 m 0,0 -0.0043,0.0273 m 0,0 -0.0042,0.0286 m 0,0 -0.0041,0.0297 m 0,0 -0.0041,0.0308 m 0,0 -0.004,0.0319 m 0,0 -0.0039,0.0328 m 0,0 -0.0038,0.0336 m 0,0 -0.0037,0.0344 m 0,0 -0.0036,0.0351 m 0,0 -0.0034,0.0357 m 0,0 -0.0033,0.0362 m 0,0 -0.0032,0.0367 m 0,0 -0.003,0.037 m 0,0 -0.0028,0.0372 m 0,0 -0.0027,0.0374 m 0,0 -0.0025,0.0374 m 0,0 -0.0023,0.0374 m 0,0 -0.0021,0.0372 m 0,0 -0.0019,0.037 m 0,0 -0.0017,0.0367 m 0,0 -0.0015,0.0363 m 0,0 -0.0013,0.0358 m 0,0 -0.0011,0.0352 m 0,0 -9.24e-4,0.0345 m 0,0 -7.11e-4,0.0337 m 0,0 -4.95e-4,0.0329 m 0,0 -2.8e-4,0.0319 m 0,0 -6.7e-5,0.0244"
       style="fill:none;stroke:#000000;stroke-width:0.15;stroke-linecap:round;stroke-linejoin:round;stroke-miterlimit:4;stroke-dasharray:none"
       id="path6808" />
    <path
       d="m -14.837784,131.07485 0.067,-0.0426 m 0,0 0.0634,-0.0485 m 0,0 0.05964,-0.0542 m 0,0 0.05572,-0.0598 m 0,0 0.05167,-0.0653 m 0,0 0.04749,-0.0705 m 0,0 0.04319,-0.0756 m 0,0 0.03879,-0.0805 m 0,0 0.03428,-0.0853 m 0,0 0.02969,-0.0898 m 0,0 0.02503,-0.094 m 0,0 0.0203,-0.0981 m 0,0 0.01553,-0.10185 m 0,0 0.01071,-0.10539 m 0,0 0.0059,-0.10866 m 0,0 10e-4,-0.11167 m 0,0 -0.0038,-0.11439 m 0,0 -0.0087,-0.11683 m 0,0 -0.01353,-0.11897 m 0,0 -0.01832,-0.12083 m 0,0 -0.02307,-0.12236 m 0,0 -0.02776,-0.12362 m 0,0 -0.03238,-0.12454 m 0,0 -0.03693,-0.12516 m 0,0 -0.04137,-0.12547 m 0,0 -0.04572,-0.12547 m 0,0 -0.04995,-0.12514 m 0,0 -0.05406,-0.12451 m 0,0 -0.05803,-0.12357 m 0,0 -0.06185,-0.12232 m 0,0 -0.06552,-0.12076 m 0,0 -0.06903,-0.11889 m 0,0 -0.07237,-0.11675 m 0,0 -0.07552,-0.11429 m 0,0 -0.07849,-0.11155 m 0,0 -0.08125,-0.10855 m 0,0 -0.08382,-0.10526 m 0,0 -0.08618,-0.10171 m 0,0 -0.08832,-0.0979 m 0,0 -0.09024,-0.0939 m 0,0 -0.09193,-0.0896 m 0,0 -0.0934,-0.0851 m 0,0 -0.09463,-0.0803 m 0,0 -0.09563,-0.0754 m 0,0 -0.09638,-0.0703 m 0,0 -0.0969,-0.0651 m 0,0 -0.09717,-0.0596 m 0,0 -0.0972,-0.054 m 0,0 -0.09699,-0.0483 m 0,0 -0.09653,-0.0424 m 0,0 -0.09583,-0.0365 m 0,0 -0.0949,-0.0304 m 0,0 -0.09373,-0.0243 m 0,0 -0.09232,-0.0181 m 0,0 -0.09068,-0.0119 m 0,0 -0.08881,-0.006 m 0,0 -0.08673,6.5e-4 m 0,0 -0.08442,0.007 m 0,0 -0.08191,0.0132 m 0,0 -0.07919,0.0194 m 0,0 -0.07627,0.0256 m 0,0 -0.07316,0.0317 m 0,0 -0.05836,0.0309"
       style="fill:none;stroke:#000000;stroke-width:0.15;stroke-linecap:round;stroke-linejoin:round;stroke-miterlimit:4;stroke-dasharray:none"
       id="path6810" />
    <path
       d="m -44.425579,145.19301 c -0.02125,-0.0157 -0.04266,-0.03 -0.0641,-0.0428"
       style="fill:none;stroke:#000000;stroke-width:0.15;stroke-linecap:round;stroke-linejoin:round;stroke-miterlimit:4;stroke-dasharray:none"
       id="path6812" />
    <path
       d="m -51.39364,147.8434 0.02833,-0.003 m 0,0 0.02812,-0.005 m 0,0 0.02784,-0.007 m 0,0 0.02749,-0.009 m 0,0 0.02707,-0.0104 m 0,0 0.02658,-0.0122 m 0,0 0.02603,-0.0139 m 0,0 0.02541,-0.0157 m 0,0 0.02473,-0.0174 m 0,0 0.02399,-0.019 m 0,0 0.02319,-0.0206 m 0,0 0.02232,-0.0221 m 0,0 0.02141,-0.0236 m 0,0 0.02044,-0.025 m 0,0 0.01941,-0.0264 m 0,0 0.01834,-0.0277 m 0,0 0.01723,-0.0289 m 0,0 0.01607,-0.0301 m 0,0 0.01487,-0.0311 m 0,0 0.01363,-0.0321 m 0,0 0.01236,-0.0331 m 0,0 0.0096,-0.0291"
       style="fill:none;stroke:#000000;stroke-width:0.15;stroke-linecap:round;stroke-linejoin:round;stroke-miterlimit:4;stroke-dasharray:none"
       id="path6814" />
    <path
       d="m -51.505368,146.34757 -0.02833,0.003 m 0,0 -0.02812,0.005 m 0,0 -0.02784,0.007 m 0,0 -0.02749,0.009 m 0,0 -0.02707,0.0104 m 0,0 -0.02659,0.0122 m 0,0 -0.02603,0.014 m 0,0 -0.02541,0.0157 m 0,0 -0.02473,0.0173 m 0,0 -0.02399,0.019 m 0,0 -0.02318,0.0206 m 0,0 -0.02232,0.0221 m 0,0 -0.02141,0.0236 m 0,0 -0.02043,0.025 m 0,0 -0.01941,0.0264 m 0,0 -0.01834,0.0277 m 0,0 -0.01723,0.0289 m 0,0 -0.01607,0.0301 m 0,0 -0.01487,0.0311 m 0,0 -0.01363,0.0321 m 0,0 -0.01236,0.0331 m 0,0 -0.01106,0.0339 m 0,0 -0.0097,0.0347 m 0,0 -0.0084,0.0353 m 0,0 -0.007,0.0359 m 0,0 -0.0056,0.0364 m 0,0 -0.0042,0.0368 m 0,0 -0.0028,0.0371 m 0,0 -0.0014,0.0373 m 0,0 6.3e-5,0.0374 m 0,0 0.0015,0.0374 m 0,0 0.0029,0.0374 m 0,0 0.0043,0.0372 m 0,0 0.0057,0.037 m 0,0 0.0071,0.0366 m 0,0 0.0085,0.0362 m 0,0 0.0098,0.0357 m 0,0 0.01118,0.035 m 0,0 0.01247,0.0343 m 0,0 0.01374,0.0335 m 0,0 0.01497,0.0327 m 0,0 0.01617,0.0317 m 0,0 0.01733,0.0307 m 0,0 0.01844,0.0296 m 0,0 0.0195,0.0284 m 0,0 0.02052,0.0271 m 0,0 0.02149,0.0258 m 0,0 0.0224,0.0244 m 0,0 0.02326,0.023 m 0,0 0.02406,0.0215 m 0,0 0.02479,0.0199 m 0,0 0.02547,0.0183 m 0,0 0.02608,0.0166 m 0,0 0.02663,0.0149 m 0,0 0.02711,0.0132 m 0,0 0.02752,0.0114 m 0,0 0.02787,0.01 m 0,0 0.02814,0.008 m 0,0 0.02835,0.006 m 0,0 0.02848,0.004 m 0,0 0.02854,0.002 m 0,0 0.02853,3.7e-4 m 0,0 0.02368,-0.001"
       style="fill:none;stroke:#000000;stroke-width:0.15;stroke-linecap:round;stroke-linejoin:round;stroke-miterlimit:4;stroke-dasharray:none"
       id="path6816" />
    <path
       d="m -50.919174,147.40167 0.0099,-0.0345 m 0,0 0.0086,-0.0352 m 0,0 0.0072,-0.0358 m 0,0 0.0058,-0.0363 m 0,0 0.0044,-0.0367 m 0,0 0.003,-0.0371 m 0,0 0.0016,-0.0373 m 0,0 1.36e-4,-0.0374 m 0,0 -0.0013,-0.0374 m 0,0 -0.0027,-0.0374 m 0,0 -0.0041,-0.0373 m 0,0 -0.0055,-0.037 m 0,0 -0.0069,-0.0367 m 0,0 -0.0083,-0.0362 m 0,0 -0.0097,-0.0357 m 0,0 -0.01099,-0.0351 m 0,0 -0.01229,-0.0344 m 0,0 -0.01357,-0.0337 m 0,0 -0.0148,-0.0328 m 0,0 -0.01601,-0.0319 m 0,0 -0.01717,-0.0308 m 0,0 -0.01829,-0.0297 m 0,0 -0.01936,-0.0285 m 0,0 -0.02038,-0.0273 m 0,0 -0.02136,-0.026 m 0,0 -0.02228,-0.0246 m 0,0 -0.02314,-0.0232 m 0,0 -0.02395,-0.0217 m 0,0 -0.0247,-0.0201 m 0,0 -0.02538,-0.0185 m 0,0 -0.026,-0.0169 m 0,0 -0.02656,-0.0152 m 0,0 -0.02705,-0.0134 m 0,0 -0.02747,-0.0117 m 0,0 -0.02782,-0.01 m 0,0 -0.02811,-0.008 m 0,0 -0.02832,-0.006 m 0,0 -0.02847,-0.004 m 0,0 -0.02854,-0.002 m 0,0 -0.02854,-6.3e-4 m 0,0 -0.02764,0.001"
       style="fill:none;stroke:#000000;stroke-width:0.15;stroke-linecap:round;stroke-linejoin:round;stroke-miterlimit:4;stroke-dasharray:none"
       id="path6818" />
    <path
       d="m -46.566489,147.85222 c -0.351704,0.21804 -0.69298,0.43674 -1.019615,0.65654 -0.524934,0.35323 -1.005739,0.70731 -1.449791,1.07117 -0.444051,0.36386 -0.855871,0.73668 -1.254388,1.11717 -0.398516,0.3805 -0.78369,0.76874 -1.173781,1.16207"
       style="fill:none;stroke:#000000;stroke-width:0.15;stroke-linecap:round;stroke-linejoin:round;stroke-miterlimit:4;stroke-dasharray:none"
       id="path6820" />
    <path
       d="m -14.837784,131.07485 -28.284271,16.32994"
       style="fill:none;stroke:#000000;stroke-width:0.15;stroke-linecap:round;stroke-linejoin:round;stroke-miterlimit:4;stroke-dasharray:none"
       id="path6822" />
    <path
       d="m -54.766971,145.67544 c 1.154755,0.0759 2.346846,0.0447 3.484071,-0.0911 1.116911,-0.13336 2.209175,-0.37094 3.19391,-0.69344 0.856536,-0.28051 1.649756,-0.63076 2.33252,-1.0272"
       style="fill:none;stroke:#000000;stroke-width:0.15;stroke-linecap:round;stroke-linejoin:round;stroke-miterlimit:4;stroke-dasharray:none"
       id="path6824" />
    <path
       d="m -46.369506,151.49469 c -0.354173,-0.69446 -0.531257,-1.45282 -0.503444,-2.19845 0.02614,-0.70091 0.232635,-1.40384 0.591773,-2.04897 0.361797,-0.64992 0.884422,-1.258 1.526951,-1.79407 0.234434,-0.19559 0.48589,-0.38285 0.752256,-0.56062"
       style="fill:none;stroke:#000000;stroke-width:0.15;stroke-linecap:round;stroke-linejoin:round;stroke-miterlimit:4;stroke-dasharray:none"
       id="path6826" />
    <path
       d="m -44.872055,143.63885 c -0.595468,0.34379 -1.187735,0.68569 -1.755383,1.00117 -0.567647,0.31548 -1.110965,0.60455 -1.604521,0.84184 -0.493555,0.23728 -0.927218,0.416 -1.303824,0.53574 -0.376606,0.11974 -0.704844,0.18903 -1.021145,0.23566 -0.316302,0.0466 -0.622063,0.0699 -0.94844,0.0943"
       style="fill:none;stroke:#000000;stroke-width:0.15;stroke-linecap:round;stroke-linejoin:round;stroke-miterlimit:4;stroke-dasharray:none"
       id="path6828" />
    <path
       d="m -48.198212,147.11423 c -0.0756,0.0498 -0.150712,0.0999 -0.22531,0.15005 -0.555579,0.37385 -1.082174,0.76135 -1.563086,1.15542 -0.480913,0.39406 -0.921665,0.79354 -1.339525,1.1925 -0.41786,0.39897 -0.812866,0.79737 -1.202956,1.19069"
       style="fill:none;stroke:#000000;stroke-width:0.15;stroke-linecap:round;stroke-linejoin:round;stroke-miterlimit:4;stroke-dasharray:none"
       id="path6830" />
    <path
       d="m -17.587784,126.31171 -28.284271,16.32994"
       style="fill:none;stroke:#000000;stroke-width:0.15;stroke-linecap:round;stroke-linejoin:round;stroke-miterlimit:4;stroke-dasharray:none"
       id="path6832" />
    <path
       d="m -43.2228,146.17341 c -0.640297,0.43435 -1.154505,0.92471 -1.509333,1.42127 -0.351207,0.49149 -0.555918,0.99645 -0.62294,1.48895 -0.01681,0.1235 -0.02517,0.24687 -0.02517,0.37017 0,0.3716 0.0758,0.7462 0.232262,1.12102 0.03986,0.0955 0.08502,0.19106 0.135527,0.28651"
       style="fill:none;stroke:#000000;stroke-width:0.15;stroke-linecap:round;stroke-linejoin:round;stroke-miterlimit:4;stroke-dasharray:none"
       id="path6834" />
    <path
       d="m -44.122055,144.93789 c -0.595468,0.34379 -1.194135,0.68948 -1.776705,1.01325 -0.582571,0.32378 -1.148753,0.62563 -1.683263,0.8826 -0.534509,0.25697 -1.040411,0.46746 -1.499263,0.61335 -0.458853,0.14589 -0.874722,0.23379 -1.256852,0.29013 -0.38213,0.0563 -0.729124,0.0818 -1.055502,0.10618"
       style="fill:none;stroke:#000000;stroke-width:0.15;stroke-linecap:round;stroke-linejoin:round;stroke-miterlimit:4;stroke-dasharray:none"
       id="path6836" />
    <path
       d="m -52.015743,147.1614 c -0.02835,0.002 -0.05671,0.004 -0.08506,0.006 -0.916081,0.0634 -1.850286,0.0649 -2.766951,0.005"
       style="fill:none;stroke:#000000;stroke-width:0.15;stroke-linecap:round;stroke-linejoin:round;stroke-miterlimit:4;stroke-dasharray:none"
       id="path6838" />
    <path
       d="m -21.586795,126.0805 0.0015,0.0723 m 0,0 0.0046,0.0739 m 0,0 0.0077,0.0753 m 0,0 0.01077,0.0766 m 0,0 0.0138,0.0776 m 0,0 0.0168,0.0785 m 0,0 0.01975,0.0791 m 0,0 0.02266,0.0795 m 0,0 0.02551,0.0798 m 0,0 0.02829,0.0799 m 0,0 0.03101,0.0797 m 0,0 0.03364,0.0794 m 0,0 0.0362,0.0788 m 0,0 0.03866,0.0781 m 0,0 0.04102,0.0772 m 0,0 0.04329,0.076 m 0,0 0.04544,0.0747 m 0,0 0.04748,0.0732 m 0,0 0.04941,0.0715 m 0,0 0.05121,0.0696 m 0,0 0.05288,0.0676 m 0,0 0.05441,0.0654 m 0,0 0.05582,0.063 m 0,0 0.05708,0.0605 m 0,0 0.0582,0.0578 m 0,0 0.05918,0.055 m 0,0 0.06001,0.052 m 0,0 0.02133,0.0176"
       style="fill:none;stroke:#000000;stroke-width:0.15;stroke-linecap:round;stroke-linejoin:round;stroke-miterlimit:4;stroke-dasharray:none"
       id="path6840" />
    <path
       d="m -19.137372,127.20637 -0.01399,-0.0777 m 0,0 -0.01699,-0.0785 m 0,0 -0.01994,-0.0791 m 0,0 -0.02284,-0.0796 m 0,0 -0.02569,-0.0798 m 0,0 -0.02847,-0.0799 m 0,0 -0.03118,-0.0797 m 0,0 -0.03381,-0.0794 m 0,0 -0.03636,-0.0788 m 0,0 -0.03881,-0.078 m 0,0 -0.04117,-0.0771 m 0,0 -0.04343,-0.076 m 0,0 -0.04558,-0.0746 m 0,0 -0.04761,-0.0731 m 0,0 -0.04952,-0.0714 m 0,0 -0.05132,-0.0695 m 0,0 -0.05298,-0.0675 m 0,0 -0.05451,-0.0653 m 0,0 -0.0559,-0.0629 m 0,0 -0.05716,-0.0603 m 0,0 -0.05827,-0.0576 m 0,0 -0.05923,-0.0548 m 0,0 -0.06005,-0.0518 m 0,0 -0.06072,-0.0487 m 0,0 -0.06124,-0.0455 m 0,0 -0.0616,-0.0422 m 0,0 -0.06181,-0.0387 m 0,0 -0.04305,-0.0249"
       style="fill:none;stroke:#000000;stroke-width:0.15;stroke-linecap:round;stroke-linejoin:round;stroke-miterlimit:4;stroke-dasharray:none"
       id="path6842" />
    <path
       d="m -20.370588,125.35401 -0.06181,-0.0327 m 0,0 -0.0616,-0.029 m 0,0 -0.06124,-0.0252 m 0,0 -0.06073,-0.0214 m 0,0 -0.06006,-0.0175 m 0,0 -0.05924,-0.0136 m 0,0 -0.05828,-0.01 m 0,0 -0.05717,-0.006 m 0,0 -0.05592,-0.002 m 0,0 -0.05452,0.002 m 0,0 -0.05299,0.006 m 0,0 -0.05133,0.0102 m 0,0 -0.04954,0.0142 m 0,0 -0.04763,0.0181 m 0,0 -0.0456,0.022 m 0,0 -0.04345,0.0258 m 0,0 -0.04119,0.0295 m 0,0 -0.03883,0.0332 m 0,0 -0.03638,0.0368 m 0,0 -0.03383,0.0403 m 0,0 -0.0312,0.0437 m 0,0 -0.02849,0.047 m 0,0 -0.02571,0.0501 m 0,0 -0.02287,0.0532 m 0,0 -0.01997,0.0561 m 0,0 -0.01702,0.0589 m 0,0 -0.01402,0.0615 m 0,0 -0.01099,0.064 m 0,0 -0.0079,0.0663 m 0,0 -0.0049,0.0684 m 0,0 -0.0018,0.0704 m 0,0 -8e-6,0.005"
       style="fill:none;stroke:#000000;stroke-width:0.15;stroke-linecap:round;stroke-linejoin:round;stroke-miterlimit:4;stroke-dasharray:none"
       id="path6844" />
    <path
       d="m -8.477157,124.25066 -2.730005,1.61714"
       style="fill:none;stroke:#000000;stroke-width:0.15;stroke-linecap:round;stroke-linejoin:round;stroke-miterlimit:4;stroke-dasharray:none"
       id="path6846" />
    <path
       d="m -18.303895,118.57719 -2.706079,1.63095"
       style="fill:none;stroke:#000000;stroke-width:0.15;stroke-linecap:round;stroke-linejoin:round;stroke-miterlimit:4;stroke-dasharray:none"
       id="path6848" />
    <path
       d="m -13.313646,130.857 0.0015,0.0723 m 0,0 0.0046,0.0739 m 0,0 0.0077,0.0753 m 0,0 0.01077,0.0766 m 0,0 0.0138,0.0776 m 0,0 0.0168,0.0785 m 0,0 0.01975,0.0791 m 0,0 0.02266,0.0795 m 0,0 0.02551,0.0798 m 0,0 0.02829,0.0799 m 0,0 0.03101,0.0797 m 0,0 0.03364,0.0794 m 0,0 0.0362,0.0788 m 0,0 0.03866,0.0781 m 0,0 0.04103,0.0772 m 0,0 0.04329,0.076 m 0,0 0.04544,0.0747 m 0,0 0.04748,0.0732 m 0,0 0.04941,0.0715 m 0,0 0.05121,0.0697 m 0,0 0.05288,0.0676 m 0,0 0.05442,0.0654 m 0,0 0.05582,0.063 m 0,0 0.05708,0.0605 m 0,0 0.0582,0.0578 m 0,0 0.05918,0.055 m 0,0 0.06001,0.052 m 0,0 0.06068,0.0489 m 0,0 0.06121,0.0457 m 0,0 0.06158,0.0424 m 0,0 0.0618,0.0389 m 0,0 0.06187,0.0354 m 0,0 0.06177,0.0318 m 0,0 0.06153,0.0281 m 0,0 0.06113,0.0243 m 0,0 0.06058,0.0205 m 0,0 0.05988,0.0166 m 0,0 0.05902,0.0127 m 0,0 0.05803,0.009 m 0,0 0.05688,0.005 m 0,0 0.05559,7.6e-4 m 0,0 0.05417,-0.003 m 0,0 0.0526,-0.007 m 0,0 0.05091,-0.0112 m 0,0 0.04909,-0.0151 m 0,0 0.04715,-0.019 m 0,0 0.04509,-0.0229 m 0,0 0.04292,-0.0267 m 0,0 0.04063,-0.0304 m 0,0 0.03825,-0.0341 m 0,0 0.03578,-0.0376 m 0,0 0.03321,-0.0411 m 0,0 0.03056,-0.0445 m 0,0 0.02783,-0.0477 m 0,0 0.02503,-0.0509 m 0,0 0.02217,-0.0539 m 0,0 0.01926,-0.0568 m 0,0 0.0163,-0.0595 m 0,0 0.01329,-0.0621 m 0,0 0.01026,-0.0645 m 0,0 0.0072,-0.0668 m 0,0 0.0041,-0.0689 m 0,0 8.88e-4,-0.0344"
       style="fill:none;stroke:#000000;stroke-width:0.15;stroke-linecap:round;stroke-linejoin:round;stroke-miterlimit:4;stroke-dasharray:none"
       id="path6850" />
    <path
       d="m -10.838955,132.31028 -4.85e-4,-0.0717 m 0,0 -0.0036,-0.0734 m 0,0 -0.0067,-0.0749 m 0,0 -0.0097,-0.0762 m 0,0 -0.01277,-0.0773 m 0,0 -0.01578,-0.0782 m 0,0 -0.01875,-0.0789 m 0,0 -0.02167,-0.0794 m 0,0 -0.02454,-0.0797 m 0,0 -0.02734,-0.0799 m 0,0 -0.03009,-0.0798 m 0,0 -0.03275,-0.0795 m 0,0 -0.03533,-0.079 m 0,0 -0.03783,-0.0784 m 0,0 -0.04022,-0.0775 m 0,0 -0.04252,-0.0764 m 0,0 -0.04472,-0.0752 m 0,0 -0.0468,-0.0737 m 0,0 -0.04876,-0.0721 m 0,0 -0.0506,-0.0703 m 0,0 -0.05232,-0.0683 m 0,0 -0.0539,-0.0662 m 0,0 -0.05535,-0.0639 m 0,0 -0.05666,-0.0614 m 0,0 -0.05784,-0.0588 m 0,0 -0.05886,-0.056 m 0,0 -0.05974,-0.0531 m 0,0 -0.06047,-0.05 m 0,0 -0.06105,-0.0468 m 0,0 -0.06147,-0.0435 m 0,0 -0.06174,-0.0401 m 0,0 -0.06186,-0.0366 m 0,0 -0.0063,-0.004"
       style="fill:none;stroke:#000000;stroke-width:0.15;stroke-linecap:round;stroke-linejoin:round;stroke-miterlimit:4;stroke-dasharray:none"
       id="path6852" />
    <path
       d="m -12.097438,130.13052 -0.06181,-0.0327 m 0,0 -0.0616,-0.029 m 0,0 -0.06124,-0.0252 m 0,0 -0.06073,-0.0214 m 0,0 -0.06006,-0.0175 m 0,0 -0.05924,-0.0136 m 0,0 -0.05828,-0.01 m 0,0 -0.05717,-0.006 m 0,0 -0.05592,-0.002 m 0,0 -0.05452,0.002 m 0,0 -0.05299,0.006 m 0,0 -0.05133,0.0102 m 0,0 -0.04954,0.0142 m 0,0 -0.04763,0.0181 m 0,0 -0.04559,0.022 m 0,0 -0.04345,0.0258 m 0,0 -0.04119,0.0295 m 0,0 -0.03884,0.0332 m 0,0 -0.03638,0.0368 m 0,0 -0.03383,0.0403 m 0,0 -0.0312,0.0437 m 0,0 -0.02849,0.047 m 0,0 -0.02571,0.0501 m 0,0 -0.02287,0.0532 m 0,0 -0.01997,0.0561 m 0,0 -0.01702,0.0588 m 0,0 -0.01402,0.0615 m 0,0 -0.01099,0.064 m 0,0 -0.0079,0.0663 m 0,0 -0.0049,0.0684 m 0,0 -0.0018,0.0704 m 0,0 -8e-6,0.005"
       style="fill:none;stroke:#000000;stroke-width:0.15;stroke-linecap:round;stroke-linejoin:round;stroke-miterlimit:4;stroke-dasharray:none"
       id="path6854" />
    <path
       d="m -18.303895,118.57719 c 0.04452,-0.0268 0.09083,-0.0424 0.13648,-0.0461 0.0031,-2.5e-4 0.0062,-4.4e-4 0.0093,-5.8e-4"
       style="fill:none;stroke:#000000;stroke-width:0.15;stroke-linecap:round;stroke-linejoin:round;stroke-miterlimit:4;stroke-dasharray:none"
       id="path6856" />
    <path
       d="m -14.837784,131.07485 0.067,-0.0426 m 0,0 0.0634,-0.0485 m 0,0 0.05964,-0.0542 m 0,0 0.05572,-0.0598 m 0,0 0.05167,-0.0653 m 0,0 0.04749,-0.0705 m 0,0 0.04319,-0.0756 m 0,0 0.03879,-0.0805 m 0,0 0.03428,-0.0853 m 0,0 0.02969,-0.0898 m 0,0 0.02503,-0.094 m 0,0 0.0203,-0.0981 m 0,0 0.01553,-0.10185 m 0,0 0.01071,-0.10539 m 0,0 0.0059,-0.10866 m 0,0 10e-4,-0.11167 m 0,0 -0.0038,-0.11439 m 0,0 -0.0087,-0.11683 m 0,0 -0.01353,-0.11897 m 0,0 -0.01832,-0.12083 m 0,0 -0.02307,-0.12236 m 0,0 -0.02776,-0.12362 m 0,0 -0.03238,-0.12454 m 0,0 -0.03693,-0.12516 m 0,0 -0.04137,-0.12547 m 0,0 -0.04572,-0.12547 m 0,0 -0.04995,-0.12514 m 0,0 -0.05406,-0.12451 m 0,0 -0.05803,-0.12357 m 0,0 -0.06185,-0.12232 m 0,0 -0.06552,-0.12076 m 0,0 -0.06903,-0.11889 m 0,0 -0.07237,-0.11675 m 0,0 -0.07552,-0.11429 m 0,0 -0.07849,-0.11155 m 0,0 -0.08125,-0.10855 m 0,0 -0.08382,-0.10526 m 0,0 -0.08618,-0.10171 m 0,0 -0.08832,-0.0979 m 0,0 -0.09024,-0.0939 m 0,0 -0.09193,-0.0896 m 0,0 -0.0934,-0.0851 m 0,0 -0.09463,-0.0803 m 0,0 -0.09563,-0.0754 m 0,0 -0.09638,-0.0703 m 0,0 -0.0969,-0.0651 m 0,0 -0.09717,-0.0596 m 0,0 -0.0972,-0.054 m 0,0 -0.09699,-0.0483 m 0,0 -0.09653,-0.0424 m 0,0 -0.09583,-0.0365 m 0,0 -0.0949,-0.0304 m 0,0 -0.09373,-0.0243 m 0,0 -0.09232,-0.0181 m 0,0 -0.09068,-0.0119 m 0,0 -0.08881,-0.006 m 0,0 -0.08673,6.5e-4 m 0,0 -0.08442,0.007 m 0,0 -0.08191,0.0132 m 0,0 -0.07919,0.0194 m 0,0 -0.07627,0.0256 m 0,0 -0.07316,0.0317 m 0,0 -0.05836,0.0309"
       style="fill:none;stroke:#000000;stroke-width:0.15;stroke-linecap:round;stroke-linejoin:round;stroke-miterlimit:4;stroke-dasharray:none"
       id="path6860" />
    <path
       d="m -8.477157,124.25066 c 0.04491,-0.0266 0.08734,-0.0444 0.125074,-0.0527 0.03829,-0.008 0.07092,-0.007 0.09631,0.005 0.003,10e-4 0.0059,0.003 0.0087,0.004"
       style="fill:none;stroke:#000000;stroke-width:0.15;stroke-linecap:round;stroke-linejoin:round;stroke-miterlimit:4;stroke-dasharray:none"
       id="path6862" />
    <path
       d="m -22.47684,128.72216 c -0.03769,-0.0218 -0.07267,-0.0487 -0.104926,-0.0794 -0.03226,-0.0307 -0.06178,-0.0653 -0.08806,-0.1025 -0.02628,-0.0372 -0.04931,-0.0771 -0.0684,-0.11848 -0.01909,-0.0414 -0.03426,-0.0842 -0.04474,-0.12751 -0.01048,-0.0433 -0.01632,-0.0871 -0.01632,-0.13058"
       style="fill:none;stroke:#000000;stroke-width:0.15;stroke-linecap:round;stroke-linejoin:round;stroke-miterlimit:4;stroke-dasharray:none"
       id="path6866" />
    <path
       d="m -22.79929,119.66773 c 0,-0.0213 0.0014,-0.0425 0.0045,-0.0636 0.0031,-0.0211 0.0078,-0.042 0.01452,-0.0627 0.0067,-0.0206 0.01548,-0.0409 0.0266,-0.0603 0.01112,-0.0195 0.02463,-0.038 0.04057,-0.0549 0.01593,-0.0169 0.03429,-0.032 0.0544,-0.0444"
       style="fill:none;stroke:#000000;stroke-width:0.15;stroke-linecap:round;stroke-linejoin:round;stroke-miterlimit:4;stroke-dasharray:none"
       id="path6868" />
    <path
       d="m -19.476923,117.72365 a 0.5,0.5 0 0 0 -0.512971,0.008"
       style="fill:none;stroke:#000000;stroke-width:0.15;stroke-linecap:round;stroke-linejoin:round;stroke-miterlimit:4;stroke-dasharray:none"
       id="path6870" />
    <path
       d="m -22.658736,119.38176 2.668842,-1.65036"
       style="fill:none;stroke:#000000;stroke-width:0.15;stroke-linecap:round;stroke-linejoin:round;stroke-miterlimit:4;stroke-dasharray:none"
       id="path6872" />
    <path
       d="m -9.568656,136.01241 c -0.02082,0.0112 -0.04309,0.0195 -0.06568,0.0249 -0.02259,0.005 -0.04546,0.008 -0.06786,0.008 -0.0224,-9e-5 -0.04434,-0.003 -0.06556,-0.007 -0.02122,-0.004 -0.04173,-0.0109 -0.06153,-0.0188 -0.0198,-0.008 -0.03889,-0.0173 -0.05732,-0.0279"
       style="fill:none;stroke:#000000;stroke-width:0.15;stroke-linecap:round;stroke-linejoin:round;stroke-miterlimit:4;stroke-dasharray:none"
       id="path6874" />
    <path
       d="m -6.804989,134.5263 a 0.5,0.5 0 0 0 0.2632,-0.44037"
       style="fill:none;stroke:#000000;stroke-width:0.15;stroke-linecap:round;stroke-linejoin:round;stroke-miterlimit:4;stroke-dasharray:none"
       id="path6876" />
    <path
       d="m -18.084333,118.52766 -1.39259,-0.80401"
       style="fill:none;stroke:#000000;stroke-width:0.15;stroke-linecap:round;stroke-linejoin:round;stroke-miterlimit:4;stroke-dasharray:none"
       id="path6878" />
    <path
       d="m -6.541789,134.08593 v -8.6055"
       style="fill:none;stroke:#000000;stroke-width:0.15;stroke-linecap:round;stroke-linejoin:round;stroke-miterlimit:4;stroke-dasharray:none"
       id="path6880" />
    <path
       d="m -6.541789,125.48043 a 0.5,0.5 0 0 0 -0.25,-0.43301"
       style="fill:none;stroke:#000000;stroke-width:0.15;stroke-linecap:round;stroke-linejoin:round;stroke-miterlimit:4;stroke-dasharray:none"
       id="path6882" />
    <path
       d="m -8.233116,124.21527 c -0.59173,-0.71119 -1.215785,-1.37399 -1.861017,-1.97597 -0.648997,-0.60548 -1.319381,-1.14942 -1.999401,-1.62125 -0.68002,-0.47183 -1.36965,-0.87156 -2.057226,-1.19075 -0.687576,-0.3192 -1.373138,-0.55788 -2.045071,-0.70934 -0.671932,-0.15145 -1.330404,-0.2156 -1.962297,-0.18743"
       style="fill:none;stroke:#000000;stroke-width:0.15;stroke-linecap:round;stroke-linejoin:round;stroke-miterlimit:4;stroke-dasharray:none"
       id="path6884" />
    <path
       d="m -22.79929,119.66773 v 8.49594"
       style="fill:none;stroke:#000000;stroke-width:0.15;stroke-linecap:round;stroke-linejoin:round;stroke-miterlimit:4;stroke-dasharray:none"
       id="path6886" />
    <path
       d="m -6.791789,125.04742 -1.455333,-0.84024"
       style="fill:none;stroke:#000000;stroke-width:0.15;stroke-linecap:round;stroke-linejoin:round;stroke-miterlimit:4;stroke-dasharray:none"
       id="path6888" />
    <path
       d="m -9.568656,136.01241 2.763667,-1.48611"
       style="fill:none;stroke:#000000;stroke-width:0.15;stroke-linecap:round;stroke-linejoin:round;stroke-miterlimit:4;stroke-dasharray:none"
       id="path6890" />
    <path
       d="m -22.47684,128.72216 0.357017,0.20613"
       style="fill:none;stroke:#000000;stroke-width:0.15;stroke-linecap:round;stroke-linejoin:round;stroke-miterlimit:4;stroke-dasharray:none"
       id="path6892" />
    <path
       d="m -16.619823,132.10372 6.733229,3.88743"
       style="fill:none;stroke:#000000;stroke-width:0.15;stroke-linecap:round;stroke-linejoin:round;stroke-miterlimit:4;stroke-dasharray:none"
       id="path6894" />
    <path
       d="M -6.541797,125.47758 130.25089,46.50029"
       style="fill:none;stroke:#000000;stroke-width:0.15;stroke-linecap:round;stroke-linejoin:round;stroke-miterlimit:4;stroke-dasharray:none"
       id="path6896" />
    <path
       d="M 129.80477,45.94136 -7.001369,124.92642"
       style="fill:none;stroke:#000000;stroke-width:0.15;stroke-linecap:round;stroke-linejoin:round;stroke-miterlimit:4;stroke-dasharray:none"
       id="path6898" />
    <path
       d="m 120.85986,36.68742 -0.0175,-0.01 m 0,0 -0.0175,-0.009 m 0,0 -0.0174,-0.008 m 0,0 -0.0173,-0.007 m 0,0 -0.0171,-0.005 m 0,0 -0.0169,-0.004 m 0,0 -0.0166,-0.003 m 0,0 -0.0164,-0.002 m 0,0 -0.016,-9.2e-4 m 0,0 -0.0156,2.2e-4 m 0,0 -0.0152,10e-4 m 0,0 -0.0148,0.003 m 0,0 -0.0143,0.004 m 0,0 -0.0138,0.005 m 0,0 -0.0132,0.006 m 0,0 -0.005,0.002"
       style="fill:none;stroke:#000000;stroke-width:0.15;stroke-linecap:round;stroke-linejoin:round;stroke-miterlimit:4;stroke-dasharray:none"
       id="path6904" />
    <path
       d="m 133.45254,43.9578 -2.60234,1.50246"
       style="fill:none;stroke:#000000;stroke-width:0.15;stroke-linecap:round;stroke-linejoin:round;stroke-miterlimit:4;stroke-dasharray:none"
       id="path6906" />
    <path
       d="m 130.49048,46.07614 v 8.6055"
       style="fill:none;stroke:#000000;stroke-width:0.15;stroke-linecap:round;stroke-linejoin:round;stroke-miterlimit:4;stroke-dasharray:none"
       id="path6908" />
    <path
       d="m 118.16507,38.1365 2.69479,-1.44908"
       style="fill:none;stroke:#000000;stroke-width:0.15;stroke-linecap:round;stroke-linejoin:round;stroke-miterlimit:4;stroke-dasharray:none"
       id="path6910" />
    <path
       d="m 133.70808,53.29433 0.012,-0.008 m 0,0 0.0113,-0.009 m 0,0 0.0106,-0.0102 m 0,0 0.01,-0.0112 m 0,0 0.009,-0.0122 m 0,0 0.008,-0.0131 m 0,0 0.007,-0.014 m 0,0 0.007,-0.0149 m 0,0 0.006,-0.0157 m 0,0 0.005,-0.0165 m 0,0 0.004,-0.0173 m 0,0 0.003,-0.018 m 0,0 0.002,-0.0187 m 0,0 0.001,-0.0193 m 0,0 6.1e-4,-0.0199 m 0,0 1e-5,-0.007"
       style="fill:none;stroke:#000000;stroke-width:0.15;stroke-linecap:round;stroke-linejoin:round;stroke-miterlimit:4;stroke-dasharray:none"
       id="path6912" />
    <path
       d="m 120.98178,36.67679 -0.006,-0.003 m 0,0 -0.007,-0.003 m 0,0 -0.007,-0.002 m 0,0 -0.007,-0.002 m 0,0 -0.007,-10e-4 m 0,0 -0.008,-5.4e-4 m 0,0 -0.008,4e-5 m 0,0 -0.008,6.1e-4 m 0,0 -0.008,10e-4 m 0,0 -0.008,0.002 m 0,0 -0.009,0.002 m 0,0 -0.009,0.003 m 0,0 -0.009,0.003 m 0,0 -0.009,0.004 m 0,0 -0.009,0.004 m 0,0 -0.003,0.002"
       style="fill:none;stroke:#000000;stroke-width:0.15;stroke-linecap:round;stroke-linejoin:round;stroke-miterlimit:4;stroke-dasharray:none"
       id="path6914" />
    <path
       d="m 131.2037,54.67804 v -8.6055"
       style="fill:none;stroke:#000000;stroke-width:0.15;stroke-linecap:round;stroke-linejoin:round;stroke-miterlimit:4;stroke-dasharray:none"
       id="path6916" />
    <path
       d="m 133.80604,53.06882 -2.60234,1.60922"
       style="fill:none;stroke:#000000;stroke-width:0.15;stroke-linecap:round;stroke-linejoin:round;stroke-miterlimit:4;stroke-dasharray:none"
       id="path6918" />
    <path
       d="m 118.16507,38.1365 -0.0177,0.0104 m 0,0 -0.0176,0.0114 m 0,0 -0.0176,0.0123 m 0,0 -0.0174,0.0133 m 0,0 -0.0173,0.0142 m 0,0 -0.0171,0.0151 m 0,0 -0.0168,0.0159 m 0,0 -0.0166,0.0167 m 0,0 -0.0162,0.0175 m 0,0 -0.0159,0.0182 m 0,0 -0.0155,0.0188 m 0,0 -0.015,0.0195 m 0,0 -0.0145,0.02 m 0,0 -0.014,0.0206 m 0,0 -0.0134,0.021 m 0,0 -0.0128,0.0214 m 0,0 -0.0122,0.0218 m 0,0 -0.0116,0.0221 m 0,0 -0.0109,0.0224 m 0,0 -0.0102,0.0226 m 0,0 -0.009,0.0227 m 0,0 -0.009,0.0228 m 0,0 -0.008,0.0228 m 0,0 -0.007,0.0228 m 0,0 -0.006,0.0227 m 0,0 -0.005,0.0226 m 0,0 -0.005,0.0224 m 0,0 -0.004,0.0221 m 0,0 -0.003,0.0218 m 0,0 -0.002,0.0214 m 0,0 -0.001,0.021 m 0,0 -2.6e-4,0.0158"
       style="fill:none;stroke:#000000;stroke-width:0.15;stroke-linecap:round;stroke-linejoin:round;stroke-miterlimit:4;stroke-dasharray:none"
       id="path6920" />
    <path
       d="m 133.80604,53.06882 0.008,-0.005 m 0,0 0.008,-0.006 m 0,0 0.007,-0.006 m 0,0 0.007,-0.006 m 0,0 0.006,-0.006 m 0,0 0.006,-0.006 m 0,0 0.005,-0.007 m 0,0 0.005,-0.007 m 0,0 0.004,-0.007 m 0,0 0.004,-0.007 m 0,0 0.003,-0.007 m 0,0 0.002,-0.007 m 0,0 0.002,-0.007 m 0,0 0.001,-0.007 m 0,0 5.4e-4,-0.007 m 0,0 4e-5,-0.003"
       style="fill:none;stroke:#000000;stroke-width:0.15;stroke-linecap:round;stroke-linejoin:round;stroke-miterlimit:4;stroke-dasharray:none"
       id="path6922" />
    <path
       d="m 133.80604,44.57008 v 8.49874"
       style="fill:none;stroke:#000000;stroke-width:0.15;stroke-linecap:round;stroke-linejoin:round;stroke-miterlimit:4;stroke-dasharray:none"
       id="path6924" />
    <path
       d="m 132.05791,43.15262 -0.46043,-0.5356 m 0,0 -0.47153,-0.51509 m 0,0 -0.48146,-0.49331 m 0,0 -0.49017,-0.47029 m 0,0 -0.49767,-0.44609 m 0,0 -0.50391,-0.42078 m 0,0 -0.50891,-0.39442 m 0,0 -0.51263,-0.36707 m 0,0 -0.51506,-0.3388 m 0,0 -0.51621,-0.30969 m 0,0 -0.51607,-0.27981 m 0,0 -0.51465,-0.24921 m 0,0 -0.51192,-0.21801 m 0,0 -0.50793,-0.18626 m 0,0 -0.50266,-0.15403 m 0,0 -0.49614,-0.12143 m 0,0 -0.48838,-0.0885 m 0,0 -0.47939,-0.0554 m 0,0 -0.46921,-0.0221 m 0,0 -0.35909,0.006"
       style="fill:none;stroke:#000000;stroke-width:0.15;stroke-linecap:round;stroke-linejoin:round;stroke-miterlimit:4;stroke-dasharray:none"
       id="path6926" />
    <path
       d="m 130.49048,46.07614 0.0181,0.01 m 0,0 0.019,0.009 m 0,0 0.0197,0.009 m 0,0 0.0205,0.008 m 0,0 0.0212,0.008 m 0,0 0.0218,0.007 m 0,0 0.0224,0.006 m 0,0 0.0229,0.006 m 0,0 0.0234,0.005 m 0,0 0.0238,0.004 m 0,0 0.0242,0.004 m 0,0 0.0244,0.003 m 0,0 0.0247,0.002 m 0,0 0.0248,0.002 m 0,0 0.025,8.7e-4 m 0,0 0.025,1.5e-4 m 0,0 0.025,-5.8e-4 m 0,0 0.0249,-10e-4 m 0,0 0.0248,-0.002 m 0,0 0.0246,-0.003 m 0,0 0.0243,-0.003 m 0,0 0.024,-0.004 m 0,0 0.0236,-0.005 m 0,0 0.0231,-0.005 m 0,0 0.0226,-0.006 m 0,0 0.0221,-0.007 m 0,0 0.0214,-0.007 m 0,0 0.0208,-0.008 m 0,0 0.02,-0.009 m 0,0 0.0193,-0.009 m 0,0 0.0185,-0.01 m 0,0 0.0135,-0.008"
       style="fill:none;stroke:#000000;stroke-width:0.15;stroke-linecap:round;stroke-linejoin:round;stroke-miterlimit:4;stroke-dasharray:none"
       id="path6928" />
    <path
       d="m 131.2037,46.07254 -1.5e-4,-0.0208 m 0,0 -0.001,-0.0213 m 0,0 -0.002,-0.0217 m 0,0 -0.003,-0.022 m 0,0 -0.004,-0.0223 m 0,0 -0.005,-0.0225 m 0,0 -0.005,-0.0227 m 0,0 -0.006,-0.0228 m 0,0 -0.007,-0.0229 m 0,0 -0.008,-0.0229 m 0,0 -0.009,-0.0228 m 0,0 -0.01,-0.0227 m 0,0 -0.0103,-0.0226 m 0,0 -0.011,-0.0223 m 0,0 -0.0117,-0.0221 m 0,0 -0.0124,-0.0217 m 0,0 -0.013,-0.0213 m 0,0 -0.0136,-0.0209 m 0,0 -0.0142,-0.0204 m 0,0 -0.0147,-0.0198 m 0,0 -0.0152,-0.0192 m 0,0 -0.0157,-0.0186 m 0,0 -0.0161,-0.0179 m 0,0 -0.0165,-0.0172 m 0,0 -0.0168,-0.0164 m 0,0 -0.0171,-0.0156 m 0,0 -0.0174,-0.0147 m 0,0 -0.0176,-0.0138 m 0,0 -0.0178,-0.0129 m 0,0 -0.0179,-0.0119 m 0,0 -0.0179,-0.011 m 0,0 -0.007,-0.004"
       style="fill:none;stroke:#000000;stroke-width:0.15;stroke-linecap:round;stroke-linejoin:round;stroke-miterlimit:4;stroke-dasharray:none"
       id="path6930" />
    <path
       d="m 128.97143,45.19911 -0.44497,-0.5226 m 0,0 -0.45593,-0.50291 m 0,0 -0.46572,-0.48196 m 0,0 -0.47437,-0.4598 m 0,0 -0.48182,-0.4365 m 0,0 -0.48807,-0.41211 m 0,0 -0.4931,-0.38668 m 0,0 -0.4969,-0.36028 m 0,0 -0.49945,-0.333 m 0,0 -0.50077,-0.30487 m 0,0 -0.50082,-0.27598 m 0,0 -0.49962,-0.2464 m 0,0 -0.49718,-0.21622 m 0,0 -0.49349,-0.18548 m 0,0 -0.48857,-0.15428 m 0,0 -0.48243,-0.1227 m 0,0 -0.47508,-0.0908 m 0,0 -0.46655,-0.0587 m 0,0 -0.45685,-0.0264 m 0,0 -0.446,0.006 m 0,0 -0.0394,0.002"
       style="fill:none;stroke:#000000;stroke-width:0.15;stroke-linecap:round;stroke-linejoin:round;stroke-miterlimit:4;stroke-dasharray:none"
       id="path6932" />
    <path
       d="m 130.8502,45.46026 -0.0177,0.0104 m 0,0 -0.0177,0.0114 m 0,0 -0.0176,0.0123 m 0,0 -0.0175,0.0133 m 0,0 -0.0173,0.0142 m 0,0 -0.0171,0.0151 m 0,0 -0.0169,0.0159 m 0,0 -0.0165,0.0167 m 0,0 -0.0162,0.0175 m 0,0 -0.0159,0.0182 m 0,0 -0.0154,0.0188 m 0,0 -0.015,0.0195 m 0,0 -0.0145,0.02 m 0,0 -0.014,0.0206 m 0,0 -0.0134,0.021 m 0,0 -0.0128,0.0214 m 0,0 -0.0122,0.0218 m 0,0 -0.0116,0.0221 m 0,0 -0.0109,0.0224 m 0,0 -0.0102,0.0226 m 0,0 -0.009,0.0227 m 0,0 -0.009,0.0228 m 0,0 -0.008,0.0228 m 0,0 -0.007,0.0228 m 0,0 -0.006,0.0227 m 0,0 -0.005,0.0226 m 0,0 -0.005,0.0224 m 0,0 -0.004,0.0221 m 0,0 -0.003,0.0218 m 0,0 -0.002,0.0214 m 0,0 -0.001,0.021 m 0,0 -2.6e-4,0.0158"
       style="fill:none;stroke:#000000;stroke-width:0.15;stroke-linecap:round;stroke-linejoin:round;stroke-miterlimit:4;stroke-dasharray:none"
       id="path6934" />
    <path
       d="M 117.80534,39.63618 V 38.75237"
       style="fill:none;stroke:#000000;stroke-width:0.15;stroke-linecap:round;stroke-linejoin:round;stroke-miterlimit:4;stroke-dasharray:none"
       id="path6936" />
    <path
       d="M 130.8502,45.46026 129.421,44.63512"
       style="fill:none;stroke:#000000;stroke-width:0.15;stroke-linecap:round;stroke-linejoin:round;stroke-miterlimit:4;stroke-dasharray:none"
       id="path6938" />
    <path
       d="m 117.6589,38.54825 6.2e-4,0.0144 m 0,0 0.002,0.0144 m 0,0 0.003,0.0143 m 0,0 0.004,0.0142 m 0,0 0.006,0.0141 m 0,0 0.007,0.0139 m 0,0 0.008,0.0137 m 0,0 0.009,0.0134 m 0,0 0.0103,0.0131 m 0,0 0.0114,0.0128 m 0,0 0.0125,0.0125 m 0,0 0.0136,0.0121 m 0,0 0.0146,0.0117 m 0,0 0.0156,0.0113 m 0,0 0.0166,0.0108 m 0,0 0.0123,0.007"
       style="fill:none;stroke:#000000;stroke-width:0.15;stroke-linecap:round;stroke-linejoin:round;stroke-miterlimit:4;stroke-dasharray:none"
       id="path6940" />
    <path
       d="m 119.59427,38.96165 -1.4292,-0.82515"
       style="fill:none;stroke:#000000;stroke-width:0.15;stroke-linecap:round;stroke-linejoin:round;stroke-miterlimit:4;stroke-dasharray:none"
       id="path6942" />
    <path
       d="m 130.49048,54.68164 -0.76787,-0.44333"
       style="fill:none;stroke:#000000;stroke-width:0.15;stroke-linecap:round;stroke-linejoin:round;stroke-miterlimit:4;stroke-dasharray:none"
       id="path6944" />
    <path
       d="m 118.16507,38.1365 -0.0174,-0.01 m 0,0 -0.0173,-0.009 m 0,0 -0.0173,-0.008 m 0,0 -0.0171,-0.007 m 0,0 -0.017,-0.006 m 0,0 -0.0168,-0.004 m 0,0 -0.0166,-0.003 m 0,0 -0.0163,-0.002 m 0,0 -0.0159,-9.7e-4 m 0,0 -0.0156,1.9e-4 m 0,0 -0.0152,10e-4 m 0,0 -0.0147,0.002 m 0,0 -0.0143,0.004 m 0,0 -0.0137,0.005 m 0,0 -0.0132,0.006 m 0,0 -0.005,0.002"
       style="fill:none;stroke:#000000;stroke-width:0.15;stroke-linecap:round;stroke-linejoin:round;stroke-miterlimit:4;stroke-dasharray:none"
       id="path6946" />
    <path
       d="m 130.49048,54.68164 4.4e-4,0.0202 m 0,0 0.001,0.0196 m 0,0 0.002,0.019 m 0,0 0.003,0.0183 m 0,0 0.004,0.0176 m 0,0 0.005,0.0169 m 0,0 0.006,0.0161 m 0,0 0.006,0.0152 m 0,0 0.007,0.0144 m 0,0 0.008,0.0135 m 0,0 0.009,0.0126 m 0,0 0.01,0.0116 m 0,0 0.0103,0.0106 m 0,0 0.0111,0.01 m 0,0 0.0117,0.009 m 0,0 0.009,0.005"
       style="fill:none;stroke:#000000;stroke-width:0.15;stroke-linecap:round;stroke-linejoin:round;stroke-miterlimit:4;stroke-dasharray:none"
       id="path6948" />
    <path
       d="m 129.421,44.63512 -0.46275,-0.53755 m 0,0 -0.47388,-0.51692 m 0,0 -0.48382,-0.49501 m 0,0 -0.49256,-0.47186 m 0,0 -0.50005,-0.44753 m 0,0 -0.5063,-0.42207 m 0,0 -0.51128,-0.39558 m 0,0 -0.51499,-0.36808 m 0,0 -0.51741,-0.33967 m 0,0 -0.51853,-0.31041 m 0,0 -0.51837,-0.28037 m 0,0 -0.51689,-0.24964 m 0,0 -0.51414,-0.21827 m 0,0 -0.5101,-0.18636 m 0,0 -0.50478,-0.15399 m 0,0 -0.4982,-0.12124 m 0,0 -0.49037,-0.0882 m 0,0 -0.48132,-0.0549 m 0,0 -0.47107,-0.0215 m 0,0 -0.33992,0.006"
       style="fill:none;stroke:#000000;stroke-width:0.15;stroke-linecap:round;stroke-linejoin:round;stroke-miterlimit:4;stroke-dasharray:none"
       id="path6950" />
    <path
       d="m 128.97143,45.19911 1.51905,0.87703"
       style="fill:none;stroke:#000000;stroke-width:0.15;stroke-linecap:round;stroke-linejoin:round;stroke-miterlimit:4;stroke-dasharray:none"
       id="path6952" />
    <path
       d="m 133.80604,44.57008 0.008,-0.005 m 0,0 0.008,-0.006 m 0,0 0.007,-0.006 m 0,0 0.007,-0.006 m 0,0 0.006,-0.006 m 0,0 0.006,-0.006 m 0,0 0.005,-0.007 m 0,0 0.005,-0.007 m 0,0 0.004,-0.007 m 0,0 0.004,-0.007 m 0,0 0.003,-0.007 m 0,0 0.002,-0.007 m 0,0 0.002,-0.007 m 0,0 0.001,-0.007 m 0,0 5.4e-4,-0.007 m 0,0 4e-5,-0.003"
       style="fill:none;stroke:#000000;stroke-width:0.15;stroke-linecap:round;stroke-linejoin:round;stroke-miterlimit:4;stroke-dasharray:none"
       id="path6954" />
    <path
       d="m 133.80604,44.57008 -3e-4,-0.0207 m 0,0 -10e-4,-0.0212 m 0,0 -0.002,-0.0216 m 0,0 -0.003,-0.0219 m 0,0 -0.004,-0.0222 m 0,0 -0.005,-0.0225 m 0,0 -0.006,-0.0227 m 0,0 -0.006,-0.0228 m 0,0 -0.007,-0.0228 m 0,0 -0.008,-0.0229 m 0,0 -0.009,-0.0228 m 0,0 -0.01,-0.0227 m 0,0 -0.0103,-0.0225 m 0,0 -0.011,-0.0223 m 0,0 -0.0117,-0.0221 m 0,0 -0.0124,-0.0217 m 0,0 -0.013,-0.0213 m 0,0 -0.0136,-0.0209 m 0,0 -0.0142,-0.0204 m 0,0 -0.0147,-0.0199 m 0,0 -0.0152,-0.0193 m 0,0 -0.0156,-0.0187 m 0,0 -0.016,-0.018 m 0,0 -0.0164,-0.0172 m 0,0 -0.0167,-0.0165 m 0,0 -0.017,-0.0156 m 0,0 -0.0173,-0.0148 m 0,0 -0.0175,-0.0139 m 0,0 -0.0176,-0.013 m 0,0 -0.0177,-0.012 m 0,0 -0.0178,-0.011 m 0,0 -0.007,-0.004"
       style="fill:none;stroke:#000000;stroke-width:0.15;stroke-linecap:round;stroke-linejoin:round;stroke-miterlimit:4;stroke-dasharray:none"
       id="path6956" />
    <path
       d="m 131.107,54.90277 0.0119,-0.008 m 0,0 0.0112,-0.009 m 0,0 0.0105,-0.0102 m 0,0 0.01,-0.0112 m 0,0 0.009,-0.0121 m 0,0 0.008,-0.0131 m 0,0 0.007,-0.014 m 0,0 0.007,-0.0148 m 0,0 0.006,-0.0157 m 0,0 0.005,-0.0165 m 0,0 0.004,-0.0172 m 0,0 0.003,-0.0179 m 0,0 0.002,-0.0186 m 0,0 10e-4,-0.0192 m 0,0 4.6e-4,-0.0198 m 0,0 -5e-5,-0.007"
       style="fill:none;stroke:#000000;stroke-width:0.15;stroke-linecap:round;stroke-linejoin:round;stroke-miterlimit:4;stroke-dasharray:none"
       id="path6958" />
    <path
       d="m 131.2037,46.07254 2.60234,-1.50246"
       style="fill:none;stroke:#000000;stroke-width:0.15;stroke-linecap:round;stroke-linejoin:round;stroke-miterlimit:4;stroke-dasharray:none"
       id="path6960" />
    <path
       d="m 117.80534,38.75237 1.51905,0.87702"
       style="fill:none;stroke:#000000;stroke-width:0.15;stroke-linecap:round;stroke-linejoin:round;stroke-miterlimit:4;stroke-dasharray:none"
       id="path6962" />
    <path
       d="m 132.05791,43.15262 1.39463,0.80518"
       style="fill:none;stroke:#000000;stroke-width:0.15;stroke-linecap:round;stroke-linejoin:round;stroke-miterlimit:4;stroke-dasharray:none"
       id="path6964" />
    <path
       d="m 120.85986,36.68742 1.39463,0.80519"
       style="fill:none;stroke:#000000;stroke-width:0.15;stroke-linecap:round;stroke-linejoin:round;stroke-miterlimit:4;stroke-dasharray:none"
       id="path6966" />
    <path
       d="m 130.49048,54.68164 0.0181,0.01 m 0,0 0.019,0.009 m 0,0 0.0197,0.009 m 0,0 0.0205,0.008 m 0,0 0.0212,0.008 m 0,0 0.0218,0.007 m 0,0 0.0224,0.006 m 0,0 0.0229,0.006 m 0,0 0.0234,0.005 m 0,0 0.0238,0.004 m 0,0 0.0242,0.004 m 0,0 0.0244,0.003 m 0,0 0.0247,0.002 m 0,0 0.0248,0.002 m 0,0 0.025,8.7e-4 m 0,0 0.025,1.5e-4 m 0,0 0.025,-5.7e-4 m 0,0 0.0249,-10e-4 m 0,0 0.0248,-0.002 m 0,0 0.0246,-0.003 m 0,0 0.0243,-0.003 m 0,0 0.024,-0.004 m 0,0 0.0236,-0.005 m 0,0 0.0231,-0.005 m 0,0 0.0226,-0.006 m 0,0 0.0221,-0.007 m 0,0 0.0214,-0.007 m 0,0 0.0208,-0.008 m 0,0 0.02,-0.009 m 0,0 0.0193,-0.009 m 0,0 0.0185,-0.01 m 0,0 0.0135,-0.008"
       style="fill:none;stroke:#000000;stroke-width:0.15;stroke-linecap:round;stroke-linejoin:round;stroke-miterlimit:4;stroke-dasharray:none"
       id="path6968" />
    <path
       d="m 133.57445,43.94717 -0.006,-0.003 m 0,0 -0.007,-0.003 m 0,0 -0.007,-0.002 m 0,0 -0.007,-0.002 m 0,0 -0.007,-0.001 m 0,0 -0.008,-5.3e-4 m 0,0 -0.008,3e-5 m 0,0 -0.008,6.1e-4 m 0,0 -0.008,0.001 m 0,0 -0.008,0.002 m 0,0 -0.009,0.002 m 0,0 -0.009,0.003 m 0,0 -0.009,0.003 m 0,0 -0.009,0.004 m 0,0 -0.009,0.004 m 0,0 -0.003,0.002"
       style="fill:none;stroke:#000000;stroke-width:0.15;stroke-linecap:round;stroke-linejoin:round;stroke-miterlimit:4;stroke-dasharray:none"
       id="path6970" />
    <path
       d="m -9.568656,136.01241 0.0124,-0.007 m 0,0 0.01177,-0.008 m 0,0 0.0111,-0.01 m 0,0 0.0104,-0.0105 m 0,0 0.0097,-0.0115 m 0,0 0.0089,-0.0125 m 0,0 0.0082,-0.0134 m 0,0 0.0074,-0.0144 m 0,0 0.0066,-0.0152 m 0,0 0.0057,-0.0161 m 0,0 0.0049,-0.0169 m 0,0 0.0041,-0.0176 m 0,0 0.0032,-0.0183 m 0,0 0.0023,-0.019 m 0,0 0.0015,-0.0196 m 0,0 5.81e-4,-0.0202 m 0,0 7e-6,-0.001"
       style="fill:none;stroke:#000000;stroke-width:0.15;stroke-linecap:round;stroke-linejoin:round;stroke-miterlimit:4;stroke-dasharray:none"
       id="path7000" />
    <path
       d="m -7.047959,125.07581 -2.765486,1.59665"
       style="fill:none;stroke:#000000;stroke-width:0.15;stroke-linecap:round;stroke-linejoin:round;stroke-miterlimit:4;stroke-dasharray:none"
       id="path7004" />
    <path
       d="m -9.459945,127.28474 2.765485,-1.59665"
       style="fill:none;stroke:#000000;stroke-width:0.15;stroke-linecap:round;stroke-linejoin:round;stroke-miterlimit:4;stroke-dasharray:none"
       id="path7016" />
    <path
       d="m -22.403691,119.40348 -0.01776,-0.01 m 0,0 -0.01771,-0.009 m 0,0 -0.01762,-0.008 m 0,0 -0.01748,-0.006 m 0,0 -0.0173,-0.005 m 0,0 -0.01707,-0.004 m 0,0 -0.01681,-0.003 m 0,0 -0.0165,-0.002 m 0,0 -0.01615,-8.5e-4 m 0,0 -0.01576,2.8e-4 m 0,0 -0.01533,0.001 m 0,0 -0.01486,0.003 m 0,0 -0.01435,0.004 m 0,0 -0.01381,0.005 m 0,0 -0.01324,0.006 m 0,0 -0.01263,0.007 m 0,0 -6.63e-4,4.1e-4"
       style="fill:none;stroke:#000000;stroke-width:0.15;stroke-linecap:round;stroke-linejoin:round;stroke-miterlimit:4;stroke-dasharray:none"
       id="path7026" />
    <path
       d="m -9.459945,135.78067 v -8.49593"
       style="fill:none;stroke:#000000;stroke-width:0.15;stroke-linecap:round;stroke-linejoin:round;stroke-miterlimit:4;stroke-dasharray:none"
       id="path7030" />
    <path
       d="m -6.791789,125.04742 -0.01281,-0.007 m 0,0 -0.0134,-0.006 m 0,0 -0.01396,-0.004 m 0,0 -0.01448,-0.003 m 0,0 -0.01497,-0.002 m 0,0 -0.01542,-10e-4 m 0,0 -0.01584,8e-5 m 0,0 -0.01621,10e-4 m 0,0 -0.01654,0.002 m 0,0 -0.01683,0.003 m 0,0 -0.01708,0.005 m 0,0 -0.01729,0.006 m 0,0 -0.01745,0.007 m 0,0 -0.01757,0.008 m 0,0 -0.01764,0.009 m 0,0 -0.01767,0.01 m 0,0 -0.001,6e-4"
       style="fill:none;stroke:#000000;stroke-width:0.15;stroke-linecap:round;stroke-linejoin:round;stroke-miterlimit:4;stroke-dasharray:none"
       id="path7034" />
    <path
       d="m -9.813445,126.67246 -1.393717,-0.80466"
       style="fill:none;stroke:#000000;stroke-width:0.15;stroke-linecap:round;stroke-linejoin:round;stroke-miterlimit:4;stroke-dasharray:none"
       id="path7036" />
    <path
       d="m -21.009974,120.20814 -1.393717,-0.80466"
       style="fill:none;stroke:#000000;stroke-width:0.15;stroke-linecap:round;stroke-linejoin:round;stroke-miterlimit:4;stroke-dasharray:none"
       id="path7042" />
    <path
       d="m -9.459945,127.28474 -5.34e-4,-0.0206 m 0,0 -0.0014,-0.0211 m 0,0 -0.0023,-0.0215 m 0,0 -0.0032,-0.0218 m 0,0 -0.004,-0.0221 m 0,0 -0.0049,-0.0224 m 0,0 -0.0057,-0.0226 m 0,0 -0.0065,-0.0227 m 0,0 -0.0073,-0.0228 m 0,0 -0.0081,-0.0228 m 0,0 -0.0089,-0.0228 m 0,0 -0.0096,-0.0227 m 0,0 -0.01037,-0.0225 m 0,0 -0.01106,-0.0223 m 0,0 -0.01173,-0.022 m 0,0 -0.01237,-0.0217 m 0,0 -0.01298,-0.0213 m 0,0 -0.01356,-0.0209 m 0,0 -0.0141,-0.0205 m 0,0 -0.01461,-0.0199 m 0,0 -0.01508,-0.0193 m 0,0 -0.01551,-0.0187 m 0,0 -0.01591,-0.018 m 0,0 -0.01626,-0.0173 m 0,0 -0.01658,-0.0165 m 0,0 -0.01685,-0.0157 m 0,0 -0.01708,-0.0149 m 0,0 -0.01727,-0.014 m 0,0 -0.01741,-0.0131 m 0,0 -0.01751,-0.0121 m 0,0 -0.01757,-0.0112 m 0,0 -0.0072,-0.004"
       style="fill:none;stroke:#000000;stroke-width:0.15;stroke-linecap:round;stroke-linejoin:round;stroke-miterlimit:4;stroke-dasharray:none"
       id="path7044" />
    <path
       d="m -11.207162,125.8678 -0.46037,-0.53555 m 0,0 -0.471471,-0.51504 m 0,0 -0.481393,-0.49327 m 0,0 -0.490111,-0.47024 m 0,0 -0.497605,-0.44606 m 0,0 -0.503854,-0.42074 m 0,0 -0.508845,-0.39439 m 0,0 -0.512564,-0.36705 m 0,0 -0.515001,-0.33878 m 0,0 -0.516152,-0.30967 m 0,0 -0.516011,-0.27979 m 0,0 -0.514582,-0.2492 m 0,0 -0.511866,-0.218 m 0,0 -0.507871,-0.18626 m 0,0 -0.502606,-0.15403 m 0,0 -0.496086,-0.12144 m 0,0 -0.488324,-0.0885 m 0,0 -0.479343,-0.0554 m 0,0 -0.469164,-0.0222 m 0,0 -0.359593,0.006"
       style="fill:none;stroke:#000000;stroke-width:0.15;stroke-linecap:round;stroke-linejoin:round;stroke-miterlimit:4;stroke-dasharray:none"
       id="path7062" />
    <path
       d="m -6.69446,125.68809 0.01754,-0.0103 m 0,0 0.01663,-0.0108 m 0,0 0.01568,-0.0112 m 0,0 0.01468,-0.0117 m 0,0 0.01365,-0.0121 m 0,0 0.01259,-0.0125 m 0,0 0.0115,-0.0128 m 0,0 0.01037,-0.0131 m 0,0 0.0092,-0.0134 m 0,0 0.008,-0.0137 m 0,0 0.0069,-0.0139 m 0,0 0.0056,-0.0141 m 0,0 0.0044,-0.0142 m 0,0 0.0032,-0.0143 m 0,0 0.0019,-0.0144 m 0,0 6.96e-4,-0.0144 m 0,0 2e-6,-8.2e-4"
       style="fill:none;stroke:#000000;stroke-width:0.15;stroke-linecap:round;stroke-linejoin:round;stroke-miterlimit:4;stroke-dasharray:none"
       id="path7066" />
  </g>
</svg>
