<?xml version="1.0" encoding="UTF-8" standalone="no"?>
<svg
   width="912.04846"
   height="70.396759"
   version="1.1"
   id="svg128"
   sodipodi:docname="desenhotecnico.svg"
   inkscape:version="1.2.2 (732a01da63, 2022-12-09)"
   xmlns:inkscape="http://www.inkscape.org/namespaces/inkscape"
   xmlns:sodipodi="http://sodipodi.sourceforge.net/DTD/sodipodi-0.dtd"
   xmlns="http://www.w3.org/2000/svg"
   xmlns:svg="http://www.w3.org/2000/svg">
  <defs
     id="defs132" />
  <sodipodi:namedview
     id="namedview130"
     pagecolor="#505050"
     bordercolor="#ffffff"
     borderopacity="1"
     inkscape:showpageshadow="0"
     inkscape:pageopacity="0"
     inkscape:pagecheckerboard="1"
     inkscape:deskcolor="#505050"
     showgrid="false"
     inkscape:zoom="1.1938776"
     inkscape:cx="436.39316"
     inkscape:cy="25.128205"
     inkscape:window-width="1920"
     inkscape:window-height="1009"
     inkscape:window-x="-8"
     inkscape:window-y="-8"
     inkscape:window-maximized="1"
     inkscape:current-layer="svg128" />
  <g
     transform="translate(-110.89718,-122.69222)"
     stroke="#000000"
     id="g54">
    <g
       transform="matrix(-0.7433,0.0029934,-0.0029934,-0.7433,297.28,311.83)"
       fill-rule="evenodd"
       stroke-linejoin="round"
       id="g6">
      <path
         d="m -814.88,189.57 -138.57,0.20153"
         stroke-width="11.426"
         id="path2" />
      <path
         d="m -916.75,189.44 -58.252,-1.6e-4"
         stroke-linecap="round"
         stroke-width="4.073"
         id="path4" />
    </g>
    <g
       transform="matrix(-1.2124,0.0048792,-0.0048825,-1.2116,458.66,465.54)"
       fill-rule="evenodd"
       stroke-linejoin="round"
       id="g12">
      <path
         d="m -366.81,259.08 -85.172,0.123"
         stroke-width="7.0077"
         id="path8" />
      <path
         d="m -429.48,259.01 h -35.714"
         stroke-linecap="round"
         stroke-width="2.498"
         id="path10" />
    </g>
    <g
       transform="translate(10,10)"
       stroke-miterlimit="5"
       id="g52">
      <g
         transform="matrix(0,-0.16894,0.26724,0,-346.37,717.38)"
         stroke-width="4.6656"
         id="g16">
        <path
           d="m 3258,3663 v 974 l 214,-1 v -973"
           fill="none"
           stroke="#000000"
           stroke-linecap="round"
           stroke-linejoin="round"
           stroke-miterlimit="5"
           stroke-width="4.6656"
           id="path14" />
      </g>
      <g
         transform="matrix(0,-0.16825,0.31519,0,-490.45,715.06)"
         stroke-width="4.3615"
         id="g20">
        <path
           d="M 3472,3567 V 2688.49 H 3258 V 3567"
           fill="none"
           stroke="#000000"
           stroke-linecap="round"
           stroke-linejoin="round"
           stroke-miterlimit="5"
           stroke-width="4.3615"
           id="path18" />
      </g>
      <rect
         transform="matrix(0.99967,0,0,0.99967,0.010486,0.0094171)"
         x="101.42"
         y="113.22"
         width="95.000999"
         height="69.419998"
         fill="none"
         id="rect22" />
      <g
         transform="matrix(1.1337,0,0,1.133,513.78,94.04)"
         stroke-width="0.88206"
         id="g46">
        <g
           transform="matrix(0,-0.16,0.16,0,-540.51,585.61)"
           fill="none"
           stroke="#000000"
           stroke-linecap="round"
           stroke-linejoin="round"
           stroke-miterlimit="5"
           stroke-width="5.5128"
           id="g44">
          <path
             d="m 3554,1892 -4,69 m -5,69 -14,207 m -5,69 -15,207 m -336,-621 14,207 m 5,69 14,207 m 5,69 5,69"
             id="path24" />
          <path
             d="m 3218,2513 h 293 m -112,-483 h 146"
             id="path26" />
          <path
             d="m 3550,1961 h -151 v 69"
             id="path28" />
          <path
             d="M 3330,2168 H 3194"
             id="path30" />
          <path
             d="m 3189,2099 h 141 v 69"
             id="path32" />
          <path
             d="m 3399,2306 h 127"
             id="path34" />
          <path
             d="m 3531,2237 h -132 v 69"
             id="path36" />
          <path
             d="M 3330,2444 H 3213"
             id="path38" />
          <path
             d="m 3208,2375 h 122 v 69"
             id="path40" />
          <path
             d="m 3472,2306 v -69 m 0,-207 v -69 m -214,483 v -69 m 0,-207 v -69"
             id="path42" />
        </g>
      </g>
      <path
         transform="matrix(0.99967,0,0,0.99967,0.010486,0.0094171)"
         d="m 196.42,113.22 47.832,0.0679"
         fill="#666666"
         id="path48" />
      <path
         transform="matrix(0.99967,0,0,0.99967,0.010486,0.0094171)"
         d="m 196.42,182.64 47.832,-0.62644"
         fill="none"
         id="path50" />
    </g>
  </g>
  <g
     fill="#ffffff"
     id="g114"
     transform="translate(-54.000181,-72.30322)">
    <path
       transform="matrix(0.99997,0,0,0.99997,323.23,-133.7)"
       d="m 273.47,198.92 h 24.781 l -32.709,84.795 h -24.781 z"
       stroke="#000000"
       stroke-miterlimit="0"
       id="path108" />
    <rect
       transform="matrix(0.44871,0,0,0.99997,481.84,-133.7)"
       x="251.5"
       y="195.92"
       width="60.713001"
       height="4.8369002"
       stroke-width="1.4928"
       id="rect110" />
    <rect
       transform="matrix(0.4736,0,0,0.99997,443.34,-48.302)"
       x="251.5"
       y="195.92"
       width="60.713001"
       height="4.8369002"
       stroke-width="1.4531"
       id="rect112" />
  </g>
</svg>
