<svg width="1e3" height="325" version="1.1" viewBox="0 0 1e3 325" xml:space="preserve" xmlns="http://www.w3.org/2000/svg"><g transform="translate(-400.14 4.0243)"><g transform="matrix(.82157 0 0 .82168 354.73 -282.16)" fill="none" stroke-linejoin="round" stroke-miterlimit="2" stroke-width="24.353"><path transform="matrix(.13328 0 0 .13339 0 1056)" d="m930.9-2867.5v-1.32" stroke="#610061"/><path transform="matrix(.13328 0 0 .13339 0 1056)" d="m941.55-2867.5v-16.45" stroke="#640065"/><path transform="matrix(.13328 0 0 .13339 0 1056)" d="m952.2-2867.5v-14.23" stroke="#67006a"/><path transform="matrix(.13328 0 0 .13339 0 1056)" d="m962.85-2867.5v-23.88" stroke="#6a006e"/><path transform="matrix(.13328 0 0 .13339 0 1056)" d="m973.49-2867.5v-12.75" stroke="#6c0073"/><path transform="matrix(.13328 0 0 .13339 0 1056)" d="m984.15-2867.5v-7.7" stroke="#6f0077"/><path transform="matrix(.13328 0 0 .13339 0 1056)" d="m994.79-2867.5v-2.96" stroke="#71007b"/><path transform="matrix(.13328 0 0 .13339 0 1056)" d="m1005.4-2867.5v-2.65" stroke="#73007f"/><path transform="matrix(.13328 0 0 .13339 0 1056)" d="m1016.1-2867.5v-8.89" stroke="#750084"/><path transform="matrix(.13328 0 0 .13339 0 1056)" d="m1026.7-2867.5v-6.37" stroke="#708"/><path transform="matrix(.13328 0 0 .13339 0 1056)" d="m1037.4-2867.5v-3.11" stroke="#79008c"/><path transform="matrix(.13328 0 0 .13339 0 1056)" d="m1048-2867.5v-4.29" stroke="#7b0090"/><path transform="matrix(.13328 0 0 .13339 0 1056)" d="m1058.7-2867.5v-1.19" stroke="#7c0094"/><path transform="matrix(.13328 0 0 .13339 0 1056)" d="m1069.3-2867.5v-5.48" stroke="#7d0098"/><path transform="matrix(.13328 0 0 .13339 0 1056)" d="m1080-2867.5v-0.73" stroke="#7e009c"/><path transform="matrix(.13328 0 0 .13339 0 1056)" d="m1090.6-2867.5v-1.48" stroke="#7f00a0"/><path transform="matrix(.13328 0 0 .13339 0 1056)" d="m1101.3-2867.5v-7.41" stroke="#8000a4"/><path transform="matrix(.13328 0 0 .13339 0 1056)" d="m1111.9-2867.5v-4" stroke="#8100a8"/><path transform="matrix(.13328 0 0 .13339 0 1056)" d="m1122.6-2867.5v-4.15" stroke="#8100ac"/><path transform="matrix(.13328 0 0 .13339 0 1056)" d="m1133.2-2867.5v-1.78" stroke="#8200b0"/><path transform="matrix(.13328 0 0 .13339 0 1056)" d="m1143.9-2867.5v-3.54" stroke="#8200b4"/><path transform="matrix(.13328 0 0 .13339 0 1056)" d="m1154.5-2867.5v-4" stroke="#8200b8"/><path transform="matrix(.13328 0 0 .13339 0 1056)" d="m1165.2-2867.5v-4.89" stroke="#8200bc"/><path transform="matrix(.13328 0 0 .13339 0 1056)" d="m1175.8-2867.5v-3.54" stroke="#8200c0"/><path transform="matrix(.13328 0 0 .13339 0 1056)" d="m1186.5-2867.5v-5.93" stroke="#8200c4"/><path transform="matrix(.13328 0 0 .13339 0 1056)" d="m1197.1-2867.5v-1.32" stroke="#8100c7"/><path transform="matrix(.13328 0 0 .13339 0 1056)" d="m1207.8-2867.5v-3.4" stroke="#8100cb"/><path transform="matrix(.13328 0 0 .13339 0 1056)" d="m1218.4-2867.5v-0.59" stroke="#8000cf"/><path transform="matrix(.13328 0 0 .13339 0 1056)" d="m1229-2867.5v-0.14" stroke="#7f00d3"/><path transform="matrix(.13328 0 0 .13339 0 1056)" d="m1239.7-2867.5v-3.11" stroke="#7e00d6"/><path transform="matrix(.13328 0 0 .13339 0 1056)" d="m1250.4-2867.5v-1.92" stroke="#7d00da"/><path transform="matrix(.13328 0 0 .13339 0 1056)" d="m1261-2867.5v-3.54" stroke="#7c00de"/><path transform="matrix(.13328 0 0 .13339 0 1056)" d="m1271.6-2867.5v-3.11" stroke="#7a00e2"/><path transform="matrix(.13328 0 0 .13339 0 1056)" d="m1282.3-2867.5v-2.65" stroke="#7900e5"/><path transform="matrix(.13328 0 0 .13339 0 1056)" d="m1292.9-2867.5v-0.59" stroke="#7700e9"/><path transform="matrix(.13328 0 0 .13339 0 1056)" d="m1303.6-2867.5v-4.74" stroke="#7500ec"/><path transform="matrix(.13328 0 0 .13339 0 1056)" d="m1314.2-2867.5v-2.51" stroke="#7300f0"/><path transform="matrix(.13328 0 0 .13339 0 1056)" d="m1324.9-2867.5v-2.22" stroke="#7100f4"/><path transform="matrix(.13328 0 0 .13339 0 1056)" d="m1335.5-2867.5v-3.4" stroke="#6f00f7"/><path transform="matrix(.13328 0 0 .13339 0 1056)" d="m1346.2-2867.5v-6.97" stroke="#6c00fb"/><path transform="matrix(.13328 0 0 .13339 0 1056)" d="m1356.8-2867.5v-3.85" stroke="#6900ff"/><path transform="matrix(.13328 0 0 .13339 0 1056)" d="m1367.5-2867.5v-0.59" stroke="#6500ff"/><path transform="matrix(.13328 0 0 .13339 0 1056)" d="m1378.1-2867.5v-4" stroke="#6100ff"/><path transform="matrix(.13328 0 0 .13339 0 1056)" d="m1388.8-2867.5v-8" stroke="#5c00ff"/><path transform="matrix(.13328 0 0 .13339 0 1056)" d="m1399.4-2867.5v-5.34" stroke="#5800ff"/><path transform="matrix(.13328 0 0 .13339 0 1056)" d="m1410.1-2867.5v-5.04" stroke="#5400ff"/><path transform="matrix(.13328 0 0 .13339 0 1056)" d="m1420.7-2867.5v-5.18" stroke="#4f00ff"/><path transform="matrix(.13328 0 0 .13339 0 1056)" d="m1431.4-2867.5v-9.04" stroke="#4b00ff"/><path transform="matrix(.13328 0 0 .13339 0 1056)" d="m1442-2867.5v-11.71" stroke="#4600ff"/><path transform="matrix(.13328 0 0 .13339 0 1056)" d="m1452.7-2867.5v-15.12" stroke="#4100ff"/><path transform="matrix(.13328 0 0 .13339 0 1056)" d="m1463.3-2867.5v-20.6" stroke="#3c00ff"/><path transform="matrix(.13328 0 0 .13339 0 1056)" d="m1474-2867.5v-25.8" stroke="#3700ff"/><path transform="matrix(.13328 0 0 .13339 0 1056)" d="m1484.6-2867.5v-27.43" stroke="#3200ff"/><path transform="matrix(.13328 0 0 .13339 0 1056)" d="m1495.2-2867.5v-33.51" stroke="#2d00ff"/><path transform="matrix(.13328 0 0 .13339 0 1056)" d="m1505.9-2867.5v-43.29" stroke="#2800ff"/><path transform="matrix(.13328 0 0 .13339 0 1056)" d="m1516.6-2867.5v-50.57" stroke="#20f"/><path transform="matrix(.13328 0 0 .13339 0 1056)" d="m1527.2-2867.5v-58.13" stroke="#1d00ff"/><path transform="matrix(.13328 0 0 .13339 0 1056)" d="m1537.8-2867.5v-72.8" stroke="#1700ff"/><path transform="matrix(.13328 0 0 .13339 0 1056)" d="m1548.5-2867.5v-87.34" stroke="#1000ff"/><path transform="matrix(.13328 0 0 .13339 0 1056)" d="m1559.2-2867.5v-102.91" stroke="#0900ff"/><path transform="matrix(.13328 0 0 .13339 0 1056)" d="m1569.8-2867.5v-117" stroke="#00f"/><path transform="matrix(.13328 0 0 .13339 0 1056)" d="m1580.4-2867.5v-140.58" stroke="#000bff"/><path transform="matrix(.13328 0 0 .13339 0 1056)" d="m1591.1-2867.5v-165.06" stroke="#0013ff"/><path transform="matrix(.13328 0 0 .13339 0 1056)" d="m1601.7-2867.5v-196.79" stroke="#001aff"/><path transform="matrix(.13328 0 0 .13339 0 1056)" d="m1612.4-2867.5v-231.65" stroke="#0021ff"/><path transform="matrix(.13328 0 0 .13339 0 1056)" d="m1623-2867.5v-267.53" stroke="#0028ff"/><path transform="matrix(.13328 0 0 .13339 0 1056)" d="m1633.7-2867.5v-313.51" stroke="#002eff"/><path transform="matrix(.13328 0 0 .13339 0 1056)" d="m1644.3-2867.5v-365.26" stroke="#0034ff"/><path transform="matrix(.13328 0 0 .13339 0 1056)" d="m1655-2867.5v-422.81" stroke="#003aff"/><path transform="matrix(.13328 0 0 .13339 0 1056)" d="m1665.6-2867.5v-489.98" stroke="#0040ff"/><path transform="matrix(.13328 0 0 .13339 0 1056)" d="m1676.3-2867.5v-563.25" stroke="#0046ff"/><path transform="matrix(.13328 0 0 .13339 0 1056)" d="m1686.9-2867.5v-647.04" stroke="#004bff"/><path transform="matrix(.13328 0 0 .13339 0 1056)" d="m1697.6-2867.5v-737.95" stroke="#0051ff"/><path transform="matrix(.13328 0 0 .13339 0 1056)" d="m1708.2-2867.5v-838.2" stroke="#0056ff"/><path transform="matrix(.13328 0 0 .13339 0 1056)" d="m1718.9-2867.5v-958.92" stroke="#005cff"/><path transform="matrix(.13328 0 0 .13339 0 1056)" d="m1729.5-2867.5v-1081.4" stroke="#0061ff"/><path transform="matrix(.13328 0 0 .13339 0 1056)" d="m1740.2-2867.5v-1213.7" stroke="#06f"/><path transform="matrix(.13328 0 0 .13339 0 1056)" d="m1750.8-2867.5v-1359.3" stroke="#006bff"/><path transform="matrix(.13328 0 0 .13339 0 1056)" d="m1761.5-2867.5v-1509.1" stroke="#0070ff"/><path transform="matrix(.13328 0 0 .13339 0 1056)" d="m1772.1-2867.5v-1661" stroke="#0075ff"/><path transform="matrix(.13328 0 0 .13339 0 1056)" d="m1782.8-2867.5v-1810.8" stroke="#007aff"/><path transform="matrix(.13328 0 0 .13339 0 1056)" d="m1793.4-2867.5v-1943.2" stroke="#007fff"/><path transform="matrix(.13328 0 0 .13339 0 1056)" d="m1804.1-2867.5v-2063.3" stroke="#0084ff"/><path transform="matrix(.13328 0 0 .13339 0 1056)" d="m1814.7-2867.5v-2164.9" stroke="#0089ff"/><path transform="matrix(.13328 0 0 .13339 0 1056)" d="m1825.4-2867.5v-2240" stroke="#008dff"/><path transform="matrix(.13328 0 0 .13339 0 1056)" d="m1836-2867.5v-2278.2" stroke="#0092ff"/><path transform="matrix(.13328 0 0 .13339 0 1056)" d="m1846.6-2867.5v-2290.1" stroke="#0097ff"/><path transform="matrix(.13328 0 0 .13339 0 1056)" d="m1857.3-2867.5v-2261.8" stroke="#009bff"/><path transform="matrix(.13328 0 0 .13339 0 1056)" d="m1868-2867.5v-2191.6" stroke="#00a0ff"/><path transform="matrix(.13328 0 0 .13339 0 1056)" d="m1878.6-2867.5v-2105.9" stroke="#00a4ff"/><path transform="matrix(.13328 0 0 .13339 0 1056)" d="m1889.2-2867.5v-1989.5" stroke="#00a9ff"/><path transform="matrix(.13328 0 0 .13339 0 1056)" d="m1899.9-2867.5v-1865.2" stroke="#00adff"/><path transform="matrix(.13328 0 0 .13339 0 1056)" d="m1910.5-2867.5v-1723" stroke="#00b2ff"/><path transform="matrix(.13328 0 0 .13339 0 1056)" d="m1921.2-2867.5v-1592.6" stroke="#00b6ff"/><path transform="matrix(.13328 0 0 .13339 0 1056)" d="m1931.8-2867.5v-1462.8" stroke="#0bf"/><path transform="matrix(.13328 0 0 .13339 0 1056)" d="m1942.5-2867.5v-1337.5" stroke="#00bfff"/><path transform="matrix(.13328 0 0 .13339 0 1056)" d="m1953.1-2867.5v-1233.6" stroke="#00c4ff"/><path transform="matrix(.13328 0 0 .13339 0 1056)" d="m1963.8-2867.5v-1137.8" stroke="#00c8ff"/><path transform="matrix(.13328 0 0 .13339 0 1056)" d="m1974.4-2867.5v-1048.3" stroke="#0cf"/><path transform="matrix(.13328 0 0 .13339 0 1056)" d="m1985.1-2867.5v-974.49" stroke="#00d1ff"/><path transform="matrix(.13328 0 0 .13339 0 1056)" d="m1995.7-2867.5v-905.09" stroke="#00d5ff"/><path transform="matrix(.13328 0 0 .13339 0 1056)" d="m2006.4-2867.5v-843.99" stroke="#00d9ff"/><path transform="matrix(.13328 0 0 .13339 0 1056)" d="m2017-2867.5v-783.48" stroke="#0df"/><path transform="matrix(.13328 0 0 .13339 0 1056)" d="m2027.7-2867.5v-724.01" stroke="#00e2ff"/><path transform="matrix(.13328 0 0 .13339 0 1056)" d="m2038.3-2867.5v-674.63" stroke="#00e6ff"/><path transform="matrix(.13328 0 0 .13339 0 1056)" d="m2049-2867.5v-621.08" stroke="#00eaff"/><path transform="matrix(.13328 0 0 .13339 0 1056)" d="m2059.6-2867.5v-568.14" stroke="#0ef"/><path transform="matrix(.13328 0 0 .13339 0 1056)" d="m2070.3-2867.5v-522.17" stroke="#00f2ff"/><path transform="matrix(.13328 0 0 .13339 0 1056)" d="m2080.9-2867.5v-479.01" stroke="#00f6ff"/><path transform="matrix(.13328 0 0 .13339 0 1056)" d="m2091.6-2867.5v-435.41" stroke="#00faff"/><path transform="matrix(.13328 0 0 .13339 0 1056)" d="m2102.2-2867.5v-394.19" stroke="#0ff"/><path transform="matrix(.13328 0 0 .13339 0 1056)" d="m2112.8-2867.5v-362.3" stroke="#00fff4"/><path transform="matrix(.13328 0 0 .13339 0 1056)" d="m2123.5-2867.5v-325.22" stroke="#00ffea"/><path transform="matrix(.13328 0 0 .13339 0 1056)" d="m2134.2-2867.5v-299.41" stroke="#00ffdf"/><path transform="matrix(.13328 0 0 .13339 0 1056)" d="m2144.8-2867.5v-273.61" stroke="#00ffd5"/><path transform="matrix(.13328 0 0 .13339 0 1056)" d="m2155.4-2867.5v-246.32" stroke="#00ffca"/><path transform="matrix(.13328 0 0 .13339 0 1056)" d="m2166.1-2867.5v-227.49" stroke="#00ffbf"/><path transform="matrix(.13328 0 0 .13339 0 1056)" d="m2176.7-2867.5v-207.77" stroke="#00ffb4"/><path transform="matrix(.13328 0 0 .13339 0 1056)" d="m2187.4-2867.5v-190.27" stroke="#00ffa9"/><path transform="matrix(.13328 0 0 .13339 0 1056)" d="m2198-2867.5v-176.03" stroke="#00ff9e"/><path transform="matrix(.13328 0 0 .13339 0 1056)" d="m2208.7-2867.5v-160.31" stroke="#00ff92"/><path transform="matrix(.13328 0 0 .13339 0 1056)" d="m2219.3-2867.5v-146.96" stroke="#00ff86"/><path transform="matrix(.13328 0 0 .13339 0 1056)" d="m2230-2867.5v-134.79" stroke="#00ff7a"/><path transform="matrix(.13328 0 0 .13339 0 1056)" d="m2240.6-2867.5v-122.79" stroke="#00ff6e"/><path transform="matrix(.13328 0 0 .13339 0 1056)" d="m2251.3-2867.5v-115.97" stroke="#00ff61"/><path transform="matrix(.13328 0 0 .13339 0 1056)" d="m2261.9-2867.5v-105.14" stroke="#00ff54"/><path transform="matrix(.13328 0 0 .13339 0 1056)" d="m2272.6-2867.5v-95.5" stroke="#00ff46"/><path transform="matrix(.13328 0 0 .13339 0 1056)" d="m2283.2-2867.5v-85.26" stroke="#00ff37"/><path transform="matrix(.13328 0 0 .13339 0 1056)" d="m2293.9-2867.5v-78.74" stroke="#00ff28"/><path transform="matrix(.13328 0 0 .13339 0 1056)" d="m2304.5-2867.5v-72.21" stroke="#00ff17"/><path transform="matrix(.13328 0 0 .13339 0 1056)" d="m2315.2-2867.5v-62.28" stroke="#0f0"/><path transform="matrix(.13328 0 0 .13339 0 1056)" d="m2325.8-2867.5v-61.68" stroke="#08ff00"/><path transform="matrix(.13328 0 0 .13339 0 1056)" d="m2336.5-2867.5v-55.61" stroke="#0eff00"/><path transform="matrix(.13328 0 0 .13339 0 1056)" d="m2347.1-2867.5v-48.49" stroke="#14ff00"/><path transform="matrix(.13328 0 0 .13339 0 1056)" d="m2357.8-2867.5v-45.52" stroke="#19ff00"/><path transform="matrix(.13328 0 0 .13339 0 1056)" d="m2368.4-2867.5v-40.33" stroke="#1eff00"/><path transform="matrix(.13328 0 0 .13339 0 1056)" d="m2379.1-2867.5v-36.47" stroke="#23ff00"/><path transform="matrix(.13328 0 0 .13339 0 1056)" d="m2389.7-2867.5v-36.92" stroke="#28ff00"/><path transform="matrix(.13328 0 0 .13339 0 1056)" d="m2400.4-2867.5v-31.43" stroke="#2cff00"/><path transform="matrix(.13328 0 0 .13339 0 1056)" d="m2411-2867.5v-29.21" stroke="#31ff00"/><path transform="matrix(.13328 0 0 .13339 0 1056)" d="m2421.6-2867.5v-27.58" stroke="#35ff00"/><path transform="matrix(.13328 0 0 .13339 0 1056)" d="m2432.3-2867.5v-24.91" stroke="#3aff00"/><path transform="matrix(.13328 0 0 .13339 0 1056)" d="m2442.9-2867.5v-25.36" stroke="#3eff00"/><path transform="matrix(.13328 0 0 .13339 0 1056)" d="m2453.6-2867.5v-24.31" stroke="#42ff00"/><path transform="matrix(.13328 0 0 .13339 0 1056)" d="m2464.2-2867.5v-20.75" stroke="#46ff00"/><path transform="matrix(.13328 0 0 .13339 0 1056)" d="m2474.9-2867.5v-19.27" stroke="#4aff00"/><path transform="matrix(.13328 0 0 .13339 0 1056)" d="m2485.5-2867.5v-18.97" stroke="#4eff00"/><path transform="matrix(.13328 0 0 .13339 0 1056)" d="m2496.2-2867.5v-17.93" stroke="#52ff00"/><path transform="matrix(.13328 0 0 .13339 0 1056)" d="m2506.8-2867.5v-15.27" stroke="#56ff00"/><path transform="matrix(.13328 0 0 .13339 0 1056)" d="m2517.5-2867.5v-14.38" stroke="#59ff00"/><path transform="matrix(.13328 0 0 .13339 0 1056)" d="m2528.1-2867.5v-16.6" stroke="#5dff00"/><path transform="matrix(.13328 0 0 .13339 0 1056)" d="m2538.8-2867.5v-13.49" stroke="#61ff00"/><path transform="matrix(.13328 0 0 .13339 0 1056)" d="m2549.4-2867.5v-11.26" stroke="#65ff00"/><path transform="matrix(.13328 0 0 .13339 0 1056)" d="m2560.1-2867.5v-9.93" stroke="#68ff00"/><path transform="matrix(.13328 0 0 .13339 0 1056)" d="m2570.7-2867.5v-10.82" stroke="#6cff00"/><path transform="matrix(.13328 0 0 .13339 0 1056)" d="m2581.4-2867.5v-8.15" stroke="#6fff00"/><path transform="matrix(.13328 0 0 .13339 0 1056)" d="m2592-2867.5v-12.01" stroke="#73ff00"/><path transform="matrix(.13328 0 0 .13339 0 1056)" d="m2602.7-2867.5v-7.86" stroke="#7f0"/><path transform="matrix(.13328 0 0 .13339 0 1056)" d="m2613.3-2867.5v-8.89" stroke="#7aff00"/><path transform="matrix(.13328 0 0 .13339 0 1056)" d="m2624-2867.5v-10.08" stroke="#7eff00"/><path transform="matrix(.13328 0 0 .13339 0 1056)" d="m2634.6-2867.5v-5.04" stroke="#81ff00"/><path transform="matrix(.13328 0 0 .13339 0 1056)" d="m2645.3-2867.5v-6.97" stroke="#84ff00"/><path transform="matrix(.13328 0 0 .13339 0 1056)" d="m2655.9-2867.5v-9.63" stroke="#8f0"/><path transform="matrix(.13328 0 0 .13339 0 1056)" d="m2666.6-2867.5v-4.59" stroke="#8bff00"/><path transform="matrix(.13328 0 0 .13339 0 1056)" d="m2677.2-2867.5v-7.7" stroke="#8fff00"/><path transform="matrix(.13328 0 0 .13339 0 1056)" d="m2687.8-2867.5v-6.07" stroke="#92ff00"/><path transform="matrix(.13328 0 0 .13339 0 1056)" d="m2698.5-2867.5v-5.34" stroke="#95ff00"/><path transform="matrix(.13328 0 0 .13339 0 1056)" d="m2709.2-2867.5v-7.56" stroke="#9f0"/><path transform="matrix(.13328 0 0 .13339 0 1056)" d="m2719.8-2867.5v-5.78" stroke="#9cff00"/><path transform="matrix(.13328 0 0 .13339 0 1056)" d="m2730.4-2867.5v-5.63" stroke="#9fff00"/><path transform="matrix(.13328 0 0 .13339 0 1056)" d="m2741.1-2867.5v-5.78" stroke="#a2ff00"/><path transform="matrix(.13328 0 0 .13339 0 1056)" d="m2751.7-2867.5v-8.15" stroke="#a6ff00"/><path transform="matrix(.13328 0 0 .13339 0 1056)" d="m2762.4-2867.5v-2.96" stroke="#a9ff00"/><path transform="matrix(.13328 0 0 .13339 0 1056)" d="m2773-2867.5v-1.78" stroke="#acff00"/><path transform="matrix(.13328 0 0 .13339 0 1056)" d="m2783.7-2867.5v-2.96" stroke="#afff00"/><path transform="matrix(.13328 0 0 .13339 0 1056)" d="m2794.3-2867.5v-2.81" stroke="#b3ff00"/><path transform="matrix(.13328 0 0 .13339 0 1056)" d="m2805-2867.5v-3.54" stroke="#b6ff00"/><path transform="matrix(.13328 0 0 .13339 0 1056)" d="m2815.6-2867.5v-5.63" stroke="#b9ff00"/><path transform="matrix(.13328 0 0 .13339 0 1056)" d="m2826.3-2867.5v-1.32" stroke="#bcff00"/><path transform="matrix(.13328 0 0 .13339 0 1056)" d="m2836.9-2867.5v-1.62" stroke="#bfff00"/><path transform="matrix(.13328 0 0 .13339 0 1056)" d="m2847.6-2867.5v-2.81" stroke="#c2ff00"/><path transform="matrix(.13328 0 0 .13339 0 1056)" d="m2858.2-2867.5v-5.78" stroke="#c5ff00"/><path transform="matrix(.13328 0 0 .13339 0 1056)" d="m2868.9-2867.5v-5.18" stroke="#c9ff00"/><path transform="matrix(.13328 0 0 .13339 0 1056)" d="m2879.5-2867.5v-3.11" stroke="#cf0"/><path transform="matrix(.13328 0 0 .13339 0 1056)" d="m2890.2-2867.5v-3.54" stroke="#cfff00"/><path transform="matrix(.13328 0 0 .13339 0 1056)" d="m2900.8-2867.5v-4.15" stroke="#d2ff00"/><path transform="matrix(.13328 0 0 .13339 0 1056)" d="m2911.5-2867.5v-2.81" stroke="#d5ff00"/><path transform="matrix(.13328 0 0 .13339 0 1056)" d="m2922.1-2867.5v-3.4" stroke="#d8ff00"/><path transform="matrix(.13328 0 0 .13339 0 1056)" d="m2932.8-2867.5v-1.32" stroke="#dbff00"/><path transform="matrix(.13328 0 0 .13339 0 1056)" d="m2943.4-2867.5v-4.89" stroke="#deff00"/><path transform="matrix(.13328 0 0 .13339 0 1056)" d="m2954-2867.5v-2.22" stroke="#e1ff00"/><path transform="matrix(.13328 0 0 .13339 0 1056)" d="m2964.7-2867.5v-2.81" stroke="#e4ff00"/><path transform="matrix(.13328 0 0 .13339 0 1056)" d="m2975.4-2867.5v-0.43" stroke="#e7ff00"/><path transform="matrix(.13328 0 0 .13339 0 1056)" d="m2986-2867.5v-1.32" stroke="#eaff00"/><path transform="matrix(.13328 0 0 .13339 0 1056)" d="m2996.6-2867.5v-1.19" stroke="#edff00"/><path transform="matrix(.13328 0 0 .13339 0 1056)" d="m3007.3-2867.5v-2.06" stroke="#f0ff00"/><path transform="matrix(.13328 0 0 .13339 0 1056)" d="m3018-2867.5v-2.22" stroke="#f3ff00"/><path transform="matrix(.13328 0 0 .13339 0 1056)" d="m3028.6-2867.5v-2.81" stroke="#f6ff00"/><path transform="matrix(.13328 0 0 .13339 0 1056)" d="m3039.2-2867.5v-2.81" stroke="#f9ff00"/><path transform="matrix(.13328 0 0 .13339 0 1056)" d="m3049.9-2867.5v-5.18" stroke="#fcff00"/><path transform="matrix(.13328 0 0 .13339 0 1056)" d="m3060.5-2867.5v-3.7" stroke="#ff0"/><path transform="matrix(.13328 0 0 .13339 0 1056)" d="m3071.2-2867.5v-1.19" stroke="#fffb00"/><path transform="matrix(.13328 0 0 .13339 0 1056)" d="m3081.8-2867.5v-2.06" stroke="#fff800"/><path transform="matrix(.13328 0 0 .13339 0 1056)" d="m3092.5-2867.5v-1.19" stroke="#fff500"/><path transform="matrix(.13328 0 0 .13339 0 1056)" d="m3103.1-2867.5v-6.07" stroke="#fff200"/><path transform="matrix(.13328 0 0 .13339 0 1056)" d="m3113.8-2867.5v-4" stroke="#ffef00"/><path transform="matrix(.13328 0 0 .13339 0 1056)" d="m3124.4-2867.5v-0.89" stroke="#ffeb00"/><path transform="matrix(.13328 0 0 .13339 0 1056)" d="m3135.1-2867.5v-2.65" stroke="#ffe800"/><path transform="matrix(.13328 0 0 .13339 0 1056)" d="m3145.7-2867.5v-2.65" stroke="#ffe500"/><path transform="matrix(.13328 0 0 .13339 0 1056)" d="m3156.4-2867.5v-1.48" stroke="#ffe200"/><path transform="matrix(.13328 0 0 .13339 0 1056)" d="m3167-2867.5v-2.81" stroke="#ffdf00"/><path transform="matrix(.13328 0 0 .13339 0 1056)" d="m3177.7-2867.5v-2.51" stroke="#ffdb00"/><path transform="matrix(.13328 0 0 .13339 0 1056)" d="m3188.3-2867.5v-3.11" stroke="#ffd800"/><path transform="matrix(.13328 0 0 .13339 0 1056)" d="m3199-2867.5v-3.4" stroke="#ffd500"/><path transform="matrix(.13328 0 0 .13339 0 1056)" d="m3209.6-2867.5v-2.65" stroke="#ffd200"/><path transform="matrix(.13328 0 0 .13339 0 1056)" d="m3220.3-2867.5v-0.73" stroke="#ffce00"/><path transform="matrix(.13328 0 0 .13339 0 1056)" d="m3230.9-2867.5v-3.26" stroke="#ffcb00"/><path transform="matrix(.13328 0 0 .13339 0 1056)" d="m3241.6-2867.5v-0.73" stroke="#ffc800"/><path transform="matrix(.13328 0 0 .13339 0 1056)" d="m3252.2-2867.5v-1.92" stroke="#ffc400"/><path transform="matrix(.13328 0 0 .13339 0 1056)" d="m3262.9-2867.5v-1.32" stroke="#ffc100"/><path transform="matrix(.13328 0 0 .13339 0 1056)" d="m3273.5-2867.5v-2.96" stroke="#ffbe00"/><path transform="matrix(.13328 0 0 .13339 0 1056)" d="m3284.2-2867.5v-1.78" stroke="#ffba00"/><path transform="matrix(.13328 0 0 .13339 0 1056)" d="m3294.8-2867.5v-2.22" stroke="#ffb700"/><path transform="matrix(.13328 0 0 .13339 0 1056)" d="m3305.4-2867.5v-3.26" stroke="#ffb300"/><path transform="matrix(.13328 0 0 .13339 0 1056)" d="m3316.1-2867.5v-0.59" stroke="#ffb000"/><path transform="matrix(.13328 0 0 .13339 0 1056)" d="m3326.7-2867.5v-2.51" stroke="#ffac00"/><path transform="matrix(.13328 0 0 .13339 0 1056)" d="m3337.4-2867.5v-1.48" stroke="#ffa900"/><path transform="matrix(.13328 0 0 .13339 0 1056)" d="m3348-2867.5v-1.92" stroke="#ffa500"/><path transform="matrix(.13328 0 0 .13339 0 1056)" d="m3358.7-2867.5v-3.85" stroke="#ffa200"/><path transform="matrix(.13328 0 0 .13339 0 1056)" d="m3369.3-2867.5v-2.51" stroke="#ff9e00"/><path transform="matrix(.13328 0 0 .13339 0 1056)" d="m3380-2867.5v-1.32" stroke="#ff9b00"/><path transform="matrix(.13328 0 0 .13339 0 1056)" d="m3390.6-2867.5v-0.14" stroke="#ff9700"/><path transform="matrix(.13328 0 0 .13339 0 1056)" d="m3401.3-2867.5v-2.06" stroke="#ff9400"/><path transform="matrix(.13328 0 0 .13339 0 1056)" d="m3411.9-2867.5v-1.78" stroke="#ff9000"/><path transform="matrix(.13328 0 0 .13339 0 1056)" d="m3422.6-2867.5" stroke="#ff8d00"/><path transform="matrix(.13328 0 0 .13339 0 1056)" d="m3433.2-2867.5v-4.15" stroke="#ff8900"/><path transform="matrix(.13328 0 0 .13339 0 1056)" d="m3443.9-2867.5v-1.19" stroke="#ff8500"/><path transform="matrix(.13328 0 0 .13339 0 1056)" d="m3454.5-2867.5v-0.59" stroke="#ff8100"/><path transform="matrix(.13328 0 0 .13339 0 1056)" d="m3465.2-2867.5v-0.14" stroke="#ff7e00"/><path transform="matrix(.13328 0 0 .13339 0 1056)" d="m3475.8-2867.5v-2.22" stroke="#ff7a00"/><path transform="matrix(.13328 0 0 .13339 0 1056)" d="m3486.5-2867.5v-1.62" stroke="#ff7600"/><path transform="matrix(.13328 0 0 .13339 0 1056)" d="m3497.1-2867.5v-3.4" stroke="#ff7200"/><path transform="matrix(.13328 0 0 .13339 0 1056)" d="m3507.8-2867.5v-0.59" stroke="#ff6f00"/><path transform="matrix(.13328 0 0 .13339 0 1056)" d="m3518.4-2867.5v-0.73" stroke="#ff6b00"/><path transform="matrix(.13328 0 0 .13339 0 1056)" d="m3529.1-2867.5v-2.51" stroke="#ff6700"/><path transform="matrix(.13328 0 0 .13339 0 1056)" d="m3539.7-2867.5v-1.03" stroke="#ff6300"/><path transform="matrix(.13328 0 0 .13339 0 1056)" d="m3550.4-2867.5v-0.73" stroke="#ff5f00"/><path transform="matrix(.13328 0 0 .13339 0 1056)" d="m3561-2867.5v-2.06" stroke="#ff5b00"/><path transform="matrix(.13328 0 0 .13339 0 1056)" d="m3571.6-2867.5v-2.06" stroke="#ff5700"/><path transform="matrix(.13328 0 0 .13339 0 1056)" d="m3582.3-2867.5v-1.78" stroke="#ff5300"/><path transform="matrix(.13328 0 0 .13339 0 1056)" d="m3593-2867.5v-1.03" stroke="#ff4e00"/><path transform="matrix(.13328 0 0 .13339 0 1056)" d="m3603.6-2867.5v-1.92" stroke="#ff4a00"/><path transform="matrix(.13328 0 0 .13339 0 1056)" d="m3614.2-2867.5v-2.65" stroke="#ff4600"/><path transform="matrix(.13328 0 0 .13339 0 1056)" d="m3624.9-2867.5v-2.22" stroke="#ff4200"/><path transform="matrix(.13328 0 0 .13339 0 1056)" d="m3635.5-2867.5v-3.11" stroke="#ff3d00"/><path transform="matrix(.13328 0 0 .13339 0 1056)" d="m3646.2-2867.5v-6.82" stroke="#ff3900"/><path transform="matrix(.13328 0 0 .13339 0 1056)" d="m3656.8-2867.5v-0.73" stroke="#ff3400"/><path transform="matrix(.13328 0 0 .13339 0 1056)" d="m3667.5-2867.5v-1.03" stroke="#ff2f00"/><path transform="matrix(.13328 0 0 .13339 0 1056)" d="m3678.1-2867.5v-3.26" stroke="#ff2a00"/><path transform="matrix(.13328 0 0 .13339 0 1056)" d="m3688.8-2867.5v-5.34" stroke="#ff2500"/><path transform="matrix(.13328 0 0 .13339 0 1056)" d="m3699.4-2867.5v-4" stroke="#ff2000"/><path transform="matrix(.13328 0 0 .13339 0 1056)" d="m3710.1-2867.5v-0.43" stroke="#ff1b00"/><path transform="matrix(.13328 0 0 .13339 0 1056)" d="m3720.7-2867.5" stroke="#ff1500"/><path transform="matrix(.13328 0 0 .13339 0 1056)" d="m3731.4-2867.5" stroke="#ff0f00"/><path transform="matrix(.13328 0 0 .13339 0 1056)" d="m3742-2867.5v-1.62" stroke="#ff0900"/><g stroke="#f00"><path transform="matrix(.13328 0 0 .13339 0 1056)" d="m3752.7-2867.5v-1.78"/><path transform="matrix(.13328 0 0 .13339 0 1056)" d="m3763.3-2867.5v-1.62"/><path transform="matrix(.13328 0 0 .13339 0 1056)" d="m3774-2867.5v-2.37"/><path transform="matrix(.13328 0 0 .13339 0 1056)" d="m3784.6-2867.5v-1.92"/><path transform="matrix(.13328 0 0 .13339 0 1056)" d="m3795.3-2867.5v-3.4"/><path transform="matrix(.13328 0 0 .13339 0 1056)" d="m3805.9-2867.5v-1.48"/><path transform="matrix(.13328 0 0 .13339 0 1056)" d="m3816.6-2867.5v-1.62"/><path transform="matrix(.13328 0 0 .13339 0 1056)" d="m3827.2-2867.5v-0.59"/><path transform="matrix(.13328 0 0 .13339 0 1056)" d="m3837.8-2867.5v-1.62"/><path transform="matrix(.13328 0 0 .13339 0 1056)" d="m3848.5-2867.5v-0.43"/><path transform="matrix(.13328 0 0 .13339 0 1056)" d="m3859.2-2867.5v-0.28"/><path transform="matrix(.13328 0 0 .13339 0 1056)" d="m3869.8-2867.5v-1.62"/><path transform="matrix(.13328 0 0 .13339 0 1056)" d="m3880.4-2867.5v-3.11"/><path transform="matrix(.13328 0 0 .13339 0 1056)" d="m3891.1-2867.5v-4.45"/><path transform="matrix(.13328 0 0 .13339 0 1056)" d="m3901.7-2867.5v-5.18"/><path transform="matrix(.13328 0 0 .13339 0 1056)" d="m3912.4-2867.5v-1.19"/><path transform="matrix(.13328 0 0 .13339 0 1056)" d="m3923-2867.5v-2.22"/><path transform="matrix(.13328 0 0 .13339 0 1056)" d="m3933.7-2867.5v-2.51"/><path transform="matrix(.13328 0 0 .13339 0 1056)" d="m3944.3-2867.5v-3.26"/><path transform="matrix(.13328 0 0 .13339 0 1056)" d="m3955-2867.5v-1.19"/><path transform="matrix(.13328 0 0 .13339 0 1056)" d="m3965.6-2867.5v-0.59"/><path transform="matrix(.13328 0 0 .13339 0 1056)" d="m3976.3-2867.5v-2.22"/><path transform="matrix(.13328 0 0 .13339 0 1056)" d="m3986.9-2867.5v-1.62"/><path transform="matrix(.13328 0 0 .13339 0 1056)" d="m3997.6-2867.5v-1.62"/><path transform="matrix(.13328 0 0 .13339 0 1056)" d="m4008.2-2867.5v-3.7"/><path transform="matrix(.13328 0 0 .13339 0 1056)" d="m4018.9-2867.5v-3.7"/><path transform="matrix(.13328 0 0 .13339 0 1056)" d="m4029.5-2867.5v-2.51"/><path transform="matrix(.13328 0 0 .13339 0 1056)" d="m4040.2-2867.5v-0.89"/><path transform="matrix(.13328 0 0 .13339 0 1056)" d="m4050.8-2867.5v-4.45"/><path transform="matrix(.13328 0 0 .13339 0 1056)" d="m4061.5-2867.5v-1.32"/><path transform="matrix(.13328 0 0 .13339 0 1056)" d="m4072.1-2867.5v-2.51"/><path transform="matrix(.13328 0 0 .13339 0 1056)" d="m4082.8-2867.5v-0.28"/><path transform="matrix(.13328 0 0 .13339 0 1056)" d="m4093.4-2867.5v-4.15"/><path transform="matrix(.13328 0 0 .13339 0 1056)" d="m4104.1-2867.5v-0.28"/><path transform="matrix(.13328 0 0 .13339 0 1056)" d="m4114.7-2867.5"/><path transform="matrix(.13328 0 0 .13339 0 1056)" d="m4125.4-2867.5v-2.65"/><path transform="matrix(.13328 0 0 .13339 0 1056)" d="m4136-2867.5v-3.4"/><path transform="matrix(.13328 0 0 .13339 0 1056)" d="m4146.7-2867.5v-4.74"/><path transform="matrix(.13328 0 0 .13339 0 1056)" d="m4157.3-2867.5v-0.43"/><path transform="matrix(.13328 0 0 .13339 0 1056)" d="m4167.9-2867.5v-3.85"/><path transform="matrix(.13328 0 0 .13339 0 1056)" d="m4178.6-2867.5v-1.92"/><path transform="matrix(.13328 0 0 .13339 0 1056)" d="m4189.2-2867.5v-1.32"/><path transform="matrix(.13328 0 0 .13339 0 1056)" d="m4199.9-2867.5v-2.06"/><path transform="matrix(.13328 0 0 .13339 0 1056)" d="m4210.5-2867.5v-1.48"/><path transform="matrix(.13328 0 0 .13339 0 1056)" d="m4221.2-2867.5v-4.59"/><path transform="matrix(.13328 0 0 .13339 0 1056)" d="m4231.8-2867.5v-3.85"/><path transform="matrix(.13328 0 0 .13339 0 1056)" d="m4242.5-2867.5v-2.65"/><path transform="matrix(.13328 0 0 .13339 0 1056)" d="m4253.1-2867.5v-0.28"/><path transform="matrix(.13328 0 0 .13339 0 1056)" d="m4263.8-2867.5v-1.92"/><path transform="matrix(.13328 0 0 .13339 0 1056)" d="m4274.4-2867.5v-1.32"/><path transform="matrix(.13328 0 0 .13339 0 1056)" d="m4285.1-2867.5v-4"/><path transform="matrix(.13328 0 0 .13339 0 1056)" d="m4295.7-2867.5v-1.19"/><path transform="matrix(.13328 0 0 .13339 0 1056)" d="m4306.4-2867.5v-1.62"/><path transform="matrix(.13328 0 0 .13339 0 1056)" d="m4317-2867.5v-1.32"/><path transform="matrix(.13328 0 0 .13339 0 1056)" d="m4327.7-2867.5v-3.26"/><path transform="matrix(.13328 0 0 .13339 0 1056)" d="m4338.3-2867.5v-1.48"/></g><path transform="matrix(.13328 0 0 .13339 0 1056)" d="m4349-2867.5v-5.18" stroke="#fd0000"/><path transform="matrix(.13328 0 0 .13339 0 1056)" d="m4359.6-2867.5v-1.03" stroke="#fc0000"/><path transform="matrix(.13328 0 0 .13339 0 1056)" d="m4370.3-2867.5v-0.73" stroke="#fa0000"/><path transform="matrix(.13328 0 0 .13339 0 1056)" d="m4380.9-2867.5v-1.03" stroke="#f90000"/><path transform="matrix(.13328 0 0 .13339 0 1056)" d="m4391.6-2867.5v-2.22" stroke="#f70000"/><path transform="matrix(.13328 0 0 .13339 0 1056)" d="m4402.2-2867.5v-1.92" stroke="#f60000"/><path transform="matrix(.13328 0 0 .13339 0 1056)" d="m4412.9-2867.5v-0.28" stroke="#f40000"/><path transform="matrix(.13328 0 0 .13339 0 1056)" d="m4423.5-2867.5v-3.4" stroke="#f30000"/><path transform="matrix(.13328 0 0 .13339 0 1056)" d="m4434.2-2867.5v-0.28" stroke="#f20000"/><path transform="matrix(.13328 0 0 .13339 0 1056)" d="m4444.8-2867.5v-0.43" stroke="#f00000"/><path transform="matrix(.13328 0 0 .13339 0 1056)" d="m4455.4-2867.5v-0.28" stroke="#ef0000"/><path transform="matrix(.13328 0 0 .13339 0 1056)" d="m4466.1-2867.5v-0.43" stroke="#ed0000"/><path transform="matrix(.13328 0 0 .13339 0 1056)" d="m4476.8-2867.5v-2.51" stroke="#ec0000"/><path transform="matrix(.13328 0 0 .13339 0 1056)" d="m4487.4-2867.5v-0.14" stroke="#ea0000"/><path transform="matrix(.13328 0 0 .13339 0 1056)" d="m4498-2867.5v-1.32" stroke="#e90000"/><path transform="matrix(.13328 0 0 .13339 0 1056)" d="m4508.7-2867.5v-2.22" stroke="#e70000"/><path transform="matrix(.13328 0 0 .13339 0 1056)" d="m4519.3-2867.5v-1.48" stroke="#e60000"/><path transform="matrix(.13328 0 0 .13339 0 1056)" d="m4530-2867.5v-1.92" stroke="#e40000"/><path transform="matrix(.13328 0 0 .13339 0 1056)" d="m4540.6-2867.5v-2.37" stroke="#e30000"/><path transform="matrix(.13328 0 0 .13339 0 1056)" d="m4551.3-2867.5v-0.28" stroke="#e20000"/><path transform="matrix(.13328 0 0 .13339 0 1056)" d="m4561.9-2867.5v-3.4" stroke="#e00000"/><path transform="matrix(.13328 0 0 .13339 0 1056)" d="m4572.6-2867.5v-9.19" stroke="#df0000"/><path transform="matrix(.13328 0 0 .13339 0 1056)" d="m4583.2-2867.5v-0.59" stroke="#d00"/><path transform="matrix(.13328 0 0 .13339 0 1056)" d="m4593.9-2867.5v-4.29" stroke="#dc0000"/><path transform="matrix(.13328 0 0 .13339 0 1056)" d="m4604.5-2867.5v-0.59" stroke="#da0000"/><path transform="matrix(.13328 0 0 .13339 0 1056)" d="m4615.2-2867.5v-1.78" stroke="#d90000"/><path transform="matrix(.13328 0 0 .13339 0 1056)" d="m4625.8-2867.5v-4.15" stroke="#d70000"/><path transform="matrix(.13328 0 0 .13339 0 1056)" d="m4636.5-2867.5v-0.89" stroke="#d60000"/><path transform="matrix(.13328 0 0 .13339 0 1056)" d="m4647.1-2867.5v-4.15" stroke="#d40000"/><path transform="matrix(.13328 0 0 .13339 0 1056)" d="m4657.8-2867.5v-2.51" stroke="#d30000"/><path transform="matrix(.13328 0 0 .13339 0 1056)" d="m4668.4-2867.5v-4.89" stroke="#d10000"/><path transform="matrix(.13328 0 0 .13339 0 1056)" d="m4679.1-2867.5v-0.28" stroke="#d00000"/><path transform="matrix(.13328 0 0 .13339 0 1056)" d="m4689.7-2867.5" stroke="#ce0000"/><path transform="matrix(.13328 0 0 .13339 0 1056)" d="m4700.4-2867.5v-13.04" stroke="#cd0000"/><path transform="matrix(.13328 0 0 .13339 0 1056)" d="m4711-2867.5v-1.19" stroke="#cb0000"/><path transform="matrix(.13328 0 0 .13339 0 1056)" d="m4721.7-2867.5v-2.65" stroke="#ca0000"/><path transform="matrix(.13328 0 0 .13339 0 1056)" d="m4732.3-2867.5v-3.11" stroke="#c80000"/><path transform="matrix(.13328 0 0 .13339 0 1056)" d="m4743-2867.5v-4.15" stroke="#c70000"/><path transform="matrix(.13328 0 0 .13339 0 1056)" d="m4753.6-2867.5v-0.14" stroke="#c50000"/><path transform="matrix(.13328 0 0 .13339 0 1056)" d="m4764.2-2867.5v-6.37" stroke="#c40000"/><path transform="matrix(.13328 0 0 .13339 0 1056)" d="m4774.9-2867.5v-0.89" stroke="#c20000"/><path transform="matrix(.13328 0 0 .13339 0 1056)" d="m4785.5-2867.5v-0.43" stroke="#c10000"/><path transform="matrix(.13328 0 0 .13339 0 1056)" d="m4796.2-2867.5v-0.89" stroke="#bf0000"/><path transform="matrix(.13328 0 0 .13339 0 1056)" d="m4806.8-2867.5v-3.7" stroke="#bd0000"/><path transform="matrix(.13328 0 0 .13339 0 1056)" d="m4817.5-2867.5v-2.81" stroke="#bc0000"/><path transform="matrix(.13328 0 0 .13339 0 1056)" d="m4828.1-2867.5v-4.89" stroke="#ba0000"/><path transform="matrix(.13328 0 0 .13339 0 1056)" d="m4838.8-2867.5v-4" stroke="#b90000"/><path transform="matrix(.13328 0 0 .13339 0 1056)" d="m4849.4-2867.5v-3.11" stroke="#b70000"/><path transform="matrix(.13328 0 0 .13339 0 1056)" d="m4860.1-2867.5v-3.26" stroke="#b60000"/><path transform="matrix(.13328 0 0 .13339 0 1056)" d="m4870.7-2867.5v-2.51" stroke="#b40000"/><path transform="matrix(.13328 0 0 .13339 0 1056)" d="m4881.4-2867.5" stroke="#b30000"/><path transform="matrix(.13328 0 0 .13339 0 1056)" d="m4892-2867.5v-2.22" stroke="#b10000"/><path transform="matrix(.13328 0 0 .13339 0 1056)" d="m4902.7-2867.5v-0.73" stroke="#af0000"/><path transform="matrix(.13328 0 0 .13339 0 1056)" d="m4913.3-2867.5" stroke="#ae0000"/><path transform="matrix(.13328 0 0 .13339 0 1056)" d="m4924-2867.5" stroke="#ac0000"/><path transform="matrix(.13328 0 0 .13339 0 1056)" d="m4934.6-2867.5v-1.19" stroke="#ab0000"/><path transform="matrix(.13328 0 0 .13339 0 1056)" d="m4945.3-2867.5v-2.51" stroke="#a90000"/><path transform="matrix(.13328 0 0 .13339 0 1056)" d="m4955.9-2867.5" stroke="#a80000"/><path transform="matrix(.13328 0 0 .13339 0 1056)" d="m4966.6-2867.5v-2.22" stroke="#a60000"/><path transform="matrix(.13328 0 0 .13339 0 1056)" d="m4977.2-2867.5v-0.28" stroke="#a40000"/><path transform="matrix(.13328 0 0 .13339 0 1056)" d="m4987.9-2867.5v-0.28" stroke="#a30000"/><path transform="matrix(.13328 0 0 .13339 0 1056)" d="m4998.5-2867.5v-0.43" stroke="#a10000"/><path transform="matrix(.13328 0 0 .13339 0 1056)" d="m5009.2-2867.5v-9.63" stroke="#a00000"/><path transform="matrix(.13328 0 0 .13339 0 1056)" d="m5019.8-2867.5v-4.29" stroke="#9e0000"/><path transform="matrix(.13328 0 0 .13339 0 1056)" d="m5030.5-2867.5v-2.37" stroke="#9c0000"/><path transform="matrix(.13328 0 0 .13339 0 1056)" d="m5041.1-2867.5v-3.11" stroke="#9b0000"/><path transform="matrix(.13328 0 0 .13339 0 1056)" d="m5051.8-2867.5v-0.43" stroke="#900"/><path transform="matrix(.13328 0 0 .13339 0 1056)" d="m5062.4-2867.5v-0.43" stroke="#980000"/><path transform="matrix(.13328 0 0 .13339 0 1056)" d="m5073-2867.5v-2.81" stroke="#960000"/><path transform="matrix(.13328 0 0 .13339 0 1056)" d="m5083.7-2867.5v-0.73" stroke="#940000"/><path transform="matrix(.13328 0 0 .13339 0 1056)" d="m5094.3-2867.5v-4.29" stroke="#930000"/><path transform="matrix(.13328 0 0 .13339 0 1056)" d="m5105-2867.5v-4.89" stroke="#910000"/><path transform="matrix(.13328 0 0 .13339 0 1056)" d="m5115.6-2867.5v-0.43" stroke="#8f0000"/><path transform="matrix(.13328 0 0 .13339 0 1056)" d="m5126.3-2867.5v-7.26" stroke="#8e0000"/><path transform="matrix(.13328 0 0 .13339 0 1056)" d="m5136.9-2867.5v-4.74" stroke="#8c0000"/><path transform="matrix(.13328 0 0 .13339 0 1056)" d="m5147.6-2867.5v-1.03" stroke="#8a0000"/><path transform="matrix(.13328 0 0 .13339 0 1056)" d="m5158.2-2867.5v-2.37" stroke="#890000"/><path transform="matrix(.13328 0 0 .13339 0 1056)" d="m5168.9-2867.5v-2.81" stroke="#870000"/><path transform="matrix(.13328 0 0 .13339 0 1056)" d="m5179.5-2867.5v-3.11" stroke="#850000"/><path transform="matrix(.13328 0 0 .13339 0 1056)" d="m5190.2-2867.5v-4.29" stroke="#840000"/><path transform="matrix(.13328 0 0 .13339 0 1056)" d="m5200.8-2867.5" stroke="#820000"/><path transform="matrix(.13328 0 0 .13339 0 1056)" d="m5211.5-2867.5v-0.59" stroke="#800000"/><path transform="matrix(.13328 0 0 .13339 0 1056)" d="m5222.1-2867.5v-2.22" stroke="#7f0000"/><path transform="matrix(.13328 0 0 .13339 0 1056)" d="m5232.8-2867.5v-0.59" stroke="#7d0000"/><path transform="matrix(.13328 0 0 .13339 0 1056)" d="m5243.4-2867.5v-3.11" stroke="#7b0000"/><path transform="matrix(.13328 0 0 .13339 0 1056)" d="m5254.1-2867.5v-2.06" stroke="#7a0000"/><path transform="matrix(.13328 0 0 .13339 0 1056)" d="m5264.7-2867.5v-1.92" stroke="#780000"/><path transform="matrix(.13328 0 0 .13339 0 1056)" d="m5275.4-2867.5v-4.89" stroke="#760000"/><path transform="matrix(.13328 0 0 .13339 0 1056)" d="m5286-2867.5v-8.6" stroke="#740000"/><path transform="matrix(.13328 0 0 .13339 0 1056)" d="m5296.7-2867.5v-1.19" stroke="#730000"/><path transform="matrix(.13328 0 0 .13339 0 1056)" d="m5307.3-2867.5v-1.62" stroke="#710000"/><path transform="matrix(.13328 0 0 .13339 0 1056)" d="m5318-2867.5v-2.06" stroke="#6f0000"/><path transform="matrix(.13328 0 0 .13339 0 1056)" d="m5328.6-2867.5v-6.07" stroke="#6d0000"/><path transform="matrix(.13328 0 0 .13339 0 1056)" d="m5339.2-2867.5v-2.22" stroke="#6c0000"/><path transform="matrix(.13328 0 0 .13339 0 1056)" d="m5349.9-2867.5v-2.37" stroke="#6a0000"/><path transform="matrix(.13328 0 0 .13339 0 1056)" d="m5360.6-2867.5v-4.89" stroke="#680000"/><path transform="matrix(.13328 0 0 .13339 0 1056)" d="m5371.2-2867.5v-4.15" stroke="#600"/><path transform="matrix(.13328 0 0 .13339 0 1056)" d="m5381.8-2867.5v-0.59" stroke="#640000"/><path transform="matrix(.13328 0 0 .13339 0 1056)" d="m5392.5-2867.5v-0.73" stroke="#630000"/></g><g transform="matrix(1.3636 0 0 -1.3636 -202.01 970.47)" stroke-width=".91672"><g fill="#000000" font-family="Lato"><g font-size="9.7293px"><text transform="matrix(.80219 0 0 -.80438 640.78 492.09)" x="36.944557" stroke-width="1.2168" style="font-variant-caps:normal;font-variant-east-asian:normal;font-variant-ligatures:normal;font-variant-numeric:normal" xml:space="preserve"><tspan x="36.944557" y="0" fill="#000000" font-family="Lato" font-size="9.7293px" stroke-width="1.2168" text-align="center" text-anchor="middle" style="font-variant-caps:normal;font-variant-east-asian:normal;font-variant-ligatures:normal;font-variant-numeric:normal">WaveLength (nm)</tspan></text><g stroke-width="1.2162"><text transform="matrix(.803 0 0 -.80438 473.81 694.38)" x="5.3358564" style="font-variant-caps:normal;font-variant-east-asian:normal;font-variant-ligatures:normal;font-variant-numeric:normal" xml:space="preserve"><tspan x="5.3358564" y="0" fill="#000000" font-family="Lato" font-size="9.7293px" stroke-width="1.2162" text-align="end" text-anchor="end" style="font-variant-caps:normal;font-variant-east-asian:normal;font-variant-ligatures:normal;font-variant-numeric:normal">1</tspan></text><text transform="matrix(.803 0 0 -.80438 473.78 657.43)" x="5.3358564" style="font-variant-caps:normal;font-variant-east-asian:normal;font-variant-ligatures:normal;font-variant-numeric:normal" xml:space="preserve"><tspan x="5.3358564" y="0" fill="#000000" font-family="Lato" font-size="9.7293px" stroke-width="1.2162" text-align="end" text-anchor="end" style="font-variant-caps:normal;font-variant-east-asian:normal;font-variant-ligatures:normal;font-variant-numeric:normal">0.8</tspan></text><text transform="matrix(.803 0 0 -.80438 473.73 620.6)" x="5.3358564" style="font-variant-caps:normal;font-variant-east-asian:normal;font-variant-ligatures:normal;font-variant-numeric:normal" xml:space="preserve"><tspan x="5.3358564" y="0" fill="#000000" font-family="Lato" font-size="9.7293px" stroke-width="1.2162" text-align="end" text-anchor="end" style="font-variant-caps:normal;font-variant-east-asian:normal;font-variant-ligatures:normal;font-variant-numeric:normal">0.6</tspan></text><text transform="matrix(.803 0 0 -.80438 473.55 583.71)" x="5.3358564" style="font-variant-caps:normal;font-variant-east-asian:normal;font-variant-ligatures:normal;font-variant-numeric:normal" xml:space="preserve"><tspan x="5.3358564" y="0" fill="#000000" font-family="Lato" font-size="9.7293px" stroke-width="1.2162" text-align="end" text-anchor="end" style="font-variant-caps:normal;font-variant-east-asian:normal;font-variant-ligatures:normal;font-variant-numeric:normal">0.4</tspan></text><text transform="matrix(.803 0 0 -.80438 473.78 546.87)" x="5.3358564" style="font-variant-caps:normal;font-variant-east-asian:normal;font-variant-ligatures:normal;font-variant-numeric:normal" xml:space="preserve"><tspan x="5.3358564" y="0" fill="#000000" font-family="Lato" font-size="9.7293px" stroke-width="1.2162" text-align="end" text-anchor="end" style="font-variant-caps:normal;font-variant-east-asian:normal;font-variant-ligatures:normal;font-variant-numeric:normal">0.2</tspan></text><text transform="matrix(.803 0 0 -.80438 473.61 509.99)" x="5.3358564" style="font-variant-caps:normal;font-variant-east-asian:normal;font-variant-ligatures:normal;font-variant-numeric:normal" xml:space="preserve"><tspan x="5.3358564" y="0" fill="#000000" font-family="Lato" font-size="9.7293px" stroke-width="1.2162" text-align="end" text-anchor="end" style="font-variant-caps:normal;font-variant-east-asian:normal;font-variant-ligatures:normal;font-variant-numeric:normal">0</tspan></text><text transform="matrix(.803 0 0 -.80438 486.57 502.62)" x="15.907482" style="font-variant-caps:normal;font-variant-east-asian:normal;font-variant-ligatures:normal;font-variant-numeric:normal" xml:space="preserve"><tspan x="15.907481" y="0" fill="#000000" font-family="Lato" font-size="9.7293px" stroke-width="1.2162" text-align="center" text-anchor="middle" style="font-variant-caps:normal;font-variant-east-asian:normal;font-variant-ligatures:normal;font-variant-numeric:normal">400</tspan></text><text transform="matrix(.803 0 0 -.80438 572.11 502.62)" x="15.907482" style="font-variant-caps:normal;font-variant-east-asian:normal;font-variant-ligatures:normal;font-variant-numeric:normal" xml:space="preserve"><tspan x="15.907481" y="0" fill="#000000" font-family="Lato" font-size="9.7293px" stroke-width="1.2162" text-align="center" text-anchor="middle" style="font-variant-caps:normal;font-variant-east-asian:normal;font-variant-ligatures:normal;font-variant-numeric:normal">500</tspan></text><text transform="matrix(.803 0 0 -.80438 657.51 502.62)" x="15.907482" style="font-variant-caps:normal;font-variant-east-asian:normal;font-variant-ligatures:normal;font-variant-numeric:normal" xml:space="preserve"><tspan x="15.907481" y="0" fill="#000000" font-family="Lato" font-size="9.7293px" stroke-width="1.2162" text-align="center" text-anchor="middle" style="font-variant-caps:normal;font-variant-east-asian:normal;font-variant-ligatures:normal;font-variant-numeric:normal">600</tspan></text><text transform="matrix(.803 0 0 -.80438 743.05 502.62)" x="15.907482" style="font-variant-caps:normal;font-variant-east-asian:normal;font-variant-ligatures:normal;font-variant-numeric:normal" xml:space="preserve"><tspan x="15.907481" y="0" fill="#000000" font-family="Lato" font-size="9.7293px" stroke-width="1.2162" text-align="center" text-anchor="middle" style="font-variant-caps:normal;font-variant-east-asian:normal;font-variant-ligatures:normal;font-variant-numeric:normal">700</tspan></text><text transform="matrix(.803 0 0 -.80438 828.56 502.62)" x="15.907482" style="font-variant-caps:normal;font-variant-east-asian:normal;font-variant-ligatures:normal;font-variant-numeric:normal" xml:space="preserve"><tspan x="15.907481" y="0" fill="#000000" font-family="Lato" font-size="9.7293px" stroke-width="1.2162" text-align="center" text-anchor="middle" style="font-variant-caps:normal;font-variant-east-asian:normal;font-variant-ligatures:normal;font-variant-numeric:normal">800</tspan></text></g></g><text transform="matrix(0 .80438 .803 0 462.03 573.5)" font-size="9.7293px" stroke-width="1.2162" style="font-variant-caps:normal;font-variant-east-asian:normal;font-variant-ligatures:normal;font-variant-numeric:normal" xml:space="preserve"><tspan x="0" y="0" fill="#000000" font-family="Lato" font-size="9.7293px" stroke-width="1.2162" style="font-variant-caps:normal;font-variant-east-asian:normal;font-variant-ligatures:normal;font-variant-numeric:normal">Relative Spectrum</tspan></text></g><g fill="none" stroke="#858585" stroke-width=".27518"><path transform="matrix(.79917 0 0 -.79985 -7.5232 459.73)" d="m617.27-296.75h-4.496v230.4h449.56v-4.4972"/><path transform="matrix(.79917 0 0 -.79985 -7.5232 459.73)" d="m612.77-250.67h4.496"/><path transform="matrix(.79917 0 0 -.79985 -7.5232 459.73)" d="m612.77-204.59h4.496"/><path transform="matrix(.79917 0 0 -.79985 -7.5232 459.73)" d="m612.77-158.5h4.496"/><path transform="matrix(.79917 0 0 -.79985 -7.5232 459.73)" d="m612.77-112.42h4.496"/><path transform="matrix(.79917 0 0 -.79985 -7.5232 459.73)" d="m634.18-66.344v-4.4972"/><path transform="matrix(.79917 0 0 -.79985 -7.5232 459.73)" d="m741.22-66.344 2e-5 -4.4972"/><path transform="matrix(.79917 0 0 -.79985 -7.5232 459.73)" d="m848.25-66.344 2e-5 -4.4972"/><path transform="matrix(.79917 0 0 -.79985 -7.5232 459.73)" d="m955.29-66.344v-4.4972"/></g></g></g></svg>
