<svg width="960" height="320" version="1.1" viewBox="0 0 960 320" xml:space="preserve" xmlns="http://www.w3.org/2000/svg"><g transform="matrix(1.25 0 0 -1.25 -5.7305 574.6)"><g transform="translate(.39805 -.41647)"><g font-family="Lato" font-size="11.944px" stroke-width="1.4929"><text transform="matrix(.71448 0 0 -.71448 38.481 234.23)" style="font-variant-caps:normal;font-variant-east-asian:normal;font-variant-ligatures:normal;font-variant-numeric:normal" xml:space="preserve">0.365</text><text transform="matrix(.71448 0 0 -.71448 84.082 234.46)" style="font-variant-caps:normal;font-variant-east-asian:normal;font-variant-ligatures:normal;font-variant-numeric:normal" xml:space="preserve">0.37</text><text transform="matrix(.71448 0 0 -.71448 124.89 234.26)" style="font-variant-caps:normal;font-variant-east-asian:normal;font-variant-ligatures:normal;font-variant-numeric:normal" xml:space="preserve">0.375</text><text transform="matrix(.71448 0 0 -.71448 170.69 234.26)" style="font-variant-caps:normal;font-variant-east-asian:normal;font-variant-ligatures:normal;font-variant-numeric:normal" xml:space="preserve">0.38</text><text transform="matrix(.71448 0 0 -.71448 211.27 234.26)" style="font-variant-caps:normal;font-variant-east-asian:normal;font-variant-ligatures:normal;font-variant-numeric:normal" xml:space="preserve">0.385</text><text transform="matrix(.71448 0 0 -.71448 256.89 234.26)" x="11.587553" text-align="center" text-anchor="middle" style="font-variant-caps:normal;font-variant-east-asian:normal;font-variant-ligatures:normal;font-variant-numeric:normal" xml:space="preserve">0.39</text><text transform="matrix(.71448 0 0 -.71448 300.57 234.37)" x="11.117998" style="font-variant-caps:normal;font-variant-east-asian:normal;font-variant-ligatures:normal;font-variant-numeric:normal" xml:space="preserve"><tspan font-family="Lato" font-size="11.944px" text-align="center" text-anchor="middle" style="font-variant-caps:normal;font-variant-east-asian:normal;font-variant-ligatures:normal;font-variant-numeric:normal">0.395</tspan></text><text transform="matrix(.71448 0 0 -.71448 22.977 242.52)" style="font-variant-caps:normal;font-variant-east-asian:normal;font-variant-ligatures:normal;font-variant-numeric:normal" xml:space="preserve">0.295</text><text transform="matrix(.71448 0 0 -.71448 22.977 310.5)" style="font-variant-caps:normal;font-variant-east-asian:normal;font-variant-ligatures:normal;font-variant-numeric:normal" xml:space="preserve">0.305</text><text transform="matrix(.71448 0 0 -.71448 32.295 276.36)" style="font-variant-caps:normal;font-variant-east-asian:normal;font-variant-ligatures:normal;font-variant-numeric:normal" xml:space="preserve">0.3</text><text transform="matrix(.71448 0 0 -.71448 27.617 344.19)" style="font-variant-caps:normal;font-variant-east-asian:normal;font-variant-ligatures:normal;font-variant-numeric:normal" xml:space="preserve">0.31</text><text transform="matrix(.71448 0 0 -.71448 27.8 412.18)" style="font-variant-caps:normal;font-variant-east-asian:normal;font-variant-ligatures:normal;font-variant-numeric:normal" xml:space="preserve">0.32</text><text transform="matrix(.71448 0 0 -.71448 22.977 378.06)" style="font-variant-caps:normal;font-variant-east-asian:normal;font-variant-ligatures:normal;font-variant-numeric:normal" xml:space="preserve">0.315</text><text transform="matrix(.71448 0 0 -.71448 22.977 445.92)" style="font-variant-caps:normal;font-variant-east-asian:normal;font-variant-ligatures:normal;font-variant-numeric:normal" xml:space="preserve">0.325</text><text transform="matrix(.71448 0 0 -.71448 167.84 223.08)" style="font-variant-caps:normal;font-variant-east-asian:normal;font-variant-ligatures:normal;font-variant-numeric:normal" xml:space="preserve">CIE-X</text><text transform="matrix(0 .71448 .71448 0 18.369 335.16)" style="font-variant-caps:normal;font-variant-east-asian:normal;font-variant-ligatures:normal;font-variant-numeric:normal" xml:space="preserve">CIE-Y</text></g><g fill="none" stroke="#858585" stroke-dasharray="7.45661, 0" stroke-width=".33591"><polyline transform="matrix(.71448 0 0 -.71448 5.9365 467.76)" points="121.33 311 121.33 26.208"/><polyline transform="matrix(.71448 0 0 -.71448 5.9365 467.76)" points="181.8 311 181.8 26.208"/><polyline transform="matrix(.71448 0 0 -.71448 5.9365 467.76)" points="242.26 311 242.26 26.208"/><polyline transform="matrix(.71448 0 0 -.71448 5.9365 467.76)" points="302.73 311 302.73 26.208"/><polyline transform="matrix(.71448 0 0 -.71448 5.9365 467.76)" points="363.2 311 363.2 26.208"/><polyline transform="matrix(.71448 0 0 -.71448 5.9365 467.76)" points="423.67 311 423.67 26.208"/><polyline transform="matrix(.71448 0 0 -.71448 5.9365 484.77)" points="60.859 239.8 423.67 239.8"/><polyline transform="matrix(.71448 0 0 -.71448 5.9365 450.87)" points="60.859 239.8 423.67 239.8"/><polyline transform="matrix(.71448 0 0 -.71448 5.9365 518.63)" points="60.859 239.8 423.67 239.8"/><polyline transform="matrix(.71448 0 0 -.71448 5.9365 501.7)" points="60.859 168.6 423.67 168.6"/><polyline transform="matrix(.71448 0 0 -.71448 5.9365 484.71)" points="60.859 97.404 423.67 97.404"/><polyline transform="matrix(.71448 0 0 -.71448 5.9365 467.76)" points="60.859 26.208 423.67 26.208"/><polyline transform="matrix(.71448 0 0 -.71448 5.9365 467.76)" points="60.859 311 423.67 311" stroke-linecap="square"/><polyline transform="matrix(.71448 0 0 -.71448 5.9365 467.76)" points="60.859 311 60.859 26.208" stroke-linecap="square"/></g></g><g transform="matrix(.71422 0 0 -.71422 -495.39 458.45)" stroke-width="1.4935"><clipPath><polygon points="0 349 468 349 468 0 0 0"/></clipPath><g stroke-width="2.102"><polygon transform="translate(702.5 -12.441)" points="188.34 65.045 187.34 65.045 186.84 64.179 187.34 63.313 188.34 63.313 188.84 64.179" fill="#f00" shape-rendering="crispEdges"/><text transform="translate(704.17 -11.047)" x="186.63971" y="59.583584" font-family="Lato" font-size="11.948px" style="font-variant-caps:normal;font-variant-east-asian:normal;font-variant-ligatures:normal;font-variant-numeric:normal" xml:space="preserve">CCT=3626 K   </text><polygon transform="translate(702.5 -12.441)" points="387.88 65.045 386.88 65.045 386.38 64.179 386.88 63.313 387.88 63.313 388.38 64.179" fill="#f00" shape-rendering="crispEdges"/><text transform="translate(1090.4 48.537)" font-family="Lato" font-size="11.948px" style="font-variant-caps:normal;font-variant-east-asian:normal;font-variant-ligatures:normal;font-variant-numeric:normal" xml:space="preserve">CCT=3120 K   </text><polygon transform="translate(702.5 -12.441)" points="315.32 264.4 314.32 264.4 313.82 263.53 314.32 262.66 315.32 262.66 315.82 263.53" fill="#f00" shape-rendering="crispEdges"/><text transform="translate(1017.8 263.57)" font-family="Lato" font-size="11.948px" style="font-variant-caps:normal;font-variant-east-asian:normal;font-variant-ligatures:normal;font-variant-numeric:normal" xml:space="preserve">CCT=3011 K   </text><polygon transform="translate(702.5 -12.441)" points="115.78 264.4 114.78 264.4 114.28 263.53 114.78 262.66 115.78 262.66 116.28 263.53" fill="#f00" shape-rendering="crispEdges"/><text transform="translate(703.94 -12.216)" x="114.3082" y="275.06824" font-family="Lato" font-size="11.948px" style="font-variant-caps:normal;font-variant-east-asian:normal;font-variant-ligatures:normal;font-variant-numeric:normal" xml:space="preserve">CCT=3574 K   </text></g><polyline transform="translate(702.5 -12.441)" points="187.84 64.179 387.38 64.179 387.38 64.179 314.82 263.53 314.82 263.53 115.28 263.53 115.28 263.53 187.84 64.179" fill="none" stroke="#00f" stroke-linejoin="round" stroke-width=".74673"/><polygon transform="translate(702.5 -12.441)" points="242.76 169.47 241.76 169.47 241.26 168.6 241.76 167.74 242.76 167.74 243.26 168.6" fill="#f0f" shape-rendering="crispEdges" stroke-width="2.102"/><text transform="translate(945.77 155.29)" font-family="Lato" font-size="11.948px" stroke-width="2.102" style="font-variant-caps:normal;font-variant-east-asian:normal;font-variant-ligatures:normal;font-variant-numeric:normal" xml:space="preserve">CCT=3334 K   </text></g><g transform="translate(8.1524 -4.0264)"><g transform="matrix(2.479 0 0 -2.4792 334.98 659.41)" stroke-width="1.2196"><g fill="none" stroke-linejoin="round" stroke-miterlimit="2" stroke-width="24.403"><path transform="matrix(.035263 0 0 .035293 -22.021 267.67)" d="m930.9-2867.5v-6.29" stroke="#610061"/><path transform="matrix(.035263 0 0 .035293 -22.021 267.67)" d="m941.55-2867.5v-16.94" stroke="#640065"/><path transform="matrix(.035263 0 0 .035293 -22.021 267.67)" d="m952.2-2867.5v-5.15" stroke="#67006a"/><path transform="matrix(.035263 0 0 .035293 -22.021 267.67)" d="m962.85-2867.5v-12.73" stroke="#6a006e"/><path transform="matrix(.035263 0 0 .035293 -22.021 267.67)" d="m973.49-2867.5v-7.39" stroke="#6c0073"/><path transform="matrix(.035263 0 0 .035293 -22.021 267.67)" d="m984.15-2867.5v-6.52" stroke="#6f0077"/><path transform="matrix(.035263 0 0 .035293 -22.021 267.67)" d="m994.79-2867.5v-3.38" stroke="#71007b"/><path transform="matrix(.035263 0 0 .035293 -22.021 267.67)" d="m1005.4-2867.5v-1.53" stroke="#73007f"/><path transform="matrix(.035263 0 0 .035293 -22.021 267.67)" d="m1016.1-2867.5v-4.01" stroke="#750084"/><path transform="matrix(.035263 0 0 .035293 -22.021 267.67)" d="m1026.7-2867.5v-5.74" stroke="#708"/><path transform="matrix(.035263 0 0 .035293 -22.021 267.67)" d="m1037.4-2867.5v-4.04" stroke="#79008c"/><path transform="matrix(.035263 0 0 .035293 -22.021 267.67)" d="m1048-2867.5v-2.55" stroke="#7b0090"/><path transform="matrix(.035263 0 0 .035293 -22.021 267.67)" d="m1058.7-2867.5v-2.58" stroke="#7c0094"/><path transform="matrix(.035263 0 0 .035293 -22.021 267.67)" d="m1069.3-2867.5v-3.46" stroke="#7d0098"/><path transform="matrix(.035263 0 0 .035293 -22.021 267.67)" d="m1080-2867.5v-1.99" stroke="#7e009c"/><path transform="matrix(.035263 0 0 .035293 -22.021 267.67)" d="m1090.6-2867.5v-1.83" stroke="#7f00a0"/><path transform="matrix(.035263 0 0 .035293 -22.021 267.67)" d="m1101.3-2867.5v-4.63" stroke="#8000a4"/><path transform="matrix(.035263 0 0 .035293 -22.021 267.67)" d="m1111.9-2867.5v-2.08" stroke="#8100a8"/><path transform="matrix(.035263 0 0 .035293 -22.021 267.67)" d="m1122.6-2867.5v-4.91" stroke="#8100ac"/><path transform="matrix(.035263 0 0 .035293 -22.021 267.67)" d="m1133.2-2867.5v-2.24" stroke="#8200b0"/><path transform="matrix(.035263 0 0 .035293 -22.021 267.67)" d="m1143.9-2867.5v-1.76" stroke="#8200b4"/><path transform="matrix(.035263 0 0 .035293 -22.021 267.67)" d="m1154.5-2867.5v-2.51" stroke="#8200b8"/><path transform="matrix(.035263 0 0 .035293 -22.021 267.67)" d="m1165.2-2867.5v-3.13" stroke="#8200bc"/><path transform="matrix(.035263 0 0 .035293 -22.021 267.67)" d="m1175.8-2867.5v-2.12" stroke="#8200c0"/><path transform="matrix(.035263 0 0 .035293 -22.021 267.67)" d="m1186.5-2867.5v-4.32" stroke="#8200c4"/><path transform="matrix(.035263 0 0 .035293 -22.021 267.67)" d="m1197.1-2867.5v-1.53" stroke="#8100c7"/><path transform="matrix(.035263 0 0 .035293 -22.021 267.67)" d="m1207.8-2867.5v-2.97" stroke="#8100cb"/><path transform="matrix(.035263 0 0 .035293 -22.021 267.67)" d="m1218.4-2867.5v-1.8" stroke="#8000cf"/><path transform="matrix(.035263 0 0 .035293 -22.021 267.67)" d="m1229-2867.5v-2.83" stroke="#7f00d3"/><path transform="matrix(.035263 0 0 .035293 -22.021 267.67)" d="m1239.7-2867.5v-5.22" stroke="#7e00d6"/><path transform="matrix(.035263 0 0 .035293 -22.021 267.67)" d="m1250.4-2867.5v-6.76" stroke="#7d00da"/><path transform="matrix(.035263 0 0 .035293 -22.021 267.67)" d="m1261-2867.5v-8.84" stroke="#7c00de"/><path transform="matrix(.035263 0 0 .035293 -22.021 267.67)" d="m1271.6-2867.5v-8.17" stroke="#7a00e2"/><path transform="matrix(.035263 0 0 .035293 -22.021 267.67)" d="m1282.3-2867.5v-10.57" stroke="#7900e5"/><path transform="matrix(.035263 0 0 .035293 -22.021 267.67)" d="m1292.9-2867.5v-13.05" stroke="#7700e9"/><path transform="matrix(.035263 0 0 .035293 -22.021 267.67)" d="m1303.6-2867.5v-18.51" stroke="#7500ec"/><path transform="matrix(.035263 0 0 .035293 -22.021 267.67)" d="m1314.2-2867.5v-20.39" stroke="#7300f0"/><path transform="matrix(.035263 0 0 .035293 -22.021 267.67)" d="m1324.9-2867.5v-23.81" stroke="#7100f4"/><path transform="matrix(.035263 0 0 .035293 -22.021 267.67)" d="m1335.5-2867.5v-30.86" stroke="#6f00f7"/><path transform="matrix(.035263 0 0 .035293 -22.021 267.67)" d="m1346.2-2867.5v-40.41" stroke="#6c00fb"/><path transform="matrix(.035263 0 0 .035293 -22.021 267.67)" d="m1356.8-2867.5v-45.44" stroke="#6900ff"/><path transform="matrix(.035263 0 0 .035293 -22.021 267.67)" d="m1367.5-2867.5v-53.27" stroke="#6500ff"/><path transform="matrix(.035263 0 0 .035293 -22.021 267.67)" d="m1378.1-2867.5v-66.2" stroke="#6100ff"/><path transform="matrix(.035263 0 0 .035293 -22.021 267.67)" d="m1388.8-2867.5v-80.71" stroke="#5c00ff"/><path transform="matrix(.035263 0 0 .035293 -22.021 267.67)" d="m1399.4-2867.5v-93.14" stroke="#5800ff"/><path transform="matrix(.035263 0 0 .035293 -22.021 267.67)" d="m1410.1-2867.5v-108.43" stroke="#5400ff"/><path transform="matrix(.035263 0 0 .035293 -22.021 267.67)" d="m1420.7-2867.5v-127.93" stroke="#4f00ff"/><path transform="matrix(.035263 0 0 .035293 -22.021 267.67)" d="m1431.4-2867.5v-150.62" stroke="#4b00ff"/><path transform="matrix(.035263 0 0 .035293 -22.021 267.67)" d="m1442-2867.5v-174.25" stroke="#4600ff"/><path transform="matrix(.035263 0 0 .035293 -22.021 267.67)" d="m1452.7-2867.5v-203.97" stroke="#4100ff"/><path transform="matrix(.035263 0 0 .035293 -22.021 267.67)" d="m1463.3-2867.5v-235.35" stroke="#3c00ff"/><path transform="matrix(.035263 0 0 .035293 -22.021 267.67)" d="m1474-2867.5v-267.23" stroke="#3700ff"/><path transform="matrix(.035263 0 0 .035293 -22.021 267.67)" d="m1484.6-2867.5v-307.93" stroke="#3200ff"/><path transform="matrix(.035263 0 0 .035293 -22.021 267.67)" d="m1495.2-2867.5v-353.26" stroke="#2d00ff"/><path transform="matrix(.035263 0 0 .035293 -22.021 267.67)" d="m1505.9-2867.5v-400.45" stroke="#2800ff"/><path transform="matrix(.035263 0 0 .035293 -22.021 267.67)" d="m1516.6-2867.5v-452.82" stroke="#20f"/><path transform="matrix(.035263 0 0 .035293 -22.021 267.67)" d="m1527.2-2867.5v-510.21" stroke="#1d00ff"/><path transform="matrix(.035263 0 0 .035293 -22.021 267.67)" d="m1537.8-2867.5v-572.26" stroke="#1700ff"/><path transform="matrix(.035263 0 0 .035293 -22.021 267.67)" d="m1548.5-2867.5v-637.76" stroke="#1000ff"/><path transform="matrix(.035263 0 0 .035293 -22.021 267.67)" d="m1559.2-2867.5v-718.53" stroke="#0900ff"/><path transform="matrix(.035263 0 0 .035293 -22.021 267.67)" d="m1569.8-2867.5v-802.07" stroke="#00f"/><path transform="matrix(.035263 0 0 .035293 -22.021 267.67)" d="m1580.4-2867.5v-903.12" stroke="#000bff"/><path transform="matrix(.035263 0 0 .035293 -22.021 267.67)" d="m1591.1-2867.5v-1015.5" stroke="#0013ff"/><path transform="matrix(.035263 0 0 .035293 -22.021 267.67)" d="m1601.7-2867.5v-1151.8" stroke="#001aff"/><path transform="matrix(.035263 0 0 .035293 -22.021 267.67)" d="m1612.4-2867.5v-1304.9" stroke="#0021ff"/><path transform="matrix(.035263 0 0 .035293 -22.021 267.67)" d="m1623-2867.5v-1479.3" stroke="#0028ff"/><path transform="matrix(.035263 0 0 .035293 -22.021 267.67)" d="m1633.7-2867.5v-1658.5" stroke="#002eff"/><path transform="matrix(.035263 0 0 .035293 -22.021 267.67)" d="m1644.3-2867.5v-1845.5" stroke="#0034ff"/><path transform="matrix(.035263 0 0 .035293 -22.021 267.67)" d="m1655-2867.5v-2014" stroke="#003aff"/><path transform="matrix(.035263 0 0 .035293 -22.021 267.67)" d="m1665.6-2867.5v-2149.2" stroke="#0040ff"/><path transform="matrix(.035263 0 0 .035293 -22.021 267.67)" d="m1676.3-2867.5v-2256.4" stroke="#0046ff"/><path transform="matrix(.035263 0 0 .035293 -22.021 267.67)" d="m1686.9-2867.5v-2290.1" stroke="#004bff"/><path transform="matrix(.035263 0 0 .035293 -22.021 267.67)" d="m1697.6-2867.5v-2270.2" stroke="#0051ff"/><path transform="matrix(.035263 0 0 .035293 -22.021 267.67)" d="m1708.2-2867.5v-2191.8" stroke="#0056ff"/><path transform="matrix(.035263 0 0 .035293 -22.021 267.67)" d="m1718.9-2867.5v-2051.6" stroke="#005cff"/><path transform="matrix(.035263 0 0 .035293 -22.021 267.67)" d="m1729.5-2867.5v-1881.4" stroke="#0061ff"/><path transform="matrix(.035263 0 0 .035293 -22.021 267.67)" d="m1740.2-2867.5v-1696.1" stroke="#06f"/><path transform="matrix(.035263 0 0 .035293 -22.021 267.67)" d="m1750.8-2867.5v-1503.6" stroke="#006bff"/><path transform="matrix(.035263 0 0 .035293 -22.021 267.67)" d="m1761.5-2867.5v-1344.2" stroke="#0070ff"/><path transform="matrix(.035263 0 0 .035293 -22.021 267.67)" d="m1772.1-2867.5v-1199.8" stroke="#0075ff"/><path transform="matrix(.035263 0 0 .035293 -22.021 267.67)" d="m1782.8-2867.5v-1086.4" stroke="#007aff"/><path transform="matrix(.035263 0 0 .035293 -22.021 267.67)" d="m1793.4-2867.5v-992.37" stroke="#007fff"/><path transform="matrix(.035263 0 0 .035293 -22.021 267.67)" d="m1804.1-2867.5v-926.48" stroke="#0084ff"/><path transform="matrix(.035263 0 0 .035293 -22.021 267.67)" d="m1814.7-2867.5v-867.85" stroke="#0089ff"/><path transform="matrix(.035263 0 0 .035293 -22.021 267.67)" d="m1825.4-2867.5v-826.8" stroke="#008dff"/><path transform="matrix(.035263 0 0 .035293 -22.021 267.67)" d="m1836-2867.5v-784.45" stroke="#0092ff"/><path transform="matrix(.035263 0 0 .035293 -22.021 267.67)" d="m1846.6-2867.5v-743.57" stroke="#0097ff"/><path transform="matrix(.035263 0 0 .035293 -22.021 267.67)" d="m1857.3-2867.5v-698.62" stroke="#009bff"/><path transform="matrix(.035263 0 0 .035293 -22.021 267.67)" d="m1868-2867.5v-652.03" stroke="#00a0ff"/><path transform="matrix(.035263 0 0 .035293 -22.021 267.67)" d="m1878.6-2867.5v-598.05" stroke="#00a4ff"/><path transform="matrix(.035263 0 0 .035293 -22.021 267.67)" d="m1889.2-2867.5v-547.92" stroke="#00a9ff"/><path transform="matrix(.035263 0 0 .035293 -22.021 267.67)" d="m1899.9-2867.5v-496.93" stroke="#00adff"/><path transform="matrix(.035263 0 0 .035293 -22.021 267.67)" d="m1910.5-2867.5v-450.34" stroke="#00b2ff"/><path transform="matrix(.035263 0 0 .035293 -22.021 267.67)" d="m1921.2-2867.5v-405" stroke="#00b6ff"/><path transform="matrix(.035263 0 0 .035293 -22.021 267.67)" d="m1931.8-2867.5v-366.78" stroke="#0bf"/><path transform="matrix(.035263 0 0 .035293 -22.021 267.67)" d="m1942.5-2867.5v-334.27" stroke="#00bfff"/><path transform="matrix(.035263 0 0 .035293 -22.021 267.67)" d="m1953.1-2867.5v-308.09" stroke="#00c4ff"/><path transform="matrix(.035263 0 0 .035293 -22.021 267.67)" d="m1963.8-2867.5v-287.21" stroke="#00c8ff"/><path transform="matrix(.035263 0 0 .035293 -22.021 267.67)" d="m1974.4-2867.5v-267.94" stroke="#0cf"/><path transform="matrix(.035263 0 0 .035293 -22.021 267.67)" d="m1985.1-2867.5v-254.02" stroke="#00d1ff"/><path transform="matrix(.035263 0 0 .035293 -22.021 267.67)" d="m1995.7-2867.5v-245.57" stroke="#00d5ff"/><path transform="matrix(.035263 0 0 .035293 -22.021 267.67)" d="m2006.4-2867.5v-238.42" stroke="#00d9ff"/><path transform="matrix(.035263 0 0 .035293 -22.021 267.67)" d="m2017-2867.5v-229.53" stroke="#0df"/><path transform="matrix(.035263 0 0 .035293 -22.021 267.67)" d="m2027.7-2867.5v-223.24" stroke="#00e2ff"/><path transform="matrix(.035263 0 0 .035293 -22.021 267.67)" d="m2038.3-2867.5v-215.73" stroke="#00e6ff"/><path transform="matrix(.035263 0 0 .035293 -22.021 267.67)" d="m2049-2867.5v-209.67" stroke="#00eaff"/><path transform="matrix(.035263 0 0 .035293 -22.021 267.67)" d="m2059.6-2867.5v-203.46" stroke="#0ef"/><path transform="matrix(.035263 0 0 .035293 -22.021 267.67)" d="m2070.3-2867.5v-200.08" stroke="#00f2ff"/><path transform="matrix(.035263 0 0 .035293 -22.021 267.67)" d="m2080.9-2867.5v-196.54" stroke="#00f6ff"/><path transform="matrix(.035263 0 0 .035293 -22.021 267.67)" d="m2091.6-2867.5v-193.4" stroke="#00faff"/><path transform="matrix(.035263 0 0 .035293 -22.021 267.67)" d="m2102.2-2867.5v-190.49" stroke="#0ff"/><path transform="matrix(.035263 0 0 .035293 -22.021 267.67)" d="m2112.8-2867.5v-192.26" stroke="#00fff4"/><path transform="matrix(.035263 0 0 .035293 -22.021 267.67)" d="m2123.5-2867.5v-192.69" stroke="#00ffea"/><path transform="matrix(.035263 0 0 .035293 -22.021 267.67)" d="m2134.2-2867.5v-195.21" stroke="#00ffdf"/><path transform="matrix(.035263 0 0 .035293 -22.021 267.67)" d="m2144.8-2867.5v-200.86" stroke="#00ffd5"/><path transform="matrix(.035263 0 0 .035293 -22.021 267.67)" d="m2155.4-2867.5v-205.89" stroke="#00ffca"/><path transform="matrix(.035263 0 0 .035293 -22.021 267.67)" d="m2166.1-2867.5v-213.2" stroke="#00ffbf"/><path transform="matrix(.035263 0 0 .035293 -22.021 267.67)" d="m2176.7-2867.5v-220.88" stroke="#00ffb4"/><path transform="matrix(.035263 0 0 .035293 -22.021 267.67)" d="m2187.4-2867.5v-229.13" stroke="#00ffa9"/><path transform="matrix(.035263 0 0 .035293 -22.021 267.67)" d="m2198-2867.5v-237.95" stroke="#00ff9e"/><path transform="matrix(.035263 0 0 .035293 -22.021 267.67)" d="m2208.7-2867.5v-247.61" stroke="#00ff92"/><path transform="matrix(.035263 0 0 .035293 -22.021 267.67)" d="m2219.3-2867.5v-256.9" stroke="#00ff86"/><path transform="matrix(.035263 0 0 .035293 -22.021 267.67)" d="m2230-2867.5v-266.49" stroke="#00ff7a"/><path transform="matrix(.035263 0 0 .035293 -22.021 267.67)" d="m2240.6-2867.5v-275.88" stroke="#00ff6e"/><path transform="matrix(.035263 0 0 .035293 -22.021 267.67)" d="m2251.3-2867.5v-289.14" stroke="#00ff61"/><path transform="matrix(.035263 0 0 .035293 -22.021 267.67)" d="m2261.9-2867.5v-298.45" stroke="#00ff54"/><path transform="matrix(.035263 0 0 .035293 -22.021 267.67)" d="m2272.6-2867.5v-309.7" stroke="#00ff46"/><path transform="matrix(.035263 0 0 .035293 -22.021 267.67)" d="m2283.2-2867.5v-320.23" stroke="#00ff37"/><path transform="matrix(.035263 0 0 .035293 -22.021 267.67)" d="m2293.9-2867.5v-332.58" stroke="#00ff28"/><path transform="matrix(.035263 0 0 .035293 -22.021 267.67)" d="m2304.5-2867.5v-343.23" stroke="#00ff17"/><path transform="matrix(.035263 0 0 .035293 -22.021 267.67)" d="m2315.2-2867.5v-352.05" stroke="#0f0"/><path transform="matrix(.035263 0 0 .035293 -22.021 267.67)" d="m2325.8-2867.5v-364.62" stroke="#08ff00"/><path transform="matrix(.035263 0 0 .035293 -22.021 267.67)" d="m2336.5-2867.5v-377.21" stroke="#0eff00"/><path transform="matrix(.035263 0 0 .035293 -22.021 267.67)" d="m2347.1-2867.5v-386.88" stroke="#14ff00"/><path transform="matrix(.035263 0 0 .035293 -22.021 267.67)" d="m2357.8-2867.5v-398.21" stroke="#19ff00"/><path transform="matrix(.035263 0 0 .035293 -22.021 267.67)" d="m2368.4-2867.5v-408.62" stroke="#1eff00"/><path transform="matrix(.035263 0 0 .035293 -22.021 267.67)" d="m2379.1-2867.5v-417.85" stroke="#23ff00"/><path transform="matrix(.035263 0 0 .035293 -22.021 267.67)" d="m2389.7-2867.5v-429.3" stroke="#28ff00"/><path transform="matrix(.035263 0 0 .035293 -22.021 267.67)" d="m2400.4-2867.5v-437.75" stroke="#2cff00"/><path transform="matrix(.035263 0 0 .035293 -22.021 267.67)" d="m2411-2867.5v-448.29" stroke="#31ff00"/><path transform="matrix(.035263 0 0 .035293 -22.021 267.67)" d="m2421.6-2867.5v-458.63" stroke="#35ff00"/><path transform="matrix(.035263 0 0 .035293 -22.021 267.67)" d="m2432.3-2867.5v-465.9" stroke="#3aff00"/><path transform="matrix(.035263 0 0 .035293 -22.021 267.67)" d="m2442.9-2867.5v-475.27" stroke="#3eff00"/><path transform="matrix(.035263 0 0 .035293 -22.021 267.67)" d="m2453.6-2867.5v-482.81" stroke="#42ff00"/><path transform="matrix(.035263 0 0 .035293 -22.021 267.67)" d="m2464.2-2867.5v-490.17" stroke="#46ff00"/><path transform="matrix(.035263 0 0 .035293 -22.021 267.67)" d="m2474.9-2867.5v-499.17" stroke="#4aff00"/><path transform="matrix(.035263 0 0 .035293 -22.021 267.67)" d="m2485.5-2867.5v-507.07" stroke="#4eff00"/><path transform="matrix(.035263 0 0 .035293 -22.021 267.67)" d="m2496.2-2867.5v-514.66" stroke="#52ff00"/><path transform="matrix(.035263 0 0 .035293 -22.021 267.67)" d="m2506.8-2867.5v-520.33" stroke="#56ff00"/><path transform="matrix(.035263 0 0 .035293 -22.021 267.67)" d="m2517.5-2867.5v-526.73" stroke="#59ff00"/><path transform="matrix(.035263 0 0 .035293 -22.021 267.67)" d="m2528.1-2867.5v-533.7" stroke="#5dff00"/><path transform="matrix(.035263 0 0 .035293 -22.021 267.67)" d="m2538.8-2867.5v-540.69" stroke="#61ff00"/><path transform="matrix(.035263 0 0 .035293 -22.021 267.67)" d="m2549.4-2867.5v-546.86" stroke="#65ff00"/><path transform="matrix(.035263 0 0 .035293 -22.021 267.67)" d="m2560.1-2867.5v-554.01" stroke="#68ff00"/><path transform="matrix(.035263 0 0 .035293 -22.021 267.67)" d="m2570.7-2867.5v-559.13" stroke="#6cff00"/><path transform="matrix(.035263 0 0 .035293 -22.021 267.67)" d="m2581.4-2867.5v-564.76" stroke="#6fff00"/><path transform="matrix(.035263 0 0 .035293 -22.021 267.67)" d="m2592-2867.5v-570.73" stroke="#73ff00"/><path transform="matrix(.035263 0 0 .035293 -22.021 267.67)" d="m2602.7-2867.5v-576.07" stroke="#7f0"/><path transform="matrix(.035263 0 0 .035293 -22.021 267.67)" d="m2613.3-2867.5v-580.32" stroke="#7aff00"/><path transform="matrix(.035263 0 0 .035293 -22.021 267.67)" d="m2624-2867.5v-587.16" stroke="#7eff00"/><path transform="matrix(.035263 0 0 .035293 -22.021 267.67)" d="m2634.6-2867.5v-592.28" stroke="#81ff00"/><path transform="matrix(.035263 0 0 .035293 -22.021 267.67)" d="m2645.3-2867.5v-597.62" stroke="#84ff00"/><path transform="matrix(.035263 0 0 .035293 -22.021 267.67)" d="m2655.9-2867.5v-603.63" stroke="#8f0"/><path transform="matrix(.035263 0 0 .035293 -22.021 267.67)" d="m2666.6-2867.5v-610.52" stroke="#8bff00"/><path transform="matrix(.035263 0 0 .035293 -22.021 267.67)" d="m2677.2-2867.5v-617.91" stroke="#8fff00"/><path transform="matrix(.035263 0 0 .035293 -22.021 267.67)" d="m2687.8-2867.5v-624" stroke="#92ff00"/><path transform="matrix(.035263 0 0 .035293 -22.021 267.67)" d="m2698.5-2867.5v-628.72" stroke="#95ff00"/><path transform="matrix(.035263 0 0 .035293 -22.021 267.67)" d="m2709.2-2867.5v-638.63" stroke="#9f0"/><path transform="matrix(.035263 0 0 .035293 -22.021 267.67)" d="m2719.8-2867.5v-644.49" stroke="#9cff00"/><path transform="matrix(.035263 0 0 .035293 -22.021 267.67)" d="m2730.4-2867.5v-655.82" stroke="#9fff00"/><path transform="matrix(.035263 0 0 .035293 -22.021 267.67)" d="m2741.1-2867.5v-661.63" stroke="#a2ff00"/><path transform="matrix(.035263 0 0 .035293 -22.021 267.67)" d="m2751.7-2867.5v-673.03" stroke="#a6ff00"/><path transform="matrix(.035263 0 0 .035293 -22.021 267.67)" d="m2762.4-2867.5v-681.45" stroke="#a9ff00"/><path transform="matrix(.035263 0 0 .035293 -22.021 267.67)" d="m2773-2867.5v-690.57" stroke="#acff00"/><path transform="matrix(.035263 0 0 .035293 -22.021 267.67)" d="m2783.7-2867.5v-700.8" stroke="#afff00"/><path transform="matrix(.035263 0 0 .035293 -22.021 267.67)" d="m2794.3-2867.5v-710.07" stroke="#b3ff00"/><path transform="matrix(.035263 0 0 .035293 -22.021 267.67)" d="m2805-2867.5v-722.22" stroke="#b6ff00"/><path transform="matrix(.035263 0 0 .035293 -22.021 267.67)" d="m2815.6-2867.5v-733.38" stroke="#b9ff00"/><path transform="matrix(.035263 0 0 .035293 -22.021 267.67)" d="m2826.3-2867.5v-743.21" stroke="#bcff00"/><path transform="matrix(.035263 0 0 .035293 -22.021 267.67)" d="m2836.9-2867.5v-756.19" stroke="#bfff00"/><path transform="matrix(.035263 0 0 .035293 -22.021 267.67)" d="m2847.6-2867.5v-770.11" stroke="#c2ff00"/><path transform="matrix(.035263 0 0 .035293 -22.021 267.67)" d="m2858.2-2867.5v-782.88" stroke="#c5ff00"/><path transform="matrix(.035263 0 0 .035293 -22.021 267.67)" d="m2868.9-2867.5v-795.63" stroke="#c9ff00"/><path transform="matrix(.035263 0 0 .035293 -22.021 267.67)" d="m2879.5-2867.5v-807.15" stroke="#cf0"/><path transform="matrix(.035263 0 0 .035293 -22.021 267.67)" d="m2890.2-2867.5v-823.82" stroke="#cfff00"/><path transform="matrix(.035263 0 0 .035293 -22.021 267.67)" d="m2900.8-2867.5v-837.42" stroke="#d2ff00"/><path transform="matrix(.035263 0 0 .035293 -22.021 267.67)" d="m2911.5-2867.5v-853.11" stroke="#d5ff00"/><path transform="matrix(.035263 0 0 .035293 -22.021 267.67)" d="m2922.1-2867.5v-866.71" stroke="#d8ff00"/><path transform="matrix(.035263 0 0 .035293 -22.021 267.67)" d="m2932.8-2867.5v-882.4" stroke="#dbff00"/><path transform="matrix(.035263 0 0 .035293 -22.021 267.67)" d="m2943.4-2867.5v-898.12" stroke="#deff00"/><path transform="matrix(.035263 0 0 .035293 -22.021 267.67)" d="m2954-2867.5v-915.27" stroke="#e1ff00"/><path transform="matrix(.035263 0 0 .035293 -22.021 267.67)" d="m2964.7-2867.5v-929.9" stroke="#e4ff00"/><path transform="matrix(.035263 0 0 .035293 -22.021 267.67)" d="m2975.4-2867.5v-944.87" stroke="#e7ff00"/><path transform="matrix(.035263 0 0 .035293 -22.021 267.67)" d="m2986-2867.5v-962.25" stroke="#eaff00"/><path transform="matrix(.035263 0 0 .035293 -22.021 267.67)" d="m2996.6-2867.5v-976.49" stroke="#edff00"/><path transform="matrix(.035263 0 0 .035293 -22.021 267.67)" d="m3007.3-2867.5v-994.57" stroke="#f0ff00"/><path transform="matrix(.035263 0 0 .035293 -22.021 267.67)" d="m3018-2867.5v-1013.1" stroke="#f3ff00"/><path transform="matrix(.035263 0 0 .035293 -22.021 267.67)" d="m3028.6-2867.5v-1027.4" stroke="#f6ff00"/><path transform="matrix(.035263 0 0 .035293 -22.021 267.67)" d="m3039.2-2867.5v-1046.4" stroke="#f9ff00"/><path transform="matrix(.035263 0 0 .035293 -22.021 267.67)" d="m3049.9-2867.5v-1059.3" stroke="#fcff00"/><path transform="matrix(.035263 0 0 .035293 -22.021 267.67)" d="m3060.5-2867.5v-1074.9" stroke="#ff0"/><path transform="matrix(.035263 0 0 .035293 -22.021 267.67)" d="m3071.2-2867.5v-1089.2" stroke="#fffb00"/><path transform="matrix(.035263 0 0 .035293 -22.021 267.67)" d="m3081.8-2867.5v-1105.8" stroke="#fff800"/><path transform="matrix(.035263 0 0 .035293 -22.021 267.67)" d="m3092.5-2867.5v-1122.1" stroke="#fff500"/><path transform="matrix(.035263 0 0 .035293 -22.021 267.67)" d="m3103.1-2867.5v-1135.4" stroke="#fff200"/><path transform="matrix(.035263 0 0 .035293 -22.021 267.67)" d="m3113.8-2867.5v-1149.7" stroke="#ffef00"/><path transform="matrix(.035263 0 0 .035293 -22.021 267.67)" d="m3124.4-2867.5v-1164" stroke="#ffeb00"/><path transform="matrix(.035263 0 0 .035293 -22.021 267.67)" d="m3135.1-2867.5v-1175.2" stroke="#ffe800"/><path transform="matrix(.035263 0 0 .035293 -22.021 267.67)" d="m3145.7-2867.5v-1189.2" stroke="#ffe500"/><path transform="matrix(.035263 0 0 .035293 -22.021 267.67)" d="m3156.4-2867.5v-1199.5" stroke="#ffe200"/><path transform="matrix(.035263 0 0 .035293 -22.021 267.67)" d="m3167-2867.5v-1210.5" stroke="#ffdf00"/><path transform="matrix(.035263 0 0 .035293 -22.021 267.67)" d="m3177.7-2867.5v-1225.1" stroke="#ffdb00"/><path transform="matrix(.035263 0 0 .035293 -22.021 267.67)" d="m3188.3-2867.5v-1234.2" stroke="#ffd800"/><path transform="matrix(.035263 0 0 .035293 -22.021 267.67)" d="m3199-2867.5v-1244.4" stroke="#ffd500"/><path transform="matrix(.035263 0 0 .035293 -22.021 267.67)" d="m3209.6-2867.5v-1252.7" stroke="#ffd200"/><path transform="matrix(.035263 0 0 .035293 -22.021 267.67)" d="m3220.3-2867.5v-1263" stroke="#ffce00"/><path transform="matrix(.035263 0 0 .035293 -22.021 267.67)" d="m3230.9-2867.5v-1273.3" stroke="#ffcb00"/><path transform="matrix(.035263 0 0 .035293 -22.021 267.67)" d="m3241.6-2867.5v-1279" stroke="#ffc800"/><path transform="matrix(.035263 0 0 .035293 -22.021 267.67)" d="m3252.2-2867.5v-1283.9" stroke="#ffc400"/><path transform="matrix(.035263 0 0 .035293 -22.021 267.67)" d="m3262.9-2867.5v-1287.6" stroke="#ffc100"/><path transform="matrix(.035263 0 0 .035293 -22.021 267.67)" d="m3273.5-2867.5v-1299.1" stroke="#ffbe00"/><path transform="matrix(.035263 0 0 .035293 -22.021 267.67)" d="m3284.2-2867.5v-1302.5" stroke="#ffba00"/><path transform="matrix(.035263 0 0 .035293 -22.021 267.67)" d="m3294.8-2867.5v-1306.6" stroke="#ffb700"/><path transform="matrix(.035263 0 0 .035293 -22.021 267.67)" d="m3305.4-2867.5v-1308.6" stroke="#ffb300"/><path transform="matrix(.035263 0 0 .035293 -22.021 267.67)" d="m3316.1-2867.5v-1312" stroke="#ffb000"/><path transform="matrix(.035263 0 0 .035293 -22.021 267.67)" d="m3326.7-2867.5v-1316.2" stroke="#ffac00"/><path transform="matrix(.035263 0 0 .035293 -22.021 267.67)" d="m3337.4-2867.5v-1319.2" stroke="#ffa900"/><path transform="matrix(.035263 0 0 .035293 -22.021 267.67)" d="m3348-2867.5v-1318.4" stroke="#ffa500"/><path transform="matrix(.035263 0 0 .035293 -22.021 267.67)" d="m3358.7-2867.5v-1318.2" stroke="#ffa200"/><path transform="matrix(.035263 0 0 .035293 -22.021 267.67)" d="m3369.3-2867.5v-1316.9" stroke="#ff9e00"/><path transform="matrix(.035263 0 0 .035293 -22.021 267.67)" d="m3380-2867.5v-1314" stroke="#ff9b00"/><path transform="matrix(.035263 0 0 .035293 -22.021 267.67)" d="m3390.6-2867.5v-1312.4" stroke="#ff9700"/><path transform="matrix(.035263 0 0 .035293 -22.021 267.67)" d="m3401.3-2867.5v-1309.8" stroke="#ff9400"/><path transform="matrix(.035263 0 0 .035293 -22.021 267.67)" d="m3411.9-2867.5v-1312.8" stroke="#ff9000"/><path transform="matrix(.035263 0 0 .035293 -22.021 267.67)" d="m3422.6-2867.5v-1307.7" stroke="#ff8d00"/><path transform="matrix(.035263 0 0 .035293 -22.021 267.67)" d="m3433.2-2867.5v-1304.2" stroke="#ff8900"/><path transform="matrix(.035263 0 0 .035293 -22.021 267.67)" d="m3443.9-2867.5v-1295.2" stroke="#ff8500"/><path transform="matrix(.035263 0 0 .035293 -22.021 267.67)" d="m3454.5-2867.5v-1288.5" stroke="#ff8100"/><path transform="matrix(.035263 0 0 .035293 -22.021 267.67)" d="m3465.2-2867.5v-1282.8" stroke="#ff7e00"/><path transform="matrix(.035263 0 0 .035293 -22.021 267.67)" d="m3475.8-2867.5v-1276.9" stroke="#ff7a00"/><path transform="matrix(.035263 0 0 .035293 -22.021 267.67)" d="m3486.5-2867.5v-1268.7" stroke="#ff7600"/><path transform="matrix(.035263 0 0 .035293 -22.021 267.67)" d="m3497.1-2867.5v-1259.1" stroke="#ff7200"/><path transform="matrix(.035263 0 0 .035293 -22.021 267.67)" d="m3507.8-2867.5v-1251.5" stroke="#ff6f00"/><path transform="matrix(.035263 0 0 .035293 -22.021 267.67)" d="m3518.4-2867.5v-1239.2" stroke="#ff6b00"/><path transform="matrix(.035263 0 0 .035293 -22.021 267.67)" d="m3529.1-2867.5v-1230.3" stroke="#ff6700"/><path transform="matrix(.035263 0 0 .035293 -22.021 267.67)" d="m3539.7-2867.5v-1219.2" stroke="#ff6300"/><path transform="matrix(.035263 0 0 .035293 -22.021 267.67)" d="m3550.4-2867.5v-1211.2" stroke="#ff5f00"/><path transform="matrix(.035263 0 0 .035293 -22.021 267.67)" d="m3561-2867.5v-1196.3" stroke="#ff5b00"/><path transform="matrix(.035263 0 0 .035293 -22.021 267.67)" d="m3571.6-2867.5v-1183.4" stroke="#ff5700"/><path transform="matrix(.035263 0 0 .035293 -22.021 267.67)" d="m3582.3-2867.5v-1170.4" stroke="#ff5300"/><path transform="matrix(.035263 0 0 .035293 -22.021 267.67)" d="m3593-2867.5v-1157.4" stroke="#ff4e00"/><path transform="matrix(.035263 0 0 .035293 -22.021 267.67)" d="m3603.6-2867.5v-1144.3" stroke="#ff4a00"/><path transform="matrix(.035263 0 0 .035293 -22.021 267.67)" d="m3614.2-2867.5v-1132.4" stroke="#ff4600"/><path transform="matrix(.035263 0 0 .035293 -22.021 267.67)" d="m3624.9-2867.5v-1117.3" stroke="#ff4200"/><path transform="matrix(.035263 0 0 .035293 -22.021 267.67)" d="m3635.5-2867.5v-1102.5" stroke="#ff3d00"/><path transform="matrix(.035263 0 0 .035293 -22.021 267.67)" d="m3646.2-2867.5v-1088.4" stroke="#ff3900"/><path transform="matrix(.035263 0 0 .035293 -22.021 267.67)" d="m3656.8-2867.5v-1073.8" stroke="#ff3400"/><path transform="matrix(.035263 0 0 .035293 -22.021 267.67)" d="m3667.5-2867.5v-1060.3" stroke="#ff2f00"/><path transform="matrix(.035263 0 0 .035293 -22.021 267.67)" d="m3678.1-2867.5v-1042.4" stroke="#ff2a00"/><path transform="matrix(.035263 0 0 .035293 -22.021 267.67)" d="m3688.8-2867.5v-1025.9" stroke="#ff2500"/><path transform="matrix(.035263 0 0 .035293 -22.021 267.67)" d="m3699.4-2867.5v-1008.8" stroke="#ff2000"/><path transform="matrix(.035263 0 0 .035293 -22.021 267.67)" d="m3710.1-2867.5v-994.06" stroke="#ff1b00"/><path transform="matrix(.035263 0 0 .035293 -22.021 267.67)" d="m3720.7-2867.5v-979.28" stroke="#ff1500"/><path transform="matrix(.035263 0 0 .035293 -22.021 267.67)" d="m3731.4-2867.5v-960.17" stroke="#ff0f00"/><path transform="matrix(.035263 0 0 .035293 -22.021 267.67)" d="m3742-2867.5v-942.91" stroke="#ff0900"/><g stroke="#f00"><path transform="matrix(.035263 0 0 .035293 -22.021 267.67)" d="m3752.7-2867.5v-930.65"/><path transform="matrix(.035263 0 0 .035293 -22.021 267.67)" d="m3763.3-2867.5v-911.58"/><path transform="matrix(.035263 0 0 .035293 -22.021 267.67)" d="m3774-2867.5v-894.28"/><path transform="matrix(.035263 0 0 .035293 -22.021 267.67)" d="m3784.6-2867.5v-878.95"/><path transform="matrix(.035263 0 0 .035293 -22.021 267.67)" d="m3795.3-2867.5v-863.02"/><path transform="matrix(.035263 0 0 .035293 -22.021 267.67)" d="m3805.9-2867.5v-844.03"/><path transform="matrix(.035263 0 0 .035293 -22.021 267.67)" d="m3816.6-2867.5v-827.39"/><path transform="matrix(.035263 0 0 .035293 -22.021 267.67)" d="m3827.2-2867.5v-810.8"/><path transform="matrix(.035263 0 0 .035293 -22.021 267.67)" d="m3837.8-2867.5v-796.06"/><path transform="matrix(.035263 0 0 .035293 -22.021 267.67)" d="m3848.5-2867.5v-780.21"/><path transform="matrix(.035263 0 0 .035293 -22.021 267.67)" d="m3859.2-2867.5v-759.45"/><path transform="matrix(.035263 0 0 .035293 -22.021 267.67)" d="m3869.8-2867.5v-744.87"/><path transform="matrix(.035263 0 0 .035293 -22.021 267.67)" d="m3880.4-2867.5v-730.87"/><path transform="matrix(.035263 0 0 .035293 -22.021 267.67)" d="m3891.1-2867.5v-714.75"/><path transform="matrix(.035263 0 0 .035293 -22.021 267.67)" d="m3901.7-2867.5v-701.74"/><path transform="matrix(.035263 0 0 .035293 -22.021 267.67)" d="m3912.4-2867.5v-681.45"/><path transform="matrix(.035263 0 0 .035293 -22.021 267.67)" d="m3923-2867.5v-669.69"/><path transform="matrix(.035263 0 0 .035293 -22.021 267.67)" d="m3933.7-2867.5v-654.2"/><path transform="matrix(.035263 0 0 .035293 -22.021 267.67)" d="m3944.3-2867.5v-637.49"/><path transform="matrix(.035263 0 0 .035293 -22.021 267.67)" d="m3955-2867.5v-618.74"/><path transform="matrix(.035263 0 0 .035293 -22.021 267.67)" d="m3965.6-2867.5v-603.92"/><path transform="matrix(.035263 0 0 .035293 -22.021 267.67)" d="m3976.3-2867.5v-590.82"/><path transform="matrix(.035263 0 0 .035293 -22.021 267.67)" d="m3986.9-2867.5v-577.29"/><path transform="matrix(.035263 0 0 .035293 -22.021 267.67)" d="m3997.6-2867.5v-563.07"/><path transform="matrix(.035263 0 0 .035293 -22.021 267.67)" d="m4008.2-2867.5v-552.52"/><path transform="matrix(.035263 0 0 .035293 -22.021 267.67)" d="m4018.9-2867.5v-533.93"/><path transform="matrix(.035263 0 0 .035293 -22.021 267.67)" d="m4029.5-2867.5v-519.07"/><path transform="matrix(.035263 0 0 .035293 -22.021 267.67)" d="m4040.2-2867.5v-506.64"/><path transform="matrix(.035263 0 0 .035293 -22.021 267.67)" d="m4050.8-2867.5v-497.05"/><path transform="matrix(.035263 0 0 .035293 -22.021 267.67)" d="m4061.5-2867.5v-483.56"/><path transform="matrix(.035263 0 0 .035293 -22.021 267.67)" d="m4072.1-2867.5v-470.71"/><path transform="matrix(.035263 0 0 .035293 -22.021 267.67)" d="m4082.8-2867.5v-457.92"/><path transform="matrix(.035263 0 0 .035293 -22.021 267.67)" d="m4093.4-2867.5v-445.7"/><path transform="matrix(.035263 0 0 .035293 -22.021 267.67)" d="m4104.1-2867.5v-433.98"/><path transform="matrix(.035263 0 0 .035293 -22.021 267.67)" d="m4114.7-2867.5v-420.22"/><path transform="matrix(.035263 0 0 .035293 -22.021 267.67)" d="m4125.4-2867.5v-413.61"/><path transform="matrix(.035263 0 0 .035293 -22.021 267.67)" d="m4136-2867.5v-402.37"/><path transform="matrix(.035263 0 0 .035293 -22.021 267.67)" d="m4146.7-2867.5v-391.79"/><path transform="matrix(.035263 0 0 .035293 -22.021 267.67)" d="m4157.3-2867.5v-376.38"/><path transform="matrix(.035263 0 0 .035293 -22.021 267.67)" d="m4167.9-2867.5v-372.73"/><path transform="matrix(.035263 0 0 .035293 -22.021 267.67)" d="m4178.6-2867.5v-361.13"/><path transform="matrix(.035263 0 0 .035293 -22.021 267.67)" d="m4189.2-2867.5v-348.78"/><path transform="matrix(.035263 0 0 .035293 -22.021 267.67)" d="m4199.9-2867.5v-339.58"/><path transform="matrix(.035263 0 0 .035293 -22.021 267.67)" d="m4210.5-2867.5v-329.95"/><path transform="matrix(.035263 0 0 .035293 -22.021 267.67)" d="m4221.2-2867.5v-322.67"/><path transform="matrix(.035263 0 0 .035293 -22.021 267.67)" d="m4231.8-2867.5v-314.42"/><path transform="matrix(.035263 0 0 .035293 -22.021 267.67)" d="m4242.5-2867.5v-304.43"/><path transform="matrix(.035263 0 0 .035293 -22.021 267.67)" d="m4253.1-2867.5v-292.71"/><path transform="matrix(.035263 0 0 .035293 -22.021 267.67)" d="m4263.8-2867.5v-285.95"/><path transform="matrix(.035263 0 0 .035293 -22.021 267.67)" d="m4274.4-2867.5v-277.69"/><path transform="matrix(.035263 0 0 .035293 -22.021 267.67)" d="m4285.1-2867.5v-270.81"/><path transform="matrix(.035263 0 0 .035293 -22.021 267.67)" d="m4295.7-2867.5v-260.75"/><path transform="matrix(.035263 0 0 .035293 -22.021 267.67)" d="m4306.4-2867.5v-252.88"/><path transform="matrix(.035263 0 0 .035293 -22.021 267.67)" d="m4317-2867.5v-245.85"/><path transform="matrix(.035263 0 0 .035293 -22.021 267.67)" d="m4327.7-2867.5v-241.36"/><path transform="matrix(.035263 0 0 .035293 -22.021 267.67)" d="m4338.3-2867.5v-231.76"/></g><path transform="matrix(.035263 0 0 .035293 -22.021 267.67)" d="m4349-2867.5v-225.04" stroke="#fd0000"/><path transform="matrix(.035263 0 0 .035293 -22.021 267.67)" d="m4359.6-2867.5v-217.11" stroke="#fc0000"/><path transform="matrix(.035263 0 0 .035293 -22.021 267.67)" d="m4370.3-2867.5v-209.64" stroke="#fa0000"/><path transform="matrix(.035263 0 0 .035293 -22.021 267.67)" d="m4380.9-2867.5v-202.83" stroke="#f90000"/><path transform="matrix(.035263 0 0 .035293 -22.021 267.67)" d="m4391.6-2867.5v-197.95" stroke="#f70000"/><path transform="matrix(.035263 0 0 .035293 -22.021 267.67)" d="m4402.2-2867.5v-192.77" stroke="#f60000"/><path transform="matrix(.035263 0 0 .035293 -22.021 267.67)" d="m4412.9-2867.5v-184.28" stroke="#f40000"/><path transform="matrix(.035263 0 0 .035293 -22.021 267.67)" d="m4423.5-2867.5v-181.68" stroke="#f30000"/><path transform="matrix(.035263 0 0 .035293 -22.021 267.67)" d="m4434.2-2867.5v-172.64" stroke="#f20000"/><path transform="matrix(.035263 0 0 .035293 -22.021 267.67)" d="m4444.8-2867.5v-167.2" stroke="#f00000"/><path transform="matrix(.035263 0 0 .035293 -22.021 267.67)" d="m4455.4-2867.5v-164.23" stroke="#ef0000"/><path transform="matrix(.035263 0 0 .035293 -22.021 267.67)" d="m4466.1-2867.5v-157.07" stroke="#ed0000"/><path transform="matrix(.035263 0 0 .035293 -22.021 267.67)" d="m4476.8-2867.5v-157.53" stroke="#ec0000"/><path transform="matrix(.035263 0 0 .035293 -22.021 267.67)" d="m4487.4-2867.5v-144.14" stroke="#ea0000"/><path transform="matrix(.035263 0 0 .035293 -22.021 267.67)" d="m4498-2867.5v-143.57" stroke="#e90000"/><path transform="matrix(.035263 0 0 .035293 -22.021 267.67)" d="m4508.7-2867.5v-138.9" stroke="#e70000"/><path transform="matrix(.035263 0 0 .035293 -22.021 267.67)" d="m4519.3-2867.5v-134.5" stroke="#e60000"/><path transform="matrix(.035263 0 0 .035293 -22.021 267.67)" d="m4530-2867.5v-131.7" stroke="#e40000"/><path transform="matrix(.035263 0 0 .035293 -22.021 267.67)" d="m4540.6-2867.5v-126.91" stroke="#e30000"/><path transform="matrix(.035263 0 0 .035293 -22.021 267.67)" d="m4551.3-2867.5v-121.02" stroke="#e20000"/><path transform="matrix(.035263 0 0 .035293 -22.021 267.67)" d="m4561.9-2867.5v-119.67" stroke="#e00000"/><path transform="matrix(.035263 0 0 .035293 -22.021 267.67)" d="m4572.6-2867.5v-118.85" stroke="#df0000"/><path transform="matrix(.035263 0 0 .035293 -22.021 267.67)" d="m4583.2-2867.5v-108.63" stroke="#d00"/><path transform="matrix(.035263 0 0 .035293 -22.021 267.67)" d="m4593.9-2867.5v-107.29" stroke="#dc0000"/><path transform="matrix(.035263 0 0 .035293 -22.021 267.67)" d="m4604.5-2867.5v-103.48" stroke="#da0000"/><path transform="matrix(.035263 0 0 .035293 -22.021 267.67)" d="m4615.2-2867.5v-102.61" stroke="#d90000"/><path transform="matrix(.035263 0 0 .035293 -22.021 267.67)" d="m4625.8-2867.5v-99.75" stroke="#d70000"/><path transform="matrix(.035263 0 0 .035293 -22.021 267.67)" d="m4636.5-2867.5v-95.61" stroke="#d60000"/><path transform="matrix(.035263 0 0 .035293 -22.021 267.67)" d="m4647.1-2867.5v-93.42" stroke="#d40000"/><path transform="matrix(.035263 0 0 .035293 -22.021 267.67)" d="m4657.8-2867.5v-89.56" stroke="#d30000"/><path transform="matrix(.035263 0 0 .035293 -22.021 267.67)" d="m4668.4-2867.5v-87.59" stroke="#d10000"/><path transform="matrix(.035263 0 0 .035293 -22.021 267.67)" d="m4679.1-2867.5v-83.54" stroke="#d00000"/><path transform="matrix(.035263 0 0 .035293 -22.021 267.67)" d="m4689.7-2867.5v-78.51" stroke="#ce0000"/><path transform="matrix(.035263 0 0 .035293 -22.021 267.67)" d="m4700.4-2867.5v-84.56" stroke="#cd0000"/><path transform="matrix(.035263 0 0 .035293 -22.021 267.67)" d="m4711-2867.5v-75.96" stroke="#cb0000"/><path transform="matrix(.035263 0 0 .035293 -22.021 267.67)" d="m4721.7-2867.5v-73.87" stroke="#ca0000"/><path transform="matrix(.035263 0 0 .035293 -22.021 267.67)" d="m4732.3-2867.5v-69.15" stroke="#c80000"/><path transform="matrix(.035263 0 0 .035293 -22.021 267.67)" d="m4743-2867.5v-68.01" stroke="#c70000"/><path transform="matrix(.035263 0 0 .035293 -22.021 267.67)" d="m4753.6-2867.5v-64.59" stroke="#c50000"/><path transform="matrix(.035263 0 0 .035293 -22.021 267.67)" d="m4764.2-2867.5v-63.61" stroke="#c40000"/><path transform="matrix(.035263 0 0 .035293 -22.021 267.67)" d="m4774.9-2867.5v-62.15" stroke="#c20000"/><path transform="matrix(.035263 0 0 .035293 -22.021 267.67)" d="m4785.5-2867.5v-57.55" stroke="#c10000"/><path transform="matrix(.035263 0 0 .035293 -22.021 267.67)" d="m4796.2-2867.5v-54.49" stroke="#bf0000"/><path transform="matrix(.035263 0 0 .035293 -22.021 267.67)" d="m4806.8-2867.5v-56.26" stroke="#bd0000"/><path transform="matrix(.035263 0 0 .035293 -22.021 267.67)" d="m4817.5-2867.5v-54.37" stroke="#bc0000"/><path transform="matrix(.035263 0 0 .035293 -22.021 267.67)" d="m4828.1-2867.5v-56.3" stroke="#ba0000"/><path transform="matrix(.035263 0 0 .035293 -22.021 267.67)" d="m4838.8-2867.5v-50.91" stroke="#b90000"/><path transform="matrix(.035263 0 0 .035293 -22.021 267.67)" d="m4849.4-2867.5v-50.99" stroke="#b70000"/><path transform="matrix(.035263 0 0 .035293 -22.021 267.67)" d="m4860.1-2867.5v-45.52" stroke="#b60000"/><path transform="matrix(.035263 0 0 .035293 -22.021 267.67)" d="m4870.7-2867.5v-45.09" stroke="#b40000"/><path transform="matrix(.035263 0 0 .035293 -22.021 267.67)" d="m4881.4-2867.5v-42.29" stroke="#b30000"/><path transform="matrix(.035263 0 0 .035293 -22.021 267.67)" d="m4892-2867.5v-42.73" stroke="#b10000"/><path transform="matrix(.035263 0 0 .035293 -22.021 267.67)" d="m4902.7-2867.5v-40.01" stroke="#af0000"/><path transform="matrix(.035263 0 0 .035293 -22.021 267.67)" d="m4913.3-2867.5v-34.71" stroke="#ae0000"/><path transform="matrix(.035263 0 0 .035293 -22.021 267.67)" d="m4924-2867.5v-36.63" stroke="#ac0000"/><path transform="matrix(.035263 0 0 .035293 -22.021 267.67)" d="m4934.6-2867.5v-35.73" stroke="#ab0000"/><path transform="matrix(.035263 0 0 .035293 -22.021 267.67)" d="m4945.3-2867.5v-35.18" stroke="#a90000"/><path transform="matrix(.035263 0 0 .035293 -22.021 267.67)" d="m4955.9-2867.5v-27.56" stroke="#a80000"/><path transform="matrix(.035263 0 0 .035293 -22.021 267.67)" d="m4966.6-2867.5v-34.2" stroke="#a60000"/><path transform="matrix(.035263 0 0 .035293 -22.021 267.67)" d="m4977.2-2867.5v-30.23" stroke="#a40000"/><path transform="matrix(.035263 0 0 .035293 -22.021 267.67)" d="m4987.9-2867.5v-33.1" stroke="#a30000"/><path transform="matrix(.035263 0 0 .035293 -22.021 267.67)" d="m4998.5-2867.5v-30.9" stroke="#a10000"/><path transform="matrix(.035263 0 0 .035293 -22.021 267.67)" d="m5009.2-2867.5v-34.79" stroke="#a00000"/><path transform="matrix(.035263 0 0 .035293 -22.021 267.67)" d="m5019.8-2867.5v-29.92" stroke="#9e0000"/><path transform="matrix(.035263 0 0 .035293 -22.021 267.67)" d="m5030.5-2867.5v-30.82" stroke="#9c0000"/><path transform="matrix(.035263 0 0 .035293 -22.021 267.67)" d="m5041.1-2867.5v-28.62" stroke="#9b0000"/><path transform="matrix(.035263 0 0 .035293 -22.021 267.67)" d="m5051.8-2867.5v-21.3" stroke="#900"/><path transform="matrix(.035263 0 0 .035293 -22.021 267.67)" d="m5062.4-2867.5v-24.25" stroke="#980000"/><path transform="matrix(.035263 0 0 .035293 -22.021 267.67)" d="m5073-2867.5v-23.9" stroke="#960000"/><path transform="matrix(.035263 0 0 .035293 -22.021 267.67)" d="m5083.7-2867.5v-20.75" stroke="#940000"/><path transform="matrix(.035263 0 0 .035293 -22.021 267.67)" d="m5094.3-2867.5v-21.81" stroke="#930000"/><path transform="matrix(.035263 0 0 .035293 -22.021 267.67)" d="m5105-2867.5v-22.28" stroke="#910000"/><path transform="matrix(.035263 0 0 .035293 -22.021 267.67)" d="m5115.6-2867.5v-21.1" stroke="#8f0000"/><path transform="matrix(.035263 0 0 .035293 -22.021 267.67)" d="m5126.3-2867.5v-23.63" stroke="#8e0000"/><path transform="matrix(.035263 0 0 .035293 -22.021 267.67)" d="m5136.9-2867.5v-15.99" stroke="#8c0000"/><path transform="matrix(.035263 0 0 .035293 -22.021 267.67)" d="m5147.6-2867.5v-18.94" stroke="#8a0000"/><path transform="matrix(.035263 0 0 .035293 -22.021 267.67)" d="m5158.2-2867.5v-19.61" stroke="#890000"/><path transform="matrix(.035263 0 0 .035293 -22.021 267.67)" d="m5168.9-2867.5v-16.15" stroke="#870000"/><path transform="matrix(.035263 0 0 .035293 -22.021 267.67)" d="m5179.5-2867.5v-16.54" stroke="#850000"/><path transform="matrix(.035263 0 0 .035293 -22.021 267.67)" d="m5190.2-2867.5v-17.57" stroke="#840000"/><path transform="matrix(.035263 0 0 .035293 -22.021 267.67)" d="m5200.8-2867.5v-14.34" stroke="#820000"/><path transform="matrix(.035263 0 0 .035293 -22.021 267.67)" d="m5211.5-2867.5v-11.4" stroke="#800000"/><path transform="matrix(.035263 0 0 .035293 -22.021 267.67)" d="m5222.1-2867.5v-14.14" stroke="#7f0000"/><path transform="matrix(.035263 0 0 .035293 -22.021 267.67)" d="m5232.8-2867.5v-14.62" stroke="#7d0000"/><path transform="matrix(.035263 0 0 .035293 -22.021 267.67)" d="m5243.4-2867.5v-15.09" stroke="#7b0000"/><path transform="matrix(.035263 0 0 .035293 -22.021 267.67)" d="m5254.1-2867.5v-9.82" stroke="#7a0000"/><path transform="matrix(.035263 0 0 .035293 -22.021 267.67)" d="m5264.7-2867.5v-13.68" stroke="#780000"/><path transform="matrix(.035263 0 0 .035293 -22.021 267.67)" d="m5275.4-2867.5v-10.69" stroke="#760000"/><path transform="matrix(.035263 0 0 .035293 -22.021 267.67)" d="m5286-2867.5v-14.85" stroke="#740000"/><path transform="matrix(.035263 0 0 .035293 -22.021 267.67)" d="m5296.7-2867.5v-7.11" stroke="#730000"/><path transform="matrix(.035263 0 0 .035293 -22.021 267.67)" d="m5307.3-2867.5v-7.03" stroke="#710000"/><path transform="matrix(.035263 0 0 .035293 -22.021 267.67)" d="m5318-2867.5v-11.59" stroke="#6f0000"/><path transform="matrix(.035263 0 0 .035293 -22.021 267.67)" d="m5328.6-2867.5v-6.37" stroke="#6d0000"/><path transform="matrix(.035263 0 0 .035293 -22.021 267.67)" d="m5339.2-2867.5v-10.49" stroke="#6c0000"/><path transform="matrix(.035263 0 0 .035293 -22.021 267.67)" d="m5349.9-2867.5v-8.09" stroke="#6a0000"/><path transform="matrix(.035263 0 0 .035293 -22.021 267.67)" d="m5360.6-2867.5v-9.98" stroke="#680000"/><path transform="matrix(.035263 0 0 .035293 -22.021 267.67)" d="m5371.2-2867.5v-5.85" stroke="#600"/><path transform="matrix(.035263 0 0 .035293 -22.021 267.67)" d="m5381.8-2867.5v-6.83" stroke="#640000"/><path transform="matrix(.035263 0 0 .035293 -22.021 267.67)" d="m5392.5-2867.5v-5.78" stroke="#630000"/></g></g><g transform="matrix(1.0908 0 0 1.0908 -165.17 -312.67)" stroke-width=".91672"><g font-family="Lato" font-size="9.7293px"><text transform="matrix(.80219 0 0 -.80438 640.78 492.09)" x="36.944557" stroke-width="1.2168" style="font-variant-caps:normal;font-variant-east-asian:normal;font-variant-ligatures:normal;font-variant-numeric:normal" xml:space="preserve"><tspan x="36.944557" y="0" fill="#000000" font-family="Lato" font-size="9.7293px" stroke-width="1.2168" text-align="center" text-anchor="middle" style="font-variant-caps:normal;font-variant-east-asian:normal;font-variant-ligatures:normal;font-variant-numeric:normal">WaveLength (nm)</tspan></text><g stroke-width="1.2162"><text transform="matrix(.803 0 0 -.80438 473.81 694.38)" x="5.3358564" style="font-variant-caps:normal;font-variant-east-asian:normal;font-variant-ligatures:normal;font-variant-numeric:normal" xml:space="preserve"><tspan x="5.3358564" y="0" fill="#000000" font-family="Lato" font-size="9.7293px" stroke-width="1.2162" text-align="end" text-anchor="end" style="font-variant-caps:normal;font-variant-east-asian:normal;font-variant-ligatures:normal;font-variant-numeric:normal">1</tspan></text><text transform="matrix(.803 0 0 -.80438 473.78 657.43)" x="5.3358564" style="font-variant-caps:normal;font-variant-east-asian:normal;font-variant-ligatures:normal;font-variant-numeric:normal" xml:space="preserve"><tspan x="5.3358564" y="0" fill="#000000" font-family="Lato" font-size="9.7293px" stroke-width="1.2162" text-align="end" text-anchor="end" style="font-variant-caps:normal;font-variant-east-asian:normal;font-variant-ligatures:normal;font-variant-numeric:normal">0.8</tspan></text><text transform="matrix(.803 0 0 -.80438 473.73 620.6)" x="5.3358564" style="font-variant-caps:normal;font-variant-east-asian:normal;font-variant-ligatures:normal;font-variant-numeric:normal" xml:space="preserve"><tspan x="5.3358564" y="0" fill="#000000" font-family="Lato" font-size="9.7293px" stroke-width="1.2162" text-align="end" text-anchor="end" style="font-variant-caps:normal;font-variant-east-asian:normal;font-variant-ligatures:normal;font-variant-numeric:normal">0.6</tspan></text><text transform="matrix(.803 0 0 -.80438 473.55 583.71)" x="5.3358564" style="font-variant-caps:normal;font-variant-east-asian:normal;font-variant-ligatures:normal;font-variant-numeric:normal" xml:space="preserve"><tspan x="5.3358564" y="0" fill="#000000" font-family="Lato" font-size="9.7293px" stroke-width="1.2162" text-align="end" text-anchor="end" style="font-variant-caps:normal;font-variant-east-asian:normal;font-variant-ligatures:normal;font-variant-numeric:normal">0.4</tspan></text><text transform="matrix(.803 0 0 -.80438 473.78 546.87)" x="5.3358564" style="font-variant-caps:normal;font-variant-east-asian:normal;font-variant-ligatures:normal;font-variant-numeric:normal" xml:space="preserve"><tspan x="5.3358564" y="0" fill="#000000" font-family="Lato" font-size="9.7293px" stroke-width="1.2162" text-align="end" text-anchor="end" style="font-variant-caps:normal;font-variant-east-asian:normal;font-variant-ligatures:normal;font-variant-numeric:normal">0.2</tspan></text><text transform="matrix(.803 0 0 -.80438 473.61 509.99)" x="5.3358564" style="font-variant-caps:normal;font-variant-east-asian:normal;font-variant-ligatures:normal;font-variant-numeric:normal" xml:space="preserve"><tspan x="5.3358564" y="0" fill="#000000" font-family="Lato" font-size="9.7293px" stroke-width="1.2162" text-align="end" text-anchor="end" style="font-variant-caps:normal;font-variant-east-asian:normal;font-variant-ligatures:normal;font-variant-numeric:normal">0</tspan></text><text transform="matrix(.803 0 0 -.80438 486.57 502.62)" x="15.907482" style="font-variant-caps:normal;font-variant-east-asian:normal;font-variant-ligatures:normal;font-variant-numeric:normal" xml:space="preserve"><tspan x="15.907481" y="0" fill="#000000" font-family="Lato" font-size="9.7293px" stroke-width="1.2162" text-align="center" text-anchor="middle" style="font-variant-caps:normal;font-variant-east-asian:normal;font-variant-ligatures:normal;font-variant-numeric:normal">400</tspan></text><text transform="matrix(.803 0 0 -.80438 572.11 502.62)" x="15.907482" style="font-variant-caps:normal;font-variant-east-asian:normal;font-variant-ligatures:normal;font-variant-numeric:normal" xml:space="preserve"><tspan x="15.907481" y="0" fill="#000000" font-family="Lato" font-size="9.7293px" stroke-width="1.2162" text-align="center" text-anchor="middle" style="font-variant-caps:normal;font-variant-east-asian:normal;font-variant-ligatures:normal;font-variant-numeric:normal">500</tspan></text><text transform="matrix(.803 0 0 -.80438 657.51 502.62)" x="15.907482" style="font-variant-caps:normal;font-variant-east-asian:normal;font-variant-ligatures:normal;font-variant-numeric:normal" xml:space="preserve"><tspan x="15.907481" y="0" fill="#000000" font-family="Lato" font-size="9.7293px" stroke-width="1.2162" text-align="center" text-anchor="middle" style="font-variant-caps:normal;font-variant-east-asian:normal;font-variant-ligatures:normal;font-variant-numeric:normal">600</tspan></text><text transform="matrix(.803 0 0 -.80438 743.05 502.62)" x="15.907482" style="font-variant-caps:normal;font-variant-east-asian:normal;font-variant-ligatures:normal;font-variant-numeric:normal" xml:space="preserve"><tspan x="15.907481" y="0" fill="#000000" font-family="Lato" font-size="9.7293px" stroke-width="1.2162" text-align="center" text-anchor="middle" style="font-variant-caps:normal;font-variant-east-asian:normal;font-variant-ligatures:normal;font-variant-numeric:normal">700</tspan></text><text transform="matrix(.803 0 0 -.80438 828.56 502.62)" x="15.907482" style="font-variant-caps:normal;font-variant-east-asian:normal;font-variant-ligatures:normal;font-variant-numeric:normal" xml:space="preserve"><tspan x="15.907481" y="0" fill="#000000" font-family="Lato" font-size="9.7293px" stroke-width="1.2162" text-align="center" text-anchor="middle" style="font-variant-caps:normal;font-variant-east-asian:normal;font-variant-ligatures:normal;font-variant-numeric:normal">800</tspan></text></g><text transform="matrix(0 .80438 .803 0 462.03 573.5)" stroke-width="1.2162" style="font-variant-caps:normal;font-variant-east-asian:normal;font-variant-ligatures:normal;font-variant-numeric:normal" xml:space="preserve"><tspan x="0" y="0" fill="#000000" font-family="Lato" font-size="9.7293px" stroke-width="1.2162" style="font-variant-caps:normal;font-variant-east-asian:normal;font-variant-ligatures:normal;font-variant-numeric:normal">Relative Spectrum</tspan></text></g><g transform="matrix(.99896 0 0 .99982 -12.103 .12804)" fill="none" stroke="#858585" stroke-width=".27518"><path transform="matrix(.8 0 0 -.8 4.5844 459.68)" d="m617.27-296.75h-4.496v230.4h449.56v-4.4972"/><path transform="matrix(.8 0 0 -.8 4.5844 459.68)" d="m612.77-250.67h4.496"/><path transform="matrix(.8 0 0 -.8 4.5844 459.68)" d="m612.77-204.59h4.496"/><path transform="matrix(.8 0 0 -.8 4.5844 459.68)" d="m612.77-158.5h4.496"/><path transform="matrix(.8 0 0 -.8 4.5844 459.68)" d="m612.77-112.42h4.496"/><path transform="matrix(.8 0 0 -.8 4.5844 459.68)" d="m634.18-66.344v-4.4972"/><path transform="matrix(.8 0 0 -.8 4.5844 459.68)" d="m741.22-66.344 2e-5 -4.4972"/><path transform="matrix(.8 0 0 -.8 4.5844 459.68)" d="m848.25-66.344 2e-5 -4.4972"/><path transform="matrix(.8 0 0 -.8 4.5844 459.68)" d="m955.29-66.344v-4.4972"/></g></g></g></g></svg>
