<svg width="1e3" height="325" version="1.1" viewBox="0 0 1e3 325" xml:space="preserve" xmlns="http://www.w3.org/2000/svg"><g transform="matrix(.82188 0 0 .82169 -130.32 141.76)" fill="none" stroke-linejoin="round" stroke-miterlimit="2"><g transform="translate(171.18 -173.53)" stroke-width="2.4348"><path transform="matrix(1.3333 0 0 -1.3333 -6.459 586.32)" d="m80.846 187.73v0.25511" stroke="#7a00e2"/><path transform="matrix(1.3333 0 0 -1.3333 -6.459 586.32)" d="m81.909 187.73v0.2351" stroke="#7900e5"/><path transform="matrix(1.3333 0 0 -1.3333 -6.459 586.32)" d="m82.974 187.73v0.21209" stroke="#7700e9"/><path transform="matrix(1.3333 0 0 -1.3333 -6.459 586.32)" d="m84.039 187.73v0.37917" stroke="#7500ec"/><path transform="matrix(1.3333 0 0 -1.3333 -6.459 586.32)" d="m85.103 187.73v0.37516" stroke="#7300f0"/><path transform="matrix(1.3333 0 0 -1.3333 -6.459 586.32)" d="m86.168 187.73v0.41118" stroke="#7100f4"/><path transform="matrix(1.3333 0 0 -1.3333 -6.459 586.32)" d="m87.232 187.73v0.55324" stroke="#6f00f7"/><path transform="matrix(1.3333 0 0 -1.3333 -6.459 586.32)" d="m88.296 187.73v0.6813" stroke="#6c00fb"/><path transform="matrix(1.3333 0 0 -1.3333 -6.459 586.32)" d="m89.36 187.73v0.70431" stroke="#6900ff"/><path transform="matrix(1.3333 0 0 -1.3333 -6.459 586.32)" d="m90.425 187.73v0.85737" stroke="#6500ff"/><path transform="matrix(1.3333 0 0 -1.3333 -6.459 586.32)" d="m91.489 187.73v1.1835" stroke="#6100ff"/><path transform="matrix(1.3333 0 0 -1.3333 -6.459 586.32)" d="m92.554 187.73v1.3336" stroke="#5c00ff"/><path transform="matrix(1.3333 0 0 -1.3333 -6.459 586.32)" d="m93.617 187.73v1.5106" stroke="#5800ff"/><path transform="matrix(1.3333 0 0 -1.3333 -6.459 586.32)" d="m94.682 187.73v1.8208" stroke="#5400ff"/><path transform="matrix(1.3333 0 0 -1.3333 -6.459 586.32)" d="m95.747 187.73v2.205" stroke="#4f00ff"/><path transform="matrix(1.3333 0 0 -1.3333 -6.459 586.32)" d="m96.811 187.73v2.6511" stroke="#4b00ff"/><path transform="matrix(1.3333 0 0 -1.3333 -6.459 586.32)" d="m97.876 187.73v3.2364" stroke="#4600ff"/><path transform="matrix(1.3333 0 0 -1.3333 -6.459 586.32)" d="m98.939 187.73v3.9007" stroke="#4100ff"/><path transform="matrix(1.3333 0 0 -1.3333 -6.459 586.32)" d="m100 187.73v4.627" stroke="#3c00ff"/><path transform="matrix(1.3333 0 0 -1.3333 -6.459 586.32)" d="m101.07 187.73v5.4644" stroke="#3700ff"/><path transform="matrix(1.3333 0 0 -1.3333 -6.459 586.32)" d="m102.13 187.73v6.5158" stroke="#3200ff"/><path transform="matrix(1.3333 0 0 -1.3333 -6.459 586.32)" d="m103.2 187.73v7.8654" stroke="#2d00ff"/><path transform="matrix(1.3333 0 0 -1.3333 -6.459 586.32)" d="m104.26 187.73v9.309" stroke="#2800ff"/><path transform="matrix(1.3333 0 0 -1.3333 -6.459 586.32)" d="m105.33 187.73v11.028" stroke="#20f"/><path transform="matrix(1.3333 0 0 -1.3333 -6.459 586.32)" d="m106.39 187.73v13.024" stroke="#1d00ff"/><path transform="matrix(1.3333 0 0 -1.3333 -6.459 586.32)" d="m107.45 187.73v15.298" stroke="#1700ff"/><path transform="matrix(1.3333 0 0 -1.3333 -6.459 586.32)" d="m108.52 187.73v17.891" stroke="#1000ff"/><path transform="matrix(1.3333 0 0 -1.3333 -6.459 586.32)" d="m109.58 187.73v20.879" stroke="#0900ff"/><path transform="matrix(1.3333 0 0 -1.3333 -6.459 586.32)" d="m110.65 187.73v24.267" stroke="#00f"/><path transform="matrix(1.3333 0 0 -1.3333 -6.459 586.32)" d="m111.71 187.73v28.187" stroke="#000bff"/><path transform="matrix(1.3333 0 0 -1.3333 -6.459 586.32)" d="m112.78 187.73v32.204" stroke="#0013ff"/><path transform="matrix(1.3333 0 0 -1.3333 -6.459 586.32)" d="m113.84 187.73v37.291" stroke="#001aff"/><path transform="matrix(1.3333 0 0 -1.3333 -6.459 586.32)" d="m114.91 187.73v42.765" stroke="#0021ff"/><path transform="matrix(1.3333 0 0 -1.3333 -6.459 586.32)" d="m115.97 187.73v48.784" stroke="#0028ff"/><path transform="matrix(1.3333 0 0 -1.3333 -6.459 586.32)" d="m117.03 187.73v55.286" stroke="#002eff"/><path transform="matrix(1.3333 0 0 -1.3333 -6.459 586.32)" d="m118.1 187.73v62.789" stroke="#0034ff"/><path transform="matrix(1.3333 0 0 -1.3333 -6.459 586.32)" d="m119.16 187.73v70.508" stroke="#003aff"/><path transform="matrix(1.3333 0 0 -1.3333 -6.459 586.32)" d="m120.23 187.73v78.911" stroke="#0040ff"/><path transform="matrix(1.3333 0 0 -1.3333 -6.459 586.32)" d="m121.29 187.73v88.061" stroke="#0046ff"/><path transform="matrix(1.3333 0 0 -1.3333 -6.459 586.32)" d="m122.36 187.73v97.405" stroke="#004bff"/><path transform="matrix(1.3333 0 0 -1.3333 -6.459 586.32)" d="m123.42 187.73v107.33" stroke="#0051ff"/><path transform="matrix(1.3333 0 0 -1.3333 -6.459 586.32)" d="m124.48 187.73v118.26" stroke="#0056ff"/><path transform="matrix(1.3333 0 0 -1.3333 -6.459 586.32)" d="m125.55 187.73v128.38" stroke="#005cff"/><path transform="matrix(1.3333 0 0 -1.3333 -6.459 586.32)" d="m126.61 187.73v138.93" stroke="#0061ff"/><path transform="matrix(1.3333 0 0 -1.3333 -6.459 586.32)" d="m127.68 187.73v150.49" stroke="#06f"/><path transform="matrix(1.3333 0 0 -1.3333 -6.459 586.32)" d="m128.74 187.73v160.89" stroke="#006bff"/><path transform="matrix(1.3333 0 0 -1.3333 -6.459 586.32)" d="m129.81 187.73v172.72" stroke="#0070ff"/><path transform="matrix(1.3333 0 0 -1.3333 -6.459 586.32)" d="m130.87 187.73v182.92" stroke="#0075ff"/><path transform="matrix(1.3333 0 0 -1.3333 -6.459 586.32)" d="m131.93 187.73v193.31" stroke="#007aff"/><path transform="matrix(1.3333 0 0 -1.3333 -6.459 586.32)" d="m133 187.73v201.72" stroke="#007fff"/><path transform="matrix(1.3333 0 0 -1.3333 -6.459 586.32)" d="m134.06 187.73v209.89" stroke="#0084ff"/><path transform="matrix(1.3333 0 0 -1.3333 -6.459 586.32)" d="m135.13 187.73v216.11" stroke="#0089ff"/><path transform="matrix(1.3333 0 0 -1.3333 -6.459 586.32)" d="m136.19 187.73v222.59" stroke="#008dff"/><path transform="matrix(1.3333 0 0 -1.3333 -6.459 586.32)" d="m137.26 187.73v226.42" stroke="#0092ff"/><path transform="matrix(1.3333 0 0 -1.3333 -6.459 586.32)" d="m138.32 187.73v229.11" stroke="#0097ff"/><path transform="matrix(1.3333 0 0 -1.3333 -6.459 586.32)" d="m139.38 187.73v229.01" stroke="#009bff"/><path transform="matrix(1.3333 0 0 -1.3333 -6.459 586.32)" d="m140.45 187.73v228.31" stroke="#00a0ff"/><path transform="matrix(1.3333 0 0 -1.3333 -6.459 586.32)" d="m141.51 187.73v223.93" stroke="#00a4ff"/><path transform="matrix(1.3333 0 0 -1.3333 -6.459 586.32)" d="m142.58 187.73v219.48" stroke="#00a9ff"/><path transform="matrix(1.3333 0 0 -1.3333 -6.459 586.32)" d="m143.64 187.73v213.71" stroke="#00adff"/><path transform="matrix(1.3333 0 0 -1.3333 -6.459 586.32)" d="m144.71 187.73v205.94" stroke="#00b2ff"/><path transform="matrix(1.3333 0 0 -1.3333 -6.459 586.32)" d="m145.77 187.73v197.28" stroke="#00b6ff"/><path transform="matrix(1.3333 0 0 -1.3333 -6.459 586.32)" d="m146.84 187.73v187.92" stroke="#0bf"/><path transform="matrix(1.3333 0 0 -1.3333 -6.459 586.32)" d="m147.9 187.73v178.47" stroke="#00bfff"/><path transform="matrix(1.3333 0 0 -1.3333 -6.459 586.32)" d="m148.96 187.73v168.29" stroke="#00c4ff"/><path transform="matrix(1.3333 0 0 -1.3333 -6.459 586.32)" d="m150.03 187.73v157.61" stroke="#00c8ff"/><path transform="matrix(1.3333 0 0 -1.3333 -6.459 586.32)" d="m151.09 187.73v147.51" stroke="#0cf"/><path transform="matrix(1.3333 0 0 -1.3333 -6.459 586.32)" d="m152.16 187.73v137.62" stroke="#00d1ff"/><path transform="matrix(1.3333 0 0 -1.3333 -6.459 586.32)" d="m153.22 187.73v127.55" stroke="#00d5ff"/><path transform="matrix(1.3333 0 0 -1.3333 -6.459 586.32)" d="m154.29 187.73v117.99" stroke="#00d9ff"/><path transform="matrix(1.3333 0 0 -1.3333 -6.459 586.32)" d="m155.35 187.73v108.61" stroke="#0df"/><path transform="matrix(1.3333 0 0 -1.3333 -6.459 586.32)" d="m156.41 187.73v100.38" stroke="#00e2ff"/><path transform="matrix(1.3333 0 0 -1.3333 -6.459 586.32)" d="m157.48 187.73v92.023" stroke="#00e6ff"/><path transform="matrix(1.3333 0 0 -1.3333 -6.459 586.32)" d="m158.54 187.73v84.885" stroke="#00eaff"/><path transform="matrix(1.3333 0 0 -1.3333 -6.459 586.32)" d="m159.61 187.73v78.186" stroke="#0ef"/><path transform="matrix(1.3333 0 0 -1.3333 -6.459 586.32)" d="m160.67 187.73v71.9" stroke="#00f2ff"/><path transform="matrix(1.3333 0 0 -1.3333 -6.459 586.32)" d="m161.74 187.73v66.035" stroke="#00f6ff"/><path transform="matrix(1.3333 0 0 -1.3333 -6.459 586.32)" d="m162.8 187.73v61.096" stroke="#00faff"/><path transform="matrix(1.3333 0 0 -1.3333 -6.459 586.32)" d="m163.87 187.73v56.398" stroke="#0ff"/><path transform="matrix(1.3333 0 0 -1.3333 -6.459 586.32)" d="m164.93 187.73v51.934" stroke="#00fff4"/><path transform="matrix(1.3333 0 0 -1.3333 -6.459 586.32)" d="m165.99 187.73v47.772" stroke="#00ffea"/><path transform="matrix(1.3333 0 0 -1.3333 -6.459 586.32)" d="m167.06 187.73v43.72" stroke="#00ffdf"/><path transform="matrix(1.3333 0 0 -1.3333 -6.459 586.32)" d="m168.12 187.73v40.057" stroke="#00ffd5"/><path transform="matrix(1.3333 0 0 -1.3333 -6.459 586.32)" d="m169.19 187.73v36.643" stroke="#00ffca"/><path transform="matrix(1.3333 0 0 -1.3333 -6.459 586.32)" d="m170.25 187.73v33.718" stroke="#00ffbf"/><path transform="matrix(1.3333 0 0 -1.3333 -6.459 586.32)" d="m171.32 187.73v30.849" stroke="#00ffb4"/><path transform="matrix(1.3333 0 0 -1.3333 -6.459 586.32)" d="m172.38 187.73v28.183" stroke="#00ffa9"/><path transform="matrix(1.3333 0 0 -1.3333 -6.459 586.32)" d="m173.45 187.73v25.646" stroke="#00ff9e"/><path transform="matrix(1.3333 0 0 -1.3333 -6.459 586.32)" d="m174.51 187.73v23.353" stroke="#00ff92"/><path transform="matrix(1.3333 0 0 -1.3333 -6.459 586.32)" d="m175.57 187.73v21.249" stroke="#00ff86"/><path transform="matrix(1.3333 0 0 -1.3333 -6.459 586.32)" d="m176.64 187.73v19.44" stroke="#00ff7a"/><path transform="matrix(1.3333 0 0 -1.3333 -6.459 586.32)" d="m177.7 187.73v17.7" stroke="#00ff6e"/><path transform="matrix(1.3333 0 0 -1.3333 -6.459 586.32)" d="m178.77 187.73v16.164" stroke="#00ff61"/><path transform="matrix(1.3333 0 0 -1.3333 -6.459 586.32)" d="m179.83 187.73v14.68" stroke="#00ff54"/><path transform="matrix(1.3333 0 0 -1.3333 -6.459 586.32)" d="m180.9 187.73v13.445" stroke="#00ff46"/><path transform="matrix(1.3333 0 0 -1.3333 -6.459 586.32)" d="m181.96 187.73v12.213" stroke="#00ff37"/><path transform="matrix(1.3333 0 0 -1.3333 -6.459 586.32)" d="m183.02 187.73v11.239" stroke="#00ff28"/><path transform="matrix(1.3333 0 0 -1.3333 -6.459 586.32)" d="m184.09 187.73v10.301" stroke="#00ff17"/><path transform="matrix(1.3333 0 0 -1.3333 -6.459 586.32)" d="m185.15 187.73v9.364" stroke="#0f0"/><path transform="matrix(1.3333 0 0 -1.3333 -6.459 586.32)" d="m186.22 187.73v8.5527" stroke="#08ff00"/><path transform="matrix(1.3333 0 0 -1.3333 -6.459 586.32)" d="m187.28 187.73v7.8484" stroke="#0eff00"/><path transform="matrix(1.3333 0 0 -1.3333 -6.459 586.32)" d="m188.35 187.73v7.08" stroke="#14ff00"/><path transform="matrix(1.3333 0 0 -1.3333 -6.459 586.32)" d="m189.41 187.73v6.5568" stroke="#19ff00"/><path transform="matrix(1.3333 0 0 -1.3333 -6.459 586.32)" d="m190.47 187.73v5.9506" stroke="#1eff00"/><path transform="matrix(1.3333 0 0 -1.3333 -6.459 586.32)" d="m191.54 187.73v5.3853" stroke="#23ff00"/><path transform="matrix(1.3333 0 0 -1.3333 -6.459 586.32)" d="m192.6 187.73v4.9621" stroke="#28ff00"/><path transform="matrix(1.3333 0 0 -1.3333 -6.459 586.32)" d="m193.67 187.73v4.4719" stroke="#2cff00"/><path transform="matrix(1.3333 0 0 -1.3333 -6.459 586.32)" d="m194.73 187.73v4.1178" stroke="#31ff00"/><path transform="matrix(1.3333 0 0 -1.3333 -6.459 586.32)" d="m195.8 187.73v3.7816" stroke="#35ff00"/><path transform="matrix(1.3333 0 0 -1.3333 -6.459 586.32)" d="m196.86 187.73v3.4585" stroke="#3aff00"/><path transform="matrix(1.3333 0 0 -1.3333 -6.459 586.32)" d="m197.92 187.73v3.1964" stroke="#3eff00"/><path transform="matrix(1.3333 0 0 -1.3333 -6.459 586.32)" d="m198.99 187.73v2.9353" stroke="#42ff00"/><path transform="matrix(1.3333 0 0 -1.3333 -6.459 586.32)" d="m200.05 187.73v2.7202" stroke="#46ff00"/><path transform="matrix(1.3333 0 0 -1.3333 -6.459 586.32)" d="m201.12 187.73v2.4961" stroke="#4aff00"/><path transform="matrix(1.3333 0 0 -1.3333 -6.459 586.32)" d="m202.18 187.73v2.298" stroke="#4eff00"/><path transform="matrix(1.3333 0 0 -1.3333 -6.459 586.32)" d="m203.25 187.73v2.0689" stroke="#52ff00"/><path transform="matrix(1.3333 0 0 -1.3333 -6.459 586.32)" d="m204.31 187.73v1.9748" stroke="#56ff00"/><path transform="matrix(1.3333 0 0 -1.3333 -6.459 586.32)" d="m205.38 187.73v1.7488" stroke="#59ff00"/><path transform="matrix(1.3333 0 0 -1.3333 -6.459 586.32)" d="m206.44 187.73v1.6857" stroke="#5dff00"/><path transform="matrix(1.3333 0 0 -1.3333 -6.459 586.32)" d="m207.51 187.73v1.5377" stroke="#61ff00"/><path transform="matrix(1.3333 0 0 -1.3333 -6.459 586.32)" d="m208.57 187.73v1.4146" stroke="#65ff00"/><path transform="matrix(1.3333 0 0 -1.3333 -6.459 586.32)" d="m209.63 187.73v1.2986" stroke="#68ff00"/><path transform="matrix(1.3333 0 0 -1.3333 -6.459 586.32)" d="m210.7 187.73v1.2035" stroke="#6cff00"/><path transform="matrix(1.3333 0 0 -1.3333 -6.459 586.32)" d="m211.76 187.73v1.1255" stroke="#6fff00"/><path transform="matrix(1.3333 0 0 -1.3333 -6.459 586.32)" d="m212.83 187.73v1.0545" stroke="#73ff00"/><path transform="matrix(1.3333 0 0 -1.3333 -6.459 586.32)" d="m213.89 187.73v0.96642" stroke="#7f0"/><path transform="matrix(1.3333 0 0 -1.3333 -6.459 586.32)" d="m214.96 187.73v0.88638" stroke="#7aff00"/><path transform="matrix(1.3333 0 0 -1.3333 -6.459 586.32)" d="m216.02 187.73v0.85637" stroke="#7eff00"/><path transform="matrix(1.3333 0 0 -1.3333 -6.459 586.32)" d="m217.08 187.73v0.77734" stroke="#81ff00"/><path transform="matrix(1.3333 0 0 -1.3333 -6.459 586.32)" d="m218.15 187.73v0.75133" stroke="#84ff00"/><path transform="matrix(1.3333 0 0 -1.3333 -6.459 586.32)" d="m219.21 187.73v0.76433" stroke="#8f0"/><path transform="matrix(1.3333 0 0 -1.3333 -6.459 586.32)" d="m220.28 187.73v0.61227" stroke="#8bff00"/><path transform="matrix(1.3333 0 0 -1.3333 -6.459 586.32)" d="m221.34 187.73v0.57325" stroke="#8fff00"/><path transform="matrix(1.3333 0 0 -1.3333 -6.459 586.32)" d="m222.4 187.73v0.61127" stroke="#92ff00"/><path transform="matrix(1.3333 0 0 -1.3333 -6.459 586.32)" d="m223.47 187.73v0.55624" stroke="#95ff00"/><path transform="matrix(1.3333 0 0 -1.3333 -6.459 586.32)" d="m224.53 187.73v0.55024" stroke="#9f0"/><path transform="matrix(1.3333 0 0 -1.3333 -6.459 586.32)" d="m225.6 187.73v0.47521" stroke="#9cff00"/><path transform="matrix(1.3333 0 0 -1.3333 -6.459 586.32)" d="m226.66 187.73v0.42219" stroke="#9fff00"/><path transform="matrix(1.3333 0 0 -1.3333 -6.459 586.32)" d="m227.73 187.73v0.40718" stroke="#a2ff00"/><path transform="matrix(1.3333 0 0 -1.3333 -6.459 586.32)" d="m228.79 187.73v0.4632" stroke="#a6ff00"/><path transform="matrix(1.3333 0 0 -1.3333 -6.459 586.32)" d="m229.86 187.73v0.36516" stroke="#a9ff00"/><path transform="matrix(1.3333 0 0 -1.3333 -6.459 586.32)" d="m230.92 187.73v0.31214" stroke="#acff00"/><path transform="matrix(1.3333 0 0 -1.3333 -6.459 586.32)" d="m231.98 187.73v0.31714" stroke="#afff00"/><path transform="matrix(1.3333 0 0 -1.3333 -6.459 586.32)" d="m233.05 187.73v0.30113" stroke="#b3ff00"/><path transform="matrix(1.3333 0 0 -1.3333 -6.459 586.32)" d="m234.11 187.73v0.29213" stroke="#b6ff00"/><path transform="matrix(1.3333 0 0 -1.3333 -6.459 586.32)" d="m235.18 187.73v0.30413" stroke="#b9ff00"/><path transform="matrix(1.3333 0 0 -1.3333 -6.459 586.32)" d="m236.24 187.73v0.2311" stroke="#bcff00"/><path transform="matrix(1.3333 0 0 -1.3333 -6.459 586.32)" d="m237.31 187.73v0.2281" stroke="#bfff00"/><path transform="matrix(1.3333 0 0 -1.3333 -6.459 586.32)" d="m238.37 187.73v0.23911" stroke="#c2ff00"/><path transform="matrix(1.3333 0 0 -1.3333 -6.459 586.32)" d="m239.43 187.73v0.28313" stroke="#c5ff00"/><path transform="matrix(1.3333 0 0 -1.3333 -6.459 586.32)" d="m240.5 187.73v0.32114" stroke="#c9ff00"/><path transform="matrix(1.3333 0 0 -1.3333 -6.459 586.32)" d="m241.56 187.73v0.2331" stroke="#cf0"/><path transform="matrix(1.3333 0 0 -1.3333 -6.459 586.32)" d="m242.63 187.73v0.19009" stroke="#cfff00"/></g><g transform="matrix(1.3333 0 0 -1.3333 -310.64 811.9)" stroke-width="2.4348"><path d="m603.41 487.07v0.094" stroke="#dbff00"/><path d="m604.47 487.07v0.16407" stroke="#deff00"/><path d="m605.53 487.07v0.16007" stroke="#e1ff00"/><path d="m606.6 487.07v0.2231" stroke="#e4ff00"/><path d="m607.66 487.07v0.17808" stroke="#e7ff00"/><path d="m608.73 487.07v0.24411" stroke="#eaff00"/><path d="m609.79 487.07v0.32814" stroke="#edff00"/><path d="m610.86 487.07v0.36316" stroke="#f0ff00"/><path d="m611.92 487.07v0.44219" stroke="#f3ff00"/><path d="m612.98 487.07v0.48021" stroke="#f6ff00"/><path d="m614.05 487.07v0.57425" stroke="#f9ff00"/><path d="m615.11 487.07v0.65929" stroke="#fcff00"/><path d="m616.18 487.07v0.72631" stroke="#ff0"/><path d="m617.24 487.07v0.82135" stroke="#fffb00"/><path d="m618.31 487.07v0.9344" stroke="#fff800"/><path d="m619.37 487.07v1.0775" stroke="#fff500"/><path d="m620.44 487.07v1.2976" stroke="#fff200"/><path d="m621.5 487.07v1.4576" stroke="#ffef00"/><path d="m622.56 487.07v1.5497" stroke="#ffeb00"/><path d="m623.63 487.07v1.7828" stroke="#ffe800"/><path d="m624.69 487.07v2.1129" stroke="#ffe500"/><path d="m625.76 487.07v2.353" stroke="#ffe200"/><path d="m626.82 487.07v2.7112" stroke="#ffdf00"/><path d="m627.89 487.07v3.0213" stroke="#ffdb00"/><path d="m628.95 487.07v3.5355" stroke="#ffd800"/><path d="m630.01 487.07v3.9897" stroke="#ffd500"/><path d="m631.08 487.07v4.3149" stroke="#ffd200"/><path d="m632.14 487.07v5.0742" stroke="#ffce00"/><path d="m633.21 487.07v5.6884" stroke="#ffcb00"/><path d="m634.27 487.07v6.3127" stroke="#ffc800"/><path d="m635.34 487.07v7.1391" stroke="#ffc400"/><path d="m636.4 487.07v8.0665" stroke="#ffc100"/><path d="m637.46 487.07v9.0039" stroke="#ffbe00"/><path d="m638.53 487.07v10.147" stroke="#ffba00"/><path d="m639.59 487.07v11.47" stroke="#ffb700"/><path d="m640.66 487.07v12.826" stroke="#ffb300"/><path d="m641.72 487.07v14.397" stroke="#ffb000"/><path d="m642.79 487.07v16.293" stroke="#ffac00"/><path d="m643.85 487.07v18.233" stroke="#ffa900"/><path d="m644.92 487.07v20.649" stroke="#ffa500"/><path d="m645.98 487.07v23.221" stroke="#ffa200"/><path d="m647.04 487.07v25.92" stroke="#ff9e00"/><path d="m648.11 487.07v29.131" stroke="#ff9b00"/><path d="m649.17 487.07v32.589" stroke="#ff9700"/><path d="m650.24 487.07v36.522" stroke="#ff9400"/><path d="m651.3 487.07v40.96" stroke="#ff9000"/><path d="m652.37 487.07v45.88" stroke="#ff8d00"/><path d="m653.43 487.07v51.098" stroke="#ff8900"/><path d="m654.49 487.07v57.128" stroke="#ff8500"/><path d="m655.56 487.07v63.976" stroke="#ff8100"/><path d="m656.62 487.07v71.139" stroke="#ff7e00"/><path d="m657.69 487.07v78.846" stroke="#ff7a00"/><path d="m658.75 487.07v87.578" stroke="#ff7600"/><path d="m659.82 487.07v96.666" stroke="#ff7200"/><path d="m660.88 487.07v107.46" stroke="#ff6f00"/><path d="m661.95 487.07v118.63" stroke="#ff6b00"/><path d="m663.01 487.07v130.94" stroke="#ff6700"/><path d="m664.07 487.07v144.73" stroke="#ff6300"/><path d="m665.14 487.07v159.31" stroke="#ff5f00"/><path d="m666.2 487.07v173.69" stroke="#ff5b00"/><path d="m667.27 487.07v188.56" stroke="#ff5700"/><path d="m668.33 487.07v202.86" stroke="#ff5300"/><path d="m669.4 487.07v215.19" stroke="#ff4e00"/><path d="m670.46 487.07v224.68" stroke="#ff4a00"/><path d="m671.52 487.07v229.11" stroke="#ff4600"/><path d="m672.59 487.07v228.12" stroke="#ff4200"/><path d="m673.65 487.07v222.09" stroke="#ff3d00"/><path d="m674.72 487.07v209.28" stroke="#ff3900"/><path d="m675.78 487.07v192.39" stroke="#ff3400"/><path d="m676.85 487.07v172.53" stroke="#ff2f00"/><path d="m677.91 487.07v150.79" stroke="#ff2a00"/><path d="m678.97 487.07v129.68" stroke="#ff2500"/><path d="m680.04 487.07v110.4" stroke="#ff2000"/><path d="m681.1 487.07v93.293" stroke="#ff1b00"/><path d="m682.17 487.07v78.685" stroke="#ff1500"/><path d="m683.23 487.07v66.192" stroke="#ff0f00"/><path d="m684.3 487.07v55.656" stroke="#ff0900"/><g stroke="#f00"><path d="m685.36 487.07v47.416"/><path d="m686.43 487.07v40.115"/><path d="m687.49 487.07v34.321"/><path d="m688.55 487.07v29.398"/><path d="m689.62 487.07v25.511"/><path d="m690.68 487.07v22.131"/><path d="m691.75 487.07v19.359"/><path d="m692.81 487.07v16.906"/><path d="m693.88 487.07v14.791"/><path d="m694.94 487.07v13.072"/><path d="m696 487.07v11.739"/><path d="m697.07 487.07v10.44"/><path d="m698.13 487.07v9.213"/><path d="m699.2 487.07v8.3456"/><path d="m700.26 487.07v7.5192"/><path d="m701.33 487.07v6.6048"/><path d="m702.39 487.07v5.9095"/><path d="m703.46 487.07v5.3783"/><path d="m704.52 487.07v4.8191"/><path d="m705.58 487.07v4.2208"/><path d="m706.65 487.07v3.7126"/><path d="m707.71 487.07v3.2904"/><path d="m708.78 487.07v2.9183"/><path d="m709.84 487.07v2.5011"/><path d="m710.91 487.07v2.205"/><path d="m711.97 487.07v1.9698"/><path d="m713.04 487.07v1.6827"/><path d="m714.1 487.07v1.5557"/><path d="m715.16 487.07v1.4076"/><path d="m716.23 487.07v1.1375"/><path d="m717.29 487.07v0.9314"/><path d="m718.36 487.07v0.88538"/><path d="m719.42 487.07v0.82236"/><path d="m720.48 487.07v0.62127"/><path d="m721.55 487.07v0.53623"/><path d="m722.61 487.07v0.53023"/><path d="m723.68 487.07v0.51722"/><path d="m724.74 487.07v0.39217"/></g></g><g transform="matrix(.13333 0 0 -.13333 -46.517 337.27)" stroke-width="24.348"><path d="m2786.5 1310.9v1.6007" stroke="#0040ff"/><path d="m2797.2 1310.9v0.9404" stroke="#0046ff"/><path d="m2807.8 1310.9v2.9613" stroke="#004bff"/><path d="m2818.5 1310.9v1.9409" stroke="#0051ff"/><path d="m2829.1 1310.9v2.5811" stroke="#0056ff"/><path d="m2839.7 1310.9v3.2214" stroke="#005cff"/><path d="m2850.4 1310.9v3.9417" stroke="#0061ff"/><path d="m2861 1310.9v3.1514" stroke="#06f"/><path d="m2871.7 1310.9v5.4223" stroke="#006bff"/><path d="m2882.3 1310.9v5.8325" stroke="#0070ff"/><path d="m2893 1310.9v6.7529" stroke="#0075ff"/><path d="m2903.6 1310.9v7.1631" stroke="#007aff"/><path d="m2914.2 1310.9v10.695" stroke="#007fff"/><path d="m2924.9 1310.9v12.495" stroke="#0084ff"/><path d="m2935.5 1310.9v14.296" stroke="#0089ff"/><path d="m2946.2 1310.9v15.617" stroke="#008dff"/><path d="m2956.8 1310.9v18.618" stroke="#0092ff"/><path d="m2967.5 1310.9v21.059" stroke="#0097ff"/><path d="m2978.1 1310.9v23.51" stroke="#009bff"/><path d="m2988.8 1310.9v27.882" stroke="#00a0ff"/><path d="m2999.4 1310.9v31.694" stroke="#00a4ff"/><path d="m3010 1310.9v36.936" stroke="#00a9ff"/><path d="m3020.7 1310.9v41.768" stroke="#00adff"/><path d="m3031.3 1310.9v48.561" stroke="#00b2ff"/><path d="m3042 1310.9v55.594" stroke="#00b6ff"/><path d="m3052.6 1310.9v63.928" stroke="#0bf"/><path d="m3063.3 1310.9v72.741" stroke="#00bfff"/><path d="m3073.9 1310.9v82.496" stroke="#00c4ff"/><path d="m3084.5 1310.9v94.781" stroke="#00c8ff"/><path d="m3095.2 1310.9v107.29" stroke="#0cf"/><path d="m3105.8 1310.9v124.33" stroke="#00d1ff"/><path d="m3116.5 1310.9v139.39" stroke="#00d5ff"/><path d="m3127.1 1310.9v159.06" stroke="#00d9ff"/><path d="m3137.8 1310.9v179.97" stroke="#0df"/><path d="m3148.4 1310.9v203.08" stroke="#00e2ff"/><path d="m3159.1 1310.9v226.85" stroke="#00e6ff"/><path d="m3169.7 1310.9v255.39" stroke="#00eaff"/><path d="m3180.3 1310.9v284.64" stroke="#0ef"/><path d="m3191 1310.9v317.86" stroke="#00f2ff"/><path d="m3201.6 1310.9v353.43" stroke="#00f6ff"/><path d="m3212.3 1310.9v392.53" stroke="#00faff"/><path d="m3222.9 1310.9v434.14" stroke="#0ff"/><path d="m3233.6 1310.9v481.1" stroke="#00fff4"/><path d="m3244.2 1310.9v533.29" stroke="#00ffea"/><path d="m3254.8 1310.9v583.17" stroke="#00ffdf"/><path d="m3265.5 1310.9v640.96" stroke="#00ffd5"/><path d="m3276.1 1310.9v703.69" stroke="#00ffca"/><path d="m3286.8 1310.9v770.54" stroke="#00ffbf"/><path d="m3297.4 1310.9v840.7" stroke="#00ffb4"/><path d="m3308.1 1310.9v917.74" stroke="#00ffa9"/><path d="m3318.7 1310.9v991.21" stroke="#00ff9e"/><path d="m3329.3 1310.9v1072.3" stroke="#00ff92"/><path d="m3340 1310.9v1163.5" stroke="#00ff86"/><path d="m3350.6 1310.9v1250.7" stroke="#00ff7a"/><path d="m3361.3 1310.9v1343" stroke="#00ff6e"/><path d="m3371.9 1310.9v1435.3" stroke="#00ff61"/><path d="m3382.6 1310.9v1531.5" stroke="#00ff54"/><path d="m3393.2 1310.9v1624.5" stroke="#00ff46"/><path d="m3403.9 1310.9v1724.2" stroke="#00ff37"/><path d="m3414.5 1310.9v1811.5" stroke="#00ff28"/><path d="m3425.1 1310.9v1894.8" stroke="#00ff17"/><path d="m3435.8 1310.9v1982.3" stroke="#0f0"/><path d="m3446.4 1310.9v2051" stroke="#08ff00"/><path d="m3457.1 1310.9v2119.4" stroke="#0eff00"/><path d="m3467.7 1310.9v2176.3" stroke="#14ff00"/><path d="m3478.3 1310.9v2225" stroke="#19ff00"/><path d="m3489 1310.9v2258.2" stroke="#1eff00"/><path d="m3499.6 1310.9v2276.3" stroke="#23ff00"/><path d="m3510.3 1310.9v2291.1" stroke="#28ff00"/><path d="m3520.9 1310.9v2287.1" stroke="#2cff00"/><path d="m3531.6 1310.9v2278.8" stroke="#31ff00"/><path d="m3542.2 1310.9v2249" stroke="#35ff00"/><path d="m3552.9 1310.9v2212.2" stroke="#3aff00"/><path d="m3563.5 1310.9v2162.1" stroke="#3eff00"/><path d="m3574.1 1310.9v2111.8" stroke="#42ff00"/><path d="m3584.8 1310.9v2055.8" stroke="#46ff00"/><path d="m3595.4 1310.9v1982.2" stroke="#4aff00"/><path d="m3606.1 1310.9v1911.5" stroke="#4eff00"/><path d="m3616.7 1310.9v1836" stroke="#52ff00"/><path d="m3627.4 1310.9v1766.3" stroke="#56ff00"/><path d="m3638 1310.9v1686.5" stroke="#59ff00"/><path d="m3648.7 1310.9v1612.3" stroke="#5dff00"/><path d="m3659.3 1310.9v1536.4" stroke="#61ff00"/><path d="m3669.9 1310.9v1462.7" stroke="#65ff00"/><path d="m3680.6 1310.9v1391.9" stroke="#68ff00"/><path d="m3691.2 1310.9v1323.2" stroke="#6cff00"/><path d="m3701.9 1310.9v1258" stroke="#6fff00"/><path d="m3712.5 1310.9v1193.9" stroke="#73ff00"/><path d="m3723.2 1310.9v1130.7" stroke="#7f0"/><path d="m3733.8 1310.9v1069.8" stroke="#7aff00"/><path d="m3744.4 1310.9v1013.4" stroke="#7eff00"/><path d="m3755.1 1310.9v958.03" stroke="#81ff00"/><path d="m3765.7 1310.9v906.02" stroke="#84ff00"/><path d="m3776.4 1310.9v853.67" stroke="#8f0"/><path d="m3787 1310.9v805.84" stroke="#8bff00"/><path d="m3797.7 1310.9v757.56" stroke="#8fff00"/><path d="m3808.3 1310.9v709.5" stroke="#92ff00"/><path d="m3819 1310.9v667.29" stroke="#95ff00"/><path d="m3829.6 1310.9v628.58" stroke="#9f0"/><path d="m3840.2 1310.9v587.75" stroke="#9cff00"/><path d="m3850.9 1310.9v551.82" stroke="#9fff00"/><path d="m3861.5 1310.9v515.42" stroke="#a2ff00"/><path d="m3872.2 1310.9v484.38" stroke="#a6ff00"/><path d="m3882.8 1310.9v449.68" stroke="#a9ff00"/><path d="m3893.5 1310.9v418.1" stroke="#acff00"/><path d="m3904.1 1310.9v392.05" stroke="#afff00"/><path d="m3914.7 1310.9v367.24" stroke="#b3ff00"/><path d="m3925.4 1310.9v343.43" stroke="#b6ff00"/><path d="m3936 1310.9v321.1" stroke="#b9ff00"/><path d="m3946.7 1310.9v296.92" stroke="#bcff00"/><path d="m3957.3 1310.9v277.45" stroke="#bfff00"/><path d="m3968 1310.9v260.45" stroke="#c2ff00"/><path d="m3978.6 1310.9v243.84" stroke="#c5ff00"/><path d="m3989.3 1310.9v228.78" stroke="#c9ff00"/><path d="m3999.9 1310.9v212.33" stroke="#cf0"/><path d="m4010.5 1310.9v200.96" stroke="#cfff00"/><path d="m4021.2 1310.9v186.82" stroke="#d2ff00"/><path d="m4031.8 1310.9v175.33" stroke="#d5ff00"/><path d="m4042.5 1310.9v162.82" stroke="#d8ff00"/><path d="m4053.1 1310.9v151.4" stroke="#dbff00"/><path d="m4063.8 1310.9v143.44" stroke="#deff00"/><path d="m4074.4 1310.9v132.61" stroke="#e1ff00"/><path d="m4085 1310.9v124.87" stroke="#e4ff00"/><path d="m4095.7 1310.9v115.91" stroke="#e7ff00"/><path d="m4106.3 1310.9v107.51" stroke="#eaff00"/><path d="m4117 1310.9v100.15" stroke="#edff00"/><path d="m4127.6 1310.9v94.21" stroke="#f0ff00"/><path d="m4138.3 1310.9v87.858" stroke="#f3ff00"/><path d="m4148.9 1310.9v81.835" stroke="#f6ff00"/><path d="m4159.5 1310.9v78.014" stroke="#f9ff00"/><path d="m4170.2 1310.9v72.991" stroke="#fcff00"/><path d="m4180.8 1310.9v67.429" stroke="#ff0"/><path d="m4191.5 1310.9v61.566" stroke="#fffb00"/><path d="m4202.1 1310.9v59.476" stroke="#fff800"/><path d="m4212.8 1310.9v54.994" stroke="#fff500"/><path d="m4223.4 1310.9v53.103" stroke="#fff200"/><path d="m4234.1 1310.9v49.191" stroke="#ffef00"/><path d="m4244.7 1310.9v45.36" stroke="#ffeb00"/><path d="m4255.3 1310.9v42.238" stroke="#ffe800"/><path d="m4266 1310.9v40.437" stroke="#ffe500"/><path d="m4276.6 1310.9v38.076" stroke="#ffe200"/><path d="m4287.3 1310.9v36.046" stroke="#ffdf00"/><path d="m4297.9 1310.9v33.744" stroke="#ffdb00"/><path d="m4308.6 1310.9v30.113" stroke="#ffd800"/><path d="m4319.2 1310.9v29.423" stroke="#ffd500"/><path d="m4329.8 1310.9v27.402" stroke="#ffd200"/><path d="m4340.5 1310.9v26.221" stroke="#ffce00"/><path d="m4351.1 1310.9v24.661" stroke="#ffcb00"/><path d="m4361.8 1310.9v22.66" stroke="#ffc800"/><path d="m4372.4 1310.9v21.97" stroke="#ffc400"/><path d="m4383.1 1310.9v19.969" stroke="#ffc100"/><path d="m4393.7 1310.9v20.229" stroke="#ffbe00"/><path d="m4404.3 1310.9v17.798" stroke="#ffba00"/><path d="m4415 1310.9v16.697" stroke="#ffb700"/><path d="m4425.6 1310.9v16.977" stroke="#ffb300"/><path d="m4436.3 1310.9v15.207" stroke="#ffb000"/><path d="m4446.9 1310.9v14.486" stroke="#ffac00"/><path d="m4457.6 1310.9v13.756" stroke="#ffa900"/><path d="m4468.2 1310.9v13.726" stroke="#ffa500"/><path d="m4478.9 1310.9v12.525" stroke="#ffa200"/><path d="m4489.5 1310.9v12.115" stroke="#ff9e00"/><path d="m4500.1 1310.9v11.775" stroke="#ff9b00"/><path d="m4510.8 1310.9v9.5341" stroke="#ff9700"/><path d="m4521.4 1310.9v10.284" stroke="#ff9400"/><path d="m4532.1 1310.9v9.7242" stroke="#ff9000"/><path d="m4542.7 1310.9v8.4536" stroke="#ff8d00"/><path d="m4553.4 1310.9v10.224" stroke="#ff8900"/><path d="m4564 1310.9v7.7333" stroke="#ff8500"/><path d="m4574.6 1310.9v7.6333" stroke="#ff8100"/><path d="m4585.3 1310.9v6.8129" stroke="#ff7e00"/><path d="m4595.9 1310.9v7.6333" stroke="#ff7a00"/><path d="m4606.6 1310.9v6.7229" stroke="#ff7600"/><path d="m4617.2 1310.9v7.4132" stroke="#ff7200"/><path d="m4627.9 1310.9v6.4328" stroke="#ff6f00"/><path d="m4638.5 1310.9v5.3923" stroke="#ff6b00"/><path d="m4649.2 1310.9v6.6229" stroke="#ff6700"/><path d="m4659.8 1310.9v6.943" stroke="#ff6300"/><path d="m4670.4 1310.9v6.1527" stroke="#ff5f00"/><path d="m4681.1 1310.9v6.6829" stroke="#ff5b00"/><path d="m4691.7 1310.9v5.3923" stroke="#ff5700"/><path d="m4702.4 1310.9v5.2023" stroke="#ff5300"/><path d="m4713 1310.9v5.8325" stroke="#ff4e00"/><path d="m4723.7 1310.9v4.0017" stroke="#ff4a00"/><path d="m4734.3 1310.9v5.6424" stroke="#ff4600"/><path d="m4744.9 1310.9v5.3623" stroke="#ff4200"/><path d="m4755.6 1310.9v4.9822" stroke="#ff3d00"/><path d="m4766.2 1310.9v5.9326" stroke="#ff3900"/><path d="m4776.9 1310.9v4.542" stroke="#ff3400"/><path d="m4787.5 1310.9v3.5315" stroke="#ff2f00"/><path d="m4798.2 1310.9v5.1722" stroke="#ff2a00"/><path d="m4808.8 1310.9v4.2218" stroke="#ff2500"/><path d="m4819.5 1310.9v3.9717" stroke="#ff2000"/><path d="m4830.1 1310.9v3.3314" stroke="#ff1b00"/></g></g><g transform="translate(-187.14 4.0243)"><g transform="matrix(1.3636 0 0 -1.3636 -415.01 970.47)" stroke-width=".91672"><g fill="#000000" font-family="Lato"><g font-size="9.7293px"><text transform="matrix(.80219 0 0 -.80438 640.78 492.09)" x="36.944557" stroke-width="1.2168" style="font-variant-caps:normal;font-variant-east-asian:normal;font-variant-ligatures:normal;font-variant-numeric:normal" xml:space="preserve"><tspan x="36.944557" y="0" fill="#000000" font-family="Lato" font-size="9.7293px" stroke-width="1.2168" text-align="center" text-anchor="middle" style="font-variant-caps:normal;font-variant-east-asian:normal;font-variant-ligatures:normal;font-variant-numeric:normal">WaveLength (nm)</tspan></text><g stroke-width="1.2162"><text transform="matrix(.803 0 0 -.80438 473.81 694.38)" x="5.3358564" style="font-variant-caps:normal;font-variant-east-asian:normal;font-variant-ligatures:normal;font-variant-numeric:normal" xml:space="preserve"><tspan x="5.3358564" y="0" fill="#000000" font-family="Lato" font-size="9.7293px" stroke-width="1.2162" text-align="end" text-anchor="end" style="font-variant-caps:normal;font-variant-east-asian:normal;font-variant-ligatures:normal;font-variant-numeric:normal">1</tspan></text><text transform="matrix(.803 0 0 -.80438 473.78 657.43)" x="5.3358564" style="font-variant-caps:normal;font-variant-east-asian:normal;font-variant-ligatures:normal;font-variant-numeric:normal" xml:space="preserve"><tspan x="5.3358564" y="0" fill="#000000" font-family="Lato" font-size="9.7293px" stroke-width="1.2162" text-align="end" text-anchor="end" style="font-variant-caps:normal;font-variant-east-asian:normal;font-variant-ligatures:normal;font-variant-numeric:normal">0.8</tspan></text><text transform="matrix(.803 0 0 -.80438 473.73 620.6)" x="5.3358564" style="font-variant-caps:normal;font-variant-east-asian:normal;font-variant-ligatures:normal;font-variant-numeric:normal" xml:space="preserve"><tspan x="5.3358564" y="0" fill="#000000" font-family="Lato" font-size="9.7293px" stroke-width="1.2162" text-align="end" text-anchor="end" style="font-variant-caps:normal;font-variant-east-asian:normal;font-variant-ligatures:normal;font-variant-numeric:normal">0.6</tspan></text><text transform="matrix(.803 0 0 -.80438 473.55 583.71)" x="5.3358564" style="font-variant-caps:normal;font-variant-east-asian:normal;font-variant-ligatures:normal;font-variant-numeric:normal" xml:space="preserve"><tspan x="5.3358564" y="0" fill="#000000" font-family="Lato" font-size="9.7293px" stroke-width="1.2162" text-align="end" text-anchor="end" style="font-variant-caps:normal;font-variant-east-asian:normal;font-variant-ligatures:normal;font-variant-numeric:normal">0.4</tspan></text><text transform="matrix(.803 0 0 -.80438 473.78 546.87)" x="5.3358564" style="font-variant-caps:normal;font-variant-east-asian:normal;font-variant-ligatures:normal;font-variant-numeric:normal" xml:space="preserve"><tspan x="5.3358564" y="0" fill="#000000" font-family="Lato" font-size="9.7293px" stroke-width="1.2162" text-align="end" text-anchor="end" style="font-variant-caps:normal;font-variant-east-asian:normal;font-variant-ligatures:normal;font-variant-numeric:normal">0.2</tspan></text><text transform="matrix(.803 0 0 -.80438 473.61 509.99)" x="5.3358564" style="font-variant-caps:normal;font-variant-east-asian:normal;font-variant-ligatures:normal;font-variant-numeric:normal" xml:space="preserve"><tspan x="5.3358564" y="0" fill="#000000" font-family="Lato" font-size="9.7293px" stroke-width="1.2162" text-align="end" text-anchor="end" style="font-variant-caps:normal;font-variant-east-asian:normal;font-variant-ligatures:normal;font-variant-numeric:normal">0</tspan></text><text transform="matrix(.803 0 0 -.80438 486.57 502.62)" x="15.907482" style="font-variant-caps:normal;font-variant-east-asian:normal;font-variant-ligatures:normal;font-variant-numeric:normal" xml:space="preserve"><tspan x="15.907481" y="0" fill="#000000" font-family="Lato" font-size="9.7293px" stroke-width="1.2162" text-align="center" text-anchor="middle" style="font-variant-caps:normal;font-variant-east-asian:normal;font-variant-ligatures:normal;font-variant-numeric:normal">400</tspan></text><text transform="matrix(.803 0 0 -.80438 572.11 502.62)" x="15.907482" style="font-variant-caps:normal;font-variant-east-asian:normal;font-variant-ligatures:normal;font-variant-numeric:normal" xml:space="preserve"><tspan x="15.907481" y="0" fill="#000000" font-family="Lato" font-size="9.7293px" stroke-width="1.2162" text-align="center" text-anchor="middle" style="font-variant-caps:normal;font-variant-east-asian:normal;font-variant-ligatures:normal;font-variant-numeric:normal">500</tspan></text><text transform="matrix(.803 0 0 -.80438 657.51 502.62)" x="15.907482" style="font-variant-caps:normal;font-variant-east-asian:normal;font-variant-ligatures:normal;font-variant-numeric:normal" xml:space="preserve"><tspan x="15.907481" y="0" fill="#000000" font-family="Lato" font-size="9.7293px" stroke-width="1.2162" text-align="center" text-anchor="middle" style="font-variant-caps:normal;font-variant-east-asian:normal;font-variant-ligatures:normal;font-variant-numeric:normal">600</tspan></text><text transform="matrix(.803 0 0 -.80438 743.05 502.62)" x="15.907482" style="font-variant-caps:normal;font-variant-east-asian:normal;font-variant-ligatures:normal;font-variant-numeric:normal" xml:space="preserve"><tspan x="15.907481" y="0" fill="#000000" font-family="Lato" font-size="9.7293px" stroke-width="1.2162" text-align="center" text-anchor="middle" style="font-variant-caps:normal;font-variant-east-asian:normal;font-variant-ligatures:normal;font-variant-numeric:normal">700</tspan></text><text transform="matrix(.803 0 0 -.80438 828.56 502.62)" x="15.907482" style="font-variant-caps:normal;font-variant-east-asian:normal;font-variant-ligatures:normal;font-variant-numeric:normal" xml:space="preserve"><tspan x="15.907481" y="0" fill="#000000" font-family="Lato" font-size="9.7293px" stroke-width="1.2162" text-align="center" text-anchor="middle" style="font-variant-caps:normal;font-variant-east-asian:normal;font-variant-ligatures:normal;font-variant-numeric:normal">800</tspan></text></g></g><text transform="matrix(0 .80438 .803 0 462.03 573.5)" font-size="9.7293px" stroke-width="1.2162" style="font-variant-caps:normal;font-variant-east-asian:normal;font-variant-ligatures:normal;font-variant-numeric:normal" xml:space="preserve"><tspan x="0" y="0" fill="#000000" font-family="Lato" font-size="9.7293px" stroke-width="1.2162" style="font-variant-caps:normal;font-variant-east-asian:normal;font-variant-ligatures:normal;font-variant-numeric:normal">Relative Spectrum</tspan></text></g><g fill="none" stroke="#858585" stroke-width=".27518"><path transform="matrix(.79917 0 0 -.79985 -7.5232 459.73)" d="m617.27-296.75h-4.496v230.4h449.56v-4.4972"/><path transform="matrix(.79917 0 0 -.79985 -7.5232 459.73)" d="m612.77-250.67h4.496"/><path transform="matrix(.79917 0 0 -.79985 -7.5232 459.73)" d="m612.77-204.59h4.496"/><path transform="matrix(.79917 0 0 -.79985 -7.5232 459.73)" d="m612.77-158.5h4.496"/><path transform="matrix(.79917 0 0 -.79985 -7.5232 459.73)" d="m612.77-112.42h4.496"/><path transform="matrix(.79917 0 0 -.79985 -7.5232 459.73)" d="m634.18-66.344v-4.4972"/><path transform="matrix(.79917 0 0 -.79985 -7.5232 459.73)" d="m741.22-66.344 2e-5 -4.4972"/><path transform="matrix(.79917 0 0 -.79985 -7.5232 459.73)" d="m848.25-66.344 2e-5 -4.4972"/><path transform="matrix(.79917 0 0 -.79985 -7.5232 459.73)" d="m955.29-66.344v-4.4972"/></g></g></g></svg>
