<svg width="960" height="400" version="1.1" viewBox="0 0 960 400" xml:space="preserve" xmlns="http://www.w3.org/2000/svg"><g fill="#000000"><g font-family="Lato"><text transform="matrix(1.899 0 0 1.9002 29.504 329.65)" font-size="8.4228px" font-weight="bold" stroke="#000000" stroke-linecap="round" stroke-linejoin="round" stroke-miterlimit="10" stroke-width=".2" style="font-variant-caps:normal;font-variant-east-asian:normal;font-variant-ligatures:normal;font-variant-numeric:normal;line-height:0%"><tspan x="0" y="0" font-family="Lato" font-size="8.4228px" font-weight="bold" stroke="none" style="font-variant-caps:normal;font-variant-east-asian:normal;font-variant-ligatures:normal;font-variant-numeric:normal;line-height:1.25">CIE Colorimetric Parameters</tspan></text><text transform="matrix(1.899 0 0 1.9002 29.28 351.56)" font-size="8.4228px" style="font-variant-caps:normal;font-variant-east-asian:normal;font-variant-ligatures:normal;font-variant-numeric:normal;line-height:0%"><tspan x="0" y="0" dy="0 0 0 0 0 0 0 0 0 0 0 0 0 0 0 0 0 0 0 0 0 0 0 0 0 0 0 0 0" font-family="Lato" font-size="8.4228px" style="font-variant-caps:normal;font-variant-east-asian:normal;font-variant-ligatures:normal;font-variant-numeric:normal;line-height:1.25">Chromaticity coordinates: x=0.3287 y=0.3417 u'=0.2041 v'=0.4773</tspan></text><text transform="matrix(1.8996 0 0 1.9008 -7.229 1524.1)" x="19.2194" y="-605.67859" font-size="8.4203px" stroke-width=".9997" style="font-variant-caps:normal;font-variant-east-asian:normal;font-variant-ligatures:normal;font-variant-numeric:normal;line-height:0%"><tspan x="19.2194" y="-605.67859" dy="0 0 0 0 0 0 0 0" font-family="Lato" font-size="8.4203px" stroke-width=".9997" style="font-variant-caps:normal;font-variant-east-asian:normal;font-variant-ligatures:normal;font-variant-numeric:normal;line-height:1.25">CCT: Tc=5668K</tspan></text></g><text transform="matrix(1.899 0 0 1.9002 419.62 372.9)" font-family="sans-serif" font-size="8.4228px" style="font-variant-caps:normal;font-variant-east-asian:normal;font-variant-ligatures:normal;font-variant-numeric:normal;line-height:0%"><tspan x="0" y="0" font-family="sans-serif" font-size="8.4228px" style="font-variant-caps:normal;font-variant-east-asian:normal;font-variant-ligatures:normal;font-variant-numeric:normal;line-height:1.25">Color Ratio: R=0.149 G=0.798 B=0.053 </tspan></text><text transform="matrix(1.899 0 0 1.9002 238.78 372.99)" font-family="Lato" font-size="8.4228px" style="font-variant-caps:normal;font-variant-east-asian:normal;font-variant-ligatures:normal;font-variant-numeric:normal;line-height:0%"><tspan x="0" y="0" font-family="Lato" font-size="8.4228px" style="font-variant-caps:normal;font-variant-east-asian:normal;font-variant-ligatures:normal;font-variant-numeric:normal;line-height:1.25">CRI: Ra= 82</tspan></text></g><g fill="none" stroke-linejoin="round" stroke-miterlimit="2" stroke-width="24.402"><path transform="matrix(.10923 0 0 .10943 354.97 585.18)" d="m5392.5-2867.5v-3.75" stroke="#630000"/><path transform="matrix(.10923 0 0 .10943 354.97 585.18)" d="m930.9-2867.5v-8.74" stroke="#610061"/><path transform="matrix(.10923 0 0 .10943 354.97 585.18)" d="m941.55-2867.5v-10.38" stroke="#640065"/><path transform="matrix(.10923 0 0 .10943 354.97 585.18)" d="m952.2-2867.5v-9.5" stroke="#67006a"/><path transform="matrix(.10923 0 0 .10943 354.97 585.18)" d="m962.85-2867.5v-11.52" stroke="#6a006e"/><path transform="matrix(.10923 0 0 .10943 354.97 585.18)" d="m973.49-2867.5v-5.2" stroke="#6c0073"/><path transform="matrix(.10923 0 0 .10943 354.97 585.18)" d="m984.15-2867.5v-1.8" stroke="#6f0077"/><path transform="matrix(.10923 0 0 .10943 354.97 585.18)" d="m994.79-2867.5v-2.08" stroke="#71007b"/><path transform="matrix(.10923 0 0 .10943 354.97 585.18)" d="m1005.4-2867.5v-1" stroke="#73007f"/><path transform="matrix(.10923 0 0 .10943 354.97 585.18)" d="m1016.1-2867.5v-4.01" stroke="#750084"/><path transform="matrix(.10923 0 0 .10943 354.97 585.18)" d="m1026.7-2867.5v-4.76" stroke="#708"/><path transform="matrix(.10923 0 0 .10943 354.97 585.18)" d="m1037.4-2867.5v-3.69" stroke="#79008c"/><path transform="matrix(.10923 0 0 .10943 354.97 585.18)" d="m1048-2867.5v-4.32" stroke="#7b0090"/><path transform="matrix(.10923 0 0 .10943 354.97 585.18)" d="m1058.7-2867.5v-1.48" stroke="#7c0094"/><path transform="matrix(.10923 0 0 .10943 354.97 585.18)" d="m1069.3-2867.5v-2.33" stroke="#7d0098"/><path transform="matrix(.10923 0 0 .10943 354.97 585.18)" d="m1080-2867.5v-2.51" stroke="#7e009c"/><path transform="matrix(.10923 0 0 .10943 354.97 585.18)" d="m1090.6-2867.5v-1.76" stroke="#7f00a0"/><path transform="matrix(.10923 0 0 .10943 354.97 585.18)" d="m1101.3-2867.5v-3.33" stroke="#8000a4"/><path transform="matrix(.10923 0 0 .10943 354.97 585.18)" d="m1111.9-2867.5v-2.3" stroke="#8100a8"/><path transform="matrix(.10923 0 0 .10943 354.97 585.18)" d="m1122.6-2867.5v-4.32" stroke="#8100ac"/><path transform="matrix(.10923 0 0 .10943 354.97 585.18)" d="m1133.2-2867.5v-1.6" stroke="#8200b0"/><path transform="matrix(.10923 0 0 .10943 354.97 585.18)" d="m1143.9-2867.5v-3.31" stroke="#8200b4"/><path transform="matrix(.10923 0 0 .10943 354.97 585.18)" d="m1154.5-2867.5v-1.92" stroke="#8200b8"/><path transform="matrix(.10923 0 0 .10943 354.97 585.18)" d="m1165.2-2867.5v-2.83" stroke="#8200bc"/><path transform="matrix(.10923 0 0 .10943 354.97 585.18)" d="m1175.8-2867.5v-2.67" stroke="#8200c0"/><path transform="matrix(.10923 0 0 .10943 354.97 585.18)" d="m1186.5-2867.5v-4.2" stroke="#8200c4"/><path transform="matrix(.10923 0 0 .10943 354.97 585.18)" d="m1197.1-2867.5v-3.03" stroke="#8100c7"/><path transform="matrix(.10923 0 0 .10943 354.97 585.18)" d="m1207.8-2867.5v-4.04" stroke="#8100cb"/><path transform="matrix(.10923 0 0 .10943 354.97 585.18)" d="m1218.4-2867.5v-3.91" stroke="#8000cf"/><path transform="matrix(.10923 0 0 .10943 354.97 585.18)" d="m1229-2867.5v-4.48" stroke="#7f00d3"/><path transform="matrix(.10923 0 0 .10943 354.97 585.18)" d="m1239.7-2867.5v-6.19" stroke="#7e00d6"/><path transform="matrix(.10923 0 0 .10943 354.97 585.18)" d="m1250.4-2867.5v-9.18" stroke="#7d00da"/><path transform="matrix(.10923 0 0 .10943 354.97 585.18)" d="m1261-2867.5v-9.63" stroke="#7c00de"/><path transform="matrix(.10923 0 0 .10943 354.97 585.18)" d="m1271.6-2867.5v-12.78" stroke="#7a00e2"/><path transform="matrix(.10923 0 0 .10943 354.97 585.18)" d="m1282.3-2867.5v-14.93" stroke="#7900e5"/><path transform="matrix(.10923 0 0 .10943 354.97 585.18)" d="m1292.9-2867.5v-17.33" stroke="#7700e9"/><path transform="matrix(.10923 0 0 .10943 354.97 585.18)" d="m1303.6-2867.5v-22.6" stroke="#7500ec"/><path transform="matrix(.10923 0 0 .10943 354.97 585.18)" d="m1314.2-2867.5v-25.73" stroke="#7300f0"/><path transform="matrix(.10923 0 0 .10943 354.97 585.18)" d="m1324.9-2867.5v-29.9" stroke="#7100f4"/><path transform="matrix(.10923 0 0 .10943 354.97 585.18)" d="m1335.5-2867.5v-36.34" stroke="#6f00f7"/><path transform="matrix(.10923 0 0 .10943 354.97 585.18)" d="m1346.2-2867.5v-43.19" stroke="#6c00fb"/><path transform="matrix(.10923 0 0 .10943 354.97 585.18)" d="m1356.8-2867.5v-51.76" stroke="#6900ff"/><path transform="matrix(.10923 0 0 .10943 354.97 585.18)" d="m1367.5-2867.5v-59.58" stroke="#6500ff"/><path transform="matrix(.10923 0 0 .10943 354.97 585.18)" d="m1378.1-2867.5v-70.47" stroke="#6100ff"/><path transform="matrix(.10923 0 0 .10943 354.97 585.18)" d="m1388.8-2867.5v-81.88" stroke="#5c00ff"/><path transform="matrix(.10923 0 0 .10943 354.97 585.18)" d="m1399.4-2867.5v-95.2" stroke="#5800ff"/><path transform="matrix(.10923 0 0 .10943 354.97 585.18)" d="m1410.1-2867.5v-110.2" stroke="#5400ff"/><path transform="matrix(.10923 0 0 .10943 354.97 585.18)" d="m1420.7-2867.5v-127.77" stroke="#4f00ff"/><path transform="matrix(.10923 0 0 .10943 354.97 585.18)" d="m1431.4-2867.5v-146.85" stroke="#4b00ff"/><path transform="matrix(.10923 0 0 .10943 354.97 585.18)" d="m1442-2867.5v-170.09" stroke="#4600ff"/><path transform="matrix(.10923 0 0 .10943 354.97 585.18)" d="m1452.7-2867.5v-194.47" stroke="#4100ff"/><path transform="matrix(.10923 0 0 .10943 354.97 585.18)" d="m1463.3-2867.5v-224.53" stroke="#3c00ff"/><path transform="matrix(.10923 0 0 .10943 354.97 585.18)" d="m1474-2867.5v-255.23" stroke="#3700ff"/><path transform="matrix(.10923 0 0 .10943 354.97 585.18)" d="m1484.6-2867.5v-292.58" stroke="#3200ff"/><path transform="matrix(.10923 0 0 .10943 354.97 585.18)" d="m1495.2-2867.5v-331.62" stroke="#2d00ff"/><path transform="matrix(.10923 0 0 .10943 354.97 585.18)" d="m1505.9-2867.5v-378.45" stroke="#2800ff"/><path transform="matrix(.10923 0 0 .10943 354.97 585.18)" d="m1516.6-2867.5v-431" stroke="#20f"/><path transform="matrix(.10923 0 0 .10943 354.97 585.18)" d="m1527.2-2867.5v-491.01" stroke="#1d00ff"/><path transform="matrix(.10923 0 0 .10943 354.97 585.18)" d="m1537.8-2867.5v-555.84" stroke="#1700ff"/><path transform="matrix(.10923 0 0 .10943 354.97 585.18)" d="m1548.5-2867.5v-636.34" stroke="#1000ff"/><path transform="matrix(.10923 0 0 .10943 354.97 585.18)" d="m1559.2-2867.5v-730.26" stroke="#0900ff"/><path transform="matrix(.10923 0 0 .10943 354.97 585.18)" d="m1569.8-2867.5v-840.61" stroke="#00f"/><path transform="matrix(.10923 0 0 .10943 354.97 585.18)" d="m1580.4-2867.5v-972.64" stroke="#000bff"/><path transform="matrix(.10923 0 0 .10943 354.97 585.18)" d="m1591.1-2867.5v-1124.3" stroke="#0013ff"/><path transform="matrix(.10923 0 0 .10943 354.97 585.18)" d="m1601.7-2867.5v-1290.8" stroke="#001aff"/><path transform="matrix(.10923 0 0 .10943 354.97 585.18)" d="m1612.4-2867.5v-1471" stroke="#0021ff"/><path transform="matrix(.10923 0 0 .10943 354.97 585.18)" d="m1623-2867.5v-1658.7" stroke="#0028ff"/><path transform="matrix(.10923 0 0 .10943 354.97 585.18)" d="m1633.7-2867.5v-1844.3" stroke="#002eff"/><path transform="matrix(.10923 0 0 .10943 354.97 585.18)" d="m1644.3-2867.5v-2016.9" stroke="#0034ff"/><path transform="matrix(.10923 0 0 .10943 354.97 585.18)" d="m1655-2867.5v-2153.6" stroke="#003aff"/><path transform="matrix(.10923 0 0 .10943 354.97 585.18)" d="m1665.6-2867.5v-2234.9" stroke="#0040ff"/><path transform="matrix(.10923 0 0 .10943 354.97 585.18)" d="m1676.3-2867.5v-2290.1" stroke="#0046ff"/><path transform="matrix(.10923 0 0 .10943 354.97 585.18)" d="m1686.9-2867.5v-2278.4" stroke="#004bff"/><path transform="matrix(.10923 0 0 .10943 354.97 585.18)" d="m1697.6-2867.5v-2227.7" stroke="#0051ff"/><path transform="matrix(.10923 0 0 .10943 354.97 585.18)" d="m1708.2-2867.5v-2136.9" stroke="#0056ff"/><path transform="matrix(.10923 0 0 .10943 354.97 585.18)" d="m1718.9-2867.5v-2006.5" stroke="#005cff"/><path transform="matrix(.10923 0 0 .10943 354.97 585.18)" d="m1729.5-2867.5v-1860.4" stroke="#0061ff"/><path transform="matrix(.10923 0 0 .10943 354.97 585.18)" d="m1740.2-2867.5v-1721.4" stroke="#06f"/><path transform="matrix(.10923 0 0 .10943 354.97 585.18)" d="m1750.8-2867.5v-1583.3" stroke="#006bff"/><path transform="matrix(.10923 0 0 .10943 354.97 585.18)" d="m1761.5-2867.5v-1463.4" stroke="#0070ff"/><path transform="matrix(.10923 0 0 .10943 354.97 585.18)" d="m1772.1-2867.5v-1356.1" stroke="#0075ff"/><path transform="matrix(.10923 0 0 .10943 354.97 585.18)" d="m1782.8-2867.5v-1283.3" stroke="#007aff"/><path transform="matrix(.10923 0 0 .10943 354.97 585.18)" d="m1793.4-2867.5v-1212.7" stroke="#007fff"/><path transform="matrix(.10923 0 0 .10943 354.97 585.18)" d="m1804.1-2867.5v-1163.7" stroke="#0084ff"/><path transform="matrix(.10923 0 0 .10943 354.97 585.18)" d="m1814.7-2867.5v-1119.6" stroke="#0089ff"/><path transform="matrix(.10923 0 0 .10943 354.97 585.18)" d="m1825.4-2867.5v-1077" stroke="#008dff"/><path transform="matrix(.10923 0 0 .10943 354.97 585.18)" d="m1836-2867.5v-1039.4" stroke="#0092ff"/><path transform="matrix(.10923 0 0 .10943 354.97 585.18)" d="m1846.6-2867.5v-994.5" stroke="#0097ff"/><path transform="matrix(.10923 0 0 .10943 354.97 585.18)" d="m1857.3-2867.5v-951.2" stroke="#009bff"/><path transform="matrix(.10923 0 0 .10943 354.97 585.18)" d="m1868-2867.5v-899.41" stroke="#00a0ff"/><path transform="matrix(.10923 0 0 .10943 354.97 585.18)" d="m1878.6-2867.5v-845.88" stroke="#00a4ff"/><path transform="matrix(.10923 0 0 .10943 354.97 585.18)" d="m1889.2-2867.5v-793.11" stroke="#00a9ff"/><path transform="matrix(.10923 0 0 .10943 354.97 585.18)" d="m1899.9-2867.5v-740.36" stroke="#00adff"/><path transform="matrix(.10923 0 0 .10943 354.97 585.18)" d="m1910.5-2867.5v-696.66" stroke="#00b2ff"/><path transform="matrix(.10923 0 0 .10943 354.97 585.18)" d="m1921.2-2867.5v-654.31" stroke="#00b6ff"/><path transform="matrix(.10923 0 0 .10943 354.97 585.18)" d="m1931.8-2867.5v-621.78" stroke="#0bf"/><path transform="matrix(.10923 0 0 .10943 354.97 585.18)" d="m1942.5-2867.5v-595.19" stroke="#00bfff"/><path transform="matrix(.10923 0 0 .10943 354.97 585.18)" d="m1953.1-2867.5v-577" stroke="#00c4ff"/><path transform="matrix(.10923 0 0 .10943 354.97 585.18)" d="m1963.8-2867.5v-564.94" stroke="#00c8ff"/><path transform="matrix(.10923 0 0 .10943 354.97 585.18)" d="m1974.4-2867.5v-555.21" stroke="#0cf"/><path transform="matrix(.10923 0 0 .10943 354.97 585.18)" d="m1985.1-2867.5v-552.24" stroke="#00d1ff"/><path transform="matrix(.10923 0 0 .10943 354.97 585.18)" d="m1995.7-2867.5v-550.09" stroke="#00d5ff"/><path transform="matrix(.10923 0 0 .10943 354.97 585.18)" d="m2006.4-2867.5v-551.07" stroke="#00d9ff"/><path transform="matrix(.10923 0 0 .10943 354.97 585.18)" d="m2017-2867.5v-554.79" stroke="#0df"/><path transform="matrix(.10923 0 0 .10943 354.97 585.18)" d="m2027.7-2867.5v-557.92" stroke="#00e2ff"/><path transform="matrix(.10923 0 0 .10943 354.97 585.18)" d="m2038.3-2867.5v-561.12" stroke="#00e6ff"/><path transform="matrix(.10923 0 0 .10943 354.97 585.18)" d="m2049-2867.5v-566.11" stroke="#00eaff"/><path transform="matrix(.10923 0 0 .10943 354.97 585.18)" d="m2059.6-2867.5v-571.19" stroke="#0ef"/><path transform="matrix(.10923 0 0 .10943 354.97 585.18)" d="m2070.3-2867.5v-580.32" stroke="#00f2ff"/><path transform="matrix(.10923 0 0 .10943 354.97 585.18)" d="m2080.9-2867.5v-587.68" stroke="#00f6ff"/><path transform="matrix(.10923 0 0 .10943 354.97 585.18)" d="m2091.6-2867.5v-598.7" stroke="#00faff"/><path transform="matrix(.10923 0 0 .10943 354.97 585.18)" d="m2102.2-2867.5v-610.63" stroke="#0ff"/><path transform="matrix(.10923 0 0 .10943 354.97 585.18)" d="m2112.8-2867.5v-620.93" stroke="#00fff4"/><path transform="matrix(.10923 0 0 .10943 354.97 585.18)" d="m2123.5-2867.5v-636.94" stroke="#00ffea"/><path transform="matrix(.10923 0 0 .10943 354.97 585.18)" d="m2134.2-2867.5v-653.9" stroke="#00ffdf"/><path transform="matrix(.10923 0 0 .10943 354.97 585.18)" d="m2144.8-2867.5v-669.06" stroke="#00ffd5"/><path transform="matrix(.10923 0 0 .10943 354.97 585.18)" d="m2155.4-2867.5v-688.7" stroke="#00ffca"/><path transform="matrix(.10923 0 0 .10943 354.97 585.18)" d="m2166.1-2867.5v-703.17" stroke="#00ffbf"/><path transform="matrix(.10923 0 0 .10943 354.97 585.18)" d="m2176.7-2867.5v-723" stroke="#00ffb4"/><path transform="matrix(.10923 0 0 .10943 354.97 585.18)" d="m2187.4-2867.5v-739.1" stroke="#00ffa9"/><path transform="matrix(.10923 0 0 .10943 354.97 585.18)" d="m2198-2867.5v-755.94" stroke="#00ff9e"/><path transform="matrix(.10923 0 0 .10943 354.97 585.18)" d="m2208.7-2867.5v-774.79" stroke="#00ff92"/><path transform="matrix(.10923 0 0 .10943 354.97 585.18)" d="m2219.3-2867.5v-790.76" stroke="#00ff86"/><path transform="matrix(.10923 0 0 .10943 354.97 585.18)" d="m2230-2867.5v-805.42" stroke="#00ff7a"/><path transform="matrix(.10923 0 0 .10943 354.97 585.18)" d="m2240.6-2867.5v-821.47" stroke="#00ff6e"/><path transform="matrix(.10923 0 0 .10943 354.97 585.18)" d="m2251.3-2867.5v-835.83" stroke="#00ff61"/><path transform="matrix(.10923 0 0 .10943 354.97 585.18)" d="m2261.9-2867.5v-847.71" stroke="#00ff54"/><path transform="matrix(.10923 0 0 .10943 354.97 585.18)" d="m2272.6-2867.5v-861.8" stroke="#00ff46"/><path transform="matrix(.10923 0 0 .10943 354.97 585.18)" d="m2283.2-2867.5v-873.54" stroke="#00ff37"/><path transform="matrix(.10923 0 0 .10943 354.97 585.18)" d="m2293.9-2867.5v-884.43" stroke="#00ff28"/><path transform="matrix(.10923 0 0 .10943 354.97 585.18)" d="m2304.5-2867.5v-895.17" stroke="#00ff17"/><path transform="matrix(.10923 0 0 .10943 354.97 585.18)" d="m2315.2-2867.5v-905.41" stroke="#0f0"/><path transform="matrix(.10923 0 0 .10943 354.97 585.18)" d="m2325.8-2867.5v-913.9" stroke="#08ff00"/><path transform="matrix(.10923 0 0 .10943 354.97 585.18)" d="m2336.5-2867.5v-923.06" stroke="#0eff00"/><path transform="matrix(.10923 0 0 .10943 354.97 585.18)" d="m2347.1-2867.5v-932.05" stroke="#14ff00"/><path transform="matrix(.10923 0 0 .10943 354.97 585.18)" d="m2357.8-2867.5v-939.26" stroke="#19ff00"/><path transform="matrix(.10923 0 0 .10943 354.97 585.18)" d="m2368.4-2867.5v-947.25" stroke="#1eff00"/><path transform="matrix(.10923 0 0 .10943 354.97 585.18)" d="m2379.1-2867.5v-954.39" stroke="#23ff00"/><path transform="matrix(.10923 0 0 .10943 354.97 585.18)" d="m2389.7-2867.5v-960.17" stroke="#28ff00"/><path transform="matrix(.10923 0 0 .10943 354.97 585.18)" d="m2400.4-2867.5v-964.46" stroke="#2cff00"/><path transform="matrix(.10923 0 0 .10943 354.97 585.18)" d="m2411-2867.5v-968" stroke="#31ff00"/><path transform="matrix(.10923 0 0 .10943 354.97 585.18)" d="m2421.6-2867.5v-974.03" stroke="#35ff00"/><path transform="matrix(.10923 0 0 .10943 354.97 585.18)" d="m2432.3-2867.5v-978.48" stroke="#3aff00"/><path transform="matrix(.10923 0 0 .10943 354.97 585.18)" d="m2442.9-2867.5v-979.28" stroke="#3eff00"/><path transform="matrix(.10923 0 0 .10943 354.97 585.18)" d="m2453.6-2867.5v-982.69" stroke="#42ff00"/><path transform="matrix(.10923 0 0 .10943 354.97 585.18)" d="m2464.2-2867.5v-985.62" stroke="#46ff00"/><path transform="matrix(.10923 0 0 .10943 354.97 585.18)" d="m2474.9-2867.5v-989.25" stroke="#4aff00"/><path transform="matrix(.10923 0 0 .10943 354.97 585.18)" d="m2485.5-2867.5v-990.23" stroke="#4eff00"/><path transform="matrix(.10923 0 0 .10943 354.97 585.18)" d="m2496.2-2867.5v-993.92" stroke="#52ff00"/><path transform="matrix(.10923 0 0 .10943 354.97 585.18)" d="m2506.8-2867.5v-995.82" stroke="#56ff00"/><path transform="matrix(.10923 0 0 .10943 354.97 585.18)" d="m2517.5-2867.5v-1000.3" stroke="#59ff00"/><path transform="matrix(.10923 0 0 .10943 354.97 585.18)" d="m2528.1-2867.5v-1000.8" stroke="#5dff00"/><path transform="matrix(.10923 0 0 .10943 354.97 585.18)" d="m2538.8-2867.5v-1000.8" stroke="#61ff00"/><path transform="matrix(.10923 0 0 .10943 354.97 585.18)" d="m2549.4-2867.5v-1004" stroke="#65ff00"/><path transform="matrix(.10923 0 0 .10943 354.97 585.18)" d="m2560.1-2867.5v-1006.3" stroke="#68ff00"/><path transform="matrix(.10923 0 0 .10943 354.97 585.18)" d="m2570.7-2867.5v-1007.8" stroke="#6cff00"/><path transform="matrix(.10923 0 0 .10943 354.97 585.18)" d="m2581.4-2867.5v-1007.8" stroke="#6fff00"/><path transform="matrix(.10923 0 0 .10943 354.97 585.18)" d="m2592-2867.5v-1011.6" stroke="#73ff00"/><path transform="matrix(.10923 0 0 .10943 354.97 585.18)" d="m2602.7-2867.5v-1011" stroke="#7f0"/><path transform="matrix(.10923 0 0 .10943 354.97 585.18)" d="m2613.3-2867.5v-1015.8" stroke="#7aff00"/><path transform="matrix(.10923 0 0 .10943 354.97 585.18)" d="m2624-2867.5v-1016.4" stroke="#7eff00"/><path transform="matrix(.10923 0 0 .10943 354.97 585.18)" d="m2634.6-2867.5v-1018.9" stroke="#81ff00"/><path transform="matrix(.10923 0 0 .10943 354.97 585.18)" d="m2645.3-2867.5v-1018.3" stroke="#84ff00"/><path transform="matrix(.10923 0 0 .10943 354.97 585.18)" d="m2655.9-2867.5v-1019.7" stroke="#8f0"/><path transform="matrix(.10923 0 0 .10943 354.97 585.18)" d="m2666.6-2867.5v-1023.7" stroke="#8bff00"/><path transform="matrix(.10923 0 0 .10943 354.97 585.18)" d="m2677.2-2867.5v-1022.9" stroke="#8fff00"/><path transform="matrix(.10923 0 0 .10943 354.97 585.18)" d="m2687.8-2867.5v-1026.5" stroke="#92ff00"/><path transform="matrix(.10923 0 0 .10943 354.97 585.18)" d="m2698.5-2867.5v-1026.8" stroke="#95ff00"/><path transform="matrix(.10923 0 0 .10943 354.97 585.18)" d="m2709.2-2867.5v-1027.4" stroke="#9f0"/><path transform="matrix(.10923 0 0 .10943 354.97 585.18)" d="m2719.8-2867.5v-1030.8" stroke="#9cff00"/><path transform="matrix(.10923 0 0 .10943 354.97 585.18)" d="m2730.4-2867.5v-1032.5" stroke="#9fff00"/><path transform="matrix(.10923 0 0 .10943 354.97 585.18)" d="m2741.1-2867.5v-1032.9" stroke="#a2ff00"/><path transform="matrix(.10923 0 0 .10943 354.97 585.18)" d="m2751.7-2867.5v-1034.2" stroke="#a6ff00"/><path transform="matrix(.10923 0 0 .10943 354.97 585.18)" d="m2762.4-2867.5v-1038.4" stroke="#a9ff00"/><path transform="matrix(.10923 0 0 .10943 354.97 585.18)" d="m2773-2867.5v-1040.1" stroke="#acff00"/><path transform="matrix(.10923 0 0 .10943 354.97 585.18)" d="m2783.7-2867.5v-1042.9" stroke="#afff00"/><path transform="matrix(.10923 0 0 .10943 354.97 585.18)" d="m2794.3-2867.5v-1044.7" stroke="#b3ff00"/><path transform="matrix(.10923 0 0 .10943 354.97 585.18)" d="m2805-2867.5v-1046.8" stroke="#b6ff00"/><path transform="matrix(.10923 0 0 .10943 354.97 585.18)" d="m2815.6-2867.5v-1045.6" stroke="#b9ff00"/><path transform="matrix(.10923 0 0 .10943 354.97 585.18)" d="m2826.3-2867.5v-1046.5" stroke="#bcff00"/><path transform="matrix(.10923 0 0 .10943 354.97 585.18)" d="m2836.9-2867.5v-1052.8" stroke="#bfff00"/><path transform="matrix(.10923 0 0 .10943 354.97 585.18)" d="m2847.6-2867.5v-1053.4" stroke="#c2ff00"/><path transform="matrix(.10923 0 0 .10943 354.97 585.18)" d="m2858.2-2867.5v-1053.6" stroke="#c5ff00"/><path transform="matrix(.10923 0 0 .10943 354.97 585.18)" d="m2868.9-2867.5v-1055" stroke="#c9ff00"/><path transform="matrix(.10923 0 0 .10943 354.97 585.18)" d="m2879.5-2867.5v-1058.6" stroke="#cf0"/><path transform="matrix(.10923 0 0 .10943 354.97 585.18)" d="m2890.2-2867.5v-1058.8" stroke="#cfff00"/><path transform="matrix(.10923 0 0 .10943 354.97 585.18)" d="m2900.8-2867.5v-1060.1" stroke="#d2ff00"/><path transform="matrix(.10923 0 0 .10943 354.97 585.18)" d="m2911.5-2867.5v-1063.2" stroke="#d5ff00"/><path transform="matrix(.10923 0 0 .10943 354.97 585.18)" d="m2922.1-2867.5v-1063.3" stroke="#d8ff00"/><path transform="matrix(.10923 0 0 .10943 354.97 585.18)" d="m2932.8-2867.5v-1065.8" stroke="#dbff00"/><path transform="matrix(.10923 0 0 .10943 354.97 585.18)" d="m2943.4-2867.5v-1064.7" stroke="#deff00"/><path transform="matrix(.10923 0 0 .10943 354.97 585.18)" d="m2954-2867.5v-1069" stroke="#e1ff00"/><path transform="matrix(.10923 0 0 .10943 354.97 585.18)" d="m2964.7-2867.5v-1068.6" stroke="#e4ff00"/><path transform="matrix(.10923 0 0 .10943 354.97 585.18)" d="m2975.4-2867.5v-1069.2" stroke="#e7ff00"/><path transform="matrix(.10923 0 0 .10943 354.97 585.18)" d="m2986-2867.5v-1073.4" stroke="#eaff00"/><path transform="matrix(.10923 0 0 .10943 354.97 585.18)" d="m2996.6-2867.5v-1073.8" stroke="#edff00"/><path transform="matrix(.10923 0 0 .10943 354.97 585.18)" d="m3007.3-2867.5v-1074.2" stroke="#f0ff00"/><path transform="matrix(.10923 0 0 .10943 354.97 585.18)" d="m3018-2867.5v-1073.9" stroke="#f3ff00"/><path transform="matrix(.10923 0 0 .10943 354.97 585.18)" d="m3028.6-2867.5v-1072.7" stroke="#f6ff00"/><path transform="matrix(.10923 0 0 .10943 354.97 585.18)" d="m3039.2-2867.5v-1075.5" stroke="#f9ff00"/><path transform="matrix(.10923 0 0 .10943 354.97 585.18)" d="m3049.9-2867.5v-1074.2" stroke="#fcff00"/><path transform="matrix(.10923 0 0 .10943 354.97 585.18)" d="m3060.5-2867.5v-1074.2" stroke="#ff0"/><path transform="matrix(.10923 0 0 .10943 354.97 585.18)" d="m3071.2-2867.5v-1074" stroke="#fffb00"/><path transform="matrix(.10923 0 0 .10943 354.97 585.18)" d="m3081.8-2867.5v-1071.8" stroke="#fff800"/><path transform="matrix(.10923 0 0 .10943 354.97 585.18)" d="m3092.5-2867.5v-1074.6" stroke="#fff500"/><path transform="matrix(.10923 0 0 .10943 354.97 585.18)" d="m3103.1-2867.5v-1071.2" stroke="#fff200"/><path transform="matrix(.10923 0 0 .10943 354.97 585.18)" d="m3113.8-2867.5v-1069.8" stroke="#ffef00"/><path transform="matrix(.10923 0 0 .10943 354.97 585.18)" d="m3124.4-2867.5v-1070.2" stroke="#ffeb00"/><path transform="matrix(.10923 0 0 .10943 354.97 585.18)" d="m3135.1-2867.5v-1069.1" stroke="#ffe800"/><path transform="matrix(.10923 0 0 .10943 354.97 585.18)" d="m3145.7-2867.5v-1067.2" stroke="#ffe500"/><path transform="matrix(.10923 0 0 .10943 354.97 585.18)" d="m3156.4-2867.5v-1068" stroke="#ffe200"/><path transform="matrix(.10923 0 0 .10943 354.97 585.18)" d="m3167-2867.5v-1064.5" stroke="#ffdf00"/><path transform="matrix(.10923 0 0 .10943 354.97 585.18)" d="m3177.7-2867.5v-1062.4" stroke="#ffdb00"/><path transform="matrix(.10923 0 0 .10943 354.97 585.18)" d="m3188.3-2867.5v-1059.4" stroke="#ffd800"/><path transform="matrix(.10923 0 0 .10943 354.97 585.18)" d="m3199-2867.5v-1057" stroke="#ffd500"/><path transform="matrix(.10923 0 0 .10943 354.97 585.18)" d="m3209.6-2867.5v-1054.2" stroke="#ffd200"/><path transform="matrix(.10923 0 0 .10943 354.97 585.18)" d="m3220.3-2867.5v-1049.1" stroke="#ffce00"/><path transform="matrix(.10923 0 0 .10943 354.97 585.18)" d="m3230.9-2867.5v-1045.1" stroke="#ffcb00"/><path transform="matrix(.10923 0 0 .10943 354.97 585.18)" d="m3241.6-2867.5v-1041.1" stroke="#ffc800"/><path transform="matrix(.10923 0 0 .10943 354.97 585.18)" d="m3252.2-2867.5v-1040.5" stroke="#ffc400"/><path transform="matrix(.10923 0 0 .10943 354.97 585.18)" d="m3262.9-2867.5v-1032.4" stroke="#ffc100"/><path transform="matrix(.10923 0 0 .10943 354.97 585.18)" d="m3273.5-2867.5v-1028.2" stroke="#ffbe00"/><path transform="matrix(.10923 0 0 .10943 354.97 585.18)" d="m3284.2-2867.5v-1021.9" stroke="#ffba00"/><path transform="matrix(.10923 0 0 .10943 354.97 585.18)" d="m3294.8-2867.5v-1017.7" stroke="#ffb700"/><path transform="matrix(.10923 0 0 .10943 354.97 585.18)" d="m3305.4-2867.5v-1011.4" stroke="#ffb300"/><path transform="matrix(.10923 0 0 .10943 354.97 585.18)" d="m3316.1-2867.5v-1008" stroke="#ffb000"/><path transform="matrix(.10923 0 0 .10943 354.97 585.18)" d="m3326.7-2867.5v-998.25" stroke="#ffac00"/><path transform="matrix(.10923 0 0 .10943 354.97 585.18)" d="m3337.4-2867.5v-993.42" stroke="#ffa900"/><path transform="matrix(.10923 0 0 .10943 354.97 585.18)" d="m3348-2867.5v-983.51" stroke="#ffa500"/><path transform="matrix(.10923 0 0 .10943 354.97 585.18)" d="m3358.7-2867.5v-975.15" stroke="#ffa200"/><path transform="matrix(.10923 0 0 .10943 354.97 585.18)" d="m3369.3-2867.5v-970.27" stroke="#ff9e00"/><path transform="matrix(.10923 0 0 .10943 354.97 585.18)" d="m3380-2867.5v-962.03" stroke="#ff9b00"/><path transform="matrix(.10923 0 0 .10943 354.97 585.18)" d="m3390.6-2867.5v-957.3" stroke="#ff9700"/><path transform="matrix(.10923 0 0 .10943 354.97 585.18)" d="m3401.3-2867.5v-947.79" stroke="#ff9400"/><path transform="matrix(.10923 0 0 .10943 354.97 585.18)" d="m3411.9-2867.5v-939.64" stroke="#ff9000"/><path transform="matrix(.10923 0 0 .10943 354.97 585.18)" d="m3422.6-2867.5v-931.47" stroke="#ff8d00"/><path transform="matrix(.10923 0 0 .10943 354.97 585.18)" d="m3433.2-2867.5v-922.33" stroke="#ff8900"/><path transform="matrix(.10923 0 0 .10943 354.97 585.18)" d="m3443.9-2867.5v-914.19" stroke="#ff8500"/><path transform="matrix(.10923 0 0 .10943 354.97 585.18)" d="m3454.5-2867.5v-903.83" stroke="#ff8100"/><path transform="matrix(.10923 0 0 .10943 354.97 585.18)" d="m3465.2-2867.5v-891.74" stroke="#ff7e00"/><path transform="matrix(.10923 0 0 .10943 354.97 585.18)" d="m3475.8-2867.5v-883.72" stroke="#ff7a00"/><path transform="matrix(.10923 0 0 .10943 354.97 585.18)" d="m3486.5-2867.5v-874.52" stroke="#ff7600"/><path transform="matrix(.10923 0 0 .10943 354.97 585.18)" d="m3497.1-2867.5v-860.98" stroke="#ff7200"/><path transform="matrix(.10923 0 0 .10943 354.97 585.18)" d="m3507.8-2867.5v-852.48" stroke="#ff6f00"/><path transform="matrix(.10923 0 0 .10943 354.97 585.18)" d="m3518.4-2867.5v-842.94" stroke="#ff6b00"/><path transform="matrix(.10923 0 0 .10943 354.97 585.18)" d="m3529.1-2867.5v-830.5" stroke="#ff6700"/><path transform="matrix(.10923 0 0 .10943 354.97 585.18)" d="m3539.7-2867.5v-818.88" stroke="#ff6300"/><path transform="matrix(.10923 0 0 .10943 354.97 585.18)" d="m3550.4-2867.5v-809.05" stroke="#ff5f00"/><path transform="matrix(.10923 0 0 .10943 354.97 585.18)" d="m3561-2867.5v-797.81" stroke="#ff5b00"/><path transform="matrix(.10923 0 0 .10943 354.97 585.18)" d="m3571.6-2867.5v-782.78" stroke="#ff5700"/><path transform="matrix(.10923 0 0 .10943 354.97 585.18)" d="m3582.3-2867.5v-773.18" stroke="#ff5300"/><path transform="matrix(.10923 0 0 .10943 354.97 585.18)" d="m3593-2867.5v-760.83" stroke="#ff4e00"/><path transform="matrix(.10923 0 0 .10943 354.97 585.18)" d="m3603.6-2867.5v-747.79" stroke="#ff4a00"/><path transform="matrix(.10923 0 0 .10943 354.97 585.18)" d="m3614.2-2867.5v-734.62" stroke="#ff4600"/><path transform="matrix(.10923 0 0 .10943 354.97 585.18)" d="m3624.9-2867.5v-724.39" stroke="#ff4200"/><path transform="matrix(.10923 0 0 .10943 354.97 585.18)" d="m3635.5-2867.5v-711.09" stroke="#ff3d00"/><path transform="matrix(.10923 0 0 .10943 354.97 585.18)" d="m3646.2-2867.5v-698.34" stroke="#ff3900"/><path transform="matrix(.10923 0 0 .10943 354.97 585.18)" d="m3656.8-2867.5v-687.75" stroke="#ff3400"/><path transform="matrix(.10923 0 0 .10943 354.97 585.18)" d="m3667.5-2867.5v-675.63" stroke="#ff2f00"/><path transform="matrix(.10923 0 0 .10943 354.97 585.18)" d="m3678.1-2867.5v-662.46" stroke="#ff2a00"/><path transform="matrix(.10923 0 0 .10943 354.97 585.18)" d="m3688.8-2867.5v-651.25" stroke="#ff2500"/><path transform="matrix(.10923 0 0 .10943 354.97 585.18)" d="m3699.4-2867.5v-639.79" stroke="#ff2000"/><path transform="matrix(.10923 0 0 .10943 354.97 585.18)" d="m3710.1-2867.5v-627.05" stroke="#ff1b00"/><path transform="matrix(.10923 0 0 .10943 354.97 585.18)" d="m3720.7-2867.5v-613.92" stroke="#ff1500"/><path transform="matrix(.10923 0 0 .10943 354.97 585.18)" d="m3731.4-2867.5v-603.11" stroke="#ff0f00"/><path transform="matrix(.10923 0 0 .10943 354.97 585.18)" d="m3742-2867.5v-588.47" stroke="#ff0900"/><g stroke="#f00"><path transform="matrix(.10923 0 0 .10943 354.97 585.18)" d="m3752.7-2867.5v-576.24"/><path transform="matrix(.10923 0 0 .10943 354.97 585.18)" d="m3763.3-2867.5v-563.77"/><path transform="matrix(.10923 0 0 .10943 354.97 585.18)" d="m3774-2867.5v-551.7"/><path transform="matrix(.10923 0 0 .10943 354.97 585.18)" d="m3784.6-2867.5v-539.11"/><path transform="matrix(.10923 0 0 .10943 354.97 585.18)" d="m3795.3-2867.5v-528.74"/><path transform="matrix(.10923 0 0 .10943 354.97 585.18)" d="m3805.9-2867.5v-514.44"/><path transform="matrix(.10923 0 0 .10943 354.97 585.18)" d="m3816.6-2867.5v-504.36"/><path transform="matrix(.10923 0 0 .10943 354.97 585.18)" d="m3827.2-2867.5v-491.48"/><path transform="matrix(.10923 0 0 .10943 354.97 585.18)" d="m3837.8-2867.5v-480.49"/><path transform="matrix(.10923 0 0 .10943 354.97 585.18)" d="m3848.5-2867.5v-467.26"/><path transform="matrix(.10923 0 0 .10943 354.97 585.18)" d="m3859.2-2867.5v-459.11"/><path transform="matrix(.10923 0 0 .10943 354.97 585.18)" d="m3869.8-2867.5v-446.38"/><path transform="matrix(.10923 0 0 .10943 354.97 585.18)" d="m3880.4-2867.5v-435.58"/><path transform="matrix(.10923 0 0 .10943 354.97 585.18)" d="m3891.1-2867.5v-423.36"/><path transform="matrix(.10923 0 0 .10943 354.97 585.18)" d="m3901.7-2867.5v-413.66"/><path transform="matrix(.10923 0 0 .10943 354.97 585.18)" d="m3912.4-2867.5v-404.54"/><path transform="matrix(.10923 0 0 .10943 354.97 585.18)" d="m3923-2867.5v-393.39"/><path transform="matrix(.10923 0 0 .10943 354.97 585.18)" d="m3933.7-2867.5v-383.6"/><path transform="matrix(.10923 0 0 .10943 354.97 585.18)" d="m3944.3-2867.5v-372.07"/><path transform="matrix(.10923 0 0 .10943 354.97 585.18)" d="m3955-2867.5v-361.94"/><path transform="matrix(.10923 0 0 .10943 354.97 585.18)" d="m3965.6-2867.5v-351.71"/><path transform="matrix(.10923 0 0 .10943 354.97 585.18)" d="m3976.3-2867.5v-341.56"/><path transform="matrix(.10923 0 0 .10943 354.97 585.18)" d="m3986.9-2867.5v-333.99"/><path transform="matrix(.10923 0 0 .10943 354.97 585.18)" d="m3997.6-2867.5v-324.13"/><path transform="matrix(.10923 0 0 .10943 354.97 585.18)" d="m4008.2-2867.5v-317.25"/><path transform="matrix(.10923 0 0 .10943 354.97 585.18)" d="m4018.9-2867.5v-308.63"/><path transform="matrix(.10923 0 0 .10943 354.97 585.18)" d="m4029.5-2867.5v-298.59"/><path transform="matrix(.10923 0 0 .10943 354.97 585.18)" d="m4040.2-2867.5v-289.65"/><path transform="matrix(.10923 0 0 .10943 354.97 585.18)" d="m4050.8-2867.5v-281.85"/><path transform="matrix(.10923 0 0 .10943 354.97 585.18)" d="m4061.5-2867.5v-272.59"/><path transform="matrix(.10923 0 0 .10943 354.97 585.18)" d="m4072.1-2867.5v-267.19"/><path transform="matrix(.10923 0 0 .10943 354.97 585.18)" d="m4082.8-2867.5v-259.62"/><path transform="matrix(.10923 0 0 .10943 354.97 585.18)" d="m4093.4-2867.5v-251.53"/><path transform="matrix(.10923 0 0 .10943 354.97 585.18)" d="m4104.1-2867.5v-244.77"/><path transform="matrix(.10923 0 0 .10943 354.97 585.18)" d="m4114.7-2867.5v-238.43"/><path transform="matrix(.10923 0 0 .10943 354.97 585.18)" d="m4125.4-2867.5v-232.13"/><path transform="matrix(.10923 0 0 .10943 354.97 585.18)" d="m4136-2867.5v-225.54"/><path transform="matrix(.10923 0 0 .10943 354.97 585.18)" d="m4146.7-2867.5v-217.62"/><path transform="matrix(.10923 0 0 .10943 354.97 585.18)" d="m4157.3-2867.5v-212.72"/><path transform="matrix(.10923 0 0 .10943 354.97 585.18)" d="m4167.9-2867.5v-206.05"/><path transform="matrix(.10923 0 0 .10943 354.97 585.18)" d="m4178.6-2867.5v-199.96"/><path transform="matrix(.10923 0 0 .10943 354.97 585.18)" d="m4189.2-2867.5v-194.88"/><path transform="matrix(.10923 0 0 .10943 354.97 585.18)" d="m4199.9-2867.5v-188.94"/><path transform="matrix(.10923 0 0 .10943 354.97 585.18)" d="m4210.5-2867.5v-182.43"/><path transform="matrix(.10923 0 0 .10943 354.97 585.18)" d="m4221.2-2867.5v-179.62"/><path transform="matrix(.10923 0 0 .10943 354.97 585.18)" d="m4231.8-2867.5v-172.99"/><path transform="matrix(.10923 0 0 .10943 354.97 585.18)" d="m4242.5-2867.5v-167.59"/><path transform="matrix(.10923 0 0 .10943 354.97 585.18)" d="m4253.1-2867.5v-162.91"/><path transform="matrix(.10923 0 0 .10943 354.97 585.18)" d="m4263.8-2867.5v-158.4"/><path transform="matrix(.10923 0 0 .10943 354.97 585.18)" d="m4274.4-2867.5v-153.1"/><path transform="matrix(.10923 0 0 .10943 354.97 585.18)" d="m4285.1-2867.5v-149.62"/><path transform="matrix(.10923 0 0 .10943 354.97 585.18)" d="m4295.7-2867.5v-144.82"/><path transform="matrix(.10923 0 0 .10943 354.97 585.18)" d="m4306.4-2867.5v-139.13"/><path transform="matrix(.10923 0 0 .10943 354.97 585.18)" d="m4317-2867.5v-134.9"/><path transform="matrix(.10923 0 0 .10943 354.97 585.18)" d="m4327.7-2867.5v-132.38"/><path transform="matrix(.10923 0 0 .10943 354.97 585.18)" d="m4338.3-2867.5v-126.03"/></g><path transform="matrix(.10923 0 0 .10943 354.97 585.18)" d="m4349-2867.5v-123.07" stroke="#fd0000"/><path transform="matrix(.10923 0 0 .10943 354.97 585.18)" d="m4359.6-2867.5v-120.51" stroke="#fc0000"/><path transform="matrix(.10923 0 0 .10943 354.97 585.18)" d="m4370.3-2867.5v-114.69" stroke="#fa0000"/><path transform="matrix(.10923 0 0 .10943 354.97 585.18)" d="m4380.9-2867.5v-111.34" stroke="#f90000"/><path transform="matrix(.10923 0 0 .10943 354.97 585.18)" d="m4391.6-2867.5v-109.04" stroke="#f70000"/><path transform="matrix(.10923 0 0 .10943 354.97 585.18)" d="m4402.2-2867.5v-105.85" stroke="#f60000"/><path transform="matrix(.10923 0 0 .10943 354.97 585.18)" d="m4412.9-2867.5v-101.59" stroke="#f40000"/><path transform="matrix(.10923 0 0 .10943 354.97 585.18)" d="m4423.5-2867.5v-99.16" stroke="#f30000"/><path transform="matrix(.10923 0 0 .10943 354.97 585.18)" d="m4434.2-2867.5v-93.85" stroke="#f20000"/><path transform="matrix(.10923 0 0 .10943 354.97 585.18)" d="m4444.8-2867.5v-92.17" stroke="#f00000"/><path transform="matrix(.10923 0 0 .10943 354.97 585.18)" d="m4455.4-2867.5v-89.58" stroke="#ef0000"/><path transform="matrix(.10923 0 0 .10943 354.97 585.18)" d="m4466.1-2867.5v-85.41" stroke="#ed0000"/><path transform="matrix(.10923 0 0 .10943 354.97 585.18)" d="m4476.8-2867.5v-85.35" stroke="#ec0000"/><path transform="matrix(.10923 0 0 .10943 354.97 585.18)" d="m4487.4-2867.5v-80.05" stroke="#ea0000"/><path transform="matrix(.10923 0 0 .10943 354.97 585.18)" d="m4498-2867.5v-77.93" stroke="#e90000"/><path transform="matrix(.10923 0 0 .10943 354.97 585.18)" d="m4508.7-2867.5v-76.14" stroke="#e70000"/><path transform="matrix(.10923 0 0 .10943 354.97 585.18)" d="m4519.3-2867.5v-74.24" stroke="#e60000"/><path transform="matrix(.10923 0 0 .10943 354.97 585.18)" d="m4530-2867.5v-70.45" stroke="#e40000"/><path transform="matrix(.10923 0 0 .10943 354.97 585.18)" d="m4540.6-2867.5v-68.42" stroke="#e30000"/><path transform="matrix(.10923 0 0 .10943 354.97 585.18)" d="m4551.3-2867.5v-66.21" stroke="#e20000"/><path transform="matrix(.10923 0 0 .10943 354.97 585.18)" d="m4561.9-2867.5v-64.6" stroke="#e00000"/><path transform="matrix(.10923 0 0 .10943 354.97 585.18)" d="m4572.6-2867.5v-62.99" stroke="#df0000"/><path transform="matrix(.10923 0 0 .10943 354.97 585.18)" d="m4583.2-2867.5v-59.87" stroke="#d00"/><path transform="matrix(.10923 0 0 .10943 354.97 585.18)" d="m4593.9-2867.5v-59.71" stroke="#dc0000"/><path transform="matrix(.10923 0 0 .10943 354.97 585.18)" d="m4604.5-2867.5v-56.87" stroke="#da0000"/><path transform="matrix(.10923 0 0 .10943 354.97 585.18)" d="m4615.2-2867.5v-54.82" stroke="#d90000"/><path transform="matrix(.10923 0 0 .10943 354.97 585.18)" d="m4625.8-2867.5v-53.02" stroke="#d70000"/><path transform="matrix(.10923 0 0 .10943 354.97 585.18)" d="m4636.5-2867.5v-51.6" stroke="#d60000"/><path transform="matrix(.10923 0 0 .10943 354.97 585.18)" d="m4647.1-2867.5v-51.6" stroke="#d40000"/><path transform="matrix(.10923 0 0 .10943 354.97 585.18)" d="m4657.8-2867.5v-48.4" stroke="#d30000"/><path transform="matrix(.10923 0 0 .10943 354.97 585.18)" d="m4668.4-2867.5v-46.76" stroke="#d10000"/><path transform="matrix(.10923 0 0 .10943 354.97 585.18)" d="m4679.1-2867.5v-45.37" stroke="#d00000"/><path transform="matrix(.10923 0 0 .10943 354.97 585.18)" d="m4689.7-2867.5v-43.03" stroke="#ce0000"/><path transform="matrix(.10923 0 0 .10943 354.97 585.18)" d="m4700.4-2867.5v-43.26" stroke="#cd0000"/><path transform="matrix(.10923 0 0 .10943 354.97 585.18)" d="m4711-2867.5v-40.29" stroke="#cb0000"/><path transform="matrix(.10923 0 0 .10943 354.97 585.18)" d="m4721.7-2867.5v-38.65" stroke="#ca0000"/><path transform="matrix(.10923 0 0 .10943 354.97 585.18)" d="m4732.3-2867.5v-38.2" stroke="#c80000"/><path transform="matrix(.10923 0 0 .10943 354.97 585.18)" d="m4743-2867.5v-37.73" stroke="#c70000"/><path transform="matrix(.10923 0 0 .10943 354.97 585.18)" d="m4753.6-2867.5v-35.33" stroke="#c50000"/><path transform="matrix(.10923 0 0 .10943 354.97 585.18)" d="m4764.2-2867.5v-35.01" stroke="#c40000"/><path transform="matrix(.10923 0 0 .10943 354.97 585.18)" d="m4774.9-2867.5v-32.02" stroke="#c20000"/><path transform="matrix(.10923 0 0 .10943 354.97 585.18)" d="m4785.5-2867.5v-32.49" stroke="#c10000"/><path transform="matrix(.10923 0 0 .10943 354.97 585.18)" d="m4796.2-2867.5v-28.89" stroke="#bf0000"/><path transform="matrix(.10923 0 0 .10943 354.97 585.18)" d="m4806.8-2867.5v-30.82" stroke="#bd0000"/><path transform="matrix(.10923 0 0 .10943 354.97 585.18)" d="m4817.5-2867.5v-30.53" stroke="#bc0000"/><path transform="matrix(.10923 0 0 .10943 354.97 585.18)" d="m4828.1-2867.5v-28.26" stroke="#ba0000"/><path transform="matrix(.10923 0 0 .10943 354.97 585.18)" d="m4838.8-2867.5v-26.59" stroke="#b90000"/><path transform="matrix(.10923 0 0 .10943 354.97 585.18)" d="m4849.4-2867.5v-28.54" stroke="#b70000"/><path transform="matrix(.10923 0 0 .10943 354.97 585.18)" d="m4860.1-2867.5v-26.52" stroke="#b60000"/><path transform="matrix(.10923 0 0 .10943 354.97 585.18)" d="m4870.7-2867.5v-24.56" stroke="#b40000"/><path transform="matrix(.10923 0 0 .10943 354.97 585.18)" d="m4881.4-2867.5v-21.9" stroke="#b30000"/><path transform="matrix(.10923 0 0 .10943 354.97 585.18)" d="m4892-2867.5v-23.74" stroke="#b10000"/><path transform="matrix(.10923 0 0 .10943 354.97 585.18)" d="m4902.7-2867.5v-21.62" stroke="#af0000"/><path transform="matrix(.10923 0 0 .10943 354.97 585.18)" d="m4913.3-2867.5v-20.58" stroke="#ae0000"/><path transform="matrix(.10923 0 0 .10943 354.97 585.18)" d="m4924-2867.5v-21.34" stroke="#ac0000"/><path transform="matrix(.10923 0 0 .10943 354.97 585.18)" d="m4934.6-2867.5v-20.11" stroke="#ab0000"/><path transform="matrix(.10923 0 0 .10943 354.97 585.18)" d="m4945.3-2867.5v-17.26" stroke="#a90000"/><path transform="matrix(.10923 0 0 .10943 354.97 585.18)" d="m4955.9-2867.5v-17.07" stroke="#a80000"/><path transform="matrix(.10923 0 0 .10943 354.97 585.18)" d="m4966.6-2867.5v-17.71" stroke="#a60000"/><path transform="matrix(.10923 0 0 .10943 354.97 585.18)" d="m4977.2-2867.5v-17.74" stroke="#a40000"/><path transform="matrix(.10923 0 0 .10943 354.97 585.18)" d="m4987.9-2867.5v-17.07" stroke="#a30000"/><path transform="matrix(.10923 0 0 .10943 354.97 585.18)" d="m4998.5-2867.5v-18.69" stroke="#a10000"/><path transform="matrix(.10923 0 0 .10943 354.97 585.18)" d="m5009.2-2867.5v-18.12" stroke="#a00000"/><path transform="matrix(.10923 0 0 .10943 354.97 585.18)" d="m5019.8-2867.5v-15.34" stroke="#9e0000"/><path transform="matrix(.10923 0 0 .10943 354.97 585.18)" d="m5030.5-2867.5v-16.38" stroke="#9c0000"/><path transform="matrix(.10923 0 0 .10943 354.97 585.18)" d="m5041.1-2867.5v-16.38" stroke="#9b0000"/><path transform="matrix(.10923 0 0 .10943 354.97 585.18)" d="m5051.8-2867.5v-10.19" stroke="#900"/><path transform="matrix(.10923 0 0 .10943 354.97 585.18)" d="m5062.4-2867.5v-13.57" stroke="#980000"/><path transform="matrix(.10923 0 0 .10943 354.97 585.18)" d="m5073-2867.5v-11.42" stroke="#960000"/><path transform="matrix(.10923 0 0 .10943 354.97 585.18)" d="m5083.7-2867.5v-11.45" stroke="#940000"/><path transform="matrix(.10923 0 0 .10943 354.97 585.18)" d="m5094.3-2867.5v-11.49" stroke="#930000"/><path transform="matrix(.10923 0 0 .10943 354.97 585.18)" d="m5105-2867.5v-10.45" stroke="#910000"/><path transform="matrix(.10923 0 0 .10943 354.97 585.18)" d="m5115.6-2867.5v-9.97" stroke="#8f0000"/><path transform="matrix(.10923 0 0 .10943 354.97 585.18)" d="m5126.3-2867.5v-11.9" stroke="#8e0000"/><path transform="matrix(.10923 0 0 .10943 354.97 585.18)" d="m5136.9-2867.5v-10.29" stroke="#8c0000"/><path transform="matrix(.10923 0 0 .10943 354.97 585.18)" d="m5147.6-2867.5v-9.75" stroke="#8a0000"/><path transform="matrix(.10923 0 0 .10943 354.97 585.18)" d="m5158.2-2867.5v-10.45" stroke="#890000"/><path transform="matrix(.10923 0 0 .10943 354.97 585.18)" d="m5168.9-2867.5v-9.66" stroke="#870000"/><path transform="matrix(.10923 0 0 .10943 354.97 585.18)" d="m5179.5-2867.5v-8.11" stroke="#850000"/><path transform="matrix(.10923 0 0 .10943 354.97 585.18)" d="m5190.2-2867.5v-8.46" stroke="#840000"/><path transform="matrix(.10923 0 0 .10943 354.97 585.18)" d="m5200.8-2867.5v-6.66" stroke="#820000"/><path transform="matrix(.10923 0 0 .10943 354.97 585.18)" d="m5211.5-2867.5v-6.47" stroke="#800000"/><path transform="matrix(.10923 0 0 .10943 354.97 585.18)" d="m5222.1-2867.5v-8.17" stroke="#7f0000"/><path transform="matrix(.10923 0 0 .10943 354.97 585.18)" d="m5232.8-2867.5v-7.57" stroke="#7d0000"/><path transform="matrix(.10923 0 0 .10943 354.97 585.18)" d="m5243.4-2867.5v-7.76" stroke="#7b0000"/><path transform="matrix(.10923 0 0 .10943 354.97 585.18)" d="m5254.1-2867.5v-5.56" stroke="#7a0000"/><path transform="matrix(.10923 0 0 .10943 354.97 585.18)" d="m5264.7-2867.5v-7.2" stroke="#780000"/><path transform="matrix(.10923 0 0 .10943 354.97 585.18)" d="m5275.4-2867.5v-6.47" stroke="#760000"/><path transform="matrix(.10923 0 0 .10943 354.97 585.18)" d="m5286-2867.5v-8.62" stroke="#740000"/><path transform="matrix(.10923 0 0 .10943 354.97 585.18)" d="m5296.7-2867.5v-4.76" stroke="#730000"/><path transform="matrix(.10923 0 0 .10943 354.97 585.18)" d="m5307.3-2867.5v-4.04" stroke="#710000"/><path transform="matrix(.10923 0 0 .10943 354.97 585.18)" d="m5318-2867.5v-6.66" stroke="#6f0000"/><path transform="matrix(.10923 0 0 .10943 354.97 585.18)" d="m5328.6-2867.5v-3.63" stroke="#6d0000"/><path transform="matrix(.10923 0 0 .10943 354.97 585.18)" d="m5339.2-2867.5v-4.92" stroke="#6c0000"/><path transform="matrix(.10923 0 0 .10943 354.97 585.18)" d="m5349.9-2867.5v-4.16" stroke="#6a0000"/><path transform="matrix(.10923 0 0 .10943 354.97 585.18)" d="m5360.6-2867.5v-4.89" stroke="#680000"/><path transform="matrix(.10923 0 0 .10943 354.97 585.18)" d="m5371.2-2867.5v-3.79" stroke="#600"/><path transform="matrix(.10923 0 0 .10943 354.97 585.18)" d="m5381.8-2867.5v-3.24" stroke="#640000"/></g><g><g fill="#000000" font-family="Lato"><g font-size="9.7293px"><text transform="matrix(1.0938 0 0 1.0968 671.73 299.47)" x="36.944557" stroke-width="1.2168" style="font-variant-caps:normal;font-variant-east-asian:normal;font-variant-ligatures:normal;font-variant-numeric:normal" xml:space="preserve"><tspan x="36.944557" y="0" fill="#000000" font-family="Lato" font-size="9.7293px" stroke-width="1.2168" text-align="center" text-anchor="middle" style="font-variant-caps:normal;font-variant-east-asian:normal;font-variant-ligatures:normal;font-variant-numeric:normal">WaveLength (nm)</tspan></text><g stroke-width="1.2162"><text transform="matrix(1.0949 0 0 1.0968 444.05 23.638)" x="5.3358564" style="font-variant-caps:normal;font-variant-east-asian:normal;font-variant-ligatures:normal;font-variant-numeric:normal" xml:space="preserve"><tspan x="5.3358564" y="0" fill="#000000" font-family="Lato" font-size="9.7293px" stroke-width="1.2162" text-align="end" text-anchor="end" style="font-variant-caps:normal;font-variant-east-asian:normal;font-variant-ligatures:normal;font-variant-numeric:normal">1</tspan></text><text transform="matrix(1.0949 0 0 1.0968 444.01 74.029)" x="5.3358564" style="font-variant-caps:normal;font-variant-east-asian:normal;font-variant-ligatures:normal;font-variant-numeric:normal" xml:space="preserve"><tspan x="5.3358564" y="0" fill="#000000" font-family="Lato" font-size="9.7293px" stroke-width="1.2162" text-align="end" text-anchor="end" style="font-variant-caps:normal;font-variant-east-asian:normal;font-variant-ligatures:normal;font-variant-numeric:normal">0.8</tspan></text><text transform="matrix(1.0949 0 0 1.0968 443.94 124.25)" x="5.3358564" style="font-variant-caps:normal;font-variant-east-asian:normal;font-variant-ligatures:normal;font-variant-numeric:normal" xml:space="preserve"><tspan x="5.3358564" y="0" fill="#000000" font-family="Lato" font-size="9.7293px" stroke-width="1.2162" text-align="end" text-anchor="end" style="font-variant-caps:normal;font-variant-east-asian:normal;font-variant-ligatures:normal;font-variant-numeric:normal">0.6</tspan></text><text transform="matrix(1.0949 0 0 1.0968 443.71 174.55)" x="5.3358564" style="font-variant-caps:normal;font-variant-east-asian:normal;font-variant-ligatures:normal;font-variant-numeric:normal" xml:space="preserve"><tspan x="5.3358564" y="0" fill="#000000" font-family="Lato" font-size="9.7293px" stroke-width="1.2162" text-align="end" text-anchor="end" style="font-variant-caps:normal;font-variant-east-asian:normal;font-variant-ligatures:normal;font-variant-numeric:normal">0.4</tspan></text><text transform="matrix(1.0949 0 0 1.0968 444.02 224.78)" x="5.3358564" style="font-variant-caps:normal;font-variant-east-asian:normal;font-variant-ligatures:normal;font-variant-numeric:normal" xml:space="preserve"><tspan x="5.3358564" y="0" fill="#000000" font-family="Lato" font-size="9.7293px" stroke-width="1.2162" text-align="end" text-anchor="end" style="font-variant-caps:normal;font-variant-east-asian:normal;font-variant-ligatures:normal;font-variant-numeric:normal">0.2</tspan></text><text transform="matrix(1.0949 0 0 1.0968 443.78 275.07)" x="5.3358564" style="font-variant-caps:normal;font-variant-east-asian:normal;font-variant-ligatures:normal;font-variant-numeric:normal" xml:space="preserve"><tspan x="5.3358564" y="0" fill="#000000" font-family="Lato" font-size="9.7293px" stroke-width="1.2162" text-align="end" text-anchor="end" style="font-variant-caps:normal;font-variant-east-asian:normal;font-variant-ligatures:normal;font-variant-numeric:normal">0</tspan></text><text transform="matrix(1.0949 0 0 1.0968 461.45 285.11)" x="15.907482" style="font-variant-caps:normal;font-variant-east-asian:normal;font-variant-ligatures:normal;font-variant-numeric:normal" xml:space="preserve"><tspan x="15.907481" y="0" fill="#000000" font-family="Lato" font-size="9.7293px" stroke-width="1.2162" text-align="center" text-anchor="middle" style="font-variant-caps:normal;font-variant-east-asian:normal;font-variant-ligatures:normal;font-variant-numeric:normal">400</tspan></text><text transform="matrix(1.0949 0 0 1.0968 578.09 285.11)" x="15.907482" style="font-variant-caps:normal;font-variant-east-asian:normal;font-variant-ligatures:normal;font-variant-numeric:normal" xml:space="preserve"><tspan x="15.907481" y="0" fill="#000000" font-family="Lato" font-size="9.7293px" stroke-width="1.2162" text-align="center" text-anchor="middle" style="font-variant-caps:normal;font-variant-east-asian:normal;font-variant-ligatures:normal;font-variant-numeric:normal">500</tspan></text><text transform="matrix(1.0949 0 0 1.0968 694.54 285.11)" x="15.907482" style="font-variant-caps:normal;font-variant-east-asian:normal;font-variant-ligatures:normal;font-variant-numeric:normal" xml:space="preserve"><tspan x="15.907481" y="0" fill="#000000" font-family="Lato" font-size="9.7293px" stroke-width="1.2162" text-align="center" text-anchor="middle" style="font-variant-caps:normal;font-variant-east-asian:normal;font-variant-ligatures:normal;font-variant-numeric:normal">600</tspan></text><text transform="matrix(1.0949 0 0 1.0968 811.18 285.11)" x="15.907482" style="font-variant-caps:normal;font-variant-east-asian:normal;font-variant-ligatures:normal;font-variant-numeric:normal" xml:space="preserve"><tspan x="15.907481" y="0" fill="#000000" font-family="Lato" font-size="9.7293px" stroke-width="1.2162" text-align="center" text-anchor="middle" style="font-variant-caps:normal;font-variant-east-asian:normal;font-variant-ligatures:normal;font-variant-numeric:normal">700</tspan></text><text transform="matrix(1.0949 0 0 1.0968 927.78 285.11)" x="15.907482" style="font-variant-caps:normal;font-variant-east-asian:normal;font-variant-ligatures:normal;font-variant-numeric:normal" xml:space="preserve"><tspan x="15.907481" y="0" fill="#000000" font-family="Lato" font-size="9.7293px" stroke-width="1.2162" text-align="center" text-anchor="middle" style="font-variant-caps:normal;font-variant-east-asian:normal;font-variant-ligatures:normal;font-variant-numeric:normal">800</tspan></text></g></g><text transform="matrix(0 -1.0968 1.0949 0 427.99 188.47)" font-size="9.7293px" stroke-width="1.2162" style="font-variant-caps:normal;font-variant-east-asian:normal;font-variant-ligatures:normal;font-variant-numeric:normal" xml:space="preserve"><tspan x="0" y="0" fill="#000000" font-family="Lato" font-size="9.7293px" stroke-width="1.2162" style="font-variant-caps:normal;font-variant-east-asian:normal;font-variant-ligatures:normal;font-variant-numeric:normal">Relative Spectrum</tspan></text></g><g fill="none" stroke="#858585" stroke-width=".27518"><path transform="matrix(1.0897 0 0 1.0906 -212.27 343.6)" d="m617.27-296.75h-4.496v230.4h449.56v-4.4972"/><path transform="matrix(1.0897 0 0 1.0906 -212.27 343.6)" d="m612.77-250.67h4.496"/><path transform="matrix(1.0897 0 0 1.0906 -212.27 343.6)" d="m612.77-204.59h4.496"/><path transform="matrix(1.0897 0 0 1.0906 -212.27 343.6)" d="m612.77-158.5h4.496"/><path transform="matrix(1.0897 0 0 1.0906 -212.27 343.6)" d="m612.77-112.42h4.496"/><path transform="matrix(1.0897 0 0 1.0906 -212.27 343.6)" d="m634.18-66.344v-4.4972"/><path transform="matrix(1.0897 0 0 1.0906 -212.27 343.6)" d="m741.22-66.344 2e-5 -4.4972"/><path transform="matrix(1.0897 0 0 1.0906 -212.27 343.6)" d="m848.25-66.344 2e-5 -4.4972"/><path transform="matrix(1.0897 0 0 1.0906 -212.27 343.6)" d="m955.29-66.344v-4.4972"/></g><path transform="matrix(.89007 0 0 .89007 .70905 -10.28)" d="m104.81 270.48 0.997 0.334 1.009 0.322 1.023 0.31 1.034 0.299 1.047 0.287 1.058 0.274 1.071 0.264 1.083 0.251 1.094 0.24 1.107 0.228 1.117 0.216 1.13 0.204 1.141 0.192 1.152 0.18 1.163 0.168 1.174 0.156 1.185 0.144 1.196 0.132 1.205 0.12 1.218 0.108 1.227 0.096 1.238 0.084 1.249 0.071 1.258 0.06 1.268 0.048 1.278 0.036 1.287 0.024 1.298 0.011 1.305-1e-3 1.316-0.013 1.326-0.025 1.334-0.037 1.343-0.049 1.351-0.062 1.361-0.073 1.369-0.085 1.376-0.097 1.386-0.11 1.393-0.121 1.401-0.134 1.41-0.146 1.417-0.157 1.424-0.17 1.432-0.181 1.439-0.194 1.446-0.205 1.453-0.217 1.46-0.23 1.466-0.241 1.472-0.253 1.481-0.265 1.485-0.276 1.491-0.288 1.498-0.3 1.503-0.312 1.51-0.323 1.513-0.336 1.52-0.346 1.525-0.358 1.53-0.369 1.534-0.382 1.54-0.393 1.544-0.404 1.548-0.416 1.553-0.426 1.556-0.438 1.56-0.45 1.565-0.46 1.568-0.472 1.572-0.484 1.574-0.494 1.578-0.505 1.58-0.516 1.585-0.526 1.585-0.538 1.589-0.549 1.592-0.559 1.592-0.57 1.596-0.58 1.597-0.592 1.6-0.602 1.599-0.611 1.603-0.623 1.603-0.633 1.604-0.643 1.606-0.654 1.606-0.664 1.605-0.673 1.608-0.684 1.607-0.694 1.607-0.703 1.607-0.713 1.607-0.724 1.607-0.733 1.606-0.741 1.605-0.752 1.604-0.762 1.604-0.77 1.602-0.78 1.601-0.789 1.6-0.799 1.598-0.807 1.596-0.816 1.594-0.826 1.592-0.833 1.589-0.843 1.587-0.852 1.585-0.859 1.582-0.869 1.579-0.877 1.575-0.885 1.573-0.893 1.569-0.901 1.566-0.909 1.561-0.918 1.558-0.925 1.554-0.933 1.551-0.94 1.545-0.949 1.54-0.956 1.537-0.962 1.531-0.97 1.527-0.978 1.521-0.984 1.516-0.992 1.512-0.998 1.505-1.005 1.498-1.012 1.495-1.019 1.487-1.024 1.482-1.032 1.474-1.038 1.469-1.043 1.463-1.049 1.455-1.057 1.448-1.062 1.441-1.066 1.435-1.073 1.426-1.079 1.419-1.084 1.413-1.089 1.404-1.094 1.397-1.1 1.387-1.105 1.38-1.109 1.371-1.114 1.364-1.119 1.355-1.124 1.346-1.127 1.336-1.132 1.328-1.137 1.319-1.14 1.309-1.145 1.301-1.148 1.291-1.152 1.282-1.156 1.271-1.159 1.261-1.163 1.252-1.166 1.241-1.169 1.23-1.172 1.221-1.175 1.21-1.178 1.201-1.18 1.188-1.184 1.178-1.185 1.167-1.188 1.156-1.191 1.144-1.191 1.133-1.195 1.123-1.196 1.108-1.199 1.099-1.198 1.086-1.201 1.075-1.203 1.063-1.204 1.052-1.205 1.039-1.206 1.026-1.207 1.013-1.207 1.001-1.208 0.988-1.209 0.977-1.209 0.963-1.21 0.95-1.21 0.937-1.21 0.924-1.209 0.91-1.21 0.898-1.209 0.885-1.209 0.87-1.208 0.857-1.208 0.844-1.207 0.829-1.206 0.817-1.205 0.802-1.203 0.788-1.203 0.775-1.201 0.758-1.2 0.746-1.198 0.732-1.196 0.717-1.194 0.703-1.192 0.688-1.191 0.673-1.188 0.66-1.185 0.644-1.184 0.629-1.181 0.616-1.178 0.598-1.175 0.586-1.172 0.57-1.17 0.556-1.165 0.539-1.163 0.525-1.159 0.508-1.156 0.495-1.152 0.478-1.149 0.465-1.145 0.447-1.14 0.433-1.136 0.417-1.133 0.401-1.127 0.386-1.125 0.37-1.119 0.355-1.114 0.339-1.11 0.323-1.104 0.307-1.1 0.292-1.095 0.276-1.089 0.261-1.085 0.243-1.0781 0.228-1.073 0.213-1.0678 0.196-1.0617 0.181-1.0558 0.164-1.0497 0.149-1.0438 0.132-1.0384 0.116-1.0318 0.101-1.0251 0.085-1.0185 0.068-1.0118 0.052-1.0058 0.036-0.9985 0.02-0.9919 4e-3 -0.9845-0.012-0.9778-0.028-0.9706-0.044-0.9632-0.06-0.9559-0.078-0.9479-0.091-0.9412-0.109-0.9326-0.124-0.926-0.14-0.9173-0.157-0.9099-0.173-0.9013-0.189-0.894-0.204-0.8854-0.221-0.8766-0.235-0.8687-0.252-0.8607-0.268-0.8514-0.285-0.8434-0.299-0.8341-0.315-0.8254-0.332-0.8168-0.345-0.8074-0.363-0.7988-0.379-0.7888-0.394-0.7809-0.408-0.7708-0.425-0.7622-0.44-0.7515-0.457-0.7429-0.471-0.7336-0.487-0.7229-0.502-0.7136-0.517-0.7036-0.532-0.6943-0.546-0.6843-0.564-0.6743-0.577-0.6637-0.593-0.6537-0.607-0.6437-0.622-0.6337-0.637-0.6224-0.652-0.613-0.666-0.6025-0.682-0.5911-0.694-0.5818-0.711-0.5698-0.724-0.5598-0.739-0.5492-0.752-0.5378-0.767-0.5279-0.782-0.5165-0.794-0.5046-0.809-0.4946-0.823-0.4833-0.836-0.4726-0.852-0.4607-0.864-0.4499-0.877-0.4387-0.891-0.4274-0.905-0.416-0.916-0.4041-0.931-0.3934-0.943-0.3814-0.957-0.3708-0.97-0.3588-0.982-0.3468-0.995-0.3348-1.007-0.3249-1.021-0.3121-1.032-0.2996-1.045-0.2889-1.057-0.2769-1.068-0.2656-1.081-0.2536-1.093-0.241-1.104-0.2296-1.116-0.2177-1.128-0.2064-1.138-0.193-1.151-0.1831-1.161-0.1697-1.172-0.1578-1.184-0.1465-1.194-0.1337-1.204-0.1219-1.217-0.1098-1.225-0.0972-1.237-0.0865-1.245-0.0739-1.258-0.0612-1.266-0.0499-1.276-0.0373-1.286-0.0253-1.296-0.0134-1.305-0.0013-1.314 0.0107-1.323 0.0233-1.333 0.0353-1.342 0.0472-1.349 0.0593-1.36 0.0712-1.367 0.0832-1.376 0.0958-1.384 0.1072-1.392 0.1198-1.401 0.1312-1.407 0.1438-1.416 0.1557-1.424 0.1678-1.431 0.1797-1.438 0.1917-1.444 0.2037-1.452 0.215-1.459 0.2277-1.465 0.2389-1.472 0.251-1.479 0.2629-1.484 0.2743-1.49 0.2869-1.496 0.2975-1.503 0.3102-1.509 0.3216-1.512 0.3328-1.519 0.3448-1.524 0.3568-1.53 0.3681-1.534 0.3794-1.538 0.3908-1.543 0.4021-1.548 0.414-1.552 0.4253-1.556 0.4361-1.559 0.4473-1.564 0.4593-1.568 0.47-1.57 0.4812-1.575 0.492-1.577 0.5032-1.581 0.5139-1.582 0.5252-1.586 0.5365-1.589 0.5472-1.591 0.5572-1.593 0.5684-1.594 0.5792-1.598 0.5891-1.598 0.5998-1.601 0.611-1.601 0.6211-1.603 0.631-1.604 0.6417-1.605 0.6524-1.606 0.6617-1.606 0.6716-1.607 0.6823-1.608 0.6923-1.606 0.7016-1.608 0.7123-1.607 0.7209-1.607 0.7316-1.605 0.7409-1.606 0.7502-1.604 0.7595-1.604 0.7695-1.603 0.7782-1.601 0.7874-1.6 0.7975-1.598 0.8055-1.596 0.8147-1.595 0.8241-1.591 0.8321-1.591 0.8414-1.587 0.8501-1.585 0.8587-1.582 0.8673-1.58 0.8754-1.577 0.8833-1.572 0.8927-1.57 0.8993-1.566 0.9086-1.562 0.916-1.559 0.9239-1.555 0.9313-1.55 0.9399-1.546 0.9473-1.542 0.9538-1.536 0.9613-1.533 0.9698-1.527 0.9759-1.523 0.9832-1.517 0.9905-1.512 0.9972-1.506 1.0044-1.499 1.0105-1.495 1.0178-1.488 1.0238-1.483 1.0298-1.477 1.0371-1.47 1.0424-1.463 1.0491-1.456 1.0544-1.449 1.0604-1.443 1.0664-1.435 1.0724-1.428 1.0777-1.422 1.0831-1.413 1.088-1.404 1.094-1.398 1.099-1.389 1.103-1.381 1.109-1.373 1.114-1.365 1.118-1.356 1.122-1.347 1.127-1.339 1.133-1.329 1.135-1.32 1.14-1.312 1.143-1.301 1.148-1.293 1.152-1.282 1.155-1.273 1.158-1.263 1.163-1.254 1.165-1.243 1.169-1.232 1.171-1.222 1.174-1.212 1.178-1.202 1.18-1.189 1.183-1.18 1.186-1.169 1.187-1.158 1.19-1.147 1.192-1.133 1.194-1.125 1.196-1.111 1.198-1.101 1.199-1.088 1.201-1.077 1.202-1.066 1.203-1.051 1.204-1.042 1.207-1.028 1.206-1.015 1.208-1.003 1.207-0.991 1.209-0.978 1.21-0.965 1.209-0.952 1.21-0.939 1.21-0.9266 1.21-0.9123 1.21-0.8998 1.209-0.8864 1.209-0.873 1.208-0.8596 1.208-0.8453 1.207-0.832 1.206-0.8185 1.205-0.8043 1.204-0.79 1.203-0.7766 1.201-0.7623 1.2-0.748 1.198-0.7329 1.196-0.7203 1.195-0.7052 1.193-0.69 1.19-0.6757 1.189-0.6615 1.186-0.6463 1.184-0.6329 1.181-0.6159 1.179-0.6025 1.175-0.5883 1.172-0.5721 1.171-0.557 1.166-0.5428 1.163-0.5266 1.16-0.5115 1.157-0.4972 1.152-0.4811 1.15-0.466 1.145-0.4499 1.141-0.4356 1.137-0.4195 1.133-0.4035 1.129-0.3883 1.124-0.3722 1.12-0.358 1.115-0.341 1.11-0.3267 1.106-0.3088 1.1-0.2946 1.096-0.2785 1.091-0.2633 1.085-0.2464 1.079-0.2303 1.074-0.2151 1.068-0.1991 1.063-0.1821 1.057-0.1678 1.05-0.15 1.045-0.1356 1.04-0.1188 1.032-0.1026 1.026-0.0875 1.02-0.0705 1.013-0.0554 1.007-0.0383 1-0.0232 0.992-0.0063 0.986 0.0098 0.979 0.0259 0.971 0.0411 0.965 0.058 0.957 0.0741 0.949 0.0892 0.942 0.1063 0.935 0.1223 0.927 0.1374 0.918 0.1544 0.911 0.1697 0.903 0.1856 0.895 0.2018 0.887 0.2178 0.878 0.2338 0.87 0.25 0.861 0.2651 0.854 0.2803 0.844 0.2981 0.836 0.3133 0.827 0.3285 0.818 0.3437 0.809 0.3606 0.8 0.3749 0.791 0.391 0.782 0.4079 0.773 0.4223 0.762 0.4374 0.754 0.4534 0.745 0.4687 0.734 0.4847 0.725 0.498 0.715 0.5151 0.706 0.5302 0.695 0.5445 0.686 0.5597 0.676 0.5758 0.666 0.59 0.655 0.6043 0.645 0.6213 0.635 0.6347 0.625 0.648 0.614 0.6641 0.603 0.6793 0.594 0.6927 0.583 0.7088 0.572 0.7212 0.561 0.7365 0.551 0.7507 0.54 0.765 0.529 0.7783 0.518 0.7936 0.508 0.807 0.496 0.8203 0.484 0.8346 0.474 0.848 0.463 0.8614 0.452 0.8757 0.44 0.889 0.43 0.9016 0.417 0.9159 0.406 0.928 0.396 0.942 0.383 0.954 0.372 0.968 0.361 0.98 0.348" color="#000000" fill="#c2cccc" style="-inkscape-stroke:none"/><polygon transform="matrix(2.4293 0 0 2.4293 -355.43 -247.88)" points="231.88 153.5 232.38 154.36 231.88 155.23 230.88 155.23 230.38 154.36 230.88 153.5" fill="#f0f" shape-rendering="crispEdges" stroke-width=".54886"/><g font-family="Lato" font-size="11.626px" stroke-width="1.498"><text transform="matrix(.89007 0 0 .89007 41.081 283.43)" style="font-variant-caps:normal;font-variant-east-asian:normal;font-variant-ligatures:normal;font-variant-numeric:normal" xml:space="preserve">0.324</text><text transform="matrix(.89007 0 0 .89007 105.67 283.43)" style="font-variant-caps:normal;font-variant-east-asian:normal;font-variant-ligatures:normal;font-variant-numeric:normal" xml:space="preserve">0.326</text><text transform="matrix(.89007 0 0 .89007 170.25 283.43)" style="font-variant-caps:normal;font-variant-east-asian:normal;font-variant-ligatures:normal;font-variant-numeric:normal" xml:space="preserve">0.328</text><text transform="matrix(.89007 0 0 .89007 237.95 283.43)" style="font-variant-caps:normal;font-variant-east-asian:normal;font-variant-ligatures:normal;font-variant-numeric:normal" xml:space="preserve">0.33</text><text transform="matrix(.89007 0 0 .89007 299.42 283.43)" style="font-variant-caps:normal;font-variant-east-asian:normal;font-variant-ligatures:normal;font-variant-numeric:normal" xml:space="preserve">0.332</text><text transform="matrix(.89007 0 0 .89007 364.01 283.43)" style="font-variant-caps:normal;font-variant-east-asian:normal;font-variant-ligatures:normal;font-variant-numeric:normal" xml:space="preserve">0.334</text><text transform="matrix(.89007 0 0 .89007 21.947 270.98)" style="font-variant-caps:normal;font-variant-east-asian:normal;font-variant-ligatures:normal;font-variant-numeric:normal" xml:space="preserve">0.334</text><text transform="matrix(.89007 0 0 .89007 21.947 234.77)" style="font-variant-caps:normal;font-variant-east-asian:normal;font-variant-ligatures:normal;font-variant-numeric:normal" xml:space="preserve">0.336</text><text transform="matrix(.89007 0 0 .89007 21.947 198.56)" style="font-variant-caps:normal;font-variant-east-asian:normal;font-variant-ligatures:normal;font-variant-numeric:normal" xml:space="preserve">0.338</text><text transform="matrix(.89007 0 0 .89007 28.178 162.34)" style="font-variant-caps:normal;font-variant-east-asian:normal;font-variant-ligatures:normal;font-variant-numeric:normal" xml:space="preserve">0.34</text><text transform="matrix(.89007 0 0 .89007 21.947 126.13)" style="font-variant-caps:normal;font-variant-east-asian:normal;font-variant-ligatures:normal;font-variant-numeric:normal" xml:space="preserve">0.342</text><text transform="matrix(.89007 0 0 .89007 21.947 89.92)" style="font-variant-caps:normal;font-variant-east-asian:normal;font-variant-ligatures:normal;font-variant-numeric:normal" xml:space="preserve">0.344</text><text transform="matrix(.89007 0 0 .89007 21.947 53.709)" style="font-variant-caps:normal;font-variant-east-asian:normal;font-variant-ligatures:normal;font-variant-numeric:normal" xml:space="preserve">0.346</text><text transform="matrix(.89007 0 0 .89007 21.947 17.497)" style="font-variant-caps:normal;font-variant-east-asian:normal;font-variant-ligatures:normal;font-variant-numeric:normal" xml:space="preserve">0.348</text><text transform="matrix(.89007 0 0 .89007 201.21 297.67)" style="font-variant-caps:normal;font-variant-east-asian:normal;font-variant-ligatures:normal;font-variant-numeric:normal" xml:space="preserve">CIE-X</text><text transform="matrix(0 -.89007 .89007 0 17.497 154.92)" style="font-variant-caps:normal;font-variant-east-asian:normal;font-variant-ligatures:normal;font-variant-numeric:normal" xml:space="preserve">CIE-Y</text></g><g fill="none" stroke="#858585" stroke-dasharray="7.42189, 0" stroke-width=".33705"><g><polyline transform="matrix(.89007 0 0 .89007 .70905 -10.28)" points="133.42 311 133.42 26.207"/><polyline transform="matrix(.89007 0 0 .89007 .70905 -10.28)" points="205.98 311 205.98 26.207"/><polyline transform="matrix(.89007 0 0 .89007 .70905 -10.28)" points="278.54 311 278.54 26.207"/><polyline transform="matrix(.89007 0 0 .89007 .70905 -10.28)" points="351.1 311 351.1 26.207"/><polyline transform="matrix(.89007 0 0 .89007 .70905 -10.28)" points="423.66 311 423.66 26.207"/><polyline transform="matrix(.89007 0 0 .89007 .70905 -10.28)" points="60.858 270.31 423.66 270.31"/><polyline transform="matrix(.89007 0 0 .89007 .70905 -10.28)" points="60.858 229.63 423.66 229.63"/><polyline transform="matrix(.89007 0 0 .89007 .70905 -10.28)" points="60.858 188.94 423.66 188.94"/><polyline transform="matrix(.89007 0 0 .89007 .70905 -10.28)" points="60.858 148.26 423.66 148.26"/><polyline transform="matrix(.89007 0 0 .89007 .70905 -10.28)" points="60.858 107.58 423.66 107.58"/><polyline transform="matrix(.89007 0 0 .89007 .70905 -10.28)" points="60.858 66.891 423.66 66.891"/><polyline transform="matrix(.89007 0 0 .89007 .70905 -10.28)" points="60.858 26.207 423.66 26.207"/></g><polyline transform="matrix(.89007 0 0 .89007 .70905 -10.28)" points="60.858 311 423.66 311" stroke-linecap="square"/><polyline transform="matrix(.89007 0 0 .89007 .70905 -10.28)" points="60.858 311 60.858 26.207" stroke-linecap="square"/></g><text transform="matrix(.89007 0 0 .89007 207.87 125.01)" font-family="Lato" font-size="11.984px" stroke-width="1.498" style="font-variant-caps:normal;font-variant-east-asian:normal;font-variant-ligatures:normal;font-variant-numeric:normal" xml:space="preserve">CCT=5668 K</text></g></svg>
