<?xml version="1.0" encoding="UTF-8"?>
<svg width="960" height="400" version="1.1" viewBox="0 0 960 400" xml:space="preserve" xmlns="http://www.w3.org/2000/svg"><g font-family="Lato"><text transform="matrix(1.8932 0 0 1.8943 29.504 329.88)" font-size="8.4488px" font-weight="bold" stroke-linecap="round" stroke-linejoin="round" stroke-miterlimit="10" stroke-width=".2" style="font-variant-caps:normal;font-variant-east-asian:normal;font-variant-ligatures:normal;font-variant-numeric:normal;line-height:0%"><tspan x="0" y="0" font-family="Lato" font-size="8.4488px" font-weight="bold" style="font-variant-caps:normal;font-variant-east-asian:normal;font-variant-ligatures:normal;font-variant-numeric:normal;line-height:1.25">CIE Colorimetric Parameters</tspan></text><text transform="matrix(1.8932 0 0 1.8943 29.315 351.51)" font-size="8.4489px" style="font-variant-caps:normal;font-variant-east-asian:normal;font-variant-ligatures:normal;font-variant-numeric:normal;line-height:0%"><tspan x="0" y="0" dy="0 0 0 0 0 0 0 0 0 0 0 0 0 0 0 0 0 0 0 0 0 0 0 0 0 0 0 0 0 0 0" font-family="Lato" font-size="8.4489px" style="font-variant-caps:normal;font-variant-east-asian:normal;font-variant-ligatures:normal;font-variant-numeric:normal;line-height:1.25">Chromaticity coordinates: x=0.3123 y=0.3282 u'=0.1979 v'=0.4678</tspan></text><text transform="matrix(1.8937 0 0 1.8949 -7.0819 1520.8)" x="19.2194" y="-605.67859" font-size="8.4463px" stroke-width=".9997" style="font-variant-caps:normal;font-variant-east-asian:normal;font-variant-ligatures:normal;font-variant-numeric:normal;line-height:0%"><tspan x="19.2194" y="-605.67859" dy="0 0 0 0 0 0 0 0" font-family="Lato" font-size="8.4463px" stroke-width=".9997" style="font-variant-caps:normal;font-variant-east-asian:normal;font-variant-ligatures:normal;font-variant-numeric:normal;line-height:1.25">CCT: Tc=6536K</tspan></text><text transform="matrix(1.8932,0,0,1.8943,419.91,373.36)" font-size="8.4489px" style="font-variant-caps:normal;font-variant-east-asian:normal;font-variant-ligatures:normal;font-variant-numeric:normal;line-height:0%"><tspan x="0" y="0" font-family="Lato" font-size="8.4489px" style="font-variant-caps:normal;font-variant-east-asian:normal;font-variant-ligatures:normal;font-variant-numeric:normal;line-height:1.25">Color Ratio: R=0.151 G=0.786 B=0.063 </tspan></text><text transform="matrix(1.8932,0,0,1.8943,238.82,373.09)" font-size="8.4489px" style="font-variant-caps:normal;font-variant-east-asian:normal;font-variant-ligatures:normal;font-variant-numeric:normal;line-height:0%"><tspan x="0" y="0" font-family="Lato" font-size="8.4489px" style="font-variant-caps:normal;font-variant-east-asian:normal;font-variant-ligatures:normal;font-variant-numeric:normal;line-height:1.25">CRI: Ra= 92</tspan></text></g><path transform="matrix(.89078 0 0 .89078 .7017 -10.296)" d="m90.298 301 0.8891 0.296 0.9006 0.284 0.9132 0.274 0.9265 0.262 0.9391 0.249 0.9507 0.239 0.9622 0.226 0.9739 0.214 0.9873 0.203 0.9979 0.191 1.01 0.179 1.022 0.167 1.033 0.155 1.045 0.143 1.055 0.132 1.067 0.119 1.08 0.107 1.089 0.096 1.099 0.083 1.112 0.071 1.121 0.061 1.132 0.047 1.141 0.035 1.153 0.024 1.164 0.012h1.173l1.183-0.013 1.192-0.024 1.202-0.036 1.213-0.049 1.222-0.06 1.231-0.073 1.24-0.084 1.249-0.096 1.259-0.108 1.266-0.12 1.277-0.133 1.284-0.144 1.294-0.155 1.3-0.169 1.311-0.179 1.317-0.191 1.325-0.203 1.335-0.216 1.34-0.227 1.348-0.239 1.358-0.25 1.363-0.262 1.37-0.274 1.378-0.286 1.385-0.297 1.392-0.309 1.397-0.32 1.404-0.333 1.411-0.343 1.416-0.355 1.423-0.366 1.429-0.378 1.434-0.39 1.441-0.4 1.445-0.412 1.451-0.422 1.455-0.435 1.463-0.445 1.464-0.456 1.471-0.468 1.476-0.479 1.479-0.49 1.485-0.5 1.488-0.512 1.491-0.522 1.497-0.533 1.5-0.544 1.503-0.554 1.507-0.565 1.509-0.576 1.513-0.586 1.516-0.596 1.519-0.607 1.521-0.617 1.524-0.628 1.526-0.638 1.529-0.648 1.53-0.658 1.532-0.667 1.535-0.678 1.535-0.688 1.536-0.697 1.539-0.707 1.54-0.717 1.54-0.727 1.541-0.736 1.541-0.745 1.543-0.755 1.543-0.764 1.542-0.773 1.543-0.783 1.543-0.791 1.543-0.801 1.542-0.809 1.541-0.818 1.541-0.827 1.539-0.836 1.538-0.844 1.538-0.853 1.537-0.86 1.534-0.87 1.533-0.877 1.532-0.886 1.53-0.894 1.526-0.901 1.525-0.91 1.521-0.918 1.522-0.924 1.516-0.934 1.514-0.939 1.511-0.948 1.509-0.955 1.504-0.962 1.5-0.97 1.498-0.976 1.495-0.983 1.489-0.99 1.486-0.996 1.482-1.004 1.476-1.01 1.473-1.016 1.468-1.023 1.463-1.028 1.458-1.035 1.453-1.041 1.448-1.047 1.443-1.053 1.436-1.058 1.431-1.065 1.424-1.069 1.421-1.075 1.413-1.08 1.406-1.085 1.401-1.091 1.393-1.095 1.387-1.101 1.381-1.105 1.373-1.109 1.367-1.115 1.359-1.118 1.352-1.123 1.344-1.127 1.337-1.13 1.329-1.135 1.321-1.14 1.312-1.141 1.305-1.147 1.297-1.149 1.287-1.153 1.28-1.157 1.271-1.159 1.262-1.163 1.253-1.165 1.243-1.169 1.235-1.17 1.226-1.173 1.216-1.176 1.206-1.179 1.197-1.18 1.187-1.183 1.177-1.184 1.167-1.186 1.157-1.189 1.146-1.189 1.138-1.191 1.124-1.193 1.115-1.194 1.105-1.195 1.094-1.196 1.083-1.196 1.072-1.199 1.059-1.198 1.05-1.199 1.038-1.199 1.027-1.2 1.014-1.2 1.003-1.199 0.992-1.201 0.979-1.199 0.967-1.2 0.956-1.199 0.943-1.198 0.931-1.198 0.919-1.197 0.906-1.195 0.893-1.196 0.882-1.194 0.868-1.193 0.855-1.191 0.844-1.189 0.829-1.189 0.817-1.187 0.804-1.184 0.789-1.183 0.777-1.18 0.764-1.179 0.75-1.176 0.738-1.174 0.722-1.171 0.71-1.168 0.696-1.166 0.682-1.163 0.668-1.159 0.655-1.157 0.64-1.153 0.625-1.151 0.611-1.146 0.598-1.143 0.584-1.139 0.569-1.135 0.555-1.132 0.541-1.127 0.524-1.124 0.512-1.119 0.497-1.114 0.483-1.11 0.467-1.105 0.452-1.101 0.439-1.096 0.423-1.09 0.409-1.087 0.392-1.08 0.378-1.076 0.364-1.069 0.348-1.065 0.334-1.06 0.319-1.053 0.302-1.047 0.289-1.041 0.273-1.036 0.257-1.03 0.244-1.023 0.226-1.017 0.212-1.011 0.197-1.004 0.181-0.997 0.166-0.99 0.15-0.984 0.135-0.977 0.121-0.97 0.104-0.963 0.089-0.956 0.075-0.948 0.058-0.941 0.042-0.933 0.028-0.926 0.013-0.918-4e-3 -0.911-0.02-0.902-0.033-0.894-0.05-0.887-0.065-0.878-0.081-0.871-0.095-0.861-0.111-0.853-0.127-0.8457-0.143-0.8361-0.156-0.8281-0.173-0.8188-0.189-0.8101-0.202-0.8014-0.219-0.7922-0.235-0.7835-0.249-0.7741-0.263-0.7649-0.28-0.7562-0.294-0.7462-0.311-0.7369-0.324-0.7269-0.341-0.7183-0.354-0.7075-0.37-0.699-0.385-0.6883-0.4-0.679-0.415-0.669-0.43-0.659-0.444-0.6483-0.46-0.6391-0.473-0.6284-0.489-0.6183-0.503-0.6078-0.517-0.5978-0.532-0.5871-0.548-0.5764-0.561-0.5659-0.575-0.5558-0.589-0.5445-0.604-0.5345-0.618-0.5233-0.633-0.5119-0.646-0.5019-0.66-0.4906-0.675-0.4792-0.687-0.4693-0.702-0.4573-0.716-0.4467-0.728-0.4354-0.743-0.4246-0.756-0.4128-0.77-0.4014-0.783-0.39-0.795-0.3788-0.809-0.3674-0.823-0.3568-0.835-0.3442-0.848-0.3328-0.862-0.3222-0.874-0.3095-0.886-0.2983-0.9-0.2869-0.911-0.2749-0.924-0.2636-0.937-0.2516-0.948-0.2396-0.961-0.2283-0.973-0.2164-0.984-0.2044-0.997-0.1923-1.008-0.1817-1.021-0.1685-1.031-0.1571-1.042-0.1451-1.054-0.1338-1.065-0.1211-1.078-0.1092-1.087-0.0972-1.098-0.0859-1.109-0.0732-1.12-0.0619-1.13-0.0493-1.141-0.0372-1.151-0.0253-1.162-0.014-1.171-0.0013-1.182 0.0099-1.191 0.0227-1.2 0.0346-1.211 0.0466-1.22 0.0586-1.231 0.0699-1.237 0.0825-1.248 0.0945-1.257 0.1065-1.265 0.1179-1.275 0.1304-1.284 0.1418-1.292 0.1538-1.3 0.1664-1.308 0.1777-1.317 0.1897-1.323 0.2011-1.334 0.2137-1.339 0.2256-1.347 0.2364-1.355 0.2489-1.363 0.2603-1.37 0.2722-1.376 0.2836-1.383 0.2949-1.391 0.3069-1.397 0.3188-1.403 0.3302-1.408 0.3415-1.417 0.3528-1.422 0.3654-1.427 0.3755-1.434 0.3874-1.439 0.3987-1.444 0.4101-1.451 0.4213-1.455 0.4321-1.461 0.4439-1.465 0.4547-1.469 0.4659-1.475 0.4767-1.479 0.4879-1.483 0.4993-1.488 0.5092-1.491 0.5205-1.496 0.5312-1.498 0.5425-1.503 0.5526-1.507 0.5638-1.509 0.5731-1.513 0.5845-1.515 0.5957-1.519 0.6051-1.52 0.6151-1.524 0.6264-1.526 0.6357-1.528 0.6464-1.53 0.6556-1.532 0.667-1.533 0.6764-1.536 0.6862-1.537 0.6956-1.538 0.7057-1.54 0.7156-1.539 0.7249-1.541 0.7342-1.542 0.7435-1.541 0.7536-1.544 0.7628-1.542 0.7715-1.544 0.7808-1.542 0.7902-1.543 0.7988-1.541 0.8081-1.542 0.8168-1.541 0.8261-1.539 0.8341-1.54 0.8427-1.538 0.851-1.536 0.86-1.535 0.868-1.532 0.876-1.533 0.885-1.528 0.892-1.529 0.901-1.525 0.908-1.523 0.916-1.52 0.924-1.517 0.932-1.514 0.938-1.513 0.947-1.507 0.954-1.505 0.96-1.503 0.968-1.498 0.975-1.495 0.982-1.489 0.99-1.488 0.995-1.481 1.002-1.479 1.009-1.472 1.015-1.469 1.022-1.464 1.028-1.459 1.034-1.453 1.04-1.449 1.046-1.444 1.052-1.437 1.057-1.432 1.064-1.427 1.068-1.419 1.074-1.415 1.08-1.408 1.085-1.401 1.089-1.394 1.095-1.388 1.099-1.382 1.104-1.375 1.109-1.367 1.113-1.361 1.119-1.352 1.121-1.347 1.127-1.337 1.13-1.33 1.135-1.322 1.137-1.314 1.143-1.306 1.145-1.299 1.149-1.289 1.153-1.281 1.155-1.272 1.16-1.264 1.162-1.254 1.164-1.244 1.168-1.238 1.171-1.227 1.173-1.217 1.175-1.208 1.178-1.198 1.181-1.188 1.182-1.179 1.183-1.169 1.187-1.159 1.188-1.148 1.189-1.138 1.19-1.127 1.193-1.117 1.194-1.107 1.195-1.095 1.196-1.084 1.196-1.073 1.198-1.063 1.199-1.05 1.198-1.039 1.199-1.029 1.2-1.016 1.199-1.0055 1.201-0.9926 1.2-0.9819 1.199-0.9703 1.199-0.9569 1.2-0.9444 1.198-0.9337 1.198-0.9212 1.198-0.9078 1.196-0.8953 1.195-0.8838 1.194-0.8703 1.193-0.8569 1.191-0.8453 1.19-0.8311 1.189-0.8194 1.187-0.8061 1.185-0.7917 1.183-0.7793 1.181-0.7659 1.179-0.7516 1.176-0.74 1.174-0.7257 1.172-0.7115 1.168-0.6971 1.167-0.6847 1.163-0.6703 1.16-0.6561 1.157-0.6418 1.154-0.6284 1.151-0.6142 1.147-0.5998 1.143-0.5865 1.14-0.5713 1.135-0.5561 1.133-0.5427 1.128-0.5294 1.124-0.5132 1.119-0.499 1.116-0.4838 1.11-0.4704 1.107-0.4553 1.101-0.4401 1.097-0.4249 1.091-0.4106 1.087-0.3963 1.082-0.3803 1.076-0.3668 1.071-0.35 1.066-0.3365 1.059-0.3196 1.054-0.3061 1.049-0.291 1.042-0.275 1.037-0.2606 1.03-0.2455 1.024-0.2285 1.018-0.2142 1.012-0.1991 1.005-0.1839 0.998-0.1687 0.992-0.1535 0.985-0.1375 0.978-0.1223 0.971-0.1071 0.964-0.0919 0.957-0.0768 0.949-0.0598 0.943-0.0455 0.934-0.0295 0.927-0.0152 0.919 9e-4 0.912 0.0161 0.904 0.0312 0.896 0.0482 0.887 0.0625 0.88 0.0777 0.871 0.0946 0.864 0.108 0.854 0.1241 0.847 0.1392 0.837 0.1554 0.829 0.1705 0.821 0.1856 0.811 0.2 0.803 0.2169 0.794 0.2312 0.784 0.2472 0.777 0.2616 0.766 0.2767 0.757 0.2928 0.748 0.3079 0.738 0.3223 0.73 0.3374 0.719 0.3526 0.709 0.3669 0.7 0.3829 0.69 0.3981 0.681 0.4115 0.67 0.4276 0.661 0.4419 0.65 0.4579 0.64 0.4713 0.63 0.4856 0.621 0.4999 0.609 0.5159 0.599 0.5302 0.589 0.5446 0.578 0.5579 0.568 0.573 0.557 0.5883 0.547 0.6016 0.536 0.6159 0.525 0.6294 0.514 0.6444 0.503 0.6579 0.492 0.6722 0.483 0.6855 0.47 0.6999 0.459 0.7132 0.449 0.7266 0.436 0.7409 0.426 0.7533 0.414 0.7677 0.404 0.7811 0.392 0.7935 0.381 0.8079 0.37 0.8194 0.357 0.8337 0.347 0.8463 0.335 0.8587 0.323 0.8721 0.312" fill="#c2cccc"/><polygon transform="matrix(2.4278 0 0 2.4278 -332.62 -294.45)" points="217.36 184.01 217.86 184.88 217.36 185.74 216.36 185.74 215.86 184.88 216.36 184.01" fill="#f0f" shape-rendering="crispEdges" stroke-width=".5492"/><g font-family="Lato" font-size="11.626px" stroke-width="1.4968"><text transform="matrix(.89078 0 0 .89078 41.106 283.65)" style="font-variant-caps:normal;font-variant-east-asian:normal;font-variant-ligatures:normal;font-variant-numeric:normal" xml:space="preserve">0.308</text><text transform="matrix(.89078 0 0 .89078 108.86 283.65)" style="font-variant-caps:normal;font-variant-east-asian:normal;font-variant-ligatures:normal;font-variant-numeric:normal" xml:space="preserve">0.31</text><text transform="matrix(.89078 0 0 .89078 170.38 283.65)" style="font-variant-caps:normal;font-variant-east-asian:normal;font-variant-ligatures:normal;font-variant-numeric:normal" xml:space="preserve">0.312</text><text transform="matrix(.89078 0 0 .89078 235.01 283.65)" style="font-variant-caps:normal;font-variant-east-asian:normal;font-variant-ligatures:normal;font-variant-numeric:normal" xml:space="preserve">0.314</text><text transform="matrix(.89078 0 0 .89078 299.65 283.65)" style="font-variant-caps:normal;font-variant-east-asian:normal;font-variant-ligatures:normal;font-variant-numeric:normal" xml:space="preserve">0.316</text><text transform="matrix(.89078 0 0 .89078 364.29 283.65)" style="font-variant-caps:normal;font-variant-east-asian:normal;font-variant-ligatures:normal;font-variant-numeric:normal" xml:space="preserve">0.318</text><text transform="matrix(.89078 0 0 .89078 21.957 271.18)" style="font-variant-caps:normal;font-variant-east-asian:normal;font-variant-ligatures:normal;font-variant-numeric:normal" xml:space="preserve">0.322</text><text transform="matrix(.89078 0 0 .89078 21.957 234.94)" style="font-variant-caps:normal;font-variant-east-asian:normal;font-variant-ligatures:normal;font-variant-numeric:normal" xml:space="preserve">0.324</text><text transform="matrix(.89078 0 0 .89078 21.957 198.7)" style="font-variant-caps:normal;font-variant-east-asian:normal;font-variant-ligatures:normal;font-variant-numeric:normal" xml:space="preserve">0.326</text><text transform="matrix(.89078 0 0 .89078 21.957 162.46)" style="font-variant-caps:normal;font-variant-east-asian:normal;font-variant-ligatures:normal;font-variant-numeric:normal" xml:space="preserve">0.328</text><text transform="matrix(.89078 0 0 .89078 28.192 126.22)" style="font-variant-caps:normal;font-variant-east-asian:normal;font-variant-ligatures:normal;font-variant-numeric:normal" xml:space="preserve">0.33</text><text transform="matrix(.89078 0 0 .89078 21.957 89.983)" style="font-variant-caps:normal;font-variant-east-asian:normal;font-variant-ligatures:normal;font-variant-numeric:normal" xml:space="preserve">0.332</text><text transform="matrix(.89078 0 0 .89078 21.957 53.743)" style="font-variant-caps:normal;font-variant-east-asian:normal;font-variant-ligatures:normal;font-variant-numeric:normal" xml:space="preserve">0.334</text><text transform="matrix(.89078 0 0 .89078 21.957 17.503)" style="font-variant-caps:normal;font-variant-east-asian:normal;font-variant-ligatures:normal;font-variant-numeric:normal" xml:space="preserve">0.336</text><text transform="matrix(.89078 0 0 .89078 201.36 297.9)" style="font-variant-caps:normal;font-variant-east-asian:normal;font-variant-ligatures:normal;font-variant-numeric:normal" xml:space="preserve">CIE-X</text><text transform="matrix(0 -.89078 .89078 0 17.503 155.03)" style="font-variant-caps:normal;font-variant-east-asian:normal;font-variant-ligatures:normal;font-variant-numeric:normal" xml:space="preserve">CIE-Y</text></g><g fill="none" stroke="#858585" stroke-dasharray="7.42189, 0" stroke-width=".33705"><polyline transform="matrix(.89007 0 0 .89007 .70905 -10.28)" points="133.42 311 133.42 26.207"/><polyline transform="matrix(.89007 0 0 .89007 .70905 -10.28)" points="205.98 311 205.98 26.207"/><polyline transform="matrix(.89007 0 0 .89007 .70905 -10.28)" points="278.54 311 278.54 26.207"/><polyline transform="matrix(.89007 0 0 .89007 .70905 -10.28)" points="351.1 311 351.1 26.207"/><polyline transform="matrix(.89007 0 0 .89007 .70905 -10.28)" points="423.66 311 423.66 26.207"/><polyline transform="matrix(.89007 0 0 .89007 .70905 -10.28)" points="60.858 270.31 423.66 270.31"/><polyline transform="matrix(.89007 0 0 .89007 .70905 -10.28)" points="60.858 229.63 423.66 229.63"/><polyline transform="matrix(.89007 0 0 .89007 .70905 -10.28)" points="60.858 188.94 423.66 188.94"/><polyline transform="matrix(.89007 0 0 .89007 .70905 -10.28)" points="60.858 148.26 423.66 148.26"/><polyline transform="matrix(.89007 0 0 .89007 .70905 -10.28)" points="60.858 107.58 423.66 107.58"/><polyline transform="matrix(.89007 0 0 .89007 .70905 -10.28)" points="60.858 66.891 423.66 66.891"/><polyline transform="matrix(.89007 0 0 .89007 .70905 -10.28)" points="60.858 26.207 423.66 26.207"/><polyline transform="matrix(.89007 0 0 .89007 .70905 -10.28)" points="60.858 311 423.66 311" stroke-linecap="square"/><polyline transform="matrix(.89007 0 0 .89007 .70905 -10.28)" points="60.858 311 60.858 26.207" stroke-linecap="square"/></g><text transform="matrix(.89078 0 0 .89078 195.09 152.28)" font-family="Lato" font-size="11.975px" stroke-width="1.4968" style="font-variant-caps:normal;font-variant-east-asian:normal;font-variant-ligatures:normal;font-variant-numeric:normal" xml:space="preserve">CCT=6536 K</text><g transform="matrix(.81914 0 0 .81914 354.81 -280.33)" stroke-miterlimit="2"><g fill="#262626"><path transform="matrix(.13328 0 0 .13339 0 1056)" d="m2195.5-2912.2v44.699h5.0019v-44.699z"/><path transform="matrix(.13328 0 0 .13339 0 1056)" d="m3260.4-2912.2v44.699h5.0019v-44.699z"/><path transform="matrix(.13328 0 0 .13339 0 1056)" d="m4325.2-2912.2v44.699h5.0039v-44.699z"/></g><g stroke-linejoin="round"><path transform="matrix(.13328 0 0 .13339 0 1056)" d="m920.9-2875.9v8.4199h20.01v-8.4199z" fill="#610061"/><path transform="matrix(.13328 0 0 .13339 0 1056)" d="m931.55-2884.2v16.709h20.01v-16.709z" fill="#640065"/><path transform="matrix(.13328 0 0 .13339 0 1056)" d="m942.19-2874.7v7.1699h20.008v-7.1699z" fill="#67006a"/><path transform="matrix(.13328 0 0 .13339 0 1056)" d="m952.84-2881.2v13.68h20.008v-13.68z" fill="#6a006e"/><path transform="matrix(.13328 0 0 .13339 0 1056)" d="m963.49-2875.7v8.209h20.008v-8.209z" fill="#6c0073"/><path transform="matrix(.13328 0 0 .13339 0 1056)" d="m974.14-2871.6v4.1093h20.008v-4.1093z" fill="#6f0077"/><path transform="matrix(.13328 0 0 .13339 0 1056)" d="m984.79-2869v1.5097h20.01v-1.5097z" fill="#71007b"/><path transform="matrix(.13328 0 0 .13339 0 1056)" d="m995.44-2868.6v1.08h20.008v-1.08z" fill="#73007f"/><path transform="matrix(.13328 0 0 .13339 0 1056)" d="m1006.1-2870.9v3.4492h20.008v-3.4492z" fill="#750084"/><path transform="matrix(.13328 0 0 .13339 0 1056)" d="m1016.7-2873.6v6.1093h20.008v-6.1093z" fill="#708"/><path transform="matrix(.13328 0 0 .13339 0 1056)" d="m1027.4-2870.9v3.4492h20.01v-3.4492z" fill="#79008c"/><path transform="matrix(.13328 0 0 .13339 0 1056)" d="m1038-2872v4.539h20.01v-4.539z" fill="#7b0090"/><path transform="matrix(.13328 0 0 .13339 0 1056)" d="m1048.7-2869.7v2.1699h20.008v-2.1699z" fill="#7c0094"/><path transform="matrix(.13328 0 0 .13339 0 1056)" d="m1059.3-2870.3v2.8496h20.008v-2.8496z" fill="#7d0098"/><path transform="matrix(.13328 0 0 .13339 0 1056)" d="m1070-2869.2v1.7402h20.008v-1.7402z" fill="#7e009c"/><path transform="matrix(.13328 0 0 .13339 0 1056)" d="m1080.6-2868.5v0.9804h20.01v-0.9804z" fill="#7f00a0"/><path transform="matrix(.13328 0 0 .13339 0 1056)" d="m1091.3-2872v4.5195h20.01v-4.5195z" fill="#8000a4"/><path transform="matrix(.13328 0 0 .13339 0 1056)" d="m1101.9-2870.2v2.7597h20.008v-2.7597z" fill="#8100a8"/><path transform="matrix(.13328 0 0 .13339 0 1056)" d="m1112.6-2871v3.5293h20.008v-3.5293z" fill="#8100ac"/><path transform="matrix(.13328 0 0 .13339 0 1056)" d="m1123.2-2869.7v2.2402h20.01v-2.2402z" fill="#8200b0"/><path transform="matrix(.13328 0 0 .13339 0 1056)" d="m1133.9-2871.3v3.8496h20.01v-3.8496z" fill="#8200b4"/><path transform="matrix(.13328 0 0 .13339 0 1056)" d="m1144.5-2870.4v2.9492h20.008v-2.9492z" fill="#8200b8"/><path transform="matrix(.13328 0 0 .13339 0 1056)" d="m1155.2-2870.1v2.5996h20.008v-2.5996z" fill="#8200bc"/><path transform="matrix(.13328 0 0 .13339 0 1056)" d="m1165.8-2871.6v4.0898h20.008v-4.0898z" fill="#8200c0"/><path transform="matrix(.13328 0 0 .13339 0 1056)" d="m1176.5-2871.9v4.4492h20.01v-4.4492z" fill="#8200c4"/><path transform="matrix(.13328 0 0 .13339 0 1056)" d="m1187.1-2872.5v4.9902h20.01v-4.9902z" fill="#8100c7"/><path transform="matrix(.13328 0 0 .13339 0 1056)" d="m1197.8-2873.8v6.2695h20.008v-6.2695z" fill="#8100cb"/><path transform="matrix(.13328 0 0 .13339 0 1056)" d="m1208.4-2869.5v2.0293h20.008v-2.0293z" fill="#8000cf"/><path transform="matrix(.13328 0 0 .13339 0 1056)" d="m1219-2872.1v4.6504h20.01v-4.6504z" fill="#7f00d3"/><path transform="matrix(.13328 0 0 .13339 0 1056)" d="m1229.7-2874.7v7.1992h20.01v-7.1992z" fill="#7e00d6"/><path transform="matrix(.13328 0 0 .13339 0 1056)" d="m1240.3-2875.9v8.4199h20.008v-8.4199z" fill="#7d00da"/><path transform="matrix(.13328 0 0 .13339 0 1056)" d="m1251-2879v11.48h20.008v-11.48z" fill="#7c00de"/><path transform="matrix(.13328 0 0 .13339 0 1056)" d="m1261.6-2879.6v12.09h20.008v-12.09z" fill="#7a00e2"/><path transform="matrix(.13328 0 0 .13339 0 1056)" d="m1272.3-2879.6v12.109h20.01v-12.109z" fill="#7900e5"/><path transform="matrix(.13328 0 0 .13339 0 1056)" d="m1282.9-2880.8v13.34h20.008v-13.34z" fill="#7700e9"/><path transform="matrix(.13328 0 0 .13339 0 1056)" d="m1293.6-2884.7v17.219h20.008v-17.219z" fill="#7500ec"/><path transform="matrix(.13328 0 0 .13339 0 1056)" d="m1304.2-2886v18.539h20.008v-18.539z" fill="#7300f0"/><path transform="matrix(.13328 0 0 .13339 0 1056)" d="m1314.9-2889.7v22.17h20.01v-22.17z" fill="#7100f4"/><path transform="matrix(.13328 0 0 .13339 0 1056)" d="m1325.5-2894.8v27.299h20.01v-27.299z" fill="#6f00f7"/><path transform="matrix(.13328 0 0 .13339 0 1056)" d="m1336.2-2900.1v32.66h20.008v-32.66z" fill="#6c00fb"/><path transform="matrix(.13328 0 0 .13339 0 1056)" d="m1346.8-2905.1v37.609h20.008v-37.609z" fill="#6900ff"/><path transform="matrix(.13328 0 0 .13339 0 1056)" d="m1357.5-2911.2v43.77h20.008v-43.77z" fill="#6500ff"/><path transform="matrix(.13328 0 0 .13339 0 1056)" d="m1368.1-2920.5v53.029h20.01v-53.029z" fill="#6100ff"/><path transform="matrix(.13328 0 0 .13339 0 1056)" d="m1378.8-2929.3v61.799h20.01v-61.799z" fill="#5c00ff"/><path transform="matrix(.13328 0 0 .13339 0 1056)" d="m1389.4-2939.2v71.75h20.008v-71.75z" fill="#5800ff"/><path transform="matrix(.13328 0 0 .13339 0 1056)" d="m1400.1-2951.7v84.23h20.008v-84.23z" fill="#5400ff"/><path transform="matrix(.13328 0 0 .13339 0 1056)" d="m1410.7-2965.1v97.57h20.01v-97.57z" fill="#4f00ff"/><path transform="matrix(.13328 0 0 .13339 0 1056)" d="m1421.4-2982.7v115.18h20.01v-115.18z" fill="#4b00ff"/><path transform="matrix(.13328 0 0 .13339 0 1056)" d="m1432-3002v134.48h20.008v-134.48z" fill="#4600ff"/><path transform="matrix(.13328 0 0 .13339 0 1056)" d="m1442.7-3024.2v156.75h20.008v-156.75z" fill="#4100ff"/><path transform="matrix(.13328 0 0 .13339 0 1056)" d="m1453.3-3049.9v182.38h20.008v-182.38z" fill="#3c00ff"/><path transform="matrix(.13328 0 0 .13339 0 1056)" d="m1464-3076.4v208.89h20.01v-208.89z" fill="#3700ff"/><path transform="matrix(.13328 0 0 .13339 0 1056)" d="m1474.6-3111.2v243.77h20.01v-243.77z" fill="#3200ff"/><path transform="matrix(.13328 0 0 .13339 0 1056)" d="m1485.2-3149.2v281.73h20.008v-281.73z" fill="#2d00ff"/><path transform="matrix(.13328 0 0 .13339 0 1056)" d="m1495.9-3193.9v326.46h20.008v-326.46z" fill="#2800ff"/><path transform="matrix(.13328 0 0 .13339 0 1056)" d="m1506.5-3244.5v377h20.01v-377z" fill="#20f"/><path transform="matrix(.13328 0 0 .13339 0 1056)" d="m1517.2-3304.8v437.32h20.01v-437.32z" fill="#1d00ff"/><path transform="matrix(.13328 0 0 .13339 0 1056)" d="m1527.8-3371.7v504.17h20.008v-504.17z" fill="#1700ff"/><path transform="matrix(.13328 0 0 .13339 0 1056)" d="m1538.5-3448.1v580.59h20.008v-580.59z" fill="#1000ff"/><path transform="matrix(.13328 0 0 .13339 0 1056)" d="m1549.1-3544.3v676.79h20.008v-676.79z" fill="#0900ff"/><path transform="matrix(.13328 0 0 .13339 0 1056)" d="m1559.8-3657.7v790.19h20.01v-790.19z" fill="#00f"/><path transform="matrix(.13328 0 0 .13339 0 1056)" d="m1570.4-3785.9v918.46h20.008v-918.46z" fill="#000bff"/><path transform="matrix(.13328 0 0 .13339 0 1056)" d="m1581.1-3938.9v1071.4h20.008v-1071.4z" fill="#0013ff"/><path transform="matrix(.13328 0 0 .13339 0 1056)" d="m1591.7-4102.3v1234.9h20.008v-1234.9z" fill="#001aff"/><path transform="matrix(.13328 0 0 .13339 0 1056)" d="m1602.4-4297.4v1429.9h20.01v-1429.9z" fill="#0021ff"/><path transform="matrix(.13328 0 0 .13339 0 1056)" d="m1613-4507.4v1639.9h20.01v-1639.9z" fill="#0028ff"/><path transform="matrix(.13328 0 0 .13339 0 1056)" d="m1623.7-4698.6v1831.2h20.008v-1831.2z" fill="#002eff"/><path transform="matrix(.13328 0 0 .13339 0 1056)" d="m1634.3-4882.3v2014.8h20.008v-2014.8z" fill="#0034ff"/><path transform="matrix(.13328 0 0 .13339 0 1056)" d="m1645-5016.6v2149.1h20.008v-2149.1z" fill="#003aff"/><path transform="matrix(.13328 0 0 .13339 0 1056)" d="m1655.6-5114.4v2246.9h20.01v-2246.9z" fill="#0040ff"/><path transform="matrix(.13328 0 0 .13339 0 1056)" d="m1666.3-5157.6v2290.1h20.008v-2290.1z" fill="#0046ff"/><path transform="matrix(.13328 0 0 .13339 0 1056)" d="m1676.9-5117.1v2249.6h20.008v-2249.6z" fill="#004bff"/><path transform="matrix(.13328 0 0 .13339 0 1056)" d="m1687.6-5044.6v2177.1h20.008v-2177.1z" fill="#0051ff"/><path transform="matrix(.13328 0 0 .13339 0 1056)" d="m1698.2-4929.2v2061.8h20.01v-2061.8z" fill="#0056ff"/><path transform="matrix(.13328 0 0 .13339 0 1056)" d="m1708.9-4761.4v1893.9h20.01v-1893.9z" fill="#005cff"/><path transform="matrix(.13328 0 0 .13339 0 1056)" d="m1719.5-4598.7v1731.2h20.008v-1731.2z" fill="#0061ff"/><path transform="matrix(.13328 0 0 .13339 0 1056)" d="m1730.2-4449.2v1581.8h20.008v-1581.8z" fill="#06f"/><path transform="matrix(.13328 0 0 .13339 0 1056)" d="m1740.8-4301v1433.5h20.008v-1433.5z" fill="#006bff"/><path transform="matrix(.13328 0 0 .13339 0 1056)" d="m1751.5-4195.8v1328.3h20.01v-1328.3z" fill="#0070ff"/><path transform="matrix(.13328 0 0 .13339 0 1056)" d="m1762.1-4112.6v1245.1h20.01v-1245.1z" fill="#0075ff"/><path transform="matrix(.13328 0 0 .13339 0 1056)" d="m1772.8-4048v1180.5h20.008v-1180.5z" fill="#007aff"/><path transform="matrix(.13328 0 0 .13339 0 1056)" d="m1783.4-3994.8v1127.3h20.008v-1127.3z" fill="#007fff"/><path transform="matrix(.13328 0 0 .13339 0 1056)" d="m1794.1-3954.9v1087.4h20.008v-1087.4z" fill="#0084ff"/><path transform="matrix(.13328 0 0 .13339 0 1056)" d="m1804.7-3919.7v1052.2h20.01v-1052.2z" fill="#0089ff"/><path transform="matrix(.13328 0 0 .13339 0 1056)" d="m1815.4-3892.9v1025.5h20.01v-1025.5z" fill="#008dff"/><path transform="matrix(.13328 0 0 .13339 0 1056)" d="m1826-3860.6v993.13h20.008v-993.13z" fill="#0092ff"/><path transform="matrix(.13328 0 0 .13339 0 1056)" d="m1836.6-3818.3v950.86h20.008v-950.86z" fill="#0097ff"/><path transform="matrix(.13328 0 0 .13339 0 1056)" d="m1847.3-3768.5v901.01h20.01v-901.01z" fill="#009bff"/><path transform="matrix(.13328 0 0 .13339 0 1056)" d="m1857.9-3717v849.52h20.01v-849.52z" fill="#00a0ff"/><path transform="matrix(.13328 0 0 .13339 0 1056)" d="m1868.6-3657.8v790.3h20.008v-790.3z" fill="#00a4ff"/><path transform="matrix(.13328 0 0 .13339 0 1056)" d="m1879.2-3601.4v733.97h20.008v-733.97z" fill="#00a9ff"/><path transform="matrix(.13328 0 0 .13339 0 1056)" d="m1889.9-3557.5v690h20.01v-690z" fill="#00adff"/><path transform="matrix(.13328 0 0 .13339 0 1056)" d="m1900.5-3512.1v644.59h20.01v-644.59z" fill="#00b2ff"/><path transform="matrix(.13328 0 0 .13339 0 1056)" d="m1911.2-3477.4v609.9h20.008v-609.9z" fill="#00b6ff"/><path transform="matrix(.13328 0 0 .13339 0 1056)" d="m1921.8-3451.3v583.83h20.008v-583.83z" fill="#0bf"/><path transform="matrix(.13328 0 0 .13339 0 1056)" d="m1932.5-3432.8v565.32h20.008v-565.32z" fill="#00bfff"/><path transform="matrix(.13328 0 0 .13339 0 1056)" d="m1943.1-3421.3v553.83h20.01v-553.83z" fill="#00c4ff"/><path transform="matrix(.13328 0 0 .13339 0 1056)" d="m1953.8-3414.3v546.79h20.01v-546.79z" fill="#00c8ff"/><path transform="matrix(.13328 0 0 .13339 0 1056)" d="m1964.4-3412.5v544.98h20.008v-544.98z" fill="#0cf"/><path transform="matrix(.13328 0 0 .13339 0 1056)" d="m1975.1-3415.2v547.67h20.008v-547.67z" fill="#00d1ff"/><path transform="matrix(.13328 0 0 .13339 0 1056)" d="m1985.7-3416.7v549.23h20.01v-549.23z" fill="#00d5ff"/><path transform="matrix(.13328 0 0 .13339 0 1056)" d="m1996.4-3417v549.53h20.01v-549.53z" fill="#00d9ff"/><path transform="matrix(.13328 0 0 .13339 0 1056)" d="m2007-3422v554.52h20.008v-554.52z" fill="#0df"/><path transform="matrix(.13328 0 0 .13339 0 1056)" d="m2017.7-3427.3v559.84h20.008v-559.84z" fill="#00e2ff"/><path transform="matrix(.13328 0 0 .13339 0 1056)" d="m2028.3-3428.5v561.02h20.008v-561.02z" fill="#00e6ff"/><path transform="matrix(.13328 0 0 .13339 0 1056)" d="m2039-3434.6v567.1h20.01v-567.1z" fill="#00eaff"/><path transform="matrix(.13328 0 0 .13339 0 1056)" d="m2049.6-3439.9v572.44h20.01v-572.44z" fill="#0ef"/><path transform="matrix(.13328 0 0 .13339 0 1056)" d="m2060.3-3444.7v577.17h20.008v-577.17z" fill="#00f2ff"/><path transform="matrix(.13328 0 0 .13339 0 1056)" d="m2070.9-3452.2v584.76h20.008v-584.76z" fill="#00f6ff"/><path transform="matrix(.13328 0 0 .13339 0 1056)" d="m2081.5-3460.5v593.02h20.01v-593.02z" fill="#00faff"/><path transform="matrix(.13328 0 0 .13339 0 1056)" d="m2092.2-3468.3v600.86h20.01v-600.86z" fill="#0ff"/><path transform="matrix(.13328 0 0 .13339 0 1056)" d="m2102.8-3476.6v609.16h20.008v-609.16z" fill="#00fff4"/><path transform="matrix(.13328 0 0 .13339 0 1056)" d="m2113.5-3490.6v623.16h20.008v-623.16z" fill="#00ffea"/><path transform="matrix(.13328 0 0 .13339 0 1056)" d="m2124.1-3499.8v632.31h20.008v-632.31z" fill="#00ffdf"/><path transform="matrix(.13328 0 0 .13339 0 1056)" d="m2134.8-3512.6v645.07h20.01v-645.07z" fill="#00ffd5"/><path transform="matrix(.13328 0 0 .13339 0 1056)" d="m2145.4-3523.3v655.81h20.01v-655.81z" fill="#00ffca"/><path transform="matrix(.13328 0 0 .13339 0 1056)" d="m2156.1-3537.9v670.45h20.008v-670.45z" fill="#00ffbf"/><path transform="matrix(.13328 0 0 .13339 0 1056)" d="m2166.7-3551.3v683.83h20.008v-683.83z" fill="#00ffb4"/><path transform="matrix(.13328 0 0 .13339 0 1056)" d="m2177.4-3562.5v695.02h20.01v-695.02z" fill="#00ffa9"/><path transform="matrix(.13328 0 0 .13339 0 1056)" d="m2188-3572.6v705.1h20.01v-705.1z" fill="#00ff9e"/><path transform="matrix(.13328 0 0 .13339 0 1056)" d="m2198.7-3584.4v716.9h20.008v-716.9z" fill="#00ff92"/><path transform="matrix(.13328 0 0 .13339 0 1056)" d="m2209.3-3596.5v729h20.008v-729z" fill="#00ff86"/><path transform="matrix(.13328 0 0 .13339 0 1056)" d="m2220-3605.3v737.84h20.008v-737.84z" fill="#00ff7a"/><path transform="matrix(.13328 0 0 .13339 0 1056)" d="m2230.6-3611.9v744.46h20.01v-744.46z" fill="#00ff6e"/><path transform="matrix(.13328 0 0 .13339 0 1056)" d="m2241.3-3620.8v753.35h20.01v-753.35z" fill="#00ff61"/><path transform="matrix(.13328 0 0 .13339 0 1056)" d="m2251.9-3628.6v761.08h20.008v-761.08z" fill="#00ff54"/><path transform="matrix(.13328 0 0 .13339 0 1056)" d="m2262.6-3634.4v766.88h20.008v-766.88z" fill="#00ff46"/><path transform="matrix(.13328 0 0 .13339 0 1056)" d="m2273.2-3643.9v776.39h20.01v-776.39z" fill="#00ff37"/><path transform="matrix(.13328 0 0 .13339 0 1056)" d="m2283.9-3649.2v781.71h20.01v-781.71z" fill="#00ff28"/><path transform="matrix(.13328 0 0 .13339 0 1056)" d="m2294.5-3655v787.5h20.008v-787.5z" fill="#00ff17"/><path transform="matrix(.13328 0 0 .13339 0 1056)" d="m2305.2-3663.2v795.7h20.008v-795.7z" fill="#0f0"/><path transform="matrix(.13328 0 0 .13339 0 1056)" d="m2315.8-3666.1v798.59h20.008v-798.59z" fill="#08ff00"/><path transform="matrix(.13328 0 0 .13339 0 1056)" d="m2326.5-3670.2v802.77h20.01v-802.77z" fill="#0eff00"/><path transform="matrix(.13328 0 0 .13339 0 1056)" d="m2337.1-3675.5v808.02h20.01v-808.02z" fill="#14ff00"/><path transform="matrix(.13328 0 0 .13339 0 1056)" d="m2347.7-3679.2v811.77h20.008v-811.77z" fill="#19ff00"/><path transform="matrix(.13328 0 0 .13339 0 1056)" d="m2358.4-3683.7v816.25h20.008v-816.25z" fill="#1eff00"/><path transform="matrix(.13328 0 0 .13339 0 1056)" d="m2369.1-3687.2v819.7h20.008v-819.7z" fill="#23ff00"/><path transform="matrix(.13328 0 0 .13339 0 1056)" d="m2379.7-3689.3v821.8h20.01v-821.8z" fill="#28ff00"/><path transform="matrix(.13328 0 0 .13339 0 1056)" d="m2390.3-3694.3v826.82h20.008v-826.82z" fill="#2cff00"/><path transform="matrix(.13328 0 0 .13339 0 1056)" d="m2401-3697.5v830.04h20.008v-830.04z" fill="#31ff00"/><path transform="matrix(.13328 0 0 .13339 0 1056)" d="m2411.6-3697.4v829.96h20.008v-829.96z" fill="#35ff00"/><path transform="matrix(.13328 0 0 .13339 0 1056)" d="m2422.3-3700.5v833.01h20.01v-833.01z" fill="#3aff00"/><path transform="matrix(.13328 0 0 .13339 0 1056)" d="m2432.9-3700.3v832.79h20.008v-832.79z" fill="#3eff00"/><path transform="matrix(.13328 0 0 .13339 0 1056)" d="m2443.6-3702.2v834.68h20.008v-834.68z" fill="#42ff00"/><path transform="matrix(.13328 0 0 .13339 0 1056)" d="m2454.2-3705.6v838.15h20.008v-838.15z" fill="#46ff00"/><path transform="matrix(.13328 0 0 .13339 0 1056)" d="m2464.9-3708.3v840.78h20.01v-840.78z" fill="#4aff00"/><path transform="matrix(.13328 0 0 .13339 0 1056)" d="m2475.5-3710v842.51h20.01v-842.51z" fill="#4eff00"/><path transform="matrix(.13328 0 0 .13339 0 1056)" d="m2486.2-3711.1v843.6h20.008v-843.6z" fill="#52ff00"/><path transform="matrix(.13328 0 0 .13339 0 1056)" d="m2496.8-3714.4v846.89h20.008v-846.89z" fill="#56ff00"/><path transform="matrix(.13328 0 0 .13339 0 1056)" d="m2507.5-3715.5v848.03h20.008v-848.03z" fill="#59ff00"/><path transform="matrix(.13328 0 0 .13339 0 1056)" d="m2518.1-3716.8v849.28h20.01v-849.28z" fill="#5dff00"/><path transform="matrix(.13328 0 0 .13339 0 1056)" d="m2528.8-3719.2v851.73h20.01v-851.73z" fill="#61ff00"/><path transform="matrix(.13328 0 0 .13339 0 1056)" d="m2539.4-3720.6v853.08h20.008v-853.08z" fill="#65ff00"/><path transform="matrix(.13328 0 0 .13339 0 1056)" d="m2550.1-3721.5v853.99h20.008v-853.99z" fill="#68ff00"/><path transform="matrix(.13328 0 0 .13339 0 1056)" d="m2560.7-3724.3v856.8h20.01v-856.8z" fill="#6cff00"/><path transform="matrix(.13328 0 0 .13339 0 1056)" d="m2571.4-3723.7v856.17h20.01v-856.17z" fill="#6fff00"/><path transform="matrix(.13328 0 0 .13339 0 1056)" d="m2582-3722.7v855.21h20.008v-855.21z" fill="#73ff00"/><path transform="matrix(.13328 0 0 .13339 0 1056)" d="m2592.7-3728.1v860.61h20.008v-860.61z" fill="#7f0"/><path transform="matrix(.13328 0 0 .13339 0 1056)" d="m2603.3-3730.1v862.66h20.008v-862.66z" fill="#7aff00"/><path transform="matrix(.13328 0 0 .13339 0 1056)" d="m2614-3728.7v861.17h20.01v-861.17z" fill="#7eff00"/><path transform="matrix(.13328 0 0 .13339 0 1056)" d="m2624.6-3730.2v862.69h20.01v-862.69z" fill="#81ff00"/><path transform="matrix(.13328 0 0 .13339 0 1056)" d="m2635.3-3730.1v862.58h20.008v-862.58z" fill="#84ff00"/><path transform="matrix(.13328 0 0 .13339 0 1056)" d="m2645.9-3733v865.51h20.008v-865.51z" fill="#8f0"/><path transform="matrix(.13328 0 0 .13339 0 1056)" d="m2656.6-3733.2v865.77h20.008v-865.77z" fill="#8bff00"/><path transform="matrix(.13328 0 0 .13339 0 1056)" d="m2667.2-3732.8v865.29h20.01v-865.29z" fill="#8fff00"/><path transform="matrix(.13328 0 0 .13339 0 1056)" d="m2677.8-3733.3v865.85h20.008v-865.85z" fill="#92ff00"/><path transform="matrix(.13328 0 0 .13339 0 1056)" d="m2688.5-3735.1v867.66h20.008v-867.66z" fill="#95ff00"/><path transform="matrix(.13328 0 0 .13339 0 1056)" d="m2699.1-3733.9v866.46h20.008v-866.46z" fill="#9f0"/><path transform="matrix(.13328 0 0 .13339 0 1056)" d="m2709.8-3734.3v866.83h20.01v-866.83z" fill="#9cff00"/><path transform="matrix(.13328 0 0 .13339 0 1056)" d="m2720.4-3734.5v867.04h20.01v-867.04z" fill="#9fff00"/><path transform="matrix(.13328 0 0 .13339 0 1056)" d="m2731.1-3732.5v865.03h20.008v-865.03z" fill="#a2ff00"/><path transform="matrix(.13328 0 0 .13339 0 1056)" d="m2741.7-3732.4v864.92h20.008v-864.92z" fill="#a6ff00"/><path transform="matrix(.13328 0 0 .13339 0 1056)" d="m2752.4-3732.9v865.42h20.01v-865.42z" fill="#a9ff00"/><path transform="matrix(.13328 0 0 .13339 0 1056)" d="m2763-3730.3v862.82h20.01v-862.82z" fill="#acff00"/><path transform="matrix(.13328 0 0 .13339 0 1056)" d="m2773.7-3727.7v860.21h20.008v-860.21z" fill="#afff00"/><path transform="matrix(.13328 0 0 .13339 0 1056)" d="m2784.3-3726.4v858.88h20.008v-858.88z" fill="#b3ff00"/><path transform="matrix(.13328 0 0 .13339 0 1056)" d="m2795-3726.5v859.06h20.008v-859.06z" fill="#b6ff00"/><path transform="matrix(.13328 0 0 .13339 0 1056)" d="m2805.6-3721v853.48h20.01v-853.48z" fill="#b9ff00"/><path transform="matrix(.13328 0 0 .13339 0 1056)" d="m2816.3-3722.6v855.13h20.01v-855.13z" fill="#bcff00"/><path transform="matrix(.13328 0 0 .13339 0 1056)" d="m2826.9-3718v850.56h20.008v-850.56z" fill="#bfff00"/><path transform="matrix(.13328 0 0 .13339 0 1056)" d="m2837.6-3717.7v850.24h20.008v-850.24z" fill="#c2ff00"/><path transform="matrix(.13328 0 0 .13339 0 1056)" d="m2848.2-3711.7v844.24h20.01v-844.24z" fill="#c5ff00"/><path transform="matrix(.13328 0 0 .13339 0 1056)" d="m2858.9-3713.3v845.86h20.01v-845.86z" fill="#c9ff00"/><path transform="matrix(.13328 0 0 .13339 0 1056)" d="m2869.5-3710.1v842.64h20.008v-842.64z" fill="#cf0"/><path transform="matrix(.13328 0 0 .13339 0 1056)" d="m2880.2-3706.6v839.08h20.008v-839.08z" fill="#cfff00"/><path transform="matrix(.13328 0 0 .13339 0 1056)" d="m2890.8-3703.1v835.6h20.008v-835.6z" fill="#d2ff00"/><path transform="matrix(.13328 0 0 .13339 0 1056)" d="m2901.5-3701.9v834.43h20.01v-834.43z" fill="#d5ff00"/><path transform="matrix(.13328 0 0 .13339 0 1056)" d="m2912.1-3697.8v830.33h20.01v-830.33z" fill="#d8ff00"/><path transform="matrix(.13328 0 0 .13339 0 1056)" d="m2922.8-3694.9v827.43h20.008v-827.43z" fill="#dbff00"/><path transform="matrix(.13328 0 0 .13339 0 1056)" d="m2933.4-3692.9v825.39h20.008v-825.39z" fill="#deff00"/><path transform="matrix(.13328 0 0 .13339 0 1056)" d="m2944-3688.8v821.35h20.01v-821.35z" fill="#e1ff00"/><path transform="matrix(.13328 0 0 .13339 0 1056)" d="m2954.7-3685.5v818.02h20.01v-818.02z" fill="#e4ff00"/><path transform="matrix(.13328 0 0 .13339 0 1056)" d="m2965.3-3683.2v815.74h20.008v-815.74z" fill="#e7ff00"/><path transform="matrix(.13328 0 0 .13339 0 1056)" d="m2976-3680v812.54h20.008v-812.54z" fill="#eaff00"/><path transform="matrix(.13328 0 0 .13339 0 1056)" d="m2986.6-3675.1v807.6h20.008v-807.6z" fill="#edff00"/><path transform="matrix(.13328 0 0 .13339 0 1056)" d="m2997.3-3672.6v805.07h20.01v-805.07z" fill="#f0ff00"/><path transform="matrix(.13328 0 0 .13339 0 1056)" d="m3007.9-3668.2v800.74h20.01v-800.74z" fill="#f3ff00"/><path transform="matrix(.13328 0 0 .13339 0 1056)" d="m3018.6-3665v797.53h20.008v-797.53z" fill="#f6ff00"/><path transform="matrix(.13328 0 0 .13339 0 1056)" d="m3029.2-3661.7v794.24h20.008v-794.24z" fill="#f9ff00"/><path transform="matrix(.13328 0 0 .13339 0 1056)" d="m3039.9-3658.5v791.01h20.008v-791.01z" fill="#fcff00"/><path transform="matrix(.13328 0 0 .13339 0 1056)" d="m3050.5-3655.1v787.66h20.01v-787.66z" fill="#ff0"/><path transform="matrix(.13328 0 0 .13339 0 1056)" d="m3061.2-3653.1v785.59h20.008v-785.59z" fill="#fffb00"/><path transform="matrix(.13328 0 0 .13339 0 1056)" d="m3071.8-3648.2v780.75h20.008v-780.75z" fill="#fff800"/><path transform="matrix(.13328 0 0 .13339 0 1056)" d="m3082.5-3647.9v780.41h20.008v-780.41z" fill="#fff500"/><path transform="matrix(.13328 0 0 .13339 0 1056)" d="m3093.1-3641.3v773.84h20.01v-773.84z" fill="#fff200"/><path transform="matrix(.13328 0 0 .13339 0 1056)" d="m3103.8-3639.8v772.36h20.01v-772.36z" fill="#ffef00"/><path transform="matrix(.13328 0 0 .13339 0 1056)" d="m3114.4-3638.7v771.21h20.008v-771.21z" fill="#ffeb00"/><path transform="matrix(.13328 0 0 .13339 0 1056)" d="m3125.1-3632.6v765.1h20.008v-765.1z" fill="#ffe800"/><path transform="matrix(.13328 0 0 .13339 0 1056)" d="m3135.7-3631.3v763.8h20.008v-763.8z" fill="#ffe500"/><path transform="matrix(.13328 0 0 .13339 0 1056)" d="m3146.4-3626.4v758.9h20.01v-758.9z" fill="#ffe200"/><path transform="matrix(.13328 0 0 .13339 0 1056)" d="m3157-3623.7v756.22h20.008v-756.22z" fill="#ffdf00"/><path transform="matrix(.13328 0 0 .13339 0 1056)" d="m3167.7-3620.3v752.81h20.008v-752.81z" fill="#ffdb00"/><path transform="matrix(.13328 0 0 .13339 0 1056)" d="m3178.3-3615.9v748.43h20.008v-748.43z" fill="#ffd800"/><path transform="matrix(.13328 0 0 .13339 0 1056)" d="m3189-3614.6v747.13h20.01v-747.13z" fill="#ffd500"/><path transform="matrix(.13328 0 0 .13339 0 1056)" d="m3199.6-3610.9v743.41h20.01v-743.41z" fill="#ffd200"/><path transform="matrix(.13328 0 0 .13339 0 1056)" d="m3210.3-3610.7v743.21h20.008v-743.21z" fill="#ffce00"/><path transform="matrix(.13328 0 0 .13339 0 1056)" d="m3220.9-3607.1v739.65h20.008v-739.65z" fill="#ffcb00"/><path transform="matrix(.13328 0 0 .13339 0 1056)" d="m3231.6-3606.9v739.41h20.008v-739.41z" fill="#ffc800"/><path transform="matrix(.13328 0 0 .13339 0 1056)" d="m3242.2-3603.6v736.12h20.01v-736.12z" fill="#ffc400"/><path transform="matrix(.13328 0 0 .13339 0 1056)" d="m3252.9-3599.1v731.63h20.01v-731.63z" fill="#ffc100"/><path transform="matrix(.13328 0 0 .13339 0 1056)" d="m3263.5-3597.1v729.58h20.008v-729.58z" fill="#ffbe00"/><path transform="matrix(.13328 0 0 .13339 0 1056)" d="m3274.1-3594.6v727.13h20.008v-727.13z" fill="#ffba00"/><path transform="matrix(.13328 0 0 .13339 0 1056)" d="m3284.8-3593.7v726.18h20.01v-726.18z" fill="#ffb700"/><path transform="matrix(.13328 0 0 .13339 0 1056)" d="m3295.4-3591.6v724.16h20.008v-724.16z" fill="#ffb300"/><path transform="matrix(.13328 0 0 .13339 0 1056)" d="m3306.1-3590v722.56h20.008v-722.56z" fill="#ffb000"/><path transform="matrix(.13328 0 0 .13339 0 1056)" d="m3316.7-3586.3v718.81h20.008v-718.81z" fill="#ffac00"/><path transform="matrix(.13328 0 0 .13339 0 1056)" d="m3327.4-3585.8v718.28h20.01v-718.28z" fill="#ffa900"/><path transform="matrix(.13328 0 0 .13339 0 1056)" d="m3338-3584.2v716.73h20.01v-716.73z" fill="#ffa500"/><path transform="matrix(.13328 0 0 .13339 0 1056)" d="m3348.7-3581.1v713.65h20.008v-713.65z" fill="#ffa200"/><path transform="matrix(.13328 0 0 .13339 0 1056)" d="m3359.3-3581.7v714.26h20.008v-714.26z" fill="#ff9e00"/><path transform="matrix(.13328 0 0 .13339 0 1056)" d="m3370-3578.1v710.6h20.008v-710.6z" fill="#ff9b00"/><path transform="matrix(.13328 0 0 .13339 0 1056)" d="m3380.6-3577.2v709.69h20.01v-709.69z" fill="#ff9700"/><path transform="matrix(.13328 0 0 .13339 0 1056)" d="m3391.3-3576.2v708.74h20.008v-708.74z" fill="#ff9400"/><path transform="matrix(.13328 0 0 .13339 0 1056)" d="m3401.9-3573.5v706.03h20.008v-706.03z" fill="#ff9000"/><path transform="matrix(.13328 0 0 .13339 0 1056)" d="m3412.6-3571.2v703.77h20.008v-703.77z" fill="#ff8d00"/><path transform="matrix(.13328 0 0 .13339 0 1056)" d="m3423.2-3568.8v701.29h20.008v-701.29z" fill="#ff8900"/><path transform="matrix(.13328 0 0 .13339 0 1056)" d="m3433.9-3566.5v699.03h20.01v-699.03z" fill="#ff8500"/><path transform="matrix(.13328 0 0 .13339 0 1056)" d="m3444.5-3563.9v696.43h20.008v-696.43z" fill="#ff8100"/><path transform="matrix(.13328 0 0 .13339 0 1056)" d="m3455.2-3563v695.49h20.008v-695.49z" fill="#ff7e00"/><path transform="matrix(.13328 0 0 .13339 0 1056)" d="m3465.8-3562.6v695.08h20.008v-695.08z" fill="#ff7a00"/><path transform="matrix(.13328 0 0 .13339 0 1056)" d="m3476.5-3558.9v691.43h20.01v-691.43z" fill="#ff7600"/><path transform="matrix(.13328 0 0 .13339 0 1056)" d="m3487.1-3556.9v689.43h20.01v-689.43z" fill="#ff7200"/><path transform="matrix(.13328 0 0 .13339 0 1056)" d="m3497.8-3554.9v687.47h20.008v-687.47z" fill="#ff6f00"/><path transform="matrix(.13328 0 0 .13339 0 1056)" d="m3508.4-3552.2v684.71h20.008v-684.71z" fill="#ff6b00"/><path transform="matrix(.13328 0 0 .13339 0 1056)" d="m3519.1-3551.8v684.28h20.008v-684.28z" fill="#ff6700"/><path transform="matrix(.13328 0 0 .13339 0 1056)" d="m3529.7-3546.5v678.99h20.01v-678.99z" fill="#ff6300"/><path transform="matrix(.13328 0 0 .13339 0 1056)" d="m3540.4-3545.2v677.69h20.01v-677.69z" fill="#ff5f00"/><path transform="matrix(.13328 0 0 .13339 0 1056)" d="m3551-3541.8v674.37h20.008v-674.37z" fill="#ff5b00"/><path transform="matrix(.13328 0 0 .13339 0 1056)" d="m3561.6-3539.1v671.57h20.008v-671.57z" fill="#ff5700"/><path transform="matrix(.13328 0 0 .13339 0 1056)" d="m3572.3-3536.1v668.59h20.008v-668.59z" fill="#ff5300"/><path transform="matrix(.13328 0 0 .13339 0 1056)" d="m3582.9-3533.1v665.59h20.01v-665.59z" fill="#ff4e00"/><path transform="matrix(.13328 0 0 .13339 0 1056)" d="m3593.6-3530.3v662.8h20.008v-662.8z" fill="#ff4a00"/><path transform="matrix(.13328 0 0 .13339 0 1056)" d="m3604.2-3526.4v658.95h20.008v-658.95z" fill="#ff4600"/><path transform="matrix(.13328 0 0 .13339 0 1056)" d="m3614.9-3522.9v655.42h20.01v-655.42z" fill="#ff4200"/><path transform="matrix(.13328 0 0 .13339 0 1056)" d="m3625.5-3515.4v647.96h20.01v-647.96z" fill="#ff3d00"/><path transform="matrix(.13328 0 0 .13339 0 1056)" d="m3636.2-3510.8v643.29h20.008v-643.29z" fill="#ff3900"/><path transform="matrix(.13328 0 0 .13339 0 1056)" d="m3646.8-3509.3v641.85h20.008v-641.85z" fill="#ff3400"/><path transform="matrix(.13328 0 0 .13339 0 1056)" d="m3657.5-3505.4v637.89h20.008v-637.89z" fill="#ff2f00"/><path transform="matrix(.13328 0 0 .13339 0 1056)" d="m3668.1-3501.6v634.12h20.01v-634.12z" fill="#ff2a00"/><path transform="matrix(.13328 0 0 .13339 0 1056)" d="m3678.8-3497.6v630.13h20.01v-630.13z" fill="#ff2500"/><path transform="matrix(.13328 0 0 .13339 0 1056)" d="m3689.4-3491.4v623.97h20.008v-623.97z" fill="#ff2000"/><path transform="matrix(.13328 0 0 .13339 0 1056)" d="m3700.1-3484.6v617.13h20.008v-617.13z" fill="#ff1b00"/><path transform="matrix(.13328 0 0 .13339 0 1056)" d="m3710.7-3481.5v613.99h20.01v-613.99z" fill="#ff1500"/><path transform="matrix(.13328 0 0 .13339 0 1056)" d="m3721.4-3476.5v609.03h20.01v-609.03z" fill="#ff0f00"/><path transform="matrix(.13328 0 0 .13339 0 1056)" d="m3732-3470.2v602.67h20.008v-602.67z" fill="#ff0900"/></g><g fill="#f00" stroke-linejoin="round"><path transform="matrix(.13328 0 0 .13339 0 1056)" d="m3742.7-3465.1v597.59h20.008v-597.59z"/><path transform="matrix(.13328 0 0 .13339 0 1056)" d="m3753.3-3457v589.51h20.008v-589.51z"/><path transform="matrix(.13328 0 0 .13339 0 1056)" d="m3764-3453.3v585.87h20.01v-585.87z"/><path transform="matrix(.13328 0 0 .13339 0 1056)" d="m3774.6-3447.8v580.32h20.01v-580.32z"/><path transform="matrix(.13328 0 0 .13339 0 1056)" d="m3785.3-3439.9v572.44h20.008v-572.44z"/><path transform="matrix(.13328 0 0 .13339 0 1056)" d="m3795.9-3434.3v566.84h20.008v-566.84z"/><path transform="matrix(.13328 0 0 .13339 0 1056)" d="m3806.6-3425.2v557.67h20.008v-557.67z"/><path transform="matrix(.13328 0 0 .13339 0 1056)" d="m3817.2-3422.1v554.6h20.01v-554.6z"/><path transform="matrix(.13328 0 0 .13339 0 1056)" d="m3827.8-3415.6v548.09h20.008v-548.09z"/><path transform="matrix(.13328 0 0 .13339 0 1056)" d="m3838.5-3408.9v541.45h20.008v-541.45z"/><path transform="matrix(.13328 0 0 .13339 0 1056)" d="m3849.1-3400.9v533.43h20.008v-533.43z"/><path transform="matrix(.13328 0 0 .13339 0 1056)" d="m3859.8-3393.9v526.4h20.01v-526.4z"/><path transform="matrix(.13328 0 0 .13339 0 1056)" d="m3870.4-3388.2v520.71h20.01v-520.71z"/><path transform="matrix(.13328 0 0 .13339 0 1056)" d="m3881.1-3382.3v514.79h20.008v-514.79z"/><path transform="matrix(.13328 0 0 .13339 0 1056)" d="m3891.7-3373.9v506.43h20.008v-506.43z"/><path transform="matrix(.13328 0 0 .13339 0 1056)" d="m3902.4-3366.3v498.83h20.008v-498.83z"/><path transform="matrix(.13328 0 0 .13339 0 1056)" d="m3913-3360.3v492.83h20.01v-492.83z"/><path transform="matrix(.13328 0 0 .13339 0 1056)" d="m3923.7-3353v485.54h20.008v-485.54z"/><path transform="matrix(.13328 0 0 .13339 0 1056)" d="m3934.3-3344.7v477.22h20.008v-477.22z"/><path transform="matrix(.13328 0 0 .13339 0 1056)" d="m3945-3337.4v469.94h20.008v-469.94z"/><path transform="matrix(.13328 0 0 .13339 0 1056)" d="m3955.6-3329.5v462.02h20.01v-462.02z"/><path transform="matrix(.13328 0 0 .13339 0 1056)" d="m3966.3-3323.9v456.4h20.01v-456.4z"/><path transform="matrix(.13328 0 0 .13339 0 1056)" d="m3976.9-3315.4v447.9h20.008v-447.9z"/><path transform="matrix(.13328 0 0 .13339 0 1056)" d="m3987.6-3308.2v440.75h20.008v-440.75z"/><path transform="matrix(.13328 0 0 .13339 0 1056)" d="m3998.2-3303.7v436.25h20.008v-436.25z"/><path transform="matrix(.13328 0 0 .13339 0 1056)" d="m4008.9-3294.8v427.33h20.01v-427.33z"/><path transform="matrix(.13328 0 0 .13339 0 1056)" d="m4019.5-3286.2v418.71h20.01v-418.71z"/><path transform="matrix(.13328 0 0 .13339 0 1056)" d="m4030.2-3282.4v414.88h20.008v-414.88z"/><path transform="matrix(.13328 0 0 .13339 0 1056)" d="m4040.8-3273.3v405.79h20.008v-405.79z"/><path transform="matrix(.13328 0 0 .13339 0 1056)" d="m4051.5-3263.3v395.84h20.01v-395.84z"/><path transform="matrix(.13328 0 0 .13339 0 1056)" d="m4062.1-3257.6v390.16h20.01v-390.16z"/><path transform="matrix(.13328 0 0 .13339 0 1056)" d="m4072.8-3251.4v383.91h20.008v-383.91z"/><path transform="matrix(.13328 0 0 .13339 0 1056)" d="m4083.4-3245.6v378.09h20.008v-378.09z"/><path transform="matrix(.13328 0 0 .13339 0 1056)" d="m4094.1-3236.2v368.74h20.008v-368.74z"/><path transform="matrix(.13328 0 0 .13339 0 1056)" d="m4104.7-3227v359.56h20.01v-359.56z"/><path transform="matrix(.13328 0 0 .13339 0 1056)" d="m4115.4-3221.1v353.64h20.01v-353.64z"/><path transform="matrix(.13328 0 0 .13339 0 1056)" d="m4126-3215.7v348.19h20.008v-348.19z"/><path transform="matrix(.13328 0 0 .13339 0 1056)" d="m4136.7-3209.8v342.36h20.008v-342.36z"/><path transform="matrix(.13328 0 0 .13339 0 1056)" d="m4147.3-3201v333.51h20.01v-333.51z"/><path transform="matrix(.13328 0 0 .13339 0 1056)" d="m4157.9-3193.6v326.09h20.008v-326.09z"/><path transform="matrix(.13328 0 0 .13339 0 1056)" d="m4168.6-3188.3v320.8h20.008v-320.8z"/><path transform="matrix(.13328 0 0 .13339 0 1056)" d="m4179.2-3181.5v314.05h20.008v-314.05z"/><path transform="matrix(.13328 0 0 .13339 0 1056)" d="m4189.9-3176.5v308.98h20.008v-308.98z"/><path transform="matrix(.13328 0 0 .13339 0 1056)" d="m4200.5-3168.3v300.82h20.01v-300.82z"/><path transform="matrix(.13328 0 0 .13339 0 1056)" d="m4211.2-3162.2v294.7h20.008v-294.7z"/><path transform="matrix(.13328 0 0 .13339 0 1056)" d="m4221.8-3154.7v287.17h20.008v-287.17z"/><path transform="matrix(.13328 0 0 .13339 0 1056)" d="m4232.5-3149.4v281.96h20.008v-281.96z"/><path transform="matrix(.13328 0 0 .13339 0 1056)" d="m4243.1-3141.5v274.04h20.01v-274.04z"/><path transform="matrix(.13328 0 0 .13339 0 1056)" d="m4253.8-3136.1v268.57h20.01v-268.57z"/><path transform="matrix(.13328 0 0 .13339 0 1056)" d="m4264.4-3130.6v263.12h20.008v-263.12z"/><path transform="matrix(.13328 0 0 .13339 0 1056)" d="m4275.1-3124.2v256.76h20.008v-256.76z"/><path transform="matrix(.13328 0 0 .13339 0 1056)" d="m4285.7-3118.6v251.1h20.008v-251.1z"/><path transform="matrix(.13328 0 0 .13339 0 1056)" d="m4296.4-3112v244.51h20.01v-244.51z"/><path transform="matrix(.13328 0 0 .13339 0 1056)" d="m4307-3105.9v238.39h20.01v-238.39z"/><path transform="matrix(.13328 0 0 .13339 0 1056)" d="m4317.7-3100.5v232.99h20.008v-232.99z"/><path transform="matrix(.13328 0 0 .13339 0 1056)" d="m4328.3-3094.1v226.62h20.008v-226.62z"/></g><g stroke-linejoin="round"><path transform="matrix(.13328 0 0 .13339 0 1056)" d="m4339-3089.4v221.91h20.01v-221.91z" fill="#fd0000"/><path transform="matrix(.13328 0 0 .13339 0 1056)" d="m4349.6-3082.6v215.14h20.01v-215.14z" fill="#fc0000"/><path transform="matrix(.13328 0 0 .13339 0 1056)" d="m4360.3-3076.8v209.37h20.008v-209.37z" fill="#fa0000"/><path transform="matrix(.13328 0 0 .13339 0 1056)" d="m4370.9-3073.4v205.88h20.008v-205.88z" fill="#f90000"/><path transform="matrix(.13328 0 0 .13339 0 1056)" d="m4381.6-3068.2v200.72h20.008v-200.72z" fill="#f70000"/><path transform="matrix(.13328 0 0 .13339 0 1056)" d="m4392.2-3064.5v197.03h20.01v-197.03z" fill="#f60000"/><path transform="matrix(.13328 0 0 .13339 0 1056)" d="m4402.9-3055.8v188.34h20.01v-188.34z" fill="#f40000"/><path transform="matrix(.13328 0 0 .13339 0 1056)" d="m4413.5-3052.8v185.36h20.008v-185.36z" fill="#f30000"/><path transform="matrix(.13328 0 0 .13339 0 1056)" d="m4424.2-3046.2v178.71h20.008v-178.71z" fill="#f20000"/><path transform="matrix(.13328 0 0 .13339 0 1056)" d="m4434.8-3042.3v174.78h20.008v-174.78z" fill="#f00000"/><path transform="matrix(.13328 0 0 .13339 0 1056)" d="m4445.4-3038v170.55h20.01v-170.55z" fill="#ef0000"/><path transform="matrix(.13328 0 0 .13339 0 1056)" d="m4456.1-3032.9v165.4h20.008v-165.4z" fill="#ed0000"/><path transform="matrix(.13328 0 0 .13339 0 1056)" d="m4466.7-3030.1v162.61h20.008v-162.61z" fill="#ec0000"/><path transform="matrix(.13328 0 0 .13339 0 1056)" d="m4477.4-3023.5v156.04h20.01v-156.04z" fill="#ea0000"/><path transform="matrix(.13328 0 0 .13339 0 1056)" d="m4488-3021v153.51h20.01v-153.51z" fill="#e90000"/><path transform="matrix(.13328 0 0 .13339 0 1056)" d="m4498.7-3016.9v149.42h20.008v-149.42z" fill="#e70000"/><path transform="matrix(.13328 0 0 .13339 0 1056)" d="m4509.3-3011.1v143.64h20.008v-143.64z" fill="#e60000"/><path transform="matrix(.13328 0 0 .13339 0 1056)" d="m4520-3007.7v140.19h20.008v-140.19z" fill="#e40000"/><path transform="matrix(.13328 0 0 .13339 0 1056)" d="m4530.6-3004.5v137.03h20.01v-137.03z" fill="#e30000"/><path transform="matrix(.13328 0 0 .13339 0 1056)" d="m4541.3-3000.7v133.23h20.01v-133.23z" fill="#e20000"/><path transform="matrix(.13328 0 0 .13339 0 1056)" d="m4551.9-2996.8v129.3h20.008v-129.3z" fill="#e00000"/><path transform="matrix(.13328 0 0 .13339 0 1056)" d="m4562.6-2996.1v128.66h20.008v-128.66z" fill="#df0000"/><path transform="matrix(.13328 0 0 .13339 0 1056)" d="m4573.2-2989.2v121.67h20.01v-121.67z" fill="#d00"/><path transform="matrix(.13328 0 0 .13339 0 1056)" d="m4583.9-2987.1v119.57h20.01v-119.57z" fill="#dc0000"/><path transform="matrix(.13328 0 0 .13339 0 1056)" d="m4594.5-2982.4v114.97h20.008v-114.97z" fill="#da0000"/><path transform="matrix(.13328 0 0 .13339 0 1056)" d="m4605.2-2981.1v113.63h20.008v-113.63z" fill="#d90000"/><path transform="matrix(.13328 0 0 .13339 0 1056)" d="m4615.8-2976.5v109.06h20.008v-109.06z" fill="#d70000"/><path transform="matrix(.13328 0 0 .13339 0 1056)" d="m4626.5-2972.6v105.13h20.01v-105.13z" fill="#d60000"/><path transform="matrix(.13328 0 0 .13339 0 1056)" d="m4637.1-2971.2v103.72h20.01v-103.72z" fill="#d40000"/><path transform="matrix(.13328 0 0 .13339 0 1056)" d="m4647.8-2967.9v100.38h20.008v-100.38z" fill="#d30000"/><path transform="matrix(.13328 0 0 .13339 0 1056)" d="m4658.4-2964.6v97.09h20.008v-97.09z" fill="#d10000"/><path transform="matrix(.13328 0 0 .13339 0 1056)" d="m4669.1-2962.2v94.689h20.008v-94.689z" fill="#d00000"/><path transform="matrix(.13328 0 0 .13339 0 1056)" d="m4679.7-2959.8v92.34h20.01v-92.34z" fill="#ce0000"/><path transform="matrix(.13328 0 0 .13339 0 1056)" d="m4690.4-2959.2v91.699h20.01v-91.699z" fill="#cd0000"/><path transform="matrix(.13328 0 0 .13339 0 1056)" d="m4701-2954v86.49h20.008v-86.49z" fill="#cb0000"/><path transform="matrix(.13328 0 0 .13339 0 1056)" d="m4711.7-2949.6v82.109h20.008v-82.109z" fill="#ca0000"/><path transform="matrix(.13328 0 0 .13339 0 1056)" d="m4722.3-2947.4v79.879h20.01v-79.879z" fill="#c80000"/><path transform="matrix(.13328 0 0 .13339 0 1056)" d="m4732.9-2945.8v78.33h20.01v-78.33z" fill="#c70000"/><path transform="matrix(.13328 0 0 .13339 0 1056)" d="m4743.6-2942.9v75.439h20.008v-75.439z" fill="#c50000"/><path transform="matrix(.13328 0 0 .13339 0 1056)" d="m4754.2-2940.3v72.779h20.008v-72.779z" fill="#c40000"/><path transform="matrix(.13328 0 0 .13339 0 1056)" d="m4764.9-2939.4v71.93h20.008v-71.93z" fill="#c20000"/><path transform="matrix(.13328 0 0 .13339 0 1056)" d="m4775.5-2935.3v67.859h20.01v-67.859z" fill="#c10000"/><path transform="matrix(.13328 0 0 .13339 0 1056)" d="m4786.2-2933.8v66.369h20.01v-66.369z" fill="#bf0000"/><path transform="matrix(.13328 0 0 .13339 0 1056)" d="m4796.8-2934.3v66.84h20.008v-66.84z" fill="#bd0000"/><path transform="matrix(.13328 0 0 .13339 0 1056)" d="m4807.5-2932.3v64.83h20.008v-64.83z" fill="#bc0000"/><path transform="matrix(.13328 0 0 .13339 0 1056)" d="m4818.1-2930.1v62.619h20.01v-62.619z" fill="#ba0000"/><path transform="matrix(.13328 0 0 .13339 0 1056)" d="m4828.8-2926.8v59.33h20.01v-59.33z" fill="#b90000"/><path transform="matrix(.13328 0 0 .13339 0 1056)" d="m4839.4-2927v59.49h20.008v-59.49z" fill="#b70000"/><path transform="matrix(.13328 0 0 .13339 0 1056)" d="m4850.1-2920.9v53.43h20.008v-53.43z" fill="#b60000"/><path transform="matrix(.13328 0 0 .13339 0 1056)" d="m4860.7-2921.2v53.77h20.008v-53.77z" fill="#b40000"/><path transform="matrix(.13328 0 0 .13339 0 1056)" d="m4871.4-2918.7v51.199h20.01v-51.199z" fill="#b30000"/><path transform="matrix(.13328 0 0 .13339 0 1056)" d="m4882-2917.6v50.129h20.01v-50.129z" fill="#b10000"/><path transform="matrix(.13328 0 0 .13339 0 1056)" d="m4892.7-2914.8v47.279h20.008v-47.279z" fill="#af0000"/><path transform="matrix(.13328 0 0 .13339 0 1056)" d="m4903.3-2911.9v44.41h20.008v-44.41z" fill="#ae0000"/><path transform="matrix(.13328 0 0 .13339 0 1056)" d="m4914-2913.4v45.92h20.01v-45.92z" fill="#ac0000"/><path transform="matrix(.13328 0 0 .13339 0 1056)" d="m4924.6-2909.8v42.309h20.01v-42.309z" fill="#ab0000"/><path transform="matrix(.13328 0 0 .13339 0 1056)" d="m4935.3-2910v42.52h20.008v-42.52z" fill="#a90000"/><path transform="matrix(.13328 0 0 .13339 0 1056)" d="m4945.9-2905.5v38.029h20.008v-38.029z" fill="#a80000"/><path transform="matrix(.13328 0 0 .13339 0 1056)" d="m4956.6-2906.1v38.59h20.008v-38.59z" fill="#a60000"/><path transform="matrix(.13328 0 0 .13339 0 1056)" d="m4967.2-2903.5v35.99h20.01v-35.99z" fill="#a40000"/><path transform="matrix(.13328 0 0 .13339 0 1056)" d="m4977.9-2905.2v37.74h20.01v-37.74z" fill="#a30000"/><path transform="matrix(.13328 0 0 .13339 0 1056)" d="m4988.5-2905.5v38.059h20.008v-38.059z" fill="#a10000"/><path transform="matrix(.13328 0 0 .13339 0 1056)" d="m4999.2-2906.7v39.17h20.008v-39.17z" fill="#a00000"/><path transform="matrix(.13328 0 0 .13339 0 1056)" d="m5009.8-2902.3v34.869h20.01v-34.869z" fill="#9e0000"/><path transform="matrix(.13328 0 0 .13339 0 1056)" d="m5020.5-2901.6v34.119h20.01v-34.119z" fill="#9c0000"/><path transform="matrix(.13328 0 0 .13339 0 1056)" d="m5031.1-2900.5v32.98h20.008v-32.98z" fill="#9b0000"/><path transform="matrix(.13328 0 0 .13339 0 1056)" d="m5041.7-2894.9v27.439h20.008v-27.439z" fill="#900"/><path transform="matrix(.13328 0 0 .13339 0 1056)" d="m5052.4-2897.5v29.98h20.01v-29.98z" fill="#980000"/><path transform="matrix(.13328 0 0 .13339 0 1056)" d="m5063-2896.7v29.209h20.01v-29.209z" fill="#960000"/><path transform="matrix(.13328 0 0 .13339 0 1056)" d="m5073.7-2892.5v24.98h20.008v-24.98z" fill="#940000"/><path transform="matrix(.13328 0 0 .13339 0 1056)" d="m5084.3-2894.2v26.709h20.008v-26.709z" fill="#930000"/><path transform="matrix(.13328 0 0 .13339 0 1056)" d="m5095-2894.7v27.24h20.008v-27.24z" fill="#910000"/><path transform="matrix(.13328 0 0 .13339 0 1056)" d="m5105.6-2891.1v23.59h20.01v-23.59z" fill="#8f0000"/><path transform="matrix(.13328 0 0 .13339 0 1056)" d="m5116.3-2893v25.52h20.01v-25.52z" fill="#8e0000"/><path transform="matrix(.13328 0 0 .13339 0 1056)" d="m5126.9-2890.9v23.42h20.008v-23.42z" fill="#8c0000"/><path transform="matrix(.13328 0 0 .13339 0 1056)" d="m5137.6-2891.2v23.68h20.008v-23.68z" fill="#8a0000"/><path transform="matrix(.13328 0 0 .13339 0 1056)" d="m5148.2-2891.3v23.789h20.008v-23.789z" fill="#890000"/><path transform="matrix(.13328 0 0 .13339 0 1056)" d="m5158.9-2887.9v20.43h20.01v-20.43z" fill="#870000"/><path transform="matrix(.13328 0 0 .13339 0 1056)" d="m5169.5-2886v18.49h20.008v-18.49z" fill="#850000"/><path transform="matrix(.13328 0 0 .13339 0 1056)" d="m5180.2-2887.6v20.109h20.008v-20.109z" fill="#840000"/><path transform="matrix(.13328 0 0 .13339 0 1056)" d="m5190.8-2885.2v17.719h20.008v-17.719z" fill="#820000"/><path transform="matrix(.13328 0 0 .13339 0 1056)" d="m5201.5-2882.6v15.15h20.008v-15.15z" fill="#800000"/><path transform="matrix(.13328 0 0 .13339 0 1056)" d="m5212.1-2886.4v18.939h20.01v-18.939z" fill="#7f0000"/><path transform="matrix(.13328 0 0 .13339 0 1056)" d="m5222.8-2884.4v16.949h20.008v-16.949z" fill="#7d0000"/><path transform="matrix(.13328 0 0 .13339 0 1056)" d="m5233.4-2883.7v16.26h20.008v-16.26z" fill="#7b0000"/><path transform="matrix(.13328 0 0 .13339 0 1056)" d="m5244.1-2882.1v14.639h20.008v-14.639z" fill="#7a0000"/><path transform="matrix(.13328 0 0 .13339 0 1056)" d="m5254.7-2884.6v17.08h20.01v-17.08z" fill="#780000"/><path transform="matrix(.13328 0 0 .13339 0 1056)" d="m5265.4-2880.6v13.07h20.01v-13.07z" fill="#760000"/><path transform="matrix(.13328 0 0 .13339 0 1056)" d="m5276-2885.2v17.689h20.008v-17.689z" fill="#740000"/><path transform="matrix(.13328 0 0 .13339 0 1056)" d="m5286.7-2881.4v13.949h20.008v-13.949z" fill="#730000"/><path transform="matrix(.13328 0 0 .13339 0 1056)" d="m5297.3-2878.7v11.189h20.008v-11.189z" fill="#710000"/><path transform="matrix(.13328 0 0 .13339 0 1056)" d="m5307.9-2880.3v12.809h20.01v-12.809z" fill="#6f0000"/><path transform="matrix(.13328 0 0 .13339 0 1056)" d="m5318.6-2879v11.529h20.008v-11.529z" fill="#6d0000"/><path transform="matrix(.13328 0 0 .13339 0 1056)" d="m5329.2-2879.8v12.33h20.008v-12.33z" fill="#6c0000"/><path transform="matrix(.13328 0 0 .13339 0 1056)" d="m5339.9-2881.6v14.16h20.008v-14.16z" fill="#6a0000"/><path transform="matrix(.13328 0 0 .13339 0 1056)" d="m5350.5-2880.6v13.119h20.01v-13.119z" fill="#680000"/><path transform="matrix(.13328 0 0 .13339 0 1056)" d="m5361.2-2877.9v10.389h20.008v-10.389z" fill="#600"/><path transform="matrix(.13328 0 0 .13339 0 1056)" d="m5371.8-2877.2v9.75h20.008v-9.75z" fill="#640000"/><path transform="matrix(.13328 0 0 .13339 0 1056)" d="m5382.5-2875.3v7.7793h20.008v-7.7793z" fill="#630000"/></g></g><g transform="matrix(1.3636 0 0 -1.3636 -202.01 970.47)" stroke-width=".91672"><g font-family="Lato" font-size="9.7293px"><text transform="matrix(.80219 0 0 -.80438 640.78 492.09)" x="36.944557" stroke-width="1.2168" style="font-variant-caps:normal;font-variant-east-asian:normal;font-variant-ligatures:normal;font-variant-numeric:normal" xml:space="preserve"><tspan x="36.944557" y="0" fill="#000000" font-family="Lato" font-size="9.7293px" stroke-width="1.2168" text-align="center" text-anchor="middle" style="font-variant-caps:normal;font-variant-east-asian:normal;font-variant-ligatures:normal;font-variant-numeric:normal">WaveLength (nm)</tspan></text><g stroke-width="1.2162"><text transform="matrix(.803 0 0 -.80438 473.81 694.38)" x="5.3358564" style="font-variant-caps:normal;font-variant-east-asian:normal;font-variant-ligatures:normal;font-variant-numeric:normal" xml:space="preserve"><tspan x="5.3358564" y="0" fill="#000000" font-family="Lato" font-size="9.7293px" stroke-width="1.2162" text-align="end" text-anchor="end" style="font-variant-caps:normal;font-variant-east-asian:normal;font-variant-ligatures:normal;font-variant-numeric:normal">1</tspan></text><text transform="matrix(.803 0 0 -.80438 473.78 657.43)" x="5.3358564" style="font-variant-caps:normal;font-variant-east-asian:normal;font-variant-ligatures:normal;font-variant-numeric:normal" xml:space="preserve"><tspan x="5.3358564" y="0" fill="#000000" font-family="Lato" font-size="9.7293px" stroke-width="1.2162" text-align="end" text-anchor="end" style="font-variant-caps:normal;font-variant-east-asian:normal;font-variant-ligatures:normal;font-variant-numeric:normal">0.8</tspan></text><text transform="matrix(.803 0 0 -.80438 473.73 620.6)" x="5.3358564" style="font-variant-caps:normal;font-variant-east-asian:normal;font-variant-ligatures:normal;font-variant-numeric:normal" xml:space="preserve"><tspan x="5.3358564" y="0" fill="#000000" font-family="Lato" font-size="9.7293px" stroke-width="1.2162" text-align="end" text-anchor="end" style="font-variant-caps:normal;font-variant-east-asian:normal;font-variant-ligatures:normal;font-variant-numeric:normal">0.6</tspan></text><text transform="matrix(.803 0 0 -.80438 473.55 583.71)" x="5.3358564" style="font-variant-caps:normal;font-variant-east-asian:normal;font-variant-ligatures:normal;font-variant-numeric:normal" xml:space="preserve"><tspan x="5.3358564" y="0" fill="#000000" font-family="Lato" font-size="9.7293px" stroke-width="1.2162" text-align="end" text-anchor="end" style="font-variant-caps:normal;font-variant-east-asian:normal;font-variant-ligatures:normal;font-variant-numeric:normal">0.4</tspan></text><text transform="matrix(.803 0 0 -.80438 473.78 546.87)" x="5.3358564" style="font-variant-caps:normal;font-variant-east-asian:normal;font-variant-ligatures:normal;font-variant-numeric:normal" xml:space="preserve"><tspan x="5.3358564" y="0" fill="#000000" font-family="Lato" font-size="9.7293px" stroke-width="1.2162" text-align="end" text-anchor="end" style="font-variant-caps:normal;font-variant-east-asian:normal;font-variant-ligatures:normal;font-variant-numeric:normal">0.2</tspan></text><text transform="matrix(.803 0 0 -.80438 473.61 509.99)" x="5.3358564" style="font-variant-caps:normal;font-variant-east-asian:normal;font-variant-ligatures:normal;font-variant-numeric:normal" xml:space="preserve"><tspan x="5.3358564" y="0" fill="#000000" font-family="Lato" font-size="9.7293px" stroke-width="1.2162" text-align="end" text-anchor="end" style="font-variant-caps:normal;font-variant-east-asian:normal;font-variant-ligatures:normal;font-variant-numeric:normal">0</tspan></text><text transform="matrix(.803 0 0 -.80438 486.57 502.62)" x="15.907482" style="font-variant-caps:normal;font-variant-east-asian:normal;font-variant-ligatures:normal;font-variant-numeric:normal" xml:space="preserve"><tspan x="15.907481" y="0" fill="#000000" font-family="Lato" font-size="9.7293px" stroke-width="1.2162" text-align="center" text-anchor="middle" style="font-variant-caps:normal;font-variant-east-asian:normal;font-variant-ligatures:normal;font-variant-numeric:normal">400</tspan></text><text transform="matrix(.803 0 0 -.80438 572.11 502.62)" x="15.907482" style="font-variant-caps:normal;font-variant-east-asian:normal;font-variant-ligatures:normal;font-variant-numeric:normal" xml:space="preserve"><tspan x="15.907481" y="0" fill="#000000" font-family="Lato" font-size="9.7293px" stroke-width="1.2162" text-align="center" text-anchor="middle" style="font-variant-caps:normal;font-variant-east-asian:normal;font-variant-ligatures:normal;font-variant-numeric:normal">500</tspan></text><text transform="matrix(.803 0 0 -.80438 657.51 502.62)" x="15.907482" style="font-variant-caps:normal;font-variant-east-asian:normal;font-variant-ligatures:normal;font-variant-numeric:normal" xml:space="preserve"><tspan x="15.907481" y="0" fill="#000000" font-family="Lato" font-size="9.7293px" stroke-width="1.2162" text-align="center" text-anchor="middle" style="font-variant-caps:normal;font-variant-east-asian:normal;font-variant-ligatures:normal;font-variant-numeric:normal">600</tspan></text><text transform="matrix(.803 0 0 -.80438 743.05 502.62)" x="15.907482" style="font-variant-caps:normal;font-variant-east-asian:normal;font-variant-ligatures:normal;font-variant-numeric:normal" xml:space="preserve"><tspan x="15.907481" y="0" fill="#000000" font-family="Lato" font-size="9.7293px" stroke-width="1.2162" text-align="center" text-anchor="middle" style="font-variant-caps:normal;font-variant-east-asian:normal;font-variant-ligatures:normal;font-variant-numeric:normal">700</tspan></text><text transform="matrix(.803 0 0 -.80438 828.56 502.62)" x="15.907482" style="font-variant-caps:normal;font-variant-east-asian:normal;font-variant-ligatures:normal;font-variant-numeric:normal" xml:space="preserve"><tspan x="15.907481" y="0" fill="#000000" font-family="Lato" font-size="9.7293px" stroke-width="1.2162" text-align="center" text-anchor="middle" style="font-variant-caps:normal;font-variant-east-asian:normal;font-variant-ligatures:normal;font-variant-numeric:normal">800</tspan></text></g><text transform="matrix(0 .80438 .803 0 462.03 573.5)" stroke-width="1.2162" style="font-variant-caps:normal;font-variant-east-asian:normal;font-variant-ligatures:normal;font-variant-numeric:normal" xml:space="preserve"><tspan x="0" y="0" fill="#000000" font-family="Lato" font-size="9.7293px" stroke-width="1.2162" style="font-variant-caps:normal;font-variant-east-asian:normal;font-variant-ligatures:normal;font-variant-numeric:normal">Relative Spectrum</tspan></text></g><g fill="none" stroke="#858585" stroke-width=".27518"><path transform="matrix(.79917 0 0 -.79985 -7.5232 459.73)" d="m617.27-296.75h-4.496v230.4h449.56v-4.4972"/><path transform="matrix(.79917 0 0 -.79985 -7.5232 459.73)" d="m612.77-250.67h4.496"/><path transform="matrix(.79917 0 0 -.79985 -7.5232 459.73)" d="m612.77-204.59h4.496"/><path transform="matrix(.79917 0 0 -.79985 -7.5232 459.73)" d="m612.77-158.5h4.496"/><path transform="matrix(.79917 0 0 -.79985 -7.5232 459.73)" d="m612.77-112.42h4.496"/><path transform="matrix(.79917 0 0 -.79985 -7.5232 459.73)" d="m634.18-66.344v-4.4972"/><path transform="matrix(.79917 0 0 -.79985 -7.5232 459.73)" d="m741.22-66.344 2e-5 -4.4972"/><path transform="matrix(.79917 0 0 -.79985 -7.5232 459.73)" d="m848.25-66.344 2e-5 -4.4972"/><path transform="matrix(.79917 0 0 -.79985 -7.5232 459.73)" d="m955.29-66.344v-4.4972"/></g></g></svg>
