<svg width="960" height="400" version="1.1" viewBox="0 0 960 400" xml:space="preserve" xmlns="http://www.w3.org/2000/svg"><g transform="matrix(1.0957 0 0 -1.0958 354.78 585.61)" fill="none" stroke-linejoin="round" stroke-miterlimit="2" stroke-width="24.347"><path transform="scale(.099957 -.10004)" d="m930.9-2867.5v-2.53" stroke="#610061"/><path transform="scale(.099957 -.10004)" d="m941.55-2867.5v-5.94" stroke="#640065"/><path transform="scale(.099957 -.10004)" d="m952.2-2867.5v-1.82" stroke="#67006a"/><path transform="scale(.099957 -.10004)" d="m962.85-2867.5v-10.63" stroke="#6a006e"/><path transform="scale(.099957 -.10004)" d="m973.49-2867.5v-8.22" stroke="#6c0073"/><path transform="scale(.099957 -.10004)" d="m984.15-2867.5v-7.89" stroke="#6f0077"/><path transform="scale(.099957 -.10004)" d="m994.79-2867.5v-1.03" stroke="#71007b"/><path transform="scale(.099957 -.10004)" d="m1005.4-2867.5v-3.06" stroke="#73007f"/><path transform="scale(.099957 -.10004)" d="m1016.1-2867.5v-4.56" stroke="#750084"/><path transform="scale(.099957 -.10004)" d="m1026.7-2867.5v-3.97" stroke="#708"/><path transform="scale(.099957 -.10004)" d="m1037.4-2867.5v-1.62" stroke="#79008c"/><path transform="scale(.099957 -.10004)" d="m1048-2867.5v-1.76" stroke="#7b0090"/><path transform="scale(.099957 -.10004)" d="m1058.7-2867.5v-1.55" stroke="#7c0094"/><path transform="scale(.099957 -.10004)" d="m1069.3-2867.5v-2.6" stroke="#7d0098"/><path transform="scale(.099957 -.10004)" d="m1080-2867.5v-0.91" stroke="#7e009c"/><path transform="scale(.099957 -.10004)" d="m1090.6-2867.5v-1.16" stroke="#7f00a0"/><path transform="scale(.099957 -.10004)" d="m1101.3-2867.5v-2.4" stroke="#8000a4"/><path transform="scale(.099957 -.10004)" d="m1111.9-2867.5v-2.4" stroke="#8100a8"/><path transform="scale(.099957 -.10004)" d="m1122.6-2867.5v-2.74" stroke="#8100ac"/><path transform="scale(.099957 -.10004)" d="m1133.2-2867.5v-0.71" stroke="#8200b0"/><path transform="scale(.099957 -.10004)" d="m1143.9-2867.5v-2.47" stroke="#8200b4"/><path transform="scale(.099957 -.10004)" d="m1154.5-2867.5v-1.96" stroke="#8200b8"/><path transform="scale(.099957 -.10004)" d="m1165.2-2867.5v-1.37" stroke="#8200bc"/><path transform="scale(.099957 -.10004)" d="m1175.8-2867.5v-0.44" stroke="#8200c0"/><path transform="scale(.099957 -.10004)" d="m1186.5-2867.5v-3.06" stroke="#8200c4"/><path transform="scale(.099957 -.10004)" d="m1197.1-2867.5v-2.53" stroke="#8100c7"/><path transform="scale(.099957 -.10004)" d="m1207.8-2867.5v-2.47" stroke="#8100cb"/><path transform="scale(.099957 -.10004)" d="m1218.4-2867.5v-1.1" stroke="#8000cf"/><path transform="scale(.099957 -.10004)" d="m1229-2867.5v-1.42" stroke="#7f00d3"/><path transform="scale(.099957 -.10004)" d="m1239.7-2867.5v-4.43" stroke="#7e00d6"/><path transform="scale(.099957 -.10004)" d="m1250.4-2867.5v-5.8" stroke="#7d00da"/><path transform="scale(.099957 -.10004)" d="m1261-2867.5v-5.28" stroke="#7c00de"/><path transform="scale(.099957 -.10004)" d="m1271.6-2867.5v-6.59" stroke="#7a00e2"/><path transform="scale(.099957 -.10004)" d="m1282.3-2867.5v-7.76" stroke="#7900e5"/><path transform="scale(.099957 -.10004)" d="m1292.9-2867.5v-9.33" stroke="#7700e9"/><path transform="scale(.099957 -.10004)" d="m1303.6-2867.5v-12.2" stroke="#7500ec"/><path transform="scale(.099957 -.10004)" d="m1314.2-2867.5v-12.72" stroke="#7300f0"/><path transform="scale(.099957 -.10004)" d="m1324.9-2867.5v-14.55" stroke="#7100f4"/><path transform="scale(.099957 -.10004)" d="m1335.5-2867.5v-17.81" stroke="#6f00f7"/><path transform="scale(.099957 -.10004)" d="m1346.2-2867.5v-22.31" stroke="#6c00fb"/><path transform="scale(.099957 -.10004)" d="m1356.8-2867.5v-22.65" stroke="#6900ff"/><path transform="scale(.099957 -.10004)" d="m1367.5-2867.5v-26.23" stroke="#6500ff"/><path transform="scale(.099957 -.10004)" d="m1378.1-2867.5v-31.65" stroke="#6100ff"/><path transform="scale(.099957 -.10004)" d="m1388.8-2867.5v-35.9" stroke="#5c00ff"/><path transform="scale(.099957 -.10004)" d="m1399.4-2867.5v-39.03" stroke="#5800ff"/><path transform="scale(.099957 -.10004)" d="m1410.1-2867.5v-45.11" stroke="#5400ff"/><path transform="scale(.099957 -.10004)" d="m1420.7-2867.5v-50.72" stroke="#4f00ff"/><path transform="scale(.099957 -.10004)" d="m1431.4-2867.5v-57.38" stroke="#4b00ff"/><path transform="scale(.099957 -.10004)" d="m1442-2867.5v-64.03" stroke="#4600ff"/><path transform="scale(.099957 -.10004)" d="m1452.7-2867.5v-72.12" stroke="#4100ff"/><path transform="scale(.099957 -.10004)" d="m1463.3-2867.5v-81.92" stroke="#3c00ff"/><path transform="scale(.099957 -.10004)" d="m1474-2867.5v-91.91" stroke="#3700ff"/><path transform="scale(.099957 -.10004)" d="m1484.6-2867.5v-102.81" stroke="#3200ff"/><path transform="scale(.099957 -.10004)" d="m1495.2-2867.5v-116.52" stroke="#2d00ff"/><path transform="scale(.099957 -.10004)" d="m1505.9-2867.5v-130.36" stroke="#2800ff"/><path transform="scale(.099957 -.10004)" d="m1516.6-2867.5v-147.47" stroke="#20f"/><path transform="scale(.099957 -.10004)" d="m1527.2-2867.5v-163.98" stroke="#1d00ff"/><path transform="scale(.099957 -.10004)" d="m1537.8-2867.5v-181.67" stroke="#1700ff"/><path transform="scale(.099957 -.10004)" d="m1548.5-2867.5v-205.56" stroke="#1000ff"/><path transform="scale(.099957 -.10004)" d="m1559.2-2867.5v-228.8" stroke="#0900ff"/><path transform="scale(.099957 -.10004)" d="m1569.8-2867.5v-260.21" stroke="#00f"/><path transform="scale(.099957 -.10004)" d="m1580.4-2867.5v-295.06" stroke="#000bff"/><path transform="scale(.099957 -.10004)" d="m1591.1-2867.5v-333.59" stroke="#0013ff"/><path transform="scale(.099957 -.10004)" d="m1601.7-2867.5v-381.17" stroke="#001aff"/><path transform="scale(.099957 -.10004)" d="m1612.4-2867.5v-434.12" stroke="#0021ff"/><path transform="scale(.099957 -.10004)" d="m1623-2867.5v-493.53" stroke="#0028ff"/><path transform="scale(.099957 -.10004)" d="m1633.7-2867.5v-559.2" stroke="#002eff"/><path transform="scale(.099957 -.10004)" d="m1644.3-2867.5v-627.48" stroke="#0034ff"/><path transform="scale(.099957 -.10004)" d="m1655-2867.5v-693.61" stroke="#003aff"/><path transform="scale(.099957 -.10004)" d="m1665.6-2867.5v-757.39" stroke="#0040ff"/><path transform="scale(.099957 -.10004)" d="m1676.3-2867.5v-817.53" stroke="#0046ff"/><path transform="scale(.099957 -.10004)" d="m1686.9-2867.5v-863.62" stroke="#004bff"/><path transform="scale(.099957 -.10004)" d="m1697.6-2867.5v-895.14" stroke="#0051ff"/><path transform="scale(.099957 -.10004)" d="m1708.2-2867.5v-908.26" stroke="#0056ff"/><path transform="scale(.099957 -.10004)" d="m1718.9-2867.5v-903.75" stroke="#005cff"/><path transform="scale(.099957 -.10004)" d="m1729.5-2867.5v-885.02" stroke="#0061ff"/><path transform="scale(.099957 -.10004)" d="m1740.2-2867.5v-850.29" stroke="#06f"/><path transform="scale(.099957 -.10004)" d="m1750.8-2867.5v-809.62" stroke="#006bff"/><path transform="scale(.099957 -.10004)" d="m1761.5-2867.5v-765.29" stroke="#0070ff"/><path transform="scale(.099957 -.10004)" d="m1772.1-2867.5v-716.4" stroke="#0075ff"/><path transform="scale(.099957 -.10004)" d="m1782.8-2867.5v-675.27" stroke="#007aff"/><path transform="scale(.099957 -.10004)" d="m1793.4-2867.5v-634.15" stroke="#007fff"/><path transform="scale(.099957 -.10004)" d="m1804.1-2867.5v-610.58" stroke="#0084ff"/><path transform="scale(.099957 -.10004)" d="m1814.7-2867.5v-583.81" stroke="#0089ff"/><path transform="scale(.099957 -.10004)" d="m1825.4-2867.5v-566.58" stroke="#008dff"/><path transform="scale(.099957 -.10004)" d="m1836-2867.5v-549.93" stroke="#0092ff"/><path transform="scale(.099957 -.10004)" d="m1846.6-2867.5v-539.62" stroke="#0097ff"/><path transform="scale(.099957 -.10004)" d="m1857.3-2867.5v-525.64" stroke="#009bff"/><path transform="scale(.099957 -.10004)" d="m1868-2867.5v-518.33" stroke="#00a0ff"/><path transform="scale(.099957 -.10004)" d="m1878.6-2867.5v-503.77" stroke="#00a4ff"/><path transform="scale(.099957 -.10004)" d="m1889.2-2867.5v-490.46" stroke="#00a9ff"/><path transform="scale(.099957 -.10004)" d="m1899.9-2867.5v-475.31" stroke="#00adff"/><path transform="scale(.099957 -.10004)" d="m1910.5-2867.5v-457.49" stroke="#00b2ff"/><path transform="scale(.099957 -.10004)" d="m1921.2-2867.5v-442.66" stroke="#00b6ff"/><path transform="scale(.099957 -.10004)" d="m1931.8-2867.5v-426.48" stroke="#0bf"/><path transform="scale(.099957 -.10004)" d="m1942.5-2867.5v-416.29" stroke="#00bfff"/><path transform="scale(.099957 -.10004)" d="m1953.1-2867.5v-405.13" stroke="#00c4ff"/><path transform="scale(.099957 -.10004)" d="m1963.8-2867.5v-398.48" stroke="#00c8ff"/><path transform="scale(.099957 -.10004)" d="m1974.4-2867.5v-395.79" stroke="#0cf"/><path transform="scale(.099957 -.10004)" d="m1985.1-2867.5v-395.86" stroke="#00d1ff"/><path transform="scale(.099957 -.10004)" d="m1995.7-2867.5v-399.51" stroke="#00d5ff"/><path transform="scale(.099957 -.10004)" d="m2006.4-2867.5v-406.31" stroke="#00d9ff"/><path transform="scale(.099957 -.10004)" d="m2017-2867.5v-414.27" stroke="#0df"/><path transform="scale(.099957 -.10004)" d="m2027.7-2867.5v-424.46" stroke="#00e2ff"/><path transform="scale(.099957 -.10004)" d="m2038.3-2867.5v-432.62" stroke="#00e6ff"/><path transform="scale(.099957 -.10004)" d="m2049-2867.5v-444.3" stroke="#00eaff"/><path transform="scale(.099957 -.10004)" d="m2059.6-2867.5v-456.9" stroke="#0ef"/><path transform="scale(.099957 -.10004)" d="m2070.3-2867.5v-469.9" stroke="#00f2ff"/><path transform="scale(.099957 -.10004)" d="m2080.9-2867.5v-480.34" stroke="#00f6ff"/><path transform="scale(.099957 -.10004)" d="m2091.6-2867.5v-494.7" stroke="#00faff"/><path transform="scale(.099957 -.10004)" d="m2102.2-2867.5v-507.56" stroke="#0ff"/><path transform="scale(.099957 -.10004)" d="m2112.8-2867.5v-523.94" stroke="#00fff4"/><path transform="scale(.099957 -.10004)" d="m2123.5-2867.5v-537.53" stroke="#00ffea"/><path transform="scale(.099957 -.10004)" d="m2134.2-2867.5v-552.67" stroke="#00ffdf"/><path transform="scale(.099957 -.10004)" d="m2144.8-2867.5v-567.75" stroke="#00ffd5"/><path transform="scale(.099957 -.10004)" d="m2155.4-2867.5v-583.42" stroke="#00ffca"/><path transform="scale(.099957 -.10004)" d="m2166.1-2867.5v-599.6" stroke="#00ffbf"/><path transform="scale(.099957 -.10004)" d="m2176.7-2867.5v-616.71" stroke="#00ffb4"/><path transform="scale(.099957 -.10004)" d="m2187.4-2867.5v-632.45" stroke="#00ffa9"/><path transform="scale(.099957 -.10004)" d="m2198-2867.5v-648.83" stroke="#00ff9e"/><path transform="scale(.099957 -.10004)" d="m2208.7-2867.5v-665.67" stroke="#00ff92"/><path transform="scale(.099957 -.10004)" d="m2219.3-2867.5v-679.91" stroke="#00ff86"/><path transform="scale(.099957 -.10004)" d="m2230-2867.5v-697.41" stroke="#00ff7a"/><path transform="scale(.099957 -.10004)" d="m2240.6-2867.5v-712.74" stroke="#00ff6e"/><path transform="scale(.099957 -.10004)" d="m2251.3-2867.5v-725.41" stroke="#00ff61"/><path transform="scale(.099957 -.10004)" d="m2261.9-2867.5v-737.29" stroke="#00ff54"/><path transform="scale(.099957 -.10004)" d="m2272.6-2867.5v-752.5" stroke="#00ff46"/><path transform="scale(.099957 -.10004)" d="m2283.2-2867.5v-763.73" stroke="#00ff37"/><path transform="scale(.099957 -.10004)" d="m2293.9-2867.5v-773.91" stroke="#00ff28"/><path transform="scale(.099957 -.10004)" d="m2304.5-2867.5v-784.62" stroke="#00ff17"/><path transform="scale(.099957 -.10004)" d="m2315.2-2867.5v-796.89" stroke="#0f0"/><path transform="scale(.099957 -.10004)" d="m2325.8-2867.5v-806.42" stroke="#08ff00"/><path transform="scale(.099957 -.10004)" d="m2336.5-2867.5v-815.44" stroke="#0eff00"/><path transform="scale(.099957 -.10004)" d="m2347.1-2867.5v-822.35" stroke="#14ff00"/><path transform="scale(.099957 -.10004)" d="m2357.8-2867.5v-835.21" stroke="#19ff00"/><path transform="scale(.099957 -.10004)" d="m2368.4-2867.5v-847.03" stroke="#1eff00"/><path transform="scale(.099957 -.10004)" d="m2379.1-2867.5v-850.16" stroke="#23ff00"/><path transform="scale(.099957 -.10004)" d="m2389.7-2867.5v-863.15" stroke="#28ff00"/><path transform="scale(.099957 -.10004)" d="m2400.4-2867.5v-868.38" stroke="#2cff00"/><path transform="scale(.099957 -.10004)" d="m2411-2867.5v-879.21" stroke="#31ff00"/><path transform="scale(.099957 -.10004)" d="m2421.6-2867.5v-887.24" stroke="#35ff00"/><path transform="scale(.099957 -.10004)" d="m2432.3-2867.5v-895.33" stroke="#3aff00"/><path transform="scale(.099957 -.10004)" d="m2442.9-2867.5v-905.32" stroke="#3eff00"/><path transform="scale(.099957 -.10004)" d="m2453.6-2867.5v-913.09" stroke="#42ff00"/><path transform="scale(.099957 -.10004)" d="m2464.2-2867.5v-924.45" stroke="#46ff00"/><path transform="scale(.099957 -.10004)" d="m2474.9-2867.5v-932.03" stroke="#4aff00"/><path transform="scale(.099957 -.10004)" d="m2485.5-2867.5v-938.04" stroke="#4eff00"/><path transform="scale(.099957 -.10004)" d="m2496.2-2867.5v-949.06" stroke="#52ff00"/><path transform="scale(.099957 -.10004)" d="m2506.8-2867.5v-959.58" stroke="#56ff00"/><path transform="scale(.099957 -.10004)" d="m2517.5-2867.5v-971.32" stroke="#59ff00"/><path transform="scale(.099957 -.10004)" d="m2528.1-2867.5v-981.84" stroke="#5dff00"/><path transform="scale(.099957 -.10004)" d="m2538.8-2867.5v-987.65" stroke="#61ff00"/><path transform="scale(.099957 -.10004)" d="m2549.4-2867.5v-1000.1" stroke="#65ff00"/><path transform="scale(.099957 -.10004)" d="m2560.1-2867.5v-1013" stroke="#68ff00"/><path transform="scale(.099957 -.10004)" d="m2570.7-2867.5v-1020.7" stroke="#6cff00"/><path transform="scale(.099957 -.10004)" d="m2581.4-2867.5v-1033.2" stroke="#6fff00"/><path transform="scale(.099957 -.10004)" d="m2592-2867.5v-1046.3" stroke="#73ff00"/><path transform="scale(.099957 -.10004)" d="m2602.7-2867.5v-1058.1" stroke="#7f0"/><path transform="scale(.099957 -.10004)" d="m2613.3-2867.5v-1071.5" stroke="#7aff00"/><path transform="scale(.099957 -.10004)" d="m2624-2867.5v-1084.8" stroke="#7eff00"/><path transform="scale(.099957 -.10004)" d="m2634.6-2867.5v-1096.4" stroke="#81ff00"/><path transform="scale(.099957 -.10004)" d="m2645.3-2867.5v-1112" stroke="#84ff00"/><path transform="scale(.099957 -.10004)" d="m2655.9-2867.5v-1124" stroke="#8f0"/><path transform="scale(.099957 -.10004)" d="m2666.6-2867.5v-1139.4" stroke="#8bff00"/><path transform="scale(.099957 -.10004)" d="m2677.2-2867.5v-1151.9" stroke="#8fff00"/><path transform="scale(.099957 -.10004)" d="m2687.8-2867.5v-1168.9" stroke="#92ff00"/><path transform="scale(.099957 -.10004)" d="m2698.5-2867.5v-1181.7" stroke="#95ff00"/><path transform="scale(.099957 -.10004)" d="m2709.2-2867.5v-1198.3" stroke="#9f0"/><path transform="scale(.099957 -.10004)" d="m2719.8-2867.5v-1209.7" stroke="#9cff00"/><path transform="scale(.099957 -.10004)" d="m2730.4-2867.5v-1229.3" stroke="#9fff00"/><path transform="scale(.099957 -.10004)" d="m2741.1-2867.5v-1244.7" stroke="#a2ff00"/><path transform="scale(.099957 -.10004)" d="m2751.7-2867.5v-1262.2" stroke="#a6ff00"/><path transform="scale(.099957 -.10004)" d="m2762.4-2867.5v-1276.7" stroke="#a9ff00"/><path transform="scale(.099957 -.10004)" d="m2773-2867.5v-1296.3" stroke="#acff00"/><path transform="scale(.099957 -.10004)" d="m2783.7-2867.5v-1313.2" stroke="#afff00"/><path transform="scale(.099957 -.10004)" d="m2794.3-2867.5v-1331.4" stroke="#b3ff00"/><path transform="scale(.099957 -.10004)" d="m2805-2867.5v-1348.4" stroke="#b6ff00"/><path transform="scale(.099957 -.10004)" d="m2815.6-2867.5v-1365.6" stroke="#b9ff00"/><path transform="scale(.099957 -.10004)" d="m2826.3-2867.5v-1386.7" stroke="#bcff00"/><path transform="scale(.099957 -.10004)" d="m2836.9-2867.5v-1409.6" stroke="#bfff00"/><path transform="scale(.099957 -.10004)" d="m2847.6-2867.5v-1428.5" stroke="#c2ff00"/><path transform="scale(.099957 -.10004)" d="m2858.2-2867.5v-1445.8" stroke="#c5ff00"/><path transform="scale(.099957 -.10004)" d="m2868.9-2867.5v-1469.4" stroke="#c9ff00"/><path transform="scale(.099957 -.10004)" d="m2879.5-2867.5v-1488.7" stroke="#cf0"/><path transform="scale(.099957 -.10004)" d="m2890.2-2867.5v-1510.8" stroke="#cfff00"/><path transform="scale(.099957 -.10004)" d="m2900.8-2867.5v-1528.2" stroke="#d2ff00"/><path transform="scale(.099957 -.10004)" d="m2911.5-2867.5v-1556.4" stroke="#d5ff00"/><path transform="scale(.099957 -.10004)" d="m2922.1-2867.5v-1574.9" stroke="#d8ff00"/><path transform="scale(.099957 -.10004)" d="m2932.8-2867.5v-1597.8" stroke="#dbff00"/><path transform="scale(.099957 -.10004)" d="m2943.4-2867.5v-1616.6" stroke="#deff00"/><path transform="scale(.099957 -.10004)" d="m2954-2867.5v-1639.4" stroke="#e1ff00"/><path transform="scale(.099957 -.10004)" d="m2964.7-2867.5v-1663.6" stroke="#e4ff00"/><path transform="scale(.099957 -.10004)" d="m2975.4-2867.5v-1685.8" stroke="#e7ff00"/><path transform="scale(.099957 -.10004)" d="m2986-2867.5v-1706.7" stroke="#eaff00"/><path transform="scale(.099957 -.10004)" d="m2996.6-2867.5v-1728.8" stroke="#edff00"/><path transform="scale(.099957 -.10004)" d="m3007.3-2867.5v-1751.6" stroke="#f0ff00"/><path transform="scale(.099957 -.10004)" d="m3018-2867.5v-1777.3" stroke="#f3ff00"/><path transform="scale(.099957 -.10004)" d="m3028.6-2867.5v-1800.9" stroke="#f6ff00"/><path transform="scale(.099957 -.10004)" d="m3039.2-2867.5v-1824.6" stroke="#f9ff00"/><path transform="scale(.099957 -.10004)" d="m3049.9-2867.5v-1845.6" stroke="#fcff00"/><path transform="scale(.099957 -.10004)" d="m3060.5-2867.5v-1867.9" stroke="#ff0"/><path transform="scale(.099957 -.10004)" d="m3071.2-2867.5v-1893.8" stroke="#fffb00"/><path transform="scale(.099957 -.10004)" d="m3081.8-2867.5v-1913.7" stroke="#fff800"/><path transform="scale(.099957 -.10004)" d="m3092.5-2867.5v-1938.2" stroke="#fff500"/><path transform="scale(.099957 -.10004)" d="m3103.1-2867.5v-1960.5" stroke="#fff200"/><path transform="scale(.099957 -.10004)" d="m3113.8-2867.5v-1982" stroke="#ffef00"/><path transform="scale(.099957 -.10004)" d="m3124.4-2867.5v-2003.4" stroke="#ffeb00"/><path transform="scale(.099957 -.10004)" d="m3135.1-2867.5v-2027.9" stroke="#ffe800"/><path transform="scale(.099957 -.10004)" d="m3145.7-2867.5v-2049.9" stroke="#ffe500"/><path transform="scale(.099957 -.10004)" d="m3156.4-2867.5v-2068.5" stroke="#ffe200"/><path transform="scale(.099957 -.10004)" d="m3167-2867.5v-2084.5" stroke="#ffdf00"/><path transform="scale(.099957 -.10004)" d="m3177.7-2867.5v-2104.6" stroke="#ffdb00"/><path transform="scale(.099957 -.10004)" d="m3188.3-2867.5v-2122.4" stroke="#ffd800"/><path transform="scale(.099957 -.10004)" d="m3199-2867.5v-2144.1" stroke="#ffd500"/><path transform="scale(.099957 -.10004)" d="m3209.6-2867.5v-2161.3" stroke="#ffd200"/><path transform="scale(.099957 -.10004)" d="m3220.3-2867.5v-2178.1" stroke="#ffce00"/><path transform="scale(.099957 -.10004)" d="m3230.9-2867.5v-2192.5" stroke="#ffcb00"/><path transform="scale(.099957 -.10004)" d="m3241.6-2867.5v-2207.4" stroke="#ffc800"/><path transform="scale(.099957 -.10004)" d="m3252.2-2867.5v-2219.4" stroke="#ffc400"/><path transform="scale(.099957 -.10004)" d="m3262.9-2867.5v-2231" stroke="#ffc100"/><path transform="scale(.099957 -.10004)" d="m3273.5-2867.5v-2243" stroke="#ffbe00"/><path transform="scale(.099957 -.10004)" d="m3284.2-2867.5v-2253.9" stroke="#ffba00"/><path transform="scale(.099957 -.10004)" d="m3294.8-2867.5v-2259.3" stroke="#ffb700"/><path transform="scale(.099957 -.10004)" d="m3305.4-2867.5v-2266.4" stroke="#ffb300"/><path transform="scale(.099957 -.10004)" d="m3316.1-2867.5v-2271.7" stroke="#ffb000"/><path transform="scale(.099957 -.10004)" d="m3326.7-2867.5v-2280.4" stroke="#ffac00"/><path transform="scale(.099957 -.10004)" d="m3337.4-2867.5v-2283.7" stroke="#ffa900"/><path transform="scale(.099957 -.10004)" d="m3348-2867.5v-2283.1" stroke="#ffa500"/><path transform="scale(.099957 -.10004)" d="m3358.7-2867.5v-2284.9" stroke="#ffa200"/><path transform="scale(.099957 -.10004)" d="m3369.3-2867.5v-2284.9" stroke="#ff9e00"/><path transform="scale(.099957 -.10004)" d="m3380-2867.5v-2290.1" stroke="#ff9b00"/><path transform="scale(.099957 -.10004)" d="m3390.6-2867.5v-2284.9" stroke="#ff9700"/><path transform="scale(.099957 -.10004)" d="m3401.3-2867.5v-2286.2" stroke="#ff9400"/><path transform="scale(.099957 -.10004)" d="m3411.9-2867.5v-2280.7" stroke="#ff9000"/><path transform="scale(.099957 -.10004)" d="m3422.6-2867.5v-2279.9" stroke="#ff8d00"/><path transform="scale(.099957 -.10004)" d="m3433.2-2867.5v-2269.2" stroke="#ff8900"/><path transform="scale(.099957 -.10004)" d="m3443.9-2867.5v-2257.9" stroke="#ff8500"/><path transform="scale(.099957 -.10004)" d="m3454.5-2867.5v-2249.4" stroke="#ff8100"/><path transform="scale(.099957 -.10004)" d="m3465.2-2867.5v-2232.9" stroke="#ff7e00"/><path transform="scale(.099957 -.10004)" d="m3475.8-2867.5v-2228.7" stroke="#ff7a00"/><path transform="scale(.099957 -.10004)" d="m3486.5-2867.5v-2214.3" stroke="#ff7600"/><path transform="scale(.099957 -.10004)" d="m3497.1-2867.5v-2197.1" stroke="#ff7200"/><path transform="scale(.099957 -.10004)" d="m3507.8-2867.5v-2185.8" stroke="#ff6f00"/><path transform="scale(.099957 -.10004)" d="m3518.4-2867.5v-2173.9" stroke="#ff6b00"/><path transform="scale(.099957 -.10004)" d="m3529.1-2867.5v-2151.1" stroke="#ff6700"/><path transform="scale(.099957 -.10004)" d="m3539.7-2867.5v-2139.2" stroke="#ff6300"/><path transform="scale(.099957 -.10004)" d="m3550.4-2867.5v-2120.8" stroke="#ff5f00"/><path transform="scale(.099957 -.10004)" d="m3561-2867.5v-2097" stroke="#ff5b00"/><path transform="scale(.099957 -.10004)" d="m3571.6-2867.5v-2081.6" stroke="#ff5700"/><path transform="scale(.099957 -.10004)" d="m3582.3-2867.5v-2058.6" stroke="#ff5300"/><path transform="scale(.099957 -.10004)" d="m3593-2867.5v-2037.7" stroke="#ff4e00"/><path transform="scale(.099957 -.10004)" d="m3603.6-2867.5v-2019.8" stroke="#ff4a00"/><path transform="scale(.099957 -.10004)" d="m3614.2-2867.5v-1994.8" stroke="#ff4600"/><path transform="scale(.099957 -.10004)" d="m3624.9-2867.5v-1967.8" stroke="#ff4200"/><path transform="scale(.099957 -.10004)" d="m3635.5-2867.5v-1944.6" stroke="#ff3d00"/><path transform="scale(.099957 -.10004)" d="m3646.2-2867.5v-1920.7" stroke="#ff3900"/><path transform="scale(.099957 -.10004)" d="m3656.8-2867.5v-1898.1" stroke="#ff3400"/><path transform="scale(.099957 -.10004)" d="m3667.5-2867.5v-1867" stroke="#ff2f00"/><path transform="scale(.099957 -.10004)" d="m3678.1-2867.5v-1851.2" stroke="#ff2a00"/><path transform="scale(.099957 -.10004)" d="m3688.8-2867.5v-1818.2" stroke="#ff2500"/><path transform="scale(.099957 -.10004)" d="m3699.4-2867.5v-1789.8" stroke="#ff2000"/><path transform="scale(.099957 -.10004)" d="m3710.1-2867.5v-1761.8" stroke="#ff1b00"/><path transform="scale(.099957 -.10004)" d="m3720.7-2867.5v-1735.5" stroke="#ff1500"/><path transform="scale(.099957 -.10004)" d="m3731.4-2867.5v-1706.5" stroke="#ff0f00"/><path transform="scale(.099957 -.10004)" d="m3742-2867.5v-1675.6" stroke="#ff0900"/><g stroke="#f00"><path transform="scale(.099957 -.10004)" d="m3752.7-2867.5v-1646.8"/><path transform="scale(.099957 -.10004)" d="m3763.3-2867.5v-1618.4"/><path transform="scale(.099957 -.10004)" d="m3774-2867.5v-1587.8"/><path transform="scale(.099957 -.10004)" d="m3784.6-2867.5v-1562.6"/><path transform="scale(.099957 -.10004)" d="m3795.3-2867.5v-1529.7"/><path transform="scale(.099957 -.10004)" d="m3805.9-2867.5v-1496.8"/><path transform="scale(.099957 -.10004)" d="m3816.6-2867.5v-1472.1"/><path transform="scale(.099957 -.10004)" d="m3827.2-2867.5v-1441.1"/><path transform="scale(.099957 -.10004)" d="m3837.8-2867.5v-1409"/><path transform="scale(.099957 -.10004)" d="m3848.5-2867.5v-1377.4"/><path transform="scale(.099957 -.10004)" d="m3859.2-2867.5v-1351.1"/><path transform="scale(.099957 -.10004)" d="m3869.8-2867.5v-1325.8"/><path transform="scale(.099957 -.10004)" d="m3880.4-2867.5v-1296.6"/><path transform="scale(.099957 -.10004)" d="m3891.1-2867.5v-1267.6"/><path transform="scale(.099957 -.10004)" d="m3901.7-2867.5v-1242"/><path transform="scale(.099957 -.10004)" d="m3912.4-2867.5v-1206.2"/><path transform="scale(.099957 -.10004)" d="m3923-2867.5v-1178.1"/><path transform="scale(.099957 -.10004)" d="m3933.7-2867.5v-1156.3"/><path transform="scale(.099957 -.10004)" d="m3944.3-2867.5v-1125.3"/><path transform="scale(.099957 -.10004)" d="m3955-2867.5v-1095.4"/><path transform="scale(.099957 -.10004)" d="m3965.6-2867.5v-1075.4"/><path transform="scale(.099957 -.10004)" d="m3976.3-2867.5v-1048.6"/><path transform="scale(.099957 -.10004)" d="m3986.9-2867.5v-1021.3"/><path transform="scale(.099957 -.10004)" d="m3997.6-2867.5v-994.95"/><path transform="scale(.099957 -.10004)" d="m4008.2-2867.5v-974.06"/><path transform="scale(.099957 -.10004)" d="m4018.9-2867.5v-949.52"/><path transform="scale(.099957 -.10004)" d="m4029.5-2867.5v-922.03"/><path transform="scale(.099957 -.10004)" d="m4040.2-2867.5v-897.69"/><path transform="scale(.099957 -.10004)" d="m4050.8-2867.5v-877.97"/><path transform="scale(.099957 -.10004)" d="m4061.5-2867.5v-856.1"/><path transform="scale(.099957 -.10004)" d="m4072.1-2867.5v-834.68"/><path transform="scale(.099957 -.10004)" d="m4082.8-2867.5v-810.01"/><path transform="scale(.099957 -.10004)" d="m4093.4-2867.5v-790.42"/><path transform="scale(.099957 -.10004)" d="m4104.1-2867.5v-769.14"/><path transform="scale(.099957 -.10004)" d="m4114.7-2867.5v-744.53"/><path transform="scale(.099957 -.10004)" d="m4125.4-2867.5v-725.87"/><path transform="scale(.099957 -.10004)" d="m4136-2867.5v-708.63"/><path transform="scale(.099957 -.10004)" d="m4146.7-2867.5v-689.31"/><path transform="scale(.099957 -.10004)" d="m4157.3-2867.5v-668.8"/><path transform="scale(.099957 -.10004)" d="m4167.9-2867.5v-649.02"/><path transform="scale(.099957 -.10004)" d="m4178.6-2867.5v-632.97"/><path transform="scale(.099957 -.10004)" d="m4189.2-2867.5v-612.21"/><path transform="scale(.099957 -.10004)" d="m4199.9-2867.5v-597.65"/><path transform="scale(.099957 -.10004)" d="m4210.5-2867.5v-580.68"/><path transform="scale(.099957 -.10004)" d="m4221.2-2867.5v-561.62"/><path transform="scale(.099957 -.10004)" d="m4231.8-2867.5v-548.56"/><path transform="scale(.099957 -.10004)" d="m4242.5-2867.5v-532.76"/><path transform="scale(.099957 -.10004)" d="m4253.1-2867.5v-511.15"/><path transform="scale(.099957 -.10004)" d="m4263.8-2867.5v-501.56"/><path transform="scale(.099957 -.10004)" d="m4274.4-2867.5v-487.32"/><path transform="scale(.099957 -.10004)" d="m4285.1-2867.5v-470.42"/><path transform="scale(.099957 -.10004)" d="m4295.7-2867.5v-457.42"/><path transform="scale(.099957 -.10004)" d="m4306.4-2867.5v-443.85"/><path transform="scale(.099957 -.10004)" d="m4317-2867.5v-430.98"/><path transform="scale(.099957 -.10004)" d="m4327.7-2867.5v-418.78"/><path transform="scale(.099957 -.10004)" d="m4338.3-2867.5v-403.24"/></g><path transform="scale(.099957 -.10004)" d="m4349-2867.5v-393.97" stroke="#fd0000"/><path transform="scale(.099957 -.10004)" d="m4359.6-2867.5v-381.31" stroke="#fc0000"/><path transform="scale(.099957 -.10004)" d="m4370.3-2867.5v-366.48" stroke="#fa0000"/><path transform="scale(.099957 -.10004)" d="m4380.9-2867.5v-356.43" stroke="#f90000"/><path transform="scale(.099957 -.10004)" d="m4391.6-2867.5v-347.76" stroke="#f70000"/><path transform="scale(.099957 -.10004)" d="m4402.2-2867.5v-336.85" stroke="#f60000"/><path transform="scale(.099957 -.10004)" d="m4412.9-2867.5v-327.12" stroke="#f40000"/><path transform="scale(.099957 -.10004)" d="m4423.5-2867.5v-317.92" stroke="#f30000"/><path transform="scale(.099957 -.10004)" d="m4434.2-2867.5v-303.95" stroke="#f20000"/><path transform="scale(.099957 -.10004)" d="m4444.8-2867.5v-294.81" stroke="#f00000"/><path transform="scale(.099957 -.10004)" d="m4455.4-2867.5v-285.67" stroke="#ef0000"/><path transform="scale(.099957 -.10004)" d="m4466.1-2867.5v-275.68" stroke="#ed0000"/><path transform="scale(.099957 -.10004)" d="m4476.8-2867.5v-272.34" stroke="#ec0000"/><path transform="scale(.099957 -.10004)" d="m4487.4-2867.5v-259.09" stroke="#ea0000"/><path transform="scale(.099957 -.10004)" d="m4498-2867.5v-252.24" stroke="#e90000"/><path transform="scale(.099957 -.10004)" d="m4508.7-2867.5v-245.58" stroke="#e70000"/><path transform="scale(.099957 -.10004)" d="m4519.3-2867.5v-235.92" stroke="#e60000"/><path transform="scale(.099957 -.10004)" d="m4530-2867.5v-230.69" stroke="#e40000"/><path transform="scale(.099957 -.10004)" d="m4540.6-2867.5v-220.32" stroke="#e30000"/><path transform="scale(.099957 -.10004)" d="m4551.3-2867.5v-212.95" stroke="#e20000"/><path transform="scale(.099957 -.10004)" d="m4561.9-2867.5v-205.5" stroke="#e00000"/><path transform="scale(.099957 -.10004)" d="m4572.6-2867.5v-203.41" stroke="#df0000"/><path transform="scale(.099957 -.10004)" d="m4583.2-2867.5v-190.49" stroke="#d00"/><path transform="scale(.099957 -.10004)" d="m4593.9-2867.5v-183.69" stroke="#dc0000"/><path transform="scale(.099957 -.10004)" d="m4604.5-2867.5v-179.13" stroke="#da0000"/><path transform="scale(.099957 -.10004)" d="m4615.2-2867.5v-171.1" stroke="#d90000"/><path transform="scale(.099957 -.10004)" d="m4625.8-2867.5v-169.86" stroke="#d70000"/><path transform="scale(.099957 -.10004)" d="m4636.5-2867.5v-160.65" stroke="#d60000"/><path transform="scale(.099957 -.10004)" d="m4647.1-2867.5v-158.95" stroke="#d40000"/><path transform="scale(.099957 -.10004)" d="m4657.8-2867.5v-151.51" stroke="#d30000"/><path transform="scale(.099957 -.10004)" d="m4668.4-2867.5v-147.21" stroke="#d10000"/><path transform="scale(.099957 -.10004)" d="m4679.1-2867.5v-142.43" stroke="#d00000"/><path transform="scale(.099957 -.10004)" d="m4689.7-2867.5v-136.88" stroke="#ce0000"/><path transform="scale(.099957 -.10004)" d="m4700.4-2867.5v-136.36" stroke="#cd0000"/><path transform="scale(.099957 -.10004)" d="m4711-2867.5v-126.38" stroke="#cb0000"/><path transform="scale(.099957 -.10004)" d="m4721.7-2867.5v-121.16" stroke="#ca0000"/><path transform="scale(.099957 -.10004)" d="m4732.3-2867.5v-119.07" stroke="#c80000"/><path transform="scale(.099957 -.10004)" d="m4743-2867.5v-116.13" stroke="#c70000"/><path transform="scale(.099957 -.10004)" d="m4753.6-2867.5v-108.94" stroke="#c50000"/><path transform="scale(.099957 -.10004)" d="m4764.2-2867.5v-104.38" stroke="#c40000"/><path transform="scale(.099957 -.10004)" d="m4774.9-2867.5v-100.85" stroke="#c20000"/><path transform="scale(.099957 -.10004)" d="m4785.5-2867.5v-100.79" stroke="#c10000"/><path transform="scale(.099957 -.10004)" d="m4796.2-2867.5v-94.06" stroke="#bf0000"/><path transform="scale(.099957 -.10004)" d="m4806.8-2867.5v-94.19" stroke="#bd0000"/><path transform="scale(.099957 -.10004)" d="m4817.5-2867.5v-88.91" stroke="#bc0000"/><path transform="scale(.099957 -.10004)" d="m4828.1-2867.5v-89.1" stroke="#ba0000"/><path transform="scale(.099957 -.10004)" d="m4838.8-2867.5v-84.34" stroke="#b90000"/><path transform="scale(.099957 -.10004)" d="m4849.4-2867.5v-83.29" stroke="#b70000"/><path transform="scale(.099957 -.10004)" d="m4860.1-2867.5v-77.35" stroke="#b60000"/><path transform="scale(.099957 -.10004)" d="m4870.7-2867.5v-72.71" stroke="#b40000"/><path transform="scale(.099957 -.10004)" d="m4881.4-2867.5v-71.55" stroke="#b30000"/><path transform="scale(.099957 -.10004)" d="m4892-2867.5v-69.45" stroke="#b10000"/><path transform="scale(.099957 -.10004)" d="m4902.7-2867.5v-65.66" stroke="#af0000"/><path transform="scale(.099957 -.10004)" d="m4913.3-2867.5v-61.68" stroke="#ae0000"/><path transform="scale(.099957 -.10004)" d="m4924-2867.5v-61.75" stroke="#ac0000"/><path transform="scale(.099957 -.10004)" d="m4934.6-2867.5v-60.9" stroke="#ab0000"/><path transform="scale(.099957 -.10004)" d="m4945.3-2867.5v-59.01" stroke="#a90000"/><path transform="scale(.099957 -.10004)" d="m4955.9-2867.5v-52.74" stroke="#a80000"/><path transform="scale(.099957 -.10004)" d="m4966.6-2867.5v-55.75" stroke="#a60000"/><path transform="scale(.099957 -.10004)" d="m4977.2-2867.5v-54.18" stroke="#a40000"/><path transform="scale(.099957 -.10004)" d="m4987.9-2867.5v-53.13" stroke="#a30000"/><path transform="scale(.099957 -.10004)" d="m4998.5-2867.5v-45.75" stroke="#a10000"/><path transform="scale(.099957 -.10004)" d="m5009.2-2867.5v-53.79" stroke="#a00000"/><path transform="scale(.099957 -.10004)" d="m5019.8-2867.5v-46.27" stroke="#9e0000"/><path transform="scale(.099957 -.10004)" d="m5030.5-2867.5v-46.09" stroke="#9c0000"/><path transform="scale(.099957 -.10004)" d="m5041.1-2867.5v-45.95" stroke="#9b0000"/><path transform="scale(.099957 -.10004)" d="m5051.8-2867.5v-36.94" stroke="#900"/><path transform="scale(.099957 -.10004)" d="m5062.4-2867.5v-39.68" stroke="#980000"/><path transform="scale(.099957 -.10004)" d="m5073-2867.5v-40.14" stroke="#960000"/><path transform="scale(.099957 -.10004)" d="m5083.7-2867.5v-34.79" stroke="#940000"/><path transform="scale(.099957 -.10004)" d="m5094.3-2867.5v-35.18" stroke="#930000"/><path transform="scale(.099957 -.10004)" d="m5105-2867.5v-37.86" stroke="#910000"/><path transform="scale(.099957 -.10004)" d="m5115.6-2867.5v-31.79" stroke="#8f0000"/><path transform="scale(.099957 -.10004)" d="m5126.3-2867.5v-34.27" stroke="#8e0000"/><path transform="scale(.099957 -.10004)" d="m5136.9-2867.5v-31.72" stroke="#8c0000"/><path transform="scale(.099957 -.10004)" d="m5147.6-2867.5v-31.2" stroke="#8a0000"/><path transform="scale(.099957 -.10004)" d="m5158.2-2867.5v-31.53" stroke="#890000"/><path transform="scale(.099957 -.10004)" d="m5168.9-2867.5v-28.52" stroke="#870000"/><path transform="scale(.099957 -.10004)" d="m5179.5-2867.5v-28" stroke="#850000"/><path transform="scale(.099957 -.10004)" d="m5190.2-2867.5v-29.44" stroke="#840000"/><path transform="scale(.099957 -.10004)" d="m5200.8-2867.5v-23.7" stroke="#820000"/><path transform="scale(.099957 -.10004)" d="m5211.5-2867.5v-18.99" stroke="#800000"/><path transform="scale(.099957 -.10004)" d="m5222.1-2867.5v-23.7" stroke="#7f0000"/><path transform="scale(.099957 -.10004)" d="m5232.8-2867.5v-24.47" stroke="#7d0000"/><path transform="scale(.099957 -.10004)" d="m5243.4-2867.5v-21.79" stroke="#7b0000"/><path transform="scale(.099957 -.10004)" d="m5254.1-2867.5v-18.47" stroke="#7a0000"/><path transform="scale(.099957 -.10004)" d="m5264.7-2867.5v-18.59" stroke="#780000"/><path transform="scale(.099957 -.10004)" d="m5275.4-2867.5v-17.36" stroke="#760000"/><path transform="scale(.099957 -.10004)" d="m5286-2867.5v-22.12" stroke="#740000"/><path transform="scale(.099957 -.10004)" d="m5296.7-2867.5v-14.42" stroke="#730000"/><path transform="scale(.099957 -.10004)" d="m5307.3-2867.5v-13.31" stroke="#710000"/><path transform="scale(.099957 -.10004)" d="m5318-2867.5v-17.16" stroke="#6f0000"/><path transform="scale(.099957 -.10004)" d="m5328.6-2867.5v-12.01" stroke="#6d0000"/><path transform="scale(.099957 -.10004)" d="m5339.2-2867.5v-17.75" stroke="#6c0000"/><path transform="scale(.099957 -.10004)" d="m5349.9-2867.5v-17.55" stroke="#6a0000"/><path transform="scale(.099957 -.10004)" d="m5360.6-2867.5v-10.77" stroke="#680000"/><path transform="scale(.099957 -.10004)" d="m5371.2-2867.5v-15.85" stroke="#600"/><path transform="matrix(.099957 0 0 -.10004 -.014442 0)" d="m5381.8-2867.5v-9.26" stroke="#640000"/><path transform="matrix(.099957 0 0 -.10004 -1.2667 0)" d="m5392.5-2867.5v-9.78" stroke="#630000"/></g><g transform="matrix(1.3636 0 0 -1.3636 -202.01 970.47)" stroke-width=".91672"><g fill="#000000" font-family="Lato"><text transform="matrix(.80219 0 0 -.80438 640.78 492.09)" x="36.944557" font-size="9.7384px" stroke-width="1.2168" style="font-variant-caps:normal;font-variant-east-asian:normal;font-variant-ligatures:normal;font-variant-numeric:normal" xml:space="preserve"><tspan x="36.944557" y="0" fill="#000000" font-family="Lato" font-size="9.7384px" stroke-width="1.2168" text-align="center" text-anchor="middle" style="font-variant-caps:normal;font-variant-east-asian:normal;font-variant-ligatures:normal;font-variant-numeric:normal">WaveLength (nm)</tspan></text><g font-size="9.7335px" stroke-width="1.2162"><text transform="matrix(.803 0 0 -.80438 473.81 694.38)" x="5.3358564" style="font-variant-caps:normal;font-variant-east-asian:normal;font-variant-ligatures:normal;font-variant-numeric:normal" xml:space="preserve"><tspan x="5.3358564" y="0" fill="#000000" font-family="Lato" font-size="9.7335px" stroke-width="1.2162" text-align="end" text-anchor="end" style="font-variant-caps:normal;font-variant-east-asian:normal;font-variant-ligatures:normal;font-variant-numeric:normal">1</tspan></text><text transform="matrix(.803 0 0 -.80438 473.78 657.43)" x="5.3358564" style="font-variant-caps:normal;font-variant-east-asian:normal;font-variant-ligatures:normal;font-variant-numeric:normal" xml:space="preserve"><tspan x="5.3358564" y="0" fill="#000000" font-family="Lato" font-size="9.7335px" stroke-width="1.2162" text-align="end" text-anchor="end" style="font-variant-caps:normal;font-variant-east-asian:normal;font-variant-ligatures:normal;font-variant-numeric:normal">0.8</tspan></text><text transform="matrix(.803 0 0 -.80438 473.73 620.6)" x="5.3358564" style="font-variant-caps:normal;font-variant-east-asian:normal;font-variant-ligatures:normal;font-variant-numeric:normal" xml:space="preserve"><tspan x="5.3358564" y="0" fill="#000000" font-family="Lato" font-size="9.7335px" stroke-width="1.2162" text-align="end" text-anchor="end" style="font-variant-caps:normal;font-variant-east-asian:normal;font-variant-ligatures:normal;font-variant-numeric:normal">0.6</tspan></text><text transform="matrix(.803 0 0 -.80438 473.55 583.71)" x="5.3358564" style="font-variant-caps:normal;font-variant-east-asian:normal;font-variant-ligatures:normal;font-variant-numeric:normal" xml:space="preserve"><tspan x="5.3358564" y="0" fill="#000000" font-family="Lato" font-size="9.7335px" stroke-width="1.2162" text-align="end" text-anchor="end" style="font-variant-caps:normal;font-variant-east-asian:normal;font-variant-ligatures:normal;font-variant-numeric:normal">0.4</tspan></text><text transform="matrix(.803 0 0 -.80438 473.78 546.87)" x="5.3358564" style="font-variant-caps:normal;font-variant-east-asian:normal;font-variant-ligatures:normal;font-variant-numeric:normal" xml:space="preserve"><tspan x="5.3358564" y="0" fill="#000000" font-family="Lato" font-size="9.7335px" stroke-width="1.2162" text-align="end" text-anchor="end" style="font-variant-caps:normal;font-variant-east-asian:normal;font-variant-ligatures:normal;font-variant-numeric:normal">0.2</tspan></text><text transform="matrix(.803 0 0 -.80438 473.61 509.99)" x="5.3358564" style="font-variant-caps:normal;font-variant-east-asian:normal;font-variant-ligatures:normal;font-variant-numeric:normal" xml:space="preserve"><tspan x="5.3358564" y="0" fill="#000000" font-family="Lato" font-size="9.7335px" stroke-width="1.2162" text-align="end" text-anchor="end" style="font-variant-caps:normal;font-variant-east-asian:normal;font-variant-ligatures:normal;font-variant-numeric:normal">0</tspan></text><text transform="matrix(.803 0 0 -.80438 486.57 502.62)" x="15.907482" style="font-variant-caps:normal;font-variant-east-asian:normal;font-variant-ligatures:normal;font-variant-numeric:normal" xml:space="preserve"><tspan x="15.907481" y="0" fill="#000000" font-family="Lato" font-size="9.7335px" stroke-width="1.2162" text-align="center" text-anchor="middle" style="font-variant-caps:normal;font-variant-east-asian:normal;font-variant-ligatures:normal;font-variant-numeric:normal">400</tspan></text><text transform="matrix(.803 0 0 -.80438 572.11 502.62)" x="15.907482" style="font-variant-caps:normal;font-variant-east-asian:normal;font-variant-ligatures:normal;font-variant-numeric:normal" xml:space="preserve"><tspan x="15.907481" y="0" fill="#000000" font-family="Lato" font-size="9.7335px" stroke-width="1.2162" text-align="center" text-anchor="middle" style="font-variant-caps:normal;font-variant-east-asian:normal;font-variant-ligatures:normal;font-variant-numeric:normal">500</tspan></text><text transform="matrix(.803 0 0 -.80438 657.51 502.62)" x="15.907482" style="font-variant-caps:normal;font-variant-east-asian:normal;font-variant-ligatures:normal;font-variant-numeric:normal" xml:space="preserve"><tspan x="15.907481" y="0" fill="#000000" font-family="Lato" font-size="9.7335px" stroke-width="1.2162" text-align="center" text-anchor="middle" style="font-variant-caps:normal;font-variant-east-asian:normal;font-variant-ligatures:normal;font-variant-numeric:normal">600</tspan></text><text transform="matrix(.803 0 0 -.80438 743.05 502.62)" x="15.907482" style="font-variant-caps:normal;font-variant-east-asian:normal;font-variant-ligatures:normal;font-variant-numeric:normal" xml:space="preserve"><tspan x="15.907481" y="0" fill="#000000" font-family="Lato" font-size="9.7335px" stroke-width="1.2162" text-align="center" text-anchor="middle" style="font-variant-caps:normal;font-variant-east-asian:normal;font-variant-ligatures:normal;font-variant-numeric:normal">700</tspan></text><text transform="matrix(.803 0 0 -.80438 828.56 502.62)" x="15.907482" style="font-variant-caps:normal;font-variant-east-asian:normal;font-variant-ligatures:normal;font-variant-numeric:normal" xml:space="preserve"><tspan x="15.907481" y="0" fill="#000000" font-family="Lato" font-size="9.7335px" stroke-width="1.2162" text-align="center" text-anchor="middle" style="font-variant-caps:normal;font-variant-east-asian:normal;font-variant-ligatures:normal;font-variant-numeric:normal">800</tspan></text></g><text transform="matrix(0 .80438 .803 0 462.03 573.5)" font-size="9.7335px" stroke-width="1.2162" style="font-variant-caps:normal;font-variant-east-asian:normal;font-variant-ligatures:normal;font-variant-numeric:normal" xml:space="preserve"><tspan x="0" y="0" fill="#000000" font-family="Lato" font-size="9.7335px" stroke-width="1.2162" style="font-variant-caps:normal;font-variant-east-asian:normal;font-variant-ligatures:normal;font-variant-numeric:normal">Relative Spectrum</tspan></text></g><g fill="none" stroke="#858585" stroke-width=".27518"><path transform="matrix(.79917 0 0 -.79985 -7.5232 459.73)" d="m617.27-296.75h-4.496v230.4h449.56v-4.4972"/><path transform="matrix(.79917 0 0 -.79985 -7.5232 459.73)" d="m612.77-250.67h4.496"/><path transform="matrix(.79917 0 0 -.79985 -7.5232 459.73)" d="m612.77-204.59h4.496"/><path transform="matrix(.79917 0 0 -.79985 -7.5232 459.73)" d="m612.77-158.5h4.496"/><path transform="matrix(.79917 0 0 -.79985 -7.5232 459.73)" d="m612.77-112.42h4.496"/><path transform="matrix(.79917 0 0 -.79985 -7.5232 459.73)" d="m634.18-66.344v-4.4972"/><path transform="matrix(.79917 0 0 -.79985 -7.5232 459.73)" d="m741.22-66.344 2e-5 -4.4972"/><path transform="matrix(.79917 0 0 -.79985 -7.5232 459.73)" d="m848.25-66.344 2e-5 -4.4972"/><path transform="matrix(.79917 0 0 -.79985 -7.5232 459.73)" d="m955.29-66.344v-4.4972"/></g></g><g fill="#000000" font-family="Lato"><text transform="matrix(1.8992 0 0 1.9003 29.504 329.1)" font-size="8.4222px" font-weight="bold" stroke-linecap="round" stroke-linejoin="round" stroke-miterlimit="10" stroke-width=".13156" style="font-variant-caps:normal;font-variant-east-asian:normal;font-variant-ligatures:normal;font-variant-numeric:normal;line-height:0%"><tspan x="0" y="0" font-family="Lato" font-size="8.4222px" font-weight="bold" stroke-width=".13156" style="font-variant-caps:normal;font-variant-east-asian:normal;font-variant-ligatures:normal;font-variant-numeric:normal;line-height:1.25">CIE Colorimetric Parameters</tspan></text><g><text transform="matrix(1.8992 0 0 1.9003 29.28 351.63)" font-size="8.4222px" stroke-width=".65778" style="font-variant-caps:normal;font-variant-east-asian:normal;font-variant-ligatures:normal;font-variant-numeric:normal;line-height:0%"><tspan x="0" y="0" dy="0 0 0 0 0 0 0 0 0 0 0 0 0 0 0 0 0 0 0 0 0 0 0 0 0 0 0 0 0 0 0" font-family="Lato" font-size="8.4222px" stroke-width=".65778" style="font-variant-caps:normal;font-variant-east-asian:normal;font-variant-ligatures:normal;font-variant-numeric:normal;line-height:1.25">Chromaticity coordinates: x=0.4578 y=0.4101 u'=0.2614 v'=0.5268</tspan></text><text transform="matrix(1.8998 0 0 1.9009 -7.2325 1528)" x="19.2194" y="-605.67859" font-size="8.4196px" stroke-width=".65758" style="font-variant-caps:normal;font-variant-east-asian:normal;font-variant-ligatures:normal;font-variant-numeric:normal;line-height:0%"><tspan x="19.2194" y="-605.67859" dy="0 0 0 0 0 0 0 0" font-family="Lato" font-size="8.4196px" stroke-width=".65758" style="font-variant-caps:normal;font-variant-east-asian:normal;font-variant-ligatures:normal;font-variant-numeric:normal;line-height:1.25">CCT: Tc=2725K</tspan></text><text transform="matrix(1.8992 0 0 1.9003 416.08 376.72)" font-size="8.4222px" stroke-width=".65778" style="font-variant-caps:normal;font-variant-east-asian:normal;font-variant-ligatures:normal;font-variant-numeric:normal;line-height:0%"><tspan x="0" y="0" font-family="Lato" font-size="8.4222px" stroke-width=".65778" style="font-variant-caps:normal;font-variant-east-asian:normal;font-variant-ligatures:normal;font-variant-numeric:normal;line-height:1.25">Color Ratio: R=0.257 G=0.713 B=0.030 </tspan></text><text transform="matrix(1.8992 0 0 1.9003 238.07 376.72)" font-size="8.4222px" stroke-width=".65778" style="font-variant-caps:normal;font-variant-east-asian:normal;font-variant-ligatures:normal;font-variant-numeric:normal;line-height:0%"><tspan x="0" y="0" font-family="Lato" font-size="8.4222px" stroke-width=".65778" style="font-variant-caps:normal;font-variant-east-asian:normal;font-variant-ligatures:normal;font-variant-numeric:normal;line-height:1.25">CRI: Ra=82</tspan></text></g></g><path transform="matrix(.22207 0 0 -.22207 -8.5418 850.65)" d="m1790 2527.1h2752z" fill="#fff"/><path transform="matrix(.88755 0 0 .88755 .97603 -9.9819)" d="m138.72 260.13 0.884 0.349 0.896 0.34 0.907 0.331 0.921 0.321 0.932 0.312 0.944 0.302 0.956 0.293 0.967 0.284 0.98 0.274 0.991 0.264 1.003 0.255 1.014 0.245 1.025 0.235 1.037 0.226 1.048 0.216 1.057 0.206 1.07 0.196 1.081 0.188 1.091 0.177 1.1 0.167 1.112 0.157 1.122 0.147 1.133 0.138 1.142 0.128 1.152 0.119 1.163 0.107 1.171 0.098 1.183 0.09 1.191 0.077 1.2 0.069 1.21 0.059 1.219 0.049 1.228 0.038 1.237 0.029 1.246 0.019 1.254 8e-3 1.263-1e-3 1.272-0.011 1.28-0.02 1.287-0.032 1.296-0.04 1.304-0.051 1.311-0.061 1.32-0.071 1.326-0.08 1.335-0.091 1.34-0.1 1.349-0.11 1.355-0.121 1.363-0.129 1.369-0.14 1.375-0.15 1.382-0.159 1.388-0.17 1.394-0.179 1.401-0.189 1.406-0.198 1.413-0.209 1.416-0.218 1.424-0.228 1.428-0.237 1.433-0.248 1.438-0.256 1.444-0.266 1.448-0.277 1.453-0.285 1.457-0.294 1.462-0.305 1.464-0.314 1.471-0.323 1.473-0.333 1.477-0.342 1.481-0.352 1.483-0.361 1.488-0.369 1.491-0.379 1.492-0.389 1.497-0.398 1.498-0.406 1.502-0.416 1.504-0.424 1.506-0.434 1.508-0.442 1.51-0.452 1.512-0.46 1.513-0.469 1.515-0.478 1.515-0.487 1.519-0.495 1.518-0.503 1.518-0.513 1.52-0.521 1.521-0.529 1.521-0.537 1.52-0.547 1.522-0.554 1.52-0.563 1.521-0.57 1.52-0.579 1.52-0.587 1.52-0.595 1.518-0.602 1.518-0.611 1.516-0.619 1.515-0.626 1.514-0.634 1.512-0.642 1.51-0.649 1.509-0.657 1.506-0.663 1.505-0.672 1.502-0.679 1.499-0.686 1.498-0.693 1.493-0.7 1.492-0.707 1.487-0.715 1.485-0.721 1.481-0.728 1.478-0.735 1.475-0.741 1.47-0.748 1.467-0.755 1.462-0.761 1.458-0.767 1.454-0.774 1.448-0.78 1.445-0.786 1.44-0.791 1.435-0.798 1.429-0.805 1.425-0.809 1.418-0.815 1.413-0.822 1.408-0.827 1.401-0.832 1.395-0.837 1.39-0.843 1.384-0.849 1.376-0.853 1.371-0.858 1.364-0.863 1.357-0.868 1.351-0.874 1.341-0.878 1.337-0.882 1.328-0.886 1.321-0.892 1.313-0.896 1.306-0.9 1.297-0.904 1.29-0.909 1.282-0.912 1.273-0.917 1.265-0.92 1.256-0.923 1.248-0.928 1.238-0.93 1.231-0.936 1.221-0.937 1.212-0.941 1.203-0.944 1.193-0.948 1.184-0.95 1.174-0.953 1.165-0.956 1.154-0.959 1.145-0.961 1.135-0.964 1.124-0.967 1.115-0.968 1.103-0.971 1.093-0.973 1.083-0.975 1.072-0.977 1.061-0.978 1.049-0.98 1.04-0.983 1.028-0.983 1.016-0.985 1.006-0.987 0.993-0.987 0.983-0.988 0.969-0.991 0.96-0.99 0.947-0.991 0.935-0.993 0.923-0.993 0.91-0.993 0.899-0.994 0.885-0.995 0.875-0.994 0.861-0.995 0.849-0.994 0.835-0.995 0.824-0.994 0.811-0.995 0.797-0.994 0.784-0.993 0.772-0.993 0.758-0.992 0.746-0.992 0.731-0.99 0.719-0.99 0.704-0.988 0.692-0.988 0.679-0.986 0.664-0.985 0.65-0.983 0.637-0.982 0.623-0.981 0.609-0.978 0.594-0.978 0.581-0.974 0.567-0.973 0.554-0.97 0.539-0.969 0.524-0.966 0.509-0.964 0.497-0.961 0.481-0.958 0.466-0.956 0.452-0.953 0.439-0.95 0.423-0.948 0.409-0.944 0.393-0.941 0.38-0.938 0.364-0.934 0.349-0.931 0.336-0.927 0.319-0.924 0.305-0.919 0.291-0.916 0.274-0.912 0.261-0.909 0.246-0.904 0.229-0.9 0.215-0.895 0.2-0.891 0.186-0.887 0.169-0.882 0.155-0.877 0.14-0.874 0.124-0.867 0.11-0.864 0.094-0.858 0.079-0.852 0.064-0.848 0.048-0.843 0.033-0.838 0.018-0.831 4e-3 -0.827-0.013-0.82-0.027-0.815-0.043-0.81-0.058-0.803-0.072-0.798-0.09-0.792-0.103-0.786-0.118-0.779-0.134-0.773-0.149-0.767-0.164-0.761-0.18-0.754-0.193-0.748-0.209-0.741-0.225-0.7338-0.239-0.7282-0.255-0.7202-0.269-0.7136-0.284-0.7077-0.3-0.6996-0.314-0.6929-0.33-0.6857-0.344-0.6783-0.358-0.671-0.373-0.6636-0.389-0.6564-0.402-0.649-0.418-0.641-0.433-0.6337-0.446-0.6257-0.461-0.6178-0.476-0.6104-0.491-0.6024-0.504-0.5951-0.519-0.5858-0.533-0.5785-0.547-0.5705-0.561-0.5618-0.576-0.5538-0.589-0.5452-0.604-0.5379-0.618-0.5285-0.631-0.5199-0.646-0.5126-0.658-0.5032-0.673-0.4946-0.686-0.4859-0.7-0.4773-0.713-0.4686-0.728-0.46-0.739-0.4507-0.753-0.4419-0.767-0.4334-0.779-0.424-0.793-0.4154-0.805-0.4061-0.818-0.3967-0.831-0.3881-0.844-0.3781-0.857-0.3701-0.869-0.3594-0.881-0.3515-0.894-0.3415-0.906-0.3322-0.918-0.3228-0.931-0.3135-0.942-0.3036-0.954-0.2942-0.966-0.2856-0.978-0.2749-0.99-0.2663-0.999-0.2562-1.013-0.2464-1.024-0.2369-1.034-0.2277-1.046-0.217-1.056-0.2077-1.069-0.1983-1.078-0.1884-1.089-0.1784-1.1-0.1691-1.11-0.1591-1.12-0.1484-1.131-0.1398-1.14-0.1298-1.152-0.1192-1.16-0.1098-1.171-0.0999-1.18-0.0898-1.19-0.0799-1.198-0.0699-1.209-0.0606-1.218-0.0499-1.226-0.0406-1.235-0.0299-1.246-0.0207-1.252-0.0107h-1.262l-1.271 0.0094-1.278 0.0193-1.286 0.0293-1.294 0.0392-1.304 0.0493-1.309 0.0586-1.319 0.0692-1.325 0.0792-1.333 0.0892-1.34 0.0985-1.348 0.1085-1.354 0.1185-1.361 0.1285-1.368 0.1385-1.374 0.1484-1.381 0.1577-1.386 0.1678-1.394 0.1777-1.399 0.1871-1.406 0.197-1.412 0.207-1.415 0.2164-1.423 0.2263-1.428 0.2363-1.432 0.245-1.437 0.2556-1.443 0.265-1.448 0.2742-1.451 0.2836-1.457 0.2935-1.46 0.3036-1.466 0.3122-1.468 0.3215-1.473 0.3315-1.477 0.3408-1.48 0.3495-1.483 0.3594-1.487 0.3688-1.49 0.3775-1.493 0.3867-1.496 0.3961-1.499 0.4047-1.501 0.4147-1.502 0.4234-1.506 0.432-1.508 0.4413-1.51 0.4494-1.511 0.4592-1.513 0.468-1.515 0.476-1.516 0.4852-1.516 0.4939-1.519 0.5026-1.518 0.5106-1.52 0.5199-1.521 0.5279-1.52 0.5358-1.522 0.5445-1.521 0.5539-1.521 0.5605-1.521 0.5698-1.52 0.5777-1.52 0.5852-1.519 0.5937-1.519 0.6018-1.517 0.6091-1.517 0.6177-1.516 0.6251-1.514 0.6324-1.513 0.6403-1.51 0.6484-1.508 0.655-1.507 0.663-1.504 0.6703-1.503 0.6777-1.5 0.685-1.497 0.6922-1.494 0.699-1.493 0.7063-1.488 0.7129-1.485 0.7202-1.482 0.7269-1.478 0.7337-1.476 0.74-1.471 0.748-1.466 0.753-1.464 0.76-1.458 0.767-1.454 0.772-1.451 0.779-1.445 0.784-1.44 0.792-1.435 0.797-1.43 0.802-1.426 0.809-1.42 0.815-1.414 0.82-1.407 0.826-1.404 0.832-1.397 0.836-1.39 0.842-1.384 0.848-1.378 0.852-1.372 0.857-1.364 0.863-1.358 0.867-1.352 0.873-1.344 0.877-1.337 0.882-1.33 0.886-1.321 0.89-1.315 0.896-1.307 0.899-1.298 0.903-1.291 0.908-1.284 0.912-1.274 0.915-1.266 0.92-1.258 0.924-1.25 0.926-1.24 0.931-1.231 0.934-1.222 0.937-1.214 0.941-1.205 0.943-1.194 0.947-1.185 0.95-1.176 0.953-1.167 0.956-1.156 0.958-1.146 0.961-1.136 0.964-1.126 0.965-1.116 0.968-1.106 0.971-1.094 0.972-1.084 0.975-1.074 0.976-1.063 0.979-1.052 0.98-1.04 0.982-1.03 0.984-1.018 0.984-1.007 0.986-0.996 0.988-0.984 0.988-0.972 0.989-0.961 0.991-0.949 0.991-0.936 0.993-0.926 0.992-0.912 0.994-0.901 0.994-0.888 0.994-0.875 0.994-0.864 0.995-0.85 0.995-0.839 0.994-0.825 0.995-0.813 0.994-0.799 0.994-0.787 0.993-0.773 0.993-0.761 0.993-0.746 0.991-0.735 0.991-0.72 0.99-0.707 0.989-0.694 0.988-0.68 0.986-0.667 0.985-0.653 0.983-0.638 0.983-0.626 0.98-0.611 0.98-0.597 0.976-0.584 0.975-0.569 0.974-0.555 0.971-0.541 0.968-0.526 0.967-0.513 0.964-0.498 0.962-0.483 0.958-0.469 0.957-0.455 0.954-0.44 0.95-0.426 0.947-0.41 0.946-0.396 0.941-0.383 0.938-0.366 0.934-0.352 0.932-0.337 0.928-0.322 0.924-0.308 0.921-0.292 0.917-0.278 0.912-0.263 0.909-0.247 0.905-0.233 0.9-0.217 0.897-0.203 0.891-0.187 0.888-0.172 0.883-0.158 0.878-0.142 0.874-0.127 0.868-0.111 0.864-0.097 0.859-0.081 0.854-0.067 0.848-0.051 0.844-0.036 0.838-0.02 0.833-5e-3 0.827 9e-3 0.821 0.025 0.816 0.041 0.811 0.055 0.804 0.071 0.799 0.086 0.793 0.101 0.787 0.116 0.78 0.131 0.774 0.146 0.768 0.162 0.762 0.177 0.755 0.193 0.749 0.207 0.742 0.221 0.735 0.238 0.729 0.251 0.722 0.267 0.715 0.282 0.708 0.297 0.701 0.312 0.694 0.327 0.687 0.342 0.679 0.356 0.673 0.371 0.664 0.386 0.658 0.4 0.65 0.416 0.642 0.429 0.635 0.445 0.627 0.459 0.619 0.473 0.611 0.488 0.604 0.502 0.596 0.516 0.588 0.531 0.58 0.545 0.571 0.56 0.564 0.573 0.555 0.587 0.547 0.602 0.538 0.615 0.53 0.63 0.521 0.642 0.514 0.657 0.505 0.671 0.496 0.684 0.487 0.698 0.479 0.711 0.47 0.724 0.461 0.738 0.453 0.751 0.443 0.764 0.435 0.777 0.425 0.791 0.417 0.804 0.407 0.817 0.398 0.828 0.39 0.842 0.38 0.855 0.37 0.867 0.363" fill="#c2cccc"/><g fill="#000000" font-family="Lato" font-size="12.018px" stroke-width="1.5022"><text transform="matrix(.88755 0 0 .88755 44.34 282.9)" style="font-variant-caps:normal;font-variant-east-asian:normal;font-variant-ligatures:normal;font-variant-numeric:normal" xml:space="preserve">0.45</text><text transform="matrix(.88755 0 0 .88755 87.235 282.9)" style="font-variant-caps:normal;font-variant-east-asian:normal;font-variant-ligatures:normal;font-variant-numeric:normal" xml:space="preserve">0.452</text><text transform="matrix(.88755 0 0 .88755 133.24 282.9)" style="font-variant-caps:normal;font-variant-east-asian:normal;font-variant-ligatures:normal;font-variant-numeric:normal" xml:space="preserve">0.454</text><text transform="matrix(.88755 0 0 .88755 179.24 282.9)" style="font-variant-caps:normal;font-variant-east-asian:normal;font-variant-ligatures:normal;font-variant-numeric:normal" xml:space="preserve">0.456</text><text transform="matrix(.88755 0 0 .88755 225.24 282.9)" style="font-variant-caps:normal;font-variant-east-asian:normal;font-variant-ligatures:normal;font-variant-numeric:normal" xml:space="preserve">0.458</text><text transform="matrix(.88755 0 0 .88755 274.35 282.9)" style="font-variant-caps:normal;font-variant-east-asian:normal;font-variant-ligatures:normal;font-variant-numeric:normal" xml:space="preserve">0.46</text><text transform="matrix(.88755 0 0 .88755 317.24 282.9)" style="font-variant-caps:normal;font-variant-east-asian:normal;font-variant-ligatures:normal;font-variant-numeric:normal" xml:space="preserve">0.462</text><text transform="matrix(.88755 0 0 .88755 363.25 282.9)" style="font-variant-caps:normal;font-variant-east-asian:normal;font-variant-ligatures:normal;font-variant-numeric:normal" xml:space="preserve">0.464</text><text transform="matrix(.88755 0 0 .88755 202.32 297.1)" style="font-variant-caps:normal;font-variant-east-asian:normal;font-variant-ligatures:normal;font-variant-numeric:normal" xml:space="preserve">CIE-X</text><text transform="matrix(0 -.88755 .88755 0 17.716 156.78)" style="font-variant-caps:normal;font-variant-east-asian:normal;font-variant-ligatures:normal;font-variant-numeric:normal" xml:space="preserve">CIE-Y</text><text transform="matrix(.88755 0 0 .88755 34.58 270.48)" style="font-variant-caps:normal;font-variant-east-asian:normal;font-variant-ligatures:normal;font-variant-numeric:normal" xml:space="preserve">0.4</text><text transform="matrix(.88755 0 0 .88755 22.154 207.29)" style="font-variant-caps:normal;font-variant-east-asian:normal;font-variant-ligatures:normal;font-variant-numeric:normal" xml:space="preserve">0.405</text><text transform="matrix(.88755 0 0 .88755 28.367 144.1)" style="font-variant-caps:normal;font-variant-east-asian:normal;font-variant-ligatures:normal;font-variant-numeric:normal" xml:space="preserve">0.41</text><text transform="matrix(.88755 0 0 .88755 22.154 80.907)" style="font-variant-caps:normal;font-variant-east-asian:normal;font-variant-ligatures:normal;font-variant-numeric:normal" xml:space="preserve">0.415</text><text transform="matrix(.88755 0 0 .88755 28.367 17.716)" style="font-variant-caps:normal;font-variant-east-asian:normal;font-variant-ligatures:normal;font-variant-numeric:normal" xml:space="preserve">0.42</text></g><g fill="none" stroke="#858585" stroke-dasharray="10.8163, 0" stroke-width=".33801"><g><polyline transform="matrix(.88755 0 0 .88755 .97603 -9.9819)" points="112.69 311 112.69 26.207"/><polyline transform="matrix(.88755 0 0 .88755 .97603 -9.9819)" points="164.52 311 164.52 26.207"/><polyline transform="matrix(.88755 0 0 .88755 .97603 -9.9819)" points="216.35 311 216.35 26.207"/><polyline transform="matrix(.88755 0 0 .88755 .97603 -9.9819)" points="268.18 311 268.18 26.207"/><polyline transform="matrix(.88755 0 0 .88755 .97603 -9.9819)" points="320.01 311 320.01 26.207"/><polyline transform="matrix(.88755 0 0 .88755 .97603 -9.9819)" points="371.84 311 371.84 26.207"/><polyline transform="matrix(.88755 0 0 .88755 .97603 -9.9819)" points="423.67 311 423.67 26.207"/><polyline transform="matrix(.88755 0 0 .88755 .97603 -9.9819)" points="60.859 239.8 423.67 239.8"/><polyline transform="matrix(.88755 0 0 .88755 .97603 -9.9819)" points="60.859 168.6 423.67 168.6"/><polyline transform="matrix(.88755 0 0 .88755 .97603 -9.9819)" points="60.859 97.404 423.67 97.404"/><polyline transform="matrix(.88755 0 0 .88755 .97603 -9.9819)" points="60.859 26.207 423.67 26.207"/></g><polyline transform="matrix(.88755 0 0 .88755 .97603 -9.9819)" points="60.859 311 423.67 311" stroke-linecap="square"/><polyline transform="matrix(.88755 0 0 .88755 .97603 -9.9819)" points="60.859 311 60.859 26.207" stroke-linecap="square"/></g><polygon transform="matrix(2.4107 0 0 2.4107 -399.59 -264.61)" points="261.99 167.18 262.49 166.31 263.49 166.31 263.99 167.18 263.49 168.04 262.49 168.04" fill="#f0f" shape-rendering="crispEdges" stroke-width=".5531"/><text transform="matrix(.88755 0 0 .88755 235.6 136.31)" fill="#000000" font-family="Lato" font-size="12.018px" stroke-width="1.5022" style="font-variant-caps:normal;font-variant-east-asian:normal;font-variant-ligatures:normal;font-variant-numeric:normal" xml:space="preserve">CCT=2725 K</text></svg>
