<svg width="960" height="400" version="1.1" viewBox="0 0 960 400" xml:space="preserve" xmlns="http://www.w3.org/2000/svg"><g><g fill="none" stroke-linejoin="round" stroke-miterlimit="2"><g stroke-width="2.9759"><path transform="matrix(1.0927 0 0 -1.0938 355.27 585.18)" d="m93.05 286.87v0.9304" stroke="#610061"/><path transform="matrix(1.0927 0 0 -1.0938 355.27 585.18)" d="m94.115 286.87v2.5011" stroke="#640065"/><path transform="matrix(1.0927 0 0 -1.0938 355.27 585.18)" d="m95.178 286.87v2.4921" stroke="#67006a"/><path transform="matrix(1.0927 0 0 -1.0938 355.27 585.18)" d="m96.243 286.87v3.4755" stroke="#6a006e"/><path transform="matrix(1.0927 0 0 -1.0938 355.27 585.18)" d="m97.307 286.87v2.287" stroke="#6c0073"/><path transform="matrix(1.0927 0 0 -1.0938 355.27 585.18)" d="m98.372 286.87v1.8278" stroke="#6f0077"/><path transform="matrix(1.0927 0 0 -1.0938 355.27 585.18)" d="m99.436 286.87v0.55624" stroke="#71007b"/><path transform="matrix(1.0927 0 0 -1.0938 355.27 585.18)" d="m100.5 286.87v0.49221" stroke="#73007f"/><path transform="matrix(1.0927 0 0 -1.0938 355.27 585.18)" d="m101.57 286.87v0.99443" stroke="#750084"/><path transform="matrix(1.0927 0 0 -1.0938 355.27 585.18)" d="m102.63 286.87v1.1865" stroke="#708"/><path transform="matrix(1.0927 0 0 -1.0938 355.27 585.18)" d="m103.69 286.87v0.24411" stroke="#79008c"/><path transform="matrix(1.0927 0 0 -1.0938 355.27 585.18)" d="m104.76 286.87v0.71631" stroke="#7b0090"/><path transform="matrix(1.0927 0 0 -1.0938 355.27 585.18)" d="m105.82 286.87v0.17108" stroke="#7c0094"/><path transform="matrix(1.0927 0 0 -1.0938 355.27 585.18)" d="m106.89 286.87v0.9304" stroke="#7d0098"/><path transform="matrix(1.0927 0 0 -1.0938 355.27 585.18)" d="m107.95 286.87v0.2241" stroke="#7e009c"/><path transform="matrix(1.0927 0 0 -1.0938 355.27 585.18)" d="m109.02 286.87v0.28813" stroke="#7f00a0"/><path transform="matrix(1.0927 0 0 -1.0938 355.27 585.18)" d="m110.08 286.87v0.6943" stroke="#8000a4"/><path transform="matrix(1.0927 0 0 -1.0938 355.27 585.18)" d="m111.14 286.87v0.61927" stroke="#8100a8"/><path transform="matrix(1.0927 0 0 -1.0938 355.27 585.18)" d="m112.21 286.87v0.9304" stroke="#8100ac"/><path transform="matrix(1.0927 0 0 -1.0938 355.27 585.18)" d="m113.27 286.87v0.18208" stroke="#8200b0"/><path transform="matrix(1.0927 0 0 -1.0938 355.27 585.18)" d="m114.34 286.87v0.57725" stroke="#8200b4"/><path transform="matrix(1.0927 0 0 -1.0938 355.27 585.18)" d="m115.4 286.87v0.56625" stroke="#8200b8"/><path transform="matrix(1.0927 0 0 -1.0938 355.27 585.18)" d="m116.47 286.87v0.41618" stroke="#8200bc"/><path transform="matrix(1.0927 0 0 -1.0938 355.27 585.18)" d="m117.53 286.87v0.38517" stroke="#8200c0"/><path transform="matrix(1.0927 0 0 -1.0938 355.27 585.18)" d="m118.59 286.87v0.74832" stroke="#8200c4"/><path transform="matrix(1.0927 0 0 -1.0938 355.27 585.18)" d="m119.66 286.87v0.2351" stroke="#8100c7"/><path transform="matrix(1.0927 0 0 -1.0938 355.27 585.18)" d="m120.72 286.87v0.43819" stroke="#8100cb"/><path transform="matrix(1.0927 0 0 -1.0938 355.27 585.18)" d="m121.79 286.87v0.075" stroke="#8000cf"/><path transform="matrix(1.0927 0 0 -1.0938 355.27 585.18)" d="m122.85 286.87v0.11605" stroke="#7f00d3"/><path transform="matrix(1.0927 0 0 -1.0938 355.27 585.18)" d="m123.92 286.87v0.50222" stroke="#7e00d6"/><path transform="matrix(1.0927 0 0 -1.0938 355.27 585.18)" d="m124.98 286.87v0.39517" stroke="#7d00da"/><path transform="matrix(1.0927 0 0 -1.0938 355.27 585.18)" d="m126.04 286.87v0.6833" stroke="#7c00de"/><path transform="matrix(1.0927 0 0 -1.0938 355.27 585.18)" d="m127.11 286.87v0.51322" stroke="#7a00e2"/><path transform="matrix(1.0927 0 0 -1.0938 355.27 585.18)" d="m128.17 286.87v0.7053" stroke="#7900e5"/><path transform="matrix(1.0927 0 0 -1.0938 355.27 585.18)" d="m129.24 286.87v0.18208" stroke="#7700e9"/><path transform="matrix(1.0927 0 0 -1.0938 355.27 585.18)" d="m130.3 286.87v0.90839" stroke="#7500ec"/><path transform="matrix(1.0927 0 0 -1.0938 355.27 585.18)" d="m131.37 286.87v0.90839" stroke="#7300f0"/><path transform="matrix(1.0927 0 0 -1.0938 355.27 585.18)" d="m132.43 286.87v0.99443" stroke="#7100f4"/><path transform="matrix(1.0927 0 0 -1.0938 355.27 585.18)" d="m133.5 286.87v1.6887" stroke="#6f00f7"/><path transform="matrix(1.0927 0 0 -1.0938 355.27 585.18)" d="m134.56 286.87v2.405" stroke="#6c00fb"/><path transform="matrix(1.0927 0 0 -1.0938 355.27 585.18)" d="m135.62 286.87v2.1599" stroke="#6900ff"/><path transform="matrix(1.0927 0 0 -1.0938 355.27 585.18)" d="m136.69 286.87v2.245" stroke="#6500ff"/><path transform="matrix(1.0927 0 0 -1.0938 355.27 585.18)" d="m137.75 286.87v3.0803" stroke="#6100ff"/><path transform="matrix(1.0927 0 0 -1.0938 355.27 585.18)" d="m138.82 286.87v3.8817" stroke="#5c00ff"/><path transform="matrix(1.0927 0 0 -1.0938 355.27 585.18)" d="m139.88 286.87v3.9567" stroke="#5800ff"/><path transform="matrix(1.0927 0 0 -1.0938 355.27 585.18)" d="m140.95 286.87v4.4699" stroke="#5400ff"/><path transform="matrix(1.0927 0 0 -1.0938 355.27 585.18)" d="m142.01 286.87v5.1652" stroke="#4f00ff"/><path transform="matrix(1.0927 0 0 -1.0938 355.27 585.18)" d="m143.08 286.87v6.1706" stroke="#4b00ff"/><path transform="matrix(1.0927 0 0 -1.0938 355.27 585.18)" d="m144.14 286.87v7.026" stroke="#4600ff"/><path transform="matrix(1.0927 0 0 -1.0938 355.27 585.18)" d="m145.2 286.87v8.0745" stroke="#4100ff"/><path transform="matrix(1.0927 0 0 -1.0938 355.27 585.18)" d="m146.27 286.87v9.4441" stroke="#3c00ff"/><path transform="matrix(1.0927 0 0 -1.0938 355.27 585.18)" d="m147.33 286.87v10.824" stroke="#3700ff"/><path transform="matrix(1.0927 0 0 -1.0938 355.27 585.18)" d="m148.4 286.87v11.904" stroke="#3200ff"/><path transform="matrix(1.0927 0 0 -1.0938 355.27 585.18)" d="m149.46 286.87v14.01" stroke="#2d00ff"/><path transform="matrix(1.0927 0 0 -1.0938 355.27 585.18)" d="m150.53 286.87v16" stroke="#2800ff"/><path transform="matrix(1.0927 0 0 -1.0938 355.27 585.18)" d="m151.59 286.87v18.182" stroke="#20f"/><path transform="matrix(1.0927 0 0 -1.0938 355.27 585.18)" d="m152.65 286.87v20.354" stroke="#1d00ff"/><path transform="matrix(1.0927 0 0 -1.0938 355.27 585.18)" d="m153.72 286.87v23.305" stroke="#1700ff"/><path transform="matrix(1.0927 0 0 -1.0938 355.27 585.18)" d="m154.78 286.87v26.632" stroke="#1000ff"/><path transform="matrix(1.0927 0 0 -1.0938 355.27 585.18)" d="m155.85 286.87v30.633" stroke="#0900ff"/><path transform="matrix(1.0927 0 0 -1.0938 355.27 585.18)" d="m156.91 286.87v35.253" stroke="#00f"/><path transform="matrix(1.0927 0 0 -1.0938 355.27 585.18)" d="m157.98 286.87v40.644" stroke="#000bff"/><path transform="matrix(1.0927 0 0 -1.0938 355.27 585.18)" d="m159.04 286.87v47.468" stroke="#0013ff"/><path transform="matrix(1.0927 0 0 -1.0938 355.27 585.18)" d="m160.1 286.87v55.832" stroke="#001aff"/><path transform="matrix(1.0927 0 0 -1.0938 355.27 585.18)" d="m161.17 286.87v65.128" stroke="#0021ff"/><path transform="matrix(1.0927 0 0 -1.0938 355.27 585.18)" d="m162.23 286.87v75.824" stroke="#0028ff"/><path transform="matrix(1.0927 0 0 -1.0938 355.27 585.18)" d="m163.3 286.87v86.958" stroke="#002eff"/><path transform="matrix(1.0927 0 0 -1.0938 355.27 585.18)" d="m164.36 286.87v99.162" stroke="#0034ff"/><path transform="matrix(1.0927 0 0 -1.0938 355.27 585.18)" d="m165.43 286.87v110.99" stroke="#003aff"/><path transform="matrix(1.0927 0 0 -1.0938 355.27 585.18)" d="m166.49 286.87v121.13" stroke="#0040ff"/><path transform="matrix(1.0927 0 0 -1.0938 355.27 585.18)" d="m167.55 286.87v128.84" stroke="#0046ff"/><path transform="matrix(1.0927 0 0 -1.0938 355.27 585.18)" d="m168.62 286.87v133.98" stroke="#004bff"/><path transform="matrix(1.0927 0 0 -1.0938 355.27 585.18)" d="m169.68 286.87v136.05" stroke="#0051ff"/><path transform="matrix(1.0927 0 0 -1.0938 355.27 585.18)" d="m170.75 286.87v134.91" stroke="#0056ff"/><path transform="matrix(1.0927 0 0 -1.0938 355.27 585.18)" d="m171.81 286.87v130.44" stroke="#005cff"/><path transform="matrix(1.0927 0 0 -1.0938 355.27 585.18)" d="m172.88 286.87v123.35" stroke="#0061ff"/><path transform="matrix(1.0927 0 0 -1.0938 355.27 585.18)" d="m173.94 286.87v116.28" stroke="#06f"/><path transform="matrix(1.0927 0 0 -1.0938 355.27 585.18)" d="m175.01 286.87v108.07" stroke="#006bff"/><path transform="matrix(1.0927 0 0 -1.0938 355.27 585.18)" d="m176.07 286.87v100.29" stroke="#0070ff"/><path transform="matrix(1.0927 0 0 -1.0938 355.27 585.18)" d="m177.14 286.87v93.91" stroke="#0075ff"/><path transform="matrix(1.0927 0 0 -1.0938 355.27 585.18)" d="m178.2 286.87v88.337" stroke="#007aff"/><path transform="matrix(1.0927 0 0 -1.0938 355.27 585.18)" d="m179.26 286.87v84.048" stroke="#007fff"/><path transform="matrix(1.0927 0 0 -1.0938 355.27 585.18)" d="m180.33 286.87v81.556" stroke="#0084ff"/><path transform="matrix(1.0927 0 0 -1.0938 355.27 585.18)" d="m181.39 286.87v79.973" stroke="#0089ff"/><path transform="matrix(1.0927 0 0 -1.0938 355.27 585.18)" d="m182.46 286.87v78.145" stroke="#008dff"/><path transform="matrix(1.0927 0 0 -1.0938 355.27 585.18)" d="m183.52 286.87v76.892" stroke="#0092ff"/><path transform="matrix(1.0927 0 0 -1.0938 355.27 585.18)" d="m184.59 286.87v75.075" stroke="#0097ff"/><path transform="matrix(1.0927 0 0 -1.0938 355.27 585.18)" d="m185.65 286.87v73.353" stroke="#009bff"/><path transform="matrix(1.0927 0 0 -1.0938 355.27 585.18)" d="m186.71 286.87v70.625" stroke="#00a0ff"/><path transform="matrix(1.0927 0 0 -1.0938 355.27 585.18)" d="m187.78 286.87v67.983" stroke="#00a4ff"/><path transform="matrix(1.0927 0 0 -1.0938 355.27 585.18)" d="m188.84 286.87v64.902" stroke="#00a9ff"/><path transform="matrix(1.0927 0 0 -1.0938 355.27 585.18)" d="m189.91 286.87v61.426" stroke="#00adff"/><path transform="matrix(1.0927 0 0 -1.0938 355.27 585.18)" d="m190.97 286.87v58.378" stroke="#00b2ff"/><path transform="matrix(1.0927 0 0 -1.0938 355.27 585.18)" d="m192.04 286.87v55.757" stroke="#00b6ff"/><path transform="matrix(1.0927 0 0 -1.0938 355.27 585.18)" d="m193.1 286.87v53.254" stroke="#0bf"/><path transform="matrix(1.0927 0 0 -1.0938 355.27 585.18)" d="m194.17 286.87v50.901" stroke="#00bfff"/><path transform="matrix(1.0927 0 0 -1.0938 355.27 585.18)" d="m195.23 286.87v49.757" stroke="#00c4ff"/><path transform="matrix(1.0927 0 0 -1.0938 355.27 585.18)" d="m196.29 286.87v49.008" stroke="#00c8ff"/><path transform="matrix(1.0927 0 0 -1.0938 355.27 585.18)" d="m197.36 286.87v48.548" stroke="#0cf"/><path transform="matrix(1.0927 0 0 -1.0938 355.27 585.18)" d="m198.42 286.87v48.474" stroke="#00d1ff"/><path transform="matrix(1.0927 0 0 -1.0938 355.27 585.18)" d="m199.49 286.87v48.741" stroke="#00d5ff"/><path transform="matrix(1.0927 0 0 -1.0938 355.27 585.18)" d="m200.55 286.87v49.243" stroke="#00d9ff"/><path transform="matrix(1.0927 0 0 -1.0938 355.27 585.18)" d="m201.62 286.87v50.206" stroke="#0df"/><path transform="matrix(1.0927 0 0 -1.0938 355.27 585.18)" d="m202.68 286.87v50.687" stroke="#00e2ff"/><path transform="matrix(1.0927 0 0 -1.0938 355.27 585.18)" d="m203.74 286.87v51.736" stroke="#00e6ff"/><path transform="matrix(1.0927 0 0 -1.0938 355.27 585.18)" d="m204.81 286.87v52.859" stroke="#00eaff"/><path transform="matrix(1.0927 0 0 -1.0938 355.27 585.18)" d="m205.87 286.87v53.619" stroke="#0ef"/><path transform="matrix(1.0927 0 0 -1.0938 355.27 585.18)" d="m206.94 286.87v54.838" stroke="#00f2ff"/><path transform="matrix(1.0927 0 0 -1.0938 355.27 585.18)" d="m208 286.87v55.704" stroke="#00f6ff"/><path transform="matrix(1.0927 0 0 -1.0938 355.27 585.18)" d="m209.06 286.87v56.944" stroke="#00faff"/><path transform="matrix(1.0927 0 0 -1.0938 355.27 585.18)" d="m210.13 286.87v58.175" stroke="#0ff"/><path transform="matrix(1.0927 0 0 -1.0938 355.27 585.18)" d="m211.19 286.87v59.523" stroke="#00fff4"/><path transform="matrix(1.0927 0 0 -1.0938 355.27 585.18)" d="m212.26 286.87v61.052" stroke="#00ffea"/><path transform="matrix(1.0927 0 0 -1.0938 355.27 585.18)" d="m213.32 286.87v62.689" stroke="#00ffdf"/><path transform="matrix(1.0927 0 0 -1.0938 355.27 585.18)" d="m214.39 286.87v64.742" stroke="#00ffd5"/><path transform="matrix(1.0927 0 0 -1.0938 355.27 585.18)" d="m215.45 286.87v66.539" stroke="#00ffca"/><path transform="matrix(1.0927 0 0 -1.0938 355.27 585.18)" d="m216.52 286.87v68.485" stroke="#00ffbf"/><path transform="matrix(1.0927 0 0 -1.0938 355.27 585.18)" d="m217.58 286.87v70.251" stroke="#00ffb4"/><path transform="matrix(1.0927 0 0 -1.0938 355.27 585.18)" d="m218.64 286.87v72.529" stroke="#00ffa9"/><path transform="matrix(1.0927 0 0 -1.0938 355.27 585.18)" d="m219.71 286.87v74.487" stroke="#00ff9e"/><path transform="matrix(1.0927 0 0 -1.0938 355.27 585.18)" d="m220.77 286.87v76.507" stroke="#00ff92"/><path transform="matrix(1.0927 0 0 -1.0938 355.27 585.18)" d="m221.84 286.87v78.348" stroke="#00ff86"/><path transform="matrix(1.0927 0 0 -1.0938 355.27 585.18)" d="m222.9 286.87v80.166" stroke="#00ff7a"/><path transform="matrix(1.0927 0 0 -1.0938 355.27 585.18)" d="m223.97 286.87v81.514" stroke="#00ff6e"/><path transform="matrix(1.0927 0 0 -1.0938 355.27 585.18)" d="m225.03 286.87v83.963" stroke="#00ff61"/><path transform="matrix(1.0927 0 0 -1.0938 355.27 585.18)" d="m226.09 286.87v85.3" stroke="#00ff54"/><path transform="matrix(1.0927 0 0 -1.0938 355.27 585.18)" d="m227.16 286.87v86.861" stroke="#00ff46"/><path transform="matrix(1.0927 0 0 -1.0938 355.27 585.18)" d="m228.22 286.87v88.187" stroke="#00ff37"/><path transform="matrix(1.0927 0 0 -1.0938 355.27 585.18)" d="m229.29 286.87v90.049" stroke="#00ff28"/><path transform="matrix(1.0927 0 0 -1.0938 355.27 585.18)" d="m230.35 286.87v91.578" stroke="#00ff17"/><path transform="matrix(1.0927 0 0 -1.0938 355.27 585.18)" d="m231.42 286.87v92.798" stroke="#0f0"/><path transform="matrix(1.0927 0 0 -1.0938 355.27 585.18)" d="m232.48 286.87v94.07" stroke="#08ff00"/><path transform="matrix(1.0927 0 0 -1.0938 355.27 585.18)" d="m233.55 286.87v95.515" stroke="#0eff00"/><path transform="matrix(1.0927 0 0 -1.0938 355.27 585.18)" d="m234.61 286.87v96.713" stroke="#14ff00"/><path transform="matrix(1.0927 0 0 -1.0938 355.27 585.18)" d="m235.67 286.87v97.986" stroke="#19ff00"/><path transform="matrix(1.0927 0 0 -1.0938 355.27 585.18)" d="m236.74 286.87v99.376" stroke="#1eff00"/><path transform="matrix(1.0927 0 0 -1.0938 355.27 585.18)" d="m237.8 286.87v100.38" stroke="#23ff00"/><path transform="matrix(1.0927 0 0 -1.0938 355.27 585.18)" d="m238.87 286.87v101.24" stroke="#28ff00"/><path transform="matrix(1.0927 0 0 -1.0938 355.27 585.18)" d="m239.93 286.87v102.11" stroke="#2cff00"/><path transform="matrix(1.0927 0 0 -1.0938 355.27 585.18)" d="m241 286.87v103.26" stroke="#31ff00"/><path transform="matrix(1.0927 0 0 -1.0938 355.27 585.18)" d="m242.06 286.87v104.68" stroke="#35ff00"/><path transform="matrix(1.0927 0 0 -1.0938 355.27 585.18)" d="m243.13 286.87v105.46" stroke="#3aff00"/><path transform="matrix(1.0927 0 0 -1.0938 355.27 585.18)" d="m244.19 286.87v106.53" stroke="#3eff00"/><path transform="matrix(1.0927 0 0 -1.0938 355.27 585.18)" d="m245.25 286.87v107.63" stroke="#42ff00"/><path transform="matrix(1.0927 0 0 -1.0938 355.27 585.18)" d="m246.32 286.87v108.39" stroke="#46ff00"/><path transform="matrix(1.0927 0 0 -1.0938 355.27 585.18)" d="m247.38 286.87v109.28" stroke="#4aff00"/><path transform="matrix(1.0927 0 0 -1.0938 355.27 585.18)" d="m248.45 286.87v110.1" stroke="#4eff00"/><path transform="matrix(1.0927 0 0 -1.0938 355.27 585.18)" d="m249.51 286.87v110.8" stroke="#52ff00"/><path transform="matrix(1.0927 0 0 -1.0938 355.27 585.18)" d="m250.57 286.87v111.86" stroke="#56ff00"/><path transform="matrix(1.0927 0 0 -1.0938 355.27 585.18)" d="m251.64 286.87v112.4" stroke="#59ff00"/><path transform="matrix(1.0927 0 0 -1.0938 355.27 585.18)" d="m252.7 286.87v113.73" stroke="#5dff00"/><path transform="matrix(1.0927 0 0 -1.0938 355.27 585.18)" d="m253.77 286.87v114.6" stroke="#61ff00"/><path transform="matrix(1.0927 0 0 -1.0938 355.27 585.18)" d="m254.83 286.87v115.15" stroke="#65ff00"/><path transform="matrix(1.0927 0 0 -1.0938 355.27 585.18)" d="m255.9 286.87v116.31" stroke="#68ff00"/><path transform="matrix(1.0927 0 0 -1.0938 355.27 585.18)" d="m256.96 286.87v117.33" stroke="#6cff00"/><path transform="matrix(1.0927 0 0 -1.0938 355.27 585.18)" d="m258.03 286.87v117.92" stroke="#6fff00"/><path transform="matrix(1.0927 0 0 -1.0938 355.27 585.18)" d="m259.09 286.87v119.45" stroke="#73ff00"/><path transform="matrix(1.0927 0 0 -1.0938 355.27 585.18)" d="m260.15 286.87v119.93" stroke="#7f0"/><path transform="matrix(1.0927 0 0 -1.0938 355.27 585.18)" d="m261.22 286.87v120.98" stroke="#7aff00"/><path transform="matrix(1.0927 0 0 -1.0938 355.27 585.18)" d="m262.28 286.87v122.29" stroke="#7eff00"/><path transform="matrix(1.0927 0 0 -1.0938 355.27 585.18)" d="m263.35 286.87v123.26" stroke="#81ff00"/><path transform="matrix(1.0927 0 0 -1.0938 355.27 585.18)" d="m264.41 286.87v124.15" stroke="#84ff00"/><path transform="matrix(1.0927 0 0 -1.0938 355.27 585.18)" d="m265.48 286.87v125.3" stroke="#8f0"/><path transform="matrix(1.0927 0 0 -1.0938 355.27 585.18)" d="m266.54 286.87v126.5" stroke="#8bff00"/><path transform="matrix(1.0927 0 0 -1.0938 355.27 585.18)" d="m267.6 286.87v127.73" stroke="#8fff00"/><path transform="matrix(1.0927 0 0 -1.0938 355.27 585.18)" d="m268.67 286.87v128.52" stroke="#92ff00"/><path transform="matrix(1.0927 0 0 -1.0938 355.27 585.18)" d="m269.73 286.87v130.08" stroke="#95ff00"/><path transform="matrix(1.0927 0 0 -1.0938 355.27 585.18)" d="m270.8 286.87v131.54" stroke="#9f0"/><path transform="matrix(1.0927 0 0 -1.0938 355.27 585.18)" d="m271.86 286.87v132.54" stroke="#9cff00"/><path transform="matrix(1.0927 0 0 -1.0938 355.27 585.18)" d="m272.93 286.87v133.82" stroke="#9fff00"/><path transform="matrix(1.0927 0 0 -1.0938 355.27 585.18)" d="m273.99 286.87v135.53" stroke="#a2ff00"/><path transform="matrix(1.0927 0 0 -1.0938 355.27 585.18)" d="m275.06 286.87v136.96" stroke="#a6ff00"/><path transform="matrix(1.0927 0 0 -1.0938 355.27 585.18)" d="m276.12 286.87v138.37" stroke="#a9ff00"/><path transform="matrix(1.0927 0 0 -1.0938 355.27 585.18)" d="m277.19 286.87v139.8" stroke="#acff00"/><path transform="matrix(1.0927 0 0 -1.0938 355.27 585.18)" d="m278.25 286.87v141.32" stroke="#afff00"/><path transform="matrix(1.0927 0 0 -1.0938 355.27 585.18)" d="m279.31 286.87v143.42" stroke="#b3ff00"/><path transform="matrix(1.0927 0 0 -1.0938 355.27 585.18)" d="m280.38 286.87v145.09" stroke="#b6ff00"/><path transform="matrix(1.0927 0 0 -1.0938 355.27 585.18)" d="m281.44 286.87v146.55" stroke="#b9ff00"/><path transform="matrix(1.0927 0 0 -1.0938 355.27 585.18)" d="m282.51 286.87v148.23" stroke="#bcff00"/><path transform="matrix(1.0927 0 0 -1.0938 355.27 585.18)" d="m283.57 286.87v149.74" stroke="#bfff00"/><path transform="matrix(1.0927 0 0 -1.0938 355.27 585.18)" d="m284.64 286.87v151.77" stroke="#c2ff00"/><path transform="matrix(1.0927 0 0 -1.0938 355.27 585.18)" d="m285.7 286.87v153.68" stroke="#c5ff00"/><path transform="matrix(1.0927 0 0 -1.0938 355.27 585.18)" d="m286.76 286.87v155.86" stroke="#c9ff00"/><path transform="matrix(1.0927 0 0 -1.0938 355.27 585.18)" d="m287.83 286.87v157.6" stroke="#cf0"/><path transform="matrix(1.0927 0 0 -1.0938 355.27 585.18)" d="m288.89 286.87v159.89" stroke="#cfff00"/><path transform="matrix(1.0927 0 0 -1.0938 355.27 585.18)" d="m289.96 286.87v162.08" stroke="#d2ff00"/><path transform="matrix(1.0927 0 0 -1.0938 355.27 585.18)" d="m291.02 286.87v163.97" stroke="#d5ff00"/><path transform="matrix(1.0927 0 0 -1.0938 355.27 585.18)" d="m292.09 286.87v165.96" stroke="#d8ff00"/><path transform="matrix(1.0927 0 0 -1.0938 355.27 585.18)" d="m293.15 286.87v168.06" stroke="#dbff00"/><path transform="matrix(1.0927 0 0 -1.0938 355.27 585.18)" d="m294.21 286.87v170.57" stroke="#deff00"/><path transform="matrix(1.0927 0 0 -1.0938 355.27 585.18)" d="m295.28 286.87v172.81" stroke="#e1ff00"/><path transform="matrix(1.0927 0 0 -1.0938 355.27 585.18)" d="m296.34 286.87v175.05" stroke="#e4ff00"/><path transform="matrix(1.0927 0 0 -1.0938 355.27 585.18)" d="m297.41 286.87v176.64" stroke="#e7ff00"/><path transform="matrix(1.0927 0 0 -1.0938 355.27 585.18)" d="m298.47 286.87v179.21" stroke="#eaff00"/><path transform="matrix(1.0927 0 0 -1.0938 355.27 585.18)" d="m299.54 286.87v181.48" stroke="#edff00"/><path transform="matrix(1.0927 0 0 -1.0938 355.27 585.18)" d="m300.6 286.87v183.5" stroke="#f0ff00"/><path transform="matrix(1.0927 0 0 -1.0938 355.27 585.18)" d="m301.66 286.87v186.06" stroke="#f3ff00"/><path transform="matrix(1.0927 0 0 -1.0938 355.27 585.18)" d="m302.73 286.87v188.24" stroke="#f6ff00"/><path transform="matrix(1.0927 0 0 -1.0938 355.27 585.18)" d="m303.79 286.87v190.33" stroke="#f9ff00"/><path transform="matrix(1.0927 0 0 -1.0938 355.27 585.18)" d="m304.86 286.87v192.53" stroke="#fcff00"/><path transform="matrix(1.0927 0 0 -1.0938 355.27 585.18)" d="m305.92 286.87v194.78" stroke="#ff0"/><path transform="matrix(1.0927 0 0 -1.0938 355.27 585.18)" d="m306.99 286.87v196.71" stroke="#fffb00"/><path transform="matrix(1.0927 0 0 -1.0938 355.27 585.18)" d="m308.05 286.87v198.75" stroke="#fff800"/><path transform="matrix(1.0927 0 0 -1.0938 355.27 585.18)" d="m309.11 286.87v200.47" stroke="#fff500"/><path transform="matrix(1.0927 0 0 -1.0938 355.27 585.18)" d="m310.18 286.87v203.23" stroke="#fff200"/><path transform="matrix(1.0927 0 0 -1.0938 355.27 585.18)" d="m311.24 286.87v205.37" stroke="#ffef00"/><path transform="matrix(1.0927 0 0 -1.0938 355.27 585.18)" d="m312.31 286.87v207.18" stroke="#ffeb00"/><path transform="matrix(1.0927 0 0 -1.0938 355.27 585.18)" d="m313.37 286.87v209.27" stroke="#ffe800"/><path transform="matrix(1.0927 0 0 -1.0938 355.27 585.18)" d="m314.44 286.87v210.89" stroke="#ffe500"/><path transform="matrix(1.0927 0 0 -1.0938 355.27 585.18)" d="m315.5 286.87v212.98" stroke="#ffe200"/><path transform="matrix(1.0927 0 0 -1.0938 355.27 585.18)" d="m316.56 286.87v215.02" stroke="#ffdf00"/><path transform="matrix(1.0927 0 0 -1.0938 355.27 585.18)" d="m317.63 286.87v216.25" stroke="#ffdb00"/><path transform="matrix(1.0927 0 0 -1.0938 355.27 585.18)" d="m318.69 286.87v217.47" stroke="#ffd800"/><path transform="matrix(1.0927 0 0 -1.0938 355.27 585.18)" d="m319.76 286.87v219.21" stroke="#ffd500"/><path transform="matrix(1.0927 0 0 -1.0938 355.27 585.18)" d="m320.82 286.87v221.25" stroke="#ffd200"/><path transform="matrix(1.0927 0 0 -1.0938 355.27 585.18)" d="m321.89 286.87v222.37" stroke="#ffce00"/><path transform="matrix(1.0927 0 0 -1.0938 355.27 585.18)" d="m322.95 286.87v223.55" stroke="#ffcb00"/><path transform="matrix(1.0927 0 0 -1.0938 355.27 585.18)" d="m324.02 286.87v224.75" stroke="#ffc800"/><path transform="matrix(1.0927 0 0 -1.0938 355.27 585.18)" d="m325.08 286.87v225.61" stroke="#ffc400"/><path transform="matrix(1.0927 0 0 -1.0938 355.27 585.18)" d="m326.15 286.87v226.68" stroke="#ffc100"/><path transform="matrix(1.0927 0 0 -1.0938 355.27 585.18)" d="m327.21 286.87v227.64" stroke="#ffbe00"/><path transform="matrix(1.0927 0 0 -1.0938 355.27 585.18)" d="m328.27 286.87v227.61" stroke="#ffba00"/><path transform="matrix(1.0927 0 0 -1.0938 355.27 585.18)" d="m329.34 286.87v227.82" stroke="#ffb700"/><path transform="matrix(1.0927 0 0 -1.0938 355.27 585.18)" d="m330.4 286.87v229.11" stroke="#ffb300"/><path transform="matrix(1.0927 0 0 -1.0938 355.27 585.18)" d="m331.47 286.87v228.81" stroke="#ffb000"/><path transform="matrix(1.0927 0 0 -1.0938 355.27 585.18)" d="m332.53 286.87v228.7" stroke="#ffac00"/><path transform="matrix(1.0927 0 0 -1.0938 355.27 585.18)" d="m333.6 286.87v229.08" stroke="#ffa900"/><path transform="matrix(1.0927 0 0 -1.0938 355.27 585.18)" d="m334.66 286.87v229.01" stroke="#ffa500"/><path transform="matrix(1.0927 0 0 -1.0938 355.27 585.18)" d="m335.72 286.87v228.93" stroke="#ffa200"/><path transform="matrix(1.0927 0 0 -1.0938 355.27 585.18)" d="m336.79 286.87v229.11" stroke="#ff9e00"/><path transform="matrix(1.0927 0 0 -1.0938 355.27 585.18)" d="m337.85 286.87v227.66" stroke="#ff9b00"/><path transform="matrix(1.0927 0 0 -1.0938 355.27 585.18)" d="m338.92 286.87v227.26" stroke="#ff9700"/><path transform="matrix(1.0927 0 0 -1.0938 355.27 585.18)" d="m339.98 286.87v226.42" stroke="#ff9400"/><path transform="matrix(1.0927 0 0 -1.0938 355.27 585.18)" d="m341.05 286.87v225.73" stroke="#ff9000"/><path transform="matrix(1.0927 0 0 -1.0938 355.27 585.18)" d="m342.11 286.87v224.83" stroke="#ff8d00"/><path transform="matrix(1.0927 0 0 -1.0938 355.27 585.18)" d="m343.18 286.87v223.73" stroke="#ff8900"/><path transform="matrix(1.0927 0 0 -1.0938 355.27 585.18)" d="m344.24 286.87v222.48" stroke="#ff8500"/><path transform="matrix(1.0927 0 0 -1.0938 355.27 585.18)" d="m345.3 286.87v220.73" stroke="#ff8100"/><path transform="matrix(1.0927 0 0 -1.0938 355.27 585.18)" d="m346.37 286.87v219.45" stroke="#ff7e00"/><path transform="matrix(1.0927 0 0 -1.0938 355.27 585.18)" d="m347.43 286.87v217.79" stroke="#ff7a00"/><path transform="matrix(1.0927 0 0 -1.0938 355.27 585.18)" d="m348.5 286.87v216.12" stroke="#ff7600"/><path transform="matrix(1.0927 0 0 -1.0938 355.27 585.18)" d="m349.56 286.87v214.92" stroke="#ff7200"/><path transform="matrix(1.0927 0 0 -1.0938 355.27 585.18)" d="m350.62 286.87v213.01" stroke="#ff6f00"/><path transform="matrix(1.0927 0 0 -1.0938 355.27 585.18)" d="m351.69 286.87v210.87" stroke="#ff6b00"/><path transform="matrix(1.0927 0 0 -1.0938 355.27 585.18)" d="m352.75 286.87v209.11" stroke="#ff6700"/><path transform="matrix(1.0927 0 0 -1.0938 355.27 585.18)" d="m353.82 286.87v206.83" stroke="#ff6300"/><path transform="matrix(1.0927 0 0 -1.0938 355.27 585.18)" d="m354.88 286.87v205.15" stroke="#ff5f00"/><path transform="matrix(1.0927 0 0 -1.0938 355.27 585.18)" d="m355.95 286.87v202.58" stroke="#ff5b00"/><path transform="matrix(1.0927 0 0 -1.0938 355.27 585.18)" d="m357.01 286.87v200.19" stroke="#ff5700"/><path transform="matrix(1.0927 0 0 -1.0938 355.27 585.18)" d="m358.08 286.87v197.95" stroke="#ff5300"/><path transform="matrix(1.0927 0 0 -1.0938 355.27 585.18)" d="m359.14 286.87v195.22" stroke="#ff4e00"/><path transform="matrix(1.0927 0 0 -1.0938 355.27 585.18)" d="m360.2 286.87v193.18" stroke="#ff4a00"/><path transform="matrix(1.0927 0 0 -1.0938 355.27 585.18)" d="m361.27 286.87v190.86" stroke="#ff4600"/><path transform="matrix(1.0927 0 0 -1.0938 355.27 585.18)" d="m362.33 286.87v188.7" stroke="#ff4200"/><path transform="matrix(1.0927 0 0 -1.0938 355.27 585.18)" d="m363.4 286.87v185.85" stroke="#ff3d00"/><path transform="matrix(1.0927 0 0 -1.0938 355.27 585.18)" d="m364.46 286.87v183.63" stroke="#ff3900"/><path transform="matrix(1.0927 0 0 -1.0938 355.27 585.18)" d="m365.53 286.87v180.53" stroke="#ff3400"/><path transform="matrix(1.0927 0 0 -1.0938 355.27 585.18)" d="m366.59 286.87v177.68" stroke="#ff2f00"/><path transform="matrix(1.0927 0 0 -1.0938 355.27 585.18)" d="m367.66 286.87v175.27" stroke="#ff2a00"/><path transform="matrix(1.0927 0 0 -1.0938 355.27 585.18)" d="m368.72 286.87v172.52" stroke="#ff2500"/><path transform="matrix(1.0927 0 0 -1.0938 355.27 585.18)" d="m369.78 286.87v169.13" stroke="#ff2000"/><path transform="matrix(1.0927 0 0 -1.0938 355.27 585.18)" d="m370.85 286.87v166.4" stroke="#ff1b00"/><path transform="matrix(1.0927 0 0 -1.0938 355.27 585.18)" d="m371.91 286.87v163.4" stroke="#ff1500"/><path transform="matrix(1.0927 0 0 -1.0938 355.27 585.18)" d="m372.98 286.87v160.45" stroke="#ff0f00"/><path transform="matrix(1.0927 0 0 -1.0938 355.27 585.18)" d="m374.04 286.87v157.79" stroke="#ff0900"/></g><g stroke="#f00" stroke-width="2.4402"><path transform="matrix(1.0927 0 0 -1.0938 355.27 585.18)" d="m375.11 286.87v154.57"/><path transform="matrix(1.0927 0 0 -1.0938 355.27 585.18)" d="m376.17 286.87v151.44"/><path transform="matrix(1.0927 0 0 -1.0938 355.27 585.18)" d="m377.23 286.87v148.78"/><path transform="matrix(1.0927 0 0 -1.0938 355.27 585.18)" d="m378.3 286.87v145.95"/><path transform="matrix(1.0927 0 0 -1.0938 355.27 585.18)" d="m379.36 286.87v142.89"/><path transform="matrix(1.0927 0 0 -1.0938 355.27 585.18)" d="m380.43 286.87v139.39"/><path transform="matrix(1.0927 0 0 -1.0938 355.27 585.18)" d="m381.49 286.87v136.93"/><path transform="matrix(1.0927 0 0 -1.0938 355.27 585.18)" d="m382.56 286.87v134.04"/><path transform="matrix(1.0927 0 0 -1.0938 355.27 585.18)" d="m383.62 286.87v130.82"/><path transform="matrix(1.0927 0 0 -1.0938 355.27 585.18)" d="m384.69 286.87v127.97"/><path transform="matrix(1.0927 0 0 -1.0938 355.27 585.18)" d="m385.75 286.87v125.68"/><path transform="matrix(1.0927 0 0 -1.0938 355.27 585.18)" d="m386.81 286.87v122.71"/><path transform="matrix(1.0927 0 0 -1.0938 355.27 585.18)" d="m387.88 286.87v120.19"/><path transform="matrix(1.0927 0 0 -1.0938 355.27 585.18)" d="m388.94 286.87v117.39"/><path transform="matrix(1.0927 0 0 -1.0938 355.27 585.18)" d="m390.01 286.87v114.51"/><path transform="matrix(1.0927 0 0 -1.0938 355.27 585.18)" d="m391.07 286.87v111.39"/><path transform="matrix(1.0927 0 0 -1.0938 355.27 585.18)" d="m392.13 286.87v108.91"/><path transform="matrix(1.0927 0 0 -1.0938 355.27 585.18)" d="m393.2 286.87v106.25"/><path transform="matrix(1.0927 0 0 -1.0938 355.27 585.18)" d="m394.26 286.87v103.96"/><path transform="matrix(1.0927 0 0 -1.0938 355.27 585.18)" d="m395.33 286.87v101.27"/><path transform="matrix(1.0927 0 0 -1.0938 355.27 585.18)" d="m396.39 286.87v98.466"/><path transform="matrix(1.0927 0 0 -1.0938 355.27 585.18)" d="m397.46 286.87v96.327"/><path transform="matrix(1.0927 0 0 -1.0938 355.27 585.18)" d="m398.52 286.87v94.274"/><path transform="matrix(1.0927 0 0 -1.0938 355.27 585.18)" d="m399.59 286.87v91.194"/><path transform="matrix(1.0927 0 0 -1.0938 355.27 585.18)" d="m400.65 286.87v89.279"/><path transform="matrix(1.0927 0 0 -1.0938 355.27 585.18)" d="m401.71 286.87v86.818"/><path transform="matrix(1.0927 0 0 -1.0938 355.27 585.18)" d="m402.78 286.87v84.316"/><path transform="matrix(1.0927 0 0 -1.0938 355.27 585.18)" d="m403.84 286.87v82.337"/><path transform="matrix(1.0927 0 0 -1.0938 355.27 585.18)" d="m404.91 286.87v80.423"/><path transform="matrix(1.0927 0 0 -1.0938 355.27 585.18)" d="m405.97 286.87v78.54"/><path transform="matrix(1.0927 0 0 -1.0938 355.27 585.18)" d="m407.04 286.87v76.443"/><path transform="matrix(1.0927 0 0 -1.0938 355.27 585.18)" d="m408.1 286.87v74.069"/><path transform="matrix(1.0927 0 0 -1.0938 355.27 585.18)" d="m409.16 286.87v72.508"/><path transform="matrix(1.0927 0 0 -1.0938 355.27 585.18)" d="m410.23 286.87v70.389"/><path transform="matrix(1.0927 0 0 -1.0938 355.27 585.18)" d="m411.29 286.87v67.94"/><path transform="matrix(1.0927 0 0 -1.0938 355.27 585.18)" d="m412.36 286.87v66.539"/><path transform="matrix(1.0927 0 0 -1.0938 355.27 585.18)" d="m413.42 286.87v65.256"/><path transform="matrix(1.0927 0 0 -1.0938 355.27 585.18)" d="m414.49 286.87v63.106"/><path transform="matrix(1.0927 0 0 -1.0938 355.27 585.18)" d="m415.55 286.87v60.87"/><path transform="matrix(1.0927 0 0 -1.0938 355.27 585.18)" d="m416.61 286.87v59.427"/><path transform="matrix(1.0927 0 0 -1.0938 355.27 585.18)" d="m417.68 286.87v57.886"/><path transform="matrix(1.0927 0 0 -1.0938 355.27 585.18)" d="m418.74 286.87v56.389"/><path transform="matrix(1.0927 0 0 -1.0938 355.27 585.18)" d="m419.81 286.87v54.57"/><path transform="matrix(1.0927 0 0 -1.0938 355.27 585.18)" d="m420.87 286.87v52.934"/><path transform="matrix(1.0927 0 0 -1.0938 355.27 585.18)" d="m421.94 286.87v51.789"/><path transform="matrix(1.0927 0 0 -1.0938 355.27 585.18)" d="m423 286.87v50.442"/><path transform="matrix(1.0927 0 0 -1.0938 355.27 585.18)" d="m424.07 286.87v48.837"/><path transform="matrix(1.0927 0 0 -1.0938 355.27 585.18)" d="m425.13 286.87v46.794"/><path transform="matrix(1.0927 0 0 -1.0938 355.27 585.18)" d="m426.2 286.87v45.757"/><path transform="matrix(1.0927 0 0 -1.0938 355.27 585.18)" d="m427.26 286.87v44.452"/><path transform="matrix(1.0927 0 0 -1.0938 355.27 585.18)" d="m428.32 286.87v43.543"/><path transform="matrix(1.0927 0 0 -1.0938 355.27 585.18)" d="m429.39 286.87v41.928"/><path transform="matrix(1.0927 0 0 -1.0938 355.27 585.18)" d="m430.45 286.87v40.848"/><path transform="matrix(1.0927 0 0 -1.0938 355.27 585.18)" d="m431.52 286.87v39.714"/><path transform="matrix(1.0927 0 0 -1.0938 355.27 585.18)" d="m432.58 286.87v38.441"/><path transform="matrix(1.0927 0 0 -1.0938 355.27 585.18)" d="m433.65 286.87v37.253"/></g><g stroke-width="2.9759"><path transform="matrix(1.0927 0 0 -1.0938 355.27 585.18)" d="m434.71 286.87v36.484" stroke="#fd0000"/><path transform="matrix(1.0927 0 0 -1.0938 355.27 585.18)" d="m435.77 286.87v34.964" stroke="#fc0000"/><path transform="matrix(1.0927 0 0 -1.0938 355.27 585.18)" d="m436.84 286.87v33.574" stroke="#fa0000"/><path transform="matrix(1.0927 0 0 -1.0938 355.27 585.18)" d="m437.9 286.87v32.964" stroke="#f90000"/><path transform="matrix(1.0927 0 0 -1.0938 355.27 585.18)" d="m438.97 286.87v31.67" stroke="#f70000"/><path transform="matrix(1.0927 0 0 -1.0938 355.27 585.18)" d="m440.03 286.87v30.953" stroke="#f60000"/><path transform="matrix(1.0927 0 0 -1.0938 355.27 585.18)" d="m441.1 286.87v29.617" stroke="#f40000"/><path transform="matrix(1.0927 0 0 -1.0938 355.27 585.18)" d="m442.16 286.87v29.435" stroke="#f30000"/><path transform="matrix(1.0927 0 0 -1.0938 355.27 585.18)" d="m443.22 286.87v27.616" stroke="#f20000"/><path transform="matrix(1.0927 0 0 -1.0938 355.27 585.18)" d="m444.29 286.87v26.964" stroke="#f00000"/><path transform="matrix(1.0927 0 0 -1.0938 355.27 585.18)" d="m445.35 286.87v26.429" stroke="#ef0000"/><path transform="matrix(1.0927 0 0 -1.0938 355.27 585.18)" d="m446.42 286.87v25.156" stroke="#ed0000"/><path transform="matrix(1.0927 0 0 -1.0938 355.27 585.18)" d="m447.48 286.87v25.071" stroke="#ec0000"/><path transform="matrix(1.0927 0 0 -1.0938 355.27 585.18)" d="m448.55 286.87v23.369" stroke="#ea0000"/><path transform="matrix(1.0927 0 0 -1.0938 355.27 585.18)" d="m449.61 286.87v22.963" stroke="#e90000"/><path transform="matrix(1.0927 0 0 -1.0938 355.27 585.18)" d="m450.67 286.87v21.947" stroke="#e70000"/><path transform="matrix(1.0927 0 0 -1.0938 355.27 585.18)" d="m451.74 286.87v21.498" stroke="#e60000"/><path transform="matrix(1.0927 0 0 -1.0938 355.27 585.18)" d="m452.8 286.87v20.642" stroke="#e40000"/><path transform="matrix(1.0927 0 0 -1.0938 355.27 585.18)" d="m453.87 286.87v20.001" stroke="#e30000"/><path transform="matrix(1.0927 0 0 -1.0938 355.27 585.18)" d="m454.93 286.87v19.412" stroke="#e20000"/><path transform="matrix(1.0927 0 0 -1.0938 355.27 585.18)" d="m456 286.87v19.262" stroke="#e00000"/><path transform="matrix(1.0927 0 0 -1.0938 355.27 585.18)" d="m457.06 286.87v19.38" stroke="#df0000"/><path transform="matrix(1.0927 0 0 -1.0938 355.27 585.18)" d="m458.12 286.87v17.166" stroke="#d00"/><path transform="matrix(1.0927 0 0 -1.0938 355.27 585.18)" d="m459.19 286.87v17.401" stroke="#dc0000"/><path transform="matrix(1.0927 0 0 -1.0938 355.27 585.18)" d="m460.25 286.87v16.46" stroke="#da0000"/><path transform="matrix(1.0927 0 0 -1.0938 355.27 585.18)" d="m461.32 286.87v16.675" stroke="#d90000"/><path transform="matrix(1.0927 0 0 -1.0938 355.27 585.18)" d="m462.38 286.87v15.765" stroke="#d70000"/><path transform="matrix(1.0927 0 0 -1.0938 355.27 585.18)" d="m463.45 286.87v15.241" stroke="#d60000"/><path transform="matrix(1.0927 0 0 -1.0938 355.27 585.18)" d="m464.51 286.87v15.167" stroke="#d40000"/><path transform="matrix(1.0927 0 0 -1.0938 355.27 585.18)" d="m465.58 286.87v14.151" stroke="#d30000"/><path transform="matrix(1.0927 0 0 -1.0938 355.27 585.18)" d="m466.64 286.87v14.278" stroke="#d10000"/><path transform="matrix(1.0927 0 0 -1.0938 355.27 585.18)" d="m467.71 286.87v13.305" stroke="#d00000"/><path transform="matrix(1.0927 0 0 -1.0938 355.27 585.18)" d="m468.77 286.87v12.46" stroke="#ce0000"/><path transform="matrix(1.0927 0 0 -1.0938 355.27 585.18)" d="m469.83 286.87v13.7" stroke="#cd0000"/><path transform="matrix(1.0927 0 0 -1.0938 355.27 585.18)" d="m470.9 286.87v12.15" stroke="#cb0000"/><path transform="matrix(1.0927 0 0 -1.0938 355.27 585.18)" d="m471.96 286.87v11.636" stroke="#ca0000"/><path transform="matrix(1.0927 0 0 -1.0938 355.27 585.18)" d="m473.03 286.87v10.877" stroke="#c80000"/><path transform="matrix(1.0927 0 0 -1.0938 355.27 585.18)" d="m474.09 286.87v10.92" stroke="#c70000"/><path transform="matrix(1.0927 0 0 -1.0938 355.27 585.18)" d="m475.16 286.87v10.278" stroke="#c50000"/><path transform="matrix(1.0927 0 0 -1.0938 355.27 585.18)" d="m476.22 286.87v9.8292" stroke="#c40000"/><path transform="matrix(1.0927 0 0 -1.0938 355.27 585.18)" d="m477.28 286.87v9.5191" stroke="#c20000"/><path transform="matrix(1.0927 0 0 -1.0938 355.27 585.18)" d="m478.35 286.87v8.9188" stroke="#c10000"/><path transform="matrix(1.0927 0 0 -1.0938 355.27 585.18)" d="m479.41 286.87v8.3746" stroke="#bf0000"/><path transform="matrix(1.0927 0 0 -1.0938 355.27 585.18)" d="m480.48 286.87v8.8018" stroke="#bd0000"/><path transform="matrix(1.0927 0 0 -1.0938 355.27 585.18)" d="m481.54 286.87v9.0479" stroke="#bc0000"/><path transform="matrix(1.0927 0 0 -1.0938 355.27 585.18)" d="m482.6 286.87v8.9829" stroke="#ba0000"/><path transform="matrix(1.0927 0 0 -1.0938 355.27 585.18)" d="m483.67 286.87v7.9144" stroke="#b90000"/><path transform="matrix(1.0927 0 0 -1.0938 355.27 585.18)" d="m484.73 286.87v7.8934" stroke="#b70000"/><path transform="matrix(1.0927 0 0 -1.0938 355.27 585.18)" d="m485.8 286.87v7.6793" stroke="#b60000"/><path transform="matrix(1.0927 0 0 -1.0938 355.27 585.18)" d="m486.86 286.87v7.2511" stroke="#b40000"/><path transform="matrix(1.0927 0 0 -1.0938 355.27 585.18)" d="m487.93 286.87v6.4488" stroke="#b30000"/><path transform="matrix(1.0927 0 0 -1.0938 355.27 585.18)" d="m488.99 286.87v6.5448" stroke="#b10000"/><path transform="matrix(1.0927 0 0 -1.0938 355.27 585.18)" d="m490.06 286.87v6.1596" stroke="#af0000"/><path transform="matrix(1.0927 0 0 -1.0938 355.27 585.18)" d="m491.12 286.87v5.0692" stroke="#ae0000"/><path transform="matrix(1.0927 0 0 -1.0938 355.27 585.18)" d="m492.18 286.87v5.7855" stroke="#ac0000"/><path transform="matrix(1.0927 0 0 -1.0938 355.27 585.18)" d="m493.25 286.87v5.2292" stroke="#ab0000"/><path transform="matrix(1.0927 0 0 -1.0938 355.27 585.18)" d="m494.31 286.87v5.3153" stroke="#a90000"/><path transform="matrix(1.0927 0 0 -1.0938 355.27 585.18)" d="m495.38 286.87v4.3739" stroke="#a80000"/><path transform="matrix(1.0927 0 0 -1.0938 355.27 585.18)" d="m496.44 286.87v5.0792" stroke="#a60000"/><path transform="matrix(1.0927 0 0 -1.0938 355.27 585.18)" d="m497.51 286.87v4.0207" stroke="#a40000"/><path transform="matrix(1.0927 0 0 -1.0938 355.27 585.18)" d="m498.57 286.87v4.748" stroke="#a30000"/><path transform="matrix(1.0927 0 0 -1.0938 355.27 585.18)" d="m499.64 286.87v5.3903" stroke="#a10000"/><path transform="matrix(1.0927 0 0 -1.0938 355.27 585.18)" d="m500.7 286.87v5.3903" stroke="#a00000"/><path transform="matrix(1.0927 0 0 -1.0938 355.27 585.18)" d="m501.76 286.87v4.726" stroke="#9e0000"/><path transform="matrix(1.0927 0 0 -1.0938 355.27 585.18)" d="m502.83 286.87v4.545" stroke="#9c0000"/><path transform="matrix(1.0927 0 0 -1.0938 355.27 585.18)" d="m503.89 286.87v4.566" stroke="#9b0000"/><path transform="matrix(1.0927 0 0 -1.0938 355.27 585.18)" d="m504.96 286.87v3.0693" stroke="#900"/><path transform="matrix(1.0927 0 0 -1.0938 355.27 585.18)" d="m506.02 286.87v3.9027" stroke="#980000"/><path transform="matrix(1.0927 0 0 -1.0938 355.27 585.18)" d="m507.09 286.87v3.5715" stroke="#960000"/><path transform="matrix(1.0927 0 0 -1.0938 355.27 585.18)" d="m508.15 286.87v2.8342" stroke="#940000"/><path transform="matrix(1.0927 0 0 -1.0938 355.27 585.18)" d="m509.21 286.87v3.3574" stroke="#930000"/><path transform="matrix(1.0927 0 0 -1.0938 355.27 585.18)" d="m510.28 286.87v3.6786" stroke="#910000"/><path transform="matrix(1.0927 0 0 -1.0938 355.27 585.18)" d="m511.34 286.87v2.7912" stroke="#8f0000"/><path transform="matrix(1.0927 0 0 -1.0938 355.27 585.18)" d="m512.41 286.87v3.5715" stroke="#8e0000"/><path transform="matrix(1.0927 0 0 -1.0938 355.27 585.18)" d="m513.47 286.87v2.416" stroke="#8c0000"/><path transform="matrix(1.0927 0 0 -1.0938 355.27 585.18)" d="m514.54 286.87v2.7162" stroke="#8a0000"/><path transform="matrix(1.0927 0 0 -1.0938 355.27 585.18)" d="m515.6 286.87v2.7042" stroke="#890000"/><path transform="matrix(1.0927 0 0 -1.0938 355.27 585.18)" d="m516.67 286.87v2.4711" stroke="#870000"/><path transform="matrix(1.0927 0 0 -1.0938 355.27 585.18)" d="m517.73 286.87v2.405" stroke="#850000"/><path transform="matrix(1.0927 0 0 -1.0938 355.27 585.18)" d="m518.79 286.87v2.448" stroke="#840000"/><path transform="matrix(1.0927 0 0 -1.0938 355.27 585.18)" d="m519.86 286.87v1.5497" stroke="#820000"/><path transform="matrix(1.0927 0 0 -1.0938 355.27 585.18)" d="m520.92 286.87v0.94041" stroke="#800000"/><path transform="matrix(1.0927 0 0 -1.0938 355.27 585.18)" d="m521.99 286.87v1.5387" stroke="#7f0000"/><path transform="matrix(1.0927 0 0 -1.0938 355.27 585.18)" d="m523.05 286.87v1.5817" stroke="#7d0000"/><path transform="matrix(1.0927 0 0 -1.0938 355.27 585.18)" d="m524.12 286.87v2.213" stroke="#7b0000"/><path transform="matrix(1.0927 0 0 -1.0938 355.27 585.18)" d="m525.18 286.87v1.1225" stroke="#7a0000"/><path transform="matrix(1.0927 0 0 -1.0938 355.27 585.18)" d="m526.24 286.87v1.4116" stroke="#780000"/><path transform="matrix(1.0927 0 0 -1.0938 355.27 585.18)" d="m527.31 286.87v1.6567" stroke="#760000"/><path transform="matrix(1.0927 0 0 -1.0938 355.27 585.18)" d="m528.37 286.87v2.6722" stroke="#740000"/><path transform="matrix(1.0927 0 0 -1.0938 355.27 585.18)" d="m529.44 286.87v1.1865" stroke="#730000"/><path transform="matrix(1.0927 0 0 -1.0938 355.27 585.18)" d="m530.5 286.87v1.0364" stroke="#710000"/><path transform="matrix(1.0927 0 0 -1.0938 355.27 585.18)" d="m531.57 286.87v1.5817" stroke="#6f0000"/><path transform="matrix(1.0927 0 0 -1.0938 355.27 585.18)" d="m532.63 286.87v1.0474" stroke="#6d0000"/><path transform="matrix(1.0927 0 0 -1.0938 355.27 585.18)" d="m533.69 286.87v1.2185" stroke="#6c0000"/><path transform="matrix(1.0927 0 0 -1.0938 355.27 585.18)" d="m534.76 286.87v1.7638" stroke="#6a0000"/><path transform="matrix(1.0927 0 0 -1.0938 355.27 585.18)" d="m535.82 286.87v1.3786" stroke="#680000"/><path transform="matrix(1.0927 0 0 -1.0938 355.27 585.18)" d="m536.89 286.87v1.3786" stroke="#600"/><path transform="matrix(1.0927 0 0 -1.0938 355.27 585.18)" d="m537.95 286.87v0.24411" stroke="#640000"/><path transform="matrix(1.0927 0 0 -1.0938 355.27 585.18)" d="m539.02 286.87v0.79034" stroke="#630000"/></g></g><g fill="#000000" font-family="Lato"><text transform="matrix(1.8992 0 0 1.9003 29.149 331.81)" font-size="8.4222px" font-weight="bold" stroke-linecap="round" stroke-linejoin="round" stroke-miterlimit="10" stroke-width=".13156" style="font-variant-caps:normal;font-variant-east-asian:normal;font-variant-ligatures:normal;font-variant-numeric:normal;line-height:0%"><tspan x="0" y="0" font-family="Lato" font-size="8.4222px" font-weight="bold" stroke-width=".13156" style="font-variant-caps:normal;font-variant-east-asian:normal;font-variant-ligatures:normal;font-variant-numeric:normal;line-height:1.25">CIE Colorimetric Parameters</tspan></text><g><text transform="matrix(1.8992 0 0 1.9003 29.024 353.66)" font-size="8.4222px" stroke-width=".65778" style="font-variant-caps:normal;font-variant-east-asian:normal;font-variant-ligatures:normal;font-variant-numeric:normal;line-height:0%"><tspan x="0" y="0" font-family="Lato" font-size="8.4222px" stroke-width=".65778" style="font-variant-caps:normal;font-variant-east-asian:normal;font-variant-ligatures:normal;font-variant-numeric:normal;line-height:1.25">Chromaticity coordinates: x=0.4338 y=0.4030 u'=0.2490 v'=0.5205</tspan></text><text transform="matrix(1.8998 0 0 1.9009 -7.4884 1526.5)" x="19.2194" y="-605.67859" font-size="8.4196px" stroke-width=".65758" style="font-variant-caps:normal;font-variant-east-asian:normal;font-variant-ligatures:normal;font-variant-numeric:normal;line-height:0%"><tspan x="19.2194" y="-605.67859" dy="0 0 0 0 0 0 0 0 0" font-family="Lato" font-size="8.4196px" stroke-width=".65758" style="font-variant-caps:normal;font-variant-east-asian:normal;font-variant-ligatures:normal;font-variant-numeric:normal;line-height:1.25">CCT: Tc=3045K</tspan></text><text transform="matrix(1.8992 0 0 1.9003 420.35 375.49)" font-size="8.4222px" stroke-width=".65778" style="font-variant-caps:normal;font-variant-east-asian:normal;font-variant-ligatures:normal;font-variant-numeric:normal;line-height:0%"><tspan x="0" y="0" font-family="Lato" font-size="8.4222px" stroke-width=".65778" style="font-variant-caps:normal;font-variant-east-asian:normal;font-variant-ligatures:normal;font-variant-numeric:normal;line-height:1.25">Color Ratio: R=0.229 G=0.739 B=0.032 </tspan></text><text transform="matrix(1.8992 0 0 1.9003 238.53 375.36)" font-size="8.4222px" stroke-width=".65778" style="font-variant-caps:normal;font-variant-east-asian:normal;font-variant-ligatures:normal;font-variant-numeric:normal;line-height:0%"><tspan x="0" y="0" font-family="Lato" font-size="8.4222px" stroke-width=".65778" style="font-variant-caps:normal;font-variant-east-asian:normal;font-variant-ligatures:normal;font-variant-numeric:normal;line-height:1.25">CRI: Ra= 82</tspan></text></g></g></g><path transform="matrix(.89479 0 0 .89479 .9025 -10.145)" d="m133.59 239 0.853 0.275 0.866 0.266 0.879 0.26 0.892 0.251 0.903 0.244 0.917 0.236 0.929 0.228 0.942 0.221 0.954 0.212 0.966 0.205 0.978 0.197 0.989 0.189 1.002 0.181 1.013 0.174 1.025 0.165 1.036 0.158 1.048 0.149 1.059 0.142 1.07 0.133 1.083 0.126 1.092 0.117 1.103 0.11 1.115 0.101 1.125 0.094 1.135 0.085 1.146 0.078 1.156 0.069 1.167 0.061 1.176 0.053 1.187 0.045 1.196 0.037 1.206 0.029 1.216 0.021 1.225 0.012 1.235 5e-3 1.244-4e-3 1.252-0.011 1.263-0.02 1.27-0.028 1.28-0.036 1.288-0.044 1.297-0.052 1.305-0.06 1.313-0.069 1.321-0.076 1.33-0.084 1.337-0.093 1.346-0.1 1.352-0.109 1.36-0.116 1.367-0.125 1.374-0.133 1.382-0.141 1.389-0.148 1.394-0.156 1.402-0.165 1.408-0.173 1.414-0.18 1.421-0.188 1.426-0.196 1.433-0.204 1.438-0.211 1.444-0.22 1.449-0.227 1.455-0.235 1.46-0.243 1.465-0.251 1.47-0.258 1.474-0.266 1.479-0.274 1.484-0.281 1.488-0.288 1.492-0.297 1.496-0.304 1.5-0.311 1.503-0.319 1.508-0.326 1.509-0.334 1.514-0.341 1.517-0.348 1.52-0.356 1.523-0.363 1.525-0.369 1.528-0.378 1.529-0.384 1.533-0.392 1.534-0.398 1.536-0.406 1.538-0.413 1.539-0.42 1.541-0.426 1.542-0.434 1.544-0.44 1.543-0.447 1.545-0.454 1.545-0.46 1.546-0.467 1.546-0.473 1.547-0.481 1.547-0.486 1.546-0.493 1.546-0.5 1.546-0.506 1.545-0.512 1.544-0.519 1.544-0.524 1.542-0.531 1.541-0.537 1.54-0.543 1.538-0.549 1.537-0.555 1.534-0.56 1.534-0.567 1.53-0.572 1.528-0.579 1.526-0.583 1.523-0.59 1.52-0.595 1.518-0.6 1.514-0.605 1.512-0.612 1.508-0.616 1.505-0.621 1.501-0.627 1.497-0.632 1.493-0.637 1.488-0.641 1.485-0.648 1.481-0.651 1.475-0.657 1.471-0.661 1.467-0.666 1.461-0.67 1.456-0.675 1.45-0.679 1.446-0.683 1.44-0.688 1.434-0.693 1.428-0.696 1.423-0.701 1.416-0.705 1.41-0.708 1.403-0.712 1.396-0.717 1.39-0.72 1.384-0.723 1.376-0.728 1.37-0.73 1.361-0.735 1.355-0.737 1.347-0.741 1.339-0.745 1.332-0.747 1.323-0.75 1.315-0.754 1.308-0.756 1.299-0.76 1.29-0.762 1.281-0.765 1.274-0.767 1.264-0.77 1.255-0.772 1.247-0.775 1.237-0.778 1.228-0.779 1.218-0.782 1.209-0.784 1.199-0.785 1.189-0.788 1.179-0.789 1.169-0.792 1.159-0.793 1.149-0.794 1.138-0.797 1.127-0.797 1.117-0.799 1.107-0.801 1.095-0.801 1.085-0.803 1.073-0.804 1.063-0.804 1.05-0.806 1.039-0.806 1.029-0.808 1.016-0.807 1.005-0.809 0.993-0.809 0.981-0.809 0.969-0.81 0.957-0.81 0.945-0.81 0.932-0.81 0.919-0.81 0.908-0.811 0.895-0.81 0.882-0.809 0.87-0.81 0.858-0.809 0.842-0.808 0.831-0.808 0.819-0.808 0.803-0.806 0.792-0.806 0.777-0.805 0.765-0.805 0.752-0.802 0.737-0.802 0.724-0.801 0.711-0.799 0.695-0.799 0.683-0.796 0.669-0.795 0.655-0.793 0.64-0.792 0.626-0.79 0.613-0.789 0.599-0.786 0.584-0.784 0.568-0.783 0.556-0.78 0.54-0.777 0.526-0.776 0.512-0.773 0.497-0.771 0.482-0.768 0.468-0.765 0.453-0.763 0.437-0.76 0.424-0.758 0.407-0.754 0.394-0.751 0.379-0.749 0.363-0.745 0.348-0.741 0.333-0.739 0.319-0.735 0.302-0.732 0.288-0.729 0.272-0.724 0.257-0.721 0.243-0.718 0.226-0.713 0.211-0.71 0.197-0.705 0.181-0.702 0.165-0.698 0.15-0.693 0.134-0.689 0.119-0.685 0.104-0.681 0.088-0.676 0.074-0.671 0.057-0.667 0.042-0.663 0.025-0.657 0.012-0.654-4e-3 -0.648-0.02-0.643-0.036-0.638-0.051-0.633-0.066-0.629-0.082-0.623-0.097-0.618-0.113-0.612-0.128-0.607-0.143-0.602-0.159-0.597-0.174-0.59-0.189-0.585-0.205-0.58-0.22-0.574-0.236-0.568-0.25-0.563-0.267-0.556-0.282-0.551-0.296-0.544-0.311-0.539-0.327-0.533-0.342-0.526-0.357-0.52-0.371-0.514-0.387-0.5078-0.402-0.5016-0.416-0.4949-0.432-0.4886-0.447-0.4816-0.462-0.4756-0.476-0.469-0.49-0.4623-0.506-0.4556-0.52-0.4487-0.534-0.442-0.549-0.4357-0.564-0.4283-0.577-0.4214-0.592-0.4147-0.607-0.4074-0.62-0.4007-0.635-0.3937-0.648-0.3865-0.664-0.3791-0.677-0.3721-0.69-0.3651-0.704-0.3578-0.719-0.3505-0.731-0.3428-0.745-0.3358-0.76-0.3282-0.772-0.3208-0.785-0.3132-0.799-0.3059-0.812-0.2985-0.825-0.2909-0.839-0.2836-0.851-0.2756-0.864-0.2679-0.878-0.2603-0.889-0.2529-0.902-0.245-0.914-0.2373-0.928-0.2293-0.94-0.2217-0.951-0.214-0.963-0.206-0.977-0.1984-0.988-0.1904-0.999-0.1827-1.012-0.1744-1.023-0.1668-1.034-0.1584-1.047-0.1511-1.057-0.1425-1.069-0.1348-1.079-0.1271-1.091-0.1188-1.102-0.1105-1.113-0.1028-1.123-0.0949-1.133-0.0869-1.145-0.0785-1.154-0.0706-1.165-0.0626-1.175-0.0542-1.184-0.0463-1.195-0.0383-1.205-0.0302-1.214-0.022-1.224-0.014-1.233-0.0057-1.243 0.0024-1.251 0.0103-1.261 0.0186-1.269 0.0263-1.278 0.0347-1.287 0.0429-1.295 0.0509-1.305 0.0586-1.312 0.0672-1.32 0.0752-1.328 0.0832-1.336 0.0913-1.343 0.0991-1.351 0.1072-1.359 0.1155-1.367 0.1231-1.373 0.1315-1.38 0.1391-1.387 0.1475-1.394 0.1551-1.401 0.1634-1.407 0.1711-1.413 0.1787-1.42 0.187-1.426 0.1951-1.432 0.2027-1.437 0.2103-1.443 0.2184-1.448 0.226-1.453 0.2336-1.46 0.2416-1.464 0.2497-1.469 0.2569-1.474 0.2646-1.479 0.2726-1.483 0.2796-1.486 0.2875-1.492 0.2953-1.495 0.3029-1.499 0.3098-1.504 0.3179-1.505 0.3248-1.511 0.3325-1.514 0.3398-1.515 0.3472-1.52 0.3545-1.522 0.3617-1.524 0.3692-1.528 0.3761-1.53 0.3834-1.531 0.3904-1.535 0.3974-1.535 0.4044-1.537 0.4117-1.54 0.4184-1.541 0.4253-1.541 0.4324-1.543 0.439-1.544 0.4463-1.544 0.4523-1.546 0.4593-1.546 0.4663-1.546 0.4727-1.547 0.4789-1.546 0.4859-1.547 0.4923-1.546 0.4982-1.546 0.505-1.545 0.5115-1.544 0.517-1.543 0.524-1.544 0.53-1.54 0.536-1.54 0.542-1.539 0.548-1.536 0.554-1.536 0.56-1.533 0.565-1.531 0.571-1.528 0.578-1.527 0.582-1.524 0.589-1.521 0.594-1.517 0.599-1.516 0.605-1.512 0.61-1.508 0.616-1.505 0.621-1.502 0.625-1.498 0.631-1.493 0.637-1.49 0.641-1.485 0.646-1.481 0.651-1.477 0.655-1.472 0.66-1.466 0.665-1.462 0.67-1.457 0.674-1.452 0.679-1.446 0.683-1.441 0.687-1.436 0.692-1.428 0.695-1.424 0.701-1.416 0.703-1.411 0.708-1.405 0.712-1.397 0.716-1.391 0.719-1.385 0.723-1.377 0.727-1.37 0.73-1.363 0.734-1.356 0.737-1.349 0.74-1.34 0.744-1.333 0.747-1.324 0.75-1.317 0.753-1.309 0.756-1.3 0.759-1.292 0.762-1.282 0.764-1.276 0.767-1.266 0.77-1.257 0.772-1.247 0.774-1.239 0.777-1.229 0.779-1.219 0.781-1.21 0.784-1.202 0.785-1.19 0.788-1.181 0.789-1.17 0.791-1.161 0.793-1.15 0.794-1.14 0.796-1.129 0.798-1.12 0.799-1.106 0.799-1.098 0.802-1.087 0.803-1.075 0.803-1.064 0.805-1.052 0.805-1.043 0.806-1.029 0.808-1.018 0.807-1.006 0.808-0.996 0.81-0.982 0.809-0.972 0.809-0.958 0.81-0.946 0.81-0.935 0.811-0.921 0.81-0.911 0.81-0.896 0.81-0.885 0.81-0.872 0.809-0.858 0.81-0.846 0.808-0.833 0.808-0.82 0.808-0.806 0.807-0.793 0.805-0.781 0.806-0.766 0.804-0.754 0.803-0.74 0.802-0.726 0.801-0.712 0.8-0.699 0.798-0.684 0.797-0.671 0.795-0.658 0.794-0.642 0.792-0.629 0.79-0.615 0.788-0.6 0.787-0.586 0.785-0.572 0.782-0.556 0.781-0.544 0.778-0.528 0.776-0.515 0.774-0.499 0.771-0.484 0.768-0.47 0.766-0.456 0.763-0.44 0.761-0.425 0.758-0.411 0.755-0.396 0.751-0.379 0.749-0.367 0.746-0.35 0.742-0.336 0.739-0.32 0.736-0.306 0.732-0.29 0.729-0.274 0.726-0.26 0.721-0.245 0.718-0.229 0.714-0.214 0.711-0.198 0.706-0.184 0.702-0.167 0.698-0.152 0.694-0.138 0.69-0.121 0.686-0.106 0.681-0.091 0.677-0.075 0.672-0.06 0.668-0.045 0.663-0.028 0.659-0.015 0.654 3e-3 0.648 0.018 0.644 0.032 0.64 0.048 0.633 0.065 0.629 0.079 0.624 0.095 0.619 0.11 0.613 0.125 0.608 0.141 0.603 0.157 0.597 0.171 0.592 0.187 0.586 0.203 0.581 0.218 0.575 0.233 0.569 0.248 0.563 0.264 0.557 0.279 0.552 0.293 0.546 0.31 0.539 0.324 0.534 0.339 0.527 0.355 0.521 0.37 0.515 0.385 0.509 0.399 0.502 0.414 0.496 0.429 0.49 0.444 0.483 0.46 0.476 0.473 0.47 0.488 0.463 0.504 0.457 0.517 0.45 0.532 0.443 0.548 0.437 0.56 0.429 0.575 0.423 0.59 0.415 0.604 0.41 0.619 0.401 0.633 0.395 0.646 0.387 0.661 0.381 0.674 0.373 0.688 0.366 0.702 0.359 0.716 0.352 0.729 0.344 0.744 0.337 0.756 0.329 0.771 0.322 0.783 0.315 0.797 0.307 0.811 0.3 0.823 0.291 0.835 0.285" fill="#c2cccc"/><g fill="#000000" font-family="Lato" font-size="12px" stroke-width="1.4901"><text transform="matrix(.89479 0 0 .89479 41.488 285.12)" style="font-variant-caps:normal;font-variant-east-asian:normal;font-variant-ligatures:normal;font-variant-numeric:normal" xml:space="preserve">0.426</text><text transform="matrix(.89479 0 0 .89479 87.865 285.12)" style="font-variant-caps:normal;font-variant-east-asian:normal;font-variant-ligatures:normal;font-variant-numeric:normal" xml:space="preserve">0.428</text><text transform="matrix(.89479 0 0 .89479 137.37 285.12)" style="font-variant-caps:normal;font-variant-east-asian:normal;font-variant-ligatures:normal;font-variant-numeric:normal" xml:space="preserve">0.43</text><text transform="matrix(.89479 0 0 .89479 180.62 285.12)" style="font-variant-caps:normal;font-variant-east-asian:normal;font-variant-ligatures:normal;font-variant-numeric:normal" xml:space="preserve">0.432</text><text transform="matrix(.89479 0 0 .89479 226.99 285.12)" style="font-variant-caps:normal;font-variant-east-asian:normal;font-variant-ligatures:normal;font-variant-numeric:normal" xml:space="preserve">0.434</text><text transform="matrix(.89479 0 0 .89479 273.37 285.12)" style="font-variant-caps:normal;font-variant-east-asian:normal;font-variant-ligatures:normal;font-variant-numeric:normal" xml:space="preserve">0.436</text><text transform="matrix(.89479 0 0 .89479 319.75 285.12)" style="font-variant-caps:normal;font-variant-east-asian:normal;font-variant-ligatures:normal;font-variant-numeric:normal" xml:space="preserve">0.438</text><text transform="matrix(.89479 0 0 .89479 369.26 285.12)" style="font-variant-caps:normal;font-variant-east-asian:normal;font-variant-ligatures:normal;font-variant-numeric:normal" xml:space="preserve">0.44</text><text transform="matrix(.89479 0 0 .89479 28.517 272.6)" style="font-variant-caps:normal;font-variant-east-asian:normal;font-variant-ligatures:normal;font-variant-numeric:normal" xml:space="preserve">0.39</text><text transform="matrix(.89479 0 0 .89479 22.253 221.64)" style="font-variant-caps:normal;font-variant-east-asian:normal;font-variant-ligatures:normal;font-variant-numeric:normal" xml:space="preserve">0.395</text><text transform="matrix(.89479 0 0 .89479 34.78 170.67)" style="font-variant-caps:normal;font-variant-east-asian:normal;font-variant-ligatures:normal;font-variant-numeric:normal" xml:space="preserve">0.4</text><text transform="matrix(.89479 0 0 .89479 22.253 119.71)" style="font-variant-caps:normal;font-variant-east-asian:normal;font-variant-ligatures:normal;font-variant-numeric:normal" xml:space="preserve">0.405</text><text transform="matrix(.89479 0 0 .89479 28.517 68.744)" style="font-variant-caps:normal;font-variant-east-asian:normal;font-variant-ligatures:normal;font-variant-numeric:normal" xml:space="preserve">0.41</text><text transform="matrix(.89479 0 0 .89479 22.253 17.779)" style="font-variant-caps:normal;font-variant-east-asian:normal;font-variant-ligatures:normal;font-variant-numeric:normal" xml:space="preserve">0.415</text><text transform="matrix(.89479 0 0 .89479 203.88 299.44)" style="font-variant-caps:normal;font-variant-east-asian:normal;font-variant-ligatures:normal;font-variant-numeric:normal" xml:space="preserve">CIE-X</text><text transform="matrix(0 -.89479 .89479 0 17.779 157.35)" style="font-variant-caps:normal;font-variant-east-asian:normal;font-variant-ligatures:normal;font-variant-numeric:normal" xml:space="preserve">     <tspan x="0 9 13 21 25" y="0" fill="#000000" font-family="Lato" font-size="12px" stroke-width="2.1363" style="font-variant-caps:normal;font-variant-east-asian:normal;font-variant-ligatures:normal;font-variant-numeric:normal">CIE-Y</tspan>   </text></g><g fill="none" stroke="#858585" stroke-dasharray="10.7288, 0" stroke-width=".33528"><g><polyline transform="matrix(.89479 0 0 .89479 .85124 -10.196)" points="112.69 311 112.69 26.208"/><polyline transform="matrix(.89479 0 0 .89479 .85124 -10.196)" points="164.52 311 164.52 26.208"/><polyline transform="matrix(.89479 0 0 .89479 .85124 -10.196)" points="216.35 311 216.35 26.208"/><polyline transform="matrix(.89479 0 0 .89479 .85124 -10.196)" points="268.18 311 268.18 26.208"/><polyline transform="matrix(.89479 0 0 .89479 .85124 -10.196)" points="320.01 311 320.01 26.208"/><polyline transform="matrix(.89479 0 0 .89479 .85124 -10.196)" points="371.84 311 371.84 26.208"/><polyline transform="matrix(.89479 0 0 .89479 .85124 -10.196)" points="423.67 311 423.67 26.208"/><polyline transform="matrix(.89479 0 0 .89479 .85124 -10.196)" points="60.858 254.04 423.67 254.04"/><polyline transform="matrix(.89479 0 0 .89479 .85124 -10.196)" points="60.858 197.08 423.67 197.08"/><polyline transform="matrix(.89479 0 0 .89479 .85124 -10.196)" points="60.858 140.12 423.67 140.12"/><polyline transform="matrix(.89479 0 0 .89479 .85124 -10.196)" points="60.858 83.166 423.67 83.166"/><polyline transform="matrix(.89479 0 0 .89479 .85124 -10.196)" points="60.858 26.208 423.67 26.208"/></g><polyline transform="matrix(.89479 0 0 .89479 .85124 -10.196)" points="60.858 311 423.67 311" stroke-linecap="square"/><polyline transform="matrix(.89479 0 0 .89479 .85124 -10.196)" points="60.858 311 60.858 26.208" stroke-linecap="square"/></g><polygon transform="matrix(2.4098 0 0 2.4098 -397.54 -256.95)" points="262.49 163.77 261.99 162.9 262.49 162.04 263.49 162.04 263.99 162.9 263.49 163.77" fill="#f0f" shape-rendering="crispEdges" stroke-width=".55329"/><text transform="matrix(.89479 0 0 .89479 237.43 133.53)" fill="#000000" font-family="Lato" font-size="11.921px" stroke-width="1.4901" style="font-variant-caps:normal;font-variant-east-asian:normal;font-variant-ligatures:normal;font-variant-numeric:normal" xml:space="preserve">CCT=3045 K</text><g><g fill="#000000" font-family="Lato"><g font-size="9.7293px"><text transform="matrix(1.0938 0 0 1.0968 671.73 299.47)" x="36.944557" stroke-width="1.2168" style="font-variant-caps:normal;font-variant-east-asian:normal;font-variant-ligatures:normal;font-variant-numeric:normal" xml:space="preserve"><tspan x="36.944557" y="0" fill="#000000" font-family="Lato" font-size="9.7293px" stroke-width="1.2168" text-align="center" text-anchor="middle" style="font-variant-caps:normal;font-variant-east-asian:normal;font-variant-ligatures:normal;font-variant-numeric:normal">WaveLength (nm)</tspan></text><g stroke-width="1.2162"><text transform="matrix(1.0949 0 0 1.0968 444.05 23.638)" x="5.3358564" style="font-variant-caps:normal;font-variant-east-asian:normal;font-variant-ligatures:normal;font-variant-numeric:normal" xml:space="preserve"><tspan x="5.3358564" y="0" fill="#000000" font-family="Lato" font-size="9.7293px" stroke-width="1.2162" text-align="end" text-anchor="end" style="font-variant-caps:normal;font-variant-east-asian:normal;font-variant-ligatures:normal;font-variant-numeric:normal">1</tspan></text><text transform="matrix(1.0949 0 0 1.0968 444.01 74.029)" x="5.3358564" style="font-variant-caps:normal;font-variant-east-asian:normal;font-variant-ligatures:normal;font-variant-numeric:normal" xml:space="preserve"><tspan x="5.3358564" y="0" fill="#000000" font-family="Lato" font-size="9.7293px" stroke-width="1.2162" text-align="end" text-anchor="end" style="font-variant-caps:normal;font-variant-east-asian:normal;font-variant-ligatures:normal;font-variant-numeric:normal">0.8</tspan></text><text transform="matrix(1.0949 0 0 1.0968 443.94 124.25)" x="5.3358564" style="font-variant-caps:normal;font-variant-east-asian:normal;font-variant-ligatures:normal;font-variant-numeric:normal" xml:space="preserve"><tspan x="5.3358564" y="0" fill="#000000" font-family="Lato" font-size="9.7293px" stroke-width="1.2162" text-align="end" text-anchor="end" style="font-variant-caps:normal;font-variant-east-asian:normal;font-variant-ligatures:normal;font-variant-numeric:normal">0.6</tspan></text><text transform="matrix(1.0949 0 0 1.0968 443.71 174.55)" x="5.3358564" style="font-variant-caps:normal;font-variant-east-asian:normal;font-variant-ligatures:normal;font-variant-numeric:normal" xml:space="preserve"><tspan x="5.3358564" y="0" fill="#000000" font-family="Lato" font-size="9.7293px" stroke-width="1.2162" text-align="end" text-anchor="end" style="font-variant-caps:normal;font-variant-east-asian:normal;font-variant-ligatures:normal;font-variant-numeric:normal">0.4</tspan></text><text transform="matrix(1.0949 0 0 1.0968 444.02 224.78)" x="5.3358564" style="font-variant-caps:normal;font-variant-east-asian:normal;font-variant-ligatures:normal;font-variant-numeric:normal" xml:space="preserve"><tspan x="5.3358564" y="0" fill="#000000" font-family="Lato" font-size="9.7293px" stroke-width="1.2162" text-align="end" text-anchor="end" style="font-variant-caps:normal;font-variant-east-asian:normal;font-variant-ligatures:normal;font-variant-numeric:normal">0.2</tspan></text><text transform="matrix(1.0949 0 0 1.0968 443.78 275.07)" x="5.3358564" style="font-variant-caps:normal;font-variant-east-asian:normal;font-variant-ligatures:normal;font-variant-numeric:normal" xml:space="preserve"><tspan x="5.3358564" y="0" fill="#000000" font-family="Lato" font-size="9.7293px" stroke-width="1.2162" text-align="end" text-anchor="end" style="font-variant-caps:normal;font-variant-east-asian:normal;font-variant-ligatures:normal;font-variant-numeric:normal">0</tspan></text><text transform="matrix(1.0949 0 0 1.0968 461.45 285.11)" x="15.907482" style="font-variant-caps:normal;font-variant-east-asian:normal;font-variant-ligatures:normal;font-variant-numeric:normal" xml:space="preserve"><tspan x="15.907481" y="0" fill="#000000" font-family="Lato" font-size="9.7293px" stroke-width="1.2162" text-align="center" text-anchor="middle" style="font-variant-caps:normal;font-variant-east-asian:normal;font-variant-ligatures:normal;font-variant-numeric:normal">400</tspan></text><text transform="matrix(1.0949 0 0 1.0968 578.09 285.11)" x="15.907482" style="font-variant-caps:normal;font-variant-east-asian:normal;font-variant-ligatures:normal;font-variant-numeric:normal" xml:space="preserve"><tspan x="15.907481" y="0" fill="#000000" font-family="Lato" font-size="9.7293px" stroke-width="1.2162" text-align="center" text-anchor="middle" style="font-variant-caps:normal;font-variant-east-asian:normal;font-variant-ligatures:normal;font-variant-numeric:normal">500</tspan></text><text transform="matrix(1.0949 0 0 1.0968 694.54 285.11)" x="15.907482" style="font-variant-caps:normal;font-variant-east-asian:normal;font-variant-ligatures:normal;font-variant-numeric:normal" xml:space="preserve"><tspan x="15.907481" y="0" fill="#000000" font-family="Lato" font-size="9.7293px" stroke-width="1.2162" text-align="center" text-anchor="middle" style="font-variant-caps:normal;font-variant-east-asian:normal;font-variant-ligatures:normal;font-variant-numeric:normal">600</tspan></text><text transform="matrix(1.0949 0 0 1.0968 811.18 285.11)" x="15.907482" style="font-variant-caps:normal;font-variant-east-asian:normal;font-variant-ligatures:normal;font-variant-numeric:normal" xml:space="preserve"><tspan x="15.907481" y="0" fill="#000000" font-family="Lato" font-size="9.7293px" stroke-width="1.2162" text-align="center" text-anchor="middle" style="font-variant-caps:normal;font-variant-east-asian:normal;font-variant-ligatures:normal;font-variant-numeric:normal">700</tspan></text><text transform="matrix(1.0949 0 0 1.0968 927.78 285.11)" x="15.907482" style="font-variant-caps:normal;font-variant-east-asian:normal;font-variant-ligatures:normal;font-variant-numeric:normal" xml:space="preserve"><tspan x="15.907481" y="0" fill="#000000" font-family="Lato" font-size="9.7293px" stroke-width="1.2162" text-align="center" text-anchor="middle" style="font-variant-caps:normal;font-variant-east-asian:normal;font-variant-ligatures:normal;font-variant-numeric:normal">800</tspan></text></g></g><text transform="matrix(0 -1.0968 1.0949 0 427.99 188.47)" font-size="9.7293px" stroke-width="1.2162" style="font-variant-caps:normal;font-variant-east-asian:normal;font-variant-ligatures:normal;font-variant-numeric:normal" xml:space="preserve"><tspan x="0" y="0" fill="#000000" font-family="Lato" font-size="9.7293px" stroke-width="1.2162" style="font-variant-caps:normal;font-variant-east-asian:normal;font-variant-ligatures:normal;font-variant-numeric:normal">Relative Spectrum</tspan></text></g><g fill="none" stroke="#858585" stroke-width=".27518"><path transform="matrix(1.0897 0 0 1.0906 -212.27 343.6)" d="m617.27-296.75h-4.496v230.4h449.56v-4.4972"/><path transform="matrix(1.0897 0 0 1.0906 -212.27 343.6)" d="m612.77-250.67h4.496"/><path transform="matrix(1.0897 0 0 1.0906 -212.27 343.6)" d="m612.77-204.59h4.496"/><path transform="matrix(1.0897 0 0 1.0906 -212.27 343.6)" d="m612.77-158.5h4.496"/><path transform="matrix(1.0897 0 0 1.0906 -212.27 343.6)" d="m612.77-112.42h4.496"/><path transform="matrix(1.0897 0 0 1.0906 -212.27 343.6)" d="m634.18-66.344v-4.4972"/><path transform="matrix(1.0897 0 0 1.0906 -212.27 343.6)" d="m741.22-66.344 2e-5 -4.4972"/><path transform="matrix(1.0897 0 0 1.0906 -212.27 343.6)" d="m848.25-66.344 2e-5 -4.4972"/><path transform="matrix(1.0897 0 0 1.0906 -212.27 343.6)" d="m955.29-66.344v-4.4972"/></g></g></svg>
