<?xml version="1.0" encoding="UTF-8" standalone="no"?>
<!-- Created with Inkscape (http://www.inkscape.org/) -->

<svg
   width="218.25456mm"
   height="20.33943mm"
   viewBox="0 0 218.25456 20.33943"
   version="1.1"
   id="svg21871"
   inkscape:version="1.1 (c68e22c387, 2021-05-23)"
   sodipodi:docname="20_VLateral_C1M.svg"
   xmlns:inkscape="http://www.inkscape.org/namespaces/inkscape"
   xmlns:sodipodi="http://sodipodi.sourceforge.net/DTD/sodipodi-0.dtd"
   xmlns="http://www.w3.org/2000/svg"
   xmlns:svg="http://www.w3.org/2000/svg">
  <sodipodi:namedview
     id="namedview21873"
     pagecolor="#505050"
     bordercolor="#ffffff"
     borderopacity="1"
     inkscape:pageshadow="0"
     inkscape:pageopacity="0"
     inkscape:pagecheckerboard="1"
     inkscape:document-units="mm"
     showgrid="false"
     fit-margin-top="0"
     fit-margin-left="0"
     fit-margin-right="0"
     fit-margin-bottom="0"
     inkscape:zoom="0.62003367"
     inkscape:cx="412.8808"
     inkscape:cy="38.707575"
     inkscape:window-width="1294"
     inkscape:window-height="887"
     inkscape:window-x="2104"
     inkscape:window-y="47"
     inkscape:window-maximized="0"
     inkscape:current-layer="layer1" />
  <defs
     id="defs21868" />
  <g
     inkscape:label="Camada 1"
     inkscape:groupmode="layer"
     id="layer1"
     transform="translate(4.153142,-138.33028)">
    <g
       id="g92973"
       transform="translate(-42.859715,-365.9801)">
      <g
         id="g67726">
        <path
           style="fill:none;stroke:#000000;stroke-width:0.15;stroke-miterlimit:4;stroke-dasharray:none"
           d="m 55.579843,512.63433 -16.14461,0.14103"
           id="path26954-7-4-0-5-9" />
        <path
           style="fill:none;stroke:#000000;stroke-width:0.15;stroke-miterlimit:4;stroke-dasharray:none"
           d="m 39.062963,515.10686 -0.0251,0.007"
           id="path26956-7-0-7-83-9" />
        <path
           style="fill:none;stroke:#000000;stroke-width:0.15;stroke-miterlimit:4;stroke-dasharray:none"
           d="m 39.435233,524.3821 22.01201,0.19209"
           id="path26958-5-6-3-9-5" />
        <path
           style="fill:none;stroke:#000000;stroke-width:0.15;stroke-miterlimit:4;stroke-dasharray:none"
           d="m 41.637893,510.80659 v 0.12039"
           id="path26960-2-0-4-7-2" />
        <path
           style="fill:none;stroke:#000000;stroke-width:0.15;stroke-linecap:round;stroke-miterlimit:4;stroke-dasharray:none"
           d="m 39.435233,520.07944 22.01201,-0.002"
           id="path26962-9-0-5-4-1" />
        <path
           d="m 38.840573,516.76335 a 0.10000006,0.10000006 0 0 0 -0.059,0.0912"
           style="fill:none;stroke:#000000;stroke-width:0.15;stroke-miterlimit:4;stroke-dasharray:none"
           id="path26966-5-2-3-5-8" />
        <path
           style="fill:none;stroke:#000000;stroke-width:0.15;stroke-miterlimit:4;stroke-dasharray:none"
           d="m 39.037833,515.33705 v 0.34237"
           id="path26968-5-6-5-3-3" />
        <path
           style="fill:none;stroke:#000000;stroke-width:0.15;stroke-miterlimit:4;stroke-dasharray:none"
           d="m 39.137843,516.3729 h -0.0749"
           id="path26970-8-3-8-7-4" />
        <path
           d="m 61.507743,524.57476 a 0.25000003,0.25000003 0 0 0 0.25218,-0.24999"
           style="fill:none;stroke:#000000;stroke-width:0.15;stroke-miterlimit:4;stroke-dasharray:none"
           id="path26974-2-0-9-4-4" />
        <path
           d="m 39.435303,512.77527 a 0.29999993,0.29999993 0 0 0 -0.29738,0.29999"
           style="fill:none;stroke:#000000;stroke-width:0.15;stroke-miterlimit:4;stroke-dasharray:none"
           id="path26984-9-9-5-5-7" />
        <path
           style="fill:none;stroke:#000000;stroke-width:0.15;stroke-miterlimit:4;stroke-dasharray:none"
           d="m 39.137843,513.94614 h -0.0749"
           id="path26986-2-7-4-5-7" />
        <path
           style="fill:none;stroke:#000000;stroke-width:0.15;stroke-miterlimit:4;stroke-dasharray:none"
           d="m 39.037833,513.97101 v 0.0402"
           id="path26988-9-7-0-8-7" />
        <path
           style="fill:none;stroke:#000000;stroke-width:0.15;stroke-miterlimit:4;stroke-dasharray:none"
           d="m 53.637803,510.20625 -11.50435,0.10028"
           id="path26990-1-8-4-3-5" />
        <path
           d="m 42.133553,510.30656 a 0.50000005,0.50000005 0 0 0 -0.49563,0.49998"
           style="fill:none;stroke:#000000;stroke-width:0.15;stroke-miterlimit:4;stroke-dasharray:none"
           id="path26992-4-7-9-8-7" />
        <path
           style="fill:none;stroke:#000000;stroke-width:0.15;stroke-miterlimit:4;stroke-dasharray:none"
           d="m 39.037833,516.17419 v 0.17357"
           id="path26994-5-7-2-3-3" />
        <path
           style="fill:none;stroke:#000000;stroke-width:0.15;stroke-miterlimit:4;stroke-dasharray:none"
           d="m 39.137843,513.98635 h -0.0749"
           id="path26996-6-8-0-0-0" />
        <path
           style="fill:none;stroke:#000000;stroke-width:0.15;stroke-miterlimit:4;stroke-dasharray:none"
           d="m 39.137843,516.41311 h -0.0749"
           id="path26998-1-8-5-4-8" />
        <path
           style="fill:none;stroke:#000000;stroke-width:0.15;stroke-miterlimit:4;stroke-dasharray:none"
           d="m 39.037833,515.11427 v 0.22278"
           id="path27000-5-7-7-8-3" />
        <path
           style="fill:none;stroke:#000000;stroke-width:0.15;stroke-miterlimit:4;stroke-dasharray:none"
           d="m 38.840453,522.29586 0.29739,0.13361"
           id="path27002-2-2-7-6-4" />
        <path
           style="fill:none;stroke:#000000;stroke-width:0.15;stroke-miterlimit:4;stroke-dasharray:none"
           d="m 39.037833,514.01123 v 0.15795"
           id="path27004-0-8-9-6-8" />
        <path
           d="m 39.062923,513.9863 a 0.02499995,0.02499995 0 0 0 -0.025,0.025"
           style="fill:none;stroke:#000000;stroke-width:0.15;stroke-miterlimit:4;stroke-dasharray:none"
           id="path27008-9-6-5-8-0" />
        <path
           style="fill:none;stroke:#000000;stroke-width:0.15;stroke-linecap:round;stroke-miterlimit:4;stroke-dasharray:none"
           d="m 61.759983,524.32468 v -4.24524"
           id="path27010-8-4-2-9-7" />
        <path
           d="m 39.062923,513.94602 a 0.02499995,0.02499995 0 0 0 -0.025,0.025"
           style="fill:none;stroke:#000000;stroke-width:0.15;stroke-miterlimit:4;stroke-dasharray:none"
           id="path27012-2-0-6-0-9" />
        <path
           d="m 39.037923,516.34778 a 0.02499995,0.02499995 0 0 0 0.025,0.025"
           style="fill:none;stroke:#000000;stroke-width:0.15;stroke-miterlimit:4;stroke-dasharray:none"
           id="path27020-9-6-4-1-1" />
        <path
           d="m 38.781603,522.20454 a 0.10000006,0.10000006 0 0 0 0.059,0.0912"
           style="fill:none;stroke:#000000;stroke-width:0.15;stroke-miterlimit:4;stroke-dasharray:none"
           id="path27022-0-9-8-7-7" />
        <path
           d="m 61.753833,520.05351 c -0.005,-0.0226 -0.0144,-0.0423 -0.0283,-0.0597 -0.0131,-0.0163 -0.0301,-0.0302 -0.0512,-0.042 -0.0244,-0.0136 -0.051,-0.0227 -0.0754,-0.028 -0.0173,-0.004 -0.034,-0.006 -0.0486,-0.005 -0.009,2.7e-4 -0.0177,0.002 -0.0262,0.004 -0.006,0.002 -0.0118,0.005 -0.017,0.009 -0.006,0.004 -0.0109,0.0101 -0.0147,0.0166 -0.006,0.01 -0.01,0.022 -0.0126,0.0376"
           style="fill:none;stroke:#000000;stroke-width:0.15;stroke-miterlimit:4;stroke-dasharray:none"
           id="path27024-8-2-6-1-9" />
        <path
           style="fill:none;stroke:#000000;stroke-width:0.15;stroke-miterlimit:4;stroke-dasharray:none"
           d="m 61.759983,520.07944 -0.006,-0.0259"
           id="path27026-1-0-7-2-4" />
        <path
           style="fill:none;stroke:#000000;stroke-width:0.15;stroke-miterlimit:4;stroke-dasharray:none"
           d="m 39.137843,516.62954 -0.29739,0.13388"
           id="path27028-4-5-1-02-4" />
        <path
           style="fill:none;stroke:#000000;stroke-width:0.15;stroke-miterlimit:4;stroke-dasharray:none"
           d="m 39.037833,516.34776 v 0.0402"
           id="path27030-7-8-7-5-3" />
        <path
           style="fill:none;stroke:#000000;stroke-width:0.15;stroke-miterlimit:4;stroke-dasharray:none"
           d="m 41.637893,510.92698 v 1.82906"
           id="path27032-5-6-0-5-1" />
        <path
           style="fill:none;stroke:#000000;stroke-width:0.15;stroke-miterlimit:4;stroke-dasharray:none"
           d="m 39.037833,514.59543 v 0.51884"
           id="path27034-2-5-8-7-8" />
        <path
           style="fill:none;stroke:#000000;stroke-width:0.15;stroke-miterlimit:4;stroke-dasharray:none"
           d="m 61.447243,524.57419 0.0606,5.2e-4"
           id="path27036-5-9-7-3-7" />
        <path
           style="fill:none;stroke:#000000;stroke-width:0.15;stroke-miterlimit:4;stroke-dasharray:none"
           d="m 39.137843,520.08235 v 3.99971"
           id="path27038-5-3-3-5-6" />
        <path
           style="fill:none;stroke:#000000;stroke-width:0.15;stroke-miterlimit:4;stroke-dasharray:none"
           d="m 39.137843,513.07539 v 7.00696"
           id="path27040-2-0-7-4-3" />
        <path
           d="m 39.037923,516.38806 a 0.02499995,0.02499995 0 0 0 0.025,0.025"
           style="fill:none;stroke:#000000;stroke-width:0.15;stroke-miterlimit:4;stroke-dasharray:none"
           id="path27042-8-6-5-8-0" />
        <path
           style="fill:none;stroke:#000000;stroke-width:0.15;stroke-miterlimit:4;stroke-dasharray:none"
           d="m 39.137843,515.10686 h -0.0749"
           id="path27044-4-5-7-1-0" />
        <path
           style="fill:none;stroke:#000000;stroke-width:0.15;stroke-miterlimit:4;stroke-dasharray:none"
           d="m 39.037833,514.16918 v 0.42625"
           id="path27046-1-1-4-63-3" />
        <path
           d="m 61.753833,520.05351 a 22.111586,22.111586 0 0 0 -1.63093,-4.60003"
           style="fill:none;stroke:#000000;stroke-width:0.15;stroke-miterlimit:4;stroke-dasharray:none"
           id="path27048-1-5-8-1-8" />
        <path
           style="fill:none;stroke:#000000;stroke-width:0.15;stroke-miterlimit:4;stroke-dasharray:none"
           d="m 39.137843,524.08788 v -0.006"
           id="path27050-9-4-4-85-2" />
        <path
           style="fill:none;stroke:#000000;stroke-width:0.15;stroke-miterlimit:4;stroke-dasharray:none"
           d="m 39.037833,515.67942 v 0.49477"
           id="path27054-9-2-8-84-3" />
        <path
           d="m 60.122903,515.45348 a 5,5 0 0 0 -4.54301,-2.8191"
           style="fill:none;stroke:#000000;stroke-width:0.15;stroke-miterlimit:4;stroke-dasharray:none"
           id="path27056-4-8-7-5-1" />
        <path
           style="fill:none;stroke:#000000;stroke-width:0.15;stroke-miterlimit:4;stroke-dasharray:none"
           d="m 38.781713,522.20458 v -0.73422"
           id="path27058-4-5-2-22-4" />
        <path
           style="fill:none;stroke:#000000;stroke-width:0.15;stroke-miterlimit:4;stroke-dasharray:none"
           d="m 38.781713,517.87044 v -1.016"
           id="path27060-5-7-0-89-9" />
        <path
           style="fill:none;stroke:#000000;stroke-width:0.15;stroke-miterlimit:4;stroke-dasharray:none"
           d="m 38.781713,517.87044 v 3.59992"
           id="path27064-1-3-3-4-8" />
        <path
           style="fill:none;stroke:#000000;stroke-width:0.15;stroke-miterlimit:4;stroke-dasharray:none"
           d="m 38.840453,517.88499 v -1.12157"
           id="path27526-5-8-4-8-6" />
        <path
           d="m 39.137923,513.07526 c 0,-2.6e-4 2e-5,-7.9e-4 6e-5,-10e-4 0.001,-0.01 0.0163,-0.0196 0.0476,-0.0285 0.0229,-0.006 0.0549,-0.0125 0.0968,-0.0172 0.0262,-0.003 0.0565,-0.005 0.0893,-0.007 0.0206,-7.9e-4 0.0422,-10e-4 0.0636,-10e-4"
           style="fill:none;stroke:#000000;stroke-width:0.15;stroke-miterlimit:4;stroke-dasharray:none"
           id="path27528-9-7-7-7-3" />
        <path
           style="fill:none;stroke:#000000;stroke-width:0.15;stroke-miterlimit:4;stroke-dasharray:none"
           d="m 39.137843,521.50661 -0.29739,-0.0217"
           id="path27530-0-2-9-3-7" />
        <path
           style="fill:none;stroke:#000000;stroke-width:0.15;stroke-miterlimit:4;stroke-dasharray:none"
           d="m 39.137843,515.67942 h -0.0749"
           id="path27534-9-7-3-4-5" />
        <path
           style="fill:none;stroke:#000000;stroke-width:0.15;stroke-miterlimit:4;stroke-dasharray:none"
           d="m 39.137843,514.59543 h -0.0749"
           id="path27536-9-2-4-7-4" />
        <path
           style="fill:none;stroke:#000000;stroke-width:0.15;stroke-miterlimit:4;stroke-dasharray:none"
           d="m 39.062963,513.98635 v -0.0402"
           id="path27540-0-9-6-4-8" />
        <path
           style="fill:none;stroke:#000000;stroke-width:0.15;stroke-miterlimit:4;stroke-dasharray:none"
           d="m 39.062963,515.67942 h -0.0251"
           id="path27542-8-7-5-38-4" />
        <path
           style="fill:none;stroke:#000000;stroke-width:0.15;stroke-miterlimit:4;stroke-dasharray:none"
           d="m 39.062963,515.67942 v 0.51462"
           id="path27546-5-6-0-2-3" />
        <path
           style="fill:none;stroke:#000000;stroke-width:0.15;stroke-miterlimit:4;stroke-dasharray:none"
           d="m 38.840453,521.48491 v -3.59992"
           id="path27548-3-8-0-4-9" />
        <path
           style="fill:none;stroke:#000000;stroke-width:0.15;stroke-miterlimit:4;stroke-dasharray:none"
           d="m 38.840453,522.29586 v -0.81095"
           id="path27550-2-4-6-5-7" />
        <path
           style="fill:none;stroke:#000000;stroke-width:0.15;stroke-miterlimit:4;stroke-dasharray:none"
           d="m 39.137843,514.14934 h -0.0749"
           id="path27552-3-1-5-0-3" />
        <path
           style="fill:none;stroke:#000000;stroke-width:0.15;stroke-miterlimit:4;stroke-dasharray:none"
           d="m 39.062963,516.3729 v 0.0402"
           id="path27554-5-7-7-20-5" />
        <path
           style="fill:none;stroke:#000000;stroke-width:0.15;stroke-miterlimit:4;stroke-dasharray:none"
           d="m 39.062963,514.59543 h -0.0251"
           id="path27556-8-7-3-1-0" />
        <path
           style="fill:none;stroke:#000000;stroke-width:0.15;stroke-miterlimit:4;stroke-dasharray:none"
           d="m 39.062963,516.19404 v 0.17886"
           id="path27558-2-2-1-90-1" />
        <path
           style="fill:none;stroke:#000000;stroke-width:0.15;stroke-miterlimit:4;stroke-dasharray:none"
           d="m 39.062963,515.32224 v 0.35718"
           id="path27562-2-3-0-4-2" />
        <path
           d="m 59.895753,515.55785 c 0.0943,0.19457 0.1858,0.39071 0.27442,0.58829 0.14179,0.31612 0.2762,0.63595 0.40298,0.95895 0.20284,0.5168 0.38613,1.04172 0.54905,1.57248 0.1328,0.43266 0.25207,0.86918 0.35757,1.3083"
           style="fill:none;stroke:#000000;stroke-width:0.15;stroke-miterlimit:4;stroke-dasharray:none"
           id="path27564-9-4-0-4-2" />
        <path
           style="fill:none;stroke:#000000;stroke-width:0.15;stroke-miterlimit:4;stroke-dasharray:none"
           d="m 39.062963,514.14934 v 0.44609"
           id="path27568-1-7-1-7-1" />
        <path
           style="fill:none;stroke:#000000;stroke-width:0.15;stroke-miterlimit:4;stroke-dasharray:none"
           d="m 39.137843,515.32224 h -0.0749"
           id="path27570-2-0-8-2-9" />
        <path
           style="fill:none;stroke:#000000;stroke-width:0.15;stroke-miterlimit:4;stroke-dasharray:none"
           d="m 39.062963,514.59543 v 0.51143"
           id="path27574-8-7-0-6-6" />
        <path
           d="m 55.579893,512.87971 c 0.44104,-0.004 0.88861,0.0549 1.31664,0.17419 0.68485,0.19086 1.32528,0.5381 1.85765,1.00522 0.47404,0.41595 0.86676,0.93172 1.14157,1.49873"
           style="fill:none;stroke:#000000;stroke-width:0.15;stroke-miterlimit:4;stroke-dasharray:none"
           id="path27576-2-8-2-6-7" />
        <path
           style="fill:none;stroke:#000000;stroke-width:0.15;stroke-miterlimit:4;stroke-dasharray:none"
           d="m 39.062963,515.10686 v 0.21538"
           id="path27580-9-8-4-03-3" />
        <path
           style="fill:none;stroke:#000000;stroke-width:0.15;stroke-miterlimit:4;stroke-dasharray:none"
           d="m 39.435233,524.13207 v -4.05263"
           id="path27584-5-7-6-4-1" />
        <path
           style="fill:none;stroke:#000000;stroke-width:0.15;stroke-miterlimit:4;stroke-dasharray:none"
           d="m 61.759983,524.32468 -0.31274,-5.3e-4"
           id="path27586-1-5-4-9-2" />
        <path
           d="m 53.637923,510.44083 c -0.2359,0.002 -0.4718,0.004 -0.7077,0.007 -0.87521,0.008 -1.75042,0.0162 -2.62564,0.0243 -0.54701,0.005 -1.09401,0.0101 -1.64102,0.0152 -0.34188,0.003 -0.68376,0.006 -1.02564,0.009 -0.34188,0.003 -0.68377,0.006 -1.02564,0.01 -0.54701,0.005 -1.09402,0.0101 -1.64103,0.0152 -0.87521,0.008 -1.75043,0.0162 -2.62564,0.0243 -0.0707,5.2e-4 -0.14137,10e-4 -0.21206,0.002"
           style="fill:none;stroke:#000000;stroke-width:0.15;stroke-miterlimit:4;stroke-dasharray:none"
           id="path27588-0-4-9-0-8" />
        <path
           style="fill:none;stroke:#000000;stroke-width:0.15;stroke-miterlimit:4;stroke-dasharray:none"
           d="m 39.137843,516.19404 h -0.0749"
           id="path27594-9-7-1-9-6" />
        <path
           style="fill:none;stroke:#000000;stroke-width:0.15;stroke-miterlimit:4;stroke-dasharray:none"
           d="m 39.062963,513.98635 v 0.16299"
           id="path27596-9-6-9-2-1" />
        <path
           style="fill:none;stroke:#000000;stroke-width:0.15;stroke-miterlimit:4;stroke-dasharray:none"
           d="M 42.133453,512.75181 V 510.5473"
           id="path27600-4-3-9-9-2" />
        <path
           style="fill:none;stroke:#000000;stroke-width:0.15;stroke-linecap:round;stroke-miterlimit:4;stroke-dasharray:none"
           d="m 61.447243,520.07759 v 4.24656"
           id="path27602-7-8-0-9-6" />
        <path
           style="fill:none;stroke:#000000;stroke-width:0.15;stroke-miterlimit:4;stroke-dasharray:none"
           d="m 39.137843,517.90642 -0.29739,-0.0214"
           id="path27604-4-0-1-2-8" />
        <path
           style="fill:none;stroke:#000000;stroke-width:0.15;stroke-miterlimit:4;stroke-dasharray:none"
           d="m 39.435233,513.02063 16.14461,-0.14103"
           id="path27608-4-1-3-3-4" />
        <path
           style="fill:none;stroke:#000000;stroke-width:0.15;stroke-miterlimit:4;stroke-dasharray:none"
           d="m 39.435233,520.07944 v -7.05881"
           id="path27610-0-0-9-5-0" />
        <path
           style="fill:none;stroke:#000000;stroke-width:0.15;stroke-linecap:round;stroke-miterlimit:4;stroke-dasharray:none"
           d="m 61.447243,524.32415 -22.3094,-0.24227 c 0,0 -0.0136,0.12895 0.07021,0.21467 0.08381,0.0857 0.227182,0.0855 0.227182,0.0855"
           id="path27614-0-0-7-10-2"
           sodipodi:nodetypes="cczc" />
        <path
           style="fill:none;stroke:#000000;stroke-width:0.15;stroke-miterlimit:4;stroke-dasharray:none"
           d="m 42.133453,510.30653 v 0.24077"
           id="path27616-2-5-7-41-3" />
      </g>
      <path
         style="fill:none;stroke:#000000;stroke-width:0.15;stroke-linecap:round;stroke-miterlimit:4;stroke-dasharray:none"
         d="m 53.637803,505.57353 v 7.07774"
         id="path26952-1-4-6-5-3" />
      <path
         d="M 61.808106,523.49238 H 252.37872"
         style="fill:none;stroke:#000000;stroke-width:0.15;stroke-linecap:round;stroke-linejoin:round;stroke-miterlimit:4;stroke-dasharray:none"
         id="path6690-5" />
      <path
         d="m 252.37761,514.84376 v 9.42256"
         style="fill:none;stroke:#000000;stroke-width:0.167;stroke-linecap:round;stroke-linejoin:round;stroke-miterlimit:4;stroke-dasharray:none"
         id="path7024-7" />
      <path
         d="m 252.5811,511.22122 4.14912,0.0554"
         style="fill:none;stroke:#000000;stroke-width:0.167;stroke-linecap:round;stroke-linejoin:round;stroke-miterlimit:4;stroke-dasharray:none"
         id="path7028-2" />
      <path
         d="m 252.5811,511.22122 c -0.026,-3.5e-4 -0.0519,0.003 -0.0762,0.0104 -0.0243,0.007 -0.0464,0.018 -0.0653,0.0318 -0.0188,0.0138 -0.034,0.0302 -0.0446,0.0484 -0.006,0.01 -0.01,0.0197 -0.0128,0.03 -0.003,0.0103 -0.004,0.0208 -0.005,0.0313 0,3.7e-4 0,7.5e-4 0,0.001"
         style="fill:none;stroke:#000000;stroke-width:0.167;stroke-linecap:round;stroke-linejoin:round;stroke-miterlimit:4;stroke-dasharray:none"
         id="path7030-6" />
      <path
         d="m 252.5811,524.56627 4.14912,-0.0724"
         style="fill:none;stroke:#000000;stroke-width:0.167;stroke-linecap:round;stroke-linejoin:round;stroke-miterlimit:4;stroke-dasharray:none"
         id="path7032-0" />
      <path
         d="m 252.37761,504.59386 v 6.78039"
         style="fill:none;stroke:#000000;stroke-width:0.167;stroke-linecap:round;stroke-linejoin:round;stroke-miterlimit:4;stroke-dasharray:none"
         id="path7040-2" />
      <path
         d="m 252.37761,511.37425 v 3.46951"
         style="fill:none;stroke:#000000;stroke-width:0.167;stroke-linecap:round;stroke-linejoin:round;stroke-miterlimit:4;stroke-dasharray:none"
         id="path7044-7" />
      <path
         d="m 252.37761,524.26632 v 0.1"
         style="fill:none;stroke:#000000;stroke-width:0.167;stroke-linecap:round;stroke-linejoin:round;stroke-miterlimit:4;stroke-dasharray:none"
         id="path7046-2" />
      <path
         d="m 252.37761,524.3663 a 0.2,0.2 0 0 0 0.20349,0.19997"
         style="fill:none;stroke:#000000;stroke-width:0.167;stroke-linecap:round;stroke-linejoin:round;stroke-miterlimit:4;stroke-dasharray:none"
         id="path7048-6" />
      <path
         d="m 252.5811,504.39391 4.14912,0.0724"
         style="fill:none;stroke:#000000;stroke-width:0.167;stroke-linecap:round;stroke-linejoin:round;stroke-miterlimit:4;stroke-dasharray:none"
         id="path7052-9" />
      <path
         d="m 252.5811,504.39391 a 0.2,0.2 0 0 0 -0.20349,0.19997"
         style="fill:none;stroke:#000000;stroke-width:0.167;stroke-linecap:round;stroke-linejoin:round;stroke-miterlimit:4;stroke-dasharray:none"
         id="path7054-9" />
      <path
         d="m 61.08021,517.67127 h 191.2974"
         style="fill:none;stroke:#000000;stroke-width:0.15;stroke-linecap:round;stroke-linejoin:round;stroke-miterlimit:4;stroke-dasharray:none"
         id="path7090-2" />
      <path
         d="M 53.648599,512.12346 H 252.37704"
         style="fill:none;stroke:#000000;stroke-width:0.15;stroke-linecap:round;stroke-linejoin:round;stroke-miterlimit:4;stroke-dasharray:none"
         id="path7092-8" />
      <path
         d="M 252.37704,505.54948 H 53.648599"
         style="fill:none;stroke:#000000;stroke-width:0.15;stroke-linecap:round;stroke-linejoin:round;stroke-miterlimit:4;stroke-dasharray:none"
         id="path7094-8" />
      <path
         d="M 59.467864,514.39127 H 252.37761"
         style="fill:none;stroke:#000000;stroke-width:0.15;stroke-linecap:round;stroke-linejoin:round;stroke-miterlimit:4;stroke-dasharray:none"
         id="path7096-3" />
      <path
         d="M 252.37872,523.24203 H 61.808106"
         style="fill:none;stroke:#000000;stroke-width:0.15;stroke-linecap:round;stroke-linejoin:round;stroke-miterlimit:4;stroke-dasharray:none"
         id="path7098-8" />
      <path
         d="M 252.37978,518.77995 H 61.47225"
         style="fill:none;stroke:#000000;stroke-width:0.15;stroke-linecap:round;stroke-linejoin:round;stroke-miterlimit:4;stroke-dasharray:none"
         id="path7100-3" />
      <path
         d="M 61.808106,522.1018 H 252.37872"
         style="fill:none;stroke:#000000;stroke-width:0.15;stroke-linecap:round;stroke-linejoin:round;stroke-miterlimit:4;stroke-dasharray:none"
         id="path7102-9" />
      <path
         d="M 252.37872,521.88057 H 61.808106"
         style="fill:none;stroke:#000000;stroke-width:0.15;stroke-linecap:round;stroke-linejoin:round;stroke-miterlimit:4;stroke-dasharray:none"
         id="path7104-6" />
      <path
         d="M 61.532613,519.00087 H 252.37761"
         style="fill:none;stroke:#000000;stroke-width:0.15;stroke-linecap:round;stroke-linejoin:round;stroke-miterlimit:4;stroke-dasharray:none"
         id="path7106-1" />
      <path
         d="m 256.73022,524.1939 -4.14912,0.0724"
         style="fill:none;stroke:#000000;stroke-width:0.167;stroke-linecap:round;stroke-linejoin:round;stroke-miterlimit:4;stroke-dasharray:none"
         id="path7248-6" />
      <path
         d="m 256.73022,514.83645 -4.14912,0.007"
         style="fill:none;stroke:#000000;stroke-width:0.167;stroke-linecap:round;stroke-linejoin:round;stroke-miterlimit:4;stroke-dasharray:none"
         id="path7250-0" />
      <path
         d="m 252.37761,524.26632 h 0.20349"
         style="fill:none;stroke:#000000;stroke-width:0.167;stroke-linecap:round;stroke-linejoin:round;stroke-miterlimit:4;stroke-dasharray:none"
         id="path7254-5" />
      <path
         d="m 252.5811,524.26632 c 3.5e-4,0.03 6.4e-4,0.06 8.7e-4,0.0887 3.7e-4,0.0459 5.7e-4,0.0882 5.7e-4,0.12231 1e-5,0.0546 -4.9e-4,0.0872 -0.001,0.0889 -2e-5,5e-5 -5e-5,8e-5 -7e-5,8e-5"
         style="fill:none;stroke:#000000;stroke-width:0.167;stroke-linecap:round;stroke-linejoin:round;stroke-miterlimit:4;stroke-dasharray:none"
         id="path7260-1" />
      <path
         d="m 252.5811,504.39389 v 6.82733"
         style="fill:none;stroke:#000000;stroke-width:0.167;stroke-linecap:round;stroke-linejoin:round;stroke-miterlimit:4;stroke-dasharray:none"
         id="path7264-8" />
      <path
         d="m 252.37761,514.84376 2.5e-4,10e-6 m 0,0 h 7.5e-4 m 0,0 0.001,1e-5 m 0,0 h 0.002 m 0,0 0.002,10e-6 m 0,0 h 0.003 m 0,0 0.003,10e-6 m 0,0 0.004,10e-6 m 0,0 h 0.004 m 0,0 0.005,1e-5 m 0,0 h 0.005 m 0,0 h 0.005 m 0,0 0.006,10e-6 m 0,0 h 0.006 m 0,0 0.007,10e-6 m 0,0 h 0.007 m 0,0 0.007,10e-6 m 0,0 h 0.008 m 0,0 h 0.008 m 0,0 0.008,10e-6 m 0,0 h 0.009 m 0,0 h 0.009 m 0,0 h 0.009 m 0,0 0.009,1e-5 m 0,0 h 0.009 m 0,0 h 0.01 m 0,0 h 0.01 m 0,0 h 0.01 m 0,0 h 0.01 m 0,0 h 0.01 m 0,0 h 0.01 m 0,0 h 0.008"
         style="fill:none;stroke:#000000;stroke-width:0.167;stroke-linecap:round;stroke-linejoin:round;stroke-miterlimit:4;stroke-dasharray:none"
         id="path7266-8" />
      <path
         d="m 252.5811,524.26632 v -9.42245"
         style="fill:none;stroke:#000000;stroke-width:0.167;stroke-linecap:round;stroke-linejoin:round;stroke-miterlimit:4;stroke-dasharray:none"
         id="path7270-1" />
      <path
         d="m 252.5811,514.84387 v -3.62265"
         style="fill:none;stroke:#000000;stroke-width:0.167;stroke-linecap:round;stroke-linejoin:round;stroke-miterlimit:4;stroke-dasharray:none"
         id="path7272-2" />
      <path
         d="M 252.37743,517.52127 H 61.025883"
         style="fill:none;stroke:#000000;stroke-width:0.15;stroke-linecap:round;stroke-linejoin:round;stroke-miterlimit:4;stroke-dasharray:none"
         id="path7302-2" />
      <path
         d="M 252.3791,514.92127 H 59.869086"
         style="fill:none;stroke:#000000;stroke-width:0.15;stroke-linecap:round;stroke-linejoin:round;stroke-miterlimit:4;stroke-dasharray:none"
         id="path7304-2" />
      <path
         d="m 256.73022,511.27664 c 0.0195,2.6e-4 0.0388,0.003 0.0567,0.009 0.0179,0.006 0.0342,0.0145 0.0479,0.0251 0.0137,0.0107 0.0245,0.0233 0.0318,0.0372 0.004,0.007 0.006,0.0137 0.008,0.0208 0.002,0.007 0.003,0.0143 0.003,0.0215 1e-5,2.7e-4 1e-5,5.5e-4 1e-5,8.3e-4"
         style="fill:none;stroke:#000000;stroke-width:0.167;stroke-linecap:round;stroke-linejoin:round;stroke-miterlimit:4;stroke-dasharray:none"
         id="path7022-6" />
      <path
         d="m 256.87761,511.39142 v -6.77516"
         style="fill:none;stroke:#000000;stroke-width:0.167;stroke-linecap:round;stroke-linejoin:round;stroke-miterlimit:4;stroke-dasharray:none"
         id="path7026-5" />
      <path
         d="m 256.87761,514.83661 v -3.44519"
         style="fill:none;stroke:#000000;stroke-width:0.167;stroke-linecap:round;stroke-linejoin:round;stroke-miterlimit:4;stroke-dasharray:none"
         id="path7034-9" />
      <path
         d="M 256.87761,524.34387 V 524.1939"
         style="fill:none;stroke:#000000;stroke-width:0.167;stroke-linecap:round;stroke-linejoin:round;stroke-miterlimit:4;stroke-dasharray:none"
         id="path7036-9" />
      <path
         d="m 256.73022,524.49385 a 0.15,0.15 0 0 0 0.14739,-0.14998"
         style="fill:none;stroke:#000000;stroke-width:0.167;stroke-linecap:round;stroke-linejoin:round;stroke-miterlimit:4;stroke-dasharray:none"
         id="path7038-1" />
      <path
         d="m 256.87761,524.1939 v -9.35729"
         style="fill:none;stroke:#000000;stroke-width:0.167;stroke-linecap:round;stroke-linejoin:round;stroke-miterlimit:4;stroke-dasharray:none"
         id="path7042-9" />
      <path
         d="m 256.87761,504.61631 a 0.15,0.15 0 0 0 -0.14739,-0.14998"
         style="fill:none;stroke:#000000;stroke-width:0.167;stroke-linecap:round;stroke-linejoin:round;stroke-miterlimit:4;stroke-dasharray:none"
         id="path7050-3" />
      <path
         d="m 256.73022,514.83645 v 9.35745"
         style="fill:none;stroke:#000000;stroke-width:0.167;stroke-linecap:round;stroke-linejoin:round;stroke-miterlimit:4;stroke-dasharray:none"
         id="path7246-7" />
      <path
         d="m 256.73022,511.27664 v -6.81036"
         style="fill:none;stroke:#000000;stroke-width:0.167;stroke-linecap:round;stroke-linejoin:round;stroke-miterlimit:4;stroke-dasharray:none"
         id="path7252-5" />
      <path
         d="m 256.73022,511.27664 v 3.55981"
         style="fill:none;stroke:#000000;stroke-width:0.167;stroke-linecap:round;stroke-linejoin:round;stroke-miterlimit:4;stroke-dasharray:none"
         id="path7256-4" />
      <path
         d="m 256.87761,524.1939 h -0.14739"
         style="fill:none;stroke:#000000;stroke-width:0.167;stroke-linecap:round;stroke-linejoin:round;stroke-miterlimit:4;stroke-dasharray:none"
         id="path7258-7" />
      <path
         d="m 256.87761,514.83661 -1.9e-4,-10e-6 m 0,0 -5.6e-4,-10e-6 m 0,0 -9.4e-4,-10e-6 m 0,0 h -0.001 m 0,0 -0.002,-10e-6 m 0,0 -0.002,-1e-5 m 0,0 -0.002,-10e-6 m 0,0 h -0.003 m 0,0 -0.003,-10e-6 m 0,0 -0.003,-10e-6 m 0,0 h -0.004 m 0,0 -0.004,-1e-5 m 0,0 -0.004,-10e-6 m 0,0 h -0.005 m 0,0 -0.005,-10e-6 m 0,0 h -0.005 m 0,0 -0.006,-10e-6 m 0,0 h -0.006 m 0,0 -0.006,-10e-6 m 0,0 h -0.006 m 0,0 -0.006,-1e-5 m 0,0 h -0.007 m 0,0 h -0.007 m 0,0 -0.007,-10e-6 m 0,0 h -0.007 m 0,0 h -0.007 m 0,0 h -0.007 m 0,0 -0.007,-10e-6 m 0,0 h -0.007 m 0,0 h -0.007 m 0,0 h -0.007 m 0,0 h -5.1e-4"
         style="fill:none;stroke:#000000;stroke-width:0.167;stroke-linecap:round;stroke-linejoin:round;stroke-miterlimit:4;stroke-dasharray:none"
         id="path7262-1" />
      <path
         d="m 256.73022,524.49385 c 2.7e-4,0 4.9e-4,-0.004 6.6e-4,-0.0134 2.8e-4,-0.0142 4.3e-4,-0.0396 4.3e-4,-0.0733 0,-0.054 -3.7e-4,-0.12967 -0.001,-0.20645 -2e-5,-0.002 -4e-5,-0.005 -6e-5,-0.007"
         style="fill:none;stroke:#000000;stroke-width:0.167;stroke-linecap:round;stroke-linejoin:round;stroke-miterlimit:4;stroke-dasharray:none"
         id="path7268-8" />
    </g>
  </g>
</svg>
