<?xml version="1.0" encoding="UTF-8" standalone="no"?>
<!-- Created with Inkscape (http://www.inkscape.org/) -->

<svg
   width="201.74339mm"
   height="19.99999mm"
   viewBox="0 0 201.74339 19.999991"
   version="1.1"
   id="svg17814"
   inkscape:version="1.1 (c68e22c387, 2021-05-23)"
   sodipodi:docname="20_VLateral_TampaEncaixe.svg"
   xmlns:inkscape="http://www.inkscape.org/namespaces/inkscape"
   xmlns:sodipodi="http://sodipodi.sourceforge.net/DTD/sodipodi-0.dtd"
   xmlns="http://www.w3.org/2000/svg"
   xmlns:svg="http://www.w3.org/2000/svg">
  <sodipodi:namedview
     id="namedview17816"
     pagecolor="#ffffff"
     bordercolor="#ffffff"
     borderopacity="1"
     inkscape:pageshadow="0"
     inkscape:pageopacity="0"
     inkscape:pagecheckerboard="false"
     inkscape:document-units="mm"
     showgrid="false"
     fit-margin-top="0"
     fit-margin-left="0"
     fit-margin-right="0"
     fit-margin-bottom="0"
     inkscape:zoom="1.5048132"
     inkscape:cx="-167.46265"
     inkscape:cy="23.258701"
     inkscape:window-width="1680"
     inkscape:window-height="979"
     inkscape:window-x="1912"
     inkscape:window-y="18"
     inkscape:window-maximized="1"
     inkscape:current-layer="g65174"
     inkscape:lockguides="true" />
  <defs
     id="defs17811" />
  <g
     inkscape:label="Camada 1"
     inkscape:groupmode="layer"
     id="layer1"
     transform="translate(-228.24652,-294.48869)">
    <g
       id="g99088"
       transform="translate(238.66598,173.27495)">
      <g
         id="g65174"
         transform="translate(-61.522112,-106.21036)">
        <path
           d="M 248.33743,240.43377 H 55.610993"
           style="fill:none;stroke:#000000;stroke-width:0.167;stroke-linecap:round;stroke-linejoin:round;stroke-miterlimit:4;stroke-dasharray:none"
           id="path6686" />
        <path
           d="M 248.33743,240.58124 H 55.610993"
           style="fill:none;stroke:#000000;stroke-width:0.167;stroke-linecap:round;stroke-linejoin:round;stroke-miterlimit:4;stroke-dasharray:none"
           id="path6688" />
        <path
           d="M 55.610993,246.28365 H 248.33743"
           style="fill:none;stroke:#000000;stroke-width:0.167;stroke-linecap:round;stroke-linejoin:round;stroke-miterlimit:4;stroke-dasharray:none"
           id="path6690" />
        <path
           d="m 248.33743,237.78165 v 9.26401"
           style="fill:none;stroke:#000000;stroke-width:0.167;stroke-linecap:round;stroke-linejoin:round;stroke-miterlimit:4;stroke-dasharray:none"
           id="path7024" />
        <path
           d="m 248.53752,234.22006 4.07982,0.0545"
           style="fill:none;stroke:#000000;stroke-width:0.167;stroke-linecap:round;stroke-linejoin:round;stroke-miterlimit:4;stroke-dasharray:none"
           id="path7028" />
        <path
           d="m 248.53752,234.22006 c -0.0256,-3.4e-4 -0.051,0.003 -0.0749,0.0102 -0.0239,0.007 -0.0456,0.0177 -0.0642,0.0313 -0.0185,0.0136 -0.0334,0.0297 -0.0439,0.0476 -0.006,0.01 -0.01,0.0194 -0.0126,0.0295 -0.003,0.0101 -0.004,0.0205 -0.005,0.0308 0,3.6e-4 0,7.3e-4 0,9.8e-4"
           style="fill:none;stroke:#000000;stroke-width:0.167;stroke-linecap:round;stroke-linejoin:round;stroke-miterlimit:4;stroke-dasharray:none"
           id="path7030" />
        <path
           d="m 248.53752,247.34056 4.07982,-0.0712"
           style="fill:none;stroke:#000000;stroke-width:0.167;stroke-linecap:round;stroke-linejoin:round;stroke-miterlimit:4;stroke-dasharray:none"
           id="path7032" />
        <path
           d="m 248.33743,227.70422 v 6.6663"
           style="fill:none;stroke:#000000;stroke-width:0.167;stroke-linecap:round;stroke-linejoin:round;stroke-miterlimit:4;stroke-dasharray:none"
           id="path7040" />
        <path
           d="m 248.33743,234.37052 v 3.41113"
           style="fill:none;stroke:#000000;stroke-width:0.167;stroke-linecap:round;stroke-linejoin:round;stroke-miterlimit:4;stroke-dasharray:none"
           id="path7044" />
        <path
           d="m 248.33743,247.04566 v 0.0983"
           style="fill:none;stroke:#000000;stroke-width:0.167;stroke-linecap:round;stroke-linejoin:round;stroke-miterlimit:4;stroke-dasharray:none"
           id="path7046" />
        <path
           d="m 248.33743,247.14396 a 0.19665962,0.19663471 0 0 0 0.20009,0.1966"
           style="fill:none;stroke:#000000;stroke-width:0.167;stroke-linecap:round;stroke-linejoin:round;stroke-miterlimit:4;stroke-dasharray:none"
           id="path7048" />
        <path
           d="m 248.53752,227.50763 4.07982,0.0712"
           style="fill:none;stroke:#000000;stroke-width:0.167;stroke-linecap:round;stroke-linejoin:round;stroke-miterlimit:4;stroke-dasharray:none"
           id="path7052" />
        <path
           d="m 248.53752,227.50763 a 0.19665962,0.19663471 0 0 0 -0.20009,0.19661"
           style="fill:none;stroke:#000000;stroke-width:0.167;stroke-linecap:round;stroke-linejoin:round;stroke-miterlimit:4;stroke-dasharray:none"
           id="path7054" />
        <path
           d="m 55.610993,247.04566 v 0.0983"
           style="fill:none;stroke:#000000;stroke-width:0.167;stroke-linecap:round;stroke-linejoin:round;stroke-miterlimit:4;stroke-dasharray:none"
           id="path7056" />
        <path
           d="m 55.410902,247.34056 -4.079832,-0.0712"
           style="fill:none;stroke:#000000;stroke-width:0.167;stroke-linecap:round;stroke-linejoin:round;stroke-miterlimit:4;stroke-dasharray:none"
           id="path7058" />
        <path
           d="m 55.610993,234.37052 v 3.41113"
           style="fill:none;stroke:#000000;stroke-width:0.167;stroke-linecap:round;stroke-linejoin:round;stroke-miterlimit:4;stroke-dasharray:none"
           id="path7060" />
        <path
           d="m 55.610993,237.78165 v 9.26401"
           style="fill:none;stroke:#000000;stroke-width:0.167;stroke-linecap:round;stroke-linejoin:round;stroke-miterlimit:4;stroke-dasharray:none"
           id="path7062" />
        <path
           d="m 55.410902,247.34056 a 0.19665962,0.19663471 0 0 0 0.200091,-0.1966"
           style="fill:none;stroke:#000000;stroke-width:0.167;stroke-linecap:round;stroke-linejoin:round;stroke-miterlimit:4;stroke-dasharray:none"
           id="path7064" />
        <path
           d="m 51.186152,246.97446 v -9.19984"
           style="fill:none;stroke:#000000;stroke-width:0.167;stroke-linecap:round;stroke-linejoin:round;stroke-miterlimit:4;stroke-dasharray:none"
           id="path7066" />
        <path
           d="m 55.410902,234.22006 -4.079832,0.0545"
           style="fill:none;stroke:#000000;stroke-width:0.167;stroke-linecap:round;stroke-linejoin:round;stroke-miterlimit:4;stroke-dasharray:none"
           id="path7068" />
        <path
           d="m 51.33107,234.27455 c -0.01917,2.5e-4 -0.03815,0.003 -0.05575,0.009 -0.0176,0.006 -0.03363,0.0143 -0.0471,0.0247 -0.01347,0.0105 -0.02409,0.0229 -0.03127,0.0366 -0.0039,0.007 -0.0059,0.0135 -0.0079,0.0205 -0.002,0.007 -0.0029,0.0141 -0.0029,0.0211 0,2.6e-4 0,5.4e-4 0,8.1e-4"
           style="fill:none;stroke:#000000;stroke-width:0.167;stroke-linecap:round;stroke-linejoin:round;stroke-miterlimit:4;stroke-dasharray:none"
           id="path7070" />
        <path
           d="M 51.186152,237.77462 V 234.3874"
           style="fill:none;stroke:#000000;stroke-width:0.167;stroke-linecap:round;stroke-linejoin:round;stroke-miterlimit:4;stroke-dasharray:none"
           id="path7072" />
        <path
           d="m 51.186152,234.3874 v -6.66116"
           style="fill:none;stroke:#000000;stroke-width:0.167;stroke-linecap:round;stroke-linejoin:round;stroke-miterlimit:4;stroke-dasharray:none"
           id="path7074" />
        <path
           d="m 55.410902,234.22006 c 0.02557,-3.4e-4 0.05103,0.003 0.07493,0.0102 0.02389,0.007 0.04562,0.0177 0.06421,0.0313 0.01858,0.0136 0.03343,0.0297 0.04386,0.0476 0.0059,0.01 0.0098,0.0194 0.01259,0.0295 0.003,0.0101 0.0039,0.0205 0.0049,0.0308 0,3.6e-4 10e-6,7.3e-4 10e-6,9.8e-4"
           style="fill:none;stroke:#000000;stroke-width:0.167;stroke-linecap:round;stroke-linejoin:round;stroke-miterlimit:4;stroke-dasharray:none"
           id="path7076" />
        <path
           d="m 51.186152,247.1219 v -0.14744"
           style="fill:none;stroke:#000000;stroke-width:0.167;stroke-linecap:round;stroke-linejoin:round;stroke-miterlimit:4;stroke-dasharray:none"
           id="path7078" />
        <path
           d="m 51.186152,247.1219 a 0.14749472,0.14747603 0 0 0 0.144918,0.14746"
           style="fill:none;stroke:#000000;stroke-width:0.167;stroke-linecap:round;stroke-linejoin:round;stroke-miterlimit:4;stroke-dasharray:none"
           id="path7080" />
        <path
           d="m 55.610993,227.70422 v 6.6663"
           style="fill:none;stroke:#000000;stroke-width:0.167;stroke-linecap:round;stroke-linejoin:round;stroke-miterlimit:4;stroke-dasharray:none"
           id="path7082" />
        <path
           d="m 51.33107,227.57883 4.079832,-0.0712"
           style="fill:none;stroke:#000000;stroke-width:0.167;stroke-linecap:round;stroke-linejoin:round;stroke-miterlimit:4;stroke-dasharray:none"
           id="path7084" />
        <path
           d="m 55.610993,227.70424 a 0.19665962,0.19663471 0 0 0 -0.200091,-0.19661"
           style="fill:none;stroke:#000000;stroke-width:0.167;stroke-linecap:round;stroke-linejoin:round;stroke-miterlimit:4;stroke-dasharray:none"
           id="path7086" />
        <path
           d="m 51.33107,227.57883 a 0.14749472,0.14747603 0 0 0 -0.144918,0.14746"
           style="fill:none;stroke:#000000;stroke-width:0.167;stroke-linecap:round;stroke-linejoin:round;stroke-miterlimit:4;stroke-dasharray:none"
           id="path7088" />
        <path
           d="M 55.610993,240.56158 H 248.33743"
           style="fill:none;stroke:#000000;stroke-width:0.167;stroke-linecap:round;stroke-linejoin:round;stroke-miterlimit:4;stroke-dasharray:none"
           id="path7090" />
        <path
           d="M 55.610993,235.10768 H 248.33743"
           style="fill:none;stroke:#000000;stroke-width:0.167;stroke-linecap:round;stroke-linejoin:round;stroke-miterlimit:4;stroke-dasharray:none"
           id="path7092" />
        <path
           d="M 248.33743,228.6432 H 55.610993"
           style="fill:none;stroke:#000000;stroke-width:0.167;stroke-linecap:round;stroke-linejoin:round;stroke-miterlimit:4;stroke-dasharray:none"
           id="path7094" />
        <path
           d="M 55.610993,237.33677 H 248.33743"
           style="fill:none;stroke:#000000;stroke-width:0.167;stroke-linecap:round;stroke-linejoin:round;stroke-miterlimit:4;stroke-dasharray:none"
           id="path7096" />
        <path
           d="M 248.33743,246.03786 H 55.610993"
           style="fill:none;stroke:#000000;stroke-width:0.167;stroke-linecap:round;stroke-linejoin:round;stroke-miterlimit:4;stroke-dasharray:none"
           id="path7098" />
        <path
           d="M 248.33743,241.6516 H 55.610993"
           style="fill:none;stroke:#000000;stroke-width:0.167;stroke-linecap:round;stroke-linejoin:round;stroke-miterlimit:4;stroke-dasharray:none"
           id="path7100" />
        <path
           d="M 55.610993,244.91835 H 248.33743"
           style="fill:none;stroke:#000000;stroke-width:0.167;stroke-linecap:round;stroke-linejoin:round;stroke-miterlimit:4;stroke-dasharray:none"
           id="path7102" />
        <path
           d="M 248.33743,244.70114 H 55.610993"
           style="fill:none;stroke:#000000;stroke-width:0.167;stroke-linecap:round;stroke-linejoin:round;stroke-miterlimit:4;stroke-dasharray:none"
           id="path7104" />
        <path
           d="M 55.610993,241.86881 H 248.33743"
           style="fill:none;stroke:#000000;stroke-width:0.167;stroke-linecap:round;stroke-linejoin:round;stroke-miterlimit:4;stroke-dasharray:none"
           id="path7106" />
        <path
           d="m 252.61734,246.97446 -4.07982,0.0712"
           style="fill:none;stroke:#000000;stroke-width:0.167;stroke-linecap:round;stroke-linejoin:round;stroke-miterlimit:4;stroke-dasharray:none"
           id="path7248" />
        <path
           d="m 252.61734,237.77446 -4.07982,0.007"
           style="fill:none;stroke:#000000;stroke-width:0.167;stroke-linecap:round;stroke-linejoin:round;stroke-miterlimit:4;stroke-dasharray:none"
           id="path7250" />
        <path
           d="m 248.33743,247.04566 h 0.20009"
           style="fill:none;stroke:#000000;stroke-width:0.167;stroke-linecap:round;stroke-linejoin:round;stroke-miterlimit:4;stroke-dasharray:none"
           id="path7254" />
        <path
           d="m 248.53752,247.04566 c 3.5e-4,0.0295 6.3e-4,0.059 8.6e-4,0.0872 3.6e-4,0.0451 5.6e-4,0.0867 5.6e-4,0.12025 1e-5,0.0537 -4.8e-4,0.0857 -9.9e-4,0.0874 -1e-5,5e-5 -4e-5,8e-5 -6e-5,8e-5"
           style="fill:none;stroke:#000000;stroke-width:0.167;stroke-linecap:round;stroke-linejoin:round;stroke-miterlimit:4;stroke-dasharray:none"
           id="path7260" />
        <path
           d="m 248.53752,227.50761 v 6.71245"
           style="fill:none;stroke:#000000;stroke-width:0.167;stroke-linecap:round;stroke-linejoin:round;stroke-miterlimit:4;stroke-dasharray:none"
           id="path7264" />
        <path
           d="m 248.33743,237.78165 2.5e-4,10e-6 m 0,0 h 7.3e-4 m 0,0 9.9e-4,1e-5 m 0,0 h 0.002 m 0,0 0.002,1e-5 m 0,0 h 0.003 m 0,0 0.003,1e-5 m 0,0 0.004,1e-5 m 0,0 h 0.004 m 0,0 0.005,1e-5 m 0,0 h 0.005 m 0,0 h 0.005 m 0,0 0.006,1e-5 m 0,0 h 0.006 m 0,0 0.007,1e-5 m 0,0 h 0.007 m 0,0 h 0.007 m 0,0 h 0.008 m 0,0 h 0.008 m 0,0 0.008,1e-5 m 0,0 h 0.009 m 0,0 h 0.009 m 0,0 h 0.009 m 0,0 0.009,10e-6 m 0,0 h 0.009 m 0,0 h 0.01 m 0,0 h 0.01 m 0,0 h 0.01 m 0,0 h 0.01 m 0,0 h 0.01 m 0,0 h 0.01 m 0,0 h 0.008"
           style="fill:none;stroke:#000000;stroke-width:0.167;stroke-linecap:round;stroke-linejoin:round;stroke-miterlimit:4;stroke-dasharray:none"
           id="path7266" />
        <path
           d="m 248.53752,247.04566 v -9.26391"
           style="fill:none;stroke:#000000;stroke-width:0.167;stroke-linecap:round;stroke-linejoin:round;stroke-miterlimit:4;stroke-dasharray:none"
           id="path7270" />
        <path
           d="m 248.53752,237.78175 v -3.56169"
           style="fill:none;stroke:#000000;stroke-width:0.167;stroke-linecap:round;stroke-linejoin:round;stroke-miterlimit:4;stroke-dasharray:none"
           id="path7272" />
        <path
           d="m 55.410902,237.78175 h 0.0098 m 0,0 h 0.0098 m 0,0 h 0.0098 m 0,0 h 0.0098 m 0,0 h 0.0098 m 0,0 h 0.0098 m 0,0 h 0.0098 m 0,0 0.0088,-10e-6 m 0,0 h 0.0088 m 0,0 h 0.0088 m 0,0 h 0.0089 m 0,0 0.0079,-1e-5 m 0,0 h 0.0079 m 0,0 h 0.0079 m 0,0 h 0.0079 m 0,0 h 0.0069 m 0,0 h 0.0069 m 0,0 0.0069,-1e-5 m 0,0 h 0.0059 m 0,0 0.0059,-1e-5 m 0,0 h 0.0049 m 0,0 0.0049,-1e-5 m 0,0 h 0.0039 m 0,0 0.0039,-1e-5 m 0,0 h 0.0039 m 0,0 0.0029,-1e-5 m 0,0 h 0.0029 m 0,0 0.002,-1e-5 m 0,0 h 0.002 m 0,0 9.84e-4,-1e-5 m 0,0 h 6.19e-4 m 0,0 1.48e-4,-10e-6"
           style="fill:none;stroke:#000000;stroke-width:0.167;stroke-linecap:round;stroke-linejoin:round;stroke-miterlimit:4;stroke-dasharray:none"
           id="path7274" />
        <path
           d="m 51.33107,237.77446 h -0.0069 m 0,0 h -0.0069 m 0,0 h -0.0069 m 0,0 h -0.0069 m 0,0 -0.0069,1e-5 m 0,0 h -0.0069 m 0,0 h -0.0069 m 0,0 h -0.0069 m 0,0 -0.0069,1e-5 m 0,0 h -0.0069 m 0,0 -0.0059,10e-6 m 0,0 h -0.0059 m 0,0 h -0.0059 m 0,0 -0.0059,1e-5 m 0,0 -0.0059,1e-5 m 0,0 h -0.0049 m 0,0 -0.0049,1e-5 m 0,0 h -0.0049 m 0,0 -0.0039,1e-5 m 0,0 -0.0039,1e-5 m 0,0 h -0.0039 m 0,0 -0.0029,1e-5 m 0,0 -0.003,1e-5 m 0,0 h -0.0029 m 0,0 -0.002,1e-5 m 0,0 -0.002,10e-6 m 0,0 -0.002,1e-5 m 0,0 h -9.83e-4 m 0,0 -9.44e-4,1e-5 m 0,0 -5.8e-4,1e-5 m 0,0 -2.07e-4,1e-5 m 0,0 v 0"
           style="fill:none;stroke:#000000;stroke-width:0.167;stroke-linecap:round;stroke-linejoin:round;stroke-miterlimit:4;stroke-dasharray:none"
           id="path7276" />
        <path
           d="m 51.33107,247.26936 c -2.55e-4,0 -4.82e-4,-0.004 -6.49e-4,-0.0132 -2.65e-4,-0.014 -4.13e-4,-0.0389 -4.23e-4,-0.0721 0,-0.0531 3.74e-4,-0.12749 9.84e-4,-0.20298 1.9e-5,-0.002 3.9e-5,-0.005 5.9e-5,-0.007"
           style="fill:none;stroke:#000000;stroke-width:0.167;stroke-linecap:round;stroke-linejoin:round;stroke-miterlimit:4;stroke-dasharray:none"
           id="path7278" />
        <path
           d="m 51.33107,234.27455 v 3.49991"
           style="fill:none;stroke:#000000;stroke-width:0.167;stroke-linecap:round;stroke-linejoin:round;stroke-miterlimit:4;stroke-dasharray:none"
           id="path7280" />
        <path
           d="m 55.410902,247.04566 c -3.44e-4,0.0295 -6.39e-4,0.059 -8.65e-4,0.0872 -3.64e-4,0.0451 -5.51e-4,0.0867 -5.61e-4,0.12025 -10e-6,0.0537 4.92e-4,0.0857 9.83e-4,0.0874 2e-5,5e-5 5e-5,8e-5 7.9e-5,8e-5"
           style="fill:none;stroke:#000000;stroke-width:0.167;stroke-linecap:round;stroke-linejoin:round;stroke-miterlimit:4;stroke-dasharray:none"
           id="path7282" />
        <path
           d="M 55.610993,247.04566 H 55.410902"
           style="fill:none;stroke:#000000;stroke-width:0.167;stroke-linecap:round;stroke-linejoin:round;stroke-miterlimit:4;stroke-dasharray:none"
           id="path7284" />
        <path
           d="m 51.33107,246.97446 4.079832,0.0712"
           style="fill:none;stroke:#000000;stroke-width:0.167;stroke-linecap:round;stroke-linejoin:round;stroke-miterlimit:4;stroke-dasharray:none"
           id="path7286" />
        <path
           d="m 51.33107,234.27455 v -6.69577"
           style="fill:none;stroke:#000000;stroke-width:0.167;stroke-linecap:round;stroke-linejoin:round;stroke-miterlimit:4;stroke-dasharray:none"
           id="path7288" />
        <path
           d="m 55.410902,247.04566 v -9.26391"
           style="fill:none;stroke:#000000;stroke-width:0.167;stroke-linecap:round;stroke-linejoin:round;stroke-miterlimit:4;stroke-dasharray:none"
           id="path7290" />
        <path
           d="m 55.410902,237.78175 v -3.56169"
           style="fill:none;stroke:#000000;stroke-width:0.167;stroke-linecap:round;stroke-linejoin:round;stroke-miterlimit:4;stroke-dasharray:none"
           id="path7292" />
        <path
           d="m 51.33107,237.77446 v 9.2"
           style="fill:none;stroke:#000000;stroke-width:0.167;stroke-linecap:round;stroke-linejoin:round;stroke-miterlimit:4;stroke-dasharray:none"
           id="path7294" />
        <path
           d="M 51.186152,246.97446 H 51.33107"
           style="fill:none;stroke:#000000;stroke-width:0.167;stroke-linecap:round;stroke-linejoin:round;stroke-miterlimit:4;stroke-dasharray:none"
           id="path7296" />
        <path
           d="m 55.410902,227.50761 v 6.71245"
           style="fill:none;stroke:#000000;stroke-width:0.167;stroke-linecap:round;stroke-linejoin:round;stroke-miterlimit:4;stroke-dasharray:none"
           id="path7298" />
        <path
           d="m 51.33107,237.77446 4.079832,0.007"
           style="fill:none;stroke:#000000;stroke-width:0.167;stroke-linecap:round;stroke-linejoin:round;stroke-miterlimit:4;stroke-dasharray:none"
           id="path7300" />
        <path
           d="M 248.33743,240.4141 H 55.610993"
           style="fill:none;stroke:#000000;stroke-width:0.167;stroke-linecap:round;stroke-linejoin:round;stroke-miterlimit:4;stroke-dasharray:none"
           id="path7302" />
        <path
           d="M 248.33743,237.85785 H 55.610993"
           style="fill:none;stroke:#000000;stroke-width:0.167;stroke-linecap:round;stroke-linejoin:round;stroke-miterlimit:4;stroke-dasharray:none"
           id="path7304" />
        <path
           d="m 252.61734,234.27455 c 0.0192,2.5e-4 0.0382,0.003 0.0558,0.009 0.0176,0.006 0.0336,0.0143 0.0471,0.0247 0.0135,0.0105 0.0241,0.0229 0.0313,0.0366 0.004,0.007 0.006,0.0135 0.008,0.0205 0.002,0.007 0.003,0.0141 0.003,0.0211 1e-5,2.6e-4 1e-5,5.4e-4 1e-5,8.1e-4"
           style="fill:none;stroke:#000000;stroke-width:0.167;stroke-linecap:round;stroke-linejoin:round;stroke-miterlimit:4;stroke-dasharray:none"
           id="path7022" />
        <path
           d="m 252.76227,234.3874 v -6.66116"
           style="fill:none;stroke:#000000;stroke-width:0.167;stroke-linecap:round;stroke-linejoin:round;stroke-miterlimit:4;stroke-dasharray:none"
           id="path7026" />
        <path
           d="M 252.76227,237.77462 V 234.3874"
           style="fill:none;stroke:#000000;stroke-width:0.167;stroke-linecap:round;stroke-linejoin:round;stroke-miterlimit:4;stroke-dasharray:none"
           id="path7034" />
        <path
           d="m 252.76227,247.1219 v -0.14744"
           style="fill:none;stroke:#000000;stroke-width:0.167;stroke-linecap:round;stroke-linejoin:round;stroke-miterlimit:4;stroke-dasharray:none"
           id="path7036" />
        <path
           d="m 252.61734,247.26936 a 0.14749472,0.14747603 0 0 0 0.14493,-0.14746"
           style="fill:none;stroke:#000000;stroke-width:0.167;stroke-linecap:round;stroke-linejoin:round;stroke-miterlimit:4;stroke-dasharray:none"
           id="path7038" />
        <path
           d="m 252.76227,246.97446 v -9.19984"
           style="fill:none;stroke:#000000;stroke-width:0.167;stroke-linecap:round;stroke-linejoin:round;stroke-miterlimit:4;stroke-dasharray:none"
           id="path7042" />
        <path
           d="m 252.76227,227.72629 a 0.14749472,0.14747603 0 0 0 -0.14493,-0.14746"
           style="fill:none;stroke:#000000;stroke-width:0.167;stroke-linecap:round;stroke-linejoin:round;stroke-miterlimit:4;stroke-dasharray:none"
           id="path7050" />
        <path
           d="m 252.61734,237.77446 v 9.2"
           style="fill:none;stroke:#000000;stroke-width:0.167;stroke-linecap:round;stroke-linejoin:round;stroke-miterlimit:4;stroke-dasharray:none"
           id="path7246" />
        <path
           d="m 252.61734,234.27455 v -6.69577"
           style="fill:none;stroke:#000000;stroke-width:0.167;stroke-linecap:round;stroke-linejoin:round;stroke-miterlimit:4;stroke-dasharray:none"
           id="path7252" />
        <path
           d="m 252.61734,234.27455 v 3.49991"
           style="fill:none;stroke:#000000;stroke-width:0.167;stroke-linecap:round;stroke-linejoin:round;stroke-miterlimit:4;stroke-dasharray:none"
           id="path7256" />
        <path
           d="m 252.76227,246.97446 h -0.14493"
           style="fill:none;stroke:#000000;stroke-width:0.167;stroke-linecap:round;stroke-linejoin:round;stroke-miterlimit:4;stroke-dasharray:none"
           id="path7258" />
        <path
           d="m 252.76227,237.77462 -1.8e-4,-1e-5 m 0,0 -5.6e-4,-1e-5 m 0,0 -9.2e-4,-1e-5 m 0,0 h -9.8e-4 m 0,0 -0.002,-1e-5 m 0,0 -0.002,-10e-6 m 0,0 -0.002,-1e-5 m 0,0 h -0.003 m 0,0 -0.003,-1e-5 m 0,0 -0.003,-1e-5 m 0,0 h -0.004 m 0,0 -0.004,-1e-5 m 0,0 -0.004,-1e-5 m 0,0 h -0.005 m 0,0 -0.005,-1e-5 m 0,0 h -0.005 m 0,0 -0.006,-1e-5 m 0,0 h -0.006 m 0,0 -0.006,-1e-5 m 0,0 h -0.006 m 0,0 -0.006,-10e-6 m 0,0 h -0.007 m 0,0 h -0.007 m 0,0 -0.007,-1e-5 m 0,0 h -0.007 m 0,0 h -0.007 m 0,0 h -0.007 m 0,0 -0.007,-1e-5 m 0,0 h -0.007 m 0,0 h -0.007 m 0,0 h -0.007 m 0,0 h -5e-4"
           style="fill:none;stroke:#000000;stroke-width:0.167;stroke-linecap:round;stroke-linejoin:round;stroke-miterlimit:4;stroke-dasharray:none"
           id="path7262" />
        <path
           d="m 252.61734,247.26936 c 2.7e-4,0 4.9e-4,-0.004 6.5e-4,-0.0132 2.8e-4,-0.014 4.3e-4,-0.0389 4.3e-4,-0.0721 0,-0.0531 -3.7e-4,-0.12749 -9.9e-4,-0.20298 -2e-5,-0.002 -4e-5,-0.005 -6e-5,-0.007"
           style="fill:none;stroke:#000000;stroke-width:0.167;stroke-linecap:round;stroke-linejoin:round;stroke-miterlimit:4;stroke-dasharray:none"
           id="path7268" />
      </g>
    </g>
  </g>
</svg>
