<?xml version="1.0" encoding="UTF-8" standalone="no"?>
<!-- Created with Inkscape (http://www.inkscape.org/) -->

<svg
   width="19mm"
   height="39.692844mm"
   viewBox="0 0 19 39.692845"
   version="1.1"
   id="svg17245"
   inkscape:version="1.1 (c68e22c387, 2021-05-23)"
   sodipodi:docname="20_VTopo_SaidaTras.svg"
   xmlns:inkscape="http://www.inkscape.org/namespaces/inkscape"
   xmlns:sodipodi="http://sodipodi.sourceforge.net/DTD/sodipodi-0.dtd"
   xmlns="http://www.w3.org/2000/svg"
   xmlns:svg="http://www.w3.org/2000/svg">
  <sodipodi:namedview
     id="namedview17247"
     pagecolor="#ffffff"
     bordercolor="#ffffff"
     borderopacity="1"
     inkscape:pageshadow="0"
     inkscape:pageopacity="0"
     inkscape:pagecheckerboard="false"
     inkscape:document-units="mm"
     showgrid="false"
     fit-margin-top="0"
     fit-margin-left="0"
     fit-margin-right="0"
     fit-margin-bottom="0"
     inkscape:zoom="2.8284271"
     inkscape:cx="22.627417"
     inkscape:cy="86.267027"
     inkscape:window-width="1920"
     inkscape:window-height="1009"
     inkscape:window-x="-8"
     inkscape:window-y="-8"
     inkscape:window-maximized="1"
     inkscape:current-layer="g98804"
     showguides="true"
     inkscape:guide-bbox="true" />
  <defs
     id="defs17242" />
  <g
     inkscape:label="Camada 1"
     inkscape:groupmode="layer"
     id="layer1"
     transform="translate(-167.55218,-175.06885)">
    <g
       id="g98804"
       transform="translate(-19.173125,65.246727)">
      <g
         id="g81177"
         transform="translate(-274.31557,51.18089)">
        <path
           style="fill:none;stroke:#000000;stroke-width:0.15;stroke-linejoin:round;stroke-miterlimit:4;stroke-dasharray:none;paint-order:stroke markers fill"
           d="m 468.90335,78.322384 v 20"
           id="path853-4-3" />
        <path
           style="fill:none;stroke:#000000;stroke-width:0.15;stroke-linejoin:round;stroke-miterlimit:4;stroke-dasharray:none;paint-order:stroke markers fill"
           d="m 472.35278,98.322384 v -20"
           id="path855-5-2" />
        <path
           style="fill:none;stroke:#000000;stroke-width:0.15;stroke-linejoin:round;stroke-miterlimit:4;stroke-dasharray:none;paint-order:stroke markers fill"
           d="m 470.59373,78.334077 v 20"
           id="path857-3-9" />
      </g>
      <g
         id="g1230"
         transform="translate(-20.704251,-24.060237)">
        <path
           d="m 222.98025,150.73385 h -0.59016"
           style="fill:none;stroke:#000000;stroke-width:0.167;stroke-linecap:round;stroke-linejoin:round;stroke-miterlimit:4;stroke-dasharray:none"
           id="path8056-2" />
        <path
           d="m 223.66877,149.45516 v 0.59016"
           style="fill:none;stroke:#000000;stroke-width:0.167;stroke-linecap:round;stroke-linejoin:round;stroke-miterlimit:4;stroke-dasharray:none"
           id="path8062-7" />
        <path
           d="m 222.39009,149.45516 v -0.68853"
           style="fill:none;stroke:#000000;stroke-width:0.167;stroke-linecap:round;stroke-linejoin:round;stroke-miterlimit:4;stroke-dasharray:none"
           id="path8070-5" />
        <path
           d="m 221.70157,150.04532 v -0.59016"
           style="fill:none;stroke:#000000;stroke-width:0.167;stroke-linecap:round;stroke-linejoin:round;stroke-miterlimit:4;stroke-dasharray:none"
           id="path8072-5" />
        <path
           d="m 222.39009,148.76663 h 0.59016"
           style="fill:none;stroke:#000000;stroke-width:0.167;stroke-linecap:round;stroke-linejoin:round;stroke-miterlimit:4;stroke-dasharray:none"
           id="path8082-5" />
        <path
           d="m 222.39009,150.73385 v -0.68853"
           style="fill:none;stroke:#000000;stroke-width:0.167;stroke-linecap:round;stroke-linejoin:round;stroke-miterlimit:4;stroke-dasharray:none"
           id="path8084-4" />
        <path
           d="m 222.98025,150.04532 v 0.68853"
           style="fill:none;stroke:#000000;stroke-width:0.167;stroke-linecap:round;stroke-linejoin:round;stroke-miterlimit:4;stroke-dasharray:none"
           id="path8086-4" />
        <ellipse
           cx="222.68517"
           cy="-149.75023"
           style="fill:none;stroke:#000000;stroke-width:0.167;stroke-linecap:round;stroke-linejoin:round;stroke-miterlimit:4;stroke-dasharray:none"
           id="circle8102-5"
           transform="scale(1,-1)"
           rx="1.4262247"
           ry="1.4262352" />
        <path
           d="m 222.98025,149.45516 h 0.68852"
           style="fill:none;stroke:#000000;stroke-width:0.167;stroke-linecap:round;stroke-linejoin:round;stroke-miterlimit:4;stroke-dasharray:none"
           id="path8106-7" />
        <path
           d="m 222.98025,148.76663 v 0.68853"
           style="fill:none;stroke:#000000;stroke-width:0.167;stroke-linecap:round;stroke-linejoin:round;stroke-miterlimit:4;stroke-dasharray:none"
           id="path8110-4" />
        <path
           d="m 223.66877,150.04532 h -0.68852"
           style="fill:none;stroke:#000000;stroke-width:0.167;stroke-linecap:round;stroke-linejoin:round;stroke-miterlimit:4;stroke-dasharray:none"
           id="path8112-9" />
        <path
           d="m 221.70157,149.45516 h 0.68852"
           style="fill:none;stroke:#000000;stroke-width:0.167;stroke-linecap:round;stroke-linejoin:round;stroke-miterlimit:4;stroke-dasharray:none"
           id="path8114-2" />
        <path
           d="m 222.39009,150.04532 h -0.68852"
           style="fill:none;stroke:#000000;stroke-width:0.167;stroke-linecap:round;stroke-linejoin:round;stroke-miterlimit:4;stroke-dasharray:none"
           id="path8116-3" />
        <path
           d="m 212.16061,149.45516 v 0.59016"
           style="fill:none;stroke:#000000;stroke-width:0.167;stroke-linecap:round;stroke-linejoin:round;stroke-miterlimit:4;stroke-dasharray:none"
           id="path8130-3" />
        <path
           d="m 210.88193,148.76663 h 0.59016"
           style="fill:none;stroke:#000000;stroke-width:0.167;stroke-linecap:round;stroke-linejoin:round;stroke-miterlimit:4;stroke-dasharray:none"
           id="path8136-2" />
        <path
           d="m 210.88193,150.04532 h -0.68852"
           style="fill:none;stroke:#000000;stroke-width:0.167;stroke-linecap:round;stroke-linejoin:round;stroke-miterlimit:4;stroke-dasharray:none"
           id="path8144-0" />
        <path
           d="m 211.47209,150.73385 h -0.59016"
           style="fill:none;stroke:#000000;stroke-width:0.167;stroke-linecap:round;stroke-linejoin:round;stroke-miterlimit:4;stroke-dasharray:none"
           id="path8146-8" />
        <path
           d="m 210.19341,150.04532 v -0.59016"
           style="fill:none;stroke:#000000;stroke-width:0.167;stroke-linecap:round;stroke-linejoin:round;stroke-miterlimit:4;stroke-dasharray:none"
           id="path8156-0" />
        <path
           d="m 212.16061,150.04532 h -0.68852"
           style="fill:none;stroke:#000000;stroke-width:0.167;stroke-linecap:round;stroke-linejoin:round;stroke-miterlimit:4;stroke-dasharray:none"
           id="path8158-8" />
        <path
           d="m 211.47209,149.45516 h 0.68852"
           style="fill:none;stroke:#000000;stroke-width:0.167;stroke-linecap:round;stroke-linejoin:round;stroke-miterlimit:4;stroke-dasharray:none"
           id="path8160-5" />
        <ellipse
           cx="211.17702"
           cy="-149.75023"
           style="fill:none;stroke:#000000;stroke-width:0.167;stroke-linecap:round;stroke-linejoin:round;stroke-miterlimit:4;stroke-dasharray:none"
           id="circle8176-7"
           transform="scale(1,-1)"
           rx="1.4262247"
           ry="1.4262352" />
        <path
           d="m 210.88193,149.45516 v -0.68853"
           style="fill:none;stroke:#000000;stroke-width:0.167;stroke-linecap:round;stroke-linejoin:round;stroke-miterlimit:4;stroke-dasharray:none"
           id="path8180-4" />
        <path
           d="m 210.19341,149.45516 h 0.68852"
           style="fill:none;stroke:#000000;stroke-width:0.167;stroke-linecap:round;stroke-linejoin:round;stroke-miterlimit:4;stroke-dasharray:none"
           id="path8184-2" />
        <path
           d="m 211.47209,148.76663 v 0.68853"
           style="fill:none;stroke:#000000;stroke-width:0.167;stroke-linecap:round;stroke-linejoin:round;stroke-miterlimit:4;stroke-dasharray:none"
           id="path8186-7" />
        <path
           d="m 210.88193,150.73385 v -0.68853"
           style="fill:none;stroke:#000000;stroke-width:0.167;stroke-linecap:round;stroke-linejoin:round;stroke-miterlimit:4;stroke-dasharray:none"
           id="path8188-6" />
        <path
           d="m 211.47209,150.04532 v 0.68853"
           style="fill:none;stroke:#000000;stroke-width:0.167;stroke-linecap:round;stroke-linejoin:round;stroke-miterlimit:4;stroke-dasharray:none"
           id="path8190-7" />
        <ellipse
           cx="222.68517"
           cy="-149.75023"
           style="fill:none;stroke:#000000;stroke-width:0.167;stroke-linecap:round;stroke-linejoin:round;stroke-miterlimit:4;stroke-dasharray:none"
           id="circle8250-4"
           transform="scale(1,-1)"
           rx="1.4262247"
           ry="1.4262352" />
        <ellipse
           cx="211.17702"
           cy="-149.75023"
           style="fill:none;stroke:#000000;stroke-width:0.167;stroke-linecap:round;stroke-linejoin:round;stroke-miterlimit:4;stroke-dasharray:none"
           id="circle8324-6"
           transform="scale(1,-1)"
           rx="1.4262247"
           ry="1.4262352" />
        <path
           d="m 209.24763,140.73582 0.095,0.11289"
           style="fill:none;stroke:#000000;stroke-width:0.167;stroke-linecap:round;stroke-linejoin:round;stroke-miterlimit:4;stroke-dasharray:none"
           id="path8340-4" />
        <path
           d="m 226.34603,153.50859 h 3e-5"
           style="fill:none;stroke:#000000;stroke-width:0.167;stroke-linecap:round;stroke-linejoin:round;stroke-miterlimit:4;stroke-dasharray:none"
           id="path8342-2" />
        <path
           d="m 209.20177,140.6813 0.0459,0.0545"
           style="fill:none;stroke:#000000;stroke-width:0.167;stroke-linecap:round;stroke-linejoin:round;stroke-miterlimit:4;stroke-dasharray:none"
           id="path8344-0" />
        <path
           d="m 207.51306,153.5126 h 3e-5"
           style="fill:none;stroke:#000000;stroke-width:0.167;stroke-linecap:round;stroke-linejoin:round;stroke-miterlimit:4;stroke-dasharray:none"
           id="path8346-8" />
        <path
           d="m 226.05102,153.80763 v 3e-5"
           style="fill:none;stroke:#000000;stroke-width:0.167;stroke-linecap:round;stroke-linejoin:round;stroke-miterlimit:4;stroke-dasharray:none"
           id="path8348-6" />
        <path
           d="m 207.51309,153.5126 c 1e-5,0.0295 0.004,0.059 0.0132,0.0873 0.014,0.0451 0.0389,0.0867 0.0722,0.1203 0.0531,0.0537 0.12754,0.0858 0.20306,0.0874 0.002,5e-5 0.004,8e-5 0.007,8e-5"
           style="fill:none;stroke:#000000;stroke-width:0.167;stroke-linecap:round;stroke-linejoin:round;stroke-miterlimit:4;stroke-dasharray:none"
           id="path8350-5" />
        <path
           d="m 226.0477,136.80875 0.0712,-0.002"
           style="fill:none;stroke:#000000;stroke-width:0.167;stroke-linecap:round;stroke-linejoin:round;stroke-miterlimit:4;stroke-dasharray:none"
           id="path8352-6" />
        <ellipse
           cx="211.17702"
           cy="-149.75023"
           style="fill:none;stroke:#000000;stroke-width:0.167;stroke-linecap:round;stroke-linejoin:round;stroke-miterlimit:4;stroke-dasharray:none"
           id="circle8354-6"
           transform="scale(1,-1)"
           rx="1.7213056"
           ry="1.7213182" />
        <path
           d="m 226.11892,136.80672 c -0.005,-0.11304 -0.0103,-0.22953 -0.0192,-0.34689 -0.004,-0.0587 -0.008,-0.11883 -0.0198,-0.18701 -0.0114,-0.0682 -0.0255,-0.1287 -0.0412,-0.18574 -0.0631,-0.22816 -0.14872,-0.46072 -0.26848,-0.67433 -0.17736,-0.31638 -0.41826,-0.59944 -0.71531,-0.81644 -0.29706,-0.217 -0.63385,-0.36009 -0.97778,-0.45185 -0.55869,-0.14906 -1.12053,-0.18102 -1.67765,-0.17846 -0.55711,0.003 -1.11412,0.0481 -1.66423,0.13342 -0.68764,0.10666 -1.36123,0.27756 -2.0175,0.51062 -0.41016,0.14565 -0.81247,0.31509 -1.20476,0.50293 -0.39229,0.18783 -0.77458,0.39389 -1.14654,0.61129 -0.59513,0.34783 -1.16619,0.72577 -1.7272,1.11586 -0.89762,0.62413 -1.76901,1.27662 -2.66032,1.89745 -0.45958,0.32011 -0.92525,0.63029 -1.39377,0.94164 -0.46824,0.31115 -0.94535,0.62252 -1.38343,1.00209"
           style="fill:none;stroke:#000000;stroke-width:0.167;stroke-linecap:round;stroke-linejoin:round;stroke-miterlimit:4;stroke-dasharray:none"
           id="path8356-9" />
        <path
           d="m 226.11895,136.80672 h -3e-5"
           style="fill:none;stroke:#000000;stroke-width:0.167;stroke-linecap:round;stroke-linejoin:round;stroke-miterlimit:4;stroke-dasharray:none"
           id="path8358-8" />
        <ellipse
           cx="222.68517"
           cy="-149.75023"
           style="fill:none;stroke:#000000;stroke-width:0.167;stroke-linecap:round;stroke-linejoin:round;stroke-miterlimit:4;stroke-dasharray:none"
           id="circle8360-0"
           transform="scale(1,-1)"
           rx="1.7213056"
           ry="1.7213182" />
        <path
           d="m 225.90023,136.81296 0.14747,-0.004"
           style="fill:none;stroke:#000000;stroke-width:0.167;stroke-linecap:round;stroke-linejoin:round;stroke-miterlimit:4;stroke-dasharray:none"
           id="path8362-6" />
        <path
           d="m 207.80813,153.80766 v -3e-5"
           style="fill:none;stroke:#000000;stroke-width:0.167;stroke-linecap:round;stroke-linejoin:round;stroke-miterlimit:4;stroke-dasharray:none"
           id="path8364-5" />
        <path
           d="m 226.05102,153.80762 a 0.29505061,0.29505277 0 0 0 0.295,-0.29903"
           style="fill:none;stroke:#000000;stroke-width:0.167;stroke-linecap:round;stroke-linejoin:round;stroke-miterlimit:4;stroke-dasharray:none"
           id="path8366-9" />
        <path
           d="m 226.34606,153.50859 -0.22711,-16.70187"
           style="fill:none;stroke:#000000;stroke-width:0.167;stroke-linecap:round;stroke-linejoin:round;stroke-miterlimit:4;stroke-dasharray:none"
           id="path8368-6" />
        <path
           d="m 207.51306,144.24458 v 9.26802"
           style="fill:none;stroke:#000000;stroke-width:0.167;stroke-linecap:round;stroke-linejoin:round;stroke-miterlimit:4;stroke-dasharray:none"
           id="path8370-8" />
        <path
           d="m 207.80813,153.80766 h 18.24289"
           style="fill:none;stroke:#000000;stroke-width:0.167;stroke-linecap:round;stroke-linejoin:round;stroke-miterlimit:4;stroke-dasharray:none"
           id="path8372-5" />
        <path
           d="m 209.20175,140.68127 a 4.5983722,4.5984059 0 0 0 -1.68869,3.56331"
           style="fill:none;stroke:#000000;stroke-width:0.167;stroke-linecap:round;stroke-linejoin:round;stroke-miterlimit:4;stroke-dasharray:none"
           id="path8374-9" />
        <path
           d="m 225.97881,153.7364 a 0.29508097,0.29508313 0 0 0 0.29501,-0.29905"
           style="fill:none;stroke:#000000;stroke-width:0.167;stroke-linecap:round;stroke-linejoin:round;stroke-miterlimit:4;stroke-dasharray:none"
           id="path8408-1" />
        <path
           d="m 207.87937,153.7364 h 18.09944"
           style="fill:none;stroke:#000000;stroke-width:0.167;stroke-linecap:round;stroke-linejoin:round;stroke-miterlimit:4;stroke-dasharray:none"
           id="path8410-4" />
        <path
           d="m 226.11892,136.80672 0.22711,16.70187"
           style="fill:none;stroke:#000000;stroke-width:0.167;stroke-linecap:round;stroke-linejoin:round;stroke-miterlimit:4;stroke-dasharray:none"
           id="path8412-0" />
        <path
           d="m 209.34261,140.84871 c 5.4e-4,-4.7e-4 0.001,-9.3e-4 0.002,-9.8e-4 0.42328,-0.36689 0.89407,-0.67492 1.36091,-0.98516 0.46685,-0.31023 0.93382,-0.62123 1.39393,-0.94165 0.89235,-0.62141 1.76232,-1.27264 2.65356,-1.89276 0.55703,-0.38757 1.12223,-0.76202 1.70922,-1.10583 0.36686,-0.21488 0.7432,-0.41826 1.12865,-0.60348 0.38544,-0.18524 0.78003,-0.35213 1.18195,-0.49565 0.64307,-0.22964 1.3024,-0.39824 1.97601,-0.50402 0.53753,-0.0844 1.08294,-0.12998 1.62661,-0.13387 0.54366,-0.004 1.09109,0.0275 1.61879,0.16385 0.30936,0.08 0.60727,0.20123 0.87242,0.38211 0.26514,0.18087 0.48552,0.41902 0.65417,0.68925 0.10945,0.17537 0.19424,0.36505 0.2583,0.5615 0.016,0.0491 0.0309,0.0985 0.0448,0.14809 0.0139,0.0496 0.0269,0.0996 0.0357,0.15047 0.009,0.0508 0.0146,0.10234 0.019,0.15394 0.004,0.0516 0.008,0.10332 0.0109,0.15506 0.004,0.0748 0.008,0.14946 0.0111,0.22379"
           style="fill:none;stroke:#000000;stroke-width:0.167;stroke-linecap:round;stroke-linejoin:round;stroke-miterlimit:4;stroke-dasharray:none"
           id="path8414-1" />
        <path
           d="m 207.58433,144.23728 v 9.20409"
           style="fill:none;stroke:#000000;stroke-width:0.167;stroke-linecap:round;stroke-linejoin:round;stroke-miterlimit:4;stroke-dasharray:none"
           id="path8416-9" />
        <path
           d="m 207.58433,153.44137 -0.0712,0.0712"
           style="fill:none;stroke:#000000;stroke-width:0.167;stroke-linecap:round;stroke-linejoin:round;stroke-miterlimit:4;stroke-dasharray:none"
           id="path8418-0" />
        <path
           d="M 225.97881,153.58888 H 207.87937"
           style="fill:none;stroke:#000000;stroke-width:0.167;stroke-linecap:round;stroke-linejoin:round;stroke-miterlimit:4;stroke-dasharray:none"
           id="path8420-2" />
        <path
           d="m 207.58433,144.23728 -0.0712,0.007"
           style="fill:none;stroke:#000000;stroke-width:0.167;stroke-linecap:round;stroke-linejoin:round;stroke-miterlimit:4;stroke-dasharray:none"
           id="path8422-8" />
        <path
           d="m 226.27382,153.43735 -0.22612,-16.6286"
           style="fill:none;stroke:#000000;stroke-width:0.167;stroke-linecap:round;stroke-linejoin:round;stroke-miterlimit:4;stroke-dasharray:none"
           id="path8424-8" />
        <path
           d="m 209.24763,140.73582 c 0.43376,-0.37597 0.90863,-0.68604 1.37586,-0.99653 0.46724,-0.3105 0.93239,-0.62029 1.39128,-0.93985 0.88996,-0.61974 1.75942,-1.27061 2.6536,-1.89278 0.55887,-0.38886 1.12725,-0.76549 1.71892,-1.11204 0.36979,-0.21659 0.74967,-0.42192 1.13931,-0.60916 0.38964,-0.18724 0.78907,-0.35621 1.19624,-0.5016 0.65147,-0.23264 1.32005,-0.40362 2.00273,-0.51083 0.54477,-0.0856 1.09678,-0.13171 1.64844,-0.13564 0.55166,-0.004 1.10775,0.0267 1.65676,0.16853 0.32185,0.0832 0.63629,0.21046 0.91863,0.40306 0.28235,0.19261 0.5179,0.44734 0.6962,0.73303 0.1157,0.18539 0.20652,0.38877 0.2734,0.59386 0.0167,0.0512 0.0322,0.10262 0.0466,0.15398 0.0144,0.0513 0.0303,0.11484 0.039,0.16527 0.009,0.0505 0.0161,0.11326 0.0206,0.16656 0.004,0.0533 0.008,0.10639 0.0112,0.15892 0.004,0.0765 0.008,0.1531 0.0113,0.22815"
           style="fill:none;stroke:#000000;stroke-width:0.167;stroke-linecap:round;stroke-linejoin:round;stroke-miterlimit:4;stroke-dasharray:none"
           id="path8426-3" />
        <path
           d="m 225.97881,153.58888 0.007,-1.8e-4 m 0,0 0.007,-5.6e-4 m 0,0 0.007,-9.1e-4 m 0,0 0.007,-9.9e-4 m 0,0 0.007,-0.002 m 0,0 0.007,-0.002 m 0,0 0.007,-0.002 m 0,0 0.007,-0.003 m 0,0 0.007,-0.003 m 0,0 0.007,-0.003 m 0,0 0.006,-0.004 m 0,0 0.006,-0.004 m 0,0 0.006,-0.004 m 0,0 0.006,-0.005 m 0,0 0.006,-0.005 m 0,0 0.005,-0.005 m 0,0 0.005,-0.005 m 0,0 0.005,-0.006 m 0,0 0.004,-0.006 m 0,0 0.004,-0.006 m 0,0 0.004,-0.006 m 0,0 0.004,-0.007 m 0,0 0.003,-0.007 m 0,0 0.003,-0.007 m 0,0 0.002,-0.007 m 0,0 0.002,-0.007 m 0,0 0.002,-0.007 m 0,0 0.002,-0.007 m 0,0 0.001,-0.007 m 0,0 7e-4,-0.007 m 0,0 3.4e-4,-0.007 m 0,0 2e-5,-0.005"
           style="fill:none;stroke:#000000;stroke-width:0.167;stroke-linecap:round;stroke-linejoin:round;stroke-miterlimit:4;stroke-dasharray:none"
           id="path8428-1" />
        <path
           d="m 226.34603,153.50859 -0.0722,-0.0712"
           style="fill:none;stroke:#000000;stroke-width:0.167;stroke-linecap:round;stroke-linejoin:round;stroke-miterlimit:4;stroke-dasharray:none"
           id="path8430-6" />
        <path
           d="m 209.24763,140.73582 a 4.5271065,4.5271397 0 0 0 -1.6633,3.50146"
           style="fill:none;stroke:#000000;stroke-width:0.167;stroke-linecap:round;stroke-linejoin:round;stroke-miterlimit:4;stroke-dasharray:none"
           id="path8432-3" />
        <path
           d="m 207.80813,153.80763 0.0712,-0.0712"
           style="fill:none;stroke:#000000;stroke-width:0.167;stroke-linecap:round;stroke-linejoin:round;stroke-miterlimit:4;stroke-dasharray:none"
           id="path8436-3" />
        <path
           d="m 226.27382,153.43735 -0.14751,0.002"
           style="fill:none;stroke:#000000;stroke-width:0.167;stroke-linecap:round;stroke-linejoin:round;stroke-miterlimit:4;stroke-dasharray:none"
           id="path8438-5" />
        <path
           d="m 207.73185,153.44137 h -0.14752"
           style="fill:none;stroke:#000000;stroke-width:0.167;stroke-linecap:round;stroke-linejoin:round;stroke-miterlimit:4;stroke-dasharray:none"
           id="path8440-3" />
        <path
           d="m 209.34261,140.84871 a 4.3795885,4.3796206 0 0 0 -1.61076,3.38873"
           style="fill:none;stroke:#000000;stroke-width:0.167;stroke-linecap:round;stroke-linejoin:round;stroke-miterlimit:4;stroke-dasharray:none"
           id="path8442-0" />
        <path
           d="m 207.87937,153.58888 c -0.0147,0 -0.0295,-0.002 -0.0436,-0.007 -0.0225,-0.007 -0.0434,-0.0195 -0.0602,-0.0361 -0.0268,-0.0266 -0.0429,-0.0637 -0.0437,-0.10154 -3e-5,-9.9e-4 -4e-5,-0.002 -4e-5,-0.003"
           style="fill:none;stroke:#000000;stroke-width:0.167;stroke-linecap:round;stroke-linejoin:round;stroke-miterlimit:4;stroke-dasharray:none"
           id="path8444-7" />
        <path
           d="m 225.97881,153.7364 0.0722,0.0712"
           style="fill:none;stroke:#000000;stroke-width:0.167;stroke-linecap:round;stroke-linejoin:round;stroke-miterlimit:4;stroke-dasharray:none"
           id="path8446-3" />
        <path
           d="m 207.58433,144.23728 0.14752,1.6e-4"
           style="fill:none;stroke:#000000;stroke-width:0.167;stroke-linecap:round;stroke-linejoin:round;stroke-miterlimit:4;stroke-dasharray:none"
           id="path8448-1" />
        <path
           d="m 207.87937,153.58888 v 0.14752"
           style="fill:none;stroke:#000000;stroke-width:0.167;stroke-linecap:round;stroke-linejoin:round;stroke-miterlimit:4;stroke-dasharray:none"
           id="path8450-6" />
        <path
           d="m 225.97881,153.58888 v 0.14752"
           style="fill:none;stroke:#000000;stroke-width:0.167;stroke-linecap:round;stroke-linejoin:round;stroke-miterlimit:4;stroke-dasharray:none"
           id="path8452-5" />
        <path
           d="m 207.73185,153.44137 v -9.20393"
           style="fill:none;stroke:#000000;stroke-width:0.167;stroke-linecap:round;stroke-linejoin:round;stroke-miterlimit:4;stroke-dasharray:none"
           id="path8454-0" />
        <path
           d="m 207.51306,144.24458 h 3e-5"
           style="fill:none;stroke:#000000;stroke-width:0.167;stroke-linecap:round;stroke-linejoin:round;stroke-miterlimit:4;stroke-dasharray:none"
           id="path8456-0" />
        <path
           d="m 207.87937,153.7364 c -0.0295,0 -0.059,-0.004 -0.0872,-0.0132 -0.0451,-0.014 -0.0867,-0.0389 -0.12032,-0.0721 -0.0537,-0.0531 -0.0857,-0.12754 -0.0875,-0.20306 -5e-5,-0.002 -7e-5,-0.005 -7e-5,-0.007"
           style="fill:none;stroke:#000000;stroke-width:0.167;stroke-linecap:round;stroke-linejoin:round;stroke-miterlimit:4;stroke-dasharray:none"
           id="path8458-5" />
        <path
           d="m 207.51309,153.5126 v -9.26802"
           style="fill:none;stroke:#000000;stroke-width:0.167;stroke-linecap:round;stroke-linejoin:round;stroke-miterlimit:4;stroke-dasharray:none"
           id="path8460-1" />
        <path
           d="m 209.20177,140.6813 a 4.5983423,4.598376 0 0 0 -1.68868,3.56328"
           style="fill:none;stroke:#000000;stroke-width:0.167;stroke-linecap:round;stroke-linejoin:round;stroke-miterlimit:4;stroke-dasharray:none"
           id="path8462-1" />
        <path
           d="m 225.90023,136.81296 0.22608,16.6264"
           style="fill:none;stroke:#000000;stroke-width:0.167;stroke-linecap:round;stroke-linejoin:round;stroke-miterlimit:4;stroke-dasharray:none"
           id="path8464-4" />
      </g>
    </g>
  </g>
</svg>
