<?xml version="1.0" encoding="UTF-8" standalone="no"?>
<!-- Created with Inkscape (http://www.inkscape.org/) -->

<svg
   width="19.578524mm"
   height="10.348713mm"
   viewBox="0 0 19.578523 10.348713"
   version="1.1"
   id="svg12204"
   inkscape:version="1.2.2 (732a01da63, 2022-12-09)"
   sodipodi:docname="CF tampa encaixe.svg"
   xmlns:inkscape="http://www.inkscape.org/namespaces/inkscape"
   xmlns:sodipodi="http://sodipodi.sourceforge.net/DTD/sodipodi-0.dtd"
   xmlns="http://www.w3.org/2000/svg"
   xmlns:svg="http://www.w3.org/2000/svg">
  <sodipodi:namedview
     id="namedview12206"
     pagecolor="#505050"
     bordercolor="#ffffff"
     borderopacity="1"
     inkscape:pageshadow="0"
     inkscape:pageopacity="0"
     inkscape:pagecheckerboard="1"
     inkscape:document-units="mm"
     showgrid="false"
     inkscape:zoom="4.868932"
     inkscape:cx="41.179462"
     inkscape:cy="40.049851"
     inkscape:window-width="1680"
     inkscape:window-height="979"
     inkscape:window-x="1912"
     inkscape:window-y="-8"
     inkscape:window-maximized="1"
     inkscape:current-layer="layer1"
     fit-margin-top="0"
     fit-margin-left="0"
     fit-margin-right="0"
     fit-margin-bottom="0"
     inkscape:showpageshadow="0"
     inkscape:deskcolor="#505050" />
  <defs
     id="defs12201" />
  <g
     inkscape:label="Camada 1"
     inkscape:groupmode="layer"
     id="layer1"
     transform="translate(-145.96502,-174.39791)">
    <g
       transform="matrix(-1.5262213,0,0,-1.5381364,986.29339,-477.38116)"
       fill="none"
       stroke="#000000"
       stroke-linecap="round"
       stroke-width="0.094837"
       id="g196"
       style="stroke-width:0.32810278;stroke-dasharray:none">
      <path
         d="m 538.43,-429.61 a 0.5,0.5 0 0 0 -0.5,0.5"
         id="path96"
         style="stroke-width:0.32810278;stroke-dasharray:none" />
      <path
         d="m 549.93,-429.61 h -2.1"
         id="path100"
         style="stroke-width:0.32810278;stroke-dasharray:none" />
      <path
         d="m 539.58,-428.91 v 3.51"
         id="path102"
         style="stroke-width:0.32810278;stroke-dasharray:none" />
      <path
         d="m 550.43,-428.41 v -0.69982"
         id="path104"
         style="stroke-width:0.32810278;stroke-dasharray:none" />
      <path
         d="m 550.43,-429.11 a 0.5,0.5 0 0 0 -0.5,-0.5"
         id="path108"
         style="stroke-width:0.32810278;stroke-dasharray:none" />
      <path
         d="m 540.53,-429.61 h -2.1"
         id="path116"
         style="stroke-width:0.32810278;stroke-dasharray:none" />
      <path
         d="m 549.18,-424.41 v -0.50006"
         id="path122"
         style="stroke-width:0.32810278;stroke-dasharray:none" />
      <path
         d="m 539.18,-424.41 a 0.5,0.5 0 0 0 0.5,0.5"
         id="path126"
         style="stroke-width:0.32810278;stroke-dasharray:none" />
      <path
         d="m 549.53,-427.91 h 0.40005"
         id="path128"
         style="stroke-width:0.32810278;stroke-dasharray:none" />
      <path
         d="m 539.18,-424.91 v 0.50006"
         id="path130"
         style="stroke-width:0.32810278;stroke-dasharray:none" />
      <path
         d="m 547.83,-429.61 a 9.8661,9.8661 0 0 0 -7.3,0"
         id="path132"
         style="stroke-width:0.32810278;stroke-dasharray:none" />
      <path
         d="m 549.93,-427.91 a 0.5,0.5 0 0 0 0.5,-0.5"
         id="path134"
         style="stroke-width:0.32810278;stroke-dasharray:none" />
      <path
         d="m 549.73,-428.91 -0.20002,0.99986"
         id="path144"
         style="stroke-width:0.32810278;stroke-dasharray:none" />
      <path
         d="m 549.18,-424.91 a 0.5,0.5 0 0 0 -0.4,-0.48989"
         id="path148"
         style="stroke-width:0.32810278;stroke-dasharray:none" />
      <path
         d="m 538.43,-427.91 h 0.39979"
         id="path162"
         style="stroke-width:0.32810278;stroke-dasharray:none" />
      <path
         d="m 548.68,-423.91 a 0.5,0.5 0 0 0 0.5,-0.5"
         id="path164"
         style="stroke-width:0.32810278;stroke-dasharray:none" />
      <path
         d="m 548.78,-428.91 h 0.94985"
         id="path168"
         style="stroke-width:0.32810278;stroke-dasharray:none" />
      <path
         d="m 537.93,-429.11 v 0.69982"
         id="path170"
         style="stroke-width:0.32810278;stroke-dasharray:none" />
      <path
         d="m 539.58,-425.4 a 0.5,0.5 0 0 0 -0.4,0.4899"
         id="path176"
         style="stroke-width:0.32810278;stroke-dasharray:none" />
      <path
         d="m 538.83,-427.91 -0.19977,-0.99986"
         id="path178"
         style="stroke-width:0.32810278;stroke-dasharray:none" />
      <path
         d="m 538.63,-428.91 h 0.94986"
         id="path180"
         style="stroke-width:0.32810278;stroke-dasharray:none" />
      <path
         d="m 539.68,-423.91 h 9.0001"
         id="path182"
         style="stroke-width:0.32810278;stroke-dasharray:none" />
      <path
         d="m 548.78,-425.4 v -3.51"
         id="path184"
         style="stroke-width:0.32810278;stroke-dasharray:none" />
      <path
         d="m 537.93,-428.41 a 0.5,0.5 0 0 0 0.5,0.5"
         id="path192"
         style="stroke-width:0.32810278;stroke-dasharray:none" />
    </g>
  </g>
</svg>
